ply
format ascii 1.0
comment Created by Open3D
element vertex 322
property double x
property double y
property double z
property uchar red
property uchar green
property uchar blue
end_header
35.8714 0.808127 -4.83886 255 0 0
34.7001 -0.617122 -4.45583 255 0 0
35.9398 0.639171 -2.14937 255 0 0
36.0157 1.2387 -3.64843 255 0 0
35.3824 1.13293 -4.50502 255 0 0
35.6966 1.99103 -4.8287 255 0 0
35.9794 -0.298584 -2.14952 255 0 0
36.0577 0.983416 -3.04956 255 0 0
35.2605 0.710722 -4.79037 255 0 0
35.8376 1.57298 -3.04377 255 0 0
35.9067 1.23495 -2.1493 255 0 0
35.1518 1.29244 -5.37227 255 0 0
35.2825 1.046 -5.38401 255 0 0
35.7735 1.99532 -3.93745 255 0 0
35.9083 -0.383141 -2.14923 255 0 0
35.9193 -0.383258 -4.8421 255 0 0
36.0511 2.09656 -3.05075 255 0 0
35.9709 2.0919 -2.74877 255 0 0
35.7906 1.741 -3.34077 255 0 0
35.6479 -0.126783 -4.22494 255 0 0
36.1108 -0.299674 -3.05075 255 0 0
35.8535 2.08507 -3.64281 255 0 0
35.9256 -0.212953 -4.54221 255 0 0
35.24 0.626724 -5.37898 255 0 0
35.7979 1.82645 -4.53643 255 0 0
35.8972 -0.383022 -3.94124 255 0 0
36.0071 0.298813 -2.74828 255 0 0
35.9687 -0.127924 -2.14947 255 0 0
35.7411 1.99352 -2.44629 255 0 0
35.2396 1.212 -4.4951 255 0 0
35.7962 1.99659 -2.14898 255 0 0
35.2197 0.7099 -3.90488 255 0 0
36.0006 0.29876 -3.64683 255 0 0
36.1063 -0.214024 -2.45016 255 0 0
34.4386 1.5934 -3.28998 255 0 0
36.0952 0.0427912 -2.45001 255 0 0
35.941 -0.468718 -3.34493 255 0 0
35.6237 0.0422321 -4.81854 255 0 0
35.9146 0.979513 -2.1493 255 0 0
35.9297 0.979925 -2.44811 255 0 0
35.7217 1.82256 -5.12931 255 0 0
35.8226 1.14703 -4.23698 255 0 0
36.1239 0.214128 -2.45037 255 0 0
36.0083 0.0426881 -2.74828 255 0 0
35.8584 2.00006 -3.64281 255 0 0
35.965 0.724923 -2.44848 255 0 0
35.3892 0.377602 -5.39295 255 0 0
35.6465 0.887626 -4.5232 255 0 0
35.5367 -0.126388 -5.40692 255 0 0
35.0562 1.28892 -5.06909 255 0 0
35.7835 1.31566 -3.0419 255 0 0
35.9548 1.15126 -2.74755 255 0 0
35.8514 0.55257 -3.64014 255 0 0
35.9909 0.640079 -2.74804 255 0 0
35.7891 1.91108 -2.14894 255 0 0
35.9489 1.32174 -2.74755 255 0 0
35.6843 1.90549 -5.42591 255 0 0
36.0105 0.469624 -3.64736 255 0 0
35.6692 0.296009 -4.82224 255 0 0
35.1603 1.37623 -5.37339 255 0 0
35.9088 -0.297997 -5.44268 255 0 0
35.2152 1.29477 -4.19941 255 0 0
36.0246 0.21354 -3.6479 255 0 0
35.8154 1.40188 -3.04292 255 0 0
35.125 1.62515 -4.78206 255 0 0
35.6765 1.90507 -5.12574 255 0 0
36.025 0.128124 -3.6479 255 0 0
35.0095 1.12099 -5.0645 255 0 0
34.4928 -0.122675 -3.29064 255 0 0
35.1198 1.20789 -5.36892 255 0 0
35.1692 1.1261 -5.37339 255 0 0
35.8909 1.57532 -2.44789 255 0 0
35.6984 0.380901 -3.93049 255 0 0
35.4852 0.883608 -5.403 255 0 0
35.9125 -0.383185 -4.54139 255 0 0
35.8087 1.99728 -4.23844 255 0 0
36.1233 -0.299778 -2.45037 255 0 0
35.8128 -0.382122 -5.13339 255 0 0
35.0921 1.12363 -4.7779 255 0 0
35.8203 1.82759 -2.44716 255 0 0
35.9272 1.06511 -2.44811 255 0 0
34.5433 1.10606 -3.00562 255 0 0
35.9368 -0.29823 -2.74682 255 0 0
35.9836 0.383943 -4.84718 255 0 0
35.8678 1.48911 -2.14918 255 0 0
35.8345 1.91351 -3.34274 255 0 0
36.0638 0.726913 -3.04956 255 0 0
35.8861 1.31943 -2.14923 255 0 0
35.6167 -0.0422238 -4.52031 255 0 0
36.0714 -0.213817 -3.65004 255 0 0
36.1207 -0.471061 -3.05109 255 0 0
35.7236 1.82266 -5.42927 255 0 0
36.0369 2.09573 -2.15001 255 0 0
36.1108 0.299674 -3.05075 255 0 0
35.1725 0.792381 -5.37283 255 0 0
36.0024 -0.0426811 -2.74816 255 0 0
35.818 1.9978 -2.74548 255 0 0
36.0797 0.470527 -3.0499 255 0 0
35.7119 0.889253 -4.82639 255 0 0
35.9977 1.0672 -3.64736 255 0 0
36.0541 0.897774 -3.04939 255 0 0
35.875 1.1487 -3.94092 255 0 0
36.0902 0.556251 -3.05024 255 0 0
36.002 0.640277 -3.6471 255 0 0
35.2278 0.125289 -5.3773 255 0 0
35.0414 1.37158 -5.06807 255 0 0
35.5885 -0.126572 -4.81577 255 0 0
35.7088 1.99171 -5.42871 255 0 0
36.0022 0.128043 -2.74816 255 0 0
35.9457 1.06566 -2.74731 255 0 0
35.9055 1.66127 -2.74694 255 0 0
35.0773 1.37299 -4.77744 255 0 0
35.6852 0.973257 -4.5261 255 0 0
36.004 0.554923 -2.74828 255 0 0
34.8862 0.289511 -5.05225 255 0 0
35.0421 1.37161 -3.89635 255 0 0
35.9542 -0.468889 -2.14942 255 0 0
35.9885 0.981529 -3.64683 255 0 0
35.4659 0.126136 -4.80607 255 0 0
35.8963 -0.383012 -5.44156 255 0 0
35.7958 1.06121 -3.9365 255 0 0
36.0815 -0.384988 -2.44986 255 0 0
35.45 1.55597 -3.91879 255 0 0
35.9692 0.469086 -2.44848 255 0 0
34.4508 0.285898 -3.2891 255 0 0
35.4145 -0.0419842 -5.39518 255 0 0
35.5628 1.72992 -5.11502 255 0 0
36.1062 -0.0428041 -3.05058 255 0 0
35.9529 0.554136 -2.14942 255 0 0
35.9689 -0.0426414 -2.14947 255 0 0
35.9227 0.894502 -2.14933 255 0 0
35.3759 0.964822 -5.09614 255 0 0
35.8954 1.31977 -2.44782 255 0 0
35.0938 1.54033 -4.77929 255 0 0
35.1918 0.709337 -5.37451 255 0 0
35.8529 1.48849 -3.04411 255 0 0
35.7928 1.74111 -4.23661 255 0 0
35.957 0.127882 -2.14942 255 0 0
35.9742 0.21324 -2.1495 255 0 0
35.956 0.298389 -2.14942 255 0 0
35.9493 0.383578 -2.1494 255 0 0
35.9364 0.809591 -2.14937 255 0 0
35.9063 1.06449 -2.14928 255 0 0
35.8641 1.57415 -2.14918 255 0 0
35.8603 1.65917 -2.14918 255 0 0
35.8446 1.74363 -2.14913 255 0 0
35.6158 0.464477 -4.22312 255 0 0
35.5241 1.55922 -4.51618 255 0 0
35.6987 1.73653 -5.42647 255 0 0
35.6792 1.05776 -4.22786 255 0 0
35.6053 0.971079 -5.41474 255 0 0
36.001 1.15274 -3.64763 255 0 0
36.0081 1.58047 -3.6487 255 0 0
35.03 1.2048 -5.06654 255 0 0
35.4855 1.05202 -4.80884 255 0 0
34.5567 -0.204839 -3.29304 255 0 0
34.4696 0.0408639 -3.28976 255 0 0
36.1009 0.128394 -2.45008 255 0 0
36.094 0.299535 -2.45001 255 0 0
35.9644 0.383739 -2.4484 255 0 0
35.9563 0.554188 -2.44833 255 0 0
35.9432 0.639231 -2.44818 255 0 0
35.9339 0.809535 -2.44811 255 0 0
35.9377 0.894878 -2.44818 255 0 0
35.9246 1.15029 -2.44811 255 0 0
35.9159 1.23527 -2.44804 255 0 0
35.9097 1.40557 -2.44804 255 0 0
35.9121 1.49095 -2.44811 255 0 0
35.8871 1.66041 -2.44789 255 0 0
35.8538 1.74407 -2.44753 255 0 0
35.7516 1.90908 -2.44636 255 0 0
35.9058 2.08811 -2.4484 255 0 0
35.9881 0.383992 -3.64629 255 0 0
36.106 0.128412 -3.05058 255 0 0
35.2242 1.46239 -4.49468 255 0 0
35.9303 -0.383375 -3.34449 255 0 0
35.9578 1.2367 -2.74767 255 0 0
36.1273 -0.471148 -2.45045 255 0 0
36.1067 -0.128415 -2.45016 255 0 0
36.1011 -0.0427981 -2.45008 255 0 0
36.0252 0.213543 -2.74864 255 0 0
36.0004 0.384123 -2.74816 255 0 0
35.9818 0.46925 -2.74779 255 0 0
35.9659 0.724941 -2.74755 255 0 0
35.9816 0.81061 -2.74791 255 0 0
35.962 0.895483 -2.74755 255 0 0
35.9598 0.980747 -2.74755 255 0 0
35.9164 1.40583 -2.74694 255 0 0
35.9247 1.49147 -2.74718 255 0 0
35.9269 1.5769 -2.74731 255 0 0
35.8898 1.74583 -2.7467 255 0 0
35.8271 1.82793 -2.74548 255 0 0
35.846 1.91412 -2.74597 255 0 0
36.0712 0.641508 -3.04973 255 0 0
35.5718 0.0421706 -3.92354 255 0 0
35.8558 1.8294 -3.64228 255 0 0
35.9594 -0.383686 -2.74731 255 0 0
35.9068 0.553425 -4.24136 255 0 0
35.6069 -0.0422122 -3.92543 255 0 0
36.0462 -0.47009 -2.74913 255 0 0
35.996 -0.21337 -2.74804 255 0 0
36.0139 -0.128085 -2.7484 255 0 0
36.112 0.0428111 -3.05075 255 0 0
36.0939 0.21395 -3.05024 255 0 0
36.0866 0.385043 -3.05007 255 0 0
36.0736 0.812683 -3.0499 255 0 0
34.5751 1.02503 -3.00648 255 0 0
35.6988 1.2278 -3.03934 255 0 0
35.8513 1.65876 -3.04428 255 0 0
35.8882 1.74575 -3.04547 255 0 0
35.8255 1.82785 -3.04377 255 0 0
35.8035 1.91185 -3.04326 255 0 0
35.8515 1.99967 -3.04479 255 0 0
36.0339 -0.384481 -3.04854 255 0 0
34.9798 1.45224 -5.06297 255 0 0
36.1056 -0.214019 -3.05058 255 0 0
36.1001 -0.128391 -3.05041 255 0 0
34.4355 0.857471 -3.28888 255 0 0
35.8623 1.82973 -3.34362 255 0 0
35.8941 2.00205 -3.34515 255 0 0
36.0879 2.0987 -3.3526 255 0 0
35.2693 0.543599 -4.79083 255 0 0
35.9428 -0.29828 -3.34493 255 0 0
36.0896 0.0427844 -3.65084 255 0 0
35.7665 0.720921 -3.63639 255 0 0
35.9986 0.810992 -3.6471 255 0 0
35.9381 0.894886 -3.64442 255 0 0
36.0126 1.32409 -3.64843 255 0 0
36.0035 1.40924 -3.64817 255 0 0
35.9884 1.49411 -3.64763 255 0 0
35.9926 1.6653 -3.64817 255 0 0
35.9769 1.75006 -3.64763 255 0 0
35.828 1.91316 -3.64121 255 0 0
35.0513 1.28874 -4.77513 255 0 0
35.1831 0.54227 -5.37339 255 0 0
36.0982 -0.470768 -3.65138 255 0 0
36.0583 -0.384741 -3.6495 255 0 0
36.0416 -0.299099 -3.6487 255 0 0
36.066 -0.12827 -3.64977 255 0 0
36.0603 -0.0427498 -3.6495 255 0 0
35.478 0.126179 -3.91848 255 0 0
35.2204 0.208772 -3.90457 255 0 0
35.4536 0.294221 -3.91721 255 0 0
35.8903 0.468057 -3.94092 255 0 0
35.8774 0.552972 -3.94029 255 0 0
35.309 0.627951 -3.90962 255 0 0
35.9077 0.808943 -3.94219 255 0 0
35.8881 0.893642 -3.94124 255 0 0
35.8157 0.976818 -3.93745 255 0 0
35.4339 1.21869 -3.91721 255 0 0
35.3024 1.29797 -3.91026 255 0 0
35.2374 1.46294 -3.90709 255 0 0
35.1658 1.62704 -3.90362 255 0 0
35.5648 1.73002 -3.92543 255 0 0
35.7884 1.82596 -3.93776 255 0 0
35.7547 1.90925 -3.93618 255 0 0
34.468 2.08651 -3.86726 255 0 0
35.3436 -0.125701 -3.9112 255 0 0
35.1345 1.04161 -5.07522 255 0 0
35.1337 1.45863 -5.37115 255 0 0
36.0306 -0.469887 -3.94851 255 0 0
35.8805 -0.297762 -3.94029 255 0 0
35.8577 -0.21255 -3.93903 255 0 0
35.6303 0.126721 -4.22385 255 0 0
35.7521 0.296697 -4.23151 255 0 0
35.4883 0.378659 -4.21509 255 0 0
35.2159 0.626297 -4.19832 255 0 0
35.417 0.79789 -4.21108 255 0 0
35.6838 0.888554 -4.22786 255 0 0
35.4635 1.2197 -4.21473 255 0 0
35.3079 1.46586 -4.20561 255 0 0
35.5029 1.55829 -4.21801 255 0 0
35.8366 1.91362 -4.2399 255 0 0
36.0517 -0.470161 -4.55131 255 0 0
35.2432 -0.0417811 -5.08338 255 0 0
34.5921 -0.533161 -4.15929 255 0 0
36.0025 -0.384146 -4.24719 255 0 0
35.7988 -0.297085 -4.23442 255 0 0
35.6013 -0.0422056 -4.22202 255 0 0
35.5174 0.0421061 -4.51328 255 0 0
35.3653 0.125778 -4.50254 255 0 0
35.3591 0.209595 -4.50212 255 0 0
35.4636 0.294303 -4.50956 255 0 0
35.4969 0.462926 -4.51204 255 0 0
35.3321 0.544567 -4.50047 255 0 0
35.3132 0.628027 -4.49923 255 0 0
35.2474 0.710459 -4.49468 255 0 0
35.304 0.795344 -4.49882 255 0 0
35.1692 1.37658 -4.49055 255 0 0
35.811 1.91225 -4.53767 255 0 0
35.7889 1.99618 -4.53643 255 0 0
35.8935 -0.468098 -5.14054 255 0 0
34.9857 -0.124428 -4.47567 255 0 0
35.4947 0.210398 -4.80838 255 0 0
35.9125 0.468346 -4.84163 255 0 0
35.1068 1.20744 -4.77929 255 0 0
35.074 1.45615 -4.77744 255 0 0
35.659 1.81936 -4.82501 255 0 0
35.7246 1.90764 -4.83055 255 0 0
34.5384 -0.614247 -4.7331 255 0 0
35.9417 -0.468727 -4.84394 255 0 0
35.9026 -0.297947 -4.84071 255 0 0
35.3604 -0.209602 -4.79776 255 0 0
35.0682 0.0415736 -5.06807 255 0 0
34.823 0.123849 -5.04664 255 0 0
34.8343 0.206484 -5.04766 255 0 0
35.3054 0.376707 -5.089 255 0 0
35.1119 0.457905 -5.07216 255 0 0
34.9999 0.539447 -5.06246 255 0 0
34.8761 0.620253 -5.05174 255 0 0
35.139 0.874989 -5.07522 255 0 0
35.0054 1.53645 -5.06552 255 0 0
35.7535 1.9942 -5.13288 255 0 0
35.8311 -0.297353 -5.13493 255 0 0
35.2805 0.0418253 -5.38233 255 0 0
35.2682 0.209056 -5.38121 255 0 0
35.3026 0.292967 -5.38456 255 0 0
35.1843 0.458849 -5.37339 255 0 0
35.299 1.54934 -5.38736 255 0 0
35.5701 2.06859 -5.41586 255 0 0
34.4882 -0.613354 -5.30689 255 0 0
35.9361 -0.468654 -5.44547 255 0 0
