ply
format ascii 1.0
comment Created by Open3D
element vertex 528
property double x
property double y
property double z
property uchar red
property uchar green
property uchar blue
end_header
15.5136 0.49674 -3.48805 0 0 255
14.5044 0.257953 -4.00191 0 0 255
15.5067 0.312559 -3.48693 0 0 255
16.0842 0.362352 -4.76791 255 0 0
13.0886 -0.543395 -5.0473 0 0 255
15.3691 -0.145749 -4.64431 255 0 0
13.2177 -0.0156697 -4.72923 0 0 255
12.8807 0.994533 -4.89227 0 0 255
13.1058 0.824544 -4.71147 0 0 255
16.6044 -0.255921 -4.29167 255 0 0
15.0002 0.231195 -3.56417 0 0 255
14.3191 1.15684 -4.47156 0 0 255
14.7582 0.437526 -3.78796 0 0 255
14.7414 0.017476 -3.78515 0 0 255
14.71 -0.401193 -4.03073 0 0 255
15.0892 -0.0536654 -3.57328 0 0 255
13.2505 -0.550115 -4.96902 0 0 255
15.0972 0.340115 -3.57449 0 0 255
14.4765 0.89355 -4.12453 0 0 255
13.5372 -0.594175 -4.79791 0 0 255
16.197 0.172821 -4.78677 255 0 0
15.0663 0.410909 -3.57145 0 0 255
14.4863 0.291992 -3.99951 0 0 255
14.9624 0.656729 -3.68748 0 0 255
14.3293 0.935637 -4.34783 0 0 255
13.8822 -0.411557 -4.62781 0 0 255
15.2133 0.812365 -3.58846 0 0 255
15.5366 0.27631 -3.48972 0 0 255
14.0619 0.951667 -4.5456 0 0 255
15.4802 0.0183519 -4.26752 255 0 0
13.2189 -0.344836 -4.73042 0 0 255
12.9374 0.937214 -4.79096 0 0 255
13.1644 1.04784 -4.84145 0 0 255
14.7233 -0.331694 -4.1572 0 0 255
13.7322 -0.146522 -4.59842 0 0 255
15.5109 0.386234 -3.48749 0 0 255
14.9908 0.94314 -3.81894 0 0 255
14.5973 0.606032 -3.89256 0 0 255
15.2919 -0.0181287 -4.63091 255 0 0
14.2128 -0.252768 -4.56745 0 0 255
13.0103 -0.323967 -5.0274 0 0 255
14.4255 -0.393434 -4.23648 0 0 255
14.0986 0.920576 -4.55184 0 0 255
12.9167 -0.137821 -5.00484 0 0 255
14.7824 0.824509 -3.79289 0 0 255
16.0934 -0.286213 -4.22123 255 0 0
16.1244 0.248522 -4.49922 255 0 0
15.5635 0.831067 -3.49419 0 0 255
15.7255 0.0559281 -3.5076 0 0 255
15.5091 -0.0551587 -4.27176 255 0 0
15.0026 0.979599 -4.07475 0 0 255
13.0905 -0.388084 -4.93192 0 0 255
13.6369 -0.371925 -4.69883 0 0 255
14.7194 0.366525 -3.78304 0 0 255
15.1096 0.627297 -4.47255 0 0 255
13.0069 1.06634 -4.92169 0 0 255
14.8281 -0.123054 -3.79571 0 0 255
15.3917 -0.273734 -4.51695 255 0 0
14.7436 0.787288 -3.78796 0 0 255
14.644 -0.555796 -4.39602 0 0 255
13.71 -0.0162533 -4.59407 0 0 255
14.503 0.32673 -4.00191 0 0 255
16.2467 0.0577819 -4.24204 255 0 0
14.913 0.583722 -3.68158 0 0 255
14.6123 0.901929 -4.02032 0 0 255
15.1729 -0.233856 -3.70977 0 0 255
12.9712 -0.0461326 -4.79096 0 0 255
13.6016 -0.403236 -4.69201 0 0 255
15.3371 0.891936 -3.60181 0 0 255
12.9853 -0.246357 -4.90762 0 0 255
14.289 1.20557 -4.4671 0 0 255
14.7475 0.402216 -3.78656 0 0 255
15.2024 -0.342486 -4.35664 255 0 0
16.3628 0.562768 -4.39821 255 0 0
14.8988 0.264968 -3.67896 0 0 255
14.8508 -0.299338 -3.92415 0 0 255
14.0332 0.299523 -4.53519 0 0 255
15.4455 -0.0183107 -4.26243 255 0 0
13.9083 -0.51137 -4.75338 0 0 255
14.926 0.832522 -4.4442 0 0 255
14.8053 -0.0175518 -3.79289 0 0 255
15.2733 0.960913 -4.63289 0 0 255
15.6156 0.722498 -3.49866 0 0 255
12.9223 -0.0919083 -4.78049 0 0 255
14.8359 0.19348 -3.67175 0 0 255
13.4747 0.799646 -4.67042 0 0 255
15.0589 0.196388 -3.57024 0 0 255
14.5188 1.29432 -4.5078 0 0 255
13.3836 -0.587431 -5.11628 0 0 255
14.7878 0.0525934 -3.79078 0 0 255
13.9912 0.547638 -4.52895 0 0 255
13.5811 -0.305961 -4.68747 0 0 255
13.2585 1.0237 -4.74581 0 0 255
14.7123 -0.645749 -4.53361 0 0 255
14.6288 0.798527 -3.89782 0 0 255
14.6175 0.45071 -3.89444 0 0 255
15.124 0.0896492 -3.57692 0 0 255
16.0692 -0.0952516 -3.54057 0 0 255
14.7274 0.26192 -3.78374 0 0 255
16.6328 0.927718 -4.29887 255 0 0
14.3252 0.935368 -4.22482 0 0 255
13.1405 -0.264864 -4.71384 0 0 255
14.5984 -0.606077 -4.51376 0 0 255
15.7255 -0.0559281 -3.5076 0 0 255
16.3122 0.406186 -4.52882 255 0 0
15.5264 0.460301 -3.48916 0 0 255
14.8994 -0.158976 -3.93017 0 0 255
14.5987 0.571419 -3.89256 0 0 255
14.4901 -0.360814 -4.24634 0 0 255
14.4696 0.291654 -4.48993 0 0 255
13.4343 0.893191 -4.6636 0 0 255
15.3203 0.127139 -4.63587 255 0 0
14.0364 -0.0499208 -4.53519 0 0 255
15.4685 0.0550144 -4.26582 255 0 0
14.6075 0.64115 -3.89406 0 0 255
14.063 0.250104 -4.5404 0 0 255
13.7269 -0.097621 -4.59733 0 0 255
15.1415 -0.0897527 -3.57874 0 0 255
14.8945 0.158924 -3.67831 0 0 255
14.8853 0.688708 -3.67896 0 0 255
16.302 -0.173942 -4.38802 255 0 0
14.8929 0.8661 -4.69442 0 0 255
14.7985 0.649536 -4.29566 0 0 255
14.7522 0.157405 -3.78656 0 0 255
14.5389 -0.500041 -4.50284 0 0 255
14.5047 -0.395591 -4.3724 0 0 255
14.0385 0.516157 -4.53727 0 0 255
16.7253 -0.138798 -4.44997 255 0 0
15.5111 0.5703 -3.48805 0 0 255
14.7293 0.122234 -3.78374 0 0 255
16.1688 0.440979 -4.7828 255 0 0
13.8009 -0.179981 -4.61148 0 0 255
14.6668 -0.260842 -4.14871 0 0 255
14.9072 0.796019 -4.56836 0 0 255
15.5318 0.128895 -4.27516 255 0 0
13.4722 -0.0958333 -4.66531 0 0 255
14.7628 0.788312 -4.29118 0 0 255
13.8295 -0.442814 -4.61802 0 0 255
14.7606 0.718017 -4.29028 0 0 255
15.6795 0.688203 -4.29892 255 0 0
15.5415 0.534523 -3.49084 0 0 255
14.9073 0.406572 -3.68027 0 0 255
13.9314 0.446077 -4.5175 0 0 255
14.5071 0.29241 -4.3724 0 0 255
15.3043 0.853623 -3.59817 0 0 255
13.0137 0.293178 -4.68779 0 0 255
12.8946 -0.0152866 -4.99954 0 0 255
15.131 0.592254 -4.34678 0 0 255
14.3725 -0.426092 -4.22841 0 0 255
13.7156 0.0487802 -4.59516 0 0 255
16.2658 0.482221 -4.79968 255 0 0
13.5244 -0.272602 -4.6761 0 0 255
16.7331 -0.178541 -4.30928 255 0 0
13.0202 -0.262439 -4.80204 0 0 255
15.2421 0.560411 -3.59028 0 0 255
13.0081 1.0975 -5.03668 0 0 255
14.603 0.849239 -4.26697 0 0 255
14.6896 0.854279 -3.9061 0 0 255
13.8071 0.901544 -4.61802 0 0 255
15.4624 -0.164983 -3.48246 0 0 255
16.3436 -0.290662 -4.5333 255 0 0
14.5353 -0.327457 -4.37712 0 0 255
12.9781 -0.230809 -5.01944 0 0 255
13.1134 -0.419886 -4.82298 0 0 255
14.7644 0.0875175 -3.78796 0 0 255
16.2596 0.212046 -4.65867 255 0 0
14.7605 0.542703 -3.78867 0 0 255
15.3898 0.0912244 -4.64778 255 0 0
16.1006 0.400917 -4.77089 255 0 0
13.0723 -0.232483 -4.69963 0 0 255
14.9323 0.797361 -3.68486 0 0 255
14.8755 0.688257 -4.43475 0 0 255
14.8649 0.12336 -3.92566 0 0 255
14.7899 0.895301 -3.7943 0 0 255
14.4009 0.940315 -4.11392 0 0 255
14.8538 5.9501e-16 -3.92415 0 0 255
15.5669 0.203012 -3.49252 0 0 255
15.0849 0.697942 -3.57449 0 0 255
16.6305 0.92759 -4.43979 255 0 0
14.833 0.351765 -3.67175 0 0 255
16.1461 0.325447 -4.50281 255 0 0
16.3131 0.483624 -4.39057 255 0 0
14.6233 0.537657 -3.89557 0 0 255
14.9006 0.724828 -4.1852 0 0 255
14.8371 0.721737 -3.67372 0 0 255
14.7695 0.297699 -3.91362 0 0 255
15.2233 -0.0902379 -4.35933 255 0 0
14.9251 -0.265434 -3.80767 0 0 255
14.6356 -0.364437 -4.02032 0 0 255
13.695 0.503527 -4.59298 0 0 255
14.7571 0.227448 -3.78726 0 0 255
14.8884 0.618114 -3.67896 0 0 255
15.0164 0.302676 -3.56599 0 0 255
16.4058 0.213953 -4.4033 255 0 0
15.7255 0.0186427 -3.5076 0 0 255
15.6553 0.0927986 -3.5009 0 0 255
15.6258 0.148179 -3.4981 0 0 255
15.5489 0.239651 -3.49084 0 0 255
15.4943 0.349063 -3.48581 0 0 255
15.5041 0.422851 -3.48693 0 0 255
15.5213 0.607531 -3.48916 0 0 255
15.5548 0.645781 -3.49252 0 0 255
15.5765 0.683682 -3.49475 0 0 255
15.6295 0.79743 -3.50034 0 0 255
13.7265 0.146461 -4.59733 0 0 255
14.8508 0.722402 -4.43097 0 0 255
15.0921 0.519065 -3.57449 0 0 255
15.5205 0.0919994 -4.27346 255 0 0
15.3091 0.0544475 -4.63388 255 0 0
15.0628 -0.196439 -3.69732 0 0 255
13.6835 0.308268 -4.58971 0 0 255
13.5622 0.998649 -4.69031 0 0 255
16.1564 0.134078 -4.64167 255 0 0
14.6009 0.363573 -4.13938 0 0 255
15.795 -0.131078 -3.51431 0 0 255
15.7663 -0.0186911 -3.51152 0 0 255
15.1243 0.0179299 -3.57692 0 0 255
15.0601 0.0535619 -3.57024 0 0 255
15.1063 0.125363 -3.5751 0 0 255
15.0287 0.267278 -3.5672 0 0 255
15.0381 0.37446 -3.56842 0 0 255
15.035 0.481416 -3.56842 0 0 255
15.1476 0.592904 -3.58056 0 0 255
15.1425 0.646645 -3.58026 0 0 255
15.1454 0.772731 -3.58117 0 0 255
15.3059 0.926538 -3.59878 0 0 255
14.8626 -0.158584 -3.79993 0 0 255
14.8748 -0.0881721 -3.80134 0 0 255
13.3589 1.06332 -4.76712 0 0 255
14.8912 -0.10592 -3.92904 0 0 255
16.207 0.0960686 -4.51178 255 0 0
13.5344 -0.337017 -4.67838 0 0 255
13.4201 0.748526 -4.65906 0 0 255
13.724 0.0976108 -4.59679 0 0 255
13.4106 0.206696 -4.65338 0 0 255
14.9202 0.548575 -3.68224 0 0 255
12.9417 0.875854 -4.79096 0 0 255
15.2733 -0.271627 -3.59271 0 0 255
15.2448 -0.234965 -3.58967 0 0 255
15.2162 -0.198439 -3.58663 0 0 255
15.2224 -0.162423 -3.58724 0 0 255
15.165 -0.0179783 -3.58117 0 0 255
15.0205 1.72448e-05 -3.6924 0 0 255
14.9651 0.0532239 -3.68617 0 0 255
15.0348 0.08912 -3.69404 0 0 255
14.946 0.230359 -3.68421 0 0 255
14.7935 0.298182 -3.66716 0 0 255
14.883 0.441227 -3.67765 0 0 255
14.8813 0.494142 -3.67765 0 0 255
14.9051 0.760472 -3.68158 0 0 255
14.9322 0.850652 -3.68519 0 0 255
15.1179 0.915156 -3.7065 0 0 255
16.1729 0.24927 -4.7828 255 0 0
13.7348 0.651803 -4.60169 0 0 255
14.8052 -0.0526554 -3.79289 0 0 255
14.4178 1.1476 -4.86133 0 0 255
14.5419 -0.500143 -4.37901 0 0 255
16.0704 0.972815 -4.7699 255 0 0
14.9876 -0.159917 -3.68879 0 0 255
15.0084 -0.106761 -3.69109 0 0 255
15.0233 -0.0534308 -3.69273 0 0 255
14.7111 0.191852 -3.78163 0 0 255
14.7326 0.296955 -3.78444 0 0 255
14.6737 0.330576 -3.77741 0 0 255
14.7338 0.471772 -3.78515 0 0 255
14.7559 0.507504 -3.78796 0 0 255
14.6895 0.57497 -3.78022 0 0 255
14.7578 0.612691 -3.78867 0 0 255
14.7505 0.647425 -3.78796 0 0 255
14.7713 0.700997 -3.79078 0 0 255
14.8616 0.758252 -3.80204 0 0 255
14.8036 0.860906 -3.79571 0 0 255
13.2993 -0.520555 -4.74818 0 0 255
16.8145 0.897867 -4.32369 255 0 0
14.7449 0.682215 -4.28759 0 0 255
13.0653 -0.294341 -4.81189 0 0 255
14.9378 -0.194808 -3.80908 0 0 255
14.8537 0.0528277 -3.92415 0 0 255
14.9342 0.159348 -3.93468 0 0 255
14.6947 0.261337 -3.90384 0 0 255
14.7612 0.402589 -3.91287 0 0 255
14.6361 0.503383 -3.89707 0 0 255
14.6196 0.693788 -3.89594 0 0 255
14.6431 0.747107 -3.89933 0 0 255
14.6285 0.902967 -3.89858 0 0 255
14.1894 1.02791 -4.56954 0 0 255
15.2311 -0.307004 -4.62098 255 0 0
13.815 -0.344004 -4.61475 0 0 255
12.923 0.0459612 -5.00617 0 0 255
14.0947 0.685624 -4.54872 0 0 255
14.7644 -0.262577 -3.91287 0 0 255
14.8177 -0.193242 -3.91964 0 0 255
14.6559 0.852319 -4.02592 0 0 255
15.3554 0.0182039 -4.64183 255 0 0
13.4405 0.111539 -4.65906 0 0 255
12.9973 0.601358 -4.68661 0 0 255
14.6712 -0.330518 -4.02512 0 0 255
14.7531 -0.297368 -4.03633 0 0 255
16.6224 -0.216778 -4.29407 255 0 0
16.9132 -0.140359 -4.33409 255 0 0
16.357 -0.0193913 -4.25725 255 0 0
16.1745 0.172582 -4.36935 255 0 0
16.3161 0.367577 -4.39057 255 0 0
16.2795 0.443997 -4.38548 255 0 0
15.4405 0.714399 -4.26413 255 0 0
14.7947 0.754842 -4.16993 0 0 255
14.5634 0.84694 -4.13683 0 0 255
15.1445 0.520868 -4.60708 0 0 255
12.9705 0.785161 -4.79588 0 0 255
14.7473 0.752423 -4.28849 0 0 255
13.0284 0.0154453 -4.69016 0 0 255
14.614 -0.294565 -4.14107 0 0 255
14.7833 -0.227851 -4.16568 0 0 255
15.392 -0.200732 -4.25479 255 0 0
16.8762 -0.100035 -4.47204 255 0 0
15.2467 0.0180751 -4.36292 255 0 0
14.3793 0.90467 -4.23289 0 0 255
14.5481 0.984568 -4.25979 0 0 255
13.0551 0.232177 -4.69608 0 0 255
12.9229 0.813037 -4.78603 0 0 255
14.5573 -0.22437 -4.50482 0 0 255
13.1131 0.887457 -4.71384 0 0 255
14.4466 -0.462576 -4.24006 0 0 255
16.1172 -0.324864 -4.49833 255 0 0
15.4422 -0.201386 -4.39341 255 0 0
15.2227 -0.162426 -4.35933 255 0 0
15.3388 -0.127293 -4.37727 255 0 0
15.2467 -0.0542253 -4.36292 255 0 0
14.4962 0.257807 -4.37051 0 0 255
14.9117 0.654505 -4.44042 0 0 255
14.8605 0.7582 -4.43286 0 0 255
14.8356 0.7922 -4.42908 0 0 255
14.4064 0.906376 -4.36011 0 0 255
14.3559 0.97156 -4.35256 0 0 255
14.365 1.0064 -4.35445 0 0 255
13.7345 0.195411 -4.59897 0 0 255
13.0895 -0.45019 -4.81805 0 0 255
13.8372 -0.377386 -4.6191 0 0 255
14.6342 -0.294972 -4.39318 0 0 255
15.4443 -0.238041 -4.52545 255 0 0
16.3058 -0.212649 -4.66623 255 0 0
16.0581 0.209418 -4.76295 255 0 0
14.3202 0.254678 -4.46412 0 0 255
15.2553 0.488468 -4.62594 0 0 255
14.6554 0.747734 -4.52468 0 0 255
15.1472 0.844859 -4.61006 0 0 255
15.2949 0.889481 -4.63587 0 0 255
14.2863 0.932829 -4.46312 0 0 255
14.215 0.962024 -4.45121 0 0 255
14.2184 0.996128 -4.4522 0 0 255
14.2793 1.03442 -4.46312 0 0 255
15.8363 1.18497 -4.73217 255 0 0
14.2631 1.23745 -4.46312 0 0 255
14.7534 1.13912 -4.79981 255 0 0
13.7554 0.701813 -4.60604 0 0 255
14.6575 -0.573719 -4.52368 0 0 255
14.5838 -0.536208 -4.51078 0 0 255
14.4431 -0.428185 -4.48596 0 0 255
14.3748 -0.392051 -4.47404 0 0 255
14.3757 -0.357967 -4.47404 0 0 255
14.4458 -0.325441 -4.48596 0 0 255
15.3588 -0.273147 -4.64282 255 0 0
15.3551 -0.0910192 -4.64183 255 0 0
15.3322 -0.0545296 -4.63786 255 0 0
14.0681 -3.41508e-06 -4.54092 0 0 255
14.0825 0.0500848 -4.54352 0 0 255
14.0996 0.0835768 -4.54664 0 0 255
14.0475 0.116576 -4.53727 0 0 255
14.0299 0.149698 -4.53415 0 0 255
14.0583 0.183339 -4.53936 0 0 255
14.0405 0.216404 -4.53623 0 0 255
14.0494 0.349841 -4.53831 0 0 255
13.8584 0.377967 -4.50397 0 0 255
14.278 0.423289 -4.57994 0 0 255
14.0857 0.484454 -4.5456 0 0 255
13.9891 0.597394 -4.52895 0 0 255
14.0445 0.649806 -4.53936 0 0 255
14.1448 0.721683 -4.55809 0 0 255
14.1143 0.753682 -4.55288 0 0 255
14.8604 0.828861 -4.68818 0 0 255
15.9548 0.96582 -4.88696 255 0 0
14.2388 0.895828 -4.57682 0 0 255
13.9849 0.97977 -4.53207 0 0 255
14.3076 1.07058 -4.59139 0 0 255
14.2074 1.09696 -4.5737 0 0 255
14.2679 1.13567 -4.58515 0 0 255
14.2939 1.17185 -4.59035 0 0 255
14.2394 1.20138 -4.58098 0 0 255
14.2709 1.23813 -4.58723 0 0 255
14.1934 1.26531 -4.5737 0 0 255
12.9738 0.908937 -4.79835 0 0 255
13.1376 -0.514227 -4.94344 0 0 255
14.3816 -0.426363 -4.59868 0 0 255
14.2444 -0.388492 -4.5737 0 0 255
14.2107 -0.353857 -4.56745 0 0 255
14.2637 -0.304427 -4.57682 0 0 255
14.1589 -0.201436 -4.55757 0 0 255
14.197 -0.151481 -4.56433 0 0 255
14.1254 -0.1005 -4.55132 0 0 255
13.7042 0.0162464 -4.59298 0 0 255
13.7538 0.244605 -4.60278 0 0 255
13.736 0.276867 -4.59951 0 0 255
13.6655 0.340281 -4.58645 0 0 255
13.7624 0.375347 -4.60495 0 0 255
13.727 0.406954 -4.59842 0 0 255
13.6857 0.438211 -4.5908 0 0 255
13.6616 0.469868 -4.58645 0 0 255
13.6873 0.551991 -4.59189 0 0 255
13.6968 0.601178 -4.59407 0 0 255
13.7307 0.733198 -4.60169 0 0 255
13.7806 0.768635 -4.61148 0 0 255
13.7845 0.801641 -4.61257 0 0 255
13.7424 0.831888 -4.60495 0 0 255
13.7805 0.866998 -4.61257 0 0 255
13.8325 0.952619 -4.62346 0 0 255
13.8865 1.00597 -4.63434 0 0 255
14.2971 1.0698 -4.71272 0 0 255
14.7736 1.17593 -4.80416 255 0 0
13.759 -0.27733 -4.60386 0 0 255
13.0619 0.790696 -4.702 0 0 255
14.0368 1.08379 -4.78519 0 0 255
13.81 -0.311118 -4.61366 0 0 255
13.7538 -0.244605 -4.60278 0 0 255
13.7544 -0.211993 -4.60278 0 0 255
13.7444 -0.0488825 -4.6006 0 0 255
13.395 0.0158799 -4.64997 0 0 255
13.4811 0.0479459 -4.66701 0 0 255
13.3775 0.0792967 -4.64656 0 0 255
13.4115 0.1431 -4.65338 0 0 255
13.3307 0.17385 -4.63747 0 0 255
13.3782 0.253793 -4.64713 0 0 255
13.3801 0.301433 -4.64769 0 0 255
13.4483 0.334873 -4.66133 0 0 255
13.39 0.365192 -4.64997 0 0 255
13.4063 0.397449 -4.65338 0 0 255
13.3847 0.444449 -4.6494 0 0 255
13.3366 0.506192 -4.64031 0 0 255
13.4122 0.556827 -4.65565 0 0 255
13.4216 0.605034 -4.65792 0 0 255
13.4079 0.652213 -4.65565 0 0 255
13.3768 0.698397 -4.64997 0 0 255
13.4316 0.845046 -4.66247 0 0 255
13.5055 0.946184 -4.67838 0 0 255
12.8761 0.902089 -4.88971 0 0 255
12.9687 -0.384476 -5.01811 0 0 255
12.8717 0.963137 -4.88971 0 0 255
13.8176 -0.475233 -4.73519 0 0 255
13.6235 -0.43622 -4.69656 0 0 255
13.479 -0.239717 -4.66701 0 0 255
13.491 -0.207935 -4.66929 0 0 255
13.4199 -0.159105 -4.65508 0 0 255
13.3949 -0.0476395 -4.64997 0 0 255
13.4639 -0.0159616 -4.6636 0 0 255
13.0685 0.0464786 -4.69845 0 0 255
12.9881 0.0769882 -4.68187 0 0 255
13.114 0.10883 -4.70792 0 0 255
12.9646 0.138332 -4.67713 0 0 255
13.0675 0.170417 -4.69845 0 0 255
13.0384 0.200958 -4.69253 0 0 255
13.0086 0.262206 -4.68661 0 0 255
13.0875 0.325888 -4.70318 0 0 255
12.9949 0.354417 -4.68424 0 0 255
13.0514 0.386926 -4.69608 0 0 255
13.0619 0.418237 -4.69845 0 0 255
12.9921 0.44684 -4.68424 0 0 255
13.0706 0.496089 -4.70082 0 0 255
13.1146 0.544475 -4.71029 0 0 255
13.1019 0.575065 -4.70792 0 0 255
13.0839 0.651985 -4.70496 0 0 255
13.1015 0.699602 -4.7091 0 0 255
13.0769 0.729387 -4.70437 0 0 255
13.1954 0.767381 -4.72923 0 0 255
13.1495 0.858605 -4.72094 0 0 255
13.2368 0.927363 -4.73989 0 0 255
13.3032 0.963717 -4.7541 0 0 255
13.1808 0.986271 -4.72923 0 0 255
13.705 1.12358 -4.83935 0 0 255
12.8511 0.930964 -4.88459 0 0 255
13.3839 -0.555654 -4.76594 0 0 255
13.1916 -0.485018 -4.72568 0 0 255
13.1927 -0.453739 -4.72568 0 0 255
13.2453 -0.42411 -4.73634 0 0 255
13.1947 -0.391174 -4.72568 0 0 255
13.0939 -0.294986 -4.70437 0 0 255
13.0212 -0.200693 -4.68897 0 0 255
13.1078 -0.155401 -4.70674 0 0 255
13.1427 -0.109068 -4.71384 0 0 255
13.0741 -0.0774981 -4.69963 0 0 255
13.0742 -0.046499 -4.69963 0 0 255
13.0572 0.0154794 -4.80943 0 0 255
12.8773 0.458156 -4.77248 0 0 255
12.8973 0.658032 -4.77864 0 0 255
12.8843 0.687999 -4.77618 0 0 255
12.9283 0.721096 -4.78603 0 0 255
12.938 0.752412 -4.78849 0 0 255
12.9666 0.846659 -4.79588 0 0 255
12.9694 0.970449 -4.79835 0 0 255
13.0641 1.00869 -4.81928 0 0 255
13.3045 1.09074 -4.87225 0 0 255
13.4978 -0.56038 -4.90673 0 0 255
13.3389 -0.522107 -4.87225 0 0 255
13.2142 -0.485851 -4.84515 0 0 255
13.0514 -0.386927 -4.80943 0 0 255
13.0642 -0.340806 -4.81189 0 0 255
12.9979 -0.23116 -4.79711 0 0 255
13.1644 -0.2029 -4.83283 0 0 255
13.0332 -0.169969 -4.8045 0 0 255
12.9477 -0.138151 -4.78603 0 0 255
12.8969 -0.0152893 -4.77494 0 0 255
13.2264 1.11591 -4.97158 0 0 255
13.1673 -0.484126 -4.94983 0 0 255
13.1285 -0.45153 -4.94088 0 0 255
13.1124 -0.419852 -4.93704 0 0 255
13.0632 -0.34078 -4.92553 0 0 255
13.0472 -0.293933 -4.92169 0 0 255
12.9804 -0.200064 -4.90634 0 0 255
12.9457 0.076737 -5.01148 0 0 255
12.9106 0.168371 -5.00352 0 0 255
12.9283 1.0599 -5.13133 0 0 255
13.0392 -0.494895 -5.03536 0 0 255
13.0751 -0.449694 -5.04332 0 0 255
13.1787 -0.421977 -5.0672 0 0 255
13.0038 -0.354659 -5.02607 0 0 255
12.9883 -0.292605 -5.02209 0 0 255
12.949 -0.261005 -5.0128 0 0 255
12.9786 -0.200037 -5.01944 0 0 255
12.979 -0.169264 -5.01944 0 0 255
12.9299 -0.444701 -5.12309 0 0 255
