ply
format ascii 1.0
comment Created by Open3D
element vertex 246
property double x
property double y
property double z
property uchar red
property uchar green
property uchar blue
end_header
1.0834 -3.43097 -3.67776 255 0 0
0.831016 -3.92487 -3.87077 255 0 0
-0.799768 -3.82199 -3.78147 255 0 0
1.57526 -3.42101 -3.71828 255 0 0
1.0887 -3.69012 -3.79406 255 0 0
1.85486 -2.9459 -3.62332 255 0 0
-1.15243 -3.97549 -3.8884 255 0 0
1.90742 -3.63803 -3.7517 255 0 0
1.5339 -3.35207 -3.68182 255 0 0
-1.73235 -3.81763 -3.95491 255 0 0
1.98701 -3.38269 -3.71163 255 0 0
1.96728 -3.94737 -3.83761 255 0 0
2.01218 -3.59925 -3.75844 255 0 0
1.7605 -3.49088 -3.70578 255 0 0
1.76845 -3.66376 -3.73486 255 0 0
0.852095 -3.88776 -3.85592 255 0 0
1.85399 -3.23922 -3.66544 255 0 0
1.73538 -3.03618 -3.63074 255 0 0
1.99205 -3.89247 -3.82184 255 0 0
1.71945 -3.46042 -3.68588 255 0 0
-0.827926 -3.86503 -3.80334 255 0 0
1.95857 -3.60298 -3.74879 255 0 0
1.70916 -3.25364 -3.63999 255 0 0
0.999873 -3.71116 -3.75352 255 0 0
1.10378 -3.77419 -3.83365 255 0 0
1.08483 -3.61376 -3.75942 255 0 0
2.03261 -3.71816 -3.76554 255 0 0
1.91686 -3.43829 -3.71749 255 0 0
2.05199 -3.70132 -3.76329 255 0 0
-1.1377 -3.85603 -3.84768 255 0 0
1.80311 -3.29834 -3.67737 255 0 0
2.10136 -2.91401 -3.67528 255 0 0
1.76049 -3.69943 -3.74711 255 0 0
-1.1577 -3.924 -3.86653 255 0 0
2.13334 -2.86425 -3.66538 255 0 0
1.84893 -3.95349 -3.81847 255 0 0
0.816804 -3.97389 -3.89181 255 0 0
2.03295 -3.76104 -3.78131 255 0 0
2.10433 -3.10831 -3.67499 255 0 0
2.05371 -3.08051 -3.68911 255 0 0
1.76678 -3.02416 -3.63321 255 0 0
2.09721 -2.85796 -3.65301 255 0 0
2.05755 -3.35534 -3.71725 255 0 0
-1.18356 -3.8111 -3.86087 255 0 0
-1.22015 -3.71027 -3.82128 255 0 0
-1.33564 -3.88978 -3.91779 255 0 0
0.806419 -3.99494 -3.90047 255 0 0
1.72407 -2.99985 -3.61342 255 0 0
2.02732 -3.10431 -3.69154 255 0 0
1.8104 -2.97339 -3.62332 255 0 0
1.74969 -3.09519 -3.65796 255 0 0
1.9618 -2.92381 -3.64187 255 0 0
1.85751 -3.41072 -3.69446 255 0 0
1.97357 -3.37812 -3.70695 255 0 0
2.0142 -2.95246 -3.66662 255 0 0
-1.64236 -3.81389 -3.93635 255 0 0
1.92029 -3.94641 -3.8286 255 0 0
2.10538 -2.95266 -3.65448 255 0 0
1.86169 -3.10583 -3.65205 255 0 0
1.91307 -3.10321 -3.66319 255 0 0
1.07008 -3.46015 -3.68889 255 0 0
1.85727 -3.91074 -3.80383 255 0 0
-1.53549 -3.87816 -3.94501 255 0 0
1.75963 -3.9438 -3.79932 255 0 0
2.0253 -3.12543 -3.66186 255 0 0
1.08091 -3.83045 -3.85592 255 0 0
1.94248 -3.1932 -3.66783 255 0 0
1.85576 -3.44623 -3.70773 255 0 0
-1.20342 -3.76449 -3.84293 255 0 0
-1.69614 -3.86287 -3.96728 255 0 0
1.67061 -3.86679 -3.75503 255 0 0
1.73763 -3.233 -3.67453 255 0 0
-1.73792 -3.77426 -3.93759 255 0 0
1.80802 -3.21614 -3.64635 255 0 0
1.58489 -3.21825 -3.67281 255 0 0
1.72594 -3.90554 -3.77906 255 0 0
2.06376 -3.56154 -3.75534 255 0 0
1.84922 -3.13959 -3.66238 255 0 0
-1.34095 -3.84583 -3.89923 255 0 0
1.85768 -3.66203 -3.75109 255 0 0
2.07024 -3.0894 -3.65948 255 0 0
-1.58893 -3.86518 -3.94872 255 0 0
1.76455 -3.92976 -3.79482 255 0 0
2.05744 -3.61952 -3.77544 255 0 0
1.80577 -3.25719 -3.66186 255 0 0
0.685735 -3.7642 -3.78416 255 0 0
1.69036 -3.86214 -3.75654 255 0 0
0.570536 -3.85312 -3.81633 255 0 0
1.75101 -3.00261 -3.62084 255 0 0
1.01655 -3.81616 -3.84157 255 0 0
1.80992 -3.04802 -3.65301 255 0 0
0.919744 -4.01399 -3.92026 255 0 0
1.82662 -3.10965 -3.64536 255 0 0
-1.13601 -3.80062 -3.84974 255 0 0
0.756433 -3.93991 -3.87077 255 0 0
-1.18242 -3.87209 -3.84709 255 0 0
2.04598 -3.03759 -3.67088 255 0 0
2.159 -3.04692 -3.70369 255 0 0
1.80633 -3.14298 -3.65387 255 0 0
2.1389 -2.89316 -3.67776 255 0 0
2.08324 -2.94001 -3.68023 255 0 0
2.05521 -2.90778 -3.66043 255 0 0
2.19418 -2.93141 -3.70745 255 0 0
2.11079 -3.50719 -3.74558 255 0 0
-1.09418 -3.84258 -3.82278 255 0 0
1.80926 -3.67383 -3.74634 255 0 0
1.06063 -3.76997 -3.82623 255 0 0
1.98982 -3.42455 -3.72802 255 0 0
-1.3932 -3.85541 -3.9116 255 0 0
2.16157 -3.34441 -3.73739 255 0 0
1.7047 -3.55321 -3.71944 255 0 0
0.707799 -3.91118 -3.85345 255 0 0
1.99929 -3.01434 -3.65023 255 0 0
1.91422 -3.61617 -3.74481 255 0 0
-1.45489 -3.84677 -3.91779 255 0 0
0.785466 -3.93965 -3.87325 255 0 0
2.00064 -3.74362 -3.76855 255 0 0
1.95718 -3.16221 -3.65948 255 0 0
0.540581 -3.94048 -3.85469 255 0 0
2.10626 -3.02534 -3.68182 255 0 0
1.98864 -3.15837 -3.66544 255 0 0
2.03303 -3.40533 -3.73037 255 0 0
0.691691 -3.98412 -3.88562 255 0 0
-1.25162 -3.80605 -3.8683 255 0 0
1.76247 -3.46079 -3.69446 255 0 0
1.92314 -2.91451 -3.62826 255 0 0
2.00078 -3.80879 -3.79257 255 0 0
1.99429 -3.21789 -3.6893 255 0 0
1.90299 -2.9908 -3.65301 255 0 0
0.862131 -3.9634 -3.89139 255 0 0
0.667187 -3.98292 -3.88314 255 0 0
0.652556 -3.95308 -3.8683 255 0 0
1.50968 -3.47172 -3.6893 255 0 0
1.01491 -3.91428 -3.88562 255 0 0
1.9107 -3.91256 -3.81419 255 0 0
2.07959 -3.32024 -3.70929 255 0 0
1.75682 -3.15713 -3.65439 255 0 0
-1.29734 -3.85236 -3.89552 255 0 0
1.73248 -3.16914 -3.6478 255 0 0
1.83981 -3.00832 -3.64435 255 0 0
0.618631 -3.92093 -3.85098 255 0 0
1.85932 -3.62255 -3.73639 255 0 0
1.80351 -3.95364 -3.81058 255 0 0
1.85023 -3.87219 -3.78806 255 0 0
1.94947 -3.8656 -3.80383 255 0 0
1.99596 -3.86616 -3.81284 255 0 0
2.03003 -3.90938 -3.83536 255 0 0
2.06251 -3.7942 -3.79932 255 0 0
2.14037 -3.89331 -3.85112 255 0 0
2.02148 -3.06354 -3.67453 255 0 0
1.71386 -3.50107 -3.70071 255 0 0
1.67122 -3.71012 -3.73524 255 0 0
1.70335 -3.74584 -3.75476 255 0 0
1.71087 -3.70387 -3.73984 255 0 0
1.72248 -3.67174 -3.7295 255 0 0
1.85144 -3.69298 -3.76166 255 0 0
2.05265 -3.59125 -3.76395 255 0 0
2.10363 -3.55223 -3.76051 255 0 0
2.07576 -3.42138 -3.70653 255 0 0
1.91693 -2.95819 -3.64373 255 0 0
1.9206 -3.0745 -3.65387 255 0 0
1.46005 -3.61237 -3.69993 255 0 0
1.71453 -3.58819 -3.73505 255 0 0
1.80576 -3.45738 -3.7018 255 0 0
1.83138 -3.42688 -3.69524 255 0 0
1.90919 -3.40873 -3.70461 255 0 0
1.95478 -3.41068 -3.71515 255 0 0
2.00619 -3.36038 -3.70754 255 0 0
2.0992 -3.34276 -3.72217 255 0 0
2.12507 -3.34864 -3.73037 255 0 0
2.11533 -3.30713 -3.7128 255 0 0
2.16364 -3.33027 -3.73271 255 0 0
-1.35308 -3.8078 -3.88438 255 0 0
1.66857 -3.30863 -3.65351 255 0 0
1.70693 -3.34512 -3.67578 255 0 0
1.70869 -3.30013 -3.65828 255 0 0
1.7618 -3.28724 -3.66425 255 0 0
1.75176 -3.25319 -3.64874 255 0 0
1.86093 -3.20276 -3.65291 255 0 0
1.90478 -3.2034 -3.66305 255 0 0
1.92763 -3.17722 -3.65828 255 0 0
2.02141 -3.17135 -3.67817 255 0 0
2.04275 -3.19369 -3.69169 255 0 0
2.06383 -3.14392 -3.67817 255 0 0
2.10891 -3.14713 -3.69049 255 0 0
2.09969 -3.08566 -3.66544 255 0 0
1.54663 -3.23682 -3.67281 255 0 0
1.50263 -3.32533 -3.66481 255 0 0
1.60275 -3.31378 -3.67939 255 0 0
1.77378 -3.37667 -3.74015 255 0 0
1.72966 -3.26442 -3.68547 255 0 0
1.73514 -3.19196 -3.65752 255 0 0
1.9564 -3.06509 -3.65897 255 0 0
1.97036 -3.09667 -3.67453 255 0 0
1.99381 -3.05302 -3.66359 255 0 0
2.04871 -3.0261 -3.66724 255 0 0
2.10304 -3.04378 -3.6879 255 0 0
-1.80738 -3.8766 -3.9945 255 0 0
-1.7781 -3.83754 -3.97223 255 0 0
-1.73944 -3.84939 -3.96975 255 0 0
-1.74063 -3.90121 -3.99203 255 0 0
-1.71847 -3.87622 -3.97718 255 0 0
-1.66023 -3.85534 -3.95738 255 0 0
-1.6121 -3.81817 -3.93264 255 0 0
-1.63332 -3.90711 -3.9747 255 0 0
-1.57297 -3.89176 -3.95738 255 0 0
-1.54265 -3.89623 -3.95408 255 0 0
-1.49577 -3.88512 -3.9413 255 0 0
-1.4891 -3.8678 -3.93264 255 0 0
-1.43003 -3.82211 -3.90294 255 0 0
-1.44868 -3.90011 -3.94006 255 0 0
-1.41189 -3.82885 -3.90294 255 0 0
-1.19495 -3.9131 -3.90789 255 0 0
0.525501 -3.93449 -3.85098 255 0 0
0.555894 -3.91423 -3.84355 255 0 0
0.556044 -3.81771 -3.79901 255 0 0
0.610076 -3.98937 -3.88191 255 0 0
0.617244 -3.94261 -3.86087 255 0 0
0.652477 -3.92348 -3.85469 255 0 0
0.706847 -3.93295 -3.86335 255 0 0
0.749442 -4.00606 -3.90047 255 0 0
0.759425 -3.95556 -3.8782 255 0 0
0.786081 -3.84749 -3.83118 255 0 0
0.908182 -3.96353 -3.89614 255 0 0
0.950717 -4.01768 -3.92521 255 0 0
0.956105 -3.95636 -3.89799 255 0 0
0.961233 -3.91686 -3.88067 255 0 0
0.963745 -3.8479 -3.84974 255 0 0
0.980572 -3.89568 -3.87325 255 0 0
1.05364 -3.83804 -3.85592 255 0 0
1.04639 -3.67476 -3.78169 255 0 0
1.09778 -3.73721 -3.81633 255 0 0
1.07187 -3.54007 -3.72477 255 0 0
1.07096 -3.50707 -3.70992 255 0 0
1.06574 -3.40314 -3.66291 255 0 0
1.54459 -3.15527 -3.63816 255 0 0
1.76835 -3.14559 -3.6827 255 0 0
1.7308 -3.0449 -3.63321 255 0 0
1.80304 -3.01196 -3.63693 255 0 0
1.86277 -2.96469 -3.63272 255 0 0
1.94706 -2.9432 -3.64559 255 0 0
2.0146 -2.92323 -3.65548 255 0 0
2.04618 -2.94655 -3.67281 255 0 0
2.02734 -2.87554 -3.64064 255 0 0
2.10265 -2.88685 -3.66538 255 0 0
2.15965 -2.87107 -3.67528 255 0 0
