ply
format ascii 1.0
comment Created by Open3D
element vertex 875
property double x
property double y
property double z
property uchar red
property uchar green
property uchar blue
end_header
-11.8964 -7.2369 -3.8038 255 0 0
-11.0154 -7.101 -4.03112 255 0 0
-11.1283 -6.135 -4.62385 255 0 0
-10.6232 -7.73743 -4.59997 255 0 0
-11.4157 -7.1689 -3.86023 255 0 0
-10.9176 -8.29366 -4.12483 255 0 0
-12.0729 -7.14954 -3.93627 255 0 0
-12.2102 -7.66787 -3.62455 255 0 0
-11.4249 -6.01886 -4.89099 255 0 0
-11.6582 -7.12991 -3.88585 255 0 0
-11.1748 -8.13925 -3.55768 255 0 0
-10.6264 -7.19411 -4.42806 255 0 0
-10.6492 -8.03025 -4.6386 255 0 0
-11.7964 -8.08857 -3.4913 255 0 0
-11.3204 -6.99727 -4.06251 255 0 0
-10.7964 -6.95979 -4.20996 255 0 0
-10.7824 -8.53908 -4.4842 255 0 0
-11.1053 -8.98932 -3.85081 255 0 0
-10.6309 -6.60597 -4.47611 255 0 0
-10.733 -6.9912 -4.31352 255 0 0
-10.9118 -7.44407 -3.93486 255 0 0
-11.147 -6.14532 -4.51815 255 0 0
-10.8804 -6.99574 -4.11494 255 0 0
-11.0273 -7.50372 -3.72782 255 0 0
-10.8135 -8.31621 -4.34697 255 0 0
-10.7273 -6.36984 -4.46815 255 0 0
-11.2872 -7.12559 -3.95523 255 0 0
-11.7972 -6.68736 -4.33307 255 0 0
-11.0623 -7.79922 -3.63908 255 0 0
-11.4081 -8.56016 -3.36735 255 0 0
-11.1332 -8.3539 -3.80305 255 0 0
-11.1314 -8.1887 -3.55702 255 0 0
-10.7055 -8.43698 -4.69656 255 0 0
-12.128 -6.78022 -4.27178 255 0 0
-11.7763 -7.12559 -3.89945 255 0 0
-10.5694 -7.48935 -4.67477 255 0 0
-11.7498 -6.9582 -4.11631 255 0 0
-12.0124 -7.46444 -3.71264 255 0 0
-10.7657 -7.19573 -4.22783 255 0 0
-10.8661 -7.45071 -4.15415 255 0 0
-11.1189 -8.80557 -3.71757 255 0 0
-11.3814 -6.94209 -4.0661 255 0 0
-11.0826 -8.29539 -3.67639 255 0 0
-11.3846 -8.54256 -3.48402 255 0 0
-11.6317 -6.09263 -4.5977 255 0 0
-10.8992 -7.09946 -4.01588 255 0 0
-10.4039 -6.58525 -4.86422 255 0 0
-10.4603 -6.83128 -4.79697 255 0 0
-10.6589 -7.88009 -4.50807 255 0 0
-11.6044 -6.00838 -4.92553 255 0 0
-11.0211 -7.04929 -4.02754 255 0 0
-10.6494 -7.91221 -4.51025 255 0 0
-11.8552 -7.80254 -3.47977 255 0 0
-10.6714 -6.79007 -4.39323 255 0 0
-11.576 -7.7373 -3.56882 255 0 0
-10.5731 -7.7394 -4.70555 255 0 0
-11.6682 -7.44375 -3.67604 255 0 0
-11.7055 -7.42852 -3.67886 255 0 0
-11.1309 -6.4147 -4.43078 255 0 0
-11.4899 -7.25355 -3.76017 255 0 0
-10.4641 -6.64072 -4.77458 255 0 0
-11.9805 -6.94219 -4.14591 255 0 0
-11.0542 -8.37684 -4.0316 255 0 0
-10.9943 -6.16352 -4.60254 255 0 0
-10.7648 -6.8674 -4.30623 255 0 0
-11.6099 -6.87539 -4.20611 255 0 0
-11.4718 -6.07834 -4.68069 255 0 0
-10.7794 -6.8229 -4.30415 255 0 0
-10.5152 -7.54489 -4.89738 255 0 0
-10.521 -7.49253 -4.89163 255 0 0
-11.1179 -8.89087 -3.72391 255 0 0
-11.2988 -7.02104 -4.06161 255 0 0
-10.787 -6.14855 -4.7797 255 0 0
-12.1827 -7.23408 -3.83539 255 0 0
-10.8454 -8.84291 -4.40753 255 0 0
-10.8815 -9.26581 -4.21496 255 0 0
-11.0278 -6.18232 -4.50111 255 0 0
-10.5032 -7.09254 -4.72691 255 0 0
-10.6239 -7.28463 -4.43731 255 0 0
-10.562 -7.3904 -4.66174 255 0 0
-11.2513 -6.37792 -4.44711 255 0 0
-10.8218 -7.19618 -4.12486 255 0 0
-11.8607 -7.68575 -3.59242 255 0 0
-10.8231 -6.79679 -4.30832 255 0 0
-10.8505 -8.18201 -4.33803 255 0 0
-12.1277 -6.53678 -4.48836 255 0 0
-10.6263 -7.34199 -4.44384 255 0 0
-10.9114 -7.55809 -4.17021 255 0 0
-10.4793 -7.07642 -4.83087 255 0 0
-12.0657 -6.61457 -4.48524 255 0 0
-11.2989 -7.94597 -3.55637 255 0 0
-11.0452 -9.27046 -4.11222 255 0 0
-11.9043 -6.67367 -4.34796 255 0 0
-10.6352 -7.14504 -4.42425 255 0 0
-11.0197 -9.18251 -4.22303 255 0 0
-11.1299 -7.24973 -3.83302 255 0 0
-10.4587 -6.49896 -4.75667 255 0 0
-11.0221 -9.18449 -3.9799 255 0 0
-10.6114 -7.38756 -4.55792 255 0 0
-11.6241 -8.42437 -3.37629 255 0 0
-10.6345 -7.44113 -4.45582 255 0 0
-10.4664 -7.17663 -4.8411 255 0 0
-11.0986 -8.7468 -3.71124 255 0 0
-11.0701 -6.48499 -4.42752 255 0 0
-10.7833 -8.7498 -4.50813 255 0 0
-11.9724 -7.01355 -4.03245 255 0 0
-10.554 -7.64884 -4.8045 255 0 0
-11.7873 -9.02068 -4.17417 255 0 0
-10.5773 -7.6849 -4.69963 255 0 0
-10.9764 -6.55302 -4.41881 255 0 0
-11.9553 -6.83329 -4.25146 255 0 0
-11.8378 -7.12457 -3.90666 255 0 0
-11.2031 -7.22202 -3.83942 255 0 0
-11.5576 -7.76472 -3.56882 255 0 0
-11.5749 -7.15461 -3.87784 255 0 0
-11.3769 -8.49463 -3.48037 255 0 0
-11.1626 -8.75439 -3.83765 255 0 0
-12.175 -7.76705 -3.62717 255 0 0
-10.9144 -7.56012 -3.83222 255 0 0
-11.291 -7.20313 -3.84822 255 0 0
-12.1517 -7.1186 -3.94348 255 0 0
-10.6601 -8.11807 -4.53528 255 0 0
-11.0194 -6.52568 -4.42316 255 0 0
-10.6219 -7.08142 -4.52554 255 0 0
-10.539 -6.8293 -4.59307 255 0 0
-11.3108 -6.62603 -4.36764 255 0 0
-10.8031 -6.92794 -4.20798 255 0 0
-10.5661 -7.54355 -4.68069 255 0 0
-10.6984 -8.3903 -4.68974 255 0 0
-10.7764 -8.36928 -4.46442 255 0 0
-10.7343 -8.50096 -4.5908 255 0 0
-10.6099 -8.13963 -4.7612 255 0 0
-11.0821 -6.14388 -4.50679 255 0 0
-11.1417 -8.69537 -3.59242 255 0 0
-10.6516 -7.56656 -4.47215 255 0 0
-11.8517 -8.37681 -3.39138 255 0 0
-10.6971 -6.33479 -4.56702 255 0 0
-10.7272 -7.28089 -4.34162 255 0 0
-12.0209 -6.18794 -4.55814 255 0 0
-10.6229 -7.69874 -4.59542 255 0 0
-10.8614 -7.44749 -4.04099 255 0 0
-10.6335 -6.9444 -4.40302 255 0 0
-11.1206 -9.3788 -4.13089 255 0 0
-11.5588 -6.8822 -4.1995 255 0 0
-11.0371 -9.08669 -3.85194 255 0 0
-10.9698 -8.35388 -4.01972 255 0 0
-10.6255 -7.02933 -4.52042 255 0 0
-11.1816 -7.74523 -3.64718 255 0 0
-11.0986 -8.36913 -3.5662 255 0 0
-10.4997 -6.73338 -4.6838 255 0 0
-10.5564 -7.03771 -4.61971 255 0 0
-11.1872 -8.08752 -3.55538 255 0 0
-11.5223 -7.46649 -3.66267 255 0 0
-12.1141 -7.48789 -3.72461 255 0 0
-10.5112 -6.27534 -4.74068 255 0 0
-11.8243 -7.00235 -4.01293 255 0 0
-10.7262 -7.92989 -4.40927 255 0 0
-11.7905 -6.94462 -4.23729 255 0 0
-10.6589 -7.76343 -4.49501 255 0 0
-10.4964 -6.69616 -4.67887 255 0 0
-10.6391 -6.84059 -4.39323 255 0 0
-11.3067 -6.05974 -4.76016 255 0 0
-11.9478 -6.04317 -4.88087 255 0 0
-11.7493 -6.7711 -4.33307 255 0 0
-11.2233 -7.01102 -4.05085 255 0 0
-10.7344 -8.03477 -4.42175 255 0 0
-11.127 -8.85499 -3.60226 255 0 0
-11.5013 -8.33535 -3.48098 255 0 0
-10.9796 -6.12112 -4.70474 255 0 0
-10.6812 -6.20626 -4.76563 255 0 0
-10.472 -7.10766 -4.83342 255 0 0
-11.0021 -6.83663 -4.33954 255 0 0
-10.7715 -6.24168 -4.57057 255 0 0
-11.091 -8.24032 -3.67322 255 0 0
-11.0488 -7.1969 -3.93147 255 0 0
-12.0007 -6.69038 -4.36384 255 0 0
-10.6036 -8.19484 -4.76712 255 0 0
-11.5999 -8.57582 -3.38299 255 0 0
-10.5986 -8.03157 -4.74581 255 0 0
-11.4738 -7.49312 -3.6595 255 0 0
-11.2671 -6.07295 -4.75401 255 0 0
-11.0416 -7.84357 -3.64014 255 0 0
-12.1147 -7.29119 -3.83163 255 0 0
-12.1822 -7.69059 -3.62324 255 0 0
-10.6365 -6.89246 -4.39812 255 0 0
-11.9375 -7.69544 -3.60029 255 0 0
-10.4767 -6.23788 -4.83636 255 0 0
-10.8512 -8.89055 -4.41348 255 0 0
-11.1301 -8.64394 -3.58783 255 0 0
-11.7484 -8.09669 -3.48766 255 0 0
-11.8099 -7.22267 -3.79327 255 0 0
-10.6486 -6.34021 -4.66656 255 0 0
-12.4696 -9.17313 -4.26752 255 0 0
-10.6532 -7.99369 -4.52004 255 0 0
-11.0616 -8.17784 -3.78198 255 0 0
-11.4569 -8.38636 -3.48037 255 0 0
-10.649 -7.9512 -4.5146 255 0 0
-11.6762 -8.17003 -3.48584 255 0 0
-12.0413 -6.12634 -4.78962 255 0 0
-11.7768 -6.56555 -4.43528 255 0 0
-10.9725 -7.54278 -3.72482 255 0 0
-11.0638 -8.17945 -3.66619 255 0 0
-11.1669 -9.10508 -4.11052 255 0 0
-11.2802 -6.64405 -4.36451 255 0 0
-11.0957 -7.45443 -3.73159 255 0 0
-11.4282 -7.06392 -3.96796 255 0 0
-10.7377 -7.58947 -4.37492 255 0 0
-10.6127 -7.42588 -4.56247 255 0 0
-11.3564 -6.12108 -4.55224 255 0 0
-11.7657 -7.70366 -3.58456 255 0 0
-10.8373 -8.68765 -4.38966 255 0 0
-10.7532 -7.67713 -4.38637 255 0 0
-10.6114 -6.7342 -4.48633 255 0 0
-10.9181 -6.58866 -4.41282 255 0 0
-10.4739 -7.14535 -4.83854 255 0 0
-10.5761 -7.58863 -4.68779 255 0 0
-11.4829 -7.04139 -3.97305 255 0 0
-11.34 -6.89841 -4.17021 255 0 0
-10.778 -7.35279 -4.24471 255 0 0
-11.7829 -6.10079 -4.62497 255 0 0
-11.1346 -8.81804 -3.8399 255 0 0
-11.1229 -8.59618 -3.5839 255 0 0
-11.0439 -6.15699 -4.61083 255 0 0
-10.7902 -7.55011 -4.1532 255 0 0
-10.5686 -7.79398 -4.71147 255 0 0
-10.4954 -6.3506 -4.63946 255 0 0
-11.43 -7.79755 -3.55899 255 0 0
-10.9169 -8.15118 -4.34399 255 0 0
-10.9666 -7.67353 -3.73384 255 0 0
-11.3172 -6.09992 -4.65464 255 0 0
-10.6128 -6.69982 -4.48292 255 0 0
-11.1224 -6.06318 -4.83598 255 0 0
-10.6497 -7.79548 -4.49718 255 0 0
-12.1407 -6.48818 -4.48628 255 0 0
-10.6214 -7.4884 -4.57099 255 0 0
-11.604 -7.71627 -3.57013 255 0 0
-10.9978 -7.31321 -3.82261 255 0 0
-10.3969 -6.70226 -4.87749 255 0 0
-11.0637 -6.09939 -4.71829 255 0 0
-11.4629 -7.27455 -3.75867 255 0 0
-11.4404 -8.4579 -3.48341 255 0 0
-10.8577 -6.60503 -4.40466 255 0 0
-11.8679 -6.57951 -4.45089 255 0 0
-10.9224 -6.1062 -4.80144 255 0 0
-11.6669 -8.92851 -4.27683 255 0 0
-10.961 -7.63092 -3.73008 255 0 0
-11.1801 -6.07743 -4.73799 255 0 0
-11.0528 -9.14366 -4.10119 255 0 0
-11.3604 -6.72761 -4.27151 255 0 0
-10.8536 -6.92403 -4.21493 255 0 0
-11.1666 -8.73615 -3.47825 255 0 0
-11.4203 -7.51631 -3.65563 255 0 0
-10.4995 -7.30966 -4.86413 255 0 0
-10.9854 -9.17601 -4.34027 255 0 0
-11.3669 -7.5392 -3.65176 255 0 0
-11.2421 -7.98598 -3.55374 255 0 0
-10.5607 -7.24125 -4.64398 255 0 0
-11.6326 -6.2344 -4.49718 255 0 0
-11.2415 -6.12813 -4.53292 255 0 0
-10.9447 -8.37587 -4.25335 255 0 0
-11.1439 -8.73971 -3.5957 255 0 0
-11.1525 -8.83219 -3.60291 255 0 0
-11.4204 -8.485 -3.48341 255 0 0
-11.1406 -7.40816 -3.73309 255 0 0
-10.5045 -6.78933 -4.69119 255 0 0
-10.9551 -7.58837 -3.72632 255 0 0
-11.7227 -10.0302 -4.25988 255 0 0
-11.5722 -7.24807 -3.76882 255 0 0
-11.7868 -8.16447 -3.37461 255 0 0
-10.8341 -8.49674 -4.36881 255 0 0
-10.9207 -7.28062 -3.92255 255 0 0
-10.9488 -7.62244 -3.84102 255 0 0
-11.5281 -8.56506 -3.37685 255 0 0
-10.9393 -7.23695 -3.92128 255 0 0
-10.8271 -7.53771 -4.15698 255 0 0
-12.1469 -7.2714 -3.83389 255 0 0
-11.3364 -7.8923 -3.55637 255 0 0
-11.7291 -8.14505 -3.48887 255 0 0
-10.4045 -6.63754 -4.87085 255 0 0
-11.1877 -8.94676 -3.61406 255 0 0
-10.7233 -7.20423 -4.33329 255 0 0
-10.7554 -7.26284 -4.2328 255 0 0
-11.0449 -8.49413 -3.6873 255 0 0
-10.6291 -6.29453 -4.65794 255 0 0
-11.1044 -8.16879 -3.78574 255 0 0
-11.779 -9.98196 -4.26158 255 0 0
-10.8958 -7.49005 -3.82461 255 0 0
-10.7749 -8.28647 -4.45506 255 0 0
-10.9384 -7.53847 -3.94589 255 0 0
-10.645 -6.40668 -4.45792 255 0 0
-11.2888 -6.75769 -4.26357 255 0 0
-10.9415 -9.18346 -4.33555 255 0 0
-11.7208 -10.0768 -4.26413 255 0 0
-11.3702 -6.02453 -4.88075 255 0 0
-10.8485 -7.4765 -4.04188 255 0 0
-11.1629 -6.11962 -4.62859 255 0 0
-10.778 -8.32961 -4.46026 255 0 0
-11.9636 -7.95541 -3.49798 255 0 0
-11.7963 -8.04745 -3.48887 255 0 0
-11.3597 -8.56602 -3.48341 255 0 0
-10.5717 -7.34135 -4.6576 255 0 0
-11.0319 -6.71101 -4.33225 255 0 0
-11.839 -7.43476 -3.69293 255 0 0
-11.6202 -8.54829 -3.38299 255 0 0
-11.3973 -6.85946 -4.17493 255 0 0
-11.3241 -7.31897 -3.74663 255 0 0
-10.8383 -7.24425 -4.02036 255 0 0
-11.4263 -6.10635 -4.56304 255 0 0
-11.3785 -7.84176 -3.55702 255 0 0
-11.1009 -8.28856 -3.56096 255 0 0
-11.0732 -7.47747 -3.73083 255 0 0
-11.1033 -8.66546 -3.70561 255 0 0
-12.0609 -6.10036 -4.7908 255 0 0
-10.8763 -7.13977 -4.01633 255 0 0
-10.7436 -6.8898 -4.30519 255 0 0
-11.5809 -6.03103 -4.80943 255 0 0
-10.5407 -6.79497 -4.58951 255 0 0
-10.6651 -6.38438 -4.45906 255 0 0
-10.8358 -6.21049 -4.57886 255 0 0
-11.6114 -7.44629 -3.67041 255 0 0
-10.7357 -7.02926 -4.31768 255 0 0
-11.4219 -6.08664 -4.6724 255 0 0
-11.1033 -8.92248 -3.84517 255 0 0
-12.2239 -7.47585 -3.73517 255 0 0
-10.6003 -7.91481 -4.7316 255 0 0
-10.7562 -7.7372 -4.39313 255 0 0
-11.7729 -10.0249 -4.26497 255 0 0
-12.212 -7.34975 -3.72602 255 0 0
-10.4963 -6.55688 -4.66286 255 0 0
-10.9344 -7.8065 -3.96796 255 0 0
-10.5519 -6.76686 -4.58833 255 0 0
-11.1219 -6.9111 -4.14092 255 0 0
-10.965 -8.18708 -4.00445 255 0 0
-11.2688 -7.3402 -3.74212 255 0 0
-11.0524 -9.14338 -3.9795 255 0 0
-11.1665 -7.23594 -3.83622 255 0 0
-11.0453 -9.00589 -3.96669 255 0 0
-10.9816 -7.72289 -3.73911 255 0 0
-11.5698 -8.2601 -3.48219 255 0 0
-10.767 -8.23989 -4.44881 255 0 0
-10.9215 -7.37502 -3.81861 255 0 0
-11.0457 -8.12564 -3.66055 255 0 0
-11.0785 -8.354 -3.68026 255 0 0
-11.1305 -7.78817 -3.64507 255 0 0
-11.8018 -6.03978 -4.85254 255 0 0
-11.8966 -8.28231 -3.3897 255 0 0
-11.7671 -8.23364 -3.37685 255 0 0
-11.7857 -8.28834 -3.38132 255 0 0
-11.827 -8.40152 -3.39082 255 0 0
-11.7264 -8.37196 -3.38132 255 0 0
-11.6781 -8.37935 -3.37797 255 0 0
-11.715 -8.44793 -3.38467 255 0 0
-11.6842 -8.51025 -3.38579 255 0 0
-11.6217 -8.50694 -3.38076 255 0 0
-11.5451 -8.62027 -3.38132 255 0 0
-11.0481 -8.41349 -3.68167 255 0 0
-10.7572 -7.30129 -4.23677 255 0 0
-12.1538 -6.96586 -4.17102 255 0 0
-11.067 -9.08928 -3.9763 255 0 0
-10.7557 -7.56398 -4.37492 255 0 0
-11.0525 -6.86797 -4.23875 255 0 0
-11.768 -7.23544 -3.78951 255 0 0
-11.2862 -6.82907 -4.26953 255 0 0
-11.6178 -8.25288 -3.48584 255 0 0
-10.8471 -7.19447 -4.01722 255 0 0
-10.6212 -6.84685 -4.49997 255 0 0
-11.0661 -8.55229 -3.69364 255 0 0
-10.4966 -6.43664 -4.64931 255 0 0
-11.9436 -7.90132 -3.49312 255 0 0
-11.9399 -7.98052 -3.49737 255 0 0
-11.9235 -8.03106 -3.49889 255 0 0
-11.8346 -8.03254 -3.4913 255 0 0
-11.6304 -8.19975 -3.48371 255 0 0
-11.5285 -8.29268 -3.48068 255 0 0
-11.4909 -8.36945 -3.48219 255 0 0
-11.4417 -8.41695 -3.48098 255 0 0
-11.3199 -8.59932 -3.48219 255 0 0
-11.28 -8.63245 -3.48098 255 0 0
-11.2654 -8.68495 -3.48311 255 0 0
-11.1861 -8.68746 -3.47673 255 0 0
-10.9101 -6.18448 -4.58951 255 0 0
-12.1962 -7.49873 -3.73376 255 0 0
-11.6724 -6.07869 -4.71739 255 0 0
-11.4532 -6.5643 -4.38429 255 0 0
-11.372 -6.09474 -4.66411 255 0 0
-12.1408 -7.03513 -4.05536 255 0 0
-12.2563 -7.61603 -3.62586 255 0 0
-12.2432 -7.64815 -3.62651 255 0 0
-12.1885 -7.73504 -3.62651 255 0 0
-12.0096 -7.70166 -3.6075 255 0 0
-11.8034 -7.68844 -3.58718 255 0 0
-11.6751 -7.70378 -3.57603 255 0 0
-11.5102 -7.77257 -3.56489 255 0 0
-11.4773 -7.79003 -3.56292 255 0 0
-11.4163 -7.82792 -3.55964 255 0 0
-11.379 -7.88197 -3.55964 255 0 0
-11.3224 -7.92249 -3.55702 255 0 0
-11.28 -7.97274 -3.55637 255 0 0
-11.2254 -8.03437 -3.55538 255 0 0
-11.1555 -8.16572 -3.55768 255 0 0
-11.1092 -8.23344 -3.558 255 0 0
-11.1045 -8.33231 -3.56423 255 0 0
-11.1066 -8.41651 -3.57013 255 0 0
-11.0958 -8.44987 -3.57144 255 0 0
-11.0989 -8.49383 -3.57472 255 0 0
-11.1248 -8.55559 -3.58128 255 0 0
-11.146 -8.78412 -3.59898 255 0 0
-11.3839 -7.18666 -3.85783 255 0 0
-10.565 -7.94713 -4.84453 255 0 0
-11.7613 -6.70388 -4.3291 255 0 0
-10.8421 -8.13548 -4.33208 255 0 0
-10.5375 -7.33609 -4.76263 255 0 0
-10.4202 -6.44089 -4.84963 255 0 0
-10.8288 -7.23788 -4.12958 255 0 0
-11.0865 -8.40131 -3.68449 255 0 0
-10.9647 -6.18113 -4.59899 255 0 0
-10.9293 -7.34264 -3.81701 255 0 0
-11.087 -7.27812 -3.83021 255 0 0
-12.0065 -6.23463 -4.55978 255 0 0
-12.2293 -7.39975 -3.73095 255 0 0
-12.2416 -7.44685 -3.73517 255 0 0
-11.9158 -7.44362 -3.70138 255 0 0
-11.7722 -7.43178 -3.6859 255 0 0
-11.5693 -7.45805 -3.66689 255 0 0
-11.3214 -7.58654 -3.65035 255 0 0
-11.2678 -7.60887 -3.64648 255 0 0
-11.2335 -7.64399 -3.64542 255 0 0
-11.2182 -7.69212 -3.64718 255 0 0
-11.1904 -7.7121 -3.64577 255 0 0
-11.1584 -7.7684 -3.64648 255 0 0
-11.0466 -7.88662 -3.64366 255 0 0
-11.0421 -7.92296 -3.64577 255 0 0
-11.0444 -7.98432 -3.65035 255 0 0
-11.0465 -8.04579 -3.65492 255 0 0
-11.0509 -8.08912 -3.65844 255 0 0
-11.0558 -8.46086 -3.6859 255 0 0
-11.1147 -8.63198 -3.7042 255 0 0
-11.0736 -8.68459 -3.7042 255 0 0
-11.1344 -8.86087 -3.7232 255 0 0
-11.1285 -8.9427 -3.72883 255 0 0
-11.157 -9.00923 -3.73658 255 0 0
-11.1356 -9.03566 -3.73658 255 0 0
-10.7606 -7.37832 -4.24471 255 0 0
-10.9558 -6.73609 -4.32289 255 0 0
-10.6249 -6.63725 -4.47838 255 0 0
-10.4702 -6.73198 -4.78673 255 0 0
-11.6448 -7.236 -3.77597 255 0 0
-10.67 -8.28663 -4.67269 255 0 0
-11.3415 -6.86253 -4.16737 255 0 0
-11.7162 -7.24195 -3.78424 255 0 0
-10.6279 -7.77956 -4.60565 255 0 0
-12.1633 -7.16418 -3.82862 255 0 0
-11.9881 -7.25376 -3.81508 255 0 0
-11.4211 -7.28609 -3.7549 255 0 0
-11.3794 -7.29748 -3.75114 255 0 0
-11.2319 -7.35418 -3.73911 255 0 0
-11.2047 -7.3744 -3.7376 255 0 0
-11.1678 -7.38813 -3.73459 255 0 0
-11.1279 -7.43778 -3.73384 255 0 0
-11.0012 -7.77572 -3.74513 255 0 0
-11.0254 -7.83205 -3.7519 255 0 0
-11.0376 -7.89993 -3.75829 255 0 0
-11.0376 -7.9794 -3.76431 255 0 0
-11.0679 -8.06134 -3.77371 255 0 0
-11.0722 -8.10471 -3.77747 255 0 0
-11.0189 -8.18673 -3.77822 255 0 0
-11.1018 -8.28926 -3.79477 255 0 0
-11.2057 -8.83115 -3.84818 255 0 0
-11.0791 -8.85986 -3.83765 255 0 0
-11.0846 -9.03792 -3.85269 255 0 0
-11.0766 -9.07522 -3.85495 255 0 0
-11.3174 -7.08849 -3.95608 255 0 0
-11.1349 -6.95582 -4.14659 255 0 0
-12.0499 -6.83062 -4.26469 255 0 0
-10.4929 -6.87029 -4.69858 255 0 0
-11.7395 -7.06537 -4.00699 255 0 0
-10.5852 -6.23468 -4.75028 255 0 0
-10.8356 -8.2112 -4.33902 255 0 0
-10.8592 -6.25812 -4.47952 255 0 0
-10.8568 -6.63976 -4.40792 255 0 0
-12.0699 -6.99401 -3.92507 255 0 0
-12.1585 -7.08393 -3.94188 255 0 0
-12.1298 -7.14445 -3.94268 255 0 0
-11.9562 -7.1188 -3.92026 255 0 0
-11.8796 -7.11138 -3.91066 255 0 0
-11.7246 -7.13239 -3.89385 255 0 0
-11.6116 -7.1393 -3.88104 255 0 0
-11.4829 -7.15431 -3.86703 255 0 0
-11.3277 -7.18877 -3.85143 255 0 0
-11.2446 -7.21109 -3.84342 255 0 0
-11.0345 -7.29992 -3.82581 255 0 0
-10.966 -7.3296 -3.82021 255 0 0
-10.8992 -7.39764 -3.81781 255 0 0
-10.9104 -7.44307 -3.82261 255 0 0
-10.9734 -7.6783 -3.84822 255 0 0
-10.9911 -7.74903 -3.85583 255 0 0
-12.4226 -9.00304 -4.11717 255 0 0
-11.0206 -8.18801 -3.89465 255 0 0
-10.9361 -8.16553 -3.88344 255 0 0
-11.2793 -6.89815 -4.16171 255 0 0
-10.7748 -6.19245 -4.67395 255 0 0
-11.6731 -7.06319 -3.99851 255 0 0
-12.2006 -6.95433 -4.05706 255 0 0
-12.1791 -6.98036 -4.05621 255 0 0
-12.1776 -7.01789 -4.05876 255 0 0
-12.044 -7.01723 -4.04179 255 0 0
-11.8958 -7.00664 -4.02227 255 0 0
-11.777 -7.03099 -4.00911 255 0 0
-11.5672 -7.03665 -3.98323 255 0 0
-11.3671 -7.06347 -3.96032 255 0 0
-11.2409 -7.13371 -3.95013 255 0 0
-11.1764 -7.14866 -3.94335 255 0 0
-11.1461 -7.18523 -3.9425 255 0 0
-11.095 -7.18959 -3.93656 255 0 0
-11.022 -7.21673 -3.92977 255 0 0
-10.9758 -7.22373 -3.92468 255 0 0
-10.9077 -7.3469 -3.92637 255 0 0
-10.9151 -7.40842 -3.93231 255 0 0
-10.9085 -7.47975 -3.93741 255 0 0
-10.9443 -7.58088 -3.95013 255 0 0
-10.9406 -7.61674 -3.95268 255 0 0
-11.0968 -8.20387 -4.02142 255 0 0
-11.0567 -8.29651 -4.02481 255 0 0
-11 -8.29479 -4.01802 255 0 0
-11.1274 -9.11684 -4.10713 255 0 0
-11.0489 -9.18465 -4.10458 255 0 0
-11.0493 -9.22939 -4.10883 255 0 0
-11.6794 -10.0894 -4.26073 255 0 0
-10.5306 -6.68295 -4.57531 255 0 0
-10.614 -6.66547 -4.47952 255 0 0
-12.1131 -6.88543 -4.15936 255 0 0
-12.047 -6.94266 -4.15487 255 0 0
-11.909 -6.93853 -4.13604 255 0 0
-11.8426 -6.9375 -4.12707 255 0 0
-11.7862 -6.94207 -4.1199 255 0 0
-11.715 -6.99401 -4.11452 255 0 0
-11.6653 -7.02072 -4.11004 255 0 0
-11.4308 -6.91655 -4.07058 255 0 0
-11.2975 -6.94616 -4.05534 255 0 0
-11.1968 -7.03146 -4.04906 255 0 0
-11.1312 -7.0271 -4.04009 255 0 0
-11.0998 -7.04417 -4.0374 255 0 0
-10.9694 -7.10821 -4.02574 255 0 0
-10.8451 -7.28606 -4.02485 255 0 0
-10.8431 -7.3408 -4.02933 255 0 0
-10.8265 -7.38584 -4.03112 255 0 0
-10.8593 -7.52197 -4.04726 255 0 0
-10.8462 -7.551 -4.04816 255 0 0
-10.9845 -8.16119 -4.1208 255 0 0
-10.8781 -8.18267 -4.10959 255 0 0
-11.1231 -9.1575 -4.23289 255 0 0
-11.0167 -9.11377 -4.21585 255 0 0
-10.9294 -9.1733 -4.21137 255 0 0
-10.8943 -9.188 -4.20868 255 0 0
-10.8151 -9.16517 -4.19702 255 0 0
-10.5799 -6.23155 -4.85626 255 0 0
-11.4433 -6.85023 -4.1806 255 0 0
-10.3887 -6.66219 -4.87085 255 0 0
-10.7463 -8.1435 -4.43528 255 0 0
-11.7109 -6.56528 -4.42488 255 0 0
-10.6947 -8.34652 -4.56685 255 0 0
-12.1567 -6.85311 -4.2817 255 0 0
-11.8909 -6.85268 -4.2439 255 0 0
-11.8396 -6.86058 -4.23729 255 0 0
-11.7777 -6.88077 -4.2302 255 0 0
-11.212 -6.93029 -4.15509 255 0 0
-11.1086 -6.97606 -4.1447 255 0 0
-11.0285 -6.96228 -4.13242 255 0 0
-11.0559 -7.01627 -4.14092 255 0 0
-10.971 -6.99896 -4.12769 255 0 0
-10.8628 -7.03911 -4.11636 255 0 0
-10.8425 -7.08086 -4.1173 255 0 0
-10.8329 -7.1481 -4.12202 255 0 0
-10.8212 -7.26998 -4.13147 255 0 0
-10.8279 -7.31178 -4.1362 255 0 0
-10.8153 -7.34068 -4.13714 255 0 0
-10.8169 -7.37933 -4.14092 255 0 0
-10.8199 -7.45677 -4.14848 255 0 0
-10.9839 -8.16074 -4.23729 255 0 0
-10.9877 -8.20404 -4.24201 255 0 0
-10.8471 -8.17951 -4.22123 255 0 0
-10.883 -8.24709 -4.23257 255 0 0
-10.9232 -8.31838 -4.24485 255 0 0
-10.9316 -9.08714 -4.32421 255 0 0
-10.8804 -6.20182 -4.58596 255 0 0
-10.7582 -7.22767 -4.22982 255 0 0
-10.5293 -6.5775 -4.56347 255 0 0
-11.186 -6.41118 -4.43949 255 0 0
-10.609 -7.96057 -4.73871 255 0 0
-11.1306 -6.80725 -4.24471 255 0 0
-11.3065 -6.12883 -4.54429 255 0 0
-10.6165 -7.18737 -4.53633 255 0 0
-10.5031 -6.94839 -4.70967 255 0 0
-12.1599 -6.62875 -4.38271 255 0 0
-12.1391 -6.65478 -4.38171 255 0 0
-12.0929 -6.66683 -4.37576 255 0 0
-12.1023 -6.70948 -4.38072 255 0 0
-11.8733 -6.69337 -4.34498 255 0 0
-11.7053 -6.70879 -4.32115 255 0 0
-11.7083 -6.78448 -4.3281 255 0 0
-11.5326 -6.71926 -4.29633 255 0 0
-11.4619 -6.7145 -4.28541 255 0 0
-11.4061 -6.71823 -4.27747 255 0 0
-11.3444 -6.75452 -4.27151 255 0 0
-11.2134 -6.74873 -4.25166 255 0 0
-11.1812 -6.80183 -4.25166 255 0 0
-11.0604 -6.80037 -4.23379 255 0 0
-11.0688 -6.84175 -4.23875 255 0 0
-11.0264 -6.88804 -4.23677 255 0 0
-10.9758 -6.89269 -4.22982 255 0 0
-10.9692 -6.92485 -4.2318 255 0 0
-10.8553 -6.889 -4.21195 255 0 0
-10.7943 -6.99478 -4.21294 255 0 0
-10.7766 -7.03787 -4.21443 255 0 0
-10.7636 -7.08407 -4.21691 255 0 0
-10.7624 -7.13826 -4.22187 255 0 0
-10.7905 -7.43656 -4.25464 255 0 0
-10.7788 -7.50413 -4.2596 255 0 0
-10.7137 -7.49658 -4.24967 255 0 0
-10.7667 -7.57176 -4.26456 255 0 0
-10.8006 -7.6339 -4.27549 255 0 0
-10.913 -8.10807 -4.33902 255 0 0
-10.8483 -8.26134 -4.34597 255 0 0
-10.8103 -8.27301 -4.342 255 0 0
-10.8204 -8.38289 -4.35491 255 0 0
-10.8406 -8.46037 -4.36583 255 0 0
-10.832 -8.53669 -4.37278 255 0 0
-10.848 -8.59101 -4.38072 255 0 0
-10.8501 -8.63467 -4.38569 255 0 0
-10.8423 -8.75513 -4.3976 255 0 0
-10.8394 -8.79536 -4.40157 255 0 0
-10.8479 -8.93092 -4.41746 255 0 0
-10.8534 -8.97869 -4.42341 255 0 0
-10.8939 -6.24378 -4.48406 255 0 0
-10.5158 -7.58317 -4.9025 255 0 0
-10.5058 -7.18538 -4.73861 255 0 0
-12.0564 -6.13404 -4.6761 255 0 0
-10.6957 -6.68146 -4.38615 255 0 0
-12.184 -6.41878 -4.48732 255 0 0
-12.1077 -6.41528 -4.47483 255 0 0
-12.1172 -6.56826 -4.4894 255 0 0
-12.0763 -6.58319 -4.4842 255 0 0
-11.9794 -6.60421 -4.47067 255 0 0
-11.5899 -6.5336 -4.40302 255 0 0
-11.5794 -6.5639 -4.40406 255 0 0
-11.5138 -6.56281 -4.39365 255 0 0
-11.4226 -6.58281 -4.38117 255 0 0
-11.382 -6.59543 -4.37596 255 0 0
-11.3664 -6.62239 -4.37596 255 0 0
-11.2347 -6.65316 -4.35827 255 0 0
-11.209 -6.67389 -4.35619 255 0 0
-11.1338 -6.66493 -4.3437 255 0 0
-11.1525 -6.71211 -4.35099 255 0 0
-11.0922 -6.71168 -4.34162 255 0 0
-11.0848 -6.77924 -4.34682 255 0 0
-10.9839 -6.78931 -4.33225 255 0 0
-10.9272 -6.82606 -4.32705 255 0 0
-10.7336 -6.93735 -4.30832 255 0 0
-10.737 -7.08485 -4.32341 255 0 0
-10.7286 -7.13416 -4.32705 255 0 0
-10.7212 -7.16598 -4.32913 255 0 0
-10.7205 -7.23931 -4.33642 255 0 0
-10.7916 -7.3808 -4.36139 255 0 0
-10.773 -7.44333 -4.36503 255 0 0
-10.7329 -7.49106 -4.36399 255 0 0
-10.7385 -7.62825 -4.37908 255 0 0
-10.7264 -7.79319 -4.3947 255 0 0
-10.7033 -7.8347 -4.39574 255 0 0
-10.7125 -7.88054 -4.40198 255 0 0
-10.7213 -7.96561 -4.41239 255 0 0
-10.738 -8.09718 -4.42904 255 0 0
-10.7806 -8.43418 -4.47223 255 0 0
-10.7754 -8.49209 -4.47795 255 0 0
-10.7892 -8.58614 -4.49044 255 0 0
-10.7868 -8.6261 -4.4946 255 0 0
-10.7919 -8.69333 -4.50293 255 0 0
-10.767 -8.77899 -4.50917 255 0 0
-10.5638 -7.73262 -4.81682 255 0 0
-10.59 -6.27141 -4.75539 255 0 0
-10.461 -6.3807 -4.74324 255 0 0
-11.7022 -6.09422 -4.6102 255 0 0
-11.9741 -6.12797 -4.54508 255 0 0
-11.9715 -6.27062 -4.55706 255 0 0
-11.8854 -6.26144 -4.54182 255 0 0
-11.8044 -6.25459 -4.52766 255 0 0
-11.7286 -6.25009 -4.5146 255 0 0
-11.5975 -6.25104 -4.49283 255 0 0
-11.5473 -6.25933 -4.48521 255 0 0
-11.487 -6.26191 -4.47541 255 0 0
-11.4243 -6.28053 -4.4667 255 0 0
-11.3767 -6.30719 -4.46126 255 0 0
-11.3216 -6.32935 -4.45419 255 0 0
-11.2764 -6.35688 -4.44929 255 0 0
-11.2262 -6.39888 -4.44493 255 0 0
-11.1356 -6.45261 -4.43514 255 0 0
-11.1003 -6.46741 -4.43078 255 0 0
-11.0497 -6.5083 -4.42643 255 0 0
-10.8116 -6.6474 -4.40139 255 0 0
-10.7683 -6.67367 -4.39704 255 0 0
-10.6938 -6.73326 -4.39105 255 0 0
-10.6448 -7.0059 -4.41119 255 0 0
-10.6426 -7.04064 -4.41445 255 0 0
-10.6366 -7.09122 -4.41881 255 0 0
-10.6174 -7.24321 -4.43187 255 0 0
-10.619 -7.39288 -4.4482 255 0 0
-10.6244 -7.49051 -4.45963 255 0 0
-10.643 -7.59848 -4.47432 255 0 0
-10.653 -7.64382 -4.48086 255 0 0
-10.6489 -7.67915 -4.48412 255 0 0
-10.6446 -7.7145 -4.48739 255 0 0
-10.6405 -7.82753 -4.49936 255 0 0
-10.6572 -8.03625 -4.52549 255 0 0
-10.6656 -8.08234 -4.53202 255 0 0
-10.6683 -8.1643 -4.54182 255 0 0
-10.6824 -8.23557 -4.55216 255 0 0
-10.6872 -8.29997 -4.56032 255 0 0
-10.6975 -8.38961 -4.5723 255 0 0
-10.7227 -8.45056 -4.58318 255 0 0
-10.7276 -8.53713 -4.59407 255 0 0
-10.7218 -8.59501 -4.60005 255 0 0
-10.6711 -8.61684 -4.59516 255 0 0
-10.4598 -6.44823 -4.75092 255 0 0
-10.7974 -9.01895 -4.42043 255 0 0
-10.6834 -6.29255 -4.66779 255 0 0
-10.7724 -6.17411 -4.7797 255 0 0
-10.8315 -6.17395 -4.68257 255 0 0
-11.3376 -9.74734 -4.31718 255 0 0
-10.4864 -6.31122 -4.74004 255 0 0
-12.1068 -6.12358 -4.68406 255 0 0
-12.0111 -6.1469 -4.66929 255 0 0
-11.8842 -6.11753 -4.64429 255 0 0
-11.5563 -6.08807 -4.58406 255 0 0
-11.4961 -6.09125 -4.57383 255 0 0
-11.1917 -6.13544 -4.52497 255 0 0
-11.0675 -6.17014 -4.50679 255 0 0
-10.9708 -6.20169 -4.49315 255 0 0
-10.9187 -6.22362 -4.48633 255 0 0
-10.8269 -6.29092 -4.47724 255 0 0
-10.7871 -6.33638 -4.47497 255 0 0
-10.6446 -6.44083 -4.46133 255 0 0
-10.6387 -6.4891 -4.46531 255 0 0
-10.625 -6.55003 -4.46929 255 0 0
-10.6212 -6.79357 -4.49429 255 0 0
-10.6184 -6.89866 -4.50508 255 0 0
-10.6106 -6.9474 -4.50906 255 0 0
-10.6133 -6.98517 -4.51361 255 0 0
-10.6086 -7.12715 -4.52838 255 0 0
-10.6241 -7.24775 -4.54429 255 0 0
-10.6077 -7.292 -4.54656 255 0 0
-10.6147 -7.35257 -4.55451 255 0 0
-10.6205 -7.54442 -4.57724 255 0 0
-10.6213 -7.58293 -4.58179 255 0 0
-10.6199 -7.6391 -4.58804 255 0 0
-10.6279 -7.83777 -4.61247 255 0 0
-10.6277 -7.89607 -4.61929 255 0 0
-10.6319 -7.93842 -4.62497 255 0 0
-10.6406 -7.98429 -4.63179 255 0 0
-10.6484 -8.06935 -4.64315 255 0 0
-10.6521 -8.11198 -4.64883 255 0 0
-10.6511 -8.15118 -4.65338 255 0 0
-10.65 -8.19041 -4.65792 255 0 0
-10.6669 -8.24374 -4.66701 255 0 0
-10.6911 -8.34371 -4.68292 255 0 0
-10.6359 -8.42311 -4.68406 255 0 0
-10.5332 -6.93246 -4.60372 255 0 0
-10.5341 -7.3709 -4.76632 255 0 0
-10.4325 -6.24513 -4.8284 255 0 0
-10.5978 -8.07057 -4.75055 255 0 0
-11.9246 -6.10262 -4.76594 255 0 0
-11.8489 -6.09938 -4.75173 255 0 0
-11.7529 -6.08528 -4.73278 255 0 0
-11.602 -6.07708 -4.70437 255 0 0
-11.5419 -6.08052 -4.69371 255 0 0
-11.2724 -6.11034 -4.64753 255 0 0
-11.2126 -6.11235 -4.63688 255 0 0
-11.0886 -6.14747 -4.61793 255 0 0
-10.8062 -6.22757 -4.57531 255 0 0
-10.727 -6.24988 -4.56347 255 0 0
-10.7096 -6.2909 -4.56465 255 0 0
-10.6229 -6.32493 -4.55281 255 0 0
-10.5757 -6.3479 -4.54689 255 0 0
-10.5482 -6.38252 -4.54571 255 0 0
-10.5474 -6.43343 -4.55103 255 0 0
-10.5465 -6.48441 -4.55636 255 0 0
-10.5428 -6.53397 -4.5611 255 0 0
-10.5325 -6.63171 -4.56998 255 0 0
-10.5583 -6.73566 -4.58596 255 0 0
-10.5386 -6.88241 -4.59899 255 0 0
-10.5503 -6.97956 -4.61201 255 0 0
-10.5432 -7.08321 -4.62267 255 0 0
-10.5501 -7.12423 -4.62859 255 0 0
-10.5427 -7.15567 -4.63096 255 0 0
-10.5494 -7.1968 -4.63688 255 0 0
-10.5623 -7.27929 -4.64872 255 0 0
-10.5632 -7.42861 -4.66648 255 0 0
-10.5767 -7.62711 -4.69253 255 0 0
-10.5868 -7.86571 -4.72331 255 0 0
-10.613 -8.00296 -4.74463 255 0 0
-10.5841 -8.21996 -4.76712 255 0 0
-10.55 -6.31546 -4.64562 255 0 0
-10.5579 -7.59455 -4.79835 255 0 0
-12.0132 -6.04054 -4.89318 255 0 0
-11.8926 -6.05072 -4.87101 255 0 0
-11.7315 -6.03893 -4.83899 255 0 0
-11.6358 -6.02461 -4.81928 255 0 0
-11.531 -6.03988 -4.80081 255 0 0
-11.466 -6.04053 -4.78849 255 0 0
-11.4061 -6.04357 -4.77741 255 0 0
-11.3564 -6.05176 -4.76879 255 0 0
-11.1132 -6.0924 -4.72691 255 0 0
-11.0291 -6.1145 -4.71336 255 0 0
-10.9278 -6.14329 -4.69735 255 0 0
-10.8661 -6.15954 -4.6875 255 0 0
-10.723 -6.21353 -4.66656 255 0 0
-10.6835 -6.24152 -4.66225 255 0 0
-10.5203 -6.3316 -4.64192 255 0 0
-10.4999 -6.38737 -4.64439 255 0 0
-10.4855 -6.4984 -4.65424 255 0 0
-10.4904 -6.58784 -4.66533 255 0 0
-10.4887 -6.63889 -4.67087 255 0 0
-10.5043 -6.84227 -4.69735 255 0 0
-10.5005 -6.91088 -4.70474 255 0 0
-10.4962 -6.97962 -4.71213 255 0 0
-10.495 -7.03284 -4.71829 255 0 0
-10.5053 -7.13028 -4.73184 255 0 0
-10.5203 -7.2503 -4.74908 255 0 0
-10.5266 -7.29152 -4.75524 255 0 0
-10.5452 -7.43471 -4.77618 255 0 0
-10.5421 -7.48873 -4.78233 255 0 0
-10.5523 -7.53367 -4.78972 255 0 0
-10.5544 -7.68733 -4.80943 255 0 0
-10.5639 -7.79053 -4.82421 255 0 0
-10.5637 -7.84853 -4.8316 255 0 0
-10.5772 -7.89752 -4.84022 255 0 0
-11.5293 -6.00421 -4.91018 255 0 0
-11.4695 -6.00766 -4.89866 255 0 0
-11.3206 -6.03266 -4.8718 255 0 0
-11.2114 -6.0429 -4.85133 255 0 0
-11.1719 -6.05585 -4.84494 255 0 0
-11.0829 -6.0758 -4.82959 255 0 0
-11.0213 -6.09305 -4.81935 255 0 0
-10.8608 -6.12258 -4.79121 255 0 0
-10.8314 -6.13986 -4.78737 255 0 0
-10.728 -6.18251 -4.77202 255 0 0
-10.6492 -6.23845 -4.76307 255 0 0
-10.4763 -6.33902 -4.74132 255 0 0
-10.482 -6.54796 -4.76691 255 0 0
-10.478 -6.59738 -4.77202 255 0 0
-10.4724 -6.68088 -4.78098 255 0 0
-10.4726 -6.78627 -4.79377 255 0 0
-10.4469 -6.8934 -4.80208 255 0 0
-10.4437 -6.94475 -4.80784 255 0 0
-10.451 -6.98537 -4.81424 255 0 0
-10.4534 -7.02287 -4.81935 255 0 0
-10.4761 -7.23817 -4.85069 255 0 0
-10.5009 -7.34763 -4.86924 255 0 0
-10.5115 -7.39223 -4.87692 255 0 0
-10.5172 -7.43362 -4.88331 255 0 0
-10.5255 -7.62819 -4.91018 255 0 0
-10.5352 -7.69254 -4.92041 255 0 0
-10.6678 -6.1142 -4.86024 255 0 0
-10.6263 -6.14069 -4.85493 255 0 0
-10.6487 -6.20428 -4.86687 255 0 0
-10.6192 -6.22086 -4.86289 255 0 0
-10.4816 -6.20721 -4.83371 255 0 0
-10.4177 -6.26985 -4.8284 255 0 0
-10.4174 -6.30339 -4.83238 255 0 0
-10.4073 -6.33104 -4.83371 255 0 0
-10.409 -6.38292 -4.84034 255 0 0
-10.4094 -6.48544 -4.85294 255 0 0
-10.408 -6.53607 -4.85891 255 0 0
-10.3953 -6.73619 -4.88147 255 0 0
-10.4287 -6.93474 -4.91331 255 0 0
-11.6675 -10.1518 -4.2654 255 0 0
-11.3035 -9.67153 -4.30553 255 0 0
