ply
format ascii 1.0
comment Created by Open3D
element vertex 1335
property double x
property double y
property double z
property uchar red
property uchar green
property uchar blue
end_header
4.727 -3.44292 -4.32324 255 0 0
6.20987 -3.25268 -5.2689 255 0 0
5.55875 -4.76759 -4.35929 255 0 0
7.2168 -2.88707 -4.43303 255 0 0
7.82097 -2.66477 -4.89117 255 0 0
4.35971 -4.09406 -4.26161 255 0 0
5.52916 -4.82243 -4.43112 255 0 0
7.01438 -2.85443 -4.5094 255 0 0
4.27507 -4.41412 -4.32375 255 0 0
4.35636 -3.60389 -4.24613 255 0 0
4.90311 -3.53574 -4.17179 255 0 0
5.28915 -3.28665 -4.35481 255 0 0
6.26478 -3.04838 -4.37308 255 0 0
6.05249 -4.29951 -3.98931 255 0 0
6.97067 -3.44312 -4.50473 255 0 0
6.52148 -3.32771 -3.96177 255 0 0
6.71982 -3.00778 -4.37186 255 0 0
4.03124 -3.65292 -4.3735 255 0 0
4.17077 -4.51596 -4.3832 255 0 0
5.85645 -3.65844 -4.22463 255 0 0
5.16655 -3.55161 -4.07751 255 0 0
7.78752 -2.65338 -4.95578 255 0 0
7.12016 -2.8484 -4.47061 255 0 0
4.2562 -3.54661 -4.52759 255 0 0
4.88817 -3.70424 -4.20347 255 0 0
4.70738 -3.53222 -4.28161 255 0 0
5.91085 -4.52351 -4.06083 255 0 0
4.63112 -3.475 -4.30018 255 0 0
6.20817 -3.14008 -5.24416 255 0 0
7.03021 -3.78926 -3.99828 255 0 0
5.99225 -4.67657 -4.10458 255 0 0
6.15133 -4.48035 -4.59207 255 0 0
5.3109 -3.28274 -4.36102 255 0 0
3.97496 -3.96085 -4.28348 255 0 0
6.12628 -3.24602 -4.23361 255 0 0
6.00502 -3.57542 -4.25156 255 0 0
4.02898 -4.31086 -4.34413 255 0 0
5.9766 -3.71383 -4.13849 255 0 0
6.22186 -3.30611 -4.014 255 0 0
5.95631 -4.60325 -4.08427 255 0 0
7.12573 -3.12882 -4.08528 255 0 0
4.72429 -3.51872 -4.28373 255 0 0
3.92555 -3.84721 -4.3439 255 0 0
6.66092 -3.91268 -3.9329 255 0 0
7.35535 -2.78185 -4.53346 255 0 0
6.31663 -3.03665 -4.38724 255 0 0
7.78851 -2.7157 -4.65735 255 0 0
6.19086 -3.58735 -4.10975 255 0 0
4.02731 -3.91279 -4.28495 255 0 0
5.42057 -4.92352 -4.42652 255 0 0
7.89655 -2.88 -4.40264 255 0 0
4.86466 -3.45567 -4.31336 255 0 0
4.95826 -4.64507 -4.3774 255 0 0
7.47159 -2.73503 -4.63648 255 0 0
5.78126 -3.72684 -4.34287 255 0 0
4.42789 -3.5152 -4.35556 255 0 0
5.2192 -3.3122 -4.33755 255 0 0
3.95433 -3.80258 -4.28575 255 0 0
6.38147 -4.67118 -4.54782 255 0 0
5.54336 -3.51793 -3.93586 255 0 0
6.70396 -3.89531 -3.94001 255 0 0
5.61879 -4.1334 -3.99388 255 0 0
5.48356 -4.82863 -4.35391 255 0 0
5.00869 -3.85196 -4.1522 255 0 0
4.92587 -3.42068 -4.26783 255 0 0
4.44042 -3.84514 -4.22123 255 0 0
4.47534 -4.76575 -4.41033 255 0 0
4.73586 -3.42367 -4.37801 255 0 0
6.70621 -4.16721 -3.97554 255 0 0
4.44619 -3.64284 -4.62238 255 0 0
4.18773 -4.85929 -4.48691 255 0 0
5.8908 -3.54536 -4.27826 255 0 0
5.92941 -3.95303 -3.90949 255 0 0
5.74574 -4.79936 -4.20745 255 0 0
4.55979 -3.64643 -4.66369 255 0 0
6.19324 -4.31168 -4.29343 255 0 0
7.00693 -2.8902 -4.44188 255 0 0
4.6303 -3.84908 -4.21993 255 0 0
4.91789 -3.51987 -4.17278 255 0 0
7.63776 -2.72422 -4.61246 255 0 0
7.96411 -2.71355 -4.86582 255 0 0
6.6698 -3.25525 -5.31179 255 0 0
6.11889 -3.19579 -4.28747 255 0 0
5.6694 -4.25408 -4.02607 255 0 0
7.21367 -2.79688 -4.56373 255 0 0
7.46027 -3.0462 -4.23114 255 0 0
5.08385 -3.62956 -4.12765 255 0 0
6.11746 -3.42952 -3.87918 255 0 0
4.64108 -3.78416 -4.20778 255 0 0
5.8176 -3.47318 -3.93675 255 0 0
6.77659 -2.90867 -4.51184 255 0 0
4.76507 -3.54911 -4.19056 255 0 0
4.99006 -3.36966 -4.21993 255 0 0
6.11696 -3.46746 -5.2788 255 0 0
6.56659 -3.06151 -4.33415 255 0 0
6.35593 -3.08343 -4.34088 255 0 0
4.31042 -3.54873 -4.32628 255 0 0
5.3607 -3.26103 -4.43259 255 0 0
6.75623 -4.33271 -4.00823 255 0 0
4.90817 -3.85869 -4.24306 255 0 0
5.95396 -4.8078 -4.32578 255 0 0
5.98527 -3.24438 -5.10602 255 0 0
6.68119 -3.95659 -3.94285 255 0 0
5.91721 -3.73552 -4.31878 255 0 0
6.62726 -3.02312 -4.34672 255 0 0
5.50481 -3.25994 -4.2985 255 0 0
4.29456 -4.40283 -4.32582 255 0 0
6.80985 -2.89432 -4.52033 255 0 0
5.26354 -4.6571 -4.39385 255 0 0
4.22255 -4.95884 -4.52501 255 0 0
4.34025 -4.11469 -4.26161 255 0 0
7.01307 -3.55762 -4.53346 255 0 0
4.11118 -3.68996 -4.35576 255 0 0
7.93811 -3.21938 -4.37176 255 0 0
4.78272 -4.8801 -4.4549 255 0 0
7.77673 -3.84127 -4.17025 255 0 0
7.73065 -2.69552 -4.71291 255 0 0
6.20466 -4.39652 -4.24223 255 0 0
6.13937 -3.46095 -4.33535 255 0 0
5.33665 -4.92875 -4.40718 255 0 0
4.7187 -4.20506 -4.27078 255 0 0
3.87417 -3.6641 -4.43281 255 0 0
7.72421 -2.71384 -4.63759 255 0 0
6.39246 -3.27145 -5.27615 255 0 0
6.48662 -3.10894 -4.3174 255 0 0
7.22154 -2.82954 -4.42778 255 0 0
6.27662 -3.11884 -4.32246 255 0 0
6.36693 -4.1258 -4.514 255 0 0
6.8678 -2.94781 -4.40777 255 0 0
3.97727 -3.65583 -4.3037 255 0 0
7.55003 -2.79426 -4.44667 255 0 0
5.80063 -4.25658 -3.99209 255 0 0
5.66592 -4.8015 -4.25711 255 0 0
5.55637 -4.84617 -4.4431 255 0 0
4.55781 -4.87669 -4.46096 255 0 0
7.24034 -2.81713 -4.50293 255 0 0
4.37053 -4.05571 -4.25471 255 0 0
8.23317 -3.22592 -4.44831 255 0 0
7.4129 -2.95532 -4.28114 255 0 0
4.0488 -4.13123 -4.29802 255 0 0
4.0767 -3.96703 -4.25982 255 0 0
5.21051 -3.53655 -4.08671 255 0 0
6.43046 -4.18865 -4.47241 255 0 0
4.11164 -3.8887 -4.24829 255 0 0
5.73305 -4.36592 -4.05986 255 0 0
7.93176 -3.04292 -4.42838 255 0 0
3.87926 -3.829 -4.32437 255 0 0
4.95054 -4.59395 -4.36321 255 0 0
6.26886 -3.3789 -3.97178 255 0 0
6.01381 -3.11373 -4.36966 255 0 0
5.96015 -3.79235 -4.34088 255 0 0
6.83702 -3.21726 -4.02467 255 0 0
3.91973 -3.9151 -4.30827 255 0 0
4.43509 -3.51238 -4.32047 255 0 0
4.46295 -3.75311 -4.21618 255 0 0
5.92383 -3.50808 -4.28133 255 0 0
5.71285 -3.24734 -4.2994 255 0 0
5.98019 -3.46528 -4.3542 255 0 0
7.2574 -2.80397 -4.50652 255 0 0
5.77072 -3.99724 -3.94365 255 0 0
5.81715 -3.58612 -4.26444 255 0 0
6.13259 -3.08361 -4.40189 255 0 0
6.69682 -4.05212 -3.95849 255 0 0
5.91253 -3.48249 -3.8999 255 0 0
4.74358 -3.59467 -4.59672 255 0 0
5.5505 -4.20615 -4.05344 255 0 0
5.45787 -3.2848 -4.2886 255 0 0
5.6328 -3.19301 -4.51019 255 0 0
4.18466 -3.81002 -4.24829 255 0 0
5.07368 -3.42613 -4.19951 255 0 0
5.29385 -4.91253 -4.45992 255 0 0
5.69586 -4.35898 -4.05021 255 0 0
6.45947 -3.14314 -5.27736 255 0 0
5.26875 -3.5397 -4.10329 255 0 0
4.67983 -4.55398 -4.34601 255 0 0
4.4333 -3.79323 -4.20638 255 0 0
6.06938 -3.40256 -4.11465 255 0 0
7.31869 -2.97825 -4.25861 255 0 0
6.56593 -4.14506 -3.94285 255 0 0
5.6755 -3.45255 -4.32454 255 0 0
5.96708 -3.27122 -4.19231 255 0 0
4.32155 -4.20531 -4.28025 255 0 0
4.96834 -3.556 -4.13792 255 0 0
4.56915 -3.49669 -4.28577 255 0 0
5.22813 -3.96186 -4.11331 255 0 0
5.60851 -3.64379 -3.91181 255 0 0
7.56596 -2.82056 -4.52748 255 0 0
4.57358 -3.45729 -4.61569 255 0 0
6.18032 -3.27466 -5.26148 255 0 0
6.05112 -3.28007 -4.21745 255 0 0
6.72802 -3.26392 -5.33685 255 0 0
6.17989 -4.47877 -4.59963 255 0 0
4.00051 -4.39389 -4.36071 255 0 0
6.66608 -2.98373 -4.42007 255 0 0
6.03045 -3.4944 -3.99227 255 0 0
6.2525 -4.57677 -4.63927 255 0 0
5.48879 -4.85639 -4.36109 255 0 0
4.54456 -4.23731 -4.29082 255 0 0
6.12376 -4.405 -4.29258 255 0 0
6.75503 -3.82916 -3.94285 255 0 0
5.9104 -3.45298 -4.33154 255 0 0
4.20717 -3.78514 -4.24829 255 0 0
6.12984 -4.59957 -4.05346 255 0 0
6.60629 -2.99465 -4.4035 255 0 0
5.22736 -3.30001 -4.39661 255 0 0
5.36433 -4.76899 -4.44482 255 0 0
5.99775 -4.7153 -4.11239 255 0 0
6.19476 -3.1333 -4.30036 255 0 0
5.12297 -3.48598 -4.22624 255 0 0
4.28081 -4.31648 -4.29889 255 0 0
6.95038 -3.0715 -4.24057 255 0 0
6.23982 -4.36611 -4.24554 255 0 0
6.81771 -3.82208 -3.95564 255 0 0
5.3482 -3.50178 -4.001 255 0 0
6.11678 -4.32337 -4.41316 255 0 0
6.19212 -3.25276 -4.12572 255 0 0
4.16937 -4.30499 -4.32341 255 0 0
5.04709 -4.2977 -4.25792 255 0 0
6.95133 -2.94473 -4.36306 255 0 0
6.22703 -3.06663 -5.23673 255 0 0
5.46986 -4.88608 -4.36288 255 0 0
7.52918 -2.74602 -4.58193 255 0 0
6.6351 -3.29696 -3.98526 255 0 0
4.48578 -4.86858 -4.44071 255 0 0
4.83819 -4.0413 -4.26484 255 0 0
6.27905 -3.39399 -3.91252 255 0 0
5.32826 -3.69076 -4.08817 255 0 0
5.19933 -3.58324 -4.03431 255 0 0
4.54773 -3.49745 -4.50306 255 0 0
5.30546 -3.54613 -3.9975 255 0 0
5.83925 -4.40321 -4.0249 255 0 0
7.87384 -2.89289 -4.39781 255 0 0
7.28962 -3.0575 -4.4024 255 0 0
5.05531 -4.7812 -4.43477 255 0 0
6.49987 -3.36541 -5.33934 255 0 0
4.07298 -3.58652 -4.53066 255 0 0
5.90126 -3.68644 -4.11465 255 0 0
6.84693 -3.18235 -4.09052 255 0 0
6.4489 -3.33902 -3.94586 255 0 0
6.85135 -3.26377 -4.16929 255 0 0
6.0624 -3.32348 -4.03854 255 0 0
5.79896 -3.64167 -4.26905 255 0 0
6.47141 -3.29252 -5.3126 255 0 0
6.16158 -3.24604 -4.30773 255 0 0
4.44942 -3.8807 -4.23262 255 0 0
5.53355 -4.17269 -4.04351 255 0 0
7.21889 -2.89782 -4.36409 255 0 0
5.96966 -3.46864 -3.91162 255 0 0
5.66327 -3.51911 -3.90591 255 0 0
6.12971 -4.29988 -4.27555 255 0 0
5.92726 -4.69408 -4.16125 255 0 0
6.16775 -3.28675 -4.25156 255 0 0
6.16501 -3.32292 -4.00193 255 0 0
4.31835 -3.84826 -4.24245 255 0 0
7.94768 -2.68693 -4.93565 255 0 0
4.42325 -5.18207 -4.57642 255 0 0
7.17133 -2.91831 -4.35302 255 0 0
5.84265 -3.63059 -4.15317 255 0 0
5.94037 -4.56847 -4.0749 255 0 0
6.07377 -4.37993 -4.00648 255 0 0
5.03767 -5.09171 -4.50632 255 0 0
7.11032 -3.57524 -4.56398 255 0 0
4.88664 -3.96512 -4.26088 255 0 0
7.3632 -2.84484 -4.39899 255 0 0
4.81948 -3.87287 -4.22129 255 0 0
4.20948 -3.63642 -4.26362 255 0 0
6.76095 -3.07441 -5.31418 255 0 0
5.92414 -3.76942 -3.88145 255 0 0
5.91258 -3.15976 -4.34581 255 0 0
5.71284 -4.79492 -4.19917 255 0 0
4.36728 -3.5523 -4.29084 255 0 0
7.32172 -2.85877 -4.38878 255 0 0
4.87116 -3.60128 -4.17641 255 0 0
4.16546 -4.39382 -4.34722 255 0 0
5.15232 -3.33872 -4.32167 255 0 0
6.17735 -4.36618 -4.50664 255 0 0
5.81379 -3.5556 -3.88688 255 0 0
3.91982 -3.88742 -4.40862 255 0 0
5.76631 -3.9038 -3.92803 255 0 0
6.02176 -3.54683 -3.87261 255 0 0
4.96011 -4.9896 -4.46184 255 0 0
4.74023 -4.90607 -4.45094 255 0 0
4.54318 -4.81506 -4.44071 255 0 0
7.87115 -2.76546 -4.61144 255 0 0
4.0019 -4.34342 -4.3463 255 0 0
6.25622 -3.12721 -5.26148 255 0 0
7.87264 -2.78697 -4.46247 255 0 0
4.41766 -3.60199 -4.6005 255 0 0
7.12952 -3.09024 -4.15145 255 0 0
4.47767 -3.71321 -4.25515 255 0 0
4.69566 -4.56934 -4.35393 255 0 0
6.28933 -4.46772 -4.55636 255 0 0
6.29229 -4.49231 -4.56189 255 0 0
5.97235 -3.29255 -4.25984 255 0 0
5.86686 -3.49314 -3.89053 255 0 0
6.57001 -3.31331 -3.97162 255 0 0
4.63256 -3.45894 -4.35263 255 0 0
6.20948 -3.34689 -4.07994 255 0 0
4.48919 -3.48644 -4.59321 255 0 0
4.62731 -3.44649 -4.40398 255 0 0
6.53549 -3.07537 -4.32697 255 0 0
6.05205 -4.23472 -3.9792 255 0 0
6.46106 -2.9844 -5.24698 255 0 0
5.21768 -3.30257 -4.27665 255 0 0
7.10666 -3.10036 -4.14677 255 0 0
6.91008 -2.88866 -4.48177 255 0 0
6.07117 -3.25379 -5.21199 255 0 0
4.85711 -3.50257 -4.20778 255 0 0
5.44742 -3.24342 -4.33741 255 0 0
7.85374 -2.69674 -4.75159 255 0 0
6.95701 -3.17353 -4.04891 255 0 0
7.83708 -2.69102 -4.8224 255 0 0
5.08002 -3.35208 -4.1297 255 0 0
4.12739 -3.86667 -4.24685 255 0 0
5.73026 -3.17683 -4.35393 255 0 0
6.40296 -4.14914 -4.45804 255 0 0
5.14266 -3.91632 -4.14197 255 0 0
6.23441 -3.11631 -4.30957 255 0 0
4.23345 -4.10983 -4.28743 255 0 0
8.25583 -3.29138 -4.46081 255 0 0
6.6114 -3.04433 -4.34493 255 0 0
7.61669 -2.84976 -4.39789 255 0 0
5.80815 -4.29395 -3.9999 255 0 0
5.08821 -3.34881 -4.07479 255 0 0
5.58141 -4.82159 -4.44402 255 0 0
6.38211 -4.67164 -4.62083 255 0 0
4.68701 -3.48232 -4.60553 255 0 0
3.88088 -3.77647 -4.36257 255 0 0
7.72468 -2.67291 -4.86022 255 0 0
7.64785 -2.83046 -4.40451 255 0 0
5.3165 -3.27748 -4.4213 255 0 0
4.39025 -3.597 -4.25478 255 0 0
5.37637 -4.9184 -4.41455 255 0 0
5.759 -3.80988 -3.91188 255 0 0
6.32099 -3.38768 -3.92161 255 0 0
6.5678 -3.00539 -4.39337 255 0 0
5.61132 -3.85738 -3.94641 255 0 0
4.08119 -3.92457 -4.24937 255 0 0
6.60295 -2.95547 -5.30045 255 0 0
6.55587 -3.35508 -4.44033 255 0 0
4.92292 -3.47954 -4.16585 255 0 0
6.02557 -3.46301 -4.23899 255 0 0
3.98305 -3.60922 -4.45225 255 0 0
5.9879 -3.2642 -4.25984 255 0 0
7.02028 -3.14226 -4.12958 255 0 0
6.12025 -3.30816 -5.24416 255 0 0
4.16774 -4.55581 -4.39378 255 0 0
4.26161 -4.49527 -4.34239 255 0 0
4.67832 -4.93481 -4.44302 255 0 0
3.9369 -3.81286 -4.2835 255 0 0
5.60891 -4.76463 -4.37096 255 0 0
4.2704 -3.89737 -4.2414 255 0 0
6.67606 -3.27793 -3.99284 255 0 0
7.10717 -3.76575 -4.01249 255 0 0
6.14433 -4.70219 -4.07316 255 0 0
4.39454 -3.58314 -4.25262 255 0 0
4.4483 -4.51739 -4.33741 255 0 0
6.48327 -3.22152 -5.30288 255 0 0
5.11402 -3.34843 -4.3698 255 0 0
6.34897 -3.38332 -3.92768 255 0 0
4.60291 -3.5835 -4.2615 255 0 0
4.33755 -3.62311 -4.63541 255 0 0
6.26671 -3.40657 -3.9749 255 0 0
3.98805 -3.71843 -4.37896 255 0 0
4.78384 -3.51918 -4.18955 255 0 0
5.11047 -4.2482 -4.26358 255 0 0
7.31961 -3.03951 -4.19442 255 0 0
6.47191 -3.11131 -5.27615 255 0 0
5.50642 -4.89531 -4.37366 255 0 0
6.36947 -3.05277 -5.29365 255 0 0
4.81008 -3.52094 -4.71959 255 0 0
4.33422 -4.15804 -4.27128 255 0 0
6.5788 -3.19155 -4.3557 255 0 0
7.77079 -2.77167 -4.43267 255 0 0
4.70195 -4.69639 -4.38759 255 0 0
4.58664 -3.9433 -4.23006 255 0 0
5.29909 -3.4517 -4.15408 255 0 0
6.7215 -3.72636 -3.92295 255 0 0
4.16327 -3.63113 -4.57602 255 0 0
6.14227 -3.32948 -3.9971 255 0 0
3.91091 -3.76084 -4.36725 255 0 0
4.81989 -3.39814 -4.34287 255 0 0
5.3402 -4.8621 -4.45992 255 0 0
3.86713 -3.66175 -4.37647 255 0 0
4.72367 -4.14957 -4.2589 255 0 0
3.96342 -3.68666 -4.3083 255 0 0
4.51227 -4.06931 -4.24019 255 0 0
8.28287 -3.22276 -4.46081 255 0 0
4.86418 -3.85217 -4.22921 255 0 0
4.72251 -4.10904 -4.249 255 0 0
5.02865 -3.51862 -4.14758 255 0 0
7.49124 -2.81296 -4.50474 255 0 0
4.59832 -3.64163 -4.21812 255 0 0
5.2628 -3.5086 -4.09592 255 0 0
5.97894 -3.14076 -4.36321 255 0 0
5.89744 -3.64529 -4.23361 255 0 0
5.18768 -3.95061 -4.10074 255 0 0
7.94552 -2.77044 -4.55734 255 0 0
6.78783 -3.21379 -4.14676 255 0 0
4.63421 -3.63442 -4.17132 255 0 0
5.52319 -4.81723 -4.36109 255 0 0
6.58282 -2.98401 -4.46181 255 0 0
4.25143 -3.55976 -4.4743 255 0 0
5.67976 -3.29119 -5.06104 255 0 0
4.01606 -4.45324 -4.38233 255 0 0
6.23403 -3.41757 -3.90494 255 0 0
4.50882 -3.53608 -4.2764 255 0 0
3.96125 -3.64976 -4.51168 255 0 0
4.27984 -4.56842 -4.36724 255 0 0
7.02298 -3.30476 -4.28859 255 0 0
5.22356 -3.45567 -4.13332 255 0 0
4.53896 -3.47361 -4.49369 255 0 0
4.07765 -3.73031 -4.2489 255 0 0
6.73997 -3.25002 -4.00497 255 0 0
4.78838 -3.71879 -4.12148 255 0 0
3.89481 -3.79004 -4.31748 255 0 0
3.95559 -3.99802 -4.28863 255 0 0
3.91445 -3.8821 -4.29701 255 0 0
6.52429 -2.98548 -4.44387 255 0 0
6.10522 -3.41314 -3.93662 255 0 0
4.83777 -3.59433 -4.6295 255 0 0
6.20832 -3.28949 -4.07166 255 0 0
6.30461 -3.02168 -4.44637 255 0 0
4.42188 -3.54476 -4.47262 255 0 0
6.04166 -3.34947 -4.03688 255 0 0
6.16339 -4.60195 -4.06104 255 0 0
5.62436 -4.10674 -3.99066 255 0 0
6.1624 -4.55586 -4.05346 255 0 0
5.96661 -4.04973 -3.93222 255 0 0
4.46783 -3.53826 -4.26415 255 0 0
4.72892 -3.46152 -4.61508 255 0 0
4.30929 -3.646 -4.24253 255 0 0
5.5313 -3.2403 -4.98928 255 0 0
4.21389 -3.59682 -4.58345 255 0 0
6.05462 -3.45112 -3.92959 255 0 0
4.20818 -4.9065 -4.50596 255 0 0
5.88184 -3.17029 -4.33807 255 0 0
7.31492 -2.83615 -4.45577 255 0 0
4.97013 -3.85995 -4.26088 255 0 0
4.42638 -3.52257 -4.63789 255 0 0
4.01792 -3.70196 -4.38364 255 0 0
3.82794 -3.75156 -4.49931 255 0 0
6.45734 -2.98268 -4.48892 255 0 0
3.91139 -3.6556 -4.44253 255 0 0
3.94561 -4.08364 -4.3107 255 0 0
5.10149 -3.498 -4.10689 255 0 0
6.39793 -3.3512 -3.93525 255 0 0
7.92453 -2.86893 -4.40907 255 0 0
5.03673 -3.34927 -4.17311 255 0 0
7.47312 -2.94857 -4.29642 255 0 0
4.73573 -4.76388 -4.41332 255 0 0
7.05315 -3.51512 -4.53884 255 0 0
7.73565 -2.75914 -4.49604 255 0 0
5.03147 -3.38029 -4.17773 255 0 0
6.00522 -3.3479 -4.27826 255 0 0
5.00461 -3.44905 -4.24086 255 0 0
3.92042 -3.84522 -4.288 255 0 0
6.48448 -2.97658 -4.49665 255 0 0
4.69604 -3.75541 -4.21689 255 0 0
5.72556 -3.50163 -3.97892 255 0 0
6.20114 -4.33905 -4.43829 255 0 0
6.47579 -3.02854 -5.26156 255 0 0
4.28048 -4.51514 -4.35274 255 0 0
6.36838 -4.6039 -4.53166 255 0 0
5.83807 -4.66866 -4.20414 255 0 0
7.54571 -2.87431 -4.52748 255 0 0
7.30376 -2.79206 -4.51909 255 0 0
6.73284 -3.03279 -5.29509 255 0 0
4.9866 -3.38457 -4.22196 255 0 0
5.52239 -3.55072 -3.93586 255 0 0
7.56712 -2.73954 -4.59271 255 0 0
5.1497 -3.33702 -4.37897 255 0 0
4.17002 -4.41957 -4.35569 255 0 0
4.8081 -3.93936 -4.23316 255 0 0
7.4549 -2.92098 -4.87659 255 0 0
4.28069 -4.25205 -4.28163 255 0 0
5.32581 -3.50519 -4.05406 255 0 0
6.11047 -3.09066 -4.39609 255 0 0
6.12148 -4.63884 -4.05801 255 0 0
6.08519 -4.63409 -4.60529 255 0 0
4.87374 -4.11038 -4.29058 255 0 0
5.96134 -3.18583 -4.30228 255 0 0
4.74544 -4.09943 -4.25296 255 0 0
6.59436 -3.3158 -4.04365 255 0 0
4.13436 -3.67553 -4.25111 255 0 0
4.24299 -4.07049 -4.27949 255 0 0
6.05783 -3.2559 -4.21565 255 0 0
6.0171 -3.54408 -4.24977 255 0 0
5.55504 -4.81032 -4.36737 255 0 0
5.90882 -3.80908 -3.88373 255 0 0
5.86173 -4.45297 -4.03818 255 0 0
4.01211 -3.70545 -4.32897 255 0 0
5.92606 -4.60234 -4.21242 255 0 0
5.91401 -4.63812 -4.14837 255 0 0
6.15166 -3.20365 -5.23426 255 0 0
5.43104 -4.87461 -4.41823 255 0 0
6.10932 -3.44401 -3.87918 255 0 0
4.59324 -3.48074 -4.68738 255 0 0
7.64742 -2.72767 -4.54147 255 0 0
6.91134 -3.74636 -3.96701 255 0 0
4.23683 -3.67763 -4.22884 255 0 0
7.60065 -2.97808 -4.33344 255 0 0
6.83704 -3.17775 -5.36429 255 0 0
6.79543 -3.19769 -4.14676 255 0 0
4.67552 -3.57812 -4.22641 255 0 0
5.413 -3.53503 -3.96482 255 0 0
4.71552 -4.39671 -4.31631 255 0 0
4.21204 -3.55229 -4.51382 255 0 0
4.7325 -3.71151 -4.74389 255 0 0
6.24201 -3.0832 -5.1066 255 0 0
5.9527 -3.64054 -4.24797 255 0 0
4.33904 -3.82081 -4.2414 255 0 0
7.37996 -3.03384 -4.20926 255 0 0
6.33171 -3.01623 -4.45411 255 0 0
5.01505 -4.9501 -4.46571 255 0 0
6.97603 -2.90654 -4.4347 255 0 0
6.05943 -3.5112 -4.32062 255 0 0
5.96342 -3.4367 -5.20951 255 0 0
5.59056 -4.8064 -4.24065 255 0 0
6.04937 -3.27912 -4.2801 255 0 0
7.0762 -3.78162 -4.00752 255 0 0
6.00332 -4.66235 -4.10458 255 0 0
3.88502 -3.75371 -4.3037 255 0 0
6.77477 -3.24703 -5.35236 255 0 0
4.0649 -3.59656 -4.36803 255 0 0
6.22874 -3.31925 -5.29117 255 0 0
4.56276 -3.65766 -4.21139 255 0 0
4.03765 -3.86433 -4.27428 255 0 0
4.34317 -3.52414 -4.49578 255 0 0
5.28219 -4.92507 -4.45992 255 0 0
5.27772 -3.28823 -4.41072 255 0 0
4.60108 -3.99381 -4.24626 255 0 0
7.77904 -2.69173 -4.72765 255 0 0
5.62462 -3.80791 -3.94158 255 0 0
7.5045 -2.7774 -4.50474 255 0 0
5.64338 -4.21368 -4.01319 255 0 0
5.84994 -4.61031 -4.12906 255 0 0
4.42109 -4.59752 -4.35159 255 0 0
5.91486 -3.2426 -4.29756 255 0 0
6.99048 -3.1688 -4.33259 255 0 0
4.76926 -3.51714 -4.2409 255 0 0
6.84504 -3.18147 -4.22567 255 0 0
6.09154 -4.34899 -4.2747 255 0 0
4.62104 -3.89724 -4.22871 255 0 0
4.02573 -4.26665 -4.33044 255 0 0
5.11352 -3.3481 -4.31132 255 0 0
4.67746 -4.34054 -4.29256 255 0 0
4.70556 -4.4716 -4.33215 255 0 0
4.51073 -4.36861 -4.31513 255 0 0
6.59365 -3.35471 -4.04833 255 0 0
6.95763 -3.11422 -4.17895 255 0 0
7.14623 -3.76478 -4.02102 255 0 0
7.41751 -2.74521 -4.62083 255 0 0
5.66637 -3.26549 -4.28844 255 0 0
6.51954 -3.22029 -5.31746 255 0 0
4.2015 -3.59488 -4.52273 255 0 0
5.9314 -3.25166 -4.24142 255 0 0
5.99929 -3.2704 -4.20129 255 0 0
4.36329 -3.54047 -4.45155 255 0 0
4.1096 -3.91456 -4.25478 255 0 0
4.26597 -4.64106 -4.38381 255 0 0
5.9605 -4.6518 -4.16125 255 0 0
5.82956 -3.30455 -4.28246 255 0 0
4.53449 -3.61739 -4.2488 255 0 0
4.02113 -3.60914 -4.5196 255 0 0
6.70293 -3.26159 -3.99739 255 0 0
4.72863 -3.56572 -4.18347 255 0 0
5.86082 -3.1859 -4.33421 255 0 0
4.51053 -4.86066 -4.44476 255 0 0
5.72017 -3.49832 -3.91664 255 0 0
5.87303 -3.69791 -4.17241 255 0 0
4.45297 -3.75551 -4.25833 255 0 0
4.16355 -3.60537 -4.29476 255 0 0
6.5181 -3.08608 -4.32338 255 0 0
6.01642 -4.31693 -4.52222 255 0 0
6.72777 -3.14638 -5.31418 255 0 0
4.87475 -3.64878 -4.18763 255 0 0
6.6047 -4.01781 -3.93432 255 0 0
6.96005 -2.88053 -4.35782 255 0 0
4.23088 -3.56821 -4.30602 255 0 0
7.25943 -2.95415 -4.31095 255 0 0
6.37038 -4.6863 -4.54782 255 0 0
6.16959 -3.15739 -5.23178 255 0 0
7.61072 -2.79622 -4.53798 255 0 0
6.03656 -3.34664 -3.97296 255 0 0
6.02494 -4.19451 -3.96708 255 0 0
4.68591 -3.70196 -4.2017 255 0 0
6.23595 -3.24753 -4.13679 255 0 0
6.88594 -2.95562 -4.34557 255 0 0
6.37912 -3.36067 -5.28951 255 0 0
7.2216 -3.02897 -4.23849 255 0 0
6.16012 -3.09746 -4.34854 255 0 0
4.9125 -4.06397 -4.29058 255 0 0
5.02739 -3.51183 -4.22238 255 0 0
6.04091 -3.20079 -4.26537 255 0 0
4.30573 -3.56201 -4.54946 255 0 0
5.83157 -3.72025 -4.35609 255 0 0
7.40235 -3.18766 -4.15954 255 0 0
7.06911 -2.83769 -4.52413 255 0 0
3.89494 -3.80818 -4.37662 255 0 0
5.99352 -3.23049 -4.25616 255 0 0
4.65702 -3.83406 -4.22398 255 0 0
3.94473 -3.64322 -4.44982 255 0 0
6.91698 -3.16519 -4.10614 255 0 0
4.96117 -3.50655 -4.18268 255 0 0
7.45977 -2.80112 -4.42169 255 0 0
7.2067 -3.80754 -3.96756 255 0 0
6.74765 -3.23403 -4.00497 255 0 0
4.27447 -4.01083 -4.27244 255 0 0
7.66817 -2.68392 -4.84282 255 0 0
4.80253 -3.53293 -4.66041 255 0 0
5.05682 -4.83974 -4.44927 255 0 0
8.22206 -3.17667 -4.4405 255 0 0
4.76244 -3.46875 -4.688 255 0 0
4.58809 -3.81395 -4.19968 255 0 0
6.25883 -3.27834 -4.01963 255 0 0
4.7157 -3.55596 -4.23345 255 0 0
6.30797 -3.09718 -4.3286 255 0 0
4.56041 -3.49003 -4.61995 255 0 0
6.51747 -4.15782 -3.93432 255 0 0
6.56618 -4.11264 -3.93859 255 0 0
6.63395 -4.08967 -3.94996 255 0 0
6.64846 -4.06605 -3.94996 255 0 0
6.78428 -4.0831 -3.98123 255 0 0
6.71596 -4.02032 -3.95849 255 0 0
6.6181 -3.94046 -3.92722 255 0 0
6.67804 -3.838 -3.92722 255 0 0
6.71461 -3.78524 -3.92864 255 0 0
6.73249 -3.75335 -3.92864 255 0 0
6.90441 -3.8064 -3.9727 255 0 0
6.74407 -3.69718 -3.92438 255 0 0
5.73667 -3.62155 -4.31078 255 0 0
6.22175 -3.0732 -4.36364 255 0 0
6.80636 -3.24234 -4.02012 255 0 0
4.30548 -4.22959 -4.28232 255 0 0
5.76603 -3.56406 -4.30889 255 0 0
6.30579 -3.63401 -3.88544 255 0 0
5.715 -3.5045 -4.34581 255 0 0
4.83862 -3.47183 -4.19563 255 0 0
6.01264 -4.12276 -3.95344 255 0 0
7.14868 -3.1187 -4.08983 255 0 0
5.27924 -4.99298 -4.47502 255 0 0
4.92334 -3.71255 -4.21535 255 0 0
4.42918 -3.76249 -4.25304 255 0 0
4.06161 -3.80507 -4.26479 255 0 0
7.59981 -2.73101 -4.60168 255 0 0
5.61326 -3.55295 -3.89893 255 0 0
4.50644 -4.22179 -4.27665 255 0 0
7.80728 -2.91053 -4.38171 255 0 0
7.41325 -2.82385 -4.41091 255 0 0
6.15053 -4.63793 -4.06407 255 0 0
6.20152 -4.60756 -4.07013 255 0 0
6.10029 -4.48761 -4.02921 255 0 0
6.09407 -4.43865 -4.02012 255 0 0
6.1 -4.42087 -4.0186 255 0 0
6.07494 -4.35892 -4.00345 255 0 0
6.01654 -4.15698 -3.9595 255 0 0
5.99436 -4.08937 -3.94435 255 0 0
5.94349 -3.99301 -3.91858 255 0 0
5.89155 -3.89758 -3.89282 255 0 0
5.9055 -3.88671 -3.89434 255 0 0
5.92165 -3.86723 -3.89509 255 0 0
5.86547 -3.76147 -3.86706 255 0 0
5.88729 -3.71664 -3.86554 255 0 0
5.91245 -3.70318 -3.86933 255 0 0
5.94152 -3.67253 -3.8716 255 0 0
5.98875 -3.68213 -3.88373 255 0 0
6.01891 -3.65169 -3.88638 255 0 0
6.02228 -3.60507 -3.8807 255 0 0
6.03868 -3.49918 -3.87009 255 0 0
6.06588 -3.45753 -3.87085 255 0 0
6.16663 -3.41873 -3.88928 255 0 0
6.37846 -3.36997 -3.93298 255 0 0
6.48698 -3.33926 -3.95495 255 0 0
5.7654 -4.04434 -3.9499 255 0 0
6.86379 -3.20008 -4.02921 255 0 0
6.9008 -3.18752 -4.03679 255 0 0
6.92376 -3.17822 -4.04134 255 0 0
6.99027 -3.16871 -4.05649 255 0 0
7.05283 -3.1468 -4.06937 255 0 0
7.07174 -3.12513 -4.07165 255 0 0
7.22871 -3.13323 -4.11105 255 0 0
4.4087 -3.95702 -4.24021 255 0 0
6.2743 -4.34606 -4.25051 255 0 0
4.25636 -5.05898 -4.56311 255 0 0
5.9132 -3.37051 -4.31833 255 0 0
5.54814 -3.23252 -4.99422 255 0 0
5.34578 -4.79808 -4.44671 255 0 0
7.16911 -2.83843 -4.48408 255 0 0
4.74004 -4.92921 -4.45688 255 0 0
7.47492 -2.75637 -4.56667 255 0 0
5.81738 -3.50118 -4.31267 255 0 0
5.98295 -4.7613 -4.11708 255 0 0
5.95441 -4.71557 -4.10302 255 0 0
5.84967 -4.38935 -4.0249 255 0 0
5.81485 -4.34171 -4.00927 255 0 0
5.80248 -4.31108 -4.00146 255 0 0
5.80705 -4.21908 -3.9874 255 0 0
5.7766 -4.15524 -3.97021 255 0 0
5.77505 -4.10241 -3.96136 255 0 0
5.7427 -3.99802 -3.9374 255 0 0
5.77097 -3.95708 -3.9374 255 0 0
5.75662 -3.85758 -3.91865 255 0 0
5.76231 -3.75342 -3.90407 255 0 0
5.76352 -3.6961 -3.89574 255 0 0
5.78851 -3.66389 -3.89678 255 0 0
5.80629 -3.64628 -3.89834 255 0 0
5.80273 -3.60579 -3.89157 255 0 0
5.82914 -3.51767 -3.88506 255 0 0
5.93538 -3.47701 -3.90459 255 0 0
5.99583 -3.44592 -3.91475 255 0 0
6.05703 -3.424 -3.92647 255 0 0
6.18888 -3.43109 -3.95928 255 0 0
6.17229 -3.40278 -3.95146 255 0 0
6.23477 -3.41798 -3.96865 255 0 0
6.35643 -3.40667 -3.99678 255 0 0
6.40244 -3.39235 -4.00615 255 0 0
6.51746 -3.35495 -4.02959 255 0 0
6.61582 -3.38576 -4.05771 255 0 0
6.61166 -3.34416 -4.05146 255 0 0
6.58706 -3.29259 -4.03896 255 0 0
6.65549 -3.30709 -4.05771 255 0 0
6.81644 -3.24715 -4.09052 255 0 0
6.78842 -3.21407 -4.07958 255 0 0
6.81003 -3.19469 -4.08271 255 0 0
6.90569 -3.18977 -4.10614 255 0 0
6.96276 -3.14631 -4.11552 255 0 0
7.02624 -3.11499 -4.12802 255 0 0
7.06312 -3.10132 -4.13583 255 0 0
7.16274 -3.08448 -4.15927 255 0 0
7.18041 -3.07193 -4.16239 255 0 0
7.21883 -3.06814 -4.17177 255 0 0
7.27131 -3.05996 -4.18427 255 0 0
8.1708 -3.29121 -4.43894 255 0 0
8.2465 -3.25372 -4.45456 255 0 0
8.25591 -3.16728 -4.44831 255 0 0
8.27394 -3.15171 -4.45144 255 0 0
8.1336 -3.07619 -4.40769 255 0 0
4.37395 -5.05111 -4.52671 255 0 0
6.8103 -2.96146 -4.39251 255 0 0
5.01717 -3.55513 -4.12291 255 0 0
6.94342 -2.87365 -4.49006 255 0 0
6.41433 -3.01836 -4.41461 255 0 0
5.83547 -4.7811 -4.15642 255 0 0
5.8566 -4.75219 -4.15588 255 0 0
5.86096 -4.68697 -4.14515 255 0 0
5.85444 -4.65904 -4.13872 255 0 0
5.90926 -4.58931 -4.13872 255 0 0
5.85063 -4.49945 -4.10975 255 0 0
5.70812 -4.31495 -4.04538 255 0 0
5.67235 -4.19356 -4.01641 255 0 0
5.60041 -4.04871 -3.97538 255 0 0
5.6104 -4.01554 -3.97216 255 0 0
5.61667 -3.94993 -3.96277 255 0 0
5.60916 -3.90505 -3.95365 255 0 0
5.59063 -3.8725 -3.94399 255 0 0
5.60521 -3.75612 -3.92871 255 0 0
5.60311 -3.70677 -3.92039 255 0 0
5.61736 -3.60238 -3.90752 255 0 0
5.76904 -3.47208 -3.92468 255 0 0
5.85172 -3.46538 -3.94399 255 0 0
5.96179 -3.5115 -3.97779 255 0 0
5.96555 -3.43793 -3.96813 255 0 0
6.05184 -3.46857 -3.99388 255 0 0
6.12852 -3.49324 -4.01641 255 0 0
6.09271 -3.45371 -4.00193 255 0 0
6.05009 -3.39175 -3.98262 255 0 0
6.12148 -3.35587 -3.99549 255 0 0
6.14919 -3.35212 -4.00193 255 0 0
6.25814 -3.31589 -4.02446 255 0 0
6.7979 -3.17918 -4.14515 255 0 0
6.77478 -3.14882 -4.1355 255 0 0
6.86638 -3.15185 -4.15964 255 0 0
6.90689 -3.13091 -4.16768 255 0 0
6.9143 -3.11453 -4.16768 255 0 0
7.03187 -3.12746 -4.19987 255 0 0
7.21323 -3.10623 -4.24493 255 0 0
7.18952 -3.07583 -4.23527 255 0 0
7.22788 -3.07199 -4.24493 255 0 0
7.15735 -3.02199 -4.22079 255 0 0
7.26024 -2.9947 -4.24493 255 0 0
7.37884 -2.97221 -4.27389 255 0 0
7.94553 -3.06983 -4.43482 255 0 0
7.92317 -3.01809 -4.42356 255 0 0
7.7618 -2.93557 -4.37206 255 0 0
7.97177 -2.85403 -4.42034 255 0 0
5.77339 -3.21864 -4.31293 255 0 0
6.39839 -3.23629 -5.27129 255 0 0
6.73668 -2.91996 -4.43297 255 0 0
7.67769 -2.67706 -4.76954 255 0 0
7.54718 -2.87487 -4.38133 255 0 0
7.07381 -2.85908 -4.45804 255 0 0
7.50888 -2.88069 -4.37139 255 0 0
4.27682 -4.45808 -4.33617 255 0 0
4.47872 -4.30684 -4.29082 255 0 0
5.77083 -4.76252 -4.20621 255 0 0
5.84832 -4.74545 -4.2207 255 0 0
5.82928 -4.66163 -4.20083 255 0 0
5.87995 -4.63397 -4.20745 255 0 0
5.57449 -4.27656 -4.07166 255 0 0
5.61081 -4.21012 -4.06834 255 0 0
5.57661 -4.14327 -4.04847 255 0 0
6.19484 -4.31279 -4.22567 255 0 0
6.46032 -4.45228 -4.31343 255 0 0
5.59681 -3.68354 -3.97561 255 0 0
5.51818 -3.60372 -3.94332 255 0 0
5.57485 -3.51014 -3.94249 255 0 0
5.60159 -3.49924 -3.94746 255 0 0
5.65634 -3.49626 -3.9607 255 0 0
6.04871 -3.42877 -4.05013 255 0 0
6.0796 -3.40829 -4.0551 255 0 0
6.11352 -3.37038 -4.05841 255 0 0
6.18672 -3.35358 -4.07497 255 0 0
6.21501 -3.26476 -4.07 255 0 0
6.40092 -3.33345 -4.12796 255 0 0
6.84865 -3.15359 -4.22318 255 0 0
6.71931 -3.06511 -4.17764 255 0 0
6.83253 -3.08743 -4.21076 255 0 0
6.91523 -3.09525 -4.23395 255 0 0
6.92255 -3.07884 -4.23395 255 0 0
7.09356 -3.09465 -4.28197 255 0 0
7.27838 -3.13428 -4.33662 255 0 0
7.13293 -3.03163 -4.28528 255 0 0
7.18866 -3.01515 -4.29853 255 0 0
7.23564 -3.00464 -4.31012 255 0 0
7.22551 -2.97035 -4.3035 255 0 0
7.32287 -2.93956 -4.32668 255 0 0
7.3646 -2.92596 -4.33662 255 0 0
7.40286 -2.92085 -4.34655 255 0 0
7.43068 -2.91149 -4.35318 255 0 0
7.46717 -2.89518 -4.36146 255 0 0
7.71061 -2.82253 -4.42107 255 0 0
7.76353 -2.80022 -4.43349 255 0 0
7.95871 -2.79622 -4.48731 255 0 0
4.3598 -3.53764 -4.61809 255 0 0
7.62109 -2.77954 -4.46539 255 0 0
4.52016 -3.49332 -4.32468 255 0 0
5.01504 -4.99723 -4.47731 255 0 0
7.76858 -2.75013 -4.50455 255 0 0
5.62322 -4.81134 -4.24916 255 0 0
5.64285 -4.73618 -4.23895 255 0 0
5.84043 -4.83163 -4.30365 255 0 0
5.79565 -4.77147 -4.28151 255 0 0
5.9007 -4.8112 -4.31386 255 0 0
5.86859 -4.7619 -4.29683 255 0 0
6.07452 -4.88141 -4.36835 255 0 0
5.58532 -4.31653 -4.1453 255 0 0
6.0927 -4.32804 -4.2713 255 0 0
6.12582 -4.32975 -4.27981 255 0 0
6.19424 -4.2906 -4.29002 255 0 0
6.19055 -4.26637 -4.28492 255 0 0
5.52868 -3.69533 -4.02101 255 0 0
5.37324 -3.5547 -3.95801 255 0 0
5.33588 -3.52997 -3.94439 255 0 0
5.42554 -3.51577 -3.96482 255 0 0
5.47223 -3.50011 -3.97419 255 0 0
6.06641 -3.74972 -4.16744 255 0 0
5.98255 -3.3167 -4.0789 255 0 0
7.24752 -3.64422 -4.46539 255 0 0
7.25614 -3.62703 -4.46539 255 0 0
7.16438 -3.55996 -4.43134 255 0 0
6.8963 -3.14584 -4.30365 255 0 0
6.88782 -3.08298 -4.29343 255 0 0
7.08055 -2.94024 -4.33004 255 0 0
7.13501 -2.93314 -4.34451 255 0 0
7.23696 -2.87524 -4.36664 255 0 0
7.28545 -2.87453 -4.38026 255 0 0
7.35946 -2.82336 -4.39559 255 0 0
7.57767 -2.78407 -4.45348 255 0 0
7.66255 -2.76381 -4.47561 255 0 0
7.8385 -2.75399 -4.52499 255 0 0
4.66494 -3.59639 -4.22744 255 0 0
3.93999 -3.6999 -4.30485 255 0 0
5.53526 -4.86254 -4.30622 255 0 0
5.56459 -4.84172 -4.30884 255 0 0
6.25076 -4.35172 -4.38405 255 0 0
5.36504 -3.56758 -4.01674 255 0 0
5.32172 -3.51155 -3.99575 255 0 0
5.8743 -3.7377 -4.17941 255 0 0
5.86246 -3.6622 -4.16366 255 0 0
5.90828 -3.65198 -4.17416 255 0 0
5.8598 -3.60284 -4.15317 255 0 0
5.98273 -3.65891 -4.19515 255 0 0
7.01089 -3.54609 -4.45927 255 0 0
7.01895 -3.04231 -4.39455 255 0 0
7.02194 -2.93542 -4.3823 255 0 0
6.81778 -2.90722 -4.45599 255 0 0
7.06074 -2.89281 -4.38843 255 0 0
7.12018 -2.88765 -4.40504 255 0 0
7.1581 -2.88329 -4.41554 255 0 0
7.28075 -2.89264 -4.45227 255 0 0
7.246 -2.85896 -4.43828 255 0 0
7.41887 -2.84616 -4.48725 255 0 0
7.60462 -2.75311 -4.53156 255 0 0
7.74869 -2.74309 -4.57296 255 0 0
6.37739 -3.0102 -4.46764 255 0 0
6.19384 -3.09603 -5.08989 255 0 0
6.33524 -3.14796 -5.1567 255 0 0
4.1806 -3.60286 -4.51787 255 0 0
5.43145 -4.89826 -4.3563 255 0 0
5.52014 -4.83766 -4.36468 255 0 0
6.32946 -4.6101 -4.52268 255 0 0
6.10829 -4.36096 -4.41794 255 0 0
6.15317 -4.3055 -4.41944 255 0 0
5.21932 -3.56064 -4.0355 255 0 0
5.26303 -3.53584 -4.04268 255 0 0
5.32724 -3.53334 -4.05944 255 0 0
5.90687 -3.80782 -4.26413 255 0 0
5.88305 -3.77275 -4.25156 255 0 0
5.87996 -3.74133 -4.24528 255 0 0
5.84847 -3.69213 -4.22822 255 0 0
5.9717 -3.65216 -4.25515 255 0 0
5.98371 -3.61095 -4.25156 255 0 0
5.98106 -3.56115 -4.24258 255 0 0
6.01937 -3.50709 -4.24438 255 0 0
6.05238 -3.44984 -4.24438 255 0 0
6.06219 -3.42691 -4.24348 255 0 0
6.03788 -3.3849 -4.23002 255 0 0
5.96122 -3.3049 -4.1959 255 0 0
5.94175 -3.29408 -4.18872 255 0 0
6.16354 -3.24707 -4.24438 255 0 0
7.01525 -3.59018 -4.53884 255 0 0
6.66137 -3.25114 -4.38802 255 0 0
6.6786 -3.01789 -4.36109 255 0 0
6.75339 -2.99402 -4.37994 255 0 0
6.78186 -2.97783 -4.38622 255 0 0
6.89363 -2.92992 -4.41316 255 0 0
6.92969 -2.91619 -4.42213 255 0 0
7.04296 -2.8758 -4.45086 255 0 0
7.2077 -2.82412 -4.49395 255 0 0
7.39323 -2.77616 -4.54423 255 0 0
7.43113 -2.7703 -4.555 255 0 0
7.67572 -2.71726 -4.62323 255 0 0
7.8792 -2.72638 -4.68607 255 0 0
5.04083 -4.21056 -4.23715 255 0 0
4.50808 -4.16354 -4.26247 255 0 0
4.22872 -3.77741 -4.25262 255 0 0
6.23216 -3.0508 -4.428 255 0 0
5.38515 -4.94994 -4.42376 255 0 0
5.39058 -4.86142 -4.40534 255 0 0
5.45917 -4.87653 -4.4256 255 0 0
5.5081 -4.89681 -4.44217 255 0 0
5.46298 -4.822 -4.41455 255 0 0
5.15102 -3.94201 -4.14933 255 0 0
6.13768 -4.31635 -4.48638 255 0 0
5.18245 -3.62625 -4.09592 255 0 0
5.11348 -3.55996 -4.06461 255 0 0
5.20967 -3.51796 -4.08303 255 0 0
5.38187 -3.5604 -4.13828 255 0 0
6.37576 -4.15302 -4.52137 255 0 0
6.20852 -4.00228 -4.4477 255 0 0
5.99342 -3.84353 -4.3593 255 0 0
5.78592 -3.60487 -4.25892 255 0 0
5.91713 -3.60915 -4.29668 255 0 0
5.91696 -3.56113 -4.28839 255 0 0
5.93721 -3.47809 -4.2801 255 0 0
5.97425 -3.48079 -4.29115 255 0 0
6.15049 -3.48646 -4.34272 255 0 0
6.10877 -3.42464 -4.32062 255 0 0
5.98157 -3.20577 -4.24879 255 0 0
6.05292 -3.22556 -4.27273 255 0 0
6.16477 -3.19191 -4.30036 255 0 0
6.19209 -3.18746 -4.30773 255 0 0
6.21707 -3.14457 -4.30865 255 0 0
6.37323 -3.07318 -4.34456 255 0 0
6.39916 -3.05768 -4.35009 255 0 0
6.4301 -3.04442 -4.35745 255 0 0
6.48114 -3.0404 -4.37219 255 0 0
6.51565 -3.01899 -4.37955 255 0 0
6.60831 -2.9767 -4.40166 255 0 0
6.68681 -2.9645 -4.42376 255 0 0
6.72116 -2.94166 -4.43112 255 0 0
6.77421 -2.91717 -4.44402 255 0 0
6.87672 -2.90351 -4.47348 255 0 0
6.96049 -2.8614 -4.49374 255 0 0
7.12124 -2.81949 -4.53795 255 0 0
7.16745 -2.80835 -4.55084 255 0 0
7.52046 -2.72265 -4.65029 255 0 0
7.56351 -2.71797 -4.66319 255 0 0
7.61182 -2.71497 -4.67792 255 0 0
7.66598 -2.70357 -4.69358 255 0 0
5.03798 -4.87925 -4.45411 255 0 0
4.21117 -3.58589 -4.30452 255 0 0
5.22343 -4.98734 -4.45992 255 0 0
4.55717 -4.04175 -4.24576 255 0 0
5.27675 -4.95521 -4.46559 255 0 0
5.31475 -4.81593 -4.44293 255 0 0
5.3406 -4.77062 -4.43915 255 0 0
5.01866 -4.35627 -4.26358 255 0 0
5.01921 -4.25347 -4.24093 255 0 0
6.22658 -4.64913 -4.64682 255 0 0
6.02571 -4.4548 -4.55243 255 0 0
5.0521 -3.55292 -4.10374 255 0 0
5.08901 -3.51612 -4.10689 255 0 0
5.21966 -3.56086 -4.1522 255 0 0
5.2962 -3.57639 -4.17674 255 0 0
5.23521 -3.50816 -4.14653 255 0 0
5.17961 -3.39139 -4.10877 255 0 0
5.63751 -3.65313 -4.28812 255 0 0
5.85442 -3.71533 -4.36175 255 0 0
5.7589 -3.60701 -4.31455 255 0 0
5.81492 -3.53736 -4.31833 255 0 0
5.7901 -3.50348 -4.30511 255 0 0
5.87359 -3.49718 -4.3284 255 0 0
6.01721 -3.4677 -4.36553 255 0 0
5.9629 -3.41759 -4.34098 255 0 0
5.81758 -3.25237 -4.27019 255 0 0
5.86934 -3.24483 -4.28435 255 0 0
5.92392 -3.22022 -4.29662 255 0 0
5.97998 -3.16851 -4.30511 255 0 0
6.02801 -3.16655 -4.31927 255 0 0
6.06263 -3.14814 -4.32683 255 0 0
6.12066 -3.11404 -4.3391 255 0 0
6.2083 -3.09406 -4.3627 255 0 0
6.36992 -3.03444 -4.40328 255 0 0
6.39213 -3.02644 -4.40895 255 0 0
6.46228 -2.99425 -4.42594 255 0 0
6.57977 -2.96384 -4.45803 255 0 0
6.60196 -2.95503 -4.4637 255 0 0
6.65646 -2.94161 -4.4788 255 0 0
6.7119 -2.91867 -4.49296 255 0 0
7.52356 -2.71367 -4.72423 255 0 0
7.76782 -2.68785 -4.79974 255 0 0
4.32661 -3.56202 -4.28054 255 0 0
4.65908 -3.44445 -4.35778 255 0 0
4.75628 -4.05009 -4.24438 255 0 0
4.9524 -4.95827 -4.45217 255 0 0
5.02455 -4.90098 -4.45604 255 0 0
5.0177 -4.8366 -4.43864 255 0 0
5.01992 -4.77033 -4.42316 255 0 0
5.02232 -4.63844 -4.39222 255 0 0
5.02247 -4.60563 -4.38449 255 0 0
5.04701 -4.59516 -4.38835 255 0 0
5.05512 -4.56976 -4.38449 255 0 0
4.93274 -3.8122 -4.18143 255 0 0
5.0394 -3.68879 -4.1853 255 0 0
4.96753 -3.60913 -4.14855 255 0 0
5.05357 -3.53606 -4.15822 255 0 0
5.07028 -3.51206 -4.15822 255 0 0
5.10589 -3.51885 -4.16982 255 0 0
5.62017 -3.85365 -4.38449 255 0 0
5.29145 -3.60984 -4.24138 255 0 0
5.09679 -3.42417 -4.14855 255 0 0
5.08192 -3.39672 -4.13888 255 0 0
5.58968 -3.45505 -4.2994 255 0 0
5.65461 -3.41235 -4.311 255 0 0
5.61377 -3.35152 -4.28779 255 0 0
5.59238 -3.3118 -4.27425 255 0 0
5.62391 -3.29455 -4.2807 255 0 0
5.73399 -3.23243 -4.30326 255 0 0
5.81658 -3.19769 -4.3226 255 0 0
5.93843 -3.14649 -4.35161 255 0 0
6.07483 -3.0998 -4.38642 255 0 0
6.17025 -3.06595 -4.41092 255 0 0
6.26037 -3.03707 -4.43477 255 0 0
6.42164 -2.99394 -4.47925 255 0 0
7.60648 -2.69275 -4.82348 255 0 0
7.77804 -2.67075 -4.87763 255 0 0
6.87906 -3.0595 -5.35951 255 0 0
6.41938 -3.21829 -5.27615 255 0 0
4.49522 -4.41599 -4.32323 255 0 0
4.72334 -5.006 -4.47272 255 0 0
4.72422 -4.95961 -4.46084 255 0 0
4.77261 -4.95134 -4.47074 255 0 0
4.76344 -4.88353 -4.45094 255 0 0
4.76722 -4.84126 -4.44104 255 0 0
4.75543 -4.80644 -4.42916 255 0 0
4.68733 -4.64859 -4.37175 255 0 0
4.69442 -4.63359 -4.36977 255 0 0
4.67394 -4.59156 -4.35393 255 0 0
4.68492 -4.50515 -4.33512 255 0 0
4.69096 -4.47894 -4.33017 255 0 0
4.67855 -4.4039 -4.3084 255 0 0
4.67903 -4.30091 -4.28332 255 0 0
4.70952 -4.2675 -4.28332 255 0 0
4.71754 -4.05583 -4.23514 255 0 0
4.93412 -4.14133 -4.31433 255 0 0
4.84776 -4.02982 -4.26484 255 0 0
4.88384 -4.02079 -4.27276 255 0 0
4.90285 -3.99759 -4.27276 255 0 0
4.836 -3.90506 -4.23316 255 0 0
4.90611 -3.92338 -4.25692 255 0 0
4.8809 -3.88428 -4.24108 255 0 0
4.86974 -3.80053 -4.21931 255 0 0
4.84226 -3.54449 -4.15595 255 0 0
4.87935 -3.54506 -4.16684 255 0 0
5.07764 -3.50825 -4.21733 255 0 0
5.01282 -3.4372 -4.18367 255 0 0
5.31755 -3.29555 -4.27696 255 0 0
5.38423 -3.31044 -4.27078 255 0 0
5.4234 -3.29917 -4.28068 255 0 0
5.47662 -3.2696 -4.29157 255 0 0
5.52202 -3.25247 -4.30246 255 0 0
5.56277 -3.24102 -4.31301 255 0 0
5.62136 -3.21297 -4.32621 255 0 0
5.70346 -3.17967 -4.34601 255 0 0
5.76781 -3.16196 -4.36317 255 0 0
4.5819 -3.47215 -4.33939 255 0 0
7.33518 -2.89415 -4.83303 255 0 0
3.82522 -3.69592 -4.37349 255 0 0
6.13377 -3.15744 -5.21694 255 0 0
4.46976 -4.90927 -4.4478 255 0 0
4.54338 -5.00204 -4.49135 255 0 0
4.54782 -4.98313 -4.4873 255 0 0
4.46565 -4.69931 -4.39007 255 0 0
4.44816 -4.64768 -4.37184 255 0 0
4.46707 -4.60146 -4.36442 255 0 0
4.43757 -4.52792 -4.33741 255 0 0
4.5015 -4.54979 -4.35969 255 0 0
4.42706 -4.45338 -4.31513 255 0 0
4.47286 -4.4464 -4.32526 255 0 0
4.47943 -4.36928 -4.30703 255 0 0
4.50505 -4.29125 -4.29386 255 0 0
4.50233 -4.25821 -4.28475 255 0 0
4.49242 -4.22869 -4.27462 255 0 0
4.50753 -4.12357 -4.25234 255 0 0
4.54979 -4.14246 -4.26854 255 0 0
4.59862 -4.03007 -4.25436 255 0 0
4.56676 -3.98304 -4.23411 255 0 0
4.61509 -3.9551 -4.24086 255 0 0
4.66447 -3.80325 -4.21892 255 0 0
4.6547 -3.75865 -4.20575 255 0 0
4.63815 -3.70909 -4.18955 255 0 0
4.67746 -3.65046 -4.18752 255 0 0
4.69692 -3.63885 -4.19056 255 0 0
4.71722 -3.60117 -4.18803 255 0 0
4.81949 -3.50594 -4.22544 255 0 0
4.81824 -3.50939 -4.19765 255 0 0
4.92525 -3.4637 -4.21993 255 0 0
4.95965 -3.45287 -4.22803 255 0 0
5.04664 -3.44283 -4.25234 255 0 0
5.13606 -3.32819 -4.25639 255 0 0
5.1571 -3.31585 -4.26044 255 0 0
5.26514 -3.28906 -4.2888 255 0 0
5.30405 -3.2785 -4.29893 255 0 0
5.37147 -3.25599 -4.3158 255 0 0
5.52302 -3.21786 -4.35665 255 0 0
4.46405 -5.20483 -4.59299 255 0 0
4.41202 -5.11955 -4.55571 255 0 0
4.35356 -5.00354 -4.50807 255 0 0
4.32576 -4.94785 -4.48529 255 0 0
4.33247 -4.9201 -4.47908 255 0 0
4.323 -4.86266 -4.46044 255 0 0
4.28912 -4.79014 -4.43144 255 0 0
4.30047 -4.77995 -4.43144 255 0 0
4.26772 -4.72099 -4.40659 255 0 0
4.26236 -4.68148 -4.39416 255 0 0
4.26745 -4.59869 -4.37242 255 0 0
4.28332 -4.36017 -4.31132 255 0 0
4.29856 -4.2833 -4.29475 255 0 0
4.39509 -4.03989 -4.25747 255 0 0
4.38516 -4.00208 -4.24504 255 0 0
4.39937 -3.98646 -4.24504 255 0 0
4.42427 -3.90519 -4.23158 255 0 0
4.47324 -3.71252 -4.23514 255 0 0
4.47737 -3.704 -4.19741 255 0 0
4.50956 -3.70369 -4.20673 255 0 0
4.52313 -3.66427 -4.21973 255 0 0
4.61766 -3.61259 -4.21709 255 0 0
4.81694 -3.48227 -4.27596 255 0 0
4.86489 -3.46452 -4.25851 255 0 0
4.90959 -3.444 -4.26783 255 0 0
4.97166 -3.40895 -4.27956 255 0 0
5.01847 -3.38883 -4.28992 255 0 0
5.06525 -3.36822 -4.30027 255 0 0
5.17107 -3.32481 -4.32478 255 0 0
5.26118 -3.29526 -4.34756 255 0 0
5.32334 -3.27301 -4.3631 255 0 0
6.21109 -3.10469 -5.23797 255 0 0
6.2953 -3.20292 -5.29365 255 0 0
4.7125 -3.48395 -4.55691 255 0 0
4.27239 -5.10254 -4.58004 255 0 0
4.25072 -5.02803 -4.55252 255 0 0
4.19566 -4.84522 -4.4848 255 0 0
4.18057 -4.79323 -4.46575 255 0 0
4.17597 -4.75373 -4.45305 255 0 0
4.16754 -4.71021 -4.43823 255 0 0
4.16621 -4.65291 -4.4213 255 0 0
4.15165 -4.59259 -4.40013 255 0 0
4.1662 -4.58678 -4.40225 255 0 0
4.16514 -4.45659 -4.36486 255 0 0
4.15842 -4.3553 -4.33452 255 0 0
4.18936 -4.26454 -4.31759 255 0 0
4.20067 -4.24573 -4.31547 255 0 0
4.20274 -4.20773 -4.3056 255 0 0
4.21831 -4.16367 -4.29784 255 0 0
4.26674 -4.04819 -4.2802 255 0 0
4.29795 -3.98837 -4.27314 255 0 0
4.27999 -3.94346 -4.25621 255 0 0
4.27063 -3.86058 -4.23187 255 0 0
4.37086 -3.80308 -4.24616 255 0 0
4.41336 -3.78523 -4.25409 255 0 0
4.50172 -3.68833 -4.25621 255 0 0
4.51208 -3.6612 -4.25268 255 0 0
4.5723 -3.60339 -4.25692 255 0 0
4.63282 -3.57164 -4.26785 255 0 0
4.67331 -3.55014 -4.27526 255 0 0
4.77011 -3.50034 -4.29378 255 0 0
4.8311 -3.48381 -4.30912 255 0 0
4.83935 -3.47235 -4.30912 255 0 0
4.9007 -3.43776 -4.32076 255 0 0
4.93264 -3.42538 -4.32817 255 0 0
4.97687 -3.41254 -4.33946 255 0 0
5.00504 -3.39709 -4.3451 255 0 0
5.03067 -3.38841 -4.35145 255 0 0
5.06886 -3.37061 -4.35992 255 0 0
5.17772 -3.3204 -4.38461 255 0 0
4.02181 -4.2122 -4.31369 255 0 0
4.03444 -4.17558 -4.30666 255 0 0
4.07844 -4.20114 -4.32612 255 0 0
4.05419 -4.1564 -4.30666 255 0 0
4.05685 -4.10038 -4.29153 255 0 0
4.07337 -4.0493 -4.2818 255 0 0
4.07597 -4.00412 -4.26991 255 0 0
4.14435 -3.84583 -4.24613 255 0 0
4.17723 -3.83962 -4.25406 255 0 0
4.20175 -3.80739 -4.25262 255 0 0
4.22953 -3.76014 -4.24829 255 0 0
4.25474 -3.76452 -4.25694 255 0 0
4.24732 -3.74004 -4.24829 255 0 0
4.23805 -3.70521 -4.2364 255 0 0
4.26201 -3.68181 -4.23748 255 0 0
4.26887 -3.66131 -4.23424 255 0 0
4.31395 -3.62078 -4.23748 255 0 0
4.41574 -3.55704 -4.27082 255 0 0
4.51837 -3.50909 -4.27279 255 0 0
4.61459 -3.49692 -4.30018 255 0 0
4.62721 -3.48924 -4.30234 255 0 0
4.66803 -3.4596 -4.30828 255 0 0
4.76316 -3.41767 -4.329 255 0 0
3.92788 -4.15308 -4.32615 255 0 0
3.93293 -4.09961 -4.3118 255 0 0
3.95253 -4.06181 -4.30629 255 0 0
3.93659 -4.01674 -4.28863 255 0 0
4.00353 -3.9423 -4.28642 255 0 0
4.0439 -3.91649 -4.29084 255 0 0
4.04941 -3.84807 -4.27318 255 0 0
4.07632 -3.75581 -4.25552 255 0 0
4.09851 -3.73158 -4.25552 255 0 0
4.11884 -3.71452 -4.257 255 0 0
4.12563 -3.68532 -4.25111 255 0 0
4.17134 -3.66436 -4.25939 255 0 0
4.23629 -3.62466 -4.26877 255 0 0
4.26599 -3.60645 -4.27318 255 0 0
4.3082 -3.58993 -4.28201 255 0 0
4.42626 -3.53965 -4.30629 255 0 0
4.47954 -3.51312 -4.31658 255 0 0
4.56306 -3.48348 -4.33608 255 0 0
4.60506 -3.46398 -4.34491 255 0 0
4.70643 -3.4365 -4.37139 255 0 0
4.02121 -3.60346 -4.37357 255 0 0
4.27146 -3.60243 -4.49339 255 0 0
3.90208 -4.0386 -4.3398 255 0 0
3.90317 -3.95443 -4.31502 255 0 0
3.87912 -3.90218 -4.29251 255 0 0
3.9497 -3.86172 -4.30151 255 0 0
3.96361 -3.75762 -4.27562 255 0 0
4.01048 -3.73933 -4.28462 255 0 0
4.01644 -3.70506 -4.27674 255 0 0
4.06292 -3.69035 -4.28688 255 0 0
4.06229 -3.65478 -4.27674 255 0 0
4.11617 -3.65939 -4.29476 255 0 0
4.11345 -3.6135 -4.28125 255 0 0
4.2671 -3.56428 -4.31653 255 0 0
4.36699 -3.51777 -4.33642 255 0 0
4.46758 -3.48661 -4.36119 255 0 0
4.52422 -3.47082 -4.37583 255 0 0
3.86697 -3.86237 -4.33069 255 0 0
3.88721 -3.72035 -4.29452 255 0 0
3.91068 -3.70742 -4.29796 255 0 0
4.00783 -3.649 -4.31136 255 0 0
4.07275 -3.60355 -4.31901 255 0 0
4.09523 -3.58891 -4.32208 255 0 0
3.90432 -3.69262 -4.50591 255 0 0
3.91112 -3.97186 -4.43203 255 0 0
3.96048 -3.97459 -4.44803 255 0 0
3.92801 -3.85877 -4.40238 255 0 0
3.97667 -3.75211 -4.3854 255 0 0
4.30485 -3.54412 -4.43281 255 0 0
4.35915 -3.52 -4.44452 255 0 0
4.42458 -3.50403 -4.46247 255 0 0
4.47901 -3.49559 -4.47886 255 0 0
4.77564 -3.59229 -4.60726 255 0 0
4.74323 -3.54157 -4.58267 255 0 0
4.72448 -3.47551 -4.67584 255 0 0
3.90798 -3.64954 -4.38602 255 0 0
3.93242 -3.62322 -4.38602 255 0 0
4.41677 -3.49784 -4.51407 255 0 0
4.84574 -3.58245 -4.68904 255 0 0
6.70522 -3.19416 -5.31418 255 0 0
6.77698 -3.19881 -5.34401 255 0 0
6.77659 -3.13014 -5.33088 255 0 0
6.73054 -3.08953 -5.30464 255 0 0
6.88155 -3.08017 -5.36429 255 0 0
6.183 -3.37055 -5.28375 255 0 0
3.82797 -3.71617 -4.43402 255 0 0
3.86103 -3.69527 -4.43827 255 0 0
3.96445 -3.6138 -4.44739 255 0 0
4.38819 -3.61274 -4.59321 255 0 0
4.36 -3.5378 -4.56162 255 0 0
4.48885 -3.60718 -4.62724 255 0 0
4.71848 -3.75503 -4.75119 255 0 0
4.77749 -3.78352 -4.78035 255 0 0
4.77389 -3.76229 -4.77306 255 0 0
4.53971 -3.54296 -4.62724 255 0 0
4.53523 -3.48784 -4.61022 255 0 0
4.74427 -3.4212 -4.66855 255 0 0
6.15238 -3.31611 -5.18865 255 0 0
6.35911 -3.3984 -5.28951 255 0 0
6.43335 -3.38921 -5.31746 255 0 0
6.44935 -3.35867 -5.31746 255 0 0
6.38468 -3.2866 -5.27615 255 0 0
6.47934 -3.18134 -5.29316 255 0 0
6.49736 -3.09515 -5.28344 255 0 0
6.47941 -3.05839 -5.26886 255 0 0
6.52643 -3.03339 -5.28344 255 0 0
6.58915 -3.02463 -5.30774 255 0 0
4.57755 -3.45746 -4.67501 255 0 0
3.86281 -3.75001 -4.51045 255 0 0
3.87796 -3.72029 -4.50591 255 0 0
3.92938 -3.67243 -4.50797 255 0 0
3.99459 -3.63696 -4.51911 255 0 0
4.28423 -3.59586 -4.60819 255 0 0
4.34613 -3.61282 -4.63541 255 0 0
4.32222 -3.55845 -4.61067 255 0 0
4.32261 -3.52449 -4.60077 255 0 0
4.47632 -3.54501 -4.66263 255 0 0
4.47005 -3.49714 -4.64655 255 0 0
4.52621 -3.47236 -4.66016 255 0 0
6.08205 -3.48588 -5.2689 255 0 0
6.11365 -3.40837 -5.26395 255 0 0
6.04612 -3.33322 -5.21941 255 0 0
6.10519 -3.34694 -5.24663 255 0 0
6.25221 -3.05145 -5.24416 255 0 0
6.29285 -3.05283 -5.26148 255 0 0
