ply
format ascii 1.0
comment Created by Open3D
element vertex 84
property double x
property double y
property double z
property uchar red
property uchar green
property uchar blue
end_header
4.77351 51.4753 -1.78517 255 0 0
5.15292 51.5741 -1.78461 255 0 0
5.02722 51.5512 -1.78476 255 0 0
4.39097 51.3177 -2.64213 255 0 0
5.65966 51.6859 -2.21607 255 0 0
4.39186 51.3282 -3.07053 255 0 0
3.83115 52.0296 -1.7832 255 0 0
4.6046 53.8145 -1.32663 255 0 0
5.39753 51.55 -3.0771 255 0 0
4.7454 51.1722 -2.21356 255 0 0
4.3783 51.1696 -2.21342 255 0 0
5.27757 51.585 -1.78452 255 0 0
4.88911 51.3962 -2.64366 255 0 0
4.25715 51.1821 -2.64031 255 0 0
4.13294 51.1569 -3.49336 255 0 0
5.64638 51.5646 -3.07795 255 0 0
4.47069 53.7494 -1.32758 255 0 0
5.301 53.0561 -1.33524 255 0 0
4.1372 51.2096 -2.64052 255 0 0
4.33993 53.719 -1.32809 255 0 0
4.53449 51.5557 -1.78493 255 0 0
4.24792 51.0711 -3.49115 255 0 0
5.25433 51.3578 -2.21454 255 0 0
5.27648 51.5743 -3.07735 255 0 0
5.52712 51.606 -2.21568 255 0 0
4.21518 53.7626 -0.879346 255 0 0
4.14267 51.2773 -2.21378 255 0 0
5.00982 51.3728 -2.64352 255 0 0
4.25793 51.1915 -2.21346 255 0 0
5.05308 53.1199 -0.891146 255 0 0
5.52113 51.55 -2.64636 255 0 0
4.61046 53.8829 -0.876183 255 0 0
4.48026 53.8645 -0.876791 255 0 0
4.33981 53.7174 -0.880076 255 0 0
3.73415 52.4087 -1.34495 255 0 0
5.52722 51.6069 -3.07856 255 0 0
4.03435 51.4563 -2.21449 255 0 0
4.28657 51.5358 -1.7851 255 0 0
5.67305 51.8081 -1.78342 255 0 0
5.54707 51.7923 -1.78354 255 0 0
5.40292 51.6015 -1.78439 255 0 0
4.90996 51.6154 -1.78454 255 0 0
4.6525 51.4982 -1.78512 255 0 0
4.40625 51.4963 -1.78522 255 0 0
4.17285 51.6509 -1.78466 255 0 0
4.05998 51.7832 -1.78415 255 0 0
3.94518 51.8978 -1.78371 255 0 0
3.7161 52.1554 -1.78272 255 0 0
5.28674 51.6746 -2.64761 255 0 0
4.49756 51.1358 -2.21332 255 0 0
4.50227 51.1893 -3.06786 255 0 0
5.80368 51.8643 -2.21687 255 0 0
5.40109 51.584 -2.21553 255 0 0
5.13022 51.3469 -2.21444 255 0 0
5.00164 51.2889 -2.21415 255 0 0
4.87226 51.219 -2.21381 255 0 0
4.623 51.1716 -2.21351 255 0 0
3.92521 51.635 -2.21519 255 0 0
3.71319 52.1145 -2.21711 255 0 0
4.36501 51.0143 -3.48979 255 0 0
5.67457 51.822 -2.64994 255 0 0
5.41169 51.6853 -2.6479 255 0 0
5.14325 51.4773 -2.64498 255 0 0
4.76129 51.3435 -2.64286 255 0 0
4.62321 51.1739 -2.6406 255 0 0
4.50084 51.173 -2.64045 255 0 0
4.61003 51.028 -3.49081 255 0 0
5.78816 51.7256 -3.0816 255 0 0
5.13789 51.4236 -3.07394 255 0 0
5.0097 51.3715 -3.0726 255 0 0
4.88455 51.3483 -3.07187 255 0 0
4.76063 51.3364 -3.07139 255 0 0
4.6173 51.1085 -3.0664 255 0 0
4.25268 51.1284 -3.06615 255 0 0
4.13946 51.2375 -3.06822 255 0 0
3.92795 51.671 -3.07686 255 0 0
3.82821 51.9896 -3.08331 255 0 0
5.11587 51.2033 -3.49728 255 0 0
4.98821 51.1512 -3.49541 255 0 0
4.86193 51.1104 -3.49387 255 0 0
4.73695 51.081 -3.49268 255 0 0
4.48646 51.0096 -3.48996 255 0 0
3.61903 52.5503 -0.90538 255 0 0
3.60369 52.3276 -1.78203 255 0 0
