ply
format ascii 1.0
comment Created by Open3D
element vertex 414
property double x
property double y
property double z
property uchar red
property uchar green
property uchar blue
end_header
-33.942 32.8726 -5.7385 255 0 0
-34.0297 31.5785 -4.89753 255 0 0
-35.4156 27.9109 -4.81437 255 0 0
-34.0247 31.5739 -4.51002 255 0 0
-33.9058 32.9937 -5.74312 255 0 0
-34.7367 32.0816 -4.16295 255 0 0
-35.636 29.9101 -4.12817 255 0 0
-34.1839 26.0323 -6.47998 255 0 0
-34.0427 33.6016 -4.98543 255 0 0
-35 25.7474 -5.80141 255 0 0
-34.1661 28.2647 -6.62328 255 0 0
-35.1973 28.0105 -6.69007 255 0 0
-35.0353 28.0175 -6.67732 255 0 0
-35.4648 27.9497 -5.19523 255 0 0
-35.6191 27.9346 -5.58148 255 0 0
-35.2084 28.0193 -4.43319 255 0 0
-35.4681 33.2277 -4.22315 255 0 0
-34.0811 30.4438 -4.47113 255 0 0
-34.1978 29.9698 -4.08001 255 0 0
-33.9117 33.4724 -6.56807 255 0 0
-33.9394 31.7956 -6.45855 255 0 0
-34.0203 31.8714 -4.90957 255 0 0
-33.9284 33.3303 -5.36551 255 0 0
-34.0222 31.4217 -4.50433 255 0 0
-34.4196 27.9288 -5.13654 255 0 0
-34.1382 28.653 -6.64696 255 0 0
-34.0495 32.8206 -5.3465 255 0 0
-35.7427 28.0315 -4.45627 255 0 0
-34.6324 31.2328 -4.13325 255 0 0
-33.882 34.4082 -6.62954 255 0 0
-33.9862 32.9154 -4.95297 255 0 0
-35.2915 25.4495 -6.17133 255 0 0
-34.0926 30.8928 -5.25557 255 0 0
-33.9855 30.5035 -6.37809 255 0 0
-34.5454 33.2986 -4.19479 255 0 0
-34.2476 28.7449 -5.53761 255 0 0
-36.2958 29.8818 -4.54227 255 0 0
-34.6777 32.1798 -4.16402 255 0 0
-34.4568 27.959 -6.25403 255 0 0
-33.943 34.3071 -6.62675 255 0 0
-34.1224 29.7609 -4.44837 255 0 0
-34.1369 28.7902 -6.65607 255 0 0
-35.6523 29.78 -4.89935 255 0 0
-34.0628 33.1464 -4.57009 255 0 0
-35.3893 28.0265 -4.44109 255 0 0
-35.9594 27.9271 -4.84172 255 0 0
-35.9888 29.9165 -4.14074 255 0 0
-35.2574 27.922 -5.55839 255 0 0
-36.323 27.9344 -4.85996 255 0 0
-33.9574 32.2691 -6.49096 255 0 0
-33.951 31.6557 -6.06117 255 0 0
-35.0862 27.922 -4.79868 255 0 0
-34.0697 31.9176 -5.30351 255 0 0
-34.9329 29.8893 -4.10302 255 0 0
-34.6104 28.0836 -4.0388 255 0 0
-36.0407 29.8155 -4.91942 255 0 0
-33.9527 31.0605 -6.41161 255 0 0
-36.2214 27.9932 -6.3887 255 0 0
-34.0188 32.4812 -5.72142 255 0 0
-34.0589 31.0097 -4.49073 255 0 0
-34.0215 32.3299 -4.92926 255 0 0
-34.1308 28.9238 -6.66457 255 0 0
-33.9793 33.0652 -4.95917 255 0 0
-34.0597 33.4594 -4.97996 255 0 0
-34.2023 29.124 -5.55424 255 0 0
-36.3038 29.7442 -4.92926 255 0 0
-34.5279 28.0167 -4.40442 255 0 0
-35.7882 25.2953 -6.20151 255 0 0
-34.596 29.8864 -4.09124 255 0 0
-36.141 28.0682 -6.0035 255 0 0
-34.6665 27.993 -6.64575 255 0 0
-35.1319 29.7722 -4.87419 255 0 0
-33.9441 32.4099 -6.49934 255 0 0
-33.9238 33.1681 -5.35724 255 0 0
-35.459 28.0817 -4.06904 255 0 0
-34.1541 28.2548 -6.24956 255 0 0
-34.2113 28.5764 -5.8999 255 0 0
-34.0314 31.8818 -5.68955 255 0 0
-34.752 27.9262 -5.15473 255 0 0
-34.0664 32.2193 -5.31798 255 0 0
-34.9951 25.6161 -5.79427 255 0 0
-34.1286 33.0534 -4.56914 255 0 0
-34.1009 30.3164 -5.61012 255 0 0
-34.4296 27.9369 -4.76732 255 0 0
-34.4643 26.3752 -6.52491 255 0 0
-34.5758 31.0334 -4.12522 255 0 0
-35.7184 28.0125 -5.97135 255 0 0
-36.1348 29.8933 -4.53594 255 0 0
-34.1837 28.6912 -5.9045 255 0 0
-33.8788 33.9189 -6.59601 255 0 0
-34.1582 25.7577 -6.46055 255 0 0
-34.032 31.2816 -4.49958 255 0 0
-34.7777 29.8996 -4.09793 255 0 0
-34.1572 28.394 -6.63117 255 0 0
-36.4273 29.9901 -3.76551 255 0 0
-34.1061 30.321 -4.84829 255 0 0
-33.9969 30.3685 -6.37026 255 0 0
-34.9969 25.745 -6.16519 255 0 0
-34.0371 31.1377 -4.49453 255 0 0
-34.7211 27.9014 -4.78008 255 0 0
-34.8256 33.2515 -4.20255 255 0 0
-35.3632 29.8244 -4.88732 255 0 0
-33.9275 31.4836 -6.43732 255 0 0
-34.0909 30.5982 -5.24152 255 0 0
-33.9495 32.2615 -6.0974 255 0 0
-36.275 33.5024 -4.25874 255 0 0
-34.0444 33.9235 -4.99966 255 0 0
-35.2485 27.915 -4.80634 255 0 0
-33.867 33.4282 -6.16323 255 0 0
-33.8534 33.0993 -6.53902 255 0 0
-36.041 27.9905 -5.22912 255 0 0
-34.4211 26.4717 -6.16295 255 0 0
-35.8235 29.923 -4.13512 255 0 0
-34.1094 30.7611 -5.2502 255 0 0
-34.341 33.4172 -4.19185 255 0 0
-33.9483 31.8039 -6.06984 255 0 0
-34.6835 31.8804 -4.15492 255 0 0
-34.399 25.1797 -6.44476 255 0 0
-35.9456 28.0533 -5.98921 255 0 0
-35.1262 27.9539 -5.17663 255 0 0
-35.9622 28.0663 -4.0867 255 0 0
-34.0283 30.9818 -5.64106 255 0 0
-35.3423 33.2676 -4.22021 255 0 0
-36.0001 27.9587 -5.60642 255 0 0
-34.5973 31.3501 -4.13566 255 0 0
-35.9559 29.8892 -4.52835 255 0 0
-34.0543 30.8582 -4.48504 255 0 0
-34.0768 30.4399 -5.6152 255 0 0
-36.3356 28.0814 -4.10061 255 0 0
-35.0102 25.4999 -6.15234 255 0 0
-34.0382 34.0786 -5.00622 255 0 0
-33.9623 32.1208 -6.08974 255 0 0
-34.001 34.0413 -4.6017 255 0 0
-35.4023 25.2751 -6.17022 255 0 0
-34.2777 28.0843 -5.13571 255 0 0
-35.8966 28.0151 -4.46228 255 0 0
-33.9985 32.6163 -4.94057 255 0 0
-34.5794 26.5935 -4.35889 255 0 0
-36.3877 29.9574 -4.15599 255 0 0
-35.953 25.2841 -6.2138 255 0 0
-36.0511 25.2255 -6.21827 255 0 0
-35.0093 25.8823 -5.80907 255 0 0
-34.031 31.7302 -4.51602 255 0 0
-34.5503 27.8992 -4.77169 255 0 0
-33.9571 31.0645 -6.02646 255 0 0
-34.0913 31.3361 -5.27665 255 0 0
-34.0157 30.5307 -5.99891 255 0 0
-34.4493 28.0886 -4.77425 255 0 0
-34.0229 31.4224 -4.8906 255 0 0
-34.5504 33.4618 -4.20014 255 0 0
-35.6866 27.9875 -6.34791 255 0 0
-34.2157 28.0335 -5.49974 255 0 0
-34.4989 26.5316 -5.4434 255 0 0
-34.0386 32.1929 -4.92416 255 0 0
-34.1722 27.8627 -6.59717 255 0 0
-35.0039 25.4953 -5.78865 255 0 0
-34.0984 31.4922 -5.2845 255 0 0
-36.2181 27.9907 -5.23904 255 0 0
-33.9364 33.3382 -5.76391 255 0 0
-35.0422 25.3963 -6.14898 255 0 0
-35.6616 25.3328 -6.19369 255 0 0
-35.2596 28.0601 -4.06128 255 0 0
-34.3827 29.8447 -4.46196 255 0 0
-35.3139 27.9667 -6.69675 255 0 0
-34.0236 33.4239 -4.18168 255 0 0
-34.1616 28.1247 -5.87132 255 0 0
-34.1772 25.6451 -6.45508 255 0 0
-33.863 33.2661 -6.15302 255 0 0
-34.2808 27.9512 -5.12993 255 0 0
-34.064 31.0143 -4.87528 255 0 0
-34.0382 32.04 -4.91759 255 0 0
-36.2017 25.2033 -6.22889 255 0 0
-34.8875 27.8993 -4.78811 255 0 0
-34.0359 31.7348 -4.90446 255 0 0
-34.1297 28.7841 -6.2803 255 0 0
-34.9826 25.8626 -6.17078 255 0 0
-36.2002 27.9768 -5.61981 255 0 0
-35.4517 29.7555 -4.88878 255 0 0
-34.6343 26.5052 -5.08612 255 0 0
-35.6597 27.9664 -5.2068 255 0 0
-34.6872 31.5817 -4.14583 255 0 0
-34.5158 26.5445 -5.08116 255 0 0
-33.9983 33.5579 -4.18516 255 0 0
-34.0651 33.3063 -4.17927 255 0 0
-34.6833 33.2733 -4.19854 255 0 0
-35.0146 33.2736 -4.20951 255 0 0
-35.1741 33.2669 -4.21459 255 0 0
-35.4483 33.0517 -4.217 255 0 0
-34.6899 31.7349 -4.15064 255 0 0
-35.1017 29.8898 -4.1089 255 0 0
-35.3108 29.9237 -4.1172 255 0 0
-35.4487 29.8965 -4.12121 255 0 0
-36.2038 29.9504 -4.1493 255 0 0
-36.4857 29.8933 -4.1576 255 0 0
-34.7178 28.0345 -4.04121 255 0 0
-34.8982 28.0437 -4.0479 255 0 0
-35.0514 28.0303 -4.05298 255 0 0
-35.6174 28.0699 -4.07439 255 0 0
-35.8311 28.1009 -4.08295 255 0 0
-36.1626 28.085 -4.09446 255 0 0
-34.0168 32.3254 -4.53752 255 0 0
-34.0129 31.4132 -5.66323 255 0 0
-34.2508 28.8862 -5.545 255 0 0
-34.0718 30.7272 -4.86361 255 0 0
-34.1216 29.1951 -6.68218 255 0 0
-34.0204 32.4827 -4.54353 255 0 0
-35.7862 29.8919 -4.5214 255 0 0
-34.0314 34.2338 -4.61024 255 0 0
-34.0195 33.8987 -4.59696 255 0 0
-34.0084 33.7273 -4.59001 255 0 0
-34.0009 33.5604 -4.58337 255 0 0
-34.022 33.4223 -4.57894 255 0 0
-34.0133 33.2557 -4.5723 255 0 0
-34.0385 32.81 -4.55649 255 0 0
-34.0234 32.6402 -4.54954 255 0 0
-34.0338 32.1884 -4.5331 255 0 0
-34.0079 32.0115 -4.52551 255 0 0
-34.0154 31.8668 -4.52045 255 0 0
-34.0493 30.7069 -4.47935 255 0 0
-34.0611 30.5714 -4.47492 255 0 0
-35.4072 29.8615 -4.50464 255 0 0
-35.5809 29.8639 -4.51191 255 0 0
-36.2942 29.7364 -4.53721 255 0 0
-34.5203 28.1465 -4.40853 255 0 0
-34.6625 27.9899 -4.40916 255 0 0
-34.8473 28.0028 -4.41738 255 0 0
-35.0186 28.0041 -4.42465 255 0 0
-35.5889 28.0474 -4.45026 255 0 0
-36.0091 27.9657 -4.46544 255 0 0
-34.6042 26.7433 -4.3649 255 0 0
-34.8479 28.0034 -6.28589 255 0 0
-34.2436 29.0193 -5.17622 255 0 0
-34.05 31.2981 -4.88659 255 0 0
-34.829 27.9882 -5.90909 255 0 0
-34.0708 33.7892 -4.99492 255 0 0
-33.9634 33.2069 -4.96464 255 0 0
-33.9926 32.7658 -4.94677 255 0 0
-34.0208 32.4831 -4.93583 255 0 0
-34.0594 31.1581 -4.88112 255 0 0
-34.0682 30.8707 -4.86945 255 0 0
-34.0794 30.5878 -4.85814 255 0 0
-34.0864 30.4485 -4.85267 255 0 0
-35.8261 29.7813 -4.90774 255 0 0
-36.2151 29.8154 -4.9278 255 0 0
-35.6196 27.935 -4.82531 255 0 0
-35.7687 27.9152 -4.83188 255 0 0
-36.1642 27.949 -4.85267 255 0 0
-34.5998 26.6091 -4.72428 255 0 0
-34.5885 26.4702 -4.71844 255 0 0
-35.4164 28.0479 -6.33115 255 0 0
-34.1464 29.0763 -6.67611 255 0 0
-33.926 33.8056 -6.59154 255 0 0
-34.0188 30.6794 -5.62443 255 0 0
-34.0193 31.1215 -5.64799 255 0 0
-33.9879 34.19 -5.41139 255 0 0
-33.9863 34.0267 -5.40312 255 0 0
-34.0338 33.913 -5.39981 255 0 0
-34.0229 33.7417 -5.39072 255 0 0
-34.0197 33.5789 -5.38246 255 0 0
-33.9312 33.0184 -5.35022 255 0 0
-33.959 32.889 -5.34526 255 0 0
-34.0598 32.6751 -5.33989 255 0 0
-34.0569 32.5176 -5.33203 255 0 0
-34.0704 32.3764 -5.32583 255 0 0
-34.0534 32.0543 -5.3093 255 0 0
-34.0598 31.7571 -5.29525 255 0 0
-34.0665 31.6127 -5.28864 255 0 0
-34.1009 31.1961 -5.27045 255 0 0
-34.097 31.0444 -5.26301 255 0 0
-34.1068 30.4667 -5.23615 255 0 0
-34.2676 28.9004 -5.17208 255 0 0
-34.2466 28.744 -5.16382 255 0 0
-34.2788 28.6328 -5.16051 255 0 0
-34.2792 28.4954 -5.15431 255 0 0
-34.2792 28.3582 -5.14811 255 0 0
-34.2877 28.2286 -5.14274 255 0 0
-34.5948 27.9351 -5.14646 255 0 0
-34.9549 27.9532 -5.16713 255 0 0
-35.2885 27.9467 -5.18531 255 0 0
-35.8548 27.9824 -5.21837 255 0 0
-34.2565 29.3105 -5.19027 255 0 0
-36.2202 27.8553 -5.6152 255 0 0
-34.1601 27.9879 -6.60446 255 0 0
-33.9446 32.4104 -6.10607 255 0 0
-33.9842 34.3487 -5.82302 255 0 0
-33.9873 34.1894 -5.81424 255 0 0
-34.0106 34.0509 -5.80778 255 0 0
-34.025 33.9042 -5.80039 255 0 0
-34.0142 33.733 -5.79023 255 0 0
-33.986 33.5457 -5.77822 255 0 0
-33.9319 33.176 -5.75467 255 0 0
-34.0325 32.8042 -5.73989 255 0 0
-34.0175 32.6345 -5.72973 255 0 0
-34.0238 32.3321 -5.71357 255 0 0
-34.041 32.1952 -5.7071 255 0 0
-34.045 32.0464 -5.69925 255 0 0
-34.0044 31.7055 -5.67847 255 0 0
-34.0068 31.5572 -5.67062 255 0 0
-34.0228 31.2732 -5.6563 255 0 0
-34.0195 30.8266 -5.63228 255 0 0
-34.0393 30.5518 -5.61889 255 0 0
-34.2312 29.0088 -5.55008 255 0 0
-34.235 28.5962 -5.5293 255 0 0
-34.2579 28.4776 -5.52468 255 0 0
-34.2758 28.3554 -5.5196 255 0 0
-34.2663 28.211 -5.51175 255 0 0
-34.2188 27.9006 -5.49327 255 0 0
-34.3664 27.8856 -5.50159 255 0 0
-34.5778 27.9214 -5.51637 255 0 0
-34.7076 27.8905 -5.52283 255 0 0
-34.9104 27.9175 -5.53669 255 0 0
-35.0587 27.9001 -5.545 255 0 0
-35.4473 27.9359 -5.57086 255 0 0
-35.8187 27.9542 -5.59488 255 0 0
-34.5386 26.432 -5.44109 255 0 0
-35.5923 28.0501 -5.96471 255 0 0
-34.6636 27.9907 -6.27136 255 0 0
-33.9556 34.1575 -6.21375 255 0 0
-34.156 27.9845 -5.86316 255 0 0
-33.8955 34.422 -6.22651 255 0 0
-33.9401 34.3042 -6.22192 255 0 0
-33.9458 33.9861 -6.20253 255 0 0
-33.8569 33.7367 -6.1816 255 0 0
-33.9285 33.6481 -6.18058 255 0 0
-33.8542 33.1001 -6.14231 255 0 0
-33.874 32.9628 -6.13516 255 0 0
-33.9605 32.8905 -6.13618 255 0 0
-33.946 32.7208 -6.12496 255 0 0
-33.9477 32.5675 -6.11577 255 0 0
-33.9619 31.9682 -6.08056 255 0 0
-33.9319 31.4878 -6.04994 255 0 0
-33.9422 31.3479 -6.04228 255 0 0
-33.9563 31.2121 -6.03514 255 0 0
-33.9616 30.9211 -6.0183 255 0 0
-33.9614 30.7739 -6.00962 255 0 0
-33.9779 30.6425 -6.00299 255 0 0
-34.183 29.1076 -5.92797 255 0 0
-34.1941 28.9774 -5.92134 255 0 0
-34.2092 28.8512 -5.91521 255 0 0
-34.2162 28.443 -5.89276 255 0 0
-34.1892 28.2837 -5.88204 255 0 0
-34.2539 27.9293 -5.86673 255 0 0
-34.5102 28.0023 -5.88817 255 0 0
-34.6945 28.0157 -5.90143 255 0 0
-35.0456 28.0257 -5.92593 255 0 0
-35.2033 28.0152 -5.93614 255 0 0
-35.4159 28.0475 -5.95247 255 0 0
-36.249 28.0145 -6.00809 255 0 0
-34.4473 26.4919 -5.80192 255 0 0
-35.0133 26.0139 -5.81621 255 0 0
-35.05 25.4019 -5.78712 255 0 0
-35.5019 25.4735 -5.82284 255 0 0
-33.939 31.1962 -6.41944 255 0 0
-33.9133 34.1149 -6.61166 255 0 0
-33.9482 33.6676 -6.58372 255 0 0
-33.858 33.2612 -6.55019 255 0 0
-33.8691 32.958 -6.53063 255 0 0
-33.9262 32.8573 -6.52784 255 0 0
-33.9369 32.712 -6.5189 255 0 0
-33.9302 32.5508 -6.50772 255 0 0
-33.9407 32.1004 -6.47867 255 0 0
-33.9531 31.9599 -6.47029 255 0 0
-33.9124 31.6196 -6.44514 255 0 0
-33.9292 31.3359 -6.42782 255 0 0
-33.953 30.9132 -6.40211 255 0 0
-33.9528 30.7661 -6.39261 255 0 0
-33.9564 30.6231 -6.38367 255 0 0
-34.1082 29.0439 -6.29483 255 0 0
-34.1369 28.929 -6.2898 255 0 0
-34.1532 28.6656 -6.27471 255 0 0
-34.1629 28.536 -6.26745 255 0 0
-34.1453 28.3841 -6.25683 255 0 0
-34.149 28.1144 -6.24062 255 0 0
-34.1705 27.9964 -6.23504 255 0 0
-34.1645 27.8564 -6.2261 255 0 0
-35.0189 28.0044 -6.29874 255 0 0
-35.181 27.9975 -6.31047 255 0 0
-35.5423 28.0107 -6.33841 255 0 0
-35.8815 28.0032 -6.36356 255 0 0
-36.003 27.961 -6.37026 255 0 0
-34.53 26.4254 -6.16854 255 0 0
-34.6621 26.3965 -6.17692 255 0 0
-34.9212 25.9455 -6.17078 255 0 0
-35.0014 25.6207 -6.15848 255 0 0
-35.328 25.3487 -6.16854 255 0 0
-34.1569 28.5309 -6.64028 255 0 0
-34.1611 28.1244 -6.61356 255 0 0
-34.3784 27.8954 -6.61599 255 0 0
-34.8508 28.0056 -6.66153 255 0 0
-34.4155 26.4674 -6.52673 255 0 0
-34.1945 25.9125 -6.4733 255 0 0
-34.1913 25.5292 -6.44901 255 0 0
-34.1722 25.389 -6.43869 255 0 0
-34.1996 25.2837 -6.43444 255 0 0
-34.2735 25.2129 -6.43626 255 0 0
-34.5904 25.1941 -6.46176 255 0 0
-34.8339 25.2453 -6.48544 255 0 0
-34.8228 25.1115 -6.47634 255 0 0
-35.0668 25.1613 -6.50002 255 0 0
-35.3006 29.9151 -4.50211 255 0 0
-34.5197 29.8205 -4.4667 255 0 0
-36.2811 33.349 -4.25419 255 0 0
-34.0914 29.7339 -5.20102 255 0 0
-35.0292 29.8281 -4.48789 255 0 0
-34.0445 30.4111 -5.9938 255 0 0
-36.2126 33.6042 -4.25981 255 0 0
-34.5664 30.8772 -4.12014 255 0 0
-34.4456 29.8993 -4.08643 255 0 0
-34.7012 29.8338 -4.47461 255 0 0
-34.8873 29.8503 -4.48283 255 0 0
-36.3284 29.6207 -4.53468 255 0 0
-36.0753 27.8803 -4.46544 255 0 0
-34.2223 29.4221 -5.19358 255 0 0
-34.2503 29.1648 -5.18324 255 0 0
