ply
format ascii 1.0
comment Created by Open3D
element vertex 481
property double x
property double y
property double z
property uchar red
property uchar green
property uchar blue
end_header
11.2533 11.647 -5.06433 255 0 0
10.5419 11.4415 -4.80994 255 0 0
11.3812 11.3947 -4.90881 255 0 0
11.5327 11.2759 -5.19087 255 0 0
10.0696 11.6844 -4.65374 255 0 0
10.5833 12.0475 -4.89632 255 0 0
11.4854 11.6637 -4.12048 255 0 0
12.6376 11.262 -5.34882 255 0 0
9.96288 12.368 -4.05729 255 0 0
10.5319 11.2154 -5.1768 255 0 0
11.7345 11.2574 -5.21701 255 0 0
11.9207 11.6 -4.4364 255 0 0
12.095 11.6585 -4.17614 255 0 0
10.4438 11.2545 -5.17029 255 0 0
11.9123 11.537 -4.99519 255 0 0
10.7213 11.4715 -4.70139 255 0 0
11.4377 11.5604 -4.38208 255 0 0
12.0702 11.4157 -4.7163 255 0 0
11.5149 11.6937 -4.82351 255 0 0
10.8379 11.217 -5.22061 255 0 0
10.9205 11.4646 -4.58876 255 0 0
10.2357 11.6518 -4.27176 255 0 0
10.7214 11.3091 -5.08292 255 0 0
10.7929 11.7139 -4.06331 255 0 0
11.4294 11.2279 -5.30823 255 0 0
10.1341 12.0161 -4.03623 255 0 0
11.4939 11.5075 -5.07739 255 0 0
10.967 11.2435 -5.24311 255 0 0
10.5861 11.5994 -4.43376 255 0 0
10.2841 11.5403 -4.52734 255 0 0
11.4306 11.6633 -4.80961 255 0 0
11.2987 11.6939 -4.93691 255 0 0
10.5406 11.6047 -4.29637 255 0 0
10.4436 11.608 -4.15479 255 0 0
10.6707 11.5264 -4.70239 255 0 0
10.0833 11.2611 -5.12115 255 0 0
11.5774 11.4274 -4.79869 255 0 0
10.5642 11.5754 -4.29552 255 0 0
12.0348 11.2746 -5.26246 255 0 0
10.3257 11.8673 -4.03773 255 0 0
10.5372 11.6564 -4.83804 255 0 0
11.6285 11.4236 -4.9442 255 0 0
10.6008 11.2887 -5.0636 255 0 0
10.682 11.7603 -4.05804 255 0 0
11.2432 11.6089 -4.36723 255 0 0
10.5067 11.5674 -4.82243 255 0 0
10.5678 11.7461 -4.04676 255 0 0
10.5009 12.1267 -4.62277 255 0 0
10.3899 11.9984 -4.45977 255 0 0
11.4384 11.6713 -4.6719 255 0 0
10.0534 12.1818 -4.04601 255 0 0
11.0903 11.6983 -4.08813 255 0 0
10.3999 11.6147 -4.28364 255 0 0
11.4666 11.8116 -3.99351 255 0 0
10.0888 11.3211 -4.99996 255 0 0
10.6493 11.3404 -4.9435 255 0 0
12.3954 11.4479 -4.90293 255 0 0
12.5902 11.3543 -4.91683 255 0 0
10.4835 12.1647 -4.6256 255 0 0
11.4188 11.7067 -4.67379 255 0 0
11.5523 11.3218 -5.06052 255 0 0
11.9169 11.2173 -5.37928 255 0 0
11.4584 11.3637 -5.05345 255 0 0
10.3178 11.6335 -4.2777 255 0 0
10.9931 11.5958 -4.3405 255 0 0
10.7406 11.5468 -4.30995 255 0 0
11.2025 11.5944 -4.636 255 0 0
11.7465 11.6494 -4.14304 255 0 0
10.8456 12.1125 -3.96887 255 0 0
12.0831 11.5644 -4.30808 255 0 0
11.2579 11.8188 -3.97662 255 0 0
10.6269 11.5338 -4.56419 255 0 0
11.4372 11.3966 -4.77784 255 0 0
12.4751 11.4124 -4.90889 255 0 0
10.532 11.7062 -4.57458 255 0 0
11.0561 11.552 -4.75103 255 0 0
12.4526 11.4462 -4.76543 255 0 0
12.6629 11.3656 -5.07324 255 0 0
11.0359 11.6133 -4.21083 255 0 0
11.5981 11.5023 -4.53151 255 0 0
12.5522 11.4829 -4.7815 255 0 0
10.4304 11.8734 -4.99031 255 0 0
10.1386 11.3229 -5.00678 255 0 0
10.6081 11.4588 -4.82035 255 0 0
10.223 11.3087 -5.01587 255 0 0
12.1602 11.4463 -4.87315 255 0 0
10.4587 11.6804 -4.69742 255 0 0
10.7778 11.4772 -4.44004 255 0 0
11.197 11.2636 -5.14201 255 0 0
10.561 11.6271 -4.70239 255 0 0
12.1877 11.3098 -5.14597 255 0 0
11.3882 11.8146 -3.98717 255 0 0
11.7844 11.5767 -4.27966 255 0 0
11.8472 11.6384 -4.15132 255 0 0
10.5026 11.2374 -5.30949 255 0 0
11.0036 11.4971 -4.60198 255 0 0
11.1648 11.6104 -4.22283 255 0 0
10.543 12.1752 -4.77089 255 0 0
11.4356 11.5036 -4.65206 255 0 0
10.7456 12.116 -3.96113 255 0 0
12.4093 11.2983 -5.17537 255 0 0
12.7163 11.2512 -5.35905 255 0 0
11.2457 11.6944 -4.10167 255 0 0
10.5058 11.5663 -4.55474 255 0 0
11.8593 11.4856 -4.6993 255 0 0
10.6404 11.4663 -4.55758 255 0 0
10.1106 11.5646 -4.64282 255 0 0
10.9267 11.2554 -5.10337 255 0 0
11.8757 11.4471 -5.12094 255 0 0
10.2914 11.5485 -4.26582 255 0 0
10.1542 11.6701 -4.52923 255 0 0
11.0238 12.0216 -3.97521 255 0 0
11.3425 11.2221 -5.29462 255 0 0
12.3637 11.4731 -4.61401 255 0 0
10.9491 11.4946 -4.73118 255 0 0
11.8351 11.5715 -4.42451 255 0 0
12.0159 11.4728 -4.7163 255 0 0
10.226 11.5301 -4.51979 255 0 0
10.1827 11.2642 -5.13536 255 0 0
10.8501 11.4995 -4.58498 255 0 0
10.4332 11.4318 -4.79537 255 0 0
11.4341 11.5021 -5.06869 255 0 0
11.9945 11.5616 -4.8662 255 0 0
10.3847 11.5977 -4.5453 255 0 0
12.1975 11.4814 -4.59607 255 0 0
10.0118 11.6173 -4.11637 255 0 0
11.4679 11.5361 -4.93795 255 0 0
11.8155 11.4432 -5.11223 255 0 0
10.9159 12.0178 -3.96606 255 0 0
10.1629 11.6244 -4.13078 255 0 0
10.8843 11.5631 -4.32607 255 0 0
10.8463 11.4409 -4.84741 255 0 0
10.817 11.356 -4.96745 255 0 0
11.2454 11.5289 -4.90881 255 0 0
10.353 12.071 -4.60009 255 0 0
10.1812 11.4795 -4.63984 255 0 0
10.7508 11.5578 -4.44632 255 0 0
11.7237 11.6268 -4.41857 255 0 0
10.5096 11.6813 -4.70338 255 0 0
11.1314 11.3043 -5.1386 255 0 0
10.1195 11.4647 -4.63091 255 0 0
12.5334 11.2493 -5.33178 255 0 0
11.5499 11.4545 -4.65962 255 0 0
10.0621 11.6198 -4.12118 255 0 0
10.3538 11.8428 -4.03773 255 0 0
11.5648 11.5237 -4.39142 255 0 0
12.2149 11.5526 -4.4627 255 0 0
11.436 11.6136 -4.24925 255 0 0
10.619 11.7469 -4.05127 255 0 0
11.8477 11.529 -4.56199 255 0 0
10.0905 11.5416 -4.50656 255 0 0
11.3424 11.6837 -4.94107 255 0 0
11.0326 11.9741 -3.97169 255 0 0
10.1923 11.6025 -4.39341 255 0 0
12.0004 11.5125 -4.57724 255 0 0
10.3938 11.7753 -4.9718 255 0 0
12.1828 11.5223 -4.59876 255 0 0
11.2763 11.6156 -4.23404 255 0 0
11.9221 11.4646 -4.98739 255 0 0
10.0396 12.2833 -4.05504 255 0 0
11.3832 11.7256 -4.81159 255 0 0
12.0965 11.7154 -4.18141 255 0 0
11.3228 11.6083 -4.37529 255 0 0
10.659 11.6239 -4.17641 255 0 0
11.2815 11.7317 -5.07957 255 0 0
11.1135 11.8911 -3.97098 255 0 0
11.58 11.2685 -5.19655 255 0 0
11.9029 11.4189 -5.12094 255 0 0
12.0123 11.6338 -4.30768 255 0 0
12.4588 11.5066 -4.62835 255 0 0
11.841 11.5772 -4.56648 255 0 0
12.0194 11.4218 -5.13727 255 0 0
12.1017 11.5 -4.72953 255 0 0
10.4695 11.309 -5.04883 255 0 0
9.96629 11.3451 -4.98746 255 0 0
12.4355 11.3762 -5.0441 255 0 0
12.0105 11.6321 -4.44913 255 0 0
11.5112 11.3621 -4.9213 255 0 0
10.7565 11.619 -4.31929 255 0 0
11.7227 11.5161 -4.54675 255 0 0
10.2863 11.6536 -4.27685 255 0 0
11.0754 11.5174 -4.74905 255 0 0
11.5201 11.5886 -4.5324 255 0 0
10.574 11.3138 -5.0636 255 0 0
10.663 11.3011 -5.07383 255 0 0
11.908 11.6427 -4.15734 255 0 0
10.2014 11.9514 -4.03548 255 0 0
12.3513 11.3531 -5.17428 255 0 0
10.896 11.2772 -5.10223 255 0 0
11.4896 11.5579 -4.38718 255 0 0
10.5487 11.5584 -4.55852 255 0 0
10.5659 11.6881 -4.44183 255 0 0
11.0638 11.5601 -4.89008 255 0 0
12.2156 11.3897 -5.16012 255 0 0
10.5605 11.5164 -4.55474 255 0 0
10.0122 11.452 -4.87818 255 0 0
10.8796 12.0351 -3.96465 255 0 0
10.2132 11.738 -4.41134 255 0 0
12.3047 11.4184 -4.88804 255 0 0
11.318 11.8257 -3.98225 255 0 0
12.0398 11.6053 -4.30768 255 0 0
10.8441 11.6028 -4.19161 255 0 0
11.1373 11.5543 -4.48712 255 0 0
11.3421 11.2484 -5.16019 255 0 0
10.5442 11.6641 -4.5708 255 0 0
10.1081 11.6172 -4.25564 255 0 0
11.5189 11.5326 -4.52613 255 0 0
10.5271 12.0699 -4.89268 255 0 0
9.97652 11.2488 -5.10458 255 0 0
11.5661 11.5798 -4.39736 255 0 0
12.2325 11.4598 -5.02745 255 0 0
11.4493 11.6824 -3.98084 255 0 0
11.2418 11.8581 -3.97873 255 0 0
11.1618 11.8298 -3.96958 255 0 0
11.1576 11.8816 -3.9738 255 0 0
11.0853 11.9174 -3.97098 255 0 0
11.0333 11.918 -3.96676 255 0 0
10.9248 11.9705 -3.96254 255 0 0
10.8354 12.0435 -3.96183 255 0 0
10.7782 12.0948 -3.96183 255 0 0
10.6592 12.076 -3.95057 255 0 0
10.4646 11.6314 -4.42479 255 0 0
10.6781 11.4252 -4.82451 255 0 0
11.4437 11.5665 -4.52164 255 0 0
12.4122 11.3549 -5.18299 255 0 0
11.9855 11.6631 -4.16636 255 0 0
11.7865 11.6338 -4.1453 255 0 0
11.6818 11.6404 -4.13627 255 0 0
11.6829 11.6968 -4.14154 255 0 0
11.5799 11.6764 -4.13026 255 0 0
11.417 11.6495 -4.11296 255 0 0
11.3934 11.6807 -4.11371 255 0 0
11.3293 11.6702 -4.10694 255 0 0
11.2855 11.6803 -4.10393 255 0 0
11.1358 11.663 -4.08888 255 0 0
11.0426 11.7034 -4.08437 255 0 0
10.987 11.7 -4.07911 255 0 0
10.9235 11.6878 -4.07234 255 0 0
10.8879 11.7051 -4.07083 255 0 0
10.8759 11.748 -4.07384 255 0 0
10.7612 11.7352 -4.06256 255 0 0
10.4484 11.7808 -4.97942 255 0 0
10.7294 11.7564 -4.06181 255 0 0
10.5322 11.7625 -4.04526 255 0 0
10.5004 11.7831 -4.0445 255 0 0
10.457 11.7906 -4.0415 255 0 0
10.4406 11.8284 -4.04375 255 0 0
10.3895 11.8269 -4.03924 255 0 0
10.2937 11.8874 -4.03698 255 0 0
10.2438 11.9151 -4.03548 255 0 0
10.188 11.9933 -4.03849 255 0 0
10.1062 12.0699 -4.03924 255 0 0
10.0818 12.1281 -4.043 255 0 0
10.0429 12.228 -4.04977 255 0 0
10.0214 12.3206 -4.05729 255 0 0
9.98487 12.3353 -4.05579 255 0 0
11.6706 11.2494 -5.20678 255 0 0
12.1632 11.5585 -5.03057 255 0 0
10.3851 11.6536 -4.81931 255 0 0
10.1547 11.615 -4.25988 255 0 0
10.5379 11.4644 -4.67906 255 0 0
12.7199 11.3624 -5.08053 255 0 0
12.1557 11.5513 -4.31408 255 0 0
11.9181 11.5975 -4.29487 255 0 0
11.845 11.5811 -4.28607 255 0 0
11.728 11.576 -4.27406 255 0 0
11.717 11.6202 -4.27726 255 0 0
11.6072 11.566 -4.26125 255 0 0
11.5374 11.5785 -4.25565 255 0 0
11.5002 11.6236 -4.25645 255 0 0
11.3922 11.6241 -4.24604 255 0 0
11.316 11.6013 -4.23644 255 0 0
11.1963 11.588 -4.22363 255 0 0
11.0931 11.5907 -4.21403 255 0 0
10.9467 11.6018 -4.20122 255 0 0
10.9112 11.6193 -4.19962 255 0 0
10.7889 11.5987 -4.18601 255 0 0
10.7416 11.603 -4.18201 255 0 0
10.7062 11.6199 -4.18041 255 0 0
10.6275 11.6448 -4.17561 255 0 0
10.5414 11.6056 -4.1636 255 0 0
10.4789 11.5918 -4.15639 255 0 0
10.3928 11.6068 -4.14999 255 0 0
10.3614 11.6271 -4.14919 255 0 0
10.2953 11.6082 -4.14119 255 0 0
10.2367 11.6252 -4.13758 255 0 0
10.1315 11.6441 -4.12998 255 0 0
10.412 11.6283 -4.9533 255 0 0
10.7413 11.5475 -4.71331 255 0 0
10.5215 11.3652 -4.93044 255 0 0
10.9484 11.5486 -5.01099 255 0 0
12.1433 11.5944 -4.45931 255 0 0
12.2845 11.5633 -4.47119 255 0 0
12.1581 11.5536 -4.45676 255 0 0
12.0363 11.547 -4.44318 255 0 0
12.0298 11.5956 -4.44743 255 0 0
11.7622 11.5549 -4.41518 255 0 0
11.7018 11.5502 -4.40839 255 0 0
11.3737 11.5503 -4.37445 255 0 0
11.4152 11.6476 -4.38887 255 0 0
11.1677 11.6134 -4.36002 255 0 0
11.1401 11.6398 -4.36002 255 0 0
11.0486 11.5991 -4.34644 255 0 0
10.8075 11.5637 -4.31844 255 0 0
10.6857 11.5976 -4.30995 255 0 0
10.6386 11.6016 -4.30571 255 0 0
10.5014 11.6168 -4.29383 255 0 0
10.4119 11.5727 -4.28025 255 0 0
10.0843 11.6455 -4.25649 255 0 0
10.0491 11.6606 -4.25479 255 0 0
9.9657 11.6753 -4.77248 255 0 0
10.5141 11.5205 -4.95112 255 0 0
11.7778 11.2454 -5.22155 255 0 0
12.3407 11.5063 -4.6149 255 0 0
12.3429 11.5633 -4.62118 255 0 0
12.0862 11.5399 -4.58979 255 0 0
11.8417 11.4686 -4.55482 255 0 0
11.6912 11.5398 -4.54585 255 0 0
11.5339 11.493 -4.52344 255 0 0
11.5665 11.7461 -4.55482 255 0 0
11.486 11.7198 -4.54316 255 0 0
11.4339 11.7222 -4.53778 255 0 0
11.265 11.6039 -4.5064 255 0 0
10.9868 11.5343 -4.46873 255 0 0
10.794 11.5492 -4.4499 255 0 0
10.6959 11.5535 -4.44004 255 0 0
10.6018 11.5065 -4.42479 255 0 0
10.6136 11.5743 -4.43376 255 0 0
10.4885 11.5474 -4.41762 255 0 0
10.3753 11.5872 -4.41045 255 0 0
10.3208 11.5815 -4.40417 255 0 0
10.2703 11.58 -4.39879 255 0 0
10.1969 11.5522 -4.38803 255 0 0
10.1229 11.5787 -4.38354 255 0 0
10.5928 12.3506 -4.52164 255 0 0
11.579 11.2142 -5.32836 255 0 0
11.6291 11.4242 -4.80465 255 0 0
10.3201 11.9178 -4.84741 255 0 0
10.8146 11.2997 -5.09428 255 0 0
12.3999 11.4521 -4.75977 255 0 0
12.3388 11.4501 -4.75221 255 0 0
12.2948 11.4635 -4.74843 255 0 0
12.2254 11.4531 -4.73898 255 0 0
12.1982 11.4821 -4.73898 255 0 0
11.9887 11.5013 -4.7163 255 0 0
11.9322 11.5016 -4.70969 255 0 0
11.9065 11.5862 -4.7163 255 0 0
11.7799 11.5175 -4.69363 255 0 0
11.6907 11.4846 -4.67946 255 0 0
11.5976 11.4474 -4.66434 255 0 0
11.4907 11.4771 -4.65536 255 0 0
11.518 11.6416 -4.67757 255 0 0
11.4823 11.6606 -4.67568 255 0 0
11.399 11.742 -4.67568 255 0 0
11.0508 11.4918 -4.60671 255 0 0
10.8655 11.4611 -4.58214 255 0 0
10.8466 11.5504 -4.59065 255 0 0
10.7087 11.4579 -4.56419 255 0 0
10.1948 11.55 -4.51884 255 0 0
10.0797 11.4743 -4.49711 255 0 0
12.261 11.3238 -5.15795 255 0 0
11.4778 11.6561 -4.9546 255 0 0
12.5011 11.2203 -4.89003 255 0 0
12.559 11.3802 -4.91584 255 0 0
12.5319 11.41 -4.91584 255 0 0
12.4565 11.4498 -4.91087 255 0 0
12.2945 11.4633 -4.89201 255 0 0
12.2462 11.4727 -4.88705 255 0 0
12.0953 11.4394 -4.86421 255 0 0
12.0848 11.484 -4.86818 255 0 0
11.9992 11.4568 -4.85429 255 0 0
12.0719 11.5811 -4.87811 255 0 0
11.851 11.4776 -4.8384 255 0 0
11.7948 11.4775 -4.83145 255 0 0
11.7965 11.5337 -4.8384 255 0 0
11.5175 11.4223 -4.79075 255 0 0
11.5203 11.5339 -4.80465 255 0 0
11.5417 11.6103 -4.81656 255 0 0
11.5101 11.6336 -4.81557 255 0 0
11.427 11.7151 -4.81557 255 0 0
11.4034 11.8024 -4.82351 255 0 0
10.8486 11.4706 -4.71629 255 0 0
10.7959 11.4965 -4.71331 255 0 0
10.4368 11.4358 -4.66367 255 0 0
10.5411 11.6607 -4.70437 255 0 0
10.2659 11.5199 -4.65473 255 0 0
10.1495 11.5536 -4.6458 255 0 0
10.2385 11.7671 -4.68352 255 0 0
12.4113 11.3002 -5.03162 255 0 0
12.4338 11.2668 -5.03057 255 0 0
12.3449 11.3472 -5.02849 255 0 0
12.0985 11.4425 -5.00768 255 0 0
12.0233 11.4798 -5.00248 255 0 0
12.0419 11.7179 -5.03474 255 0 0
11.7751 11.5128 -4.97438 255 0 0
11.5088 11.4137 -4.92754 255 0 0
11.4082 11.3677 -4.90881 255 0 0
11.5013 11.6247 -4.95356 255 0 0
11.3735 11.605 -4.93483 255 0 0
11.203 11.6501 -4.91922 255 0 0
10.9688 11.5153 -4.87239 255 0 0
10.7757 11.4205 -4.83596 255 0 0
10.7249 11.4208 -4.82972 255 0 0
10.6942 11.4969 -4.83596 255 0 0
10.4641 11.4113 -4.79641 255 0 0
10.4341 11.6252 -4.82139 255 0 0
10.6556 12.0145 -4.90049 255 0 0
10.608 12.0181 -4.89528 255 0 0
10.5954 11.3908 -4.9435 255 0 0
10.3972 11.5565 -4.94132 255 0 0
13.0734 11.3479 -5.27551 255 0 0
12.9857 11.3259 -5.26027 255 0 0
12.9372 11.3377 -5.25483 255 0 0
12.8628 11.3265 -5.24286 255 0 0
12.7928 11.3189 -5.23197 255 0 0
12.7488 11.3339 -5.22762 255 0 0
12.7176 11.3603 -5.22653 255 0 0
12.4318 11.265 -5.17428 255 0 0
12.0878 11.3242 -5.134 255 0 0
12.1363 11.4238 -5.15359 255 0 0
12.1175 11.4605 -5.15577 255 0 0
11.9632 11.4225 -5.12965 255 0 0
11.6193 11.3067 -5.0676 255 0 0
11.4444 11.2961 -5.04256 255 0 0
11.3336 11.2934 -5.02732 255 0 0
12.8171 11.2324 -5.37155 255 0 0
11.4027 11.5251 -5.0676 255 0 0
11.3956 11.5726 -5.07304 255 0 0
11.356 11.5872 -5.06977 255 0 0
11.3486 11.6347 -5.07522 255 0 0
11.341 11.6822 -5.08066 255 0 0
10.692 11.3319 -4.94785 255 0 0
10.6224 11.3656 -4.9435 255 0 0
10.4343 11.3517 -4.91737 255 0 0
10.4867 11.5454 -4.95112 255 0 0
10.4478 11.5574 -4.94785 255 0 0
10.5069 11.7904 -4.98813 255 0 0
10.5092 11.2445 -5.17799 255 0 0
12.7645 11.24 -5.36473 255 0 0
12.4896 11.2636 -5.32723 255 0 0
12.4246 11.2585 -5.317 255 0 0
12.3214 11.2183 -5.29655 255 0 0
12.299 11.2513 -5.29769 255 0 0
12.23 11.2416 -5.28632 255 0 0
12.1864 11.255 -5.28178 255 0 0
12.1302 11.2565 -5.27382 255 0 0
12.0993 11.2813 -5.27269 255 0 0
11.9311 11.2842 -5.24882 255 0 0
11.8627 11.2729 -5.23746 255 0 0
11.6356 11.269 -5.20451 255 0 0
11.4609 11.2589 -5.17837 255 0 0
11.4056 11.2578 -5.17042 255 0 0
11.348 11.3077 -5.16928 255 0 0
11.2562 11.2695 -5.1511 255 0 0
11.1986 11.3187 -5.14996 255 0 0
11.0845 11.3102 -5.13292 255 0 0
10.9854 11.2624 -5.11246 255 0 0
10.8692 11.303 -5.10223 255 0 0
10.764 11.3003 -5.08746 255 0 0
10.5236 11.3136 -5.05678 255 0 0
10.4271 11.3169 -5.04428 255 0 0
10.3653 11.3035 -5.03405 255 0 0
10.296 11.3084 -5.02553 255 0 0
10.2 11.3372 -5.01701 255 0 0
10.0581 11.3407 -4.99883 255 0 0
10.0008 11.3301 -4.98974 255 0 0
11.7456 11.2147 -5.35323 255 0 0
11.5011 11.2449 -5.32126 255 0 0
11.2324 11.219 -5.27804 255 0 0
11.1499 11.2162 -5.26561 255 0 0
11.0217 11.2461 -5.2514 255 0 0
10.7993 11.2303 -5.21706 255 0 0
10.7103 11.244 -5.2064 255 0 0
10.656 11.2402 -5.19812 255 0 0
10.5861 11.2196 -5.18509 255 0 0
10.3435 11.2262 -5.15194 255 0 0
10.3285 11.2634 -5.15549 255 0 0
10.2554 11.237 -5.14128 255 0 0
10.2171 11.2486 -5.13773 255 0 0
10.11 11.2372 -5.12115 255 0 0
10.0222 11.2465 -5.1105 255 0 0
