ply
format ascii 1.0
comment Created by Open3D
element vertex 674
property double x
property double y
property double z
property uchar red
property uchar green
property uchar blue
end_header
-26.2333 11.742 -3.07542 255 0 0
-25.7354 10.1541 -1.88503 255 0 0
-26.4638 9.08687 -2.34884 255 0 0
-24.9994 10.9769 -2.11346 255 0 0
-25.9671 9.54044 -1.6551 255 0 0
-26.6462 8.65787 -1.88357 255 0 0
-25.7098 12.2474 -3.06557 255 0 0
-26.7464 8.69044 -2.11687 255 0 0
-25.7652 12.1989 -3.06666 255 0 0
-23.7095 12.7794 -1.88807 255 0 0
-25.3885 11.076 -2.34534 255 0 0
-26.1518 9.39773 -1.88452 255 0 0
-26.1996 9.4149 -2.34709 255 0 0
-24.2701 11.9166 -1.66291 255 0 0
-25.7994 9.82749 -1.42629 255 0 0
-23.5754 12.9971 -1.66437 255 0 0
-27.4468 10.5296 -2.3665 255 0 0
-25.1273 11.3185 -2.34358 255 0 0
-24.2206 12.1787 -1.43663 255 0 0
-28.2245 9.61671 -3.11571 255 0 0
-24.2254 12.3254 -1.20913 255 0 0
-24.37 11.7513 -1.66269 255 0 0
-24.4848 11.5926 -1.66226 255 0 0
-25.7105 9.86353 -1.19874 255 0 0
-26.0264 9.77292 -2.11553 255 0 0
-26.2987 9.66229 -1.18477 255 0 0
-25.3665 10.4279 -1.43006 255 0 0
-23.8384 12.5585 -1.66408 255 0 0
-25.2215 10.5787 -2.56836 255 0 0
-26.1299 9.38984 -1.42301 255 0 0
-27.0029 10.9513 -3.09031 255 0 0
-23.714 13.2943 -1.43505 255 0 0
-23.6379 12.7407 -1.21866 255 0 0
-26.6238 8.72043 -1.65072 255 0 0
-23.7401 12.4349 -1.88863 255 0 0
-25.3633 10.497 -2.57042 255 0 0
-24.2404 12.9914 -2.11429 255 0 0
-25.4997 10.2713 -2.57128 255 0 0
-26.5583 8.97878 -2.1165 255 0 0
-26.4797 8.88229 -1.4196 255 0 0
-24.5997 11.5046 -1.43566 255 0 0
-28.286 9.56288 -3.11724 255 0 0
-26.4346 11.5324 -3.07914 255 0 0
-25.1135 10.7441 -1.20521 255 0 0
-26.0876 10.2931 -2.34964 255 0 0
-26.7926 9.27084 -1.41084 255 0 0
-26.3364 9.04314 -1.65284 255 0 0
-24.679 11.3284 -1.66145 255 0 0
-23.9122 12.3809 -3.00755 255 0 0
-26.1888 9.27102 -1.65364 255 0 0
-23.8492 12.4921 -1.44052 255 0 0
-25.1145 10.815 -1.88637 255 0 0
-24.2021 12.2414 -1.43639 255 0 0
-24.1978 12.7479 -1.20419 255 0 0
-25.2235 11.29 -2.34453 255 0 0
-26.29 9.30685 -2.57955 255 0 0
-24.32 12.0846 -1.43566 255 0 0
-24.6969 11.3366 -1.43529 255 0 0
-27.3398 10.4143 -3.09469 255 0 0
-26.0949 9.37728 -1.6543 255 0 0
-25.3235 10.4806 -1.65831 255 0 0
-26.7042 11.2751 -3.08462 255 0 0
-25.1508 10.76 -1.88632 255 0 0
-26.3231 9.31857 -1.41972 255 0 0
-25.685 9.99372 -1.88547 255 0 0
-25.7015 10.0001 -1.4269 255 0 0
-24.0905 12.3287 -3.01259 255 0 0
-26.5055 8.89096 -1.65145 255 0 0
-25.0257 11.3442 -2.34256 255 0 0
-27.5091 10.4041 -2.61118 255 0 0
-26.5992 9.3454 -1.17966 255 0 0
-23.6076 12.7967 -1.21866 255 0 0
-26.0807 9.72278 -1.65299 255 0 0
-26.1298 9.38981 -2.11538 255 0 0
-27.4219 10.7445 -2.61203 255 0 0
-25.4463 10.32 -1.65766 255 0 0
-26.6048 8.78413 -1.88357 255 0 0
-25.5862 10.1654 -1.42787 255 0 0
-24.5681 11.4898 -1.21083 255 0 0
-24.5113 12.2521 -1.43055 255 0 0
-26.8324 11.105 -3.08659 255 0 0
-24.3537 12.0294 -2.11288 255 0 0
-23.825 12.4075 -2.3349 255 0 0
-26.0337 9.4949 -1.65452 255 0 0
-24.4403 11.7851 -2.11275 255 0 0
-24.2875 11.9251 -2.11244 255 0 0
-26.3326 9.60392 -1.18443 255 0 0
-25.7503 9.80879 -1.19823 255 0 0
-24.3265 11.8727 -1.43748 255 0 0
-24.7878 11.1656 -1.20895 255 0 0
-27.5226 10.4839 -2.61203 255 0 0
-25.2279 13.9081 -2.83822 255 0 0
-24.1905 12.5978 -1.2064 255 0 0
-26.2453 9.15121 -2.1155 255 0 0
-25.7735 10.1691 -2.11514 255 0 0
-25.2233 10.6498 -1.43104 255 0 0
-26.1054 9.52107 -3.03973 255 0 0
-26.6463 8.6579 -1.18477 255 0 0
-26.0851 9.51364 -1.42301 255 0 0
-23.6075 12.8692 -1.88827 255 0 0
-24.5196 11.5381 -1.21151 255 0 0
-26.0012 9.62301 -2.57614 255 0 0
-26.0451 9.42916 -1.65466 255 0 0
-25.4139 10.9439 -2.34497 255 0 0
-24.9146 12.5277 -3.04346 255 0 0
-24.5076 11.6035 -1.88732 255 0 0
-27.2986 10.4728 -3.09403 255 0 0
-23.9935 12.351 -3.00974 255 0 0
-24.5533 13.6123 -3.05046 255 0 0
-24.6144 11.4404 -1.6616 255 0 0
-25.597 10.1697 -1.88554 255 0 0
-24.3468 13.8012 -3.04718 255 0 0
-25.2764 11.0985 -2.34417 255 0 0
-26.5296 8.89902 -1.88372 255 0 0
-24.0994 12.9158 -1.65912 255 0 0
-24.9413 11.022 -1.43335 255 0 0
-24.3255 12.0873 -1.20964 255 0 0
-26.1001 9.44909 -2.34607 255 0 0
-24.5855 13.554 -3.05046 255 0 0
-26.2332 9.28673 -3.04127 255 0 0
-26.2347 9.35733 -1.88425 255 0 0
-24.2437 11.975 -1.43809 255 0 0
-26.6368 8.72469 -1.41753 255 0 0
-24.4335 12.1409 -1.65985 255 0 0
-23.9283 13.4145 -1.886 255 0 0
-24.7374 11.7841 -2.34161 255 0 0
-25.1443 10.6868 -1.20504 255 0 0
-24.3077 12.2225 -2.3392 255 0 0
-26.6182 11.3878 -3.0833 255 0 0
-23.7428 13.3105 -1.66065 255 0 0
-25.171 10.6982 -1.43164 255 0 0
-24.5459 11.5504 -1.43627 255 0 0
-25.3771 10.4323 -1.88598 255 0 0
-25.0246 10.8467 -1.2064 255 0 0
-25.3023 10.6126 -2.11402 255 0 0
-24.4466 11.6456 -1.6624 255 0 0
-25.611 10.2456 -2.57322 255 0 0
-25.9761 10.3203 -2.34847 255 0 0
-24.3421 11.809 -1.66269 255 0 0
-23.8457 12.5624 -2.78423 255 0 0
-26.2387 9.92367 -1.88343 255 0 0
-23.7938 12.3912 -1.66554 255 0 0
-23.9345 13.3434 -1.88613 255 0 0
-26.3929 8.99262 -2.11587 255 0 0
-25.0877 10.8035 -2.56763 255 0 0
-25.0333 10.8505 -1.65985 255 0 0
-23.7611 12.4459 -2.55741 255 0 0
-25.1723 10.7693 -2.11378 255 0 0
-23.7312 13.0097 -2.5624 255 0 0
-26.6592 8.59228 -1.6508 255 0 0
-24.8193 11.1091 -2.56507 255 0 0
-23.7285 12.7896 -2.33607 255 0 0
-25.151 10.7601 -1.43152 255 0 0
-23.69 12.9142 -2.56069 255 0 0
-24.3564 11.7447 -1.21321 255 0 0
-26.6946 8.60368 -1.18392 255 0 0
-23.9741 12.341 -1.21543 255 0 0
-24.0794 12.323 -2.33723 255 0 0
-25.4733 10.6843 -2.34439 255 0 0
-24.442 11.7146 -1.43675 255 0 0
-26.5642 11.4393 -3.08221 255 0 0
-26.7948 8.63598 -2.11699 255 0 0
-26.3818 8.98885 -1.88418 255 0 0
-25.8478 10.4828 -2.34774 255 0 0
-28.2072 9.6855 -3.11592 255 0 0
-26.7579 11.2231 -3.08571 255 0 0
-24.23 12.9859 -1.88576 255 0 0
-26.0221 9.56063 -2.34563 255 0 0
-24.9933 10.9036 -2.56665 255 0 0
-26.7818 8.56173 -2.11684 255 0 0
-26.4048 9.06661 -1.41984 255 0 0
-23.5772 12.9253 -1.44125 255 0 0
-25.345 10.4191 -1.20265 255 0 0
-23.8864 13.4655 -1.43018 255 0 0
-26.196 9.4136 -2.57845 255 0 0
-26.0965 9.44778 -1.42325 255 0 0
-26.355 9.04952 -2.8108 255 0 0
-25.6157 10.6015 -2.34563 255 0 0
-27.0939 10.9135 -3.09294 255 0 0
-24.9287 11.0164 -1.66021 255 0 0
-24.0565 12.6734 -3.0174 255 0 0
-26.8152 8.57243 -1.88301 255 0 0
-24.41 13.7607 -3.04849 255 0 0
-24.9968 10.9051 -1.65999 255 0 0
-26.4829 9.44587 -1.18188 255 0 0
-23.608 12.8695 -1.21764 255 0 0
-25.0621 10.863 -1.43237 255 0 0
-24.2912 13.9223 -3.04762 255 0 0
-26.3921 8.92257 -1.18937 255 0 0
-24.7506 11.2195 -1.2093 255 0 0
-26.8571 9.29319 -1.64569 255 0 0
-23.6332 13.1755 -1.2127 255 0 0
-24.4435 11.6441 -1.21219 255 0 0
-25.8864 12.1063 -3.06929 255 0 0
-25.0805 10.8004 -1.65955 255 0 0
-26.2568 9.3652 -2.11584 255 0 0
-24.626 11.5169 -2.11297 255 0 0
-24.277 11.92 -1.88761 255 0 0
-27.1089 10.8448 -3.0925 255 0 0
-24.8142 11.6767 -2.34191 255 0 0
-26.3542 8.97946 -1.18988 255 0 0
-25.6744 9.98958 -1.1984 255 0 0
-24.7276 13.4039 -3.05243 255 0 0
-25.2358 10.5847 -1.65882 255 0 0
-26.4274 9.49676 -1.1829 255 0 0
-26.6388 8.65547 -1.6508 255 0 0
-23.8424 12.4166 -1.44138 255 0 0
-25.7103 10.0738 -2.11475 255 0 0
-26.2 9.34497 -3.04083 255 0 0
-26.6211 9.21151 -1.18034 255 0 0
-23.6667 12.7563 -1.66481 255 0 0
-25.0255 10.9177 -1.43262 255 0 0
-24.2753 12.7887 -1.42982 255 0 0
-24.1887 12.3067 -2.56398 255 0 0
-25.9203 12.0474 -3.06951 255 0 0
-24.5255 11.4699 -2.56264 255 0 0
-25.6375 10.1155 -1.42726 255 0 0
-25.1965 10.6385 -1.20419 255 0 0
-24.2031 12.1699 -1.66226 255 0 0
-23.8336 13.1394 -2.56556 255 0 0
-26.2711 9.16022 -2.34687 255 0 0
-27.4567 10.4588 -2.85491 255 0 0
-25.37 10.4294 -1.65802 255 0 0
-24.2772 11.9201 -1.43797 255 0 0
-25.4236 10.3811 -1.42933 255 0 0
-23.6794 12.8357 -2.55972 255 0 0
-23.7198 12.7849 -2.11198 255 0 0
-25.2699 10.599 -1.88613 255 0 0
-25.171 10.6982 -2.56836 255 0 0
-24.7016 11.4098 -2.11307 255 0 0
-25.5782 10.2325 -2.11448 255 0 0
-24.6329 11.3781 -1.21049 255 0 0
-26.1506 11.8542 -3.07433 255 0 0
-25.9554 9.74624 -2.80671 255 0 0
-23.8855 12.3671 -1.66466 255 0 0
-23.6435 12.8888 -2.1119 255 0 0
-25.277 10.5316 -1.65861 255 0 0
-25.415 10.4479 -2.11419 255 0 0
-27.3396 10.266 -3.09272 255 0 0
-26.0443 9.56882 -3.0382 255 0 0
-27.2199 10.7398 -3.09491 255 0 0
-24.3225 12.1578 -1.887 255 0 0
-23.838 12.7758 -1.43797 255 0 0
-25.5403 10.2173 -1.42836 255 0 0
-26.1906 9.27166 -1.88454 255 0 0
-24.6745 11.4683 -2.11307 255 0 0
-24.8758 11.0636 -1.66058 255 0 0
-24.4816 11.5911 -1.21185 255 0 0
-24.6521 11.3869 -1.66145 255 0 0
-23.9882 13.5229 -1.88557 255 0 0
-24.1629 12.8762 -1.20333 255 0 0
-25.7525 9.94972 -1.42629 255 0 0
-24.0701 13.5691 -1.19601 255 0 0
-25.9343 9.66823 -1.88498 255 0 0
-25.6832 10.0632 -1.42678 255 0 0
-24.7287 11.9242 -2.34227 255 0 0
-23.9252 12.3158 -1.66452 255 0 0
-24.2382 11.9723 -1.88766 255 0 0
-26.5381 9.18279 -2.58356 255 0 0
-25.1039 10.8105 -1.43201 255 0 0
-23.6623 13.1182 -1.66269 255 0 0
-25.918 9.66214 -2.5748 255 0 0
-23.6059 12.8683 -1.66481 255 0 0
-23.9446 12.3977 -2.56033 255 0 0
-26.6747 9.30094 -1.6478 255 0 0
-25.2647 10.5968 -1.43067 255 0 0
-26.1181 9.52568 -2.57772 255 0 0
-24.8281 11.113 -1.66087 255 0 0
-24.0585 12.3124 -1.66306 255 0 0
-24.475 11.6591 -2.56337 255 0 0
-23.9115 12.3087 -1.44113 255 0 0
-25.3448 10.419 -2.56945 255 0 0
-23.5976 13.0824 -1.43931 255 0 0
-23.808 12.4705 -2.78202 255 0 0
-25.6322 10.1134 -1.19823 255 0 0
-25.9774 9.61418 -1.65466 255 0 0
-24.7343 11.2829 -1.43505 255 0 0
-26.566 8.77132 -1.18596 255 0 0
-25.4439 10.8142 -2.34468 255 0 0
-24.8674 11.1306 -1.43383 255 0 0
-24.3754 11.8252 -1.88742 255 0 0
-23.9652 13.3605 -2.11402 255 0 0
-25.3005 10.5414 -1.43043 255 0 0
-24.1415 12.2827 -2.11256 255 0 0
-24.2109 13.7242 -1.19022 255 0 0
-23.9694 13.4375 -1.20044 255 0 0
-23.5672 12.9926 -1.21696 255 0 0
-23.5877 12.9311 -1.2173 255 0 0
-24.3109 12.7339 -1.20146 255 0 0
-24.1059 12.4812 -1.21015 255 0 0
-24.5293 12.3339 -1.20112 255 0 0
-24.4643 12.2286 -1.20419 255 0 0
-24.2019 11.9544 -1.21457 255 0 0
-24.2722 11.9176 -1.21321 255 0 0
-24.3284 11.8024 -1.21321 255 0 0
-24.2638 12.8562 -1.65766 255 0 0
-24.4053 11.697 -1.21253 255 0 0
-24.6758 11.327 -1.20998 255 0 0
-24.7132 11.2733 -1.20964 255 0 0
-24.8302 11.114 -1.20844 255 0 0
-24.8725 11.0622 -1.20793 255 0 0
-24.9622 10.9606 -1.20674 255 0 0
-25.0664 10.7943 -1.20589 255 0 0
-25.2791 10.5324 -1.20316 255 0 0
-25.3913 10.3678 -1.20197 255 0 0
-25.4375 10.3164 -1.20129 255 0 0
-25.4782 10.2626 -1.20078 255 0 0
-25.535 10.2152 -1.19976 255 0 0
-25.6925 9.92657 -1.19857 255 0 0
-25.8501 9.77669 -1.19584 255 0 0
-26.2691 9.79303 -1.18426 255 0 0
-26.4048 9.55939 -1.1829 255 0 0
-26.4713 9.08944 -1.18562 255 0 0
-26.4631 8.87672 -1.18784 255 0 0
-26.6759 8.52789 -1.18511 255 0 0
-24.3072 11.792 -2.56142 255 0 0
-23.9718 12.268 -1.4404 255 0 0
-24.8585 13.2469 -3.05396 255 0 0
-25.9791 9.61484 -2.11511 255 0 0
-26.2955 9.2387 -2.81097 255 0 0
-26.262 9.15702 -2.57797 255 0 0
-26.1613 9.6118 -2.57918 255 0 0
-26.6931 9.37839 -1.41206 255 0 0
-25.4815 10.264 -1.65751 255 0 0
-23.74 12.5067 -2.33453 255 0 0
-24.0202 13.466 -2.11443 255 0 0
-23.7468 12.5103 -2.11154 255 0 0
-26.1893 11.7969 -3.07476 255 0 0
-23.647 12.8908 -2.33577 255 0 0
-23.6023 13.1582 -1.43846 255 0 0
-23.6183 13.0207 -1.43955 255 0 0
-23.6129 12.8722 -1.44113 255 0 0
-23.6279 12.8078 -1.4415 255 0 0
-23.6995 12.7739 -1.44052 255 0 0
-24.1834 12.8872 -1.43055 255 0 0
-24.3329 12.8928 -1.42775 255 0 0
-23.8458 12.3466 -1.44198 255 0 0
-24.053 12.2377 -1.43919 255 0 0
-24.3651 11.8201 -1.43724 255 0 0
-24.4089 11.77 -1.43688 255 0 0
-24.4855 11.6642 -1.43639 255 0 0
-24.5237 11.6111 -1.43615 255 0 0
-24.6216 11.4438 -1.43578 255 0 0
-24.6646 11.3927 -1.43542 255 0 0
-24.7877 11.2363 -1.43444 255 0 0
-24.8143 11.1775 -1.43444 255 0 0
-24.9044 11.0764 -1.43359 255 0 0
-24.9835 10.9699 -1.43298 255 0 0
-25.3417 10.4881 -1.43006 255 0 0
-25.4862 10.3361 -1.42848 255 0 0
-25.5106 10.2757 -1.42848 255 0 0
-25.7651 9.88444 -1.42653 255 0 0
-25.8281 9.76836 -1.42617 255 0 0
-26.2348 9.85115 -1.41765 255 0 0
-26.3513 9.82368 -1.41559 255 0 0
-26.0891 9.65552 -1.42191 255 0 0
-26.0295 9.56335 -1.42374 255 0 0
-26.1741 9.33573 -1.42252 255 0 0
-26.7374 9.32278 -1.41157 255 0 0
-26.404 8.99642 -1.42033 255 0 0
-26.4142 8.93004 -1.42057 255 0 0
-26.5229 8.82687 -1.41911 255 0 0
-26.5604 8.76947 -1.41875 255 0 0
-26.6518 8.6597 -1.41765 255 0 0
-26.7893 8.63419 -1.4151 255 0 0
-26.9156 8.60452 -1.41279 255 0 0
-25.6304 12.359 -3.06469 255 0 0
-26.3098 12.3804 -2.60424 255 0 0
-26.4345 8.9369 -1.65211 255 0 0
-26.6228 8.86013 -2.1166 255 0 0
-26.7151 9.24405 -1.88253 255 0 0
-24.7218 11.2772 -1.66123 255 0 0
-26.5105 9.17323 -2.81625 255 0 0
-24.0223 13.5421 -1.6562 255 0 0
-26.2182 9.35146 -2.57845 255 0 0
-25.1944 10.6376 -1.65904 255 0 0
-24.3097 12.2235 -2.79173 255 0 0
-26.5321 8.82994 -1.65138 255 0 0
-25.2032 10.7118 -2.1138 255 0 0
-25.686 12.3108 -3.06579 255 0 0
-26.6868 8.74108 -1.8833 255 0 0
-24.1735 13.703 -1.65357 255 0 0
-23.672 13.1971 -1.66211 255 0 0
-23.5856 12.9299 -1.66466 255 0 0
-23.6312 12.8095 -1.66488 255 0 0
-24.2694 12.933 -1.65715 255 0 0
-23.7644 12.4476 -1.66554 255 0 0
-24.1242 12.2739 -1.66255 255 0 0
-24.148 12.214 -1.66262 255 0 0
-24.3889 12.191 -1.66007 255 0 0
-24.226 11.9663 -1.66313 255 0 0
-24.3088 11.8641 -1.66277 255 0 0
-25.4055 10.3736 -1.65788 255 0 0
-24.4084 11.6985 -1.66255 255 0 0
-24.5281 11.542 -1.66204 255 0 0
-24.5766 11.4938 -1.66174 255 0 0
-24.7538 11.221 -1.66116 255 0 0
-24.8017 11.1718 -1.66087 255 0 0
-24.9708 10.9644 -1.65999 255 0 0
-25.106 10.7409 -1.65955 255 0 0
-25.1637 10.6951 -1.65912 255 0 0
-25.5221 10.2101 -1.65729 255 0 0
-25.5734 10.1603 -1.65693 255 0 0
-25.641 10.1169 -1.65634 255 0 0
-25.6486 10.0496 -1.65656 255 0 0
-25.6942 9.99728 -1.65627 255 0 0
-25.7233 9.93844 -1.6562 255 0 0
-25.7358 9.87322 -1.65634 255 0 0
-25.781 9.82051 -1.65605 255 0 0
-25.9028 9.79664 -1.65474 255 0 0
-26.3316 9.8875 -1.64934 255 0 0
-26.1502 9.32718 -1.65386 255 0 0
-26.2438 9.22054 -1.6532 255 0 0
-26.38 8.98823 -1.65255 255 0 0
-26.5863 8.77802 -1.65094 255 0 0
-26.8134 8.57184 -1.64904 255 0 0
-26.6451 11.3247 -3.0833 255 0 0
-24.9411 11.0219 -1.88669 255 0 0
-25.6831 10.0631 -1.88537 255 0 0
-25.1963 10.6385 -2.56836 255 0 0
-24.3317 11.8753 -2.56264 255 0 0
-24.9149 11.081 -1.88669 255 0 0
-24.9363 11.0906 -2.11341 255 0 0
-25.9909 9.54918 -2.11507 255 0 0
-24.6646 11.3927 -2.56458 255 0 0
-25.9936 9.76057 -1.88462 255 0 0
-26.1499 9.46712 -3.04061 255 0 0
-26.3047 11.6245 -3.07608 255 0 0
-24.8035 11.2435 -1.88683 255 0 0
-27.1483 11.2358 -2.61057 255 0 0
-24.4156 11.7019 -2.56264 255 0 0
-24.1833 13.7844 -1.88433 255 0 0
-24.1344 13.6808 -1.88472 255 0 0
-23.7868 13.1873 -1.88698 255 0 0
-23.6232 13.0234 -1.8879 255 0 0
-23.5718 12.9223 -1.88829 255 0 0
-23.6483 12.8188 -1.88822 255 0 0
-24.2246 12.9091 -1.88593 255 0 0
-23.9447 12.6871 -1.88739 255 0 0
-23.7468 12.5103 -1.88846 255 0 0
-23.811 12.4002 -1.88844 255 0 0
-23.9236 12.3868 -1.88805 255 0 0
-23.9945 12.3515 -1.88785 255 0 0
-24.0498 12.3079 -1.88773 255 0 0
-24.1102 12.2668 -1.88759 255 0 0
-24.2124 12.2466 -1.88725 255 0 0
-24.2413 12.1891 -1.88725 255 0 0
-24.4667 12.1574 -1.88647 255 0 0
-24.3263 11.8726 -1.88751 255 0 0
-24.4034 11.7673 -1.88742 255 0 0
-24.4365 11.712 -1.88739 255 0 0
-24.4748 11.659 -1.88734 255 0 0
-24.5775 11.5653 -1.88712 255 0 0
-24.5995 11.5045 -1.88715 255 0 0
-24.6426 11.4535 -1.88708 255 0 0
-24.6644 11.3926 -1.8871 255 0 0
-24.6807 11.3292 -1.88715 255 0 0
-24.7661 11.2974 -1.88688 255 0 0
-24.8141 11.1774 -1.8869 255 0 0
-24.8886 11.1401 -1.88669 255 0 0
-24.9994 10.9769 -1.88654 255 0 0
-25.0253 10.9176 -1.88654 255 0 0
-25.0834 10.8722 -1.88639 255 0 0
-25.1978 10.7095 -1.88622 255 0 0
-25.2339 10.6543 -1.88617 255 0 0
-25.3004 10.5413 -1.8861 255 0 0
-25.3469 10.4902 -1.886 255 0 0
-25.4181 10.3788 -1.88591 255 0 0
-25.4643 10.3273 -1.88581 255 0 0
-25.5104 10.2756 -1.88571 255 0 0
-25.5456 10.2195 -1.88566 255 0 0
-25.7414 9.94545 -1.88532 255 0 0
-25.7649 9.88439 -1.88532 255 0 0
-25.8321 9.83995 -1.88513 255 0 0
-25.9187 9.59249 -1.88515 255 0 0
-26.0129 9.55726 -1.88484 255 0 0
-26.0685 9.50759 -1.88469 255 0 0
-26.0854 9.44376 -1.88472 255 0 0
-26.2567 9.22506 -1.88435 255 0 0
-26.2895 9.16663 -1.8843 255 0 0
-26.3161 9.03616 -1.88437 255 0 0
-26.4751 8.95065 -1.88386 255 0 0
-26.5673 8.84164 -1.88364 255 0 0
-26.6778 8.59826 -1.88352 255 0 0
-24.484 11.7347 -2.11283 255 0 0
-25.289 13.4763 -2.59548 255 0 0
-25.8321 9.83995 -2.11487 255 0 0
-24.8195 11.2507 -2.11324 255 0 0
-25.374 10.5014 -2.11412 255 0 0
-26.27 10.2931 -2.35176 255 0 0
-24.1904 13.7126 -2.11555 255 0 0
-24.0954 13.5833 -2.11494 255 0 0
-24.2631 13.4513 -2.11528 255 0 0
-23.9462 13.2015 -2.11363 255 0 0
-23.7567 13.0237 -2.11258 255 0 0
-23.6431 12.816 -2.11176 255 0 0
-24.2814 12.9394 -2.11434 255 0 0
-24.2448 12.8462 -2.11402 255 0 0
-23.7245 12.4268 -2.11129 255 0 0
-23.7747 12.3813 -2.11139 255 0 0
-23.8664 12.3572 -2.11168 255 0 0
-23.9581 12.3327 -2.11198 255 0 0
-24.0602 12.3132 -2.11232 255 0 0
-24.1653 12.2228 -2.11254 255 0 0
-24.2361 12.1865 -2.11273 255 0 0
-24.3435 12.1683 -2.1131 255 0 0
-24.4614 12.1548 -2.11351 255 0 0
-24.3526 11.8855 -2.11261 255 0 0
-24.3965 11.8354 -2.11268 255 0 0
-24.5118 11.6767 -2.11283 255 0 0
-24.55 11.6235 -2.11288 255 0 0
-24.5934 11.5728 -2.11295 255 0 0
-24.7392 11.3561 -2.11312 255 0 0
-24.7874 11.3071 -2.11322 255 0 0
-24.8514 11.1943 -2.11327 255 0 0
-24.8993 11.1449 -2.11336 255 0 0
-24.984 11.0409 -2.11351 255 0 0
-25.0575 10.9316 -2.11361 255 0 0
-25.0995 10.8792 -2.11368 255 0 0
-25.2501 10.6612 -2.1139 255 0 0
-25.3328 10.5548 -2.11404 255 0 0
-25.4914 10.3383 -2.11431 255 0 0
-25.5485 10.2909 -2.11446 255 0 0
-25.6024 10.1718 -2.11448 255 0 0
-25.7341 10.0128 -2.11475 255 0 0
-25.7868 9.89278 -2.11477 255 0 0
-26.1785 9.90088 -2.11631 255 0 0
-25.8904 9.65187 -2.11482 255 0 0
-26.0299 9.49355 -2.11514 255 0 0
-26.1405 9.46369 -2.11553 255 0 0
-26.2347 9.28729 -2.11565 255 0 0
-26.2125 9.20953 -2.11546 255 0 0
-26.3942 9.133 -2.11606 255 0 0
-26.5044 9.10081 -2.11645 255 0 0
-26.624 8.93068 -2.1167 255 0 0
-26.7383 8.82819 -2.11701 255 0 0
-26.9817 8.83767 -2.11799 255 0 0
-23.8309 12.4106 -3.00536 255 0 0
-25.9616 9.88929 -2.34636 255 0 0
-26.0887 9.51496 -2.34621 255 0 0
-23.9388 13.2715 -2.34125 255 0 0
-23.8164 13.1299 -2.33906 255 0 0
-23.7396 13.0143 -2.33753 255 0 0
-25.2789 10.5324 -2.56909 255 0 0
-23.6981 12.8458 -2.33607 255 0 0
-24.3987 13.0762 -2.34512 255 0 0
-24.3624 12.9826 -2.34417 255 0 0
-24.2276 12.837 -2.34183 255 0 0
-23.7592 12.4449 -2.33439 255 0 0
-23.9583 12.4048 -2.33636 255 0 0
-24.0033 12.356 -2.33658 255 0 0
-24.1346 12.2792 -2.3376 255 0 0
-24.1794 12.2299 -2.33782 255 0 0
-24.3052 12.1491 -2.33877 255 0 0
-24.5646 12.2061 -2.34198 255 0 0
-24.436 12.07 -2.33979 255 0 0
-24.6275 12.092 -2.34205 255 0 0
-24.6929 12.0516 -2.34256 255 0 0
-24.4738 11.8729 -2.33913 255 0 0
-24.7569 11.8655 -2.34227 255 0 0
-24.7494 11.7179 -2.34139 255 0 0
-24.9054 11.6476 -2.34278 255 0 0
-24.8746 11.5613 -2.34198 255 0 0
-24.9285 11.5146 -2.34234 255 0 0
-25.0355 11.4921 -2.34344 255 0 0
-24.9881 11.3987 -2.34242 255 0 0
-25.2395 11.2254 -2.34439 255 0 0
-25.2661 11.1655 -2.34439 255 0 0
-25.4201 11.0181 -2.34541 255 0 0
-25.3105 10.8284 -2.34322 255 0 0
-25.4641 10.7515 -2.34461 255 0 0
-25.5526 10.6464 -2.34512 255 0 0
-25.6786 10.5563 -2.34614 255 0 0
-25.7361 10.5086 -2.34658 255 0 0
-25.878 10.4237 -2.34782 255 0 0
-25.9244 10.371 -2.34811 255 0 0
-27.1183 10.5514 -2.36278 255 0 0
-27.2033 10.5103 -2.36358 255 0 0
-27.1624 10.273 -2.36205 255 0 0
-25.9424 9.74137 -2.34548 255 0 0
-25.9216 9.66347 -2.3449 255 0 0
-25.9609 9.60808 -2.34512 255 0 0
-26.2053 9.34685 -2.34687 255 0 0
-26.2108 9.27883 -2.34665 255 0 0
-26.2493 9.22248 -2.34687 255 0 0
-26.326 9.10939 -2.34731 255 0 0
-27.0255 8.92304 -2.35483 255 0 0
-27.119 8.88262 -2.35577 255 0 0
-27.4092 10.6646 -2.61118 255 0 0
-23.8066 12.4698 -3.00558 255 0 0
-26.2348 9.35739 -2.81046 255 0 0
-24.8356 11.1871 -2.56604 255 0 0
-23.7458 12.7989 -2.56057 255 0 0
-25.2157 13.5141 -2.59451 255 0 0
-23.7483 12.5831 -2.5585 255 0 0
-23.7211 12.4968 -2.55716 255 0 0
-23.8476 12.4193 -2.55875 255 0 0
-24.0416 12.3757 -2.56191 255 0 0
-24.1282 12.348 -2.56325 255 0 0
-24.2544 12.2678 -2.56483 255 0 0
-24.3514 12.2445 -2.56641 255 0 0
-24.3961 12.1945 -2.56677 255 0 0
-24.4274 12.0657 -2.56617 255 0 0
-24.4036 11.7674 -2.563 255 0 0
-24.4391 11.571 -2.56191 255 0 0
-24.5247 11.5404 -2.56325 255 0 0
-24.5951 11.4314 -2.56361 255 0 0
-24.6969 11.3366 -2.56471 255 0 0
-24.7556 11.2926 -2.56544 255 0 0
-24.7397 11.2146 -2.56446 255 0 0
-24.9365 11.0906 -2.56714 255 0 0
-24.8985 11.0031 -2.56568 255 0 0
-24.9138 10.9393 -2.56544 255 0 0
-25.1211 10.8886 -2.56896 255 0 0
-25.1079 10.7417 -2.5675 255 0 0
-25.3749 10.3611 -2.56957 255 0 0
-25.4482 10.3207 -2.57067 255 0 0
-25.6026 10.1719 -2.57249 255 0 0
-27.3961 10.5848 -2.61033 255 0 0
-27.4594 10.5345 -2.61118 255 0 0
-25.9882 9.75855 -2.57687 255 0 0
-26.1406 9.46373 -2.57772 255 0 0
-26.2733 9.23091 -2.5787 255 0 0
-26.438 9.07801 -2.58089 255 0 0
-24.3394 13.8734 -3.04827 255 0 0
-26.1236 9.52771 -2.8091 255 0 0
-25.8311 12.1552 -3.0682 255 0 0
-25.0103 14.1774 -2.83652 255 0 0
-25.0847 14.141 -2.83788 255 0 0
-25.3175 13.646 -2.83686 255 0 0
-25.2579 13.4598 -2.83277 255 0 0
-23.9708 12.4113 -2.78543 255 0 0
-24.0418 12.3758 -2.78679 255 0 0
-24.1732 12.2988 -2.78917 255 0 0
-27.4778 10.6163 -2.85712 255 0 0
-27.5362 10.4144 -2.85661 255 0 0
-25.94 9.67036 -2.80552 255 0 0
-25.9903 9.61898 -2.80637 255 0 0
-26.057 9.57348 -2.80773 255 0 0
-26.2452 9.50161 -2.81216 255 0 0
-26.1961 9.41363 -2.80995 255 0 0
-24.2687 12.2751 -3.01762 255 0 0
-26.5048 11.4883 -3.08089 255 0 0
-24.7696 13.3508 -3.05287 255 0 0
-25.5347 12.4624 -3.06316 255 0 0
-24.4681 13.7171 -3.04959 255 0 0
-24.4954 13.6562 -3.04937 255 0 0
-24.6804 13.4541 -3.05178 255 0 0
-24.8219 13.303 -3.05375 255 0 0
-24.8433 13.1633 -3.05199 255 0 0
-24.1614 12.2928 -3.01434 255 0 0
-25.4349 12.6385 -3.06272 255 0 0
-25.4648 12.5782 -3.06272 255 0 0
-25.5365 12.5384 -3.06447 255 0 0
-25.5747 12.4069 -3.0636 255 0 0
-26.0019 12.0104 -3.0717 255 0 0
-26.041 11.9536 -3.07214 255 0 0
-26.0746 11.8943 -3.07236 255 0 0
-26.2771 11.6869 -3.07608 255 0 0
-26.3965 11.5904 -3.0787 255 0 0
-26.833 11.1799 -3.08768 255 0 0
-26.8966 11.057 -3.08812 255 0 0
-26.9606 11.0086 -3.08965 255 0 0
-27.1345 10.7805 -3.0925 255 0 0
-27.2725 10.6859 -3.096 255 0 0
-27.2814 10.6148 -3.09534 255 0 0
-27.2846 10.5417 -3.09447 255 0 0
-27.3972 10.3618 -3.096 255 0 0
-25.9658 9.67995 -3.03689 255 0 0
-25.9667 9.61023 -3.03601 255 0 0
-26.1833 9.40905 -3.04105 255 0 0
-26.2496 9.22257 -3.04105 255 0 0
-28.0394 9.77677 -3.11111 255 0 0
-28.1731 9.74853 -3.11549 255 0 0
