ply
format ascii 1.0
comment Created by Open3D
element vertex 663
property double x
property double y
property double z
property uchar red
property uchar green
property uchar blue
end_header
-12.9651 5.58316 -5.03729 255 0 0
-12.538 4.74196 -5.001 255 0 0
-14.1972 4.50156 -4.5624 255 0 0
-13.2758 4.7352 -4.91039 255 0 0
-13.2181 4.29482 -5.23303 255 0 0
-15.9341 4.63954 -4.14981 255 0 0
-14.6415 4.26318 -5.28116 255 0 0
-13.9137 4.1948 -4.87496 255 0 0
-14.2537 5.00793 -4.3414 255 0 0
-12.5797 5.5592 -5.07903 255 0 0
-12.4441 5.01248 -5.23851 255 0 0
-13.9147 4.23112 -4.87724 255 0 0
-12.9102 4.39879 -5.05345 255 0 0
-13.1141 4.3299 -5.09182 255 0 0
-15.8774 5.15889 -4.02167 255 0 0
-12.6896 5.89795 -5.13276 255 0 0
-14.0361 5.46126 -4.59119 255 0 0
-12.958 4.86571 -4.97817 255 0 0
-14.7128 4.68426 -4.13078 255 0 0
-14.2983 5.60236 -4.37996 255 0 0
-13.9639 4.61045 -4.78239 255 0 0
-15.6473 4.55603 -4.38718 255 0 0
-13.7327 5.49373 -4.9261 255 0 0
-13.3468 4.6893 -4.92105 255 0 0
-12.5165 5.0762 -5.26049 255 0 0
-12.4164 5.55757 -5.28385 255 0 0
-15.4403 5.05736 -4.10468 255 0 0
-13.9078 4.28312 -4.87894 255 0 0
-15.6945 4.73168 -3.98506 255 0 0
-15.3164 5.79276 -4.12123 255 0 0
-15.8757 5.36723 -4.02941 255 0 0
-13.4775 4.55646 -4.93763 255 0 0
-12.8098 4.94919 -4.95477 255 0 0
-12.5936 4.90003 -5.0253 255 0 0
-14.6389 4.91044 -4.13078 255 0 0
-15.6059 4.70496 -4.11145 255 0 0
-16.0198 4.41825 -5.00143 255 0 0
-15.9159 4.55248 -4.28447 255 0 0
-13.8472 4.39057 -4.87383 255 0 0
-14.887 5.79234 -4.20442 255 0 0
-14.2527 5.70177 -4.37906 255 0 0
-12.4501 5.39641 -5.2756 255 0 0
-12.4963 4.89631 -5.23988 255 0 0
-13.7543 5.6543 -4.94201 255 0 0
-12.5374 4.77575 -5.00356 255 0 0
-12.5636 4.64978 -5.11628 255 0 0
-13.7398 5.15929 -4.77695 255 0 0
-12.3491 5.35262 -5.13088 255 0 0
-16.1555 4.57958 -4.31728 255 0 0
-13.0909 4.46037 -4.97571 255 0 0
-13.8509 4.28358 -4.7432 255 0 0
-13.3347 4.79187 -4.92578 255 0 0
-14.9952 4.36615 -5.08974 255 0 0
-16.3291 4.37881 -5.05347 255 0 0
-14.1192 4.84812 -4.56836 255 0 0
-13.7586 5.42855 -4.9261 255 0 0
-15.7641 4.99839 -4.00266 255 0 0
-14.5459 5.38342 -4.14039 255 0 0
-14.3362 5.19016 -4.36292 255 0 0
-13.9826 5.06214 -4.55843 255 0 0
-12.4253 5.281 -5.25911 255 0 0
-15.4091 5.3319 -4.1122 255 0 0
-13.7647 4.8728 -4.7628 255 0 0
-14.4465 5.07566 -4.24291 255 0 0
-13.9228 6.11332 -4.8771 255 0 0
-13.7683 5.24461 -4.91474 255 0 0
-13.8958 5.21786 -4.68089 255 0 0
-14.7026 5.56061 -4.1692 255 0 0
-14.401 4.3417 -5.10576 255 0 0
-12.3179 5.02969 -5.09506 255 0 0
-13.5621 5.95492 -5.0584 255 0 0
-12.3139 4.82482 -5.07648 255 0 0
-15.7491 5.15852 -4.00688 255 0 0
-13.788 5.28959 -4.92156 255 0 0
-14.25 5.62243 -4.50467 255 0 0
-12.4336 4.56818 -5.31436 255 0 0
-13.0163 5.75214 -5.06192 255 0 0
-12.4342 4.70271 -5.0924 255 0 0
-13.9634 4.57361 -4.65383 255 0 0
-14.1624 4.71328 -4.44042 255 0 0
-12.7918 5.90858 -5.1545 255 0 0
-15.6676 5.79855 -4.16411 255 0 0
-13.4166 4.39452 -4.91513 255 0 0
-16.1548 4.29107 -5.30678 255 0 0
-13.6263 4.39175 -5.0804 255 0 0
-14.0755 5.17141 -4.45176 255 0 0
-12.4032 4.89378 -5.10169 255 0 0
-12.5983 5.85552 -5.2317 255 0 0
-13.7743 4.93141 -4.76824 255 0 0
-12.5028 5.13982 -5.26324 255 0 0
-14.2273 5.84874 -4.51506 255 0 0
-14.5264 5.77133 -4.28958 255 0 0
-14.1483 4.67135 -4.5634 255 0 0
-12.5006 4.93219 -5.244 255 0 0
-15.7915 4.31502 -5.2386 255 0 0
-12.8963 4.94751 -4.97201 255 0 0
-13.1119 4.39824 -4.97571 255 0 0
-15.7882 4.51594 -4.54496 255 0 0
-12.364 5.08273 -5.10965 255 0 0
-14.2008 4.53977 -4.43759 255 0 0
-12.8554 4.862 -4.95723 255 0 0
-12.8745 4.35259 -5.16139 255 0 0
-13.8599 4.28635 -5.24788 255 0 0
-16.25 4.5648 -4.32929 255 0 0
-13.7623 5.8878 -4.96133 255 0 0
-13.5217 5.97547 -5.05248 255 0 0
-14.7435 5.6161 -4.17721 255 0 0
-14.0186 5.91896 -4.618 255 0 0
-16.4645 4.54092 -4.50174 255 0 0
-13.6767 5.08016 -4.88633 255 0 0
-14.604 5.3263 -4.14519 255 0 0
-14.4291 4.27564 -5.23805 255 0 0
-13.9023 4.81051 -4.78348 255 0 0
-12.3579 4.67384 -5.30583 255 0 0
-14.3395 5.50118 -4.2497 255 0 0
-13.1682 5.93157 -5.10749 255 0 0
-13.8321 4.67634 -4.8886 255 0 0
-12.7925 4.56281 -5.04065 255 0 0
-15.7685 5.7087 -4.17238 255 0 0
-14.7781 4.26496 -5.30949 255 0 0
-15.9138 4.55188 -4.42451 255 0 0
-14.6052 4.93771 -4.12758 255 0 0
-14.1633 5.08962 -4.33243 255 0 0
-16.1086 4.27877 -5.15359 255 0 0
-12.4118 5.64403 -5.2914 255 0 0
-14.3757 5.83019 -4.40417 255 0 0
-14.1061 4.32588 -5.04656 255 0 0
-14.2856 4.86742 -4.21066 255 0 0
-14.0349 6.282 -5.04201 255 0 0
-15.4824 4.54787 -4.22683 255 0 0
-14.339 4.96163 -4.22254 255 0 0
-15.7722 4.79594 -3.99633 255 0 0
-13.3681 4.73241 -4.92815 255 0 0
-13.881 4.51022 -4.63614 255 0 0
-15.7989 4.4785 -4.54496 255 0 0
-15.7608 4.83332 -3.99633 255 0 0
-14.1202 5.68764 -4.61899 255 0 0
-12.938 4.78832 -4.96832 255 0 0
-13.9542 4.9399 -4.67361 255 0 0
-15.4648 4.94387 -4.10318 255 0 0
-12.8972 4.32622 -5.28385 255 0 0
-14.3378 5.19075 -4.23357 255 0 0
-14.7596 4.37357 -5.04542 255 0 0
-14.2804 4.67743 -4.32884 255 0 0
-14.2723 4.7123 -4.45743 255 0 0
-15.3463 5.22881 -4.10017 255 0 0
-14.4255 5.33885 -4.25309 255 0 0
-14.5725 5.8899 -4.30231 255 0 0
-13.8591 4.72209 -4.89656 255 0 0
-15.8553 5.31848 -4.02519 255 0 0
-14.6514 4.79897 -4.12758 255 0 0
-14.1121 5.80137 -4.75583 255 0 0
-14.3252 5.07123 -4.22594 255 0 0
-12.3439 4.90422 -5.08975 255 0 0
-14.0562 4.53032 -4.66736 255 0 0
-15.5657 5.55193 -4.14079 255 0 0
-14.1077 4.88158 -4.56836 255 0 0
-12.4684 5.68765 -5.18792 255 0 0
-15.9367 5.01157 -4.02307 255 0 0
-16.1459 4.65971 -4.17689 255 0 0
-13.4821 4.27481 -5.29007 255 0 0
-15.9837 5.15154 -4.03363 255 0 0
-15.6385 4.51326 -4.52254 255 0 0
-13.9739 5.28503 -4.57035 255 0 0
-13.4062 4.42632 -4.91513 255 0 0
-14.1919 4.72311 -4.57332 255 0 0
-14.1798 5.88821 -4.51034 255 0 0
-13.2092 4.39606 -4.99541 255 0 0
-14.0779 4.50049 -4.66945 255 0 0
-15.4091 4.32856 -5.02841 255 0 0
-14.2301 5.84989 -4.38444 255 0 0
-14.7623 4.75791 -4.14039 255 0 0
-14.0604 4.82792 -4.68506 255 0 0
-14.0651 4.7923 -4.55645 255 0 0
-12.6354 4.40572 -5.23026 255 0 0
-12.4667 4.68124 -5.09771 255 0 0
-12.4939 5.10155 -5.25774 255 0 0
-14.6789 4.616 -4.25394 255 0 0
-15.33 4.26716 -5.28574 255 0 0
-14.5707 5.00314 -4.12598 255 0 0
-14.4684 5.47206 -4.26582 255 0 0
-12.6625 4.68638 -5.02275 255 0 0
-13.2269 4.29768 -5.11357 255 0 0
-12.684 4.45642 -5.24537 255 0 0
-15.6893 4.68957 -4.12123 255 0 0
-14.1657 4.71437 -4.6965 255 0 0
-14.8219 4.39205 -4.92499 255 0 0
-15.4732 5.39519 -4.12273 255 0 0
-14.0695 5.01828 -4.44231 255 0 0
-13.338 4.90045 -4.93407 255 0 0
-12.35 5.28358 -5.24263 255 0 0
-14.2387 4.29279 -5.19987 255 0 0
-12.588 5.27982 -5.05601 255 0 0
-13.9137 4.26687 -5.25812 255 0 0
-13.7941 4.48196 -4.74429 255 0 0
-13.6571 5.16522 -4.8886 255 0 0
-12.3298 5.00047 -5.09506 255 0 0
-12.6361 5.90954 -5.24497 255 0 0
-14.0673 5.09281 -4.44609 255 0 0
-13.9434 5.96527 -4.73917 255 0 0
-12.9621 5.07879 -4.99541 255 0 0
-15.8418 4.57193 -4.41518 255 0 0
-15.4195 4.98989 -4.09942 255 0 0
-14.3392 5.15282 -4.23188 255 0 0
-14.1448 5.27313 -4.59715 255 0 0
-13.7058 5.29535 -4.90678 255 0 0
-14.5917 5.04906 -4.13078 255 0 0
-15.3051 4.57472 -4.20442 255 0 0
-13.6993 4.41528 -4.97196 255 0 0
-14.3967 5.56231 -4.26073 255 0 0
-13.7452 4.35823 -5.10257 255 0 0
-13.4006 4.99569 -4.95302 255 0 0
-15.3997 5.28781 -4.10919 255 0 0
-13.9256 5.28566 -4.69026 255 0 0
-14.2022 5.40991 -4.48483 255 0 0
-12.6712 4.28387 -5.22889 255 0 0
-13.0032 4.3275 -5.18792 255 0 0
-14.9224 4.46032 -4.67955 255 0 0
-14.3648 5.6284 -4.25988 255 0 0
-14.5046 4.33546 -5.12589 255 0 0
-12.3655 5.49962 -5.14812 255 0 0
-15.77 5.20679 -4.01111 255 0 0
-14.5075 5.25217 -4.12918 255 0 0
-14.3074 4.76154 -4.33691 255 0 0
-15.6157 4.54682 -4.24444 255 0 0
-13.4554 4.69162 -4.94236 255 0 0
-14.6045 4.97606 -4.12918 255 0 0
-12.8761 5.18652 -4.98679 255 0 0
-12.7139 4.3993 -5.12955 255 0 0
-14.2573 4.82007 -4.33243 255 0 0
-14.1593 4.6378 -4.5634 255 0 0
-14.2412 4.77705 -4.32795 255 0 0
-15.3599 5.15228 -4.09866 255 0 0
-14.4691 4.7013 -4.22848 255 0 0
-12.5636 4.53158 -5.22408 255 0 0
-12.5121 5.07439 -5.02275 255 0 0
-13.9291 6.19502 -5.01587 255 0 0
-16.3809 4.39271 -4.91782 255 0 0
-12.9565 5.68905 -5.04468 255 0 0
-14.9275 4.61653 -4.28874 255 0 0
-14.4019 5.36899 -4.2514 255 0 0
-15.5579 5.59078 -4.14154 255 0 0
-13.8576 4.86875 -4.77912 255 0 0
-14.172 5.59165 -4.36112 255 0 0
-15.8382 4.5709 -4.27486 255 0 0
-14.282 4.84728 -4.46593 255 0 0
-14.3655 5.00896 -4.22848 255 0 0
-12.9828 4.6654 -4.96832 255 0 0
-13.4906 4.38336 -5.05207 255 0 0
-14.2599 5.50947 -4.3692 255 0 0
-14.2954 5.75819 -4.51979 255 0 0
-16.3949 4.56358 -4.3485 255 0 0
-14.082 4.50182 -4.54354 255 0 0
-14.4965 5.7993 -4.28704 255 0 0
-15.6598 4.92448 -4.1265 255 0 0
-14.567 5.1374 -4.13158 255 0 0
-13.9474 5.16191 -4.6861 255 0 0
-14.6509 5.26484 -4.14839 255 0 0
-14.2261 5.1122 -4.4716 255 0 0
-16.0318 4.99972 -4.03363 255 0 0
-14.3355 4.84652 -4.2166 255 0 0
-12.3255 5.10113 -5.10302 255 0 0
-15.3654 5.72817 -4.12424 255 0 0
-14.3803 4.78581 -4.22 255 0 0
-15.4336 4.69296 -4.08964 255 0 0
-13.8766 4.21952 -4.74429 255 0 0
-16.3654 4.43017 -4.77205 255 0 0
-13.7913 4.30099 -4.7334 255 0 0
-14.9002 5.8382 -4.20842 255 0 0
-14.1248 5.22756 -4.59119 255 0 0
-14.0671 5.93943 -4.75791 255 0 0
-12.4859 4.55382 -5.20828 255 0 0
-13.6544 5.23834 -4.76715 255 0 0
-15.7576 5.24416 -4.01111 255 0 0
-15.8685 5.07292 -4.01744 255 0 0
-15.4439 4.77621 -3.95761 255 0 0
-15.8171 4.72775 -3.99914 255 0 0
-15.884 4.70675 -4.00618 255 0 0
-15.9508 4.68546 -4.01322 255 0 0
-15.9228 4.63625 -4.00829 255 0 0
-16.1963 4.67424 -4.04138 255 0 0
-16.2967 4.6614 -4.05264 255 0 0
-13.8375 4.75138 -4.76824 255 0 0
-15.2359 4.31891 -5.13292 255 0 0
-12.5726 5.64535 -5.08543 255 0 0
-15.3409 5.76051 -4.12273 255 0 0
-15.6595 5.75337 -4.1611 255 0 0
-15.444 5.63266 -4.1295 255 0 0
-15.6171 5.52857 -4.14605 255 0 0
-15.548 5.46266 -4.13477 255 0 0
-15.3916 5.20356 -4.10468 255 0 0
-15.35 5.10851 -4.09565 255 0 0
-15.4834 5.11216 -4.1122 255 0 0
-15.4045 4.88437 -4.0934 255 0 0
-15.3835 4.71762 -4.08437 255 0 0
-15.8451 4.69525 -4.14079 255 0 0
-15.9621 4.68876 -4.15508 255 0 0
-16.2407 4.64537 -4.18818 255 0 0
-16.3466 4.63377 -4.20096 255 0 0
-16.4862 4.63112 -4.21827 255 0 0
-12.3638 5.28951 -5.12822 255 0 0
-14.8141 5.72358 -4.19161 255 0 0
-14.8439 5.69467 -4.19402 255 0 0
-14.7971 5.55632 -4.18121 255 0 0
-14.6961 5.47867 -4.1644 255 0 0
-14.6131 5.36892 -4.14839 255 0 0
-14.5322 5.18332 -4.12918 255 0 0
-14.5797 5.08364 -4.13078 255 0 0
-14.557 4.84458 -4.11717 255 0 0
-14.618 4.82642 -4.12438 255 0 0
-14.8062 4.81082 -4.14839 255 0 0
-14.7903 4.65104 -4.13959 255 0 0
-14.945 4.58314 -4.1572 255 0 0
-15.0391 4.573 -4.1692 255 0 0
-15.1887 4.57919 -4.18921 255 0 0
-15.4438 4.57632 -4.22283 255 0 0
-12.4444 4.53868 -5.31436 255 0 0
-14.4646 5.7071 -4.2777 255 0 0
-14.5023 5.64265 -4.2794 255 0 0
-14.5041 5.52491 -4.27346 255 0 0
-14.3892 5.40312 -4.2514 255 0 0
-14.3728 5.28066 -4.24291 255 0 0
-14.3472 5.23267 -4.23697 255 0 0
-14.395 5.13438 -4.23867 255 0 0
-14.4001 4.94455 -4.23018 255 0 0
-14.4074 4.83279 -4.22594 255 0 0
-14.4303 4.74549 -4.22509 255 0 0
-14.4582 4.65987 -4.22509 255 0 0
-14.5354 4.64675 -4.23527 255 0 0
-14.5574 4.61577 -4.23697 255 0 0
-14.7672 4.60533 -4.26582 255 0 0
-15.016 4.6049 -4.30062 255 0 0
-16.476 4.58616 -4.50513 255 0 0
-16.078 4.31151 -5.29314 255 0 0
-14.066 5.13011 -4.44798 255 0 0
-14.1595 5.82085 -4.63388 255 0 0
-14.3941 5.83768 -4.53963 255 0 0
-12.6004 5.42609 -5.07136 255 0 0
-14.3178 5.92565 -4.40148 255 0 0
-14.3136 5.84457 -4.3961 255 0 0
-14.2928 5.75717 -4.38803 255 0 0
-14.2501 5.66155 -4.37637 255 0 0
-14.2792 5.55585 -4.37458 255 0 0
-14.3224 5.37805 -4.37099 255 0 0
-14.2538 5.31376 -4.35754 255 0 0
-14.1917 5.06186 -4.33512 255 0 0
-14.2255 5.03592 -4.33871 255 0 0
-14.2382 4.96459 -4.33691 255 0 0
-14.1953 4.9119 -4.32795 255 0 0
-14.2507 4.89326 -4.33512 255 0 0
-14.1856 4.83333 -4.32256 255 0 0
-14.2857 4.71672 -4.33153 255 0 0
-14.2089 4.61674 -4.31539 255 0 0
-14.2418 4.59014 -4.31898 255 0 0
-14.3133 4.57574 -4.32884 255 0 0
-14.4013 4.56627 -4.3414 255 0 0
-14.7593 4.52619 -4.39251 255 0 0
-14.9139 4.53495 -4.41583 255 0 0
-16.3435 4.50754 -4.62746 255 0 0
-16.4044 4.4825 -4.63553 255 0 0
-14.8636 4.36608 -5.06474 255 0 0
-12.424 5.59635 -5.28934 255 0 0
-12.8074 5.80564 -5.14811 255 0 0
-14.2849 5.6754 -4.51317 255 0 0
-14.2495 5.54432 -4.49994 255 0 0
-14.1818 5.47928 -4.48577 255 0 0
-14.157 5.43115 -4.47916 255 0 0
-14.1645 5.28049 -4.4716 255 0 0
-14.0903 5.2148 -4.45648 255 0 0
-14.1576 5.0119 -4.45554 255 0 0
-14.2131 4.99364 -4.4631 255 0 0
-14.1812 4.94471 -4.45554 255 0 0
-14.1383 4.89218 -4.44609 255 0 0
-14.2045 4.87741 -4.45554 255 0 0
-14.3155 4.80197 -4.46877 255 0 0
-14.1736 4.64247 -4.43853 255 0 0
-14.1076 4.58385 -4.42531 255 0 0
-14.135 4.55571 -4.42814 255 0 0
-14.2776 4.52705 -4.44893 255 0 0
-14.8496 4.47694 -4.53585 255 0 0
-15.783 4.43359 -4.6804 255 0 0
-12.4175 4.42906 -5.29873 255 0 0
-14.1337 5.92811 -4.63686 255 0 0
-14.1051 5.87683 -4.62892 255 0 0
-14.087 5.83013 -4.62296 255 0 0
-14.0338 5.49874 -4.59318 255 0 0
-14.0961 5.3695 -4.59517 255 0 0
-14.0296 5.26811 -4.57829 255 0 0
-13.9638 5.13038 -4.55942 255 0 0
-13.9109 5.07353 -4.54751 255 0 0
-14 5.03092 -4.55942 255 0 0
-14.0282 5.00353 -4.5624 255 0 0
-14.0726 4.98181 -4.56836 255 0 0
-14.0354 4.93121 -4.55942 255 0 0
-14.0634 4.90362 -4.5624 255 0 0
-14.1311 4.77742 -4.56637 255 0 0
-14.1205 4.73656 -4.5624 255 0 0
-14.022 4.53767 -4.5356 255 0 0
-15.5894 4.41913 -4.78777 255 0 0
-15.7603 4.38694 -4.81457 255 0 0
-16.2367 4.39535 -4.894 255 0 0
-12.5638 5.76716 -5.21578 255 0 0
-12.5573 4.85162 -5.01379 255 0 0
-13.7805 5.23057 -4.78892 255 0 0
-12.908 4.91692 -4.97201 255 0 0
-14.0794 5.98403 -4.76311 255 0 0
-13.8941 5.3681 -4.69026 255 0 0
-13.9175 5.33927 -4.69234 255 0 0
-13.8271 5.15471 -4.66528 255 0 0
-13.8731 5.09703 -4.66945 255 0 0
-13.9446 5.08584 -4.68089 255 0 0
-13.9187 5.03903 -4.67361 255 0 0
-13.9903 5.02745 -4.68506 255 0 0
-14.0022 4.99427 -4.68506 255 0 0
-13.9744 4.89117 -4.67413 255 0 0
-13.989 4.84052 -4.67361 255 0 0
-14.1209 4.8113 -4.69442 255 0 0
-14.0831 4.76119 -4.68506 255 0 0
-14.0343 4.70763 -4.67361 255 0 0
-14.0674 4.64464 -4.67569 255 0 0
-14.906 4.45544 -4.80994 255 0 0
-15.5832 4.41737 -4.92546 255 0 0
-15.8205 4.40369 -4.96605 255 0 0
-16.108 4.40152 -5.016 255 0 0
-16.2241 4.39192 -5.03578 255 0 0
-13.347 4.26683 -5.25956 255 0 0
-13.7905 4.91876 -4.89656 255 0 0
-12.9447 5.10741 -4.99418 255 0 0
-13.9048 4.33638 -5.00748 255 0 0
-13.4024 5.65879 -5.00393 255 0 0
-12.6778 4.96739 -5.04833 255 0 0
-13.7569 4.29028 -5.22614 255 0 0
-14.0447 4.19799 -4.89996 255 0 0
-13.7305 5.60647 -4.93406 255 0 0
-13.9609 6.16957 -4.88798 255 0 0
-13.7949 6.01818 -4.8477 255 0 0
-13.7968 5.94132 -4.84226 255 0 0
-13.8796 5.93801 -4.85641 255 0 0
-13.8407 5.88258 -4.84553 255 0 0
-13.6972 5.36682 -4.78348 255 0 0
-13.8761 5.399 -4.81722 255 0 0
-13.701 5.29351 -4.77912 255 0 0
-13.6657 5.09454 -4.75953 255 0 0
-13.7048 5.07211 -4.76497 255 0 0
-13.7059 5.03563 -4.7628 255 0 0
-13.7178 5.00312 -4.7628 255 0 0
-13.7838 4.99017 -4.77368 255 0 0
-13.8094 4.81505 -4.76715 255 0 0
-13.9304 4.74639 -4.78457 255 0 0
-13.9307 4.70966 -4.78239 255 0 0
-14.0618 4.71687 -4.80634 255 0 0
-13.931 4.63628 -4.77804 255 0 0
-13.8654 4.54151 -4.76062 255 0 0
-13.8154 4.43462 -4.74538 255 0 0
-13.814 4.34403 -4.73994 255 0 0
-13.817 4.23723 -4.73449 255 0 0
-13.9031 4.19159 -4.74756 255 0 0
-13.9901 4.18168 -4.7628 255 0 0
-15.1458 4.37106 -4.98269 255 0 0
-15.228 4.3557 -4.99684 255 0 0
-15.3656 4.35567 -5.02188 255 0 0
-15.5967 4.34139 -5.06324 255 0 0
-15.7844 4.35334 -5.09808 255 0 0
-15.8557 4.33259 -5.11005 255 0 0
-15.9715 4.32354 -5.13073 255 0 0
-16.5407 4.30968 -5.23415 255 0 0
-16.5675 4.27476 -5.23741 255 0 0
-13.7718 4.72882 -4.88065 255 0 0
-13.7882 4.33593 -5.10996 255 0 0
-12.6996 4.73435 -5.03426 255 0 0
-13.8964 6.14108 -5.00565 255 0 0
-13.9267 6.11504 -5.00905 255 0 0
-13.7824 5.99333 -4.97326 255 0 0
-13.7483 5.92041 -4.96133 255 0 0
-13.9877 5.94502 -5.00678 255 0 0
-13.7144 5.67591 -4.93633 255 0 0
-13.6983 5.51769 -4.92156 255 0 0
-13.735 5.45691 -4.92383 255 0 0
-13.6805 5.36029 -4.90678 255 0 0
-13.7253 5.34033 -4.9136 255 0 0
-13.7554 5.16513 -4.90678 255 0 0
-13.6839 5.02754 -4.88406 255 0 0
-13.6958 4.99508 -4.88406 255 0 0
-13.7292 4.97042 -4.8886 255 0 0
-13.7031 4.92425 -4.88065 255 0 0
-13.6234 4.8228 -4.85906 255 0 0
-13.7866 4.84379 -4.89087 255 0 0
-13.8143 4.81677 -4.89428 255 0 0
-13.8528 4.79339 -4.89996 255 0 0
-13.9194 4.6691 -4.90451 255 0 0
-13.8542 4.61069 -4.8886 255 0 0
-13.7941 4.55442 -4.87383 255 0 0
-13.7121 4.49131 -4.85451 255 0 0
-13.75 4.46766 -4.86019 255 0 0
-13.8371 4.45971 -4.8761 255 0 0
-13.886 4.43913 -4.88406 255 0 0
-13.8271 4.33013 -4.86644 255 0 0
-15.1932 4.38474 -5.12837 255 0 0
-15.1814 4.34238 -5.12383 255 0 0
-15.4783 4.34802 -5.18064 255 0 0
-15.5107 4.31747 -5.18519 255 0 0
-15.6317 4.31122 -5.20792 255 0 0
-15.8682 4.29558 -5.25223 255 0 0
-13.5026 5.89065 -5.04182 255 0 0
-13.4849 5.84494 -5.03472 255 0 0
-13.4714 5.78224 -5.02702 255 0 0
-13.3523 5.60038 -4.98972 255 0 0
-13.3218 5.53197 -4.97847 255 0 0
-13.238 5.44204 -4.95539 255 0 0
-13.2721 5.4193 -4.96012 255 0 0
-12.3749 5.22496 -5.24263 255 0 0
-13.3487 5.41368 -4.97433 255 0 0
-13.3562 5.37988 -4.97315 255 0 0
-13.3476 5.33967 -4.96841 255 0 0
-13.3442 5.30166 -4.96486 255 0 0
-13.3354 5.26159 -4.96012 255 0 0
-13.3585 5.23414 -4.96249 255 0 0
-13.3228 5.18373 -4.95183 255 0 0
-13.3137 5.14387 -4.9471 255 0 0
-13.2944 5.08215 -4.93881 255 0 0
-13.3606 5.05309 -4.94947 255 0 0
-13.2706 4.9831 -4.92697 255 0 0
-13.3425 4.93803 -4.93763 255 0 0
-13.2634 4.83737 -4.91513 255 0 0
-13.3611 4.83714 -4.93407 255 0 0
-13.472 4.64374 -4.94236 255 0 0
-13.5264 4.60874 -4.95065 255 0 0
-13.3905 4.49166 -4.91631 255 0 0
-13.4228 4.46715 -4.92105 255 0 0
-13.5906 4.41586 -4.95065 255 0 0
-13.7152 4.38454 -4.97315 255 0 0
-13.8021 4.37627 -4.98972 255 0 0
-13.9382 4.3831 -5.01696 255 0 0
-13.8876 4.29493 -5.00156 255 0 0
-14.2151 4.32245 -5.06787 255 0 0
-14.5149 4.30106 -5.12589 255 0 0
-14.6571 4.30542 -5.15431 255 0 0
-14.7058 4.28187 -5.16259 255 0 0
-15.0236 4.29725 -5.22653 255 0 0
-15.1542 4.25697 -5.25021 255 0 0
-15.3954 4.24605 -5.29758 255 0 0
-12.607 5.82324 -5.23037 255 0 0
-13.0774 5.96544 -5.09271 255 0 0
-13.1228 5.94859 -5.1001 255 0 0
-13.012 5.67662 -5.05453 255 0 0
-12.9362 5.53439 -5.02744 255 0 0
-12.8914 5.47907 -5.01389 255 0 0
-12.8463 5.424 -5.00034 255 0 0
-12.9753 5.44223 -5.02744 255 0 0
-12.9511 5.39604 -5.01881 255 0 0
-12.9427 5.35656 -5.01389 255 0 0
-12.8601 5.28669 -4.99172 255 0 0
-12.9097 5.27133 -5.00034 255 0 0
-12.9434 5.24931 -5.00527 255 0 0
-12.9112 5.12963 -4.98925 255 0 0
-13.0541 5.07918 -5.01389 255 0 0
-12.9963 4.84497 -4.98433 255 0 0
-12.9493 4.75763 -4.96832 255 0 0
-12.9928 4.73868 -4.97571 255 0 0
-13.0524 4.7254 -4.98679 255 0 0
-13.0613 4.64124 -4.98248 255 0 0
-13.0858 4.5976 -4.98433 255 0 0
-13.0264 4.54206 -4.96832 255 0 0
-13.0805 4.52614 -4.97817 255 0 0
-13.0478 4.48024 -4.96832 255 0 0
-13.1557 4.44765 -4.98802 255 0 0
-13.3066 4.39344 -5.01512 255 0 0
-13.3931 4.38683 -5.03236 255 0 0
-13.7075 4.38209 -5.09641 255 0 0
-13.8094 4.30663 -5.11242 255 0 0
-13.8797 4.29248 -5.12597 255 0 0
-14.0705 4.31495 -5.16661 255 0 0
-14.0314 4.26658 -5.15553 255 0 0
-14.3147 4.27869 -5.21465 255 0 0
-14.5216 4.26561 -5.25653 255 0 0
-12.6967 5.82817 -5.12764 255 0 0
-12.6897 5.78857 -5.12252 255 0 0
-12.603 5.60526 -5.08798 255 0 0
-12.5405 5.50639 -5.06624 255 0 0
-12.4959 5.4515 -5.05217 255 0 0
-12.577 5.4514 -5.0688 255 0 0
-12.5607 5.37372 -5.05856 255 0 0
-12.484 5.30593 -5.03682 255 0 0
-12.5439 5.29632 -5.04833 255 0 0
-12.4845 5.20161 -5.02786 255 0 0
-12.5126 5.17855 -5.0317 255 0 0
-12.5249 5.14887 -5.0317 255 0 0
-12.5741 5.13428 -5.04065 255 0 0
-12.5539 5.03943 -5.0285 255 0 0
-12.6222 5.0148 -5.04065 255 0 0
-12.5862 4.96598 -5.02914 255 0 0
-12.6274 4.84434 -5.02786 255 0 0
-12.6081 4.73432 -5.01507 255 0 0
-12.62 4.63663 -5.00995 255 0 0
-12.6255 4.60474 -5.00867 255 0 0
-12.6633 4.58452 -5.01507 255 0 0
-12.6956 4.56221 -5.02019 255 0 0
-12.7387 4.50958 -5.0253 255 0 0
-12.8086 4.5002 -5.03938 255 0 0
-12.7976 4.44525 -5.03298 255 0 0
-12.8079 4.39785 -5.0317 255 0 0
-13.0343 4.4066 -5.08031 255 0 0
-12.9851 4.3557 -5.06624 255 0 0
-13.0821 4.35376 -5.08671 255 0 0
-13.195 4.32192 -5.10845 255 0 0
-13.3893 4.31539 -5.14939 255 0 0
-13.3778 4.27667 -5.14427 255 0 0
-13.4913 4.27775 -5.16857 255 0 0
-13.6595 4.29546 -5.20567 255 0 0
-13.962 4.24551 -5.26707 255 0 0
-14.0541 4.23713 -5.28626 255 0 0
-12.7322 6.04671 -5.2788 255 0 0
-12.6685 5.96133 -5.25691 255 0 0
-12.4248 5.63217 -5.17333 255 0 0
-12.4017 5.5863 -5.16404 255 0 0
-12.3837 5.5429 -5.15608 255 0 0
-12.3693 5.44871 -5.14414 255 0 0
-12.3364 5.38188 -5.13088 255 0 0
-12.3722 5.32783 -5.13353 255 0 0
-12.3694 5.23995 -5.12491 255 0 0
-12.4222 5.21026 -5.13353 255 0 0
-12.3239 5.13473 -5.10567 255 0 0
-12.3681 4.98188 -5.10169 255 0 0
-12.3693 4.9483 -5.09904 255 0 0
-12.4103 4.8287 -5.09771 255 0 0
-12.3951 4.78898 -5.09108 255 0 0
-12.3958 4.7555 -5.08842 255 0 0
-12.4444 4.7403 -5.09771 255 0 0
-12.5793 4.68952 -5.12292 255 0 0
-12.5721 4.60212 -5.11429 255 0 0
-12.5884 4.54053 -5.11297 255 0 0
-12.6339 4.48936 -5.11894 255 0 0
-12.709 4.46521 -5.13353 255 0 0
-12.7196 4.43506 -5.13353 255 0 0
-12.7728 4.38581 -5.14149 255 0 0
-12.7994 4.36103 -5.14547 255 0 0
-12.9064 4.3293 -5.1667 255 0 0
-13.046 4.30739 -5.19588 255 0 0
-13.1374 4.30307 -5.21578 255 0 0
-13.1903 4.25122 -5.22374 255 0 0
-12.4868 5.55356 -5.29896 255 0 0
-12.5078 5.492 -5.29759 255 0 0
-12.5208 5.46233 -5.29759 255 0 0
-12.5047 5.38488 -5.28659 255 0 0
-12.3312 5.13776 -5.22477 255 0 0
-12.3539 5.11286 -5.22751 255 0 0
-12.4982 4.99987 -5.2495 255 0 0
-12.4977 4.84567 -5.23576 255 0 0
-12.377 4.73146 -5.19866 255 0 0
-12.3778 4.68138 -5.19454 255 0 0
-12.5865 4.69222 -5.24263 255 0 0
-12.4403 4.58737 -5.20072 255 0 0
-12.5823 4.48784 -5.22477 255 0 0
-12.5867 4.35528 -5.21515 255 0 0
-12.6077 4.32912 -5.2179 255 0 0
-12.7149 4.33225 -5.24263 255 0 0
-12.8635 4.24716 -5.27011 255 0 0
-12.9872 4.25386 -5.29896 255 0 0
-12.3326 4.74802 -5.30654 255 0 0
-12.3202 4.69301 -5.29873 255 0 0
-12.4311 4.48379 -5.30654 255 0 0
-12.468 4.39714 -5.30796 255 0 0
-12.5024 4.35933 -5.31294 255 0 0
