ply
format ascii 1.0
comment Created by Open3D
element vertex 438
property double x
property double y
property double z
property uchar red
property uchar green
property uchar blue
end_header
11.3524 -0.390445 -4.9427 255 0 0
13.0566 0.402571 -5.03867 255 0 0
14.0378 0.183072 -5.14299 255 0 0
12.9338 0.138003 -5.00882 255 0 0
11.6371 0.607579 -4.9157 255 0 0
12.1349 -0.850159 -4.82973 255 0 0
12.5038 0.148247 -4.47383 255 0 0
13.5658 0.144746 -4.33406 255 0 0
11.3196 -0.900998 -5.24589 255 0 0
12.7952 6.82078e-06 -4.42098 255 0 0
13.7413 -0.276974 -4.95723 255 0 0
13.0366 -0.401962 -4.80635 255 0 0
12.2758 0.189205 -4.96371 255 0 0
11.8534 0.5766 -4.86478 255 0 0
12.0977 0.804339 -5.03366 255 0 0
12.1091 0.617819 -4.71446 255 0 0
13.2569 0.408764 -4.85377 255 0 0
11.9505 -0.694985 -4.78462 255 0 0
14.0389 0.0499299 -5.14299 255 0 0
11.2411 0.613635 -5.01654 255 0 0
11.3759 0.512821 -4.95004 255 0 0
12.7951 -0.0455063 -4.42098 255 0 0
12.5203 -0.430612 -4.47838 255 0 0
11.3519 0.403903 -4.9427 255 0 0
11.3209 0.308759 -4.93389 255 0 0
14.1266 -0.28474 -4.9175 255 0 0
13.0771 -0.387687 -5.04332 255 0 0
12.5197 -0.237509 -4.47724 255 0 0
12.885 -0.183315 -5.11072 255 0 0
12.4228 0.633822 -4.67641 255 0 0
12.8216 0.456202 -4.42752 255 0 0
11.3946 0.473065 -4.95444 255 0 0
14.0275 -0.0498893 -5.14043 255 0 0
13.0901 -0.186234 -4.36451 255 0 0
12.5763 -0.641654 -4.60017 255 0 0
11.5556 -0.589576 -4.89509 255 0 0
12.5436 0.565464 -4.48406 255 0 0
12.8203 -0.623633 -4.4286 255 0 0
12.4985 0.103722 -4.4727 255 0 0
11.5006 0.204532 -4.87804 255 0 0
13.0614 -0.433708 -4.69845 255 0 0
12.5118 0.549166 -4.58596 255 0 0
13.0395 0.0463755 -4.35515 255 0 0
12.1607 0.794041 -5.15708 255 0 0
11.5339 -0.24616 -4.88656 255 0 0
13.0622 0.1084 -4.35931 255 0 0
12.2841 -0.65595 -4.64685 255 0 0
11.7001 0.652591 -4.93204 255 0 0
13.0712 -0.480593 -4.70082 255 0 0
12.5173 0.20778 -4.47667 255 0 0
12.5821 0.253609 -5.0379 255 0 0
11.4087 -0.595649 -4.95958 255 0 0
13.6004 -0.145116 -4.34002 255 0 0
13.0414 -0.696391 -5.03801 255 0 0
13.0641 -0.433807 -5.15538 255 0 0
12.6807 0.135302 -5.06126 255 0 0
13.1488 -0.389815 -4.71621 255 0 0
11.3407 -0.174793 -4.93829 255 0 0
12.184 -0.882637 -4.84167 255 0 0
13.601 0.403219 -4.34101 255 0 0
13.0207 0.231566 -4.68897 255 0 0
12.0331 0.699787 -5.0159 255 0 0
14.0483 0.616608 -5.14811 255 0 0
12.5703 0.521877 -4.5978 255 0 0
11.3176 -0.201278 -4.93242 255 0 0
12.5133 0.267064 -4.47611 255 0 0
12.6136 -0.583601 -4.60728 255 0 0
11.3208 0.658362 -5.03851 255 0 0
11.8108 0.630678 -4.85516 255 0 0
13.5984 -0.306352 -4.80856 255 0 0
12.8159 0.364735 -4.42588 255 0 0
11.8125 -0.701012 -4.85653 255 0 0
14.1691 -0.0167976 -4.31665 255 0 0
13.0283 0.726676 -5.03536 255 0 0
12.7548 -0.544684 -4.41554 255 0 0
13.0872 -0.512256 -4.36556 255 0 0
13.0121 0.354886 -4.68779 255 0 0
12.4774 -0.666273 -4.58004 255 0 0
13.117 -0.295504 -4.36972 255 0 0
11.4627 -0.0135891 -4.86809 255 0 0
13.8141 -0.0163767 -5.33468 255 0 0
12.7979 0.0606784 -4.42153 255 0 0
12.9394 0.30685 -5.01081 255 0 0
11.5073 0.464074 -4.88159 255 0 0
12.9914 0.261859 -4.68305 255 0 0
14.0668 0.150092 -5.14939 255 0 0
11.4264 0.691695 -5.06731 255 0 0
12.5089 -0.192798 -4.47497 255 0 0
12.541 -0.490877 -4.48292 255 0 0
12.721 0.618799 -4.62977 255 0 0
13.5781 -0.0160969 -4.33605 255 0 0
13.0571 0.387096 -4.69726 255 0 0
12.8102 -0.24302 -4.42425 255 0 0
13.5365 0.433434 -4.33009 255 0 0
13.9327 -0.0825877 -4.99788 255 0 0
13.5549 0.0482085 -4.33208 255 0 0
14.3332 0.118947 -5.08409 255 0 0
14.1215 -0.251143 -4.91631 255 0 0
13.0732 -0.4186 -4.36243 255 0 0
14.0145 0.216003 -5.13787 255 0 0
11.4974 -0.340855 -4.87804 255 0 0
13.5776 0.112677 -4.33605 255 0 0
12.7943 -0.151691 -4.42098 255 0 0
11.1928 0.504574 -5.00214 255 0 0
12.8041 0.258084 -4.42316 255 0 0
13.0465 -0.58813 -4.35879 255 0 0
13.5104 0.33642 -4.32513 255 0 0
12.0909 -0.904714 -4.82044 255 0 0
14.3113 0.560168 -5.08163 255 0 0
11.5753 -0.645632 -4.90078 255 0 0
13.0495 -0.417841 -4.92297 255 0 0
12.7994 -0.197275 -4.42207 255 0 0
13.1507 0.26507 -4.94471 255 0 0
13.5753 0.273629 -4.33605 255 0 0
13.9056 -0.610344 -5.11613 255 0 0
11.5015 0.149994 -4.87804 255 0 0
14.039 1.35477e-05 -5.14299 255 0 0
13.8551 0.0164253 -4.3837 255 0 0
12.5025 0.355815 -4.4744 255 0 0
11.4158 0.568872 -4.96105 255 0 0
12.6648 -0.525799 -5.05989 255 0 0
13.8747 -0.148043 -5.22772 255 0 0
13.08 -0.387773 -4.36347 255 0 0
12.527 -0.401109 -4.47952 255 0 0
13.5952 0.0805867 -4.33902 255 0 0
11.9045 1.68694e-05 -4.87371 255 0 0
12.8001 0.409853 -5.09149 255 0 0
12.1898 0.941182 -4.95134 255 0 0
12.9475 -0.691379 -5.12996 255 0 0
11.8331 -0.070142 -4.85653 255 0 0
12.1178 -0.76239 -4.82442 255 0 0
11.1572 0.317536 -4.99078 255 0 0
11.4952 0.409013 -4.87803 255 0 0
13.0101 -0.509238 -5.02872 255 0 0
13.1383 -0.358325 -4.71384 255 0 0
12.9933 0.30814 -4.68365 255 0 0
14.0098 0.581639 -5.13915 255 0 0
13.6805 -0.600462 -4.82751 255 0 0
12.7429 -0.483659 -4.41282 255 0 0
13.3361 -0.553671 -4.98821 255 0 0
11.1645 0.357483 -4.99305 255 0 0
12.5187 -0.282028 -4.47724 255 0 0
13.1092 -0.233141 -5.04995 255 0 0
12.4959 0.0592598 -4.47213 255 0 0
11.319 -0.0939336 -4.93242 255 0 0
12.8167 -0.334361 -4.42588 255 0 0
13.8697 -0.0493282 -5.22639 255 0 0
12.244 0.755746 -4.85361 255 0 0
12.4986 -0.0889114 -4.4727 255 0 0
13.2644 0.550694 -4.39782 255 0 0
12.5279 -0.371406 -4.47952 255 0 0
13.0496 0.201131 -4.35723 255 0 0
13.5125 0.240312 -4.32513 255 0 0
11.3265 -0.308913 -4.93535 255 0 0
12.4932 4.996e-16 -4.47156 255 0 0
13.0032 -0.663434 -5.02872 255 0 0
11.3136 -0.0536498 -4.93095 255 0 0
12.5422 -0.461141 -4.48292 255 0 0
12.5945 -0.492969 -4.60254 255 0 0
12.0011 -0.869385 -4.90462 255 0 0
12.9936 -0.662947 -4.91273 255 0 0
12.6489 -0.495101 -5.05576 255 0 0
12.8174 0.410409 -4.42643 255 0 0
13.0396 0.0154585 -4.35515 255 0 0
12.0368 -0.900667 -5.02016 255 0 0
13.5216 0.529257 -4.3281 255 0 0
13.7382 0.570364 -5.19853 255 0 0
12.7943 0.151691 -4.42098 255 0 0
13.5372 -0.112342 -4.3291 255 0 0
13.0624 0.0774289 -4.35931 255 0 0
11.5242 -0.15029 -4.88372 255 0 0
14.0529 0.0999641 -5.14619 255 0 0
13.5903 0.370655 -4.33902 255 0 0
12.3485 -0.630031 -4.6604 255 0 0
13.092 0.248377 -4.36503 255 0 0
12.5173 -0.341388 -4.47724 255 0 0
13.2079 -0.328886 -4.72805 255 0 0
11.5135 -0.0819108 -4.88088 255 0 0
13.6058 0.177437 -4.34101 255 0 0
13.6976 0.211119 -4.35689 255 0 0
13.0409 0.355669 -4.80697 255 0 0
12.8525 0.54885 -4.43405 255 0 0
13.0931 -0.481397 -4.9332 255 0 0
13.1198 0.404522 -4.37076 255 0 0
13.1321 -0.327001 -4.94088 255 0 0
13.0533 -0.417962 -5.03801 255 0 0
12.052 0.614904 -4.80718 255 0 0
13.6644 -0.0809971 -4.35094 255 0 0
13.5434 -0.0481675 -4.33009 255 0 0
13.0619 0.13937 -4.35931 255 0 0
13.0788 0.170565 -4.36243 255 0 0
13.0824 0.294726 -4.36347 255 0 0
13.0529 0.325026 -4.35827 255 0 0
13.1212 0.357859 -4.37076 255 0 0
13.124 0.451378 -4.3718 255 0 0
13.1367 0.498601 -4.3744 255 0 0
13.1528 0.40556 -4.94599 255 0 0
12.7833 0.106085 -4.41881 255 0 0
11.4854 0.013616 -4.87377 255 0 0
13.1435 -0.545674 -4.37596 255 0 0
13.0769 -0.480801 -4.36347 255 0 0
13.078 -0.449794 -4.36347 255 0 0
13.1014 -0.341774 -4.36712 255 0 0
13.1291 -0.264635 -4.3718 255 0 0
13.0836 -0.232686 -4.36347 255 0 0
13.0734 -0.139493 -4.36139 255 0 0
13.0652 -0.0929383 -4.35983 255 0 0
13.0395 -0.0463755 -4.35515 255 0 0
13.0627 -0.0154859 -4.35931 255 0 0
12.8021 0.212493 -4.42262 255 0 0
12.8089 0.303764 -4.42425 255 0 0
12.8199 0.501793 -4.42752 255 0 0
13.0344 0.603073 -4.46888 255 0 0
11.5067 -0.177351 -4.87946 255 0 0
14.1612 0.587925 -5.04961 255 0 0
12.7758 -0.591107 -4.4199 255 0 0
12.838 -0.39583 -4.43024 255 0 0
12.8035 -0.288442 -4.42316 255 0 0
12.7949 -0.0910188 -4.42098 255 0 0
12.518 0.311709 -4.47724 255 0 0
12.5093 0.415387 -4.47611 255 0 0
12.5077 0.459875 -4.47611 255 0 0
12.5175 0.504825 -4.47838 255 0 0
12.9564 -0.63025 -5.13133 255 0 0
11.3915 -0.743813 -4.95738 255 0 0
12.5615 -0.670763 -4.48861 255 0 0
12.5573 -0.640685 -4.48747 255 0 0
12.5874 -0.612305 -4.49315 255 0 0
12.5602 -0.581131 -4.48747 255 0 0
12.5449 -0.535728 -4.48406 255 0 0
12.5295 -0.311995 -4.47952 255 0 0
12.5095 -0.148308 -4.47497 255 0 0
12.4931 -0.0444322 -4.47156 255 0 0
12.6174 0.493866 -4.60728 255 0 0
12.4532 0.57618 -4.57412 255 0 0
12.9299 0.444701 -5.12309 255 0 0
12.5549 -0.61072 -4.59544 255 0 0
14.3293 -0.594902 -4.96131 255 0 0
13.9788 0.0165719 -5.00773 255 0 0
13.973 0.0496953 -5.0065 255 0 0
14.3214 0.152809 -5.08163 255 0 0
14.3036 0.203498 -5.07793 255 0 0
13.2726 0.236046 -4.85623 255 0 0
13.0373 0.262785 -4.80574 255 0 0
13.0134 0.308621 -4.80081 255 0 0
14.2852 0.491313 -5.07547 255 0 0
14.5013 0.533175 -5.12227 255 0 0
12.3348 0.55605 -4.6567 255 0 0
12.3042 0.598526 -4.65055 255 0 0
13.5988 0.726154 -4.93013 255 0 0
12.2412 0.217703 -4.95546 255 0 0
11.6137 0.564936 -4.9093 255 0 0
12.1409 0.908455 -4.93897 255 0 0
12.9066 -0.597161 -5.11897 255 0 0
12.2473 -0.69768 -4.63946 255 0 0
13.0246 -0.633569 -4.80574 255 0 0
13.6722 -0.632582 -4.94491 255 0 0
12.2897 -0.539419 -4.64685 255 0 0
13.1221 -0.498043 -4.82544 255 0 0
13.0437 -0.448616 -4.8082 255 0 0
13.1014 -0.341759 -4.8199 255 0 0
14.0224 -0.24938 -5.01758 255 0 0
14.8648 -0.193856 -5.19864 255 0 0
14.0069 -0.11624 -5.01389 255 0 0
13.9616 -0.0165516 -5.00403 255 0 0
13.1913 0.2346 -4.95367 255 0 0
13.024 0.308858 -4.91657 255 0 0
13.0399 0.355644 -4.92041 255 0 0
13.9508 0.479812 -5.12508 255 0 0
14.0181 0.515407 -5.14043 255 0 0
13.9141 0.54462 -5.11741 255 0 0
12.2445 0.537434 -4.74388 255 0 0
12.1804 0.563559 -4.72981 255 0 0
12.1505 0.591049 -4.72341 255 0 0
12.2331 0.653231 -4.7426 255 0 0
13.595 0.758285 -5.04833 255 0 0
12.2088 0.85534 -4.84697 255 0 0
12.0302 -0.699622 -4.69783 255 0 0
12.0946 -0.674597 -4.7119 255 0 0
12.3815 -0.661152 -4.77586 255 0 0
13.2006 -0.642131 -4.95879 255 0 0
13.9213 -0.644105 -5.11996 255 0 0
13.0276 -0.386222 -4.91785 255 0 0
13.1142 -0.357669 -4.93704 255 0 0
13.1907 -0.265876 -4.95367 255 0 0
13.3512 -0.237445 -4.98949 255 0 0
13.9402 -0.214858 -5.12124 255 0 0
14.1064 -0.183966 -5.15834 255 0 0
14.0896 -0.150336 -5.1545 255 0 0
14.0472 -0.0999167 -5.14491 255 0 0
13.8641 6.76128e-06 -5.22507 255 0 0
13.864 0.0657505 -5.22507 255 0 0
13.818 0.114672 -5.21445 255 0 0
12.9277 0.168594 -5.0075 255 0 0
12.9159 0.19907 -5.00484 255 0 0
12.9382 0.230099 -5.01015 255 0 0
12.9262 0.260545 -5.0075 255 0 0
13.038 0.355592 -5.03403 255 0 0
13.058 0.449106 -5.03934 255 0 0
13.0227 0.478808 -5.03138 255 0 0
13.0386 0.510353 -5.03536 255 0 0
13.9932 0.614189 -5.25823 255 0 0
12.2883 0.568554 -4.86157 255 0 0
12.099 0.588544 -4.81779 255 0 0
11.9992 0.640741 -4.79524 255 0 0
13.3682 0.77743 -5.11496 255 0 0
12.2089 0.811728 -4.84631 255 0 0
12.2864 0.890054 -4.86555 255 0 0
11.909 -0.720906 -4.77534 255 0 0
11.9635 -0.667284 -4.78728 255 0 0
11.9338 -0.580508 -4.77932 255 0 0
11.9408 -0.552475 -4.78064 255 0 0
11.9136 -0.522911 -4.77401 255 0 0
12.006 -0.498447 -4.79524 255 0 0
13.0284 -0.479018 -5.0327 255 0 0
13.0124 -0.447538 -5.02872 255 0 0
13.0384 -0.340128 -5.03403 255 0 0
13.0567 -0.294147 -5.03801 255 0 0
13.063 -0.263303 -5.03934 255 0 0
13.5831 -0.209353 -5.16006 255 0 0
13.6462 -0.177965 -5.17466 255 0 0
13.8894 -0.0988078 -5.23104 255 0 0
12.0154 0.0427331 -4.9005 255 0 0
11.9697 0.0709517 -4.88951 255 0 0
12.2193 0.159356 -4.94997 255 0 0
12.9396 0.30687 -5.12446 255 0 0
12.9318 0.383382 -5.12309 255 0 0
12.8662 0.473056 -5.10798 255 0 0
12.8423 0.50267 -5.10248 255 0 0
12.8866 0.535007 -5.11347 255 0 0
11.9072 0.522631 -4.87714 255 0 0
11.8748 0.605863 -4.87027 255 0 0
12.0821 0.673895 -4.92111 255 0 0
12.7111 0.73922 -5.07363 255 0 0
12.1412 0.734964 -4.93623 255 0 0
12.077 0.759817 -4.92111 255 0 0
12.0675 0.816694 -4.91974 255 0 0
12.1071 0.86265 -4.93004 255 0 0
11.202 0.731442 -5.20888 255 0 0
12.0807 0.76005 -5.02869 255 0 0
11.7741 -0.768794 -4.84829 255 0 0
12.1114 -0.99293 -4.93348 255 0 0
12.0553 -0.945187 -4.91905 255 0 0
12.0274 -0.899961 -4.91149 255 0 0
11.9974 -0.84053 -4.90325 255 0 0
11.7418 -0.738731 -4.84005 255 0 0
12.4474 -0.546341 -5.00767 255 0 0
12.8833 -0.473683 -5.1121 255 0 0
13.0693 -0.356444 -5.15607 255 0 0
13.0928 -0.326022 -5.16156 255 0 0
13.0822 -0.294721 -5.15881 255 0 0
13.0601 -0.263244 -5.15332 255 0 0
11.9809 -0.0994263 -4.89226 255 0 0
11.9357 -0.0424497 -4.88127 255 0 0
11.5108 0.0545682 -4.88017 255 0 0
11.4451 0.108549 -4.86382 255 0 0
11.45 0.176476 -4.86524 255 0 0
11.4774 0.231342 -4.87235 255 0 0
11.5222 0.259578 -4.88372 255 0 0
11.4985 0.299949 -4.87803 255 0 0
11.4998 0.354589 -4.87875 255 0 0
11.5078 0.518754 -4.8823 255 0 0
12.1505 0.735523 -5.04574 255 0 0
12.1089 0.848342 -5.03722 255 0 0
12.1465 0.879923 -5.04716 255 0 0
12.1501 0.909144 -5.04859 255 0 0
12.0826 -0.817712 -5.03011 255 0 0
12.0924 -0.991367 -5.03579 255 0 0
12.0777 -0.961341 -5.03153 255 0 0
12.0743 -0.932265 -5.03011 255 0 0
12.0219 -0.870894 -5.0159 255 0 0
12.0069 -0.841197 -5.01163 255 0 0
11.6084 -0.757973 -4.91072 255 0 0
11.5874 -0.72902 -4.90504 255 0 0
11.5551 -0.699485 -4.89651 255 0 0
11.5794 -0.673405 -4.9022 255 0 0
11.5882 -0.61879 -4.90362 255 0 0
11.5462 -0.547936 -4.89225 255 0 0
11.5374 -0.492686 -4.88941 255 0 0
11.539 -0.451658 -4.88941 255 0 0
11.506 -0.423045 -4.88088 255 0 0
11.5074 -0.382141 -4.88088 255 0 0
11.4641 -0.312665 -4.86951 255 0 0
11.5273 -0.287038 -4.88514 255 0 0
11.546 -0.20534 -4.88941 255 0 0
11.5302 -0.123027 -4.88514 255 0 0
11.508 -0.0409288 -4.87946 255 0 0
11.3052 3.35944e-06 -4.92875 255 0 0
11.3023 0.0401971 -4.92801 255 0 0
11.3362 0.0671966 -4.93682 255 0 0
11.2906 0.107083 -4.92507 255 0 0
11.3128 0.147533 -4.93095 255 0 0
11.3294 0.174618 -4.93535 255 0 0
11.3346 0.20158 -4.93682 255 0 0
11.3228 0.228226 -4.93389 255 0 0
11.3247 0.268564 -4.93462 255 0 0
11.348 0.349893 -4.94123 255 0 0
11.3617 0.444717 -4.94563 255 0 0
11.4335 0.610531 -4.96619 255 0 0
11.4377 0.637954 -4.96766 255 0 0
11.5323 0.670665 -4.99262 255 0 0
11.8136 0.715131 -5.06604 255 0 0
11.9646 0.752749 -5.10569 255 0 0
11.8891 -0.861272 -5.08807 255 0 0
11.5518 -0.809312 -4.99996 255 0 0
11.3819 -0.71609 -4.95444 255 0 0
11.361 -0.687731 -4.94857 255 0 0
11.3188 -0.631325 -4.93682 255 0 0
11.3888 -0.540467 -4.95371 255 0 0
11.3742 -0.48573 -4.9493 255 0 0
11.3622 -0.43124 -4.94563 255 0 0
11.3452 -0.349809 -4.94049 255 0 0
11.3386 -0.282339 -4.93829 255 0 0
11.3168 -0.241528 -4.93242 255 0 0
11.3101 -0.134098 -4.93021 255 0 0
11.1631 0.397187 -4.99305 255 0 0
11.1781 0.450802 -4.9976 255 0 0
11.2079 0.545196 -5.00669 255 0 0
11.2291 0.572922 -5.01275 255 0 0
11.5885 0.729084 -5.11126 255 0 0
11.756 0.767614 -5.15672 255 0 0
11.6918 -0.874852 -5.14157 255 0 0
11.4851 -0.832008 -5.08549 255 0 0
11.2501 -0.788173 -5.02184 255 0 0
11.2012 -0.75806 -5.00821 255 0 0
11.1978 0.677856 -5.10609 255 0 0
11.2807 0.709719 -5.12953 255 0 0
11.4141 0.745288 -5.16703 255 0 0
11.6206 0.786447 -5.22484 255 0 0
11.1476 0.701345 -5.19279 255 0 0
11.4009 -0.853083 -5.16547 255 0 0
11.2396 -0.814225 -5.12016 255 0 0
11.3575 0.768644 -5.25394 255 0 0
11.1957 0.75769 -5.30869 255 0 0
11.2387 0.787373 -5.32194 255 0 0
11.1838 -0.916879 -5.30869 255 0 0
14.0626 -0.617232 -5.02867 255 0 0
13.8773 0.675051 -5.35392 255 0 0
