ply
format ascii 1.0
comment Created by Open3D
element vertex 181
property double x
property double y
property double z
property uchar red
property uchar green
property uchar blue
end_header
-1.46176 18.0935 -3.58813 255 0 0
-2.04862 18.3074 -3.30355 255 0 0
-2.14281 17.9903 -3.58507 255 0 0
-2.09584 17.9584 -3.73335 255 0 0
-1.70464 17.9199 -3.57486 255 0 0
-1.39892 18.4024 -3.92424 255 0 0
-1.93728 18.293 -3.30169 255 0 0
-1.69221 18.0156 -3.43167 255 0 0
-1.70555 17.9294 -3.72665 255 0 0
-1.74395 18.333 -3.30314 255 0 0
-2.30903 17.9358 -4.1899 255 0 0
-2.04083 18.0441 -3.43675 255 0 0
-2.0814 18.2096 -3.29694 255 0 0
-1.8749 18.326 -3.30355 255 0 0
-1.3844 18.8011 -4.12411 255 0 0
-1.39705 18.3778 -4.38751 255 0 0
-1.75684 18.0153 -3.43213 255 0 0
-1.58543 18.5291 -3.31595 255 0 0
-2.43053 17.8746 -4.48938 255 0 0
-2.276 18.0164 -4.04609 255 0 0
-1.87816 17.9377 -3.57792 255 0 0
-1.60431 17.758 -4.46056 255 0 0
-1.80013 18.0169 -3.43259 255 0 0
-1.49068 17.9219 -3.87506 255 0 0
-2.1567 18.1069 -4.20821 255 0 0
-1.36261 18.5052 -4.56062 255 0 0
-1.74806 17.9253 -3.72665 255 0 0
-1.45924 18.0623 -3.73726 255 0 0
-1.32401 19.2253 -4.17131 255 0 0
-1.30872 19.0033 -4.62866 255 0 0
-1.74939 17.939 -3.5769 255 0 0
-1.4463 17.9021 -4.32658 255 0 0
-1.47922 17.7841 -4.16104 255 0 0
-1.40773 17.955 -4.48538 255 0 0
-1.92379 17.9622 -3.58048 255 0 0
-1.39955 19.0068 -3.3486 255 0 0
-1.62812 18.0216 -3.43167 255 0 0
-1.84752 18.0584 -3.89267 255 0 0
-1.79308 17.9464 -3.57792 255 0 0
-1.53991 17.7491 -4.45856 255 0 0
-1.3788 18.7251 -3.95764 255 0 0
-2.23457 18.0322 -3.89449 255 0 0
-1.43221 18.8404 -3.33703 255 0 0
-1.45428 18.0008 -3.88295 255 0 0
-1.45032 18.4981 -3.62334 255 0 0
-2.44047 17.9477 -4.19342 255 0 0
-2.24471 18.114 -3.44414 255 0 0
-2.21824 17.9004 -4.18427 255 0 0
-1.78444 17.8599 -3.87141 255 0 0
-1.89215 18.0713 -3.89449 255 0 0
-1.66067 18.3818 -3.30603 255 0 0
-1.34265 18.844 -4.28775 255 0 0
-1.60766 17.7951 -4.31455 255 0 0
-1.97536 18.0397 -3.43583 255 0 0
-1.38716 18.8385 -4.44694 255 0 0
-2.18545 17.9851 -3.58507 255 0 0
-2.05482 17.977 -3.58303 255 0 0
-1.63967 17.9121 -3.72441 255 0 0
-1.61917 17.9224 -3.87627 255 0 0
-2.23168 18.0088 -3.58762 255 0 0
-2.17719 17.9171 -4.18568 255 0 0
-1.53068 17.8893 -3.87202 255 0 0
-1.37508 19.2993 -3.69275 255 0 0
-2.09879 17.9837 -3.58405 255 0 0
-2.35686 17.9707 -4.04216 255 0 0
-1.98895 17.9668 -3.5815 255 0 0
-1.43619 18.8927 -3.4991 255 0 0
-1.7915 17.9306 -4.03036 255 0 0
-2.14462 18.0055 -3.73838 255 0 0
-1.70479 18.3836 -3.30644 255 0 0
-1.39234 18.3158 -4.2244 255 0 0
-1.48675 18.4027 -3.46076 255 0 0
-2.27191 17.984 -3.73782 255 0 0
-1.30595 18.9631 -4.30183 255 0 0
-1.51538 18.2188 -3.44645 255 0 0
-1.48789 17.8883 -4.02249 255 0 0
-2.1883 18.0085 -3.89145 255 0 0
-1.41758 18.0806 -4.19624 255 0 0
-1.49451 17.9679 -3.57741 255 0 0
-1.57066 17.8579 -4.01987 255 0 0
-2.32494 17.7273 -4.31605 255 0 0
-1.50131 18.583 -3.31926 255 0 0
-2.4348 17.906 -4.34088 255 0 0
-2.25661 19.336 -4.35744 255 0 0
-1.53263 17.912 -3.57282 255 0 0
-1.46729 18.7146 -3.32835 255 0 0
-1.5415 18.5328 -3.31595 255 0 0
-1.62117 18.4322 -3.30934 255 0 0
-1.78854 18.3405 -3.30396 255 0 0
-1.83144 18.3304 -3.30355 255 0 0
-2.00393 18.3005 -3.30272 255 0 0
-2.12457 18.2046 -3.29694 255 0 0
-2.1622 18.1531 -3.29363 255 0 0
-1.52187 17.7863 -4.16175 255 0 0
-1.65425 17.8387 -4.16949 255 0 0
-1.41196 19.1754 -3.52126 255 0 0
-1.46182 18.6448 -3.4797 255 0 0
-1.54762 18.0872 -3.43629 255 0 0
-1.58897 18.0661 -3.4349 255 0 0
-1.84284 18.0126 -3.43259 255 0 0
-1.88797 18.0314 -3.43444 255 0 0
-1.93258 18.0443 -3.43583 255 0 0
-2.10566 18.0425 -3.43721 255 0 0
-2.15119 18.0607 -3.43906 255 0 0
-2.19401 18.0555 -3.43906 255 0 0
-2.3074 18.265 -3.45661 255 0 0
-1.5756 17.9141 -3.57333 255 0 0
-1.49288 17.9484 -3.72665 255 0 0
-1.39942 19.0051 -3.66723 255 0 0
-1.42768 18.7807 -3.64784 255 0 0
-1.63959 17.9113 -3.57359 255 0 0
-1.83563 17.9421 -3.57792 255 0 0
-2.28241 18.0672 -3.59323 255 0 0
-1.42533 18.1794 -4.05461 255 0 0
-1.35125 18.9648 -3.82276 255 0 0
-1.39279 18.915 -3.81829 255 0 0
-1.40936 18.5397 -3.78253 255 0 0
-1.43919 18.3562 -3.7652 255 0 0
-1.53444 17.9332 -3.72553 255 0 0
-1.5744 17.9005 -3.72274 255 0 0
-1.7865 17.8805 -3.72274 255 0 0
-1.8366 17.9516 -3.73 255 0 0
-1.88037 17.9588 -3.73112 255 0 0
-1.93102 18.0297 -3.73838 255 0 0
-1.97122 18.0018 -3.73615 255 0 0
-2.01455 18.0029 -3.73671 255 0 0
-2.05326 17.9633 -3.73335 255 0 0
-2.1859 17.9888 -3.73726 255 0 0
-2.23285 18.0183 -3.74062 255 0 0
-2.31975 18.019 -3.74173 255 0 0
-2.38217 18.1637 -3.75626 255 0 0
-1.47796 17.7689 -4.46056 255 0 0
-2.47725 17.9002 -4.34088 255 0 0
-2.32066 19.4835 -4.54172 255 0 0
-1.34765 18.9142 -3.97707 255 0 0
-1.41933 18.1029 -3.89327 255 0 0
-1.57412 17.8972 -3.87324 255 0 0
-1.68155 18.1331 -3.89874 255 0 0
-1.75452 17.9916 -3.88477 255 0 0
-2.11729 19.3358 -4.02807 255 0 0
-2.04427 17.8848 -3.87688 255 0 0
-2.15524 18.0946 -3.89995 255 0 0
-2.27367 17.9979 -3.89145 255 0 0
-2.3208 18.0272 -3.8951 255 0 0
-2.36656 18.0447 -3.89752 255 0 0
-1.6536 17.8317 -4.31981 255 0 0
-2.18211 17.9576 -4.03822 255 0 0
-1.34602 18.8913 -4.13394 255 0 0
-1.39898 18.4032 -4.07953 255 0 0
-1.45203 17.973 -4.03167 255 0 0
-1.52831 17.8615 -4.01987 255 0 0
-1.63601 17.8724 -4.02216 255 0 0
-1.93139 18.0331 -4.04347 255 0 0
-2.22282 19.4468 -4.2054 255 0 0
-2.40858 19.4364 -4.20671 255 0 0
-2.31351 17.9705 -4.0415 255 0 0
-2.40563 18.0112 -4.0474 255 0 0
-2.46244 18.1093 -4.0592 255 0 0
-2.23357 17.6806 -4.30853 255 0 0
-1.3711 18.6205 -4.261 255 0 0
-1.44547 17.8918 -4.17371 255 0 0
-1.5872 17.8039 -4.16456 255 0 0
-1.69269 17.7942 -4.16456 255 0 0
-1.81685 17.7586 -4.16175 255 0 0
-1.92395 17.9636 -4.18779 255 0 0
-2.34777 17.9014 -4.18638 255 0 0
-2.39098 17.9016 -4.18709 255 0 0
-2.49019 17.9937 -4.19976 255 0 0
-1.54185 17.7717 -4.31079 255 0 0
-1.34166 18.8302 -4.44543 255 0 0
-1.42246 18.1428 -4.35742 255 0 0
-1.48056 17.8003 -4.3138 255 0 0
-2.3931 17.9175 -4.34163 255 0 0
-2.54397 18.0668 -4.36344 255 0 0
-1.33605 18.7514 -4.59424 255 0 0
-2.51931 17.8916 -4.49338 255 0 0
-1.64159 17.7021 -4.45336 255 0 0
-2.26906 18.6732 -4.59584 255 0 0
-1.38978 18.2822 -4.5302 255 0 0
-1.44143 17.8418 -4.47017 255 0 0
-2.37662 17.7941 -4.47737 255 0 0
