ply
format ascii 1.0
comment Created by Open3D
element vertex 453
property double x
property double y
property double z
property uchar red
property uchar green
property uchar blue
end_header
-16.1755 -1.13324 -3.55454 255 0 0
-15.2718 -1.54414 -4.90431 255 0 0
-15.7213 -0.690038 -4.03849 255 0 0
-15.3342 -1.16567 -4.6458 255 0 0
-15.6559 -0.501294 -5.09883 255 0 0
-15.7731 -0.505047 -4.98595 255 0 0
-15.705 -0.838625 -3.77205 255 0 0
-15.2478 -1.28646 -5.02724 255 0 0
-15.368 -1.62752 -4.79121 255 0 0
-16.0398 -1.73713 -3.54672 255 0 0
-17.8144 -0.190079 -4.91282 255 0 0
-15.8436 -1.79194 -3.93086 255 0 0
-15.6533 -1.84563 -4.44273 255 0 0
-15.2223 -1.26614 -4.89016 255 0 0
-15.3107 -0.781167 -4.50656 255 0 0
-15.8806 -1.83427 -3.66679 255 0 0
-15.2684 -0.706436 -5.02383 255 0 0
-16.1677 -1.63472 -3.55789 255 0 0
-15.6293 -1.73019 -4.03698 255 0 0
-16.345 -1.49619 -3.57354 255 0 0
-15.8742 -1.07432 -3.65889 255 0 0
-15.1589 -1.09814 -5.00678 255 0 0
-16.0818 -0.820507 -3.67893 255 0 0
-15.6143 -0.833781 -3.89355 255 0 0
-15.4056 -1.70541 -4.66665 255 0 0
-15.3542 -1.29544 -4.38803 255 0 0
-16.6358 -0.69066 -3.73601 255 0 0
-16.3705 -0.563035 -4.26045 255 0 0
-15.6995 -1.26837 -3.77468 255 0 0
-15.4984 -0.717076 -4.27261 255 0 0
-15.8308 -0.544472 -4.72522 255 0 0
-15.7383 -1.66674 -3.7832 255 0 0
-15.1969 -0.865706 -5.01133 255 0 0
-15.6623 -1.32143 -3.90341 255 0 0
-15.706 -1.77637 -4.04751 255 0 0
-15.8131 -1.40971 -4.05654 255 0 0
-15.3125 -1.54825 -4.77976 255 0 0
-15.5039 -1.08619 -4.40865 255 0 0
-15.6105 -0.796461 -3.89285 255 0 0
-15.2934 -1.0168 -4.76831 255 0 0
-15.4351 -0.824209 -4.26413 255 0 0
-15.6821 -1.06132 -3.90341 255 0 0
-16.8053 -0.857423 -3.61321 255 0 0
-15.5209 -0.644376 -4.6726 255 0 0
-17.045 -0.424433 -4.4975 255 0 0
-15.2874 -0.889045 -4.50372 255 0 0
-15.3883 -1.46382 -4.52734 255 0 0
-15.9396 -1.72628 -3.67164 255 0 0
-15.3268 -1.11031 -4.64381 255 0 0
-15.3869 -0.821634 -4.38803 255 0 0
-17.4566 -0.393271 -4.26189 255 0 0
-16.6198 -0.413846 -4.86024 255 0 0
-15.3662 -0.710958 -4.51506 255 0 0
-15.6818 -1.11734 -3.7714 255 0 0
-15.8995 -0.849008 -3.66011 255 0 0
-18.595 -1.70216 -3.32132 255 0 0
-16.9951 -0.503844 -4.05897 255 0 0
-16.0419 -0.742223 -3.80942 255 0 0
-16.8193 -1.62007 -3.61992 255 0 0
-15.1786 -1.0634 -5.01019 255 0 0
-17.2454 -0.306701 -4.96746 255 0 0
-15.3588 -1.2225 -4.65076 255 0 0
-15.1666 -0.701723 -4.87274 255 0 0
-17.4073 -0.350867 -4.6983 255 0 0
-15.2242 -0.668218 -5.01474 255 0 0
-16.0182 -1.42799 -3.40697 255 0 0
-15.3258 -0.854821 -4.64083 255 0 0
-15.36 -1.51627 -4.52356 255 0 0
-16.9079 -0.722035 -3.62243 255 0 0
-15.4303 -1.78225 -4.53963 255 0 0
-15.7079 -2.00329 -4.05127 255 0 0
-15.6795 -1.09849 -3.90341 255 0 0
-15.2789 -1.4717 -4.90431 255 0 0
-15.665 -1.02285 -3.76878 255 0 0
-16.1431 -0.593537 -4.22924 255 0 0
-17.7247 -0.39931 -4.14696 255 0 0
-15.6547 -1.99651 -4.31165 255 0 0
-15.5671 -0.757245 -4.01893 255 0 0
-16.2537 -1.1 -3.56181 255 0 0
-16.0155 -1.58098 -3.40799 255 0 0
-16.1447 -0.47863 -4.77883 255 0 0
-15.7462 -0.878271 -3.64432 255 0 0
-16.1538 -0.632286 -4.09415 255 0 0
-15.5417 -1.83247 -4.0272 255 0 0
-15.5267 -1.0508 -4.01592 255 0 0
-15.9689 -0.890687 -3.53331 255 0 0
-15.2067 -0.920535 -4.88254 255 0 0
-15.7612 -1.89626 -3.92241 255 0 0
-15.8542 -1.11073 -3.65707 255 0 0
-17.0052 -1.15086 -3.49117 255 0 0
-15.6914 -0.875212 -3.77074 255 0 0
-16.4741 -0.527493 -4.41433 255 0 0
-15.5265 -0.866014 -4.01442 255 0 0
-15.9244 -0.926085 -3.66314 255 0 0
-16.5271 -1.55239 -3.59142 255 0 0
-16.3638 -0.60165 -3.98295 255 0 0
-15.6549 -1.95882 -4.17721 255 0 0
-15.3753 -0.967334 -4.51884 255 0 0
-15.5038 -0.680491 -4.40506 255 0 0
-16.2022 -0.67266 -3.82712 255 0 0
-17.4372 -0.392834 -4.40693 255 0 0
-15.5674 -0.942366 -3.88863 255 0 0
-15.7555 -1.3293 -3.64857 255 0 0
-16.0901 -0.706226 -3.81467 255 0 0
-15.5354 -1.98129 -4.69445 255 0 0
-15.5637 -1.83507 -4.5623 255 0 0
-15.3565 -0.564618 -4.90758 255 0 0
-16.2926 -0.637719 -3.9745 255 0 0
-15.5262 -1.90534 -4.55758 255 0 0
-15.6239 -0.871448 -3.89496 255 0 0
-15.4058 -1.5946 -4.66466 255 0 0
-17.8445 -0.105775 -4.76556 255 0 0
-15.5237 -2.01722 -4.55947 255 0 0
-15.253 -1.35978 -5.02951 255 0 0
-16.3454 -0.562171 -4.39566 255 0 0
-15.3846 -1.42667 -4.65821 255 0 0
-15.6335 -0.574801 -4.82555 255 0 0
-15.5333 -1.27347 -4.01893 255 0 0
-16.8288 -0.578797 -3.89727 255 0 0
-15.8452 -1.67806 -3.66132 255 0 0
-16.1668 -0.59441 -4.09565 255 0 0
-15.6753 -0.986209 -3.902 255 0 0
-15.4167 -1.11682 -4.26413 255 0 0
-17.7013 -0.356794 -4.29349 255 0 0
-17.5526 -0.312164 -4.87031 255 0 0
-15.8418 -1.0344 -3.65525 255 0 0
-15.8505 -0.65806 -4.05504 255 0 0
-15.7129 -1.5135 -3.77861 255 0 0
-15.5982 -2.0269 -4.30401 255 0 0
-17.072 -1.11472 -3.49678 255 0 0
-17.2676 -0.51192 -3.94644 255 0 0
-15.7697 -1.36816 -3.65039 255 0 0
-15.8024 -1.52212 -3.65525 255 0 0
-17.0999 -0.425802 -4.36051 255 0 0
-16.1519 -1.36274 -3.55398 255 0 0
-15.8337 -1.61989 -3.6595 255 0 0
-15.2266 -0.740682 -5.01587 255 0 0
-17.4157 -0.433665 -4.10966 255 0 0
-15.2444 -1.37721 -4.89615 255 0 0
-15.6762 -0.762553 -3.90059 255 0 0
-15.4025 -1.04239 -4.39251 255 0 0
-16.7334 -0.456377 -4.59428 255 0 0
-15.7534 -0.728875 -3.90974 255 0 0
-15.9376 -1.34466 -3.39931 255 0 0
-15.7092 -1.73902 -3.91397 255 0 0
-16.6895 -0.494784 -4.44573 255 0 0
-17.8151 -0.105601 -4.91282 255 0 0
-17.4131 -0.350985 -4.84763 255 0 0
-17.8091 -0.190022 -4.76018 255 0 0
-15.8567 -1.56531 -3.66132 255 0 0
-17.8606 -0.232926 -4.76825 255 0 0
-15.8282 -1.14663 -3.65464 255 0 0
-15.9044 -1.45586 -3.39727 255 0 0
-17.188 -0.468776 -4.0822 255 0 0
-16.7551 -1.29368 -3.47025 255 0 0
-17.3471 -0.390804 -4.54162 255 0 0
-15.4906 -0.716713 -4.40327 255 0 0
-15.7065 -1.32516 -3.77599 255 0 0
-15.615 -1.01959 -3.89496 255 0 0
-15.2091 -0.775981 -4.88145 255 0 0
-15.2521 -1.32325 -4.89669 255 0 0
-15.5715 -0.646473 -4.54813 255 0 0
-15.7519 -0.616558 -4.57742 255 0 0
-15.8374 -0.657513 -4.32183 255 0 0
-16.0482 -0.933285 -3.54113 255 0 0
-15.7585 -1.82017 -3.92101 255 0 0
-16.0124 -1.77259 -3.54448 255 0 0
-15.5582 -1.90927 -4.42928 255 0 0
-16.926 -0.421471 -4.76827 255 0 0
-15.7084 -0.689473 -4.30316 255 0 0
-16.8919 -0.380547 -4.9069 255 0 0
-15.4439 -1.63556 -4.40686 255 0 0
-15.6544 -0.910387 -3.76681 255 0 0
-15.7772 -1.86025 -3.92382 255 0 0
-15.1899 -0.811119 -4.87818 255 0 0
-15.57 -1.23932 -4.28789 255 0 0
-15.2382 -1.2129 -4.89234 255 0 0
-16.0545 -0.590281 -4.35323 255 0 0
-18.566 -1.6995 -3.47508 255 0 0
-15.3794 -1.37104 -4.52451 255 0 0
-15.7646 -1.2172 -3.64857 255 0 0
-16.7323 -0.933271 -3.46616 255 0 0
-16.8989 -0.982762 -3.48096 255 0 0
-17.0654 -1.03305 -3.49576 255 0 0
-17.0513 -1.07277 -3.49474 255 0 0
-16.9443 -1.1871 -3.48607 255 0 0
-16.9705 -1.22938 -3.48862 255 0 0
-16.8687 -1.26222 -3.47994 255 0 0
-16.0775 -1.27971 -3.41105 255 0 0
-16.1849 -1.32688 -3.42074 255 0 0
-15.8297 -1.37337 -3.39013 255 0 0
-15.9706 -1.50011 -3.40339 255 0 0
-15.9437 -1.53574 -3.40135 255 0 0
-15.1983 -1.02858 -5.0136 255 0 0
-15.3322 -0.964618 -4.38085 255 0 0
-16.7169 -0.614635 -3.88482 255 0 0
-16.1424 -1.70953 -3.55622 255 0 0
-15.7798 -1.93646 -3.92523 255 0 0
-15.4244 -0.823637 -4.13158 255 0 0
-15.3683 -0.711058 -4.77872 255 0 0
-16.989 -0.664979 -3.62998 255 0 0
-16.8849 -0.781225 -3.62048 255 0 0
-16.9179 -0.822956 -3.62383 255 0 0
-15.9185 -0.850025 -3.52828 255 0 0
-16.1913 -0.980137 -3.5551 255 0 0
-16.317 -1.02658 -3.56739 255 0 0
-16.3028 -1.0645 -3.56628 255 0 0
-16.0623 -1.16359 -3.54392 255 0 0
-16.2165 -1.21341 -3.55901 255 0 0
-16.2891 -1.25769 -3.56628 255 0 0
-16.2047 -1.28984 -3.55845 255 0 0
-16.1958 -1.32778 -3.55789 255 0 0
-16.1022 -1.39701 -3.54951 255 0 0
-16.1859 -1.44294 -3.55789 255 0 0
-16.1193 -1.59123 -3.55287 255 0 0
-16.158 -1.67245 -3.55734 255 0 0
-15.9966 -1.80924 -3.54337 255 0 0
-15.9807 -1.84583 -3.54225 255 0 0
-15.2709 -1.4344 -4.90213 255 0 0
-16.9368 -0.502115 -4.19495 255 0 0
-15.3405 -0.855641 -4.25055 255 0 0
-15.4137 -0.859726 -4.39251 255 0 0
-16.9191 -0.461443 -4.33569 255 0 0
-16.477 -0.644939 -3.85794 255 0 0
-15.5896 -2.101 -4.70636 255 0 0
-17.1292 -0.589128 -3.78701 255 0 0
-16.924 -0.62225 -3.76576 255 0 0
-16.8003 -0.657592 -3.75301 255 0 0
-16.4363 -0.721419 -3.71536 255 0 0
-16.2949 -0.753928 -3.70079 255 0 0
-16.1593 -0.786053 -3.68682 255 0 0
-15.9221 -0.963839 -3.66314 255 0 0
-15.9023 -1.00049 -3.66132 255 0 0
-15.8023 -1.18242 -3.65221 255 0 0
-15.7717 -1.27418 -3.64978 255 0 0
-15.7676 -1.42449 -3.65069 255 0 0
-15.777 -1.48193 -3.65221 255 0 0
-16.0223 -1.77368 -3.68075 255 0 0
-15.9833 -1.80774 -3.67711 255 0 0
-15.8531 -1.86919 -3.66436 255 0 0
-15.9064 -1.91373 -3.67043 255 0 0
-15.37 -1.29678 -4.65374 255 0 0
-16.0512 -0.513953 -4.76295 255 0 0
-17.7917 -0.147648 -4.90904 255 0 0
-15.9372 -0.661659 -4.20122 255 0 0
-15.4489 -1.78441 -4.67558 255 0 0
-15.336 -1.01963 -4.64431 255 0 0
-17.5305 -0.478115 -3.97594 255 0 0
-17.1151 -0.548018 -3.9294 255 0 0
-15.8251 -0.769796 -3.78517 255 0 0
-15.7651 -0.804351 -3.77861 255 0 0
-15.6278 -0.964629 -3.76419 255 0 0
-15.6509 -1.0592 -3.76747 255 0 0
-15.6546 -1.17137 -3.76878 255 0 0
-15.6923 -1.21162 -3.77337 255 0 0
-15.7033 -1.3624 -3.77599 255 0 0
-15.7418 -1.42218 -3.7809 255 0 0
-15.728 -1.47733 -3.77992 255 0 0
-15.7045 -1.56909 -3.77828 255 0 0
-15.7654 -1.63182 -3.78582 255 0 0
-15.7575 -1.70656 -3.78582 255 0 0
-15.7823 -1.74712 -3.7891 255 0 0
-15.7492 -1.78126 -3.78582 255 0 0
-15.8258 -1.82794 -3.795 255 0 0
-15.7752 -1.86001 -3.78976 255 0 0
-15.8228 -1.90367 -3.79566 255 0 0
-15.8644 -1.94685 -3.8009 255 0 0
-15.2279 -1.24843 -5.02269 255 0 0
-15.2757 -1.61775 -4.90649 255 0 0
-15.3695 -1.37016 -4.65473 255 0 0
-15.4816 -1.89987 -4.68352 255 0 0
-15.5863 -0.721141 -4.15319 255 0 0
-16.1833 -0.518184 -4.64733 255 0 0
-16.8196 -0.538557 -4.03786 255 0 0
-16.6208 -0.571642 -4.01392 255 0 0
-16.0587 -0.666702 -3.94635 255 0 0
-15.9409 -0.699678 -3.93227 255 0 0
-15.6218 -0.90849 -3.89496 255 0 0
-15.7481 -1.5923 -3.91678 255 0 0
-15.37 -0.674618 -4.77872 255 0 0
-15.2045 -0.956588 -4.88254 255 0 0
-15.4307 -1.63416 -4.66963 255 0 0
-15.32 -0.745227 -4.63885 255 0 0
-17.1654 -0.427432 -4.22428 255 0 0
-16.715 -0.535209 -4.16636 255 0 0
-15.542 -0.792969 -4.01592 255 0 0
-15.4388 -0.971327 -4.00389 255 0 0
-15.5813 -1.01739 -4.02269 255 0 0
-15.5476 -1.31176 -4.02119 255 0 0
-15.5345 -1.45915 -4.02119 255 0 0
-15.6723 -1.961 -4.04601 255 0 0
-15.3448 -1.51477 -4.78497 255 0 0
-15.1885 -0.811041 -5.00905 255 0 0
-15.4574 -1.19348 -4.27091 255 0 0
-17.5889 -0.354528 -4.42775 255 0 0
-16.7151 -0.495541 -4.30768 255 0 0
-16.5167 -0.52886 -4.28046 255 0 0
-15.9561 -0.624551 -4.20362 255 0 0
-15.698 -0.689017 -4.1684 255 0 0
-15.4744 -0.75274 -4.13798 255 0 0
-15.4379 -0.787655 -4.13318 255 0 0
-15.5397 -0.94069 -4.14839 255 0 0
-15.8758 -1.87187 -4.20602 255 0 0
-15.702 -2.00254 -4.18441 255 0 0
-15.2659 -0.67005 -4.89125 255 0 0
-17.6268 -0.313484 -4.58236 255 0 0
-16.9686 -0.462793 -4.48646 255 0 0
-16.001 -0.626305 -4.34559 255 0 0
-15.4041 -0.749317 -4.25903 255 0 0
-15.437 -0.78761 -4.26413 255 0 0
-15.4704 -0.918081 -4.27007 255 0 0
-15.5912 -1.46448 -4.29383 255 0 0
-15.6841 -1.58583 -4.3091 255 0 0
-15.6393 -2.06996 -4.3108 255 0 0
-15.8631 -1.79415 -4.47411 255 0 0
-17.7634 -0.0210586 -4.90432 255 0 0
-17.7174 -0.0630125 -4.74583 255 0 0
-17.7111 -0.14698 -4.74493 255 0 0
-17.8427 -0.275006 -4.76556 255 0 0
-17.7147 -0.315046 -4.74583 255 0 0
-17.1808 -0.387056 -4.66333 255 0 0
-16.9427 -0.421886 -4.62656 255 0 0
-16.5356 -0.49022 -4.56379 255 0 0
-16.3667 -0.524055 -4.53778 255 0 0
-16.082 -0.553114 -4.49384 255 0 0
-16.0286 -0.589329 -4.48577 255 0 0
-15.9289 -0.623484 -4.47053 255 0 0
-15.6788 -0.65093 -4.43197 255 0 0
-15.3501 -0.746693 -4.38175 255 0 0
-15.3945 -0.785444 -4.38892 255 0 0
-15.4463 -0.898285 -4.39789 255 0 0
-15.2415 -1.10413 -4.3683 255 0 0
-15.5602 -1.46156 -4.4221 255 0 0
-15.5185 -1.53192 -4.41672 255 0 0
-15.4745 -1.56464 -4.41045 255 0 0
-15.6204 -1.61681 -4.43376 255 0 0
-15.712 -1.73934 -4.4499 255 0 0
-15.5657 -1.79789 -4.42838 255 0 0
-15.5729 -2.02362 -4.43376 255 0 0
-15.5738 -2.06129 -4.43466 255 0 0
-15.2609 -1.06917 -4.76311 255 0 0
-17.8037 -0.0633196 -4.91093 255 0 0
-17.8197 -0.232392 -4.91377 255 0 0
-17.6746 -0.272415 -4.89015 255 0 0
-16.9443 -0.381729 -4.7711 255 0 0
-16.6419 -0.453882 -4.72197 255 0 0
-16.4329 -0.487175 -4.68796 255 0 0
-15.9915 -0.549998 -4.61616 255 0 0
-15.8515 -0.582817 -4.59348 255 0 0
-15.414 -0.67655 -4.52262 255 0 0
-15.3298 -0.745705 -4.50939 255 0 0
-15.3096 -0.999644 -4.50845 255 0 0
-15.4164 -1.41119 -4.53112 255 0 0
-15.389 -1.57442 -4.52923 255 0 0
-15.389 -1.62975 -4.53018 255 0 0
-15.4483 -1.67308 -4.54057 255 0 0
-15.4156 -1.70652 -4.53585 255 0 0
-15.5091 -1.75411 -4.55191 255 0 0
-15.6052 -1.87749 -4.56986 255 0 0
-15.5246 -2.05477 -4.56041 255 0 0
-15.3546 -1.5893 -4.78809 255 0 0
-15.2727 -0.779229 -4.76207 255 0 0
-17.8184 -0.190122 -5.06575 255 0 0
-17.7314 -0.23124 -5.05086 255 0 0
-17.448 -0.268923 -5.00221 255 0 0
-16.9908 -0.342472 -4.92378 255 0 0
-16.3996 -0.447272 -4.82252 255 0 0
-15.7775 -0.580097 -4.71629 255 0 0
-15.6089 -0.610959 -4.6875 255 0 0
-15.3579 -0.674089 -4.64481 255 0 0
-15.339 -0.709701 -4.64183 255 0 0
-15.3009 -0.780666 -4.63587 255 0 0
-15.3451 -0.819404 -4.64381 255 0 0
-15.3065 -0.890152 -4.63786 255 0 0
-15.3043 -0.926441 -4.63786 255 0 0
-15.3827 -0.967798 -4.65175 255 0 0
-15.3582 -1.07598 -4.64878 255 0 0
-15.3501 -1.25844 -4.64977 255 0 0
-15.3382 -1.33072 -4.64878 255 0 0
-15.3881 -1.48221 -4.6597 255 0 0
-15.3902 -1.51926 -4.66069 255 0 0
-15.4153 -1.55865 -4.66565 255 0 0
-15.4096 -1.66888 -4.66665 255 0 0
-15.4129 -1.74323 -4.66863 255 0 0
-15.4389 -1.82035 -4.67459 255 0 0
-15.2365 -1.12193 -4.8907 255 0 0
-15.2953 -1.36355 -4.77352 255 0 0
-15.1189 -0.735445 -4.86403 255 0 0
-15.3148 -0.744975 -4.76935 255 0 0
-17.128 -0.304612 -5.09406 255 0 0
-16.77 -0.338023 -5.02953 255 0 0
-16.6655 -0.375448 -5.0108 255 0 0
-16.4457 -0.40951 -4.97125 255 0 0
-16.1682 -0.440961 -4.9213 255 0 0
-16.0346 -0.475368 -4.89736 255 0 0
-15.8837 -0.50859 -4.8703 255 0 0
-15.7155 -0.540505 -4.84012 255 0 0
-15.4536 -0.604881 -4.79329 255 0 0
-15.4118 -0.639847 -4.78601 255 0 0
-15.2766 -0.815746 -4.76311 255 0 0
-15.2649 -0.869584 -4.76155 255 0 0
-15.2704 -0.924388 -4.76311 255 0 0
-15.2682 -0.960591 -4.76311 255 0 0
-15.2858 -1.12555 -4.76831 255 0 0
-15.2932 -1.1808 -4.7704 255 0 0
-15.2846 -1.2166 -4.76935 255 0 0
-15.2888 -1.27168 -4.77092 255 0 0
-15.3329 -1.33027 -4.77976 255 0 0
-15.3162 -1.42033 -4.7782 255 0 0
-15.3254 -1.47618 -4.7808 255 0 0
-15.3641 -1.66395 -4.79121 255 0 0
-15.3658 -1.70101 -4.79225 255 0 0
-15.2709 -1.21551 -5.03064 255 0 0
-16.3523 -0.368392 -5.09481 255 0 0
-16.1789 -0.402866 -5.06215 255 0 0
-16.0053 -0.43652 -5.0295 255 0 0
-15.9007 -0.471399 -5.0099 255 0 0
-15.4326 -0.530776 -4.92173 255 0 0
-15.3207 -0.599677 -4.90105 255 0 0
-15.3077 -0.635523 -4.89887 255 0 0
-15.2013 -0.865958 -4.88091 255 0 0
-15.2194 -0.99376 -4.8858 255 0 0
-15.217 -1.02984 -4.8858 255 0 0
-15.2375 -1.06753 -4.89016 255 0 0
-15.2353 -1.17633 -4.89125 255 0 0
-15.2468 -1.5051 -4.89887 255 0 0
-15.2566 -1.57916 -4.90213 255 0 0
-15.5398 -0.534465 -5.0761 255 0 0
-15.4007 -0.566243 -5.04883 255 0 0
-15.2559 -0.59714 -5.02042 255 0 0
-15.2028 -0.631166 -5.01019 255 0 0
-15.1903 -0.775026 -5.00905 255 0 0
-15.2052 -0.920444 -5.0136 255 0 0
-15.2019 -0.974515 -5.0136 255 0 0
-15.2135 -1.13837 -5.01815 255 0 0
-15.2681 -1.17886 -5.02951 255 0 0
-15.2505 -1.32311 -5.02837 255 0 0
-15.2795 -1.41693 -5.03576 255 0 0
-15.283 -1.47209 -5.03746 255 0 0
-15.2794 -1.50832 -5.03746 255 0 0
-15.4452 -2.15616 -5.08519 255 0 0
-15.356 -1.73679 -4.79121 255 0 0
-18.5259 -1.74013 -3.62794 255 0 0
-15.4632 -1.8604 -4.67955 255 0 0
-15.4084 -1.92798 -4.67161 255 0 0
-15.525 -2.01738 -4.69345 255 0 0
-15.5201 -2.05418 -4.69345 255 0 0
-15.3347 -1.77121 -4.78809 255 0 0
-15.4091 -1.66883 -4.93261 255 0 0
-15.2815 -1.54512 -5.0386 255 0 0
-15.3178 -1.58549 -5.04655 255 0 0
-15.3641 -2.07062 -5.06701 255 0 0
-15.382 -2.11016 -5.07155 255 0 0
