ply
format ascii 1.0
comment Created by Open3D
element vertex 816
property double x
property double y
property double z
property uchar red
property uchar green
property uchar blue
end_header
-10.1658 8.73991 -4.19194 255 0 0
-9.2693 8.72515 -4.19011 255 0 0
-8.85864 9.56899 -5.14782 255 0 0
-9.81679 9.50749 -5.29896 255 0 0
-8.95392 9.53495 -4.81436 255 0 0
-10.0155 9.83893 -4.41547 255 0 0
-10.2012 8.66571 -5.11363 255 0 0
-9.10645 8.67426 -4.37962 255 0 0
-8.70559 8.31212 -5.33265 255 0 0
-9.89463 9.49236 -5.30995 255 0 0
-9.02791 8.74346 -4.48633 255 0 0
-8.93867 9.12066 -4.85901 255 0 0
-9.74792 7.90966 -5.14097 255 0 0
-8.95616 8.53107 -4.55399 255 0 0
-8.70697 8.19583 -5.31077 255 0 0
-9.10186 9.71555 -4.51896 255 0 0
-8.92477 10.1111 -4.90181 255 0 0
-8.87703 10.3999 -5.06112 255 0 0
-8.77035 8.49402 -5.16296 255 0 0
-9.09826 7.89744 -5.01448 255 0 0
-8.84976 7.83013 -5.27171 255 0 0
-8.92515 9.6868 -4.83406 255 0 0
-10.1048 8.94054 -4.90304 255 0 0
-9.9545 8.68213 -4.27251 255 0 0
-8.8822 8.12559 -4.906 255 0 0
-8.81559 10.4277 -5.29621 255 0 0
-8.84756 8.28869 -4.92661 255 0 0
-9.03693 9.37532 -4.57611 255 0 0
-8.94541 9.99032 -5.23713 255 0 0
-9.60432 8.10003 -4.59425 255 0 0
-9.05211 7.81981 -5.20522 255 0 0
-9.65425 8.2208 -4.39921 255 0 0
-8.96996 8.44339 -4.65055 255 0 0
-8.97865 8.09727 -4.70678 255 0 0
-9.53135 8.5141 -4.30832 255 0 0
-8.97202 9.78413 -4.74107 255 0 0
-8.76426 7.7916 -5.3521 255 0 0
-10.0433 8.63454 -4.05264 255 0 0
-9.01538 8.64886 -4.47156 255 0 0
-8.67272 8.1249 -5.5041 255 0 0
-8.70319 9.26795 -5.29365 255 0 0
-9.06111 8.13277 -4.61975 255 0 0
-8.85755 10.3771 -5.29346 255 0 0
-8.8485 8.07552 -4.99742 255 0 0
-9.52567 8.46851 -4.30207 255 0 0
-8.71365 10.4319 -5.52125 255 0 0
-8.95478 8.94415 -4.72321 255 0 0
-9.03312 9.71117 -4.62383 255 0 0
-8.98218 7.9094 -4.99458 255 0 0
-10.0092 7.96548 -4.97566 255 0 0
-9.03101 9.57147 -4.60338 255 0 0
-8.81583 8.18082 -4.90325 255 0 0
-8.71955 8.09147 -5.29359 255 0 0
-8.68785 8.10048 -5.50244 255 0 0
-8.96998 8.2647 -4.51847 255 0 0
-9.025 7.83384 -5.20219 255 0 0
-8.94757 8.70687 -4.68626 255 0 0
-8.74074 7.86395 -5.46684 255 0 0
-9.16398 9.52969 -4.50154 255 0 0
-10.2093 8.92569 -4.91782 255 0 0
-8.7051 7.98255 -5.48257 255 0 0
-9.63228 8.08461 -4.59662 255 0 0
-9.70453 9.62433 -4.46859 255 0 0
-9.43257 7.91698 -5.08127 255 0 0
-8.95291 9.35449 -4.78603 255 0 0
-9.18144 7.93154 -5.03579 255 0 0
-8.8777 8.93048 -4.92923 255 0 0
-8.89209 10.1223 -5.01635 255 0 0
-8.91981 8.23803 -4.7183 255 0 0
-10.1175 8.01254 -5.00219 255 0 0
-8.80378 7.9775 -5.07779 255 0 0
-8.76403 8.6916 -5.08838 255 0 0
-9.80931 8.11497 -4.73923 255 0 0
-9.03281 9.00075 -4.5227 255 0 0
-10.1995 7.844 -5.44769 255 0 0
-8.89656 10.0311 -5.11894 255 0 0
-8.91319 8.47002 -4.86024 255 0 0
-8.82451 10.5392 -5.3182 255 0 0
-8.83188 10.3968 -5.17333 255 0 0
-9.02796 9.6138 -4.60906 255 0 0
-8.79119 10.4489 -5.41669 255 0 0
-8.72531 8.13541 -5.41004 255 0 0
-8.84938 7.90492 -5.17945 255 0 0
-10.1085 8.79539 -5.11695 255 0 0
-8.95876 7.83237 -5.18855 255 0 0
-8.803 8.09157 -4.99174 255 0 0
-9.07571 9.9919 -4.67042 255 0 0
-8.72925 8.4142 -5.14093 255 0 0
-8.7269 8.41194 -5.46475 255 0 0
-8.78108 8.87528 -5.12391 255 0 0
-8.76536 7.8112 -5.46187 255 0 0
-9.83475 8.86933 -4.27846 255 0 0
-9.60413 8.21748 -4.39159 255 0 0
-8.96271 8.25798 -4.62222 255 0 0
-9.21109 9.53334 -5.20003 255 0 0
-8.75299 7.89376 -5.15824 255 0 0
-8.83386 8.59621 -5.08412 255 0 0
-8.95877 9.01203 -4.62385 255 0 0
-8.80459 10.0708 -5.34705 255 0 0
-9.97528 8.86822 -5.22202 255 0 0
-8.85119 7.86888 -5.17339 255 0 0
-8.87087 8.79755 -5.01592 255 0 0
-9.36876 8.09336 -4.55636 255 0 0
-9.66657 9.8167 -4.48836 255 0 0
-9.87393 8.08987 -4.85773 255 0 0
-10.0392 8.67256 -4.28244 255 0 0
-9.14014 8.16465 -4.637 255 0 0
-9.34267 9.76173 -4.44049 255 0 0
-9.00657 8.47785 -4.55399 255 0 0
-8.54773 10.4076 -5.36979 255 0 0
-8.72965 8.17823 -5.20522 255 0 0
-8.93119 10.1183 -5.37689 255 0 0
-8.8131 8.67831 -5.09478 255 0 0
-10.1444 8.19161 -4.57951 255 0 0
-8.91704 8.86434 -4.81488 255 0 0
-8.86394 9.9943 -5.22477 255 0 0
-9.71094 9.49463 -4.45298 255 0 0
-9.76789 8.23798 -4.41772 255 0 0
-9.03194 7.83987 -5.09835 255 0 0
-9.21055 8.28661 -4.34424 255 0 0
-8.94471 9.75434 -4.84761 255 0 0
-10.0305 9.80708 -4.41348 255 0 0
-9.45017 8.60411 -4.30832 255 0 0
-8.6737 8.32107 -5.43578 255 0 0
-8.89162 10.0735 -5.12557 255 0 0
-9.10941 9.4281 -5.28025 255 0 0
-9.9346 8.62339 -3.81541 255 0 0
-9.93389 8.70571 -4.27251 255 0 0
-9.09727 10.0156 -5.02914 255 0 0
-10.1116 9.83961 -4.42738 255 0 0
-8.71769 8.48317 -5.15121 255 0 0
-9.7217 8.35809 -4.3156 255 0 0
-9.91755 8.73305 -4.2735 255 0 0
-8.96469 9.50119 -4.69726 255 0 0
-8.96314 9.2328 -4.65701 255 0 0
-9.13222 9.81771 -4.42175 255 0 0
-9.92404 8.86489 -4.28938 255 0 0
-8.89457 9.93354 -5.10169 255 0 0
-9.29797 9.78444 -4.43789 255 0 0
-10.1015 8.47839 -5.18355 255 0 0
-10.1281 8.21816 -5.03403 255 0 0
-8.94992 8.46463 -4.65055 255 0 0
-9.85339 8.31009 -4.32809 255 0 0
-8.7366 7.91662 -5.05429 255 0 0
-8.9091 10.0692 -5.00995 255 0 0
-8.94851 9.87538 -4.75173 255 0 0
-8.92443 9.19292 -5.09286 255 0 0
-9.23782 8.2519 -4.3437 255 0 0
-8.99478 9.35374 -4.6795 255 0 0
-9.10327 8.56887 -4.36547 255 0 0
-9.91991 8.56948 -3.809 255 0 0
-10.0404 8.71525 -4.2874 255 0 0
-9.09321 9.01806 -4.42316 255 0 0
-8.70083 8.60847 -5.38889 255 0 0
-9.92283 8.7377 -4.04906 255 0 0
-8.84161 10.4584 -5.42664 255 0 0
-8.92837 9.92385 -4.87225 255 0 0
-8.89267 10.3187 -5.04961 255 0 0
-9.46376 8.65761 -4.31664 255 0 0
-8.75376 8.66085 -5.19012 255 0 0
-10.0294 8.29707 -4.35099 255 0 0
-8.96379 8.04542 -4.80187 255 0 0
-9.10478 9.64965 -4.51025 255 0 0
-9.0215 8.94695 -4.51361 255 0 0
-8.88104 8.08594 -4.79391 255 0 0
-9.55615 8.21576 -4.49315 255 0 0
-9.03924 8.87991 -4.50679 255 0 0
-9.57157 8.03365 -4.68873 255 0 0
-8.98303 9.88987 -4.87471 255 0 0
-8.71922 9.73771 -5.38616 255 0 0
-8.9604 9.81808 -4.74463 255 0 0
-9.0941 8.97627 -4.41772 255 0 0
-8.74891 9.81761 -5.40671 255 0 0
-9.13359 8.80395 -4.4003 255 0 0
-8.84862 9.0717 -5.17081 255 0 0
-9.3992 8.76374 -4.21095 255 0 0
-8.72718 10.1754 -5.47279 255 0 0
-8.9136 8.37045 -4.73748 255 0 0
-8.96561 9.06178 -4.63214 255 0 0
-9.10256 8.52759 -4.36002 255 0 0
-9.06024 8.46781 -4.45338 255 0 0
-9.11102 8.37469 -4.34152 255 0 0
-8.82888 7.92432 -5.07338 255 0 0
-8.86029 8.18307 -4.91149 255 0 0
-9.54663 8.81695 -4.23577 255 0 0
-8.86174 10.1604 -5.13618 255 0 0
-8.74911 10.6528 -5.57118 255 0 0
-8.8917 8.7765 -5.01592 255 0 0
-10.1843 8.75578 -5.12424 255 0 0
-9.15457 9.47484 -4.49283 255 0 0
-8.86465 10.2862 -5.15874 255 0 0
-9.30259 8.71499 -4.19308 255 0 0
-8.72754 9.20601 -5.2863 255 0 0
-8.8418 8.52269 -5.07275 255 0 0
-9.96857 7.81795 -5.50764 255 0 0
-10.1142 8.97032 -5.02658 255 0 0
-9.84164 7.8321 -5.2584 255 0 0
-9.85938 9.82438 -4.39462 255 0 0
-9.92319 7.82043 -5.27309 255 0 0
-8.90107 9.84645 -4.97158 255 0 0
-9.03788 9.53336 -4.59883 255 0 0
-8.78703 8.88129 -5.01592 255 0 0
-10.1484 8.43608 -5.06985 255 0 0
-10.1197 8.25118 -4.80943 255 0 0
-9.60876 9.71183 -4.46755 255 0 0
-8.70832 8.41396 -5.24462 255 0 0
-8.74357 7.99877 -5.28109 255 0 0
-9.86692 9.51081 -5.18792 255 0 0
-9.15398 8.65763 -4.38397 255 0 0
-8.96961 10.2595 -5.05089 255 0 0
-10.057 7.86807 -5.19497 255 0 0
-8.91124 9.17934 -4.86413 255 0 0
-8.95874 10.2716 -4.9326 255 0 0
-8.6946 10.4846 -5.52859 255 0 0
-8.69728 8.03252 -5.49085 255 0 0
-10.0381 8.79704 -5.22202 255 0 0
-8.69869 8.48478 -5.25598 255 0 0
-9.71374 7.9202 -5.02554 255 0 0
-9.47803 8.54763 -4.30519 255 0 0
-8.69076 8.78399 -5.20114 255 0 0
-10.0993 8.27448 -4.58292 255 0 0
-8.98922 8.9573 -4.6203 255 0 0
-9.39497 7.80979 -5.38264 255 0 0
-8.69929 7.86406 -5.3521 255 0 0
-9.05031 8.1619 -4.62222 255 0 0
-8.68057 8.28823 -5.53887 255 0 0
-8.9931 9.53129 -5.27883 255 0 0
-9.06354 8.53147 -4.46247 255 0 0
-9.02331 8.82232 -4.49656 255 0 0
-10.0035 8.89329 -5.11363 255 0 0
-9.74 9.52304 -5.04961 255 0 0
-8.72259 8.21053 -5.20976 255 0 0
-8.82138 8.38278 -4.9376 255 0 0
-8.95985 8.97048 -4.61793 255 0 0
-9.78699 9.47863 -5.16935 255 0 0
-9.60137 7.90468 -5.00218 255 0 0
-9.80466 8.77916 -4.15179 255 0 0
-8.9707 9.15334 -4.64635 255 0 0
-8.96881 10.0644 -4.90057 255 0 0
-10.1137 8.22635 -4.4667 255 0 0
-9.46951 8.78742 -4.33329 255 0 0
-10.1905 8.34923 -5.06454 255 0 0
-9.44966 9.82677 -4.46234 255 0 0
-10.1074 8.20136 -4.91401 255 0 0
-8.74779 8.31285 -5.12625 255 0 0
-8.89161 9.6046 -5.04464 255 0 0
-8.72012 7.86412 -5.56869 255 0 0
-9.46916 8.7454 -4.32809 255 0 0
-8.73611 10.3835 -5.51538 255 0 0
-9.01967 8.23173 -4.52143 255 0 0
-8.99806 8.7768 -4.59544 255 0 0
-8.74917 8.39347 -5.14093 255 0 0
-10.0218 7.9367 -5.08599 255 0 0
-8.71053 8.2578 -5.32327 255 0 0
-8.81405 9.56622 -5.25467 255 0 0
-9.6652 8.07326 -4.81935 255 0 0
-8.85613 8.02493 -4.99031 255 0 0
-10.1454 8.13289 -4.79773 255 0 0
-9.91152 8.76955 -4.61815 255 0 0
-10.0902 8.55084 -4.27549 255 0 0
-9.59725 8.82162 -4.24272 255 0 0
-8.71705 9.37137 -5.31567 255 0 0
-8.83482 10.5008 -5.3127 255 0 0
-9.63488 7.81794 -5.21435 255 0 0
-8.98483 8.14156 -4.71446 255 0 0
-8.72781 9.03314 -5.254 255 0 0
-8.8588 10.3289 -5.16537 255 0 0
-9.88395 8.17672 -4.64872 255 0 0
-8.96513 9.27877 -4.66411 255 0 0
-8.76229 8.07335 -5.0866 255 0 0
-8.95496 9.62714 -5.17393 255 0 0
-8.94809 9.66561 -4.83406 255 0 0
-10.0743 8.21421 -4.57156 255 0 0
-8.98212 9.07847 -4.74785 255 0 0
-8.75834 8.56325 -5.17324 255 0 0
-8.99203 8.34433 -4.63946 255 0 0
-9.12382 9.39832 -5.27741 255 0 0
-8.93257 10.5154 -5.45222 255 0 0
-9.79303 8.31896 -4.3208 255 0 0
-8.88217 8.80877 -5.57579 255 0 0
-9.03979 8.38865 -4.43974 255 0 0
-8.69703 7.9562 -5.58231 255 0 0
-8.85367 9.65506 -5.0473 255 0 0
-8.74619 9.95624 -5.43314 255 0 0
-10.0452 8.55372 -5.18492 255 0 0
-8.96316 9.32086 -4.78233 255 0 0
-10.2496 8.03838 -5.03005 255 0 0
-9.06494 8.65523 -4.47952 255 0 0
-9.18223 7.8565 -5.13065 255 0 0
-8.71989 9.32997 -5.30833 255 0 0
-8.65726 8.66753 -5.28251 255 0 0
-9.90314 9.82129 -4.39959 255 0 0
-8.85049 8.86098 -4.91331 255 0 0
-9.41301 8.24923 -4.47611 255 0 0
-8.69116 8.51775 -5.36936 255 0 0
-9.09201 9.59046 -4.50045 255 0 0
-8.72492 8.69394 -5.19086 255 0 0
-10.2042 8.77287 -4.3152 255 0 0
-8.72943 8.06221 -5.184 255 0 0
-8.90002 9.93963 -4.98693 255 0 0
-8.98031 9.11979 -4.6428 255 0 0
-9.93249 8.29652 -4.33746 255 0 0
-9.53686 8.55977 -4.31456 255 0 0
-9.98648 8.7518 -3.94504 255 0 0
-10.0132 8.71242 -3.94419 255 0 0
-9.9608 8.6048 -3.92807 255 0 0
-8.96624 9.413 -4.79711 255 0 0
-8.74996 8.23631 -5.11303 255 0 0
-9.91942 8.77654 -4.05264 255 0 0
-9.90637 8.07726 -4.86157 255 0 0
-8.98892 7.95326 -5.00311 255 0 0
-9.04766 9.72681 -4.51351 255 0 0
-9.96725 8.65173 -4.04547 255 0 0
-10.0271 8.66211 -4.05354 255 0 0
-10.1341 8.6709 -4.06699 255 0 0
-9.05102 8.20153 -4.52202 255 0 0
-10.1606 8.88309 -5.02147 255 0 0
-9.77093 8.85388 -4.26854 255 0 0
-10.1284 8.13902 -4.9089 255 0 0
-10.1031 8.72771 -5.10567 255 0 0
-9.72858 8.8576 -4.26357 255 0 0
-8.93369 9.51341 -4.92169 255 0 0
-9.88981 8.79224 -4.1636 255 0 0
-9.86735 8.73047 -4.15415 255 0 0
-9.93139 8.74524 -4.1636 255 0 0
-9.98252 8.74833 -4.17021 255 0 0
-10.0468 8.76262 -4.17966 255 0 0
-9.94098 8.62892 -4.15226 255 0 0
-9.87395 8.52978 -4.13336 255 0 0
-10.1338 8.6707 -4.1806 255 0 0
-8.88327 9.02124 -4.94515 255 0 0
-8.89628 10.2245 -5.39111 255 0 0
-8.69469 8.54143 -5.26583 255 0 0
-8.97531 10.1199 -4.91043 255 0 0
-8.71277 8.08518 -5.07926 255 0 0
-9.93872 9.80995 -4.40256 255 0 0
-9.27374 8.7709 -4.19606 255 0 0
-9.45379 8.77283 -4.2189 255 0 0
-9.66072 8.83779 -4.25265 255 0 0
-9.84287 8.83443 -4.27549 255 0 0
-9.97953 8.872 -4.29733 255 0 0
-9.96164 8.8139 -4.28839 255 0 0
-10.0671 8.6136 -4.27946 255 0 0
-9.98643 8.50366 -4.25662 255 0 0
-10.0972 8.51573 -4.27251 255 0 0
-10.1041 8.48064 -4.26953 255 0 0
-8.88525 10.2118 -5.03042 255 0 0
-9.0499 8.68198 -4.58951 255 0 0
-9.07593 7.80289 -5.4213 255 0 0
-8.9662 8.8921 -4.71706 255 0 0
-9.00106 8.41246 -4.54393 255 0 0
-8.70555 8.35162 -5.23249 255 0 0
-9.19875 9.84233 -4.4332 255 0 0
-9.19839 9.79529 -4.42696 255 0 0
-9.27695 9.83213 -4.44153 255 0 0
-9.44891 9.77948 -4.4561 255 0 0
-9.52425 9.81079 -4.46963 255 0 0
-9.53944 9.77993 -4.46755 255 0 0
-9.62713 9.82313 -4.4842 255 0 0
-9.64395 9.70128 -4.47067 255 0 0
-9.66692 9.67839 -4.47067 255 0 0
-9.66944 9.63511 -4.46546 255 0 0
-9.6617 9.53652 -4.45194 255 0 0
-9.70484 9.53378 -4.45714 255 0 0
-9.6467 9.38719 -4.43112 255 0 0
-9.58615 9.28412 -4.41031 255 0 0
-9.44634 9.10541 -4.36972 255 0 0
-9.11442 8.72314 -4.27866 255 0 0
-9.22266 8.76411 -4.29791 255 0 0
-9.41924 8.90851 -4.34162 255 0 0
-9.49916 8.9203 -4.35359 255 0 0
-9.48237 8.84128 -4.34162 255 0 0
-9.48987 8.72292 -4.32809 255 0 0
-9.47054 8.58168 -4.30832 255 0 0
-9.55572 8.43457 -4.30207 255 0 0
-9.59433 8.40813 -4.30415 255 0 0
-9.61858 8.38915 -4.30519 255 0 0
-9.65924 8.36431 -4.3078 255 0 0
-9.74587 8.33876 -4.31664 255 0 0
-9.89955 8.30893 -4.33433 255 0 0
-10.0053 8.31714 -4.34994 255 0 0
-10.1203 8.33186 -4.36764 255 0 0
-8.6997 9.4646 -5.33036 255 0 0
-9.66411 7.91796 -5.01592 255 0 0
-9.70235 7.81561 -5.22757 255 0 0
-8.98356 7.79787 -5.40038 255 0 0
-10.2167 7.89581 -5.34504 255 0 0
-8.79539 9.63728 -5.26462 255 0 0
-8.85609 7.91092 -5.07632 255 0 0
-9.10029 8.24618 -4.42952 255 0 0
-9.05975 9.78623 -4.52331 255 0 0
-9.19805 9.65636 -4.52331 255 0 0
-9.16125 9.57217 -4.50698 255 0 0
-9.1169 9.39118 -4.4765 255 0 0
-9.11806 9.32578 -4.46779 255 0 0
-9.10154 9.22103 -4.45146 255 0 0
-9.09035 9.12274 -4.43677 255 0 0
-9.10033 9.06803 -4.43078 255 0 0
-9.11157 8.92978 -4.41391 255 0 0
-9.12885 8.88327 -4.4101 255 0 0
-9.10856 8.82158 -4.39921 255 0 0
-9.10047 8.73049 -4.38615 255 0 0
-9.10334 8.46772 -4.3524 255 0 0
-9.11227 8.41579 -4.34696 255 0 0
-9.16057 8.38025 -4.34914 255 0 0
-9.18892 8.36625 -4.35132 255 0 0
-9.17036 8.30967 -4.34152 255 0 0
-9.27025 8.24144 -4.34696 255 0 0
-9.3027 8.23088 -4.35023 255 0 0
-9.36 8.22241 -4.3573 255 0 0
-9.46181 8.2327 -4.37309 255 0 0
-9.51717 8.22156 -4.37962 255 0 0
-9.56281 8.22148 -4.38615 255 0 0
-9.70005 8.2202 -4.40574 255 0 0
-9.7874 8.2148 -4.41772 255 0 0
-9.84217 8.22108 -4.42643 255 0 0
-9.90588 8.23449 -4.43731 255 0 0
-9.94311 8.22565 -4.44167 255 0 0
-10.007 8.23862 -4.45255 255 0 0
-10.0666 8.24769 -4.46235 255 0 0
-9.79949 7.83658 -5.13955 255 0 0
-8.66826 8.17881 -5.51403 255 0 0
-9.60933 9.48483 -5.02275 255 0 0
-8.93915 8.33479 -4.73621 255 0 0
-10.1476 8.11499 -4.9089 255 0 0
-8.81046 8.98984 -5.14949 255 0 0
-9.13349 7.85238 -5.12037 255 0 0
-8.82273 7.84359 -5.26859 255 0 0
-9.04932 10.1547 -4.69088 255 0 0
-9.04655 10.1033 -4.68292 255 0 0
-9.07432 10.0861 -4.68406 255 0 0
-9.07125 10.0347 -4.6761 255 0 0
-9.02193 9.8855 -4.64769 255 0 0
-9.04923 9.86832 -4.64883 255 0 0
-9.04535 9.81726 -4.64088 255 0 0
-9.01788 9.74099 -4.6261 255 0 0
-9.03259 9.66455 -4.61701 255 0 0
-9.01222 9.43883 -4.58179 255 0 0
-9.05423 9.32664 -4.57156 255 0 0
-9.04825 9.27636 -4.56361 255 0 0
-9.05011 9.23437 -4.55792 255 0 0
-9.05868 9.17759 -4.55111 255 0 0
-9.03053 9.08421 -4.53406 255 0 0
-9.02768 9.03839 -4.52724 255 0 0
-9.04269 8.92553 -4.51361 255 0 0
-9.03597 8.79288 -4.49429 255 0 0
-9.06102 8.73399 -4.48974 255 0 0
-9.05189 8.58144 -4.46758 255 0 0
-9.03998 8.3292 -4.43179 255 0 0
-9.06956 8.29699 -4.43179 255 0 0
-9.08921 8.27547 -4.43179 255 0 0
-9.14878 8.23104 -4.43463 255 0 0
-9.25724 8.26925 -4.45565 255 0 0
-9.40131 8.35796 -4.48861 255 0 0
-9.37187 8.25254 -4.47042 255 0 0
-9.37194 8.17403 -4.4602 255 0 0
-9.45202 8.2045 -4.47611 255 0 0
-9.51057 8.21586 -4.48633 255 0 0
-9.70292 8.10476 -4.50111 255 0 0
-10.082 8.34058 -4.5886 255 0 0
-10.0574 8.28014 -4.57724 255 0 0
-10.1518 8.23735 -4.58633 255 0 0
-9.88027 7.86284 -5.15944 255 0 0
-8.97558 9.83472 -4.86486 255 0 0
-8.71679 10.3108 -5.49775 255 0 0
-9.87619 9.51974 -5.31133 255 0 0
-8.86605 8.11082 -4.79524 255 0 0
-8.9942 10.2876 -4.82159 255 0 0
-8.96179 10.2017 -4.80383 255 0 0
-8.98596 10.1804 -4.80383 255 0 0
-8.95352 10.0712 -4.78251 255 0 0
-8.95869 10.0051 -4.77304 255 0 0
-8.94787 9.94551 -4.76239 255 0 0
-8.9408 9.70379 -4.7245 255 0 0
-8.97936 9.69939 -4.72923 255 0 0
-8.96719 9.64029 -4.71858 255 0 0
-8.95828 9.5623 -4.70555 255 0 0
-8.96747 9.4591 -4.69134 255 0 0
-8.94241 9.38798 -4.67713 255 0 0
-8.94482 9.34604 -4.67121 255 0 0
-8.96899 9.19511 -4.65227 255 0 0
-8.99007 8.91577 -4.61438 255 0 0
-9.01355 8.87569 -4.61201 255 0 0
-9.01072 8.70612 -4.58715 255 0 0
-8.94895 8.46372 -4.54334 255 0 0
-9.012 8.36286 -4.5386 255 0 0
-9.08321 8.19157 -4.52558 255 0 0
-9.95185 8.93224 -4.7612 255 0 0
-10.0329 8.9621 -4.77778 255 0 0
-10.0327 8.91924 -4.77186 255 0 0
-10.0581 8.89922 -4.77304 255 0 0
-10.0447 8.84503 -4.76357 255 0 0
-10.1433 8.88922 -4.78488 255 0 0
-9.47489 8.14589 -4.58004 255 0 0
-9.42882 8.06748 -4.56228 255 0 0
-9.74106 8.09749 -4.61556 255 0 0
-10.0548 8.25796 -4.68661 255 0 0
-10.0707 8.21129 -4.68305 255 0 0
-10.0724 8.17294 -4.67832 255 0 0
-10.0694 8.13102 -4.6724 255 0 0
-10.1781 8.17896 -4.69608 255 0 0
-8.81229 8.33446 -4.92798 255 0 0
-8.98601 9.61471 -4.8316 255 0 0
-8.786 8.07593 -5.19764 255 0 0
-8.92965 10.3121 -4.93506 255 0 0
-8.95744 10.1967 -4.92028 255 0 0
-8.95828 10.0047 -4.88949 255 0 0
-8.98259 9.93662 -4.8821 255 0 0
-8.97098 9.64437 -4.83406 255 0 0
-9.00793 9.54701 -4.82421 255 0 0
-8.97934 9.47162 -4.8082 255 0 0
-8.94944 9.26253 -4.77125 255 0 0
-8.9634 9.23307 -4.76879 255 0 0
-8.9413 9.16672 -4.75524 255 0 0
-8.96301 9.14549 -4.75524 255 0 0
-8.9445 9.08343 -4.74292 255 0 0
-8.95519 9.00843 -4.73307 255 0 0
-8.9343 8.81854 -4.70104 255 0 0
-8.95518 8.79734 -4.70104 255 0 0
-8.9842 8.78408 -4.70351 255 0 0
-8.95174 8.6697 -4.68134 255 0 0
-9.01349 8.68817 -4.69365 255 0 0
-8.98449 8.61922 -4.67887 255 0 0
-8.97592 8.57023 -4.67025 255 0 0
-8.95887 8.51343 -4.65917 255 0 0
-8.97325 8.40644 -4.64562 255 0 0
-8.97641 8.36953 -4.64069 255 0 0
-8.96371 8.18066 -4.61113 255 0 0
-9.02669 8.17949 -4.62099 255 0 0
-10.0194 8.90743 -4.88456 255 0 0
-10.0658 8.8636 -4.88579 255 0 0
-10.1934 8.84806 -4.90427 255 0 0
-10.1392 8.22716 -4.80943 255 0 0
-10.1364 8.18512 -4.80327 255 0 0
-10.2212 8.1342 -4.81066 255 0 0
-9.9707 8.82192 -5.21377 255 0 0
-8.82121 8.26401 -5.02442 255 0 0
-9.63962 7.97458 -5.02004 255 0 0
-8.88237 9.96737 -5.10567 255 0 0
-8.89422 10.3702 -5.05856 255 0 0
-8.88719 10.2631 -5.03938 255 0 0
-8.90304 9.99057 -4.99588 255 0 0
-8.87006 9.85903 -4.96902 255 0 0
-8.89354 9.67549 -4.94216 255 0 0
-8.96283 9.68154 -4.95367 255 0 0
-8.93517 9.60587 -4.93704 255 0 0
-8.88769 9.50952 -4.91401 255 0 0
-8.88955 9.42155 -4.89994 255 0 0
-8.88042 9.36727 -4.88971 255 0 0
-8.94201 9.38756 -4.9025 255 0 0
-8.94566 9.32478 -4.89291 255 0 0
-8.9093 9.22099 -4.87052 255 0 0
-8.93697 9.16228 -4.8654 255 0 0
-8.91617 9.05466 -4.84494 255 0 0
-8.89601 8.97014 -4.82831 255 0 0
-8.90363 8.91419 -4.82063 255 0 0
-9.71739 9.54611 -5.04961 255 0 0
-9.75436 9.49195 -5.04705 255 0 0
-9.82609 9.5165 -5.0624 255 0 0
-9.87331 9.51697 -5.07008 255 0 0
-10.0113 9.60429 -5.10589 255 0 0
-8.90143 8.47894 -4.7522 255 0 0
-8.9336 8.4492 -4.75283 255 0 0
-8.917 8.27471 -4.72341 255 0 0
-8.91956 8.17922 -4.70934 255 0 0
-8.9317 8.13206 -4.70423 255 0 0
-9.03184 8.10649 -4.71702 255 0 0
-9.03825 8.07364 -4.71318 255 0 0
-10.0989 8.89275 -5.01251 255 0 0
-10.2223 8.87313 -5.03042 255 0 0
-10.1828 8.79658 -5.01251 255 0 0
-9.34141 8.03113 -4.75795 255 0 0
-10.1983 8.7259 -5.00484 255 0 0
-10.2511 8.70806 -5.01123 255 0 0
-10.1815 8.58683 -4.98181 255 0 0
-9.65795 8.0284 -4.81168 255 0 0
-9.84426 8.14388 -4.86029 255 0 0
-9.74003 8.01883 -4.82447 255 0 0
-10.1535 8.19891 -4.92169 255 0 0
-10.1579 8.08379 -4.90634 255 0 0
-10.2218 8.09515 -4.91913 255 0 0
-9.96004 8.52201 -5.16431 255 0 0
-8.75635 8.76674 -5.20995 255 0 0
-8.71249 8.88987 -5.22463 255 0 0
-8.82193 10.4352 -5.17863 255 0 0
-8.81948 10.3325 -5.16006 255 0 0
-8.91515 10.2954 -5.16802 255 0 0
-8.81878 10.0389 -5.10832 255 0 0
-8.82655 9.81067 -5.06985 255 0 0
-8.84613 9.69288 -5.0526 255 0 0
-8.85335 9.60888 -5.03934 255 0 0
-8.89105 9.55844 -5.03668 255 0 0
-8.9059 9.52899 -5.03403 255 0 0
-9.01045 9.59516 -5.06189 255 0 0
-9.05039 9.56926 -5.06388 255 0 0
-9.11387 9.56799 -5.07383 255 0 0
-9.13653 9.54635 -5.07383 255 0 0
-9.20658 9.57399 -5.08975 255 0 0
-9.03112 9.34707 -5.02342 255 0 0
-8.87449 9.14149 -4.96372 255 0 0
-8.88818 9.11225 -4.96107 255 0 0
-8.8379 9.01784 -4.93719 255 0 0
-8.87255 8.96772 -4.93453 255 0 0
-8.88359 8.85205 -4.91729 255 0 0
-9.04628 8.97152 -4.96372 255 0 0
-9.71205 9.56351 -5.17068 255 0 0
-9.72562 9.50898 -5.16404 255 0 0
-9.76857 9.50578 -5.17067 255 0 0
-9.91825 9.51502 -5.19721 255 0 0
-8.91783 8.51476 -4.8682 255 0 0
-8.92082 8.43711 -4.85626 255 0 0
-8.95325 8.42766 -4.86024 255 0 0
-8.86916 8.30893 -4.82707 255 0 0
-8.8805 8.2801 -4.82442 255 0 0
-8.87502 8.23575 -4.81646 255 0 0
-8.9029 8.22242 -4.81911 255 0 0
-8.88878 8.17041 -4.8085 255 0 0
-8.92554 8.08783 -4.80187 255 0 0
-8.97857 8.0972 -4.81248 255 0 0
-9.68463 8.65103 -5.02076 255 0 0
-9.99463 8.84309 -5.10434 255 0 0
-10.037 8.83821 -5.11098 255 0 0
-10.0107 8.77304 -5.09638 255 0 0
-10.1617 8.69454 -5.11098 255 0 0
-10.1971 8.59997 -5.10302 255 0 0
-10.1738 8.53911 -5.08975 255 0 0
-10.0758 8.41625 -5.05393 255 0 0
-10.1541 8.37997 -5.06255 255 0 0
-10.1661 8.289 -5.05128 255 0 0
-10.1742 8.21562 -5.04199 255 0 0
-10.0164 8.02957 -4.98627 255 0 0
-10.1813 8.02383 -5.01546 255 0 0
-8.84508 10.1171 -5.244 255 0 0
-8.69383 10.4333 -5.27835 255 0 0
-8.79607 10.3547 -5.27972 255 0 0
-8.85619 10.3258 -5.28385 255 0 0
-8.81005 10.2229 -5.25774 255 0 0
-8.85469 10.1767 -5.25637 255 0 0
-8.86904 10.0961 -5.244 255 0 0
-8.89519 9.98176 -5.22751 255 0 0
-9.05663 10.0664 -5.26873 255 0 0
-8.82105 9.66539 -5.15881 255 0 0
-8.85136 9.60671 -5.15332 255 0 0
-8.84562 9.4645 -5.12721 255 0 0
-9.0161 9.60117 -5.17942 255 0 0
-9.05409 9.57317 -5.1808 255 0 0
-9.14217 9.55224 -5.19179 255 0 0
-9.16874 9.53464 -5.19316 255 0 0
-8.86274 9.08617 -5.06401 255 0 0
-8.86434 9.04481 -5.05714 255 0 0
-8.89774 9.03593 -5.06126 255 0 0
-8.86023 8.91291 -5.03378 255 0 0
-8.84916 8.85966 -5.02279 255 0 0
-8.83385 8.80249 -5.01042 255 0 0
-9.956 9.78051 -5.36903 255 0 0
-9.74311 9.52608 -5.28934 255 0 0
-9.95004 9.50032 -5.32094 255 0 0
-8.86103 8.34086 -4.9376 255 0 0
-8.83804 8.24052 -4.91699 255 0 0
-8.81681 8.10426 -4.89088 255 0 0
-8.85935 8.06619 -4.89226 255 0 0
-8.86158 8.02988 -4.88676 255 0 0
-8.92498 8.01058 -4.89501 255 0 0
-8.95668 8.00077 -4.89913 255 0 0
-10.0044 8.80953 -5.2179 255 0 0
-9.97743 8.70213 -5.19591 255 0 0
-9.89949 8.53136 -5.15469 255 0 0
-9.97863 8.45628 -5.15744 255 0 0
-10.0944 8.51333 -5.18767 255 0 0
-9.88768 8.21936 -5.10385 255 0 0
-9.77669 7.93301 -5.03928 255 0 0
-9.80876 7.92054 -5.0434 255 0 0
-9.84969 7.91509 -5.05027 255 0 0
-9.90399 7.92015 -5.06126 255 0 0
-9.94947 7.91791 -5.0695 255 0 0
-10.0137 7.89178 -5.07775 255 0 0
-10.1041 7.92421 -5.09973 255 0 0
-10.2305 7.98428 -5.13271 255 0 0
-8.65554 10.488 -5.40248 255 0 0
-8.65138 10.4325 -5.39111 255 0 0
-8.70154 10.4425 -5.40106 255 0 0
-8.74086 10.4393 -5.40674 255 0 0
-8.84685 10.3645 -5.40958 255 0 0
-8.96015 10.447 -5.44369 255 0 0
-8.86252 10.2838 -5.39679 255 0 0
-8.78277 10.1425 -5.357 255 0 0
-8.77633 9.66231 -5.26604 255 0 0
-8.75679 9.54941 -5.24188 255 0 0
-8.856 9.56614 -5.26177 255 0 0
-8.92895 9.59918 -5.28025 255 0 0
-8.9672 9.59458 -5.28593 255 0 0
-8.96659 9.54845 -5.27741 255 0 0
-9.04063 9.51366 -5.2838 255 0 0
-9.09995 9.50812 -5.29304 255 0 0
-9.13034 9.49471 -5.29588 255 0 0
-8.77994 8.91631 -5.13102 255 0 0
-8.85016 8.90277 -5.14097 255 0 0
-8.79096 8.80139 -5.11254 255 0 0
-8.77961 8.74844 -5.10117 255 0 0
-8.82563 8.62905 -5.08838 255 0 0
-8.82565 8.54758 -5.07417 255 0 0
-8.8128 8.45451 -5.05569 255 0 0
-8.79962 8.38197 -5.04077 255 0 0
-8.82273 8.32458 -5.03508 255 0 0
-8.82831 8.23145 -5.02016 255 0 0
-8.81377 8.15947 -5.00524 255 0 0
-8.86349 7.97438 -4.98321 255 0 0
-8.91722 7.96552 -4.99174 255 0 0
-8.94457 7.9519 -4.99458 255 0 0
-9.05943 7.92038 -5.01092 255 0 0
-9.17868 7.89123 -5.02869 255 0 0
-9.24484 7.91007 -5.04432 255 0 0
-9.26426 7.86977 -5.04148 255 0 0
-9.38338 7.91369 -5.07133 255 0 0
-9.43387 7.88003 -5.07559 255 0 0
-9.50993 7.8863 -5.09122 255 0 0
-9.57301 7.88132 -5.10259 255 0 0
-9.58727 7.855 -5.10117 255 0 0
-9.64109 7.86097 -5.11254 255 0 0
-9.74455 7.86869 -5.13386 255 0 0
-9.7986 7.87403 -5.14523 255 0 0
-9.96568 7.89229 -5.18076 255 0 0
-9.24533 7.83485 -5.13946 255 0 0
-10.0111 7.88974 -5.18929 255 0 0
-10.2195 7.93679 -5.23761 255 0 0
-8.71301 10.5577 -5.54621 255 0 0
-8.70819 10.2512 -5.48454 255 0 0
-8.71039 10.2047 -5.47573 255 0 0
-8.69578 10.0903 -5.45077 255 0 0
-8.75678 10.1125 -5.46545 255 0 0
-8.74353 10.0489 -5.45077 255 0 0
-8.74494 10.0026 -5.44196 255 0 0
-8.72476 9.88448 -5.41552 255 0 0
-8.7068 9.81712 -5.39937 255 0 0
-8.75745 9.73387 -5.39203 255 0 0
-8.70449 9.62898 -5.36266 255 0 0
-8.65854 9.50994 -5.33182 255 0 0
-8.74486 9.44609 -5.33476 255 0 0
-8.67068 9.18957 -5.27309 255 0 0
-8.69852 9.13193 -5.26721 255 0 0
-8.69663 9.08671 -5.2584 255 0 0
-8.74565 9.09467 -5.26868 255 0 0
-8.72551 8.98802 -5.24519 255 0 0
-8.69139 8.9105 -5.22463 255 0 0
-8.74945 8.88534 -5.2305 255 0 0
-8.75952 8.81159 -5.21876 255 0 0
-8.70971 8.55619 -5.16296 255 0 0
-8.72805 8.33356 -5.12625 255 0 0
-8.67276 8.2025 -5.09247 255 0 0
-8.71983 8.16903 -5.09541 255 0 0
-8.78892 8.19472 -5.11303 255 0 0
-8.72405 7.98092 -5.06311 255 0 0
-8.88754 7.9012 -5.08073 255 0 0
-8.89351 7.86883 -5.07632 255 0 0
-8.96402 7.87456 -5.09101 255 0 0
-9.00052 7.85008 -5.09394 255 0 0
-9.08911 7.85178 -5.11156 255 0 0
-9.18789 7.82368 -5.12625 255 0 0
-9.30409 7.80914 -5.1468 255 0 0
-9.39332 7.80842 -5.16443 255 0 0
-9.43801 7.8078 -5.17324 255 0 0
-9.97293 7.82136 -5.28337 255 0 0
-10.0406 7.83606 -5.29952 255 0 0
-10.1039 7.847 -5.3142 255 0 0
-10.1041 7.84718 -5.42799 255 0 0
-8.69937 8.11122 -5.18703 255 0 0
-8.79694 7.89565 -5.16733 255 0 0
-8.67197 8.62074 -5.27644 255 0 0
-8.65026 8.53819 -5.25674 255 0 0
-8.69669 8.30362 -5.22189 255 0 0
-8.71635 8.28297 -5.22189 255 0 0
-8.73186 8.2584 -5.22037 255 0 0
-8.75589 8.1252 -5.20067 255 0 0
-8.75504 8.00927 -5.17945 255 0 0
-8.74055 7.95803 -5.16733 255 0 0
-8.72587 7.9069 -5.15521 255 0 0
-8.86982 7.84787 -5.17339 255 0 0
-8.89689 7.8343 -5.17642 255 0 0
-9.11917 7.80254 -5.21582 255 0 0
-9.25659 7.80676 -5.24462 255 0 0
-10.1764 7.8647 -5.44618 255 0 0
-8.71812 8.68717 -5.40764 255 0 0
-8.71534 8.48089 -5.36702 255 0 0
-8.703 8.42879 -5.35452 255 0 0
-8.7024 8.36845 -5.3428 255 0 0
-8.7443 8.17252 -5.3139 255 0 0
-8.75529 8.08609 -5.29983 255 0 0
-8.72458 8.01948 -5.28109 255 0 0
-8.72078 7.94003 -5.26546 255 0 0
-8.73122 7.91175 -5.26234 255 0 0
-8.73739 7.87969 -5.25765 255 0 0
-8.80109 7.88055 -5.27093 255 0 0
-8.88947 7.82777 -5.27952 255 0 0
-8.94699 7.8221 -5.29046 255 0 0
-8.99181 7.80503 -5.29671 255 0 0
-9.77939 7.8205 -5.46701 255 0 0
-8.91343 8.77713 -5.57579 255 0 0
-8.89228 8.6942 -5.55487 255 0 0
-8.8241 8.58672 -5.51947 255 0 0
-8.83635 8.55794 -5.51625 255 0 0
-8.71783 8.3238 -5.44544 255 0 0
-8.69856 8.22691 -5.42237 255 0 0
-8.71832 8.16762 -5.41486 255 0 0
-8.69505 8.06874 -5.39073 255 0 0
-8.71954 8.03395 -5.38912 255 0 0
-8.73882 7.97545 -5.38187 255 0 0
-8.74697 7.83211 -5.35613 255 0 0
-8.70755 8.47331 -5.58248 255 0 0
-8.73822 8.42284 -5.57862 255 0 0
-8.6717 8.24054 -5.52728 255 0 0
-8.69056 8.06458 -5.49582 255 0 0
-8.71582 7.91664 -5.47181 255 0 0
-8.71282 7.91392 -5.57721 255 0 0
-8.73967 7.82559 -5.56529 255 0 0
-10.226 9.58003 -5.25956 255 0 0
-10.1232 9.57427 -5.36354 255 0 0
