ply
format ascii 1.0
comment Created by Open3D
element vertex 394
property double x
property double y
property double z
property uchar red
property uchar green
property uchar blue
end_header
15.6792 -1.69808 -4.71331 255 0 0
16.492 -1.3127 -4.70497 255 0 0
16.3016 -0.425269 -4.66623 255 0 0
17.965 -1.3871 -4.33411 255 0 0
16.0419 -0.780346 -3.94494 255 0 0
16.5129 -1.3932 -4.28687 255 0 0
15.5971 -1.65179 -4.69842 255 0 0
16.5831 -0.176941 -4.00829 255 0 0
16.2618 -0.327779 -4.52074 255 0 0
15.2393 -1.46789 -4.76519 255 0 0
14.8779 -0.0176378 -4.81505 255 0 0
15.4726 -1.26849 -4.40596 255 0 0
16.0798 -1.2799 -3.95339 255 0 0
16.1183 -1.37916 -3.95902 255 0 0
16.3109 -0.36746 -3.83827 255 0 0
16.115 -0.363045 -3.95198 255 0 0
17.4616 -0.849404 -4.41254 255 0 0
17.5049 -1.05965 -4.56878 255 0 0
15.068 -1.01975 -4.72773 255 0 0
17.515 -0.269955 -4.41734 255 0 0
16.477 -1.23291 -4.42027 255 0 0
17.722 -1.41061 -4.45336 255 0 0
16.3301 -0.619813 -4.6719 255 0 0
17.7794 -0.991676 -4.45736 255 0 0
16.2745 -0.559731 -4.66245 255 0 0
16.0997 -1.08958 -3.95409 255 0 0
15.6208 -0.426033 -4.68849 255 0 0
15.2866 -0.0724834 -4.76103 255 0 0
15.1615 -0.467456 -4.73969 255 0 0
16.2893 -1.06362 -3.702 255 0 0
16.2434 -1.17671 -3.83499 255 0 0
16.1748 -0.825255 -3.68864 255 0 0
14.9762 -1.55013 -4.84879 255 0 0
15.2168 -1.52036 -4.76207 255 0 0
15.588 0.0554394 -4.41583 255 0 0
16.4313 -0.331195 -3.71354 255 0 0
17.4986 -0.352708 -4.56369 255 0 0
16.2627 -0.675171 -4.52254 255 0 0
17.4282 -0.39263 -4.55351 255 0 0
16.5126 -1.17653 -4.56558 255 0 0
15.6741 -1.65994 -4.44273 255 0 0
16.254 -0.520447 -4.38208 255 0 0
17.3559 -1.05063 -4.69471 255 0 0
15.769 -0.168255 -4.30995 255 0 0
17.3604 -1.21626 -4.25437 255 0 0
17.4552 -1.43103 -4.56539 255 0 0
16.3722 -0.368841 -3.70747 255 0 0
16.0655 -0.247615 -4.08136 255 0 0
15.2113 -1.22893 -4.75635 255 0 0
16.8522 -0.579601 -3.61657 255 0 0
16.0626 -1.35521 -4.08813 255 0 0
15.4424 -0.0183071 -4.78913 255 0 0
16.8478 -0.819545 -4.75788 255 0 0
16.4003 -1.14899 -3.71415 255 0 0
16.3624 -0.679312 -4.67757 255 0 0
15.5368 -0.718853 -4.41045 255 0 0
16.4413 -0.956151 -4.83344 255 0 0
16.1055 -0.248231 -3.95057 255 0 0
17.7823 -1.4154 -4.31079 255 0 0
15.1451 -0.988905 -4.74125 255 0 0
15.5728 -0.129234 -4.54624 255 0 0
15.1063 -1.13035 -4.73605 255 0 0
16.4266 -0.916217 -3.71536 255 0 0
17.6493 -1.44694 -4.44375 255 0 0
15.5895 -1.61361 -4.69643 255 0 0
16.0015 -1.38827 -4.08061 255 0 0
16.921 -0.421346 -3.62271 255 0 0
15.4075 -1.52096 -4.66367 255 0 0
16.2138 -0.403737 -4.51357 255 0 0
15.6945 0.0744242 -4.56608 255 0 0
16.926 -1.06489 -4.62835 255 0 0
16.3015 -0.251252 -3.83696 255 0 0
16.3863 -0.797095 -4.82252 255 0 0
16.943 -1.26778 -3.62886 255 0 0
16.0885 -0.572429 -3.94951 255 0 0
16.0253 -0.779534 -4.07835 255 0 0
16.057 -0.933801 -3.94775 255 0 0
15.8613 -0.206852 -4.32353 255 0 0
16.3281 -0.677887 -4.81159 255 0 0
17.323 -0.184836 -4.68485 255 0 0
16.0906 -1.05064 -3.95268 255 0 0
16.0962 -0.630031 -3.67954 255 0 0
16.8553 -1.30141 -4.47628 255 0 0
15.898 -1.41728 -4.33796 255 0 0
16.3058 -0.483408 -4.66717 255 0 0
14.8446 -1.35885 -4.82049 255 0 0
16.3901 -0.836239 -4.82351 255 0 0
16.3177 -0.212804 -4.80762 255 0 0
16.3158 -0.483703 -4.11446 255 0 0
15.5338 -1.45909 -4.55096 255 0 0
16.5237 -1.11827 -4.7078 255 0 0
15.9994 -0.816306 -3.94001 255 0 0
15.6686 0.13003 -4.42838 255 0 0
16.4577 -1.23147 -4.83939 255 0 0
16.272 -0.636914 -4.80167 255 0 0
15.1807 -0.269981 -4.7423 255 0 0
16.8305 -0.878716 -3.61573 255 0 0
16.5907 -0.413122 -4.14981 255 0 0
16.2684 -0.289324 -4.52164 255 0 0
16.5311 -1.17784 -4.70969 255 0 0
16.0363 -0.209134 -3.94212 255 0 0
15.6137 -0.0555305 -4.55285 255 0 0
16.1723 -0.287615 -4.7828 255 0 0
16.2635 -0.404974 -3.83302 255 0 0
17.5981 -1.35876 -4.43575 255 0 0
15.0894 -0.626462 -4.72773 255 0 0
15.5727 -1.38827 -4.423 255 0 0
16.3219 -0.290277 -4.66906 255 0 0
15.0885 -0.877474 -4.72981 255 0 0
17.3803 -0.639027 -4.54757 255 0 0
16.0872 -1.22292 -3.95374 255 0 0
15.3867 -1.3717 -4.65771 255 0 0
16.2276 -0.442582 -3.82909 255 0 0
15.4766 -0.0183476 -4.66268 255 0 0
16.4439 -1.19124 -3.71901 255 0 0
16.0622 -1.12531 -3.94987 255 0 0
15.1425 0.0179516 -4.86512 255 0 0
16.3301 -1.33879 -3.84614 255 0 0
17.4772 -0.684087 -4.56199 255 0 0
17.4548 -1.43099 -4.26866 255 0 0
15.589 -1.46427 -4.42659 255 0 0
16.29 -0.482938 -4.38718 255 0 0
17.4842 -1.0168 -4.56539 255 0 0
15.3495 -0.0545912 -4.64083 255 0 0
15.8046 -0.206113 -4.18121 255 0 0
15.6706 -1.65957 -4.57647 255 0 0
16.8391 -0.619127 -3.61545 255 0 0
16.6323 -0.374699 -4.15508 255 0 0
16.3153 -1.37653 -3.84482 255 0 0
17.4416 -0.97283 -4.70727 255 0 0
16.4517 -1.3095 -4.83939 255 0 0
16.5944 -0.570734 -4.43215 255 0 0
15.7273 -1.43965 -4.31335 255 0 0
15.8089 0.206169 -4.58498 255 0 0
16.3823 -0.291351 -3.84614 255 0 0
17.8235 -1.33366 -4.3153 255 0 0
16.9083 -0.461147 -3.6216 255 0 0
15.7445 -1.78073 -4.59065 255 0 0
16.655 -1.40519 -3.74269 255 0 0
16.6137 -0.610839 -4.15357 255 0 0
16.3168 -0.483734 -3.702 255 0 0
17.5184 -0.394663 -4.41814 255 0 0
15.7062 0.0186198 -4.56797 255 0 0
15.4957 -1.56678 -4.67955 255 0 0
16.4682 -0.214767 -3.71718 255 0 0
16.1699 -0.863446 -3.8245 255 0 0
17.5599 -1.10478 -4.27919 255 0 0
16.5328 -0.568618 -4.28287 255 0 0
15.8591 -1.41381 -4.19722 255 0 0
16.0719 -0.62908 -3.94775 255 0 0
16.0954 -0.974329 -3.95268 255 0 0
15.2543 -1.43283 -4.76727 255 0 0
16.1636 -0.287461 -4.09415 255 0 0
15.7404 -0.130625 -4.30571 255 0 0
16.3607 -0.640387 -3.84482 255 0 0
16.721 -1.45069 -4.45846 255 0 0
15.411 -1.48443 -4.66367 255 0 0
16.8127 -0.538337 -3.61266 255 0 0
17.4929 -0.726244 -4.56454 255 0 0
16.0387 -1.42982 -4.08588 255 0 0
16.9227 -1.22592 -3.62662 255 0 0
17.0302 -1.19312 -3.63668 255 0 0
16.812 -1.13779 -3.61545 255 0 0
16.8072 -1.07744 -3.61461 255 0 0
16.8604 -1.02064 -3.61936 255 0 0
16.8279 -0.978629 -3.61601 255 0 0
16.8301 -0.938727 -3.61601 255 0 0
16.7724 -0.815876 -3.60986 255 0 0
16.8325 -0.7788 -3.61545 255 0 0
16.8517 -0.739655 -3.61713 255 0 0
16.8243 -0.698488 -3.61433 255 0 0
16.7793 -0.656772 -3.60986 255 0 0
16.8664 -0.500027 -3.61768 255 0 0
16.7879 -0.378206 -3.60986 255 0 0
15.9828 -0.815456 -4.07309 255 0 0
15.1933 -0.198141 -4.74438 255 0 0
16.1823 -1.13372 -3.82778 255 0 0
16.4843 -1.11561 -3.72265 255 0 0
15.1145 -0.825069 -4.73397 255 0 0
16.5016 -1.35285 -3.72629 255 0 0
16.5047 -1.31372 -3.72629 255 0 0
16.4381 -1.2692 -3.71901 255 0 0
16.5108 -1.23544 -3.72629 255 0 0
16.5243 -1.03962 -3.72629 255 0 0
16.4203 -0.974477 -3.71506 255 0 0
16.1205 -0.860809 -3.68318 255 0 0
16.2814 -0.791995 -3.69957 255 0 0
16.1046 -0.706863 -3.68075 255 0 0
16.147 -0.670368 -3.685 255 0 0
16.2489 -0.597429 -3.69532 255 0 0
16.3027 -0.560702 -3.70079 255 0 0
16.2341 -0.51981 -3.6935 255 0 0
16.3703 -0.446474 -3.70747 255 0 0
16.2607 -0.404904 -3.69593 255 0 0
16.3971 -0.291614 -3.7099 255 0 0
16.357 -0.252107 -3.70565 255 0 0
15.7662 0.205612 -4.44362 255 0 0
15.5499 -0.0921738 -4.54246 255 0 0
15.1652 -0.737696 -4.7423 255 0 0
16.2475 -0.443125 -4.51895 255 0 0
15.3558 -1.25892 -4.65076 255 0 0
16.4029 -1.30561 -3.854 255 0 0
16.3073 -1.2591 -3.84286 255 0 0
16.1768 -1.21044 -3.82778 255 0 0
16.1327 -1.09181 -3.82188 255 0 0
16.2456 -1.06076 -3.83434 255 0 0
16.3119 -1.02626 -3.84155 255 0 0
16.2679 -0.984768 -3.8363 255 0 0
16.2364 -0.924912 -3.83237 255 0 0
16.2125 -0.82718 -3.82909 255 0 0
16.1505 -0.785628 -3.82188 255 0 0
16.2047 -0.749753 -3.82778 255 0 0
16.1773 -0.710053 -3.8245 255 0 0
16.1964 -0.672419 -3.82647 255 0 0
16.2343 -0.596891 -3.8304 255 0 0
16.2764 -0.559797 -3.83499 255 0 0
16.2718 -0.521018 -3.83434 255 0 0
16.2265 -0.481056 -3.82909 255 0 0
16.3409 -0.329372 -3.84155 255 0 0
16.3428 -0.213131 -3.84155 255 0 0
17.2872 -0.266445 -4.67947 255 0 0
16.1131 -0.439458 -3.95198 255 0 0
16.1057 -1.32039 -3.95691 255 0 0
16.0537 -1.16297 -3.94916 255 0 0
16.0872 -1.01212 -3.95198 255 0 0
16.065 -0.896051 -3.94846 255 0 0
16.0903 -0.859198 -3.95127 255 0 0
16.0156 -0.721978 -3.94142 255 0 0
16.0761 -0.667426 -3.94846 255 0 0
16.0934 -0.515303 -3.94987 255 0 0
16.0655 -0.476283 -3.94635 255 0 0
16.0908 -0.400674 -3.94916 255 0 0
16.1332 -0.325186 -3.95409 255 0 0
16.1281 -0.28683 -3.95339 255 0 0
16.261 -0.366335 -4.52074 255 0 0
17.3807 -1.25909 -4.25738 255 0 0
17.3633 -1.17509 -4.25437 255 0 0
17.4529 -1.1396 -4.26565 255 0 0
17.5625 -1.06314 -4.27919 255 0 0
16.0773 -0.896735 -4.08588 255 0 0
15.9402 -0.851182 -4.06782 255 0 0
15.9923 -0.739925 -4.07384 255 0 0
15.9011 -0.697931 -4.06181 255 0 0
16.3423 -0.562065 -4.11822 255 0 0
16.3204 -0.522572 -4.11521 255 0 0
16.3227 -0.445175 -4.11521 255 0 0
16.037 -0.209144 -4.0776 255 0 0
16.0549 -0.171305 -4.07986 255 0 0
16.6127 -0.137864 -4.15207 255 0 0
17.495 -0.809455 -4.56539 255 0 0
17.3017 -0.882751 -4.83252 255 0 0
15.7864 -1.44506 -4.18761 255 0 0
15.9202 -1.38121 -4.20522 255 0 0
16.5312 -1.23696 -4.28767 255 0 0
16.5268 -1.17755 -4.28647 255 0 0
16.5454 -1.11974 -4.28847 255 0 0
16.5306 -1.07937 -4.28607 255 0 0
16.6605 -1.04819 -4.30368 255 0 0
17.653 -1.06862 -4.44055 255 0 0
17.8523 -1.03821 -4.46777 255 0 0
17.7007 -0.945188 -4.44616 255 0 0
17.4364 -0.889621 -4.40934 255 0 0
17.5099 -0.810145 -4.41894 255 0 0
17.535 -0.769644 -4.42214 255 0 0
17.8207 -0.739855 -4.46136 255 0 0
17.805 -0.69692 -4.45896 255 0 0
17.853 -0.656407 -4.46537 255 0 0
16.2095 -0.519021 -4.23804 255 0 0
16.2165 -0.480759 -4.23884 255 0 0
16.4379 -0.448317 -4.26926 255 0 0
16.5143 -0.411219 -4.27966 255 0 0
17.5773 -0.354294 -4.42614 255 0 0
17.5375 -0.311895 -4.42054 255 0 0
15.7819 -0.168392 -4.17801 255 0 0
16.0954 -0.133572 -4.22123 255 0 0
15.4715 -1.37925 -4.53963 255 0 0
15.1016 -1.076 -4.73449 255 0 0
15.5533 -1.49813 -4.55474 255 0 0
15.7412 -1.47857 -4.31589 255 0 0
17.4575 -1.4729 -4.56623 255 0 0
17.4643 -1.3901 -4.56623 255 0 0
16.4697 -1.17348 -4.41857 255 0 0
16.468 -1.1145 -4.41773 255 0 0
16.4706 -1.07546 -4.41773 255 0 0
17.5197 -1.10224 -4.57133 255 0 0
17.4866 -0.97534 -4.56539 255 0 0
17.4773 -0.933259 -4.56369 255 0 0
17.4834 -0.871228 -4.56411 255 0 0
17.4853 -0.767464 -4.56369 255 0 0
16.4764 -0.449367 -4.41433 255 0 0
16.6222 -0.413906 -4.43555 255 0 0
17.4878 -0.311011 -4.56199 255 0 0
17.4595 -0.2691 -4.55775 255 0 0
15.611 0.0925359 -4.41941 255 0 0
15.6914 0.167427 -4.43197 255 0 0
16.2816 -0.637289 -4.52523 255 0 0
16.5256 -1.23655 -4.56827 255 0 0
15.4515 -1.67342 -4.40865 255 0 0
15.6027 -1.50289 -4.42928 255 0 0
15.6385 -1.43152 -4.43376 255 0 0
15.5054 -1.32672 -4.41179 255 0 0
17.1137 -1.36219 -4.66064 255 0 0
16.6438 -1.28508 -4.5871 255 0 0
16.5398 -1.11936 -4.56917 255 0 0
16.6867 -1.08957 -4.59159 255 0 0
17.4334 -1.01385 -4.70637 255 0 0
17.3225 -0.924994 -4.68844 255 0 0
17.2668 -0.880971 -4.67947 255 0 0
15.5929 -0.7585 -4.41941 255 0 0
16.105 -0.706878 -4.49833 255 0 0
16.2542 -0.597621 -4.52074 255 0 0
16.2324 -0.558285 -4.51716 255 0 0
16.2337 -0.519796 -4.51716 255 0 0
16.2117 -0.480618 -4.51357 255 0 0
17.363 -0.226437 -4.69113 255 0 0
15.5413 -0.128973 -4.40865 255 0 0
15.4895 -0.0918157 -4.40058 255 0 0
16.8032 -0.059761 -4.60414 255 0 0
15.6537 0.129906 -4.55947 255 0 0
15.6591 0.167082 -4.56041 255 0 0
16.4563 -0.996177 -4.83641 255 0 0
15.72 -1.74022 -4.58592 255 0 0
15.6436 -1.69423 -4.57269 255 0 0
15.617 -1.61646 -4.56703 255 0 0
15.7415 -1.59163 -4.58687 255 0 0
15.659 -1.54579 -4.57269 255 0 0
15.6178 -1.42963 -4.56419 255 0 0
15.4619 -1.323 -4.53726 255 0 0
15.4982 -1.27059 -4.54246 255 0 0
16.5238 -1.27582 -4.70969 255 0 0
16.5268 -1.23664 -4.70969 255 0 0
16.532 -1.07947 -4.70875 255 0 0
16.5271 -1.02012 -4.70733 255 0 0
16.5854 -0.96453 -4.7163 255 0 0
17.43 -0.972187 -4.85425 255 0 0
17.4208 -0.930242 -4.85236 255 0 0
15.6606 -0.724579 -4.56325 255 0 0
15.7835 -0.692767 -4.58309 255 0 0
16.2988 -0.521883 -4.66623 255 0 0
16.2742 -0.366632 -4.66151 255 0 0
16.3154 -0.328859 -4.66812 255 0 0
16.4324 -0.253269 -4.68702 255 0 0
17.4556 -0.227645 -4.85425 255 0 0
17.4272 -0.185948 -4.84952 255 0 0
16.8561 -0.0199831 -4.75599 255 0 0
15.6497 0.0185528 -4.69246 255 0 0
15.6207 0.0740947 -4.6875 255 0 0
16.1812 -0.594939 -4.78578 255 0 0
15.7612 -1.74478 -4.7282 255 0 0
15.3628 -1.44303 -4.65473 255 0 0
15.4351 -1.41291 -4.66665 255 0 0
15.3727 -1.33371 -4.65473 255 0 0
15.347 -1.29484 -4.64977 255 0 0
16.4548 -1.27049 -4.83939 255 0 0
16.462 -1.17293 -4.83939 255 0 0
16.4661 -1.11437 -4.83939 255 0 0
16.4629 -1.07495 -4.8384 255 0 0
16.4769 -1.03664 -4.84039 255 0 0
16.6913 -0.930984 -4.87613 255 0 0
16.2844 -0.75344 -4.80465 255 0 0
16.263 -0.713816 -4.80067 255 0 0
16.1076 -0.553993 -4.77288 255 0 0
15.5852 -0.462043 -4.68253 255 0 0
15.7141 -0.391293 -4.70437 255 0 0
16.038 -0.361312 -4.75997 255 0 0
16.1831 -0.326192 -4.78479 255 0 0
16.2825 -0.25096 -4.80167 255 0 0
15.3607 -0.127474 -4.64282 255 0 0
15.309 -0.0907455 -4.63388 255 0 0
15.9206 0.018874 -4.87551 255 0 0
15.2105 -1.37417 -4.75843 255 0 0
15.1952 -1.31831 -4.75478 255 0 0
15.2614 -1.28761 -4.76623 255 0 0
15.1668 -1.17104 -4.7475 255 0 0
15.0651 -0.929905 -4.72616 255 0 0
15.0943 -0.770128 -4.72981 255 0 0
15.0978 -0.698542 -4.72981 255 0 0
15.0822 -0.661985 -4.72668 255 0 0
15.183 -0.594289 -4.74438 255 0 0
15.1268 -0.556171 -4.73397 255 0 0
15.1166 -0.519907 -4.73189 255 0 0
15.1832 -0.414098 -4.74334 255 0 0
15.1554 -0.37738 -4.73813 255 0 0
15.1768 -0.323904 -4.74178 255 0 0
15.2044 -0.234342 -4.74646 255 0 0
15.2975 -0.163224 -4.76311 255 0 0
15.269 -0.126714 -4.75791 255 0 0
15.2287 0.0541615 -4.88145 255 0 0
14.8883 -1.50536 -4.83138 255 0 0
14.9272 -1.40211 -4.83682 255 0 0
14.7808 -1.22943 -4.80634 255 0 0
14.7931 -1.07164 -4.80634 255 0 0
14.8448 -0.545804 -4.81069 255 0 0
14.8374 -0.0879499 -4.80743 255 0 0
