ply
format ascii 1.0
comment Created by Open3D
element vertex 444
property double x
property double y
property double z
property uchar red
property uchar green
property uchar blue
end_header
13.4029 -1.40335 -5.01699 255 0 0
14.4421 -0.102722 -5.10749 255 0 0
12.3566 -1.10157 -5.10401 255 0 0
12.9506 -0.568425 -5.01546 255 0 0
12.5512 -0.744854 -5.03515 255 0 0
14.1539 -0.924182 -4.44029 255 0 0
14.7548 -0.840517 -4.41633 255 0 0
13.6571 -1.59386 -4.95846 255 0 0
13.7891 0.147129 -4.96708 255 0 0
13.4847 0.0479587 -5.01891 255 0 0
15.5439 -0.202713 -4.94132 255 0 0
14.3227 -1.14004 -5.09148 255 0 0
13.866 0.0164382 -4.74315 255 0 0
12.965 -0.954676 -5.02408 255 0 0
13.922 -0.710314 -4.63761 255 0 0
12.3317 -0.043858 -5.08554 255 0 0
15.2895 -1.54593 -4.7756 255 0 0
12.6683 -1.15963 -5.07088 255 0 0
14.6937 -0.191625 -4.40263 255 0 0
12.6037 -1.04835 -5.05302 255 0 0
15.3586 -0.163875 -5.0386 255 0 0
14.8262 -1.03871 -4.43003 255 0 0
14.697 -0.331101 -4.40358 255 0 0
13.6169 -1.67103 -5.07136 255 0 0
15.6265 -1.69237 -5.24548 255 0 0
14.3245 -1.07185 -4.96604 255 0 0
14.3693 -0.255551 -4.71925 255 0 0
14.319 -1.29364 -4.47355 255 0 0
15.919 -1.4572 -5.16246 255 0 0
14.3864 -1.17944 -4.85565 255 0 0
14.3647 -1.04061 -5.09887 255 0 0
12.6466 0.284909 -5.16513 255 0 0
15.7552 -0.616685 -5.11928 255 0 0
12.9277 -0.168594 -5.0075 255 0 0
13.955 -1.29412 -4.65176 255 0 0
12.9498 -0.645331 -5.01612 255 0 0
15.7786 -0.955151 -5.12723 255 0 0
13.524 0.1443 -5.02786 255 0 0
14.0984 -0.451425 -4.54768 255 0 0
14.1954 -0.994515 -4.44823 255 0 0
12.4216 0.161994 -5.10828 255 0 0
14.7813 -0.929961 -4.42153 255 0 0
14.0967 -1.0548 -5.16474 255 0 0
13.0763 -1.29084 -5.05658 255 0 0
12.427 -1.31606 -5.12675 255 0 0
12.5342 0.312111 -5.24813 255 0 0
14.4321 -0.496367 -4.73232 255 0 0
14.0482 -1.30273 -4.5482 255 0 0
13.7624 0.0489463 -4.84172 255 0 0
13.277 -0.598524 -4.97542 255 0 0
15.5883 -0.906542 -5.22417 255 0 0
13.8931 -1.33821 -4.64088 255 0 0
13.0069 -1.14398 -5.03735 255 0 0
15.6091 -0.592436 -5.22535 255 0 0
14.4337 -0.393657 -4.98144 255 0 0
13.3294 -0.426801 -4.98565 255 0 0
14.2133 -0.387646 -4.44625 255 0 0
14.6627 -0.469493 -4.90224 255 0 0
14.7533 -0.507416 -4.92042 255 0 0
12.8049 -1.34075 -5.10798 255 0 0
14.1455 -1.09218 -5.17625 255 0 0
13.9974 -0.082971 -4.6485 255 0 0
12.9558 -0.199685 -5.01413 255 0 0
13.3189 -0.394857 -4.98309 255 0 0
12.787 -1.2929 -5.10248 255 0 0
13.6855 -1.64652 -4.96585 255 0 0
15.6243 -0.240814 -5.22653 255 0 0
13.2655 -0.456244 -4.97158 255 0 0
13.3158 -0.489585 -4.98309 255 0 0
14.209 -1.04627 -4.45121 255 0 0
13.647 -1.37985 -4.83224 255 0 0
13.5874 -0.0805405 -5.04193 255 0 0
13.9861 -0.0165806 -4.64632 255 0 0
15.2696 -0.452688 -5.15431 255 0 0
14.7606 -0.788194 -4.4168 255 0 0
14.3265 -0.322754 -4.95894 255 0 0
12.9512 -0.399323 -5.01413 255 0 0
14.3291 -1.14054 -4.47305 255 0 0
14.1445 -0.889895 -4.4383 255 0 0
13.9662 -0.745776 -4.64632 255 0 0
15.2009 -0.162193 -5.13891 255 0 0
12.955 -0.245768 -5.01413 255 0 0
13.8217 0.262217 -4.97447 255 0 0
12.5243 -0.609233 -5.02691 255 0 0
13.6798 -1.5472 -4.96216 255 0 0
14.6504 -1.37611 -4.53163 255 0 0
13.7742 0.195969 -4.964 255 0 0
14.1389 -0.788621 -4.43632 255 0 0
14.7639 -0.595412 -4.41586 255 0 0
13.9437 -0.810902 -4.5227 255 0 0
13.2267 -1.46421 -5.2124 255 0 0
13.681 0.0486571 -4.94368 255 0 0
13.5338 -1.27122 -5.04321 255 0 0
12.7604 0.136153 -5.0805 255 0 0
13.9639 -0.67926 -4.64523 255 0 0
14.3548 -1.14259 -4.84883 255 0 0
14.5376 -0.155116 -4.75082 255 0 0
14.1443 -0.553632 -4.43533 255 0 0
14.7035 -0.296369 -4.40452 255 0 0
12.3809 -1.14813 -5.11112 255 0 0
14.2793 -0.898379 -5.20311 255 0 0
12.6065 -0.149458 -5.0434 255 0 0
14.1591 -0.840241 -4.44029 255 0 0
15.5382 -0.903626 -5.3489 255 0 0
14.4474 -0.154153 -5.10873 255 0 0
13.7288 0.2116 -5.07391 255 0 0
14.6087 -0.57181 -5.14568 255 0 0
15.3068 -0.999464 -5.16733 255 0 0
14.1646 -0.352709 -4.55913 255 0 0
13.7383 0.0162869 -4.956 255 0 0
12.2573 -0.844139 -5.07417 255 0 0
15.5485 -0.793302 -5.21469 255 0 0
13.9952 -0.714049 -4.53103 255 0 0
14.4078 -0.341682 -4.72687 255 0 0
12.9705 -0.738876 -5.02209 255 0 0
15.8885 -1.03745 -5.14996 255 0 0
13.2434 -1.52966 -5.33568 255 0 0
14.3834 -0.392283 -4.84656 255 0 0
12.5371 -0.580062 -5.02966 255 0 0
15.8054 -0.656184 -5.12951 255 0 0
14.4175 -0.941395 -5.10873 255 0 0
15.5266 -0.976851 -5.21232 255 0 0
14.7592 -0.700412 -4.41586 255 0 0
12.6113 -1.09414 -5.05576 255 0 0
14.329 -1.10635 -4.71925 255 0 0
14.7659 -0.542901 -4.41586 255 0 0
12.8091 0.288568 -5.09286 255 0 0
15.6305 -0.203842 -5.22772 255 0 0
13.5108 -1.49566 -5.04321 255 0 0
13.959 -0.845005 -4.52583 255 0 0
13.3442 -0.300625 -4.98821 255 0 0
14.3524 -1.09105 -5.09702 255 0 0
14.0148 -0.0498442 -4.65176 255 0 0
14.235 -0.963381 -5.19416 255 0 0
14.1672 -0.689152 -4.44029 255 0 0
12.3597 -1.19052 -5.10686 255 0 0
13.1664 -1.36281 -5.07914 255 0 0
13.6616 -1.34862 -4.83461 255 0 0
12.6295 -1.3981 -5.17934 255 0 0
12.5198 -0.445457 -5.02416 255 0 0
14.8695 -0.370262 -4.43192 255 0 0
15.6039 -0.833223 -5.22653 255 0 0
14.3279 -1.34581 -5.09641 255 0 0
12.4826 0.251603 -5.12391 255 0 0
14.1884 -1.12935 -5.18648 255 0 0
14.366 -1.07495 -4.72578 255 0 0
14.6829 -1.59018 -5.1777 255 0 0
12.8077 0.212607 -5.09217 255 0 0
14.8156 -0.439228 -4.42342 255 0 0
12.3211 -1.36396 -5.21141 255 0 0
14.3286 -0.220844 -4.58827 255 0 0
13.4115 -1.48467 -5.13884 255 0 0
13.297 -0.362654 -4.97797 255 0 0
13.794 3.39864e-06 -4.84823 255 0 0
14.2113 -1.16509 -4.4532 255 0 0
12.5253 -0.698619 -5.02828 255 0 0
14.4384 -0.530861 -5.10873 255 0 0
12.6029 -0.988129 -5.05164 255 0 0
14.8224 -1.09145 -4.43003 255 0 0
13.2256 -1.40063 -5.09373 255 0 0
13.9367 -0.64482 -4.63979 255 0 0
13.5762 -1.60073 -5.17996 255 0 0
12.5559 -0.387115 -5.03241 255 0 0
14.7093 -0.470985 -4.78457 255 0 0
14.7451 -0.752311 -4.41397 255 0 0
15.5847 -0.758106 -5.2218 255 0 0
13.7687 -1.52421 -4.98063 255 0 0
12.9772 -1.18791 -5.03138 255 0 0
14.8186 -1.21487 -4.43097 255 0 0
14.3707 -1.14386 -4.9767 255 0 0
14.0334 -0.782732 -4.65938 255 0 0
13.5515 -1.40266 -4.93137 255 0 0
15.7803 -1.10555 -5.12951 255 0 0
12.5523 -0.491317 -5.03241 255 0 0
13.934 -0.710929 -4.76019 255 0 0
12.5683 -0.835601 -5.04065 255 0 0
15.2157 -1.46562 -4.62991 255 0 0
14.0113 -1.01501 -4.53727 255 0 0
14.18 -1.23024 -5.18648 255 0 0
12.7998 0.166927 -5.09011 255 0 0
14.1053 -0.501853 -4.54924 255 0 0
13.0541 0.061917 -5.03668 255 0 0
14.6811 -0.261095 -4.40074 255 0 0
13.1129 -1.32585 -5.06587 255 0 0
12.439 0.132723 -5.11254 255 0 0
14.9601 -1.38729 -4.45648 255 0 0
14.942 -1.33205 -4.4527 255 0 0
14.8645 -1.28962 -4.43948 255 0 0
14.8387 -1.25195 -4.43475 255 0 0
14.8387 -1.18111 -4.43381 255 0 0
14.8242 -1.14459 -4.43097 255 0 0
14.8286 -1.00356 -4.43003 255 0 0
14.8021 -0.966511 -4.42531 255 0 0
14.7489 -0.892817 -4.41586 255 0 0
14.7617 -0.647917 -4.41586 255 0 0
14.7706 -0.490468 -4.41633 255 0 0
14.8339 -0.404571 -4.42625 255 0 0
14.7394 -0.227176 -4.41019 255 0 0
14.2344 -1.23496 -4.45816 255 0 0
14.2258 -1.20023 -4.45617 255 0 0
14.2627 -1.10124 -4.46114 255 0 0
14.1862 -0.960076 -4.44625 255 0 0
14.1532 -0.738945 -4.4383 255 0 0
14.1523 -0.637975 -4.43731 255 0 0
14.1487 -0.587406 -4.43632 255 0 0
14.1513 -0.520306 -4.43632 255 0 0
14.1871 -0.487942 -4.44228 255 0 0
14.2118 -0.438207 -4.44625 255 0 0
14.2257 -0.354232 -4.44823 255 0 0
14.2496 -0.321022 -4.4522 255 0 0
14.2503 -0.287235 -4.4522 255 0 0
14.2625 -0.253651 -4.45419 255 0 0
14.3095 -0.203595 -4.46213 255 0 0
14.3447 -0.153058 -4.46809 255 0 0
14.3393 -0.118998 -4.4671 255 0 0
12.6655 -1.18967 -5.07088 255 0 0
14.1052 -0.100333 -4.54768 255 0 0
14.8574 -1.46666 -4.6965 255 0 0
14.0636 -1.35463 -4.55184 255 0 0
14.0154 -1.24945 -4.54144 255 0 0
14.0011 -1.21472 -4.53831 255 0 0
14.0384 -1.18443 -4.54456 255 0 0
14.0757 -1.15396 -4.5508 255 0 0
14.0898 -1.1215 -4.55288 255 0 0
14.0235 -1.08277 -4.5404 255 0 0
14.1065 -1.05553 -4.55497 255 0 0
14.0366 -0.983394 -4.54144 255 0 0
14.0447 -0.950499 -4.54248 255 0 0
14.0181 -0.91532 -4.53727 255 0 0
14.0548 -0.884251 -4.54352 255 0 0
14.0262 -0.782332 -4.53727 255 0 0
13.9417 -0.744465 -4.52166 255 0 0
13.9566 -0.678905 -4.52374 255 0 0
13.9697 -0.646344 -4.52583 255 0 0
13.9884 -0.613978 -4.52895 255 0 0
13.938 -0.578658 -4.51958 255 0 0
14.0372 -0.549441 -4.53727 255 0 0
14.134 -0.41902 -4.55393 255 0 0
14.1752 -0.386607 -4.56121 255 0 0
14.1657 -0.30231 -4.55913 255 0 0
14.3281 -0.254817 -4.58827 255 0 0
14.1851 -0.184992 -4.56225 255 0 0
14.1739 -0.151235 -4.56017 255 0 0
14.0997 -0.0501462 -4.54664 255 0 0
13.9689 0.0165602 -4.64305 255 0 0
15.5939 -0.684446 -5.22298 255 0 0
15.5518 -0.941421 -5.21706 255 0 0
12.9744 -0.0153813 -5.01811 255 0 0
15.1459 -1.53141 -4.88036 255 0 0
14.2506 -1.40676 -4.70946 255 0 0
13.9137 -1.24038 -4.64305 255 0 0
14.5787 -1.23001 -4.76824 255 0 0
14.5472 -1.19262 -4.76171 255 0 0
14.3435 -1.14169 -4.72252 255 0 0
14.3455 -1.03922 -4.72143 255 0 0
13.9108 -0.808989 -4.63652 255 0 0
13.9475 -0.595607 -4.64142 255 0 0
14.6816 -0.435255 -4.77912 255 0 0
14.418 -0.393229 -4.72905 255 0 0
14.3744 -0.289736 -4.72034 255 0 0
15.6872 -0.241784 -4.96854 255 0 0
14.0432 -0.116541 -4.6572 255 0 0
13.5092 -1.36592 -4.92151 255 0 0
12.9669 -0.800374 -5.02209 255 0 0
15.3826 -1.62907 -5.06019 255 0 0
14.5122 -1.50211 -4.88633 255 0 0
13.7957 -1.39489 -4.74315 255 0 0
13.8104 -1.3633 -4.74542 255 0 0
13.8364 -1.33276 -4.74997 255 0 0
13.8967 -1.30532 -4.76133 255 0 0
15.8423 -1.41231 -5.14655 255 0 0
14.6082 -1.24995 -4.90053 255 0 0
14.3059 -1.10457 -4.8386 255 0 0
14.3601 -1.07451 -4.84883 255 0 0
14.5344 -1.05291 -4.88292 255 0 0
15.7599 -1.06658 -5.12496 255 0 0
15.7935 -0.993642 -5.13064 255 0 0
13.9401 -0.81069 -4.76247 255 0 0
13.9133 -0.776036 -4.75678 255 0 0
13.9151 -0.743046 -4.75678 255 0 0
13.8726 -0.674819 -4.74769 255 0 0
15.7504 -0.728736 -5.11928 255 0 0
15.7808 -0.692649 -5.12496 255 0 0
15.7853 -0.580383 -5.12496 255 0 0
14.6178 -0.433364 -4.89315 255 0 0
14.3441 -0.357178 -4.8386 255 0 0
14.3851 -0.324073 -4.84656 255 0 0
14.3571 -0.289386 -4.84087 255 0 0
15.2479 -0.271176 -5.01701 255 0 0
15.6965 -0.241927 -5.10564 255 0 0
15.674 -0.20441 -5.1011 255 0 0
14.5548 -0.120786 -4.87951 255 0 0
13.9347 -0.0825993 -4.75678 255 0 0
13.9176 -0.0494985 -4.75338 255 0 0
13.9177 -0.0164995 -4.75338 255 0 0
13.7106 0.081271 -4.83106 255 0 0
12.5526 -0.297687 -5.03103 255 0 0
14.4942 -0.257771 -4.99328 255 0 0
14.4593 -1.49663 -5.00156 255 0 0
13.6306 -1.31293 -4.82751 255 0 0
13.7078 -1.28758 -4.8429 255 0 0
14.3434 -1.29582 -4.97374 255 0 0
14.3494 -1.19352 -4.97315 255 0 0
14.259 -1.10095 -4.95302 255 0 0
14.3728 -1.0412 -4.97551 255 0 0
14.4038 -1.00912 -4.98144 255 0 0
15.5446 -0.867025 -5.21469 255 0 0
15.5955 -0.647471 -5.22298 255 0 0
13.3749 -0.49176 -4.76357 255 0 0
15.6226 -0.537312 -5.22772 255 0 0
15.5608 -0.498251 -5.21469 255 0 0
14.31 -0.288438 -4.95539 255 0 0
14.5879 -0.0864715 -5.01222 255 0 0
14.5078 -0.0515976 -4.99564 255 0 0
13.6637 0.080993 -4.93999 255 0 0
13.7093 0.11377 -4.94984 255 0 0
13.8493 0.312004 -4.98063 255 0 0
13.9115 0.346407 -4.99418 255 0 0
13.727 -1.68454 -4.97571 255 0 0
13.7929 -1.46071 -4.98433 255 0 0
13.6263 -1.34513 -4.94615 255 0 0
14.1252 -1.36057 -5.0533 255 0 0
14.3468 -1.29614 -5.09949 255 0 0
14.32 -1.24238 -5.09271 255 0 0
14.3072 -1.19001 -5.08902 255 0 0
14.3786 -1.00735 -5.10134 255 0 0
14.3467 -0.970938 -5.09395 255 0 0
14.4254 -0.907568 -5.10996 255 0 0
14.5932 -0.883393 -5.14568 255 0 0
15.5429 -0.70067 -5.34767 255 0 0
14.7331 -0.61167 -5.17277 255 0 0
14.3939 -0.495052 -5.09887 255 0 0
14.1214 -0.418648 -5.03975 255 0 0
14.3799 -0.392188 -5.09518 255 0 0
14.3407 -0.357094 -5.08656 255 0 0
14.2785 -0.321673 -5.07301 255 0 0
14.3022 -0.288279 -5.07793 255 0 0
14.4939 -0.051548 -5.11858 255 0 0
14.5398 -0.017237 -5.12843 255 0 0
13.4505 0.0159456 -5.01123 255 0 0
13.5501 0.0963672 -5.03362 255 0 0
13.6836 0.178452 -5.06368 255 0 0
13.8108 0.262013 -5.09246 255 0 0
13.8926 0.312979 -5.11101 255 0 0
14.1658 -1.19517 -5.18265 255 0 0
13.5697 -1.6326 -5.05984 255 0 0
13.5452 -1.59708 -5.05345 255 0 0
13.5433 -1.5643 -5.05217 255 0 0
13.5072 -1.52769 -5.04321 255 0 0
13.4859 -1.46054 -5.03682 255 0 0
13.4634 -1.34515 -5.02914 255 0 0
13.6274 -1.31262 -5.06496 255 0 0
13.5083 -1.23653 -5.03682 255 0 0
13.9722 -1.24559 -5.14043 255 0 0
14.1629 -1.16112 -5.18137 255 0 0
14.1562 -1.02551 -5.17753 255 0 0
14.1985 -0.994734 -5.18648 255 0 0
14.2201 -0.92851 -5.19032 255 0 0
14.3385 -0.867973 -5.2159 255 0 0
13.5248 -0.786536 -5.03298 255 0 0
13.287 -0.741102 -4.97925 255 0 0
13.2887 -0.709596 -4.97925 255 0 0
13.2561 -0.67634 -4.97158 255 0 0
13.2691 -0.645463 -4.97414 255 0 0
13.2905 -0.551774 -4.97797 255 0 0
13.3545 -0.522719 -4.99205 255 0 0
13.3435 -0.332263 -4.98821 255 0 0
13.4192 -0.270482 -5.00484 255 0 0
13.3684 -0.237749 -4.99332 255 0 0
13.372 -0.190233 -4.99396 255 0 0
13.3983 -0.142959 -4.99972 255 0 0
13.5529 -0.112472 -5.03426 255 0 0
13.6447 -0.0485277 -5.05473 255 0 0
13.5476 -0.0160608 -5.03298 255 0 0
12.9858 0.0153948 -5.02076 255 0 0
13.1394 0.10904 -5.05658 255 0 0
13.2588 0.141471 -5.08444 255 0 0
13.2984 0.173428 -5.09373 255 0 0
13.2181 0.203728 -5.07516 255 0 0
12.2229 -1.32376 -5.18498 255 0 0
14.0785 -1.62612 -5.29671 255 0 0
13.714 -1.55107 -5.21047 255 0 0
13.2789 -1.43813 -5.107 255 0 0
13.0679 -1.25873 -5.05393 255 0 0
13.0255 -1.22348 -5.04332 255 0 0
12.9967 -1.09654 -5.03403 255 0 0
12.9778 -1.04847 -5.02872 255 0 0
12.9644 -1.00099 -5.02474 255 0 0
12.9665 -0.892985 -5.02342 255 0 0
12.9526 -0.845743 -5.01944 255 0 0
12.9674 -0.692438 -5.02076 255 0 0
12.9264 -0.598075 -5.01015 255 0 0
12.9291 -0.536771 -5.01015 255 0 0
12.9224 -0.490457 -5.00816 255 0 0
12.944 -0.445185 -5.0128 255 0 0
12.9558 -0.337961 -5.01479 255 0 0
12.9598 -0.291963 -5.01546 255 0 0
12.9908 -0.138612 -5.02209 255 0 0
12.9656 -0.0922294 -5.01612 255 0 0
12.963 -0.0461032 -5.01546 255 0 0
12.6472 0.0149934 -5.05302 255 0 0
12.6756 0.060115 -5.05989 255 0 0
12.7663 0.105944 -5.08187 255 0 0
12.8951 0.259917 -5.11347 255 0 0
13.4494 -1.52115 -5.26736 255 0 0
12.9585 -1.40343 -5.14645 255 0 0
12.7503 -1.25866 -5.09286 255 0 0
12.7193 -1.22515 -5.08462 255 0 0
12.6313 -1.12606 -5.06126 255 0 0
12.5496 -0.939034 -5.0379 255 0 0
12.55 -0.894209 -5.03721 255 0 0
12.5598 -0.790196 -5.0379 255 0 0
12.5497 -0.670134 -5.03378 255 0 0
12.5171 -0.638636 -5.02554 255 0 0
12.5214 -0.549586 -5.02554 255 0 0
12.4942 -0.518716 -5.01867 255 0 0
12.5458 -0.342167 -5.02966 255 0 0
12.5624 -0.238304 -5.03309 255 0 0
12.5718 -0.193766 -5.03515 255 0 0
12.6128 -0.0897234 -5.04477 255 0 0
12.6073 -0.0448384 -5.0434 255 0 0
12.6245 -0.0149664 -5.04752 255 0 0
12.3545 6.7342e-06 -5.09122 255 0 0
12.3941 0.0440802 -5.10117 255 0 0
12.3826 0.0733994 -5.09833 255 0 0
12.4449 0.103277 -5.11396 255 0 0
12.4067 0.205944 -5.10472 255 0 0
12.8971 -1.45868 -5.24756 255 0 0
12.4803 -1.35164 -5.14097 255 0 0
12.4414 -1.28776 -5.1296 255 0 0
12.4119 -1.24012 -5.12107 255 0 0
12.3151 -1.05374 -5.09264 255 0 0
12.3075 -1.009 -5.0898 255 0 0
12.2646 -0.976214 -5.07843 255 0 0
12.2725 -0.94757 -5.07985 255 0 0
12.2701 -0.903499 -5.07843 255 0 0
12.2611 -0.785992 -5.07417 255 0 0
12.2712 -0.713638 -5.07559 255 0 0
12.2675 -0.567589 -5.07275 255 0 0
12.3144 -0.0875874 -5.08127 255 0 0
15.7888 -0.768032 -5.12723 255 0 0
12.5037 -1.41419 -5.25987 255 0 0
12.3077 -1.39203 -5.31888 255 0 0
12.2436 -1.35537 -5.30069 255 0 0
