ply
format ascii 1.0
comment Created by Open3D
element vertex 1020
property double x
property double y
property double z
property uchar red
property uchar green
property uchar blue
end_header
0.880687 6.71511 -4.11994 255 0 0
0.648549 5.67403 -4.26883 255 0 0
1.30527 5.75919 -4.28937 255 0 0
0.549388 6.0018 -4.10891 255 0 0
2.87007 7.14973 -4.69584 255 0 0
0.59669 5.83247 -4.21709 255 0 0
3.27867 6.314 -4.623 255 0 0
1.59948 5.88096 -4.18961 255 0 0
3.87358 5.75099 -5.02521 255 0 0
0.699451 5.93223 -4.14606 255 0 0
3.53941 6.09146 -4.86686 255 0 0
1.84171 6.03107 -4.20657 255 0 0
0.540941 5.75889 -4.24245 255 0 0
1.2084 5.95048 -4.06818 255 0 0
1.6454 6.47207 -4.02952 255 0 0
1.66515 5.74419 -4.26161 255 0 0
0.46752 6.1501 -4.15822 255 0 0
1.36498 5.70792 -4.27526 255 0 0
0.797216 5.81123 -4.21812 255 0 0
0.797848 6.56587 -4.1917 255 0 0
4.35754 5.99764 -5.45697 255 0 0
1.48312 6.07445 -4.07198 255 0 0
1.50699 5.86932 -4.23411 255 0 0
0.652313 5.95721 -4.09698 255 0 0
0.207455 6.72837 -4.35548 255 0 0
1.25502 6.62169 -4.04825 255 0 0
0.730361 5.89375 -4.18955 255 0 0
2.94486 5.77114 -4.45008 255 0 0
0.389177 6.30506 -4.21044 255 0 0
1.33667 5.77067 -4.29642 255 0 0
2.44091 5.80029 -4.26088 255 0 0
2.16988 5.97147 -4.04687 255 0 0
0.930727 6.72528 -4.12518 255 0 0
0.57923 5.93967 -4.14408 255 0 0
2.9472 5.72529 -4.49644 255 0 0
2.41648 5.93816 -4.24331 255 0 0
1.3952 5.68511 -4.32558 255 0 0
1.36336 5.67137 -4.3736 255 0 0
2.60469 7.16808 -4.59774 255 0 0
2.20588 5.98203 -4.05406 255 0 0
0.201121 6.28148 -4.25791 255 0 0
1.09111 5.98941 -4.01734 255 0 0
0.650124 5.8727 -4.17841 255 0 0
1.16422 5.87565 -4.15199 255 0 0
0.256681 6.55798 -4.29649 255 0 0
2.70169 7.22094 -4.69778 255 0 0
1.77675 5.81833 -4.18565 255 0 0
1.14074 5.9038 -4.21689 255 0 0
1.29322 5.83436 -4.18444 255 0 0
1.31741 5.74952 -4.23055 255 0 0
0.956201 6.25293 -4.0379 255 0 0
2.6468 6.33147 -4.59506 255 0 0
0.902511 5.72017 -4.58406 255 0 0
1.57303 5.78367 -4.2098 255 0 0
1.59153 5.85169 -4.17872 255 0 0
1.52033 5.80686 -4.2699 255 0 0
1.37139 5.9851 -4.14855 255 0 0
1.28076 5.979 -4.25436 255 0 0
2.67817 5.81619 -4.30048 255 0 0
0.398743 5.69152 -4.32173 255 0 0
2.28609 5.93805 -4.1673 255 0 0
1.39866 5.91066 -4.12535 255 0 0
1.85154 5.98699 -4.07659 255 0 0
0.631428 5.89556 -4.13022 255 0 0
1.65181 5.96158 -4.04988 255 0 0
2.41852 7.1259 -4.84566 255 0 0
2.36014 5.74115 -4.40648 255 0 0
2.34694 6.09599 -4.4083 255 0 0
1.63354 5.97813 -4.05356 255 0 0
1.70386 5.74997 -4.26783 255 0 0
2.5338 7.18453 -4.88086 255 0 0
2.51162 5.89003 -4.30048 255 0 0
2.14703 6.20489 -4.05522 255 0 0
1.9807 5.72421 -4.34828 255 0 0
3.83275 5.74902 -4.81168 255 0 0
0.795756 5.90464 -4.19664 255 0 0
1.06029 6.42305 -4.03773 255 0 0
1.04131 6.49974 -4.06047 255 0 0
1.35301 6.54325 -4.03066 255 0 0
3.01064 5.74775 -4.51548 255 0 0
0.906684 6.38417 -4.0774 255 0 0
1.00791 5.88834 -4.17431 255 0 0
2.62346 7.21973 -4.75978 255 0 0
1.29273 7.09617 -4.7276 255 0 0
0.953812 6.6035 -4.08845 255 0 0
1.04275 5.80192 -4.17335 255 0 0
2.65061 5.81063 -4.29454 255 0 0
2.90691 5.78115 -4.44697 255 0 0
0.794677 5.94981 -4.04459 255 0 0
2.6945 5.7793 -4.4721 255 0 0
1.05564 5.71773 -4.30991 255 0 0
2.75845 5.79059 -4.36475 255 0 0
1.40389 5.99623 -4.04067 255 0 0
0.671163 6.71747 -4.29945 255 0 0
0.689707 6.74185 -4.18333 255 0 0
1.50397 5.74438 -4.30207 255 0 0
2.03525 5.81482 -4.21337 255 0 0
1.02822 5.80003 -4.74677 255 0 0
2.52708 5.81137 -4.27672 255 0 0
0.995495 5.77464 -4.67341 255 0 0
1.68809 5.9283 -4.04251 255 0 0
3.14074 5.7452 -4.53841 255 0 0
3.55213 6.35382 -4.68377 255 0 0
0.79301 5.69685 -4.28504 255 0 0
0.812009 5.66933 -4.33056 255 0 0
1.69122 5.83419 -4.18235 255 0 0
0.446227 5.69163 -4.32321 255 0 0
1.18207 6.85693 -4.11465 255 0 0
1.52423 5.99547 -4.04988 255 0 0
1.8945 5.78395 -4.18664 255 0 0
1.94573 5.96424 -4.02114 255 0 0
2.65206 7.19204 -4.61095 255 0 0
0.544019 6.93838 -4.37056 255 0 0
1.65963 5.80228 -4.225 255 0 0
3.50823 7.14507 -4.85976 255 0 0
1.20552 5.82996 -4.25126 255 0 0
2.03013 5.93525 -4.19497 255 0 0
0.64691 5.65959 -4.31806 255 0 0
4.584 6.2005 -5.51797 255 0 0
0.843482 5.83974 -4.17537 255 0 0
0.49082 6.88864 -4.35231 255 0 0
1.90553 6.45874 -4.04655 255 0 0
0.662273 5.91838 -4.19563 255 0 0
1.10276 6.39699 -4.0319 255 0 0
0.695245 5.89669 -4.13319 255 0 0
0.244805 5.89618 -4.23158 255 0 0
0.364303 6.39512 -4.24138 255 0 0
3.55063 7.14564 -4.86669 255 0 0
1.41626 7.01669 -4.70689 255 0 0
1.39222 5.85242 -4.21791 255 0 0
1.84593 5.68116 -4.37314 255 0 0
1.40109 6.54076 -4.03293 255 0 0
1.95034 5.79154 -4.19555 255 0 0
1.27864 5.90078 -4.22601 255 0 0
2.67099 7.03703 -4.56376 255 0 0
1.72528 7.06626 -4.61328 255 0 0
1.03158 5.90039 -4.15199 255 0 0
0.987314 5.72718 -4.30882 255 0 0
1.7822 7.08045 -4.69187 255 0 0
1.88717 6.07663 -4.1673 255 0 0
0.557834 5.65091 -4.3107 255 0 0
1.53878 6.05268 -4.1853 255 0 0
1.43879 6.01655 -4.04988 255 0 0
2.64342 7.19483 -4.75384 255 0 0
0.934204 6.63452 -4.0972 255 0 0
1.65186 5.90721 -4.08927 255 0 0
1.54386 5.73004 -4.30066 255 0 0
2.14358 5.94295 -4.09347 255 0 0
3.78753 5.73997 -4.79844 255 0 0
1.97966 6.11743 -4.43144 255 0 0
1.7063 5.80878 -4.23208 255 0 0
2.82685 5.80949 -4.38197 255 0 0
0.496839 5.80668 -4.25939 255 0 0
3.5598 5.97879 -4.83154 255 0 0
0.869144 6.87998 -4.17066 255 0 0
0.48636 5.93266 -4.19461 255 0 0
3.33353 6.29142 -4.62503 255 0 0
1.27489 6.09255 -4.29487 255 0 0
0.145458 6.45664 -4.32027 255 0 0
0.708097 5.71409 -4.6849 255 0 0
0.501273 5.69931 -4.61022 255 0 0
1.6967 5.6764 -4.35368 255 0 0
1.54544 6.26518 -4.13828 255 0 0
0.426038 6.40793 -4.24718 255 0 0
2.62514 5.84635 -4.30246 255 0 0
2.57858 5.8726 -4.24428 255 0 0
1.10758 5.76896 -4.27738 255 0 0
1.97422 5.7718 -4.19159 255 0 0
3.40883 5.72522 -4.58321 255 0 0
4.39266 5.83967 -5.40748 255 0 0
3.90408 5.8862 -4.80604 255 0 0
0.599154 5.65755 -4.31511 255 0 0
3.88448 5.76717 -4.96518 255 0 0
0.437199 6.82005 -4.32777 255 0 0
2.7971 7.21416 -4.70745 255 0 0
1.04724 5.67226 -4.29153 255 0 0
2.88918 7.00444 -4.72216 255 0 0
1.92349 5.94385 -4.07014 255 0 0
0.526587 5.82875 -4.26891 255 0 0
1.83931 5.73011 -4.33311 255 0 0
0.857628 5.93765 -4.09924 255 0 0
1.14227 5.69412 -4.3072 255 0 0
0.345525 6.32975 -4.21817 255 0 0
1.2936 5.96983 -4.02409 255 0 0
2.75439 7.00527 -4.70435 255 0 0
2.46732 7.21342 -4.88294 255 0 0
1.69327 5.8412 -4.24221 255 0 0
1.54922 5.91718 -4.19753 255 0 0
0.816027 6.1097 -4.04251 255 0 0
1.96617 6.1253 -4.25105 255 0 0
0.718668 5.7994 -4.20984 255 0 0
1.90756 5.73183 -4.2844 255 0 0
0.600299 5.66837 -4.31953 255 0 0
1.86481 6.10672 -4.17485 255 0 0
0.344575 5.6924 -4.26559 255 0 0
0.885026 5.83379 -4.63297 255 0 0
2.32838 6.09081 -4.10074 255 0 0
2.7909 5.75294 -4.41798 255 0 0
0.642962 6.07124 -4.07951 255 0 0
0.69928 5.67987 -4.27351 255 0 0
3.48425 6.0294 -4.83375 255 0 0
0.221023 6.65605 -4.33034 255 0 0
2.5934 5.77566 -4.39416 255 0 0
1.42557 5.83874 -4.21588 255 0 0
1.0775 5.99528 -4.07479 255 0 0
0.647631 5.66593 -4.26559 255 0 0
0.369021 5.97851 -4.15199 255 0 0
1.6466 5.94256 -4.07175 255 0 0
2.76088 7.22219 -4.70551 255 0 0
3.60635 5.75785 -4.83073 255 0 0
1.54234 5.83454 -4.225 255 0 0
1.24568 5.88332 -4.04836 255 0 0
1.19927 5.97815 -4.02041 255 0 0
1.64014 5.68311 -4.3499 255 0 0
0.740028 5.97176 -4.16189 255 0 0
1.54243 5.72475 -4.29854 255 0 0
3.34475 5.74079 -4.57581 255 0 0
2.40979 5.96217 -4.13092 255 0 0
2.64646 7.22958 -4.69391 255 0 0
1.68855 6.44937 -4.02612 255 0 0
0.78186 5.85389 -4.1774 255 0 0
0.346691 5.8422 -4.26891 255 0 0
0.437056 5.93557 -4.19428 255 0 0
1.53119 5.99305 -4.10689 255 0 0
0.715776 6.6831 -4.16538 255 0 0
0.197702 5.74817 -4.34049 255 0 0
0.704431 5.79709 -4.26397 255 0 0
3.04934 5.73865 -4.51937 255 0 0
0.304333 6.1072 -4.19687 255 0 0
0.410401 5.95924 -4.14606 255 0 0
0.895465 5.76422 -4.2615 255 0 0
1.76945 7.1733 -4.51656 255 0 0
1.26438 6.58569 -4.03804 255 0 0
2.44873 5.89687 -4.17485 255 0 0
0.497369 5.9231 -4.1355 255 0 0
2.56129 6.33702 -4.5847 255 0 0
1.39585 5.96185 -4.31546 255 0 0
2.55225 5.79396 -4.39416 255 0 0
0.310165 5.94076 -4.2213 255 0 0
0.157883 6.05214 -4.23208 255 0 0
1.56445 5.80647 -4.27404 255 0 0
0.995422 5.69355 -4.63696 255 0 0
1.88529 6.12177 -4.24138 255 0 0
3.63611 5.77488 -4.64565 255 0 0
2.00971 6.01495 -4.10145 255 0 0
1.62016 5.95698 -4.16016 255 0 0
2.6084 5.77241 -4.33538 255 0 0
3.28112 6.43014 -4.66149 255 0 0
1.94625 5.84811 -4.21436 255 0 0
0.150856 5.78368 -4.32638 255 0 0
0.860302 6.44119 -4.09356 255 0 0
1.64488 5.85553 -4.12825 255 0 0
0.510815 6.93721 -4.3693 255 0 0
0.493644 5.68959 -4.26883 255 0 0
1.69515 5.88238 -4.14211 255 0 0
1.45384 6.48618 -4.02016 255 0 0
0.869146 5.96741 -4.05402 255 0 0
3.65582 5.93019 -4.63441 255 0 0
1.09367 5.88473 -4.20677 255 0 0
3.59799 5.96223 -4.83375 255 0 0
1.51408 6.01524 -4.0554 255 0 0
0.278716 6.52666 -4.28586 255 0 0
1.20927 5.84808 -4.2017 255 0 0
0.974495 5.81747 -4.23055 255 0 0
0.967409 5.86041 -4.70987 255 0 0
2.25314 6.02207 -4.43144 255 0 0
2.77161 5.7653 -4.41901 255 0 0
1.25429 7.07526 -4.71725 255 0 0
1.24964 5.94854 -4.07039 255 0 0
0.739574 5.9681 -4.04836 255 0 0
1.89763 5.7398 -4.34369 255 0 0
1.91039 5.90338 -4.22921 255 0 0
4.43322 6.40012 -5.55199 255 0 0
1.54904 5.69545 -4.34485 255 0 0
0.236584 6.23337 -4.24108 255 0 0
1.14965 5.76629 -4.27949 255 0 0
0.763413 5.92993 -4.14804 255 0 0
2.22782 5.99768 -4.06124 255 0 0
1.40152 5.74027 -4.29078 255 0 0
3.83133 5.83642 -4.77362 255 0 0
1.79227 6.43876 -4.03123 255 0 0
0.9029 5.81212 -4.62462 255 0 0
0.254748 5.65143 -4.35706 255 0 0
1.69646 5.95768 -4.05264 255 0 0
0.222 6.23942 -4.24306 255 0 0
1.62884 5.90589 -4.14372 255 0 0
0.595016 5.68263 -4.26991 255 0 0
2.7991 7.21929 -4.70938 255 0 0
1.76609 5.8081 -4.23816 255 0 0
1.96566 6.17396 -4.20694 255 0 0
1.99949 5.89126 -4.23514 255 0 0
1.25043 5.83728 -4.25747 255 0 0
0.728586 6.65368 -4.1564 255 0 0
2.28853 5.94427 -4.11066 255 0 0
1.75027 5.75605 -4.27508 255 0 0
0.173482 6.09569 -4.24829 255 0 0
2.73351 5.82693 -4.31236 255 0 0
4.27462 5.97239 -5.4248 255 0 0
1.27222 5.93915 -4.12535 255 0 0
0.744429 5.67597 -4.27424 255 0 0
2.88646 5.72359 -4.54662 255 0 0
0.444361 5.93883 -4.13962 255 0 0
2.34644 5.94704 -4.11849 255 0 0
2.77941 6.97165 -4.69643 255 0 0
2.01326 5.73021 -4.35463 255 0 0
0.256223 5.68367 -4.4262 255 0 0
0.269169 5.67199 -4.3107 255 0 0
1.16872 5.86192 -4.20373 255 0 0
2.09595 5.92063 -4.08119 255 0 0
2.67817 5.96445 -4.28779 255 0 0
1.93357 6.38605 -4.02782 255 0 0
2.07864 5.80601 -4.33203 255 0 0
1.04913 5.91798 -4.21588 255 0 0
3.7363 5.73601 -4.71957 255 0 0
4.39986 6.40049 -5.54349 255 0 0
0.944647 5.68057 -4.28775 255 0 0
2.24162 5.94826 -4.10636 255 0 0
0.80021 5.7489 -4.2687 255 0 0
1.59632 5.81483 -4.28025 255 0 0
2.79402 5.74198 -4.47562 255 0 0
1.48825 5.79637 -4.15002 255 0 0
1.52808 5.7255 -4.2409 255 0 0
1.55498 5.99713 -4.05295 255 0 0
1.11567 5.84861 -4.13913 255 0 0
0.815025 6.98362 -4.32983 255 0 0
0.346539 5.72496 -4.27856 255 0 0
3.97889 5.90733 -5.17818 255 0 0
1.67361 6.78479 -4.57642 255 0 0
0.396167 5.95864 -4.2017 255 0 0
3.67413 5.92838 -4.83817 255 0 0
1.05327 5.94133 -4.16783 255 0 0
2.27392 6.03399 -4.0774 255 0 0
1.88831 6.05494 -4.2787 255 0 0
3.39255 5.85469 -4.55881 255 0 0
3.53854 5.75521 -4.61919 255 0 0
1.8199 6.0624 -4.15597 255 0 0
0.538131 5.80296 -4.65883 255 0 0
0.471132 5.66424 -4.31291 255 0 0
1.7507 5.83195 -4.18763 255 0 0
1.60687 5.93589 -4.09461 255 0 0
1.01544 6.43595 -4.03948 255 0 0
1.92737 6.05369 -4.40245 255 0 0
0.16303 5.72843 -4.44381 255 0 0
1.36801 5.97033 -4.02962 255 0 0
2.73898 7.1649 -4.75582 255 0 0
0.290165 5.73174 -4.28 255 0 0
0.322865 5.6677 -4.42084 255 0 0
0.592486 5.88341 -4.1801 255 0 0
1.0845 5.87408 -4.14606 255 0 0
1.03225 5.90421 -4.2098 255 0 0
4.53528 6.0741 -5.45843 255 0 0
1.57237 6.71576 -4.41349 255 0 0
1.59612 5.69067 -4.36696 255 0 0
3.80412 5.7355 -4.80065 255 0 0
2.07387 5.83626 -4.22525 255 0 0
0.969526 5.96116 -4.16981 255 0 0
3.25464 5.78941 -4.51152 255 0 0
0.376383 6.60718 -4.25414 255 0 0
1.7562 5.901 -4.15435 255 0 0
0.896075 5.95419 -4.21993 255 0 0
0.877085 6.33767 -4.06124 255 0 0
0.380983 5.94312 -4.19563 255 0 0
1.34438 5.83541 -4.20778 255 0 0
2.10204 5.96022 -4.0361 255 0 0
1.16582 6.66819 -4.55985 255 0 0
2.46189 7.1422 -4.57319 255 0 0
2.76085 6.9731 -4.69445 255 0 0
1.14589 5.94305 -4.06158 255 0 0
3.90978 5.83453 -4.85803 255 0 0
0.852044 5.66161 -4.32983 255 0 0
1.23578 6.69367 -4.06868 255 0 0
1.73834 5.89198 -4.09241 255 0 0
3.40249 6.36675 -4.66149 255 0 0
0.979339 5.84639 -4.1855 255 0 0
1.20218 5.91989 -4.11374 255 0 0
0.354764 5.86041 -4.22019 255 0 0
0.943156 5.84257 -4.18195 255 0 0
0.687505 5.6578 -4.65768 255 0 0
1.90428 5.98113 -4.07996 255 0 0
4.28029 5.93563 -5.41243 255 0 0
0.796586 6.49148 -4.10702 255 0 0
2.06202 5.89133 -4.0683 255 0 0
0.392948 5.70563 -4.27207 255 0 0
0.445029 5.85423 -4.22019 255 0 0
2.51484 5.93656 -4.31631 255 0 0
3.61217 5.73687 -4.75871 255 0 0
2.69437 7.2014 -4.76242 255 0 0
0.546236 5.84015 -4.21812 255 0 0
1.64845 5.84164 -4.1807 255 0 0
0.451162 6.78582 -4.31644 255 0 0
1.64097 5.73704 -4.31336 255 0 0
4.24011 5.98393 -5.41985 255 0 0
2.46835 7.16095 -4.8643 255 0 0
0.455329 5.80735 -4.25833 255 0 0
2.74382 5.83095 -4.37589 255 0 0
1.62735 5.87331 -4.18961 255 0 0
1.06976 5.87223 -4.0886 255 0 0
1.24515 5.98578 -4.02594 255 0 0
3.64313 5.94109 -4.83596 255 0 0
0.548468 5.69414 -4.27261 255 0 0
2.05302 5.73444 -4.36133 255 0 0
0.49801 5.8203 -4.26468 255 0 0
0.442775 5.82474 -4.26468 255 0 0
3.49957 5.73747 -4.60544 255 0 0
0.256576 5.6916 -4.26343 255 0 0
1.18768 5.84847 -4.14408 255 0 0
1.01812 5.82336 -4.75667 255 0 0
2.89671 5.7439 -4.49397 255 0 0
0.511892 5.90018 -4.18347 255 0 0
1.34432 5.9643 -4.02594 255 0 0
1.74 7.16339 -4.51089 255 0 0
1.79743 5.73957 -4.3317 255 0 0
1.10537 6.15034 -4.24504 255 0 0
2.62847 5.85376 -4.36577 255 0 0
0.648804 5.79809 -4.26186 255 0 0
1.9459 6.1119 -4.30444 255 0 0
2.32399 5.86972 -4.15031 255 0 0
1.19666 5.89278 -4.10407 255 0 0
2.36281 7.18493 -4.86015 255 0 0
1.13228 6.96183 -4.1436 255 0 0
0.40508 6.69155 -4.2834 255 0 0
3.69872 5.96806 -4.65512 255 0 0
1.11228 5.94556 -4.23006 255 0 0
0.403753 5.86271 -4.22226 255 0 0
4.45986 5.84202 -5.42727 255 0 0
3.86382 5.85559 -5.27138 255 0 0
0.243831 6.04561 -4.23073 255 0 0
1.75405 6.44928 -4.03123 255 0 0
1.87947 5.71516 -4.33241 255 0 0
2.87562 7.21298 -4.71712 255 0 0
0.922946 6.33679 -4.06303 255 0 0
0.893023 5.66001 -4.2764 255 0 0
2.44836 5.74169 -4.41989 255 0 0
1.7124 7.0864 -4.61922 255 0 0
2.67971 7.11076 -4.5883 255 0 0
0.64601 5.83545 -4.61985 255 0 0
1.00813 5.6867 -4.29441 255 0 0
1.86297 6.04931 -4.15597 255 0 0
0.513148 6.75031 -4.24326 255 0 0
1.38767 5.92689 -4.24424 255 0 0
3.2957 5.75022 -4.56946 255 0 0
2.39138 5.89645 -4.1673 255 0 0
2.49117 5.90014 -4.18146 255 0 0
3.59922 5.74647 -4.62872 255 0 0
2.95106 5.78333 -4.45526 255 0 0
0.298022 5.84212 -4.26785 255 0 0
3.56068 7.0605 -4.84095 255 0 0
1.85079 6.44161 -4.0369 255 0 0
1.29675 5.69024 -4.31855 255 0 0
0.209543 5.88932 -4.22848 255 0 0
0.67145 5.75338 -4.24563 255 0 0
1.3039 5.84965 -4.12509 255 0 0
0.636375 6.95193 -4.31325 255 0 0
2.71686 7.20934 -4.69584 255 0 0
1.19229 5.87118 -4.20879 255 0 0
0.238138 5.73597 -4.28072 255 0 0
2.19392 6.19736 -4.05784 255 0 0
1.75109 5.68597 -4.36359 255 0 0
2.32198 5.74492 -4.40225 255 0 0
1.90263 6.80406 -4.60477 255 0 0
1.99685 6.48385 -4.06187 255 0 0
2.69077 5.73584 -4.45622 255 0 0
1.29343 5.90138 -4.0578 255 0 0
2.59279 5.73789 -4.44105 255 0 0
2.39771 5.97302 -4.13276 255 0 0
3.46609 5.74366 -4.92687 255 0 0
1.80104 5.79927 -4.23884 255 0 0
4.53543 6.30515 -5.54349 255 0 0
1.59261 6.45642 -4.02101 255 0 0
0.896718 5.77233 -4.26468 255 0 0
3.30732 5.81836 -4.53085 255 0 0
1.43624 5.94357 -4.25436 255 0 0
2.67109 7.19105 -4.68424 255 0 0
0.817491 5.90705 -4.08667 255 0 0
2.61007 7.2363 -4.76374 255 0 0
0.344527 6.04803 -4.17641 255 0 0
3.53353 5.73182 -5.072 255 0 0
2.35083 5.93752 -4.41487 255 0 0
2.35856 5.87547 -4.39416 255 0 0
4.5517 5.81801 -5.4446 255 0 0
1.34746 5.6943 -4.32468 255 0 0
2.5965 5.83803 -4.29553 255 0 0
4.25435 6.06479 -5.45449 255 0 0
1.62467 6.08741 -4.20463 255 0 0
1.10381 5.9003 -4.04459 255 0 0
0.398484 5.65566 -4.41778 255 0 0
3.50684 6.37892 -4.68377 255 0 0
3.15903 6.28259 -4.59262 255 0 0
1.17808 5.76613 -4.28161 255 0 0
0.901363 5.84779 -4.18145 255 0 0
0.320456 6.43067 -4.25298 255 0 0
1.38772 5.99107 -4.20941 255 0 0
3.9015 5.79243 -5.18622 255 0 0
2.33354 5.73434 -4.40013 255 0 0
0.747279 5.91532 -4.1421 255 0 0
1.91565 6.06659 -4.34551 255 0 0
2.63673 5.83509 -4.30048 255 0 0
1.1437 6.77822 -4.08912 255 0 0
0.466777 5.95353 -4.2017 255 0 0
0.748136 6.9855 -4.32799 255 0 0
0.336825 6.75915 -4.30511 255 0 0
0.277442 6.15446 -4.21337 255 0 0
2.54004 5.84116 -4.40866 255 0 0
0.335991 6.43541 -4.25492 255 0 0
1.26583 5.77545 -4.29219 255 0 0
0.654522 5.91255 -4.65445 255 0 0
1.22797 5.8683 -4.15397 255 0 0
2.18017 6.22887 -4.06571 255 0 0
0.701775 5.89168 -4.18752 255 0 0
0.641063 5.85439 -4.17132 255 0 0
0.553986 5.8978 -4.12824 255 0 0
3.61733 6.02654 -4.86023 255 0 0
1.64022 5.81249 -4.16981 255 0 0
4.66432 5.76229 -5.45697 255 0 0
1.64239 5.69092 -4.35314 255 0 0
0.850808 5.77741 -4.26397 255 0 0
4.29739 6.03438 -5.45449 255 0 0
0.838 5.75356 -4.25409 255 0 0
2.55364 7.18642 -4.59774 255 0 0
0.20275 6.10576 -4.25234 255 0 0
1.45766 6.09546 -4.19303 255 0 0
2.53174 7.20591 -4.60151 255 0 0
1.57534 5.95925 -4.04251 255 0 0
2.07493 6.57102 -4.09422 255 0 0
2.05767 6.57058 -4.09252 255 0 0
1.98032 6.43035 -4.04485 255 0 0
1.95708 6.51939 -4.06868 255 0 0
1.92564 6.47032 -4.05166 255 0 0
1.9028 6.50626 -4.06017 255 0 0
1.80601 6.4 -4.02101 255 0 0
1.72564 6.40474 -4.0159 255 0 0
1.64611 6.44294 -4.02101 255 0 0
1.4285 6.51764 -4.02782 255 0 0
1.40696 6.56817 -4.04144 255 0 0
1.31348 6.5075 -4.01761 255 0 0
1.29126 6.55762 -4.03123 255 0 0
1.20901 6.72704 -4.0772 255 0 0
1.18719 6.69679 -4.06698 255 0 0
1.18675 6.78788 -4.09422 255 0 0
1.13783 6.8928 -4.12317 255 0 0
1.11577 6.9645 -4.1436 255 0 0
0.563265 5.77595 -4.24986 255 0 0
1.23813 5.84765 -4.20373 255 0 0
1.61302 5.82159 -4.2844 255 0 0
1.97533 5.73063 -4.17773 255 0 0
2.23195 6.23425 -4.07271 255 0 0
2.08877 6.13037 -4.02723 255 0 0
1.09767 6.55279 -4.07971 255 0 0
1.04147 6.40349 -4.03073 255 0 0
0.994178 6.39969 -4.02723 255 0 0
0.998429 6.52908 -4.06746 255 0 0
0.980451 6.51485 -4.06222 255 0 0
0.970731 6.55585 -4.07446 255 0 0
0.903485 6.64441 -4.09895 255 0 0
0.902524 6.75731 -4.13393 255 0 0
0.871898 6.7726 -4.13743 255 0 0
0.863824 6.97075 -4.19865 255 0 0
0.929804 6.27945 -4.04508 255 0 0
2.19634 5.74543 -4.38461 255 0 0
2.84068 5.76823 -4.43144 255 0 0
4.4513 6.36157 -5.54227 255 0 0
2.58793 5.87497 -4.30642 255 0 0
2.62574 5.88498 -4.25492 255 0 0
2.06369 5.85155 -4.22921 255 0 0
0.214627 5.83762 -4.26468 255 0 0
0.15235 5.83957 -4.26468 255 0 0
2.18594 5.97154 -4.04867 255 0 0
2.14436 5.94514 -4.0361 255 0 0
2.04344 5.95111 -4.02712 255 0 0
1.98869 5.95202 -4.02174 255 0 0
0.837576 6.50601 -4.11331 255 0 0
0.750003 6.56156 -4.12767 255 0 0
0.692585 6.76958 -4.19231 255 0 0
3.68202 5.77163 -4.65412 255 0 0
0.295033 5.9205 -4.1855 255 0 0
0.354649 6.64168 -4.26547 255 0 0
2.54631 5.87462 -4.24041 255 0 0
1.1391 5.85813 -4.14408 255 0 0
0.502856 6.82912 -4.26905 255 0 0
2.43648 5.98732 -4.14197 255 0 0
2.197 5.95797 -4.10421 255 0 0
2.19028 5.93973 -4.09777 255 0 0
2.06014 5.95377 -4.08764 255 0 0
2.05425 6.00577 -4.10329 255 0 0
2.05072 6.0422 -4.11434 255 0 0
1.99378 5.99875 -4.0947 255 0 0
1.94792 5.97097 -4.08119 255 0 0
1.79726 5.98708 -4.07137 255 0 0
1.7867 6.05596 -4.09224 255 0 0
1.73563 5.96087 -4.05725 255 0 0
1.60084 5.96971 -4.04804 255 0 0
1.50922 6.05656 -4.0683 255 0 0
1.4648 6.06174 -4.06646 255 0 0
1.04944 6.00249 -4.01918 255 0 0
0.999739 6.0119 -4.01949 255 0 0
0.92 6.01621 -4.01673 255 0 0
0.895018 6.04431 -4.02471 255 0 0
0.858491 6.04494 -4.02317 255 0 0
0.83737 6.104 -4.04159 255 0 0
0.800016 6.15666 -4.05725 255 0 0
0.782998 6.19807 -4.07014 255 0 0
0.786072 6.34332 -4.11802 255 0 0
0.78958 6.76554 -4.25708 255 0 0
0.785608 7.02055 -4.34088 255 0 0
0.7529 7.02973 -4.34272 255 0 0
0.700101 7.00724 -4.33351 255 0 0
0.663195 6.97176 -4.32062 255 0 0
0.609692 6.93201 -4.30588 255 0 0
0.587095 6.86144 -4.28194 255 0 0
0.574971 6.91266 -4.29852 255 0 0
0.54739 6.77551 -4.25247 255 0 0
0.530455 6.7657 -4.24879 255 0 0
1.46997 6.14692 -4.39002 255 0 0
0.492588 6.91345 -4.29668 255 0 0
4.40741 5.88831 -5.42975 255 0 0
0.345146 5.70182 -4.32449 255 0 0
1.626 5.92297 -4.26449 255 0 0
1.0054 5.6713 -4.3438 255 0 0
2.57909 5.98918 -4.2211 255 0 0
2.53062 5.93458 -4.1975 255 0 0
2.42493 5.91869 -4.17863 255 0 0
2.36338 5.90773 -4.1673 255 0 0
2.30601 5.8649 -4.14653 255 0 0
2.30016 5.891 -4.15408 255 0 0
2.25627 5.86046 -4.13898 255 0 0
2.69198 7.19496 -4.61662 255 0 0
2.58573 7.19555 -4.60435 255 0 0
2.49882 7.19393 -4.59396 255 0 0
2.01623 5.89462 -4.12199 255 0 0
1.92701 5.9069 -4.11633 255 0 0
1.92955 6.13597 -4.1909 255 0 0
1.868 6.16947 -4.19562 255 0 0
1.69538 5.90064 -4.09115 255 0 0
1.6079 6.02457 -4.12388 255 0 0
1.61486 6.10875 -4.1522 255 0 0
1.54982 5.94817 -4.09367 255 0 0
1.79851 7.21749 -4.53355 255 0 0
0.2973 5.69411 -4.32026 255 0 0
1.7042 7.12641 -4.49579 255 0 0
1.43076 6.0463 -4.11633 255 0 0
1.5036 6.42205 -4.24659 255 0 0
1.55591 6.71718 -4.34854 255 0 0
1.46942 6.4129 -4.24093 255 0 0
1.35742 5.98933 -4.09178 255 0 0
1.29998 5.93113 -4.06818 255 0 0
1.18993 5.96833 -4.0729 255 0 0
1.16585 5.99567 -4.08046 255 0 0
1.09332 5.96143 -4.06441 255 0 0
1.05457 5.9487 -4.0578 255 0 0
1.03665 5.92935 -4.05025 255 0 0
1.00293 5.9014 -4.03892 255 0 0
0.983076 5.95532 -4.05591 255 0 0
0.954243 5.95625 -4.05465 255 0 0
0.895545 5.90323 -4.03373 255 0 0
0.837742 5.9495 -4.04647 255 0 0
0.751529 5.98706 -4.05528 255 0 0
0.707423 5.99989 -4.0578 255 0 0
0.68238 6.03347 -4.06818 255 0 0
0.659426 6.02209 -4.06346 255 0 0
0.634061 6.19756 -4.12199 255 0 0
0.664379 6.81282 -4.33154 255 0 0
0.652948 6.86404 -4.34854 255 0 0
0.588563 6.34678 -4.17107 255 0 0
0.626375 6.9333 -4.37119 255 0 0
0.597295 6.98035 -4.38629 255 0 0
0.592073 6.91962 -4.36553 255 0 0
0.473343 6.8732 -4.34665 255 0 0
0.321061 6.76547 -4.307 255 0 0
0.751514 5.78337 -4.26097 255 0 0
2.4191 7.18352 -4.86637 255 0 0
2.70596 5.9883 -4.2994 255 0 0
2.5961 5.85582 -4.24138 255 0 0
2.50279 5.86926 -4.23268 255 0 0
2.49952 5.86165 -4.22978 255 0 0
2.44144 5.84017 -4.21495 255 0 0
2.42354 5.87555 -4.22397 255 0 0
2.40122 5.86082 -4.21624 255 0 0
2.36926 5.86189 -4.21237 255 0 0
2.85602 7.23859 -4.72292 255 0 0
2.73394 7.20288 -4.69584 255 0 0
2.62153 7.26805 -4.70358 255 0 0
1.94418 5.86506 -4.16209 255 0 0
1.95617 5.9484 -4.1911 255 0 0
1.91635 5.87421 -4.16209 255 0 0
1.9332 6.07201 -4.22978 255 0 0
1.93544 6.12928 -4.24911 255 0 0
1.90769 6.09166 -4.23364 255 0 0
1.91291 6.1595 -4.25685 255 0 0
1.78737 5.90318 -4.15822 255 0 0
1.74753 5.87185 -4.14372 255 0 0
1.70034 5.86557 -4.13695 255 0 0
1.62328 6.02484 -4.18336 255 0 0
1.61023 6.09124 -4.20463 255 0 0
1.57059 5.99881 -4.16982 255 0 0
1.52922 5.92675 -4.14178 255 0 0
1.79922 7.18395 -4.59141 255 0 0
1.74546 7.14883 -4.57497 255 0 0
1.71464 7.02269 -4.52953 255 0 0
1.5078 6.50948 -4.33807 255 0 0
1.34865 5.95061 -4.13501 255 0 0
1.34783 6.01311 -4.15629 255 0 0
1.28449 5.89409 -4.11084 255 0 0
1.26272 5.96378 -4.13308 255 0 0
1.23499 5.90184 -4.10987 255 0 0
1.16921 5.93776 -4.11761 255 0 0
1.13603 5.87947 -4.09537 255 0 0
1.11356 5.87534 -4.09247 255 0 0
1.10478 5.94446 -4.11568 255 0 0
1.05218 5.93528 -4.10923 255 0 0
1.01589 5.93506 -4.10697 255 0 0
0.980038 5.89347 -4.09054 255 0 0
0.947992 5.9472 -4.1073 255 0 0
0.944025 5.98329 -4.11954 255 0 0
0.908123 5.93853 -4.10214 255 0 0
0.892395 5.92974 -4.09827 255 0 0
0.875904 5.91544 -4.09247 255 0 0
0.843837 5.94187 -4.12801 255 0 0
0.791916 5.92911 -4.09311 255 0 0
0.749466 5.93277 -4.09247 255 0 0
0.726676 5.98016 -4.10794 255 0 0
0.702167 5.95526 -4.09827 255 0 0
0.682238 5.9687 -4.10214 255 0 0
0.625025 5.96941 -4.1002 255 0 0
0.595892 5.96404 -4.0973 255 0 0
0.597261 5.9778 -4.10214 255 0 0
0.510157 6.04687 -4.12341 255 0 0
0.492228 6.09272 -4.13888 255 0 0
0.482533 6.15448 -4.16016 255 0 0
0.459837 6.24489 -4.1911 255 0 0
0.444209 6.3402 -4.22397 255 0 0
0.407661 6.35928 -4.22978 255 0 0
0.378156 6.37217 -4.23364 255 0 0
0.295802 6.39312 -4.23944 255 0 0
0.236018 6.63342 -4.3226 255 0 0
0.194175 6.82276 -4.38835 255 0 0
2.50771 7.16467 -4.87051 255 0 0
0.873573 5.7126 -4.29585 255 0 0
2.95844 5.74718 -4.50596 255 0 0
2.1465 5.73704 -4.37474 255 0 0
1.74391 5.73513 -4.32394 255 0 0
1.30222 5.87485 -4.16189 255 0 0
0.207739 5.64975 -4.35556 255 0 0
3.5979 7.13428 -4.87065 255 0 0
3.44541 7.12356 -4.84293 255 0 0
3.43101 7.09382 -4.83105 255 0 0
3.42443 7.18866 -4.86075 255 0 0
3.39416 7.19082 -4.85679 255 0 0
2.71624 5.84411 -4.31532 255 0 0
2.53913 5.83916 -4.28761 255 0 0
2.50819 5.84354 -4.28464 255 0 0
2.44416 5.84673 -4.27672 255 0 0
2.42183 5.83215 -4.2688 255 0 0
2.85282 6.98659 -4.71128 255 0 0
2.80213 6.95661 -4.69445 255 0 0
2.76382 7.07851 -4.73008 255 0 0
2.77492 7.15697 -4.7578 255 0 0
2.76784 7.18924 -4.7677 255 0 0
2.7435 7.22805 -4.7776 255 0 0
2.08213 5.81576 -4.21931 255 0 0
1.86776 5.8187 -4.19555 255 0 0
1.92809 6.10599 -4.30048 255 0 0
1.80351 5.85623 -4.20149 255 0 0
1.74438 5.81086 -4.17971 255 0 0
1.71525 5.81378 -4.17773 255 0 0
1.59716 5.98431 -4.22525 255 0 0
1.5731 5.95079 -4.21139 255 0 0
1.51859 5.85683 -4.17377 255 0 0
1.5003 5.90135 -4.18763 255 0 0
1.78789 7.13876 -4.64396 255 0 0
1.75787 7.12635 -4.63704 255 0 0
1.3926 5.88521 -4.17278 255 0 0
1.37805 5.82355 -4.15002 255 0 0
1.33395 5.85359 -4.15694 255 0 0
1.25079 5.83904 -4.1454 255 0 0
1.19731 5.79025 -4.12428 255 0 0
1.10855 5.92566 -4.16585 255 0 0
1.07057 5.87664 -4.14606 255 0 0
1.06424 6.35323 -4.31433 255 0 0
0.98994 5.9969 -4.18367 255 0 0
0.943185 5.88726 -4.1421 255 0 0
0.924071 5.85682 -4.13022 255 0 0
0.907009 5.88458 -4.13913 255 0 0
0.882388 5.86325 -4.13022 255 0 0
0.863144 5.87725 -4.13418 255 0 0
0.836932 5.99512 -4.17476 255 0 0
0.795644 5.95718 -4.15925 255 0 0
0.656035 5.92613 -4.1421 255 0 0
0.603054 5.89482 -4.1289 255 0 0
0.534984 5.92169 -4.13616 255 0 0
0.505957 5.91318 -4.1322 255 0 0
0.399195 6.00418 -4.16189 255 0 0
0.387073 6.03811 -4.17377 255 0 0
0.256923 6.18844 -4.22525 255 0 0
0.180435 6.33999 -4.2787 255 0 0
0.166983 6.401 -4.30048 255 0 0
0.521016 5.76708 -4.64182 255 0 0
3.50773 5.84396 -4.57745 255 0 0
4.21111 6.0949 -5.45449 255 0 0
1.35468 5.75525 -4.29219 255 0 0
3.55917 6.4379 -4.71212 255 0 0
3.44995 6.32864 -4.65744 255 0 0
3.44857 6.39813 -4.67972 255 0 0
3.31385 6.32663 -4.63313 255 0 0
3.26372 6.34028 -4.62908 255 0 0
3.25841 6.4232 -4.65541 255 0 0
3.15487 6.34916 -4.61389 255 0 0
3.02427 6.14102 -4.52375 255 0 0
2.90583 5.936 -4.43666 255 0 0
2.79066 5.78734 -4.3688 255 0 0
2.66405 5.73179 -4.33032 255 0 0
2.59252 5.7012 -4.30905 255 0 0
2.65039 5.94024 -4.39817 255 0 0
2.65791 7.12963 -4.8053 255 0 0
2.07028 5.78268 -4.26449 255 0 0
1.99372 5.73978 -4.24019 255 0 0
1.94533 5.77663 -4.24728 255 0 0
1.94298 5.86142 -4.27665 255 0 0
1.89132 5.7512 -4.23208 255 0 0
1.94807 6.09375 -4.35868 255 0 0
1.74168 5.82694 -4.24221 255 0 0
1.65168 5.85309 -4.24221 255 0 0
1.63857 5.9138 -4.26247 255 0 0
1.59075 5.90409 -4.25436 255 0 0
1.57537 5.95937 -4.27259 255 0 0
1.49264 5.81343 -4.21284 255 0 0
1.76143 7.06866 -4.68579 255 0 0
1.31337 5.85937 -4.21386 255 0 0
1.36724 6.16819 -4.32931 255 0 0
1.17923 5.98865 -4.25031 255 0 0
1.08222 5.86174 -4.19765 255 0 0
0.860704 5.90944 -4.2017 255 0 0
0.843574 5.88972 -4.1936 255 0 0
0.806841 5.93367 -4.20778 255 0 0
0.754092 5.85753 -4.1774 255 0 0
0.749153 5.93016 -4.20373 255 0 0
0.599405 5.85881 -4.17132 255 0 0
0.547524 5.90433 -4.18617 255 0 0
0.407274 5.91384 -4.1855 255 0 0
0.345982 5.94936 -4.19715 255 0 0
0.283599 5.97606 -4.20575 255 0 0
0.268439 5.95476 -4.19765 255 0 0
0.199651 6.01243 -4.21791 255 0 0
3.87213 5.86819 -4.79307 255 0 0
3.6001 5.90224 -4.61439 255 0 0
3.52889 5.87919 -4.59299 255 0 0
3.45353 5.84755 -4.56813 255 0 0
3.40777 5.80141 -4.54431 255 0 0
3.37035 5.86434 -4.55778 255 0 0
3.30208 5.77722 -4.51636 255 0 0
3.25199 5.84947 -4.53085 255 0 0
3.19546 5.79625 -4.50289 255 0 0
3.1814 5.81959 -4.50807 255 0 0
3.13459 5.78271 -4.48736 255 0 0
3.10065 5.78545 -4.48218 255 0 0
3.06336 5.765 -4.46872 255 0 0
3.04449 5.79561 -4.47562 255 0 0
3.00855 5.7938 -4.46872 255 0 0
2.97721 5.76685 -4.45422 255 0 0
2.85753 5.75073 -4.42833 255 0 0
2.74033 5.77012 -4.41556 255 0 0
2.50397 6.07055 -4.48322 255 0 0
2.61208 6.37548 -4.60541 255 0 0
2.35278 5.98385 -4.43144 255 0 0
1.80288 5.75699 -4.28129 255 0 0
1.653 5.77903 -4.273 255 0 0
1.64359 5.82441 -4.28854 255 0 0
1.47916 5.76095 -4.24919 255 0 0
1.46415 5.75914 -4.24712 255 0 0
1.70167 6.82887 -4.66133 255 0 0
1.45331 5.89171 -4.29475 255 0 0
1.44852 5.99436 -4.33203 255 0 0
1.36584 5.77198 -4.24297 255 0 0
1.30741 5.76865 -4.23676 255 0 0
1.57042 7.08481 -4.74417 255 0 0
1.48408 7.09221 -4.74003 255 0 0
1.3862 7.08408 -4.72968 255 0 0
1.34011 7.07065 -4.72139 255 0 0
1.10279 5.89484 -4.26783 255 0 0
1.16263 6.84103 -4.62405 255 0 0
0.942502 5.795 -4.22019 255 0 0
0.906026 5.78695 -4.21501 255 0 0
0.876182 5.82201 -4.22641 255 0 0
0.843412 5.79086 -4.21294 255 0 0
0.754093 5.80318 -4.21294 255 0 0
0.686521 5.82259 -4.21709 255 0 0
0.644485 5.82188 -4.21501 255 0 0
0.4871 5.85638 -4.22226 255 0 0
0.299848 5.87715 -4.22537 255 0 0
0.196851 5.92812 -4.24297 255 0 0
0.168894 5.93446 -4.24504 255 0 0
0.356282 5.66299 -4.41969 255 0 0
3.81307 5.86907 -4.71338 255 0 0
3.78432 5.85517 -4.7028 255 0 0
3.74681 5.82739 -4.68586 255 0 0
3.63519 5.74318 -4.63507 255 0 0
3.58884 5.77546 -4.63613 255 0 0
3.45259 5.72125 -4.59062 255 0 0
3.40649 5.76787 -4.59697 255 0 0
3.25627 5.74441 -4.55993 255 0 0
3.22379 5.73454 -4.55041 255 0 0
3.19258 5.74259 -4.54723 255 0 0
3.19921 5.75454 -4.55252 255 0 0
3.08893 5.73088 -4.52395 255 0 0
2.85336 5.75947 -4.49185 255 0 0
2.74445 5.74365 -4.46786 255 0 0
2.65791 5.77221 -4.46363 255 0 0
2.63286 5.75367 -4.45305 255 0 0
2.54234 5.73456 -4.43188 255 0 0
2.49206 5.7308 -4.42271 255 0 0
2.40188 5.74551 -4.41424 255 0 0
2.28865 5.74064 -4.3959 255 0 0
2.24511 5.74999 -4.39308 255 0 0
2.1044 5.74874 -4.37333 255 0 0
1.94412 5.72808 -4.3451 255 0 0
1.69112 5.73196 -4.31688 255 0 0
1.59091 5.74169 -4.30983 255 0 0
1.4731 5.73736 -4.29642 255 0 0
1.44455 5.73898 -4.29431 255 0 0
1.27834 5.7671 -4.29008 255 0 0
1.24067 5.75856 -4.28373 255 0 0
1.20727 5.76937 -4.28514 255 0 0
1.14089 5.76986 -4.2802 255 0 0
1.08452 5.75945 -4.27208 255 0 0
1.04334 5.77905 -4.27667 255 0 0
1.0489 5.75772 -4.26891 255 0 0
0.996102 5.77816 -4.27314 255 0 0
0.947015 5.77948 -4.2705 255 0 0
0.802292 5.79723 -4.26891 255 0 0
0.611176 5.77107 -4.24986 255 0 0
0.586265 5.79835 -4.25939 255 0 0
0.415163 5.82679 -4.26468 255 0 0
0.386207 5.80871 -4.25692 255 0 0
0.2964 5.80944 -4.25515 255 0 0
0.256274 5.83867 -4.26574 255 0 0
0.233634 5.79318 -4.24774 255 0 0
0.188871 5.89859 -4.28796 255 0 0
3.69432 5.73079 -4.70876 255 0 0
2.39916 5.70106 -4.45727 255 0 0
2.09795 5.68929 -4.40899 255 0 0
2.06846 5.69237 -4.40611 255 0 0
2.00534 5.68605 -4.3953 255 0 0
1.79584 5.68721 -4.36936 255 0 0
1.58853 5.6808 -4.34341 255 0 0
1.49629 5.68749 -4.33639 255 0 0
1.44716 5.69224 -4.33333 255 0 0
1.24579 5.68398 -4.31171 255 0 0
1.19739 5.68834 -4.30936 255 0 0
1.09336 5.69494 -4.30378 255 0 0
0.842209 5.68796 -4.28432 255 0 0
0.688572 5.66659 -4.26775 255 0 0
0.620163 5.66353 -4.26343 255 0 0
0.447037 5.70164 -4.27207 255 0 0
0.41679 5.66029 -4.25478 255 0 0
0.298473 5.71681 -4.27424 255 0 0
0.203231 5.7119 -4.27063 255 0 0
0.177764 5.76539 -4.29153 255 0 0
0.156587 5.7415 -4.2818 255 0 0
3.63886 5.80977 -4.78961 255 0 0
3.6681 5.88743 -4.82272 255 0 0
3.66298 5.97347 -4.85141 255 0 0
3.62899 5.9815 -4.84699 255 0 0
3.50527 5.9512 -4.81058 255 0 0
3.46903 5.93788 -4.79844 255 0 0
3.28888 5.7226 -4.68588 255 0 0
1.31318 5.66929 -4.36808 255 0 0
1.04539 5.66222 -4.34307 255 0 0
0.74917 5.66018 -4.32339 255 0 0
0.716448 5.67127 -4.32615 255 0 0
0.688237 5.66382 -4.32173 255 0 0
0.532809 5.67239 -4.31842 255 0 0
0.504698 5.66134 -4.31291 255 0 0
0.485947 5.67932 -4.31953 255 0 0
0.244956 5.73641 -4.33645 255 0 0
3.69574 5.77803 -4.85775 255 0 0
3.65882 5.7503 -4.83973 255 0 0
3.70877 5.85943 -4.88928 255 0 0
3.70639 5.8865 -4.89828 255 0 0
0.295333 5.65668 -4.36006 255 0 0
0.182143 5.68849 -4.37132 255 0 0
0.160988 5.65669 -4.35781 255 0 0
3.97363 5.86945 -5.02261 255 0 0
3.7744 5.83981 -4.96518 255 0 0
0.309132 5.66307 -4.41854 255 0 0
0.295985 5.66917 -4.42084 255 0 0
0.202861 5.702 -4.43309 255 0 0
4.39694 5.96222 -5.45449 255 0 0
3.77964 5.78753 -5.01585 255 0 0
3.49329 5.72716 -4.92687 255 0 0
3.57713 5.89602 -5.00882 255 0 0
0.19461 5.65857 -4.47028 255 0 0
0.870934 5.88187 -4.65325 255 0 0
0.846196 5.80984 -4.61985 255 0 0
0.821805 5.73773 -4.58644 255 0 0
0.668177 5.72534 -4.57213 255 0 0
4.6316 6.00771 -5.46086 255 0 0
4.49418 6.12442 -5.46572 255 0 0
4.55189 6.23401 -5.52162 255 0 0
4.61851 6.35684 -5.5848 255 0 0
4.4661 6.17782 -5.47787 255 0 0
4.49567 6.28123 -5.52405 255 0 0
4.50548 6.32659 -5.54349 255 0 0
4.35305 6.38089 -5.52405 255 0 0
4.19893 6.20224 -5.41711 255 0 0
0.992249 5.88057 -4.72081 255 0 0
0.921015 5.66289 -4.61752 255 0 0
0.538268 5.65848 -4.59321 255 0 0
4.63031 5.77606 -5.45202 255 0 0
4.5294 5.76131 -5.41738 255 0 0
4.34046 5.94443 -5.43222 255 0 0
4.19839 5.95493 -5.39758 255 0 0
4.17922 5.98783 -5.405 255 0 0
4.25076 6.18358 -5.49904 255 0 0
4.18556 6.15102 -5.46934 255 0 0
4.22452 6.24003 -5.51388 255 0 0
4.11188 6.10478 -5.43222 255 0 0
4.07715 6.14714 -5.43965 255 0 0
3.75268 5.77613 -5.21199 255 0 0
1.0443 5.73244 -4.71707 255 0 0
1.04478 5.81324 -4.75419 255 0 0
0.466223 5.77083 -4.69975 255 0 0
