ply
format ascii 1.0
comment Created by Open3D
element vertex 245
property double x
property double y
property double z
property uchar red
property uchar green
property uchar blue
end_header
-27.2184 -27.9046 -3.45856 255 0 0
-25.7003 -32.5313 -2.51687 255 0 0
-25.4877 -28.3295 -3.74315 255 0 0
-25.7064 -32.3808 -2.17181 255 0 0
-26.2496 -27.8205 -3.43119 255 0 0
-26.9606 -27.7717 -3.44827 255 0 0
-27.6847 -29.4812 -2.16806 255 0 0
-25.5305 -28.7862 -3.11955 255 0 0
-25.6653 -27.9884 -3.4209 255 0 0
-25.5196 -28.0958 -3.73619 255 0 0
-25.5172 -30.3289 -3.15327 255 0 0
-26.6826 -27.7474 -4.08162 255 0 0
-26.2684 -33.2502 -3.58555 255 0 0
-25.6787 -32.5038 -2.86081 255 0 0
-25.5232 -29.9018 -3.14391 255 0 0
-25.3264 -29.5292 -2.16166 255 0 0
-26.6329 -27.8275 -3.44127 255 0 0
-25.5417 -30.6519 -3.16094 255 0 0
-25.628 -30.4607 -2.82723 255 0 0
-26.9035 -27.7129 -4.08857 255 0 0
-25.5369 -29.7746 -3.14135 255 0 0
-26.0629 -33.1514 -3.57788 255 0 0
-25.7321 -33.5416 -3.23008 255 0 0
-25.7938 -27.8621 -3.42069 255 0 0
-25.86 -27.8011 -4.05316 255 0 0
-25.858 -33.0518 -3.57022 255 0 0
-25.46 -28.9824 -4.08604 255 0 0
-25.6956 -32.6843 -2.86397 255 0 0
-25.5732 -29.9603 -3.47389 255 0 0
-25.6192 -29.1636 -2.80667 255 0 0
-25.9546 -27.9028 -3.10883 255 0 0
-25.6864 -32.3556 -2.51505 255 0 0
-25.5889 -30.8571 -3.49994 255 0 0
-26.0864 -27.7792 -3.74315 255 0 0
-25.9259 -27.7397 -4.05316 255 0 0
-26.0015 -27.8207 -3.42485 255 0 0
-25.6046 -29.9971 -2.81957 255 0 0
-26.5682 -27.7599 -4.07782 255 0 0
-25.608 -32.4144 -3.20198 255 0 0
-25.5215 -28.639 -3.43535 255 0 0
-25.6939 -32.6821 -3.20964 255 0 0
-25.5381 -29.6334 -3.78944 255 0 0
-25.6118 -30.5884 -2.49738 255 0 0
-25.7848 -28.3877 -2.79694 255 0 0
-25.9246 -27.7384 -3.73673 255 0 0
-25.6993 -28.7013 -2.80059 255 0 0
-25.5243 -30.047 -3.14714 255 0 0
-25.4762 -29.7038 -4.11608 255 0 0
-25.701 -32.8511 -2.86677 255 0 0
-25.5202 -28.9125 -3.12211 255 0 0
-25.5659 -30.5335 -3.49009 255 0 0
-25.554 -30.3727 -3.81566 255 0 0
-25.5055 -29.3134 -3.7774 255 0 0
-25.6446 -30.4804 -2.16553 255 0 0
-25.6681 -32.1756 -2.51315 255 0 0
-25.487 -30.1477 -4.13473 255 0 0
-25.4975 -29.0252 -3.76723 255 0 0
-25.458 -28.1619 -4.05285 255 0 0
-25.4719 -29.2748 -4.09837 255 0 0
-26.3507 -27.7953 -3.75198 255 0 0
-25.6008 -30.5752 -2.82869 255 0 0
-25.7118 -28.0391 -3.74021 255 0 0
-26.1443 -28.2407 -2.79974 255 0 0
-27.0708 -28.2851 -2.81361 255 0 0
-25.7861 -27.8538 -4.05253 255 0 0
-27.4143 -29.1932 -2.49928 255 0 0
-25.8874 -30.3284 -2.1657 255 0 0
-25.5259 -29.3368 -3.45506 255 0 0
-25.5441 -28.1228 -3.42156 255 0 0
-25.6508 -30.3414 -2.49534 255 0 0
-25.5014 -30.4565 -4.14801 255 0 0
-25.8362 -28.3092 -2.79645 255 0 0
-26.5063 -27.8271 -3.43798 255 0 0
-25.5513 -28.8097 -2.80022 255 0 0
-25.5308 -28.513 -3.43207 255 0 0
-25.7064 -32.698 -2.51855 255 0 0
-26.8624 -28.2008 -2.80935 255 0 0
-25.7398 -33.062 -2.17412 255 0 0
-25.525 -29.0564 -3.12534 255 0 0
-25.64 -29.3273 -2.16188 255 0 0
-25.7275 -32.5657 -2.17247 255 0 0
-25.748 -32.7509 -2.17312 255 0 0
-25.736 -28.6054 -2.79962 255 0 0
-25.8305 -30.4075 -2.1658 255 0 0
-26.0914 -27.7846 -3.42616 255 0 0
-26.7127 -28.8547 -2.49023 255 0 0
-26.545 -28.8103 -2.4884 255 0 0
-26.2843 -28.9377 -2.48738 255 0 0
-26.2235 -29.0087 -2.48753 255 0 0
-25.8401 -30.4188 -2.4976 255 0 0
-25.6353 -30.4693 -2.49643 255 0 0
-25.6821 -32.037 -2.51191 255 0 0
-25.8717 -27.8137 -3.42134 255 0 0
-25.8117 -28.8267 -4.09237 255 0 0
-26.3539 -28.1977 -2.80205 255 0 0
-26.7713 -28.2389 -2.80862 255 0 0
-26.6158 -28.2087 -2.80594 255 0 0
-26.4687 -28.1863 -2.80351 255 0 0
-26.259 -28.2301 -2.8012 255 0 0
-26.0416 -28.2639 -2.79864 255 0 0
-25.927 -28.2738 -2.79718 255 0 0
-25.7566 -28.4922 -2.79816 255 0 0
-25.5631 -29.6625 -2.81373 255 0 0
-25.5498 -29.7896 -2.81555 255 0 0
-25.6092 -30.1469 -2.822 255 0 0
-25.5981 -30.2791 -2.82395 255 0 0
-25.6107 -30.7347 -2.83137 255 0 0
-25.6865 -32.3557 -2.85849 255 0 0
-25.7129 -33.0275 -2.86981 255 0 0
-27.0129 -27.8256 -3.12841 255 0 0
-26.8859 -27.8264 -3.12586 255 0 0
-26.7265 -27.7931 -3.12194 255 0 0
-26.5998 -27.7929 -3.11938 255 0 0
-26.4935 -27.8136 -3.11768 255 0 0
-26.359 -27.8041 -3.11479 255 0 0
-26.2488 -27.8197 -3.11291 255 0 0
-26.1507 -27.8477 -3.11155 255 0 0
-26.0167 -27.8369 -3.10866 255 0 0
-25.8685 -27.9428 -3.10797 255 0 0
-25.818 -28.0213 -3.10866 255 0 0
-25.7713 -28.104 -3.10951 255 0 0
-25.7164 -28.178 -3.11002 255 0 0
-25.6417 -28.2302 -3.10968 255 0 0
-25.5707 -28.2866 -3.10951 255 0 0
-25.5284 -29.4806 -3.13471 255 0 0
-25.5234 -29.6164 -3.13761 255 0 0
-25.5399 -30.2102 -3.15106 255 0 0
-25.5391 -30.5015 -3.15753 255 0 0
-25.6411 -32.2986 -3.19994 255 0 0
-26.8744 -27.8145 -3.44718 255 0 0
-26.711 -27.777 -3.44192 255 0 0
-26.2793 -27.72 -3.42922 255 0 0
-25.7435 -27.9404 -3.42156 255 0 0
-25.5831 -28.0319 -3.42003 255 0 0
-25.5205 -28.231 -3.42397 255 0 0
-25.52 -28.3654 -3.42769 255 0 0
-25.5351 -28.7914 -3.43995 255 0 0
-25.5364 -28.9308 -3.44389 255 0 0
-25.5411 -29.0748 -3.44805 255 0 0
-25.526 -29.1969 -3.45112 255 0 0
-25.5328 -29.4857 -3.45944 255 0 0
-25.5507 -29.6481 -3.46447 255 0 0
-25.5489 -29.7886 -3.46841 255 0 0
-25.5627 -30.0922 -3.47739 255 0 0
-25.5555 -30.2287 -3.48111 255 0 0
-25.5591 -30.3788 -3.48549 255 0 0
-25.5833 -30.7019 -3.49534 255 0 0
-25.5603 -30.9718 -3.50257 255 0 0
-25.5645 -30.5319 -3.82154 255 0 0
-27.3651 -27.9223 -3.78837 255 0 0
-27.0089 -27.6898 -3.76937 255 0 0
-26.9594 -27.7705 -3.77044 255 0 0
-26.7675 -27.704 -3.76215 255 0 0
-26.6369 -27.6999 -3.75787 255 0 0
-26.4903 -27.6785 -3.75251 255 0 0
-26.3883 -27.7031 -3.75011 255 0 0
-26.2325 -27.8024 -3.7485 255 0 0
-25.8508 -27.7913 -3.73619 255 0 0
-25.8524 -27.9254 -3.74074 255 0 0
-25.8139 -28.0168 -3.74261 255 0 0
-25.5782 -28.0265 -3.73566 255 0 0
-25.496 -28.2039 -3.73914 255 0 0
-25.5063 -28.4857 -3.74904 255 0 0
-25.4971 -28.6116 -3.75305 255 0 0
-25.5262 -28.7814 -3.75974 255 0 0
-25.5044 -28.8945 -3.76295 255 0 0
-25.5095 -29.178 -3.77285 255 0 0
-25.5355 -29.4888 -3.78435 255 0 0
-25.5401 -29.7783 -3.79452 255 0 0
-25.5681 -29.9544 -3.80148 255 0 0
-25.5463 -30.0729 -3.80496 255 0 0
-25.5542 -30.2272 -3.81057 255 0 0
-25.5782 -30.6958 -3.8277 255 0 0
-25.5763 -30.8419 -3.83278 255 0 0
-25.4794 -30.2841 -4.14011 255 0 0
-27.2965 -27.8522 -4.10881 255 0 0
-27.0548 -27.7369 -4.09521 255 0 0
-26.8458 -27.785 -4.0892 255 0 0
-26.4983 -27.8186 -4.07751 255 0 0
-26.3639 -27.8092 -4.07213 255 0 0
-26.1494 -27.7143 -4.06043 255 0 0
-26.0836 -27.7762 -4.06043 255 0 0
-25.7358 -27.9321 -4.05379 255 0 0
-25.6656 -27.9887 -4.05348 255 0 0
-25.5203 -27.9631 -4.04715 255 0 0
-25.4618 -28.0322 -4.04779 255 0 0
-25.4928 -28.3352 -4.06107 255 0 0
-25.8055 -28.9577 -4.09742 255 0 0
-25.6902 -28.9663 -4.09363 255 0 0
-25.5596 -28.957 -4.08857 255 0 0
-25.4566 -29.1175 -4.09142 255 0 0
-25.4713 -29.4147 -4.10406 255 0 0
-25.474 -29.5592 -4.11007 255 0 0
-25.4816 -29.8531 -4.1224 255 0 0
-25.4903 -30.007 -4.12904 255 0 0
-25.4965 -30.5977 -4.1537 255 0 0
-25.4985 -30.7481 -4.16002 255 0 0
-25.6213 -32.9098 -3.21356 255 0 0
-25.6008 -32.0913 -3.19449 255 0 0
-25.736 -33.7119 -2.88137 255 0 0
-25.5022 -29.3096 -3.13045 255 0 0
-25.7205 -33.3624 -3.92696 255 0 0
-25.5959 -29.2768 -2.48483 255 0 0
-25.6861 -32.993 -3.56453 255 0 0
-25.798 -33.6275 -2.88076 255 0 0
-25.7044 -33.3415 -3.57525 255 0 0
-25.5701 -30.9837 -3.8376 255 0 0
-25.565 -31.2784 -3.51154 255 0 0
-25.5548 -30.816 -3.16485 255 0 0
-26.0047 -29.8872 -2.16463 255 0 0
-25.645 -30.3346 -2.16507 255 0 0
-25.7174 -32.2373 -2.17137 255 0 0
-25.7207 -32.8764 -2.17346 255 0 0
-25.7367 -33.2202 -2.17463 255 0 0
-25.9707 -33.0342 -3.92215 255 0 0
-26.0355 -30.0662 -2.49585 255 0 0
-25.2751 -29.4693 -2.48403 255 0 0
-25.897 -30.3397 -2.49731 255 0 0
-25.6292 -30.757 -2.49913 255 0 0
-25.6197 -30.8943 -2.50038 255 0 0
-25.7262 -32.8833 -2.52052 255 0 0
-25.6985 -33.0089 -2.52154 255 0 0
-25.6156 -28.7446 -2.8001 255 0 0
-25.541 -28.936 -2.80205 255 0 0
-25.5344 -29.3466 -2.80837 255 0 0
-25.5835 -29.5442 -2.81215 255 0 0
-25.6311 -30.908 -2.83441 255 0 0
-25.5839 -31.0003 -2.83526 255 0 0
-25.7157 -32.2352 -2.85691 255 0 0
-25.7313 -33.2133 -2.87309 255 0 0
-25.5584 -28.4081 -3.11189 255 0 0
-25.5417 -28.5253 -3.11411 255 0 0
-25.5441 -28.6644 -3.11717 255 0 0
-25.5215 -29.1918 -3.12824 255 0 0
-25.5599 -30.9713 -3.16843 255 0 0
-25.6488 -32.7844 -3.21118 255 0 0
-25.6722 -33.137 -3.21969 255 0 0
-25.5834 -31.1499 -3.50826 255 0 0
-25.7153 -33.1926 -3.5711 255 0 0
-25.7072 -33.5091 -3.58029 255 0 0
-25.8527 -33.045 -3.9192 255 0 0
-25.7239 -33.0416 -3.91546 255 0 0
-25.667 -33.1303 -3.91706 255 0 0
-25.7268 -33.5347 -3.93338 255 0 0
-25.7147 -33.6839 -3.93847 255 0 0
