ply
format ascii 1.0
comment Created by Open3D
element vertex 1463
property double x
property double y
property double z
property uchar red
property uchar green
property uchar blue
end_header
-0.311761 7.73044 -5.52972 255 0 0
-0.566493 7.95071 -3.78448 255 0 0
-1.5618 7.73779 -3.69847 255 0 0
-1.06651 7.44623 -4.01557 255 0 0
-0.460948 7.46782 -3.9383 255 0 0
1.38136 7.68601 -4.58767 255 0 0
-0.610389 7.33848 -4.10492 255 0 0
1.83145 7.65853 -4.82907 255 0 0
0.156784 7.34616 -4.43481 255 0 0
-0.593528 7.34659 -4.30709 255 0 0
0.144492 7.6167 -4.10927 255 0 0
-1.94993 7.66994 -3.84094 255 0 0
-0.194545 7.45753 -4.06552 255 0 0
-1.80611 7.21153 -4.25938 255 0 0
-0.460169 7.60175 -3.8384 255 0 0
0.877661 7.44367 -5.05003 255 0 0
-1.9123 7.48466 -3.9329 255 0 0
-0.430308 7.5538 -3.89311 255 0 0
-1.55549 7.21972 -4.17764 255 0 0
-1.63204 7.79932 -3.71448 255 0 0
0.69699 7.51601 -4.22567 255 0 0
-1.56963 7.63642 -3.81352 255 0 0
2.29915 7.28113 -5.48354 255 0 0
-0.40366 7.73152 -5.53215 255 0 0
-2.1115 7.28394 -4.23615 255 0 0
0.572696 7.77759 -4.15927 255 0 0
1.64763 7.51744 -5.51108 255 0 0
-0.517593 7.51573 -4.0186 255 0 0
0.383857 7.35223 -4.37186 255 0 0
-0.311443 7.29315 -4.21851 255 0 0
-1.95667 7.54635 -3.88191 255 0 0
-0.966212 7.36723 -4.19089 255 0 0
-1.46088 7.41891 -3.95886 255 0 0
-2.16178 7.26382 -5.45762 255 0 0
-1.85148 7.46775 -3.92509 255 0 0
-0.122696 7.96042 -4.56488 255 0 0
-0.361185 7.61088 -3.83932 255 0 0
0.475704 7.42071 -4.19255 255 0 0
-1.31218 7.949 -3.80367 255 0 0
-1.10912 7.19585 -5.3951 255 0 0
0.275984 7.75669 -5.54106 255 0 0
-0.61952 7.7834 -3.74802 255 0 0
-0.0350498 7.39126 -3.91481 255 0 0
0.151525 7.98746 -4.42794 255 0 0
-2.24427 7.19633 -4.35957 255 0 0
-0.55897 7.59131 -3.83749 255 0 0
0.801677 7.32118 -4.30534 255 0 0
0.387024 7.41327 -4.05537 255 0 0
-1.45274 7.28655 -4.05719 255 0 0
1.38409 7.39853 -4.56376 255 0 0
-0.548094 7.21003 -4.26336 255 0 0
0.12604 7.5934 -3.90021 255 0 0
0.797188 7.28018 -5.05142 255 0 0
-1.96893 7.34236 -5.46815 255 0 0
-1.35738 8.6698 -4.5875 255 0 0
-0.678056 7.70928 -3.80025 255 0 0
1.38854 7.47129 -5.01898 255 0 0
-1.67956 7.25101 -4.81459 255 0 0
0.268723 8.0925 -4.53448 255 0 0
-1.43131 7.26884 -4.87212 255 0 0
-0.899383 7.55091 -3.83566 255 0 0
-1.55067 7.239 -4.11619 255 0 0
1.35297 7.32824 -4.88905 255 0 0
1.22927 7.28533 -4.51656 255 0 0
1.59412 7.35669 -4.63396 255 0 0
-0.114125 8.0217 -4.29321 255 0 0
1.84724 7.56578 -4.94507 255 0 0
-0.808192 7.54594 -3.83199 255 0 0
-0.228863 7.42268 -4.05615 255 0 0
-0.2103 7.38936 -4.04677 255 0 0
-1.59678 7.6308 -3.81352 255 0 0
-1.05733 7.38182 -3.99815 255 0 0
0.300839 7.4596 -4.00042 255 0 0
0.336586 7.46695 -4.13657 255 0 0
0.945724 7.48621 -4.99772 255 0 0
-0.116149 7.53674 -3.886 255 0 0
1.48923 7.33346 -5.11785 255 0 0
0.529386 7.42992 -4.33158 255 0 0
0.028572 8.02805 -4.43986 255 0 0
0.348989 7.35397 -4.37186 255 0 0
-0.0512897 7.21146 -4.38968 255 0 0
0.744223 7.63157 -5.42155 255 0 0
4.59531e-16 7.5047 -3.94418 255 0 0
0.987419 7.26153 -4.42836 255 0 0
0.178855 7.93848 -4.4855 255 0 0
1.59739 7.28816 -4.68059 255 0 0
-1.35223 7.6277 -3.80202 255 0 0
-1.13253 7.40601 -4.20911 255 0 0
-1.35721 7.55159 -3.85214 255 0 0
0.260199 7.31303 -4.3575 255 0 0
-0.895827 7.92036 -3.78448 255 0 0
0.208823 8.00483 -4.50649 255 0 0
-1.75655 7.38403 -4.03376 255 0 0
-2.00029 7.21926 -5.12123 255 0 0
-0.152086 8.01705 -3.86526 255 0 0
-1.06853 8.00024 -3.73665 255 0 0
-1.19844 7.25994 -4.10331 255 0 0
-1.32449 8.66133 -4.6629 255 0 0
-1.33161 7.51141 -3.90874 255 0 0
-1.71147 7.3888 -4.03224 255 0 0
-0.90141 7.34531 -4.11538 255 0 0
-1.4483 7.17551 -4.29135 255 0 0
1.80357 7.46367 -4.90365 255 0 0
0.086237 7.27505 -4.41086 255 0 0
0.0383192 8.08071 -4.23739 255 0 0
-0.0897107 7.56694 -4.0277 255 0 0
-1.8556 7.26282 -4.14274 255 0 0
-1.30938 7.28551 -4.18261 255 0 0
-0.365957 7.34374 -4.03584 255 0 0
-1.32448 8.66125 -4.74262 255 0 0
-1.75566 7.45876 -3.91727 255 0 0
-0.260385 8.44501 -4.72198 255 0 0
-0.349346 7.36149 -4.04052 255 0 0
-0.818083 7.63833 -3.78699 255 0 0
-1.02187 8.75602 -3.89677 255 0 0
-1.44504 8.68978 -4.59744 255 0 0
-1.75421 8.00372 -3.83437 255 0 0
0.121209 7.30236 -4.42007 255 0 0
-1.56405 7.56378 -3.86451 255 0 0
1.11996 7.32384 -4.45507 255 0 0
-0.553514 7.51727 -3.886 255 0 0
-0.458186 7.2826 -4.21766 255 0 0
0.246472 7.99379 -4.57655 255 0 0
-1.3202 7.55117 -5.49731 255 0 0
-1.7611 7.28791 -4.07594 255 0 0
0.043415 7.3258 -5.41614 255 0 0
0.519524 7.54377 -4.09365 255 0 0
-0.0959729 8.09513 -4.31413 255 0 0
1.00922 7.42201 -4.90387 255 0 0
-1.15696 7.56565 -3.84756 255 0 0
-0.921983 7.9001 -3.78064 255 0 0
-0.554309 7.29161 -5.40995 255 0 0
-1.9035 7.71668 -3.77936 255 0 0
-0.294888 7.31205 -4.15777 255 0 0
1.7612 7.52226 -4.77562 255 0 0
-1.03497 8.03928 -3.74404 255 0 0
-1.3089 7.48657 -3.90163 255 0 0
-0.283127 7.45966 -3.9339 255 0 0
1.42505 7.32865 -4.96602 255 0 0
-1.11858 7.94392 -3.79599 255 0 0
-0.623401 7.28576 -4.15611 255 0 0
-0.346625 7.30416 -4.15611 255 0 0
-1.31199 7.50424 -3.97354 255 0 0
-1.30505 7.26141 -5.07394 255 0 0
-1.05688 7.57071 -3.84527 255 0 0
-0.502929 7.43102 -3.92949 255 0 0
-0.590946 7.53723 -3.89169 255 0 0
-0.191392 8.07066 -4.45348 255 0 0
-0.603759 7.70066 -5.52405 255 0 0
-1.26117 7.42095 -3.95005 255 0 0
2.0426 7.37196 -5.49002 255 0 0
-1.69758 7.25056 -4.88693 255 0 0
1.5334 7.28488 -4.60495 255 0 0
-1.15653 7.33014 -4.32283 255 0 0
-1.06805 7.92492 -3.79024 255 0 0
-1.15951 7.64303 -3.79826 255 0 0
0.362664 7.27767 -4.41455 255 0 0
0.215121 7.55875 -4.02618 255 0 0
-1.21391 7.46374 -4.02618 255 0 0
-1.27311 8.74098 -4.52494 255 0 0
-1.30346 7.56106 -3.85214 255 0 0
0.499107 7.2473 -4.40718 255 0 0
1.15208 7.30197 -4.44954 255 0 0
-0.257058 7.47477 -3.93757 255 0 0
-1.34902 7.30683 -4.19089 255 0 0
-1.44489 7.2471 -4.93575 255 0 0
-0.732488 7.7002 -5.52891 255 0 0
-1.10843 7.61025 -5.50865 255 0 0
-0.137715 8.2968 -3.93026 255 0 0
1.25799 7.2973 -4.52222 255 0 0
1.53636 7.61171 -4.64493 255 0 0
-0.264429 7.43266 -3.99284 255 0 0
-1.05745 7.38283 -4.065 255 0 0
-0.919488 7.64255 -5.51189 255 0 0
0.615901 7.40475 -4.19089 255 0 0
0.236707 7.98448 -4.50037 255 0 0
-0.425243 7.46487 -4.00345 255 0 0
1.76516 7.7036 -4.76546 255 0 0
0.112224 7.88808 -3.90436 255 0 0
-0.763342 7.29042 -4.02959 255 0 0
-1.94842 7.30046 -4.09208 255 0 0
-1.80881 7.64389 -3.82723 255 0 0
-1.02772 8.62837 -4.25107 255 0 0
0.642478 7.40531 -4.19172 255 0 0
-0.558344 7.70743 -3.7976 255 0 0
0.18347 7.36778 -4.44217 255 0 0
0.934581 7.32796 -4.37994 255 0 0
-2.10179 7.51628 -3.9528 255 0 0
1.73542 7.49219 -5.50865 255 0 0
1.7249 7.61074 -4.73065 255 0 0
1.58283 8.03831 -4.71476 255 0 0
-1.01446 7.20446 -4.27736 255 0 0
-1.09348 7.90127 -3.78576 255 0 0
-1.74784 7.79766 -3.71941 255 0 0
-1.95622 7.22638 -4.20745 255 0 0
-0.803313 7.50043 -3.88742 255 0 0
0.347409 7.50853 -4.01406 255 0 0
-0.458773 7.43265 -3.99537 255 0 0
-0.51487 7.22646 -4.26774 255 0 0
-1.11187 7.63388 -3.99851 255 0 0
1.49971 7.25265 -4.66079 255 0 0
-0.202315 7.75539 -5.53944 255 0 0
1.14716 7.27065 -4.50712 255 0 0
-1.86636 7.34122 -5.00925 255 0 0
1.50747 7.56098 -4.62606 255 0 0
1.49028 7.56832 -5.51918 255 0 0
1.64239 7.2466 -4.73947 255 0 0
-1.24779 7.55891 -3.8494 255 0 0
-2.09488 7.35691 -4.25547 255 0 0
1.716 7.40831 -4.73206 255 0 0
-1.64247 7.40987 -3.9662 255 0 0
1.72547 7.96285 -4.7752 255 0 0
0.767329 7.32851 -5.21487 255 0 0
-1.07528 7.50745 -3.96473 255 0 0
0.377961 7.58463 -4.37706 255 0 0
-1.51189 7.22514 -4.17654 255 0 0
-1.01352 7.38804 -4.06474 255 0 0
0.327315 8.11611 -4.03239 255 0 0
-1.31108 7.3956 -4.01254 255 0 0
-1.65586 7.64152 -3.81883 255 0 0
-0.307333 7.62084 -3.84115 255 0 0
-0.0565034 7.94442 -4.55949 255 0 0
-1.30143 7.24127 -4.16936 255 0 0
-1.47939 7.90795 -3.80111 255 0 0
-2.05341 7.27668 -4.16125 255 0 0
-1.40708 7.77613 -3.70032 255 0 0
-2.23052 7.3668 -4.13114 255 0 0
-0.00896959 7.56603 -3.89311 255 0 0
-0.334082 7.82316 -3.82148 255 0 0
0.523634 7.34919 -4.37366 255 0 0
-2.06513 7.25242 -4.29173 255 0 0
-0.605695 7.2822 -5.40748 255 0 0
-0.504712 7.3287 -4.16605 255 0 0
-1.51688 7.90085 -3.80111 255 0 0
1.2465 7.4412 -4.92503 255 0 0
0.742127 7.70462 -5.53134 255 0 0
0.411858 7.54492 -4.02467 255 0 0
-0.950703 7.385 -4.06162 255 0 0
-1.84931 7.42134 -3.98138 255 0 0
-1.45649 7.88896 -3.79599 255 0 0
-1.80598 7.67261 -3.76465 255 0 0
1.03981 7.38468 -4.89117 255 0 0
-0.110337 7.75547 -5.53863 255 0 0
1.12588 7.99573 -4.52748 255 0 0
-0.36072 7.79628 -3.81551 255 0 0
-1.77643 7.2016 -4.25427 255 0 0
1.03811 7.24782 -4.4939 255 0 0
0.325994 7.63378 -3.97942 255 0 0
0.0188535 7.95165 -4.489 255 0 0
1.68735 7.36402 -4.71425 255 0 0
-1.42035 7.64239 -3.80821 255 0 0
1.79298 7.57705 -4.7974 255 0 0
-0.166741 7.40135 -4.11619 255 0 0
0.211584 7.43448 -4.05927 255 0 0
1.77961 7.48091 -5.50825 255 0 0
-1.14749 7.38656 -3.87037 255 0 0
0.654125 7.24046 -4.27561 255 0 0
0.748797 7.23415 -4.40994 255 0 0
0.183506 7.73811 -5.53134 255 0 0
-0.492722 7.28035 -4.21766 255 0 0
1.69846 7.92898 -4.76198 255 0 0
-1.22515 7.42178 -4.01557 255 0 0
-2.11357 7.73492 -3.86526 255 0 0
-1.61698 7.86674 -3.72803 255 0 0
-1.03154 7.20203 -4.27736 255 0 0
-0.742768 7.34607 -4.11055 255 0 0
-2.20442 7.31179 -4.18297 255 0 0
-1.90998 7.22517 -4.20359 255 0 0
-0.850895 7.29098 -4.16439 255 0 0
-0.555391 7.19314 -4.32428 255 0 0
-1.55653 7.90478 -3.80367 255 0 0
-1.6249 7.41375 -3.9662 255 0 0
-1.29954 7.23071 -5.13285 255 0 0
-0.258417 7.51332 -3.88103 255 0 0
-0.757252 7.67103 -5.51675 255 0 0
-0.708725 7.26756 -5.405 255 0 0
0.839469 7.42231 -5.11222 255 0 0
-1.36664 7.40228 -3.95005 255 0 0
-2.12048 7.44678 -4.07468 255 0 0
-0.450047 7.291 -4.15391 255 0 0
-1.48714 7.459 -3.90306 255 0 0
1.36986 8.06036 -4.634 255 0 0
-0.807662 7.29589 -4.16439 255 0 0
-1.95167 7.27796 -4.29002 255 0 0
-0.0378834 7.9888 -4.42794 255 0 0
1.69674 7.48649 -5.50217 255 0 0
0.0530583 7.45917 -3.93243 255 0 0
1.03546 7.89524 -4.4925 255 0 0
0.538305 7.31055 -5.4182 255 0 0
-2.13954 7.72186 -3.86393 255 0 0
-0.874272 7.34009 -4.11297 255 0 0
1.42408 7.41751 -5.00061 255 0 0
-2.05745 7.56473 -3.89245 255 0 0
0.606589 7.29279 -5.41243 255 0 0
1.45567 7.39254 -5.13925 255 0 0
0.0183523 7.74026 -5.53134 255 0 0
0.789408 7.71597 -5.53863 255 0 0
-0.808266 7.22304 -4.07756 255 0 0
1.83742 7.22737 -5.03459 255 0 0
-2.19828 7.5833 -3.97554 255 0 0
-1.23797 7.39034 -4.14193 255 0 0
-1.85857 7.23857 -4.20359 255 0 0
-1.03024 8.47831 -3.83765 255 0 0
-1.80297 7.38447 -4.03679 255 0 0
1.56857 7.32262 -4.62042 255 0 0
-0.695486 7.69828 -5.52648 255 0 0
0.922094 9.0129 -4.2669 255 0 0
-1.84058 7.69671 -3.77169 255 0 0
-2.19789 7.71865 -3.93733 255 0 0
0.494518 7.43793 -4.33333 255 0 0
0.0381251 8.04401 -4.22723 255 0 0
-0.122686 7.39133 -4.04677 255 0 0
0.03429 7.23103 -4.39613 255 0 0
-1.00928 7.55663 -3.97501 255 0 0
0.0809066 7.58265 -3.89737 255 0 0
-1.26815 7.91564 -3.79472 255 0 0
0.74516 7.28348 -5.41408 255 0 0
0.526551 7.39013 -4.1178 255 0 0
1.10385 7.97624 -4.52049 255 0 0
-0.449469 7.72883 -3.80092 255 0 0
-0.0940382 7.21104 -4.38968 255 0 0
-0.630667 7.37067 -4.11458 255 0 0
1.49944 7.25137 -5.0852 255 0 0
-1.25077 8.05142 -3.82414 255 0 0
-0.741665 7.42311 -4.06552 255 0 0
0.0869038 7.32983 -5.4182 255 0 0
-1.03285 7.59581 -5.49731 255 0 0
-0.396439 7.42397 -3.99208 255 0 0
-0.278189 7.32957 -4.16274 255 0 0
-0.239734 7.77527 -3.80954 255 0 0
-0.902734 7.28474 -4.16439 255 0 0
0.473664 7.38889 -4.31759 255 0 0
0.888126 7.68916 -5.53134 255 0 0
-0.904292 7.44201 -4.00875 255 0 0
1.46699 7.35794 -5.19946 255 0 0
-1.5517 7.24378 -4.25143 255 0 0
0.781702 7.82382 -4.3184 255 0 0
0.139072 7.33079 -5.41903 255 0 0
-1.15092 7.18389 -5.39263 255 0 0
-0.210422 7.39363 -4.18095 255 0 0
0.0951555 8.02507 -4.36643 255 0 0
-0.0734082 7.73994 -5.53134 255 0 0
-0.939571 7.29826 -4.0374 255 0 0
-1.55269 7.88513 -3.79919 255 0 0
-1.32261 7.35909 -4.07021 255 0 0
-0.276011 7.27216 -4.2117 255 0 0
-2.00986 7.42452 -3.99263 255 0 0
0.10733 7.54408 -4.02164 255 0 0
-0.0571794 8.03666 -4.36974 255 0 0
-0.869711 7.22899 -4.27911 255 0 0
0.976203 7.44341 -4.41854 255 0 0
0.542077 7.36177 -4.31059 255 0 0
-0.871862 8.7262 -3.88691 255 0 0
-1.92806 7.29351 -5.0699 255 0 0
0.755518 7.74739 -4.29522 255 0 0
-1.6049 7.44907 -3.90661 255 0 0
0.646284 7.34799 -4.24178 255 0 0
-1.65682 7.39158 -4.02972 255 0 0
1.3673 7.30879 -5.02576 255 0 0
-0.946721 7.3538 -4.1194 255 0 0
-0.502399 7.2951 -4.15611 255 0 0
0.344276 7.44082 -4.0624 255 0 0
-0.00947088 7.99448 -4.42964 255 0 0
-0.0715941 7.54866 -3.88884 255 0 0
1.94606 7.61687 -5.04779 255 0 0
0.0569045 7.9999 -4.43134 255 0 0
1.192 7.27467 -4.51089 255 0 0
1.65771 7.31426 -4.69445 255 0 0
0.948264 7.23031 -4.48383 255 0 0
1.72684 7.29755 -4.76479 255 0 0
-1.24211 7.30867 -4.18592 255 0 0
-0.104615 8.02182 -4.43815 255 0 0
-0.648472 7.68607 -3.79428 255 0 0
-1.56048 7.37013 -4.0186 255 0 0
1.37291 7.24371 -4.57981 255 0 0
1.60274 7.75089 -4.69591 255 0 0
-1.78217 7.45248 -3.91727 255 0 0
-0.261809 7.35827 -4.17102 255 0 0
1.24815 7.91088 -4.58014 255 0 0
-0.814423 7.43757 -3.9383 255 0 0
-1.11692 7.42164 -4.07802 255 0 0
-1.34331 8.64709 -4.65949 255 0 0
-0.648141 7.36916 -4.11458 255 0 0
-0.104253 7.32782 -5.41738 255 0 0
4.90314e-16 8.00744 -4.21708 255 0 0
0.242626 7.86904 -3.96986 255 0 0
0.805394 7.87223 -4.33331 255 0 0
0.992849 7.23739 -4.48824 255 0 0
-2.06883 7.29823 -5.46086 255 0 0
0.142816 8.02999 -4.36808 255 0 0
-0.262183 7.36853 -4.1076 255 0 0
-0.647096 7.35727 -3.91334 255 0 0
1.41054 7.74287 -4.60793 255 0 0
-1.70398 7.23917 -4.12584 255 0 0
-2.15576 7.43664 -4.07468 255 0 0
-1.75937 7.16897 -4.31059 255 0 0
0.734644 7.35284 -4.24576 255 0 0
-0.491678 8.63111 -3.93543 255 0 0
-0.141067 7.43616 -4.05927 255 0 0
-1.30763 7.63934 -3.80291 255 0 0
1.54194 7.54709 -5.51432 255 0 0
0.257592 7.75732 -5.54106 255 0 0
0.591065 7.31611 -4.36468 255 0 0
-1.28464 7.45189 -4.02618 255 0 0
-1.34005 7.35593 -4.07021 255 0 0
-0.859477 7.36451 -4.1194 255 0 0
-0.0545569 7.67048 -3.85169 255 0 0
-0.306594 7.83284 -3.82347 255 0 0
-1.17099 7.84411 -3.70647 255 0 0
0.01774 7.48201 -3.9383 255 0 0
0.795973 7.2692 -5.40995 255 0 0
0.229617 7.74487 -5.53498 255 0 0
-1.11405 7.52377 -3.90306 255 0 0
0.389223 7.45501 -4.13389 255 0 0
-1.98598 7.30203 -4.09521 255 0 0
-0.15095 7.95715 -4.56398 255 0 0
-2.15413 7.53099 -3.95991 255 0 0
-0.815104 7.44379 -4.00648 255 0 0
0.381947 7.31564 -4.42744 255 0 0
0.403047 7.8997 -4.04917 255 0 0
-1.50203 7.82344 -3.71407 255 0 0
-1.63933 7.56531 -3.86863 255 0 0
-1.30792 7.80792 -3.70339 255 0 0
1.5627 8.03659 -4.71291 255 0 0
-1.08588 7.33351 -4.18592 255 0 0
-1.61157 7.27042 -4.06188 255 0 0
0.0568867 7.99739 -4.57655 255 0 0
-0.855594 7.18327 -4.33056 255 0 0
1.67956 7.25101 -4.81459 255 0 0
-0.160677 7.52834 -3.88411 255 0 0
-0.553424 7.28014 -4.1528 255 0 0
-1.90487 7.41898 -3.98431 255 0 0
-1.00565 7.33077 -4.18178 255 0 0
-2.15846 7.9362 -5.50723 255 0 0
-1.40793 7.38065 -4.0133 255 0 0
0.459748 7.44839 -4.40418 255 0 0
0.488778 7.35159 -4.37366 255 0 0
-1.86053 7.39157 -4.04235 255 0 0
-0.390003 7.82628 -3.82281 255 0 0
-0.214312 7.53079 -3.88505 255 0 0
-1.26477 7.55031 -3.84802 255 0 0
-0.965619 7.3627 -4.12262 255 0 0
1.42439 7.4191 -4.57319 255 0 0
0.202408 7.75895 -5.54106 255 0 0
1.99011 7.3863 -5.49002 255 0 0
1.60328 7.3151 -4.69049 255 0 0
0.319731 7.48712 -4.008 255 0 0
0.0381496 8.04494 -4.29964 255 0 0
-0.612202 7.57768 -3.8352 255 0 0
-1.50952 7.38843 -4.02062 255 0 0
1.42444 7.4194 -5.07431 255 0 0
-1.74439 7.21878 -4.80838 255 0 0
1.04311 7.28276 -4.43788 255 0 0
0.249648 7.51808 -4.01557 255 0 0
-1.39817 7.57306 -3.85901 255 0 0
0.581703 7.30812 -5.41861 255 0 0
-1.79089 7.90188 -3.8139 255 0 0
-0.953851 7.92797 -3.78768 255 0 0
-1.10626 7.8564 -3.70709 255 0 0
0.557061 7.81833 -4.1702 255 0 0
0.308744 7.22983 -4.26511 255 0 0
4.87664e-16 7.96415 -4.56577 255 0 0
-0.602019 7.67839 -3.79163 255 0 0
0.441126 7.7437 -5.53863 255 0 0
-1.99789 7.48579 -3.93859 255 0 0
-1.05095 7.27618 -4.16771 255 0 0
-0.245293 7.38694 -4.1793 255 0 0
1.47586 7.88906 -4.6595 255 0 0
0.199785 8.02284 -4.29401 255 0 0
-1.05315 8.49857 -3.84257 255 0 0
-1.66377 7.54831 -3.86588 255 0 0
2.36591 7.25225 -5.4803 255 0 0
1.22843 7.44166 -4.49927 255 0 0
-0.867633 7.9235 -3.78448 255 0 0
-1.92856 7.22604 -5.04341 255 0 0
-0.108661 7.63764 -3.8439 255 0 0
0.243335 7.32807 -5.41903 255 0 0
-1.40802 7.28711 -4.18841 255 0 0
-1.37812 7.27117 -4.94008 255 0 0
-0.618367 7.43439 -4.06552 255 0 0
1.8414 7.46502 -5.50784 255 0 0
0.0354022 7.46558 -4.00042 255 0 0
1.7668 7.23633 -5.17649 255 0 0
-2.2625 7.3777 -4.13661 255 0 0
-1.24679 7.55284 -5.49245 255 0 0
0.850399 7.28677 -4.36348 255 0 0
-0.207792 7.96514 -4.56697 255 0 0
-1.34258 7.32054 -4.12745 255 0 0
-1.91728 7.32299 -5.45356 255 0 0
0.902562 7.4276 -4.9725 255 0 0
-0.863213 7.24727 -5.40335 255 0 0
-1.86856 7.2419 -4.273 255 0 0
-1.17333 7.21427 -4.28785 255 0 0
-1.04725 7.31173 -4.11136 255 0 0
0.0952111 8.02752 -4.43986 255 0 0
-1.29333 7.55581 -5.49731 255 0 0
-1.44753 7.26034 -4.11619 255 0 0
-0.115831 7.51567 -4.01406 255 0 0
-0.98607 8.81197 -3.90785 255 0 0
-0.171696 8.04484 -4.51874 255 0 0
-0.108985 7.66043 -3.8494 255 0 0
-1.13607 7.80008 -3.696 255 0 0
0.58753 7.72863 -5.5362 255 0 0
1.5917 7.22136 -4.7263 255 0 0
-2.01006 7.32199 -5.4641 255 0 0
-0.717454 7.35707 -4.11297 255 0 0
-1.42525 8.63396 -4.65949 255 0 0
1.28954 7.3758 -4.97467 255 0 0
0.234355 7.60081 -4.24223 255 0 0
-0.646692 7.35268 -4.04365 255 0 0
-0.943293 7.46694 -3.88316 255 0 0
-2.00176 7.39463 -4.0527 255 0 0
-0.675802 7.48039 -4.07958 255 0 0
-0.616925 7.21007 -4.26511 255 0 0
-0.756155 7.47843 -4.01406 255 0 0
1.53631 8.00206 -4.70002 255 0 0
0.0188699 7.95856 -4.56398 255 0 0
0.753976 7.92608 -5.55278 255 0 0
-0.834341 7.29941 -4.10009 255 0 0
-0.141271 7.44693 -4.12906 255 0 0
0.851789 7.29864 -4.3001 255 0 0
0.12361 7.447 -3.92949 255 0 0
-0.509772 8.58999 -3.92647 255 0 0
-1.05142 7.21879 -5.4017 255 0 0
-1.34675 7.24641 -4.99927 255 0 0
0.210774 8.07965 -3.95107 255 0 0
0.191296 8.06642 -4.37912 255 0 0
-1.48675 7.55037 -3.85764 255 0 0
-1.8526 7.18007 -4.32109 255 0 0
1.44876 7.26649 -4.5927 255 0 0
0.435858 7.65121 -4.05346 255 0 0
1.45542 7.39127 -5.06548 255 0 0
0.780746 7.28972 -4.29485 255 0 0
0.465389 7.84212 -4.10499 255 0 0
-2.20656 7.35045 -4.12489 255 0 0
0.153274 7.60426 -3.90306 255 0 0
1.12401 7.35027 -4.8827 255 0 0
0.486808 7.45547 -4.06865 255 0 0
0.158212 7.41307 -3.98678 255 0 0
-0.213029 7.48526 -4.00648 255 0 0
1.76963 7.3232 -4.9208 255 0 0
-0.688965 8.78742 -4.4405 255 0 0
-0.846909 7.33231 -4.04365 255 0 0
0.685843 7.2098 -4.46684 255 0 0
-0.693587 7.78001 -3.74866 255 0 0
0.29306 7.26687 -4.40994 255 0 0
-0.230583 7.47848 -3.9383 255 0 0
-1.86268 7.629 -3.82679 255 0 0
-1.38419 8.63997 -4.58005 255 0 0
0.128867 7.76372 -4.14989 255 0 0
-0.698409 7.34194 -4.10814 255 0 0
0.73955 7.22864 -4.47502 255 0 0
-1.34941 7.50823 -3.90874 255 0 0
-0.461147 7.1937 -4.25637 255 0 0
-2.25145 7.34162 -4.19504 255 0 0
-0.340729 7.55837 -3.89311 255 0 0
2.24522 7.29052 -5.4803 255 0 0
0.809714 7.23598 -4.41271 255 0 0
-0.84641 7.90281 -3.77937 255 0 0
-0.502782 7.30067 -5.41243 255 0 0
0.841873 7.21371 -4.47377 255 0 0
0.966494 7.65059 -4.41379 255 0 0
-0.364396 7.31242 -5.41408 255 0 0
-1.91009 7.19101 -4.32896 255 0 0
0.29539 7.32439 -5.4182 255 0 0
-2.15705 7.31122 -4.17895 255 0 0
0.691055 7.85707 -4.25458 255 0 0
-1.36578 7.92257 -3.79983 255 0 0
-1.65749 7.23367 -4.87706 255 0 0
0.0189681 7.99997 -4.28677 255 0 0
-1.87955 7.17885 -4.32283 255 0 0
-0.930405 7.22706 -4.28086 255 0 0
0.598834 7.87749 -4.18739 255 0 0
-1.08444 7.32379 -4.0499 255 0 0
-1.7164 7.65739 -3.82546 255 0 0
-1.44958 7.45482 -3.90021 255 0 0
0.863145 7.71345 -5.54106 255 0 0
1.3585 7.35819 -4.54865 255 0 0
-1.89924 7.25406 -4.97899 255 0 0
0.601481 7.23138 -4.33775 255 0 0
0.499867 7.25834 -4.27736 255 0 0
0.101181 7.75826 -5.53984 255 0 0
0.0573043 8.05609 -4.30286 255 0 0
-1.14906 7.76019 -4.03228 255 0 0
-1.55129 7.45752 -3.9059 255 0 0
-0.173894 7.33278 -4.16274 255 0 0
1.33707 7.33957 -4.5411 255 0 0
0.0376604 7.94177 -4.55859 255 0 0
-1.95873 7.26984 -5.13699 255 0 0
-1.29226 7.19022 -4.97279 255 0 0
0.249271 7.50672 -4.07958 255 0 0
-0.955706 7.63811 -5.51189 255 0 0
-1.16423 7.49432 -4.09989 255 0 0
-0.0382389 8.06378 -4.2327 255 0 0
0.388175 7.43531 -4.12826 255 0 0
-1.32347 7.90078 -3.79344 255 0 0
1.1377 7.94326 -4.51174 255 0 0
0.777168 7.25631 -4.41823 255 0 0
-1.86205 7.28802 -4.08271 255 0 0
0.605682 7.49703 -4.14998 255 0 0
0.882747 7.26454 -5.41243 255 0 0
0.0835552 7.82866 -3.88993 255 0 0
-2.135 7.43086 -4.07165 255 0 0
-1.28328 8.39181 -4.27472 255 0 0
-1.46201 7.24335 -4.24576 255 0 0
0.0734082 7.73994 -5.53134 255 0 0
-0.951012 7.18533 -4.33505 255 0 0
-1.21856 7.6061 -3.99557 255 0 0
-0.525751 7.3789 -4.11458 255 0 0
0.64252 7.2073 -4.46464 255 0 0
1.19715 7.82856 -4.55141 255 0 0
0.175252 7.39006 -3.98072 255 0 0
-2.05491 7.31517 -4.1038 255 0 0
-0.593368 7.34461 -4.17267 255 0 0
-0.246274 7.41648 -4.05458 255 0 0
-1.13381 7.91608 -3.72064 255 0 0
1.46579 7.35196 -5.12348 255 0 0
0.716267 7.9283 -4.2755 255 0 0
-1.2784 7.21126 -5.05142 255 0 0
-1.82637 7.25591 -4.9725 255 0 0
-1.54827 7.26994 -4.88164 255 0 0
-0.999014 7.90801 -3.78448 255 0 0
-0.155984 7.73871 -5.53134 255 0 0
-0.700585 7.55478 -3.83153 255 0 0
-2.25459 7.47819 -4.09286 255 0 0
-2.25587 7.26382 -4.31159 255 0 0
1.99981 7.42233 -5.50703 255 0 0
1.46421 7.25428 -4.65881 255 0 0
0.421731 7.40323 -4.32109 255 0 0
-1.30533 7.26294 -5.21956 255 0 0
-0.716999 7.35241 -4.31234 255 0 0
0.799143 7.37881 -5.16501 255 0 0
0.132958 8.0102 -4.43475 255 0 0
-1.90409 7.27256 -4.14891 255 0 0
-1.30636 7.31851 -4.12504 255 0 0
1.84978 7.27601 -5.12799 255 0 0
-1.98459 7.2292 -5.12348 255 0 0
-0.273522 7.20658 -4.32338 255 0 0
1.12135 7.699 -4.50652 255 0 0
-0.49645 7.33578 -4.1017 255 0 0
0.9511 7.67504 -4.42079 255 0 0
-0.513104 7.2014 -4.25987 255 0 0
-1.80867 7.2582 -4.13818 255 0 0
-0.133942 8.06946 -4.37967 255 0 0
-2.15419 7.1759 -4.41376 255 0 0
-1.26645 7.56037 -5.49731 255 0 0
-0.510995 7.41992 -4.05927 255 0 0
0.920767 7.57742 -4.3893 255 0 0
1.43996 7.40535 -5.0699 255 0 0
-0.552811 7.50754 -4.01709 255 0 0
0.408275 7.47929 -4.41316 255 0 0
-0.954844 7.55842 -3.83909 255 0 0
-0.767983 7.25174 -4.2826 255 0 0
-2.19578 7.47512 -4.01833 255 0 0
0.885615 7.43532 -4.34382 255 0 0
-0.938786 8.76532 -3.89677 255 0 0
-0.105135 8.06146 -4.37719 255 0 0
-2.01137 7.29282 -4.23063 255 0 0
-1.65541 7.22461 -4.25257 255 0 0
-1.05022 7.21063 -4.28086 255 0 0
0.147252 7.76196 -5.54187 255 0 0
-0.227461 7.37721 -4.10975 255 0 0
1.8797 7.32096 -5.00277 255 0 0
0.277847 7.32055 -4.2931 255 0 0
1.86669 7.27027 -5.05445 255 0 0
-0.381005 7.29759 -4.08883 255 0 0
0.48719 7.74361 -5.53984 255 0 0
0.226962 7.36101 -4.44033 255 0 0
-1.57123 7.25105 -4.87635 255 0 0
0.308634 7.43391 -4.06005 255 0 0
1.33722 7.24288 -4.57723 255 0 0
-0.133423 8.03821 -4.44326 255 0 0
-0.36637 7.53157 -3.88671 255 0 0
-1.38919 7.32958 -4.06552 255 0 0
0.533629 7.36608 -4.17764 255 0 0
-1.2923 8.587 -4.71814 255 0 0
-1.20435 7.6332 -3.7976 255 0 0
-1.28352 8.3934 -4.19968 255 0 0
-0.630219 7.36544 -4.04677 255 0 0
-1.6165 7.37543 -4.02315 255 0 0
1.35552 7.49118 -5.02439 255 0 0
-0.00950113 8.02283 -4.3656 255 0 0
0.231733 8.14246 -4.47561 255 0 0
-1.20583 7.6426 -4.07316 255 0 0
1.74938 7.23939 -4.95881 255 0 0
-1.23025 7.79738 -3.69847 255 0 0
-1.40775 7.2858 -4.05458 255 0 0
-1.25654 7.39355 -4.07646 255 0 0
-2.14249 7.59237 -3.90436 255 0 0
-0.70287 7.67842 -3.79362 255 0 0
-1.70232 7.4293 -3.97452 255 0 0
-2.01208 7.32928 -4.30989 255 0 0
0.470633 7.3416 -4.37006 255 0 0
-0.892549 8.72411 -3.88691 255 0 0
-0.918 8.76752 -3.89677 255 0 0
-0.957073 8.7403 -3.89184 255 0 0
-0.992659 8.68448 -3.88075 255 0 0
-1.03518 8.69105 -3.88322 255 0 0
-1.08231 8.25248 -3.79084 255 0 0
-1.10909 8.15651 -3.77114 255 0 0
-1.10175 7.96106 -3.72926 255 0 0
-1.19412 7.80878 -3.6997 255 0 0
-1.22142 7.86249 -3.71202 255 0 0
-1.24964 7.80009 -3.6997 255 0 0
0.114846 8.07237 -4.30769 255 0 0
-1.27548 7.8423 -3.70955 255 0 0
-1.30414 7.78536 -3.69847 255 0 0
-1.35272 7.79158 -3.70155 255 0 0
-1.38691 7.82337 -3.70955 255 0 0
-1.42901 7.74012 -3.69354 255 0 0
-1.45894 7.79861 -3.70709 255 0 0
-1.53836 7.8125 -3.71325 255 0 0
-1.55353 7.79199 -3.70955 255 0 0
-1.64342 7.76183 -3.70709 255 0 0
-1.6822 7.85306 -3.72803 255 0 0
-1.70798 7.7928 -3.71653 255 0 0
-2.20865 7.45355 -4.08301 255 0 0
0.587225 7.26857 -4.41639 255 0 0
1.68872 7.53391 -4.70164 255 0 0
-1.73203 7.64218 -3.82281 255 0 0
0.809555 7.47513 -5.28044 255 0 0
-1.51434 7.41204 -3.95984 255 0 0
-0.464929 7.53276 -3.88837 255 0 0
0.74522 7.28406 -4.29193 255 0 0
0.133798 8.06081 -4.30447 255 0 0
0.823579 7.35987 -5.15812 255 0 0
1.39673 7.36937 -5.42197 255 0 0
1.08914 7.35552 -4.8827 255 0 0
-0.681368 7.54201 -3.9618 255 0 0
-2.00331 7.54197 -3.88375 255 0 0
-1.60109 7.22316 -4.18151 255 0 0
-0.436245 8.75423 -3.96229 255 0 0
-0.464032 8.68985 -3.94822 255 0 0
-0.528377 8.56024 -3.92008 255 0 0
-0.543555 8.47914 -3.90217 255 0 0
-0.572765 8.31685 -3.86635 255 0 0
-0.586601 7.96644 -3.78832 255 0 0
-0.596393 7.84538 -3.76146 255 0 0
-0.648866 7.80108 -3.7525 255 0 0
-0.757944 7.86873 -3.76977 255 0 0
-0.801863 7.93042 -3.78448 255 0 0
-1.01703 7.89995 -3.7832 255 0 0
-1.03353 7.88052 -3.77937 255 0 0
-1.15047 7.89895 -3.78704 255 0 0
-1.19077 7.97675 -3.80559 255 0 0
-1.24118 8.1165 -3.83821 255 0 0
-1.2467 7.90169 -3.79088 255 0 0
-1.358 7.8775 -3.7896 255 0 0
-1.40333 7.916 -3.79983 255 0 0
-1.41704 7.88454 -3.79344 255 0 0
-1.61979 7.88039 -3.80111 255 0 0
-1.66535 7.95848 -3.8203 255 0 0
-1.7209 8.1278 -3.85995 255 0 0
-1.71025 7.98402 -3.82797 255 0 0
-1.71949 7.93526 -3.81774 255 0 0
-1.72372 7.7764 -3.7832 255 0 0
-1.76893 7.67831 -3.76401 255 0 0
-1.88844 7.65568 -3.76529 255 0 0
-1.26765 7.62295 -3.7976 255 0 0
0.501613 7.28369 -4.35211 255 0 0
-2.10821 7.30496 -4.17331 255 0 0
-1.11413 7.40312 -4.20745 255 0 0
-1.1003 7.5545 -3.91016 255 0 0
1.68481 7.51649 -5.51432 255 0 0
-0.172433 8.07939 -3.87985 255 0 0
-0.191589 8.07895 -3.87985 255 0 0
-0.216217 7.92714 -3.8447 255 0 0
-0.270725 7.87126 -3.83209 255 0 0
-0.405287 7.76269 -3.80821 255 0 0
-0.422448 7.73893 -3.80291 255 0 0
-0.513012 7.71629 -3.79893 255 0 0
-0.756618 7.66471 -3.79163 255 0 0
-0.783013 7.65347 -3.78964 255 0 0
-0.846187 7.64387 -3.78898 255 0 0
-0.874984 7.65498 -3.79229 255 0 0
-0.909694 7.63752 -3.7892 255 0 0
-0.964956 7.63841 -3.79097 255 0 0
-1.00166 7.6375 -3.79185 255 0 0
-1.05647 7.63395 -3.79274 255 0 0
-1.12118 7.63434 -3.79495 255 0 0
-1.45656 7.63557 -3.80821 255 0 0
-1.50474 7.64171 -3.81175 255 0 0
-1.62077 7.65489 -3.82015 255 0 0
-1.75396 7.65473 -3.82679 255 0 0
-1.76825 7.63388 -3.82281 255 0 0
-1.88759 7.65225 -3.83342 255 0 0
-1.91124 7.66989 -3.83873 255 0 0
-1.99106 7.67902 -3.84536 255 0 0
-2.05886 7.71424 -3.8573 255 0 0
0.297604 7.37939 -4.17764 255 0 0
1.28925 7.22258 -4.56724 255 0 0
-2.11304 7.35437 -4.11864 255 0 0
-1.71854 7.26245 -4.89328 255 0 0
-0.400878 7.34378 -4.03636 255 0 0
1.32317 7.46381 -5.01142 255 0 0
0.753787 7.36779 -4.25086 255 0 0
-1.10015 7.4299 -4.01254 255 0 0
-0.688434 7.62021 -3.91443 255 0 0
0.844319 7.2348 -4.41363 255 0 0
-2.10836 7.33812 -4.11396 255 0 0
0.23155 8.13602 -3.96481 255 0 0
0.180836 8.02628 -3.93802 255 0 0
0.151032 7.96144 -3.92222 255 0 0
0.131304 7.91055 -3.90985 255 0 0
0.0554252 7.79192 -3.881 255 0 0
0.0274968 7.7266 -3.8652 255 0 0
-0.00909589 7.67542 -3.85283 255 0 0
-0.162886 7.63289 -3.84298 255 0 0
-0.207938 7.62421 -3.84115 255 0 0
-0.253131 7.62284 -3.84115 255 0 0
-0.406545 7.61335 -3.84047 255 0 0
-0.433454 7.60902 -3.83978 255 0 0
-0.505219 7.59887 -3.8384 255 0 0
-0.505598 7.60457 -3.83978 255 0 0
-0.657268 7.57582 -3.83566 255 0 0
-0.745914 7.55617 -3.83291 255 0 0
-0.772204 7.54781 -3.83153 255 0 0
-0.862285 7.54377 -3.83291 255 0 0
-0.919343 7.56571 -3.83978 255 0 0
-0.952356 7.53868 -3.83428 255 0 0
1.25963 7.41178 -5.35474 255 0 0
-1.01098 7.56931 -3.84344 255 0 0
-1.10311 7.57369 -3.84756 255 0 0
-1.21283 7.57034 -3.85077 255 0 0
-1.30103 7.54701 -3.84871 255 0 0
-1.36024 7.56838 -3.85627 255 0 0
-1.4214 7.54846 -3.85421 255 0 0
-1.45827 7.54722 -3.85558 255 0 0
-1.51583 7.55619 -3.86039 255 0 0
-1.56174 7.55265 -3.86176 255 0 0
-1.60945 7.55717 -3.8652 255 0 0
-1.71352 7.56051 -3.87138 255 0 0
-1.711 7.54943 -3.86863 255 0 0
-1.7583 7.55023 -3.87138 255 0 0
-1.78515 7.54394 -3.87138 255 0 0
-1.80435 7.54522 -3.87275 255 0 0
-1.82892 7.56858 -3.87962 255 0 0
-1.85652 7.56478 -3.88031 255 0 0
-1.90408 7.56468 -3.88306 255 0 0
-1.90062 7.5509 -3.87962 255 0 0
-2.11013 7.58075 -3.89955 255 0 0
1.04637 7.97832 -4.51874 255 0 0
-1.39916 8.66752 -4.50965 255 0 0
-1.35535 7.54131 -5.49569 255 0 0
0.0893249 7.53439 -3.95201 255 0 0
1.25067 7.46613 -4.50848 255 0 0
-0.609808 7.54811 -3.9618 255 0 0
-0.443784 7.33069 -4.09929 255 0 0
-1.97723 7.47952 -3.93575 255 0 0
-1.00544 7.32895 -4.11458 255 0 0
-0.00856594 7.22833 -4.39521 255 0 0
-1.10593 7.34863 -4.12423 255 0 0
0.126249 7.60601 -4.03831 255 0 0
0.303547 7.99766 -4.00254 255 0 0
0.285593 8.02674 -4.00965 255 0 0
0.263733 7.94224 -3.98833 255 0 0
0.221382 7.77874 -3.94712 255 0 0
0.191594 7.6943 -3.9258 255 0 0
0.108197 7.60504 -3.90306 255 0 0
0.0359186 7.57352 -3.895 255 0 0
-0.0448208 7.56307 -3.8924 255 0 0
-0.0895592 7.55415 -3.89026 255 0 0
-0.286743 7.55493 -3.89169 255 0 0
-0.31326 7.54534 -3.88955 255 0 0
-0.402397 7.53542 -3.88813 255 0 0
-0.509512 7.52894 -3.88813 255 0 0
-0.556449 7.55695 -3.89595 255 0 0
-0.605155 7.49052 -3.88032 255 0 0
-0.628564 7.55699 -3.89737 255 0 0
-0.660411 7.50866 -3.886 255 0 0
-0.714077 7.50658 -3.88671 255 0 0
-0.721872 7.58859 -3.90732 255 0 0
-0.748813 7.49465 -3.88458 255 0 0
-0.761378 7.442 -3.87179 255 0 0
-0.824804 7.53238 -3.89595 255 0 0
-0.855311 7.48322 -3.88458 255 0 0
-0.863094 7.55096 -3.90163 255 0 0
-0.905438 7.52597 -3.89666 255 0 0
-0.972599 7.55482 -3.9059 255 0 0
-1.00917 7.55575 -3.90732 255 0 0
-1.01713 7.48017 -3.88884 255 0 0
-1.03798 7.50024 -3.89453 255 0 0
-1.06288 7.54838 -3.90732 255 0 0
-1.1395 7.57166 -3.91585 255 0 0
-1.19248 7.50024 -3.90021 255 0 0
-1.2522 7.47513 -3.89642 255 0 0
-1.37881 7.46823 -3.90021 255 0 0
-1.40432 7.45769 -3.89879 255 0 0
-1.46725 7.45136 -3.90021 255 0 0
-1.52249 7.45187 -3.90306 255 0 0
-1.65272 7.45605 -3.91087 255 0 0
-1.70193 7.46829 -3.91656 255 0 0
-1.82019 7.45498 -3.92011 255 0 0
-1.94887 7.51631 -3.94285 255 0 0
-2.02302 7.50845 -3.94569 255 0 0
-2.06011 7.50425 -3.94712 255 0 0
-2.07789 7.49935 -3.94712 255 0 0
-1.96065 7.27695 -4.15427 255 0 0
0.19021 8.02024 -4.43815 255 0 0
-0.759157 8.63137 -4.3217 255 0 0
0.0359099 7.57264 -3.9618 255 0 0
-2.14536 7.43371 -4.00438 255 0 0
-1.2574 7.39862 -3.94418 255 0 0
0.372132 7.84164 -4.03375 255 0 0
0.351751 7.80286 -4.02347 255 0 0
0.29508 7.5386 -3.95446 255 0 0
0.248636 7.48734 -3.94075 255 0 0
0.19501 7.4738 -3.93683 255 0 0
0.195857 7.50782 -3.94564 255 0 0
0.159406 7.46899 -3.93537 255 0 0
0.142557 7.51469 -3.94711 255 0 0
-0.0543484 7.64055 -3.97942 255 0 0
-0.308829 7.43878 -3.92876 255 0 0
-0.35296 7.43775 -3.929 255 0 0
-0.397147 7.43742 -3.92949 255 0 0
-0.425853 7.47558 -3.93977 255 0 0
-0.45501 7.37162 -3.91334 255 0 0
-0.539871 7.33181 -3.90453 255 0 0
-0.558972 7.35312 -3.9104 255 0 0
-0.801833 8.64659 -4.24961 255 0 0
-0.730596 7.49184 -3.95005 255 0 0
-0.840211 8.40943 -4.1894 255 0 0
-0.753999 7.36988 -3.91921 255 0 0
-0.773832 7.39062 -3.92509 255 0 0
-0.788939 7.36622 -3.91921 255 0 0
-0.927091 7.33868 -3.91628 255 0 0
-0.987678 7.53091 -3.96767 255 0 0
-1.01651 7.47559 -3.95445 255 0 0
-1.31299 8.45195 -4.21583 255 0 0
-1.19434 7.56977 -3.98529 255 0 0
-1.21124 7.39195 -3.94051 255 0 0
-1.31395 7.41181 -3.95005 255 0 0
-1.34485 7.43218 -3.95666 255 0 0
-1.40526 7.41426 -3.95494 255 0 0
-1.55982 7.41033 -3.9618 255 0 0
-1.59435 7.40008 -3.96106 255 0 0
-1.665 7.42808 -3.97208 255 0 0
-1.75816 7.42987 -3.97795 255 0 0
-1.80685 7.43861 -3.98309 255 0 0
-1.95954 7.41255 -3.98627 255 0 0
-2.05434 7.41429 -3.99312 255 0 0
-2.10622 7.43017 -4.00071 255 0 0
-2.24902 7.55691 -4.04256 255 0 0
0.583732 7.33336 -4.30272 255 0 0
1.38982 7.23896 -4.64825 255 0 0
0.58756 7.3817 -4.18344 255 0 0
0.0759954 8.01272 -4.21864 255 0 0
1.80916 7.26022 -4.9725 255 0 0
-2.05765 7.42622 -4.06483 255 0 0
-0.793245 7.40642 -4.0624 255 0 0
-1.41959 7.25465 -4.24661 255 0 0
-1.02677 7.29189 -4.10492 255 0 0
0.537667 8.08692 -4.17167 255 0 0
0.497719 7.91097 -4.12393 255 0 0
0.392788 7.52329 -4.0186 255 0 0
0.373823 7.5016 -4.01254 255 0 0
0.285725 7.52811 -4.0186 255 0 0
0.248448 7.48131 -4.00572 255 0 0
0.195871 7.50836 -4.01254 255 0 0
0.0807802 7.56986 -4.02845 255 0 0
0.0535859 7.53334 -4.0186 255 0 0
0.0178085 7.51089 -4.01254 255 0 0
4.64413e-16 7.58444 -4.03224 255 0 0
-0.017728 7.47695 -4.00345 255 0 0
-0.0531477 7.473 -4.00244 255 0 0
-0.150798 7.48111 -4.00497 255 0 0
-0.178336 7.52011 -4.01557 255 0 0
-0.197198 7.55924 -4.02618 255 0 0
-0.231473 7.50734 -4.01254 255 0 0
-0.265462 7.46094 -4.00042 255 0 0
-0.307926 7.41685 -3.98905 255 0 0
-0.352613 7.4309 -3.99335 255 0 0
-0.493768 7.42664 -3.99436 255 0 0
-0.67859 8.6551 -4.32624 255 0 0
-0.610479 7.44633 -4.00193 255 0 0
-0.642255 7.50611 -4.0186 255 0 0
-0.672753 7.44665 -4.00345 255 0 0
-0.68623 7.39998 -3.99133 255 0 0
-0.719305 7.56161 -4.03527 255 0 0
-0.728449 7.46982 -4.01103 255 0 0
-0.778618 7.43632 -4.00345 255 0 0
-0.80468 7.51319 -4.02467 255 0 0
-0.855298 7.48291 -4.0181 255 0 0
-0.90602 7.45607 -4.01254 255 0 0
-0.935696 7.4068 -4.00042 255 0 0
-0.971138 7.47352 -4.01936 255 0 0
-1.01097 7.43494 -4.01052 255 0 0
-1.1346 7.53913 -4.04285 255 0 0
-1.18597 7.63426 -4.07013 255 0 0
-1.21142 7.56154 -4.05194 255 0 0
-1.24462 7.43001 -4.0186 255 0 0
-1.2537 7.37686 -4.00497 255 0 0
-1.29743 7.42097 -4.0186 255 0 0
-1.33261 7.41473 -4.0186 255 0 0
-1.36356 7.43498 -4.02542 255 0 0
-1.38116 7.38283 -4.01254 255 0 0
-1.45404 7.38418 -4.01658 255 0 0
-1.59661 7.36819 -4.02012 255 0 0
-1.91113 7.40689 -4.04967 255 0 0
-1.95331 7.38904 -4.0479 255 0 0
-2.06745 7.46167 -4.07468 255 0 0
-2.09821 7.43546 -4.07013 255 0 0
-2.17974 7.45322 -4.08074 255 0 0
-0.582538 7.21057 -4.33056 255 0 0
0.303361 7.75033 -5.53863 255 0 0
-1.85093 7.28053 -4.91233 255 0 0
1.841 7.27747 -4.98223 255 0 0
-1.90951 7.29323 -4.0874 255 0 0
0.258304 7.25976 -4.27386 255 0 0
0.634656 7.63023 -4.1886 255 0 0
1.32822 7.44093 -4.93032 255 0 0
0.324337 7.59497 -4.44907 255 0 0
1.77353 7.41633 -4.81137 255 0 0
-0.559068 7.71739 -5.53012 255 0 0
-0.711616 8.80826 -4.44675 255 0 0
0.440507 7.42254 -4.05875 255 0 0
0.386016 7.39357 -4.0499 255 0 0
0.285935 7.53364 -4.0874 255 0 0
0.265664 7.46663 -4.06865 255 0 0
0.233559 7.57497 -4.09833 255 0 0
0.195428 7.49138 -4.0749 255 0 0
1.27582 7.50698 -4.52321 255 0 0
0.176863 7.45797 -4.06552 255 0 0
0.159179 7.45837 -4.06552 255 0 0
0.103997 7.9729 -4.2077 255 0 0
-0.0191864 8.09206 -4.24051 255 0 0
-0.0571173 8.02981 -4.22333 255 0 0
-0.0740152 7.80394 -4.16083 255 0 0
-0.0906451 7.64575 -4.11708 255 0 0
-0.106124 7.45931 -4.06552 255 0 0
-0.166349 7.38483 -4.04521 255 0 0
-0.271713 7.39017 -4.04755 255 0 0
-0.313479 7.3405 -4.03427 255 0 0
-0.436256 7.3512 -4.03896 255 0 0
-0.462926 7.35805 -4.0413 255 0 0
-0.506742 7.35797 -4.04209 255 0 0
-0.660027 8.82076 -4.4491 255 0 0
-0.689888 7.43943 -4.06865 255 0 0
-0.700044 7.35913 -4.04677 255 0 0
-0.716395 7.34622 -4.04365 255 0 0
-0.747777 7.30905 -4.03427 255 0 0
-0.814613 7.35868 -4.0499 255 0 0
-0.877654 7.36848 -4.05458 255 0 0
-0.90261 7.428 -4.07177 255 0 0
-0.910503 7.34744 -4.0499 255 0 0
-0.977157 7.3161 -4.04365 255 0 0
-1.13536 7.42455 -4.07958 255 0 0
-1.35876 8.61193 -4.41394 255 0 0
-1.38364 8.63654 -4.42175 255 0 0
-1.39777 8.59425 -4.41082 255 0 0
-1.22054 7.39386 -4.0749 255 0 0
-1.23155 7.35199 -4.06396 255 0 0
-1.27023 7.36831 -4.07021 255 0 0
-1.29158 7.38751 -4.07646 255 0 0
-1.29826 7.32331 -4.05927 255 0 0
-1.36467 7.34279 -4.06787 255 0 0
-1.50798 7.29261 -4.06188 255 0 0
-1.55902 7.27802 -4.06083 255 0 0
-1.65945 7.28183 -4.06787 255 0 0
-1.69651 7.28488 -4.07099 255 0 0
-1.72566 7.29253 -4.0749 255 0 0
-1.81517 7.28432 -4.07854 255 0 0
-1.97013 7.31217 -4.09677 255 0 0
-2.0172 7.31395 -4.10068 255 0 0
-2.15659 7.34174 -4.11864 255 0 0
-2.18591 7.34484 -4.12177 255 0 0
0.500762 7.39935 -4.18675 255 0 0
-0.119549 7.20233 -4.38692 255 0 0
0.447214 7.2451 -4.40534 255 0 0
0.666664 7.79137 -4.23527 255 0 0
0.583064 7.43671 -4.13228 255 0 0
0.556825 7.44154 -4.13308 255 0 0
0.490029 7.37006 -4.11136 255 0 0
0.440995 7.43143 -4.12799 255 0 0
0.303541 7.5266 -4.1532 255 0 0
0.28121 7.40916 -4.1194 255 0 0
0.245005 7.37851 -4.11029 255 0 0
0.220219 7.73789 -4.21274 255 0 0
0.172622 8.08823 -4.31252 255 0 0
0.15259 8.04359 -4.29964 255 0 0
0.0857886 8.03894 -4.29803 255 0 0
-0.00951741 8.0225 -4.29321 255 0 0
-0.0380161 8.0168 -4.2916 255 0 0
-0.0670016 8.0729 -4.30769 255 0 0
-0.123614 7.44725 -4.12906 255 0 0
-0.199674 7.32169 -4.09366 255 0 0
-0.312271 7.3121 -4.09205 255 0 0
-0.311538 7.29525 -4.08722 255 0 0
-0.355855 7.31576 -4.09366 255 0 0
-0.406809 7.29337 -4.08802 255 0 0
-0.471451 7.35436 -4.10653 255 0 0
-0.556921 7.32578 -4.10009 255 0 0
-0.598428 7.40725 -4.12423 255 0 0
-0.670253 7.32195 -4.1017 255 0 0
-0.771525 7.36858 -4.1178 255 0 0
-0.800144 7.38818 -4.12423 255 0 0
-1.08099 8.5569 -4.4654 255 0 0
-0.978601 7.32691 -4.11297 255 0 0
-1.1026 7.32634 -4.1178 255 0 0
-1.35803 8.67406 -4.50965 255 0 0
-1.25513 7.28081 -4.11189 255 0 0
-1.36446 7.29359 -4.12101 255 0 0
-1.38699 7.31799 -4.12906 255 0 0
-1.41094 7.25605 -4.11297 255 0 0
-1.46362 7.25137 -4.11458 255 0 0
-1.49167 7.25714 -4.1178 255 0 0
-1.51517 7.24077 -4.11458 255 0 0
-1.60416 7.23694 -4.11887 255 0 0
-1.64868 7.23464 -4.12101 255 0 0
-1.67694 7.2397 -4.12423 255 0 0
-1.75083 7.24535 -4.13067 255 0 0
-2.00125 7.25617 -4.15159 255 0 0
0.426942 7.34148 -4.36917 255 0 0
-1.869 7.20827 -4.88693 255 0 0
0.722786 7.59821 -4.25051 255 0 0
0.670577 7.42256 -4.19751 255 0 0
0.558959 7.35294 -4.17433 255 0 0
0.449628 7.42795 -4.1942 255 0 0
0.421631 7.40147 -4.18592 255 0 0
0.411122 7.53143 -4.22401 255 0 0
0.378337 7.41505 -4.18923 255 0 0
0.355144 7.48368 -4.20911 255 0 0
0.333858 7.40595 -4.18592 255 0 0
0.316777 7.41794 -4.18923 255 0 0
0.279255 7.35763 -4.17102 255 0 0
0.255282 7.42312 -4.19006 255 0 0
0.229754 8.07292 -4.38133 255 0 0
0.0380887 8.03303 -4.36863 255 0 0
-0.152435 8.03543 -4.36974 255 0 0
-0.158185 7.41178 -4.18592 255 0 0
-0.208737 7.33466 -4.16357 255 0 0
-0.319787 7.2857 -4.15032 255 0 0
-0.372021 7.29166 -4.1528 255 0 0
-0.405968 7.2786 -4.14949 255 0 0
-0.539049 7.32064 -4.16439 255 0 0
-0.567172 7.23402 -4.13955 255 0 0
-0.61497 7.39356 -4.18758 255 0 0
-0.639198 7.26747 -4.15115 255 0 0
-0.662997 7.33865 -4.17267 255 0 0
-0.681951 7.35384 -4.17764 255 0 0
-0.695662 7.31306 -4.16605 255 0 0
-0.71736 7.35611 -4.1793 255 0 0
-0.725307 7.25939 -4.15115 255 0 0
-0.762261 7.28006 -4.15832 255 0 0
-0.836795 7.32087 -4.17267 255 0 0
-0.8808 7.3949 -4.19586 255 0 0
-0.880717 7.24783 -4.1528 255 0 0
-0.924227 7.31601 -4.17433 255 0 0
-0.937985 7.28595 -4.16605 255 0 0
-0.975499 7.30368 -4.17267 255 0 0
-1.01959 7.24095 -4.15611 255 0 0
-1.41279 8.68655 -4.59495 255 0 0
-1.25848 7.30017 -4.18427 255 0 0
-1.26321 7.22525 -4.16274 255 0 0
-1.36929 7.27163 -4.18178 255 0 0
-1.42578 7.24073 -4.17599 255 0 0
-1.45936 7.23021 -4.17488 255 0 0
-1.65494 7.22254 -4.18482 255 0 0
-1.71058 7.2288 -4.19034 255 0 0
-1.7545 7.22309 -4.19172 255 0 0
-1.80251 7.23344 -4.19807 255 0 0
-2.05505 7.31564 -4.24057 255 0 0
-2.16591 7.27772 -4.23891 255 0 0
-2.21477 7.28356 -4.24471 255 0 0
-2.25922 7.30517 -4.25465 255 0 0
1.34168 7.21909 -4.63802 255 0 0
-0.249613 7.25763 -4.33954 255 0 0
0.0471998 7.96271 -4.4925 255 0 0
0.696757 7.32462 -4.23611 255 0 0
0.593245 7.34309 -4.23895 255 0 0
0.595051 7.36545 -4.24576 255 0 0
0.642618 8.72718 -4.65949 255 0 0
0.253801 8.23148 -4.50285 255 0 0
0.0945738 7.97713 -4.42453 255 0 0
-0.0665743 8.02223 -4.43815 255 0 0
-0.162508 8.06288 -4.45092 255 0 0
-0.261557 7.35118 -4.23554 255 0 0
-0.363135 7.28702 -4.21738 255 0 0
-0.414542 7.27679 -4.21511 255 0 0
-0.530347 7.44341 -4.26789 255 0 0
-1.38127 8.75456 -4.69355 255 0 0
-1.37604 7.2602 -4.24576 255 0 0
-1.38691 7.2239 -4.23554 255 0 0
-1.46423 7.25436 -4.24916 255 0 0
-1.50721 7.24554 -4.24916 255 0 0
-1.60357 7.23438 -4.252 255 0 0
-1.71063 7.22901 -4.25767 255 0 0
-1.75344 7.21875 -4.25767 255 0 0
-1.83037 7.19964 -4.25767 255 0 0
-1.91216 7.26817 -4.28407 255 0 0
-2.0575 7.32443 -4.31216 255 0 0
-2.09714 7.26655 -4.29854 255 0 0
-2.11981 7.2483 -4.29513 255 0 0
-2.16056 7.25962 -4.30194 255 0 0
-2.15735 7.2489 -4.29854 255 0 0
-2.19333 7.24395 -4.30024 255 0 0
-2.21704 7.26016 -4.30705 255 0 0
1.73067 7.23711 -4.88482 255 0 0
1.10903 8.15602 -4.57646 255 0 0
0.827716 7.31827 -4.30534 255 0 0
0.69219 7.2762 -4.28785 255 0 0
0.625024 7.30472 -4.29485 255 0 0
0.615114 7.39528 -4.32283 255 0 0
0.557836 7.33818 -4.30359 255 0 0
0.439948 7.26781 -4.27911 255 0 0
0.404786 7.41537 -4.32458 255 0 0
0.392738 7.52233 -4.35782 255 0 0
0.360771 7.60225 -4.3823 255 0 0
0.293627 7.28079 -4.28086 255 0 0
0.14101 7.92806 -4.482 255 0 0
0.0944419 7.966 -4.49367 255 0 0
-0.00942676 7.94049 -4.4855 255 0 0
-0.0565423 7.94773 -4.48784 255 0 0
-0.113523 7.98066 -4.49833 255 0 0
-0.151561 7.98935 -4.50125 255 0 0
-0.209321 8.02344 -4.51232 255 0 0
-0.241646 7.27711 -4.27911 255 0 0
-0.265652 7.22594 -4.26336 255 0 0
-0.350911 7.21391 -4.26074 255 0 0
-0.635487 7.22529 -4.27036 255 0 0
-0.672323 7.25001 -4.27911 255 0 0
-0.690569 7.25952 -4.2826 255 0 0
-0.721653 7.22281 -4.27211 255 0 0
-0.813893 7.19612 -4.26686 255 0 0
-0.84013 7.19873 -4.26861 255 0 0
-1.39248 8.43543 -4.67616 255 0 0
-1.20384 7.18658 -4.28086 255 0 0
-1.31698 7.1809 -4.28523 255 0 0
-1.4079 7.19495 -4.29485 255 0 0
2.34173 7.26569 -5.48273 255 0 0
-1.80592 7.17466 -4.31584 255 0 0
-1.95097 7.17327 -4.32692 255 0 0
-2.00995 7.18791 -4.33624 255 0 0
-2.0595 7.16806 -4.3345 255 0 0
-2.16142 7.16913 -4.34382 255 0 0
-2.19831 7.19882 -4.35607 255 0 0
-2.21866 7.20427 -4.35957 255 0 0
-2.2749 7.20429 -4.36481 255 0 0
-1.96745 7.23388 -5.12348 255 0 0
0.0516325 7.25872 -4.40534 255 0 0
0.975718 7.30533 -4.8573 255 0 0
1.33233 7.95365 -4.59809 255 0 0
1.30627 7.97209 -4.60258 255 0 0
1.26955 7.92441 -4.58552 255 0 0
1.22426 7.88077 -4.56937 255 0 0
1.16863 7.76525 -4.52986 255 0 0
1.14205 7.71286 -4.51191 255 0 0
1.08176 7.55268 -4.45804 255 0 0
1.06229 7.54419 -4.45445 255 0 0
1.03962 7.57828 -4.46433 255 0 0
1.00344 7.51289 -4.44188 255 0 0
0.895392 7.29636 -4.36827 255 0 0
0.796825 7.27693 -4.35839 255 0 0
0.793498 7.24648 -4.34852 255 0 0
0.744957 7.28149 -4.35809 255 0 0
0.707536 7.25537 -4.34852 255 0 0
0.568925 7.25638 -4.34493 255 0 0
0.555521 7.30772 -4.36109 255 0 0
0.534509 7.25899 -4.34493 255 0 0
0.368366 7.39208 -4.38443 255 0 0
0.33381 7.40488 -4.38802 255 0 0
0.308574 7.65141 -4.46702 255 0 0
0.280074 7.37922 -4.37904 255 0 0
0.26709 8.04332 -4.59271 255 0 0
0.226725 7.9665 -4.56757 255 0 0
0.188897 7.96562 -4.56697 255 0 0
0.141669 7.96568 -4.56667 255 0 0
0.0944352 7.96544 -4.56637 255 0 0
-0.0188435 7.94741 -4.56039 255 0 0
-0.0566092 7.95838 -4.56398 255 0 0
-0.0942152 7.94688 -4.56039 255 0 0
-0.169697 7.9512 -4.56218 255 0 0
-0.615774 7.19662 -4.32697 255 0 0
-0.636254 7.234 -4.33954 255 0 0
-0.721412 7.2204 -4.33775 255 0 0
-0.735127 7.18541 -4.32697 255 0 0
-0.764205 7.21599 -4.33775 255 0 0
-0.908046 7.18806 -4.33415 255 0 0
-1.02961 7.18857 -4.33954 255 0 0
-2.20593 7.19322 -4.42393 255 0 0
-2.24499 7.19864 -4.42932 255 0 0
-2.27561 7.20656 -4.4347 255 0 0
1.43573 7.24592 -4.65386 255 0 0
0.542069 7.7373 -5.53863 255 0 0
0.567382 7.2367 -4.40534 255 0 0
1.50181 7.92377 -4.67239 255 0 0
1.44201 7.81055 -4.63188 255 0 0
1.34276 7.57434 -4.549 255 0 0
1.31906 7.54465 -4.53795 255 0 0
1.19267 7.38836 -4.47993 255 0 0
1.10011 7.30998 -4.44954 255 0 0
1.08115 7.30157 -4.44586 255 0 0
0.94148 7.24523 -4.42099 255 0 0
0.896129 7.23137 -4.41455 255 0 0
0.543939 7.26915 -4.41547 255 0 0
0.482659 7.25955 -4.41086 255 0 0
0.452338 7.32833 -4.43297 255 0 0
0.396565 7.26476 -4.41086 255 0 0
0.346725 7.30626 -4.42376 255 0 0
0.326397 7.24044 -4.40166 255 0 0
0.260679 7.32653 -4.42928 255 0 0
0.211089 7.41709 -4.45875 255 0 0
1.40281 7.40144 -5.06548 255 0 0
0.934397 7.25807 -5.41243 255 0 0
-0.00921404 7.76425 -5.54227 255 0 0
0.880815 7.39502 -5.39767 255 0 0
0.738145 7.21484 -4.4703 255 0 0
1.66703 7.87334 -4.74122 255 0 0
1.63587 7.8176 -4.72045 255 0 0
1.56771 7.67321 -4.66759 255 0 0
1.47668 7.49927 -4.6034 255 0 0
1.45361 7.47555 -4.59396 255 0 0
1.40576 7.41701 -4.57131 255 0 0
1.30756 7.32518 -4.53449 255 0 0
1.27624 7.29976 -4.52411 255 0 0
1.09348 7.26583 -4.50271 255 0 0
1.03888 7.25333 -4.49579 255 0 0
0.895221 7.22404 -4.47943 255 0 0
0.799819 7.22501 -4.47597 255 0 0
0.77205 7.20852 -4.46936 255 0 0
0.608336 7.21027 -4.46464 255 0 0
-1.50461 7.27631 -4.88058 255 0 0
1.78781 7.63595 -4.74419 255 0 0
1.79215 7.73708 -4.779 255 0 0
1.65291 7.45696 -4.67264 255 0 0
1.62458 7.41227 -4.65523 255 0 0
1.49774 7.28665 -4.60302 255 0 0
1.40181 7.25506 -4.58561 255 0 0
1.63554 7.29666 -4.68653 255 0 0
1.55934 7.27951 -4.67465 255 0 0
1.52833 7.26074 -4.66574 255 0 0
1.48251 7.25618 -4.66079 255 0 0
0.191166 7.32785 -5.4182 255 0 0
-0.459081 7.73554 -5.53539 255 0 0
1.83233 7.54343 -4.86201 255 0 0
1.69901 7.29561 -4.76175 255 0 0
1.25813 7.29811 -5.30464 255 0 0
-1.39843 7.28391 -4.94656 255 0 0
1.73139 7.27821 -4.82909 255 0 0
1.70174 7.26833 -4.82287 255 0 0
-1.56 7.19923 -4.7856 255 0 0
-1.6056 7.24342 -4.80562 255 0 0
-1.65316 7.25426 -4.81355 255 0 0
-1.71392 7.24295 -4.81459 255 0 0
-0.760753 7.26586 -5.40665 255 0 0
1.9013 7.59159 -5.03403 255 0 0
1.86579 7.56385 -5.02028 255 0 0
1.84396 7.55235 -5.01393 255 0 0
1.69137 7.22396 -4.87635 255 0 0
1.34537 7.38514 -4.91022 255 0 0
1.29104 7.43639 -4.92609 255 0 0
1.18924 7.42293 -4.91445 255 0 0
1.14394 7.36377 -4.88905 255 0 0
1.07091 7.35267 -4.88058 255 0 0
1.03527 7.35226 -4.87847 255 0 0
-1.39636 7.18111 -4.83614 255 0 0
-1.4593 7.2744 -4.87635 255 0 0
-1.59583 7.24008 -4.87424 255 0 0
-1.61919 7.22371 -4.87 255 0 0
-1.7568 7.27012 -4.89963 255 0 0
-1.80381 7.27549 -4.90598 255 0 0
-2.04573 7.31581 -5.46572 255 0 0
0.486526 7.31772 -5.41985 255 0 0
1.95032 7.52191 -5.08708 255 0 0
1.79064 7.25921 -4.97034 255 0 0
1.41257 7.45295 -5.01358 255 0 0
1.25263 7.26623 -4.92927 255 0 0
0.995668 7.32235 -4.93575 255 0 0
0.98911 7.40559 -4.96818 255 0 0
-1.43506 7.28788 -4.95089 255 0 0
-1.89246 7.33453 -5.00925 255 0 0
-1.928 7.22394 -4.97034 255 0 0
-1.93663 7.18782 -4.95737 255 0 0
-0.639828 7.69241 -5.52162 255 0 0
1.48079 7.33644 -5.04562 255 0 0
1.4687 7.36653 -5.05666 255 0 0
0.894317 7.35975 -5.01693 255 0 0
0.849335 7.43059 -5.04341 255 0 0
-1.32194 7.2565 -5.00148 255 0 0
-1.95141 7.17493 -5.02576 255 0 0
1.4206 7.30577 -5.10096 255 0 0
0.845819 7.24749 -5.04016 255 0 0
-1.31839 7.23702 -5.06493 255 0 0
-0.208532 7.32737 -5.4182 255 0 0
-0.256998 7.73956 -5.53296 255 0 0
1.48245 7.25592 -5.15812 255 0 0
1.47271 7.29637 -5.17419 255 0 0
-1.25967 7.20496 -5.11907 255 0 0
-1.28803 7.26559 -5.14663 255 0 0
-1.15428 7.20487 -5.40253 255 0 0
-0.407827 7.31191 -5.4149 255 0 0
1.57412 7.26438 -5.24297 255 0 0
1.51059 7.30526 -5.25468 255 0 0
1.49848 7.37895 -5.28512 255 0 0
1.08413 7.83373 -5.52892 255 0 0
0.879885 7.69786 -5.45734 255 0 0
-1.91382 7.17081 -5.31179 255 0 0
2.39746 7.23252 -5.47625 255 0 0
2.26882 7.30553 -5.49002 255 0 0
2.23415 7.3162 -5.49002 255 0 0
2.19839 7.32331 -5.4884 255 0 0
2.14427 7.33194 -5.48516 255 0 0
2.0979 7.3675 -5.49488 255 0 0
1.94203 7.41745 -5.49812 255 0 0
1.88922 7.43108 -5.49812 255 0 0
1.79932 7.44606 -5.49488 255 0 0
1.59631 7.53939 -5.51594 255 0 0
1.56415 7.56428 -5.52405 255 0 0
1.52615 7.56117 -5.51918 255 0 0
1.49234 7.57875 -5.52405 255 0 0
1.45839 7.59623 -5.52891 255 0 0
0.833411 7.69528 -5.53134 255 0 0
0.787783 7.70009 -5.53134 255 0 0
0.69739 7.71949 -5.5362 255 0 0
0.642022 7.71894 -5.53377 255 0 0
0.515608 7.75513 -5.54592 255 0 0
0.404679 7.75104 -5.54106 255 0 0
0.38683 7.76262 -5.54592 255 0 0
0.349295 7.74838 -5.53863 255 0 0
0.0459879 7.75879 -5.53984 255 0 0
-0.0459942 7.75879 -5.53984 255 0 0
-0.357976 7.73733 -5.53377 255 0 0
-0.513121 7.71791 -5.52891 255 0 0
-0.658973 7.70149 -5.52648 255 0 0
-0.677698 7.70521 -5.52891 255 0 0
-0.712261 7.68069 -5.51918 255 0 0
-0.803439 7.67346 -5.51999 255 0 0
-0.857412 7.66226 -5.51756 255 0 0
-0.893537 7.65636 -5.51675 255 0 0
-1.00098 7.63229 -5.51189 255 0 0
-1.06428 7.62373 -5.51189 255 0 0
-1.15983 7.58463 -5.50055 255 0 0
-1.21376 7.57618 -5.50055 255 0 0
-1.40537 7.51228 -5.48678 255 0 0
-1.42223 7.40789 -5.44141 255 0 0
-1.94417 7.35447 -5.47058 255 0 0
-2.11006 7.27902 -5.45762 255 0 0
-2.2103 7.23807 -5.45275 255 0 0
-2.2596 7.21539 -5.44951 255 0 0
0.9066 7.24555 -5.405 255 0 0
0.849098 7.27565 -5.41573 255 0 0
0.694004 7.29564 -5.41738 255 0 0
0.649805 7.28906 -5.41243 255 0 0
0.625235 7.30719 -5.41985 255 0 0
0.487232 7.32833 -5.4248 255 0 0
0.443143 7.32049 -5.41985 255 0 0
0.399742 7.32298 -5.41985 255 0 0
0.347556 7.32387 -5.41903 255 0 0
4.19427e-06 7.33211 -5.41903 255 0 0
-0.0521657 7.33369 -5.41985 255 0 0
-0.10448 7.34376 -5.4248 255 0 0
-0.156407 7.32867 -5.4182 255 0 0
-0.260344 7.31687 -5.41408 255 0 0
-0.312608 7.32013 -5.41655 255 0 0
-0.442508 7.30989 -5.4149 255 0 0
-0.468157 7.30298 -5.41243 255 0 0
-0.657013 7.27242 -5.405 255 0 0
-0.803436 7.25771 -5.405 255 0 0
-0.828641 7.24954 -5.40253 255 0 0
-0.914297 7.23744 -5.4017 255 0 0
-0.957418 7.23365 -5.40253 255 0 0
-0.999793 7.22434 -5.40088 255 0 0
-1.08589 7.21549 -5.40253 255 0 0
