ply
format ascii 1.0
comment Created by Open3D
element vertex 1284
property double x
property double y
property double z
property uchar red
property uchar green
property uchar blue
end_header
10.0799 -4.08798 -4.81788 255 0 0
11.0296 -3.07013 -4.16626 255 0 0
13.6141 -4.17499 -3.96509 255 0 0
10.2968 -3.97828 -4.27929 255 0 0
10.3316 -2.82311 -4.49143 255 0 0
12.1187 -3.9376 -3.00817 255 0 0
11.8457 -4.48014 -3.64057 255 0 0
12.1425 -4.36343 -3.12884 255 0 0
12.3653 -2.84876 -3.96656 255 0 0
12.1074 -3.27751 -3.20251 255 0 0
10.4913 -4.37116 -4.34678 255 0 0
10.1117 -4.15683 -4.54317 255 0 0
10.1834 -4.4714 -4.68479 255 0 0
12.0407 -3.33621 -3.09312 255 0 0
12.3433 -4.17298 -3.90855 255 0 0
12.1546 -3.22851 -3.10026 255 0 0
11.4693 -4.33777 -4.00487 255 0 0
11.8607 -2.91079 -3.7889 255 0 0
11.2565 -2.70598 -4.7947 255 0 0
10.9849 -4.03589 -4.1137 255 0 0
12.2375 -4.33216 -3.02711 255 0 0
10.9417 -2.68524 -5.01881 255 0 0
10.0446 -2.79594 -4.98036 255 0 0
11.5526 -2.84967 -4.04714 255 0 0
11.9849 -2.67148 -4.21777 255 0 0
10.3883 -2.79894 -4.50271 255 0 0
10.2921 -3.57496 -4.24969 255 0 0
12.4743 -2.78058 -3.87206 255 0 0
12.6914 -2.98732 -3.5789 255 0 0
10.3365 -3.11632 -4.32292 255 0 0
12.0503 -3.43133 -3.09618 255 0 0
11.804 -4.9181 -3.9818 255 0 0
11.5927 -3.88863 -3.9992 255 0 0
10.0413 -4.38065 -4.93546 255 0 0
10.5338 -3.43646 -4.19202 255 0 0
11.9803 -3.36539 -3.19301 255 0 0
12.0178 -3.93634 -3.10638 255 0 0
12.0925 -4.50803 -3.34557 255 0 0
11.1104 -2.69874 -4.55968 255 0 0
10.0163 -3.09767 -4.5309 255 0 0
15.0512 -2.90817 -4.24546 255 0 0
12.6978 -2.92536 -3.68796 255 0 0
12.0308 -3.87752 -3.10587 255 0 0
10.3184 -3.35265 -4.24022 255 0 0
10.448 -3.14992 -4.25324 255 0 0
10.0327 -3.36535 -4.36908 255 0 0
11.6524 -2.9477 -3.96519 255 0 0
10.0574 -3.4401 -4.56593 255 0 0
12.6796 -3.0163 -3.46852 255 0 0
11.689 -4.77291 -4.17224 255 0 0
12.6555 -3.0423 -3.35711 255 0 0
11.8444 -2.99627 -3.58265 255 0 0
12.6813 -2.8899 -3.90516 255 0 0
12.16 -4.3372 -3.23771 255 0 0
10.2638 -3.2544 -4.31676 255 0 0
11.8254 -2.78348 -4.40338 255 0 0
12.6054 -2.93555 -3.89582 255 0 0
11.7976 -2.92497 -3.78041 255 0 0
11.7095 -2.81488 -4.07196 255 0 0
11.3168 -4.65223 -3.27574 255 0 0
12.0344 -2.77251 -4.44315 255 0 0
11.8004 -4.52707 -3.74417 255 0 0
12.1131 -3.24825 -3.0972 255 0 0
11.711 -2.87405 -3.86881 255 0 0
11.3241 -3.97864 -4.06501 255 0 0
15.5454 -3.29143 -4.19282 255 0 0
14.0855 -2.86042 -4.22751 255 0 0
10.7607 -2.85826 -4.39559 255 0 0
13.3877 -3.0509 -3.2013 255 0 0
12.9001 -3.03645 -3.15946 255 0 0
10.5062 -3.53804 -4.19316 255 0 0
11.9743 -2.78858 -4.32628 255 0 0
10.4174 -4.36941 -4.33258 255 0 0
12.387 -3.29025 -3.98629 255 0 0
11.4007 -3.52582 -4.0531 255 0 0
10.3647 -4.46336 -4.52642 255 0 0
11.3751 -4.67623 -3.59318 255 0 0
10.2838 -2.81005 -4.57349 255 0 0
11.7004 -2.7248 -4.48058 255 0 0
12.0244 -3.28567 -3.09056 255 0 0
12.9318 -3.04391 -3.05112 255 0 0
10.2871 -4.14364 -4.28995 255 0 0
15.5107 -3.18815 -4.18521 255 0 0
11.5622 -4.46715 -4.13252 255 0 0
12.0351 -3.62843 -3.09975 255 0 0
14.6674 -2.79796 -4.44137 255 0 0
12.2012 -3.45868 -3.85763 255 0 0
11.6794 -4.70449 -4.16628 255 0 0
12.181 -3.17378 -3.10128 255 0 0
12.4095 -2.73525 -4.62385 255 0 0
15.0851 -2.84058 -4.77248 255 0 0
10.4112 -3.00467 -4.33154 255 0 0
13.2649 -2.75934 -4.56359 255 0 0
10.942 -2.90642 -4.23975 255 0 0
10.9813 -3.77065 -4.09705 255 0 0
10.7468 -3.69012 -4.14993 255 0 0
10.9149 -4.18738 -4.21198 255 0 0
11.2055 -3.19078 -4.10433 255 0 0
10.7422 -4.47571 -4.30224 255 0 0
10.3829 -2.96984 -4.41769 255 0 0
11.5206 -2.79838 -4.34543 255 0 0
10.2348 -4.49398 -4.60022 255 0 0
11.658 -2.83174 -4.06402 255 0 0
10.0893 -3.2386 -4.37227 255 0 0
11.3297 -3.71095 -4.05111 255 0 0
11.3292 -2.83737 -4.2098 255 0 0
11.8796 -2.97523 -3.58641 255 0 0
12.5952 -4.59367 -4.07775 255 0 0
10.2919 -4.5482 -4.61747 255 0 0
10.0527 -4.30074 -4.63944 255 0 0
10.8993 -2.70226 -4.61216 255 0 0
11.3167 -3.38259 -3.93117 255 0 0
10.2324 -4.53638 -4.80058 255 0 0
14.7715 -2.85413 -4.84662 255 0 0
10.0831 -3.24979 -4.74446 255 0 0
10.3092 -2.88276 -4.49011 255 0 0
12.0347 -3.53511 -3.20251 255 0 0
11.003 -3.44574 -4.08248 255 0 0
10.0844 -2.97522 -4.81726 255 0 0
10.6593 -2.91266 -4.28166 255 0 0
10.2932 -2.86514 -4.67337 255 0 0
10.0245 -3.33617 -4.8309 255 0 0
13.4544 -2.99905 -3.32153 255 0 0
10.6148 -2.6986 -4.93471 255 0 0
12.0108 -3.00808 -3.39509 255 0 0
13.4498 -4.3701 -4.07149 255 0 0
10.4805 -3.93543 -4.21475 255 0 0
11.7864 -4.74756 -3.96925 255 0 0
11.4487 -2.80966 -4.23048 255 0 0
10.0625 -3.45518 -4.75621 255 0 0
11.8242 -4.9265 -3.8763 255 0 0
12.7979 -2.75729 -4.81682 255 0 0
11.09 -2.74953 -4.45841 255 0 0
10.9107 -4.23033 -4.21416 255 0 0
10.0786 -3.38074 -4.47286 255 0 0
12.1127 -4.25568 -3.12323 255 0 0
11.6524 -2.91831 -3.86164 255 0 0
10.9599 -4.29429 -4.22722 255 0 0
11.2372 -3.14225 -4.10746 255 0 0
11.9303 -4.5445 -3.76178 255 0 0
10.1627 -2.94601 -4.55426 255 0 0
12.555 -4.5453 -3.84262 255 0 0
12.0435 -3.03146 -3.29487 255 0 0
15.2373 -2.83185 -4.53396 255 0 0
11.4472 -2.86693 -4.13139 255 0 0
10.2858 -2.9949 -4.7753 255 0 0
11.5652 -4.56313 -3.82114 255 0 0
10.0846 -4.20172 -4.44583 255 0 0
11.9766 -2.99951 -3.49513 255 0 0
14.7256 -2.84526 -4.32436 255 0 0
11.5032 -4.57022 -4.12954 255 0 0
11.1521 -2.73687 -4.47072 255 0 0
10.0221 -3.41473 -4.37035 255 0 0
12.1023 -4.47903 -3.23715 255 0 0
11.9192 -4.47564 -3.75697 255 0 0
10.4541 -2.72382 -4.60784 255 0 0
10.1768 -4.04326 -4.35618 255 0 0
10.9517 -3.58714 -4.08144 255 0 0
12.5952 -2.74489 -4.66174 255 0 0
12.0579 -4.18833 -3.22374 255 0 0
10.1889 -4.09009 -4.36234 255 0 0
10.1786 -2.91142 -4.55563 255 0 0
15.0856 -2.80366 -4.90322 255 0 0
10.012 -3.53097 -4.37675 255 0 0
12.1697 -2.77332 -4.46929 255 0 0
11.845 -2.52262 -3.87688 255 0 0
14.3347 -2.94643 -4.14362 255 0 0
10.1956 -4.13491 -4.36726 255 0 0
10.9619 -3.99799 -4.10746 255 0 0
11.9343 -4.52981 -3.54581 255 0 0
13.5571 -4.1575 -3.83689 255 0 0
10.539 -3.38295 -4.18975 255 0 0
13.3921 -2.98515 -3.43058 255 0 0
11.4602 -3.36635 -3.9529 255 0 0
10.1824 -3.60464 -4.51266 255 0 0
11.1226 -2.7017 -4.66257 255 0 0
10.3794 -3.75767 -4.27929 255 0 0
12.1859 -4.08763 -3.01695 255 0 0
12.5727 -2.92794 -4.00063 255 0 0
10.0597 -2.8774 -5.08513 255 0 0
13.506 -2.94338 -3.67393 255 0 0
12.2974 -2.74115 -4.7109 255 0 0
14.0344 -2.7808 -4.9542 255 0 0
11.7645 -4.78746 -4.07667 255 0 0
11.8171 -2.45817 -3.87061 255 0 0
11.7112 -2.7566 -4.17302 255 0 0
12.6724 -3.04635 -3.46852 255 0 0
12.5347 -4.53796 -3.95268 255 0 0
11.3844 -4.58565 -4.21673 255 0 0
11.3526 -2.95793 -4.1189 255 0 0
12.1483 -3.88365 -3.0091 255 0 0
12.3322 -4.4316 -3.03681 255 0 0
10.7942 -3.43667 -4.1434 255 0 0
10.8639 -2.85813 -4.31955 255 0 0
12.7469 -3.06427 -3.03727 255 0 0
13.3458 -3.04134 -3.08299 255 0 0
10.5425 -3.08324 -4.26805 255 0 0
10.3918 -4.22884 -4.31659 255 0 0
13.5238 -3.04819 -3.09684 255 0 0
10.9492 -3.55761 -4.07936 255 0 0
12.7246 -2.89976 -3.801 255 0 0
11.172 -3.22422 -4.10017 255 0 0
13.8437 -2.81131 -4.43036 255 0 0
14.9356 -2.95936 -4.10116 255 0 0
9.96569 -4.08302 -4.69469 255 0 0
10.0212 -3.15133 -4.44368 255 0 0
13.2562 -2.79033 -4.44673 255 0 0
14.9255 -2.8472 -4.35485 255 0 0
10.5379 -3.4793 -4.19543 255 0 0
13.1626 -2.77064 -4.54508 255 0 0
12.4228 -4.26562 -4.14753 255 0 0
12.6907 -2.73421 -4.90634 255 0 0
12.6067 -2.90435 -3.89497 255 0 0
10.2659 -4.58039 -4.71364 255 0 0
12.2724 -3.18206 -4.07289 255 0 0
10.5113 -4.03251 -4.22725 255 0 0
11.6592 -2.89067 -3.86164 255 0 0
11.5279 -4.70711 -4.24899 255 0 0
10.2372 -4.12354 -4.66418 255 0 0
13.9134 -2.79113 -5.0533 255 0 0
12.8223 -3.05024 -3.04281 255 0 0
12.7032 -3.11754 -3.36379 255 0 0
10.427 -4.28648 -4.32784 255 0 0
14.1136 -2.79649 -4.59868 255 0 0
12.1927 -4.4305 -3.13496 255 0 0
12.0278 -3.8294 -3.10434 255 0 0
11.3794 -2.707 -4.72094 255 0 0
10.9825 -2.77822 -4.43747 255 0 0
12.1678 -3.20116 -3.10077 255 0 0
10.9148 -2.78867 -4.42392 255 0 0
13.4796 -4.23887 -4.06979 255 0 0
13.3158 -3.06773 -3.08114 255 0 0
10.9723 -3.79667 -4.09705 255 0 0
10.8516 -2.8274 -4.41283 255 0 0
12.6679 -3.07706 -3.68871 255 0 0
12.8717 -2.74128 -4.71739 255 0 0
10.998 -4.10002 -4.11995 255 0 0
13.7384 -2.78993 -5.01635 255 0 0
11.9438 -2.72184 -4.63577 255 0 0
10.2405 -2.79823 -4.84453 255 0 0
10.7276 -3.79763 -4.1532 255 0 0
14.0108 -2.81068 -4.58098 255 0 0
10.7077 -3.81919 -4.15102 255 0 0
11.1111 -2.92317 -4.17388 255 0 0
10.0545 -3.07032 -4.53777 255 0 0
10.353 -3.08118 -4.32415 255 0 0
12.1714 -4.47182 -3.13445 255 0 0
10.0948 -4.31878 -4.74728 255 0 0
12.4284 -3.30125 -3.77458 255 0 0
9.99007 -3.53656 -4.93423 255 0 0
10.5076 -2.8846 -4.43943 255 0 0
10.2713 -3.99645 -4.27574 255 0 0
11.7979 -2.62981 -3.8733 255 0 0
11.4303 -2.80515 -4.32838 255 0 0
10.9226 -3.15227 -4.15102 255 0 0
11.7928 -2.59934 -3.8715 255 0 0
14.9938 -2.93397 -4.10837 255 0 0
10.8437 -3.29729 -4.14449 255 0 0
10.4193 -4.16822 -4.31718 255 0 0
10.1813 -3.89208 -4.6312 255 0 0
11.9847 -2.73116 -5.07559 255 0 0
11.3384 -3.68408 -4.05111 255 0 0
12.0395 -3.49007 -3.09669 255 0 0
12.8109 -3.01545 -3.26174 255 0 0
12.768 -3.03733 -3.14823 255 0 0
10.7049 -2.89787 -4.28995 255 0 0
10.0751 -3.27358 -4.37163 255 0 0
10.1014 -3.48193 -4.48546 255 0 0
11.4703 -3.81733 -3.97652 255 0 0
11.8284 -2.93261 -3.68173 255 0 0
12.6984 -2.95722 -3.5789 255 0 0
10.1132 -3.15392 -4.37163 255 0 0
11.2943 -2.82862 -4.30338 255 0 0
10.0879 -4.28756 -4.54981 255 0 0
14.0107 -2.87983 -4.21675 255 0 0
12.6823 -3.08054 -3.36075 255 0 0
11.7416 -2.85206 -3.97558 255 0 0
12.0971 -4.42827 -3.45147 255 0 0
10.9206 -2.84537 -4.33021 255 0 0
10.0576 -4.16251 -4.43687 255 0 0
10.2367 -2.98061 -4.66769 255 0 0
12.0151 -2.73808 -4.54452 255 0 0
10.2899 -3.51961 -4.24555 255 0 0
12.0806 -3.08651 -3.30003 255 0 0
10.0569 -4.1343 -4.43431 255 0 0
11.4482 -4.36084 -4.00298 255 0 0
13.4621 -4.05863 -4.17909 255 0 0
10.7054 -3.7043 -4.1434 255 0 0
12.3772 -4.21718 -3.91534 255 0 0
10.0301 -3.44405 -4.37419 255 0 0
10.4862 -2.9994 -4.25206 255 0 0
13.2439 -4.54756 -4.05112 255 0 0
13.389 -3.2186 -4.25146 255 0 0
9.97433 -3.7184 -4.75768 255 0 0
12.4475 -2.74364 -4.96505 255 0 0
13.6556 -2.77312 -4.63652 255 0 0
10.2428 -3.02194 -4.39082 255 0 0
12.0055 -4.50806 -3.44492 255 0 0
11.8029 -2.58687 -3.97558 255 0 0
15.2288 -2.90505 -4.27091 255 0 0
10.8294 -2.87652 -4.31363 255 0 0
13.0055 -2.73756 -4.97542 255 0 0
12.1058 -4.35025 -3.23324 255 0 0
10.5521 -2.69598 -5.01547 255 0 0
13.0651 -2.97736 -3.50982 255 0 0
11.379 -2.82118 -4.31929 255 0 0
12.1941 -4.15478 -3.01926 255 0 0
11.6733 -2.79153 -4.16782 255 0 0
10.1524 -4.3862 -4.76718 255 0 0
10.2296 -4.46279 -4.8913 255 0 0
13.4011 -4.1793 -4.05621 255 0 0
10.9587 -3.83567 -4.09705 255 0 0
10.6115 -4.18683 -4.25679 255 0 0
11.1801 -4.53419 -4.28274 255 0 0
11.463 -2.69819 -4.63643 255 0 0
11.2074 -4.39129 -4.17406 255 0 0
11.0801 -3.31188 -4.08872 255 0 0
11.2017 -4.35843 -4.17094 255 0 0
14.9693 -2.81878 -4.4905 255 0 0
11.3699 -4.05539 -3.97369 255 0 0
13.5815 -2.89244 -3.91626 255 0 0
10.2002 -3.39465 -4.31307 255 0 0
14.873 -2.83717 -4.99542 255 0 0
12.4821 -4.15407 -3.81541 255 0 0
10.6427 -3.26376 -4.20225 255 0 0
11.6787 -2.86612 -3.96613 255 0 0
13.3658 -2.92944 -3.88825 255 0 0
12.0267 -4.45108 -3.44492 255 0 0
10.3749 -3.04756 -4.32662 255 0 0
10.5188 -2.74069 -4.52858 255 0 0
11.8998 -2.7118 -4.73237 255 0 0
12.1117 -2.72991 -4.8881 255 0 0
13.5989 -2.7952 -4.74656 255 0 0
13.1658 -3.03317 -3.29527 255 0 0
10.1479 -3.97616 -4.34509 255 0 0
12.7219 -3.02636 -4.02664 255 0 0
11.1692 -3.79082 -4.02927 255 0 0
13.3047 -2.76761 -4.92398 255 0 0
12.0493 -3.91505 -3.10843 255 0 0
10.1244 -3.00007 -4.64211 255 0 0
12.7413 -3.03097 -3.25559 255 0 0
10.2069 -4.16772 -4.37219 255 0 0
10.5411 -2.82671 -4.44327 255 0 0
13.4552 -4.16121 -4.063 255 0 0
10.5205 -2.95531 -4.35125 255 0 0
10.3029 -2.72358 -4.95063 255 0 0
13.3687 -2.97993 -3.54325 255 0 0
12.4276 -4.10324 -3.91704 255 0 0
11.85 -2.78928 -4.30342 255 0 0
11.0446 -2.87768 -4.25793 255 0 0
10.6273 -2.76895 -4.45862 255 0 0
13.4711 -4.34175 -4.07319 255 0 0
10.2161 -3.75345 -4.24732 255 0 0
10.0387 -4.47904 -5.0436 255 0 0
11.2399 -2.70198 -4.6891 255 0 0
10.4697 -3.83253 -4.20565 255 0 0
12.2616 -3.35048 -3.64659 255 0 0
11.8157 -4.8901 -3.9818 255 0 0
12.0269 -3.10318 -3.60898 255 0 0
14.5019 -2.80203 -4.41491 255 0 0
10.4969 -3.49339 -4.18861 255 0 0
13.5361 -2.94996 -3.56096 255 0 0
11.8128 -4.43571 -3.63455 255 0 0
11.2825 -3.72514 -4.04416 255 0 0
12.1735 -4.05135 -3.0151 255 0 0
10.7483 -2.88228 -4.39436 255 0 0
10.263 -4.1481 -4.57501 255 0 0
10.4914 -2.974 -4.34632 255 0 0
12.1122 -2.73002 -4.67148 255 0 0
10.1713 -3.53301 -4.31676 255 0 0
12.6362 -3.06935 -3.24665 255 0 0
13.7884 -2.83414 -4.30154 255 0 0
10.0217 -2.81518 -4.97553 255 0 0
12.6513 -2.94624 -3.68269 255 0 0
10.3042 -4.3219 -4.40421 255 0 0
10.0355 -4.0285 -4.89758 255 0 0
13.0573 -2.74845 -4.87101 255 0 0
12.7343 -4.4741 -3.63451 255 0 0
12.1473 -4.33267 -3.12833 255 0 0
11.6999 -4.48852 -3.83557 255 0 0
12.1995 -4.23753 -3.0218 255 0 0
12.3367 -3.05863 -3.112 255 0 0
12.6037 -4.49546 -3.84662 255 0 0
11.7667 -4.78835 -3.9688 255 0 0
12.4301 -2.7398 -4.29895 255 0 0
12.3582 -2.75469 -4.61438 255 0 0
10.446 -3.17636 -4.25443 255 0 0
13.9443 -2.79734 -4.8136 255 0 0
12.0122 -3.68375 -3.09924 255 0 0
12.5243 -4.43371 -3.72105 255 0 0
12.0325 -3.59655 -3.09873 255 0 0
12.8369 -2.73387 -4.93832 255 0 0
11.7572 -4.54249 -3.73936 255 0 0
11.9033 -4.99261 -3.89073 255 0 0
10.7284 -2.87694 -4.2935 255 0 0
11.2681 -3.92898 -4.0531 255 0 0
10.0184 -4.42733 -5.03266 255 0 0
10.1602 -4.03666 -4.54317 255 0 0
10.4513 -2.98943 -4.33893 255 0 0
10.9777 -2.69408 -4.62941 255 0 0
11.5684 -2.72299 -4.8689 255 0 0
10.1452 -3.05865 -4.4649 255 0 0
10.1002 -3.17617 -4.37035 255 0 0
9.99974 -3.9318 -4.40553 255 0 0
10.7358 -3.07079 -4.20906 255 0 0
13.4384 -3.2642 -4.14322 255 0 0
10.64 -4.28581 -4.26929 255 0 0
12.2312 -4.29733 -3.02572 255 0 0
13.4325 -2.96075 -3.54981 255 0 0
10.1748 -3.57481 -4.50868 255 0 0
10.6574 -4.55945 -4.49412 255 0 0
10.8867 -3.25407 -4.14993 255 0 0
13.5105 -4.0383 -4.18536 255 0 0
10.1861 -3.03149 -4.4722 255 0 0
10.821 -2.71008 -4.59491 255 0 0
14.3874 -2.81532 -4.39696 255 0 0
11.6896 -4.74084 -4.17025 255 0 0
15.1844 -3.04611 -4.13718 255 0 0
11.5649 -4.57889 -4.03369 255 0 0
13.5258 -3.04864 -3.21304 255 0 0
13.3258 -4.22525 -4.16653 255 0 0
12.3771 -4.18442 -3.69247 255 0 0
11.4913 -2.70484 -4.74615 255 0 0
10.6061 -2.92518 -4.36726 255 0 0
10.1641 -3.707 -4.32785 255 0 0
10.1147 -2.93209 -4.8218 255 0 0
12.13 -4.29412 -3.12578 255 0 0
12.2492 -4.36901 -3.02895 255 0 0
12.3641 -4.14739 -3.91025 255 0 0
10.9668 -3.88231 -4.10121 255 0 0
10.4119 -2.95144 -4.4228 255 0 0
12.3736 -3.06777 -3.00863 255 0 0
10.2359 -3.28563 -4.31307 255 0 0
11.9114 -4.15325 -4.0625 255 0 0
10.7174 -3.65164 -4.14231 255 0 0
11.7846 -2.50976 -4.07296 255 0 0
10.5915 -4.1355 -4.2494 255 0 0
10.6207 -4.51402 -4.48304 255 0 0
11.4069 -2.88558 -4.12515 255 0 0
11.217 -2.69647 -4.88656 255 0 0
10.7217 -3.98254 -4.16408 255 0 0
12.0631 -2.9908 -3.40034 255 0 0
11.8541 -4.53155 -3.64395 255 0 0
12.299 -3.42347 -3.76178 255 0 0
10.2616 -3.41509 -4.23312 255 0 0
10.0167 -2.98107 -4.89361 255 0 0
10.0359 -3.3929 -4.74446 255 0 0
14.8065 -2.82449 -4.85206 255 0 0
11.243 -2.84412 -4.29429 255 0 0
12.8005 -2.75786 -5.04597 255 0 0
11.1416 -3.28711 -4.09809 255 0 0
11.8428 -2.52216 -3.77362 255 0 0
12.1767 -2.74456 -5.01317 255 0 0
13.8573 -2.81408 -4.55393 255 0 0
12.2424 -3.03526 -3.20921 255 0 0
11.3023 -3.59841 -4.04069 255 0 0
12.0037 -2.73548 -4.97195 255 0 0
14.5303 -2.91488 -4.17078 255 0 0
10.7194 -2.90177 -4.38943 255 0 0
12.2068 -4.45202 -3.02803 255 0 0
12.2777 -4.44493 -3.03311 255 0 0
12.1731 -4.17989 -3.01833 255 0 0
12.143 -4.10529 -3.01418 255 0 0
12.1101 -3.98249 -3.00863 255 0 0
12.1464 -3.8513 -3.00817 255 0 0
12.4998 -3.06764 -3.01833 255 0 0
12.6886 -3.08208 -3.03311 255 0 0
13.172 -3.06752 -3.07006 255 0 0
11.6983 -4.84152 -4.17819 255 0 0
11.7811 -4.55173 -3.63606 255 0 0
12.2276 -3.06236 -3.10281 255 0 0
11.3146 -3.03413 -4.11578 255 0 0
14.2617 -2.82584 -4.37712 255 0 0
12.0467 -3.32249 -3.19804 255 0 0
13.9378 -2.79602 -4.93526 255 0 0
11.3396 -4.09009 -4.07395 255 0 0
13.4275 -4.0135 -4.05282 255 0 0
12.1903 -3.11453 -3.10077 255 0 0
11.8482 -4.83789 -3.87461 255 0 0
10.0178 -3.47971 -4.37419 255 0 0
12.7062 -2.76908 -4.5727 255 0 0
10.6097 -4.56886 -4.4855 255 0 0
11.4808 -4.68789 -3.08495 255 0 0
12.1282 -4.22887 -3.12374 255 0 0
12.1217 -4.19438 -3.1222 255 0 0
12.0896 -4.13521 -3.11787 255 0 0
12.0739 -4.0819 -3.11506 255 0 0
12.0669 -4.0477 -3.11353 255 0 0
12.0377 -4.00618 -3.10996 255 0 0
11.9973 -3.96117 -3.10536 255 0 0
12.0414 -3.7866 -3.10434 255 0 0
12.6482 -3.07227 -3.46655 255 0 0
12.0547 -3.74375 -3.10434 255 0 0
12.0488 -3.66375 -3.10179 255 0 0
12.0242 -3.56303 -3.0972 255 0 0
12.0662 -3.54438 -3.10026 255 0 0
12.0288 -3.379 -3.09312 255 0 0
12.0716 -3.26782 -3.09414 255 0 0
12.1716 -3.14051 -3.09975 255 0 0
12.192 -3.08419 -3.10026 255 0 0
10.4518 -2.93602 -4.43048 255 0 0
12.5195 -3.07247 -3.12782 255 0 0
12.5948 -3.05929 -3.13394 255 0 0
12.6871 -3.04987 -3.1416 255 0 0
13.1288 -3.05746 -3.17936 255 0 0
13.227 -3.04727 -3.18753 255 0 0
11.3466 -4.13831 -4.07792 255 0 0
15.0208 -2.82847 -5.02383 255 0 0
10.387 -2.73267 -4.59273 255 0 0
10.0586 -4.10715 -4.91122 255 0 0
11.8102 -2.95783 -3.68013 255 0 0
10.725 -3.94041 -4.1619 255 0 0
10.0072 -3.82555 -4.3985 255 0 0
10.0191 -3.15067 -4.81423 255 0 0
10.212 -3.33146 -4.31122 255 0 0
11.3895 -4.61912 -4.21985 255 0 0
12.8419 -2.76677 -4.59883 255 0 0
12.2173 -2.75372 -4.58596 255 0 0
11.2723 -2.70978 -4.59549 255 0 0
10.0392 -3.32785 -4.3678 255 0 0
12.3233 -3.30462 -3.97732 255 0 0
10.7667 -4.04289 -4.17606 255 0 0
10.4893 -3.58782 -4.19316 255 0 0
11.4108 -4.23853 -3.99022 255 0 0
10.0806 -3.18314 -4.73859 255 0 0
11.2443 -2.84447 -4.19456 255 0 0
10.5011 -3.03061 -4.2568 255 0 0
13.4498 -2.89775 -3.89865 255 0 0
11.3963 -4.68491 -3.18127 255 0 0
12.0588 -4.49549 -3.2338 255 0 0
12.1785 -4.47444 -3.24386 255 0 0
12.1179 -4.41959 -3.23659 255 0 0
12.1612 -4.40275 -3.23995 255 0 0
12.1153 -4.28891 -3.23212 255 0 0
12.021 -4.22346 -3.22151 255 0 0
12.1003 -4.15489 -3.22653 255 0 0
11.9943 -4.08671 -3.2148 255 0 0
12.1461 -4.07427 -3.22821 255 0 0
11.9788 -3.98657 -3.21033 255 0 0
11.976 -3.54873 -3.19748 255 0 0
12.0289 -3.47154 -3.20027 255 0 0
12.0763 -3.45423 -3.20418 255 0 0
11.9667 -3.3922 -3.19245 255 0 0
12.0107 -3.34323 -3.19524 255 0 0
12.049 -3.29238 -3.19748 255 0 0
12.0992 -3.22918 -3.20055 255 0 0
12.1511 -3.18135 -3.20418 255 0 0
12.1736 -3.14103 -3.2053 255 0 0
12.148 -3.08839 -3.20167 255 0 0
12.156 -3.04445 -3.20139 255 0 0
12.493 -3.06596 -3.23324 255 0 0
12.6661 -3.04483 -3.24889 255 0 0
12.9429 -3.01415 -3.27403 255 0 0
13.2753 -3.02526 -3.30532 255 0 0
13.3961 -3.01941 -3.3165 255 0 0
12.6142 -2.74903 -4.44276 255 0 0
11.487 -4.46945 -4.12061 255 0 0
10.2294 -4.23359 -4.38204 255 0 0
11.3214 -4.03811 -4.06799 255 0 0
11.6286 -2.97103 -3.96235 255 0 0
10.0101 -3.78589 -4.39594 255 0 0
10.1177 -3.50097 -4.58448 255 0 0
11.6017 -2.78896 -4.2577 255 0 0
10.1571 -3.58215 -4.31738 255 0 0
13.5022 -4.10569 -4.18716 255 0 0
11.3817 -3.594 -3.95149 255 0 0
10.1491 -3.64709 -4.50868 255 0 0
12.2975 -3.42305 -3.54581 255 0 0
10.8475 -2.6894 -4.99457 255 0 0
10.2046 -3.05017 -4.38443 255 0 0
10.0113 -3.58419 -4.38059 255 0 0
13.4703 -3.99153 -4.05791 255 0 0
12.1927 -3.02292 -3.30975 255 0 0
12.742 -3.03115 -3.36561 255 0 0
12.7379 -2.99826 -3.3644 255 0 0
13.3509 -3.00921 -3.42694 255 0 0
12.6089 -2.99948 -3.67893 255 0 0
12.974 -4.14759 -4.11093 255 0 0
11.2539 -2.70534 -4.9985 255 0 0
14.8851 -2.9127 -4.22169 255 0 0
10.9805 -3.68328 -4.09185 255 0 0
10.172 -3.88856 -4.53322 255 0 0
12.55 -4.4763 -3.5013 255 0 0
10.7463 -3.4917 -4.13796 255 0 0
11.3107 -3.98897 -3.96094 255 0 0
12.2596 -3.44384 -3.86527 255 0 0
12.4042 -2.7341 -4.84366 255 0 0
12.9425 -2.94944 -3.71955 255 0 0
11.9551 -2.72441 -4.85228 255 0 0
14.4325 -2.93088 -4.1572 255 0 0
10.2942 -3.48024 -4.24377 255 0 0
13.0097 -2.77068 -4.51678 255 0 0
9.999 -4.16604 -4.71033 255 0 0
10.4076 -3.29997 -4.25443 255 0 0
11.4199 -4.66301 -3.38985 255 0 0
11.973 -4.52828 -3.44229 255 0 0
12.0271 -4.48365 -3.44623 255 0 0
12.5276 -4.43488 -3.49736 255 0 0
11.9867 -3.03227 -3.39312 255 0 0
12.2284 -3.00102 -3.41869 255 0 0
12.6981 -2.98889 -3.46983 255 0 0
12.7561 -2.97066 -3.47573 255 0 0
12.9389 -2.9809 -3.49605 255 0 0
13.214 -2.97836 -3.52621 255 0 0
11.1851 -4.32148 -4.16574 255 0 0
14.2936 -2.97333 -4.13853 255 0 0
13.2712 -4.06984 -4.15129 255 0 0
10.23 -3.37764 -4.318 255 0 0
9.99429 -4.21982 -4.61883 255 0 0
12.4897 -2.75293 -4.4199 255 0 0
11.0894 -4.46683 -4.26205 255 0 0
10.3377 -3.68721 -4.26627 255 0 0
11.611 -2.79119 -4.36247 255 0 0
10.4706 -3.76263 -4.20111 255 0 0
12.3061 -3.36266 -3.86867 255 0 0
11.3819 -4.64749 -3.4888 255 0 0
11.983 -4.49959 -3.55004 255 0 0
11.8901 -4.43259 -3.53666 255 0 0
12.6199 -4.50124 -3.62254 255 0 0
12.5073 -3.44952 -3.57116 255 0 0
12.1857 -3.14417 -3.52399 255 0 0
11.9356 -3.01935 -3.49091 255 0 0
11.9893 -2.97251 -3.49584 255 0 0
12.1488 -2.98148 -3.51484 255 0 0
12.7263 -3.09124 -3.58594 255 0 0
12.6863 -3.0338 -3.5796 255 0 0
12.7791 -2.94407 -3.58805 255 0 0
13.3741 -2.94787 -3.65844 255 0 0
11.0658 -2.9815 -4.16844 255 0 0
10.4903 -3.10849 -4.25917 255 0 0
10.3248 -2.84759 -4.49143 255 0 0
11.6642 -2.98012 -3.76344 255 0 0
15.378 -2.89573 -4.29213 255 0 0
11.7474 -4.82928 -4.07667 255 0 0
10.5067 -3.98797 -4.22327 255 0 0
10.2925 -3.14302 -4.31553 255 0 0
15.5599 -3.23673 -4.19322 255 0 0
11.8587 -2.70244 -3.88495 255 0 0
12.5906 -4.52447 -3.73309 255 0 0
12.5136 -4.19754 -3.70977 255 0 0
12.3638 -4.11468 -3.68796 255 0 0
12.2795 -3.48087 -3.65336 255 0 0
13.8082 -2.8041 -4.78747 255 0 0
12.2989 -3.45489 -3.65486 255 0 0
12.3574 -3.43973 -3.66163 255 0 0
12.36 -3.40888 -3.66088 255 0 0
12.3536 -3.34416 -3.65787 255 0 0
12.4063 -3.32689 -3.66389 255 0 0
11.871 -3.03297 -3.58716 255 0 0
11.9318 -2.95823 -3.59243 255 0 0
12.2658 -3.01021 -3.63606 255 0 0
12.6469 -3.04023 -3.68495 255 0 0
12.6499 -2.97756 -3.68344 255 0 0
13.0345 -2.93789 -3.73083 255 0 0
13.1774 -2.9373 -3.74889 255 0 0
13.3601 -2.9448 -3.7722 255 0 0
13.4181 -2.92424 -3.77897 255 0 0
15.5821 -3.35716 -4.06481 255 0 0
15.556 -3.31295 -4.0603 255 0 0
15.5695 -3.27725 -4.06105 255 0 0
15.5715 -3.23914 -4.0603 255 0 0
15.5602 -3.17909 -4.05729 255 0 0
15.5942 -3.1283 -4.0603 255 0 0
15.5275 -3.07665 -4.05052 255 0 0
11.1861 -2.85797 -4.28406 255 0 0
15.4435 -3.02198 -4.03849 255 0 0
15.4678 -2.98866 -4.04074 255 0 0
10.4682 -2.75402 -4.51797 255 0 0
10.4863 -2.91889 -4.43687 255 0 0
11.3857 -3.37381 -3.94157 255 0 0
11.7124 -2.72759 -4.06898 255 0 0
10.3677 -4.3775 -4.42146 255 0 0
10.1757 -4.01492 -4.35371 255 0 0
10.0155 -3.99292 -4.41385 255 0 0
11.7345 -2.73275 -4.17614 255 0 0
13.4552 -3.26829 -4.02821 255 0 0
12.2999 -3.37663 -3.76018 255 0 0
10.0905 -3.34486 -4.47286 255 0 0
10.0683 -3.00942 -4.62932 255 0 0
12.6749 -4.55475 -3.85863 255 0 0
12.4832 -4.18734 -3.81701 255 0 0
12.4534 -4.11173 -3.8098 255 0 0
13.5155 -4.17984 -3.95228 255 0 0
13.5726 -4.09197 -3.95628 255 0 0
13.5045 -4.03652 -3.94508 255 0 0
12.3062 -3.33135 -3.75937 255 0 0
12.5718 -3.37127 -3.7962 255 0 0
11.8481 -2.9972 -3.68653 255 0 0
12.0269 -2.95156 -3.70895 255 0 0
12.7119 -3.05583 -3.8042 255 0 0
12.6739 -3.01494 -3.7978 255 0 0
12.6584 -2.97957 -3.79459 255 0 0
12.6548 -2.93127 -3.79259 255 0 0
13.0143 -2.93335 -3.84102 255 0 0
15.1431 -2.92592 -4.12838 255 0 0
15.3266 -2.9237 -4.15319 255 0 0
15.5444 -2.92707 -4.18281 255 0 0
10.302 -4.58186 -4.62277 255 0 0
10.1866 -3.9774 -4.54384 255 0 0
11.3515 -2.70035 -4.81669 255 0 0
10.6984 -2.67939 -4.95516 255 0 0
11.835 -4.96398 -3.98898 255 0 0
11.2073 -2.73636 -4.88656 255 0 0
10.0733 -3.93314 -4.89758 255 0 0
14.6906 -2.91083 -4.19369 255 0 0
14.9508 -2.88877 -5.01246 255 0 0
11.0517 -3.34625 -4.0856 255 0 0
11.2518 -3.13198 -4.00942 255 0 0
10.1857 -4.01884 -4.54715 255 0 0
10.9564 -3.64632 -4.0856 255 0 0
10.277 -3.23177 -4.318 255 0 0
10.193 -4.47563 -4.88396 255 0 0
13.5448 -2.81756 -4.49877 255 0 0
14.1473 -2.83805 -4.35917 255 0 0
11.1071 -2.80975 -4.86666 255 0 0
10.8158 -2.95541 -4.21815 255 0 0
10.2628 -3.20058 -4.31307 255 0 0
11.5093 -4.7633 -3.82454 255 0 0
11.7992 -4.85055 -3.86867 255 0 0
11.72 -4.75317 -3.85254 255 0 0
11.6515 -4.56529 -3.83302 255 0 0
11.7109 -4.55655 -3.84066 255 0 0
11.6568 -4.50372 -3.83048 255 0 0
11.7322 -4.46901 -3.83897 255 0 0
12.5674 -4.61733 -3.96117 255 0 0
12.5293 -4.56965 -3.95353 255 0 0
12.6925 -4.52713 -3.9739 255 0 0
13.2276 -4.57705 -4.05027 255 0 0
12.4179 -4.1327 -3.91704 255 0 0
13.4814 -4.3098 -4.07319 255 0 0
13.4474 -4.26381 -4.0664 255 0 0
13.4041 -4.11061 -4.05367 255 0 0
13.436 -4.08556 -4.05706 255 0 0
13.4068 -4.04198 -4.05112 255 0 0
12.2063 -3.39767 -3.85594 255 0 0
12.2758 -3.38566 -3.86527 255 0 0
12.3644 -3.34709 -3.8763 255 0 0
12.4059 -3.32677 -3.8814 255 0 0
12.4977 -3.31966 -3.89413 255 0 0
11.7106 -2.96241 -3.76938 255 0 0
11.7288 -2.93745 -3.77108 255 0 0
12.7701 -3.06982 -3.92383 255 0 0
12.6061 -2.98304 -3.89752 255 0 0
12.3377 -2.78085 -3.85254 255 0 0
11.9264 -2.62878 -3.7889 255 0 0
13.3025 -2.89904 -3.99426 255 0 0
11.7915 -2.54047 -3.76683 255 0 0
11.9281 -2.51078 -3.7855 255 0 0
12.3224 -3.5246 -3.98629 255 0 0
13.4997 -2.77479 -5.08543 255 0 0
11.356 -4.11123 -3.97464 255 0 0
10.89 -3.28319 -4.15211 255 0 0
10.1973 -3.07435 -4.38443 255 0 0
10.0547 -3.38603 -4.56113 255 0 0
12.0537 -2.77697 -4.34043 255 0 0
10.5123 -2.84572 -4.43815 255 0 0
10.1405 -3.67119 -4.32046 255 0 0
10.6821 -3.19291 -4.20565 255 0 0
10.2981 -2.98525 -4.40042 255 0 0
11.2757 -3.63418 -4.03821 255 0 0
12.3453 -2.75182 -4.50224 255 0 0
10.1804 -2.75587 -4.92017 255 0 0
10.1334 -4.19387 -4.55113 255 0 0
11.6827 -4.80267 -3.95759 255 0 0
11.6207 -4.55324 -3.93427 255 0 0
11.4751 -4.46483 -3.90827 255 0 0
12.5625 -4.61554 -4.07417 255 0 0
12.2993 -4.12563 -4.0105 255 0 0
12.4023 -4.12752 -4.02574 255 0 0
12.8815 -4.15171 -4.09748 255 0 0
13.334 -4.14104 -4.16384 255 0 0
13.3314 -3.95037 -4.15487 255 0 0
12.1748 -3.45119 -3.96118 255 0 0
12.066 -3.38945 -3.94235 255 0 0
11.9681 -3.33135 -3.92531 255 0 0
12.294 -3.23437 -3.97014 255 0 0
12.3297 -3.21251 -3.97463 255 0 0
11.6847 -2.95586 -3.86792 255 0 0
13.3954 -3.22016 -4.13515 255 0 0
12.5826 -2.96172 -4.00332 255 0 0
11.7578 -2.65014 -3.86792 255 0 0
11.8385 -2.57999 -3.87778 255 0 0
11.7994 -2.54217 -3.87061 255 0 0
11.8453 -2.49334 -3.87599 255 0 0
14.3589 -2.88051 -4.26966 255 0 0
14.4395 -2.86107 -4.28131 255 0 0
14.5655 -2.85016 -4.30015 255 0 0
15.1483 -2.85249 -4.38892 255 0 0
11.1846 -4.29082 -4.16366 255 0 0
10.2141 -4.42725 -4.88396 255 0 0
12.2081 -2.72123 -4.80017 255 0 0
11.1347 -2.90117 -4.17714 255 0 0
12.4508 -2.74437 -5.07775 255 0 0
11.3475 -2.77057 -4.41191 255 0 0
11.2229 -3.88338 -4.04317 255 0 0
10.4308 -3.22585 -4.25443 255 0 0
11.5138 -4.47987 -4.01999 255 0 0
11.8661 -5.01015 -4.10596 255 0 0
11.83 -4.96189 -4.09746 255 0 0
11.7937 -4.91382 -4.08896 255 0 0
11.752 -4.86375 -4.07951 255 0 0
11.7978 -4.73595 -4.07856 255 0 0
11.5892 -4.54089 -4.0351 255 0 0
11.4973 -4.42643 -4.01432 255 0 0
11.4471 -4.29838 -3.9992 255 0 0
11.4882 -4.22083 -4.00109 255 0 0
11.4493 -4.17576 -3.99259 255 0 0
11.3602 -4.08234 -3.97369 255 0 0
12.4618 -4.31207 -4.15604 255 0 0
11.6765 -3.94756 -4.01526 255 0 0
11.4948 -3.78012 -3.97841 255 0 0
11.3998 -3.68911 -3.95905 255 0 0
11.3661 -3.63358 -3.95102 255 0 0
11.3572 -3.52713 -3.9444 255 0 0
11.3697 -3.48672 -3.9444 255 0 0
11.3406 -3.43369 -3.93732 255 0 0
11.3682 -3.31009 -3.9359 255 0 0
11.6011 -2.89085 -3.95479 255 0 0
13.3572 -3.17749 -4.24485 255 0 0
12.6335 -2.97369 -4.12202 255 0 0
12.5898 -2.93193 -4.11352 255 0 0
12.5517 -2.89169 -4.10596 255 0 0
11.7697 -2.68217 -3.97369 255 0 0
11.7591 -2.65045 -3.97086 255 0 0
11.7823 -2.62633 -3.97369 255 0 0
11.8122 -2.53027 -3.97511 255 0 0
11.8382 -2.47719 -3.97747 255 0 0
14.0046 -2.84399 -4.33649 255 0 0
10.3876 -3.02455 -4.32785 255 0 0
10.3553 -2.84277 -4.7819 255 0 0
10.0855 -3.78709 -4.50603 255 0 0
10.3778 -2.70394 -4.68332 255 0 0
11.2945 -3.53703 -4.03622 255 0 0
10.2576 -2.69861 -5.03186 255 0 0
10.4884 -3.64316 -4.19656 255 0 0
10.3599 -2.73864 -4.77603 255 0 0
11.0317 -3.4117 -4.0856 255 0 0
10.0918 -4.20473 -4.54317 255 0 0
10.1011 -3.54895 -4.86878 255 0 0
10.9684 -3.73716 -4.09289 255 0 0
11.7858 -4.97624 -4.20103 255 0 0
11.771 -4.93712 -4.19606 255 0 0
11.724 -4.88478 -4.18514 255 0 0
11.635 -4.78306 -4.16429 255 0 0
11.5513 -4.62105 -4.14047 255 0 0
11.5086 -4.54081 -4.12855 255 0 0
11.4979 -4.50509 -4.12458 255 0 0
12.4039 -4.55724 -4.2735 255 0 0
11.3527 -4.01895 -4.07196 255 0 0
11.1393 -3.8249 -4.02629 255 0 0
11.2756 -3.78227 -4.04615 255 0 0
11.3393 -3.77375 -4.05608 255 0 0
11.3153 -3.47002 -4.03622 255 0 0
11.3413 -3.43394 -4.0387 255 0 0
11.2678 -3.36796 -4.02332 255 0 0
11.2726 -3.31124 -4.02133 255 0 0
11.2028 -3.26192 -4.00743 255 0 0
11.266 -3.25135 -4.01736 255 0 0
11.2903 -3.22939 -4.02034 255 0 0
11.2868 -3.19946 -4.01835 255 0 0
11.3221 -3.1805 -4.02332 255 0 0
11.5355 -2.91812 -4.04714 255 0 0
11.7106 -2.78577 -4.07097 255 0 0
11.7452 -2.76461 -4.07593 255 0 0
11.7252 -2.67202 -4.06898 255 0 0
11.7346 -2.6303 -4.06898 255 0 0
11.7383 -2.58731 -4.06799 255 0 0
11.7669 -2.56439 -4.07196 255 0 0
11.819 -2.45855 -4.07693 255 0 0
11.8417 -2.43401 -4.07991 255 0 0
13.9805 -2.80459 -4.4532 255 0 0
14.2531 -2.82415 -4.49986 255 0 0
14.5836 -2.81783 -4.55545 255 0 0
14.835 -2.79349 -4.59715 255 0 0
15.0969 -2.80576 -4.64183 255 0 0
11.1054 -4.53459 -4.26967 255 0 0
10.0332 -3.18126 -4.82029 255 0 0
10.5878 -3.3433 -4.19656 255 0 0
10.08 -3.32813 -4.5625 255 0 0
10.0181 -4.06295 -4.42024 255 0 0
10.9792 -3.91605 -4.10538 255 0 0
10.064 -3.23045 -4.55151 255 0 0
14.8075 -2.78831 -4.85097 255 0 0
10.4741 -3.73587 -4.19997 255 0 0
10.0768 -3.22139 -4.46092 255 0 0
11.8605 -2.67328 -4.19592 255 0 0
11.0072 -3.49008 -4.0856 255 0 0
11.6279 -4.8124 -4.27293 255 0 0
11.6553 -4.79139 -4.27605 255 0 0
11.3364 -4.50395 -4.2032 255 0 0
11.2131 -4.42419 -4.17719 255 0 0
11.1409 -4.24378 -4.15325 255 0 0
11.0044 -4.13216 -4.12307 255 0 0
10.9822 -3.97591 -4.10954 255 0 0
10.9717 -3.7093 -4.09185 255 0 0
11.0029 -3.53184 -4.08716 255 0 0
11.0508 -3.38892 -4.08768 255 0 0
11.1864 -3.25714 -4.10433 255 0 0
11.2261 -3.09615 -4.10329 255 0 0
11.2389 -3.07104 -4.10433 255 0 0
11.2517 -3.04589 -4.10538 255 0 0
11.2919 -2.98502 -4.10954 255 0 0
11.3819 -2.93676 -4.12307 255 0 0
11.3386 -2.89693 -4.1137 255 0 0
11.5155 -2.85503 -4.14284 255 0 0
11.5782 -2.84145 -4.15325 255 0 0
11.6297 -2.82487 -4.16157 255 0 0
11.7582 -2.6942 -4.17875 255 0 0
12.6449 -2.75572 -4.33746 255 0 0
12.9105 -2.78155 -4.38533 255 0 0
13.1255 -2.79534 -4.42384 255 0 0
13.7152 -2.81908 -4.52895 255 0 0
14.3294 -2.80396 -4.63718 255 0 0
14.6132 -2.82354 -4.68818 255 0 0
14.6934 -2.80292 -4.70171 255 0 0
10.6118 -3.29562 -4.19827 255 0 0
12.2907 -2.73965 -4.92923 255 0 0
10.3759 -4.12234 -4.30534 255 0 0
10.0187 -4.20217 -4.52725 255 0 0
10.2521 -2.90617 -4.66627 255 0 0
10.0439 -3.83957 -4.97719 255 0 0
10.0837 -3.8274 -4.89 255 0 0
11.2858 -4.6708 -4.31104 255 0 0
10.9563 -4.50403 -4.24137 255 0 0
11.0092 -4.40419 -4.24355 255 0 0
10.9445 -4.33327 -4.22722 255 0 0
10.8926 -4.1492 -4.20545 255 0 0
10.8001 -4.08469 -4.18476 255 0 0
10.7397 -3.91694 -4.16299 255 0 0
10.7111 -3.87776 -4.15537 255 0 0
10.7311 -3.85624 -4.15755 255 0 0
10.7148 -3.76456 -4.14884 255 0 0
10.7291 -3.74104 -4.14993 255 0 0
10.7587 -3.63727 -4.14884 255 0 0
10.7415 -3.58897 -4.14285 255 0 0
10.7584 -3.53798 -4.14285 255 0 0
10.7874 -3.4768 -4.14449 255 0 0
10.8448 -3.41033 -4.15102 255 0 0
10.787 -3.36406 -4.13796 255 0 0
10.8099 -3.32906 -4.14013 255 0 0
10.9534 -3.2316 -4.16082 255 0 0
10.882 -3.1685 -4.14449 255 0 0
10.9642 -3.12206 -4.15701 255 0 0
10.978 -3.08383 -4.15755 255 0 0
11.0516 -3.03392 -4.16844 255 0 0
11.0875 -2.94507 -4.17061 255 0 0
11.1862 -2.88626 -4.18585 255 0 0
11.1707 -2.85403 -4.1815 255 0 0
11.3917 -2.82434 -4.22069 255 0 0
11.5503 -2.8056 -4.24899 255 0 0
11.7202 -2.78807 -4.27947 255 0 0
12.1556 -2.77011 -4.35894 255 0 0
12.2856 -2.76911 -4.38288 255 0 0
12.4101 -2.76626 -4.40574 255 0 0
12.8175 -2.76153 -4.48086 255 0 0
13.5419 -2.78348 -4.61584 255 0 0
13.8822 -2.78486 -4.67898 255 0 0
13.9847 -2.77095 -4.69748 255 0 0
14.1549 -2.76983 -4.72905 255 0 0
10.9717 -2.83093 -4.33968 255 0 0
13.4292 -2.79351 -4.7136 255 0 0
10.5846 -2.94626 -4.26864 255 0 0
12.5877 -2.74327 -4.99688 255 0 0
10.1589 -3.7872 -4.33278 255 0 0
10.2955 -3.38573 -4.23785 255 0 0
10.721 -4.49673 -4.29997 255 0 0
10.7104 -4.43266 -4.29315 255 0 0
10.6677 -4.38541 -4.28179 255 0 0
10.6486 -4.33338 -4.2744 255 0 0
10.6288 -4.25204 -4.26475 255 0 0
10.6229 -4.22046 -4.26134 255 0 0
10.5124 -4.06156 -4.22952 255 0 0
10.481 -3.89314 -4.2119 255 0 0
10.4778 -3.79331 -4.20452 255 0 0
10.4683 -3.69191 -4.196 255 0 0
10.6597 -3.22756 -4.20338 255 0 0
10.6659 -3.14677 -4.19997 255 0 0
10.688 -3.11203 -4.20225 255 0 0
10.7174 -3.09305 -4.20679 255 0 0
10.7522 -3.03414 -4.2102 255 0 0
10.7996 -2.99232 -4.21702 255 0 0
10.8616 -2.94027 -4.22611 255 0 0
10.9073 -2.92492 -4.23406 255 0 0
10.9877 -2.8907 -4.2477 255 0 0
11.0959 -2.86296 -4.26702 255 0 0
11.7182 -2.78758 -4.38293 255 0 0
11.9159 -2.77498 -4.42043 255 0 0
12.3107 -2.77477 -4.49656 255 0 0
12.6098 -2.77942 -4.55451 255 0 0
13.0562 -2.78058 -4.64088 255 0 0
13.2089 -2.78038 -4.67042 255 0 0
14.2608 -2.82567 -4.8761 255 0 0
14.9496 -2.92532 -5.0136 255 0 0
11.4019 -2.74094 -4.42138 255 0 0
10.2076 -2.71136 -5.01898 255 0 0
10.0209 -4.25908 -4.62845 255 0 0
13.0858 -2.75445 -4.7612 255 0 0
10.1892 -3.49868 -4.318 255 0 0
10.0663 -3.29714 -4.557 255 0 0
13.5075 -2.7764 -4.96708 255 0 0
10.193 -4.07769 -4.55379 255 0 0
10.1429 -3.48277 -4.77823 255 0 0
10.4381 -4.31996 -4.33258 255 0 0
10.3643 -4.0893 -4.30061 255 0 0
10.2885 -4.03125 -4.28166 255 0 0
10.2895 -3.93344 -4.27456 255 0 0
10.3034 -3.89682 -4.27456 255 0 0
10.2608 -3.83905 -4.26213 255 0 0
10.2771 -3.80353 -4.26272 255 0 0
10.2896 -3.75279 -4.26153 255 0 0
10.2156 -3.67099 -4.2414 255 0 0
10.2437 -3.62633 -4.24377 255 0 0
10.2522 -3.60204 -4.24377 255 0 0
10.3351 -3.46677 -4.25088 255 0 0
10.4012 -3.33873 -4.25561 255 0 0
10.3114 -3.2426 -4.23193 255 0 0
10.4012 -3.24375 -4.24969 255 0 0
10.3945 -3.18766 -4.24496 255 0 0
10.4829 -3.13335 -4.25917 255 0 0
10.5548 -2.97843 -4.26449 255 0 0
10.68 -2.94555 -4.28758 255 0 0
11.0229 -2.81627 -4.34915 255 0 0
11.1351 -2.81685 -4.37165 255 0 0
11.198 -2.79038 -4.3829 255 0 0
11.626 -2.76565 -4.46756 255 0 0
11.5767 -2.72494 -4.45572 255 0 0
11.8912 -2.73953 -4.51966 255 0 0
12.7418 -2.74522 -4.69134 255 0 0
13.2214 -2.75028 -4.78844 255 0 0
13.5143 -2.7778 -4.84882 255 0 0
13.6895 -2.77999 -4.88434 255 0 0
10.2195 -2.98876 -4.47684 255 0 0
10.1567 -3.93797 -4.34386 255 0 0
10.2616 -4.27544 -4.3919 255 0 0
10.2341 -4.20715 -4.38081 255 0 0
10.1592 -3.88364 -4.34017 255 0 0
10.1561 -3.82734 -4.33524 255 0 0
10.1508 -3.74312 -4.32785 255 0 0
10.1384 -3.64327 -4.318 255 0 0
10.1686 -3.62691 -4.32292 255 0 0
10.1758 -3.46712 -4.31307 255 0 0
10.2044 -3.43639 -4.31676 255 0 0
10.2867 -3.18131 -4.31676 255 0 0
10.5661 -2.94111 -4.35987 255 0 0
10.6627 -2.9136 -4.37835 255 0 0
10.8117 -2.84439 -4.40544 255 0 0
10.8639 -2.8031 -4.41407 255 0 0
11.0168 -2.75913 -4.44363 255 0 0
11.2586 -2.73474 -4.49289 255 0 0
11.3486 -2.72811 -4.51137 255 0 0
11.4385 -2.72107 -4.52984 255 0 0
11.5453 -2.71755 -4.55201 255 0 0
11.6855 -2.72132 -4.58157 255 0 0
11.8314 -2.72574 -4.61236 255 0 0
12.4157 -2.73662 -4.73553 255 0 0
12.5899 -2.74375 -4.77248 255 0 0
12.9163 -2.75079 -4.84145 255 0 0
10.3275 -4.53467 -4.52514 255 0 0
10.0341 -3.02515 -4.80816 255 0 0
10.0023 -3.87812 -4.4017 255 0 0
10.2023 -2.99686 -4.66058 255 0 0
10.0402 -4.09965 -4.42792 255 0 0
10.443 -4.55587 -4.55072 255 0 0
10.3961 -4.5061 -4.53665 255 0 0
10.3963 -4.44776 -4.53153 255 0 0
10.3437 -4.39628 -4.51618 255 0 0
10.1593 -4.28951 -4.46885 255 0 0
10.0905 -4.23225 -4.44966 255 0 0
10.0224 -4.03705 -4.41896 255 0 0
9.99673 -3.74026 -4.38954 255 0 0
10.0009 -3.68787 -4.38634 255 0 0
10.0022 -3.63453 -4.38251 255 0 0
10.0409 -3.39462 -4.37291 255 0 0
10.0618 -3.29568 -4.37035 255 0 0
10.1035 -3.20356 -4.37291 255 0 0
10.1097 -3.12655 -4.36908 255 0 0
10.1481 -3.09891 -4.37547 255 0 0
10.5643 -2.80611 -4.44711 255 0 0
10.5875 -2.78541 -4.45094 255 0 0
10.6836 -2.75659 -4.47013 255 0 0
10.7399 -2.74398 -4.48164 255 0 0
10.7963 -2.73112 -4.49316 255 0 0
10.8581 -2.71939 -4.50595 255 0 0
10.9367 -2.71152 -4.52258 255 0 0
11.0485 -2.71145 -4.54688 255 0 0
11.3899 -2.70949 -4.62108 255 0 0
11.6085 -2.7034 -4.66841 255 0 0
11.7485 -2.70666 -4.69911 255 0 0
12.0344 -2.71248 -4.76179 255 0 0
12.5614 -2.73753 -4.8782 255 0 0
13.2021 -2.74628 -5.01891 255 0 0
10.2555 -2.94657 -4.48215 255 0 0
10.0804 -3.58201 -4.86651 255 0 0
9.98778 -3.50912 -4.9311 255 0 0
10.2824 -2.91474 -4.48613 255 0 0
10.2063 -4.43824 -4.58894 255 0 0
10.188 -4.38723 -4.58032 255 0 0
10.1616 -4.34736 -4.57103 255 0 0
10.0087 -4.22592 -4.52725 255 0 0
10.1532 -4.14577 -4.55113 255 0 0
10.1395 -3.91751 -4.52858 255 0 0
10.1778 -3.84933 -4.53123 255 0 0
10.0036 -3.7293 -4.48347 255 0 0
9.96961 -3.68974 -4.47286 255 0 0
10.1255 -3.61153 -4.50072 255 0 0
10.1455 -3.53753 -4.49939 255 0 0
10.0894 -3.43769 -4.47949 255 0 0
10.0651 -3.4028 -4.47153 255 0 0
10.0792 -3.28815 -4.46623 255 0 0
10.0637 -3.24353 -4.45959 255 0 0
10.0735 -3.19404 -4.45827 255 0 0
10.0251 -3.10041 -4.44102 255 0 0
10.0879 -3.08055 -4.45362 255 0 0
10.4286 -2.77004 -4.51001 255 0 0
10.5805 -2.72999 -4.54185 255 0 0
10.6478 -2.72043 -4.55644 255 0 0
10.7316 -2.71475 -4.57501 255 0 0
11.6643 -2.71639 -4.78595 255 0 0
11.7818 -2.71433 -4.81248 255 0 0
12.9743 -2.76314 -5.08577 255 0 0
10.1081 -4.49563 -4.96426 255 0 0
10.3355 -2.77157 -4.58311 255 0 0
10.2196 -4.51624 -4.69715 255 0 0
10.1731 -4.43814 -4.67929 255 0 0
10.1679 -4.40722 -4.67517 255 0 0
10.1104 -4.35383 -4.65731 255 0 0
10.0673 -4.22253 -4.63532 255 0 0
10.1613 -4.23367 -4.65731 255 0 0
10.1345 -4.19433 -4.64769 255 0 0
10.1234 -4.16163 -4.64219 255 0 0
10.1595 -4.14837 -4.64906 255 0 0
10.2696 -4.16492 -4.67517 255 0 0
10.2046 -4.08235 -4.65318 255 0 0
10.172 -4.04133 -4.64219 255 0 0
10.1868 -4.01929 -4.64357 255 0 0
10.1751 -3.98682 -4.63807 255 0 0
10.1793 -3.96062 -4.6367 255 0 0
10.109 -3.9057 -4.61609 255 0 0
10.1631 -3.84377 -4.62296 255 0 0
10.039 -3.76964 -4.58861 255 0 0
10.1559 -3.64954 -4.60509 255 0 0
10.0894 -3.59868 -4.58586 255 0 0
10.1478 -3.57886 -4.59754 255 0 0
10.0987 -3.5212 -4.58174 255 0 0
10.0721 -3.35202 -4.5625 255 0 0
10.0903 -3.27854 -4.56113 255 0 0
10.0602 -3.1767 -4.5467 255 0 0
10.1502 -3.16547 -4.56662 255 0 0
10.1043 -3.03327 -4.5467 255 0 0
10.135 -2.99015 -4.55082 255 0 0
10.1916 -2.87596 -4.55632 255 0 0
10.2265 -2.84657 -4.5625 255 0 0
10.2551 -2.82837 -4.568 255 0 0
10.3069 -2.79012 -4.57761 255 0 0
10.364 -2.7529 -4.58861 255 0 0
10.5156 -2.71324 -4.62158 255 0 0
10.5717 -2.70098 -4.63395 255 0 0
10.6718 -2.69964 -4.65731 255 0 0
10.7445 -2.69092 -4.67379 255 0 0
11.0712 -2.74488 -4.75348 255 0 0
11.1109 -2.72677 -4.76173 255 0 0
11.1339 -2.70444 -4.76585 255 0 0
11.6136 -2.70459 -4.87852 255 0 0
11.8141 -2.72177 -4.92661 255 0 0
12.3054 -2.74293 -5.0434 255 0 0
10.008 -3.48961 -4.83999 255 0 0
10.2701 -2.75403 -4.84908 255 0 0
10.2291 -4.57854 -4.80413 255 0 0
10.1678 -4.46456 -4.77855 255 0 0
10.168 -4.4359 -4.7757 255 0 0
9.96388 -4.23484 -4.70891 255 0 0
9.9684 -4.19497 -4.70606 255 0 0
9.9931 -4.13581 -4.70606 255 0 0
9.96914 -4.02933 -4.69043 255 0 0
10.033 -3.0378 -4.62292 255 0 0
10.2764 -2.96578 -4.67622 255 0 0
10.2671 -2.93672 -4.67195 255 0 0
10.1934 -2.86342 -4.64921 255 0 0
10.3581 -2.84356 -4.68759 255 0 0
10.3303 -2.78331 -4.67693 255 0 0
10.3154 -2.73999 -4.67053 255 0 0
10.3603 -2.72564 -4.68048 255 0 0
10.4557 -2.69777 -4.7018 255 0 0
10.5226 -2.68844 -4.71743 255 0 0
11.2239 -2.81101 -4.89509 255 0 0
11.2196 -2.78166 -4.89225 255 0 0
11.3394 -2.69747 -4.91641 255 0 0
11.4895 -2.70442 -4.95336 255 0 0
11.6729 -2.7184 -4.99884 255 0 0
11.8122 -2.72132 -5.03295 255 0 0
10.1877 -2.86182 -4.83544 255 0 0
10.2649 -4.56538 -4.91039 255 0 0
10.2394 -4.52499 -4.90011 255 0 0
10.2142 -4.39853 -4.88102 255 0 0
10.1308 -4.33417 -4.85459 255 0 0
9.96848 -4.20892 -4.8032 255 0 0
10.0046 -4.19623 -4.81054 255 0 0
10.2578 -4.13184 -4.86487 255 0 0
10.3607 -4.0879 -4.88543 255 0 0
10.0748 -3.94752 -4.8032 255 0 0
10.1 -3.92979 -4.8076 255 0 0
10.2151 -3.94669 -4.83697 255 0 0
10.0603 -3.85952 -4.79145 255 0 0
10.1807 -3.87803 -4.82229 255 0 0
10.1194 -3.79982 -4.80026 255 0 0
10.0956 -3.60088 -4.77677 255 0 0
10.008 -3.54289 -4.75033 255 0 0
10.1233 -3.55673 -4.7797 255 0 0
9.99014 -3.35107 -4.72978 255 0 0
10.0518 -3.34527 -4.74446 255 0 0
10.1297 -3.34453 -4.76355 255 0 0
10.0353 -3.28698 -4.73565 255 0 0
9.99984 -3.11858 -4.71362 255 0 0
10.0939 -3.12165 -4.73712 255 0 0
10.0091 -3.06946 -4.71215 255 0 0
9.99466 -3.03913 -4.70628 255 0 0
10.0832 -3.03996 -4.72831 255 0 0
10.0687 -3.00955 -4.72243 255 0 0
10.2171 -3.02754 -4.76061 255 0 0
10.2569 -3.01289 -4.76942 255 0 0
10.2602 -2.96108 -4.76649 255 0 0
10.2815 -2.92767 -4.76942 255 0 0
10.2926 -2.87812 -4.76869 255 0 0
10.3687 -2.79364 -4.7819 255 0 0
10.4326 -2.71823 -4.79292 255 0 0
10.3457 -2.66941 -4.76795 255 0 0
11.2474 -2.73202 -4.9985 255 0 0
10.1387 -4.53807 -4.97638 255 0 0
10.0877 -4.45794 -4.95516 255 0 0
10.0672 -4.42037 -4.94607 255 0 0
10.0569 -4.35908 -4.93698 255 0 0
10.0152 -4.31285 -4.92182 255 0 0
10.0252 -4.26089 -4.91879 255 0 0
9.98672 -4.13317 -4.89606 255 0 0
10.065 -3.98503 -4.90061 255 0 0
10.0819 -3.89525 -4.89606 255 0 0
10.0594 -3.85918 -4.88697 255 0 0
10.0708 -3.78157 -4.88242 255 0 0
10.0267 -3.73792 -4.86727 255 0 0
9.98704 -3.42925 -4.82938 255 0 0
10.0179 -3.3736 -4.83241 255 0 0
10.0431 -3.31594 -4.83393 255 0 0
10.0494 -3.27845 -4.83241 255 0 0
10.0072 -3.22533 -4.81726 255 0 0
10.0492 -3.12089 -4.81953 255 0 0
10.1421 -2.88795 -4.82559 255 0 0
10.2339 -2.8225 -4.84453 255 0 0
10.2799 -2.78281 -4.85363 255 0 0
10.3148 -2.73984 -4.85969 255 0 0
10.3432 -2.72113 -4.86575 255 0 0
10.4043 -2.71086 -4.88091 255 0 0
11.1019 -2.69667 -5.06125 255 0 0
10.1256 -4.56105 -5.07485 255 0 0
9.99274 -4.38768 -5.02172 255 0 0
9.97204 -4.33637 -5.01079 255 0 0
10.0102 -3.94961 -4.97954 255 0 0
10.0452 -3.92218 -4.98579 255 0 0
10.0486 -3.88237 -4.98266 255 0 0
10.0285 -3.79283 -4.9686 255 0 0
9.98589 -3.61521 -4.94048 255 0 0
10.0051 -3.59534 -4.9436 255 0 0
9.98531 -3.27062 -4.90923 255 0 0
9.98076 -3.22987 -4.90454 255 0 0
9.99596 -3.1825 -4.90454 255 0 0
10.0109 -3.13506 -4.90454 255 0 0
10.022 -3.09945 -4.90454 255 0 0
10.0348 -3.07733 -4.9061 255 0 0
10.0321 -3.03754 -4.9022 255 0 0
10.0388 -2.93591 -4.89595 255 0 0
10.0662 -2.89217 -4.89985 255 0 0
10.0927 -2.86097 -4.90454 255 0 0
10.1164 -2.82885 -4.90845 255 0 0
10.1515 -2.78683 -4.9147 255 0 0
10.2141 -2.73903 -4.92798 255 0 0
10.359 -2.69903 -4.96391 255 0 0
10.5347 -2.71817 -5.01235 255 0 0
10.6022 -2.68202 -5.02797 255 0 0
10.0952 -2.77137 -4.99243 255 0 0
10.1566 -2.74943 -5.00772 255 0 0
10.3457 -2.69557 -5.056 255 0 0
10.0428 -2.83399 -5.07685 255 0 0
10.0649 -2.77589 -5.07851 255 0 0
15.5543 -3.3126 -4.32947 255 0 0
15.3637 -3.23394 -4.29977 255 0 0
