ply
format ascii 1.0
comment Created by Open3D
element vertex 1018
property double x
property double y
property double z
property uchar red
property uchar green
property uchar blue
end_header
1.81817 7.4467 -4.61095 255 0 0
3.40885 6.13162 -5.27138 255 0 0
2.69335 6.27487 -4.13743 255 0 0
1.98081 7.42182 -4.75978 255 0 0
1.09487 6.26238 -4.16541 255 0 0
1.1256 6.09671 -4.34446 255 0 0
1.59102 6.44996 -4.14024 255 0 0
3.09851 6.09007 -4.4549 255 0 0
4.07959 6.7242 -4.67892 255 0 0
2.16184 7.13996 -4.06552 255 0 0
2.74061 6.55589 -5.31344 255 0 0
0.598846 6.06648 -4.42178 255 0 0
3.64242 6.20087 -4.92644 255 0 0
3.9304 6.11292 -4.95734 255 0 0
1.75477 6.10743 -4.34281 255 0 0
2.47897 6.11248 -4.36977 255 0 0
4.10985 6.39203 -4.6591 255 0 0
2.77525 6.3002 -4.15492 255 0 0
3.56286 6.13182 -4.74936 255 0 0
2.84544 6.21821 -4.26598 255 0 0
0.434886 6.78397 -4.37868 255 0 0
1.8773 6.09582 -4.35159 255 0 0
3.20817 6.26879 -5.28375 255 0 0
1.05243 6.28277 -4.16982 255 0 0
1.63611 6.24906 -4.02199 255 0 0
2.74796 7.45206 -4.70535 255 0 0
3.13498 6.14375 -4.41349 255 0 0
3.68178 6.23398 -4.5334 255 0 0
2.73866 6.29792 -4.14967 255 0 0
1.05153 7.40415 -4.47809 255 0 0
0.779343 6.41358 -4.26072 255 0 0
2.8061 7.47292 -4.49862 255 0 0
1.20002 6.25045 -4.28662 255 0 0
2.90105 6.502 -5.32004 255 0 0
0.413418 6.10875 -4.37368 255 0 0
1.10798 7.02246 -4.16063 255 0 0
1.02167 6.18909 -4.19497 255 0 0
1.17071 6.34107 -4.0774 255 0 0
3.92602 6.20266 -4.9163 255 0 0
2.38511 6.91946 -4.02646 255 0 0
1.13282 6.91349 -4.12913 255 0 0
4.0716 6.13877 -4.7856 255 0 0
2.52847 6.36417 -4.14355 255 0 0
1.63968 6.41763 -4.13396 255 0 0
0.614791 6.98998 -4.39007 255 0 0
0.657135 7.17886 -4.38876 255 0 0
1.70206 7.59342 -4.6506 255 0 0
2.26037 6.36112 -4.05166 255 0 0
2.76195 6.09294 -4.40342 255 0 0
1.02404 6.2035 -4.2589 255 0 0
4.69692 6.21343 -5.39829 255 0 0
2.85399 6.52087 -5.31922 255 0 0
1.67411 7.46873 -4.74988 255 0 0
2.4034 7.02654 -4.05615 255 0 0
0.993937 6.4997 -4.1788 255 0 0
1.61053 7.06722 -4.07193 255 0 0
1.89695 6.37399 -4.20367 255 0 0
0.804479 7.18919 -4.33056 255 0 0
1.34384 6.34692 -4.03073 255 0 0
3.83566 6.25506 -4.8446 255 0 0
1.88478 6.55998 -4.26168 255 0 0
1.87358 6.35042 -4.3168 255 0 0
4.34549 6.21557 -5.38417 255 0 0
1.04229 6.17724 -4.19206 255 0 0
1.39462 6.51063 -4.02356 255 0 0
0.504102 6.06058 -4.47475 255 0 0
0.787059 6.95886 -4.32062 255 0 0
2.97899 7.52407 -4.60707 255 0 0
0.742041 6.22992 -4.3131 255 0 0
3.50832 6.49055 -5.36607 255 0 0
3.10267 6.35712 -5.2986 255 0 0
3.71563 6.25736 -4.82132 255 0 0
2.81105 6.54913 -5.32334 255 0 0
1.96437 6.48776 -4.30889 255 0 0
1.30869 6.29126 -4.07022 255 0 0
0.641555 6.57877 -4.31293 255 0 0
0.387897 6.16566 -4.574 255 0 0
0.848886 6.13397 -4.34169 255 0 0
2.02616 6.16122 -4.33017 255 0 0
2.05062 6.23561 -4.17512 255 0 0
0.952972 6.33226 -4.18114 255 0 0
2.24035 6.07548 -4.38737 255 0 0
1.40496 6.13152 -4.31918 255 0 0
0.736047 6.72182 -4.30323 255 0 0
3.66402 6.10432 -4.55784 255 0 0
1.28254 6.20243 -4.21624 255 0 0
0.944782 6.17832 -4.30433 255 0 0
0.43982 6.27779 -4.32019 255 0 0
2.60327 6.35394 -4.08685 255 0 0
2.63965 6.80808 -4.08722 255 0 0
3.31086 6.19529 -4.45797 255 0 0
1.02412 6.29682 -4.17296 255 0 0
1.08008 6.26531 -4.83698 255 0 0
3.93196 6.17957 -4.90981 255 0 0
3.91942 6.60055 -4.61473 255 0 0
3.69931 6.47221 -4.53921 255 0 0
2.33052 6.0964 -4.40628 255 0 0
4.34597 6.58629 -5.44278 255 0 0
0.855536 6.18206 -4.30095 255 0 0
4.41821 6.14219 -5.37622 255 0 0
1.35178 6.78017 -4.03854 255 0 0
2.6879 6.1019 -4.3955 255 0 0
2.09056 6.30663 -4.07971 255 0 0
1.82908 6.1996 -4.32225 255 0 0
1.30597 6.16827 -4.23564 255 0 0
4.01699 6.34638 -4.62816 255 0 0
2.00174 6.18567 -4.2145 255 0 0
1.75543 6.45433 -4.0937 255 0 0
0.503509 6.42203 -4.31433 255 0 0
1.2572 6.30571 -4.93346 255 0 0
4.08846 6.22811 -4.67663 255 0 0
1.89792 6.4896 -4.11644 255 0 0
1.18677 6.51452 -4.07271 255 0 0
0.922556 7.1661 -4.26162 255 0 0
1.88228 7.25951 -4.07646 255 0 0
2.45605 6.22476 -5.12043 255 0 0
1.13168 6.29678 -4.2985 255 0 0
4.20868 6.34544 -5.39769 255 0 0
1.9998 6.33304 -4.07883 255 0 0
1.12232 7.0054 -4.28568 255 0 0
2.78521 7.44414 -4.70724 255 0 0
4.29934 6.26488 -5.39053 255 0 0
0.437926 6.47103 -4.33017 255 0 0
0.544318 6.18862 -4.34929 255 0 0
1.52533 7.20412 -4.10492 255 0 0
3.84209 6.21584 -4.83296 255 0 0
0.533812 6.06927 -4.36204 255 0 0
1.82378 6.34765 -4.311 255 0 0
0.524247 7.11962 -4.4316 255 0 0
1.50974 6.31333 -4.0319 255 0 0
2.04938 7.26253 -4.43111 255 0 0
2.70511 6.08222 -4.39155 255 0 0
2.05491 6.10206 -4.37387 255 0 0
3.6044 6.46532 -4.52128 255 0 0
1.32063 6.54292 -5.04526 255 0 0
1.49688 7.41612 -4.57697 255 0 0
1.32958 6.06631 -4.23118 255 0 0
0.995641 6.168 -4.30348 255 0 0
3.45684 6.52414 -5.3685 255 0 0
1.19849 6.08651 -4.34584 255 0 0
0.401837 6.51017 -4.34337 255 0 0
1.40528 6.20047 -4.83698 255 0 0
4.01923 6.28379 -5.3285 255 0 0
0.367556 6.19356 -4.52478 255 0 0
3.84052 6.09954 -4.65744 255 0 0
0.749352 6.62553 -4.27113 255 0 0
2.34829 6.08515 -4.34337 255 0 0
3.34063 6.52759 -5.34541 255 0 0
0.892782 6.4511 -4.21827 255 0 0
2.42255 6.33714 -4.06187 255 0 0
1.95843 7.51652 -4.57386 255 0 0
1.5836 6.32307 -4.04035 255 0 0
2.63632 6.47839 -5.26148 255 0 0
0.812761 6.14071 -4.34239 255 0 0
1.30299 6.15399 -4.31918 255 0 0
2.738 6.0977 -4.40144 255 0 0
1.26521 6.19259 -4.27078 255 0 0
3.13272 6.10353 -4.4648 255 0 0
4.26383 6.52895 -5.40219 255 0 0
2.67859 6.67273 -4.51599 255 0 0
2.80477 6.53448 -5.31592 255 0 0
1.75177 6.85645 -4.02285 255 0 0
1.42509 6.08672 -4.91504 255 0 0
4.13284 6.23111 -4.75669 255 0 0
1.09125 6.24166 -4.82743 255 0 0
1.18821 6.07227 -4.82288 255 0 0
1.29895 6.13492 -4.25296 255 0 0
2.38176 6.1 -5.05361 255 0 0
2.14083 6.11649 -4.32819 255 0 0
3.38824 6.16322 -5.27962 255 0 0
2.84836 6.38393 -4.18815 255 0 0
2.08961 7.20845 -4.07802 255 0 0
0.89943 6.12445 -4.34083 255 0 0
2.9534 6.47449 -5.31839 255 0 0
0.452356 6.14329 -4.44718 255 0 0
1.09474 6.09119 -4.34031 255 0 0
1.97041 6.9826 -4.47125 255 0 0
4.40238 6.52497 -5.43419 255 0 0
2.28031 7.16226 -4.08115 255 0 0
2.70869 6.41527 -4.11636 255 0 0
3.15608 6.33273 -5.29942 255 0 0
0.602036 7.13571 -4.43915 255 0 0
0.549735 6.60927 -4.32067 255 0 0
1.449 6.32373 -4.03073 255 0 0
2.28298 7.05472 -4.05302 255 0 0
1.1365 7.20319 -4.2826 255 0 0
2.10228 6.21839 -4.17512 255 0 0
2.5431 6.77261 -4.06791 255 0 0
1.09417 7.38941 -4.40657 255 0 0
1.83948 7.23553 -4.06708 255 0 0
1.34615 6.17703 -4.75828 255 0 0
4.15746 6.1253 -4.87 255 0 0
1.95991 7.13928 -4.45323 255 0 0
1.91205 7.16416 -4.05302 255 0 0
2.93737 7.54938 -4.60976 255 0 0
2.69939 6.54431 -5.30107 255 0 0
2.74033 6.30176 -4.21386 255 0 0
2.92226 6.15322 -4.32022 255 0 0
0.649615 6.06537 -4.4234 255 0 0
1.85095 6.50023 -4.11556 255 0 0
2.2969 6.09495 -4.34007 255 0 0
0.484034 6.17363 -4.46015 255 0 0
1.80807 6.90586 -4.04055 255 0 0
0.944496 6.07988 -4.80708 255 0 0
1.11077 7.26374 -4.3001 255 0 0
4.30914 6.43051 -4.85391 255 0 0
3.62987 6.21319 -4.51792 255 0 0
2.93393 6.70347 -4.56047 255 0 0
2.89583 6.13507 -4.31078 255 0 0
3.01633 6.10661 -4.44698 255 0 0
1.94186 6.38611 -4.08933 255 0 0
1.97033 6.34438 -4.14024 255 0 0
0.625378 6.92226 -4.36741 255 0 0
0.465826 6.4304 -4.31631 255 0 0
1.09227 6.1614 -4.30703 255 0 0
3.94206 6.09922 -4.74624 255 0 0
4.05259 6.20549 -4.66277 255 0 0
4.64844 6.27207 -5.4061 255 0 0
2.68549 6.55467 -4.41272 255 0 0
1.83786 7.52737 -4.71131 255 0 0
1.89342 6.53165 -4.12868 255 0 0
3.38522 6.95701 -4.56373 255 0 0
0.599835 6.22726 -4.30652 255 0 0
2.09244 7.15473 -4.06396 255 0 0
3.05932 6.13858 -4.39996 255 0 0
1.99143 6.80933 -4.4165 255 0 0
0.84403 6.68118 -4.29379 255 0 0
1.65495 6.38274 -4.06396 255 0 0
3.34757 6.08918 -4.49647 255 0 0
1.35843 6.23325 -4.17296 255 0 0
1.1697 6.78515 -4.09252 255 0 0
1.99689 7.41146 -4.54347 255 0 0
2.78106 6.23309 -4.26168 255 0 0
2.13135 6.18327 -4.22771 255 0 0
1.94669 6.11438 -4.36577 255 0 0
0.65106 6.21798 -4.305 255 0 0
1.68388 7.51234 -4.69391 255 0 0
1.8068 6.26063 -4.34106 255 0 0
3.65826 6.22783 -4.80016 255 0 0
2.50165 6.08536 -4.36383 255 0 0
2.64523 6.265 -4.12868 255 0 0
3.28476 6.83272 -4.51216 255 0 0
1.40147 6.32262 -4.08638 255 0 0
1.2102 6.14595 -4.67119 255 0 0
3.80652 6.55117 -4.58075 255 0 0
3.77434 6.53138 -4.56942 255 0 0
0.450464 6.11737 -4.49608 255 0 0
0.548695 6.07351 -4.42268 255 0 0
1.1957 6.22794 -4.82982 255 0 0
2.83562 7.47074 -4.50125 255 0 0
2.8046 6.10982 -4.4153 255 0 0
2.06487 6.22914 -4.23526 255 0 0
1.59363 6.11643 -4.33032 255 0 0
0.489509 6.05901 -4.53272 255 0 0
1.93583 7.39382 -4.74592 255 0 0
0.767521 6.19362 -4.30095 255 0 0
1.78284 7.302 -4.08115 255 0 0
0.746617 7.04995 -4.34917 255 0 0
2.34553 7.0758 -4.06396 255 0 0
1.9017 7.33438 -4.72216 255 0 0
2.89754 7.55281 -4.60617 255 0 0
1.11952 6.14535 -4.30298 255 0 0
1.07169 7.2377 -4.22362 255 0 0
2.64191 6.49213 -4.06669 255 0 0
2.9026 6.67493 -4.54693 255 0 0
1.83421 6.32738 -4.3052 255 0 0
2.53798 6.19463 -4.09545 255 0 0
0.799461 6.32838 -4.97443 255 0 0
4.15056 6.42181 -5.41201 255 0 0
0.892493 6.23135 -4.2027 255 0 0
1.04976 6.17684 -4.25098 255 0 0
1.85241 6.09194 -4.34754 255 0 0
2.66003 6.3844 -4.22822 255 0 0
1.07751 6.25036 -4.2787 255 0 0
2.06799 7.42944 -4.55544 255 0 0
3.04914 7.54402 -4.62144 255 0 0
1.73977 7.51093 -4.62606 255 0 0
1.41281 6.16585 -4.82266 255 0 0
1.29941 6.35996 -4.0319 255 0 0
3.97837 6.31847 -4.61269 255 0 0
2.96313 6.20129 -4.34098 255 0 0
2.39182 6.36974 -4.06783 255 0 0
0.360698 6.20232 -4.4086 255 0 0
3.37552 6.17468 -5.21053 255 0 0
0.557411 6.33736 -4.28563 255 0 0
2.32699 6.1307 -4.35591 255 0 0
2.99359 6.20818 -4.34759 255 0 0
3.79413 6.08968 -4.64528 255 0 0
1.29958 6.13789 -4.3131 255 0 0
0.639114 6.8041 -4.32777 255 0 0
1.1882 6.26912 -4.11434 255 0 0
3.11541 6.1413 -4.40963 255 0 0
1.00309 6.35766 -4.13276 255 0 0
1.18467 6.17077 -4.28695 255 0 0
0.876658 7.21443 -4.34134 255 0 0
0.380903 6.17102 -4.51595 255 0 0
1.2327 6.42066 -4.04647 255 0 0
1.22971 6.66063 -4.05847 255 0 0
2.23958 7.15145 -4.0749 255 0 0
1.68207 7.42174 -4.73404 255 0 0
1.88104 7.36245 -4.73008 255 0 0
4.16412 6.15082 -4.95089 255 0 0
2.14394 6.07911 -4.37657 255 0 0
1.31061 6.22648 -4.1673 255 0 0
2.14682 6.971 -4.48446 255 0 0
1.64405 7.02193 -4.06147 255 0 0
1.31161 6.41972 -4.98936 255 0 0
2.10725 7.46751 -4.5711 255 0 0
0.849651 6.24851 -4.20657 255 0 0
2.27621 6.70659 -4.02446 255 0 0
1.99192 7.49909 -4.5711 255 0 0
1.95622 6.29895 -4.24659 255 0 0
4.14308 6.37703 -5.3179 255 0 0
0.713024 6.65741 -4.28057 255 0 0
1.99906 7.49017 -4.49755 255 0 0
3.7015 6.101 -4.56378 255 0 0
1.32547 6.18775 -4.2143 255 0 0
1.17132 6.51732 -4.07271 255 0 0
1.75868 7.51153 -4.77166 255 0 0
1.29922 6.35905 -4.21072 255 0 0
0.677406 7.12115 -4.37035 255 0 0
3.6869 6.24265 -4.81074 255 0 0
2.70798 6.28843 -4.20578 255 0 0
2.01589 6.2294 -4.16959 255 0 0
0.352436 6.90773 -4.42026 255 0 0
1.26452 6.18921 -4.21044 255 0 0
2.80377 6.32426 -4.16541 255 0 0
2.25351 6.41404 -4.06613 255 0 0
0.365055 6.27719 -4.49798 255 0 0
1.91545 6.16769 -4.32027 255 0 0
1.72072 7.50963 -4.62417 255 0 0
0.80078 6.6558 -4.2834 255 0 0
3.27428 6.4926 -5.31746 255 0 0
1.89626 6.37162 -4.08087 255 0 0
1.19584 6.35055 -4.08189 255 0 0
1.94712 7.43695 -4.6185 255 0 0
1.24014 6.22014 -4.2787 255 0 0
0.503313 6.13932 -4.44718 255 0 0
1.09889 6.28537 -4.11434 255 0 0
1.05627 6.21514 -4.81312 255 0 0
1.80311 7.46176 -4.61473 255 0 0
3.40013 6.54785 -5.36607 255 0 0
2.3617 7.04066 -4.05615 255 0 0
0.545176 6.37161 -4.29751 255 0 0
2.32092 6.43464 -4.0789 255 0 0
2.84685 6.26047 -4.21565 255 0 0
2.0499 6.16769 -4.27425 255 0 0
0.387524 6.15968 -4.39273 255 0 0
1.31902 6.53496 -4.02612 255 0 0
3.1389 6.29827 -5.21053 255 0 0
1.23866 7.28837 -4.31409 255 0 0
0.953185 6.18411 -4.24801 255 0 0
0.492711 6.69135 -4.34774 255 0 0
1.99175 6.15478 -4.26362 255 0 0
3.4474 6.18371 -4.47731 255 0 0
0.377611 6.11767 -4.61377 255 0 0
1.05184 7.10364 -4.37955 255 0 0
1.00095 6.10868 -4.34083 255 0 0
3.46108 6.08887 -4.51627 255 0 0
2.78566 7.18467 -4.41204 255 0 0
1.98044 6.27178 -4.05872 255 0 0
2.92529 6.5148 -4.23538 255 0 0
4.46309 6.47602 -5.43146 255 0 0
1.96464 6.43361 -4.16717 255 0 0
1.45366 7.47583 -4.6649 255 0 0
0.482416 7.2559 -4.47691 255 0 0
4.07399 6.11088 -4.77731 255 0 0
2.66379 7.55313 -4.728 255 0 0
4.13129 6.1336 -4.93791 255 0 0
2.74923 6.24112 -4.25984 255 0 0
1.22784 7.32987 -4.32633 255 0 0
1.23797 6.36659 -4.33017 255 0 0
2.86504 6.28073 -4.35137 255 0 0
1.13142 7.28317 -4.30709 255 0 0
1.333 6.22288 -4.10882 255 0 0
0.906832 6.33156 -4.17863 255 0 0
1.99468 7.23236 -4.07724 255 0 0
1.95008 6.22703 -4.16223 255 0 0
1.91146 6.65281 -4.23002 255 0 0
1.28152 6.19749 -4.88729 255 0 0
1.55427 6.33322 -4.04123 255 0 0
3.2954 6.55379 -4.49862 255 0 0
0.395533 6.05797 -4.8309 255 0 0
2.00292 7.16273 -4.05927 255 0 0
2.597 6.09023 -4.37868 255 0 0
1.63502 7.05871 -4.07113 255 0 0
3.10084 6.14867 -4.40963 255 0 0
1.09615 6.94748 -4.26593 255 0 0
2.80395 6.89032 -4.60302 255 0 0
3.05275 6.36945 -5.29365 255 0 0
1.91872 7.47294 -4.62794 255 0 0
1.99223 6.08235 -4.35969 255 0 0
2.03928 6.25103 -4.1788 255 0 0
1.05102 6.32031 -4.12309 255 0 0
1.39166 6.27836 -4.13092 255 0 0
1.11998 6.99081 -4.21614 255 0 0
0.404221 6.07997 -4.59846 255 0 0
1.24178 6.26722 -4.1171 255 0 0
3.22545 6.43367 -5.28344 255 0 0
2.59438 6.12427 -4.38957 255 0 0
2.16762 7.22073 -4.0874 255 0 0
3.33242 6.88996 -4.5361 255 0 0
0.394606 6.27223 -4.37656 255 0 0
1.38056 6.75719 -4.03357 255 0 0
0.463066 6.0915 -4.36839 255 0 0
1.89803 7.21457 -4.06552 255 0 0
2.19446 6.36636 -4.04655 255 0 0
1.95067 6.2811 -4.05872 255 0 0
1.06596 7.44235 -4.28492 255 0 0
3.72846 6.48745 -4.54865 255 0 0
1.40439 6.33569 -4.03131 255 0 0
3.49907 6.0883 -4.52287 255 0 0
1.65162 7.45116 -4.74196 255 0 0
1.86938 6.44872 -4.22485 255 0 0
2.74905 6.44683 -4.12998 255 0 0
0.360078 6.32094 -4.39416 255 0 0
1.42206 6.07379 -4.84597 255 0 0
2.79105 6.29556 -4.28194 255 0 0
3.05746 7.56468 -4.62862 255 0 0
4.39211 6.16741 -5.3786 255 0 0
1.20732 6.24847 -4.10882 255 0 0
1.30856 6.99476 -4.03411 255 0 0
1.92643 7.14997 -4.52222 255 0 0
3.28956 6.20845 -5.27633 255 0 0
2.73665 6.25272 -4.26168 255 0 0
3.40753 6.91926 -4.55575 255 0 0
2.66374 6.50158 -5.27633 255 0 0
3.843 6.93187 -4.62635 255 0 0
3.73604 6.89226 -4.5978 255 0 0
2.77168 6.54284 -5.31344 255 0 0
3.8424 6.5591 -4.58924 255 0 0
2.95115 6.10168 -4.4351 255 0 0
2.33295 7.15122 -4.08271 255 0 0
0.912361 6.36998 -4.19184 255 0 0
1.39621 6.09341 -4.91504 255 0 0
2.09982 7.11727 -4.05458 255 0 0
0.388942 6.06754 -4.77387 255 0 0
1.39187 6.35042 -4.09445 255 0 0
2.69884 6.34993 -4.22283 255 0 0
3.86085 6.0997 -4.66149 255 0 0
3.95038 6.16006 -4.62912 255 0 0
4.01006 6.1245 -4.69896 255 0 0
2.76623 6.16056 -4.23774 255 0 0
0.416212 6.26014 -4.3131 255 0 0
1.23682 6.28112 -4.18051 255 0 0
1.71854 6.86196 -4.02204 255 0 0
1.22688 6.15363 -4.67579 255 0 0
1.46892 6.34164 -4.09715 255 0 0
3.97817 6.15509 -4.702 255 0 0
0.650459 6.28415 -4.26979 255 0 0
3.19197 6.18283 -4.43477 255 0 0
0.807294 6.91738 -4.30773 255 0 0
1.16741 7.28685 -4.17599 255 0 0
1.21774 7.37686 -4.34033 255 0 0
2.29254 6.08338 -4.39682 255 0 0
1.29377 6.57045 -4.0352 255 0 0
2.32522 7.07062 -4.06083 255 0 0
3.51259 6.84363 -4.549 255 0 0
1.25583 6.2219 -4.10329 255 0 0
3.46401 6.63242 -4.54865 255 0 0
2.669 6.09816 -4.39155 255 0 0
2.00051 6.2577 -4.17696 255 0 0
3.92123 6.09867 -5.16336 255 0 0
2.59877 6.2582 -4.1211 255 0 0
4.18732 6.37873 -5.40485 255 0 0
3.08699 7.53464 -4.62323 255 0 0
3.75348 6.10477 -4.57467 255 0 0
3.05172 7.39849 -4.57834 255 0 0
2.07201 6.78524 -4.4165 255 0 0
3.65493 6.46554 -4.52977 255 0 0
1.32606 6.81959 -4.04847 255 0 0
1.24289 6.15776 -4.25692 255 0 0
2.25163 6.15094 -4.35327 255 0 0
1.3558 6.18595 -4.76297 255 0 0
4.09553 6.11173 -4.92278 255 0 0
0.652152 6.30063 -4.27573 255 0 0
3.45192 6.8651 -4.54623 255 0 0
0.847838 6.58571 -4.26169 255 0 0
1.30047 6.52277 -4.26547 255 0 0
2.45458 6.8052 -4.06791 255 0 0
2.29403 6.13135 -4.35195 255 0 0
1.98635 6.11336 -4.30939 255 0 0
1.43073 6.71803 -4.02529 255 0 0
1.96348 6.37567 -4.14922 255 0 0
0.785018 6.15536 -4.34653 255 0 0
0.82073 6.25795 -4.2085 255 0 0
0.911398 6.94928 -4.32246 255 0 0
1.83321 7.43177 -4.67844 255 0 0
0.891532 6.67501 -4.29379 255 0 0
2.57558 6.37238 -4.15142 255 0 0
3.90427 6.11999 -4.95403 255 0 0
2.34237 7.54236 -4.76353 255 0 0
3.79546 6.10797 -4.58358 255 0 0
0.737844 6.25788 -4.26385 255 0 0
3.80877 6.27784 -4.84672 255 0 0
1.22761 6.08207 -4.64593 255 0 0
2.78435 7.49596 -4.50299 255 0 0
1.32577 6.90545 -4.07331 255 0 0
0.989961 6.17926 -4.24834 255 0 0
2.04379 7.17756 -4.0663 255 0 0
2.66204 7.43555 -4.76353 255 0 0
3.78585 6.92527 -4.6153 255 0 0
0.915368 7.24588 -4.2861 255 0 0
1.67941 6.94986 -4.04377 255 0 0
1.80491 6.33856 -4.36779 255 0 0
2.58516 6.81089 -4.08239 255 0 0
1.22414 7.10093 -4.12465 255 0 0
2.57504 6.41477 -4.16366 255 0 0
0.538605 7.0852 -4.42028 255 0 0
2.41937 7.1284 -4.08427 255 0 0
2.27659 7.09235 -4.0624 255 0 0
2.23784 7.08693 -4.05771 255 0 0
2.22094 7.15135 -4.07333 255 0 0
2.18722 7.13222 -4.06552 255 0 0
2.1344 7.17177 -4.07177 255 0 0
2.03686 7.15315 -4.05927 255 0 0
1.96673 7.23124 -4.0749 255 0 0
1.93637 7.18685 -4.06083 255 0 0
1.87008 7.35586 -4.10146 255 0 0
1.20529 7.19528 -4.15115 255 0 0
2.38942 6.07704 -4.34601 255 0 0
2.90723 6.51587 -4.49665 255 0 0
1.90167 6.38977 -4.02612 255 0 0
2.61339 7.52379 -4.7129 255 0 0
3.49832 6.87589 -4.55636 255 0 0
2.58723 6.76793 -4.07113 255 0 0
2.52097 6.78689 -4.06952 255 0 0
2.48876 6.79877 -4.06952 255 0 0
2.46302 6.77819 -4.06147 255 0 0
2.39289 6.68379 -4.02929 255 0 0
2.38647 6.71597 -4.03733 255 0 0
2.31033 6.75444 -4.04055 255 0 0
2.09113 6.79015 -4.03089 255 0 0
1.70426 6.90902 -4.03411 255 0 0
1.66293 6.95382 -4.04377 255 0 0
1.64125 6.93583 -4.03733 255 0 0
1.56021 7.11883 -4.0832 255 0 0
1.5547 7.17477 -4.09848 255 0 0
1.54169 7.36752 -4.15159 255 0 0
1.49913 7.24986 -4.11619 255 0 0
1.48256 7.34518 -4.14193 255 0 0
1.45303 7.28795 -4.12423 255 0 0
1.43901 7.30794 -4.12906 255 0 0
1.40498 7.27155 -4.11699 255 0 0
0.843486 6.20312 -4.30804 255 0 0
2.84614 7.41887 -4.48725 255 0 0
2.81637 7.52743 -4.66319 255 0 0
2.94572 6.22161 -4.28102 255 0 0
2.34259 6.37608 -4.06443 255 0 0
2.63493 6.51921 -4.07331 255 0 0
2.5839 6.43683 -4.04516 255 0 0
1.85201 7.14277 -4.37725 255 0 0
2.55478 6.43031 -4.04019 255 0 0
2.5175 6.40278 -4.0286 255 0 0
1.70031 6.3708 -4.06396 255 0 0
1.40058 6.73298 -4.02777 255 0 0
1.30835 6.90306 -4.07166 255 0 0
1.28991 6.8951 -4.06834 255 0 0
1.2705 6.88157 -4.06338 255 0 0
1.26324 6.93429 -4.07828 255 0 0
1.25337 7.02167 -4.10312 255 0 0
1.2342 7.05928 -4.11306 255 0 0
1.20918 7.11488 -4.12796 255 0 0
1.19372 7.23136 -4.16108 255 0 0
1.17837 7.24526 -4.16439 255 0 0
1.36636 6.26969 -4.12631 255 0 0
3.38803 6.19756 -4.47151 255 0 0
1.9284 6.95982 -4.45992 255 0 0
4.55724 6.36726 -5.41624 255 0 0
2.0225 6.10131 -4.36982 255 0 0
4.24817 6.27496 -5.15726 255 0 0
1.25112 6.31431 -4.07381 255 0 0
2.64805 6.35565 -4.09252 255 0 0
2.55264 6.33722 -4.07635 255 0 0
2.53112 6.34887 -4.0772 255 0 0
2.50236 6.36426 -4.07833 255 0 0
2.45919 6.36506 -4.07379 255 0 0
2.39956 6.32191 -4.05506 255 0 0
2.35844 6.34932 -4.05847 255 0 0
2.31895 6.38173 -4.06358 255 0 0
2.27922 6.36629 -4.05506 255 0 0
2.20724 6.40345 -4.05847 255 0 0
2.15885 6.3608 -4.04144 255 0 0
2.15985 6.41368 -4.05677 255 0 0
2.11295 6.37421 -4.04087 255 0 0
2.05283 6.36929 -4.03378 255 0 0
1.99237 6.36206 -4.02612 255 0 0
2.00577 6.40484 -4.03974 255 0 0
1.9538 6.37109 -4.02527 255 0 0
1.94493 6.42358 -4.03974 255 0 0
1.90487 6.40049 -4.02952 255 0 0
1.87292 6.4041 -4.02782 255 0 0
3.30172 6.50857 -5.32962 255 0 0
1.34124 6.56475 -4.03633 255 0 0
1.2618 6.6147 -4.04655 255 0 0
1.25168 6.69073 -4.06868 255 0 0
1.21693 6.68006 -4.06358 255 0 0
1.20005 6.72295 -4.07549 255 0 0
1.18771 6.7934 -4.09593 255 0 0
1.15766 6.86108 -4.11465 255 0 0
1.11754 6.97556 -4.147 255 0 0
1.09495 7.10387 -4.18446 255 0 0
1.08135 7.18528 -4.2083 255 0 0
1.0626 7.29566 -4.24065 255 0 0
0.71512 6.45998 -4.27425 255 0 0
3.05302 6.16249 -5.13762 255 0 0
2.04369 6.1167 -4.31697 255 0 0
2.00337 7.50635 -4.50293 255 0 0
3.74595 6.24077 -4.54693 255 0 0
0.501083 6.11175 -4.37738 255 0 0
3.47536 6.39328 -5.31989 255 0 0
0.788716 6.24333 -4.26088 255 0 0
2.75359 6.29141 -4.14967 255 0 0
2.53592 6.23168 -4.10594 255 0 0
2.57024 6.53693 -4.19865 255 0 0
2.66042 6.81368 -4.2896 255 0 0
2.74724 7.45011 -4.4855 255 0 0
2.10196 6.29105 -4.07621 255 0 0
2.06512 6.27971 -4.06921 255 0 0
2.03983 6.25272 -4.05872 255 0 0
2.04737 6.32665 -4.08146 255 0 0
2.01528 6.27828 -4.06396 255 0 0
1.94893 6.32843 -4.07271 255 0 0
1.88538 6.62117 -4.15492 255 0 0
1.81484 6.49012 -4.10944 255 0 0
1.76662 6.37593 -4.07096 255 0 0
1.74298 6.40848 -4.07883 255 0 0
1.69519 6.41263 -4.07621 255 0 0
1.6032 6.27488 -4.02723 255 0 0
1.4866 6.34945 -4.04123 255 0 0
1.35114 6.33201 -4.02665 255 0 0
1.25411 6.36904 -4.0319 255 0 0
1.22579 6.46748 -4.06047 255 0 0
1.18785 6.34953 -4.02199 255 0 0
1.17732 6.64112 -4.11119 255 0 0
1.21162 6.93013 -4.20215 255 0 0
1.27018 7.36802 -4.34033 255 0 0
1.13655 6.98813 -4.21614 255 0 0
1.10768 7.36029 -4.32983 255 0 0
1.08696 7.34078 -4.32283 255 0 0
1.05806 7.32524 -4.31671 255 0 0
1.01401 7.26376 -4.29572 255 0 0
0.955684 7.09128 -4.23975 255 0 0
0.934458 7.12511 -4.24937 255 0 0
1.44935 6.12494 -4.32053 255 0 0
3.95209 6.13067 -5.32779 255 0 0
1.97537 6.30778 -4.12947 255 0 0
2.15444 6.17882 -4.28973 255 0 0
0.418624 7.34869 -4.50712 255 0 0
4.23096 6.24955 -4.85394 255 0 0
0.84665 6.22647 -4.25758 255 0 0
2.05054 6.08902 -4.3688 255 0 0
2.81416 6.22774 -4.32777 255 0 0
2.99323 6.4201 -4.28208 255 0 0
2.94754 6.36144 -4.25874 255 0 0
2.90914 6.31779 -4.24079 255 0 0
2.79945 6.25435 -4.20757 255 0 0
2.78735 6.28721 -4.21565 255 0 0
2.77018 6.2887 -4.21386 255 0 0
2.74856 6.27993 -4.20847 255 0 0
2.66111 6.32353 -4.21026 255 0 0
2.99437 7.56291 -4.62054 255 0 0
2.87165 7.56568 -4.60707 255 0 0
2.12552 6.31173 -4.14563 255 0 0
2.09995 6.28504 -4.13485 255 0 0
2.08855 6.30058 -4.13844 255 0 0
2.05002 6.2839 -4.12947 255 0 0
2.0287 6.32011 -4.13844 255 0 0
1.99191 6.28211 -4.12318 255 0 0
1.9472 6.51454 -4.19051 255 0 0
1.88979 6.4618 -4.16897 255 0 0
2.06909 7.33227 -4.45445 255 0 0
2.00213 7.29306 -4.4365 255 0 0
2.04772 7.52903 -4.5137 255 0 0
1.96493 7.50498 -4.49934 255 0 0
1.6039 6.37209 -4.1169 255 0 0
1.5834 6.35424 -4.10972 255 0 0
1.54341 6.387 -4.1169 255 0 0
1.50283 6.35087 -4.10253 255 0 0
1.50301 6.41953 -4.12408 255 0 0
1.45131 6.36855 -4.10433 255 0 0
1.3455 6.31769 -4.08099 255 0 0
1.28854 6.3068 -4.07381 255 0 0
1.21789 6.34353 -4.08099 255 0 0
1.14324 6.36117 -4.08219 255 0 0
1.12492 6.43424 -4.10433 255 0 0
1.21381 7.04103 -4.30184 255 0 0
1.26808 7.46147 -4.43829 255 0 0
1.15741 6.96013 -4.27311 255 0 0
1.14787 7.05773 -4.30363 255 0 0
1.05572 6.79586 -4.21565 255 0 0
1.08341 7.08482 -4.30902 255 0 0
1.0485 7.3829 -4.40238 255 0 0
1.01274 7.38227 -4.40059 255 0 0
0.987946 7.39688 -4.40418 255 0 0
0.941225 7.31118 -4.37485 255 0 0
0.89993 7.26211 -4.3575 255 0 0
0.858232 7.20542 -4.33775 255 0 0
0.832747 7.13547 -4.3144 255 0 0
0.806033 7.20301 -4.33505 255 0 0
3.89764 6.9332 -4.63556 255 0 0
3.91645 7.00549 -4.6595 255 0 0
3.83974 6.98447 -4.64108 255 0 0
3.70253 6.92817 -4.60302 255 0 0
3.6489 6.92623 -4.59412 255 0 0
3.58647 6.88677 -4.57294 255 0 0
3.54921 6.8748 -4.56373 255 0 0
3.41882 6.85992 -4.53979 255 0 0
2.98819 6.25373 -4.29668 255 0 0
2.89744 6.2146 -4.27212 255 0 0
2.806 6.2097 -4.258 255 0 0
2.76836 6.36622 -4.30036 255 0 0
2.85466 6.60748 -4.38508 255 0 0
2.88732 7.44687 -4.64661 255 0 0
2.77295 7.51984 -4.65582 255 0 0
2.0696 6.19419 -4.16407 255 0 0
2.05141 6.18853 -4.16039 255 0 0
1.96149 6.21179 -4.15854 255 0 0
1.94685 6.26879 -4.17512 255 0 0
1.94998 6.33182 -4.19538 255 0 0
1.94927 6.4105 -4.22024 255 0 0
1.896 6.42644 -4.22024 255 0 0
1.8951 6.6553 -4.29299 255 0 0
1.92256 7.06882 -4.42744 255 0 0
1.31544 6.24933 -4.11618 255 0 0
1.29978 6.32355 -4.1392 255 0 0
1.15151 6.27876 -4.11526 255 0 0
0.999197 6.33293 -4.12447 255 0 0
0.992585 6.59547 -4.21011 255 0 0
1.07826 7.40312 -4.47901 255 0 0
1.01566 7.33903 -4.45507 255 0 0
0.982534 7.22576 -4.41639 255 0 0
0.935966 7.0077 -4.34272 255 0 0
0.88527 6.94145 -4.31878 255 0 0
0.853027 6.95108 -4.32062 255 0 0
0.81449 6.83818 -4.28194 255 0 0
0.7617 6.95609 -4.31878 255 0 0
0.720122 7.03875 -4.34456 255 0 0
0.697005 7.06062 -4.35101 255 0 0
3.34283 6.18438 -4.45991 255 0 0
1.95684 6.99793 -4.47502 255 0 0
1.17982 6.14524 -4.30703 255 0 0
4.00063 6.62945 -4.63738 255 0 0
1.0802 6.09326 -4.22327 255 0 0
3.97349 6.61991 -4.62983 255 0 0
3.97483 6.65787 -4.64116 255 0 0
3.56933 6.45627 -4.51278 255 0 0
3.52464 6.41129 -4.49202 255 0 0
3.50447 6.42864 -4.4939 255 0 0
3.47154 6.45907 -4.49768 255 0 0
3.42748 6.41351 -4.47691 255 0 0
3.42007 6.43631 -4.48258 255 0 0
3.37632 6.39049 -4.46181 255 0 0
3.36631 6.40829 -4.46559 255 0 0
3.49681 6.73408 -4.58452 255 0 0
3.45471 6.73086 -4.57697 255 0 0
3.45386 6.76865 -4.5883 255 0 0
3.45284 6.80648 -4.59963 255 0 0
3.167 6.35464 -4.41839 255 0 0
3.0421 6.21438 -4.35672 255 0 0
2.84911 6.18743 -4.32022 255 0 0
2.73854 6.29764 -4.3391 255 0 0
2.7395 7.51125 -4.72328 255 0 0
2.73437 7.58091 -4.74499 255 0 0
2.6854 7.55724 -4.73178 255 0 0
2.10309 6.17244 -4.2211 255 0 0
2.07612 6.21372 -4.23149 255 0 0
2.03625 6.1919 -4.22016 255 0 0
1.99649 6.20286 -4.21953 255 0 0
1.96783 6.28371 -4.24281 255 0 0
1.91233 6.3703 -4.26547 255 0 0
1.88615 6.33763 -4.25225 255 0 0
1.89349 6.53189 -4.31644 255 0 0
1.88718 6.56832 -4.32777 255 0 0
1.98241 6.96192 -4.46559 255 0 0
1.93465 7.11329 -4.51089 255 0 0
1.93091 7.23484 -4.55054 255 0 0
1.98316 7.50197 -4.64305 255 0 0
1.94339 7.49519 -4.63738 255 0 0
1.89815 7.54108 -4.64871 255 0 0
1.86597 7.52626 -4.64116 255 0 0
1.7635 7.37438 -4.58263 255 0 0
1.76515 7.45944 -4.61095 255 0 0
1.69188 7.46504 -4.60718 255 0 0
1.40457 6.33661 -4.21072 255 0 0
1.29858 6.27996 -4.18429 255 0 0
1.19178 6.2475 -4.16635 255 0 0
1.14501 6.25715 -4.16667 255 0 0
1.14955 6.22645 -4.18604 255 0 0
1.00302 6.30863 -4.17579 255 0 0
0.85408 6.51224 -4.23715 255 0 0
0.816598 6.58966 -4.26169 255 0 0
0.693907 6.70401 -4.29567 255 0 0
0.67502 6.75607 -4.31267 255 0 0
0.569073 7.04389 -4.40706 255 0 0
0.509728 7.15402 -4.44293 255 0 0
0.497715 7.22709 -4.46747 255 0 0
0.466275 7.27362 -4.48258 255 0 0
0.446296 7.23045 -4.46747 255 0 0
0.405126 7.42161 -4.53166 255 0 0
1.3001 6.06935 -4.34722 255 0 0
4.75931 6.14318 -5.39049 255 0 0
0.698622 6.52294 -4.29553 255 0 0
4.07653 6.40678 -4.65717 255 0 0
3.92206 6.29505 -4.59528 255 0 0
3.86896 6.27594 -4.57981 255 0 0
3.80463 6.23759 -4.5566 255 0 0
3.79843 6.26077 -4.5624 255 0 0
3.58378 6.20163 -4.50632 255 0 0
3.55707 6.22335 -4.50826 255 0 0
3.50304 6.19685 -4.49085 255 0 0
3.41203 6.17175 -4.46764 255 0 0
3.24358 6.17462 -4.44057 255 0 0
3.03506 6.16293 -4.40383 255 0 0
3.0058 6.17725 -4.40383 255 0 0
2.81839 6.08272 -4.34581 255 0 0
2.87184 6.51947 -4.49278 255 0 0
2.8404 6.61751 -4.51986 255 0 0
2.09988 6.1392 -4.27039 255 0 0
1.9654 6.22415 -4.28392 255 0 0
2.25816 7.39481 -4.70551 255 0 0
1.92274 6.40498 -4.34001 255 0 0
1.86624 6.55394 -4.38449 255 0 0
1.95415 7.46373 -4.69971 255 0 0
1.90509 7.49354 -4.70551 255 0 0
1.87621 7.5293 -4.71518 255 0 0
1.78801 7.47688 -4.69004 255 0 0
1.74749 7.46375 -4.68231 255 0 0
1.73553 7.5743 -4.71905 255 0 0
1.63286 7.45006 -4.66877 255 0 0
1.48694 7.45801 -4.66103 255 0 0
1.41202 7.45006 -4.6533 255 0 0
1.33236 7.122 -4.53533 255 0 0
1.10173 6.21462 -4.2085 255 0 0
0.994054 6.20478 -4.19883 255 0 0
0.949468 6.20895 -4.19787 255 0 0
0.800905 6.28001 -4.21527 255 0 0
0.751484 6.43916 -4.26845 255 0 0
0.672182 6.57016 -4.311 255 0 0
0.601278 6.5687 -4.3081 255 0 0
0.573807 6.524 -4.29166 255 0 0
0.52098 6.64486 -4.33227 255 0 0
0.463253 6.72669 -4.35935 255 0 0
0.404021 6.80802 -4.38642 255 0 0
0.375046 6.87056 -4.40769 255 0 0
1.16599 6.15196 -4.79403 255 0 0
2.99176 6.45688 -5.31839 255 0 0
1.1465 6.21004 -4.2688 255 0 0
0.433166 6.18286 -4.46231 255 0 0
4.13053 6.2598 -4.69445 255 0 0
4.02886 6.20122 -4.65683 255 0 0
3.99321 6.17836 -4.64297 255 0 0
3.90479 6.13687 -4.61328 255 0 0
3.87844 6.12749 -4.60536 255 0 0
3.84492 6.12256 -4.59744 255 0 0
3.63541 6.08934 -4.54795 255 0 0
3.60532 6.08799 -4.54201 255 0 0
3.27662 6.09641 -4.48657 255 0 0
3.20538 6.08438 -4.47074 255 0 0
3.16163 6.08861 -4.4648 255 0 0
3.05166 6.08697 -4.44632 255 0 0
2.98005 6.08761 -4.4351 255 0 0
2.94637 6.09173 -4.43114 255 0 0
2.63963 6.08991 -4.38462 255 0 0
2.53471 6.08361 -4.36779 255 0 0
2.45201 6.12928 -4.37175 255 0 0
2.53121 6.34909 -5.18724 255 0 0
2.41396 6.09698 -4.35591 255 0 0
2.38249 6.14482 -4.36779 255 0 0
2.25646 6.07478 -4.32819 255 0 0
2.19606 6.13394 -4.34073 255 0 0
2.18649 6.19974 -4.36185 255 0 0
2.10183 6.12121 -4.32522 255 0 0
2.11259 6.15252 -4.3371 255 0 0
1.95818 6.12533 -4.31038 255 0 0
1.93655 6.15821 -4.31928 255 0 0
1.90803 6.22188 -4.33809 255 0 0
1.88965 6.26779 -4.35195 255 0 0
1.86106 6.25334 -4.34403 255 0 0
1.81437 6.20392 -4.32225 255 0 0
1.75845 6.23145 -4.32621 255 0 0
1.7318 6.19315 -4.31038 255 0 0
1.7418 6.34477 -4.36383 255 0 0
2.00701 7.44903 -4.77166 255 0 0
1.96039 7.41584 -4.75582 255 0 0
1.69362 7.31168 -4.69643 255 0 0
1.33853 6.17716 -4.27078 255 0 0
1.28609 6.18265 -4.2688 255 0 0
1.2339 6.26631 -4.29454 255 0 0
1.13652 6.15587 -4.249 255 0 0
1.08378 6.19894 -4.26088 255 0 0
1.04148 6.21736 -4.26484 255 0 0
0.695454 6.21501 -4.30568 255 0 0
0.932412 6.19564 -4.25098 255 0 0
0.897231 6.21195 -4.25494 255 0 0
0.819748 6.25046 -4.26484 255 0 0
0.758438 6.24154 -4.2589 255 0 0
0.707236 6.25309 -4.26088 255 0 0
0.686792 6.27201 -4.26682 255 0 0
0.601477 6.32319 -4.282 255 0 0
0.373442 6.29274 -4.38381 255 0 0
4.20246 6.30357 -4.79314 255 0 0
4.10596 6.22255 -4.74858 255 0 0
4.00772 6.16867 -4.71212 255 0 0
3.93979 6.12753 -4.68579 255 0 0
3.90468 6.12066 -4.67668 255 0 0
3.75944 6.09827 -4.64123 255 0 0
2.19521 6.08609 -4.38535 255 0 0
2.09587 6.08035 -4.37117 255 0 0
1.94909 6.0886 -4.35699 255 0 0
1.89978 6.09172 -4.3526 255 0 0
1.83073 6.09849 -4.34754 255 0 0
1.80128 6.10533 -4.34686 255 0 0
1.69972 6.10634 -4.3369 255 0 0
1.64697 6.11273 -4.33403 255 0 0
1.54038 6.11968 -4.32661 255 0 0
1.49422 6.11981 -4.32256 255 0 0
1.35134 6.13089 -4.31462 255 0 0
1.24613 6.13632 -4.30855 255 0 0
1.21319 6.16114 -4.31513 255 0 0
1.15068 6.15075 -4.30703 255 0 0
1.14966 6.14537 -4.305 255 0 0
1.04628 6.15637 -4.3023 255 0 0
0.899246 6.17401 -4.30028 255 0 0
0.79864 6.20351 -4.30601 255 0 0
0.797584 6.19536 -4.30298 255 0 0
0.739427 6.20808 -4.305 255 0 0
0.548074 6.23158 -4.30635 255 0 0
0.49922 6.27195 -4.31969 255 0 0
0.464764 6.31181 -4.33336 255 0 0
0.389788 6.31503 -4.33268 255 0 0
4.18554 6.21414 -4.83323 255 0 0
4.13115 6.1649 -4.80631 255 0 0
4.00088 6.12631 -4.76696 255 0 0
3.95949 6.09445 -4.74832 255 0 0
1.24989 6.08081 -4.34756 255 0 0
1.15416 6.0895 -4.34377 255 0 0
1.05138 6.09882 -4.34031 255 0 0
0.95029 6.11724 -4.341 255 0 0
0.747843 6.15446 -4.34446 255 0 0
0.746537 6.1436 -4.34031 255 0 0
0.696437 6.15773 -4.34342 255 0 0
0.645802 6.16784 -4.34515 255 0 0
0.595458 6.18207 -4.3486 255 0 0
0.499915 6.18778 -4.34756 255 0 0
0.501453 6.20691 -4.35481 255 0 0
0.450507 6.21903 -4.35792 255 0 0
0.414922 6.24074 -4.36517 255 0 0
4.10819 6.0993 -4.85095 255 0 0
3.83395 6.12124 -4.80016 255 0 0
3.8483 6.17665 -4.82132 255 0 0
3.76029 6.28157 -4.83825 255 0 0
3.62145 6.19878 -4.78322 255 0 0
0.441793 6.09855 -4.3705 255 0 0
4.21543 6.19492 -4.97683 255 0 0
3.90848 6.11063 -4.88171 255 0 0
3.91262 6.23041 -4.92278 255 0 0
3.81562 6.12421 -4.86657 255 0 0
0.524223 6.12665 -4.44286 255 0 0
0.467333 6.14763 -4.44934 255 0 0
0.399319 6.22874 -4.47961 255 0 0
0.401383 6.26135 -4.49258 255 0 0
4.24169 6.31909 -5.3961 255 0 0
4.13503 6.10785 -5.00148 255 0 0
3.72061 6.1986 -4.94189 255 0 0
3.75126 6.30032 -4.98383 255 0 0
3.69848 6.26227 -4.95955 255 0 0
0.590789 6.0582 -4.47696 255 0 0
0.478604 6.10437 -4.49167 255 0 0
0.408722 6.14748 -4.50712 255 0 0
4.43374 6.11777 -5.37144 255 0 0
4.10646 6.09673 -5.06268 255 0 0
3.93159 6.11477 -5.0289 255 0 0
0.45451 6.07439 -4.53797 255 0 0
0.435605 6.11371 -4.55373 255 0 0
0.414025 6.11791 -4.55486 255 0 0
4.59821 6.32889 -5.41312 255 0 0
4.13668 6.11029 -5.14663 255 0 0
4.10413 6.09328 -5.13285 255 0 0
1.18535 6.09593 -4.64822 255 0 0
1.1648 6.06699 -4.63444 255 0 0
4.74069 6.16432 -5.39283 255 0 0
4.66956 6.23851 -5.39985 255 0 0
4.53321 6.39757 -5.42093 255 0 0
4.4886 6.43111 -5.42171 255 0 0
4.37617 6.56413 -5.442 255 0 0
1.19311 6.13586 -4.78926 255 0 0
1.02032 6.09106 -4.75585 255 0 0
0.360481 6.07434 -4.71529 255 0 0
3.98182 6.09712 -5.32232 255 0 0
3.91054 6.16201 -5.32962 255 0 0
3.85737 6.1263 -5.30288 255 0 0
3.49149 6.51472 -5.37215 255 0 0
3.44104 6.55054 -5.37579 255 0 0
3.3903 6.52897 -5.35635 255 0 0
3.00309 6.09802 -5.10116 255 0 0
1.4148 6.1411 -4.87513 255 0 0
1.15893 6.07521 -4.82167 255 0 0
1.04167 6.0856 -4.81681 255 0 0
0.976687 6.09638 -4.81681 255 0 0
0.975513 6.18287 -4.85569 255 0 0
0.788343 6.12358 -4.81681 255 0 0
3.43841 6.13335 -5.2788 255 0 0
3.36068 6.18233 -5.28127 255 0 0
3.34137 6.21688 -5.29117 255 0 0
3.2872 6.2577 -5.29612 255 0 0
3.25259 6.26379 -5.29117 255 0 0
3.19755 6.32182 -5.30355 255 0 0
3.13228 6.36034 -5.30602 255 0 0
3.02629 6.41144 -5.30602 255 0 0
3.02911 6.45704 -5.32582 255 0 0
3.00258 6.44015 -5.31344 255 0 0
2.73448 6.54122 -5.30602 255 0 0
2.61498 6.46986 -5.25405 255 0 0
2.58382 6.43664 -5.23426 255 0 0
1.41544 6.11076 -4.92494 255 0 0
0.928736 6.17121 -4.91009 255 0 0
0.78837 6.36186 -4.98928 255 0 0
