ply
format ascii 1.0
comment Created by Open3D
element vertex 132
property double x
property double y
property double z
property uchar red
property uchar green
property uchar blue
end_header
-21.4226 -5.63595 -5.05689 255 0 0
-21.3544 -6.60412 -5.46412 255 0 0
-22.2541 -6.70932 -5.40467 255 0 0
-21.5213 -6.48839 -4.9118 255 0 0
-21.5752 -6.72851 -4.9276 255 0 0
-20.4522 -6.27203 -5.49766 255 0 0
-21.1577 -5.67367 -5.20864 255 0 0
-20.9566 -5.51336 -5.54301 255 0 0
-21.3912 -6.55999 -5.27738 255 0 0
-21.3591 -6.05466 -5.25192 255 0 0
-21.3218 -5.93499 -5.43004 255 0 0
-22.0118 -6.40917 -4.77627 255 0 0
-21.6772 -5.64802 -5.09131 255 0 0
-21.4203 -6.90377 -5.10572 255 0 0
-21.1777 -5.7329 -5.21373 255 0 0
-22.149 -5.82705 -4.77346 255 0 0
-21.6485 -6.92071 -4.94415 255 0 0
-21.3116 -5.71493 -5.04489 255 0 0
-21.5357 -6.66018 -4.92008 255 0 0
-21.4864 -6.09073 -4.893 255 0 0
-22.2891 -7.00917 -5.4225 255 0 0
-21.111 -5.60753 -5.3852 255 0 0
-21.4866 -6.42238 -4.90503 255 0 0
-20.504 -6.60843 -5.52222 255 0 0
-22.0356 -6.47281 -4.7812 255 0 0
-21.5152 -5.87903 -4.88924 255 0 0
-22.0086 -6.01386 -4.7629 255 0 0
-22.3974 -5.72239 -4.99454 255 0 0
-21.3653 -5.83807 -5.24428 255 0 0
-20.5707 -6.68381 -5.53639 255 0 0
-23.2081 -5.57904 -5.49633 255 0 0
-21.409 -6.84413 -5.10172 255 0 0
-20.9835 -6.92814 -5.42466 255 0 0
-21.6649 -6.86936 -4.94415 255 0 0
-21.7051 -5.60035 -5.47398 255 0 0
-21.9943 -6.06603 -4.7629 255 0 0
-21.4815 -5.97943 -4.88848 255 0 0
-20.4554 -6.37927 -5.50332 255 0 0
-22.2908 -6.66275 -5.21058 255 0 0
-20.7799 -6.80631 -5.57513 255 0 0
-21.529 -5.828 -4.88924 255 0 0
-22.2598 -6.88414 -5.21538 255 0 0
-21.2327 -5.63985 -5.21798 255 0 0
-21.5845 -5.7333 -4.893 255 0 0
-21.4784 -6.03349 -4.88999 255 0 0
-21.4083 -5.90442 -5.4417 255 0 0
-21.2977 -5.6031 -5.413 255 0 0
-21.2023 -6.88903 -5.2655 255 0 0
-20.7126 -5.5543 -5.50616 255 0 0
-21.3838 -5.57155 -5.42466 255 0 0
-22.2213 -6.92999 -5.21218 255 0 0
-21.3713 -6.05812 -5.4426 255 0 0
-22.3298 -5.64874 -5.17856 255 0 0
-20.5198 -5.71175 -5.48254 255 0 0
-24.6253 -6.79167 -5.52515 255 0 0
-21.0871 -5.49425 -5.56285 255 0 0
-20.456 -6.22016 -5.49577 255 0 0
-21.1528 -6.92847 -5.26041 255 0 0
-21.3355 -5.99335 -5.43453 255 0 0
-22.2916 -6.72061 -5.21298 255 0 0
-21.4739 -6.36317 -4.90127 255 0 0
-21.3932 -5.95486 -5.25277 255 0 0
-21.5337 -6.54785 -4.91556 255 0 0
-21.3979 -5.68375 -5.05529 255 0 0
-21.6236 -5.63405 -5.27314 255 0 0
-21.5357 -6.82842 -5.11773 255 0 0
-21.4128 -5.90566 -5.25362 255 0 0
-21.4684 -6.19577 -4.8945 255 0 0
-21.0549 -6.89638 -5.43363 255 0 0
-22.1548 -5.94105 -4.77768 255 0 0
-20.452 -6.11316 -5.4901 255 0 0
-22.2533 -6.65156 -5.40213 255 0 0
-21.3627 -6.88521 -5.47847 255 0 0
-21.4956 -5.92848 -4.88848 255 0 0
-24.5574 -6.71033 -5.51315 255 0 0
-21.418 -6.01653 -5.25871 255 0 0
-22.6372 -5.72649 -4.82766 255 0 0
-22.4151 -5.72691 -4.80161 255 0 0
-22.227 -5.73502 -4.77979 255 0 0
-22.1857 -5.89298 -4.77979 255 0 0
-22.0509 -5.96926 -4.76642 255 0 0
-22.0022 -6.12439 -4.76571 255 0 0
-22.0065 -6.23817 -4.76994 255 0 0
-22.0699 -6.31271 -4.77979 255 0 0
-22.133 -6.38759 -4.78965 255 0 0
-22.1316 -6.55807 -4.79528 255 0 0
-21.9322 -6.55559 -4.77205 255 0 0
-20.4869 -5.91251 -5.48632 255 0 0
-22.9955 -5.70127 -5.06901 255 0 0
-21.8283 -5.74268 -4.92384 255 0 0
-21.5821 -5.78747 -4.8945 255 0 0
-21.4998 -6.14964 -4.89676 255 0 0
-21.4704 -6.25153 -4.89676 255 0 0
-21.4889 -6.31224 -4.90127 255 0 0
-21.5569 -6.6108 -4.92083 255 0 0
-21.7199 -6.83016 -4.94941 255 0 0
-23.2335 -5.64345 -5.29943 255 0 0
-24.5253 -6.82671 -5.51315 255 0 0
-22.2898 -6.60494 -5.20818 255 0 0
-21.5408 -6.77385 -5.11613 255 0 0
-22.3336 -5.59339 -5.37243 255 0 0
-21.3973 -5.62929 -5.24089 255 0 0
-22.2735 -6.54269 -5.40043 255 0 0
-22.2635 -6.59713 -5.40128 255 0 0
-22.2603 -6.76881 -5.40807 255 0 0
-21.5195 -6.65519 -5.29944 255 0 0
-21.9793 -6.85453 -5.37243 255 0 0
-21.3123 -6.86896 -5.27993 255 0 0
-21.0083 -5.63359 -5.37086 255 0 0
-20.9725 -5.67734 -5.36727 255 0 0
-20.9813 -5.73315 -5.37086 255 0 0
-21.0169 -6.28199 -5.39955 255 0 0
-21.0463 -6.34517 -5.40673 255 0 0
-22.0221 -6.69637 -5.56724 255 0 0
-21.3534 -6.54838 -5.46143 255 0 0
-21.3718 -6.66507 -5.4695 255 0 0
-21.3725 -6.72093 -5.47219 255 0 0
-21.0877 -6.8518 -5.43632 255 0 0
-20.8653 -5.54226 -5.52978 255 0 0
-20.6414 -5.64027 -5.4986 255 0 0
-20.589 -5.67844 -5.49199 255 0 0
-20.5229 -5.76507 -5.48537 255 0 0
-20.5036 -5.81214 -5.48443 255 0 0
-20.4897 -5.86074 -5.48443 255 0 0
-20.4753 -6.01448 -5.48915 255 0 0
-20.4665 -6.06465 -5.4901 255 0 0
-20.443 -6.1633 -5.49104 255 0 0
-20.4484 -6.32392 -5.49954 255 0 0
-20.4678 -6.43642 -5.50805 255 0 0
-20.513 -6.50414 -5.51844 255 0 0
-20.481 -6.54748 -5.51561 255 0 0
-20.7363 -6.84651 -5.57041 255 0 0
