ply
format ascii 1.0
comment Created by Open3D
element vertex 117
property double x
property double y
property double z
property uchar red
property uchar green
property uchar blue
end_header
22.7858 -1.1084 -5.14814 255 0 0
22.4789 -0.506414 -5.2935 255 0 0
22.7678 -1.43243 -5.14814 255 0 0
23.5383 -1.42488 -5.05472 255 0 0
22.3026 -1.24396 -4.5168 255 0 0
21.7622 -0.180599 -5.00326 255 0 0
22.5189 -0.507315 -4.91782 255 0 0
21.8662 -0.0259225 -5.38879 255 0 0
22.6463 -1.15544 -5.32151 255 0 0
23.6722 -1.09526 -5.06977 255 0 0
22.3401 -0.503287 -4.32986 255 0 0
22.6627 -0.56432 -4.93662 255 0 0
22.3835 -1.35498 -4.52664 255 0 0
22.1097 -1.18062 -4.68124 255 0 0
22.6782 -1.21098 -5.3266 255 0 0
22.1567 -0.288953 -4.68335 255 0 0
22.1512 -0.499033 -4.49648 255 0 0
22.4 -0.239007 -4.52401 255 0 0
21.9827 -0.286683 -4.84786 255 0 0
22.3724 -0.610171 -4.3335 255 0 0
22.4543 -0.186342 -4.71925 255 0 0
21.7256 0.0257559 -5.18233 255 0 0
22.1297 -0.656064 -4.49451 255 0 0
22.1038 -1.28545 -4.68124 255 0 0
22.4368 -1.46502 -5.2935 255 0 0
22.662 -0.51054 -5.12813 255 0 0
22.101 -1.23272 -4.68054 255 0 0
22.2036 -1.13285 -4.505 255 0 0
21.8001 -1.47536 -5.01527 255 0 0
22.126 -0.3935 -4.67983 255 0 0
22.2539 -0.29022 -4.50762 255 0 0
22.0834 -1.12672 -4.67772 255 0 0
22.0923 -0.602531 -4.67631 255 0 0
22.3635 -1.30055 -4.52401 255 0 0
22.1361 -0.813883 -4.49582 255 0 0
23.742 -0.703864 -5.27782 255 0 0
22.1455 -0.709091 -4.49648 255 0 0
22.1059 -1.44341 -4.86968 255 0 0
22.3554 -0.185522 -4.89601 255 0 0
22.5326 -0.400731 -4.91932 255 0 0
22.1669 -0.920292 -4.49976 255 0 0
22.3592 -0.662869 -4.33229 255 0 0
23.7867 -0.761639 -5.28422 255 0 0
22.0217 -0.809676 -4.66857 255 0 0
22.3854 -0.557414 -4.33471 255 0 0
21.8063 0.129259 -5.19422 255 0 0
22.4415 -1.09165 -4.34261 255 0 0
22.0119 -0.75706 -4.66716 255 0 0
22.1927 -1.44908 -4.69321 255 0 0
22.0659 -0.706542 -4.6735 255 0 0
22.8315 -1.27346 -5.34951 255 0 0
22.3672 -0.928611 -4.33411 255 0 0
22.3761 -0.451021 -4.3335 255 0 0
22.4778 -0.29314 -4.34382 255 0 0
22.2237 -1.08105 -4.50697 255 0 0
22.3975 -1.03628 -4.33775 255 0 0
22.7065 -1.26649 -4.37115 255 0 0
22.4942 -1.20116 -4.34868 255 0 0
22.4563 -1.14574 -4.34443 255 0 0
22.4057 -0.983429 -4.33836 255 0 0
22.3461 -0.874664 -4.33168 255 0 0
22.3947 -0.823391 -4.33654 255 0 0
22.3907 -0.77009 -4.33593 255 0 0
22.311 -0.71439 -4.32743 255 0 0
22.4295 -0.398898 -4.33896 255 0 0
22.5294 -0.347242 -4.34929 255 0 0
22.7579 -0.242826 -4.37297 255 0 0
23.5524 -0.363009 -5.2506 255 0 0
23.516 -1.19981 -5.05021 255 0 0
22.6398 -0.563748 -5.31727 255 0 0
22.4035 -1.40951 -4.52926 255 0 0
22.2474 -1.18797 -4.51025 255 0 0
22.1855 -1.02647 -4.50238 255 0 0
22.1937 -0.974123 -4.50304 255 0 0
22.1341 -0.866366 -4.49582 255 0 0
22.1554 -0.761996 -4.49779 255 0 0
22.0963 -0.602641 -4.49058 255 0 0
22.1093 -0.550538 -4.49189 255 0 0
22.1524 -0.446511 -4.49648 255 0 0
22.165 -0.394193 -4.49779 255 0 0
22.2357 -0.342714 -4.50566 255 0 0
23.6028 -1.31648 -5.06224 255 0 0
22.1602 -1.49974 -4.68969 255 0 0
22.1729 -1.395 -4.69039 255 0 0
22.1065 -1.33821 -4.68195 255 0 0
22.0628 -1.07322 -4.67491 255 0 0
22.0652 -1.02091 -4.67491 255 0 0
22.0502 -0.967824 -4.6728 255 0 0
21.9885 -0.912888 -4.66505 255 0 0
22.0545 -0.863251 -4.6728 255 0 0
22.0791 -0.654566 -4.67491 255 0 0
22.0994 -0.550293 -4.67702 255 0 0
22.0832 -0.497501 -4.67491 255 0 0
22.0844 -0.44514 -4.67491 255 0 0
22.1108 -0.235922 -4.67772 255 0 0
23.629 -1.14941 -5.0645 255 0 0
21.9749 -1.4872 -4.85313 255 0 0
22.7941 -1.21717 -4.95693 255 0 0
22.4852 -0.453219 -4.91331 255 0 0
21.8091 -0.232702 -4.8253 255 0 0
21.7965 -1.52704 -5.01527 255 0 0
22.0697 -1.44105 -5.05209 255 0 0
23.6106 -1.42926 -5.26421 255 0 0
23.915 -1.39079 -5.30583 255 0 0
22.6326 -1.26237 -5.12813 255 0 0
22.6181 -1.20777 -5.12573 255 0 0
22.6209 -1.15414 -5.12573 255 0 0
23.5938 -1.09163 -5.25941 255 0 0
23.6103 -0.643932 -5.25941 255 0 0
22.698 -0.457508 -5.13294 255 0 0
23.5996 -0.30777 -5.257 255 0 0
21.7269 -0.231825 -4.99846 255 0 0
23.3289 -0.0829699 -5.21938 255 0 0
21.7313 0.077288 -5.18318 255 0 0
22.7871 -1.43364 -5.34442 255 0 0
22.6374 -1.10118 -5.31981 255 0 0
22.5505 -0.401049 -5.30369 255 0 0
