ply
format ascii 1.0
comment Created by Open3D
element vertex 922
property double x
property double y
property double z
property uchar red
property uchar green
property uchar blue
end_header
-14.0173 -2.95052 -4.95775 255 0 0
-12.2485 -3.75622 -3.55145 255 0 0
-16.0471 -2.82518 -4.1107 255 0 0
-12.2761 -3.07452 -3.4259 255 0 0
-15.0706 -4.4269 -4.1676 255 0 0
-16.1117 -3.11308 -3.98717 255 0 0
-16.1506 -3.00158 -3.98929 255 0 0
-15.1499 -4.21703 -3.37584 255 0 0
-15.1492 -4.21682 -3.24417 255 0 0
-11.9527 -3.55725 -5.01042 255 0 0
-12.1671 -3.04723 -3.83727 255 0 0
-15.0832 -4.62553 -3.64493 255 0 0
-12.3919 -2.91682 -4.85005 255 0 0
-12.1958 -3.51971 -3.85933 255 0 0
-14.1948 -3.05826 -3.7584 255 0 0
-13.5937 -2.92875 -4.63108 255 0 0
-12.2966 -3.77097 -3.12527 255 0 0
-12.315 -2.92956 -5.05576 255 0 0
-12.8247 -2.95458 -4.377 255 0 0
-15.1412 -2.96282 -5.05224 255 0 0
-12.2046 -3.77445 -3.65486 255 0 0
-13.9367 -2.93357 -5.06439 255 0 0
-14.0398 -3.05973 -3.7401 255 0 0
-12.2057 -3.67985 -3.43639 255 0 0
-12.0495 -2.92685 -5.10259 255 0 0
-12.3202 -3.84222 -3.34557 255 0 0
-12.0111 -3.37402 -4.46815 255 0 0
-15.1772 -2.96987 -4.66069 255 0 0
-15.1524 -3.11451 -3.35338 255 0 0
-13.83 -2.94537 -4.55393 255 0 0
-12.0541 -3.61857 -4.16529 255 0 0
-14.8126 -3.04466 -3.70387 255 0 0
-12.8278 -3.01944 -3.81861 255 0 0
-11.9964 -3.50843 -4.4727 255 0 0
-15.2052 -4.46644 -3.25387 255 0 0
-16.0901 -3.06934 -4.26045 255 0 0
-11.9928 -3.0338 -4.76946 255 0 0
-12.1959 -3.51974 -3.64433 255 0 0
-16.1172 -2.95586 -4.26125 255 0 0
-15.0435 -4.57434 -4.30316 255 0 0
-12.2354 -3.17247 -3.53068 255 0 0
-14.3812 -2.95598 -4.65175 255 0 0
-15.1326 -4.60146 -3.91537 255 0 0
-12.2336 -3.34283 -3.64282 255 0 0
-12.1872 -3.02156 -3.94593 255 0 0
-13.095 -3.08232 -3.40265 255 0 0
-12.4038 -3.0129 -3.97822 255 0 0
-12.1283 -3.53141 -4.06534 255 0 0
-14.2914 -2.93754 -4.76062 255 0 0
-15.1504 -4.50893 -3.51543 255 0 0
-12.1913 -3.62826 -3.64771 255 0 0
-16.1533 -3.12112 -3.71536 255 0 0
-12.2569 -3.27126 -3.2162 255 0 0
-15.132 -4.48393 -3.64553 255 0 0
-15.056 -4.61718 -4.03999 255 0 0
-12.0736 -2.99339 -4.78481 255 0 0
-15.049 -4.36246 -4.2951 255 0 0
-15.7885 -2.97303 -5.17837 255 0 0
-12.1801 -3.17354 -3.73696 255 0 0
-13.1761 -3.10141 -3.07098 255 0 0
-12.745 -2.99994 -3.91789 255 0 0
-12.1749 -3.15678 -3.62929 255 0 0
-12.7465 -2.96842 -4.25166 255 0 0
-13.5742 -3.02574 -3.80154 255 0 0
-12.2664 -3.2738 -3.32371 255 0 0
-14.374 -2.9545 -4.52468 255 0 0
-13.9011 -2.96051 -4.44525 255 0 0
-15.1137 -4.55657 -3.77861 255 0 0
-13.5728 -2.99166 -4.15398 255 0 0
-15.3813 -2.97195 -4.56136 255 0 0
-12.2874 -3.51461 -3.11812 255 0 0
-14.7788 -3.07425 -3.57388 255 0 0
-13.7337 -2.92487 -5.02128 255 0 0
-12.6431 -3.00761 -4.01408 255 0 0
-15.0506 -3.13078 -3.08781 255 0 0
-12.037 -3.52029 -4.26513 255 0 0
-12.1654 -3.21597 -3.63004 255 0 0
-16.1791 -2.96721 -3.85335 255 0 0
-14.8983 -3.09912 -3.20399 255 0 0
-12.1471 -3.38118 -4.06156 255 0 0
-14.1946 -2.95273 -4.37051 255 0 0
-12.2884 -3.01574 -3.85339 255 0 0
-13.3386 -2.94006 -5.17731 255 0 0
-15.7517 -2.96611 -5.03276 255 0 0
-13.2441 -3.08429 -3.41783 255 0 0
-13.0309 -3.06723 -3.62113 255 0 0
-15.0829 -4.70379 -3.91326 255 0 0
-12.2952 -3.51683 -3.54863 255 0 0
-12.9196 -3.10577 -3.16252 255 0 0
-15.1435 -4.56557 -3.91537 255 0 0
-12.2324 -3.46751 -3.75457 255 0 0
-12.1101 -3.18599 -4.04738 255 0 0
-13.1276 -2.95888 -4.3152 255 0 0
-12.5858 -3.12039 -3.13445 255 0 0
-12.0159 -3.31397 -4.46588 255 0 0
-12.0824 -3.01078 -4.24899 255 0 0
-16.0131 -2.78006 -4.24284 255 0 0
-13.2111 -3.0436 -3.52752 255 0 0
-15.0788 -4.5851 -3.51096 255 0 0
-14.871 -3.09343 -3.4562 255 0 0
-15.2344 -4.51428 -3.39013 255 0 0
-16.0902 -2.83277 -4.39312 255 0 0
-14.4732 -2.93914 -4.79436 255 0 0
-12.0119 -2.97811 -4.87881 255 0 0
-11.9427 -3.11168 -4.87085 255 0 0
-14.2257 -2.95919 -4.49986 255 0 0
-15.343 -2.96456 -4.82243 255 0 0
-12.0448 -3.04697 -4.45792 255 0 0
-13.0745 -3.11023 -3.17579 255 0 0
-11.9858 -3.36694 -4.89606 255 0 0
-12.2702 -3.41546 -3.43508 255 0 0
-15.203 -3.01235 -4.13879 255 0 0
-13.0126 -2.90056 -4.86855 255 0 0
-14.2128 -2.9917 -4.1275 255 0 0
-12.2928 -3.37468 -3.5437 255 0 0
-13.6065 -3.06684 -3.45426 255 0 0
-12.5164 -2.94614 -4.43296 255 0 0
-12.5788 -3.08701 -3.35043 255 0 0
-13.4921 -3.04105 -3.55833 255 0 0
-13.2992 -3.03072 -3.76694 255 0 0
-16.1821 -2.92812 -4.13026 255 0 0
-12.3465 -2.90614 -5.17366 255 0 0
-14.3866 -3.09959 -3.28755 255 0 0
-12.2783 -3.3707 -3.22067 255 0 0
-14.3674 -2.98867 -4.14956 255 0 0
-12.7544 -2.93839 -5.04464 255 0 0
-12.3207 -3.77835 -3.23548 255 0 0
-13.3592 -3.07772 -3.42937 255 0 0
-12.6074 -2.93603 -4.44929 255 0 0
-12.3073 -3.74235 -3.23324 255 0 0
-12.9849 -2.9915 -3.95183 255 0 0
-12.1361 -3.50247 -3.95759 255 0 0
-16.2491 -2.98006 -4.00055 255 0 0
-14.0236 -2.95186 -4.34311 255 0 0
-15.0449 -4.30333 -4.29213 255 0 0
-15.0823 -4.50812 -3.64128 255 0 0
-15.134 -4.25127 -3.50704 255 0 0
-16.9693 -3.02904 -4.81834 255 0 0
-12.0263 -3.20971 -4.46247 255 0 0
-15.1839 -4.5385 -3.25387 255 0 0
-12.2545 -3.1774 -3.21368 255 0 0
-11.9453 -3.15778 -4.87417 255 0 0
-12.0235 -3.65606 -4.26981 255 0 0
-11.9911 -3.06364 -4.77074 255 0 0
-12.2279 -3.68653 -3.33161 255 0 0
-14.4223 -3.07151 -3.53745 255 0 0
-12.2732 -3.21333 -3.10996 255 0 0
-14.5482 -3.02628 -3.9249 255 0 0
-16.189 -2.88975 -4.13026 255 0 0
-13.3402 -2.97359 -5.05984 255 0 0
-16.4404 -2.97487 -5.16121 255 0 0
-12.8772 -2.96669 -4.2735 255 0 0
-11.9615 -3.17722 -4.77074 255 0 0
-15.7724 -3.00875 -4.48846 255 0 0
-12.0922 -3.31961 -4.05022 255 0 0
-12.1698 -3.44978 -4.06817 255 0 0
-16.1589 -2.92393 -3.98858 255 0 0
-14.5845 -2.96176 -4.56042 255 0 0
-12.1505 -3.47544 -4.06628 255 0 0
-12.0432 -3.27548 -4.2542 255 0 0
-12.0759 -3.26899 -4.15238 255 0 0
-13.1305 -2.92685 -4.77778 255 0 0
-14.731 -3.10077 -3.19106 255 0 0
-12.2557 -3.72666 -3.65937 255 0 0
-14.8304 -3.01169 -4.08836 255 0 0
-13.1506 -2.99685 -4.09031 255 0 0
-15.1519 -4.14026 -4.1676 255 0 0
-12.3199 -3.42929 -3.54863 255 0 0
-14.0625 -3.09961 -3.13933 255 0 0
-14.9794 -2.96805 -5.15312 255 0 0
-13.5868 -3.06238 -3.6866 255 0 0
-12.599 -2.96558 -4.22684 255 0 0
-14.1498 -2.97842 -4.24096 255 0 0
-11.9502 -3.63376 -4.6875 255 0 0
-12.2638 -3.66567 -3.55004 255 0 0
-12.231 -3.71915 -3.76418 255 0 0
-15.1215 -4.20913 -3.50481 255 0 0
-12.0718 -3.02336 -4.67764 255 0 0
-12.037 -3.31982 -4.25524 255 0 0
-14.573 -2.99542 -4.17926 255 0 0
-15.1145 -4.40088 -4.1724 255 0 0
-14.9369 -2.95964 -5.01246 255 0 0
-12.2749 -3.73248 -3.44557 255 0 0
-15.0438 -3.09219 -3.4724 255 0 0
-16.3132 -3.1119 -4.01111 255 0 0
-12.2212 -3.27726 -3.63906 255 0 0
-14.734 -2.95575 -4.7142 255 0 0
-12.2898 -2.95436 -4.39159 255 0 0
-14.2095 -2.95582 -4.99683 255 0 0
-16.0224 -3.13526 -3.29174 255 0 0
-15.6219 -2.98004 -4.73614 255 0 0
-12.8141 -3.08041 -3.37411 255 0 0
-15.0695 -4.56276 -4.03962 255 0 0
-12.074 -3.36083 -3.94235 255 0 0
-15.2791 -3.02743 -3.75501 255 0 0
-13.7042 -2.98658 -4.17371 255 0 0
-11.9338 -3.56703 -4.89739 255 0 0
-16.0834 -2.87091 -4.39312 255 0 0
-13.5367 -3.08483 -3.33103 255 0 0
-15.123 -4.2482 -3.3743 255 0 0
-12.0119 -3.16014 -4.56465 255 0 0
-12.0654 -3.08263 -4.46361 255 0 0
-12.1477 -3.5683 -4.07006 255 0 0
-12.9586 -3.05022 -3.49999 255 0 0
-12.24 -2.97312 -4.27501 255 0 0
-13.9509 -2.93655 -4.82042 255 0 0
-12.7628 -3.00414 -4.03202 255 0 0
-14.9436 -3.03468 -3.9753 255 0 0
-12.2544 -3.22394 -3.2148 255 0 0
-12.5423 -2.95224 -4.66056 255 0 0
-12.267 -3.44591 -3.543 255 0 0
-15.3542 -3.08016 -3.63278 255 0 0
-12.1644 -3.51065 -4.07006 255 0 0
-11.9724 -3.05886 -4.98294 255 0 0
-14.613 -3.00363 -4.05874 255 0 0
-12.013 -3.31319 -4.35785 255 0 0
-15.1009 -4.2034 -3.76615 255 0 0
-14.3612 -3.0585 -3.77811 255 0 0
-12.1186 -3.21895 -3.94324 255 0 0
-12.0971 -3.55345 -3.954 255 0 0
-12.2902 -3.57854 -3.33464 255 0 0
-12.2249 -3.24718 -3.53174 255 0 0
-16.1755 -2.92694 -4.26846 255 0 0
-12.2636 -2.97884 -4.17124 255 0 0
-12.1129 -2.94224 -5.00905 255 0 0
-14.5765 -3.10436 -3.30388 255 0 0
-15.1031 -4.67083 -3.78123 255 0 0
-12.3319 -3.05745 -3.64583 255 0 0
-12.3147 -3.49084 -3.55004 255 0 0
-12.1532 -3.66404 -3.85933 255 0 0
-14.5299 -2.98655 -4.42531 255 0 0
-15.0679 -4.11731 -4.02344 255 0 0
-13.2494 -3.08553 -3.30421 255 0 0
-15.068 -4.27132 -3.37022 255 0 0
-12.143 -3.07181 -3.83472 255 0 0
-12.225 -2.93879 -5.03515 255 0 0
-13.4063 -2.95498 -4.36186 255 0 0
-15.2969 -2.95564 -4.94785 255 0 0
-12.3395 -3.81617 -3.23827 255 0 0
-15.8609 -2.98666 -4.63883 255 0 0
-15.0877 -4.4125 -3.50704 255 0 0
-15.101 -4.43583 -3.77337 255 0 0
-12.1377 -3.16249 -3.83727 255 0 0
-15.1176 -4.55774 -3.51375 255 0 0
-12.3367 -2.96564 -4.29166 255 0 0
-13.4771 -3.10489 -3.20998 255 0 0
-11.9346 -3.12467 -5.196 255 0 0
-15.1424 -4.46749 -3.91185 255 0 0
-15.1908 -4.30612 -3.24925 255 0 0
-13.1457 -2.93024 -4.54835 255 0 0
-12.3311 -3.02622 -3.75217 255 0 0
-12.115 -3.46529 -3.84575 255 0 0
-13.6484 -2.94053 -4.52166 255 0 0
-12.0246 -3.04186 -4.5611 255 0 0
-12.2904 -2.92371 -4.82831 255 0 0
-12.2927 -3.64258 -3.12169 255 0 0
-12.2397 -3.1117 -3.42295 255 0 0
-12.2705 -3.21264 -3.3225 255 0 0
-13.8696 -2.9882 -4.19881 255 0 0
-15.3662 -3.00684 -4.42659 255 0 0
-12.3183 -3.55505 -3.12169 255 0 0
-14.3324 -2.98139 -4.26876 255 0 0
-15.093 -4.20117 -4.02946 255 0 0
-12.2367 -3.25034 -3.42656 255 0 0
-12.0633 -3.66814 -4.16926 255 0 0
-12.1239 -3.282 -3.83981 255 0 0
-12.098 -2.93862 -4.89606 255 0 0
-12.0635 -3.41963 -3.94324 255 0 0
-14.0946 -3.07166 -3.50405 255 0 0
-15.2684 -3.06296 -3.88581 255 0 0
-12.0162 -3.46788 -4.58241 255 0 0
-15.9736 -2.9687 -5.07413 255 0 0
-12.2339 -3.51499 -3.75657 255 0 0
-15.0644 -4.3863 -4.03247 255 0 0
-12.2164 -3.16753 -3.42197 255 0 0
-13.1332 -2.99288 -3.97305 255 0 0
-14.8976 -4.5686 -4.41493 255 0 0
-14.3456 -2.94867 -5.02406 255 0 0
-12.2683 -3.28989 -3.43115 255 0 0
-15.1603 -3.0039 -4.3952 255 0 0
-12.2807 -2.983 -4.06628 255 0 0
-13.7445 -3.06371 -3.46823 255 0 0
-13.6682 -3.01269 -3.93147 255 0 0
-12.1976 -3.3641 -3.85339 255 0 0
-13.5398 -2.91713 -5.10078 255 0 0
-15.1299 -4.36649 -3.64189 255 0 0
-12.1391 -3.0708 -3.94055 255 0 0
-11.9893 -3.09349 -4.77202 255 0 0
-14.6526 -3.08426 -3.43552 255 0 0
-12.1724 -2.98728 -4.15635 255 0 0
-12.5234 -3.01053 -3.99615 255 0 0
-14.336 -2.94669 -4.89542 255 0 0
-12.2257 -3.46562 -3.32493 255 0 0
-11.9661 -3.26976 -4.77714 255 0 0
-13.7646 -2.93144 -5.15067 255 0 0
-15.676 -3.14473 -3.3988 255 0 0
-13.7648 -3.10251 -3.23448 255 0 0
-12.7474 -2.96863 -4.13998 255 0 0
-12.8657 -2.99618 -4.04726 255 0 0
-12.0029 -3.26451 -4.67641 255 0 0
-15.2464 -4.59658 -3.39319 255 0 0
-12.0262 -3.20969 -4.35513 255 0 0
-16.3283 -2.99457 -4.99831 255 0 0
-12.0913 -3.07397 -4.14642 255 0 0
-12.6777 -2.9524 -4.68779 255 0 0
-15.2447 -3.09581 -3.23077 255 0 0
-13.8622 -3.05547 -3.71898 255 0 0
-12.056 -3.51035 -4.16032 255 0 0
-12.0276 -3.56404 -3.94414 255 0 0
-12.762 -2.94015 -4.59088 255 0 0
-12.4463 -3.08581 -3.55285 255 0 0
-13.2109 -3.0106 -3.86984 255 0 0
-12.1445 -3.69284 -3.85933 255 0 0
-12.8935 -3.06718 -3.60494 255 0 0
-16.0194 -2.78116 -4.10619 255 0 0
-16.1315 -3.03762 -4.26526 255 0 0
-12.4827 -3.06342 -3.44819 255 0 0
-12.2938 -3.77009 -3.34071 255 0 0
-14.7504 -2.99545 -4.20472 255 0 0
-14.5466 -3.09799 -3.17674 255 0 0
-16.002 -3.17068 -3.15435 255 0 0
-12.1226 -3.37437 -3.84321 255 0 0
-11.9577 -3.29793 -4.88545 255 0 0
-14.4582 -3.00756 -4.03793 255 0 0
-11.9543 -3.51151 -5.00767 255 0 0
-12.1361 -2.97836 -4.68873 255 0 0
-16.2116 -2.89378 -3.99421 255 0 0
-12.1654 -2.95499 -4.80272 255 0 0
-12.2924 -3.67423 -3.44557 255 0 0
-14.9388 -2.96 -4.75062 255 0 0
-12.0087 -3.43488 -4.36329 255 0 0
-12.2232 -3.37116 -3.74977 255 0 0
-16.091 -2.87227 -4.25565 255 0 0
-12.0272 -3.5639 -4.26565 255 0 0
-16.5224 -2.98971 -5.03266 255 0 0
-14.7568 -3.06968 -3.82527 255 0 0
-15.7482 -3.15921 -3.13658 255 0 0
-15.4201 -3.13145 -3.11343 255 0 0
-15.2639 -3.13743 -3.10269 255 0 0
-14.8602 -3.12796 -3.07458 255 0 0
-13.7022 -2.95214 -4.4115 255 0 0
-12.0099 -3.34299 -4.57412 255 0 0
-12.3318 -3.08848 -3.53948 255 0 0
-15.3399 -3.00171 -4.28958 255 0 0
-11.9675 -3.07274 -4.87417 255 0 0
-15.0159 -4.2181 -4.02043 255 0 0
-12.2693 -3.29014 -3.75297 255 0 0
-15.4335 -2.98204 -4.70437 255 0 0
-12.7728 -3.03845 -3.70075 255 0 0
-15.1493 -2.96441 -4.78809 255 0 0
-14.5038 -2.98118 -4.29477 255 0 0
-12.1338 -3.02359 -4.04455 255 0 0
-15.1077 -4.24391 -3.76812 255 0 0
-12.3282 -2.93269 -4.9478 255 0 0
-15.8546 -3.14147 -3.2788 255 0 0
-15.5553 -3.1205 -3.25525 255 0 0
-15.0943 -3.10257 -3.21923 255 0 0
-14.3624 -3.09436 -3.16242 255 0 0
-14.2067 -3.09609 -3.15042 255 0 0
-13.7288 -3.09439 -3.11347 255 0 0
-13.5905 -3.0971 -3.10285 255 0 0
-13.4466 -3.09787 -3.09176 255 0 0
-13.3028 -3.09797 -3.08068 255 0 0
-12.0295 -3.27174 -4.57412 255 0 0
-13.2697 -2.95788 -4.33902 255 0 0
-12.0733 -3.37609 -4.15685 255 0 0
-12.7551 -3.09824 -3.25839 255 0 0
-16.2563 -3.02123 -4.42197 255 0 0
-12.2453 -3.43982 -3.43312 255 0 0
-15.2712 -3.02586 -4.01667 255 0 0
-12.2819 -3.54455 -3.33282 255 0 0
-12.168 -3.57426 -3.64282 255 0 0
-16.08 -3.14653 -3.4335 255 0 0
-15.8608 -3.1427 -3.41462 255 0 0
-15.3313 -3.1134 -3.36869 255 0 0
-14.9566 -3.11123 -3.33654 255 0 0
-14.7665 -3.10823 -3.32021 255 0 0
-14.2254 -3.10016 -3.27377 255 0 0
-14.0813 -3.10375 -3.26152 255 0 0
-13.9315 -3.1054 -3.24876 255 0 0
-13.6152 -3.10274 -3.22172 255 0 0
-13.339 -3.10641 -3.19824 255 0 0
-13.1954 -3.10595 -3.186 255 0 0
-12.8215 -3.11437 -3.15435 255 0 0
-12.6951 -3.11556 -3.14364 255 0 0
-12.4765 -3.12471 -3.12527 255 0 0
-12.3786 -3.1314 -3.1171 255 0 0
-12.3024 -3.15872 -3.11123 255 0 0
-12.2786 -3.26145 -3.11149 255 0 0
-12.2951 -3.31271 -3.11404 255 0 0
-12.3113 -3.36408 -3.11659 255 0 0
-12.3358 -3.41794 -3.11991 255 0 0
-12.3167 -3.47563 -3.11965 255 0 0
-12.2986 -3.58099 -3.12067 255 0 0
-12.3125 -3.61671 -3.12271 255 0 0
-12.3231 -3.68341 -3.12527 255 0 0
-12.2848 -3.71959 -3.12297 255 0 0
-12.3211 -3.81046 -3.12833 255 0 0
-12.1696 -3.35639 -3.6353 255 0 0
-16.1044 -2.99301 -4.26045 255 0 0
-11.9635 -3.1474 -4.76946 255 0 0
-12.5106 -2.91348 -4.76386 255 0 0
-15.1037 -4.22346 -3.89918 255 0 0
-15.0263 -4.5108 -4.29807 255 0 0
-12.2332 -3.21835 -3.42525 255 0 0
-12.337 -3.86352 -3.56552 255 0 0
-11.9729 -3.57871 -4.79761 255 0 0
-12.2554 -3.75834 -3.76898 255 0 0
-13.1196 -2.95708 -4.42904 255 0 0
-12.6335 -2.97369 -4.12202 255 0 0
-16.0809 -3.10714 -3.57019 255 0 0
-16.0392 -3.13854 -3.56683 255 0 0
-15.8488 -3.14031 -3.54895 255 0 0
-15.5441 -3.11826 -3.5199 255 0 0
-15.2282 -3.09247 -3.48972 255 0 0
-14.4856 -3.08499 -3.41987 255 0 0
-14.3244 -3.08619 -3.40479 255 0 0
-14.1747 -3.08911 -3.39082 255 0 0
-14.025 -3.09135 -3.37685 255 0 0
-13.8527 -3.08782 -3.36064 255 0 0
-13.6975 -3.08733 -3.34611 255 0 0
-13.393 -3.08552 -3.31762 255 0 0
-13.1172 -3.08756 -3.29191 255 0 0
-13.0078 -3.09437 -3.28185 255 0 0
-12.8814 -3.0966 -3.27012 255 0 0
-12.6289 -3.0993 -3.24665 255 0 0
-12.531 -3.10679 -3.23771 255 0 0
-12.4048 -3.10676 -3.22598 255 0 0
-12.3183 -3.11615 -3.21815 255 0 0
-12.2827 -3.13813 -3.21536 255 0 0
-12.338 -3.33996 -3.22542 255 0 0
-12.2971 -3.42294 -3.22374 255 0 0
-12.2877 -3.46745 -3.22402 255 0 0
-12.2781 -3.51193 -3.2243 255 0 0
-12.2963 -3.56449 -3.22737 255 0 0
-12.282 -3.62358 -3.22765 255 0 0
-12.2635 -3.66558 -3.22709 255 0 0
-12.2771 -3.70138 -3.22933 255 0 0
-12.6639 -3.0443 -3.68721 255 0 0
-12.0279 -3.40954 -4.36547 255 0 0
-12.2137 -3.02813 -3.84321 255 0 0
-15.7459 -3.15874 -4.35238 255 0 0
-16.0909 -2.83289 -3.84089 255 0 0
-15.1258 -4.17171 -3.50425 255 0 0
-15.1756 -3.08179 -3.61457 255 0 0
-14.923 -3.06734 -3.58846 255 0 0
-14.6119 -3.07569 -3.55688 255 0 0
-14.2783 -3.07626 -3.52288 255 0 0
-13.9565 -3.07624 -3.49009 255 0 0
-13.4857 -3.07321 -3.44212 255 0 0
-12.9687 -3.08506 -3.3899 255 0 0
-12.7106 -3.08741 -3.36379 255 0 0
-12.4979 -3.0986 -3.34254 255 0 0
-12.3776 -3.09993 -3.33039 255 0 0
-12.2931 -3.12527 -3.3225 255 0 0
-12.2819 -3.16898 -3.3225 255 0 0
-12.3503 -3.34327 -3.33404 255 0 0
-12.2131 -3.33723 -3.32007 255 0 0
-12.2613 -3.38167 -3.32614 255 0 0
-12.242 -3.4076 -3.32493 255 0 0
-12.29 -3.45237 -3.331 255 0 0
-12.2287 -3.4978 -3.32614 255 0 0
-12.2858 -3.62469 -3.33555 255 0 0
-12.3537 -3.69256 -3.34436 255 0 0
-12.3027 -3.74093 -3.34071 255 0 0
-12.3571 -3.8216 -3.34861 255 0 0
-13.2928 -2.99613 -3.99596 255 0 0
-14.942 -4.621 -4.4239 255 0 0
-16.1308 -3.07711 -4.12725 255 0 0
-15.1387 -4.36901 -3.77533 255 0 0
-12.3856 -3.00847 -3.86697 255 0 0
-13.3954 -2.98589 -4.2439 255 0 0
-15.7432 -3.1194 -3.94353 255 0 0
-16.13 -2.87921 -3.84614 255 0 0
-16.0887 -2.91123 -3.8422 255 0 0
-16.1633 -3.08331 -3.854 255 0 0
-15.9845 -3.08851 -3.83434 255 0 0
-15.1635 -3.04191 -3.74255 255 0 0
-14.9681 -3.03964 -3.72092 255 0 0
-14.6117 -3.03948 -3.68158 255 0 0
-14.4279 -3.03697 -3.66126 255 0 0
-14.2386 -3.03238 -3.64028 255 0 0
-14.0891 -3.0355 -3.62389 255 0 0
-13.9568 -3.04164 -3.60947 255 0 0
-13.7848 -3.0384 -3.59046 255 0 0
-13.6356 -3.03943 -3.57407 255 0 0
-13.3544 -3.04329 -3.54325 255 0 0
-13.0621 -3.04192 -3.51113 255 0 0
-12.8211 -3.04996 -3.48491 255 0 0
-12.7007 -3.05315 -3.4718 255 0 0
-12.586 -3.05716 -3.45934 255 0 0
-12.3794 -3.06921 -3.43705 255 0 0
-12.2774 -3.32353 -3.43312 255 0 0
-12.2358 -3.34343 -3.42918 255 0 0
-12.3288 -3.40028 -3.44098 255 0 0
-12.2707 -3.47836 -3.43705 255 0 0
-12.2792 -3.51225 -3.43902 255 0 0
-12.2918 -3.56317 -3.44197 255 0 0
-12.2859 -3.6247 -3.44328 255 0 0
-12.2437 -3.75475 -3.44295 255 0 0
-12.2775 -3.81293 -3.44852 255 0 0
-13.4357 -2.99488 -4.13335 255 0 0
-14.0464 -2.99147 -4.22572 255 0 0
-13.7231 -3.02479 -3.82035 255 0 0
-12.1572 -3.10608 -4.69981 255 0 0
-12.3297 -3.74915 -3.5606 255 0 0
-14.2099 -3.02629 -3.88203 255 0 0
-12.0397 -3.25919 -4.36002 255 0 0
-12.2985 -3.67606 -3.77138 255 0 0
-16.1039 -2.83518 -3.98014 255 0 0
-15.8818 -3.10774 -3.95972 255 0 0
-15.1415 -3.07486 -3.87103 255 0 0
-14.9349 -3.06979 -3.84639 255 0 0
-14.5447 -3.06156 -3.79993 255 0 0
-13.7358 -3.06177 -3.7042 255 0 0
-13.4208 -3.05842 -3.66689 255 0 0
-13.3058 -3.06544 -3.65351 255 0 0
-13.1457 -3.06138 -3.63451 255 0 0
-12.7675 -3.06921 -3.59016 255 0 0
-12.6698 -3.07752 -3.5789 255 0 0
-12.5552 -3.08123 -3.56552 255 0 0
-12.2504 -3.11441 -3.53068 255 0 0
-12.2213 -3.21523 -3.53033 255 0 0
-12.271 -3.32182 -3.53948 255 0 0
-12.3092 -3.55242 -3.55145 255 0 0
-12.2449 -3.56534 -3.54441 255 0 0
-12.7134 -3.02434 -3.8034 255 0 0
-12.2433 -3.61217 -3.54581 255 0 0
-12.2773 -3.70145 -3.55285 255 0 0
-12.3118 -3.80758 -3.5606 255 0 0
-15.5726 -2.97064 -5.13633 255 0 0
-12.2034 -3.67916 -3.6511 255 0 0
-16.145 -2.92141 -4.4033 255 0 0
-12.0265 -3.16399 -4.4602 255 0 0
-15.1152 -4.44 -4.04074 255 0 0
-16.0802 -2.96879 -4.11822 255 0 0
-16.2122 -3.05282 -4.13703 255 0 0
-16.0151 -3.09442 -4.11296 255 0 0
-15.7057 -3.07328 -4.07309 255 0 0
-15.133 -3.03579 -3.99937 255 0 0
-14.7601 -3.03386 -3.95198 255 0 0
-14.3591 -3.02249 -3.90083 255 0 0
-14.0268 -3.02206 -3.85871 255 0 0
-13.8834 -3.02563 -3.84066 255 0 0
-13.4423 -3.02982 -3.78499 255 0 0
-13.1675 -3.03357 -3.75039 255 0 0
-12.5862 -2.96256 -4.33537 255 0 0
-13.0245 -3.03317 -3.73234 255 0 0
-12.8986 -3.0361 -3.71654 255 0 0
-12.5325 -3.04416 -3.67066 255 0 0
-12.4181 -3.04757 -3.65636 255 0 0
-12.2345 -3.0641 -3.6338 255 0 0
-12.1878 -3.08314 -3.62853 255 0 0
-12.1861 -3.11346 -3.62929 255 0 0
-12.2078 -3.30471 -3.63831 255 0 0
-12.2415 -3.42309 -3.64659 255 0 0
-12.2348 -3.4682 -3.64734 255 0 0
-12.2266 -3.4972 -3.64734 255 0 0
-12.2266 -3.56001 -3.64959 255 0 0
-12.1914 -3.73869 -3.65185 255 0 0
-12.9017 -2.94013 -4.50372 255 0 0
-16.8585 -3.00925 -5.09302 255 0 0
-12.1745 -3.12587 -3.73456 255 0 0
-12.2307 -3.42006 -3.75257 255 0 0
-12.4678 -3.02846 -3.77058 255 0 0
-15.1282 -2.99753 -4.25903 255 0 0
-16.0807 -2.83109 -4.25325 255 0 0
-16.0656 -3.10418 -4.25805 255 0 0
-15.5288 -3.03867 -4.18361 255 0 0
-15.0877 -3.02671 -4.12358 255 0 0
-14.2807 -3.00599 -4.01392 255 0 0
-14.1261 -3.00843 -3.9931 255 0 0
-13.9601 -3.0077 -3.97069 255 0 0
-13.8056 -3.00868 -3.94988 255 0 0
-13.5025 -3.00976 -3.90906 255 0 0
-13.3651 -3.01243 -3.89065 255 0 0
-13.1077 -3.01978 -3.85623 255 0 0
-12.9762 -3.0219 -3.83862 255 0 0
-12.6047 -3.03007 -3.78899 255 0 0
-12.2619 -3.04009 -3.74337 255 0 0
-12.1948 -3.06951 -3.73536 255 0 0
-12.1772 -3.21906 -3.73816 255 0 0
-12.295 -3.32832 -3.75777 255 0 0
-12.192 -3.33147 -3.74417 255 0 0
-12.2631 -3.57065 -3.76258 255 0 0
-12.2936 -3.61116 -3.76818 255 0 0
-12.2238 -3.62217 -3.75937 255 0 0
-12.2176 -3.68344 -3.76098 255 0 0
-12.0561 -2.95874 -4.99668 255 0 0
-12.1614 -2.9235 -5.1296 255 0 0
-11.9595 -3.42081 -4.78481 255 0 0
-13.3585 -2.94445 -4.47067 255 0 0
-12.0137 -3.62197 -4.37418 255 0 0
-12.0588 -3.17249 -4.25212 255 0 0
-12.0072 -3.62001 -4.58951 255 0 0
-15.0832 -4.54738 -4.174 255 0 0
-13.8866 -2.95742 -4.32138 255 0 0
-16.3774 -3.00358 -4.43894 255 0 0
-16.0498 -3.02224 -4.39227 255 0 0
-15.9458 -3.04183 -4.37784 255 0 0
-15.785 -3.04996 -4.35493 255 0 0
-14.0414 -2.99039 -4.10289 255 0 0
-13.8813 -2.99073 -4.07997 255 0 0
-13.6987 -2.98539 -4.05367 255 0 0
-13.5615 -2.98918 -4.03415 255 0 0
-13.4017 -2.98729 -4.01124 255 0 0
-12.8875 -3.00125 -3.93825 255 0 0
-12.6308 -3.00468 -3.90176 255 0 0
-12.5335 -3.01295 -3.88819 255 0 0
-12.1264 -3.11353 -3.83387 255 0 0
-12.132 -3.20711 -3.83812 255 0 0
-12.1653 -3.26225 -3.84491 255 0 0
-12.1664 -3.32448 -3.84745 255 0 0
-12.1146 -3.4031 -3.84321 255 0 0
-12.1678 -3.44919 -3.85254 255 0 0
-12.1763 -3.54537 -3.85763 255 0 0
-12.2179 -3.58893 -3.86527 255 0 0
-12.1356 -3.61168 -3.85466 255 0 0
-12.0362 -3.36572 -4.25732 255 0 0
-12.1745 -3.73352 -3.86527 255 0 0
-12.1055 -3.52476 -3.954 255 0 0
-12.0332 -3.01368 -4.77714 255 0 0
-12.0533 -3.12525 -4.24899 255 0 0
-12.3884 -2.97808 -4.19209 255 0 0
-16.3182 -2.99272 -4.71253 255 0 0
-16.7439 -3.0708 -4.63822 255 0 0
-16.2814 -3.02591 -4.56648 255 0 0
-16.1036 -3.03238 -4.53958 255 0 0
-15.5834 -3.01101 -4.45977 255 0 0
-15.3063 -3.07057 -4.41941 255 0 0
-14.7603 -2.99745 -4.33422 255 0 0
-13.2649 -2.98983 -4.10735 255 0 0
-13.0025 -2.99555 -4.06789 255 0 0
-12.2449 -3.00507 -3.954 255 0 0
-12.1631 -3.04623 -3.94324 255 0 0
-12.1224 -3.11251 -3.93966 255 0 0
-12.1271 -3.1751 -3.94279 255 0 0
-12.1378 -3.27029 -3.94817 255 0 0
-12.1065 -3.30812 -3.94504 255 0 0
-12.1154 -3.34143 -3.94773 255 0 0
-12.1718 -3.41918 -3.95938 255 0 0
-12.2 -3.48959 -3.96656 255 0 0
-12.0691 -3.60746 -3.95221 255 0 0
-12.1281 -3.67217 -3.96387 255 0 0
-12.1593 -3.72884 -3.97104 255 0 0
-14.3149 -2.94236 -5.14444 255 0 0
-15.6097 -2.9777 -4.5982 255 0 0
-15.1927 -2.9729 -4.53112 255 0 0
-14.9476 -2.96174 -4.49144 255 0 0
-14.7125 -2.98774 -4.45459 255 0 0
-13.7101 -2.95382 -4.29303 255 0 0
-13.5732 -2.95802 -4.2713 255 0 0
-13.1346 -2.96047 -4.20139 255 0 0
-13.0036 -2.96336 -4.1806 255 0 0
-12.8896 -2.96953 -4.16265 255 0 0
-12.5364 -2.98224 -4.10691 255 0 0
-12.195 -2.99283 -4.05305 255 0 0
-12.1062 -3.06249 -4.04172 255 0 0
-12.1064 -3.1084 -4.04361 255 0 0
-12.1137 -3.21766 -4.04927 255 0 0
-12.1412 -3.27123 -4.05589 255 0 0
-12.1515 -3.61642 -4.07289 255 0 0
-13.008 -2.96436 -4.29534 255 0 0
-16.9911 -3.03293 -4.96945 255 0 0
-16.6602 -3.01464 -4.91286 255 0 0
-16.4033 -3.00833 -4.86918 255 0 0
-16.1862 -3.0082 -4.83244 255 0 0
-15.8728 -2.98891 -4.77883 255 0 0
-14.9437 -2.96098 -4.62098 255 0 0
-14.7726 -2.96349 -4.59219 255 0 0
-14.0436 -2.95607 -4.46908 255 0 0
-13.5373 -2.95021 -4.3837 255 0 0
-12.4909 -2.9714 -4.20897 255 0 0
-12.1261 -3.00641 -4.1494 255 0 0
-12.0965 -3.02955 -4.14543 255 0 0
-12.0859 -3.1184 -4.14742 255 0 0
-12.0803 -3.16283 -4.14841 255 0 0
-12.0791 -3.2238 -4.15089 255 0 0
-12.0753 -3.31497 -4.15436 255 0 0
-12.064 -3.41979 -4.15734 255 0 0
-12.0684 -3.46745 -4.16032 255 0 0
-12.0545 -3.55647 -4.16231 255 0 0
-15.1992 -4.19195 -3.37941 255 0 0
-11.9528 -3.37294 -4.99806 255 0 0
-15.273 -4.5257 -3.26033 255 0 0
-12.0347 -3.07477 -4.35023 255 0 0
-12.7489 -2.93713 -4.47541 255 0 0
-16.1455 -3.00064 -4.96605 255 0 0
-15.8552 -2.9856 -4.91401 255 0 0
-15.5821 -2.97244 -4.8651 255 0 0
-14.5688 -2.95857 -4.68506 255 0 0
-14.1992 -2.95369 -4.61949 255 0 0
-13.9892 -2.94462 -4.58203 255 0 0
-13.5062 -2.94344 -4.49669 255 0 0
-13.2334 -2.94979 -4.44881 255 0 0
-12.9721 -2.95617 -4.40302 255 0 0
-12.6998 -2.95754 -4.35515 255 0 0
-12.4558 -2.96305 -4.31248 255 0 0
-12.1546 -2.98291 -4.26044 255 0 0
-12.054 -3.0645 -4.24639 255 0 0
-12.0419 -3.21387 -4.25108 255 0 0
-12.0353 -3.41164 -4.2594 255 0 0
-12.0397 -3.45919 -4.26252 255 0 0
-12.0309 -3.61162 -4.26877 255 0 0
-16.173 -2.9661 -5.11114 255 0 0
-15.5186 -2.96033 -4.98922 255 0 0
-15.0809 -2.95102 -4.90758 255 0 0
-14.8538 -2.94316 -4.86512 255 0 0
-14.6719 -2.94329 -4.83138 255 0 0
-14.1267 -2.93861 -4.73014 255 0 0
-13.7356 -2.92527 -4.6572 255 0 0
-13.4293 -2.92667 -4.6006 255 0 0
-13.2931 -2.93002 -4.57556 255 0 0
-13.0265 -2.9361 -4.52658 255 0 0
-12.3919 -2.94785 -4.4101 255 0 0
-12.1821 -2.95905 -4.372 255 0 0
-12.108 -2.97147 -4.35894 255 0 0
-12.0694 -3.00756 -4.35349 255 0 0
-12.0348 -3.12044 -4.3524 255 0 0
-12.0236 -3.16323 -4.3524 255 0 0
-12.0205 -3.36132 -4.36166 255 0 0
-12.0226 -3.46973 -4.36764 255 0 0
-12.0336 -3.53481 -4.37309 255 0 0
-12.01 -3.5743 -4.37091 255 0 0
-15.3456 -2.96505 -5.09201 255 0 0
-14.7102 -2.95099 -4.96815 255 0 0
-14.5174 -2.94813 -4.93065 255 0 0
-14.1153 -2.93622 -4.85224 255 0 0
-13.7866 -2.93612 -4.7886 255 0 0
-13.6055 -2.9313 -4.75338 255 0 0
-13.4638 -2.9342 -4.7261 255 0 0
-13.2829 -2.92778 -4.69088 255 0 0
-13.1526 -2.93178 -4.66588 255 0 0
-13.0336 -2.93769 -4.64315 255 0 0
-12.8866 -2.93668 -4.61474 255 0 0
-12.6263 -2.94043 -4.56474 255 0 0
-12.5243 -2.94799 -4.54542 255 0 0
-12.3943 -2.94843 -4.52042 255 0 0
-12.2588 -2.94693 -4.49429 255 0 0
-12.2072 -2.96514 -4.4852 255 0 0
-12.1722 -2.98723 -4.47952 255 0 0
-12.1316 -3.00779 -4.4727 255 0 0
-12.0966 -3.02957 -4.46702 255 0 0
-12.0432 -3.12262 -4.46133 255 0 0
-12.0165 -3.26821 -4.46361 255 0 0
-12.0135 -3.34399 -4.46702 255 0 0
-12.01 -3.41987 -4.47042 255 0 0
-12.0033 -3.46415 -4.47156 255 0 0
-12.0017 -3.57184 -4.47724 255 0 0
-12.0054 -3.61947 -4.48065 255 0 0
-15.1106 -4.51658 -4.17641 255 0 0
-11.9274 -3.45755 -4.88876 255 0 0
-13.3506 -2.90952 -4.93999 255 0 0
-11.9533 -3.20541 -4.87881 255 0 0
-12.4878 -2.90817 -4.87052 255 0 0
-14.7868 -2.96633 -5.11405 255 0 0
-14.5661 -2.95802 -5.06905 255 0 0
-13.842 -2.94792 -4.92223 255 0 0
-13.5939 -2.92879 -4.87132 255 0 0
-13.4356 -2.92805 -4.83935 255 0 0
-13.2494 -2.9204 -4.80146 255 0 0
-13.0005 -2.93024 -4.75173 255 0 0
-12.8929 -2.93812 -4.73042 255 0 0
-12.7574 -2.93907 -4.70318 255 0 0
-12.4014 -2.95012 -4.63214 255 0 0
-12.2717 -2.95002 -4.60609 255 0 0
-12.1922 -2.96152 -4.5907 255 0 0
-12.1406 -2.97948 -4.58123 255 0 0
-12.0938 -3.01363 -4.57353 255 0 0
-12.0285 -3.0732 -4.56347 255 0 0
-12.0425 -3.12244 -4.56879 255 0 0
-12.0321 -3.19597 -4.57057 255 0 0
-12.0023 -3.21855 -4.56583 255 0 0
-12.0178 -3.31451 -4.57412 255 0 0
-12.024 -3.37766 -4.57886 255 0 0
-12.0202 -3.42276 -4.58063 255 0 0
-12.0066 -3.51139 -4.583 255 0 0
-12.0063 -3.5732 -4.58655 255 0 0
-12.0041 -3.65014 -4.5907 255 0 0
-11.9938 -3.33851 -4.89606 255 0 0
-11.9943 -3.40001 -4.90004 255 0 0
-12.8716 -2.9012 -4.83899 255 0 0
-15.2142 -4.35176 -3.25202 255 0 0
-12.4105 -2.92121 -5.07775 255 0 0
-14.4901 -2.94259 -5.18139 255 0 0
-12.7364 -2.90245 -4.81066 255 0 0
-12.6346 -2.9108 -4.78972 255 0 0
-12.4145 -2.92215 -4.74415 255 0 0
-12.3296 -2.93303 -4.72691 255 0 0
-12.1709 -2.95633 -4.69489 255 0 0
-12.1645 -3.07724 -4.69981 255 0 0
-12.0168 -3.10057 -4.67025 255 0 0
-12.013 -3.16043 -4.67272 255 0 0
-12.0055 -3.1889 -4.67272 255 0 0
-12.0034 -3.21884 -4.67395 255 0 0
-12.0038 -3.32599 -4.68011 255 0 0
-12.0019 -3.41755 -4.68503 255 0 0
-11.9924 -3.49184 -4.6875 255 0 0
-11.9896 -3.52187 -4.68873 255 0 0
-11.999 -3.57103 -4.69365 255 0 0
-13.9448 -2.93528 -5.19032 255 0 0
-13.3262 -2.90421 -5.05345 255 0 0
-13.3554 -3.01024 -5.06496 255 0 0
-13.053 -2.97461 -4.99716 255 0 0
-12.6004 -2.90292 -4.89483 255 0 0
-12.125 -2.97565 -4.79505 255 0 0
-11.9722 -3.2257 -4.77586 255 0 0
-11.9694 -3.30116 -4.7797 255 0 0
-11.9615 -3.32953 -4.7797 255 0 0
-11.9511 -3.38777 -4.78098 255 0 0
-11.9527 -3.46492 -4.78609 255 0 0
-11.9623 -3.51384 -4.79121 255 0 0
-11.9539 -3.5422 -4.79121 255 0 0
-11.9448 -3.63212 -4.79505 255 0 0
-15.1496 -4.5674 -3.64978 255 0 0
-15.1906 -4.34502 -3.64735 255 0 0
-13.379 -2.91571 -5.18527 255 0 0
-12.5308 -2.91818 -4.9929 255 0 0
-12.4239 -2.92436 -4.96903 255 0 0
-12.2325 -2.94059 -4.92657 255 0 0
-12.0467 -2.95642 -4.88545 255 0 0
-11.9792 -3.01524 -4.87351 255 0 0
-11.9831 -3.25912 -4.88876 255 0 0
-11.9368 -3.41433 -4.8881 255 0 0
-11.93 -3.51973 -4.89341 255 0 0
-11.9346 -3.61358 -4.9007 255 0 0
-12.635 -2.91089 -5.12996 255 0 0
-12.5117 -2.91373 -5.10111 255 0 0
-11.9938 -2.97362 -4.98294 255 0 0
-11.9923 -3.00344 -4.98432 255 0 0
-11.9741 -3.02907 -4.98157 255 0 0
-11.9706 -3.08866 -4.98432 255 0 0
-11.9632 -3.11703 -4.98432 255 0 0
-11.9713 -3.16465 -4.98913 255 0 0
-11.9589 -3.22213 -4.98981 255 0 0
-11.9584 -3.26764 -4.99256 255 0 0
-11.9506 -3.29598 -4.99256 255 0 0
-11.9647 -3.33041 -4.99806 255 0 0
-11.9571 -3.42013 -5.00218 255 0 0
-11.9449 -3.46265 -5.00218 255 0 0
-11.952 -3.61884 -5.01454 255 0 0
-14.9926 -4.21157 -4.2811 255 0 0
-12.2512 -2.91438 -5.15092 255 0 0
-11.9764 -2.93917 -5.08554 255 0 0
-11.9383 -2.97486 -5.07843 255 0 0
-15.1129 -4.63462 -3.38298 255 0 0
-11.9574 -3.02484 -5.19526 255 0 0
-15.0914 -4.35538 -4.1676 255 0 0
-15.0833 -4.66472 -3.64614 255 0 0
-15.0915 -4.3554 -4.03473 255 0 0
-12.1243 -3.68671 -4.07195 255 0 0
-15.2572 -4.56041 -3.39319 255 0 0
-15.2852 -4.29377 -3.25617 255 0 0
-15.1014 -4.28079 -3.50481 255 0 0
-15.0361 -4.41677 -4.29552 255 0 0
-12.1788 -3.79811 -3.86867 255 0 0
-15.0983 -4.12561 -3.76353 255 0 0
-15.0271 -4.14448 -4.41583 255 0 0
-15.0773 -4.66286 -3.91115 255 0 0
-15.1017 -4.31959 -4.1676 255 0 0
-15.0851 -4.66527 -3.38145 255 0 0
-12.0436 -3.66216 -4.3818 255 0 0
-15.0917 -4.16229 -4.02796 255 0 0
-15.1154 -4.32351 -3.7714 255 0 0
-11.9515 -3.66514 -4.58123 255 0 0
-15.1145 -4.36205 -3.50816 255 0 0
-15.1231 -4.28693 -4.1692 255 0 0
-15.0743 -4.50572 -3.77271 255 0 0
-15.135 -4.60217 -3.384 255 0 0
-15.1209 -4.51966 -3.91115 255 0 0
-15.0496 -4.5762 -3.64007 255 0 0
-15.1366 -4.17468 -3.24232 255 0 0
-15.1477 -4.37163 -3.2474 255 0 0
-15.227 -4.43364 -3.25479 255 0 0
-15.3463 -4.62672 -3.26818 255 0 0
-15.1231 -4.59856 -3.25063 255 0 0
-15.1736 -4.65323 -3.25571 255 0 0
-15.2093 -4.35035 -3.384 255 0 0
-15.0812 -4.35243 -3.37328 255 0 0
-15.1045 -4.39796 -3.37635 255 0 0
-15.1779 -4.45842 -3.384 255 0 0
-15.1136 -4.32299 -3.50704 255 0 0
-15.0568 -4.61742 -3.50984 255 0 0
-15.0681 -4.65999 -3.51207 255 0 0
-15.1704 -4.30035 -3.77664 255 0 0
-15.0796 -4.15895 -3.63096 255 0 0
-15.1258 -4.21031 -3.63703 255 0 0
-15.0765 -4.23514 -3.63278 255 0 0
-15.1281 -4.28835 -3.63946 255 0 0
-15.0864 -4.41209 -3.63885 255 0 0
-15.1333 -4.17377 -3.76878 255 0 0
-15.1339 -4.40652 -3.77599 255 0 0
-15.0905 -4.47162 -3.77337 255 0 0
-15.0946 -4.60943 -3.77828 255 0 0
-15.1116 -4.12926 -3.89707 255 0 0
-15.1803 -4.18672 -3.90693 255 0 0
-15.1389 -4.29142 -3.90552 255 0 0
-15.1766 -4.36048 -3.91221 255 0 0
-15.1303 -4.40549 -3.90834 255 0 0
-15.0995 -4.63051 -3.91256 255 0 0
-15.0617 -4.26953 -4.02796 255 0 0
-15.085 -4.31481 -4.03247 255 0 0
-15.1102 -4.47748 -4.0415 255 0 0
-15.0662 -4.50332 -4.03698 255 0 0
-12.24 -3.8172 -3.66088 255 0 0
-15.1196 -4.17 -4.1644 255 0 0
-15.0907 -4.21983 -4.1624 255 0 0
-15.0823 -4.46921 -4.1708 255 0 0
-15.1056 -4.59325 -4.17881 255 0 0
-15.0334 -4.10788 -4.28279 255 0 0
-15.0354 -4.16596 -4.28534 255 0 0
-15.0216 -4.25817 -4.28704 255 0 0
-15.0423 -4.45734 -4.29807 255 0 0
-15.0104 -4.6032 -4.29977 255 0 0
-12.232 -3.78291 -3.87546 255 0 0
-14.9978 -4.09816 -4.40955 255 0 0
-14.8388 -4.13044 -4.38713 255 0 0
-14.1916 -4.05926 -4.28759 255 0 0
-14.1319 -4.07846 -4.27952 255 0 0
-14.2228 -4.15955 -4.29656 255 0 0
-12.0133 -3.65294 -4.48406 255 0 0
-11.9853 -3.67551 -4.80656 255 0 0
