ply
format ascii 1.0
comment Created by Open3D
element vertex 90
property double x
property double y
property double z
property uchar red
property uchar green
property uchar blue
end_header
19.5836 -4.17072 -5.27374 255 0 0
19.1519 -5.08716 -5.40926 255 0 0
20.3593 -4.89421 -4.8896 255 0 0
20.6675 -3.84106 -5.25787 255 0 0
19.9339 -4.99239 -5.01006 255 0 0
19.4426 -3.8524 -5.24067 255 0 0
19.6558 -4.97231 -5.14219 255 0 0
19.617 -4.56842 -5.12156 255 0 0
20.0036 -4.30977 -4.99734 255 0 0
20.2795 -4.97687 -4.8816 255 0 0
20.8415 -3.8734 -5.10511 255 0 0
19.3919 -5.10169 -5.27846 255 0 0
20.9156 -3.83589 -5.29553 255 0 0
19.9748 -4.75171 -5.00752 255 0 0
19.5248 -5.0872 -5.12694 255 0 0
20.4669 -4.81755 -4.90161 255 0 0
19.6274 -4.13142 -5.27941 255 0 0
20.4716 -4.97259 -4.90721 255 0 0
19.9568 -4.5479 -4.99818 255 0 0
20.0704 -4.07579 -4.99988 255 0 0
21.1752 -3.83162 -5.33499 255 0 0
20.1934 -3.90175 -5.01261 255 0 0
20.0988 -3.93293 -4.99988 255 0 0
20.1205 -3.83819 -5.17447 255 0 0
19.6121 -4.76382 -5.12784 255 0 0
20.3904 -3.88968 -5.04061 255 0 0
19.6455 -4.8707 -5.13681 255 0 0
20.4045 -4.64993 -4.888 255 0 0
19.966 -4.40084 -4.99479 255 0 0
19.8995 -5.03396 -5.00667 255 0 0
19.6177 -4.81445 -5.13053 255 0 0
19.5084 -3.81739 -5.25012 255 0 0
19.5939 -4.5141 -5.11618 255 0 0
20.4484 -4.50718 -4.8896 255 0 0
19.9572 -4.5978 -4.99988 255 0 0
19.577 -3.9756 -5.26618 255 0 0
20.0379 -4.1187 -4.99649 255 0 0
19.5975 -4.27092 -5.27941 255 0 0
19.9296 -4.69106 -4.99903 255 0 0
19.9348 -4.89229 -5.00667 255 0 0
19.9465 -4.79499 -5.00497 255 0 0
19.6121 -4.7146 -5.12605 255 0 0
19.9732 -4.50184 -4.99903 255 0 0
19.5946 -4.90742 -5.13053 255 0 0
19.632 -5.06547 -5.14219 255 0 0
21.1949 -4.46137 -4.80574 255 0 0
19.6321 -4.42496 -5.11887 255 0 0
20.3821 -4.84861 -4.8912 255 0 0
20.4251 -4.45127 -4.8848 255 0 0
21.3095 -3.80377 -5.35472 255 0 0
19.5813 -4.17022 -5.10273 255 0 0
19.8931 -5.08256 -5.00752 255 0 0
19.9344 -4.94233 -5.00837 255 0 0
19.9464 -4.84501 -5.00667 255 0 0
19.9632 -4.64905 -5.00243 255 0 0
19.9555 -4.44817 -4.99479 255 0 0
19.9537 -4.34855 -4.99139 255 0 0
20.0081 -4.26112 -4.99649 255 0 0
20.0295 -4.21606 -4.99818 255 0 0
20.0678 -4.17446 -5.00243 255 0 0
20.0572 -4.02363 -4.99649 255 0 0
20.0895 -3.98057 -4.99988 255 0 0
20.5476 -3.8692 -5.06268 255 0 0
19.6272 -5.01461 -5.1395 255 0 0
19.5895 -4.66006 -5.12067 255 0 0
19.6286 -4.62023 -5.12515 255 0 0
19.6159 -4.47021 -5.11798 255 0 0
19.6369 -4.37714 -5.11798 255 0 0
19.6302 -4.32683 -5.11529 255 0 0
19.62 -4.25147 -5.11125 255 0 0
19.6016 -4.10173 -5.10363 255 0 0
19.6161 -4.03199 -5.10363 255 0 0
19.6313 -3.98662 -5.10452 255 0 0
19.6407 -3.94007 -5.10452 255 0 0
19.6216 -3.88786 -5.10004 255 0 0
19.7046 -3.85578 -5.1117 255 0 0
19.9466 -3.85405 -5.14846 255 0 0
20.5162 -3.86328 -5.23545 255 0 0
19.3853 -5.14914 -5.27941 255 0 0
19.4319 -5.06299 -5.28319 255 0 0
20.1517 -5.04693 -5.39656 255 0 0
19.576 -4.31489 -5.27752 255 0 0
19.6528 -4.23418 -5.28696 255 0 0
19.6137 -4.05572 -5.27468 255 0 0
19.541 -3.92008 -5.25862 255 0 0
19.6933 -3.8051 -5.27941 255 0 0
20.0972 -3.78439 -5.34365 255 0 0
19.1287 -5.12956 -5.40727 255 0 0
19.1947 -3.80329 -5.36657 255 0 0
19.2886 -3.77439 -5.38146 255 0 0
