ply
format ascii 1.0
comment Created by Open3D
element vertex 1142
property double x
property double y
property double z
property uchar red
property uchar green
property uchar blue
end_header
-10.8957 2.94951 -4.13578 255 0 0
-11.3225 2.49567 -4.69706 255 0 0
-8.36085 3.18481 -4.71908 255 0 0
-10.4062 2.685 -4.68901 255 0 0
-10.3246 2.52083 -4.75327 255 0 0
-8.96334 2.35811 -5.24313 255 0 0
-11.3784 2.47972 -4.81119 255 0 0
-9.32727 2.39482 -4.66627 255 0 0
-8.28357 3.5788 -4.9901 255 0 0
-10.3551 3.5282 -4.83403 255 0 0
-8.25064 2.97594 -5.06908 255 0 0
-8.37228 2.68745 -5.07682 255 0 0
-10.4908 3.72786 -4.49252 255 0 0
-8.36121 3.07195 -4.70717 255 0 0
-8.27684 3.07441 -5.00741 255 0 0
-10.3142 3.84511 -4.85165 255 0 0
-10.5327 2.82446 -4.34632 255 0 0
-10.534 3.687 -4.20793 255 0 0
-10.5246 2.79555 -4.24851 255 0 0
-10.1933 2.70756 -4.92017 255 0 0
-11.0879 2.49916 -4.84392 255 0 0
-8.26988 2.87255 -4.98192 255 0 0
-8.9493 2.33175 -4.8948 255 0 0
-10.5083 2.92502 -4.44199 255 0 0
-10.3674 3.6149 -4.65044 255 0 0
-8.32942 3.68093 -5.1018 255 0 0
-8.26285 3.18119 -4.93392 255 0 0
-11.4179 2.37511 -5.1249 255 0 0
-8.74222 2.32212 -4.9141 255 0 0
-10.8632 2.5842 -4.20906 255 0 0
-10.3514 3.48592 -4.82963 255 0 0
-10.7175 3.83702 -4.74799 255 0 0
-8.35992 3.13915 -4.63304 255 0 0
-10.2453 3.32889 -4.98266 255 0 0
-9.28762 2.37292 -5.08827 255 0 0
-10.397 3.52874 -4.65044 255 0 0
-9.80671 2.38207 -5.15892 255 0 0
-10.4173 3.9117 -4.78423 255 0 0
-10.4714 3.34756 -4.46118 255 0 0
-10.4204 2.53113 -4.58861 255 0 0
-10.5434 2.89442 -4.44775 255 0 0
-10.258 3.02644 -4.86575 255 0 0
-10.5065 3.49658 -4.2864 255 0 0
-10.4536 3.23291 -4.44966 255 0 0
-11.305 2.4918 -4.59166 255 0 0
-8.79773 2.33686 -4.84932 255 0 0
-8.29226 3.53599 -4.90423 255 0 0
-8.27189 2.67687 -4.80099 255 0 0
-8.33237 2.47981 -5.04201 255 0 0
-11.0654 2.52166 -4.83966 255 0 0
-10.5694 3.40651 -4.68066 255 0 0
-10.362 3.09721 -4.80173 255 0 0
-8.36181 3.76656 -4.78719 255 0 0
-8.28222 3.26781 -5.1155 255 0 0
-8.34858 2.36657 -4.7956 255 0 0
-8.34432 3.47664 -4.58395 255 0 0
-11.2153 2.38851 -4.9706 255 0 0
-8.35068 2.63689 -5.06425 255 0 0
-8.25319 2.97686 -5.2347 255 0 0
-8.34767 3.48965 -4.74973 255 0 0
-8.34224 2.42901 -4.79919 255 0 0
-10.3736 3.82525 -4.66898 255 0 0
-10.1668 2.34225 -5.36118 255 0 0
-9.99213 2.32698 -5.21139 255 0 0
-10.4528 3.09739 -4.44071 255 0 0
-8.25076 2.94286 -5.06522 255 0 0
-10.6403 2.63805 -4.64631 255 0 0
-8.35087 3.85731 -5.04811 255 0 0
-8.34073 3.47513 -4.82833 255 0 0
-10.3654 3.0181 -4.51133 255 0 0
-10.5133 3.63785 -4.4906 255 0 0
-10.2305 2.74342 -4.93267 255 0 0
-8.54299 3.897 -5.3735 255 0 0
-10.5218 3.80924 -4.70127 255 0 0
-8.28388 3.17803 -4.85844 255 0 0
-10.4919 3.21752 -4.74586 255 0 0
-10.4868 3.42112 -4.37342 255 0 0
-10.6879 2.35578 -5.12841 255 0 0
-10.458 2.96451 -4.52858 255 0 0
-10.5015 3.35717 -4.66143 255 0 0
-10.2699 3.85633 -5.03735 255 0 0
-8.32367 2.82505 -4.67141 255 0 0
-10.4755 3.13115 -4.35248 255 0 0
-10.5104 3.06031 -4.26035 255 0 0
-10.246 2.79972 -4.84605 255 0 0
-12.028 2.35363 -5.28402 255 0 0
-10.4433 2.68141 -4.41385 255 0 0
-10.4437 2.72112 -4.70038 255 0 0
-8.32007 2.87893 -5.08069 255 0 0
-8.3416 2.48256 -4.64502 255 0 0
-10.4015 3.7239 -4.76433 255 0 0
-10.5468 2.88192 -4.35248 255 0 0
-10.4245 3.23745 -4.53919 255 0 0
-10.5157 3.36171 -4.18406 255 0 0
-10.3892 3.87307 -4.67654 255 0 0
-10.475 2.63666 -4.32415 255 0 0
-8.28069 3.48473 -4.89435 255 0 0
-10.4204 3.88469 -4.58695 255 0 0
-10.6896 2.3296 -5.22589 255 0 0
-10.7991 3.06121 -4.1238 255 0 0
-10.5253 2.47747 -4.51531 255 0 0
-10.4425 3.39296 -4.74728 255 0 0
-10.6768 2.63367 -4.17554 255 0 0
-10.5375 3.75849 -4.31008 255 0 0
-10.3465 2.90643 -4.68901 255 0 0
-10.3726 2.99351 -4.51133 255 0 0
-10.5015 3.38465 -4.47013 255 0 0
-8.40007 2.39192 -4.73388 255 0 0
-10.4133 2.9252 -4.42152 255 0 0
-10.7869 2.37761 -4.95971 255 0 0
-8.34569 3.41929 -4.57805 255 0 0
-10.4792 3.07821 -4.35002 255 0 0
-10.8291 2.60323 -4.20338 255 0 0
-9.39864 2.37756 -4.68424 255 0 0
-10.4384 2.78589 -4.70322 255 0 0
-8.29619 3.29608 -5.2072 255 0 0
-8.329 3.08255 -4.77994 255 0 0
-10.5418 3.63369 -4.30238 255 0 0
-8.34262 3.78173 -4.61828 255 0 0
-10.2719 3.27036 -4.88848 255 0 0
-10.0695 3.83566 -4.79145 255 0 0
-10.5529 3.48424 -4.29469 255 0 0
-10.2481 3.41059 -4.99048 255 0 0
-10.478 2.73005 -4.42408 255 0 0
-10.1907 2.94103 -5.03186 255 0 0
-10.5523 3.18137 -4.27574 255 0 0
-10.2667 3.13515 -4.87636 255 0 0
-10.4498 3.31334 -4.64631 255 0 0
-9.54081 3.81678 -4.84517 255 0 0
-8.38455 2.77937 -4.52494 255 0 0
-10.4781 3.57012 -4.57501 255 0 0
-8.29354 2.54336 -5.19824 255 0 0
-8.47266 2.93173 -5.22106 255 0 0
-8.6427 2.39468 -4.56356 255 0 0
-10.4234 3.66217 -4.76433 255 0 0
-8.33911 3.3705 -4.73356 255 0 0
-10.2585 2.8817 -4.85514 255 0 0
-8.34668 3.47763 -4.66616 255 0 0
-10.2561 3.09208 -4.8703 255 0 0
-8.46109 3.76311 -4.56393 255 0 0
-11.4288 2.46232 -4.82218 255 0 0
-10.5376 2.87939 -4.25561 255 0 0
-10.419 3.27642 -4.35002 255 0 0
-10.461 3.48143 -4.66143 255 0 0
-8.27581 2.36715 -4.93189 255 0 0
-10.5323 3.63046 -4.20395 255 0 0
-11.0155 2.40063 -4.92067 255 0 0
-10.4603 3.31668 -4.3611 255 0 0
-8.34179 3.04239 -4.77936 255 0 0
-10.4043 2.73721 -4.69185 255 0 0
-10.5062 2.68426 -4.23904 255 0 0
-8.42879 2.45421 -4.66801 255 0 0
-10.1163 2.3559 -4.9691 255 0 0
-9.43069 2.33815 -5.30947 255 0 0
-10.4162 2.74035 -4.41129 255 0 0
-11.1536 2.5696 -4.36336 255 0 0
-8.33634 2.53487 -5.21242 255 0 0
-10.1269 2.35836 -5.16006 255 0 0
-10.5666 2.96825 -4.26627 255 0 0
-10.9393 2.68465 -4.81834 255 0 0
-8.3311 2.5225 -5.04588 255 0 0
-8.81884 2.34247 -5.19285 255 0 0
-8.31011 2.33439 -4.86025 255 0 0
-8.34687 3.67682 -4.68935 255 0 0
-11.7671 2.47688 -4.48295 255 0 0
-10.5239 2.92935 -4.25561 255 0 0
-10.5242 2.88916 -4.15906 255 0 0
-8.53575 2.31066 -4.93024 255 0 0
-10.2651 2.83112 -4.94829 255 0 0
-11.0932 2.39002 -4.93976 255 0 0
-10.3478 2.88036 -4.78264 255 0 0
-8.32939 2.36113 -4.94889 255 0 0
-10.4636 2.88588 -4.62021 255 0 0
-10.4384 2.4309 -4.58723 255 0 0
-8.33585 2.4486 -5.04008 255 0 0
-8.34828 3.63027 -4.60218 255 0 0
-10.8285 3.04182 -4.12816 255 0 0
-10.4284 2.40252 -4.77236 255 0 0
-8.37219 3.79513 -4.87731 255 0 0
-10.387 3.83022 -4.77002 255 0 0
-10.5228 3.48817 -4.19316 255 0 0
-8.34175 3.7219 -4.61104 255 0 0
-9.17454 2.36722 -4.7084 255 0 0
-10.8294 3.26492 -4.14013 255 0 0
-10.9738 2.58304 -4.32784 255 0 0
-10.897 2.34776 -5.18635 255 0 0
-10.7162 3.51 -4.1336 255 0 0
-10.4831 3.65524 -4.48548 255 0 0
-10.3998 2.63084 -4.49541 255 0 0
-10.5174 3.17085 -4.36357 255 0 0
-10.551 3.01794 -4.74586 255 0 0
-11.044 2.35204 -5.12641 255 0 0
-11.6507 2.36597 -5.18552 255 0 0
-9.09561 2.32387 -4.93853 255 0 0
-10.4406 2.82631 -4.42152 255 0 0
-10.6192 2.36705 -5.40554 255 0 0
-8.32137 2.96805 -4.68503 255 0 0
-10.7184 2.36251 -5.03891 255 0 0
-10.4576 2.61908 -4.22601 255 0 0
-8.26903 2.83934 -4.89709 255 0 0
-8.34643 3.67662 -4.60701 255 0 0
-10.4373 2.82538 -4.51531 255 0 0
-10.7391 3.65906 -4.14666 255 0 0
-10.5193 2.52875 -4.32785 255 0 0
-10.4846 3.37919 -4.27456 255 0 0
-10.4906 3.35368 -4.36973 255 0 0
-10.8809 2.37129 -4.98396 255 0 0
-10.38 2.52132 -4.4848 255 0 0
-10.2646 2.33916 -5.29535 255 0 0
-8.7172 2.35978 -4.66285 255 0 0
-9.40851 2.33265 -5.21203 255 0 0
-8.35338 3.22742 -4.55981 255 0 0
-9.48462 3.82041 -4.83111 255 0 0
-10.3912 3.5818 -4.75012 255 0 0
-10.4121 2.76568 -4.318 255 0 0
-8.33659 3.23229 -4.71738 255 0 0
-11.8188 2.48776 -4.07792 255 0 0
-9.61276 3.81915 -4.86392 255 0 0
-10.4621 2.59387 -4.31923 255 0 0
-10.3372 3.63188 -4.83844 255 0 0
-10.418 3.2219 -4.34632 255 0 0
-8.94559 2.35345 -4.72743 255 0 0
-8.26991 2.78495 -4.89156 255 0 0
-10.4785 2.67719 -4.70606 255 0 0
-8.28325 2.48658 -4.86578 255 0 0
-10.7869 2.35081 -5.15577 255 0 0
-10.3638 3.39461 -4.82522 255 0 0
-8.28683 3.44115 -4.89076 255 0 0
-10.4211 3.57829 -4.56307 255 0 0
-8.27815 3.0749 -4.84498 255 0 0
-10.3227 3.72331 -4.84284 255 0 0
-11.3372 2.2883 -4.79196 255 0 0
-8.34262 3.20054 -4.6347 255 0 0
-10.2475 2.85242 -4.94517 255 0 0
-10.2527 3.83602 -4.93319 255 0 0
-9.92421 2.42308 -5.29116 255 0 0
-10.4219 3.2502 -4.63532 255 0 0
-10.5422 3.0154 -4.45478 255 0 0
-8.66309 2.34513 -4.7276 255 0 0
-10.2587 3.19932 -4.87939 255 0 0
-10.8409 2.49757 -4.4906 255 0 0
-8.33679 2.97355 -4.60986 255 0 0
-10.3199 2.46789 -4.74887 255 0 0
-8.34228 2.57997 -4.65382 255 0 0
-11.1078 2.36561 -5.04306 255 0 0
-11.4261 2.34859 -5.3344 255 0 0
-11.2384 2.53307 -4.37875 255 0 0
-10.5058 3.23543 -4.26982 255 0 0
-10.4439 2.73438 -4.51133 255 0 0
-10.2557 2.82852 -4.8506 255 0 0
-10.3544 3.58287 -4.64494 255 0 0
-8.2617 2.83682 -4.97532 255 0 0
-9.66741 2.37252 -4.75611 255 0 0
-10.5343 3.12152 -4.26864 255 0 0
-11.8228 2.51789 -3.66812 255 0 0
-8.33468 3.51909 -4.58609 255 0 0
-11.2303 2.50327 -4.47565 255 0 0
-10.4254 3.69067 -4.37958 255 0 0
-11.7698 2.47745 -4.69271 255 0 0
-9.35272 2.34237 -4.93021 255 0 0
-10.2927 3.1031 -4.50072 255 0 0
-10.0783 3.19558 -5.0222 255 0 0
-11.5674 2.34905 -4.95336 255 0 0
-10.4892 2.78615 -4.5246 255 0 0
-10.9164 2.87193 -4.13578 255 0 0
-10.4571 3.59065 -4.47525 255 0 0
-10.3579 3.7777 -4.75865 255 0 0
-10.509 3.52513 -4.28877 255 0 0
-10.423 3.52379 -4.75296 255 0 0
-10.4459 3.23052 -4.63944 255 0 0
-8.27762 2.90827 -5.2347 255 0 0
-10.0912 2.40054 -4.77937 255 0 0
-9.78304 2.35177 -5.05791 255 0 0
-9.16068 2.31737 -4.95777 255 0 0
-10.5304 2.61079 -4.71459 255 0 0
-8.2798 3.17644 -5.02062 255 0 0
-10.4576 3.31582 -4.45606 255 0 0
-10.3417 3.77177 -4.65731 255 0 0
-11.0711 2.57825 -4.24884 255 0 0
-8.74358 2.34469 -4.83358 255 0 0
-10.4875 3.40758 -4.27693 255 0 0
-10.3389 2.83829 -4.7775 255 0 0
-8.34138 2.77603 -5.07617 255 0 0
-10.2593 3.60452 -5.01079 255 0 0
-8.44508 3.79202 -4.56315 255 0 0
-8.39545 2.67295 -4.5185 255 0 0
-8.31603 2.72386 -4.73913 255 0 0
-10.5768 2.38396 -4.90515 255 0 0
-10.5393 3.45207 -4.28995 255 0 0
-10.5172 2.50189 -4.42024 255 0 0
-8.27113 2.92805 -4.82672 255 0 0
-9.73083 2.33922 -5.13268 255 0 0
-9.92783 2.33683 -5.37963 255 0 0
-10.3912 3.26767 -4.53389 255 0 0
-10.4584 3.39814 -4.65456 255 0 0
-8.29473 3.77188 -5.10369 255 0 0
-8.31473 3.60396 -5.0867 255 0 0
-8.33665 2.63246 -4.65694 255 0 0
-10.3563 2.5937 -4.48347 255 0 0
-10.2653 2.85737 -4.85514 255 0 0
-8.32582 3.31929 -4.80559 255 0 0
-10.252 3.84963 -4.83697 255 0 0
-10.476 2.78264 -4.42664 255 0 0
-10.5248 3.72584 -4.30534 255 0 0
-9.441 2.36448 -5.40558 255 0 0
-10.4868 3.4762 -4.37712 255 0 0
-10.2614 3.44206 -4.99673 255 0 0
-10.9204 2.51588 -4.60685 255 0 0
-10.5213 3.52923 -4.19543 255 0 0
-9.90427 2.4805 -5.28936 255 0 0
-10.4135 2.76605 -4.60097 255 0 0
-10.4963 3.32809 -4.17838 255 0 0
-8.25255 3.09883 -4.92103 255 0 0
-10.0825 2.43641 -4.77937 255 0 0
-10.4311 3.11788 -4.53256 255 0 0
-8.43495 2.41267 -4.6663 255 0 0
-8.76128 3.72371 -4.63581 255 0 0
-10.5551 3.59635 -4.39929 255 0 0
-11.228 2.47483 -4.77547 255 0 0
-10.281 2.36856 -5.01577 255 0 0
-8.26066 3.12424 -5.09036 255 0 0
-10.5154 2.98078 -4.2568 255 0 0
-10.4995 3.21984 -4.45862 255 0 0
-10.4053 3.87905 -4.77855 255 0 0
-9.89445 3.79588 -4.93423 255 0 0
-9.77641 3.80388 -4.90454 255 0 0
-8.38181 2.37599 -5.12999 255 0 0
-8.37438 2.89773 -5.26711 255 0 0
-10.2656 2.72677 -4.84605 255 0 0
-10.2621 2.77799 -4.9436 255 0 0
-8.37461 3.82019 -4.63115 255 0 0
-10.2708 3.78735 -4.93319 255 0 0
-8.33981 2.57921 -4.57398 255 0 0
-10.9446 2.35801 -5.09984 255 0 0
-10.2821 3.36782 -4.89909 255 0 0
-10.5224 3.02324 -4.16588 255 0 0
-8.31653 2.94411 -5.16959 255 0 0
-10.8806 3.1681 -4.73562 255 0 0
-10.5015 3.12535 -4.16759 255 0 0
-8.26804 3.22828 -5.10583 255 0 0
-10.5612 3.21139 -4.27929 255 0 0
-10.3933 3.67929 -4.75865 255 0 0
-10.4448 2.90734 -4.33278 255 0 0
-10.3522 2.96107 -4.5047 255 0 0
-11.1472 3.18847 -4.79883 255 0 0
-10.4304 3.28002 -4.63944 255 0 0
-10.4997 3.80122 -4.59757 255 0 0
-10.3492 2.46193 -4.568 255 0 0
-8.23574 2.82791 -5.21039 255 0 0
-10.4804 2.81043 -4.4292 255 0 0
-8.28024 2.47499 -4.78423 255 0 0
-8.38336 3.02381 -4.54747 255 0 0
-8.36969 2.38327 -4.56597 255 0 0
-9.04281 2.42493 -5.36361 255 0 0
-10.5309 2.85076 -4.53787 255 0 0
-9.81412 2.33464 -5.3428 255 0 0
-9.64134 2.3419 -5.01534 255 0 0
-10.535 2.83848 -4.1585 255 0 0
-10.4778 3.76523 -4.39559 255 0 0
-8.63979 2.31685 -4.88178 255 0 0
-10.4958 2.89474 -4.34263 255 0 0
-10.5386 2.69253 -4.6257 255 0 0
-10.5083 2.5789 -4.61196 255 0 0
-10.9915 2.36812 -5.01275 255 0 0
-11.8712 2.52819 -3.77786 255 0 0
-10.1334 3.09442 -5.02864 255 0 0
-8.30979 2.41956 -5.02847 255 0 0
-8.36404 2.41386 -4.80458 255 0 0
-10.4769 3.51436 -4.47397 255 0 0
-10.1837 2.49922 -4.80968 255 0 0
-11.2314 3.18376 -4.81806 255 0 0
-10.7611 3.27218 -4.12816 255 0 0
-8.3173 3.56999 -5.08293 255 0 0
-8.81489 2.34142 -4.77187 255 0 0
-8.43505 2.32639 -4.81894 255 0 0
-8.34733 2.36621 -4.87499 255 0 0
-10.2705 3.5266 -4.9097 255 0 0
-8.8819 2.44963 -5.31015 255 0 0
-10.8127 2.51808 -4.48548 255 0 0
-10.4301 3.18504 -4.63257 255 0 0
-8.95056 3.75415 -4.68737 255 0 0
-8.26728 3.12675 -5.17553 255 0 0
-11.8113 2.48618 -3.87061 255 0 0
-8.30951 3.76672 -4.93924 255 0 0
-9.15339 3.83922 -4.65965 255 0 0
-10.5241 3.39192 -4.18747 255 0 0
-11.0292 2.34889 -5.22336 255 0 0
-8.76617 2.35074 -4.6761 255 0 0
-10.4864 3.53141 -4.38081 255 0 0
-8.38813 2.88024 -4.53513 255 0 0
-8.78174 2.37725 -4.60058 255 0 0
-10.3283 2.40526 -4.8415 255 0 0
-8.91564 3.76438 -4.67955 255 0 0
-8.24305 3.83125 -5.09614 255 0 0
-9.69274 2.33006 -4.9394 255 0 0
-11.373 2.47854 -4.70768 255 0 0
-9.7379 2.36535 -5.41331 255 0 0
-10.3509 3.13404 -4.80173 255 0 0
-8.36296 3.16293 -4.63635 255 0 0
-10.5228 2.90218 -4.53919 255 0 0
-8.39194 2.72673 -4.52226 255 0 0
-11.8126 2.48647 -3.97369 255 0 0
-10.554 2.56358 -4.24259 255 0 0
-10.9364 2.57423 -4.2227 255 0 0
-10.4926 3.79866 -4.30416 255 0 0
-10.2686 3.44446 -4.90212 255 0 0
-10.4417 2.64144 -4.41129 255 0 0
-9.12092 3.8002 -4.7358 255 0 0
-10.3994 3.83479 -4.57833 255 0 0
-10.5145 2.96707 -4.16134 255 0 0
-8.29207 3.67618 -4.92218 255 0 0
-10.9096 2.89781 -4.13578 255 0 0
-10.421 3.82872 -4.48548 255 0 0
-10.7735 3.3879 -4.13687 255 0 0
-10.4234 3.23712 -4.73094 255 0 0
-10.7463 3.43544 -4.13469 255 0 0
-9.68569 3.82156 -4.78998 255 0 0
-10.3959 2.66922 -4.49674 255 0 0
-10.3628 3.55826 -4.83844 255 0 0
-11.4224 2.41849 -4.92138 255 0 0
-10.5114 2.42164 -4.69896 255 0 0
-10.4543 3.32843 -4.74515 255 0 0
-10.4751 2.49186 -4.5047 255 0 0
-11.7353 2.47019 -4.58034 255 0 0
-8.36294 3.55441 -4.76165 255 0 0
-10.5248 3.02396 -4.35618 255 0 0
-8.39067 2.32485 -4.88512 255 0 0
-11.7419 2.47158 -4.79126 255 0 0
-10.5181 3.32129 -4.27752 255 0 0
-11.0363 2.51502 -4.53409 255 0 0
-11.8068 2.51449 -4.18031 255 0 0
-10.4677 3.46989 -4.46885 255 0 0
-8.25827 2.97869 -4.90906 255 0 0
-8.68799 3.5475 -5.37152 255 0 0
-8.27745 2.5277 -4.94794 255 0 0
-10.3123 2.40153 -4.74299 255 0 0
-10.2744 2.36705 -5.20433 255 0 0
-11.0491 2.4904 -4.63471 255 0 0
-10.547 3.07096 -4.36357 255 0 0
-8.83347 2.34636 -5.11313 255 0 0
-10.3692 2.99255 -4.70038 255 0 0
-10.5793 2.64955 -4.7288 255 0 0
-10.4838 3.10658 -4.73591 255 0 0
-10.7769 3.31889 -4.1336 255 0 0
-11.8396 2.49215 -4.28927 255 0 0
-10.8285 3.16687 -4.13469 255 0 0
-10.7026 3.47747 -4.12925 255 0 0
-10.9932 3.22918 -4.76585 255 0 0
-10.3119 2.37568 -4.83544 255 0 0
-10.4704 3.26534 -4.35987 255 0 0
-10.8139 3.09313 -4.12816 255 0 0
-9.01576 2.32625 -4.82976 255 0 0
-10.6782 3.69489 -4.13796 255 0 0
-10.6543 3.65836 -4.13142 255 0 0
-10.6551 3.60226 -4.12816 255 0 0
-10.6636 3.57699 -4.12816 255 0 0
-10.6503 3.54443 -4.1238 255 0 0
-10.6805 3.52638 -4.12816 255 0 0
-10.7053 3.45032 -4.12816 255 0 0
-10.727 3.40126 -4.12925 255 0 0
-10.7925 3.36577 -4.13904 255 0 0
-10.7985 3.2277 -4.13251 255 0 0
-10.8172 3.20536 -4.13469 255 0 0
-10.8397 3.12834 -4.13469 255 0 0
-10.8744 3.02694 -4.13578 255 0 0
-10.8324 2.97376 -4.12544 255 0 0
-10.8249 2.90281 -4.12054 255 0 0
-10.9232 2.84604 -4.13578 255 0 0
-10.9633 2.82876 -4.14231 255 0 0
-10.8975 2.78424 -4.12816 255 0 0
-8.34572 3.67631 -4.85457 255 0 0
-10.1435 2.90138 -5.01577 255 0 0
-10.4518 3.5335 -4.27811 255 0 0
-10.439 3.77926 -4.48548 255 0 0
-10.2729 3.81584 -5.03422 255 0 0
-10.8938 2.53696 -4.40668 255 0 0
-10.2697 3.3234 -4.89227 255 0 0
-8.27136 2.97234 -5.15771 255 0 0
-10.8543 2.55491 -4.39929 255 0 0
-10.5697 3.82656 -4.22384 255 0 0
-10.5453 3.7754 -4.21588 255 0 0
-10.537 3.73019 -4.21134 255 0 0
-10.5141 3.56847 -4.19656 255 0 0
-10.5229 3.43288 -4.18975 255 0 0
-10.4998 3.28817 -4.17668 255 0 0
-10.4851 3.22904 -4.17043 255 0 0
-10.4948 3.17761 -4.16929 255 0 0
-10.5382 3.08196 -4.17213 255 0 0
-10.5139 2.92657 -4.15906 255 0 0
-10.5484 2.78848 -4.1585 255 0 0
-10.4901 3.02743 -4.25443 255 0 0
-10.5777 2.75602 -4.16247 255 0 0
-10.5818 2.71695 -4.16134 255 0 0
-10.597 2.68071 -4.16247 255 0 0
-10.6368 2.66395 -4.16929 255 0 0
-10.8006 2.62348 -4.19884 255 0 0
-11.2171 2.58423 -4.27724 255 0 0
-11.8262 2.48933 -4.39088 255 0 0
-10.2671 2.68809 -4.84378 255 0 0
-10.5522 3.40098 -4.57899 255 0 0
-8.54073 2.33376 -5.09809 255 0 0
-10.4469 3.78213 -4.77997 255 0 0
-10.4086 3.79617 -4.48037 255 0 0
-8.28553 2.5409 -4.79201 255 0 0
-10.5022 3.22068 -4.36357 255 0 0
-10.1175 3.88146 -4.90364 255 0 0
-10.4943 3.82746 -4.30653 255 0 0
-10.453 3.75632 -4.2935 255 0 0
-10.4957 3.68757 -4.29705 255 0 0
-10.5152 3.66645 -4.29942 255 0 0
-10.5193 3.58417 -4.29469 255 0 0
-10.5417 3.37003 -4.28521 255 0 0
-8.35724 3.72881 -4.78123 255 0 0
-10.5326 3.28472 -4.27811 255 0 0
-10.4994 3.13828 -4.26272 255 0 0
-10.5306 3.09331 -4.26627 255 0 0
-10.5303 3.01202 -4.26153 255 0 0
-10.5567 2.8309 -4.2568 255 0 0
-10.5077 2.72449 -4.2414 255 0 0
-10.4847 2.65231 -4.23312 255 0 0
-10.4529 2.57844 -4.22305 255 0 0
-10.6102 2.55061 -4.25324 255 0 0
-10.7557 2.55862 -4.28285 255 0 0
-11.0693 2.57783 -4.34678 255 0 0
-11.1932 2.55079 -4.37047 255 0 0
-10.2619 3.22702 -4.88242 255 0 0
-10.8378 2.335 -5.26895 255 0 0
-9.7411 3.81675 -4.89673 255 0 0
-9.94699 2.51628 -5.30552 255 0 0
-10.4366 3.77837 -4.3882 255 0 0
-10.0591 2.34258 -5.04539 255 0 0
-10.2545 3.09161 -4.96548 255 0 0
-8.38378 2.34435 -4.80458 255 0 0
-10.3503 3.36302 -4.81935 255 0 0
-8.43761 3.89737 -4.82465 255 0 0
-8.38699 2.98026 -4.54425 255 0 0
-8.79371 2.3358 -5.01496 255 0 0
-10.4499 3.8253 -4.39436 255 0 0
-10.4436 3.72499 -4.38574 255 0 0
-10.4017 3.65455 -4.37219 255 0 0
-10.4103 3.62988 -4.37219 255 0 0
-10.4189 3.60519 -4.37219 255 0 0
-10.4708 3.59534 -4.38204 255 0 0
-10.4444 3.36625 -4.3611 255 0 0
-10.5098 3.19578 -4.36357 255 0 0
-10.4529 2.96308 -4.3377 255 0 0
-10.515 2.95377 -4.35002 255 0 0
-10.4652 2.83297 -4.33278 255 0 0
-10.4629 2.75263 -4.32785 255 0 0
-10.4251 2.71627 -4.318 255 0 0
-10.4402 2.68059 -4.31923 255 0 0
-10.4127 2.55541 -4.30691 255 0 0
-11.4513 2.43878 -4.82631 255 0 0
-10.4243 2.53207 -4.30814 255 0 0
-10.5809 2.51705 -4.34017 255 0 0
-11.1118 2.55996 -4.45348 255 0 0
-11.2127 2.55523 -4.47442 255 0 0
-11.1908 2.52234 -4.46826 255 0 0
-8.34038 3.5215 -4.75143 255 0 0
-10.9708 2.74762 -4.73013 255 0 0
-8.27025 3.38838 -4.96155 255 0 0
-10.2673 2.33978 -5.105 255 0 0
-8.25266 2.81186 -4.96965 255 0 0
-8.34682 2.77785 -4.59385 255 0 0
-10.8993 2.48382 -4.69853 255 0 0
-10.6411 3.79545 -4.62808 255 0 0
-8.30344 2.37506 -5.02203 255 0 0
-10.444 3.86532 -4.49316 255 0 0
-10.534 3.78542 -4.50595 255 0 0
-10.5175 3.69524 -4.49572 255 0 0
-10.5482 3.58007 -4.4938 255 0 0
-10.4094 3.40951 -4.45222 255 0 0
-10.4826 3.40601 -4.46757 255 0 0
-10.4926 3.29958 -4.46246 255 0 0
-10.4404 3.25598 -4.44839 255 0 0
-10.4415 3.17499 -4.44327 255 0 0
-10.5146 3.17002 -4.45862 255 0 0
-10.4017 3.10908 -4.43048 255 0 0
-10.5204 3.09031 -4.45478 255 0 0
-10.4471 3.01504 -4.43431 255 0 0
-10.5603 2.99352 -4.45734 255 0 0
-10.4923 2.62778 -4.42152 255 0 0
-10.4461 2.57678 -4.40873 255 0 0
-10.4053 2.52745 -4.39722 255 0 0
-10.3945 2.49877 -4.39338 255 0 0
-10.5843 2.49134 -4.43431 255 0 0
-11.0924 2.50015 -4.5456 255 0 0
-11.1931 2.49498 -4.56735 255 0 0
-11.3778 2.47959 -4.60701 255 0 0
-8.9289 2.32643 -4.80422 255 0 0
-8.40062 2.82897 -4.53379 255 0 0
-10.1687 3.84586 -4.81641 255 0 0
-11.4405 2.35153 -4.81944 255 0 0
-8.3504 3.5842 -4.67941 255 0 0
-8.48634 2.82427 -5.29749 255 0 0
-8.40229 2.4249 -4.65779 255 0 0
-10.2777 3.72086 -5.02641 255 0 0
-10.4599 2.54072 -4.69327 255 0 0
-8.26575 2.71825 -4.88328 255 0 0
-12.0043 2.37855 -5.1703 255 0 0
-11.2517 2.36839 -5.08095 255 0 0
-9.19074 2.32497 -4.79533 255 0 0
-10.4156 3.79875 -4.57899 255 0 0
-10.557 3.79367 -4.60951 255 0 0
-10.5389 3.71679 -4.59956 255 0 0
-10.4352 3.6247 -4.56971 255 0 0
-10.4487 3.53248 -4.56573 255 0 0
-10.4787 3.51495 -4.57103 255 0 0
-10.4275 3.47029 -4.55644 255 0 0
-10.3869 3.42946 -4.5445 255 0 0
-10.4438 3.4208 -4.55644 255 0 0
-10.4899 3.40837 -4.56573 255 0 0
-10.4951 3.35511 -4.56307 255 0 0
-10.4921 3.32677 -4.56042 255 0 0
-10.5504 3.23548 -4.56705 255 0 0
-10.4108 3.16565 -4.53123 255 0 0
-10.4822 3.1061 -4.54317 255 0 0
-10.4786 3.07803 -4.54052 255 0 0
-10.4485 2.93508 -4.5246 255 0 0
-10.3895 2.89195 -4.50868 255 0 0
-10.3845 2.57463 -4.48878 255 0 0
-10.4017 2.55272 -4.49143 255 0 0
-10.3859 2.4967 -4.4848 255 0 0
-10.7145 2.4952 -4.55909 255 0 0
-10.9375 2.49251 -4.60951 255 0 0
-11.1551 2.48653 -4.65859 255 0 0
-11.4513 2.46718 -4.72492 255 0 0
-11.4627 2.38445 -4.82631 255 0 0
-10.3945 3.62436 -4.75439 255 0 0
-11.4838 2.38883 -4.93489 255 0 0
-11.3313 2.3571 -5.20453 255 0 0
-10.375 2.82177 -4.59548 255 0 0
-8.48968 2.36313 -4.67822 255 0 0
-10.2537 2.58094 -4.83317 255 0 0
-10.6005 2.68159 -4.73591 255 0 0
-10.3888 2.83875 -4.69469 255 0 0
-10.554 3.7362 -4.70265 255 0 0
-10.5199 3.69607 -4.69166 255 0 0
-10.3683 3.56015 -4.64631 255 0 0
-10.4257 3.49717 -4.65456 255 0 0
-10.4422 3.4477 -4.65456 255 0 0
-10.3475 3.38927 -4.62845 255 0 0
-10.5122 3.16928 -4.65044 255 0 0
-10.596 3.16717 -4.66967 255 0 0
-10.7781 3.19378 -4.71364 255 0 0
-11.1724 3.22436 -4.80707 255 0 0
-10.4369 2.91845 -4.61609 255 0 0
-10.4069 2.79074 -4.60097 255 0 0
-10.4068 2.72468 -4.59685 255 0 0
-10.4109 2.68622 -4.59548 255 0 0
-11.4885 2.90623 -4.86066 255 0 0
-10.3766 2.49445 -4.57624 255 0 0
-10.3495 2.43608 -4.56662 255 0 0
-10.7326 2.47259 -4.65868 255 0 0
-11.0162 2.483 -4.72601 255 0 0
-11.1499 2.48535 -4.75761 255 0 0
-11.6965 2.46203 -4.88539 255 0 0
-8.26839 3.22842 -4.94129 255 0 0
-11.7727 2.3617 -5.21734 255 0 0
-8.51686 2.34895 -4.68503 255 0 0
-8.34361 3.62823 -4.68272 255 0 0
-10.5075 3.08651 -4.74017 255 0 0
-8.87485 2.35735 -4.70756 255 0 0
-10.3985 3.543 -4.7487 255 0 0
-10.4032 3.4759 -4.74444 255 0 0
-10.4209 3.44066 -4.74586 255 0 0
-10.375 3.39826 -4.73165 255 0 0
-10.4775 3.37691 -4.75439 255 0 0
-10.3821 3.26481 -4.72312 255 0 0
-10.5647 3.21247 -4.76291 255 0 0
-10.4237 3.12916 -4.72312 255 0 0
-10.4494 3.04254 -4.72312 255 0 0
-10.4052 2.94954 -4.70606 255 0 0
-10.4279 2.88932 -4.70748 255 0 0
-10.4394 2.82598 -4.70606 255 0 0
-10.3832 2.48304 -4.67124 255 0 0
-10.3921 2.4331 -4.67053 255 0 0
-11.1993 2.48247 -4.87022 255 0 0
-11.333 2.46982 -4.9022 255 0 0
-11.4332 2.46328 -4.92636 255 0 0
-11.6174 2.3879 -4.96757 255 0 0
-11.417 2.29033 -4.91357 255 0 0
-8.38048 2.33273 -5.04394 255 0 0
-8.41012 3.83639 -4.80932 255 0 0
-10.5806 2.35845 -5.00141 255 0 0
-8.26783 3.3303 -4.95357 255 0 0
-9.79656 3.8653 -4.72831 255 0 0
-9.94291 3.89583 -4.76649 255 0 0
-9.99633 3.8758 -4.7775 255 0 0
-10.0656 3.86155 -4.79292 255 0 0
-10.2968 3.81081 -4.84431 255 0 0
-10.3058 3.78639 -4.84431 255 0 0
-10.32 3.76388 -4.84578 255 0 0
-10.3145 3.67896 -4.83697 255 0 0
-10.3499 3.66395 -4.84431 255 0 0
-10.342 3.5923 -4.83624 255 0 0
-10.3638 3.44908 -4.82963 255 0 0
-10.345 3.41562 -4.82229 255 0 0
-10.3475 3.33499 -4.81641 255 0 0
-10.3451 3.28017 -4.81152 255 0 0
-10.3462 3.22658 -4.8076 255 0 0
-10.3467 3.18643 -4.80467 255 0 0
-10.3475 3.06619 -4.79585 255 0 0
-10.342 3.02461 -4.79145 255 0 0
-10.3508 2.97396 -4.78998 255 0 0
-10.3375 2.91714 -4.78264 255 0 0
-10.3249 2.78185 -4.77016 255 0 0
-10.3352 2.73214 -4.76942 255 0 0
-10.3343 2.67954 -4.76575 255 0 0
-10.3277 2.62563 -4.76061 255 0 0
-10.3263 2.57318 -4.75694 255 0 0
-10.3121 2.42727 -4.74446 255 0 0
-10.5335 2.40046 -4.79879 255 0 0
-10.8267 2.44029 -4.87515 255 0 0
-10.8657 2.42201 -4.88396 255 0 0
-10.8991 2.40234 -4.8913 255 0 0
-11.3429 2.3876 -5.0029 255 0 0
-11.4262 2.37686 -5.02346 255 0 0
-11.6206 2.38856 -5.07338 255 0 0
-11.7262 2.38131 -5.09982 255 0 0
-11.8652 2.38025 -5.13506 255 0 0
-12.2546 2.39798 -5.23491 255 0 0
-12.4606 2.40763 -5.28777 255 0 0
-8.29367 3.37504 -5.04989 255 0 0
-9.39286 2.35242 -5.29814 255 0 0
-9.37789 3.82921 -4.7142 255 0 0
-8.99066 3.84639 -4.62025 255 0 0
-9.07262 3.85604 -4.64146 255 0 0
-9.07132 3.83012 -4.63843 255 0 0
-9.22512 3.84361 -4.67783 255 0 0
-9.28124 3.84119 -4.69147 255 0 0
-9.32694 3.83423 -4.70208 255 0 0
-9.4334 3.81277 -4.72633 255 0 0
-9.53092 3.81283 -4.75058 255 0 0
-9.60827 3.81736 -4.77028 255 0 0
-9.72631 3.81096 -4.79907 255 0 0
-9.85054 3.81927 -4.8309 255 0 0
-10.0051 3.81116 -4.86878 255 0 0
-10.0671 3.80743 -4.88394 255 0 0
-10.2753 3.73378 -4.9294 255 0 0
-10.2619 3.68765 -4.92182 255 0 0
-10.243 3.63976 -4.91273 255 0 0
-10.2879 3.61456 -4.92182 255 0 0
-10.2713 3.56775 -4.91349 255 0 0
-10.283 3.49005 -4.9097 255 0 0
-10.2606 3.41475 -4.89758 255 0 0
-10.2526 3.38509 -4.89303 255 0 0
-10.2609 3.17331 -4.87787 255 0 0
-10.2634 3.06776 -4.8703 255 0 0
-10.2559 2.97304 -4.8612 255 0 0
-10.2672 2.9236 -4.86045 255 0 0
-10.275 2.76841 -4.85135 255 0 0
-10.2687 2.63656 -4.84075 255 0 0
-10.1942 2.52744 -4.81423 255 0 0
-10.1243 2.38309 -4.78695 255 0 0
-10.4554 2.38264 -4.87333 255 0 0
-10.6653 2.37733 -4.92789 255 0 0
-11.4955 2.36284 -5.1446 255 0 0
-11.9225 2.36236 -5.25674 255 0 0
-12.4445 2.40451 -5.39617 255 0 0
-8.31922 2.65953 -4.73388 255 0 0
-8.6162 3.86888 -5.3933 255 0 0
-8.30547 2.92913 -5.08165 255 0 0
-10.2886 2.37031 -4.92329 255 0 0
-9.83767 2.3649 -4.80142 255 0 0
-8.4347 3.83554 -4.5655 255 0 0
-8.48217 3.7364 -4.56628 255 0 0
-8.51351 3.71412 -4.57175 255 0 0
-8.52229 3.69392 -4.57175 255 0 0
-8.59322 3.70049 -4.5905 255 0 0
-8.71611 3.72893 -4.62487 255 0 0
-9.21712 3.78908 -4.75924 255 0 0
-9.32534 3.80775 -4.78892 255 0 0
-9.39187 3.80896 -4.80611 255 0 0
-9.69528 3.82534 -4.88579 255 0 0
-9.87489 3.81526 -4.9311 255 0 0
-9.9667 3.79651 -4.95298 255 0 0
-10.0548 3.80282 -4.97641 255 0 0
-10.2547 3.76761 -5.02485 255 0 0
-10.253 3.73942 -5.02172 255 0 0
-10.2457 3.66812 -5.01313 255 0 0
-10.2614 3.6326 -5.01391 255 0 0
-10.2572 3.57647 -5.00766 255 0 0
-10.2485 3.53261 -5.00141 255 0 0
-10.2411 3.47582 -4.99438 255 0 0
-10.2454 3.38274 -4.98735 255 0 0
-10.2427 3.35493 -4.98423 255 0 0
-10.2409 3.28724 -4.97798 255 0 0
-10.2483 3.23612 -4.97563 255 0 0
-10.242 3.18078 -4.96938 255 0 0
-10.2489 3.12972 -4.96704 255 0 0
-10.2672 3.0689 -4.96704 255 0 0
-10.2456 3.02278 -4.95766 255 0 0
-10.2544 2.9726 -4.9561 255 0 0
-10.2494 2.91853 -4.95063 255 0 0
-10.2624 2.88282 -4.95141 255 0 0
-10.25 2.80082 -4.94204 255 0 0
-9.3593 2.46228 -4.67955 255 0 0
-9.27228 2.4159 -4.65299 255 0 0
-9.50826 2.38132 -4.71393 255 0 0
-9.58508 2.37642 -4.73424 255 0 0
-9.7443 2.36691 -4.77642 255 0 0
-9.96402 2.3703 -4.8358 255 0 0
-10.0905 2.37511 -4.87017 255 0 0
-10.184 2.37166 -4.89517 255 0 0
-10.3987 2.36973 -4.95298 255 0 0
-10.4869 2.36368 -4.97641 255 0 0
-10.8122 2.35632 -5.06391 255 0 0
-11.1986 2.35723 -5.16859 255 0 0
-11.4861 2.3609 -5.24671 255 0 0
-11.5746 2.35051 -5.27015 255 0 0
-11.7516 2.35747 -5.31858 255 0 0
-12.0284 2.38334 -5.39514 255 0 0
-8.33044 3.18455 -4.7916 255 0 0
-8.4621 3.88437 -4.82976 255 0 0
-8.42467 2.36657 -4.73913 255 0 0
-8.56566 2.64904 -5.30559 255 0 0
-8.58788 2.77913 -5.32787 255 0 0
-8.48196 2.41523 -4.52092 255 0 0
-8.39111 3.85178 -4.6392 255 0 0
-8.3447 3.58176 -4.59575 255 0 0
-8.34186 3.54545 -4.59092 255 0 0
-8.34355 3.37229 -4.57241 255 0 0
-8.34637 3.32748 -4.56839 255 0 0
-8.34896 3.28272 -4.56437 255 0 0
-8.35308 3.17052 -4.55391 255 0 0
-8.36801 3.13088 -4.55391 255 0 0
-8.37409 3.07669 -4.55015 255 0 0
-8.39041 2.93673 -4.54103 255 0 0
-8.39191 2.62805 -4.51367 255 0 0
-8.38508 2.5932 -4.50885 255 0 0
-8.35891 2.5634 -4.49919 255 0 0
-8.39491 2.54182 -4.50724 255 0 0
-8.38282 2.48399 -4.49919 255 0 0
-8.31807 2.46482 -4.47988 255 0 0
-8.33507 2.42692 -4.48149 255 0 0
-8.39489 2.42276 -4.49758 255 0 0
-8.57993 2.41019 -4.54747 255 0 0
-8.7272 2.38471 -4.58609 255 0 0
-8.84173 2.37101 -4.61667 255 0 0
-8.92894 2.37171 -4.64081 255 0 0
-9.03254 2.37632 -4.66977 255 0 0
-9.09808 2.37051 -4.68748 255 0 0
-9.26194 2.36636 -4.73254 255 0 0
-9.33302 2.36096 -4.75185 255 0 0
-9.40413 2.35524 -4.77116 255 0 0
-9.47526 2.3492 -4.79047 255 0 0
-9.59016 2.35356 -4.82265 255 0 0
-9.6723 2.34942 -4.84518 255 0 0
-9.82564 2.36201 -4.88863 255 0 0
-9.89146 2.35304 -4.90634 255 0 0
-10.0231 2.35924 -4.94335 255 0 0
-10.2921 2.34543 -5.01738 255 0 0
-10.4624 2.35816 -5.06565 255 0 0
-10.5339 2.34804 -5.08496 255 0 0
-11.1615 2.3494 -5.26037 255 0 0
-11.2607 2.34242 -5.28773 255 0 0
-11.5531 2.34614 -5.3698 255 0 0
-9.16238 2.34092 -4.87402 255 0 0
-9.84855 2.34283 -5.07663 255 0 0
-8.27461 3.43609 -4.96892 255 0 0
-8.2642 2.88158 -4.90016 255 0 0
-8.3384 3.7204 -4.85807 255 0 0
-8.26745 3.13803 -4.93024 255 0 0
-8.43314 3.89531 -4.73903 255 0 0
-8.46276 3.88467 -4.74565 255 0 0
-8.36465 3.81565 -4.71087 255 0 0
-8.37367 3.79581 -4.71087 255 0 0
-8.3468 3.75979 -4.69928 255 0 0
-8.35242 3.72666 -4.6968 255 0 0
-8.3492 3.53689 -4.67361 255 0 0
-8.34637 3.41957 -4.65954 255 0 0
-8.35208 3.37574 -4.65623 255 0 0
-8.34191 3.3257 -4.64795 255 0 0
-8.34452 3.28097 -4.64381 255 0 0
-8.35213 3.23831 -4.64132 255 0 0
-8.36593 3.18675 -4.63967 255 0 0
-8.36208 3.11735 -4.63139 255 0 0
-8.34939 3.07886 -4.62393 255 0 0
-8.34278 3.03156 -4.61731 255 0 0
-8.34103 2.91945 -4.60572 255 0 0
-8.34681 2.87711 -4.60323 255 0 0
-8.34441 2.83208 -4.59827 255 0 0
-8.34803 2.72339 -4.58916 255 0 0
-8.34213 2.67777 -4.58336 255 0 0
-8.3467 2.63564 -4.58088 255 0 0
-8.34511 2.52674 -4.57094 255 0 0
-8.34354 2.48313 -4.5668 255 0 0
-8.34911 2.43103 -4.56404 255 0 0
-8.42949 2.36792 -4.58171 255 0 0
-8.51083 2.36902 -4.60489 255 0 0
-8.57056 2.36376 -4.62145 255 0 0
-8.63032 2.35824 -4.63801 255 0 0
-9.03545 2.34274 -4.75227 255 0 0
-9.14167 2.33563 -4.78208 255 0 0
-9.32154 2.33456 -4.83342 255 0 0
-9.35975 2.32056 -4.84335 255 0 0
-9.47977 2.32647 -4.87813 255 0 0
-9.59987 2.33182 -4.91291 255 0 0
-9.83483 2.33957 -4.9808 255 0 0
-9.96063 2.34455 -5.01723 255 0 0
-10.1632 2.34142 -5.07519 255 0 0
-10.3495 2.33272 -5.12819 255 0 0
-10.492 2.33872 -5.16959 255 0 0
-10.5634 2.32834 -5.18946 255 0 0
-10.9477 2.33153 -5.30041 255 0 0
-11.0796 2.33217 -5.3385 255 0 0
-11.2006 2.32991 -5.37327 255 0 0
-8.24206 2.93976 -5.14385 255 0 0
-8.34939 3.64252 -4.76846 255 0 0
-8.46376 3.7643 -5.32797 255 0 0
-8.61559 2.33228 -5.12323 255 0 0
-8.24998 3.0311 -5.15771 255 0 0
-8.28819 3.5808 -4.90872 255 0 0
-8.37327 3.79562 -4.794 255 0 0
-8.3492 3.67783 -4.77272 255 0 0
-8.36315 3.62494 -4.77016 255 0 0
-8.35539 3.58634 -4.76335 255 0 0
-8.35093 3.433 -4.74406 255 0 0
-8.33679 3.32366 -4.7276 255 0 0
-8.33681 3.27795 -4.72249 255 0 0
-8.34511 3.17883 -4.71398 255 0 0
-8.3339 3.12937 -4.70546 255 0 0
-8.36229 3.11743 -4.71227 255 0 0
-8.34864 3.08982 -4.70546 255 0 0
-8.3632 3.0502 -4.70546 255 0 0
-8.3388 3.01892 -4.69525 255 0 0
-8.32485 2.99156 -4.68844 255 0 0
-8.32828 2.92608 -4.68276 255 0 0
-8.32872 2.87089 -4.67737 255 0 0
-8.33166 2.78378 -4.66971 255 0 0
-8.33558 2.73028 -4.66574 255 0 0
-8.33741 2.67624 -4.6612 255 0 0
-8.34582 2.52695 -4.65013 255 0 0
-8.3477 2.45208 -4.64417 255 0 0
-8.34902 2.36669 -4.63736 255 0 0
-8.41933 2.36507 -4.65779 255 0 0
-8.57104 2.34204 -4.70036 255 0 0
-8.73897 2.34345 -4.74973 255 0 0
-8.8746 2.33477 -4.78889 255 0 0
-9.26024 2.34255 -4.90297 255 0 0
-9.43981 2.34041 -4.95575 255 0 0
-9.55959 2.34606 -4.9915 255 0 0
-10.0449 2.3644 -5.13623 255 0 0
-10.3237 2.35264 -5.21795 255 0 0
-10.444 2.35402 -5.25371 255 0 0
-10.5371 2.34875 -5.28095 255 0 0
-10.6575 2.34909 -5.3167 255 0 0
-10.7397 2.34051 -5.34054 255 0 0
-10.9916 2.36814 -5.41716 255 0 0
-8.27896 2.44256 -4.86025 255 0 0
-8.38349 3.88445 -4.89217 255 0 0
-8.44551 3.87675 -4.90879 255 0 0
-8.41909 3.84048 -4.89655 255 0 0
-8.35059 3.7615 -4.86681 255 0 0
-8.34768 3.63002 -4.84932 255 0 0
-8.35197 3.58487 -4.84495 255 0 0
-8.33543 3.53106 -4.83358 255 0 0
-8.32612 3.4228 -4.81784 255 0 0
-8.33533 3.38049 -4.8155 255 0 0
-8.33367 3.27669 -4.80297 255 0 0
-8.33609 3.2321 -4.7986 255 0 0
-8.32453 3.13713 -4.7846 255 0 0
-8.30695 3.00738 -4.76536 255 0 0
-8.31495 2.97688 -4.76449 255 0 0
-8.33161 2.93834 -4.76536 255 0 0
-8.32775 2.88159 -4.75837 255 0 0
-8.32088 2.8241 -4.75049 255 0 0
-8.33128 2.77267 -4.74845 255 0 0
-8.32832 2.69511 -4.74 255 0 0
-8.32862 2.62993 -4.73388 255 0 0
-8.33516 2.57777 -4.73096 255 0 0
-8.33515 2.52372 -4.72601 255 0 0
-8.32292 2.47699 -4.71814 255 0 0
-8.33168 2.44738 -4.71814 255 0 0
-8.40205 2.43562 -4.73825 255 0 0
-8.43026 2.34659 -4.73913 255 0 0
-8.49505 2.34294 -4.75837 255 0 0
-8.52214 2.32868 -4.76536 255 0 0
-8.64631 2.34059 -4.80384 255 0 0
-8.86809 2.33306 -4.87031 255 0 0
-9.03056 2.33007 -4.91929 255 0 0
-9.29625 2.32822 -4.99974 255 0 0
-9.79817 2.41693 -5.15892 255 0 0
-9.79071 2.32907 -5.15017 255 0 0
-9.89955 2.33018 -5.1834 255 0 0
-10.1065 2.32837 -5.24637 255 0 0
-10.4227 2.34922 -5.34432 255 0 0
-8.34989 3.83286 -5.04443 255 0 0
-8.30524 2.89587 -5.2428 255 0 0
-8.30551 3.90828 -4.95719 255 0 0
-8.28858 3.85241 -4.94463 255 0 0
-8.3837 3.87247 -4.97515 255 0 0
-8.39286 3.85258 -4.97515 255 0 0
-8.35126 3.80954 -4.95719 255 0 0
-8.2898 3.72231 -4.92757 255 0 0
-8.29154 3.629 -4.9159 255 0 0
-8.28471 3.38284 -4.88298 255 0 0
-8.28566 3.32607 -4.8764 255 0 0
-8.28838 3.28161 -4.87191 255 0 0
-8.28049 3.23315 -4.86383 255 0 0
-8.28173 3.12101 -4.85126 255 0 0
-8.27073 3.03871 -4.83869 255 0 0
-8.26744 3.01527 -4.8351 255 0 0
-8.27286 2.98396 -4.8333 255 0 0
-8.27343 2.8738 -4.82163 255 0 0
-8.27643 2.83091 -4.81804 255 0 0
-8.27631 2.7762 -4.81236 255 0 0
-8.28028 2.72303 -4.80817 255 0 0
-8.27918 2.63592 -4.79919 255 0 0
-8.27337 2.58016 -4.79201 255 0 0
-8.27553 2.51638 -4.78662 255 0 0
-8.28833 2.43464 -4.78303 255 0 0
-8.38046 2.39709 -4.80817 255 0 0
-8.52656 2.32989 -4.84767 255 0 0
-8.58586 2.32423 -4.86562 255 0 0
-8.83932 2.32549 -4.94463 255 0 0
-8.9311 2.32701 -4.97335 255 0 0
-9.01754 2.32671 -5.00029 255 0 0
-9.93717 2.46372 -5.29834 255 0 0
-9.75129 2.33192 -5.23011 255 0 0
-9.86261 2.32148 -5.26423 255 0 0
-10.0092 2.33095 -5.31091 255 0 0
-10.3299 2.35405 -5.41325 255 0 0
-9.05152 2.38131 -5.36262 255 0 0
-8.2512 3.07603 -5.08133 255 0 0
-8.29964 3.46958 -5.06405 255 0 0
-8.32298 3.78474 -5.0297 255 0 0
-8.28506 3.72018 -5.00944 255 0 0
-8.28737 3.67409 -5.00391 255 0 0
-8.28433 3.62584 -4.99654 255 0 0
-8.28859 3.54604 -4.98734 255 0 0
-8.27652 3.51768 -4.97997 255 0 0
-8.28897 3.48822 -4.97997 255 0 0
-8.27107 3.27475 -4.94774 255 0 0
-8.26351 3.06946 -4.92103 255 0 0
-8.25449 3.02165 -4.91274 255 0 0
-8.25397 2.93298 -4.90261 255 0 0
-8.25996 2.81435 -4.89156 255 0 0
-8.26922 2.75201 -4.88788 255 0 0
-8.27326 2.67731 -4.88143 255 0 0
-8.28102 2.6257 -4.87867 255 0 0
-8.27522 2.56997 -4.87131 255 0 0
-8.282 2.52909 -4.86946 255 0 0
-8.33315 2.41566 -4.87499 255 0 0
-8.30429 2.3753 -4.8621 255 0 0
-8.44982 2.30892 -4.90261 255 0 0
-8.68615 2.32929 -4.97997 255 0 0
-8.8691 2.33332 -5.03891 255 0 0
-8.95529 2.33331 -5.06653 255 0 0
-9.18683 2.37039 -5.14389 255 0 0
-9.24628 2.36236 -5.1623 255 0 0
-9.25186 2.34043 -5.1623 255 0 0
-9.3059 2.33064 -5.17888 255 0 0
-9.71669 2.33582 -5.31149 255 0 0
-8.29138 2.37161 -5.09832 255 0 0
-8.29941 3.82162 -5.11219 255 0 0
-8.3277 3.73931 -5.10936 255 0 0
-8.33156 3.63474 -5.09614 255 0 0
-8.30862 3.5197 -5.07349 255 0 0
-8.29039 3.41961 -5.05461 255 0 0
-8.2813 3.32431 -5.0395 255 0 0
-8.28666 3.28092 -5.03573 255 0 0
-8.28873 3.22505 -5.02944 255 0 0
-8.27747 3.1306 -5.01433 255 0 0
-8.27051 3.02751 -4.99986 255 0 0
-8.27434 2.9845 -4.99608 255 0 0
-8.26752 2.9378 -4.98853 255 0 0
-8.26746 2.9047 -4.98475 255 0 0
-8.25406 2.79051 -4.96776 255 0 0
-8.27641 2.77622 -4.97343 255 0 0
-8.27017 2.73058 -4.96651 255 0 0
-8.27919 2.67923 -4.96399 255 0 0
-8.2786 2.63574 -4.95927 255 0 0
-8.27907 2.58194 -4.95392 255 0 0
-8.27724 2.47408 -4.94259 255 0 0
-8.27471 2.43064 -4.93756 255 0 0
-8.3656 2.43581 -4.96776 255 0 0
-8.3394 2.40675 -4.95644 255 0 0
-8.42058 2.3439 -4.9772 255 0 0
-8.47955 2.33866 -4.99608 255 0 0
-8.57062 2.34193 -5.02629 255 0 0
-8.60825 2.33029 -5.03762 255 0 0
-8.75294 2.3472 -5.0867 255 0 0
-8.93014 2.34938 -5.14523 255 0 0
-9.10195 2.37152 -5.20375 255 0 0
-9.14512 2.35963 -5.21697 255 0 0
-9.15606 2.33931 -5.21885 255 0 0
-9.18307 2.32303 -5.2264 255 0 0
-9.49542 2.33031 -5.33024 255 0 0
-8.25231 3.17713 -5.09422 255 0 0
-8.24743 3.28804 -5.10679 255 0 0
-8.26356 3.14776 -5.09422 255 0 0
-8.26497 3.02549 -5.07972 255 0 0
-8.32391 2.82513 -5.07585 255 0 0
-8.37259 2.73139 -5.08165 255 0 0
-8.34239 2.57999 -5.05555 255 0 0
-8.33768 2.34214 -5.03041 255 0 0
-8.45525 2.33196 -5.06908 255 0 0
-8.71184 2.33618 -5.15611 255 0 0
-9.05448 2.35915 -5.27408 255 0 0
-9.07351 2.32968 -5.27794 255 0 0
-9.23713 2.3367 -5.33403 255 0 0
-9.47349 2.33684 -5.41428 255 0 0
-8.27418 3.32145 -5.20325 255 0 0
-8.50704 3.85626 -5.35569 255 0 0
-8.34666 3.68854 -5.27848 255 0 0
-8.52693 3.74406 -5.34579 255 0 0
-8.24789 3.59824 -5.23294 255 0 0
-8.26651 3.58306 -5.2369 255 0 0
-8.3898 3.58933 -5.27848 255 0 0
-8.45637 3.42956 -5.27848 255 0 0
-8.24757 3.23155 -5.18246 255 0 0
-8.26555 3.23861 -5.18939 255 0 0
-8.26539 3.19342 -5.18345 255 0 0
-8.25236 3.16591 -5.17553 255 0 0
-8.25984 3.14634 -5.17553 255 0 0
-8.26802 3.09346 -5.17157 255 0 0
-8.26553 3.0368 -5.16365 255 0 0
-8.25911 2.99006 -5.15573 255 0 0
-8.36682 2.91734 -5.18345 255 0 0
-8.9869 2.52451 -5.35371 255 0 0
-9.10434 2.53422 -5.39528 255 0 0
-8.94107 2.43175 -5.32896 255 0 0
-9.07019 2.38623 -5.36954 255 0 0
-9.05215 2.3242 -5.35767 255 0 0
-8.25459 2.42473 -5.17191 255 0 0
-8.3137 3.48703 -5.32382 255 0 0
-8.24497 3.0737 -5.24415 255 0 0
-8.2364 3.01502 -5.23369 255 0 0
-8.29141 2.93522 -5.2428 255 0 0
-8.54518 2.82137 -5.31774 255 0 0
-8.57273 2.80794 -5.32585 255 0 0
-8.56109 2.73685 -5.31369 255 0 0
-8.55184 2.71156 -5.30762 255 0 0
-8.59288 2.69097 -5.31977 255 0 0
-8.40019 2.53254 -5.2347 255 0 0
-8.38163 2.44048 -5.2185 255 0 0
-10.1721 2.97488 -5.02944 255 0 0
-10.1857 3.01824 -5.03669 255 0 0
-10.081 3.13075 -5.01738 255 0 0
-10.1399 3.04391 -5.02623 255 0 0
