ply
format ascii 1.0
comment Created by Open3D
element vertex 225
property double x
property double y
property double z
property uchar red
property uchar green
property uchar blue
end_header
3.86228 16.6742 -4.65257 255 0 0
4.88231 16.6942 -4.69561 255 0 0
4.45585 17.3544 -4.47257 255 0 0
3.32734 16.6889 -4.92775 255 0 0
3.05735 16.5599 -5.18625 255 0 0
5.62804 16.4541 -5.14089 255 0 0
3.48901 16.6735 -4.93073 255 0 0
3.57664 16.697 -4.79189 255 0 0
5.4518 16.4466 -5.12944 255 0 0
5.36481 16.4448 -5.12424 255 0 0
5.18729 17.737 -5.02148 255 0 0
4.2376 17.5364 -5.25849 255 0 0
4.70491 16.6729 -4.68485 255 0 0
5.08157 16.6407 -4.69651 255 0 0
4.18395 17.4959 -5.24913 255 0 0
4.44786 16.6655 -4.67319 255 0 0
5.16995 16.7875 -5.02207 255 0 0
3.17534 17.9116 -5.28555 255 0 0
5.40739 16.443 -5.12632 255 0 0
3.26513 16.5818 -5.05243 255 0 0
4.42718 16.7473 -4.53738 255 0 0
5.31048 16.6116 -4.85141 255 0 0
4.6507 17.2611 -4.46697 255 0 0
5.51712 16.5124 -4.99526 255 0 0
3.64968 17.8634 -4.82564 255 0 0
3.26036 17.6595 -5.08958 255 0 0
3.54782 16.7563 -4.80039 255 0 0
3.22469 17.7012 -5.09553 255 0 0
4.77418 16.7662 -4.55351 255 0 0
5.95704 16.5156 -5.17107 255 0 0
6.47365 17.0555 -5.29492 255 0 0
5.30832 16.673 -4.71175 255 0 0
4.114 17.5714 -4.95062 255 0 0
4.01428 16.9641 -4.55351 255 0 0
5.76671 16.4758 -5.0032 255 0 0
4.59501 16.7381 -4.54247 255 0 0
4.36642 17.3472 -4.46857 255 0 0
3.50571 16.7533 -4.7985 255 0 0
3.46986 17.6215 -4.93644 255 0 0
4.28432 16.5236 -4.79094 255 0 0
5.2547 17.8106 -5.19481 255 0 0
5.19162 17.001 -5.21062 255 0 0
6.28892 16.688 -5.22103 255 0 0
4.72497 16.744 -4.54841 255 0 0
4.42326 17.3986 -4.47737 255 0 0
3.46247 16.7446 -4.79567 255 0 0
4.61189 16.6448 -4.67678 255 0 0
4.25959 16.7548 -4.53229 255 0 0
5.4662 16.6219 -4.86086 255 0 0
6.2251 16.6381 -5.20854 255 0 0
4.30565 17.2787 -4.45736 255 0 0
4.53662 17.3274 -4.47177 255 0 0
4.06318 16.7277 -4.66781 255 0 0
5.20969 17.3544 -5.11738 255 0 0
4.46204 17.209 -4.45336 255 0 0
3.20757 17.6073 -5.23247 255 0 0
4.26356 17.4623 -4.48057 255 0 0
4.31599 17.4969 -5.1005 255 0 0
4.34826 16.608 -4.66064 255 0 0
3.36804 16.6866 -4.92874 255 0 0
3.51777 16.6144 -4.92179 255 0 0
5.41196 16.5229 -4.99129 255 0 0
4.1968 17.5497 -5.10447 255 0 0
4.56016 16.6111 -4.6696 255 0 0
3.81529 17.4076 -4.61036 255 0 0
5.03539 16.6305 -4.69292 255 0 0
5.30511 16.5272 -4.98633 255 0 0
4.15518 17.5596 -5.10447 255 0 0
4.32049 16.6631 -4.66781 255 0 0
4.07699 16.8717 -4.54247 255 0 0
4.19278 16.8257 -5.28096 255 0 0
3.28312 17.5496 -5.07171 255 0 0
4.39946 16.6424 -4.66781 255 0 0
3.85951 17.3147 -4.59848 255 0 0
5.21364 16.6483 -4.70368 255 0 0
4.10874 16.8282 -4.53738 255 0 0
4.30074 16.7503 -4.53314 255 0 0
6.12221 16.6026 -5.19605 255 0 0
3.44012 16.6365 -4.92279 255 0 0
5.01557 16.8528 -4.57557 255 0 0
4.54923 16.7265 -4.53908 255 0 0
5.24615 16.6138 -4.84858 255 0 0
4.20287 16.8662 -4.84196 255 0 0
3.22744 16.5979 -5.19931 255 0 0
5.90816 16.5026 -5.16587 255 0 0
3.28592 17.7979 -5.2689 255 0 0
5.20156 16.6097 -4.84574 255 0 0
4.95756 16.8035 -4.56623 255 0 0
6.1736 16.6204 -5.20229 255 0 0
5.75603 16.5712 -5.0181 255 0 0
4.38159 16.7353 -4.53399 255 0 0
4.3183 17.6865 -5.13227 255 0 0
3.04785 17.9338 -5.28555 255 0 0
4.00232 16.7364 -4.66691 255 0 0
4.28134 17.3564 -4.46697 255 0 0
5.56362 16.5212 -4.99923 255 0 0
4.21143 16.5654 -4.94066 255 0 0
4.95482 16.6486 -4.69202 255 0 0
4.18569 16.7973 -4.53568 255 0 0
3.77433 16.6534 -4.79189 255 0 0
3.6854 16.8149 -4.66781 255 0 0
4.50655 16.7261 -4.53738 255 0 0
3.46845 17.8373 -5.12631 255 0 0
4.26514 16.6116 -4.65795 255 0 0
4.64595 17.0821 -4.44295 255 0 0
4.59845 17.3951 -4.48298 255 0 0
4.17396 17.4541 -4.47657 255 0 0
3.61622 16.6884 -4.79189 255 0 0
3.5208 17.6592 -4.79066 255 0 0
5.24077 16.8751 -4.5883 255 0 0
5.17254 16.9386 -4.59424 255 0 0
5.11893 16.9064 -4.58745 255 0 0
5.0705 16.8908 -4.58321 255 0 0
4.90957 16.7874 -4.56199 255 0 0
4.86008 16.7656 -4.5569 255 0 0
4.66074 16.7439 -4.54587 255 0 0
4.34044 16.74 -4.53314 255 0 0
4.21985 16.7649 -4.53229 255 0 0
4.04506 16.9151 -4.54757 255 0 0
3.98065 17.0018 -4.55775 255 0 0
3.96256 17.1072 -4.57218 255 0 0
3.94139 17.2012 -4.5849 255 0 0
3.7826 17.4562 -4.6163 255 0 0
3.75454 17.5275 -4.62564 255 0 0
5.12782 16.6507 -4.70009 255 0 0
4.12819 16.7356 -4.6714 255 0 0
6.59771 16.5492 -4.76107 255 0 0
4.28849 16.5396 -4.93967 255 0 0
4.53594 16.6777 -4.67857 255 0 0
5.25832 16.6524 -4.70637 255 0 0
4.99594 16.6424 -4.69292 255 0 0
4.92843 16.7047 -4.6992 255 0 0
4.7983 16.7005 -4.69292 255 0 0
4.75394 16.6951 -4.69023 255 0 0
4.65757 16.6561 -4.68037 255 0 0
4.20959 16.6407 -4.66019 255 0 0
3.95063 16.6952 -4.65884 255 0 0
3.90576 16.6819 -4.65526 255 0 0
3.76464 16.7025 -4.65346 255 0 0
3.71023 16.7384 -4.65705 255 0 0
3.68718 17.0159 -4.6983 255 0 0
3.69409 17.2453 -4.73327 255 0 0
3.57068 17.6905 -4.79694 255 0 0
4.3233 16.5127 -4.93669 255 0 0
5.11593 16.6121 -4.84196 255 0 0
5.4965 16.5814 -4.85613 255 0 0
5.3802 16.6256 -4.85708 255 0 0
5.15702 16.6054 -4.84291 255 0 0
5.05766 16.6329 -4.84244 255 0 0
5.23178 17.5793 -4.9988 255 0 0
5.2604 17.8299 -5.03943 255 0 0
5.15487 17.7825 -5.02714 255 0 0
4.3308 16.5413 -4.79567 255 0 0
4.27818 16.6624 -4.81267 255 0 0
4.24284 16.8562 -4.84196 255 0 0
4.31648 17.4989 -4.94684 255 0 0
4.32295 17.7056 -4.9799 255 0 0
4.25381 17.6034 -4.96101 255 0 0
4.20131 17.5685 -4.95345 255 0 0
4.15964 17.5784 -4.95345 255 0 0
3.74115 16.6905 -4.79661 255 0 0
3.70157 16.6993 -4.79661 255 0 0
3.66197 16.708 -4.79661 255 0 0
3.43027 17.641 -4.93833 255 0 0
3.40151 17.7172 -4.94967 255 0 0
6.21444 17.2292 -5.15113 255 0 0
6.06311 17.0627 -5.11539 255 0 0
6.01496 17.0553 -5.11142 255 0 0
5.71484 16.5794 -5.0171 255 0 0
5.67365 16.5874 -5.01611 255 0 0
5.6139 16.5407 -5.00519 255 0 0
5.47614 16.52 -4.99427 255 0 0
5.34428 16.5146 -4.98633 255 0 0
5.22146 16.5357 -4.98335 255 0 0
5.18741 16.5645 -4.98633 255 0 0
5.23462 17.1419 -5.08362 255 0 0
5.21236 17.215 -5.09454 255 0 0
5.23601 17.5935 -5.15808 255 0 0
4.25213 16.5609 -4.94165 255 0 0
4.21158 16.732 -4.96846 255 0 0
4.19841 16.8483 -4.98732 255 0 0
4.2506 17.5901 -5.1134 255 0 0
4.11748 17.5862 -5.10745 255 0 0
3.54869 16.5665 -4.91485 255 0 0
3.40066 16.6446 -4.92279 255 0 0
3.35911 17.7232 -5.10348 255 0 0
6.50683 16.901 -5.27098 255 0 0
6.07095 16.5846 -5.18981 255 0 0
6.01193 16.5448 -5.1794 255 0 0
5.8613 16.4948 -5.16171 255 0 0
5.81067 16.476 -5.15546 255 0 0
5.76588 16.4735 -5.15234 255 0 0
5.72113 16.4708 -5.14922 255 0 0
5.56119 16.4494 -5.13621 255 0 0
5.32403 16.452 -5.1232 255 0 0
5.25759 16.4461 -5.11852 255 0 0
5.15399 16.4578 -5.11487 255 0 0
5.16966 17.074 -5.22207 255 0 0
5.12254 17.0641 -5.2179 255 0 0
4.21873 16.9299 -5.1513 255 0 0
4.1841 16.9622 -5.15546 255 0 0
4.28464 17.5487 -5.26266 255 0 0
4.15307 17.5507 -5.25745 255 0 0
4.09174 17.4763 -5.24184 255 0 0
3.35854 16.6396 -5.06596 255 0 0
3.30894 16.5966 -5.05659 255 0 0
3.2291 16.6065 -5.05555 255 0 0
3.19407 16.6367 -5.05972 255 0 0
3.19435 17.7736 -5.26161 255 0 0
3.13782 17.9475 -5.29075 255 0 0
5.80781 16.4059 -5.29293 255 0 0
5.74182 16.4047 -5.28858 255 0 0
5.69913 16.4074 -5.2864 255 0 0
5.65646 16.41 -5.28422 255 0 0
4.99166 16.4861 -5.25919 255 0 0
5.13272 16.5272 -4.97739 255 0 0
5.2034 16.4785 -5.12112 255 0 0
5.43036 16.6458 -4.86275 255 0 0
5.17086 16.7904 -5.17315 255 0 0
4.60378 17.2497 -4.46377 255 0 0
4.98601 16.6093 -4.83535 255 0 0
5.25715 16.5122 -4.98136 255 0 0
5.66892 16.4461 -5.14193 255 0 0
5.49443 16.4445 -5.13152 255 0 0
5.19698 16.7341 -5.16483 255 0 0
