ply
format ascii 1.0
comment Created by Open3D
element vertex 343
property double x
property double y
property double z
property uchar red
property uchar green
property uchar blue
end_header
11.4391 -7.24048 -4.91289 255 0 0
12.4266 -7.04412 -4.57994 255 0 0
11.7613 -7.82088 -4.18895 255 0 0
11.6307 -7.30391 -4.36285 255 0 0
11.7091 -6.78494 -4.67724 255 0 0
11.8574 -6.10376 -4.98565 255 0 0
11.7827 -6.13617 -4.97414 255 0 0
11.4398 -7.56805 -4.83224 255 0 0
12.6579 -7.21497 -4.258 255 0 0
11.4502 -7.19061 -4.9092 255 0 0
11.7914 -7.13476 -4.25335 255 0 0
11.8122 -7.37889 -4.15846 255 0 0
11.8367 -7.79032 -3.95548 255 0 0
11.741 -7.04732 -4.47327 255 0 0
11.4468 -7.49487 -4.82514 255 0 0
12.0144 -7.70475 -4.57786 255 0 0
11.6801 -6.25984 -4.85131 255 0 0
12.39 -7.29772 -4.10628 255 0 0
11.6019 -7.02007 -4.56576 255 0 0
11.6424 -7.19633 -4.58971 255 0 0
11.8098 -7.85313 -4.07743 255 0 0
11.5374 -7.55422 -4.60931 255 0 0
11.8425 -7.91543 -4.32894 255 0 0
12.0273 -7.39486 -4.06809 255 0 0
12.223 -7.79768 -4.37051 255 0 0
11.7859 -7.44041 -4.27886 255 0 0
11.6711 -6.89295 -4.56468 255 0 0
11.5507 -6.84028 -4.77186 255 0 0
12.2361 -7.56328 -3.9851 255 0 0
11.6353 -6.34276 -4.85131 255 0 0
11.8668 -7.25748 -4.15577 255 0 0
11.7819 -7.43791 -4.15936 255 0 0
12.4095 -7.23014 -4.10374 255 0 0
12.8901 -6.67406 -4.74647 255 0 0
11.4276 -7.38592 -4.92767 255 0 0
12.4266 -7.20069 -4.10374 255 0 0
11.496 -6.80789 -4.87471 255 0 0
11.5378 -6.90676 -4.77659 255 0 0
12.3976 -7.34184 -4.11052 255 0 0
11.6064 -7.28864 -4.71133 255 0 0
11.4205 -7.43901 -4.9326 255 0 0
11.8006 -7.02612 -4.36285 255 0 0
11.7068 -7.27456 -4.4894 255 0 0
11.5657 -7.417 -4.71815 255 0 0
12.185 -7.177 -4.19164 255 0 0
11.693 -6.81269 -4.67724 255 0 0
12.2503 -7.89705 -3.88805 255 0 0
11.4562 -7.09999 -4.89996 255 0 0
11.4936 -6.40767 -4.94599 255 0 0
11.7801 -7.79315 -4.06894 255 0 0
12.2121 -7.75001 -4.73667 255 0 0
12.8904 -6.21577 -5.07917 255 0 0
11.8857 -7.662 -3.95148 255 0 0
11.8499 -7.09361 -4.25808 255 0 0
11.556 -7.52729 -4.72838 255 0 0
11.8958 -7.43111 -4.05452 255 0 0
11.7774 -7.49374 -4.16339 255 0 0
12.3083 -7.56766 -3.9939 255 0 0
11.5461 -6.65398 -4.86732 255 0 0
11.6441 -7.00796 -4.6886 255 0 0
11.8403 -7.59309 -3.94108 255 0 0
12.896 -6.5612 -4.86247 255 0 0
12.8773 -7.13911 -4.40735 255 0 0
11.8805 -7.90012 -4.33272 255 0 0
11.4079 -6.99542 -4.99588 255 0 0
12.8641 -7.01266 -4.52071 255 0 0
12.0678 -7.20459 -4.17819 255 0 0
11.5232 -6.75041 -4.87348 255 0 0
11.6232 -7.49282 -4.49773 255 0 0
11.4132 -6.94292 -4.99077 255 0 0
11.7315 -7.34783 -4.26327 255 0 0
12.1935 -7.57696 -3.9811 255 0 0
11.4409 -6.4854 -5.05924 255 0 0
11.7496 -6.18994 -4.85747 255 0 0
11.4813 -6.3474 -4.93704 255 0 0
11.7798 -7.79297 -4.18895 255 0 0
11.834 -7.66847 -4.06555 255 0 0
11.774 -7.04815 -4.36087 255 0 0
12.8211 -6.79331 -4.74538 255 0 0
11.7897 -7.4038 -4.15756 255 0 0
12.1956 -6.27785 -4.83224 255 0 0
11.4499 -6.63478 -4.96262 255 0 0
11.4938 -6.30103 -4.93448 255 0 0
11.6726 -6.14936 -4.95367 255 0 0
11.4035 -6.6985 -5.07648 255 0 0
11.3704 -7.52211 -5.05217 255 0 0
11.6916 -6.8491 -4.68065 255 0 0
11.4121 -7.05396 -5.00356 255 0 0
11.5674 -7.45685 -4.72269 255 0 0
11.4418 -6.73926 -4.97286 255 0 0
11.7803 -7.6337 -4.1755 255 0 0
11.6697 -6.8921 -4.68122 255 0 0
11.7628 -7.54339 -4.16563 255 0 0
11.6022 -7.3437 -4.71644 255 0 0
11.8309 -7.74635 -3.95148 255 0 0
11.4897 -7.13967 -4.79317 255 0 0
11.569 -7.49675 -4.72724 255 0 0
12.1232 -7.17933 -4.18357 255 0 0
11.8757 -7.85645 -4.69422 255 0 0
12.3973 -7.26247 -4.10458 255 0 0
11.8322 -7.31367 -4.15577 255 0 0
12.3306 -7.7843 -4.50879 255 0 0
11.4478 -7.15131 -4.90427 255 0 0
11.5821 -6.63821 -4.75647 255 0 0
11.8529 -7.6807 -3.94908 255 0 0
12.2315 -7.92608 -3.88805 255 0 0
11.8966 -6.93132 -4.36881 255 0 0
11.5999 -6.43091 -4.85377 255 0 0
11.3963 -7.34654 -5.03554 255 0 0
11.5442 -7.59779 -4.73406 255 0 0
12.9008 -6.60223 -4.86701 255 0 0
12.0406 -6.126 -4.90673 255 0 0
12.5676 -6.13371 -5.00896 255 0 0
12.0843 -7.11765 -4.29303 255 0 0
11.4757 -6.45131 -4.94727 255 0 0
11.7722 -7.19964 -4.25619 255 0 0
11.9259 -7.48934 -4.54352 255 0 0
11.4371 -6.34066 -5.04199 255 0 0
11.9052 -6.16411 -4.88456 255 0 0
11.8149 -7.3417 -4.15577 255 0 0
11.8602 -6.61206 -4.68633 255 0 0
11.626 -7.14816 -4.69997 255 0 0
11.6236 -7.26111 -4.71133 255 0 0
11.4565 -7.44319 -4.821 255 0 0
12.0718 -6.30488 -4.81212 255 0 0
12.0146 -7.4264 -4.06894 255 0 0
11.7926 -7.72133 -4.0647 255 0 0
12.2666 -6.27765 -4.84527 255 0 0
12.1835 -7.93604 -3.88353 255 0 0
11.6577 -6.30133 -4.85131 255 0 0
11.5501 -7.64099 -4.73974 255 0 0
12.221 -7.35515 -4.08931 255 0 0
11.883 -7.46238 -4.05536 255 0 0
11.7147 -6.20706 -4.85254 255 0 0
11.7614 -6.41152 -4.76594 255 0 0
12.363 -7.88698 -4.64863 255 0 0
11.7124 -6.80542 -4.56304 255 0 0
11.8158 -7.69651 -4.06555 255 0 0
11.636 -6.96558 -4.68292 255 0 0
11.8125 -6.11609 -4.97797 255 0 0
11.8099 -7.89366 -3.96029 255 0 0
12.9223 -6.84692 -4.64135 255 0 0
11.9346 -7.24074 -4.16339 255 0 0
11.9596 -7.91191 -4.4671 255 0 0
11.7649 -7.31064 -4.26469 255 0 0
12.3493 -6.13634 -4.96708 255 0 0
12.3325 -7.90874 -3.89782 255 0 0
12.5752 -7.60904 -4.02832 255 0 0
11.567 -6.34118 -5.06852 255 0 0
11.813 -7.77475 -4.07149 255 0 0
11.8282 -7.84519 -3.95869 255 0 0
11.8541 -7.72144 -3.95228 255 0 0
12.3757 -7.56872 -4.00191 255 0 0
12.4134 -7.55141 -4.00511 255 0 0
11.8166 -7.73702 -4.18895 255 0 0
11.4255 -6.8949 -4.98757 255 0 0
11.7574 -7.85858 -4.07149 255 0 0
11.8473 -7.63725 -4.0647 255 0 0
11.841 -7.5935 -4.06046 255 0 0
11.8589 -7.56541 -4.06046 255 0 0
11.9773 -7.44264 -4.06555 255 0 0
12.0794 -7.38748 -4.07403 255 0 0
12.1315 -7.3799 -4.07997 255 0 0
12.1688 -7.36311 -4.08337 255 0 0
12.3192 -7.35468 -4.10161 255 0 0
11.6219 -7.08881 -4.69315 255 0 0
11.9176 -6.09906 -4.99716 255 0 0
11.7134 -7.08754 -4.47275 255 0 0
11.8004 -7.88732 -4.19971 255 0 0
11.7595 -7.58067 -4.16832 255 0 0
11.8446 -7.28256 -4.15487 255 0 0
11.9925 -7.21764 -4.16922 255 0 0
12.2869 -7.19781 -4.20688 255 0 0
12.3624 -7.18311 -4.21585 255 0 0
12.418 -7.15645 -4.22123 255 0 0
12.4801 -7.15289 -4.2293 255 0 0
13.0676 -7.4075 -4.32795 255 0 0
11.7515 -7.2445 -4.25713 255 0 0
11.8231 -7.11572 -4.25619 255 0 0
11.9958 -7.14235 -4.28264 255 0 0
11.9878 -7.09917 -4.27792 255 0 0
12.9144 -7.11972 -4.41113 255 0 0
11.8188 -7.8591 -4.68551 255 0 0
12.9518 -7.02064 -4.53461 255 0 0
11.6868 -7.61247 -4.39959 255 0 0
11.6742 -7.5257 -4.38966 255 0 0
12.4055 -7.91406 -4.53163 255 0 0
12.3511 -7.83825 -4.51673 255 0 0
11.6626 -7.28549 -4.36583 255 0 0
11.7191 -7.28218 -4.37377 255 0 0
11.7216 -7.24527 -4.37079 255 0 0
11.7387 -7.21746 -4.37079 255 0 0
11.7607 -7.19262 -4.37179 255 0 0
11.7383 -7.14072 -4.36384 255 0 0
11.771 -7.1034 -4.36533 255 0 0
11.7973 -6.98636 -4.35888 255 0 0
11.8238 -6.96423 -4.36087 255 0 0
11.8087 -7.89282 -4.56537 255 0 0
11.8177 -7.85842 -4.56329 255 0 0
11.9469 -7.9035 -4.58723 255 0 0
11.7153 -7.71043 -4.53311 255 0 0
12.3865 -7.86073 -4.64967 255 0 0
11.5234 -7.1985 -4.45402 255 0 0
11.6995 -7.23163 -4.4842 255 0 0
11.7261 -7.13326 -4.47899 255 0 0
11.7635 -7.00404 -4.47275 255 0 0
11.7635 -6.94751 -4.46755 255 0 0
11.7832 -6.90272 -4.46651 255 0 0
11.7995 -6.87476 -4.46651 255 0 0
11.8307 -6.85543 -4.46963 255 0 0
11.8619 -6.83599 -4.47275 255 0 0
12.5085 -7.05142 -4.59347 255 0 0
12.9366 -6.8938 -4.64759 255 0 0
12.3355 -7.95202 -4.77695 255 0 0
12.3156 -7.8979 -4.76824 255 0 0
12.3731 -7.89343 -4.77695 255 0 0
12.2839 -7.75482 -4.74864 255 0 0
11.6104 -7.2912 -4.59407 255 0 0
11.7057 -7.31242 -4.61148 255 0 0
11.6496 -7.16268 -4.58754 255 0 0
11.6465 -6.99061 -4.57012 255 0 0
11.6956 -6.8514 -4.56468 255 0 0
11.752 -6.75411 -4.56468 255 0 0
12.0471 -6.82903 -4.62019 255 0 0
12.5093 -7.0519 -4.71708 255 0 0
12.5712 -7.04754 -4.72687 255 0 0
12.8401 -6.745 -4.74429 255 0 0
11.4776 -6.50617 -4.95367 255 0 0
11.4198 -7.5548 -4.94615 255 0 0
11.6135 -6.58321 -4.75647 255 0 0
11.5429 -7.55781 -4.72951 255 0 0
11.6075 -7.405 -4.72383 255 0 0
11.5822 -7.19715 -4.69769 255 0 0
11.6384 -7.19382 -4.70679 255 0 0
11.6323 -7.03852 -4.68974 255 0 0
11.6476 -6.93503 -4.68179 255 0 0
11.7282 -6.74039 -4.6761 255 0 0
11.7575 -6.68328 -4.67554 255 0 0
11.8066 -6.6373 -4.67951 255 0 0
12.6807 -6.56561 -4.82497 255 0 0
12.8239 -6.60125 -4.85337 255 0 0
11.4433 -7.53145 -4.82869 255 0 0
11.4661 -7.39151 -4.81685 255 0 0
11.4594 -7.34882 -4.81093 255 0 0
11.471 -7.29878 -4.80738 255 0 0
11.492 -7.25488 -4.8062 255 0 0
11.4849 -7.21237 -4.80028 255 0 0
11.4971 -7.18208 -4.79909 255 0 0
11.5053 -7.09274 -4.7908 255 0 0
11.5207 -7.04579 -4.78844 255 0 0
11.5162 -6.98693 -4.78133 255 0 0
11.5312 -6.94001 -4.77896 255 0 0
11.5541 -6.87938 -4.77659 255 0 0
11.5625 -6.7919 -4.7689 255 0 0
11.5742 -6.74352 -4.76594 255 0 0
11.5808 -6.69228 -4.76179 255 0 0
11.6128 -6.61925 -4.76002 255 0 0
11.6168 -6.53061 -4.75173 255 0 0
11.645 -6.49206 -4.75291 255 0 0
11.6704 -6.46999 -4.75528 255 0 0
11.7184 -6.44225 -4.7612 255 0 0
11.8169 -6.38735 -4.77363 255 0 0
11.8825 -6.36833 -4.7837 255 0 0
11.9583 -6.3725 -4.79791 255 0 0
11.9835 -6.3495 -4.80028 255 0 0
12.0036 -6.32374 -4.80146 255 0 0
12.1501 -6.29093 -4.82514 255 0 0
12.2968 -6.25635 -4.84882 255 0 0
12.373 -6.25824 -4.86303 255 0 0
12.4083 -6.23919 -4.86777 255 0 0
12.5151 -6.23722 -4.8873 255 0 0
12.6015 -6.22442 -4.9021 255 0 0
12.714 -6.24254 -4.9246 255 0 0
12.7442 -6.21992 -4.92815 255 0 0
12.826 -6.22223 -4.94355 255 0 0
11.3784 -8.58008 -4.69639 255 0 0
11.4539 -6.67342 -4.96774 255 0 0
11.4114 -7.58819 -4.94861 255 0 0
11.4178 -7.4953 -4.93876 255 0 0
11.4249 -7.32669 -4.92028 255 0 0
11.4374 -7.2965 -4.91905 255 0 0
11.474 -7.05471 -4.89811 255 0 0
11.4844 -7.00491 -4.89442 255 0 0
11.475 -6.94328 -4.88579 255 0 0
11.5077 -6.88879 -4.88579 255 0 0
11.5044 -6.84977 -4.88087 255 0 0
11.5441 -6.72595 -4.87471 255 0 0
11.5253 -6.67847 -4.86609 255 0 0
11.5548 -6.60435 -4.86362 255 0 0
11.5785 -6.54526 -4.86178 255 0 0
11.6019 -6.48609 -4.85993 255 0 0
11.6201 -6.40615 -4.855 255 0 0
11.6252 -6.37308 -4.85254 255 0 0
11.6999 -6.23482 -4.85254 255 0 0
11.7947 -6.178 -4.86486 255 0 0
11.8246 -6.15795 -4.86855 255 0 0
11.9853 -6.13366 -4.89688 255 0 0
12.1419 -6.14135 -4.92767 255 0 0
12.2025 -6.13569 -4.93876 255 0 0
12.4152 -6.1324 -4.9794 255 0 0
12.649 -6.13638 -5.02497 255 0 0
11.8008 -7.92811 -3.96189 255 0 0
11.3668 -7.55854 -5.05601 255 0 0
11.3739 -7.48571 -5.04833 255 0 0
11.3956 -7.44209 -5.04705 255 0 0
11.398 -7.38597 -5.04065 255 0 0
11.3959 -7.28904 -5.0285 255 0 0
11.4049 -7.23774 -5.02403 255 0 0
11.3978 -7.19543 -5.01763 255 0 0
11.4064 -7.14424 -5.01315 255 0 0
11.4002 -7.08402 -5.00484 255 0 0
11.423 -6.83808 -4.98053 255 0 0
11.4325 -6.78865 -4.97669 255 0 0
11.443 -6.70344 -4.96902 255 0 0
11.466 -6.58975 -4.9607 255 0 0
11.477 -6.54185 -4.95751 255 0 0
11.5438 -6.29291 -4.94344 255 0 0
11.5661 -6.2518 -4.94344 255 0 0
11.5883 -6.21064 -4.94344 255 0 0
11.6181 -6.19121 -4.94727 255 0 0
11.6277 -6.16097 -4.94599 255 0 0
11.7428 -6.15083 -4.96774 255 0 0
12.119 -6.0937 -5.03682 255 0 0
11.477 -6.32729 -5.04862 255 0 0
11.3881 -6.78056 -5.08312 255 0 0
11.3993 -6.75064 -5.08179 255 0 0
11.4125 -6.64929 -5.0725 255 0 0
11.4188 -6.59867 -5.06786 255 0 0
11.4326 -6.53454 -5.06322 255 0 0
11.4513 -6.45546 -5.05791 255 0 0
11.4468 -6.39939 -5.05061 255 0 0
11.5119 -6.27552 -5.04995 255 0 0
11.5067 -6.23734 -5.04464 255 0 0
11.5064 -6.20192 -5.04066 255 0 0
11.6116 -6.22311 -5.06454 255 0 0
11.6112 -6.18752 -5.06056 255 0 0
11.646 -6.17065 -5.06587 255 0 0
12.9363 -9.18949 -4.59443 255 0 0
11.6663 -8.12195 -3.84141 255 0 0
11.9857 -7.88838 -3.85871 255 0 0
11.7442 -8.05279 -3.96509 255 0 0
11.7291 -7.87997 -4.06979 255 0 0
11.3719 -8.70276 -4.70946 255 0 0
