ply
format ascii 1.0
comment Created by Open3D
element vertex 483
property double x
property double y
property double z
property uchar red
property uchar green
property uchar blue
end_header
0.924223 12.5516 -4.16529 0 255 0
0.932405 14.0241 -4.05876 0 255 0
1.00178 14.0599 -4.0647 0 255 0
0.389466 12.6315 -4.17422 0 255 0
0.864225 13.4814 -3.63592 0 255 0
0.915608 13.2951 -3.72632 0 255 0
0.0311131 13.1222 -3.92213 0 255 0
0.324315 13.0242 -4.46507 0 255 0
0.542044 14.2814 -3.37014 0 255 0
-0.0900864 12.6648 -4.2875 0 255 0
0.819333 13.8063 -3.55833 0 255 0
0.237384 14.3014 -3.37126 0 255 0
0.911766 13.4724 -3.63521 0 255 0
0.817145 12.9881 -4.46235 0 255 0
0.980611 12.8997 -3.89497 0 255 0
0.812553 13.9721 -4.28831 0 255 0
0.379484 12.3077 -4.22402 0 255 0
0.994593 13.9591 -3.45912 0 255 0
0.676239 13.2542 -3.71917 0 255 0
0.221848 13.3654 -3.73159 0 255 0
0.667582 13.7242 -3.54817 0 255 0
0.467769 13.1469 -3.81541 0 255 0
0.0618188 13.0363 -4.02036 0 255 0
1.01696 14.273 -3.37182 0 255 0
0.201317 14.1503 -3.47551 0 255 0
0.115207 13.8825 -3.56423 0 255 0
0.230213 13.8694 -3.56292 0 255 0
1.02863 13.9695 -4.2902 0 255 0
1.13772 14.0825 -3.47309 0 255 0
0.312334 13.8632 -4.14904 0 255 0
1.12048 12.4025 -4.46361 0 255 0
0.15719 13.2587 -3.82981 0 255 0
-0.067443 14.2223 -3.96269 0 255 0
1.06542 13.1876 -3.82581 0 255 0
1.07196 12.8878 -4.00422 0 255 0
0.782624 13.7385 -3.55047 0 255 0
1.16022 13.1913 -3.82741 0 255 0
1.61461 15.0754 -4.22085 255 0 0
0.945436 13.7282 -3.55047 0 255 0
0.391417 12.6948 -3.96835 0 255 0
1.37418 12.5495 -5.04752 0 255 0
0.352292 13.5045 -3.63592 0 255 0
0.61522 12.3458 -4.44542 0 255 0
1.43836 15.1206 -4.35395 255 0 0
0.15339 12.9381 -4.4482 0 255 0
0.801807 12.5077 -4.47952 0 255 0
1.2034 14.0643 -3.59046 0 255 0
0.164579 13.882 -3.56423 0 255 0
0.0659434 13.9061 -3.56686 0 255 0
1.3571 13.5828 -4.46546 255 0 0
0.435441 13.1132 -3.8106 0 255 0
1.16621 12.4156 -4.46702 0 255 0
1.10908 12.7833 -4.09793 0 255 0
1.06091 12.399 -4.35458 0 255 0
1.01238 12.7189 -4.08612 0 255 0
1.37526 12.8406 -4.77864 0 255 0
1.05774 12.3619 -4.45452 0 255 0
-0.073963 12.4777 -4.57649 0 255 0
0.0955354 13.4308 -3.73986 0 255 0
0.808312 13.0955 -3.8106 0 255 0
1.1197 13.086 -3.92383 0 255 0
0.341301 13.0831 -4.25166 0 255 0
0.890923 13.8979 -4.27697 0 255 0
0.863792 12.3295 -4.23234 0 255 0
0.957092 13.8975 -3.45244 0 255 0
0.746366 14.2956 -3.37238 0 255 0
0.459716 14.3572 -3.37713 0 255 0
0.2399 12.646 -4.50224 0 255 0
0.67062 13.4575 -3.63169 0 255 0
1.06447 13.7866 -3.558 0 255 0
0.511104 12.6733 -4.18216 0 255 0
0.422243 12.2771 -4.64316 0 255 0
0.775717 12.5674 -4.16628 0 255 0
1.01367 12.3643 -4.24067 0 255 0
-0.0887204 12.4727 -4.36002 0 255 0
0.030786 12.9843 -4.01229 0 255 0
1.10721 12.4199 -4.25212 0 255 0
1.20675 12.3745 -4.67518 0 255 0
0.116545 12.2882 -4.53742 0 255 0
0.462478 12.9982 -3.90516 0 255 0
0.526654 12.3326 -4.44202 0 255 0
0.214352 13.9074 -4.27414 0 255 0
1.03196 14.0148 -3.46519 0 255 0
1.30637 14.0873 -4.07234 0 255 0
0.0622534 13.1279 -3.92298 0 255 0
0.131858 13.9027 -4.27319 0 255 0
0.196666 13.8234 -3.55768 0 255 0
1.17578 12.3602 -4.67148 0 255 0
1.1567 12.4733 -4.26252 0 255 0
8.00022e-16 13.0653 -4.02485 0 255 0
0.632588 14.0326 -3.46459 0 255 0
1.01856 12.9912 -4.46562 0 255 0
0.583695 12.2997 -4.22402 0 255 0
0.269153 13.3529 -3.73008 0 255 0
1.0414 12.8903 -4.00422 0 255 0
0.443821 12.4738 -4.46929 0 255 0
0.0943978 13.2709 -3.83141 0 255 0
8.42141e-16 13.7532 -3.66548 0 255 0
0.321099 13.5401 -3.64014 0 255 0
0.364768 12.817 -4.20599 0 255 0
0.614272 12.6283 -4.17521 0 255 0
1.57317 15.3768 -4.26413 255 0 0
0.329245 12.621 -4.4977 0 255 0
1.26612 14.0146 -3.94188 0 255 0
0.864465 14.0052 -4.05536 0 255 0
0.570782 13.0042 -4.46289 0 255 0
0.203662 12.2698 -4.53386 0 255 0
-0.0293814 12.3919 -4.55873 0 255 0
0.277286 12.9923 -4.23577 0 255 0
0.832147 14.0222 -3.46459 0 255 0
0.343669 13.1739 -3.81861 0 255 0
0.416685 13.5143 -3.63732 0 255 0
0.663566 13.0055 -4.46398 0 255 0
0.522789 13.7741 -3.55309 0 255 0
1.2759 12.4712 -4.69735 0 255 0
0.833747 12.5402 -4.48633 0 255 0
0.16125 13.6011 -3.64718 0 255 0
0.167835 14.1565 -3.47612 0 255 0
0.0293554 12.3809 -4.34261 0 255 0
0.160098 12.2762 -4.53505 0 255 0
0.193167 13.5775 -3.64436 0 255 0
1.08402 12.325 -4.4477 0 255 0
0.41675 13.0158 -4.46398 0 255 0
0.0145819 12.3059 -4.54097 0 255 0
1.02674 12.3441 -4.3437 0 255 0
0.128891 13.5898 -3.64577 0 255 0
0.267642 14.1084 -3.47126 0 255 0
0.519527 13.2729 -3.72068 0 255 0
0.321116 12.3094 -4.22402 0 255 0
0.128959 13.5971 -4.10735 0 255 0
1.56201 15.0909 -4.35126 255 0 0
1.58489 15.1368 -4.22933 255 0 0
0.941755 12.3885 -4.45792 0 255 0
-0.0584987 12.3361 -4.76179 0 255 0
0.225745 13.6002 -3.64718 0 255 0
0.751634 13.7694 -3.55374 0 255 0
7.65986e-16 12.5095 -4.2594 0 255 0
0.363778 13.9448 -4.28075 0 255 0
0.864253 14.2772 -3.37126 0 255 0
0.81887 13.2665 -3.72181 0 255 0
0.893584 13.9394 -4.16474 0 255 0
1.06519 14.0123 -3.46519 0 255 0
1.04529 13.3322 -3.73234 0 255 0
0.622754 13.4598 -3.63169 0 255 0
0.12184 12.8464 -4.43078 0 255 0
0.0736582 12.4257 -4.24431 0 255 0
1.26032 13.5907 -4.23162 255 0 0
0.318162 14.1219 -3.47278 0 255 0
0.767649 13.4756 -3.63451 0 255 0
-0.0878247 12.3468 -4.87218 0 255 0
0.591612 13.8537 -3.44576 0 255 0
0.4248 13.7775 -3.55309 0 255 0
0.0588198 12.4039 -4.34696 0 255 0
0.531433 14.0019 -3.46094 0 255 0
0.271734 14.3241 -3.3735 0 255 0
0.984183 12.5528 -4.16628 0 255 0
0.928551 13.9661 -4.16922 0 255 0
-0.0317137 13.3756 -3.84582 0 255 0
0.367988 14.1062 -3.47126 0 255 0
0.712179 14.2915 -3.37182 0 255 0
0.565099 14.0122 -3.46216 0 255 0
1.11331 13.3849 -3.73986 0 255 0
1.16942 12.4499 -4.36601 0 255 0
1.06092 13.5315 -3.64366 0 255 0
0.921422 13.152 -3.81941 0 255 0
1.03143 13.1554 -3.82101 0 255 0
0.472831 13.2892 -3.72256 0 255 0
0.626388 12.277 -4.645 0 255 0
0.926534 13.0039 -4.4667 0 255 0
1.1813 13.0757 -4.03471 0 255 0
0.188378 13.2409 -3.82741 0 255 0
0.748653 12.6153 -4.17422 0 255 0
1.12165 14.3061 -3.37573 0 255 0
-0.0305809 12.8978 -4.1088 0 255 0
0.0908788 12.7761 -4.08896 0 255 0
8.6113e-16 14.0633 -3.58456 0 255 0
1.47028 15.0769 -4.34767 255 0 0
0.572755 12.7054 -4.18812 0 255 0
-0.0602554 12.7066 -4.18613 0 255 0
1.05959 12.3836 -4.24483 0 255 0
0.311364 13.8213 -3.55768 0 255 0
1.19956 12.3008 -4.76691 0 255 0
0.4003 12.9829 -3.90261 0 255 0
1.20669 14.1028 -3.71405 0 255 0
1.38592 13.2365 -4.63292 255 0 0
1.24291 14.1315 -3.83765 0 255 0
0.800885 14.059 -3.46823 0 255 0
0.657048 12.3047 -4.22558 0 255 0
0.736963 13.5006 -3.63732 0 255 0
0.971918 12.989 -4.46453 0 255 0
-0.088315 12.4157 -4.67148 0 255 0
1.12893 13.5726 -3.64929 0 255 0
0.938607 12.3471 -4.23651 0 255 0
0.122534 12.9197 -4.22287 0 255 0
0.78153 14.317 -3.37461 0 255 0
0.91955 12.4881 -4.47724 0 255 0
1.06336 12.7843 -4.09746 0 255 0
1.61135 15.045 -4.34498 255 0 0
1.2297 13.6114 -4.0019 0 255 0
0.376046 14.415 -3.38244 0 255 0
0.170324 14.3665 -3.37741 0 255 0
1.16778 12.9261 -4.12202 0 255 0
1.51482 15.1614 -4.23188 255 0 0
0.669735 13.1265 -3.81381 0 255 0
0.500303 14.0613 -3.46701 0 255 0
0.124396 13.1159 -3.92128 0 255 0
8.30598e-16 13.5647 -3.75716 0 255 0
1.15134 14.2511 -3.3707 0 255 0
1.08905 14.3262 -3.37741 0 255 0
1.04952 14.2531 -3.37014 0 255 0
0.983117 14.2754 -3.37182 0 255 0
0.946561 14.237 -3.36791 0 255 0
0.913921 14.2566 -3.36958 0 255 0
0.814148 14.2919 -3.37238 0 255 0
0.662832 14.3259 -3.37489 0 255 0
0.610258 14.2904 -3.37126 0 255 0
0.575669 14.2743 -3.36958 0 255 0
0.50901 14.306 -3.37238 0 255 0
0.409228 14.3792 -3.37908 0 255 0
0.341729 14.4101 -3.38188 0 255 0
0.306566 14.3642 -3.37741 0 255 0
0.204386 14.366 -3.37741 0 255 0
0.135984 14.3377 -3.37461 0 255 0
0.0910121 12.7949 -4.42098 0 255 0
0.555117 12.3141 -4.43861 0 255 0
0.509206 12.2652 -4.64131 0 255 0
0.174202 13.3574 -3.73046 0 255 0
0.09305 13.0814 -3.91619 0 255 0
0.437433 12.2943 -4.22194 0 255 0
0.814881 13.4612 -3.6331 0 255 0
1.17883 14.1727 -3.4828 0 255 0
1.09932 14.0213 -3.46641 0 255 0
0.912592 13.9764 -3.46033 0 255 0
0.863238 13.9853 -3.46094 0 255 0
0.766279 14.0376 -3.4658 0 255 0
0.714871 14.0112 -3.46276 0 255 0
0.663925 13.9904 -3.46033 0 255 0
0.467349 14.0741 -3.46823 0 255 0
0.416946 14.064 -3.46701 0 255 0
0.23332 14.0566 -3.4658 0 255 0
0.134435 14.1744 -3.47794 0 255 0
0.101117 14.2154 -3.48219 0 255 0
0.0673561 14.204 -3.48098 0 255 0
0.0338991 14.2973 -3.4907 0 255 0
0.470781 12.4038 -4.45565 0 255 0
1.0644 12.2684 -4.54274 0 255 0
0.15474 13.052 -4.2457 0 255 0
1.12496 12.6192 -4.17968 0 255 0
0.912112 13.7188 -3.54915 0 255 0
1.11421 13.7915 -3.55899 0 255 0
1.01095 13.7294 -3.55112 0 255 0
0.980051 13.755 -3.55374 0 255 0
0.852065 13.8043 -3.55833 0 255 0
0.714434 13.6839 -3.54391 0 255 0
0.586859 13.7424 -3.54981 0 255 0
0.548646 13.6042 -3.53408 0 255 0
0.473108 13.7555 -3.55079 0 255 0
0.392133 13.7785 -3.55309 0 255 0
0.359918 13.7968 -3.55505 0 255 0
0.262766 13.8514 -3.56096 0 255 0
0.0330822 13.9527 -3.5721 0 255 0
0.613143 12.3041 -4.22506 0 255 0
0.256142 13.5022 -3.97814 0 255 0
1.29672 13.9832 -4.1764 0 255 0
1.093 13.5289 -3.64366 0 255 0
1.01147 13.5178 -3.64155 0 255 0
0.961748 13.4981 -3.63873 0 255 0
0.702526 13.4559 -3.63169 0 255 0
0.55952 13.4771 -3.63345 0 255 0
0.512801 13.511 -3.63732 0 255 0
0.463753 13.4837 -3.63381 0 255 0
0.38398 13.492 -3.63451 0 255 0
0.288994 13.5409 -3.64014 0 255 0
0.257549 13.5764 -3.64436 0 255 0
0.0969994 13.6366 -3.6514 0 255 0
0.0646666 13.6368 -3.6514 0 255 0
0.0325401 13.7241 -3.66196 0 255 0
-0.033436 14.1019 -3.70772 0 255 0
0.964062 13.9987 -4.05536 0 255 0
0.2156 12.989 -4.458 0 255 0
0.863665 13.9922 -4.29209 0 255 0
-0.0294373 12.4155 -4.34914 0 255 0
0.213648 13.8622 -4.1486 0 255 0
0.99124 12.2694 -4.4352 0 255 0
0.408473 12.301 -4.22298 0 255 0
1.01487 12.5619 -4.16826 0 255 0
1.15643 13.5153 -3.75716 0 255 0
1.0783 13.347 -3.73459 0 255 0
1.01323 13.3288 -3.73159 0 255 0
0.963732 13.3034 -3.72782 0 255 0
0.867561 13.2867 -3.72482 0 255 0
0.772535 13.2838 -3.72369 0 255 0
0.724169 13.2662 -3.72105 0 255 0
0.613786 13.266 -3.7203 0 255 0
0.56685 13.2739 -3.72105 0 255 0
0.425469 13.2879 -3.72218 0 255 0
0.363403 13.3246 -3.7267 0 255 0
0.316359 13.3403 -3.72858 0 255 0
0.126994 13.3899 -3.73459 0 255 0
0.0637456 13.4426 -3.74136 0 255 0
0.0320794 13.5298 -3.75265 0 255 0
-0.0333599 14.0698 -3.8226 0 255 0
-0.0674079 14.2149 -3.84141 0 255 0
0.510054 12.2857 -4.2209 0 255 0
0.184393 12.9607 -4.45255 0 255 0
0.31257 13.1805 -3.81941 0 255 0
0.264032 13.9181 -4.27603 0 255 0
1.09765 13.1966 -3.82741 0 255 0
0.967333 13.137 -3.81781 0 255 0
0.84307 13.1514 -3.81861 0 255 0
0.780009 13.1437 -3.81701 0 255 0
0.715776 13.1125 -3.8122 0 255 0
0.593737 13.1708 -3.81941 0 255 0
0.56127 13.1432 -3.81541 0 255 0
0.529171 13.1213 -3.8122 0 255 0
0.406315 13.1779 -3.81941 0 255 0
0.281194 13.1754 -3.81861 0 255 0
0.219387 13.2172 -3.82421 0 255 0
0.0631797 13.3233 -3.83862 0 255 0
0.0315212 13.2944 -3.83462 0 255 0
1.25722 12.892 -4.33954 0 255 0
0.0587525 12.3897 -4.45111 0 255 0
-0.0302783 12.7702 -4.19705 0 255 0
0.0884961 12.4412 -4.46133 0 255 0
0.90806 12.3321 -4.23338 0 255 0
1.48 15.1765 -4.23357 255 0 0
1.15022 13.0776 -3.92298 0 255 0
1.08675 13.0656 -3.92043 0 255 0
1.03086 13.9997 -4.05621 0 255 0
0.896928 13.9915 -4.05367 0 255 0
0.835374 14.0766 -4.06555 0 255 0
0.433388 13.0514 -3.9128 0 255 0
0.367538 12.9143 -3.89243 0 255 0
0.287908 13.49 -3.97644 0 255 0
0.225762 13.6013 -3.99257 0 255 0
0.187084 13.1499 -3.92637 0 255 0
0.155768 13.1387 -3.92468 0 255 0
8.05636e-16 13.157 -3.92722 0 255 0
-0.0313191 13.2091 -3.93486 0 255 0
-0.0649732 13.7015 -4.00699 0 255 0
0.0904648 12.718 -4.18812 0 255 0
1.5112 15.1252 -4.35574 255 0 0
1.13965 12.9575 -4.01588 0 255 0
1.10251 12.8852 -4.00422 0 255 0
1.00721 12.8465 -3.99705 0 255 0
0.986401 12.9758 -4.01678 0 255 0
0.937361 12.73 -3.97822 0 255 0
0.991478 13.9154 -4.16205 0 255 0
0.961662 13.9639 -4.16922 0 255 0
0.860174 13.9357 -4.16384 0 255 0
0.829187 13.9723 -4.16922 0 255 0
0.365267 12.8345 -3.98987 0 255 0
0.361695 13.8649 -4.14949 0 255 0
0.262845 13.8556 -4.1477 0 255 0
0.16497 13.9149 -4.15667 0 255 0
0.0916988 12.8914 -3.99794 0 255 0
-0.0309095 13.0364 -4.02036 0 255 0
-0.0629163 13.2677 -4.05623 0 255 0
0.567892 12.2741 -4.64377 0 255 0
0.648371 12.4186 -4.13947 0 255 0
1.02747 12.3529 -4.45224 0 255 0
0.715567 12.3043 -4.2261 0 255 0
0.146795 12.3819 -4.23651 0 255 0
0.205317 12.3695 -4.23442 0 255 0
1.42825 15.0143 -4.46593 255 0 0
0.962758 12.6648 -4.07667 0 255 0
0.90269 12.6692 -4.07667 0 255 0
0.867488 12.5964 -4.06439 0 255 0
0.842603 12.6734 -4.07667 0 255 0
0.516475 12.8065 -4.09557 0 255 0
0.328659 13.8589 -4.26658 0 255 0
0.297155 13.9232 -4.27697 0 255 0
0.164615 13.885 -4.27036 0 255 0
0.0609698 12.8572 -4.10218 0 255 0
0.0304302 12.8342 -4.0984 0 255 0
7.91179e-16 12.9209 -4.11258 0 255 0
-0.0614082 12.9497 -4.1173 0 255 0
0.818408 12.3095 -4.22818 0 255 0
0.277451 12.3162 -4.22506 0 255 0
1.35595 13.9045 -4.40356 0 255 0
1.19782 12.9168 -4.2318 0 255 0
1.07443 12.557 -4.16826 0 255 0
1.05039 12.6285 -4.18018 0 255 0
0.89077 12.5019 -4.15635 0 255 0
0.857557 12.4522 -4.14742 0 255 0
0.81684 12.5099 -4.15685 0 255 0
0.68379 12.5265 -4.15834 0 255 0
0.451412 12.6872 -4.18415 0 255 0
0.415201 12.5036 -4.15238 0 255 0
0.216057 13.0165 -4.23975 0 255 0
0.184865 12.9939 -4.23577 0 255 0
0.0301688 12.724 -4.18911 0 255 0
-0.0910395 12.7987 -4.20202 0 255 0
1.11767 12.3714 -4.67272 0 255 0
-0.0587412 12.3873 -4.66533 0 255 0
1.19936 12.6082 -4.2875 0 255 0
0.967429 12.3391 -4.23547 0 255 0
0.774623 12.3123 -4.22818 0 255 0
0.554271 12.2953 -4.22298 0 255 0
0.4668 12.299 -4.22298 0 255 0
0.349809 12.2913 -4.2209 0 255 0
0.234098 12.3402 -4.22922 0 255 0
0.17648 12.4045 -4.24067 0 255 0
0.117546 12.3937 -4.23859 0 255 0
0.0295782 12.4749 -4.25316 0 255 0
-0.0297558 12.5498 -4.26669 0 255 0
-0.05973 12.5958 -4.27501 0 255 0
0.38909 12.6193 -4.4977 0 255 0
1.33156 13.3272 -4.5342 255 0 0
1.23798 12.6947 -4.41336 0 255 0
1.10859 12.4352 -4.3622 0 255 0
1.00164 12.3981 -4.35349 0 255 0
0.894514 12.9888 -4.46344 0 255 0
0.863333 12.9852 -4.46235 0 255 0
0.770948 12.991 -4.46235 0 255 0
0.740471 12.9985 -4.46344 0 255 0
0.709022 12.9887 -4.46126 0 255 0
0.617434 13.0107 -4.46453 0 255 0
0.508543 12.9924 -4.46017 0 255 0
0.462128 12.9884 -4.45908 0 255 0
0.370713 13.0258 -4.46562 0 255 0
0.262258 13.0112 -4.46235 0 255 0
7.59525e-16 12.404 -4.34696 0 255 0
-0.0589835 12.4384 -4.35349 0 255 0
1.3025 12.7312 -4.53179 0 255 0
1.24947 12.5056 -4.48633 0 255 0
1.21369 12.4456 -4.47383 0 255 0
0.972922 12.4092 -4.46247 0 255 0
0.870332 12.4225 -4.46361 0 255 0
0.777457 12.5956 -4.49656 0 255 0
0.744188 12.5401 -4.4852 0 255 0
0.71576 12.5647 -4.48974 0 255 0
0.685967 12.5664 -4.48974 0 255 0
0.651977 12.4877 -4.47383 0 255 0
0.586763 12.3644 -4.44883 0 255 0
0.499263 12.3797 -4.45111 0 255 0
0.417103 12.5609 -4.48633 0 255 0
0.360966 12.6834 -4.5102 0 255 0
0.300954 12.6907 -4.51133 0 255 0
0.27025 12.6626 -4.50565 0 255 0
0.211345 12.7327 -4.51929 0 255 0
0.164419 12.607 -4.49429 0 255 0
0.119737 12.6247 -4.4977 0 255 0
0.0147018 12.4041 -4.45395 0 255 0
-0.0295262 12.4529 -4.46361 0 255 0
-0.0738422 12.4556 -4.46417 0 255 0
0.97597 12.2614 -4.53978 0 255 0
1.34777 12.8721 -4.6724 0 255 0
1.27697 12.4816 -4.5907 0 255 0
1.22667 12.4261 -4.57827 0 255 0
1.16477 12.4004 -4.57175 0 255 0
1.12014 12.3988 -4.57057 0 255 0
1.02004 12.2636 -4.54097 0 255 0
0.262088 12.2802 -4.53623 0 255 0
0.233189 12.2922 -4.5386 0 255 0
0.0728209 12.2856 -4.53682 0 255 0
1.3305 12.7072 -4.74908 0 255 0
1.2395 12.4058 -4.68257 0 255 0
1.14488 12.3459 -4.66779 0 255 0
1.0778 12.2542 -4.64685 0 255 0
0.771349 12.2601 -4.64316 0 255 0
0.6702 12.2776 -4.64562 0 255 0
0.0145496 12.2758 -4.64131 0 255 0
-0.0293707 12.3874 -4.66533 0 255 0
1.36241 12.7206 -4.86413 0 255 0
1.3019 12.434 -4.79889 0 255 0
1.25904 12.3063 -4.76946 0 255 0
1.22702 12.2808 -4.76307 0 255 0
1.1666 12.2638 -4.75795 0 255 0
1.10895 12.2749 -4.75923 0 255 0
-0.0291681 12.302 -4.75411 0 255 0
-0.0873412 12.2788 -4.749 0 255 0
1.34282 12.5377 -4.93321 0 255 0
1.28874 12.3083 -4.87881 0 255 0
1.25781 12.2943 -4.87483 0 255 0
1.2096 12.2533 -4.86422 0 255 0
1.12347 12.273 -4.86687 0 255 0
1.08129 12.2939 -4.87085 0 255 0
-0.029221 12.3243 -4.86687 0 255 0
-0.058496 12.3356 -4.86953 0 255 0
1.28299 12.2534 -5.0827 0 255 0
1.3323 12.4395 -5.02004 0 255 0
1.28324 12.2558 -4.9747 0 255 0
