ply
format ascii 1.0
comment Created by Open3D
element vertex 73
property double x
property double y
property double z
property uchar red
property uchar green
property uchar blue
end_header
30.0918 4.49219 -4.91686 255 0 0
30.284 4.30089 -4.16446 255 0 0
29.7306 3.43399 -5.12044 255 0 0
31.7152 3.58704 -5.05991 255 0 0
30.3523 4.01732 -4.16652 255 0 0
30.6061 4.94056 -4.97218 255 0 0
30.4848 4.69874 -4.18264 255 0 0
30.0104 3.6106 -4.6445 255 0 0
30.0532 4.70519 -4.66134 255 0 0
30.3037 4.45039 -4.16735 255 0 0
29.7213 3.36153 -5.11862 255 0 0
30.4064 4.09785 -4.17107 255 0 0
30.0686 4.92697 -4.41075 255 0 0
30.0873 4.63748 -4.66339 255 0 0
30.4555 4.62032 -4.17975 255 0 0
30.0246 4.70071 -4.91351 255 0 0
29.7889 4.95369 -4.89507 255 0 0
29.6432 5.00172 -5.13441 255 0 0
29.8276 3.30194 -5.12894 255 0 0
29.9209 4.97565 -4.65369 255 0 0
30.0133 3.68317 -4.64552 255 0 0
30.0523 4.55915 -4.91407 255 0 0
31.0705 3.73814 -4.21447 255 0 0
30.2166 3.63541 -4.40798 255 0 0
30.0642 4.34242 -4.40336 255 0 0
29.7216 5.23264 -5.14655 255 0 0
31.7162 3.58716 -4.7925 255 0 0
30.493 4.55208 -5.21456 255 0 0
31.047 3.58605 -4.73432 255 0 0
31.5297 4.78328 -3.99041 255 0 0
30.0736 4.63535 -4.40751 255 0 0
30.476 3.73995 -4.17272 255 0 0
30.4439 3.8093 -4.17107 255 0 0
30.5391 3.89477 -4.17851 255 0 0
30.5587 3.97093 -4.18058 255 0 0
30.304 4.15723 -4.16446 255 0 0
30.3577 4.23796 -4.169 255 0 0
30.3662 4.38604 -4.17107 255 0 0
30.449 4.54551 -4.17851 255 0 0
30.4332 4.76469 -4.17975 255 0 0
30.0571 4.487 -4.65879 255 0 0
30.0904 3.98265 -4.40151 255 0 0
31.689 3.66019 -4.52389 255 0 0
30.1326 3.6978 -4.40197 255 0 0
30.1353 3.77069 -4.4029 255 0 0
30.1032 3.83918 -4.40105 255 0 0
30.094 3.91054 -4.40105 255 0 0
30.0519 4.05008 -4.3992 255 0 0
30.0596 4.1237 -4.40059 255 0 0
30.0613 4.19658 -4.40151 255 0 0
30.0397 4.2662 -4.40059 255 0 0
30.0653 4.41539 -4.40428 255 0 0
30.0548 4.48666 -4.40428 255 0 0
30.0672 4.56141 -4.40613 255 0 0
30.0971 4.71206 -4.41028 255 0 0
30.1031 4.78616 -4.41167 255 0 0
30.1147 4.86124 -4.41352 255 0 0
30.5982 3.60774 -4.69554 255 0 0
30.1213 4.56963 -4.66543 255 0 0
30.2263 4.80574 -4.67767 255 0 0
30.0766 4.85509 -4.66543 255 0 0
30.0132 4.9179 -4.66083 255 0 0
29.9671 3.53333 -4.89283 255 0 0
29.8139 3.58696 -4.87886 255 0 0
30.0909 4.41913 -4.91574 255 0 0
30.0241 4.62773 -4.91239 255 0 0
30.5084 4.85059 -4.96156 255 0 0
30.1099 3.55017 -5.16112 255 0 0
29.6388 3.5659 -5.11255 255 0 0
30.3612 4.60603 -5.20181 255 0 0
29.6894 4.93716 -5.13805 255 0 0
29.688 5.15419 -5.14169 255 0 0
29.8008 5.31947 -5.15627 255 0 0
