ply
format ascii 1.0
comment Created by Open3D
element vertex 832
property double x
property double y
property double z
property uchar red
property uchar green
property uchar blue
end_header
13.4633 4.94647 -5.33651 255 0 0
14.9453 5.491 -3.66011 255 0 0
14.129 6.52624 -4.81098 255 0 0
16.0248 5.41763 -3.47994 255 0 0
13.8329 6.54936 -5.16023 255 0 0
15.6004 5.27415 -3.99421 255 0 0
14.4852 6.23773 -4.17641 255 0 0
15.4253 5.29657 -3.83761 255 0 0
15.0025 5.1514 -4.59348 255 0 0
15.3471 4.98656 -5.47207 255 0 0
14.3299 6.13063 -4.68154 255 0 0
13.5051 6.51218 -5.35662 255 0 0
13.0007 4.91697 -5.4778 255 0 0
13.3701 6.07982 -5.28818 255 0 0
13.8739 5.06003 -4.92156 255 0 0
14.9041 5.03874 -5.11246 255 0 0
16.3892 5.11117 -5.2483 255 0 0
13.8541 6.7616 -5.45128 255 0 0
13.8924 6.61792 -5.04428 255 0 0
14.8904 5.23163 -4.17801 255 0 0
16.7541 5.44374 -3.3938 255 0 0
13.9713 4.92732 -5.05899 255 0 0
16.9567 5.24408 -4.44936 255 0 0
16.5046 5.14716 -4.97441 255 0 0
15.6651 5.00791 -5.39585 255 0 0
16.0982 5.31514 -3.76758 255 0 0
15.6596 5.96505 -3.60651 255 0 0
16.5911 5.21734 -4.54757 255 0 0
14.7464 5.77794 -3.78451 255 0 0
14.5136 5.46948 -4.00915 255 0 0
14.5221 5.41377 -4.00765 255 0 0
16.956 6.57421 -5.12879 255 0 0
15.2373 4.99086 -5.4499 255 0 0
15.7216 6.03139 -3.61433 255 0 0
16.5485 5.2471 -4.39573 255 0 0
15.8948 5.1229 -4.87315 255 0 0
16.1687 6.18094 -3.36955 255 0 0
15.3192 5.30079 -3.82647 255 0 0
14.593 6.32522 -4.0603 255 0 0
13.7457 5.01327 -5.14814 255 0 0
15.295 6.0767 -3.71597 255 0 0
17.0006 5.16946 -4.90526 255 0 0
16.0381 5.33751 -3.62048 255 0 0
14.5384 5.30238 -4.00464 255 0 0
15.3039 5.3769 -3.5551 255 0 0
13.5308 6.56413 -5.36685 255 0 0
12.9553 5.2184 -5.24895 255 0 0
15.0593 5.73638 -5.04909 255 0 0
16.7054 5.16636 -4.70996 255 0 0
14.5967 6.61672 -4.21163 255 0 0
16.0929 5.22888 -4.19194 255 0 0
14.6396 6.01824 -3.91678 255 0 0
15.1456 6.39481 -4.82847 255 0 0
15.0876 5.5839 -4.90569 255 0 0
16.2274 5.40052 -3.49627 255 0 0
15.0101 5.11427 -4.7282 255 0 0
16.7048 5.25309 -4.41654 255 0 0
14.9555 6.65155 -5.09699 255 0 0
14.6048 5.76244 -3.9013 255 0 0
14.5112 5.76529 -4.02269 255 0 0
15.1146 5.59388 -4.63505 255 0 0
13.0302 5.98129 -5.33518 255 0 0
14.3842 6.43834 -4.71132 255 0 0
15.6068 5.2351 -4.27166 255 0 0
14.4304 5.73318 -4.14279 255 0 0
15.8046 5.30145 -3.87826 255 0 0
12.9711 5.17123 -5.24828 255 0 0
15.2187 5.30644 -3.81598 255 0 0
14.9347 5.36683 -3.65464 255 0 0
14.3588 5.92271 -4.27516 255 0 0
13.149 4.97306 -5.27017 255 0 0
13.664 6.15491 -5.2245 255 0 0
15.5059 5.20128 -4.39566 255 0 0
15.3204 5.05834 -4.91401 255 0 0
14.5907 5.2432 -4.0084 255 0 0
14.4634 6.55628 -4.32607 255 0 0
15.6337 5.20292 -4.41348 255 0 0
14.7918 6.16296 -4.89424 255 0 0
16.4921 5.31541 -3.95234 255 0 0
14.7194 5.68697 -3.77795 255 0 0
14.6169 5.62747 -3.89672 255 0 0
16.1321 5.15718 -4.62477 255 0 0
16.8976 6.6208 -5.12234 255 0 0
15.2074 5.14127 -4.62466 255 0 0
13.7518 5.07101 -5.02643 255 0 0
16.259 5.92993 -3.51413 255 0 0
16.2649 5.67123 -3.36286 255 0 0
14.9281 5.08633 -4.84845 255 0 0
14.6703 6.52469 -4.07986 255 0 0
14.6103 5.68469 -3.89848 255 0 0
14.8169 6.17341 -5.03712 255 0 0
13.8349 5.08301 -4.91587 255 0 0
16.8723 6.56481 -5.26994 255 0 0
16.1631 6.33301 -3.37348 255 0 0
15.1043 5.38737 -4.75898 255 0 0
14.4191 6.33122 -4.70934 255 0 0
14.0241 6.59925 -4.93261 255 0 0
15.0442 5.00675 -5.2739 255 0 0
15.176 5.09062 -4.89112 255 0 0
16.9863 5.29739 -4.15471 255 0 0
14.3512 6.34207 -4.69941 255 0 0
14.5086 6.32954 -4.18441 255 0 0
15.1666 6.10911 -5.09372 255 0 0
15.1672 5.86001 -3.69532 255 0 0
14.5194 5.72873 -4.02194 255 0 0
12.9677 5.42099 -5.26951 255 0 0
13.2954 4.95647 -5.30069 255 0 0
15.8299 5.30993 -3.74086 255 0 0
14.9048 5.19701 -4.44632 255 0 0
14.3884 6.15565 -4.82659 255 0 0
15.1317 5.68193 -4.78082 255 0 0
16.9362 5.32588 -3.70206 255 0 0
16.5984 5.34966 -3.67189 255 0 0
14.8758 4.98989 -5.376 255 0 0
16.2644 5.28463 -4.07094 255 0 0
14.4279 5.87132 -4.14959 255 0 0
13.3713 4.94868 -5.31661 255 0 0
16.1511 6.02107 -3.36378 255 0 0
16.555 5.16289 -4.68754 255 0 0
13.2534 5.37503 -5.20183 255 0 0
15.3937 5.36746 -3.56292 255 0 0
15.9775 5.14954 -4.74465 255 0 0
14.1969 6.68055 -4.83388 255 0 0
14.3928 6.56549 -4.4517 255 0 0
14.9255 5.44357 -3.65646 255 0 0
13.2783 5.56934 -5.22358 255 0 0
13.1767 6.39238 -5.40682 255 0 0
13.106 4.99234 -5.38552 255 0 0
14.9331 5.68831 -5.16133 255 0 0
16.2312 5.06192 -5.3636 255 0 0
12.9836 5.73769 -5.30201 255 0 0
14.7621 5.86499 -3.78976 255 0 0
16.1662 5.72297 -3.35685 255 0 0
15.0207 5.72168 -3.67589 255 0 0
15.6098 6.33068 -3.61489 255 0 0
16.8986 6.52894 -5.27202 255 0 0
16.3003 5.64028 -3.3647 255 0 0
15.3057 5.4592 -3.55789 255 0 0
14.8561 6.18974 -3.81336 255 0 0
14.1833 5.13482 -4.59517 255 0 0
16.2179 5.31205 -3.92284 255 0 0
15.2657 6.14904 -4.83145 255 0 0
16.3863 5.49658 -3.36748 255 0 0
13.5145 5.72504 -5.15799 255 0 0
15.1018 5.62992 -4.77288 255 0 0
13.96 6.56908 -5.05224 255 0 0
15.9986 5.15636 -4.60504 255 0 0
16.9826 5.9667 -4.94306 255 0 0
12.9521 6.43585 -5.49132 255 0 0
14.933 5.60734 -5.15564 255 0 0
14.5866 6.28142 -4.05729 255 0 0
14.3608 6.22459 -4.42569 255 0 0
14.9705 5.54057 -3.66436 255 0 0
14.9444 5.17112 -4.4508 255 0 0
16.3522 5.31314 -3.93726 255 0 0
12.9718 5.62251 -5.28875 255 0 0
15.0321 6.43105 -3.8422 255 0 0
16.1922 6.43314 -3.52434 255 0 0
15.9495 5.0988 -5.02433 255 0 0
16.175 6.07371 -3.36701 255 0 0
14.1023 6.59523 -4.94568 255 0 0
16.9347 5.32538 -4.0002 255 0 0
16.5392 5.24416 -4.2476 255 0 0
15.2385 5.15179 -4.49295 255 0 0
14.3993 6.42461 -4.44362 255 0 0
14.6413 5.14411 -4.40506 255 0 0
13.4002 6.2669 -5.31184 255 0 0
16.6468 5.45256 -3.38595 255 0 0
14.9603 5.4161 -3.65889 255 0 0
14.4482 6.0802 -4.1632 255 0 0
15.4823 5.15255 -4.52882 255 0 0
15.9551 5.30989 -3.89465 255 0 0
14.6742 5.23395 -4.01818 255 0 0
14.4559 6.14402 -4.1676 255 0 0
13.5607 4.9458 -5.35773 255 0 0
15.3512 5.23048 -4.23804 255 0 0
16.4159 5.46324 -3.36886 255 0 0
14.3428 6.09597 -4.28279 255 0 0
16.6957 5.25022 -4.26716 255 0 0
14.0452 4.8786 -4.94144 255 0 0
16.4051 5.15884 -4.81173 255 0 0
15.1935 5.95311 -3.7014 255 0 0
16.621 5.31349 -3.96611 255 0 0
15.1221 5.15244 -4.47591 255 0 0
15.24 5.23296 -4.22363 255 0 0
13.8598 5.01769 -5.17154 255 0 0
14.3959 6.28037 -4.30062 255 0 0
14.9464 5.73399 -5.16701 255 0 0
14.502 5.2502 -4.12838 255 0 0
14.817 6.13224 -3.8068 255 0 0
15.3236 5.14012 -4.64261 255 0 0
14.7517 5.41983 -3.77074 255 0 0
15.1404 5.44073 -4.76791 255 0 0
14.8999 5.71615 -5.29521 255 0 0
15.5911 5.22984 -4.13026 255 0 0
14.8852 6.5359 -3.83171 255 0 0
14.0313 5.11743 -4.69754 255 0 0
13.7913 5.02992 -5.03117 255 0 0
16.5982 5.09013 -5.13569 255 0 0
16.7361 5.21938 -4.56793 255 0 0
15.1292 5.31551 -3.8068 255 0 0
13.2804 5.68162 -5.23381 255 0 0
14.5042 5.92241 -4.02946 255 0 0
14.4185 6.49479 -4.4508 255 0 0
14.4989 5.62158 -4.01442 255 0 0
13.0586 6.06945 -5.34977 255 0 0
13.8767 5.13573 -4.92724 255 0 0
15.6775 6.27174 -3.6188 255 0 0
16.9213 5.18922 -4.59254 255 0 0
14.6239 5.72991 -3.902 255 0 0
16.9524 6.54972 -4.9714 255 0 0
14.5313 4.98961 -5.30579 255 0 0
15.0114 5.15446 -4.45977 255 0 0
14.4562 4.96381 -5.42186 255 0 0
16.7065 5.08002 -5.4545 255 0 0
14.469 5.35494 -4.25988 255 0 0
14.433 6.29656 -4.57458 255 0 0
16.2236 6.02621 -3.51413 255 0 0
16.275 5.24544 -4.35971 255 0 0
14.3295 5.14933 -4.48955 255 0 0
14.396 6.23983 -4.69941 255 0 0
16.199 5.90803 -3.36424 255 0 0
14.4153 5.53024 -4.26158 255 0 0
14.4331 5.97337 -4.15559 255 0 0
14.3188 6.2872 -4.82451 255 0 0
14.3362 5.19016 -4.36292 255 0 0
15.3346 6.13458 -3.72204 255 0 0
16.2019 6.39259 -3.52383 255 0 0
14.5476 5.11117 -4.78497 255 0 0
15.0236 5.23842 -4.06105 255 0 0
14.5023 6.2859 -4.18121 255 0 0
15.0778 5.7844 -3.68379 255 0 0
14.4275 5.77169 -4.14439 255 0 0
12.9265 6.38496 -5.48033 255 0 0
15.8058 5.13563 -4.71725 255 0 0
15.0453 5.20602 -4.33202 255 0 0
15.7412 5.2387 -4.14906 255 0 0
16.8979 5.22589 -4.29123 255 0 0
14.4263 5.63277 -4.13718 255 0 0
16.6749 5.3307 -3.82527 255 0 0
15.0637 5.69719 -4.90881 255 0 0
16.2656 5.15739 -4.6445 255 0 0
14.6627 6.12958 -3.92453 255 0 0
14.0155 5.07405 -4.94883 255 0 0
14.4254 6.45676 -4.58403 255 0 0
15.0713 5.37561 -4.89008 255 0 0
14.4166 4.98848 -5.28239 255 0 0
16.1356 5.92831 -3.36009 255 0 0
14.3631 6.42891 -4.8422 255 0 0
14.7535 5.38085 -3.76943 255 0 0
14.4237 5.57275 -4.26497 255 0 0
14.5322 6.07505 -4.04037 255 0 0
14.713 5.2085 -4.28619 255 0 0
14.3672 6.26788 -4.42928 255 0 0
16.3068 5.21304 -4.50768 255 0 0
14.9816 5.14422 -4.72522 255 0 0
13.2676 5.08994 -5.18137 255 0 0
14.9125 5.23938 -4.04751 255 0 0
14.322 6.20777 -4.81931 255 0 0
14.4144 6.41086 -4.3108 255 0 0
16.1397 6.27973 -3.51515 255 0 0
14.4084 6.53135 -4.4517 255 0 0
15.8763 5.15852 -4.5871 255 0 0
15.1758 5.33189 -3.67711 255 0 0
13.0471 6.02652 -5.34314 255 0 0
14.6112 5.82511 -3.90482 255 0 0
15.3296 5.42678 -3.55901 255 0 0
14.932 5.28604 -3.91819 255 0 0
13.6845 6.47911 -5.25776 255 0 0
14.7916 6.20408 -5.03494 255 0 0
13.7593 4.98131 -5.27603 255 0 0
15.3838 5.20092 -4.37869 255 0 0
14.7212 6.05178 -5.14883 255 0 0
14.3321 6.62005 -4.5812 255 0 0
16.5626 5.0792 -5.42723 255 0 0
15.0857 5.14004 -4.60576 255 0 0
14.2649 6.58905 -4.70338 255 0 0
16.4595 5.09032 -5.11175 255 0 0
15.8679 5.28087 -4.02519 255 0 0
16.0148 6.2749 -3.64898 255 0 0
15.9272 5.46893 -3.47331 255 0 0
13.5309 5.78882 -5.16661 255 0 0
15.5077 5.73939 -3.58527 255 0 0
15.0967 6.16433 -4.94524 255 0 0
14.3555 6.56903 -4.5812 255 0 0
14.6718 5.33134 -3.89039 255 0 0
16.7667 5.31628 -3.98184 255 0 0
15.9855 6.70484 -4.98236 255 0 0
13.6142 4.96532 -5.49819 255 0 0
14.9913 5.34705 -3.6595 255 0 0
14.1352 5.17432 -4.58971 255 0 0
14.7442 5.45681 -3.7714 255 0 0
15.1167 4.99108 -5.42526 255 0 0
15.322 6.42653 -3.73236 255 0 0
14.6555 5.3845 -3.89074 255 0 0
15.4509 5.14209 -4.66245 255 0 0
13.5377 5.19355 -5.11981 255 0 0
15.0178 5.31642 -3.795 255 0 0
15.8363 5.22867 -4.16034 255 0 0
14.4381 5.30463 -4.25309 255 0 0
14.4794 6.60498 -4.33117 255 0 0
15.3849 6.19703 -3.72933 255 0 0
14.5349 5.37933 -4.00765 255 0 0
15.3439 5.14692 -4.50819 255 0 0
16.0818 5.39446 -3.48402 255 0 0
16.1303 5.28337 -4.05545 255 0 0
15.7356 6.25177 -3.62327 255 0 0
15.8647 5.0717 -5.15142 255 0 0
16.1746 5.76913 -3.3587 255 0 0
15.5731 6.35886 -3.61266 255 0 0
14.2846 6.07124 -4.53774 255 0 0
14.4308 6.45922 -4.31589 255 0 0
14.2391 4.92706 -5.50499 255 0 0
14.5414 4.95458 -5.17207 255 0 0
15.129 6.515 -3.85597 255 0 0
14.3841 6.52033 -4.58214 255 0 0
13.1035 6.24208 -5.3763 255 0 0
14.4668 5.15999 -4.51128 255 0 0
13.2555 5.12138 -5.18137 255 0 0
14.9552 6.31443 -3.82909 255 0 0
14.7629 6.39885 -3.94846 255 0 0
16.2959 5.33759 -3.64395 255 0 0
14.7504 6.22794 -5.0295 255 0 0
14.6707 6.56657 -4.08212 255 0 0
14.3974 5.17376 -4.37099 255 0 0
14.7312 5.49175 -3.7714 255 0 0
15.4772 6.70847 -5.19169 255 0 0
15.4457 6.26414 -3.73783 255 0 0
15.9259 5.34215 -3.61042 255 0 0
16.8836 5.4416 -3.4035 255 0 0
16.5286 5.45724 -3.37717 255 0 0
16.3621 5.53167 -3.36655 255 0 0
16.3987 5.5874 -3.37071 255 0 0
16.4517 5.64901 -3.37625 255 0 0
16.1853 5.68656 -3.35732 255 0 0
16.1512 5.82562 -3.35847 255 0 0
16.1379 5.97263 -3.36147 255 0 0
16.1769 6.11824 -3.3684 255 0 0
16.1875 6.25419 -3.37302 255 0 0
16.2052 6.30525 -3.37579 255 0 0
16.2077 6.39488 -3.37856 255 0 0
16.2088 6.43975 -3.37994 255 0 0
16.1826 6.47383 -3.37902 255 0 0
14.9877 5.62787 -3.66921 255 0 0
15.6893 5.13891 -4.6993 255 0 0
16.0019 5.24131 -4.32369 255 0 0
15.7783 5.08534 -4.99415 255 0 0
14.4088 5.44952 -4.25649 255 0 0
13.5506 5.8734 -5.1777 255 0 0
16.8891 5.17933 -4.73776 255 0 0
13.2594 5.26796 -5.19416 255 0 0
14.548 6.4703 -4.19722 255 0 0
15.8028 5.34256 -3.59924 255 0 0
14.0921 5.1018 -4.70691 255 0 0
15.1153 5.88117 -3.69107 255 0 0
15.1545 5.28407 -3.94353 255 0 0
15.8407 5.23014 -4.30208 255 0 0
14.4152 6.41125 -4.7143 255 0 0
13.2768 5.62433 -5.22806 255 0 0
14.4424 5.15127 -4.37637 255 0 0
16.8681 5.39249 -3.54935 255 0 0
16.7276 5.39131 -3.53761 255 0 0
16.6205 5.40032 -3.52893 255 0 0
16.4746 5.39613 -3.51669 255 0 0
16.3399 5.39494 -3.50546 255 0 0
15.9788 5.44432 -3.47688 255 0 0
15.9748 5.52766 -3.47892 255 0 0
16.1104 5.61737 -3.4927 255 0 0
16.0915 5.65362 -3.49219 255 0 0
16.1276 5.70928 -3.49678 255 0 0
16.3557 5.83372 -3.51924 255 0 0
16.3693 5.88235 -3.52179 255 0 0
16.4101 5.941 -3.52689 255 0 0
16.2011 5.95237 -3.51005 255 0 0
16.2239 6.09206 -3.51618 255 0 0
16.1985 6.12638 -3.51515 255 0 0
16.1785 6.1627 -3.51464 255 0 0
16.2074 6.21775 -3.51873 255 0 0
16.1763 6.24986 -3.5172 255 0 0
16.179 6.33926 -3.52026 255 0 0
16.1714 6.46935 -3.52383 255 0 0
13.609 5.03667 -5.12227 255 0 0
14.6539 6.47581 -4.07535 255 0 0
14.4354 5.57725 -4.13558 255 0 0
15.235 5.23123 -4.08663 255 0 0
13.9476 5.16197 -4.81396 255 0 0
15.0124 5.23451 -4.19402 255 0 0
14.4496 5.42582 -4.12998 255 0 0
15.1237 5.23316 -4.07309 255 0 0
14.273 6.348 -4.82139 255 0 0
16.8625 5.34664 -3.69591 255 0 0
16.7387 5.35111 -3.68474 255 0 0
16.4249 5.33676 -3.65568 255 0 0
16.1614 5.33601 -3.63165 255 0 0
15.6963 5.34806 -3.58975 255 0 0
15.6009 5.35687 -3.58136 255 0 0
15.4669 5.35191 -3.56907 255 0 0
15.3585 5.51912 -3.5646 255 0 0
15.3728 5.56545 -3.56739 255 0 0
15.4034 5.61786 -3.57186 255 0 0
15.4939 5.69255 -3.58248 255 0 0
15.5214 5.78632 -3.58807 255 0 0
15.6113 5.86204 -3.59869 255 0 0
15.6137 5.90522 -3.60036 255 0 0
15.7834 6.09805 -3.62215 255 0 0
15.959 6.20943 -3.64171 255 0 0
15.8534 6.25509 -3.63389 255 0 0
15.6301 6.29583 -3.61545 255 0 0
14.9139 5.08148 -5.11701 255 0 0
14.4346 5.49841 -4.13158 255 0 0
15.3718 5.27822 -3.96817 255 0 0
15.0863 5.34064 -3.66861 255 0 0
13.4951 5.47305 -5.13336 255 0 0
16.8411 5.25211 -4.28521 255 0 0
14.5134 5.5679 -4.01366 255 0 0
14.3437 6.17679 -4.42031 255 0 0
16.8944 5.31271 -3.84652 255 0 0
16.8262 5.33515 -3.84045 255 0 0
16.507 5.3202 -3.80826 255 0 0
16.3724 5.31973 -3.79491 255 0 0
16.2325 5.31684 -3.78094 255 0 0
15.9584 5.311 -3.75362 255 0 0
15.7179 5.31388 -3.72993 255 0 0
15.595 5.31356 -3.71779 255 0 0
15.4722 5.3127 -3.70565 255 0 0
15.3605 5.31509 -3.69472 255 0 0
15.2709 5.32465 -3.68622 255 0 0
14.9573 5.57605 -3.66436 255 0 0
15.0233 5.68193 -3.67468 255 0 0
15.2281 6.00836 -3.70686 255 0 0
15.4308 6.30074 -3.73783 255 0 0
15.4427 6.34838 -3.74086 255 0 0
15.4492 6.39389 -3.74329 255 0 0
15.4071 6.4193 -3.74026 255 0 0
15.3174 6.46737 -3.73358 255 0 0
14.7176 6.2759 -3.93755 255 0 0
17.0025 5.97369 -5.1005 255 0 0
14.7489 5.81929 -3.78648 255 0 0
14.6465 5.94001 -3.91397 255 0 0
12.9653 5.32993 -5.26089 255 0 0
16.4268 5.16567 -4.66871 255 0 0
14.385 6.35699 -4.43735 255 0 0
14.9106 5.11984 -4.84741 255 0 0
16.0947 5.314 -3.90973 255 0 0
15.6927 5.30536 -3.86646 255 0 0
15.5644 5.30315 -3.85269 255 0 0
14.901 5.31487 -3.78254 255 0 0
14.8172 5.3246 -3.77402 255 0 0
14.7662 5.34586 -3.76943 255 0 0
14.7236 5.52871 -3.77205 255 0 0
14.7268 5.56978 -3.77402 255 0 0
14.7286 5.63044 -3.77664 255 0 0
14.7221 5.72819 -3.77992 255 0 0
14.7573 5.92395 -3.79172 255 0 0
14.7685 5.98952 -3.79566 255 0 0
14.7812 6.03552 -3.79893 255 0 0
14.8046 6.08603 -3.80352 255 0 0
14.9111 6.2542 -3.82188 255 0 0
15.0312 6.38856 -3.84024 255 0 0
15.0231 6.53279 -3.84581 255 0 0
13.3459 5.97361 -5.27347 255 0 0
13.3287 5.92802 -5.26579 255 0 0
13.0236 5.94091 -5.32987 255 0 0
14.8015 5.23984 -4.03397 255 0 0
16.8406 5.2958 -4.13781 255 0 0
16.6895 5.29179 -4.12022 255 0 0
16.544 5.28887 -4.10332 255 0 0
16.3986 5.28528 -4.08643 255 0 0
15.9963 5.28151 -4.03997 255 0 0
15.7121 5.27042 -4.00688 255 0 0
15.4888 5.27737 -3.98154 255 0 0
15.2713 5.28423 -3.95691 255 0 0
15.0432 5.2853 -3.93086 255 0 0
14.7935 5.27651 -3.902 255 0 0
14.7208 5.28995 -3.89426 255 0 0
14.6427 5.41923 -3.89074 255 0 0
14.6189 5.44987 -3.88933 255 0 0
14.6168 5.48861 -3.89074 255 0 0
14.6255 5.53147 -3.89355 255 0 0
14.6123 5.56613 -3.89355 255 0 0
14.6228 5.89007 -3.90904 255 0 0
14.6323 5.97472 -3.91397 255 0 0
14.6468 6.06183 -3.9196 255 0 0
14.6837 6.19977 -3.93016 255 0 0
14.7353 6.34544 -3.94283 255 0 0
14.769 6.44314 -3.95127 255 0 0
14.8069 6.50151 -3.95831 255 0 0
14.8233 6.55069 -3.96254 255 0 0
14.8131 6.58818 -3.96324 255 0 0
14.0461 5.16062 -4.70275 255 0 0
14.5136 5.21551 -4.25903 255 0 0
13.6503 6.22677 -5.2282 255 0 0
15.2727 5.20375 -4.36341 255 0 0
14.3179 6.04535 -4.40865 255 0 0
16.3885 5.23915 -4.2288 255 0 0
16.2434 5.23525 -4.21074 255 0 0
15.9866 5.2363 -4.17915 255 0 0
15.4631 5.22774 -4.11446 255 0 0
15.3408 5.22693 -4.09942 255 0 0
14.5454 5.26592 -4.00389 255 0 0
14.5421 5.34285 -4.00689 255 0 0
14.5157 5.52933 -4.01216 255 0 0
14.5005 5.68158 -4.01743 255 0 0
14.504 5.82227 -4.02457 255 0 0
14.5182 5.888 -4.02946 255 0 0
14.5116 5.96561 -4.03247 255 0 0
14.5243 6.0111 -4.03623 255 0 0
14.5507 6.14363 -4.04601 255 0 0
14.5574 6.18719 -4.04902 255 0 0
14.5801 6.23768 -4.05428 255 0 0
14.6152 6.37606 -4.06557 255 0 0
14.6426 6.42937 -4.07158 255 0 0
13.6532 5.01624 -5.12966 255 0 0
14.3948 6.19883 -4.69643 255 0 0
14.6187 5.21417 -4.27346 255 0 0
15.11 6.23255 -5.09263 255 0 0
16.8336 5.16231 -4.87881 255 0 0
16.2428 5.10781 -5.07533 255 0 0
13.8225 6.58461 -5.16141 255 0 0
16.8335 5.24973 -4.43335 255 0 0
16.4034 5.24393 -4.37652 255 0 0
16.1412 5.24458 -4.3421 255 0 0
15.7347 5.23655 -4.28847 255 0 0
15.4899 5.23679 -4.25645 255 0 0
15.1398 5.23873 -4.21083 255 0 0
14.796 5.23789 -4.166 255 0 0
14.707 5.24567 -4.15479 255 0 0
14.5854 5.2413 -4.13879 255 0 0
14.4786 5.28059 -4.12678 255 0 0
14.4679 5.33506 -4.12798 255 0 0
14.4624 5.39155 -4.12998 255 0 0
14.4476 5.46417 -4.13158 255 0 0
14.4323 5.53678 -4.13318 255 0 0
14.4223 5.69043 -4.13959 255 0 0
14.4245 5.81021 -4.14599 255 0 0
14.4204 5.92811 -4.15159 255 0 0
14.4349 6.01427 -4.158 255 0 0
14.4786 6.19424 -4.1732 255 0 0
14.5148 6.37326 -4.18761 255 0 0
14.5368 6.42406 -4.19322 255 0 0
14.5697 6.52136 -4.20282 255 0 0
14.5965 6.57495 -4.20922 255 0 0
14.8139 5.00825 -5.2289 255 0 0
14.2235 5.18752 -4.47538 255 0 0
16.8622 6.63 -4.96243 255 0 0
16.4682 5.22164 -4.53059 255 0 0
16.1565 5.20726 -4.48646 255 0 0
16.0119 5.20258 -4.4661 255 0 0
15.8123 5.17922 -4.43724 255 0 0
15.1672 5.20796 -4.34899 255 0 0
14.8196 5.16728 -4.29892 255 0 0
14.4141 5.21836 -4.24546 255 0 0
14.3799 5.24458 -4.24206 255 0 0
14.3729 5.39701 -4.24885 255 0 0
14.4283 5.49604 -4.26158 255 0 0
14.4011 5.62295 -4.26455 255 0 0
14.3742 5.73061 -4.26667 255 0 0
14.3699 5.7882 -4.26922 255 0 0
14.3615 5.82443 -4.27007 255 0 0
14.3691 5.86722 -4.27346 255 0 0
14.335 6.03256 -4.27813 255 0 0
14.3443 6.13679 -4.28534 255 0 0
14.3563 6.18224 -4.28958 255 0 0
14.3629 6.22548 -4.29298 255 0 0
14.403 6.36495 -4.30656 255 0 0
14.4577 6.51245 -4.32268 255 0 0
16.8177 6.68168 -5.1134 255 0 0
16.8886 5.09169 -5.33756 255 0 0
12.9793 5.66238 -5.29405 255 0 0
12.963 5.27519 -5.25558 255 0 0
14.3704 6.30985 -4.56608 255 0 0
15.732 5.15292 -4.56558 255 0 0
15.5879 5.14667 -4.54406 255 0 0
14.3075 5.21819 -4.36023 255 0 0
14.3408 6.09513 -4.41493 255 0 0
14.3317 6.13139 -4.41583 255 0 0
14.3523 6.30193 -4.42928 255 0 0
13.3995 6.22789 -5.30801 255 0 0
13.2662 5.47202 -5.21271 255 0 0
14.9236 5.00593 -5.25021 255 0 0
16.2304 6.71723 -5.02207 255 0 0
15.0581 5.61362 -4.90257 255 0 0
16.6723 5.15611 -4.8533 255 0 0
16.5552 5.16294 -4.83535 255 0 0
16.2386 5.14882 -4.78528 255 0 0
16.0832 5.14156 -4.76071 255 0 0
15.5673 5.13986 -4.6804 255 0 0
14.252 5.15969 -4.47821 255 0 0
14.2816 5.24714 -4.48766 255 0 0
15.1446 5.64585 -4.64261 255 0 0
17.0272 6.53228 -4.98179 255 0 0
16.9476 6.59409 -4.97329 255 0 0
16.8412 6.691 -4.9629 255 0 0
16.836 6.73521 -4.96479 255 0 0
14.2451 6.13434 -4.53585 255 0 0
14.4135 6.3696 -4.57647 255 0 0
14.4459 6.42489 -4.58498 255 0 0
14.7999 4.96444 -5.49477 255 0 0
14.3656 6.10567 -4.68551 255 0 0
14.6569 4.99391 -5.33166 255 0 0
16.9493 5.15386 -5.04788 255 0 0
16.8046 5.15343 -5.02405 255 0 0
16.649 5.14893 -4.99824 255 0 0
16.3327 5.13607 -4.94562 255 0 0
16.2104 5.1399 -4.92577 255 0 0
16.0058 5.11682 -4.89102 255 0 0
15.8003 5.13382 -4.85826 255 0 0
15.6564 5.12816 -4.83443 255 0 0
15.5292 5.12727 -4.81358 255 0 0
15.3965 5.12399 -4.79174 255 0 0
15.2694 5.12194 -4.77089 255 0 0
15.1479 5.12117 -4.75103 255 0 0
16.8957 6.48184 -5.1134 255 0 0
16.7852 6.62272 -5.10447 255 0 0
16.8018 6.72153 -5.1134 255 0 0
15.1602 6.14835 -4.81457 255 0 0
16.3422 6.67291 -5.03696 255 0 0
14.3547 6.2624 -4.69445 255 0 0
14.3015 6.56484 -4.70735 255 0 0
14.2231 6.61069 -4.69842 255 0 0
15.83 5.01928 -5.42901 255 0 0
16.7536 5.09435 -5.16275 255 0 0
16.0878 5.10103 -5.04827 255 0 0
15.5525 5.0533 -4.95356 255 0 0
15.4419 5.05787 -4.93483 255 0 0
15.0384 5.08414 -4.86718 255 0 0
17.0516 5.94554 -5.26161 255 0 0
15.0802 5.41913 -4.89424 255 0 0
15.2739 6.11029 -4.97125 255 0 0
15.2059 6.12496 -4.96085 255 0 0
15.2074 6.16749 -4.96397 255 0 0
15.0607 6.19134 -4.94107 255 0 0
15.1046 6.25127 -4.95252 255 0 0
14.7518 6.22855 -4.89216 255 0 0
14.7847 6.2838 -4.90153 255 0 0
14.3208 6.16696 -4.81619 255 0 0
14.3548 6.26245 -4.82868 255 0 0
14.312 6.56965 -4.84429 255 0 0
14.0926 6.59073 -4.80994 255 0 0
16.783 6.62187 -5.41376 255 0 0
15.0104 6.0462 -5.34139 255 0 0
15.1037 5.06634 -5.01426 255 0 0
16.7719 5.09991 -5.31688 255 0 0
16.6222 5.0975 -5.28967 255 0 0
16.5002 5.1029 -5.26789 255 0 0
16.1904 5.09134 -5.21129 255 0 0
15.9754 5.06537 -5.17101 255 0 0
15.7212 5.06695 -5.12529 255 0 0
15.5942 5.06687 -5.10243 255 0 0
15.4564 5.06264 -5.07739 255 0 0
15.3133 5.05599 -5.05127 255 0 0
15.2412 5.07229 -5.03929 255 0 0
14.9499 5.05422 -4.98595 255 0 0
14.927 5.08595 -4.98378 255 0 0
15.1132 5.26965 -5.02841 255 0 0
15.22 5.34743 -5.05236 255 0 0
14.4046 5.09935 -4.89125 255 0 0
14.6201 5.21467 -4.93697 255 0 0
14.4344 5.18706 -4.90213 255 0 0
14.0651 5.09201 -4.83029 255 0 0
13.9611 5.09183 -4.81178 255 0 0
13.922 5.115 -4.80634 255 0 0
15.0134 5.59696 -5.03167 255 0 0
15.0324 5.64468 -5.0382 255 0 0
15.0944 5.7088 -5.05345 255 0 0
16.8679 6.56308 -5.42465 255 0 0
16.8737 6.61145 -5.429 255 0 0
15.2558 6.10305 -5.10896 255 0 0
15.1254 6.13424 -5.08828 255 0 0
15.0469 6.14399 -5.07522 255 0 0
14.7832 6.28315 -5.03929 255 0 0
14.7154 6.29556 -5.02841 255 0 0
15.6093 6.72181 -5.21564 255 0 0
14.0918 6.54965 -4.94023 255 0 0
13.1657 4.97938 -5.39789 255 0 0
13.267 5.41724 -5.20823 255 0 0
13.2559 5.23022 -5.19032 255 0 0
16.834 5.07521 -5.47837 255 0 0
16.3968 5.07094 -5.39541 255 0 0
16.0986 5.06248 -5.3386 255 0 0
15.9442 5.0555 -5.30905 255 0 0
15.8064 5.05306 -5.28291 255 0 0
15.6741 5.05175 -5.25791 255 0 0
15.5255 5.04453 -5.22951 255 0 0
15.4097 5.04735 -5.20792 255 0 0
15.3105 5.05506 -5.18973 255 0 0
15.1622 5.04601 -5.16133 255 0 0
15.0304 5.04175 -5.13633 255 0 0
14.1847 4.87059 -4.96701 255 0 0
14.0155 4.9803 -4.94258 255 0 0
14.7464 5.29916 -5.09996 255 0 0
14.9412 5.65086 -5.16019 255 0 0
15.1158 6.02625 -5.21928 255 0 0
15.0569 6.06495 -5.21132 255 0 0
15.0319 6.09632 -5.20905 255 0 0
15.0652 6.15148 -5.21928 255 0 0
14.8395 6.14158 -5.17723 255 0 0
14.7255 6.17633 -5.15905 255 0 0
14.6685 6.19336 -5.14996 255 0 0
14.5797 6.19666 -5.13405 255 0 0
14.602 6.24703 -5.14201 255 0 0
14.2389 6.13169 -5.06701 255 0 0
14.3192 6.20655 -5.08746 255 0 0
14.9204 6.50922 -5.22042 255 0 0
14.8842 6.61985 -5.22269 255 0 0
14.9157 6.67624 -5.23292 255 0 0
13.9287 6.51406 -5.04201 255 0 0
13.9029 6.5825 -5.04314 255 0 0
13.29 5.76044 -5.24277 255 0 0
13.2195 4.96392 -5.28477 255 0 0
16.1438 5.03464 -5.49176 255 0 0
15.9294 5.00925 -5.44795 255 0 0
15.5331 5.00633 -5.3698 255 0 0
15.4067 5.00594 -5.34494 255 0 0
15.264 4.99961 -5.31652 255 0 0
15.1595 5.00523 -5.29639 255 0 0
14.0324 4.87418 -5.06728 255 0 0
14.799 5.27846 -5.24429 255 0 0
14.0039 5.03234 -5.07261 255 0 0
13.8625 5.01868 -5.04419 255 0 0
14.9119 5.57925 -5.28751 255 0 0
14.9 5.63528 -5.28929 255 0 0
14.8919 5.67264 -5.29047 255 0 0
15.021 5.92665 -5.33428 255 0 0
14.9998 5.98003 -5.33428 255 0 0
14.6064 6.00455 -5.26087 255 0 0
14.4152 6.04619 -5.22772 255 0 0
14.2952 6.03575 -5.20404 255 0 0
14.6526 6.57933 -5.31652 255 0 0
13.8066 6.45697 -5.1472 255 0 0
14.1402 4.96803 -5.35534 255 0 0
13.881 6.49175 -5.29717 255 0 0
15.5005 4.99581 -5.50409 255 0 0
14.9962 4.99076 -5.40063 255 0 0
14.7825 4.99765 -5.35752 255 0 0
14.3291 4.99627 -5.26515 255 0 0
14.2794 5.01694 -5.25653 255 0 0
14.0678 4.98011 -5.21095 255 0 0
13.9481 4.97499 -5.18632 255 0 0
13.9363 5.00804 -5.18632 255 0 0
13.5535 5.071 -5.11365 255 0 0
13.5568 5.12727 -5.11858 255 0 0
13.5446 5.1594 -5.11858 255 0 0
13.536 5.22976 -5.12227 255 0 0
13.5306 5.28307 -5.12535 255 0 0
13.5251 5.33641 -5.12843 255 0 0
13.5124 5.36847 -5.12843 255 0 0
13.5012 5.41968 -5.13028 255 0 0
13.4979 5.51152 -5.13705 255 0 0
13.5232 5.57805 -5.14752 255 0 0
13.5112 5.62941 -5.14937 255 0 0
13.5137 5.66807 -5.15307 255 0 0
13.5277 5.82541 -5.16908 255 0 0
13.5629 5.91696 -5.18386 255 0 0
13.5645 5.95601 -5.18755 255 0 0
13.6087 6.0332 -5.20295 255 0 0
13.595 6.08508 -5.2048 255 0 0
13.6129 6.17075 -5.21588 255 0 0
13.828 6.34747 -5.27377 255 0 0
13.7817 6.36584 -5.26638 255 0 0
13.8345 6.51001 -5.28978 255 0 0
13.7466 6.54846 -5.27623 255 0 0
13.7414 6.58599 -5.2787 255 0 0
13.9111 6.72828 -5.32488 255 0 0
13.9668 6.81663 -5.34397 255 0 0
13.9352 6.84216 -5.34028 255 0 0
14.8984 4.9582 -5.51524 255 0 0
14.6798 4.96292 -5.46919 255 0 0
14.5598 4.96085 -5.4436 255 0 0
14.3472 4.96444 -5.39883 255 0 0
14.249 4.96835 -5.37836 255 0 0
14.0422 4.97103 -5.33487 255 0 0
13.9604 4.97936 -5.31824 255 0 0
13.8571 4.97959 -5.29649 255 0 0
13.6777 4.98847 -5.2594 255 0 0
13.5693 4.98542 -5.23637 255 0 0
13.4663 4.98386 -5.21463 255 0 0
13.3956 4.99382 -5.20055 255 0 0
13.3409 5.0095 -5.19032 255 0 0
13.3023 5.03101 -5.18392 255 0 0
13.2956 5.06457 -5.1852 255 0 0
13.2585 5.17681 -5.18648 255 0 0
13.2565 5.32147 -5.198 255 0 0
13.2598 5.52465 -5.2159 255 0 0
13.2879 5.72214 -5.23893 255 0 0
13.3077 5.80565 -5.25044 255 0 0
13.3148 5.84637 -5.25556 255 0 0
13.3375 5.89409 -5.26451 255 0 0
13.3421 6.00993 -5.27603 255 0 0
13.3821 6.14282 -5.29649 255 0 0
13.3727 6.17693 -5.29777 255 0 0
13.406 6.30839 -5.31696 255 0 0
13.4248 6.37565 -5.3272 255 0 0
13.469 6.45544 -5.34382 255 0 0
14.1412 4.93077 -5.48376 255 0 0
14.0596 4.93971 -5.46652 255 0 0
13.9457 4.93687 -5.44131 255 0 0
13.8426 4.93735 -5.41876 255 0 0
13.745 4.9393 -5.39753 255 0 0
13.6528 4.94275 -5.37763 255 0 0
13.0786 4.98189 -5.25558 255 0 0
13.0315 5.01709 -5.24828 255 0 0
13.0003 5.05824 -5.24497 255 0 0
12.9883 5.08905 -5.24497 255 0 0
12.9815 5.12193 -5.24629 255 0 0
12.9579 5.36284 -5.26221 255 0 0
12.9615 5.47262 -5.27283 255 0 0
12.9629 5.52763 -5.27813 255 0 0
12.9589 5.58046 -5.28211 255 0 0
12.992 5.7046 -5.30069 255 0 0
12.9908 5.77773 -5.30732 255 0 0
12.9979 5.81784 -5.31263 255 0 0
13.0057 5.87694 -5.31992 255 0 0
13.0649 6.11006 -5.35508 255 0 0
13.092 6.17962 -5.36768 255 0 0
13.0989 6.27806 -5.37896 255 0 0
13.1405 6.33635 -5.39355 255 0 0
13.1872 6.43611 -5.41345 255 0 0
13.1872 6.4749 -5.41743 255 0 0
13.177 6.50868 -5.41876 255 0 0
13.6848 4.95434 -5.5133 255 0 0
13.4848 4.9544 -5.46796 255 0 0
13.393 4.95672 -5.44735 255 0 0
13.3119 4.96262 -5.42949 255 0 0
13.2414 4.97216 -5.41438 255 0 0
13.0357 5.00098 -5.37041 255 0 0
12.9495 5.00315 -5.35117 255 0 0
12.9007 6.33422 -5.46934 255 0 0
12.9572 6.47672 -5.49682 255 0 0
13.1686 4.87366 -5.51333 255 0 0
13.1144 4.889 -5.50196 255 0 0
13.0655 4.9061 -5.49202 255 0 0
