ply
format ascii 1.0
comment Created by Open3D
element vertex 82
property double x
property double y
property double z
property uchar red
property uchar green
property uchar blue
end_header
-25.7451 -5.99554 -4.75612 255 0 0
-26.8098 -5.97602 -4.40312 255 0 0
-27.61 -5.94857 -4.47099 255 0 0
-27.6509 -5.82031 -4.94617 255 0 0
-26.344 -6.5978 -5.28873 255 0 0
-26.1781 -5.9004 -4.57265 255 0 0
-26.4133 -6.94892 -5.07733 255 0 0
-26.0163 -6.0587 -4.56091 255 0 0
-26.2603 -6.11551 -5.03799 255 0 0
-26.1897 -5.9683 -4.35005 255 0 0
-26.1566 -6.61681 -4.58662 255 0 0
-26.1634 -6.42087 -4.58271 255 0 0
-26.0859 -6.46746 -4.57656 255 0 0
-26.7486 -6.83407 -4.41537 255 0 0
-25.799 -5.94364 -4.76037 255 0 0
-27.1442 -6.93515 -5.15666 255 0 0
-27.8879 -6.98446 -5.23926 255 0 0
-27.2782 -5.80943 -4.90792 255 0 0
-26.8467 -5.91746 -4.40516 255 0 0
-26.7618 -6.36625 -4.40669 255 0 0
-26.0462 -6.26131 -4.56818 255 0 0
-26.2888 -6.05649 -5.26691 255 0 0
-26.4571 -6.75961 -4.61791 255 0 0
-25.8384 -5.88823 -5.20918 255 0 0
-26.3794 -6.20923 -4.37097 255 0 0
-25.8868 -5.89927 -4.76826 255 0 0
-26.0447 -5.93526 -4.56091 255 0 0
-26.7506 -5.7634 -5.08323 255 0 0
-26.4914 -6.36833 -4.38373 255 0 0
-25.8914 -7.00891 -5.02226 255 0 0
-26.0132 -6.12304 -4.56203 255 0 0
-25.9986 -6.1847 -4.56203 255 0 0
-25.9309 -5.78011 -4.99341 255 0 0
-26.312 -6.8556 -4.60674 255 0 0
-25.8928 -6.35446 -4.7798 255 0 0
-26.2768 -6.18508 -5.26902 255 0 0
-25.9407 -6.75886 -4.79498 255 0 0
-26.4623 -6.96183 -4.39393 255 0 0
-26.0314 -5.86733 -4.78223 255 0 0
-26.3915 -6.08014 -4.36944 255 0 0
-26.5815 -6.19032 -4.38781 255 0 0
-26.8354 -6.04855 -4.40669 255 0 0
-26.3969 -6.41185 -4.37658 255 0 0
-26.5346 -6.51196 -4.39036 255 0 0
-26.3719 -6.53836 -4.37709 255 0 0
-27.0486 -6.97908 -4.44395 255 0 0
-26.2033 -6.96016 -4.37199 255 0 0
-27.3554 -5.89371 -4.68273 255 0 0
-27.1192 -5.91015 -4.66094 255 0 0
-26.6213 -5.86779 -4.61344 255 0 0
-26.5163 -5.9106 -4.6045 255 0 0
-26.1276 -6.34643 -4.57768 255 0 0
-26.2378 -6.7699 -4.59779 255 0 0
-26.1552 -6.94738 -4.59444 255 0 0
-27.8756 -5.79861 -4.96864 255 0 0
-27.1448 -5.84833 -4.89517 255 0 0
-26.6301 -5.80355 -4.84173 255 0 0
-26.5082 -5.84285 -4.8302 255 0 0
-26.2271 -5.84614 -4.80166 255 0 0
-25.9757 -6.30954 -4.78708 255 0 0
-25.8494 -6.40882 -4.77676 255 0 0
-26.0319 -6.51962 -4.79801 255 0 0
-25.9373 -6.56132 -4.78951 255 0 0
-25.9724 -6.63578 -4.79498 255 0 0
-25.9059 -6.68424 -4.78951 255 0 0
-25.9358 -6.82331 -4.79619 255 0 0
-25.914 -6.88329 -4.79558 255 0 0
-25.9313 -6.95377 -4.79923 255 0 0
-26.3901 -5.75124 -5.04324 255 0 0
-25.8263 -5.8211 -4.98293 255 0 0
-26.2633 -6.05062 -5.03668 255 0 0
-26.2683 -6.18309 -5.04062 255 0 0
-26.2899 -6.98315 -5.06487 255 0 0
-27.1498 -5.71483 -5.35982 255 0 0
-26.869 -5.72228 -5.32674 255 0 0
-26.4632 -5.70149 -5.27817 255 0 0
-26.3077 -5.73327 -5.26057 255 0 0
-26.0192 -5.79979 -5.22819 255 0 0
-25.7899 -5.81289 -5.20144 255 0 0
-26.2517 -6.11353 -5.26409 255 0 0
-26.379 -6.67307 -5.29506 255 0 0
-26.3744 -6.73847 -5.29647 255 0 0
