ply
format ascii 1.0
comment Created by Open3D
element vertex 1434
property double x
property double y
property double z
property uchar red
property uchar green
property uchar blue
end_header
-10.0475 -3.38357 -4.46623 255 0 0
-9.13162 -3.30594 -4.68893 255 0 0
-9.01596 -2.16737 -5.15844 255 0 0
-9.47564 -5.28266 -5.10106 255 0 0
-9.31705 -4.38427 -5.12942 255 0 0
-9.15788 -3.63842 -5.44813 255 0 0
-9.70347 -4.15135 -4.73418 255 0 0
-10.5915 -4.35407 -4.36455 255 0 0
-9.23861 -2.29052 -4.89275 255 0 0
-9.13468 -2.73038 -5.15923 255 0 0
-9.48188 -5.27143 -5.00376 255 0 0
-9.44204 -4.02625 -4.84205 255 0 0
-9.42068 -5.28134 -5.18449 255 0 0
-9.36829 -5.48805 -5.39854 255 0 0
-9.28778 -2.60903 -5.10802 255 0 0
-9.29147 -4.18532 -5.09707 255 0 0
-9.7411 -1.95414 -4.92947 255 0 0
-10.6145 -4.02888 -4.94123 255 0 0
-9.97411 -2.17367 -4.82642 255 0 0
-9.41412 -2.23948 -4.85329 255 0 0
-9.4289 -3.13796 -4.75142 255 0 0
-10.033 -1.86463 -5.00895 255 0 0
-9.73241 -3.76021 -4.33582 255 0 0
-10.6766 -4.00907 -5.15765 255 0 0
-9.1065 -2.26924 -4.93765 255 0 0
-9.78739 -1.72312 -5.29307 255 0 0
-9.22374 -3.36405 -5.07321 255 0 0
-9.2842 -2.69134 -4.76311 255 0 0
-10.4934 -4.05424 -5.01427 255 0 0
-9.88695 -1.76483 -5.42086 255 0 0
-9.99627 -3.59219 -4.37803 255 0 0
-9.29326 -4.82572 -5.46988 255 0 0
-10.7651 -3.95516 -4.3681 255 0 0
-9.66753 -5.7561 -4.9148 255 0 0
-9.33278 -4.79019 -5.18816 255 0 0
-9.60055 -2.46499 -4.74439 255 0 0
-9.07079 -2.40939 -5.02363 255 0 0
-10.0817 -1.79959 -5.11239 255 0 0
-10.0884 -3.17245 -4.55288 255 0 0
-9.40213 -5.08212 -5.15137 255 0 0
-9.34933 -4.98219 -5.21966 255 0 0
-9.4253 -4.58627 -4.9022 255 0 0
-9.18317 -1.93299 -5.28375 255 0 0
-9.29458 -2.63473 -4.7615 255 0 0
-9.24022 -4.22831 -5.18078 255 0 0
-10.5159 -2.23956 -4.88091 255 0 0
-9.04535 -2.54093 -5.28761 255 0 0
-10.4761 -4.07612 -4.81266 255 0 0
-10.699 -5.09668 -4.75676 255 0 0
-9.18433 -3.73748 -5.2857 255 0 0
-9.09555 -2.83654 -5.423 255 0 0
-9.24169 -1.93385 -5.21602 255 0 0
-9.14313 -2.02667 -5.3646 255 0 0
-9.18376 -3.82638 -5.38876 255 0 0
-9.68453 -5.85993 -4.93242 255 0 0
-9.37812 -5.19919 -5.45455 255 0 0
-9.03224 -2.12603 -5.42104 255 0 0
-10.1337 -4.08186 -5.02485 255 0 0
-9.62634 -5.66992 -4.89424 255 0 0
-9.75229 -2.10113 -4.85162 255 0 0
-9.81243 -4.08831 -4.2872 255 0 0
-9.23552 -2.72477 -4.83921 255 0 0
-9.09817 -2.22139 -4.93153 255 0 0
-10.5673 -5.06469 -4.93204 255 0 0
-10.2219 -4.08926 -5.04828 255 0 0
-9.52759 -2.9218 -4.67026 255 0 0
-9.21758 -3.4612 -5.08195 255 0 0
-9.61994 -2.85059 -4.68844 255 0 0
-9.33341 -3.78525 -4.87898 255 0 0
-9.52998 -2.26704 -4.80012 255 0 0
-10.9422 -5.14902 -5.02585 255 0 0
-10.6593 -3.43548 -4.50723 255 0 0
-9.93137 -4.19325 -4.60235 255 0 0
-9.74433 -5.31195 -4.58165 255 0 0
-9.11631 -2.05477 -5.44535 255 0 0
-10.562 -3.10252 -4.75439 255 0 0
-10.6003 -4.24064 -4.35744 255 0 0
-9.79894 -5.40215 -4.60287 255 0 0
-10.4878 -2.52119 -4.79439 255 0 0
-9.75188 -5.28611 -4.58032 255 0 0
-9.43595 -4.78674 -4.92954 255 0 0
-9.52696 -5.2817 -4.91879 255 0 0
-9.56667 -5.81965 -5.20083 255 0 0
-9.71293 -4.29232 -4.47021 255 0 0
-10.1132 -3.55319 -4.39978 255 0 0
-9.40274 -2.67744 -4.7069 255 0 0
-9.43936 -4.23849 -4.77255 255 0 0
-9.51002 -5.78519 -5.28219 255 0 0
-9.31517 -4.27595 -5.0222 255 0 0
-9.41027 -1.84139 -5.26605 255 0 0
-9.25177 -2.01626 -5.05056 255 0 0
-9.1169 -3.17888 -5.37851 255 0 0
-10.6639 -3.07758 -4.67929 255 0 0
-10.8009 -4.92696 -5.18097 255 0 0
-9.28711 -3.98626 -4.97997 255 0 0
-9.68772 -1.99126 -4.91622 255 0 0
-9.3709 -5.16617 -5.44737 255 0 0
-9.90462 -6.02523 -4.90078 255 0 0
-9.38962 -4.93243 -5.12736 255 0 0
-10.5526 -3.1542 -4.75581 255 0 0
-9.71374 -5.17638 -4.56042 255 0 0
-9.31961 -3.29921 -4.64904 255 0 0
-9.4607 -5.12827 -4.97954 255 0 0
-9.36582 -5.16337 -5.2503 255 0 0
-9.371 -5.22432 -5.35831 255 0 0
-9.6984 -5.83695 -4.93242 255 0 0
-9.31758 -4.85238 -5.28835 255 0 0
-9.19773 -3.9221 -5.31333 255 0 0
-9.48278 -5.8304 -5.38311 255 0 0
-9.57487 -5.33798 -4.83991 255 0 0
-9.49523 -3.23523 -4.50993 255 0 0
-9.32537 -4.32086 -5.03048 255 0 0
-10.6729 -4.18187 -4.36691 255 0 0
-9.18783 -3.93075 -5.40387 255 0 0
-10.8358 -5.4646 -5.0365 255 0 0
-9.3724 -4.78248 -5.10252 255 0 0
-9.63966 -3.82981 -4.32217 255 0 0
-9.23818 -3.97823 -5.14842 255 0 0
-9.85761 -2.54346 -4.72784 255 0 0
-10.4102 -2.52866 -4.7753 255 0 0
-10.7506 -3.87766 -4.35981 255 0 0
-10.0467 -3.56998 -4.38698 255 0 0
-9.0058 -2.14235 -5.41294 255 0 0
-10.8438 -2.96308 -4.71364 255 0 0
-10.7698 -2.88803 -4.78992 255 0 0
-9.36356 -3.01788 -5.25992 255 0 0
-9.53552 -5.89403 -5.30538 255 0 0
-9.69929 -5.40735 -4.68066 255 0 0
-9.48883 -2.83623 -5.19061 255 0 0
-10.5366 -4.04224 -4.92361 255 0 0
-9.99064 -3.96928 -4.31307 255 0 0
-9.30895 -4.03489 -5.08345 255 0 0
-9.20403 -2.05162 -5.03799 255 0 0
-9.3361 -1.87289 -5.42102 255 0 0
-9.72665 -5.00692 -4.64082 255 0 0
-10.105 -5.14122 -4.83682 255 0 0
-10.6751 -2.88981 -4.76718 255 0 0
-9.30808 -1.84432 -5.40914 255 0 0
-9.2041 -3.31984 -5.06271 255 0 0
-10.736 -4.6837 -5.13854 255 0 0
-10.803 -2.99326 -4.70608 255 0 0
-10.5956 -2.92227 -4.75012 255 0 0
-9.78454 -3.4638 -4.41449 255 0 0
-9.98984 -4.97868 -4.99078 255 0 0
-9.15701 -2.63095 -4.98225 255 0 0
-10.2305 -3.75872 -4.34509 255 0 0
-9.37342 -4.27581 -4.94496 255 0 0
-9.58795 -5.55583 -4.87074 255 0 0
-9.17903 -2.83873 -4.91999 255 0 0
-9.37814 -4.1311 -4.83736 255 0 0
-9.0393 -2.3781 -5.09723 255 0 0
-9.21278 -4.12363 -5.34464 255 0 0
-9.05293 -2.08564 -5.4251 255 0 0
-9.07607 -2.71285 -5.31469 255 0 0
-9.63983 -4.12412 -4.34733 255 0 0
-9.15023 -3.32496 -5.31608 255 0 0
-10.5542 -3.65198 -4.40298 255 0 0
-9.59019 -1.80587 -5.14393 255 0 0
-9.83514 -5.88753 -4.86809 255 0 0
-9.32048 -3.52507 -4.8484 255 0 0
-9.13806 -3.17412 -5.47546 255 0 0
-9.4819 -5.37491 -5.11554 255 0 0
-9.74224 -5.0442 -4.45606 255 0 0
-9.96302 -3.63367 -4.37419 255 0 0
-9.04914 -2.58835 -5.29341 255 0 0
-9.17376 -3.56939 -5.35289 255 0 0
-9.03249 -2.2167 -5.16788 255 0 0
-9.17201 -2.64704 -4.90127 255 0 0
-9.95988 -3.39355 -4.44766 255 0 0
-9.82938 -2.73604 -4.73391 255 0 0
-9.80573 -2.62951 -4.72027 255 0 0
-9.30901 -4.72235 -5.26736 255 0 0
-9.63878 -5.03418 -4.62502 255 0 0
-10.6143 -4.01442 -5.14203 255 0 0
-9.24018 -4.12276 -5.25974 255 0 0
-9.83755 -2.57563 -4.72481 255 0 0
-9.04701 -2.23163 -5.08771 255 0 0
-9.17982 -3.85031 -5.29859 255 0 0
-9.66785 -4.9188 -4.52327 255 0 0
-9.3147 -2.9413 -4.70455 255 0 0
-9.20859 -3.73463 -5.20138 255 0 0
-9.63712 -3.16923 -4.53836 255 0 0
-9.6743 -1.7387 -5.43942 255 0 0
-9.70711 -5.38157 -4.67929 255 0 0
-9.10627 -2.44195 -5.2113 255 0 0
-9.38696 -2.90304 -5.16547 255 0 0
-9.10663 -2.51161 -5.04338 255 0 0
-9.5291 -5.49159 -5.04516 255 0 0
-9.31154 -5.01889 -5.40787 255 0 0
-9.67667 -5.94961 -5.14516 255 0 0
-9.76237 -4.90875 -4.92789 255 0 0
-10.1858 -4.97129 -5.037 255 0 0
-9.69763 -2.36773 -4.76392 255 0 0
-9.08252 -2.28614 -5.01734 255 0 0
-9.33472 -4.62462 -5.16602 255 0 0
-9.84315 -4.156 -4.76795 255 0 0
-9.07108 -2.22617 -5.35569 255 0 0
-9.6112 -4.32934 -4.54464 255 0 0
-9.19623 -3.18211 -4.95745 255 0 0
-9.73874 -4.27616 -4.47419 255 0 0
-9.44209 -2.79789 -5.17265 255 0 0
-9.2581 -4.28969 -5.1939 255 0 0
-10.6256 -3.27232 -4.58629 255 0 0
-9.40704 -3.25505 -4.75611 255 0 0
-9.34228 -4.75316 -5.1856 255 0 0
-9.20138 -3.31887 -4.97278 255 0 0
-9.3656 -5.10549 -5.24179 255 0 0
-9.0165 -2.28089 -5.16788 255 0 0
-9.29505 -3.02014 -4.79369 255 0 0
-9.69979 -5.08069 -4.54715 255 0 0
-9.11595 -2.65429 -5.23396 255 0 0
-10.4868 -2.5736 -4.79732 255 0 0
-9.20208 -3.66863 -5.19151 255 0 0
-9.75933 -4.2852 -4.29336 255 0 0
-9.58712 -2.22066 -4.813 255 0 0
-9.35301 -4.84267 -5.20093 255 0 0
-9.16846 -1.9981 -5.1962 255 0 0
-9.32394 -3.04176 -4.71549 255 0 0
-9.20808 -2.07545 -5.21508 255 0 0
-9.11172 -2.46658 -5.30308 255 0 0
-9.6451 -2.41559 -4.75299 255 0 0
-9.2454 -3.78789 -5.12743 255 0 0
-9.49232 -3.59006 -4.44983 255 0 0
-9.51718 -5.21743 -4.90818 255 0 0
-9.21257 -2.94512 -5.29437 255 0 0
-9.22431 -2.48533 -4.81686 255 0 0
-9.69352 -4.83102 -4.42472 255 0 0
-9.4808 -4.21664 -4.50479 255 0 0
-9.28852 -2.77636 -4.77116 255 0 0
-9.23786 -3.03794 -4.86737 255 0 0
-9.19531 -3.13304 -4.95234 255 0 0
-10.317 -5.0353 -4.37047 255 0 0
-10.2464 -4.04281 -5.04985 255 0 0
-9.53393 -2.50823 -4.72955 255 0 0
-9.38977 -1.86051 -5.3495 255 0 0
-9.67105 -1.89242 -4.99491 255 0 0
-10.3233 -4.01668 -5.06703 255 0 0
-9.74135 -4.2773 -4.662 255 0 0
-10.3876 -3.67729 -4.37096 255 0 0
-10.8901 -5.31501 -4.92523 255 0 0
-9.33488 -4.41973 -5.04539 255 0 0
-10.0861 -4.98196 -5.01427 255 0 0
-9.88896 -4.03789 -4.29829 255 0 0
-9.17935 -3.78629 -5.29031 255 0 0
-9.35043 -2.74663 -4.6983 255 0 0
-9.11736 -2.58449 -5.1402 255 0 0
-9.70851 -1.87587 -5.00513 255 0 0
-9.18812 -3.09415 -5.03473 255 0 0
-9.0327 -2.13744 -5.24797 255 0 0
-9.72929 -4.17606 -4.83696 255 0 0
-9.09905 -2.0849 -5.09324 255 0 0
-9.24768 -3.73774 -4.94106 255 0 0
-9.19381 -3.18127 -5.04522 255 0 0
-9.17079 -3.10044 -5.11879 255 0 0
-9.029 -2.13656 -5.16033 255 0 0
-9.62627 -4.02415 -4.33582 255 0 0
-9.15153 -2.80647 -4.99625 255 0 0
-9.53326 -5.64558 -5.16704 255 0 0
-9.47031 -3.84077 -4.82955 255 0 0
-10.2369 -2.10414 -4.89361 255 0 0
-9.23934 -2.63091 -4.83259 255 0 0
-9.24846 -4.17915 -5.26961 255 0 0
-10.4055 -2.47533 -4.77089 255 0 0
-9.41485 -5.23416 -5.17621 255 0 0
-9.54022 -5.5736 -5.05922 255 0 0
-9.0224 -2.23692 -5.42712 255 0 0
-9.61433 -3.87266 -4.32047 255 0 0
-10.0484 -3.05548 -4.62789 255 0 0
-9.62781 -5.08672 -4.72454 255 0 0
-9.16901 -3.74392 -5.46553 255 0 0
-9.30436 -4.71999 -5.36118 255 0 0
-9.07229 -2.42131 -5.3735 255 0 0
-10.4664 -4.10094 -4.81266 255 0 0
-9.80377 -3.13412 -4.57531 255 0 0
-9.21874 -3.2635 -4.70768 255 0 0
-9.23733 -4.38697 -5.48316 255 0 0
-9.87284 -5.5041 -4.62941 255 0 0
-10.6527 -3.1566 -4.77997 255 0 0
-10.6737 -2.91661 -4.7686 255 0 0
-9.64835 -4.33235 -4.3678 255 0 0
-10.2127 -2.32735 -4.80665 255 0 0
-9.94802 -5.76448 -4.77547 255 0 0
-9.36301 -4.63862 -5.08099 255 0 0
-9.29355 -1.96771 -5.06044 255 0 0
-9.61236 -5.72325 -4.9976 255 0 0
-9.50408 -3.46629 -4.53125 255 0 0
-9.25211 -3.18918 -4.88558 255 0 0
-10.0693 -2.37013 -4.77179 255 0 0
-9.66008 -1.77164 -5.25439 255 0 0
-9.35366 -4.12031 -4.92162 255 0 0
-9.5307 -5.52266 -5.04985 255 0 0
-9.11377 -2.67711 -5.14757 255 0 0
-9.18613 -2.7695 -5.00324 255 0 0
-9.49732 -2.12881 -4.86985 255 0 0
-9.87878 -4.12972 -4.77383 255 0 0
-9.45013 -3.96368 -4.83736 255 0 0
-9.31673 -3.27335 -4.64601 255 0 0
-9.7272 -3.28855 -4.47869 255 0 0
-10.5709 -4.08417 -4.73562 255 0 0
-9.27229 -3.92794 -4.96921 255 0 0
-9.03809 -2.48117 -5.45548 255 0 0
-9.2462 -2.83551 -4.85163 255 0 0
-9.11501 -2.78346 -5.24623 255 0 0
-9.15123 -3.47348 -5.33401 255 0 0
-9.28222 -4.43529 -5.22013 255 0 0
-9.43425 -2.04431 -5.02161 255 0 0
-9.90173 -3.08798 -4.59521 255 0 0
-9.9061 -3.63955 -4.36268 255 0 0
-9.32336 -3.7298 -4.8704 255 0 0
-9.26523 -3.9379 -5.05961 255 0 0
-9.50586 -2.53702 -4.72408 255 0 0
-10.3977 -2.76185 -4.78704 255 0 0
-9.44445 -5.3389 -5.39592 255 0 0
-10.631 -4.19454 -4.35981 255 0 0
-9.39569 -2.38866 -4.77116 255 0 0
-10.7614 -4.04092 -4.97794 255 0 0
-9.17386 -3.84781 -5.481 255 0 0
-9.70807 -2.85168 -4.71117 255 0 0
-9.77038 -3.53719 -4.41714 255 0 0
-9.9995 -3.0795 -4.61795 255 0 0
-9.77562 -4.43131 -4.30937 255 0 0
-9.15594 -2.58371 -4.97788 255 0 0
-9.1272 -2.78719 -5.1623 255 0 0
-9.59843 -3.81346 -4.40255 255 0 0
-9.69477 -4.73162 -4.41513 255 0 0
-9.74462 -5.73959 -4.82971 255 0 0
-9.16079 -2.97652 -5.19177 255 0 0
-9.18639 -3.32577 -5.14752 255 0 0
-9.20558 -3.82268 -5.21126 255 0 0
-9.91307 -5.10288 -4.88836 255 0 0
-9.38274 -2.06811 -4.91999 255 0 0
-10.7933 -3.05958 -4.70814 255 0 0
-9.13181 -3.31826 -5.39978 255 0 0
-10.042 -2.12618 -4.84205 255 0 0
-9.14833 -3.18984 -5.30003 255 0 0
-10.6023 -4.53587 -4.38112 255 0 0
-9.50936 -5.43528 -5.03266 255 0 0
-9.50168 -1.8359 -5.29626 255 0 0
-9.92902 -5.11109 -4.79418 255 0 0
-9.08958 -2.23072 -5.01525 255 0 0
-9.52039 -2.14584 -4.96596 255 0 0
-9.348 -3.01286 -5.34534 255 0 0
-9.69501 -3.78544 -4.33006 255 0 0
-10.5896 -3.74881 -4.31955 255 0 0
-9.02575 -2.10192 -5.15655 255 0 0
-10.6681 -4.95837 -5.15217 255 0 0
-9.52558 -1.93441 -4.95405 255 0 0
-9.23409 -2.53499 -4.82348 255 0 0
-9.39837 -4.99402 -5.13812 255 0 0
-9.41896 -4.87682 -5.03186 255 0 0
-9.69497 -3.98552 -4.43837 255 0 0
-9.42679 -5.37324 -5.19939 255 0 0
-10.4096 -4.98915 -5.09307 255 0 0
-9.48082 -2.30291 -4.78886 255 0 0
-9.67558 -5.57601 -4.79418 255 0 0
-9.18413 -2.52127 -4.89445 255 0 0
-9.61817 -5.75765 -5.00366 255 0 0
-9.1371 -2.12783 -5.02243 255 0 0
-9.31827 -3.499 -4.84518 255 0 0
-9.19267 -2.73585 -4.91489 255 0 0
-9.1858 -2.08187 -5.0344 255 0 0
-9.23487 -3.33094 -4.89469 255 0 0
-9.66736 -5.51037 -4.78423 255 0 0
-9.18431 -3.4363 -5.15919 255 0 0
-9.10355 -2.8865 -5.34176 255 0 0
-9.29128 -4.49383 -5.23063 255 0 0
-9.63356 -1.90882 -4.98469 255 0 0
-9.32833 -4.99943 -5.40966 255 0 0
-9.14709 -3.32382 -5.22492 255 0 0
-9.61824 -2.77582 -4.68238 255 0 0
-9.62373 -5.60709 -4.88543 255 0 0
-9.85429 -5.13188 -4.77997 255 0 0
-9.7704 -4.37321 -4.30322 255 0 0
-10.743 -5.0864 -5.07926 255 0 0
-10.4454 -4.09272 -4.70814 255 0 0
-10.8176 -3.94534 -4.37757 255 0 0
-9.47278 -5.82426 -5.48075 255 0 0
-9.44657 -1.82525 -5.45665 255 0 0
-10.6388 -5.06797 -5.05283 255 0 0
-9.71895 -1.75863 -5.27281 255 0 0
-9.88279 -1.8731 -4.9659 255 0 0
-9.20745 -3.4325 -4.9864 255 0 0
-9.24028 -3.73475 -5.02896 255 0 0
-9.51621 -1.81531 -5.21019 255 0 0
-9.6889 -5.29662 -4.66555 255 0 0
-9.30537 -4.54157 -5.24112 255 0 0
-9.31286 -4.62753 -5.25512 255 0 0
-9.94451 -1.75078 -5.16066 255 0 0
-9.4545 -5.53856 -5.23086 255 0 0
-10.4941 -2.94791 -4.72738 255 0 0
-9.4216 -4.62598 -4.9061 255 0 0
-9.15602 -3.53752 -5.25255 255 0 0
-9.48524 -5.31753 -5.01079 255 0 0
-9.37332 -4.37011 -4.95622 255 0 0
-9.44169 -5.42633 -5.21099 255 0 0
-9.29973 -2.32907 -4.82679 255 0 0
-9.86979 -4.19485 -4.68332 255 0 0
-9.2887 -4.51981 -5.32797 255 0 0
-9.43527 -2.1737 -4.85495 255 0 0
-10.2784 -5.01644 -4.46087 255 0 0
-9.72397 -3.15951 -4.55825 255 0 0
-9.28439 -2.99236 -5.41332 255 0 0
-9.34421 -4.47851 -5.05532 255 0 0
-9.64007 -4.27379 -4.36076 255 0 0
-10.7548 -5.21746 -4.78064 255 0 0
-9.53103 -4.96353 -4.87939 255 0 0
-9.23667 -3.08615 -4.87151 255 0 0
-9.2035 -3.13583 -5.04347 255 0 0
-9.69326 -4.77363 -4.41896 255 0 0
-9.42235 -4.90694 -5.03669 255 0 0
-9.36572 -2.04109 -4.91318 255 0 0
-9.29847 -4.34863 -5.21314 255 0 0
-9.24619 -1.94625 -5.13099 255 0 0
-9.3662 -5.54665 -5.40729 255 0 0
-9.24444 -3.68551 -4.93443 255 0 0
-9.77161 -2.795 -4.7233 255 0 0
-9.56971 -3.61934 -4.38 255 0 0
-9.75142 -5.55828 -4.70952 255 0 0
-9.19405 -3.83067 -5.30044 255 0 0
-9.58191 -1.82785 -5.41332 255 0 0
-9.23056 -2.77096 -4.8417 255 0 0
-9.44843 -5.77845 -5.46676 255 0 0
-9.33574 -2.17411 -4.91318 255 0 0
-9.8821 -1.93372 -5.15192 255 0 0
-9.24702 -4.02109 -5.15629 255 0 0
-10.7094 -3.06325 -4.68891 255 0 0
-9.2252 -2.03339 -5.04338 255 0 0
-9.23819 -2.58329 -4.82845 255 0 0
-9.92424 -3.67294 -4.36908 255 0 0
-9.41829 -4.79183 -5.02059 255 0 0
-9.46309 -2.90202 -5.18881 255 0 0
-9.45231 -5.13824 -5.07531 255 0 0
-9.58286 -3.3924 -4.45395 255 0 0
-9.24769 -4.41878 -5.39621 255 0 0
-9.22378 -4.2738 -5.36858 255 0 0
-9.434 -5.04168 -5.05761 255 0 0
-10.0029 -2.40463 -4.75664 255 0 0
-9.3828 -4.82992 -5.11163 255 0 0
-9.17982 -2.95866 -5.01899 255 0 0
-10.4066 -3.16439 -4.6257 255 0 0
-10.3505 -2.93405 -4.69185 255 0 0
-10.3635 -4.06062 -4.98244 255 0 0
-9.67668 -4.48364 -4.38762 255 0 0
-10.7845 -2.80992 -4.7885 255 0 0
-9.47038 -5.57806 -5.24079 255 0 0
-9.53474 -2.08975 -4.87813 255 0 0
-9.74012 -2.76103 -4.71269 255 0 0
-9.45039 -2.92266 -4.65055 255 0 0
-9.18714 -3.06961 -4.94383 255 0 0
-9.66824 -1.82057 -5.35101 255 0 0
-9.14106 -2.88645 -5.08827 255 0 0
-9.46423 -3.17466 -4.76392 255 0 0
-9.1454 -3.16452 -5.29626 255 0 0
-9.55176 -2.24831 -4.80495 255 0 0
-9.45405 -5.62899 -5.34395 255 0 0
-10.0422 -1.74345 -5.1904 255 0 0
-9.52554 -5.85669 -5.2971 255 0 0
-10.6903 -4.01419 -5.05973 255 0 0
-9.13317 -2.82455 -5.16783 255 0 0
-9.18972 -3.27777 -4.70143 255 0 0
-9.33712 -3.98154 -4.90151 255 0 0
-9.36035 -3.0291 -4.63616 255 0 0
-9.09892 -2.73143 -5.4131 255 0 0
-9.2109 -3.47116 -4.9915 255 0 0
-9.6439 -4.08535 -4.34477 255 0 0
-9.32335 -3.6276 -4.85967 255 0 0
-9.75053 -5.77425 -4.8354 255 0 0
-10.8597 -4.43427 -5.14308 255 0 0
-9.07391 -2.09047 -5.17166 255 0 0
-9.61163 -2.79862 -4.68238 255 0 0
-9.72289 -5.22575 -4.56772 255 0 0
-9.34887 -2.29434 -4.83839 255 0 0
-9.4679 -5.79036 -5.37289 255 0 0
-9.98428 -3.21794 -4.53227 255 0 0
-9.55364 -5.43055 -4.94456 255 0 0
-9.53726 -3.40173 -4.44434 255 0 0
-9.52833 -3.65542 -4.46357 255 0 0
-9.22733 -3.8317 -5.12743 255 0 0
-9.62308 -1.78845 -5.42492 255 0 0
-9.37787 -3.23252 -4.56972 255 0 0
-9.28257 -4.8762 -5.47448 255 0 0
-9.10843 -2.92375 -5.43686 255 0 0
-9.26167 -2.06446 -5.23207 255 0 0
-9.24085 -3.53258 -4.91705 255 0 0
-10.4907 -3.49131 -4.47525 255 0 0
-9.1149 -3.00947 -5.18072 255 0 0
-10.403 -4.17604 -4.80484 255 0 0
-9.69363 -4.20163 -4.8309 255 0 0
-10.2576 -3.14567 -4.58998 255 0 0
-9.36115 -5.03132 -5.22987 255 0 0
-9.32141 -2.2408 -4.82679 255 0 0
-9.34058 -5.13504 -5.33645 255 0 0
-9.3892 -3.44964 -4.50282 255 0 0
-10.7957 -3.72124 -5.05973 255 0 0
-10.6625 -2.80513 -4.75865 255 0 0
-10.1895 -5.03305 -4.94416 255 0 0
-9.72198 -4.98995 -4.44647 255 0 0
-9.14012 -3.12633 -5.20098 255 0 0
-9.29713 -4.29439 -5.11239 255 0 0
-9.64574 -4.62303 -4.39466 255 0 0
-10.0526 -2.39138 -4.76876 255 0 0
-9.94773 -4.20016 -4.7018 255 0 0
-9.66239 -4.57479 -4.39338 255 0 0
-9.12788 -3.23134 -5.29814 255 0 0
-10.5707 -4.02658 -5.03094 255 0 0
-9.28298 -1.91953 -5.14112 255 0 0
-9.48167 -4.29807 -4.51304 255 0 0
-9.6902 -3.37878 -4.47731 255 0 0
-9.11186 -2.84165 -5.33983 255 0 0
-9.33169 -2.88595 -4.79208 255 0 0
-9.13514 -2.70693 -5.24528 255 0 0
-9.42051 -2.35934 -4.77599 255 0 0
-9.08201 -2.87967 -5.423 255 0 0
-9.89947 -2.51674 -4.73694 255 0 0
-9.40877 -5.1435 -5.45455 255 0 0
-9.19989 -1.97069 -5.20469 255 0 0
-9.40115 -3.19073 -4.57192 255 0 0
-9.44227 -4.2802 -4.77785 255 0 0
-10.6308 -4.32611 -4.36987 255 0 0
-10.5454 -3.09764 -4.65318 255 0 0
-9.20189 -1.99395 -5.11994 255 0 0
-9.45272 -4.95128 -4.95454 255 0 0
-9.47329 -5.1642 -4.98735 255 0 0
-9.4057 -4.72941 -5.00933 255 0 0
-9.4534 -2.34378 -4.78403 255 0 0
-9.27595 -4.66417 -5.44041 255 0 0
-9.36335 -2.70226 -4.6983 255 0 0
-9.16068 -3.29191 -4.69518 255 0 0
-9.28879 -4.93582 -5.48553 255 0 0
-9.18518 -2.58021 -4.89956 255 0 0
-9.05505 -2.27922 -5.3547 255 0 0
-9.74355 -3.52746 -4.41051 255 0 0
-9.31675 -4.41114 -5.13282 255 0 0
-9.44381 -4.97518 -5.05117 255 0 0
-9.67399 -5.54457 -4.78992 255 0 0
-9.26129 -2.3779 -4.81934 255 0 0
-9.71796 -1.75845 -5.18163 255 0 0
-9.30697 -2.59063 -4.7615 255 0 0
-9.70125 -4.69212 -4.41257 255 0 0
-9.59028 -1.78235 -5.23229 255 0 0
-9.82326 -4.2026 -4.67337 255 0 0
-9.61572 -4.24936 -4.53777 255 0 0
-9.1658 -3.18376 -5.12597 255 0 0
-9.16024 -3.0365 -5.02073 255 0 0
-10.192 -1.94423 -4.96588 255 0 0
-9.21663 -3.01884 -5.48437 255 0 0
-9.6858 -4.97138 -4.53256 255 0 0
-10.2474 -3.36991 -4.50934 255 0 0
-9.4468 -4.28226 -4.59521 255 0 0
-9.36488 -4.72281 -5.09258 255 0 0
-9.49426 -3.43723 -4.43747 255 0 0
-9.14682 -2.99598 -5.10083 255 0 0
-9.25461 -3.81733 -4.95182 255 0 0
-9.52845 -5.07764 -4.89303 255 0 0
-9.21421 -3.50988 -4.99661 255 0 0
-9.18567 -2.9846 -4.93532 255 0 0
-9.70915 -4.26316 -4.55975 255 0 0
-9.38273 -3.0979 -4.7358 255 0 0
-9.61173 -3.92469 -4.3243 255 0 0
-9.8897 -3.27828 -4.5151 255 0 0
-10.2312 -2.97902 -4.66627 255 0 0
-9.48652 -1.98508 -4.94553 255 0 0
-9.23762 -3.51879 -5.0942 255 0 0
-10.7367 -4.03163 -4.3681 255 0 0
-9.66844 -5.78774 -4.9192 255 0 0
-10.4002 -2.29239 -4.85363 255 0 0
-9.20966 -1.92716 -5.38043 255 0 0
-9.98937 -1.75868 -5.45484 255 0 0
-9.24149 -3.9278 -5.14317 255 0 0
-10.5196 -4.17943 -4.93242 255 0 0
-9.37223 -5.58028 -5.41429 255 0 0
-9.40438 -3.15458 -4.56972 255 0 0
-9.24994 -3.77696 -4.94603 255 0 0
-9.15989 -3.66439 -5.26913 255 0 0
-9.32731 -4.9421 -5.40068 255 0 0
-10.2269 -4.14763 -4.859 255 0 0
-9.64313 -1.78033 -5.15919 255 0 0
-9.01167 -2.21159 -5.42104 255 0 0
-9.14673 -3.48417 -5.42492 255 0 0
-9.17962 -2.92261 -5.01549 255 0 0
-9.45738 -1.92056 -5.02073 255 0 0
-9.89087 -5.12116 -4.88543 255 0 0
-9.23548 -3.49292 -5.0907 255 0 0
-9.24674 -4.12568 -5.16941 255 0 0
-10.8382 -3.32371 -4.53793 255 0 0
-9.25665 -4.47711 -5.40726 255 0 0
-9.22324 -4.26026 -5.4605 255 0 0
-10.409 -3.51906 -4.4599 255 0 0
-9.54167 -3.2132 -4.51917 255 0 0
-9.09419 -2.5896 -5.22074 255 0 0
-9.21071 -3.7737 -5.20677 255 0 0
-9.12881 -2.56437 -5.14204 255 0 0
-9.97372 -2.14883 -4.82486 255 0 0
-10.7977 -2.75875 -4.7885 255 0 0
-9.27788 -4.3793 -5.21139 255 0 0
-9.23609 -4.04239 -5.24807 255 0 0
-9.40237 -2.07244 -5.01374 255 0 0
-9.58313 -5.58343 -4.97183 255 0 0
-9.40117 -5.67327 -5.43703 255 0 0
-9.77683 -3.72419 -4.34221 255 0 0
-9.60739 -2.04608 -4.89635 255 0 0
-10.4553 -3.50709 -4.46885 255 0 0
-9.39454 -4.6127 -4.99163 255 0 0
-9.1183 -2.81995 -5.25095 255 0 0
-9.26278 -4.53439 -5.41739 255 0 0
-9.11344 -2.61844 -5.14204 255 0 0
-10.7622 -3.24467 -4.61481 255 0 0
-10.0877 -4.80549 -4.40421 255 0 0
-9.12158 -2.43447 -4.95514 255 0 0
-9.23257 -2.8793 -5.20466 255 0 0
-9.93618 -2.46347 -4.743 255 0 0
-10.7292 -4.11612 -4.37283 255 0 0
-9.28064 -2.82201 -4.77277 255 0 0
-9.14278 -3.43311 -5.32646 255 0 0
-10.6836 -3.24861 -4.59757 255 0 0
-9.1786 -2.2295 -4.87062 255 0 0
-10.3451 -2.30596 -4.83999 255 0 0
-9.35655 -3.06467 -4.55063 255 0 0
-9.68081 -5.92058 -4.93976 255 0 0
-9.11145 -2.98439 -5.17704 255 0 0
-9.77761 -4.2656 -4.76355 255 0 0
-10.7977 -3.59349 -4.44855 255 0 0
-10.5682 -3.3509 -4.57899 255 0 0
-9.08729 -2.47155 -5.3834 255 0 0
-9.17955 -2.48494 -5.15125 255 0 0
-9.88473 -4.2012 -4.59273 255 0 0
-9.78821 -5.09747 -4.859 255 0 0
-9.12708 -2.57557 -5.40716 255 0 0
-10.5375 -5.05045 -4.82081 255 0 0
-9.08058 -2.41199 -5.28761 255 0 0
-9.75502 -1.74128 -5.19241 255 0 0
-9.57635 -3.88378 -4.40388 255 0 0
-9.25998 -3.34 -4.63767 255 0 0
-9.10864 -3.03137 -5.26983 255 0 0
-9.64976 -4.88083 -4.89758 255 0 0
-9.96125 -4.15032 -4.89151 255 0 0
-9.69278 -4.61734 -4.40361 255 0 0
-10.8353 -3.16884 -4.62609 255 0 0
-10.685 -5.15231 -4.75942 255 0 0
-9.37688 -5.31538 -5.4725 255 0 0
-9.13847 -2.53207 -4.96826 255 0 0
-9.77772 -5.60403 -4.72051 255 0 0
-9.35798 -4.92996 -5.21455 255 0 0
-9.50801 -5.37485 -5.02407 255 0 0
-9.43722 -1.96311 -5.01724 255 0 0
-9.03772 -2.19528 -5.16788 255 0 0
-9.32422 -4.55077 -5.15325 255 0 0
-9.74664 -2.73793 -4.71269 255 0 0
-9.31169 -4.66832 -5.3558 255 0 0
-9.07392 -2.06783 -5.43117 255 0 0
-9.34425 -5.42943 -5.3828 255 0 0
-9.26906 -4.30812 -5.29295 255 0 0
-9.14925 -2.99677 -5.27927 255 0 0
-9.22128 -3.89343 -5.22472 255 0 0
-9.35144 -4.87001 -5.20433 255 0 0
-9.49178 -1.84565 -5.1152 255 0 0
-10.4725 -3.10323 -4.6367 255 0 0
-9.91121 -5.58726 -4.64665 255 0 0
-9.54592 -5.74519 -5.18474 255 0 0
-10.0913 -5.01431 -4.9192 255 0 0
-9.29711 -2.99646 -4.70455 255 0 0
-9.15256 -3.37502 -5.32269 255 0 0
-9.77153 -4.2079 -4.662 255 0 0
-9.14899 -3.42307 -5.23689 255 0 0
-10.3408 -4.19382 -4.99002 255 0 0
-9.53687 -3.2242 -4.78736 255 0 0
-10.0706 -3.89086 -4.32292 255 0 0
-9.27661 -2.17194 -4.98225 255 0 0
-9.33347 -3.88875 -4.89024 255 0 0
-9.07768 -2.78383 -5.32242 255 0 0
-10.5543 -4.57469 -4.3752 255 0 0
-9.42057 -1.88984 -5.09545 255 0 0
-9.24235 -3.43304 -4.90711 255 0 0
-10.6664 -4.1356 -4.36218 255 0 0
-9.14053 -2.93404 -5.09275 255 0 0
-9.1309 -2.68214 -5.24151 255 0 0
-9.34488 -1.8286 -5.42102 255 0 0
-9.39235 -5.36835 -5.3863 255 0 0
-9.10384 -2.68591 -5.41013 255 0 0
-9.2085 -3.86234 -5.12568 255 0 0
-10.1696 -3.7912 -4.33524 255 0 0
-9.60288 -4.88574 -4.88697 255 0 0
-9.26794 -4.20118 -5.18515 255 0 0
-9.48283 -2.5791 -4.72096 255 0 0
-9.60927 -5.50749 -4.86928 255 0 0
-9.31652 -3.6759 -4.86289 255 0 0
-10.8519 -5.32827 -4.91836 255 0 0
-9.64039 -5.55573 -4.88249 255 0 0
-10.7914 -3.84904 -4.36573 255 0 0
-10.751 -3.99341 -4.3681 255 0 0
-10.733 -4.07385 -4.37047 255 0 0
-10.5731 -4.20068 -4.34915 255 0 0
-10.6222 -4.27862 -4.36455 255 0 0
-10.597 -4.38574 -4.3681 255 0 0
-10.6263 -4.4422 -4.37816 255 0 0
-10.555 -4.45655 -4.36573 255 0 0
-10.5708 -4.49278 -4.37165 255 0 0
-10.4861 -4.51564 -4.35744 255 0 0
-10.5014 -4.58136 -4.36573 255 0 0
-10.627 -4.66619 -4.39651 255 0 0
-10.5477 -4.66124 -4.38112 255 0 0
-9.08106 -2.13752 -5.35173 255 0 0
-10.2721 -4.98329 -4.35744 255 0 0
-10.2587 -5.037 -4.35981 255 0 0
-9.80093 -1.77346 -5.39254 255 0 0
-9.36927 -5.23793 -5.26222 255 0 0
-9.12187 -2.84477 -5.4329 255 0 0
-9.38875 -1.90662 -5.08647 255 0 0
-9.12406 -3.0726 -5.27927 255 0 0
-9.25085 -1.87862 -5.30308 255 0 0
-10.7801 -5.48469 -4.91974 255 0 0
-10.4896 -3.35337 -4.56175 255 0 0
-9.06505 -2.43089 -5.02363 255 0 0
-9.19668 -3.97329 -5.41236 255 0 0
-10.8803 -3.50673 -4.45964 255 0 0
-10.8418 -3.55116 -4.45471 255 0 0
-9.21389 -1.89387 -5.29148 255 0 0
-10.8551 -3.58403 -4.45964 255 0 0
-10.8131 -3.65565 -4.45594 255 0 0
-10.5844 -3.63438 -4.40791 255 0 0
-10.4557 -3.67353 -4.38451 255 0 0
-10.327 -3.71102 -4.3611 255 0 0
-10.2555 -3.74034 -4.34879 255 0 0
-10.1284 -3.80322 -4.32785 255 0 0
-10.1103 -3.85121 -4.32785 255 0 0
-10.0293 -3.90227 -4.31553 255 0 0
-9.9947 -3.94348 -4.31184 255 0 0
-9.93454 -4.00164 -4.30445 255 0 0
-9.85288 -4.05044 -4.29213 255 0 0
-9.80799 -4.11378 -4.28844 255 0 0
-9.79659 -4.17746 -4.29151 255 0 0
-9.1973 -3.28047 -4.96767 255 0 0
-9.77141 -4.2216 -4.29028 255 0 0
-9.76485 -4.31526 -4.29706 255 0 0
-9.7545 -4.47762 -4.30937 255 0 0
-9.79043 -4.53636 -4.32169 255 0 0
-9.81 -4.61624 -4.33278 255 0 0
-10.1847 -4.88135 -4.43008 255 0 0
-10.2336 -4.96457 -4.44732 255 0 0
-9.90031 -4.8902 -4.37588 255 0 0
-10.1324 -2.10771 -4.86548 255 0 0
-10.9253 -5.07792 -5.01448 255 0 0
-9.01586 -2.09962 -5.41294 255 0 0
-9.39207 -2.21072 -4.84501 255 0 0
-9.68384 -5.23441 -4.65731 255 0 0
-9.30882 -1.89039 -5.14757 255 0 0
-10.8624 -3.30299 -4.54177 255 0 0
-10.8739 -3.3629 -4.54816 255 0 0
-10.8074 -3.38447 -4.53537 255 0 0
-10.8116 -3.42807 -4.53921 255 0 0
-10.7109 -3.42412 -4.51746 255 0 0
-10.5913 -3.44132 -4.49316 255 0 0
-10.5451 -3.45398 -4.4842 255 0 0
-10.5369 -3.47897 -4.4842 255 0 0
-10.2654 -3.49766 -4.42792 255 0 0
-10.2286 -3.52576 -4.42216 255 0 0
-10.1432 -3.53673 -4.40489 255 0 0
-10.0092 -3.62366 -4.38315 255 0 0
-9.85224 -3.68618 -4.355 255 0 0
-9.79632 -3.70504 -4.34477 255 0 0
-9.74663 -3.73917 -4.3371 255 0 0
-9.62492 -3.93008 -4.3275 255 0 0
-9.61941 -3.98115 -4.3307 255 0 0
-9.672 -4.16505 -4.35756 255 0 0
-9.62831 -4.18688 -4.35053 255 0 0
-9.67353 -4.24752 -4.36524 255 0 0
-9.62511 -4.37686 -4.36716 255 0 0
-9.66401 -4.43609 -4.38059 255 0 0
-9.6788 -4.5265 -4.3921 255 0 0
-9.6577 -4.54457 -4.38954 255 0 0
-9.69926 -4.87702 -4.43048 255 0 0
-9.72006 -4.93088 -4.44007 255 0 0
-9.74546 -5.0752 -4.4599 255 0 0
-9.77792 -5.1364 -4.47269 255 0 0
-9.80504 -5.19522 -4.4842 255 0 0
-9.35662 -3.07698 -4.63919 255 0 0
-9.80647 -2.6048 -4.71875 255 0 0
-9.4007 -2.98072 -5.2679 255 0 0
-10.2574 -1.93152 -4.98358 255 0 0
-9.99719 -3.51243 -4.4649 255 0 0
-10.7849 -5.23203 -4.89363 255 0 0
-9.24908 -3.80222 -5.03918 255 0 0
-9.30122 -4.03155 -4.98908 255 0 0
-10.9367 -5.43441 -5.05569 255 0 0
-9.15474 -2.06343 -5.28375 255 0 0
-9.23612 -4.33282 -5.38055 255 0 0
-9.51135 -5.57186 -5.15094 255 0 0
-10.8557 -3.11902 -4.62742 255 0 0
-10.8103 -3.20332 -4.62277 255 0 0
-10.8191 -3.23384 -4.62675 255 0 0
-10.5677 -3.29566 -4.57501 255 0 0
-10.5489 -3.31728 -4.57236 255 0 0
-10.4342 -3.37661 -4.55113 255 0 0
-10.1028 -3.36224 -4.47684 255 0 0
-9.9518 -3.41715 -4.44766 255 0 0
-10.1377 -3.50787 -4.49541 255 0 0
-9.90856 -3.45492 -4.44102 255 0 0
-9.81927 -3.50232 -4.4251 255 0 0
-9.70532 -3.56578 -4.4052 255 0 0
-9.58452 -3.54722 -4.37734 255 0 0
-9.5932 -3.58928 -4.38265 255 0 0
-9.56111 -3.64202 -4.38 255 0 0
-9.56309 -3.66876 -4.38265 255 0 0
-9.57565 -3.69964 -4.38796 255 0 0
-9.57039 -3.73679 -4.38995 255 0 0
-9.59153 -3.78441 -4.39857 255 0 0
-9.53451 -3.82741 -4.38995 255 0 0
-9.65159 -3.94097 -4.4251 255 0 0
-9.56724 -4.25508 -4.43572 255 0 0
-9.55712 -4.27775 -4.43572 255 0 0
-9.64055 -4.34256 -4.45959 255 0 0
-9.67178 -4.38424 -4.47021 255 0 0
-10.8911 -4.96812 -4.78462 255 0 0
-10.8637 -4.98679 -4.78064 255 0 0
-10.7383 -5.14668 -4.77003 255 0 0
-10.8552 -5.29797 -4.80983 255 0 0
-10.7212 -5.27986 -4.77998 255 0 0
-9.69339 -5.01891 -4.53919 255 0 0
-9.72193 -5.06295 -4.54981 255 0 0
-9.70434 -5.12716 -4.55312 255 0 0
-9.78171 -5.36245 -4.59491 255 0 0
-9.81603 -5.44196 -4.61083 255 0 0
-9.87468 -5.53586 -4.63338 255 0 0
-10.0059 -1.95794 -4.91438 255 0 0
-9.36035 -5.27672 -5.26563 255 0 0
-10.123 -3.15699 -4.55975 255 0 0
-9.36097 -3.26398 -4.56825 255 0 0
-10.2421 -5.02886 -4.95591 255 0 0
-9.38702 -2.28012 -4.84832 255 0 0
-9.48323 -5.86171 -5.38821 255 0 0
-10.3968 -4.07366 -4.89277 255 0 0
-9.23695 -4.08198 -5.25345 255 0 0
-9.22927 -3.67947 -5.0196 255 0 0
-10.4635 -4.01417 -5.10297 255 0 0
-9.14889 -3.22658 -5.48536 255 0 0
-10.8005 -3.03398 -4.70814 255 0 0
-10.5964 -3.08536 -4.66418 255 0 0
-10.4979 -3.13783 -4.64494 255 0 0
-10.4686 -3.15614 -4.63944 255 0 0
-10.2338 -3.16494 -4.58586 255 0 0
-10.0011 -3.18413 -4.53365 255 0 0
-9.9403 -3.24283 -4.52403 255 0 0
-9.81592 -3.29263 -4.4993 255 0 0
-9.74237 -3.33232 -4.48556 255 0 0
-10.0102 -3.46375 -4.557 255 0 0
-9.64995 -3.39043 -4.46907 255 0 0
-9.52917 -3.42433 -4.44434 255 0 0
-9.50602 -3.47978 -4.44365 255 0 0
-9.50009 -3.52878 -4.4464 255 0 0
-9.52745 -3.57755 -4.4567 255 0 0
-9.49442 -3.61661 -4.45258 255 0 0
-10.5187 -4.09271 -4.72463 255 0 0
-10.4519 -4.13823 -4.71364 255 0 0
-10.4425 -4.17748 -4.71501 255 0 0
-9.85904 -4.21791 -4.58861 255 0 0
-9.79173 -4.23035 -4.57487 255 0 0
-9.75575 -4.25606 -4.56937 255 0 0
-9.56429 -4.28096 -4.52952 255 0 0
-10.8489 -4.94889 -4.87852 255 0 0
-10.8113 -4.96273 -4.87165 255 0 0
-10.6488 -5.04183 -4.84417 255 0 0
-10.5906 -5.04504 -4.8318 255 0 0
-10.5102 -5.06801 -4.81669 255 0 0
-10.7933 -5.3313 -4.906 255 0 0
-10.7807 -5.35688 -4.906 255 0 0
-10.8137 -5.40533 -4.91836 255 0 0
-10.8518 -5.45652 -4.9321 255 0 0
-10.7321 -5.42829 -4.90325 255 0 0
-9.67432 -5.00903 -4.62983 255 0 0
-9.74255 -5.22143 -4.6683 255 0 0
-9.68993 -5.34206 -4.67105 255 0 0
-9.7212 -5.44981 -4.69028 255 0 0
-9.738 -5.48962 -4.69853 255 0 0
-9.72991 -5.5155 -4.6999 255 0 0
-9.90742 -5.70961 -4.76036 255 0 0
-10.7854 -3.64632 -5.05064 255 0 0
-9.17958 -3.38499 -5.15201 255 0 0
-10.6528 -5.0437 -4.9491 255 0 0
-9.32981 -4.81664 -5.2866 255 0 0
-9.12664 -2.01166 -5.27021 255 0 0
-9.22738 -2.82974 -4.84584 255 0 0
-9.10876 -3.03141 -5.35917 255 0 0
-9.20243 -4.13209 -5.43596 255 0 0
-9.38809 -4.56817 -4.98439 255 0 0
-9.01734 -2.21298 -5.24894 255 0 0
-9.20147 -3.29425 -4.79369 255 0 0
-10.8297 -2.79427 -4.79844 255 0 0
-10.7601 -2.85811 -4.78565 255 0 0
-10.5285 -2.93063 -4.73449 255 0 0
-10.3162 -2.95077 -4.68474 255 0 0
-10.2764 -2.96578 -4.67622 255 0 0
-10.507 -3.16773 -4.74586 255 0 0
-9.81852 -3.08759 -4.57531 255 0 0
-9.75703 -3.0937 -4.5611 255 0 0
-9.75306 -3.14341 -4.56394 255 0 0
-9.64196 -3.20887 -4.54262 255 0 0
-9.63259 -3.30754 -4.5483 255 0 0
-9.51751 -5.60582 -5.15738 255 0 0
-9.47441 -3.27836 -4.50851 255 0 0
-9.44516 -3.29334 -4.50282 255 0 0
-9.44945 -3.33258 -4.50709 255 0 0
-9.44423 -3.38119 -4.50993 255 0 0
-9.43216 -3.41475 -4.50993 255 0 0
-9.24249 -3.42063 -4.46587 255 0 0
-10.8268 -4.06545 -4.89367 255 0 0
-10.6577 -4.03083 -4.85103 255 0 0
-10.6057 -4.03991 -4.83966 255 0 0
-10.5483 -4.04674 -4.82687 255 0 0
-10.5228 -4.0656 -4.82261 255 0 0
-10.4412 -4.13394 -4.80981 255 0 0
-9.74868 -4.23923 -4.65987 255 0 0
-9.46621 -4.18329 -4.58952 255 0 0
-9.50872 -4.28318 -4.60942 255 0 0
-10.8925 -4.99999 -4.99884 255 0 0
-10.8548 -5.0139 -4.99174 255 0 0
-10.9698 -5.13028 -5.03011 255 0 0
-10.5844 -5.04207 -4.93346 255 0 0
-10.498 -5.07752 -4.91783 255 0 0
-10.8015 -5.27177 -5.00737 255 0 0
-10.9063 -5.35495 -5.04006 255 0 0
-10.8579 -5.36319 -5.03011 255 0 0
-10.939 -5.46795 -5.05996 255 0 0
-9.96639 -5.10047 -4.80129 255 0 0
-9.85634 -5.10328 -4.77713 255 0 0
-9.59051 -5.02345 -4.70891 255 0 0
-9.64786 -5.42375 -4.76931 255 0 0
-9.6557 -5.47343 -4.77713 255 0 0
-9.69673 -5.61887 -4.80413 255 0 0
-9.70855 -5.67195 -4.81337 255 0 0
-9.8149 -5.84385 -4.85814 255 0 0
-9.90653 -5.97823 -4.89509 255 0 0
-9.10528 -2.48802 -5.21508 255 0 0
-9.24613 -3.63547 -4.92947 255 0 0
-9.12009 -2.6555 -5.14757 255 0 0
-9.3506 -2.48371 -4.76553 255 0 0
-9.20353 -3.22133 -5.05222 255 0 0
-9.37767 -5.25722 -5.46353 255 0 0
-9.47162 -5.60908 -5.24576 255 0 0
-9.58604 -2.06531 -4.89138 255 0 0
-10.5659 -2.48701 -4.81201 255 0 0
-10.4586 -2.593 -4.79145 255 0 0
-10.337 -2.58887 -4.76061 255 0 0
-10.4407 -2.64117 -4.78998 255 0 0
-9.37079 -3.09396 -4.5565 255 0 0
-9.43334 -3.13944 -4.57559 255 0 0
-10.5217 -4.06517 -4.92214 255 0 0
-10.4011 -4.04695 -4.8913 255 0 0
-10.4451 -4.12119 -4.90892 255 0 0
-10.3939 -4.15804 -4.90011 255 0 0
-10.2841 -4.14243 -4.87221 255 0 0
-9.76546 -4.1505 -4.74887 255 0 0
-9.73005 -4.19004 -4.74446 255 0 0
-9.75129 -4.22662 -4.75327 255 0 0
-10.8782 -5.02469 -5.10422 255 0 0
-10.8012 -5.03581 -5.08733 255 0 0
-10.6063 -5.08339 -5.04695 255 0 0
-10.2607 -4.97776 -4.95444 255 0 0
-10.198 -4.97721 -4.93976 255 0 0
-10.3582 -5.17761 -4.99996 255 0 0
-10.1129 -5.08503 -4.93242 255 0 0
-9.95541 -5.09486 -4.89717 255 0 0
-9.58053 -5.38589 -4.84725 255 0 0
-9.59583 -5.4395 -4.85753 255 0 0
-9.60261 -5.47346 -4.8634 255 0 0
-9.61041 -5.62989 -4.88543 255 0 0
-9.65188 -5.71583 -4.90599 255 0 0
-9.74325 -5.92707 -4.95444 255 0 0
-9.10965 -2.5357 -5.39726 255 0 0
-9.17735 -3.62099 -5.36045 255 0 0
-9.43584 -5.08589 -5.06404 255 0 0
-9.10627 -2.17766 -5.01645 255 0 0
-10.5433 -2.21928 -4.88697 255 0 0
-10.4774 -2.27035 -4.87257 255 0 0
-10.2844 -2.31805 -4.82483 255 0 0
-10.141 -2.33632 -4.78846 255 0 0
-10.1355 -2.36036 -4.78846 255 0 0
-9.96973 -2.42167 -4.74906 255 0 0
-9.93101 -2.43721 -4.73997 255 0 0
-9.88642 -2.47603 -4.73087 255 0 0
-9.75579 -2.64093 -4.70814 255 0 0
-9.7436 -2.67488 -4.70738 255 0 0
-9.57994 -2.87583 -4.68011 255 0 0
-9.61024 -2.92224 -4.69147 255 0 0
-9.38326 -2.93849 -4.63464 255 0 0
-9.36921 -2.98296 -4.63464 255 0 0
-9.39288 -3.13836 -4.65359 255 0 0
-9.27776 -3.16114 -4.62631 255 0 0
-10.8412 -3.7801 -5.0764 255 0 0
-9.28512 -3.3118 -4.64146 255 0 0
-9.22945 -3.36613 -4.63237 255 0 0
-10.7474 -4.00661 -5.07337 255 0 0
-10.6331 -4.02151 -5.04609 255 0 0
-10.5347 -4.0415 -5.02336 255 0 0
-10.4311 -4.0586 -4.99911 255 0 0
-10.3017 -4.07872 -4.9688 255 0 0
-10.3084 -4.13806 -4.97638 255 0 0
-10.8386 -4.48572 -5.14308 255 0 0
-9.79492 -4.1083 -4.84605 255 0 0
-9.74639 -4.12876 -4.8362 255 0 0
-9.49257 -4.1815 -4.77937 255 0 0
-9.51382 -4.23132 -4.78998 255 0 0
-10.7377 -4.92896 -5.16581 255 0 0
-10.7363 -4.95915 -5.16884 255 0 0
-10.6409 -4.97646 -5.14763 255 0 0
-10.5779 -4.97759 -5.13247 255 0 0
-10.5559 -4.99782 -5.12944 255 0 0
-10.4674 -4.98635 -5.10671 255 0 0
-10.3468 -4.98926 -5.07792 255 0 0
-10.2637 -4.97921 -5.0567 255 0 0
-10.1233 -4.9705 -5.02184 255 0 0
-9.58544 -4.91986 -4.88697 255 0 0
-9.57291 -4.95653 -4.88848 255 0 0
-9.51422 -4.98349 -4.87787 255 0 0
-9.53394 -5.03711 -4.88924 255 0 0
-9.54021 -5.12757 -4.90212 255 0 0
-9.53319 -5.18219 -4.90743 255 0 0
-9.51964 -5.24817 -4.91273 255 0 0
-9.54266 -5.33487 -4.9294 255 0 0
-9.54334 -5.37988 -4.93546 255 0 0
-9.57353 -5.487 -4.95668 255 0 0
-9.5654 -5.51251 -4.95819 255 0 0
-9.57677 -5.54935 -4.96577 255 0 0
-9.58514 -5.63039 -4.97865 255 0 0
-9.6113 -5.6918 -4.99305 255 0 0
-9.61419 -5.78627 -5.00669 255 0 0
-9.63915 -5.83247 -5.01881 255 0 0
-9.74126 -5.92586 -5.05518 255 0 0
-9.84219 -1.81709 -5.04173 255 0 0
-9.80439 -5.99615 -5.07943 255 0 0
-9.2872 -2.89633 -4.78081 255 0 0
-9.41896 -4.52808 -4.89361 255 0 0
-9.23068 -1.96585 -5.12731 255 0 0
-9.22302 -4.18082 -5.44918 255 0 0
-9.18133 -3.8894 -5.39632 255 0 0
-9.15706 -3.13214 -5.11789 255 0 0
-9.48347 -5.67701 -5.25901 255 0 0
-9.17382 -3.32122 -4.78886 255 0 0
-9.16899 -3.73124 -5.37177 255 0 0
-10.8705 -2.10039 -5.06547 255 0 0
-10.5388 -2.06222 -4.97329 255 0 0
-10.4508 -2.07075 -4.94985 255 0 0
-10.4293 -2.0922 -4.94517 255 0 0
-10.3082 -2.09333 -4.91235 255 0 0
-9.93586 -2.19003 -4.81705 255 0 0
-9.87556 -2.2013 -4.80142 255 0 0
-9.85115 -2.23266 -4.79673 255 0 0
-9.79194 -2.28034 -4.78371 255 0 0
-9.74167 -2.3296 -4.7733 255 0 0
-9.6508 -2.39272 -4.75299 255 0 0
-9.62294 -2.4343 -4.7483 255 0 0
-9.55623 -2.48988 -4.73424 255 0 0
-9.44109 -2.62796 -4.71341 255 0 0
-9.36234 -2.72603 -4.69986 255 0 0
-9.3493 -2.77039 -4.69986 255 0 0
-9.3373 -2.79094 -4.6983 255 0 0
-9.31921 -2.82168 -4.69596 255 0 0
-9.30842 -2.86666 -4.69674 255 0 0
-9.30895 -2.90311 -4.69986 255 0 0
-9.32031 -2.97956 -4.70924 255 0 0
-9.47194 -3.23984 -4.77174 255 0 0
-9.29272 -3.24019 -4.72486 255 0 0
-9.25307 -3.25099 -4.71549 255 0 0
-9.13158 -3.40422 -4.6983 255 0 0
-10.5204 -4.00743 -5.11703 255 0 0
-10.4171 -4.02473 -5.09203 255 0 0
-10.2507 -4.01644 -5.04828 255 0 0
-10.2368 -4.06709 -5.04985 255 0 0
-9.42983 -3.85041 -4.82017 255 0 0
-9.38936 -3.85989 -4.8108 255 0 0
-9.48446 -3.9253 -4.84205 255 0 0
-9.44908 -3.93692 -4.83423 255 0 0
-9.48229 -4.00364 -4.84986 255 0 0
-9.40246 -4.07542 -4.83736 255 0 0
-9.37906 -4.18472 -4.84361 255 0 0
-9.38985 -4.22964 -4.85142 255 0 0
-9.39529 -4.27235 -4.85767 255 0 0
-9.39799 -4.32747 -4.8647 255 0 0
-9.40038 -4.38272 -4.87173 255 0 0
-9.40501 -4.43929 -4.87954 255 0 0
-9.41974 -4.48727 -4.88892 255 0 0
-9.43036 -4.67199 -4.91392 255 0 0
-9.43584 -4.73057 -4.92251 255 0 0
-9.44399 -4.83313 -4.93735 255 0 0
-9.44428 -4.87575 -4.94282 255 0 0
-9.43941 -4.91582 -4.94673 255 0 0
-9.46092 -4.9842 -4.96079 255 0 0
-9.45807 -5.02577 -4.96548 255 0 0
-9.45899 -5.08392 -4.97329 255 0 0
-9.46597 -5.18936 -4.98891 255 0 0
-9.47835 -5.22541 -4.99673 255 0 0
-9.54466 -5.62181 -5.06703 255 0 0
-9.56043 -5.66168 -5.07641 255 0 0
-9.57123 -5.69876 -5.08422 255 0 0
-9.5819 -5.73593 -5.09203 255 0 0
-9.51509 -5.72663 -5.07485 255 0 0
-9.54532 -5.79115 -5.09125 255 0 0
-9.62816 -5.88838 -5.12484 255 0 0
-9.31417 -3.57326 -4.85162 255 0 0
-9.14709 -2.32546 -4.95427 255 0 0
-9.15516 -2.67749 -4.98575 255 0 0
-9.10589 -2.63966 -5.40617 255 0 0
-9.33541 -2.15072 -4.91148 255 0 0
-9.87302 -1.81069 -5.41897 255 0 0
-9.17641 -2.18294 -4.95252 255 0 0
-9.17027 -3.63077 -5.2682 255 0 0
-10.3339 -1.92056 -5.0045 255 0 0
-10.0989 -1.9513 -4.94013 255 0 0
-9.95702 -1.97291 -4.90151 255 0 0
-9.88723 -2.02005 -4.88461 255 0 0
-9.82211 -2.04317 -4.86771 255 0 0
-9.77898 -2.0705 -4.85725 255 0 0
-9.71428 -2.11705 -4.84197 255 0 0
-9.67666 -2.15697 -4.83392 255 0 0
-9.61143 -2.19032 -4.81783 255 0 0
-9.37078 -2.41785 -4.76633 255 0 0
-9.32759 -2.53689 -4.76311 255 0 0
-9.31851 -2.57005 -4.76311 255 0 0
-9.28213 -2.73852 -4.76633 255 0 0
-9.29026 -2.93358 -4.78484 255 0 0
-9.30927 -2.97603 -4.79369 255 0 0
-9.29666 -3.06948 -4.79851 255 0 0
-9.32141 -3.10218 -4.80817 255 0 0
-9.31937 -3.12607 -4.80978 255 0 0
-9.31193 -3.14815 -4.80978 255 0 0
-9.30977 -3.17204 -4.81139 255 0 0
-9.30526 -3.21983 -4.81461 255 0 0
-9.18779 -3.24028 -4.78484 255 0 0
-9.17382 -3.37051 -4.79369 255 0 0
-9.30544 -3.46903 -4.83875 255 0 0
-9.32261 -3.55117 -4.85162 255 0 0
-9.33098 -3.83589 -4.88381 255 0 0
-9.33773 -3.92957 -4.89588 255 0 0
-9.34436 -4.05024 -4.91116 255 0 0
-9.34945 -4.1715 -4.92645 255 0 0
-9.36792 -4.21976 -4.93691 255 0 0
-9.37348 -4.32966 -4.9514 255 0 0
-9.37795 -4.42652 -4.96427 255 0 0
-9.39217 -4.5015 -4.97714 255 0 0
-9.41891 -4.65241 -5.00289 255 0 0
-9.39777 -4.66972 -4.99967 255 0 0
-9.41119 -4.83044 -5.02381 255 0 0
-9.46114 -5.21592 -5.08818 255 0 0
-9.47641 -5.32736 -5.10749 255 0 0
-9.49848 -5.4141 -5.1252 255 0 0
-9.49708 -5.47314 -5.13324 255 0 0
-9.50994 -5.54079 -5.14612 255 0 0
-9.53436 -5.67681 -5.17186 255 0 0
-9.4712 -5.79238 -5.17347 255 0 0
-9.58692 -5.89443 -5.21692 255 0 0
-9.33185 -4.66459 -5.26561 255 0 0
-9.21718 -3.16491 -5.05047 255 0 0
-10.2351 -1.85203 -5.06691 255 0 0
-10.0926 -1.85096 -5.02551 255 0 0
-9.83747 -1.90078 -4.95431 255 0 0
-9.8164 -1.92087 -4.94934 255 0 0
-9.78427 -1.93868 -4.94106 255 0 0
-9.71993 -1.97388 -4.9245 255 0 0
-9.64759 -2.01878 -4.90628 255 0 0
-9.22982 -2.42823 -4.8141 255 0 0
-9.23755 -2.67782 -4.8359 255 0 0
-9.23459 -2.89193 -4.85329 255 0 0
-9.23682 -2.94081 -4.85826 255 0 0
-9.23346 -2.98804 -4.86157 255 0 0
-9.2432 -3.13714 -4.87813 255 0 0
-9.24484 -3.23579 -4.88807 255 0 0
-9.23468 -3.28148 -4.88972 255 0 0
-9.23479 -3.38049 -4.89966 255 0 0
-9.2391 -3.48178 -4.91125 255 0 0
-9.24232 -3.58346 -4.92284 255 0 0
-9.26232 -3.87201 -4.9601 255 0 0
-9.29968 -4.07023 -4.99322 255 0 0
-9.29286 -4.10668 -4.99571 255 0 0
-9.30362 -4.13783 -5.00233 255 0 0
-9.29652 -4.17435 -5.00481 255 0 0
-9.30985 -4.2335 -5.01558 255 0 0
-9.32511 -4.37458 -5.03711 255 0 0
-9.34466 -4.45151 -5.05201 255 0 0
-9.34844 -4.5215 -5.06195 255 0 0
-9.35715 -4.5806 -5.07188 255 0 0
-9.36907 -4.68319 -5.08844 255 0 0
-9.38051 -4.87103 -5.11659 255 0 0
-9.40035 -5.03803 -5.14475 255 0 0
-9.40866 -5.12896 -5.15965 255 0 0
-9.40757 -5.17187 -5.16545 255 0 0
-9.43116 -5.3314 -5.19443 255 0 0
-9.44742 -5.48938 -5.22175 255 0 0
-9.47277 -5.64014 -5.25073 255 0 0
-9.49206 -5.72812 -5.26895 255 0 0
-9.51545 -5.81944 -5.28882 255 0 0
-9.1395 -2.3813 -5.21697 255 0 0
-9.03176 -2.08076 -5.24313 255 0 0
-9.11331 -2.37448 -5.29535 255 0 0
-9.13832 -3.17421 -5.20558 255 0 0
-9.31986 -4.52131 -5.14815 255 0 0
-10.2956 -1.81259 -5.17709 255 0 0
-9.9175 -1.79456 -5.06301 255 0 0
-9.78336 -1.84225 -5.02556 255 0 0
-9.72944 -1.85599 -5.01023 255 0 0
-9.58507 -1.92284 -4.97107 255 0 0
-9.45235 -2.02478 -4.93787 255 0 0
-9.45205 -2.13043 -4.94468 255 0 0
-9.3142 -2.19239 -4.90808 255 0 0
-9.22177 -2.19373 -4.88083 255 0 0
-9.24946 -2.31651 -4.89786 255 0 0
-9.24937 -2.3398 -4.89956 255 0 0
-9.2438 -2.36173 -4.89956 255 0 0
-9.1568 -2.36264 -4.87402 255 0 0
-9.20509 -2.42172 -4.89275 255 0 0
-9.18787 -2.47552 -4.8919 255 0 0
-9.18941 -2.68751 -4.90978 255 0 0
-9.19238 -2.79517 -4.91999 255 0 0
-9.17956 -2.87471 -4.9234 255 0 0
-9.18184 -2.9233 -4.92851 255 0 0
-9.18205 -3.03164 -4.93872 255 0 0
-9.1921 -3.10764 -4.94894 255 0 0
-9.19569 -3.24308 -4.96341 255 0 0
-9.20784 -3.38301 -4.98129 255 0 0
-9.22678 -3.53974 -5.00342 255 0 0
-9.22034 -3.58752 -5.00683 255 0 0
-9.23449 -3.64354 -5.01704 255 0 0
-9.23612 -3.8482 -5.04088 255 0 0
-9.25077 -3.89297 -5.05024 255 0 0
-9.28162 -3.97087 -5.06812 255 0 0
-9.27461 -4.08548 -5.08004 255 0 0
-9.27815 -4.1397 -5.0877 255 0 0
-9.29191 -4.23863 -5.10388 255 0 0
-9.29703 -4.33453 -5.1175 255 0 0
-9.31088 -4.46254 -5.13793 255 0 0
-9.32346 -4.5778 -5.15666 255 0 0
-9.33468 -4.6937 -5.17539 255 0 0
-9.35306 -5.06992 -5.23328 255 0 0
-9.37804 -5.33075 -5.2784 255 0 0
-9.38755 -5.41002 -5.29287 255 0 0
-9.394 -5.48818 -5.30649 255 0 0
-9.39857 -5.53576 -5.315 255 0 0
-9.41434 -5.57516 -5.32522 255 0 0
-9.45605 -5.6911 -5.35416 255 0 0
-9.45767 -5.75334 -5.36438 255 0 0
-9.34926 -2.13058 -5.00149 255 0 0
-9.37932 -5.52443 -5.40729 255 0 0
-9.15737 -3.71386 -5.4578 255 0 0
-10.2611 -1.7564 -5.25861 255 0 0
-9.84472 -1.76932 -5.13093 255 0 0
-9.7944 -1.79628 -5.11694 255 0 0
-9.75166 -1.81235 -5.10469 255 0 0
-9.71987 -1.83029 -5.09595 255 0 0
-10.1272 -1.93186 -5.22713 255 0 0
-9.744 -1.88272 -5.10644 255 0 0
-9.55956 -1.89415 -5.05047 255 0 0
-9.49022 -1.92719 -5.03123 255 0 0
-9.38371 -1.98682 -5.00237 255 0 0
-9.28588 -2.08144 -4.97876 255 0 0
-9.31695 -2.14646 -4.99275 255 0 0
-9.16035 -2.20208 -4.94902 255 0 0
-9.14034 -2.38154 -4.9566 255 0 0
-9.1315 -2.48357 -4.96214 255 0 0
-9.15039 -2.72327 -4.98838 255 0 0
-9.14746 -2.78151 -4.99275 255 0 0
-9.1662 -2.83477 -5.00324 255 0 0
-9.16479 -2.85816 -5.00499 255 0 0
-9.1953 -2.89161 -5.01724 255 0 0
-9.16746 -2.97869 -5.01724 255 0 0
-9.17631 -3.00564 -5.02248 255 0 0
-9.2092 -3.27243 -5.05921 255 0 0
-9.21049 -3.38398 -5.07146 255 0 0
-9.20768 -3.40775 -5.07321 255 0 0
-9.22052 -3.43738 -5.0802 255 0 0
-9.20838 -3.53268 -5.0872 255 0 0
-9.23646 -3.5686 -5.09944 255 0 0
-9.22277 -3.58846 -5.0977 255 0 0
-9.23074 -3.62942 -5.10469 255 0 0
-9.23418 -3.68144 -5.11169 255 0 0
-9.2244 -3.72832 -5.11431 255 0 0
-9.24319 -4.07165 -5.16154 255 0 0
-9.24221 -4.16313 -5.17291 255 0 0
-9.29918 -4.57956 -5.24462 255 0 0
-9.31078 -4.68168 -5.26211 255 0 0
-9.31207 -4.76561 -5.27436 255 0 0
-9.34565 -4.8952 -5.30234 255 0 0
-9.33559 -4.93231 -5.30497 255 0 0
-9.32441 -4.98312 -5.30934 255 0 0
-9.35583 -5.04276 -5.32683 255 0 0
-9.33046 -5.072 -5.32421 255 0 0
-9.33937 -5.1777 -5.34257 255 0 0
-9.38783 -5.26292 -5.36881 255 0 0
-9.33931 -5.38221 -5.37406 255 0 0
-9.4165 -5.63692 -5.43528 255 0 0
-9.40959 -5.72409 -5.44752 255 0 0
-9.4637 -5.84964 -5.4825 255 0 0
-9.1942 -3.58991 -5.17984 255 0 0
-9.54756 -1.82129 -5.13136 255 0 0
-9.46876 -1.87616 -5.10981 255 0 0
-9.34644 -1.93265 -5.0748 255 0 0
-9.26198 -1.99549 -5.05236 255 0 0
-9.08237 -2.33195 -5.02093 255 0 0
-9.0766 -2.37642 -5.02273 255 0 0
-9.07785 -2.46897 -5.03081 255 0 0
-9.1436 -2.54515 -5.05774 255 0 0
-9.33519 -2.64624 -5.12597 255 0 0
-9.32035 -2.67789 -5.12418 255 0 0
-9.38569 -2.73283 -5.14931 255 0 0
-9.39523 -2.75979 -5.1547 255 0 0
-9.48401 -2.87157 -5.19241 255 0 0
-9.24704 -2.88381 -5.12059 255 0 0
-9.1433 -2.97084 -5.09724 255 0 0
-9.15197 -3.03376 -5.10622 255 0 0
-9.16227 -3.07337 -5.1134 255 0 0
-9.17425 -3.23553 -5.13405 255 0 0
-9.17455 -3.28463 -5.13944 255 0 0
-9.18372 -3.34945 -5.14931 255 0 0
-9.19136 -3.48871 -5.16727 255 0 0
-9.18771 -3.53725 -5.17176 255 0 0
-9.19693 -3.62872 -5.18522 255 0 0
-9.20708 -3.70862 -5.19779 255 0 0
-9.21506 -3.86509 -5.21934 255 0 0
-9.22274 -3.93276 -5.23011 255 0 0
-9.23469 -3.98971 -5.24088 255 0 0
-9.25388 -4.23455 -5.27859 255 0 0
-9.25395 -4.27444 -5.28398 255 0 0
-9.25881 -4.33008 -5.29295 255 0 0
-9.27359 -4.37726 -5.30373 255 0 0
-9.2829 -4.4356 -5.3145 255 0 0
-9.28213 -4.47585 -5.31989 255 0 0
-9.29466 -4.57736 -5.33784 255 0 0
-9.30329 -4.62277 -5.34682 255 0 0
-9.32401 -4.78569 -5.37644 255 0 0
-9.321 -4.84013 -5.38363 255 0 0
-9.32595 -4.88488 -5.39171 255 0 0
-9.31435 -4.90698 -5.39171 255 0 0
-9.31556 -4.9642 -5.40068 255 0 0
-9.35351 -5.07017 -5.42762 255 0 0
-9.39011 -5.23498 -5.46353 255 0 0
-9.36518 -5.27944 -5.46353 255 0 0
-9.12777 -3.2313 -5.38818 255 0 0
-9.14045 -3.02993 -5.45962 255 0 0
-9.70668 -1.73265 -5.26728 255 0 0
-9.55326 -1.79892 -5.22124 255 0 0
-9.44967 -1.83746 -5.18993 255 0 0
-9.38311 -1.85919 -5.16967 255 0 0
-9.34597 -1.87487 -5.15862 255 0 0
-9.15706 -2.02975 -5.10797 255 0 0
-9.13624 -2.05926 -5.10337 255 0 0
-9.05659 -2.12043 -5.08219 255 0 0
-9.05556 -2.17689 -5.08618 255 0 0
-9.04441 -2.27655 -5.09047 255 0 0
-9.04966 -2.32356 -5.096 255 0 0
-9.12636 -2.44733 -5.13099 255 0 0
-9.14682 -2.49937 -5.14204 255 0 0
-9.13519 -2.53114 -5.14112 255 0 0
-9.11829 -3.03459 -5.1844 255 0 0
-9.13113 -3.07499 -5.19269 255 0 0
-9.14413 -3.22489 -5.21295 255 0 0
-9.13919 -3.27198 -5.21663 255 0 0
-9.15208 -3.37484 -5.23229 255 0 0
-9.15863 -3.47629 -5.2461 255 0 0
-9.16957 -3.51779 -5.25439 255 0 0
-9.1615 -3.57714 -5.259 255 0 0
-9.1718 -3.69441 -5.27649 255 0 0
-9.18091 -3.87639 -5.30228 255 0 0
-9.19944 -3.97449 -5.32069 255 0 0
-9.20085 -4.02699 -5.32806 255 0 0
-9.20452 -4.0807 -5.33635 255 0 0
-9.22179 -4.18027 -5.35507 255 0 0
-9.22883 -4.23632 -5.3649 255 0 0
-9.23824 -4.37397 -5.387 255 0 0
-9.26404 -4.57592 -5.42383 255 0 0
-9.27755 -4.62371 -5.43488 255 0 0
-9.28967 -4.69869 -5.44962 255 0 0
-9.28279 -4.73676 -5.4533 255 0 0
-9.28566 -4.77991 -5.46067 255 0 0
-9.97423 -1.90269 -5.45862 255 0 0
-9.31345 -1.84539 -5.23396 255 0 0
-9.29595 -1.8763 -5.23018 255 0 0
-9.22865 -2.03415 -5.21885 255 0 0
-9.02184 -2.28226 -5.16977 255 0 0
-9.02168 -2.32778 -5.17354 255 0 0
-9.16063 -2.41002 -5.2264 255 0 0
-9.10437 -2.52262 -5.21791 255 0 0
-9.06601 -2.54673 -5.20753 255 0 0
-9.07767 -2.72507 -5.22829 255 0 0
-9.10934 -2.87646 -5.25378 255 0 0
-9.29866 -3.02132 -5.33024 255 0 0
-9.14609 -3.12839 -5.29248 255 0 0
-9.1398 -3.27219 -5.30664 255 0 0
-9.15276 -3.52381 -5.34062 255 0 0
-9.16527 -3.59113 -5.35289 255 0 0
-9.16086 -3.67739 -5.36233 255 0 0
-9.1845 -3.78842 -5.38404 255 0 0
-9.20566 -4.02909 -5.42275 255 0 0
-9.21201 -4.09709 -5.43407 255 0 0
-9.22321 -4.22051 -5.45484 255 0 0
-9.22541 -4.32781 -5.47089 255 0 0
-9.43754 -1.84673 -5.36497 255 0 0
-9.29863 -1.86537 -5.31856 255 0 0
-9.14184 -1.98094 -5.27311 255 0 0
-9.02774 -2.1702 -5.24894 255 0 0
-9.02273 -2.30524 -5.2586 255 0 0
-9.17243 -2.36667 -5.31469 255 0 0
-9.06795 -2.50094 -5.29148 255 0 0
-9.07797 -2.52688 -5.29728 255 0 0
-9.18004 -2.67295 -5.34563 255 0 0
-9.17544 -2.76627 -5.35337 255 0 0
-9.10194 -2.90976 -5.3437 255 0 0
-9.22808 -3.02259 -5.39784 255 0 0
-9.11156 -3.09246 -5.3669 255 0 0
-9.12142 -3.13202 -5.37464 255 0 0
-9.12795 -3.28015 -5.39398 255 0 0
-9.13272 -3.38 -5.40751 255 0 0
-9.13211 -3.4291 -5.41332 255 0 0
-9.13943 -3.51866 -5.42685 255 0 0
-9.15353 -3.57402 -5.43846 255 0 0
-9.16615 -3.69213 -5.4578 255 0 0
-9.17158 -3.79581 -5.47327 255 0 0
-9.24839 -1.88953 -5.39132 255 0 0
-9.17742 -1.97726 -5.37284 255 0 0
-9.10093 -2.0513 -5.35173 255 0 0
-9.09625 -2.08426 -5.35272 255 0 0
-9.07 -2.11223 -5.34579 255 0 0
-9.07259 -2.18099 -5.35239 255 0 0
-9.06578 -2.24767 -5.35569 255 0 0
-9.08951 -2.3338 -5.37152 255 0 0
-9.089 -2.37968 -5.37548 255 0 0
-9.13157 -2.51849 -5.4032 255 0 0
-9.10728 -2.60498 -5.4032 255 0 0
-9.0964 -2.77777 -5.41706 255 0 0
-9.11656 -3.05804 -5.45467 255 0 0
-9.13539 -3.08847 -5.46457 255 0 0
-9.14519 -3.12807 -5.47249 255 0 0
-9.16942 -2.0439 -5.46358 255 0 0
-9.0088 -2.17694 -5.41699 255 0 0
-9.08281 -2.37802 -5.46155 255 0 0
-9.05837 -2.40609 -5.45548 255 0 0
-9.08423 -2.44757 -5.46864 255 0 0
-9.10256 -2.557 -5.48586 255 0 0
