ply
format ascii 1.0
comment Created by Open3D
element vertex 69
property double x
property double y
property double z
property uchar red
property uchar green
property uchar blue
end_header
-22.6118 -24.7761 -4.37359 255 0 0
-23.6395 -24.1208 -4.67214 255 0 0
-23.2641 -24.4233 -3.82394 255 0 0
-23.6197 -23.6477 -4.64443 255 0 0
-22.6988 -24.7534 -4.09619 255 0 0
-24.0284 -23.8298 -3.82995 255 0 0
-23.0795 -23.6614 -4.063 255 0 0
-22.4996 -24.3038 -4.62042 255 0 0
-23.3605 -24.7586 -4.40872 255 0 0
-22.5245 -23.5349 -4.57747 255 0 0
-23.2986 -24.2284 -3.81762 255 0 0
-22.8255 -23.5123 -4.59271 255 0 0
-22.825 -24.0764 -4.07065 255 0 0
-23.6222 -23.8756 -4.65736 255 0 0
-23.2051 -23.6776 -4.0692 255 0 0
-22.7036 -23.6097 -4.31779 255 0 0
-24.4225 -23.653 -4.40583 255 0 0
-23.6147 -23.9815 -4.66291 255 0 0
-24.2775 -23.7367 -4.11917 255 0 0
-22.7786 -24.2568 -4.07686 255 0 0
-24.2087 -23.7819 -4.11807 255 0 0
-22.7596 -23.5558 -4.31779 255 0 0
-23.6575 -23.9113 -4.3802 255 0 0
-22.3978 -24.7767 -4.64258 255 0 0
-24.0607 -23.749 -4.11005 255 0 0
-23.5913 -23.7316 -4.08853 255 0 0
-22.9224 -23.7243 -4.05898 255 0 0
-23.1193 -24.7368 -3.8309 255 0 0
-23.2654 -24.3089 -3.81952 255 0 0
-22.966 -24.8076 -3.82805 255 0 0
-22.4591 -24.492 -4.62919 255 0 0
-23.707 -23.6228 -4.36821 255 0 0
-23.1659 -24.436 -3.82078 255 0 0
-23.8779 -23.9063 -3.82711 255 0 0
-23.8624 -24.0043 -3.83027 255 0 0
-23.7808 -24.0358 -3.82837 255 0 0
-23.654 -24.0213 -3.823 255 0 0
-23.5969 -24.0774 -3.823 255 0 0
-23.4051 -24.1093 -3.81699 255 0 0
-23.0798 -24.4611 -3.81857 255 0 0
-24.0043 -23.8059 -4.11005 255 0 0
-23.8816 -23.7968 -4.10421 255 0 0
-23.6929 -23.721 -4.09254 255 0 0
-23.4569 -23.7085 -4.0816 255 0 0
-23.3473 -23.7099 -4.07686 255 0 0
-22.9867 -23.6783 -4.05971 255 0 0
-22.8661 -23.7786 -4.05898 255 0 0
-22.842 -23.8665 -4.0619 255 0 0
-22.8216 -23.9587 -4.06518 255 0 0
-22.7879 -24.1517 -4.07248 255 0 0
-22.7609 -24.3534 -4.0805 255 0 0
-22.7509 -24.4586 -4.08488 255 0 0
-22.7405 -24.564 -4.08926 255 0 0
-22.7257 -24.6651 -4.09327 255 0 0
-22.4565 -24.7235 -4.64258 255 0 0
-22.5836 -24.6278 -4.3645 255 0 0
-22.5171 -24.4386 -4.62919 255 0 0
-24.3998 -23.7434 -4.40913 255 0 0
-23.6344 -23.6625 -4.36656 255 0 0
-24.2 -24.3439 -4.42897 255 0 0
-23.6376 -24.0048 -4.38392 255 0 0
-22.9485 -23.527 -4.32564 255 0 0
-22.8642 -23.5521 -4.32275 255 0 0
-22.4351 -24.7 -4.36119 255 0 0
-22.4364 -24.5839 -4.63335 255 0 0
-24.5347 -23.6492 -4.69616 255 0 0
-23.7129 -23.6287 -4.64859 255 0 0
-22.717 -23.5117 -4.5867 255 0 0
-22.6369 -23.5403 -4.58393 255 0 0
