ply
format ascii 1.0
comment Created by Open3D
element vertex 96
property double x
property double y
property double z
property uchar red
property uchar green
property uchar blue
end_header
28.8857 -0.924909 -5.25631 255 0 0
31.1338 0.0369093 -5.24613 255 0 0
30.2538 -0.609807 -3.88865 255 0 0
29.0063 -1.13536 -5.27073 255 0 0
30.0411 -0.463017 -4.12602 255 0 0
29.2059 -0.588685 -4.55571 255 0 0
30.8139 -0.328783 -4.18058 255 0 0
31.3991 -0.111672 -4.74708 255 0 0
29.2646 -0.381649 -5.29761 255 0 0
30.0704 -0.748776 -4.1285 255 0 0
29.0793 -0.655112 -5.27728 255 0 0
32.1501 0.190573 -4.54375 255 0 0
30.3496 -0.971783 -3.89521 255 0 0
29.3371 -1.84573 -5.31203 255 0 0
30.3531 -1.04394 -3.89558 255 0 0
30.5274 -0.180954 -4.41537 255 0 0
29.335 -0.800065 -5.05972 255 0 0
30.0385 -0.605467 -4.12602 255 0 0
29.8133 -0.388804 -4.35902 255 0 0
29.0554 -1.06829 -5.27597 255 0 0
30.3693 -1.62168 -4.15206 255 0 0
31.0365 -0.257564 -4.19628 255 0 0
30.1733 -1.32436 -4.13718 255 0 0
30.237 -0.824667 -3.88792 255 0 0
29.0997 -1.62308 -5.28384 255 0 0
30.2053 -1.11057 -4.13883 255 0 0
30.2076 -0.322314 -4.64297 255 0 0
31.2417 -0.0370373 -4.7333 255 0 0
31.1014 -0.0368709 -4.98168 255 0 0
30.7455 -1.34948 -4.69247 255 0 0
30.0568 -0.819752 -4.12767 255 0 0
29.1797 -0.588156 -5.28843 255 0 0
30.5325 -1.41267 -4.93027 255 0 0
30.7747 -1.20458 -4.95262 255 0 0
30.6245 -0.47201 -3.91163 255 0 0
30.7486 -1.27658 -4.69247 255 0 0
30.8476 -0.402293 -3.92549 255 0 0
30.1542 -1.6819 -4.3895 255 0 0
30.4067 -0.252338 -4.91518 255 0 0
29.9962 -0.675766 -4.12313 255 0 0
31.0245 -0.257464 -3.93643 255 0 0
29.7708 -1.44817 -5.10769 255 0 0
29.4414 -0.453775 -5.07004 255 0 0
29.0759 -0.792999 -5.27728 255 0 0
29.8648 -0.4603 -4.36318 255 0 0
30.4728 -1.40991 -3.90397 255 0 0
30.4761 -1.33765 -3.90397 255 0 0
30.3594 -1.18832 -3.89631 255 0 0
30.2681 -0.7537 -3.88974 255 0 0
31.6211 -0.187437 -3.97363 255 0 0
30.2681 -1.54431 -4.14462 255 0 0
30.2484 -1.4714 -4.14297 255 0 0
30.1817 -1.39644 -4.13801 255 0 0
30.2289 -1.255 -4.1409 255 0 0
30.1384 -1.17967 -4.13429 255 0 0
30.1903 -1.03834 -4.13759 255 0 0
30.0993 -0.963768 -4.13098 255 0 0
31.2354 0.0370298 -4.99453 255 0 0
30.1132 -0.892746 -4.13181 255 0 0
30.0224 -0.533932 -4.12478 255 0 0
31.3743 0.0371944 -4.48233 255 0 0
30.0802 -1.74932 -4.38396 255 0 0
30.3693 -0.252027 -4.4029 255 0 0
31.2867 -0.0370906 -4.4754 255 0 0
29.0291 -1.41209 -5.27466 255 0 0
29.0195 -0.722609 -5.27073 255 0 0
30.0377 -1.81832 -4.63277 255 0 0
29.0727 -0.792913 -4.54448 255 0 0
29.0178 -0.653727 -4.53938 255 0 0
29.4464 -0.523688 -4.57663 255 0 0
29.5992 -0.456206 -4.5899 255 0 0
30.4124 -0.252385 -4.66083 255 0 0
32.1267 0.190434 -5.08003 255 0 0
29.8184 -1.87602 -4.86434 255 0 0
29.9741 -1.81447 -4.87886 255 0 0
29.5475 -0.45541 -4.83304 255 0 0
30.3665 -0.18 -4.91127 255 0 0
29.1729 -1.76597 -5.29302 255 0 0
29.7078 -1.93978 -5.10405 255 0 0
30.5104 -1.33916 -5.1842 255 0 0
28.6631 -0.645734 -4.98928 255 0 0
29.454 -0.384119 -5.07126 255 0 0
30.3179 -0.179713 -5.16112 255 0 0
30.3998 -0.108118 -5.16962 255 0 0
29.039 -0.860901 -5.27335 255 0 0
29.1477 -1.48714 -5.28843 255 0 0
29.5823 -1.93159 -5.34022 255 0 0
29.1712 -1.69646 -5.29236 255 0 0
29.1092 -1.55439 -5.2845 255 0 0
29.0556 -1.34434 -5.27728 255 0 0
29.0471 -1.27493 -5.27597 255 0 0
28.9861 -1.2034 -5.26876 255 0 0
28.9765 -0.996595 -5.26679 255 0 0
29.1926 -0.519176 -5.28974 255 0 0
29.1822 -0.449779 -5.28843 255 0 0
29.5279 -0.245044 -5.32711 255 0 0
