ply
format ascii 1.0
comment Created by Open3D
element vertex 1256
property double x
property double y
property double z
property uchar red
property uchar green
property uchar blue
end_header
6.91362 -3.737 -4.03595 255 0 0
6.02266 -4.07739 -4.34313 255 0 0
5.80161 -2.53102 -4.15597 255 0 0
5.46884 -3.28259 -4.29157 255 0 0
6.08409 -3.8712 -4.25724 255 0 0
6.76702 -2.77249 -3.9595 255 0 0
4.53021 -2.82995 -4.35316 255 0 0
8.58653 -2.41204 -4.71057 255 0 0
6.02334 -2.5096 -4.16223 255 0 0
6.40547 -3.37453 -4.00459 255 0 0
5.31602 -2.3267 -4.70594 255 0 0
7.16627 -2.42273 -4.4371 255 0 0
6.33364 -3.31752 -4.04377 255 0 0
6.37981 -2.60502 -4.03191 255 0 0
7.99324 -2.28633 -5.14389 255 0 0
5.23627 -3.54497 -4.33133 255 0 0
6.79739 -2.58926 -4.01396 255 0 0
4.65734 -3.43464 -4.35484 255 0 0
4.89915 -2.36237 -4.48141 255 0 0
5.89214 -3.39562 -4.12868 255 0 0
7.06648 -2.37036 -4.4698 255 0 0
7.78208 -3.13463 -4.09919 255 0 0
5.97067 -2.60478 -4.15854 255 0 0
7.51894 -2.30581 -4.75193 255 0 0
5.24817 -3.87997 -4.40628 255 0 0
7.78081 -2.46709 -4.48072 255 0 0
6.32537 -2.70613 -4.0286 255 0 0
6.74144 -2.79006 -3.95495 255 0 0
8.2997 -2.41662 -4.62714 255 0 0
7.42162 -2.60752 -4.17802 255 0 0
6.77632 -3.75676 -4.56741 255 0 0
7.94401 -2.29264 -5.04836 255 0 0
4.92852 -2.4855 -4.29982 255 0 0
7.2006 -2.60685 -4.05194 255 0 0
7.67181 -2.5229 -4.30849 255 0 0
5.12666 -3.07721 -4.2611 255 0 0
5.76465 -2.48242 -4.25494 255 0 0
6.8411 -3.33886 -3.97208 255 0 0
6.79652 -3.76796 -4.01319 255 0 0
4.78916 -4.00034 -4.78448 255 0 0
5.67341 -2.53941 -4.23316 255 0 0
6.36322 -2.61587 -4.0286 255 0 0
7.94477 -2.58141 -4.23835 255 0 0
5.50405 -3.20683 -4.2886 255 0 0
6.40022 -3.16135 -3.97646 255 0 0
8.15184 -2.45767 -4.5105 255 0 0
5.64322 -3.61895 -4.34581 255 0 0
5.45465 -2.72656 -4.24829 255 0 0
6.0606 -2.27575 -4.20506 255 0 0
6.57081 -2.34366 -4.50637 255 0 0
7.44772 -2.3033 -4.87416 255 0 0
7.13187 -2.44887 -4.42932 255 0 0
5.07461 -3.27985 -4.28491 255 0 0
7.96127 -2.37964 -4.60095 255 0 0
4.99294 -2.36398 -4.57602 255 0 0
4.59325 -3.6023 -4.43213 255 0 0
8.14361 -2.49738 -4.43482 255 0 0
5.05828 -3.32913 -4.28992 255 0 0
6.42014 -3.72021 -4.12101 255 0 0
7.17477 -2.33122 -4.63976 255 0 0
7.51034 -2.57883 -4.12772 255 0 0
4.932 -2.37822 -4.44328 255 0 0
6.27504 -3.666 -4.14287 255 0 0
5.92017 -3.77677 -4.26233 255 0 0
7.3156 -3.37911 -4.01628 255 0 0
6.76491 -2.32287 -4.56972 255 0 0
7.17417 -2.34042 -4.57036 255 0 0
5.90543 -2.55967 -4.13276 255 0 0
7.98122 -2.26243 -5.05848 255 0 0
5.02472 -2.4266 -4.31127 255 0 0
6.27777 -2.3743 -4.41134 255 0 0
6.60108 -3.17341 -3.96253 255 0 0
7.00474 -2.34965 -4.51656 255 0 0
6.91187 -2.3185 -4.61922 255 0 0
8.17539 -2.25477 -5.04684 255 0 0
4.58659 -3.77608 -4.59204 255 0 0
5.87191 -2.39764 -4.2787 255 0 0
4.90339 -3.03086 -4.29009 255 0 0
5.57574 -2.98827 -4.27276 255 0 0
7.5286 -2.28926 -4.82709 255 0 0
5.92754 -2.60271 -4.20506 255 0 0
5.02264 -2.93434 -4.25515 255 0 0
6.45507 -2.59122 -4.05096 255 0 0
7.66542 -2.41051 -4.51524 255 0 0
5.30906 -2.46757 -4.67098 255 0 0
6.9223 -3.63634 -4.02567 255 0 0
6.10667 -3.87541 -4.19808 255 0 0
7.4024 -2.30853 -4.71325 255 0 0
7.37009 -2.29846 -4.77364 255 0 0
4.58089 -3.5057 -4.68985 255 0 0
7.15721 -2.61035 -4.04134 255 0 0
5.62055 -2.92705 -4.27672 255 0 0
5.03972 -2.88848 -4.25198 255 0 0
8.02358 -2.2539 -5.07266 255 0 0
4.70375 -3.07982 -4.28789 255 0 0
7.31915 -3.32823 -4.01178 255 0 0
5.35372 -2.56594 -4.24504 255 0 0
6.87356 -3.18483 -3.96253 255 0 0
5.85662 -3.83467 -4.38441 255 0 0
5.98811 -3.80017 -4.35009 255 0 0
6.41235 -3.3976 -4.07434 255 0 0
5.15095 -2.55949 -4.28504 255 0 0
5.8021 -3.74028 -4.28747 255 0 0
8.69052 -2.57518 -4.59092 255 0 0
7.64409 -2.54397 -4.30286 255 0 0
6.41307 -2.33033 -4.51565 255 0 0
5.07192 -2.83151 -4.25198 255 0 0
4.70348 -3.85364 -4.53347 255 0 0
5.24179 -3.57596 -4.33944 255 0 0
7.62902 -3.1786 -4.06792 255 0 0
7.18237 -2.54261 -4.31556 255 0 0
6.89368 -3.92938 -4.48375 255 0 0
4.63518 -3.68873 -4.46816 255 0 0
6.81569 -2.52248 -4.34134 255 0 0
4.67702 -2.47813 -4.41482 255 0 0
4.63319 -2.78847 -4.306 255 0 0
5.58492 -3.63788 -4.33227 255 0 0
6.95291 -2.35062 -4.56821 255 0 0
5.23424 -3.72447 -4.36847 255 0 0
7.93776 -2.43425 -4.52328 255 0 0
4.69172 -2.44334 -4.41336 255 0 0
6.38022 -3.15147 -4.03411 255 0 0
6.89961 -3.78245 -4.32006 255 0 0
5.03175 -2.36776 -4.48146 255 0 0
5.3289 -3.05422 -4.26449 255 0 0
5.88749 -2.3796 -4.22204 255 0 0
6.23439 -3.85356 -4.16108 255 0 0
5.90705 -2.33067 -4.22204 255 0 0
5.63245 -3.71658 -4.36128 255 0 0
5.24785 -3.41832 -4.30905 255 0 0
6.44109 -2.98444 -3.96553 255 0 0
6.45043 -2.35258 -4.46678 255 0 0
4.6825 -2.72817 -4.41823 255 0 0
6.47333 -3.73056 -4.06865 255 0 0
4.82605 -3.55023 -4.38016 255 0 0
5.66132 -2.56629 -4.23316 255 0 0
5.87682 -2.63045 -4.25298 255 0 0
5.93119 -2.49599 -4.19184 255 0 0
6.63991 -3.82656 -4.05346 255 0 0
4.70224 -3.89003 -4.84575 255 0 0
4.56268 -2.97203 -4.32208 255 0 0
7.17612 -2.75303 -3.99117 255 0 0
4.85851 -2.55956 -4.45044 255 0 0
8.17139 -2.35826 -4.66216 255 0 0
7.87429 -3.73964 -4.64928 255 0 0
7.97288 -2.30097 -4.74975 255 0 0
7.81429 -2.58005 -4.20501 255 0 0
6.26969 -2.57742 -4.06017 255 0 0
6.39774 -3.21694 -3.98271 255 0 0
5.00401 -2.97138 -4.25621 255 0 0
5.72361 -3.53784 -4.2919 255 0 0
5.31669 -2.47877 -4.2742 255 0 0
5.04349 -3.52012 -4.32582 255 0 0
6.389 -2.89615 -4.00515 255 0 0
7.47502 -2.41897 -4.45927 255 0 0
5.07031 -2.66347 -4.27532 255 0 0
6.33209 -3.10904 -4.01641 255 0 0
7.44602 -2.51733 -4.38878 255 0 0
6.8592 -3.32758 -3.97501 255 0 0
4.57796 -2.94348 -4.32093 255 0 0
7.86436 -2.39136 -4.57296 255 0 0
4.67087 -3.23542 -4.31217 255 0 0
5.23532 -3.68177 -4.35969 255 0 0
4.66312 -3.58621 -4.39383 255 0 0
6.7324 -2.60113 -3.99834 255 0 0
4.96973 -2.4401 -4.30677 255 0 0
5.9279 -2.34701 -4.29058 255 0 0
5.94873 -3.81487 -4.2767 255 0 0
4.99672 -2.49764 -4.27318 255 0 0
6.77228 -2.36136 -4.44293 255 0 0
4.60455 -3.13326 -4.54096 255 0 0
5.96127 -2.68524 -4.28779 255 0 0
5.67063 -3.87839 -4.34004 255 0 0
5.93464 -2.43968 -4.24525 255 0 0
4.5711 -2.77083 -4.38522 255 0 0
4.72854 -2.58252 -4.29758 255 0 0
5.6123 -3.02501 -4.29058 255 0 0
6.20935 -2.61305 -4.0474 255 0 0
4.7211 -2.83377 -4.29419 255 0 0
6.43485 -3.77986 -4.0663 255 0 0
4.58151 -3.40393 -4.37808 255 0 0
5.13612 -4.32126 -5.06227 255 0 0
5.54821 -3.17994 -4.29751 255 0 0
6.93863 -2.40093 -4.43297 255 0 0
7.55004 -2.67277 -4.07486 255 0 0
7.12332 -3.56064 -3.9926 255 0 0
4.7627 -2.55979 -4.35906 255 0 0
7.22217 -2.57596 -4.19182 255 0 0
5.5328 -2.93998 -4.25098 255 0 0
5.33962 -2.58258 -4.24297 255 0 0
4.59206 -3.22941 -4.33905 255 0 0
7.42817 -2.29726 -4.79344 255 0 0
4.5976 -3.38217 -4.37808 255 0 0
6.39868 -3.42934 -4.01006 255 0 0
5.55976 -2.72983 -4.22525 255 0 0
4.65946 -2.46882 -4.45889 255 0 0
8.20381 -2.32553 -4.74712 255 0 0
4.88061 -3.68033 -4.3698 255 0 0
5.66093 -2.82969 -4.27375 255 0 0
6.57978 -3.33785 -3.97693 255 0 0
5.20878 -3.82228 -4.38197 255 0 0
4.83502 -3.92324 -4.59427 255 0 0
5.0351 -3.68566 -4.35964 255 0 0
5.24415 -3.48721 -4.32188 255 0 0
4.7495 -2.7672 -4.29025 255 0 0
4.58641 -3.42449 -4.38484 255 0 0
4.56431 -3.17763 -4.53731 255 0 0
4.87534 -2.62777 -4.25376 255 0 0
4.56504 -3.59768 -4.5936 255 0 0
5.88807 -2.37983 -4.28167 255 0 0
5.43593 -3.28918 -4.28266 255 0 0
6.31773 -2.57092 -4.07294 255 0 0
6.91482 -2.35603 -4.48824 255 0 0
7.86662 -2.29052 -5.09833 255 0 0
7.25405 -2.30007 -4.73404 255 0 0
8.44579 -2.32935 -4.82253 255 0 0
5.81287 -3.83563 -4.37213 255 0 0
5.60882 -3.16187 -4.25298 255 0 0
7.68142 -3.57021 -4.80684 255 0 0
7.98064 -2.50964 -4.39137 255 0 0
6.88785 -3.75479 -4.03228 255 0 0
7.60444 -2.49078 -4.50474 255 0 0
5.41981 -2.83886 -4.25572 255 0 0
8.19625 -2.32339 -5.0607 255 0 0
6.8964 -3.80198 -4.53705 255 0 0
6.14388 -2.29042 -4.23337 255 0 0
5.48243 -3.22917 -4.28596 255 0 0
6.42956 -3.68506 -4.11833 255 0 0
4.97663 -4.28883 -5.06351 255 0 0
4.59188 -2.70462 -4.32511 255 0 0
6.7973 -2.58923 -4.07917 255 0 0
6.45701 -2.93622 -3.96396 255 0 0
6.28299 -3.74093 -4.15611 255 0 0
6.81734 -2.32282 -4.58754 255 0 0
8.12664 -2.42907 -4.57777 255 0 0
7.34392 -2.32856 -4.62417 255 0 0
4.72037 -3.78407 -4.46188 255 0 0
6.41216 -3.57477 -4.09848 255 0 0
5.94124 -2.46714 -4.25105 255 0 0
5.02445 -3.78879 -4.37966 255 0 0
6.40301 -3.51021 -4.02177 255 0 0
6.45223 -3.53719 -4.10331 255 0 0
7.25945 -2.32074 -4.66683 255 0 0
5.62892 -2.81365 -4.26088 255 0 0
7.84989 -2.30586 -4.71107 255 0 0
4.92983 -2.34842 -4.54633 255 0 0
4.69192 -2.67438 -4.40988 255 0 0
6.52904 -2.73848 -3.96032 255 0 0
4.67559 -2.66997 -4.29605 255 0 0
4.91606 -3.27746 -4.2906 255 0 0
6.87695 -3.83389 -4.46451 255 0 0
6.97172 -2.46804 -4.38263 255 0 0
6.5815 -3.37805 -3.98223 255 0 0
4.8221 -2.77895 -4.26479 255 0 0
6.49226 -2.35041 -4.48063 255 0 0
8.05289 -2.36548 -4.62718 255 0 0
8.09684 -2.5251 -4.34832 255 0 0
7.80162 -3.20718 -4.11056 255 0 0
5.11129 -2.79419 -4.25833 255 0 0
4.68716 -2.88186 -4.29251 255 0 0
8.26276 -2.26834 -5.2402 255 0 0
5.40405 -3.73379 -4.35987 255 0 0
5.20778 -2.4205 -4.56258 255 0 0
6.60303 -3.11672 -3.95647 255 0 0
4.86874 -2.37148 -4.45258 255 0 0
4.69775 -3.73853 -4.44312 255 0 0
5.82389 -3.79354 -4.36741 255 0 0
7.36855 -3.26673 -4.01676 255 0 0
5.38603 -3.42705 -4.29355 255 0 0
4.59826 -3.39948 -4.38258 255 0 0
6.09689 -3.84896 -4.19127 255 0 0
6.88118 -3.87913 -4.40069 255 0 0
4.55622 -2.76427 -4.32511 255 0 0
6.41938 -3.539 -4.02959 255 0 0
5.98377 -3.81735 -4.35193 255 0 0
4.80598 -2.8154 -4.26656 255 0 0
6.677 -2.38154 -4.41461 255 0 0
4.82234 -3.38282 -4.34017 255 0 0
7.77117 -2.525 -4.26239 255 0 0
5.39267 -2.38312 -4.74924 255 0 0
8.26292 -2.36347 -4.69015 255 0 0
8.06721 -2.43216 -4.56074 255 0 0
5.63144 -3.89089 -4.39512 255 0 0
6.74051 -2.36822 -4.43349 255 0 0
6.30967 -3.2291 -4.02607 255 0 0
7.16916 -2.55708 -4.17573 255 0 0
6.64841 -2.56868 -4.03733 255 0 0
8.22083 -2.26731 -4.98399 255 0 0
5.38524 -3.38188 -4.28464 255 0 0
7.0261 -2.57195 -4.13872 255 0 0
5.5144 -3.17795 -4.28662 255 0 0
6.38441 -3.4022 -4.06791 255 0 0
7.37524 -2.552 -4.16083 255 0 0
7.31678 -3.74449 -4.05655 255 0 0
6.33064 -3.78966 -4.24235 255 0 0
6.70291 -2.30158 -4.61288 255 0 0
8.27934 -2.49611 -4.47183 255 0 0
6.68705 -2.31387 -4.60882 255 0 0
4.62876 -3.20623 -4.56891 255 0 0
6.82838 -3.80682 -4.30515 255 0 0
8.03178 -2.29735 -5.00131 255 0 0
5.39083 -3.82947 -4.37571 255 0 0
4.94603 -3.13884 -4.27103 255 0 0
4.58271 -2.59058 -4.45477 255 0 0
7.28218 -2.73446 -4.01515 255 0 0
6.42079 -2.98431 -4.02392 255 0 0
6.71077 -2.35777 -4.48892 255 0 0
6.43327 -2.75229 -4.12657 255 0 0
7.70313 -2.54335 -4.46539 255 0 0
4.68083 -3.76146 -4.50194 255 0 0
4.98986 -2.99508 -4.25621 255 0 0
6.03608 -2.58236 -4.1151 255 0 0
7.37003 -3.09122 -3.9997 255 0 0
4.54368 -3.04477 -4.33241 255 0 0
5.04887 -3.55064 -4.3341 255 0 0
6.76123 -2.52056 -4.19298 255 0 0
6.66837 -2.59458 -3.98115 255 0 0
4.79562 -3.97688 -4.84232 255 0 0
6.17385 -3.57748 -4.16857 255 0 0
5.33574 -3.09184 -4.27361 255 0 0
6.59015 -3.53196 -4.00345 255 0 0
8.31562 -2.31468 -4.86025 255 0 0
5.17506 -2.38294 -4.59929 255 0 0
7.28746 -2.59928 -4.07316 255 0 0
7.75173 -2.53903 -4.47902 255 0 0
5.06356 -2.42686 -4.28495 255 0 0
4.9689 -3.9351 -4.45728 255 0 0
5.05337 -2.86456 -4.25198 255 0 0
4.92723 -2.43383 -4.39769 255 0 0
6.8086 -3.85952 -4.37856 255 0 0
4.99431 -2.83108 -4.28072 255 0 0
6.30918 -2.36909 -4.42124 255 0 0
8.37747 -2.26782 -5.11812 255 0 0
5.77239 -3.87807 -4.36867 255 0 0
6.08994 -3.8043 -4.24762 255 0 0
4.61792 -2.72733 -4.39318 255 0 0
6.78045 -2.47294 -4.32518 255 0 0
4.72236 -3.81329 -4.52896 255 0 0
4.96059 -2.37756 -4.40003 255 0 0
4.60908 -3.18453 -4.33417 255 0 0
6.41536 -3.24487 -4.05503 255 0 0
6.8278 -2.58232 -4.21851 255 0 0
7.39701 -2.32611 -4.64116 255 0 0
5.13364 -3.92872 -4.44456 255 0 0
7.2878 -2.38707 -4.47061 255 0 0
4.59085 -2.8982 -4.31519 255 0 0
7.15915 -2.3074 -4.70237 255 0 0
7.85653 -3.208 -4.12335 255 0 0
4.8237 -3.5839 -4.38737 255 0 0
6.99542 -2.60787 -4.06708 255 0 0
4.8546 -3.84459 -4.46015 255 0 0
7.62964 -2.57941 -4.15803 255 0 0
7.78967 -2.28816 -4.84088 255 0 0
7.6108 -2.65374 -4.08808 255 0 0
4.79587 -2.48314 -4.40988 255 0 0
5.5544 -3.06214 -4.2787 255 0 0
5.77554 -2.63459 -4.28068 255 0 0
5.04995 -3.46266 -4.31546 255 0 0
7.64592 -2.54458 -4.23114 255 0 0
4.78327 -2.43363 -4.3415 255 0 0
6.26594 -2.71592 -4.07549 255 0 0
6.88584 -2.64166 -3.97617 255 0 0
8.29264 -2.45728 -4.55024 255 0 0
6.42656 -3.04274 -4.0325 255 0 0
5.84974 -3.83017 -4.31693 255 0 0
6.89618 -2.40456 -4.42007 255 0 0
4.81643 -2.49379 -4.31289 255 0 0
8.13556 -2.26456 -4.95498 255 0 0
5.8307 -2.47814 -4.21688 255 0 0
7.23957 -3.68334 -4.03239 255 0 0
6.879 -2.45359 -4.2861 255 0 0
6.92164 -3.0392 -3.95837 255 0 0
5.69319 -2.74526 -4.27078 255 0 0
4.84943 -3.79395 -4.4461 255 0 0
4.89959 -3.46305 -4.32606 255 0 0
6.87076 -3.52651 -4.00071 255 0 0
7.10391 -2.59091 -4.09365 255 0 0
5.86631 -2.46869 -4.28662 255 0 0
6.60378 -2.60557 -4.02929 255 0 0
7.69675 -2.58178 -4.32056 255 0 0
5.10712 -3.87016 -4.42316 255 0 0
4.6138 -3.41945 -4.56258 255 0 0
4.60224 -2.87498 -4.31404 255 0 0
5.2826 -2.72723 -4.24815 255 0 0
7.97337 -2.30111 -4.98151 255 0 0
5.5664 -3.08599 -4.28662 255 0 0
5.569 -3.2094 -4.24911 255 0 0
4.77644 -2.39461 -4.43767 255 0 0
4.82716 -3.89792 -4.52478 255 0 0
5.2634 -3.32279 -4.29487 255 0 0
7.48738 -2.31557 -4.66948 255 0 0
6.92108 -2.52421 -4.23895 255 0 0
4.58806 -3.27559 -4.3488 255 0 0
6.89914 -3.78219 -4.46276 255 0 0
4.75929 -2.69041 -4.27787 255 0 0
6.72895 -3.79332 -4.48857 255 0 0
6.85476 -3.4264 -3.98529 255 0 0
4.71728 -3.0357 -4.28274 255 0 0
4.92675 -2.35411 -4.49114 255 0 0
5.98314 -2.44305 -4.20128 255 0 0
6.41207 -2.77927 -3.99764 255 0 0
6.18982 -3.80575 -4.2083 255 0 0
6.19076 -2.54497 -4.1564 255 0 0
4.96474 -3.08507 -4.26609 255 0 0
7.91938 -2.30588 -4.73317 255 0 0
5.24721 -2.8122 -4.25126 255 0 0
7.29326 -2.3125 -4.89329 255 0 0
5.02183 -2.34856 -4.41877 255 0 0
4.59149 -3.53112 -4.41336 255 0 0
4.62039 -2.59021 -4.4166 255 0 0
6.13296 -3.85142 -4.26686 255 0 0
4.65791 -2.61128 -4.32979 255 0 0
5.96823 -3.9483 -4.30543 255 0 0
5.36868 -2.98746 -4.26517 255 0 0
7.12366 -2.83023 -3.98578 255 0 0
4.91009 -3.98415 -4.51204 255 0 0
4.73734 -2.7451 -4.28125 255 0 0
4.87972 -3.93084 -4.48934 255 0 0
4.73386 -2.99633 -4.2798 255 0 0
5.0159 -3.76372 -4.37138 255 0 0
4.59761 -2.91773 -4.32208 255 0 0
4.92082 -2.43061 -4.34045 255 0 0
5.57416 -2.52676 -4.25639 255 0 0
5.21945 -2.52445 -4.24775 255 0 0
4.53519 -2.78842 -4.32276 255 0 0
5.71894 -3.59142 -4.23774 255 0 0
5.86442 -3.56748 -4.27457 255 0 0
6.37188 -3.61196 -4.09366 255 0 0
6.05293 -3.82121 -4.24063 255 0 0
6.25971 -2.55598 -4.11644 255 0 0
8.05743 -2.28404 -4.8526 255 0 0
6.43006 -2.87808 -4.01373 255 0 0
7.51084 -2.56906 -4.26907 255 0 0
6.42053 -3.06789 -3.97021 255 0 0
5.02993 -2.4549 -4.27759 255 0 0
5.78586 -2.72262 -4.23751 255 0 0
7.85762 -2.33851 -4.64119 255 0 0
5.04046 -3.63481 -4.34998 255 0 0
7.18275 -2.81434 -3.99851 255 0 0
6.24162 -3.25049 -4.01158 255 0 0
7.56566 -2.28095 -4.83897 255 0 0
4.63036 -3.3058 -4.53872 255 0 0
5.66524 -2.50357 -4.22525 255 0 0
8.18609 -2.42571 -4.59479 255 0 0
7.95453 -2.27526 -4.89503 255 0 0
7.20659 -2.78434 -4.00144 255 0 0
7.05387 -2.31044 -4.66673 255 0 0
6.14224 -3.65713 -4.17254 255 0 0
6.39974 -3.46905 -4.01552 255 0 0
6.01162 -3.86525 -4.23713 255 0 0
7.60109 -2.4101 -4.496 255 0 0
6.42932 -2.36216 -4.46084 255 0 0
7.41769 -2.33261 -4.57662 255 0 0
6.37527 -3.18669 -4.03733 255 0 0
4.84127 -2.699 -4.25552 255 0 0
5.77151 -3.64354 -4.26168 255 0 0
5.58072 -3.9346 -4.38932 255 0 0
5.66994 -3.78005 -4.38449 255 0 0
7.74616 -2.3956 -4.53798 255 0 0
4.55552 -2.78606 -4.32979 255 0 0
6.59485 -3.19934 -3.96405 255 0 0
4.92051 -3.78414 -4.40648 255 0 0
5.36794 -3.87094 -4.37769 255 0 0
5.07204 -2.69513 -4.2818 255 0 0
6.84662 -3.44264 -3.98529 255 0 0
5.36388 -2.52403 -4.24173 255 0 0
4.66548 -3.28104 -4.321 255 0 0
7.83332 -2.30099 -4.78086 255 0 0
4.76112 -2.73631 -4.288 255 0 0
6.86611 -2.44899 -4.34852 255 0 0
6.65712 -2.60839 -4.04377 255 0 0
7.71611 -2.30636 -4.7431 255 0 0
7.2715 -2.55478 -4.20309 255 0 0
4.67 -3.33409 -4.33498 255 0 0
6.94167 -2.60659 -4.05302 255 0 0
4.91867 -2.98418 -4.28558 255 0 0
5.56106 -3.60359 -4.31873 255 0 0
4.53175 -2.64031 -4.4457 255 0 0
4.79618 -2.49773 -4.306 255 0 0
6.84327 -2.40432 -4.4035 255 0 0
5.2553 -2.77656 -4.24763 255 0 0
6.38137 -3.73828 -4.11404 255 0 0
7.47853 -2.50858 -4.39729 255 0 0
7.45355 -2.36332 -4.51909 255 0 0
6.41847 -3.0203 -4.02768 255 0 0
4.93431 -2.93792 -4.28144 255 0 0
5.19608 -2.44509 -4.61995 255 0 0
5.72073 -3.86307 -4.41543 255 0 0
5.00601 -4.26273 -5.06599 255 0 0
7.54212 -2.4111 -4.47851 255 0 0
6.7756 -2.52592 -4.39613 255 0 0
6.16835 -2.74341 -4.29945 255 0 0
5.99969 -3.80752 -4.28927 255 0 0
7.43954 -2.32012 -4.65437 255 0 0
7.2064 -2.58964 -4.12021 255 0 0
4.95496 -3.89547 -4.44352 255 0 0
6.39622 -3.428 -4.00927 255 0 0
5.03383 -2.4716 -4.28201 255 0 0
6.53819 -2.32329 -4.55819 255 0 0
4.85145 -3.22607 -4.31459 255 0 0
5.17082 -2.57701 -4.23981 255 0 0
4.77785 -2.50261 -4.3532 255 0 0
4.91167 -3.33373 -4.30136 255 0 0
5.30897 -2.66947 -4.24712 255 0 0
6.8125 -2.46634 -4.33415 255 0 0
6.61898 -2.32552 -4.58654 255 0 0
5.41708 -3.33064 -4.28464 255 0 0
8.36614 -2.50066 -4.49597 255 0 0
7.68871 -2.29817 -4.80801 255 0 0
4.82624 -2.57187 -4.38598 255 0 0
7.30087 -2.52627 -4.34791 255 0 0
4.85646 -2.58059 -4.29138 255 0 0
5.95093 -3.85623 -4.21964 255 0 0
7.22049 -2.36502 -4.51769 255 0 0
7.13246 -2.33619 -4.62622 255 0 0
4.62646 -3.23721 -4.51964 255 0 0
6.08998 -2.57133 -4.06921 255 0 0
5.67556 -2.90457 -4.29058 255 0 0
4.78382 -2.65213 -4.27899 255 0 0
6.82156 -2.68218 -3.96405 255 0 0
7.54807 -2.27564 -4.90657 255 0 0
4.68286 -3.83674 -4.58162 255 0 0
7.25783 -2.53066 -4.336 255 0 0
6.80929 -2.35617 -4.45426 255 0 0
7.75345 -2.29751 -4.75443 255 0 0
5.14522 -2.3766 -4.64284 255 0 0
6.80611 -2.40941 -4.39245 255 0 0
4.72981 -2.42763 -4.42552 255 0 0
7.72099 -2.34776 -4.59989 255 0 0
6.70353 -2.3731 -4.42216 255 0 0
6.01907 -2.52459 -4.28392 255 0 0
7.99711 -2.43172 -4.54031 255 0 0
7.24311 -2.33446 -4.59207 255 0 0
7.47213 -2.58553 -4.11863 255 0 0
6.21033 -2.36564 -4.38759 255 0 0
4.83431 -3.93216 -4.53581 255 0 0
4.67663 -3.18229 -4.30187 255 0 0
6.43067 -2.6436 -3.98744 255 0 0
5.92746 -2.28206 -4.22252 255 0 0
6.89324 -2.60707 -4.04052 255 0 0
8.06953 -2.32886 -4.70582 255 0 0
7.64078 -2.47263 -4.44071 255 0 0
4.95133 -2.91633 -4.28288 255 0 0
6.09243 -2.76172 -4.03293 255 0 0
7.11173 -2.31074 -4.68653 255 0 0
7.25827 -3.47876 -4.01391 255 0 0
6.43528 -3.63785 -4.04677 255 0 0
6.37179 -3.37611 -4.45615 255 0 0
5.00768 -2.80736 -4.28072 255 0 0
4.62492 -3.1471 -4.33079 255 0 0
4.88919 -3.07845 -4.29531 255 0 0
6.47256 -2.87871 -3.96136 255 0 0
6.46226 -2.6208 -3.99335 255 0 0
7.14466 -2.54834 -4.30535 255 0 0
4.84546 -2.39339 -4.35789 255 0 0
6.84113 -2.56884 -4.08883 255 0 0
8.22836 -2.29039 -4.90924 255 0 0
4.60478 -3.15742 -4.32628 255 0 0
7.56997 -2.57925 -4.14287 255 0 0
7.89141 -2.37915 -4.57996 255 0 0
4.88459 -2.5144 -4.34275 255 0 0
7.76775 -3.21481 -4.10345 255 0 0
5.81397 -2.49549 -4.15503 255 0 0
4.76828 -2.58469 -4.42022 255 0 0
6.60015 -3.53729 -4.00648 255 0 0
5.38523 -2.51852 -4.7123 255 0 0
4.55498 -2.61783 -4.44982 255 0 0
5.75679 -2.56036 -4.20463 255 0 0
5.40495 -2.88849 -4.25943 255 0 0
8.01583 -2.33397 -4.68966 255 0 0
7.87844 -2.43651 -4.50626 255 0 0
5.09789 -2.41366 -4.29525 255 0 0
4.90057 -3.48996 -4.33241 255 0 0
5.01043 -2.48226 -4.27539 255 0 0
7.22372 -2.39453 -4.45176 255 0 0
5.38936 -2.94621 -4.26449 255 0 0
8.20885 -2.28496 -5.14153 255 0 0
5.12565 -2.3971 -4.30261 255 0 0
4.6373 -3.0311 -4.30827 255 0 0
4.65679 -2.97857 -4.3032 255 0 0
5.3245 -2.47475 -4.3326 255 0 0
5.10769 -2.59106 -4.27532 255 0 0
5.15293 -2.72248 -4.25939 255 0 0
5.31969 -3.12482 -4.27462 255 0 0
5.28759 -2.4958 -4.26679 255 0 0
7.52956 -2.32861 -4.61162 255 0 0
6.37489 -3.48493 -4.07676 255 0 0
5.39542 -3.79436 -4.36977 255 0 0
4.78379 -2.6744 -4.2835 255 0 0
7.41899 -3.81902 -4.08782 255 0 0
7.29755 -3.66938 -4.04376 255 0 0
7.22755 -3.58068 -4.01818 255 0 0
7.24097 -3.53403 -4.01605 255 0 0
7.27489 -3.52925 -4.02315 255 0 0
7.27103 -3.43202 -4.01178 255 0 0
7.32188 -3.28769 -4.00823 255 0 0
7.38135 -3.23065 -4.01605 255 0 0
7.41104 -3.21226 -4.02102 255 0 0
7.39371 -3.17356 -4.0132 255 0 0
7.40606 -3.13736 -4.01249 255 0 0
7.88517 -3.1979 -4.12904 255 0 0
6.62888 -3.68531 -4.03224 255 0 0
7.40343 -2.67037 -4.03889 255 0 0
8.31681 -2.27257 -5.01687 255 0 0
6.88651 -3.81785 -4.32171 255 0 0
4.57707 -3.18652 -4.48862 255 0 0
7.25679 -2.76425 -4.01172 255 0 0
4.53705 -2.61469 -4.38906 255 0 0
5.23728 -3.62775 -4.34889 255 0 0
6.83006 -3.87169 -4.45752 255 0 0
7.94099 -2.45586 -4.45088 255 0 0
7.00651 -2.31334 -4.65089 255 0 0
6.89183 -3.78882 -4.03742 255 0 0
6.95934 -3.7298 -4.0455 255 0 0
6.94002 -3.68774 -4.03595 255 0 0
6.88917 -3.57734 -4.01099 255 0 0
6.85707 -3.47852 -3.9919 255 0 0
6.84211 -3.37963 -3.97697 255 0 0
6.82112 -3.28915 -3.9618 255 0 0
6.86857 -3.28197 -3.97208 255 0 0
6.86909 -3.23234 -3.96669 255 0 0
6.89773 -3.16627 -3.9662 255 0 0
6.88572 -3.13116 -3.95959 255 0 0
6.93041 -3.12179 -3.96914 255 0 0
6.89641 -3.08682 -3.95739 255 0 0
6.89853 -3.06816 -3.95592 255 0 0
6.96372 -3.01837 -3.9662 255 0 0
6.9666 -2.99022 -3.964 255 0 0
7.0094 -2.96932 -3.97208 255 0 0
7.01556 -2.93276 -3.96987 255 0 0
7.02415 -2.8973 -3.9684 255 0 0
7.05618 -2.87146 -3.97354 255 0 0
7.10316 -2.86116 -3.98382 255 0 0
7.15771 -2.78497 -3.9897 255 0 0
7.30926 -2.70514 -4.01907 255 0 0
5.09118 -2.6055 -4.27207 255 0 0
7.35822 -2.70345 -4.03081 255 0 0
7.35395 -2.68211 -4.02788 255 0 0
7.43691 -2.65258 -4.0455 255 0 0
7.58845 -2.66614 -4.08368 255 0 0
7.69742 -2.66348 -4.11011 255 0 0
6.29601 -3.83002 -4.10653 255 0 0
4.55043 -3.01035 -4.32667 255 0 0
6.91517 -3.79098 -4.54064 255 0 0
5.80678 -2.46799 -4.26682 255 0 0
4.66415 -3.54319 -4.38353 255 0 0
5.47956 -2.68241 -4.2493 255 0 0
5.22075 -2.35167 -4.67006 255 0 0
5.76932 -2.5251 -4.20367 255 0 0
7.40545 -2.36741 -4.50473 255 0 0
4.82902 -3.31117 -4.32612 255 0 0
4.92712 -2.3975 -4.39067 255 0 0
6.62155 -3.7847 -4.04361 255 0 0
6.66405 -3.76715 -4.05119 255 0 0
6.65028 -3.72822 -4.04285 255 0 0
6.6215 -3.64021 -4.02467 255 0 0
6.60142 -3.58851 -4.0133 255 0 0
6.59099 -3.48226 -3.99739 255 0 0
6.58308 -3.42832 -3.9888 255 0 0
6.57837 -3.28825 -3.97061 255 0 0
6.58128 -3.23141 -3.96455 255 0 0
6.59191 -3.14018 -3.95647 255 0 0
6.61454 -3.07435 -3.95445 255 0 0
6.63281 -3.02565 -3.95344 255 0 0
6.6471 -2.99417 -3.95344 255 0 0
6.65512 -2.96936 -3.95268 255 0 0
6.67346 -2.93023 -3.95293 255 0 0
6.68985 -2.89025 -3.95268 255 0 0
6.69749 -2.86533 -3.95192 255 0 0
6.71956 -2.82775 -3.95344 255 0 0
6.78272 -2.74142 -3.96026 255 0 0
6.8114 -2.71551 -3.96481 255 0 0
6.83421 -2.64977 -3.96405 255 0 0
6.9322 -2.63119 -3.98678 255 0 0
6.98917 -2.62443 -4.00042 255 0 0
7.03247 -2.62168 -4.01103 255 0 0
7.0758 -2.61874 -4.02164 255 0 0
7.12446 -2.61756 -4.03376 255 0 0
7.24402 -2.60316 -4.06255 255 0 0
7.33626 -2.59709 -4.08528 255 0 0
7.37975 -2.59281 -4.09589 255 0 0
7.41792 -2.58648 -4.10499 255 0 0
7.70544 -2.5847 -4.17773 255 0 0
7.75448 -2.58071 -4.18985 255 0 0
7.86338 -2.5756 -4.21713 255 0 0
8.12313 -2.61809 -4.28684 255 0 0
8.20876 -2.49608 -4.45252 255 0 0
5.73102 -2.73008 -4.28068 255 0 0
5.54232 -3.03836 -4.27078 255 0 0
4.56701 -3.72376 -4.57096 255 0 0
4.90218 -3.54391 -4.3451 255 0 0
8.03552 -2.27783 -5.15839 255 0 0
6.68705 -2.51098 -4.17084 255 0 0
5.18014 -2.92831 -4.25022 255 0 0
4.5999 -3.45157 -4.3961 255 0 0
6.39384 -3.32979 -3.99599 255 0 0
6.37039 -3.77253 -4.0499 255 0 0
6.48888 -3.76005 -4.07646 255 0 0
6.4381 -3.68995 -4.05458 255 0 0
6.42537 -3.59214 -4.03818 255 0 0
6.3909 -3.28022 -3.98896 255 0 0
6.40253 -3.25747 -3.98896 255 0 0
6.39525 -3.19671 -3.97959 255 0 0
6.40667 -3.12685 -3.97386 255 0 0
6.42837 -3.02498 -3.96709 255 0 0
6.47926 -2.84496 -3.95928 255 0 0
6.50303 -2.81869 -3.9624 255 0 0
6.50593 -2.78338 -3.95928 255 0 0
6.56374 -2.6892 -3.96396 255 0 0
6.58008 -2.6414 -3.96318 255 0 0
6.62139 -2.62158 -3.97178 255 0 0
6.97592 -2.56299 -4.05771 255 0 0
7.24441 -2.58392 -4.12958 255 0 0
5.23973 -3.43075 -4.30905 255 0 0
7.27711 -2.57615 -4.13739 255 0 0
7.48268 -2.56933 -4.19052 255 0 0
7.51616 -2.54105 -4.19677 255 0 0
7.63987 -2.5627 -4.23114 255 0 0
7.72159 -2.54944 -4.25145 255 0 0
7.84158 -2.52734 -4.28114 255 0 0
7.91803 -2.5106 -4.29988 255 0 0
8.02624 -2.52398 -4.32957 255 0 0
8.25439 -2.53135 -4.39051 255 0 0
5.95686 -3.76056 -4.26952 255 0 0
5.42579 -2.41315 -4.76904 255 0 0
7.65679 -2.34809 -4.58014 255 0 0
4.98323 -2.35938 -4.51544 255 0 0
7.78523 -2.34714 -4.61964 255 0 0
4.93506 -3.82336 -4.42024 255 0 0
5.93017 -2.29118 -4.16541 255 0 0
8.32764 -2.36063 -4.70939 255 0 0
6.32916 -3.82966 -4.11458 255 0 0
6.35269 -3.82335 -4.1194 255 0 0
6.41942 -3.83247 -4.13711 255 0 0
6.37488 -3.7752 -4.1178 255 0 0
6.40985 -3.61343 -4.10331 255 0 0
6.3742 -3.57345 -4.08883 255 0 0
6.56833 -3.64145 -4.14676 255 0 0
6.44083 -3.5111 -4.09687 255 0 0
6.37811 -3.43778 -4.07113 255 0 0
6.28204 -3.3668 -4.03733 255 0 0
6.21618 -3.2748 -4.00837 255 0 0
6.3843 -3.30557 -4.05503 255 0 0
6.33475 -3.24192 -4.03411 255 0 0
6.28464 -3.14142 -4.00837 255 0 0
6.34057 -3.08527 -4.01561 255 0 0
6.38304 -3.06858 -4.02446 255 0 0
6.41933 -3.05797 -4.0325 255 0 0
6.40169 -2.9294 -4.01239 255 0 0
6.41438 -2.82556 -4.00354 255 0 0
6.41786 -2.72773 -3.99335 255 0 0
6.43047 -2.68817 -3.99227 255 0 0
6.4868 -2.68467 -4.00676 255 0 0
6.52388 -2.60088 -4.00756 255 0 0
6.70526 -2.60893 -4.05664 255 0 0
6.7123 -2.57509 -4.05503 255 0 0
6.98246 -2.64082 -4.13389 255 0 0
6.91619 -2.56899 -4.10894 255 0 0
7.17283 -2.5968 -4.18056 255 0 0
7.31475 -2.55051 -4.21435 255 0 0
7.39526 -2.55893 -4.23688 255 0 0
7.45594 -2.52069 -4.24976 255 0 0
7.83365 -2.53506 -4.35355 255 0 0
7.88821 -2.52174 -4.36723 255 0 0
7.89417 -2.50303 -4.36723 255 0 0
8.02419 -2.50245 -4.40264 255 0 0
8.08388 -2.50005 -4.41873 255 0 0
5.553 -2.57295 -4.25639 255 0 0
6.14243 -2.57633 -4.08495 255 0 0
5.61518 -3.77244 -4.36708 255 0 0
7.29614 -2.33247 -4.60906 255 0 0
4.70235 -2.70995 -4.42181 255 0 0
7.75213 -3.53624 -4.82342 255 0 0
7.26837 -2.36164 -4.53242 255 0 0
7.81916 -2.4385 -4.48923 255 0 0
6.16842 -3.85332 -4.14452 255 0 0
6.29068 -3.83701 -4.17267 255 0 0
6.25624 -3.78554 -4.15611 255 0 0
6.38345 -2.71309 -4.04516 255 0 0
6.34144 -2.62451 -4.02363 255 0 0
6.60256 -2.6232 -4.09484 255 0 0
6.87196 -2.58042 -4.16439 255 0 0
6.91045 -2.55755 -4.17267 255 0 0
6.94361 -2.53245 -4.1793 255 0 0
7.17224 -2.57736 -4.24719 255 0 0
7.18575 -2.50553 -4.24388 255 0 0
7.58958 -2.48591 -4.35483 255 0 0
7.79372 -2.51192 -4.41445 255 0 0
7.88101 -2.47833 -4.43598 255 0 0
8.0327 -2.46337 -4.47738 255 0 0
5.24893 -2.39437 -4.6321 255 0 0
8.3743 -2.43834 -4.57177 255 0 0
8.461 -2.44184 -4.59661 255 0 0
8.56396 -2.44957 -4.62642 255 0 0
4.65376 -3.27278 -4.53872 255 0 0
6.27843 -3.77866 -4.22703 255 0 0
8.36508 -2.32845 -4.79739 255 0 0
5.15804 -2.97256 -4.25126 255 0 0
4.57478 -3.74819 -4.58033 255 0 0
6.1487 -3.86131 -4.2066 255 0 0
4.82256 -3.43439 -4.35206 255 0 0
6.32656 -3.18115 -4.15211 255 0 0
4.65453 -3.32306 -4.32725 255 0 0
6.1258 -3.90796 -4.2083 255 0 0
6.2006 -3.87343 -4.22192 255 0 0
6.17646 -3.83802 -4.21 255 0 0
6.14265 -3.79685 -4.19468 255 0 0
6.21418 -3.78021 -4.21057 255 0 0
6.14393 -3.59919 -4.16403 255 0 0
6.10829 -3.48171 -4.13679 255 0 0
6.86732 -3.81786 -4.38793 255 0 0
6.88822 -3.79747 -4.39048 255 0 0
6.90659 -3.77565 -4.39218 255 0 0
6.09686 -3.13844 -4.08401 255 0 0
6.11438 -3.02918 -4.07379 255 0 0
6.01308 -2.76019 -4.01079 255 0 0
6.44434 -2.81142 -4.13679 255 0 0
6.21909 -2.5825 -4.04655 255 0 0
6.37101 -2.56625 -4.08741 255 0 0
6.90904 -2.55703 -4.23895 255 0 0
6.94353 -2.49517 -4.24235 255 0 0
7.29409 -2.56272 -4.34962 255 0 0
7.36281 -2.51841 -4.36494 255 0 0
7.58014 -2.52269 -4.42794 255 0 0
7.73224 -2.47188 -4.4671 255 0 0
7.76526 -2.44191 -4.47391 255 0 0
8.25094 -2.42366 -4.61352 255 0 0
8.37538 -2.41713 -4.64928 255 0 0
8.42956 -2.41113 -4.6646 255 0 0
8.50532 -2.411 -4.68674 255 0 0
8.64619 -2.4067 -4.7276 255 0 0
6.94025 -2.5873 -4.38622 255 0 0
5.06157 -2.36715 -4.49339 255 0 0
5.07676 -2.34495 -4.43984 255 0 0
7.8907 -2.27725 -4.87376 255 0 0
4.98508 -2.83626 -4.27856 255 0 0
8.00776 -2.26995 -4.91244 255 0 0
5.70045 -3.86908 -4.34665 255 0 0
4.76162 -3.95821 -4.76301 255 0 0
4.93782 -2.54181 -4.25994 255 0 0
4.65742 -2.57483 -4.42795 255 0 0
6.04199 -3.75446 -4.22663 255 0 0
6.17921 -3.81945 -4.27386 255 0 0
6.79805 -3.76881 -4.43303 255 0 0
6.88356 -3.75245 -4.45402 255 0 0
7.85856 -3.72074 -4.72163 255 0 0
6.20888 -2.69119 -4.11819 255 0 0
6.18958 -2.66541 -4.10944 255 0 0
6.16704 -2.56088 -4.0902 255 0 0
6.22262 -2.55807 -4.10594 255 0 0
6.83051 -2.47286 -4.27386 255 0 0
6.99015 -2.47456 -4.32109 255 0 0
7.55606 -2.49479 -4.49075 255 0 0
7.71379 -2.40564 -4.52923 255 0 0
7.80524 -2.39361 -4.55547 255 0 0
8.0044 -2.37187 -4.61319 255 0 0
8.12822 -2.36669 -4.64992 255 0 0
8.39239 -2.3575 -4.72863 255 0 0
8.48409 -2.36157 -4.75662 255 0 0
8.68898 -2.39642 -4.82133 255 0 0
5.6863 -2.49678 -4.23118 255 0 0
5.70963 -2.73652 -4.27474 255 0 0
4.62448 -2.53517 -4.45922 255 0 0
7.36 -2.31447 -4.69971 255 0 0
4.57341 -3.04117 -4.50572 255 0 0
6.06799 -4.13959 -4.36647 255 0 0
5.98625 -4.02174 -4.32338 255 0 0
5.96341 -3.9757 -4.30902 255 0 0
5.86584 -3.86061 -4.26233 255 0 0
5.85633 -3.83448 -4.25515 255 0 0
5.91497 -3.83292 -4.27071 255 0 0
6.09791 -3.82941 -4.31979 255 0 0
6.84973 -3.84004 -4.52986 255 0 0
6.69818 -3.73423 -4.47061 255 0 0
7.84382 -3.64569 -4.78662 255 0 0
5.97337 -2.53043 -4.08997 255 0 0
6.01616 -2.51497 -4.10074 255 0 0
6.10231 -2.52554 -4.12767 255 0 0
6.7921 -2.44076 -4.32518 255 0 0
6.93023 -2.43488 -4.36647 255 0 0
7.09386 -2.47349 -4.42034 255 0 0
7.0839 -2.45119 -4.41495 255 0 0
7.31464 -2.37667 -4.47779 255 0 0
7.34677 -2.36787 -4.48677 255 0 0
7.50698 -2.36069 -4.53525 255 0 0
7.5498 -2.3545 -4.54782 255 0 0
7.6086 -2.35306 -4.56577 255 0 0
7.93541 -2.33098 -4.66453 255 0 0
8.11254 -2.32045 -4.71839 255 0 0
8.25759 -2.31964 -4.76328 255 0 0
8.42887 -2.28173 -5.05555 255 0 0
7.76115 -2.29979 -5.06105 255 0 0
5.25845 -2.51262 -4.25939 255 0 0
4.77361 -3.93005 -4.57625 255 0 0
7.83752 -2.28205 -4.85636 255 0 0
6.01881 -4.12699 -4.41823 255 0 0
5.97852 -4.05782 -4.39429 255 0 0
5.87758 -3.96898 -4.35009 255 0 0
5.81777 -3.90854 -4.32246 255 0 0
5.79921 -3.85629 -4.30773 255 0 0
5.85469 -3.8732 -4.32614 255 0 0
5.78958 -3.81041 -4.29668 255 0 0
5.90516 -3.82656 -4.33167 255 0 0
5.7706 -3.52917 -4.24142 255 0 0
6.06783 -3.67153 -4.35009 255 0 0
6.9069 -3.80777 -4.61346 255 0 0
5.89706 -2.52289 -4.12539 255 0 0
5.92349 -2.5176 -4.13276 255 0 0
5.95586 -2.49808 -4.14013 255 0 0
6.00359 -2.48468 -4.15302 255 0 0
6.37771 -2.44673 -4.26352 255 0 0
6.64083 -2.45776 -4.3464 255 0 0
6.82924 -2.5091 -4.41086 255 0 0
6.76267 -2.4483 -4.38324 255 0 0
6.75276 -2.42662 -4.37771 255 0 0
7.01833 -2.3913 -4.45691 255 0 0
7.13026 -2.36356 -4.48914 255 0 0
7.3589 -2.35253 -4.56005 255 0 0
7.47096 -2.32991 -4.5932 255 0 0
7.60945 -2.33357 -4.6374 255 0 0
7.62576 -2.29906 -4.63924 255 0 0
7.78562 -2.32714 -4.69265 255 0 0
8.08519 -2.31263 -4.78658 255 0 0
8.16017 -2.31316 -4.81053 255 0 0
8.44446 -2.30745 -4.90077 255 0 0
4.73166 -2.78694 -4.288 255 0 0
5.69917 -2.6161 -4.25296 255 0 0
4.82545 -3.52342 -4.37368 255 0 0
5.7458 -3.95986 -4.37685 255 0 0
5.76919 -3.83633 -4.35986 255 0 0
5.72037 -3.678 -4.31644 255 0 0
5.76699 -3.58358 -4.31267 255 0 0
5.87175 -3.57193 -4.34098 255 0 0
6.84468 -3.79466 -4.6657 255 0 0
6.29619 -3.1846 -4.40328 255 0 0
5.91709 -2.67375 -4.21166 255 0 0
5.93149 -2.62124 -4.20883 255 0 0
5.79234 -2.51065 -4.15031 255 0 0
5.86106 -2.49106 -4.16919 255 0 0
6.15491 -2.56442 -4.27113 255 0 0
5.90724 -2.37945 -4.16919 255 0 0
5.91775 -2.32679 -4.16588 255 0 0
5.96157 -2.27897 -4.17391 255 0 0
6.568 -2.42197 -4.38441 255 0 0
6.58179 -2.40049 -4.38629 255 0 0
6.62939 -2.39115 -4.40045 255 0 0
6.85679 -2.35442 -4.46936 255 0 0
6.94664 -2.3485 -4.49768 255 0 0
7.07618 -2.34563 -4.53921 255 0 0
7.52465 -2.30756 -4.6808 255 0 0
7.59903 -2.31068 -4.70535 255 0 0
7.64694 -2.30545 -4.72045 255 0 0
7.86537 -2.29016 -4.7903 255 0 0
7.91338 -2.2838 -4.80541 255 0 0
7.98272 -2.28332 -4.82806 255 0 0
8.13753 -2.28591 -4.87903 255 0 0
8.34063 -2.30035 -4.947 255 0 0
8.51715 -2.32732 -5.00741 255 0 0
5.62841 -2.86362 -4.2688 255 0 0
4.61221 -3.64375 -4.44902 255 0 0
4.67795 -2.92997 -4.29982 255 0 0
4.65495 -3.81387 -4.80616 255 0 0
5.4187 -3.29633 -4.2787 255 0 0
5.5812 -3.89541 -4.38159 255 0 0
5.65664 -3.87866 -4.39996 255 0 0
5.62699 -3.82898 -4.38159 255 0 0
5.65951 -3.70561 -4.36708 255 0 0
5.53708 -3.56944 -4.3052 255 0 0
5.74646 -3.22153 -4.3052 255 0 0
5.72832 -2.77896 -4.22784 255 0 0
5.68343 -2.64158 -4.19303 255 0 0
5.80329 -2.56458 -4.22011 255 0 0
5.77871 -2.4966 -4.2027 255 0 0
6.52658 -2.38035 -4.4309 255 0 0
6.574 -2.37117 -4.4454 255 0 0
6.63184 -2.36543 -4.46378 255 0 0
6.67911 -2.36446 -4.47925 255 0 0
6.75809 -2.35641 -4.50439 255 0 0
6.78978 -2.34942 -4.51406 255 0 0
6.86869 -2.34938 -4.54016 255 0 0
7.02151 -2.346 -4.59045 255 0 0
7.08491 -2.33923 -4.61075 255 0 0
7.23288 -2.33116 -4.6591 255 0 0
7.32288 -2.32189 -4.68811 255 0 0
7.45009 -2.30404 -4.72872 255 0 0
7.5614 -2.29923 -4.76546 255 0 0
7.6462 -2.30523 -4.79447 255 0 0
7.75243 -2.29721 -4.82928 255 0 0
8.09293 -2.27338 -4.94145 255 0 0
5.39983 -3.83586 -4.37967 255 0 0
5.32305 -3.85779 -4.36185 255 0 0
5.39054 -3.86784 -4.38363 255 0 0
5.4021 -3.77042 -4.3668 255 0 0
5.39117 -3.6779 -4.34469 255 0 0
5.38623 -3.62791 -4.33314 255 0 0
5.38698 -3.58219 -4.32423 255 0 0
5.38467 -3.52567 -4.31235 255 0 0
5.39108 -3.47534 -4.30444 255 0 0
5.40123 -3.3563 -4.28464 255 0 0
5.53021 -3.29272 -4.31236 255 0 0
5.5427 -3.1246 -4.28596 255 0 0
5.57832 -3.10991 -4.29454 255 0 0
5.57729 -3.03179 -4.28068 255 0 0
5.49447 -2.8946 -4.23118 255 0 0
5.72586 -2.99917 -4.32225 255 0 0
5.53684 -2.80052 -4.22921 255 0 0
5.63726 -2.78449 -4.2589 255 0 0
5.67101 -2.75944 -4.26583 255 0 0
5.66775 -2.68347 -4.25296 255 0 0
5.60928 -2.63953 -4.22723 255 0 0
5.65504 -2.62838 -4.24042 255 0 0
5.63319 -2.52141 -4.21733 255 0 0
5.70525 -2.48093 -4.23514 255 0 0
5.83638 -2.49693 -4.28068 255 0 0
5.84454 -2.43511 -4.27474 255 0 0
5.8503 -2.42124 -4.27474 255 0 0
5.8917 -2.42203 -4.2886 255 0 0
5.90417 -2.36195 -4.28464 255 0 0
5.97747 -2.3339 -4.30543 255 0 0
6.04998 -2.33747 -4.33017 255 0 0
6.10695 -2.34286 -4.34997 255 0 0
6.3718 -2.36677 -4.44203 255 0 0
6.52375 -2.34433 -4.49053 255 0 0
6.66849 -2.3429 -4.53937 255 0 0
6.7073 -2.32088 -4.54993 255 0 0
6.86459 -2.32076 -4.60338 255 0 0
6.95917 -2.31603 -4.63506 255 0 0
7.22234 -2.30887 -4.72414 255 0 0
7.31731 -2.30105 -4.75582 255 0 0
7.47047 -2.29095 -4.80729 255 0 0
7.61329 -2.27563 -4.85481 255 0 0
7.66093 -2.27009 -4.87065 255 0 0
7.74031 -2.27367 -4.89836 255 0 0
7.88324 -2.29536 -4.94984 255 0 0
8.20174 -2.30395 -5.0607 255 0 0
8.16471 -2.27267 -5.04486 255 0 0
8.28171 -2.26298 -5.08446 255 0 0
4.8891 -2.42938 -4.43613 255 0 0
5.05297 -2.3924 -4.38409 255 0 0
4.74474 -2.94836 -4.27318 255 0 0
4.88311 -2.53566 -4.29251 255 0 0
5.2158 -3.77064 -4.37286 255 0 0
5.25545 -3.37617 -4.30298 255 0 0
5.27836 -3.28863 -4.29285 255 0 0
5.28828 -3.2342 -4.28542 255 0 0
5.31085 -3.1792 -4.28205 255 0 0
5.35286 -3.03435 -4.26854 255 0 0
5.4019 -2.91161 -4.26247 255 0 0
5.44159 -2.78484 -4.25369 255 0 0
5.50144 -2.66889 -4.25436 255 0 0
5.52027 -2.62968 -4.25436 255 0 0
5.54382 -2.59269 -4.25639 255 0 0
6.81755 -2.32289 -4.65541 255 0 0
6.87537 -2.30626 -4.67364 255 0 0
6.9173 -2.30209 -4.68782 255 0 0
7.00621 -2.31324 -4.72023 255 0 0
7.0798 -2.30037 -4.74453 255 0 0
7.11661 -2.29369 -4.75669 255 0 0
7.22669 -2.31026 -4.79719 255 0 0
7.27425 -2.28751 -4.81137 255 0 0
7.3321 -2.28661 -4.83163 255 0 0
7.50586 -2.28235 -4.89239 255 0 0
7.64819 -2.28606 -4.94303 255 0 0
7.72747 -2.2699 -4.96936 255 0 0
7.87525 -2.29304 -5.02405 255 0 0
8.28319 -2.26339 -5.16583 255 0 0
5.32725 -2.6235 -4.24556 255 0 0
5.03552 -3.89162 -4.40659 255 0 0
5.02781 -3.73554 -4.36862 255 0 0
5.04237 -3.58194 -4.33893 255 0 0
5.0376 -3.4806 -4.31546 255 0 0
5.05269 -3.42946 -4.30925 255 0 0
5.04366 -3.4233 -4.30511 255 0 0
5.04338 -3.37962 -4.29579 255 0 0
5.05309 -3.36015 -4.29475 255 0 0
5.08359 -3.24308 -4.28025 255 0 0
5.08121 -3.21619 -4.27404 255 0 0
5.09243 -3.18118 -4.27059 255 0 0
5.10892 -3.13284 -4.26627 255 0 0
5.13906 -3.02691 -4.2554 255 0 0
5.1439 -2.997 -4.25126 255 0 0
5.20887 -2.87972 -4.25074 255 0 0
5.22738 -2.83357 -4.2485 255 0 0
5.29138 -2.69214 -4.24504 255 0 0
7.65073 -2.28682 -5.01963 255 0 0
8.02463 -2.3159 -5.15839 255 0 0
8.10418 -2.27654 -5.18324 255 0 0
8.15176 -2.26907 -5.19981 255 0 0
8.42673 -2.28115 -5.30129 255 0 0
4.90132 -3.37788 -4.30771 255 0 0
4.99373 -3.97407 -4.47421 255 0 0
4.94511 -3.85935 -4.43188 255 0 0
4.88611 -3.73929 -4.38532 255 0 0
4.88193 -3.71777 -4.37897 255 0 0
4.88913 -3.6325 -4.36133 255 0 0
4.90163 -3.58796 -4.35498 255 0 0
4.89701 -3.51373 -4.33664 255 0 0
4.90401 -3.43143 -4.32041 255 0 0
4.92827 -3.22682 -4.28373 255 0 0
4.93436 -3.19749 -4.27949 255 0 0
4.93651 -3.17401 -4.27526 255 0 0
4.94778 -3.15643 -4.27526 255 0 0
4.95253 -3.11833 -4.26891 255 0 0
4.97774 -3.03617 -4.26044 255 0 0
5.09941 -2.82709 -4.26044 255 0 0
5.15525 -2.68475 -4.25339 255 0 0
5.15465 -2.63029 -4.24351 255 0 0
5.19271 -2.54197 -4.2414 255 0 0
5.35273 -2.47245 -4.28584 255 0 0
4.58062 -2.72733 -4.37886 255 0 0
4.86641 -3.88219 -4.47312 255 0 0
4.84661 -3.81959 -4.4515 255 0 0
4.81361 -3.72925 -4.41908 255 0 0
4.81545 -3.68522 -4.40899 255 0 0
4.82416 -3.63776 -4.40034 255 0 0
4.82712 -3.48096 -4.36431 255 0 0
4.82616 -3.33451 -4.33044 255 0 0
4.83839 -3.27563 -4.32125 255 0 0
4.85758 -3.18056 -4.30666 255 0 0
4.87236 -3.13277 -4.30126 255 0 0
4.9638 -2.88419 -4.28072 255 0 0
5.03017 -2.7809 -4.28342 255 0 0
5.05511 -2.73245 -4.28288 255 0 0
5.07714 -2.62877 -4.27135 255 0 0
5.13208 -2.57291 -4.28072 255 0 0
5.16978 -2.54596 -4.28937 255 0 0
5.20435 -2.52477 -4.29802 255 0 0
5.23397 -2.50091 -4.3045 255 0 0
5.26675 -2.47832 -4.31243 255 0 0
4.75868 -3.88004 -4.55824 255 0 0
4.7031 -2.60737 -4.34618 255 0 0
4.73422 -2.96521 -4.27318 255 0 0
4.62474 -3.36845 -4.55304 255 0 0
4.8784 -2.34525 -4.52406 255 0 0
4.77834 -3.91497 -4.51374 255 0 0
4.68959 -3.71391 -4.43429 255 0 0
4.68571 -3.6838 -4.42546 255 0 0
4.66888 -3.6349 -4.40781 255 0 0
4.66374 -3.51679 -4.37691 255 0 0
4.66006 -3.4795 -4.36661 255 0 0
4.6553 -3.3823 -4.3416 255 0 0
4.68967 -3.12652 -4.2936 255 0 0
4.71145 -3.02141 -4.27759 255 0 0
4.75712 -2.92488 -4.27244 255 0 0
4.77231 -2.87993 -4.26821 255 0 0
4.79101 -2.83723 -4.26582 255 0 0
4.83786 -2.72725 -4.25994 255 0 0
4.85084 -2.67427 -4.25405 255 0 0
4.92056 -2.57734 -4.26038 255 0 0
4.97214 -2.52228 -4.26877 255 0 0
5.18948 -2.39705 -4.32615 255 0 0
4.92181 -4.33397 -5.05807 255 0 0
4.65597 -3.72334 -4.48392 255 0 0
4.60604 -3.59473 -4.43438 255 0 0
4.59748 -3.57053 -4.42537 255 0 0
4.58202 -3.47226 -4.39535 255 0 0
4.5859 -3.34018 -4.36382 255 0 0
4.59878 -3.31628 -4.36232 255 0 0
4.60123 -3.28502 -4.35556 255 0 0
4.59108 -3.19627 -4.33079 255 0 0
4.60921 -3.11249 -4.31728 255 0 0
4.62644 -3.08435 -4.31671 255 0 0
4.65117 -3.02966 -4.31277 255 0 0
4.70858 -2.88479 -4.30076 255 0 0
4.74735 -2.70598 -4.27674 255 0 0
4.81248 -2.63086 -4.28519 255 0 0
4.82444 -2.60036 -4.2835 255 0 0
4.91732 -2.51653 -4.30151 255 0 0
4.93713 -2.45324 -4.29701 255 0 0
5.07354 -2.39474 -4.33754 255 0 0
5.15137 -2.39428 -4.36682 255 0 0
4.66506 -2.53592 -4.42248 255 0 0
4.86049 -2.35795 -4.51911 255 0 0
4.82875 -2.44237 -4.41465 255 0 0
4.68949 -3.87952 -4.5954 255 0 0
4.63768 -3.78138 -4.55176 255 0 0
4.68908 -3.78642 -4.57013 255 0 0
4.70645 -3.78204 -4.57473 255 0 0
4.59762 -3.67668 -4.51042 255 0 0
4.58123 -3.62809 -4.49204 255 0 0
4.61486 -2.8324 -4.30906 255 0 0
4.63899 -2.7472 -4.29911 255 0 0
4.65377 -2.71143 -4.29681 255 0 0
4.69187 -2.64496 -4.29681 255 0 0
4.70436 -2.62268 -4.29681 255 0 0
4.74119 -2.55549 -4.29681 255 0 0
4.75924 -2.5217 -4.29681 255 0 0
4.88685 -2.48633 -4.33815 255 0 0
4.88032 -2.43945 -4.32667 255 0 0
4.97585 -2.42847 -4.36112 255 0 0
5.02885 -2.3761 -4.37184 255 0 0
5.12433 -2.36695 -4.40706 255 0 0
4.65943 -3.87326 -4.64355 255 0 0
4.61898 -3.82115 -4.61545 255 0 0
4.57575 -2.73178 -4.32511 255 0 0
4.60898 -2.67802 -4.32569 255 0 0
4.62835 -2.63086 -4.32276 255 0 0
4.66878 -2.60284 -4.33213 255 0 0
4.72434 -2.58266 -4.34911 255 0 0
4.80451 -2.53839 -4.37077 255 0 0
4.80554 -2.48815 -4.36101 255 0 0
4.72493 -2.41807 -4.31574 255 0 0
4.82255 -2.43923 -4.35789 255 0 0
4.97461 -2.34808 -4.40003 255 0 0
4.66888 -3.84382 -4.69859 255 0 0
4.61578 -3.60233 -4.61269 255 0 0
4.65761 -3.49488 -4.59837 255 0 0
4.69009 -3.4331 -4.5936 255 0 0
4.61286 -3.33474 -4.53992 255 0 0
4.65562 -3.3072 -4.54827 255 0 0
4.56264 -3.16043 -4.47669 255 0 0
4.53788 -3.11154 -4.45521 255 0 0
4.52667 -2.79057 -4.3729 255 0 0
4.70755 -2.66852 -4.41465 255 0 0
4.62146 -2.59803 -4.36574 255 0 0
4.72797 -2.62116 -4.41226 255 0 0
4.7248 -2.60478 -4.40749 255 0 0
4.82744 -2.57248 -4.4409 255 0 0
4.84214 -2.52167 -4.43613 255 0 0
4.82371 -2.47582 -4.41942 255 0 0
4.86705 -2.4256 -4.42658 255 0 0
4.88136 -2.39674 -4.42658 255 0 0
4.96736 -2.36627 -4.45521 255 0 0
5.22204 -2.38959 -4.56258 255 0 0
5.04516 -4.21417 -4.99908 255 0 0
4.77067 -3.92763 -4.81924 255 0 0
4.63353 -3.18524 -4.56526 255 0 0
4.59581 -3.10344 -4.53002 255 0 0
4.57141 -3.06335 -4.51058 255 0 0
4.57324 -2.69364 -4.42146 255 0 0
4.56009 -2.62799 -4.40121 255 0 0
4.58797 -2.60074 -4.40607 255 0 0
4.75839 -2.40678 -4.43281 255 0 0
4.81761 -2.37961 -4.45144 255 0 0
5.36619 -2.43251 -4.688 255 0 0
5.23109 -2.35633 -4.61752 255 0 0
5.2318 -2.34174 -4.61508 255 0 0
5.2714 -2.34449 -4.6321 255 0 0
5.05952 -4.23636 -5.07712 255 0 0
4.86673 -4.35769 -5.04619 255 0 0
5.02316 -4.24661 -5.06722 255 0 0
4.86031 -4.04025 -4.94721 255 0 0
4.74832 -3.90922 -4.86802 255 0 0
4.59818 -3.74917 -4.76656 255 0 0
4.598 -2.56338 -4.45477 255 0 0
4.63929 -2.49347 -4.45601 255 0 0
4.68679 -2.45491 -4.46714 255 0 0
4.70832 -2.43072 -4.47085 255 0 0
4.73921 -2.41121 -4.47951 255 0 0
4.77714 -2.39494 -4.49189 255 0 0
4.82225 -2.3677 -4.50509 255 0 0
5.13298 -2.4154 -4.64531 255 0 0
5.16559 -2.40832 -4.65768 255 0 0
5.18258 -2.37154 -4.65768 255 0 0
5.21516 -2.36404 -4.67006 255 0 0
5.30865 -2.37614 -4.71212 255 0 0
