ply
format ascii 1.0
comment Created by Open3D
element vertex 334
property double x
property double y
property double z
property uchar red
property uchar green
property uchar blue
end_header
-19.5057 24.9323 -3.44803 255 0 0
-19.5055 25.1772 -3.45686 255 0 0
-20.5616 22.0002 -2.8762 255 0 0
-19.6328 25.3415 -2.66616 255 0 0
-20.2231 21.9489 -3.86275 255 0 0
-19.5356 22.7774 -2.87313 255 0 0
-19.4703 25.7567 -4.01521 255 0 0
-19.5533 24.6301 -2.65351 255 0 0
-19.5842 22.9439 -2.87773 255 0 0
-19.5898 24.5563 -2.65278 255 0 0
-19.4642 24.758 -3.96561 255 0 0
-19.5705 22.7089 -2.87228 255 0 0
-19.5388 23.5614 -3.40014 255 0 0
-19.6153 23.2023 -3.89631 255 0 0
-20.0701 21.8868 -3.60579 255 0 0
-19.5575 24.9986 -2.92354 255 0 0
-19.5794 24.1883 -2.90549 255 0 0
-19.7779 21.9831 -4.33963 255 0 0
-19.4738 22.4886 -3.60864 255 0 0
-19.5106 23.3016 -3.13716 255 0 0
-19.4988 22.5175 -3.8591 255 0 0
-19.427 22.5424 -4.10577 255 0 0
-20.0723 21.8892 -4.34979 255 0 0
-19.5429 24.2606 -3.42502 255 0 0
-19.5717 23.0396 -2.62821 255 0 0
-20.7806 21.9198 -3.6333 255 0 0
-19.7867 21.9929 -3.10695 255 0 0
-19.5536 23.353 -2.88624 255 0 0
-20.4439 21.9785 -3.12315 255 0 0
-20.4053 22.0416 -2.87398 255 0 0
-19.5226 22.8718 -3.37552 255 0 0
-19.5072 24.6921 -3.17745 255 0 0
-20.2065 21.9309 -2.61969 255 0 0
-19.5455 23.6835 -3.14898 255 0 0
-19.6292 25.8393 -3.7547 255 0 0
-19.4945 24.6759 -2.91502 255 0 0
-19.5926 23.1754 -2.63064 255 0 0
-19.4576 23.6913 -3.91345 255 0 0
-19.5194 23.652 -3.65827 255 0 0
-19.4608 22.9091 -3.37499 255 0 0
-19.5484 24.0333 -2.64378 255 0 0
-20.121 21.9422 -3.11395 255 0 0
-19.6137 22.2208 -2.8624 255 0 0
-19.45 22.7867 -3.62002 255 0 0
-19.4561 23.8043 -4.43245 255 0 0
-19.4421 24.9728 -4.50404 255 0 0
-19.6182 25.8249 -2.67395 255 0 0
-19.5484 22.2529 -3.60168 255 0 0
-19.7132 26.078 -4.31325 255 0 0
-19.933 21.9452 -4.34563 255 0 0
-19.3945 23.0517 -4.3835 255 0 0
-19.5674 23.2573 -2.88437 255 0 0
-20.7085 21.9478 -3.63172 255 0 0
-19.5083 22.7455 -3.37071 255 0 0
-19.4633 23.6982 -3.65827 255 0 0
-19.9071 22.0214 -2.86376 255 0 0
-19.52 24.4688 -2.91077 255 0 0
-20.3762 22.0102 -3.62192 255 0 0
-21.1227 22.0701 -3.14307 255 0 0
-20.0745 21.8915 -3.35867 255 0 0
-19.5179 22.2182 -3.35278 255 0 0
-20.217 21.9423 -3.61338 255 0 0
-20.6544 21.9947 -3.88318 255 0 0
-19.468 24.2853 -4.20248 255 0 0
-19.5355 22.5599 -3.36509 255 0 0
-19.5844 22.9442 -2.62687 255 0 0
-19.5145 24.5812 -3.69716 255 0 0
-20.0282 21.9453 -3.85436 255 0 0
-19.5369 25.4662 -2.93393 255 0 0
-19.5016 25.7981 -3.21007 255 0 0
-19.3716 23.3598 -4.40105 255 0 0
-19.5554 24.0419 -2.90174 255 0 0
-19.6798 26.1626 -3.49753 255 0 0
-19.5362 22.2391 -3.1076 255 0 0
-19.6587 26.2638 -3.77399 255 0 0
-19.4458 23.7916 -3.91783 255 0 0
-19.5116 23.4154 -3.64816 255 0 0
-19.4697 22.1634 -4.33408 255 0 0
-19.5727 22.7115 -3.12184 255 0 0
-19.5514 24.2711 -2.90685 255 0 0
-19.4672 23.4751 -3.64911 255 0 0
-19.5037 24.4483 -3.17022 255 0 0
-19.4929 22.6189 -3.61464 255 0 0
-19.5589 24.6372 -3.43893 255 0 0
-19.4629 24.7564 -4.49157 255 0 0
-19.4932 23.5065 -3.14263 255 0 0
-19.7665 26.1485 -3.4994 255 0 0
-19.5822 22.7225 -2.62334 255 0 0
-19.5396 22.4569 -2.86615 255 0 0
-19.5094 23.9854 -3.15687 255 0 0
-19.4718 23.3676 -4.40659 255 0 0
-19.7322 22.0371 -2.8607 255 0 0
-19.6119 22.0075 -4.08593 255 0 0
-19.7873 21.9935 -3.59978 255 0 0
-19.7877 21.994 -3.35332 255 0 0
-20.7291 21.9696 -3.38168 255 0 0
-19.581 24.9067 -2.65838 255 0 0
-19.5261 24.4765 -3.43225 255 0 0
-19.496 24.6779 -3.70064 255 0 0
-19.4395 24.3679 -4.20579 255 0 0
-19.5115 23.4153 -3.14045 255 0 0
-20.9702 22.0151 -3.39077 255 0 0
-20.5929 21.9292 -3.37606 255 0 0
-20.2349 21.9617 -4.36272 255 0 0
-19.5116 23.0796 -3.63425 255 0 0
-19.5726 22.0685 -3.3493 255 0 0
-19.4582 25.8679 -4.29051 255 0 0
-19.585 25.6546 -4.2839 255 0 0
-19.5705 25.6356 -3.20678 255 0 0
-19.4715 24.0551 -3.41566 255 0 0
-19.9949 21.9088 -3.35679 255 0 0
-19.4861 25.0293 -3.45097 255 0 0
-19.6013 22.6359 -2.87126 255 0 0
-19.8 22.0077 -2.86138 255 0 0
-19.566 25.2552 -3.1954 255 0 0
-19.4926 24.316 -3.42556 255 0 0
-19.5065 23.9817 -4.44585 255 0 0
-21.0965 22.0427 -2.63405 255 0 0
-20.061 21.9812 -3.11352 255 0 0
-19.4152 22.9655 -4.37934 255 0 0
-20.2221 21.9479 -2.86836 255 0 0
-19.5568 25.4921 -3.4697 255 0 0
-20.1297 22.0565 -2.86887 255 0 0
-19.5977 25.6713 -2.67115 255 0 0
-19.5471 23.6856 -2.89357 255 0 0
-19.5238 25.0778 -2.66045 255 0 0
-19.5607 22.8067 -3.12424 255 0 0
-20.2096 21.9342 -3.36429 255 0 0
-19.8619 21.9715 -4.09585 255 0 0
-19.5203 24.2325 -3.16431 255 0 0
-19.5462 23.6844 -3.40469 255 0 0
-19.9032 21.9124 -3.60073 255 0 0
-19.4888 23.2756 -3.38863 255 0 0
-19.3806 22.4885 -4.34886 255 0 0
-19.6002 26.1858 -3.49619 255 0 0
-19.9375 21.9503 -4.09833 255 0 0
-19.4793 22.3875 -3.85217 255 0 0
-19.5922 25.4133 -3.46783 255 0 0
-19.5764 23.8359 -2.89748 255 0 0
-19.6099 25.9414 -2.67577 255 0 0
-19.63 25.5876 -2.67018 255 0 0
-19.6227 25.4529 -2.66787 255 0 0
-19.54 24.9761 -2.65899 255 0 0
-19.5493 24.7453 -2.65534 255 0 0
-19.5945 24.207 -2.64719 255 0 0
-19.6128 23.9959 -2.64402 255 0 0
-19.4848 23.1591 -2.62894 255 0 0
-19.5816 22.831 -2.62505 255 0 0
-19.6177 22.2254 -2.61604 255 0 0
-19.6354 22.1394 -2.61495 255 0 0
-20.2098 22.0391 -2.6214 255 0 0
-20.4099 21.942 -2.62273 255 0 0
-20.5698 22.009 -2.62602 255 0 0
-19.5124 23.8731 -2.89714 255 0 0
-19.5319 22.9928 -3.12884 255 0 0
-19.5534 22.4727 -3.11461 255 0 0
-20.2615 21.8862 -3.36429 255 0 0
-20.4384 21.9726 -3.87296 255 0 0
-19.6545 26.2583 -2.95436 255 0 0
-19.5388 25.8473 -2.94278 255 0 0
-19.5688 25.6334 -2.93836 255 0 0
-19.6044 25.4291 -2.93427 255 0 0
-19.5499 25.2345 -2.92882 255 0 0
-19.5414 25.1003 -2.92558 255 0 0
-19.5082 24.8141 -2.91843 255 0 0
-19.4983 24.5609 -2.91247 255 0 0
-19.4938 24.3174 -2.90685 255 0 0
-19.5771 23.6076 -2.89237 255 0 0
-19.5731 23.4892 -2.88965 255 0 0
-19.5545 23.1303 -2.8813 255 0 0
-19.5714 23.0393 -2.8796 255 0 0
-19.5543 22.3664 -2.86444 255 0 0
-19.5455 22.2496 -2.86172 255 0 0
-20.0026 22.0218 -2.86564 255 0 0
-20.1819 22.0087 -2.86887 255 0 0
-20.4854 22.0231 -2.87517 255 0 0
-21.0961 22.0424 -2.88778 255 0 0
-20.1433 21.9666 -3.8602 255 0 0
-19.5706 26.0173 -3.21817 255 0 0
-19.5097 25.6819 -3.20678 255 0 0
-19.5173 25.4406 -3.19978 255 0 0
-19.5702 25.0147 -3.18839 255 0 0
-19.4893 24.5495 -3.17285 255 0 0
-19.5103 24.3381 -3.16716 255 0 0
-19.4885 23.8439 -3.15227 255 0 0
-19.5771 23.2687 -3.13782 255 0 0
-19.5604 23.1374 -3.13366 255 0 0
-19.556 22.9108 -3.12709 255 0 0
-19.5269 22.55 -3.11614 255 0 0
-19.5335 22.3426 -3.11045 255 0 0
-19.5928 22.1971 -3.10782 255 0 0
-19.8702 21.9806 -3.1087 255 0 0
-19.938 21.9508 -3.10958 255 0 0
-20.2681 21.9977 -3.11921 255 0 0
-20.3202 21.9496 -3.11921 255 0 0
-19.4606 22.4734 -4.35209 255 0 0
-19.7027 22.1094 -3.35465 255 0 0
-19.7011 25.9339 -3.48977 255 0 0
-19.5424 25.5989 -3.47318 255 0 0
-19.507 24.8125 -3.44375 255 0 0
-19.5259 24.7156 -3.44081 255 0 0
-19.499 23.9725 -3.41352 255 0 0
-19.5151 23.8764 -3.41057 255 0 0
-19.5085 23.7532 -3.40602 255 0 0
-19.4823 23.3802 -3.39211 255 0 0
-19.4762 23.1488 -3.38382 255 0 0
-19.4706 23.0311 -3.37954 255 0 0
-19.5545 22.6903 -3.37017 255 0 0
-19.562 22.4826 -3.36322 255 0 0
-19.5229 22.3305 -3.35679 255 0 0
-19.5241 22.1193 -3.34957 255 0 0
-19.8045 21.9079 -3.35091 255 0 0
-19.8997 21.9085 -3.35385 255 0 0
-20.405 21.9366 -3.37044 255 0 0
-20.4489 21.8796 -3.3699 255 0 0
-20.7972 21.9374 -3.38275 255 0 0
-21.0385 21.9822 -3.39184 255 0 0
-19.7048 23.1963 -4.15371 255 0 0
-20.3108 21.9395 -3.86603 255 0 0
-19.5495 24.8665 -3.71044 255 0 0
-19.4892 24.0769 -3.67503 255 0 0
-19.5509 26.2494 -3.76988 255 0 0
-19.7138 26.2078 -3.77336 255 0 0
-19.6067 25.9371 -3.75818 255 0 0
-19.5343 25.5882 -3.74079 255 0 0
-19.4989 25.4166 -3.73226 255 0 0
-19.5127 25.3101 -3.72815 255 0 0
-19.5189 25.1944 -3.7234 255 0 0
-19.4996 25.0466 -3.71645 255 0 0
-19.5049 24.9312 -3.71171 255 0 0
-19.5253 24.4754 -3.69305 255 0 0
-19.4955 24.3196 -3.68546 255 0 0
-19.4578 24.1549 -3.67724 255 0 0
-19.5167 23.9943 -3.6725 255 0 0
-19.5107 23.871 -3.66713 255 0 0
-19.507 23.2974 -3.6431 255 0 0
-19.517 23.1974 -3.6393 255 0 0
-19.4678 22.9174 -3.62603 255 0 0
-19.504 22.7405 -3.62002 255 0 0
-19.5654 22.4865 -3.6118 255 0 0
-19.534 22.3432 -3.60484 255 0 0
-19.5198 22.1145 -3.59504 255 0 0
-19.5683 22.0637 -3.59473 255 0 0
-19.8041 21.9075 -3.59694 255 0 0
-19.9788 21.8911 -3.60263 255 0 0
-20.4642 22.0003 -3.62476 255 0 0
-20.5363 21.9731 -3.62634 255 0 0
-20.6283 21.967 -3.6295 255 0 0
-19.5468 23.3449 -4.15454 255 0 0
-19.516 24.5832 -4.22108 255 0 0
-20.5144 21.9496 -3.87515 255 0 0
-19.4612 26.1289 -4.03345 255 0 0
-19.4285 25.9564 -4.0236 255 0 0
-19.4549 25.8635 -4.01996 255 0 0
-19.5207 25.6965 -4.01412 255 0 0
-19.4788 25.5155 -4.00354 255 0 0
-19.4716 25.3811 -3.99661 255 0 0
-19.4711 25.2562 -3.99041 255 0 0
-19.445 25.0991 -3.98166 255 0 0
-19.4327 24.9607 -3.97436 255 0 0
-19.4918 24.9145 -3.97436 255 0 0
-19.4503 24.6201 -3.95831 255 0 0
-19.4687 24.5235 -3.9543 255 0 0
-19.443 24.3722 -3.94591 255 0 0
-19.4641 24.2805 -3.94226 255 0 0
-19.4447 24.1387 -3.93461 255 0 0
-19.4136 23.9835 -3.92585 255 0 0
-19.4372 23.8966 -3.92257 255 0 0
-19.4616 23.582 -3.90834 255 0 0
-19.4354 23.4368 -3.90032 255 0 0
-19.4273 23.3143 -3.89412 255 0 0
-19.415 23.1875 -3.88755 255 0 0
-19.5001 23.1772 -3.89047 255 0 0
-19.5189 22.9776 -3.88172 255 0 0
-19.4216 22.7534 -3.86713 255 0 0
-19.4337 22.6585 -3.86312 255 0 0
-19.4683 22.5903 -3.86129 255 0 0
-19.4554 22.2532 -3.84488 255 0 0
-19.4733 22.1675 -3.8416 255 0 0
-19.5143 22.1081 -3.8405 255 0 0
-19.7543 21.9568 -3.84342 255 0 0
-19.8612 21.9706 -3.84853 255 0 0
-19.9407 21.9538 -3.85108 255 0 0
-19.3641 26.1277 -4.30126 255 0 0
-19.3876 26.0301 -4.29671 255 0 0
-19.5559 25.7428 -4.28762 255 0 0
-19.4538 25.3578 -4.26158 255 0 0
-19.4746 25.2607 -4.25704 255 0 0
-19.513 25.1868 -4.25456 255 0 0
-19.499 24.9238 -4.23926 255 0 0
-19.4678 24.7627 -4.22893 255 0 0
-19.4376 24.1299 -4.19256 255 0 0
-19.4837 24.0701 -4.19132 255 0 0
-19.4535 23.8011 -4.1752 255 0 0
-19.4695 23.5914 -4.16446 255 0 0
-19.4321 23.4328 -4.15412 255 0 0
-19.4465 23.3373 -4.14958 255 0 0
-19.5983 23.294 -4.15412 255 0 0
-19.6396 22.8987 -4.1347 255 0 0
-19.4498 22.4609 -4.10246 255 0 0
-19.4646 22.3707 -4.09833 255 0 0
-19.4677 22.2673 -4.09296 255 0 0
-19.5266 22.1222 -4.088 255 0 0
-19.7785 21.9838 -4.09254 255 0 0
-20.1677 21.9932 -4.11155 255 0 0
-20.3591 21.9916 -4.12065 255 0 0
-19.4711 24.4075 -4.47032 255 0 0
-19.4937 25.1619 -4.51835 255 0 0
-19.5013 24.9266 -4.50404 255 0 0
-19.4745 24.6507 -4.48556 255 0 0
-19.424 24.4673 -4.47171 255 0 0
-19.4778 24.2975 -4.46386 255 0 0
-19.4767 24.1785 -4.45647 255 0 0
-19.4128 23.9825 -4.44123 255 0 0
-19.4014 23.6228 -4.4186 255 0 0
-19.4313 23.5452 -4.41537 255 0 0
-19.4709 23.2543 -4.39966 255 0 0
-19.3977 22.8349 -4.37057 255 0 0
-19.4443 22.78 -4.36964 255 0 0
-19.3956 22.6142 -4.35717 255 0 0
-19.4793 22.3876 -4.34794 255 0 0
-19.4863 22.2886 -4.3424 255 0 0
-19.499 22.0909 -4.33131 255 0 0
-19.8652 21.9751 -4.34378 255 0 0
-20.0558 21.9755 -4.35394 255 0 0
-20.3147 21.9437 -4.36595 255 0 0
-19.7653 22.0741 -4.09668 255 0 0
-19.7608 22.0691 -4.34378 255 0 0
-19.5472 22.0399 -3.83868 255 0 0
-19.5886 22.0866 -2.859 255 0 0
-19.6944 21.9949 -3.84269 255 0 0
-19.6298 22.1331 -3.10695 255 0 0
-19.6673 22.0697 -3.59852 255 0 0
-19.5591 22.0533 -4.33224 255 0 0
