ply
format ascii 1.0
comment Created by Open3D
element vertex 678
property double x
property double y
property double z
property uchar red
property uchar green
property uchar blue
end_header
11.6129 6.95171 -2.28126 0 0 255
13.1419 6.76499 -3.29316 0 0 255
12.4997 6.661 -3.00225 0 0 255
11.7569 7.38319 -2.40395 0 0 255
11.5163 7.19404 -2.3951 0 0 255
14.0563 6.98451 -3.24186 0 0 255
13.972 7.02543 -2.45504 0 0 255
11.669 6.50546 -2.72243 0 0 255
12.6231 6.65007 -3.24825 0 0 255
14.0897 7.04286 -2.72054 0 0 255
13.2056 6.75817 -3.79641 0 0 255
13.0831 6.81338 -2.55194 0 0 255
13.0603 6.72295 -3.77881 0 0 255
12.3081 6.67171 -2.40736 0 0 255
13.2237 6.80706 -2.92827 0 0 255
11.7654 6.48627 -3.288 0 0 255
12.8281 6.75807 -2.54253 0 0 255
12.9476 6.74282 -2.91113 0 0 255
15.2806 7.3237 -3.48249 0 0 255
15.1595 7.26566 -4.17765 0 0 255
12.3964 6.64372 -2.99523 0 0 255
11.3175 7.93906 -2.40225 0 0 255
11.2767 8.01056 -2.51757 0 0 255
11.6516 7.20199 -2.51253 0 0 255
13.3312 6.78264 -4.31808 0 0 255
12.6548 6.74364 -2.41724 0 0 255
11.32 7.94085 -2.63251 0 0 255
11.7916 6.53718 -2.61672 0 0 255
12.8834 6.78722 -2.42371 0 0 255
13.2355 6.85291 -2.30972 0 0 255
13.3445 6.78939 -4.44798 0 0 255
11.3061 7.99117 -2.63331 0 0 255
15.0343 7.24954 -3.74026 0 0 255
12.7687 6.64965 -3.9867 0 0 255
14.0717 6.99218 -4.1684 0 0 255
11.5992 7.01846 -2.50728 0 0 255
11.6052 7.02209 -2.62047 0 0 255
13.2873 6.83979 -2.80811 0 0 255
15.897 7.48057 -3.5371 0 0 255
13.8491 6.96364 -3.0969 0 0 255
13.3594 6.83692 -2.93666 0 0 255
12.7736 6.65219 -4.23199 0 0 255
16.1839 7.61555 -4.16597 0 0 255
14.0894 7.04267 -2.58938 0 0 255
15.3629 7.31842 -3.77426 0 0 255
15.4116 7.38651 -2.49728 0 0 255
11.4919 7.25482 -2.39544 0 0 255
11.7865 6.42523 -4.08044 0 0 255
11.2752 7.98942 -2.74725 0 0 255
13.0314 6.70807 -4.27145 0 0 255
15.3794 7.32629 -2.35401 0 0 255
12.21 6.65606 -2.40463 0 0 255
12.412 6.57653 -3.81959 0 0 255
15.5885 7.42587 -2.78984 0 0 255
14.585 7.11834 -4.23964 0 0 255
12.5864 6.63079 -3.60291 0 0 255
14.6805 7.16493 -3.70322 0 0 255
12.1184 6.53176 -3.55112 0 0 255
12.6835 6.7204 -2.65659 0 0 255
15.2802 7.27904 -4.33569 0 0 255
12.9014 6.71872 -3.15088 0 0 255
11.7898 7.52128 -2.87283 0 0 255
12.5537 6.61351 -3.71828 0 0 255
14.4216 7.12349 -2.60186 0 0 255
15.5139 7.34527 -4.22353 0 0 255
11.9033 6.4889 -3.52752 0 0 255
11.6621 6.94368 -2.39493 0 0 255
16.2541 7.60157 -2.9703 255 0 0
11.194 8.23475 -2.51998 0 0 255
11.8628 6.57667 -2.28187 0 0 255
13.474 6.81511 -4.46877 0 0 255
13.5389 6.92876 -2.31605 0 0 255
11.5567 7.049 -2.50651 0 0 255
12.7294 6.70609 -2.898 0 0 255
14.2822 7.05463 -4.46873 0 0 255
15.2038 7.28688 -3.05229 0 0 255
14.3316 7.0368 -3.79893 0 0 255
11.401 7.62034 -2.39901 0 0 255
13.0175 6.74003 -3.40535 0 0 255
15.4344 7.35246 -2.49745 0 0 255
11.9649 6.52247 -3.30644 0 0 255
11.3711 7.63943 -2.74077 0 0 255
12.145 6.62061 -2.51757 0 0 255
15.5167 7.30162 -2.49898 0 0 255
13.5853 6.91192 -2.82424 0 0 255
11.5657 7.03572 -2.3939 0 0 255
15.6872 7.38184 -4.39253 0 0 255
13.2236 6.76739 -3.67372 0 0 255
11.3192 7.74168 -2.62729 0 0 255
13.5843 6.87091 -3.20445 0 0 255
13.8232 6.90963 -3.74124 0 0 255
14.6684 7.20215 -2.47548 0 0 255
11.2765 7.89036 -2.286 0 0 255
11.8859 6.58949 -2.39544 0 0 255
13.0523 6.71884 -3.65405 0 0 255
13.2084 6.83884 -2.55654 0 0 255
13.2658 6.789 -3.17905 0 0 255
12.5335 6.64088 -3.12224 0 0 255
13.4096 6.82253 -3.94897 0 0 255
11.6467 6.49302 -2.94357 0 0 255
11.3653 7.79299 -2.28637 0 0 255
13.5006 6.86883 -2.94542 0 0 255
11.2966 8.02473 -2.63385 0 0 255
12.8136 6.75045 -4.24455 0 0 255
12.7771 6.76997 -4.24096 0 0 255
12.7034 6.73094 -2.53793 0 0 255
14.7287 7.18847 -2.61324 0 0 255
15.6058 7.34352 -4.52635 0 0 255
14.1963 7.01215 -4.31929 0 0 255
11.8369 6.45269 -3.97474 0 0 255
13.5916 6.87459 -3.97304 0 0 255
15.6736 7.42086 -2.93774 0 0 255
12.8882 6.75079 -3.02953 0 0 255
12.1015 6.4857 -4.24485 0 0 255
11.5422 7.09662 -2.39425 0 0 255
11.2254 8.25784 -2.40549 0 0 255
15.1142 7.3323 -2.62857 0 0 255
11.8267 7.00377 -2.85788 0 0 255
12.4907 6.58036 -3.94828 0 0 255
13.6322 6.93575 -2.5723 0 0 255
16.2039 7.53134 -4.01331 0 0 255
11.6429 6.49093 -2.83198 0 0 255
13.7941 6.93599 -2.96366 0 0 255
13.4155 6.90582 -2.43903 0 0 255
14.0721 9.07146 -2.34792 255 0 0
11.6732 6.5441 -2.2781 0 0 255
11.6471 6.52949 -2.49962 0 0 255
11.4228 7.63494 -2.28552 0 0 255
11.6752 7.25488 -2.62876 0 0 255
12.7841 6.69621 -3.38355 0 0 255
11.5081 7.05684 -2.28053 0 0 255
14.0693 8.99898 -2.48595 255 0 0
15.4757 7.32718 -4.36291 0 0 255
16.3252 7.58772 -4.18005 0 0 255
11.7857 7.01725 -2.74172 0 0 255
12.3443 6.57821 -3.57603 0 0 255
11.7289 7.02115 -2.73919 0 0 255
11.817 6.99799 -2.28539 0 0 255
12.3623 6.55021 -3.93067 0 0 255
14.1539 7.03304 -3.11839 0 0 255
14.4963 7.11765 -4.50281 0 0 255
11.8979 6.44938 -4.21273 0 0 255
12.0157 7.62541 -2.65097 0 0 255
15.1112 7.24254 -4.31248 0 0 255
11.9875 6.53476 -3.08022 0 0 255
12.1471 6.51012 -3.90185 0 0 255
11.5851 7.16089 -2.39629 0 0 255
11.3282 7.84679 -2.28637 0 0 255
15.8757 7.47052 -3.24156 0 0 255
12.0019 6.50578 -3.76844 0 0 255
12.5227 6.71143 -2.29525 0 0 255
12.665 6.67217 -3.37238 0 0 255
14.4297 7.08497 -3.54113 0 0 255
14.3173 7.11423 -2.33223 0 0 255
15.6631 7.4159 -3.51618 0 0 255
11.6326 7.26671 -2.85606 0 0 255
11.6721 7.02482 -2.73666 0 0 255
11.9816 6.56845 -2.73887 0 0 255
15.9448 7.45694 -3.68753 0 0 255
13.5351 6.84601 -4.09316 0 0 255
12.7951 6.81843 -4.37051 0 0 255
15.0728 7.26812 -3.18411 0 0 255
11.8212 6.55363 -2.50575 0 0 255
11.2369 8.06276 -2.40242 0 0 255
13.8665 7.01363 -2.45215 0 0 255
12.34 6.57592 -3.45791 0 0 255
12.3419 6.65226 -2.64134 0 0 255
11.985 6.45986 -4.11004 0 0 255
14.1285 7.02039 -3.64493 0 0 255
11.7834 6.94042 -2.62555 0 0 255
11.3499 7.86183 -2.40174 0 0 255
11.8992 6.56004 -2.62154 0 0 255
13.5673 6.94332 -2.44346 0 0 255
11.9655 6.59657 -2.28393 0 0 255
13.3292 6.86137 -2.68575 0 0 255
11.6585 7.09215 -2.62422 0 0 255
13.7634 6.96151 -2.57712 0 0 255
12.6524 6.70393 -2.77428 0 0 255
14.717 7.1396 -3.98084 0 0 255
12.1719 6.59793 -2.74867 0 0 255
11.2774 8.01105 -2.28746 0 0 255
13.1682 6.77851 -3.41987 0 0 255
11.6404 7.31 -2.28564 0 0 255
11.6685 6.91005 -2.39459 0 0 255
14.6276 7.18211 -2.60974 0 0 255
14.0136 6.9633 -4.29213 0 0 255
15.0934 7.23399 -4.45167 0 0 255
13.3848 6.8099 -3.69207 0 0 255
12.3957 8.28518 -2.68201 255 0 0
11.3521 7.90326 -2.51757 0 0 255
12.9033 6.71973 -3.39473 0 0 255
15.0793 7.27123 -3.46463 0 0 255
12.2623 6.60935 -2.98572 0 0 255
11.7275 7.32598 -2.74773 0 0 255
12.4496 6.67225 -2.52852 0 0 255
11.9071 6.49094 -3.64225 0 0 255
11.8896 6.48141 -3.75415 0 0 255
12.9425 6.77922 -2.54669 0 0 255
11.8198 7.15192 -2.86226 0 0 255
12.362 6.62531 -2.87539 0 0 255
11.3629 7.69269 -2.39927 0 0 255
12.2387 6.63412 -2.63679 0 0 255
12.3008 6.63008 -2.75563 0 0 255
11.6846 6.9571 -2.2826 0 0 255
13.5348 6.88622 -3.07458 0 0 255
13.6918 6.92528 -3.08574 0 0 255
15.4412 7.31084 -2.49711 0 0 255
11.6358 7.30713 -2.74298 0 0 255
12.6231 6.6119 -3.84592 0 0 255
13.6664 6.87181 -3.72354 0 0 255
13.3975 6.89653 -2.31313 0 0 255
11.318 8.03989 -2.40395 0 0 255
11.3357 7.77267 -2.51428 0 0 255
16.3051 7.5314 -4.32658 0 0 255
12.2091 6.54338 -3.67745 0 0 255
11.7744 6.5277 -2.95266 0 0 255
13.0214 6.82053 -2.30547 0 0 255
12.0675 6.5413 -3.31594 0 0 255
12.1139 6.52936 -3.43483 0 0 255
11.7403 6.43618 -3.96117 0 0 255
12.6048 6.71701 -2.53443 0 0 255
11.4466 7.80891 -2.28795 0 0 255
11.8687 6.5432 -2.73287 0 0 255
11.2767 8.05088 -2.51844 0 0 255
12.7949 6.77939 -2.42132 0 0 255
12.8767 6.66711 -4.24724 0 0 255
11.4021 7.73901 -2.28637 0 0 255
12.6091 6.60455 -3.96429 0 0 255
15.6184 7.39476 -3.07855 0 0 255
14.2653 7.04626 -4.06105 0 0 255
12.6473 6.66284 -3.13102 0 0 255
11.6104 7.02523 -2.73381 0 0 255
14.0833 6.99793 -2.98153 0 0 255
15.5622 7.41334 -2.64499 0 0 255
12.3771 6.67122 -2.52611 0 0 255
11.6998 6.94736 -2.50914 0 0 255
11.9192 6.49754 -3.4154 0 0 255
12.7303 6.74516 -2.29938 0 0 255
11.661 7.34228 -2.86007 0 0 255
13.2981 6.80556 -3.30694 0 0 255
14.5245 7.13151 -3.41564 0 0 255
13.4698 6.89342 -2.56617 0 0 255
12.8879 6.6729 -4.49688 0 0 255
12.6316 6.73128 -2.29744 0 0 255
12.3855 6.60013 -3.22784 0 0 255
12.3323 6.57182 -3.69223 0 0 255
12.5299 6.63902 -3.2406 0 0 255
12.4018 6.6088 -3.34723 0 0 255
13.942 7.01035 -2.58391 0 0 255
11.472 7.70724 -2.51713 0 0 255
12.1378 6.50517 -4.01718 0 0 255
12.2022 6.65183 -2.2888 0 0 255
14.5626 7.10739 -4.3736 0 0 255
13.4867 6.82152 -4.34229 0 0 255
15.2652 7.4952 -2.3534 0 0 255
12.7533 6.71871 -3.02003 0 0 255
11.3805 7.84317 -2.28722 0 0 255
11.9784 6.60368 -2.39799 0 0 255
12.1455 6.5836 -2.86226 0 0 255
13.4548 6.8455 -3.44725 0 0 255
11.8777 7.03398 -2.74646 0 0 255
15.3049 7.44725 -2.3537 0 0 255
13.0498 6.83541 -2.42865 0 0 255
15.2965 7.33135 -2.77592 0 0 255
14.7416 7.15152 -3.29635 0 0 255
11.5406 7.24734 -2.50991 0 0 255
15.8623 7.41834 -4.41654 0 0 255
11.7963 6.43056 -4.19666 0 0 255
13.6209 6.8894 -3.59149 0 0 255
15.3665 7.38728 -2.35431 0 0 255
11.529 7.05091 -2.39322 0 0 255
14.4071 7.07384 -4.07911 0 0 255
12.7511 6.71751 -2.77934 0 0 255
15.3862 7.2848 -2.35376 0 0 255
14.6071 7.21508 -2.33856 0 0 255
14.1486 7.07225 -2.3287 0 0 255
13.9592 7.019 -2.32469 0 0 255
13.7858 6.97281 -2.32104 0 0 255
13.6805 6.96035 -2.31897 0 0 255
13.131 6.83831 -2.30766 0 0 255
12.8602 6.77499 -2.30206 0 0 255
12.3985 6.68278 -2.29269 0 0 255
12.2849 6.65915 -2.29038 0 0 255
12.0992 6.6329 -2.28673 0 0 255
11.7602 6.55632 -2.2798 0 0 255
11.3728 8.03835 -2.28941 0 0 255
11.5412 6.94602 -2.27992 0 0 255
11.5139 6.9855 -2.27986 0 0 255
11.4829 7.09774 -2.28053 0 0 255
11.6053 7.21146 -2.28393 0 0 255
11.5981 7.24516 -2.28418 0 0 255
11.3921 7.57542 -2.2843 0 0 255
11.4387 7.68485 -2.28637 0 0 255
11.3671 7.67591 -2.28503 0 0 255
11.3624 7.91042 -2.28771 0 0 255
11.3583 7.98779 -2.28856 0 0 255
13.1728 6.78087 -3.54474 0 0 255
16.195 7.5272 -3.71212 0 0 255
12.4524 6.59795 -3.58783 0 0 255
15.2816 7.41352 -2.49421 0 0 255
11.9741 6.52744 -3.19314 0 0 255
15.7666 7.41918 -2.652 0 0 255
14.2632 7.08736 -2.59595 0 0 255
15.2851 7.46 -2.49489 0 0 255
14.5329 7.09289 -3.95831 0 0 255
13.9995 6.95631 -3.36767 0 0 255
13.709 6.97483 -2.44755 0 0 255
14.9224 7.19558 -4.00618 0 0 255
12.4352 6.58883 -3.7042 0 0 255
12.0953 6.55639 -3.08853 0 0 255
15.3624 7.40778 -2.49626 0 0 255
14.4834 7.15397 -2.47003 0 0 255
14.3144 7.11276 -2.46509 0 0 255
14.1613 7.07864 -2.46066 0 0 255
13.2744 6.87302 -2.43495 0 0 255
13.149 6.84771 -2.43137 0 0 255
12.5459 6.72386 -2.41417 0 0 255
12.4372 6.70361 -2.41111 0 0 255
12.1018 6.63434 -2.40157 0 0 255
11.768 6.56066 -2.39203 0 0 255
11.6861 6.55133 -2.38982 0 0 255
11.38 8.04344 -2.40549 0 0 255
11.5853 6.93524 -2.39288 0 0 255
11.6324 7.03858 -2.39561 0 0 255
11.4786 7.13274 -2.39322 0 0 255
11.3621 7.75122 -2.40021 0 0 255
11.3871 7.80792 -2.40174 0 0 255
11.3926 7.85151 -2.40259 0 0 255
11.3793 7.92216 -2.40344 0 0 255
11.2512 8.0327 -2.40225 0 0 255
15.2053 7.33203 -2.63163 0 0 255
15.313 7.29463 -4.1972 0 0 255
12.8873 6.71138 -3.27122 0 0 255
11.5437 7.02236 -2.73065 0 0 255
11.3383 7.65646 -2.62582 0 0 255
15.3651 7.36423 -2.63755 0 0 255
13.3442 6.8691 -2.56157 0 0 255
12.2481 6.6392 -2.52129 0 0 255
12.0471 6.60438 -2.51407 0 0 255
11.9495 6.58773 -2.51056 0 0 255
11.7341 6.54175 -2.50268 0 0 255
11.5707 6.81513 -2.50246 0 0 255
11.6667 7.00275 -2.50914 0 0 255
11.5988 7.13143 -2.50947 0 0 255
15.4659 7.36747 -2.92636 0 0 255
11.6123 7.25406 -2.51231 0 0 255
11.6619 7.36214 -2.51604 0 0 255
11.7679 7.46815 -2.52151 0 0 255
11.4394 7.29777 -2.50772 0 0 255
14.0178 8.98948 -2.6231 255 0 0
14.0554 9.06073 -2.62572 255 0 0
11.3664 7.67547 -2.51319 0 0 255
11.3492 7.74248 -2.51407 0 0 255
11.3991 7.85598 -2.51801 0 0 255
11.342 7.85633 -2.51625 0 0 255
11.3094 7.91338 -2.51647 0 0 255
11.3193 7.96037 -2.51779 0 0 255
11.3147 7.99731 -2.51844 0 0 255
11.3898 7.65203 -2.85642 0 0 255
11.6432 7.3503 -2.74456 0 0 255
12.854 6.73283 -2.90566 0 0 255
12.4534 6.59845 -3.46944 0 0 255
13.0347 6.70978 -4.39696 0 0 255
12.1753 6.56245 -3.326 0 0 255
11.7242 6.42732 -4.30031 0 0 255
12.0889 6.51587 -3.77897 0 0 255
15.304 7.29037 -4.48307 0 0 255
11.6943 6.51955 -2.61244 0 0 255
16.2343 7.59233 -2.8198 255 0 0
16.031 7.54364 -2.81044 0 0 255
15.7171 7.44146 -2.79545 0 0 255
15.0947 7.27868 -2.76656 0 0 255
14.9037 7.2302 -2.75773 0 0 255
14.7078 7.17829 -2.74863 0 0 255
14.5438 7.14096 -2.74114 0 0 255
14.38 7.10289 -2.73365 0 0 255
14.2269 7.06929 -2.72669 0 0 255
13.9235 7.00191 -2.7018 0 0 255
13.7482 6.95383 -2.70475 0 0 255
13.6222 6.93071 -2.69913 0 0 255
13.486 6.90169 -2.69298 0 0 255
13.2194 6.84454 -2.68094 0 0 255
13.063 6.80292 -2.67371 0 0 255
12.9588 6.78774 -2.66917 0 0 255
12.8133 6.75029 -2.66248 0 0 255
12.5643 6.69544 -2.65124 0 0 255
12.4556 6.67548 -2.64642 0 0 255
12.1151 6.60432 -2.63117 0 0 255
12.043 6.6021 -2.62823 0 0 255
11.6782 6.9345 -2.62127 0 0 255
11.5624 6.94014 -2.61686 0 0 255
11.5917 7.08925 -2.62154 0 0 255
11.6347 7.15348 -2.62475 0 0 255
11.7023 7.23333 -2.6293 0 0 255
11.519 7.19577 -2.62127 0 0 255
11.6307 7.30394 -2.62823 0 0 255
11.6678 7.36584 -2.63117 0 0 255
11.9828 7.64444 -2.65017 0 0 255
11.3095 7.85369 -2.62983 0 0 255
13.9875 6.95035 -3.89144 0 0 255
12.4808 6.65095 -2.88268 0 0 255
12.541 6.64487 -3.36064 0 0 255
16.4609 7.6508 -4.35141 0 0 255
11.6256 7.2241 -2.74014 0 0 255
16.1109 7.53462 -3.85441 0 0 255
11.7886 7.48127 -2.755 0 0 255
15.2607 7.26973 -4.04701 0 0 255
16.1668 7.56075 -3.11393 0 0 255
14.6807 7.16506 -2.88336 0 0 255
13.5487 6.85289 -3.83865 0 0 255
11.662 6.46538 -3.1666 0 0 255
15.9239 7.49321 -2.95165 0 0 255
15.2586 7.31315 -2.91498 0 0 255
15.0832 7.27312 -2.90549 0 0 255
14.8765 7.21699 -2.89411 0 0 255
14.522 7.13027 -2.87482 0 0 255
14.3216 7.07405 -2.86376 0 0 255
14.1529 7.03254 -2.85459 0 0 255
14.0055 7.00072 -2.84668 0 0 255
13.8582 6.96825 -2.83878 0 0 255
13.7164 6.93775 -2.83119 0 0 255
13.4284 6.8722 -2.8157 0 0 255
13.1308 6.79869 -2.79958 0 0 255
13.0058 6.7731 -2.79294 0 0 255
12.8964 6.75508 -2.78725 0 0 255
12.5333 6.67891 -2.76796 0 0 255
12.3886 6.63956 -2.76006 0 0 255
12.0844 6.58759 -2.74425 0 0 255
11.7611 6.5203 -2.72717 0 0 255
11.6368 7.11682 -2.73761 0 0 255
11.6747 7.17807 -2.74109 0 0 255
11.5731 7.15347 -2.73571 0 0 255
11.9828 7.64442 -2.76859 0 0 255
12.0926 7.75487 -2.77681 0 0 255
11.9317 7.69165 -2.76764 0 0 255
13.9045 6.95028 -3.49028 0 0 255
13.413 6.82426 -3.31664 0 0 255
14.5515 7.10197 -3.28111 0 0 255
14.465 7.10228 -3.1403 0 0 255
15.8421 7.45475 -3.09277 0 0 255
15.432 7.35134 -3.06688 0 0 255
15.0601 7.26199 -3.04353 0 0 255
14.822 7.19055 -3.02821 0 0 255
14.6106 7.13083 -3.01472 0 0 255
14.4887 7.11394 -3.00742 0 0 255
14.257 7.04216 -2.99247 0 0 255
13.9673 6.98166 -2.9746 0 0 255
13.6629 6.91065 -2.95563 0 0 255
13.0881 6.77659 -2.91989 0 0 255
12.6153 6.68427 -2.89107 0 0 255
12.2742 6.61578 -2.87028 0 0 255
12.058 6.57322 -2.85715 0 0 255
11.9553 6.55403 -2.85095 0 0 255
11.8425 6.52875 -2.84402 0 0 255
11.7401 6.50864 -2.83782 0 0 255
11.8553 7.0587 -2.86116 0 0 255
11.7783 7.05077 -2.85678 0 0 255
11.8066 7.1058 -2.86007 0 0 255
11.8227 7.19208 -2.86372 0 0 255
11.8007 7.21704 -2.86335 0 0 255
11.7089 7.19909 -2.85788 0 0 255
11.5824 7.15923 -2.84985 0 0 255
11.6051 7.21135 -2.85277 0 0 255
11.7336 7.44634 -2.86736 0 0 255
11.8703 7.61231 -2.88013 0 0 255
12.0153 6.4762 -3.99935 0 0 255
14.6865 7.16787 -3.15642 0 0 255
12.7628 6.7624 -4.48497 0 0 255
14.8441 7.20128 -3.72022 0 0 255
11.6944 6.44714 -3.39233 0 0 255
11.9286 6.46602 -3.98747 0 0 255
16.1631 7.55904 -3.26263 0 0 255
15.689 7.42816 -3.22833 0 0 255
15.5079 7.38747 -3.21552 0 0 255
15.2691 7.31819 -3.19816 0 0 255
14.8086 7.18402 -3.16468 0 0 255
14.3067 7.06672 -3.12914 0 0 255
13.9909 6.99346 -3.10682 0 0 255
13.4092 6.86241 -3.0659 0 0 255
13.2475 6.81933 -3.05433 0 0 255
13.1172 6.79164 -3.04524 0 0 255
13.0078 6.77417 -3.0378 0 0 255
12.6393 6.69697 -3.01217 0 0 255
12.1542 6.5883 -2.97828 0 0 255
12.077 6.58356 -2.97332 0 0 255
11.9794 6.56725 -2.96671 0 0 255
11.8615 6.53924 -2.95844 0 0 255
13.7116 6.89452 -3.98809 0 0 255
12.1117 6.52818 -3.66619 0 0 255
12.7173 6.66127 -4.10289 0 0 255
14.1307 7.02152 -4.44542 0 0 255
12.9153 6.68708 -3.76122 0 0 255
16.2271 7.58896 -3.41735 255 0 0
15.9186 7.49072 -3.39195 0 0 255
15.7161 7.44102 -3.37579 0 0 255
15.5404 7.40295 -3.36193 0 0 255
15.1122 7.24299 -3.32591 0 0 255
14.9057 7.18754 -3.30928 0 0 255
14.3826 7.06184 -3.26772 0 0 255
14.2141 7.02096 -3.25433 0 0 255
13.883 6.93952 -3.228 0 0 255
13.7153 6.89637 -3.21461 0 0 255
13.4275 6.83164 -3.19198 0 0 255
13.1407 6.76433 -3.16935 0 0 255
13.0157 6.73911 -3.15965 0 0 255
12.8027 6.70596 -3.14349 0 0 255
12.4198 6.61842 -3.11347 0 0 255
12.2909 6.58719 -3.10331 0 0 255
12.1827 6.56646 -3.095 0 0 255
11.8849 6.51546 -3.07237 0 0 255
11.7672 6.48726 -3.06313 0 0 255
14.3611 7.09359 -3.40135 0 0 255
13.2441 6.7779 -4.17926 0 0 255
14.9196 7.19426 -4.42621 0 0 255
14.9159 7.19246 -3.8658 0 0 255
16.237 7.59359 -3.56823 0 0 255
15.498 7.38277 -3.50189 0 0 255
14.9255 7.24077 -3.45136 0 0 255
14.7144 7.18148 -3.43248 0 0 255
13.6902 6.88374 -3.34062 0 0 255
13.5749 6.86616 -3.33093 0 0 255
12.9964 6.72908 -3.28041 0 0 255
12.7628 6.68508 -3.2605 0 0 255
12.2824 6.58263 -3.21917 0 0 255
12.1846 6.56745 -3.211 0 0 255
12.0715 6.54351 -3.2013 0 0 255
11.8614 6.50254 -3.18344 0 0 255
11.7642 6.48558 -3.17528 0 0 255
12.7881 6.65973 -3.86774 0 0 255
11.707 6.41791 -4.41135 0 0 255
14.3637 7.05252 -4.3439 0 0 255
14.2338 7.03072 -4.19081 0 0 255
13.8467 6.92138 -4.26752 0 0 255
13.0683 6.72708 -4.15296 0 0 255
15.7056 7.39049 -3.66406 0 0 255
15.5353 7.35538 -3.64786 0 0 255
15.3283 7.30195 -3.62774 0 0 255
15.1848 7.27781 -3.61433 0 0 255
14.9995 7.23279 -3.59645 0 0 255
14.7831 7.17166 -3.57522 0 0 255
14.6403 7.14533 -3.56181 0 0 255
14.2248 7.02624 -3.52101 0 0 255
14.0776 6.99511 -3.50704 0 0 255
13.7631 6.92039 -3.47687 0 0 255
13.6114 6.88461 -3.46234 0 0 255
13.314 6.81365 -3.43384 0 0 255
12.2936 6.58863 -3.33717 0 0 255
11.8625 6.50319 -3.29694 0 0 255
11.7345 6.39684 -4.52875 0 0 255
11.6881 6.44364 -3.84182 0 0 255
12.3733 6.55604 -4.05112 0 0 255
11.8713 6.47143 -3.86583 0 0 255
12.2836 6.54586 -3.80305 0 0 255
12.5669 6.62048 -3.48098 0 0 255
14.3858 7.06342 -4.21163 0 0 255
16.0403 7.548 -3.84834 0 0 255
15.5697 7.37169 -3.79612 0 0 255
15.1775 7.27428 -3.75483 0 0 255
14.4648 7.10218 -3.68014 0 0 255
14.3069 7.06683 -3.66375 0 0 255
13.9399 6.96794 -3.62489 0 0 255
13.762 6.91987 -3.60606 0 0 255
13.4799 6.85829 -3.57692 0 0 255
13.3184 6.81595 -3.55992 0 0 255
13.017 6.73978 -3.52834 0 0 255
12.8254 6.67917 -3.5077 0 0 255
12.2166 6.54739 -3.44515 0 0 255
12.0114 6.51089 -3.42451 0 0 255
11.7965 6.46699 -3.40265 0 0 255
12.1993 6.50092 -4.14232 0 0 255
16.1755 7.56481 -4.012 0 0 255
15.9838 7.52138 -3.99037 0 0 255
15.4452 7.31276 -3.92546 0 0 255
15.2545 7.26678 -3.90383 0 0 255
15.0956 7.23503 -3.88613 0 0 255
14.6946 7.12876 -3.84024 0 0 255
14.5365 7.09468 -3.82253 0 0 255
14.1741 7.00119 -3.78123 0 0 255
13.9959 6.95451 -3.76091 0 0 255
13.5307 6.8438 -3.70846 0 0 255
12.9278 6.69358 -3.64028 0 0 255
12.8139 6.67315 -3.62782 0 0 255
12.6846 6.64412 -3.6134 0 0 255
12.2364 6.55798 -3.56423 0 0 255
12.0005 6.50502 -3.53801 0 0 255
11.7961 6.46675 -3.51572 0 0 255
11.7043 6.45257 -3.50589 0 0 255
11.7775 6.45654 -3.73986 0 0 255
14.3386 7.04022 -3.93438 0 0 255
16.3485 7.55143 -4.18075 0 0 255
16.2335 7.59194 -4.17019 0 0 255
15.4775 7.32805 -4.07376 0 0 255
15.0809 7.22801 -4.02519 0 0 255
14.1499 6.98924 -3.91115 0 0 255
13.8306 6.91332 -3.87244 0 0 255
13.6739 6.87559 -3.85343 0 0 255
13.3718 6.80328 -3.81683 0 0 255
12.7911 6.6613 -3.74643 0 0 255
12.6517 6.62688 -3.72954 0 0 255
11.9991 6.50424 -3.65281 0 0 255
11.7948 6.46606 -3.62888 0 0 255
11.6929 6.4463 -3.61691 0 0 255
11.8305 6.41287 -4.54617 0 0 255
16.0535 7.50777 -4.29574 0 0 255
15.7625 7.41725 -4.25663 0 0 255
15.0167 7.24105 -4.15959 0 0 255
14.8218 7.19046 -4.13402 0 0 255
14.6117 7.13135 -4.10619 0 0 255
14.0613 6.98704 -4.03397 0 0 255
13.8629 6.92949 -4.00765 0 0 255
13.2487 6.78024 -3.92791 0 0 255
13.088 6.73722 -3.90685 0 0 255
12.9482 6.70415 -3.8888 0 0 255
12.4995 6.58497 -3.83013 0 0 255
12.1862 6.53108 -3.79101 0 0 255
11.6858 6.4424 -3.72858 0 0 255
13.7613 6.91949 -4.38713 0 0 255
13.2339 6.7727 -4.05154 0 0 255
16.3164 7.58363 -4.48298 0 0 255
14.9686 7.21789 -4.29327 0 0 255
14.7845 7.17234 -4.26766 0 0 255
13.8631 6.92957 -4.13879 0 0 255
13.7223 6.89988 -4.11957 0 0 255
13.3896 6.81232 -4.07315 0 0 255
13.0631 6.72442 -4.02752 0 0 255
12.8926 6.67537 -4.00351 0 0 255
12.2597 6.53313 -3.91706 0 0 255
12.0448 6.49212 -3.88825 0 0 255
11.9529 6.4792 -3.87624 0 0 255
11.7593 6.44658 -3.85063 0 0 255
12.8449 6.7281 -4.24724 0 0 255
14.6888 7.12594 -4.39142 0 0 255
15.4888 7.3334 -4.51023 0 0 255
13.7009 6.88913 -4.2463 0 0 255
13.5604 6.85884 -4.22594 0 0 255
13.3841 6.80953 -4.19963 0 0 255
12.9134 6.68613 -4.13004 0 0 255
12.7485 6.63912 -4.10543 0 0 255
12.6554 6.6671 -4.09525 0 0 255
12.2248 6.51451 -4.02906 0 0 255
11.705 6.41684 -4.18249 0 0 255
14.6951 7.17209 -4.5342 0 0 255
13.9433 6.96963 -4.41583 0 0 255
13.2069 6.75887 -4.29925 0 0 255
12.0818 6.47516 -4.12438 0 0 255
11.8831 6.44138 -4.09479 0 0 255
11.6952 6.41143 -4.06699 0 0 255
13.8369 6.91649 -4.52923 0 0 255
13.6656 6.8714 -4.50089 0 0 255
13.1946 6.75256 -4.42342 0 0 255
12.8545 6.65564 -4.36673 0 0 255
12.8233 6.67809 -4.36389 0 0 255
12.8894 6.75138 -4.37901 0 0 255
12.8525 6.79043 -4.37665 0 0 255
11.9996 6.46777 -4.22879 0 0 255
13.1089 6.74797 -4.53659 0 0 255
12.7901 6.66079 -4.48099 0 0 255
12.8612 6.73661 -4.49787 0 0 255
12.8605 6.77516 -4.50085 0 0 255
12.4208 6.61896 -4.42143 0 0 255
12.2067 6.54209 -4.38271 0 0 255
12.0083 6.47244 -4.34697 0 0 255
11.9016 6.4514 -4.3291 0 0 255
11.8306 6.44922 -4.31818 0 0 255
12.3416 6.57675 -4.52583 0 0 255
12.2396 6.55972 -4.50813 0 0 255
11.9907 6.46297 -4.46026 0 0 255
11.8791 6.43921 -4.44049 0 0 255
11.7829 6.42323 -4.42384 0 0 255
13.9686 8.95795 -2.75907 255 0 0
12.9207 7.19155 -2.4995 255 0 0
14.0541 9.01279 -2.34695 255 0 0
13.0472 7.262 -2.34711 255 0 0
13.0117 7.24223 -2.44419 255 0 0
13.0166 7.24493 -2.54245 255 0 0
13.4038 7.64539 -2.43996 255 0 0
13.7316 7.83238 -2.32587 255 0 0
11.7004 7.33968 -2.39381 0 0 255
