ply
format ascii 1.0
comment Created by Open3D
element vertex 149
property double x
property double y
property double z
property uchar red
property uchar green
property uchar blue
end_header
14.7229 23.2605 -4.63914 255 0 0
12.8622 23.007 -4.74822 255 0 0
15.2053 23.1628 -5.12191 255 0 0
14.1588 23.0897 -5.05176 255 0 0
13.7008 23.3242 -4.59332 255 0 0
13.6984 22.9449 -5.46167 255 0 0
13.841 23.3091 -4.59891 255 0 0
13.2631 22.9514 -5.43384 255 0 0
13.4209 23.352 -4.58215 255 0 0
12.8982 22.9436 -5.18736 255 0 0
13.9286 23.0811 -4.81076 255 0 0
13.797 22.9861 -5.24649 255 0 0
14.1666 22.98 -5.49702 255 0 0
13.5622 22.9635 -5.2296 255 0 0
14.0083 23.3382 -4.60953 255 0 0
13.6232 22.9424 -5.4564 255 0 0
13.4209 22.9723 -5.22186 255 0 0
13.5432 23.3083 -4.58438 255 0 0
13.4604 23.0399 -5.00653 255 0 0
14.7118 23.1215 -5.08782 255 0 0
12.7825 23.3825 -4.55477 255 0 0
14.3264 23.1162 -5.06422 255 0 0
14.2425 22.9809 -5.50229 255 0 0
12.9243 23.3777 -4.56091 255 0 0
14.1814 23.004 -5.27254 255 0 0
12.9648 22.9346 -5.41277 255 0 0
14.4027 23.1168 -5.06881 255 0 0
13.7772 23.0769 -4.80226 255 0 0
14.2635 23.0148 -5.27887 255 0 0
14.0039 23.0819 -5.04193 255 0 0
13.1029 23.0511 -4.98751 255 0 0
14.5712 23.0209 -5.29929 255 0 0
13.2057 23.3607 -4.57265 255 0 0
14.5405 22.9724 -5.52184 255 0 0
13.6168 23.056 -5.01702 255 0 0
14.0727 23.3199 -4.61121 255 0 0
14.1685 23.1055 -4.82595 255 0 0
14.697 23.0981 -4.85448 255 0 0
15.3967 23.0946 -5.36123 255 0 0
15.2794 23.1558 -5.12584 255 0 0
12.7421 22.9197 -5.39698 255 0 0
14.137 23.3014 -4.61288 255 0 0
13.0606 23.362 -4.56594 255 0 0
13.7105 23.0894 -4.79984 255 0 0
13.0253 23.0416 -4.98227 255 0 0
13.116 23.3309 -4.56594 255 0 0
13.3882 23.0415 -5.00259 255 0 0
14.4006 22.9919 -5.51432 255 0 0
13.4901 22.9655 -5.22537 255 0 0
13.1274 22.9674 -5.20355 255 0 0
13.244 23.0442 -4.99473 255 0 0
14.0298 23.0015 -5.26268 255 0 0
13.945 22.985 -5.25564 255 0 0
14.498 23.0258 -5.29506 255 0 0
13.0364 22.9341 -5.41729 255 0 0
13.5451 22.9346 -5.45038 255 0 0
13.919 23.0653 -5.03537 255 0 0
13.2524 23.3141 -4.57097 255 0 0
14.4797 23.1182 -4.84416 255 0 0
13.346 22.9689 -5.21693 255 0 0
13.9245 22.9511 -5.47746 255 0 0
12.8353 22.9589 -5.18525 255 0 0
15.5096 23.1449 -5.3739 255 0 0
14.4126 23.1327 -4.84173 255 0 0
14.8582 23.2297 -4.64361 255 0 0
14.8156 23.2846 -4.64585 255 0 0
14.6615 23.2855 -4.63803 255 0 0
14.5722 23.2659 -4.63188 255 0 0
14.4924 23.2608 -4.62741 255 0 0
14.4556 23.3248 -4.63076 255 0 0
14.3758 23.3193 -4.62629 255 0 0
14.2961 23.3136 -4.62182 255 0 0
14.2408 23.3474 -4.62182 255 0 0
13.9231 23.3213 -4.60394 255 0 0
13.759 23.2967 -4.59388 255 0 0
13.6337 23.3365 -4.59109 255 0 0
13.4791 23.3252 -4.58271 255 0 0
13.3481 23.3534 -4.5788 255 0 0
12.9825 23.3521 -4.56147 255 0 0
12.8464 23.3674 -4.55644 255 0 0
12.7688 23.4896 -4.56315 255 0 0
12.7075 23.5095 -4.56203 255 0 0
13.1913 22.9526 -5.42932 255 0 0
13.8528 23.0791 -4.80651 255 0 0
13.8725 22.9881 -5.25142 255 0 0
15.0908 23.1076 -4.87756 255 0 0
15.0486 23.1628 -4.87999 255 0 0
14.9715 23.1642 -4.87574 255 0 0
14.8851 23.1507 -4.86966 255 0 0
14.805 23.1466 -4.86481 255 0 0
14.5593 23.1232 -4.84902 255 0 0
14.3301 23.1222 -4.83627 255 0 0
14.2477 23.1115 -4.8308 255 0 0
14.0682 23.0645 -4.81684 255 0 0
13.6232 23.0667 -4.79316 255 0 0
13.5301 23.0337 -4.78526 255 0 0
13.4519 23.0255 -4.7804 255 0 0
13.3106 23.0335 -4.77373 255 0 0
13.2472 23.0499 -4.7719 255 0 0
13.1665 23.0357 -4.76644 255 0 0
13.1061 23.0567 -4.76522 255 0 0
13.0256 23.0421 -4.75976 255 0 0
12.931 23.0019 -4.75126 255 0 0
12.7276 23.0219 -4.74276 255 0 0
14.7886 23.1209 -5.09241 255 0 0
15.1185 23.1501 -5.11535 255 0 0
15.0192 23.1176 -5.10618 255 0 0
14.8685 23.1249 -5.09765 255 0 0
14.629 23.1121 -5.08192 255 0 0
14.5493 23.1073 -5.07667 255 0 0
14.4729 23.1072 -5.07209 255 0 0
14.2379 23.0957 -5.05701 255 0 0
14.0828 23.0884 -5.04717 255 0 0
13.8433 23.0633 -5.03078 255 0 0
13.7707 23.0661 -5.02685 255 0 0
13.6982 23.0686 -5.02292 255 0 0
13.5356 23.043 -5.01112 255 0 0
13.3189 23.048 -4.99932 255 0 0
13.1748 23.0503 -4.99145 255 0 0
12.9478 23.0319 -4.97703 255 0 0
12.879 23.0371 -4.97375 255 0 0
12.7989 23.0218 -4.96785 255 0 0
12.7274 23.0215 -4.96391 255 0 0
13.274 22.9703 -5.2127 255 0 0
14.0995 22.9929 -5.2662 255 0 0
14.4922 23.0166 -5.52335 255 0 0
15.3194 23.0971 -5.3563 255 0 0
15.2486 23.1091 -5.35278 255 0 0
15.1586 23.0917 -5.34504 255 0 0
15.0911 23.1081 -5.34223 255 0 0
14.4218 23.0257 -5.29014 255 0 0
14.3456 23.0253 -5.28521 255 0 0
13.7216 22.9838 -5.24156 255 0 0
13.6404 22.9713 -5.23523 255 0 0
13.205 22.9765 -5.20918 255 0 0
13.0528 22.9631 -5.19863 255 0 0
12.9783 22.9585 -5.1937 255 0 0
12.7526 22.9385 -5.17821 255 0 0
14.3246 22.9914 -5.50906 255 0 0
14.0878 22.9739 -5.491 255 0 0
14.0091 22.9676 -5.48499 255 0 0
13.855 22.9592 -5.4737 255 0 0
13.7826 22.9621 -5.46919 255 0 0
13.4701 22.9316 -5.44512 255 0 0
13.4069 22.9484 -5.44286 255 0 0
13.3292 22.94 -5.43684 255 0 0
13.108 22.9334 -5.4218 255 0 0
12.8905 22.9299 -5.40751 255 0 0
12.8191 22.93 -5.40299 255 0 0
