ply
format ascii 1.0
comment Created by Open3D
element vertex 851
property double x
property double y
property double z
property uchar red
property uchar green
property uchar blue
end_header
-8.00932 7.30965 -5.39417 0 0 255
-10.2387 6.80843 -4.86024 0 0 255
-10.1475 6.47359 -5.33265 0 0 255
-10.07 6.69624 -5.02585 0 0 255
-11.6336 6.30614 -5.66388 0 0 255
-9.09883 6.77692 -5.14125 0 0 255
-10.0281 7.71218 -4.72198 0 0 255
-11.3963 7.7746 -5.20915 255 0 0
-11.3569 6.40224 -5.0327 0 0 255
-7.81224 7.04536 -5.58322 0 0 255
-10.3104 7.50966 -5.07912 255 0 0
-8.3699 6.87419 -5.1936 0 0 255
-9.57387 7.9585 -4.89606 0 0 255
-10.0956 6.54198 -5.2234 0 0 255
-10.1449 7.02713 -5.30675 0 0 255
-9.8383 6.84933 -4.68376 0 0 255
-8.19145 6.95846 -5.26648 0 0 255
-11.5626 7.45373 -4.72156 0 0 255
-9.63084 7.8907 -4.78737 0 0 255
-10.2471 6.74412 -4.85361 0 0 255
-10.5407 6.48086 -5.20554 0 0 255
-9.11578 6.63953 -5.42737 0 0 255
-10.7707 6.65752 -4.72445 0 0 255
-10.8582 6.36086 -5.37192 0 0 255
-9.65687 8.22303 -4.95045 0 0 255
-7.97486 6.90575 -5.49566 0 0 255
-10.0929 6.677 -5.13506 0 0 255
-10.5451 7.30431 -4.64872 0 0 255
-9.27159 7.78187 -5.02869 0 0 255
-9.29869 6.60547 -5.26037 0 0 255
-9.35168 6.65979 -5.17875 0 0 255
-10.5638 7.84861 -4.71739 0 0 255
-9.98633 6.50485 -5.29983 0 0 255
-9.43131 6.93803 -4.7236 0 0 255
-9.20712 6.73952 -5.15922 0 0 255
-10.5962 6.92004 -4.6132 0 0 255
-7.94329 7.31875 -5.47969 0 0 255
-10.6092 6.66245 -5.02416 0 0 255
-8.84791 7.24923 -5.16703 0 0 255
-10.8191 6.68745 -4.8475 0 0 255
-8.54702 7.20833 -5.196 0 0 255
-10.6809 6.39384 -5.33555 0 0 255
-11.3763 6.34226 -5.25893 0 0 255
-11.0744 6.38215 -5.31127 0 0 255
-8.39613 6.8128 -5.28606 0 0 255
-10.1811 7.05222 -5.20848 0 0 255
-10.0768 7.86432 -4.75031 0 0 255
-10.1686 7.06144 -5.09762 0 0 255
-8.93214 7.75324 -5.27484 0 0 255
-10.2855 6.63047 -4.95409 0 0 255
-7.90949 7.0822 -5.715 0 0 255
-8.06811 7.20703 -5.3863 0 0 255
-9.3073 6.67822 -5.17172 0 0 255
-9.54996 6.85234 -4.73421 0 0 255
-8.88257 7.2425 -5.17328 0 0 255
-8.21997 7.60978 -5.30289 0 0 255
-9.06534 6.66881 -5.21692 0 0 255
-8.22318 7.46917 -5.27557 0 0 255
-8.92365 7.10155 -5.15765 0 0 255
-9.18767 8.05175 -5.27341 0 0 255
-8.21777 7.69868 -5.32028 0 0 255
-10.8517 6.42634 -5.26721 0 0 255
-11.2811 7.89359 -5.32369 255 0 0
-8.05345 7.31501 -5.30649 0 0 255
-10.4118 7.92899 -5.27456 255 0 0
-8.24711 7.10737 -5.21016 0 0 255
-9.36884 6.92637 -4.81257 0 0 255
-10.5764 6.96083 -4.61438 0 0 255
-10.6054 7.84059 -4.72331 0 0 255
-11.3176 6.27442 -5.46739 0 0 255
-8.0993 7.06407 -5.26619 0 0 255
-9.74917 6.56654 -5.25452 0 0 255
-9.02184 6.9724 -5.05518 0 0 255
-10.6884 6.46735 -5.23638 0 0 255
-10.5083 7.86552 -4.71029 0 0 255
-8.46765 6.80449 -5.30138 0 0 255
-10.0219 6.5619 -5.20976 0 0 255
-11.1765 6.58297 -4.67832 0 0 255
-10.763 6.54741 -4.93055 0 0 255
-8.8077 6.72388 -5.26729 0 0 255
-10.0335 6.87979 -5.25977 0 0 255
-8.21957 7.66386 -5.31366 0 0 255
-10.0683 7.81934 -4.74292 0 0 255
-10.5428 7.52689 -4.67477 0 0 255
-10.1325 6.77247 -4.83503 0 0 255
-11.1933 6.27507 -5.55295 0 0 255
-9.88333 6.53836 -5.28109 0 0 255
-9.55422 7.49299 -4.7183 0 0 255
-10.1036 6.47935 -5.32327 0 0 255
-10.8023 6.43175 -5.25694 0 0 255
-8.51588 8.05413 -5.35049 0 0 255
-9.31609 7.32408 -4.86066 0 0 255
-11.0616 6.56839 -4.88012 0 0 255
-11.4858 6.33212 -5.28167 0 0 255
-9.54452 7.41255 -4.7055 0 0 255
-11.0223 6.28269 -5.74091 0 0 255
-7.91583 7.24154 -5.45634 0 0 255
-8.61618 6.90706 -5.15658 0 0 255
-9.12464 6.84675 -5.0567 0 0 255
-9.20191 7.94922 -5.25826 0 0 255
-10.2262 6.76521 -4.63823 0 0 255
-10.0527 6.65041 -5.0159 0 0 255
-10.4057 6.44891 -5.28023 0 0 255
-10.1902 7.13028 -5.33252 0 0 255
-11.5468 6.40149 -5.07118 0 0 255
-10.1655 6.79454 -4.63084 0 0 255
-10.0054 6.91296 -4.61667 0 0 255
-11.2547 6.41514 -5.12721 0 0 255
-9.25401 7.45446 -4.97326 0 0 255
-9.77532 8.24424 -4.86285 0 0 255
-10.8215 6.61818 -4.83982 0 0 255
-8.85394 6.70948 -5.27557 0 0 255
-8.30616 6.90469 -5.28265 0 0 255
-8.54045 8.23221 -5.39073 0 0 255
-11.0348 6.49949 -5.09149 0 0 255
-8.22012 7.55579 -5.29213 0 0 255
-10.02 6.76624 -4.70678 0 0 255
-7.9483 6.94898 -5.49842 0 0 255
-8.50879 7.97132 -5.33279 0 0 255
-10.3467 6.46343 -5.26887 0 0 255
-10.4237 6.64981 -4.87616 0 0 255
-7.94674 6.8979 -5.68213 0 0 255
-9.33029 7.57079 -4.9005 0 0 255
-8.07274 7.10857 -5.26903 0 0 255
-9.01222 8.08888 -5.35296 0 0 255
-8.51856 8.01848 -5.34406 0 0 255
-8.6353 6.77232 -5.23583 0 0 255
-9.50391 7.38102 -4.79922 0 0 255
-9.74144 8.0978 -4.83598 0 0 255
-8.50821 7.91418 -5.32153 0 0 255
-8.01266 7.22611 -5.47609 0 0 255
-8.9219 6.86143 -5.72957 0 0 255
-9.13589 7.16491 -4.90504 0 0 255
-9.47146 8.22138 -5.13812 0 0 255
-8.49053 7.76729 -5.28934 0 0 255
-9.97841 6.94688 -4.61606 0 0 255
-10.2777 6.48826 -5.25674 0 0 255
-9.12218 6.9811 -5.07792 0 0 255
-9.96895 7.59171 -4.69612 0 0 255
-9.09265 8.08354 -5.36858 0 0 255
-9.61452 6.89866 -4.64922 0 0 255
-9.40158 7.05455 -4.73421 0 0 255
-9.26062 6.69474 -5.1639 0 0 255
-10.7492 6.50415 -4.92259 0 0 255
-9.93594 7.2189 -4.64254 0 0 255
-10.5232 7.4753 -4.66529 0 0 255
-9.61047 7.79814 -4.77074 0 0 255
-10.7014 6.64981 -4.7109 0 0 255
-8.94691 8.06865 -5.33577 0 0 255
-9.93501 7.41806 -4.66779 0 0 255
-11.5182 6.45726 -4.95623 0 0 255
-10.6343 6.4691 -5.22463 0 0 255
-9.30787 8.04076 -5.18645 0 0 255
-11.6691 7.83964 -5.27017 255 0 0
-11.6254 7.07205 -4.69201 0 0 255
-8.95115 7.00291 -5.14672 0 0 255
-9.21198 8.01529 -5.2719 0 0 255
-9.91766 6.52732 -5.28734 0 0 255
-10.6101 7.80523 -4.71976 0 0 255
-10.1419 6.84856 -5.1703 0 0 255
-8.42098 6.79991 -5.28946 0 0 255
-9.07692 6.81094 -5.14203 0 0 255
-9.27165 7.02602 -4.91072 0 0 255
-9.29485 6.94008 -4.8002 0 0 255
-10.412 6.60768 -5.08554 0 0 255
-9.00411 6.67324 -5.40609 0 0 255
-11.2083 6.35353 -5.3377 0 0 255
-10.8187 6.37224 -5.36434 0 0 255
-9.06774 6.83771 -5.04306 0 0 255
-10.3167 6.61601 -4.85095 0 0 255
-9.94327 8.00969 -4.74723 0 0 255
-9.42261 6.86301 -4.71166 0 0 255
-9.11181 7.7589 -5.20673 0 0 255
-8.03429 6.94055 -5.42043 0 0 255
-11.7894 6.60926 -4.67383 0 0 255
-10.9656 6.63509 -4.7577 0 0 255
-11.9638 7.67226 -5.43086 255 0 0
-11.091 6.60362 -4.66529 0 0 255
-8.25814 6.83173 -5.35482 0 0 255
-9.41574 7.49316 -4.79922 0 0 255
-11.0852 6.31852 -5.4189 0 0 255
-10.4819 6.68692 -4.67518 0 0 255
-9.53658 8.06229 -5.01454 0 0 255
-10.7481 6.71421 -4.61675 0 0 255
-10.4414 6.71344 -4.77906 0 0 255
-9.12758 6.6813 -5.03094 0 0 255
-11.6042 7.17268 -4.69883 0 0 255
-10.1959 6.77993 -4.63453 0 0 255
-10.6318 6.39873 -5.32494 0 0 255
-8.31553 6.86263 -5.27669 0 0 255
-11.4365 6.26962 -5.49467 0 0 255
-9.79862 6.85626 -4.67736 0 0 255
-9.55982 6.91104 -4.64091 0 0 255
-8.2115 6.90871 -5.26137 0 0 255
-8.16453 6.98573 -5.26563 0 0 255
-8.49944 6.76397 -5.59941 0 0 255
-8.19088 7.14394 -5.40204 0 0 255
-10.3009 6.55429 -5.16296 0 0 255
-8.86667 6.70259 -5.378 0 0 255
-8.57403 7.1102 -5.18393 0 0 255
-11.0993 6.50207 -5.10523 0 0 255
-8.67416 6.73661 -5.63932 0 0 255
-8.94776 7.80407 -5.28734 0 0 255
-8.23106 7.31757 -5.24742 0 0 255
-9.55889 7.55172 -4.72725 0 0 255
-7.87025 6.93028 -5.57189 0 0 255
-8.8504 6.73989 -5.17991 0 0 255
-11.0695 6.57308 -4.77002 0 0 255
-8.91286 6.68784 -5.38651 0 0 255
-8.01002 7.36267 -5.40554 0 0 255
-8.65623 6.85526 -5.15631 0 0 255
-8.94665 6.68009 -5.39332 0 0 255
-9.54762 6.81642 -4.7289 0 0 255
-9.52243 7.21606 -4.6748 0 0 255
-8.95233 6.91867 -5.13266 0 0 255
-8.06625 7.15397 -5.27669 0 0 255
-10.6579 6.58781 -4.91463 0 0 255
-7.76463 7.06948 -5.67439 0 0 255
-8.01375 6.97273 -5.42223 0 0 255
-11.3394 7.38621 -4.67724 0 0 255
-7.81153 7.11218 -5.59832 0 0 255
-8.90923 6.71819 -5.18957 0 0 255
-11.28 7.89281 -5.20251 255 0 0
-11.3826 7.80483 -5.21047 255 0 0
-8.70245 6.74204 -5.34565 0 0 255
-9.57222 7.61769 -4.73876 0 0 255
-9.74495 6.85318 -4.66713 0 0 255
-9.83203 6.67333 -5.184 0 0 255
-8.23652 7.20096 -5.22589 0 0 255
-11.0507 6.61517 -4.65937 0 0 255
-10.7273 6.73663 -4.61556 0 0 255
-7.98066 7.06116 -5.433 0 0 255
-9.9594 7.004 -4.61975 0 0 255
-8.60302 6.96378 -5.16382 0 0 255
-10.5721 7.62375 -4.69134 0 0 255
-11.302 6.40665 -5.02209 0 0 255
-9.39929 8.06154 -5.09833 0 0 255
-9.60226 7.75379 -4.76307 0 0 255
-11.0456 6.33072 -5.41132 0 0 255
-10.9675 6.51253 -5.07912 0 0 255
-10.0009 7.6536 -4.70967 0 0 255
-11.2267 6.57674 -4.68661 0 0 255
-9.49348 7.77815 -4.85493 0 0 255
-11.2571 6.55876 -4.69016 0 0 255
-9.03327 7.0499 -5.07034 0 0 255
-9.21118 6.94588 -4.88656 0 0 255
-9.66945 7.96072 -4.804 0 0 255
-9.08272 7.69705 -5.19006 0 0 255
-8.74285 8.1906 -5.31702 0 0 255
-9.60238 8.13743 -4.9279 0 0 255
-8.65192 6.75228 -5.33543 0 0 255
-10.2086 6.46159 -5.34515 0 0 255
-8.61825 6.75895 -5.32862 0 0 255
-9.94542 7.49955 -4.68011 0 0 255
-9.40629 8.00965 -5.09122 0 0 255
-8.12707 7.02071 -5.26392 0 0 255
-8.07994 6.91335 -5.32858 0 0 255
-10.4301 7.94289 -5.51286 255 0 0
-10.9173 6.32616 -5.49358 0 0 255
-10.5958 6.6891 -4.80528 0 0 255
-7.92146 6.97537 -5.4975 0 0 255
-9.93777 8.10287 -4.75893 0 0 255
-8.5011 7.81407 -5.30061 0 0 255
-11.3433 6.50134 -4.81313 0 0 255
-9.00896 6.92839 -5.14672 0 0 255
-7.83517 7.01569 -5.58227 0 0 255
-10.2286 6.69723 -4.95134 0 0 255
-10.1151 6.81305 -4.62406 0 0 255
-11.6902 6.99803 -4.69542 0 0 255
-10.01 6.81147 -4.71062 0 0 255
-9.09658 6.89335 -5.05822 0 0 255
-9.9466 7.10127 -4.62961 0 0 255
-10.1556 6.68391 -4.93485 0 0 255
-10.3684 6.51121 -5.17177 0 0 255
-11.0424 6.46877 -4.97699 0 0 255
-11.1623 6.43278 -4.99688 0 0 255
-9.12083 6.70963 -5.03397 0 0 255
-9.07438 7.11667 -5.09004 0 0 255
-10.4298 6.61897 -4.87351 0 0 255
-8.46534 6.81916 -5.20519 0 0 255
-11.589 6.38903 -5.19454 0 0 255
-9.41509 7.11718 -4.74549 0 0 255
-8.06526 6.91737 -5.42313 0 0 255
-9.54054 8.16307 -5.03103 0 0 255
-9.24491 6.91989 -4.88941 0 0 255
-9.26165 7.62499 -5.00168 0 0 255
-9.36949 7.3123 -4.76472 0 0 255
-10.9568 6.31434 -5.50139 0 0 255
-10.5267 6.68045 -4.68257 0 0 255
-8.28599 6.98819 -5.19608 0 0 255
-11.4437 6.487 -4.83037 0 0 255
-9.40857 8.08887 -5.21435 0 0 255
-9.06976 6.83924 -5.14516 0 0 255
-11.3459 7.08764 -4.64656 0 0 255
-10.6035 6.58899 -4.90402 0 0 255
-9.12353 7.0165 -5.08398 0 0 255
-11.0206 6.56174 -4.98362 0 0 255
-9.09215 6.85612 -4.95004 0 0 255
-9.32171 7.49081 -4.88676 0 0 255
-10.8591 6.67663 -4.63214 0 0 255
-10.1056 6.96454 -5.28857 0 0 255
-8.74811 6.72778 -5.25404 0 0 255
-10.3529 6.43325 -5.37483 0 0 255
-10.4386 7.98851 -5.40525 255 0 0
-8.53418 6.7916 -5.21595 0 0 255
-11.5237 6.53231 -4.73515 0 0 255
-11.1377 6.38346 -5.21203 0 0 255
-11.3078 6.48097 -4.91785 0 0 255
-10.5588 6.38894 -5.41702 0 0 255
-10.587 7.74956 -4.7091 0 0 255
-11.1411 6.59776 -4.67358 0 0 255
-9.55349 8.01848 -4.90137 0 0 255
-7.87683 6.96929 -5.68019 0 0 255
-10.9603 6.63188 -4.64517 0 0 255
-10.7231 6.45368 -5.24225 0 0 255
-9.6884 6.57584 -5.24203 0 0 255
-8.06763 7.24107 -5.3933 0 0 255
-8.96336 6.67602 -5.29544 0 0 255
-9.54877 7.89943 -4.88279 0 0 255
-10.701 6.37141 -5.44826 0 0 255
-11.1629 7.53803 -4.66474 0 0 255
-11.6588 7.01684 -4.69201 0 0 255
-11.1587 6.36044 -5.32742 0 0 255
-8.60158 6.77887 -5.2292 0 0 255
-11.3993 6.39059 -5.15469 0 0 255
-9.5421 6.60959 -5.2139 0 0 255
-11.1873 6.51809 -4.89866 0 0 255
-10.5163 7.96922 -4.7245 0 0 255
-8.95597 7.69976 -5.27015 0 0 255
-11.2998 7.86682 -5.32369 255 0 0
-8.96711 6.86243 -5.12641 0 0 255
-8.24192 6.85129 -5.35482 0 0 255
-10.6153 6.63125 -5.02141 0 0 255
-8.89673 6.70876 -5.28551 0 0 255
-9.30661 6.84629 -4.89083 0 0 255
-9.40598 7.37673 -4.78064 0 0 255
-10.1278 6.97981 -5.18645 0 0 255
-10.3194 6.51459 -5.16149 0 0 255
-10.2992 8.03788 -5.26888 255 0 0
-11.6356 6.70554 -4.65679 0 0 255
-10.5162 7.17418 -4.62859 0 0 255
-8.79126 6.79419 -5.68168 0 0 255
-11.6775 7.25631 -4.48316 0 0 255
-10.873 6.33498 -5.4842 0 0 255
-11.3527 6.54253 -4.70555 0 0 255
-10.5494 7.64552 -5.14507 255 0 0
-8.1525 7.00899 -5.36531 0 0 255
-9.2345 6.75956 -4.96472 0 0 255
-11.1944 7.50147 -4.66588 0 0 255
-11.5886 7.23926 -4.58536 0 0 255
-10.5899 6.47656 -5.21582 0 0 255
-10.183 7.08929 -5.21435 0 0 255
-9.14798 6.64639 -5.23221 0 0 255
-10.2993 6.43386 -5.36233 0 0 255
-10.1151 6.91816 -5.1747 0 0 255
-10.5323 7.2218 -4.63688 0 0 255
-8.83339 6.86027 -5.09672 0 0 255
-11.2019 7.44889 -4.66133 0 0 255
-11.253 7.4445 -4.66929 0 0 255
-11.309 7.44306 -4.67838 0 0 255
-11.3555 7.4351 -4.68519 0 0 255
-11.381 7.37492 -4.68292 0 0 255
-11.6673 7.48211 -4.74201 0 0 255
-11.7285 7.48223 -4.75224 0 0 255
-11.7366 7.44825 -4.74997 0 0 255
-11.4919 7.25482 -4.6886 0 0 255
-11.3875 7.15118 -4.66019 0 0 255
-11.5725 7.19108 -4.69542 0 0 255
-11.6076 7.11785 -4.69372 0 0 255
-11.6471 7.04744 -4.69315 0 0 255
-11.7167 6.97617 -4.69769 0 0 255
-11.7035 6.93081 -4.69088 0 0 255
-11.7001 6.89138 -4.68633 0 0 255
-11.6867 6.8462 -4.67951 0 0 255
-11.6731 6.80112 -4.67269 0 0 255
-11.6594 6.75615 -4.66588 0 0 255
-11.6265 6.66365 -4.6511 0 0 255
-11.6423 6.63606 -4.6511 0 0 255
-11.7008 6.61439 -4.65906 0 0 255
-8.23817 6.88127 -5.26222 0 0 255
-9.52773 7.11396 -4.66201 0 0 255
-10.3417 7.99242 -5.2703 255 0 0
-11.1395 6.31453 -5.43102 0 0 255
-8.22143 7.52111 -5.28551 0 0 255
-9.78361 8.17216 -4.85389 0 0 255
-9.31705 7.41462 -4.8744 0 0 255
-10.5384 8.0254 -4.73515 0 0 255
-10.5077 7.92355 -4.71739 0 0 255
-10.6121 7.71016 -4.70851 0 0 255
-10.5482 7.56858 -4.68069 0 0 255
-10.5549 7.46026 -4.66885 0 0 255
-10.5649 7.41116 -4.6647 0 0 255
-10.5512 7.34568 -4.65464 0 0 255
-10.5435 7.26627 -4.64398 0 0 255
-10.4965 7.1062 -4.61734 0 0 255
-10.5194 7.06722 -4.61675 0 0 255
-10.5123 7.02633 -4.61083 0 0 255
-10.5515 6.99839 -4.61438 0 0 255
-10.6145 6.86037 -4.60964 0 0 255
-10.6445 6.80841 -4.60905 0 0 255
-10.6912 6.76706 -4.6126 0 0 255
-10.8134 6.70161 -4.62681 0 0 255
-10.9122 6.65588 -4.63924 0 0 255
-11.0104 6.62657 -4.65345 0 0 255
-11.3024 6.5493 -4.69726 0 0 255
-11.3931 6.52985 -4.71147 0 0 255
-11.4633 6.53406 -4.7245 0 0 255
-11.5741 6.52468 -4.74344 0 0 255
-11.6446 6.52806 -4.75647 0 0 255
-10.8868 6.55217 -4.95576 0 0 255
-11.4525 7.77318 -5.21976 255 0 0
-9.25253 6.85736 -4.88159 0 0 255
-8.53289 7.40668 -5.2298 0 0 255
-9.98067 6.98365 -4.62099 0 0 255
-11.4466 6.31052 -5.38616 0 0 255
-8.92534 7.50931 -5.22953 0 0 255
-9.65296 6.87435 -4.65306 0 0 255
-8.56346 6.78181 -5.22092 0 0 255
-10.4467 6.69939 -4.67025 0 0 255
-8.97167 7.86246 -5.30296 0 0 255
-9.8683 8.12443 -4.75031 0 0 255
-9.9141 8.12278 -4.7577 0 0 255
-9.93917 8.06485 -4.75401 0 0 255
-10.0052 8.0011 -4.75647 0 0 255
-10.0421 7.99161 -4.7614 0 0 255
-10.0341 7.94646 -4.75401 0 0 255
-10.0555 7.9054 -4.75216 0 0 255
-10.0461 7.76394 -4.73184 0 0 255
-9.95499 7.54385 -4.6875 0 0 255
-9.94944 7.46564 -4.67641 0 0 255
-9.92912 7.35882 -4.65917 0 0 255
-9.92758 7.3031 -4.65178 0 0 255
-9.93563 7.27278 -4.64931 0 0 255
-9.95613 7.16166 -4.63884 0 0 255
-9.95544 7.05427 -4.6253 0 0 255
-10.0475 6.87191 -4.61914 0 0 255
-10.0837 6.84417 -4.62222 0 0 255
-10.2614 6.75353 -4.64316 0 0 255
-10.3013 6.74486 -4.64931 0 0 255
-10.354 6.72688 -4.6567 0 0 255
-10.4116 6.71174 -4.66533 0 0 255
-10.5667 6.67075 -4.68873 0 0 255
-10.6116 6.66395 -4.69612 0 0 255
-10.6516 6.65393 -4.70228 0 0 255
-10.8206 6.65295 -4.73307 0 0 255
-10.8705 6.64818 -4.74169 0 0 255
-10.9352 6.65214 -4.75401 0 0 255
-10.9989 6.60193 -4.76016 0 0 255
-11.1224 6.55111 -4.77741 0 0 255
-11.1577 6.53629 -4.78233 0 0 255
-11.2078 6.52999 -4.79096 0 0 255
-11.2529 6.52062 -4.79835 0 0 255
-11.2932 6.50821 -4.8045 0 0 255
-11.3985 6.4971 -4.82298 0 0 255
-11.5139 6.49077 -4.84392 0 0 255
-11.6192 6.51384 -4.86609 0 0 255
-8.91165 6.81999 -5.71851 0 0 255
-8.82828 8.23142 -5.34202 0 0 255
-9.49262 7.81514 -4.86024 0 0 255
-9.36459 7.93592 -5.07133 0 0 255
-7.98023 7.37027 -5.40029 0 0 255
-9.77296 8.20268 -4.85645 0 0 255
-9.69897 8.02369 -4.81807 0 0 255
-9.61852 7.84256 -4.77842 0 0 255
-9.6028 7.71668 -4.75795 0 0 255
-9.5809 7.66178 -4.74644 0 0 255
-9.53593 7.44219 -4.70806 0 0 255
-9.54366 7.35763 -4.69783 0 0 255
-9.5244 7.28892 -4.68504 0 0 255
-9.52347 7.25247 -4.67992 0 0 255
-9.52747 7.1667 -4.66905 0 0 255
-9.53998 7.08794 -4.66073 0 0 255
-9.54298 7.05511 -4.6569 0 0 255
-9.54727 7.00591 -4.65114 0 0 255
-9.54673 6.95341 -4.6441 0 0 255
-9.69601 6.85318 -4.65817 0 0 255
-9.89679 6.85527 -4.69527 0 0 255
-9.93183 6.84476 -4.70039 0 0 255
-9.98102 6.84381 -4.70934 0 0 255
-10.0739 6.76796 -4.71702 0 0 255
-10.1185 6.7631 -4.72469 0 0 255
-10.1487 6.74859 -4.72853 0 0 255
-10.2124 6.75603 -4.74132 0 0 255
-10.2761 6.76321 -4.75411 0 0 255
-10.3303 6.76387 -4.76435 0 0 255
-10.3176 6.72064 -4.75667 0 0 255
-10.4054 6.74277 -4.77586 0 0 255
-10.5526 6.71446 -4.80017 0 0 255
-10.6358 6.67915 -4.81168 0 0 255
-10.7291 6.70235 -4.83215 0 0 255
-10.745 6.67689 -4.83215 0 0 255
-10.7473 6.60791 -4.82447 0 0 255
-10.8469 6.59844 -4.84238 0 0 255
-10.8527 6.56679 -4.83982 0 0 255
-10.9417 6.58524 -4.85901 0 0 255
-11.0161 6.59449 -4.87436 0 0 255
-11.1071 6.54207 -4.88587 0 0 255
-11.1472 6.53015 -4.89227 0 0 255
-11.2599 6.50684 -4.91146 0 0 255
-11.3579 6.47394 -4.92681 0 0 255
-11.4179 6.47236 -4.93832 0 0 255
-11.473 6.46771 -4.94855 0 0 255
-11.6234 6.48001 -4.97925 0 0 255
-11.0109 6.31079 -5.51389 0 0 255
-9.40183 7.81549 -4.95134 0 0 255
-11.3839 6.20573 -5.70614 0 0 255
-9.15475 6.73458 -5.14672 0 0 255
-10.2884 6.63233 -5.0628 0 0 255
-10.8879 6.34364 -5.37646 0 0 255
-10.2602 6.44326 -5.35452 0 0 255
-9.626 8.11832 -4.92923 0 0 255
-9.60749 8.02505 -4.91198 0 0 255
-9.43675 7.69436 -4.83238 0 0 255
-9.44611 7.66477 -4.82973 0 0 255
-9.36221 7.55995 -4.79922 0 0 255
-9.41128 7.54443 -4.80585 0 0 255
-9.35301 7.40709 -4.77534 0 0 255
-9.39294 7.40254 -4.78197 0 0 255
-9.47175 7.3201 -4.78462 0 0 255
-9.47099 7.28371 -4.77932 0 0 255
-9.50182 7.27164 -4.7833 0 0 255
-9.41468 7.16962 -4.75278 0 0 255
-9.36801 6.9947 -4.71962 0 0 255
-9.45781 7.02689 -4.74084 0 0 255
-9.39682 6.91267 -4.71365 0 0 255
-9.46657 6.86073 -4.71962 0 0 255
-9.49206 6.84494 -4.72227 0 0 255
-11.1957 7.79436 -5.17333 255 0 0
-11.3008 7.80797 -5.19522 255 0 0
-11.5465 7.79707 -5.24099 255 0 0
-10.1264 6.69917 -4.82442 0 0 255
-10.1819 6.6667 -4.83105 0 0 255
-10.2551 6.67989 -4.84697 0 0 255
-10.3187 6.68657 -4.86024 0 0 255
-10.3921 6.69917 -4.87616 0 0 255
-10.4937 6.62466 -4.88677 0 0 255
-10.4852 6.5846 -4.88014 0 0 255
-10.6459 6.65037 -4.91994 0 0 255
-10.8339 6.6611 -4.95841 0 0 255
-10.9414 6.54977 -4.96637 0 0 255
-11.0116 6.52106 -4.97699 0 0 255
-11.0811 6.52677 -4.99158 0 0 255
-11.0824 6.45693 -4.98362 0 0 255
-11.1174 6.44207 -4.98893 0 0 255
-11.2072 6.42331 -5.00484 0 0 255
-11.2521 6.41366 -5.0128 0 0 255
-11.4069 6.39482 -5.04199 0 0 255
-11.4519 6.38442 -5.04995 0 0 255
-8.22588 7.36554 -5.2557 0 0 255
-8.05982 7.51492 -5.34905 0 0 255
-8.92946 7.1756 -5.17172 0 0 255
-9.54274 8.20422 -5.0379 0 0 255
-9.5122 8.09984 -5.01592 0 0 255
-9.45317 7.89614 -4.97332 0 0 255
-9.35054 7.71679 -4.92661 0 0 255
-9.38234 7.6871 -4.92798 0 0 255
-9.33437 7.61088 -4.90737 0 0 255
-9.35723 7.4829 -4.89226 0 0 255
-9.31675 7.37838 -4.8689 0 0 255
-9.52156 7.43098 -4.91562 0 0 255
-10.2367 7.91131 -5.12309 255 0 0
-10.4179 8.01193 -5.17255 255 0 0
-10.3419 7.91457 -5.1437 255 0 0
-9.23767 7.03481 -4.80295 0 0 255
-9.35696 6.95196 -4.81394 0 0 255
-9.41077 6.88859 -4.81531 0 0 255
-11.2061 7.76223 -5.29072 255 0 0
-10.2946 7.0588 -5.01317 0 0 255
-11.4397 7.80421 -5.34293 255 0 0
-11.5053 7.80903 -5.35667 255 0 0
-11.5521 7.80084 -5.36491 255 0 0
-11.5611 7.76708 -5.36216 255 0 0
-10.2214 6.83189 -4.96783 0 0 255
-10.119 6.72884 -4.93348 0 0 255
-10.2539 6.67917 -4.95409 0 0 255
-10.3366 6.69818 -4.97332 0 0 255
-10.4346 6.58732 -4.97882 0 0 255
-10.8556 6.53341 -5.05851 0 0 255
-11.0664 6.62459 -5.11347 0 0 255
-11.1053 6.4351 -5.09836 0 0 255
-11.1699 6.43717 -5.1121 0 0 255
-11.2147 6.42765 -5.12034 0 0 255
-11.2996 6.40527 -5.13546 0 0 255
-11.3445 6.39524 -5.1437 0 0 255
-11.4793 6.36406 -5.16843 0 0 255
-8.57971 7.06356 -5.17669 0 0 255
-9.01029 6.86166 -5.13578 0 0 255
-10.105 6.4465 -5.75187 0 0 255
-8.9171 6.69102 -5.28716 0 0 255
-9.44794 8.16176 -5.12391 0 0 255
-9.29219 7.83679 -5.04148 0 0 255
-9.28129 7.75258 -5.02585 0 0 255
-9.23413 7.67609 -5.00453 0 0 255
-9.30045 7.694 -5.02016 0 0 255
-9.23137 7.56341 -4.98605 0 0 255
-9.23176 7.50903 -4.97752 0 0 255
-9.25828 7.40378 -4.96615 0 0 255
-9.23137 7.34643 -4.95194 0 0 255
-9.22204 7.30337 -4.94341 0 0 255
-9.23933 7.28148 -4.94341 0 0 255
-9.24154 7.17725 -4.92778 0 0 255
-10.3246 7.94018 -5.25893 255 0 0
-10.4065 7.96401 -5.27883 255 0 0
-9.4099 6.88796 -4.91783 0 0 255
-10.4317 7.598 -5.22908 255 0 0
-10.4497 7.57325 -5.22908 255 0 0
-10.4492 7.53516 -5.2234 255 0 0
-10.1399 6.98815 -5.08127 0 0 255
-10.1892 6.98658 -5.09122 0 0 255
-10.1671 6.91834 -5.07701 0 0 255
-10.0824 6.73904 -5.03437 0 0 255
-10.0684 6.62655 -5.0159 0 0 255
-10.1792 6.66489 -5.04432 0 0 255
-10.1426 6.60664 -5.02869 0 0 255
-10.2631 6.65053 -5.05996 0 0 255
-10.2862 6.56208 -5.05285 0 0 255
-10.6093 6.59258 -5.12533 0 0 255
-10.5582 6.49162 -5.10117 0 0 255
-10.6026 6.48435 -5.1097 0 0 255
-10.7896 6.49371 -5.15092 0 0 255
-10.8635 6.50312 -5.16797 0 0 255
-10.9179 6.50059 -5.17934 0 0 255
-10.9382 6.47758 -5.18076 0 0 255
-11.0077 6.46597 -5.19426 0 0 255
-11.0821 6.45681 -5.20919 0 0 255
-11.063 6.41058 -5.19924 0 0 255
-11.0979 6.39567 -5.20492 0 0 255
-11.2072 6.37046 -5.22553 0 0 255
-11.3016 6.35343 -5.24401 0 0 255
-11.4111 6.32628 -5.26462 0 0 255
-11.5855 6.35128 -5.30583 0 0 255
-11.4354 6.269 -5.61076 0 0 255
-8.50473 8.23677 -5.38429 0 0 255
-8.58733 7.01875 -5.17026 0 0 255
-9.21596 6.67911 -4.94857 0 0 255
-9.32444 7.493 -5.20522 0 0 255
-7.86006 6.97109 -5.5785 0 0 255
-9.5176 8.36088 -5.2819 0 0 255
-9.31662 8.12579 -5.2026 0 0 255
-9.38723 8.14826 -5.22023 0 0 255
-10.3612 7.96831 -5.38616 255 0 0
-10.4575 7.96373 -5.40525 255 0 0
-9.24461 6.81759 -4.97573 0 0 255
-9.15886 6.67091 -4.93535 0 0 255
-9.19959 6.63403 -4.93829 0 0 255
-10.1491 6.8885 -5.17764 0 0 255
-10.4174 6.50763 -5.18205 0 0 255
-10.4959 6.50486 -5.19893 0 0 255
-10.7724 6.44861 -5.25253 0 0 255
-10.8962 6.41785 -5.27602 0 0 255
-10.9407 6.40919 -5.28484 0 0 255
-11.0051 6.39443 -5.29732 0 0 255
-11.119 6.37279 -5.32008 0 0 255
-11.2529 6.34364 -5.34651 0 0 255
-11.3075 6.33912 -5.35826 0 0 255
-11.3374 6.32057 -5.36266 0 0 255
-11.3969 6.3184 -5.37588 0 0 255
-11.5113 6.31061 -5.40084 0 0 255
-11.6307 6.34027 -5.43168 0 0 255
-8.53804 7.34045 -5.21853 0 0 255
-8.49532 7.60677 -5.25957 0 0 255
-8.22315 7.27571 -5.23748 0 0 255
-9.2934 8.22265 -5.32494 0 0 255
-9.28316 8.17443 -5.31433 0 0 255
-9.13924 7.85732 -5.22946 0 0 255
-9.10198 7.78783 -5.20976 0 0 255
-9.11003 7.66468 -5.19006 0 0 255
-9.08949 7.59236 -5.17339 0 0 255
-9.06853 7.52028 -5.15672 0 0 255
-9.06467 7.46281 -5.14611 0 0 255
-9.05609 7.41979 -5.13702 0 0 255
-9.02105 7.35541 -5.11883 0 0 255
-9.06482 7.35538 -5.12793 0 0 255
-9.05583 7.31255 -5.11883 0 0 255
-9.34218 7.47087 -5.20522 0 0 255
-9.30676 7.40643 -5.18703 0 0 255
-9.076 7.18771 -5.10216 0 0 255
-9.03971 7.12416 -5.08398 0 0 255
-9.04102 7.02152 -5.06731 0 0 255
-9.091 6.78787 -5.04003 0 0 255
-9.19232 6.81275 -5.06579 0 0 255
-9.13425 6.65298 -5.02791 0 0 255
-10.8302 7.61642 -5.54771 255 0 0
-10.1282 7.05117 -5.30675 0 0 255
-9.86757 6.73168 -5.20067 0 0 255
-9.8572 6.65632 -5.18703 0 0 255
-9.87765 6.63609 -5.18855 0 0 255
-9.90825 6.6056 -5.19082 0 0 255
-9.96542 6.57569 -5.19915 0 0 255
-10.0516 6.54738 -5.21431 0 0 255
-10.1253 6.52722 -5.22795 0 0 255
-10.1455 6.50625 -5.22946 0 0 255
-10.2139 6.49896 -5.24386 0 0 255
-10.3026 6.46989 -5.25977 0 0 255
-10.4695 6.43706 -5.29311 0 0 255
-10.5185 6.43288 -5.30372 0 0 255
-10.5482 6.41674 -5.30827 0 0 255
-10.5827 6.40342 -5.31433 0 0 255
-10.7301 6.38875 -5.34615 0 0 255
-10.7695 6.3777 -5.35373 0 0 255
-10.9568 6.349 -5.39313 0 0 255
-11.0012 6.33995 -5.40223 0 0 255
-11.1988 6.3131 -5.44466 0 0 255
-11.2582 6.29391 -5.45603 0 0 255
-11.382 6.27487 -5.48255 0 0 255
-11.5308 6.2858 -5.51892 0 0 255
-11.6451 6.31234 -5.54923 0 0 255
-7.83791 7.10228 -5.50487 0 0 255
-10.8385 6.34933 -5.47795 0 0 255
-8.49599 7.51712 -5.24267 0 0 255
-8.83123 8.19511 -5.33577 0 0 255
-8.91426 8.21336 -5.35608 0 0 255
-8.91844 8.15875 -5.34671 0 0 255
-8.92524 8.12618 -5.34202 0 0 255
-8.95285 8.11258 -5.34515 0 0 255
-9.14079 8.16523 -5.39358 0 0 255
-8.95845 7.90738 -5.30843 0 0 255
-8.92488 7.70991 -5.26546 0 0 255
-8.9232 7.61657 -5.24827 0 0 255
-8.9115 7.55195 -5.23421 0 0 255
-8.88703 7.42326 -5.20609 0 0 255
-8.87857 7.38052 -5.19672 0 0 255
-8.85691 7.32708 -5.18265 0 0 255
-8.88297 7.31323 -5.18578 0 0 255
-8.86904 7.19653 -5.16234 0 0 255
-8.90803 7.1932 -5.17015 0 0 255
-8.95526 7.16145 -5.17484 0 0 255
-9.00863 7.11697 -5.17875 0 0 255
-9.00854 6.82664 -5.12953 0 0 255
-9.16144 6.77304 -5.15453 0 0 255
-9.22307 6.71767 -5.15922 0 0 255
-9.40065 6.64442 -5.18734 0 0 255
-9.4533 6.64808 -5.19984 0 0 255
-9.47366 6.62888 -5.2014 0 0 255
-9.51714 6.62575 -5.21078 0 0 255
-9.5981 6.59798 -5.22484 0 0 255
-9.65413 6.58607 -5.23578 0 0 255
-9.81306 6.54215 -5.26546 0 0 255
-9.94727 6.51306 -5.29202 0 0 255
-10.0521 6.49685 -5.3139 0 0 255
-10.3825 6.41759 -5.37952 0 0 255
-10.4486 6.40715 -5.39358 0 0 255
-10.5243 6.40223 -5.41077 0 0 255
-10.6029 6.38135 -5.42639 0 0 255
-10.6471 6.37358 -5.43577 0 0 255
-10.7576 6.35338 -5.4592 0 0 255
-11.0503 6.29864 -5.5217 0 0 255
-11.1045 6.29469 -5.5342 0 0 255
-11.1489 6.28497 -5.54357 0 0 255
-11.2525 6.27324 -5.56701 0 0 255
-11.3117 6.27117 -5.58107 0 0 255
-11.3513 6.25796 -5.58888 0 0 255
-11.5493 6.29589 -5.64201 0 0 255
-8.29787 6.94785 -5.19111 0 0 255
-8.52744 8.18076 -5.37785 0 0 255
-8.53867 8.15274 -5.37463 0 0 255
-8.53349 8.1092 -5.36498 0 0 255
-8.4991 7.84948 -5.30704 0 0 255
-8.49308 7.71434 -5.27969 0 0 255
-8.49121 7.65768 -5.26842 0 0 255
-8.5076 7.56343 -5.25394 0 0 255
-8.49689 7.48207 -5.23624 0 0 255
-8.51884 7.46562 -5.23784 0 0 255
-8.51106 7.42319 -5.22819 0 0 255
-8.52061 7.36067 -5.21853 0 0 255
-8.53831 7.30554 -5.2121 0 0 255
-8.54277 7.2569 -5.20405 0 0 255
-8.55748 7.16523 -5.19037 0 0 255
-8.70633 6.81136 -5.1598 0 0 255
-8.74606 6.79245 -5.16543 0 0 255
-8.77105 6.77858 -5.16865 0 0 255
-8.80851 6.75761 -5.17347 0 0 255
-8.8843 6.73249 -5.18635 0 0 255
-8.9556 6.70332 -5.19761 0 0 255
-9.0099 6.67753 -5.20566 0 0 255
-9.09476 6.65727 -5.22175 0 0 255
-9.21367 6.62759 -5.24428 0 0 255
-9.71079 6.52399 -5.34406 0 0 255
-11.458 6.21092 -5.72545 0 0 255
-11.5371 6.21846 -5.74637 0 0 255
-8.2205 7.41355 -5.26398 0 0 255
-8.23194 7.24877 -5.23417 0 0 255
-8.24512 7.1569 -5.21927 0 0 255
-8.24888 7.0579 -5.20105 0 0 255
-8.26536 7.02125 -5.19774 0 0 255
-8.32685 6.92189 -5.19277 0 0 255
-8.33459 6.89497 -5.18946 0 0 255
-8.41548 6.84505 -5.19857 0 0 255
-8.51805 6.81182 -5.21595 0 0 255
-8.66019 6.75874 -5.23914 0 0 255
-8.70637 6.74508 -5.24742 0 0 255
-9.02318 6.67082 -5.30869 0 0 255
-9.11579 6.63954 -5.32525 0 0 255
-9.15425 6.63438 -5.33353 0 0 255
-8.06119 7.48054 -5.34224 0 0 255
-8.06245 7.4462 -5.33543 0 0 255
-8.05533 7.40432 -5.32522 0 0 255
-8.0522 7.36629 -5.3167 0 0 255
-8.05862 7.26756 -5.29798 0 0 255
-8.05499 7.22972 -5.28946 0 0 255
-8.05539 7.19567 -5.28265 0 0 255
-8.1352 6.99411 -5.26052 0 0 255
-8.35016 6.82487 -5.27754 0 0 255
-8.48813 6.78789 -5.30308 0 0 255
-8.52612 6.78519 -5.3116 0 0 255
-8.56339 6.76523 -5.3167 0 0 255
-8.74414 6.72472 -5.35246 0 0 255
-8.80362 6.72076 -5.36608 0 0 255
-10.521 6.36606 -5.73725 0 0 255
-10.5649 6.35843 -5.74747 0 0 255
-7.81204 7.16364 -5.51224 0 0 255
-7.99594 7.24548 -5.37756 0 0 255
-7.99234 7.20778 -5.36881 0 0 255
-8.081 7.18417 -5.38455 0 0 255
-8.1273 7.19091 -5.3968 0 0 255
-8.199 7.20252 -5.41604 0 0 255
-8.09808 7.02926 -5.35657 0 0 255
-8.16124 7.05022 -5.37581 0 0 255
-8.12609 6.91953 -5.34082 0 0 255
-8.16984 6.90683 -5.34869 0 0 255
-8.18965 6.85724 -5.34345 0 0 255
-8.30397 6.82005 -5.36356 0 0 255
-8.36224 6.80174 -5.37406 0 0 255
-8.80681 6.7067 -5.46501 0 0 255
-7.91649 7.20774 -5.44916 0 0 255
-7.94182 7.19644 -5.45275 0 0 255
-7.98 7.16242 -5.45455 0 0 255
-7.98252 7.11361 -5.44467 0 0 255
-7.97647 7.0238 -5.42403 0 0 255
-8.00567 7.01589 -5.42941 0 0 255
-8.08769 6.88684 -5.42223 0 0 255
-8.11675 6.87846 -5.42762 0 0 255
-8.14756 6.85492 -5.43031 0 0 255
-8.17831 6.83127 -5.433 0 0 255
-8.41095 6.85796 -5.69649 0 0 255
-7.82926 7.12833 -5.50855 0 0 255
-7.85278 7.06506 -5.50027 0 0 255
-7.87165 7.03154 -5.4975 0 0 255
-7.90283 7.00903 -5.50027 0 0 255
-8.00753 6.86785 -5.49566 0 0 255
-8.43985 6.78215 -5.58775 0 0 255
-8.89685 6.77527 -5.70562 0 0 255
-7.81194 7.07875 -5.59077 0 0 255
-7.89276 6.90042 -5.57094 0 0 255
-8.74763 6.72741 -5.75879 0 0 255
-7.81413 7.08073 -5.68986 0 0 255
-7.85142 7.08069 -5.69953 0 0 255
-7.86028 6.98795 -5.68019 0 0 255
-7.89333 6.95059 -5.68019 0 0 255
-7.91176 6.91701 -5.67729 0 0 255
-11.8259 7.6235 -5.39651 255 0 0
