ply
format ascii 1.0
comment Created by Open3D
element vertex 619
property double x
property double y
property double z
property uchar red
property uchar green
property uchar blue
end_header
-20.3298 -9.21555 -3.76603 255 0 0
-18.9783 -9.09597 -4.37126 255 0 0
-19.007 -8.83415 -4.00939 255 0 0
-19.0312 -9.96841 -4.23999 255 0 0
-18.9044 -7.14979 -4.44754 255 0 0
-20.2592 -8.16041 -2.99907 255 0 0
-20.4177 -6.79507 -4.24363 255 0 0
-18.912 -8.62698 -4.51723 255 0 0
-19.0507 -9.8638 -4.41715 255 0 0
-18.8963 -8.19044 -4.494 255 0 0
-19.0472 -8.74328 -3.8336 255 0 0
-19.1892 -10.1674 -3.89994 255 0 0
-19.027 -7.76915 -4.14284 255 0 0
-18.9696 -9.31402 -4.3811 255 0 0
-18.8422 -6.67027 -4.75833 255 0 0
-19.0297 -9.28759 -4.20781 255 0 0
-18.8579 -6.62558 -4.75833 255 0 0
-20.339 -6.66191 -4.23149 255 0 0
-18.9355 -9.29729 -4.55454 255 0 0
-20.4539 -8.01426 -4.10606 255 0 0
-18.8527 -6.37369 -4.74632 255 0 0
-20.4865 -8.19557 -2.82561 255 0 0
-19.1725 -8.04153 -3.99319 255 0 0
-19.0451 -8.57883 -3.82747 255 0 0
-18.9769 -9.20618 -4.37651 255 0 0
-19.0523 -10.1528 -4.25092 255 0 0
-19.4452 -8.15594 -2.96455 255 0 0
-20.1707 -8.12478 -3.90249 255 0 0
-19.2892 -8.19826 -2.78423 255 0 0
-18.838 -6.92118 -4.76953 255 0 0
-19.3631 -9.73621 -3.71477 255 0 0
-18.95 -8.16044 -4.32472 255 0 0
-20.4492 -7.56822 -4.09042 255 0 0
-18.9168 -6.84848 -4.43628 255 0 0
-18.891 -7.71362 -4.64326 255 0 0
-18.9582 -8.81149 -4.35553 255 0 0
-18.8477 -7.02634 -4.60565 255 0 0
-18.9598 -7.48072 -4.29652 255 0 0
-19.1721 -9.02172 -3.14577 255 0 0
-20.2815 -6.11461 -4.74406 255 0 0
-18.956 -7.74016 -4.30701 255 0 0
-19.5481 -10.3576 -3.75033 255 0 0
-19.0744 -10.2227 -4.25638 255 0 0
-18.9365 -9.46553 -4.56369 255 0 0
-18.992 -10.0054 -4.23817 255 0 0
-20.4175 -8.96506 -2.83437 255 0 0
-19.0106 -9.16693 -4.02336 255 0 0
-19.0453 -8.148 -4.15984 255 0 0
-18.8858 -7.65932 -4.46795 255 0 0
-19.7126 -6.14763 -4.67486 255 0 0
-18.8316 -6.96954 -4.60114 255 0 0
-19.3924 -8.90172 -2.97606 255 0 0
-19.0373 -8.84826 -3.83666 255 0 0
-18.9547 -7.22022 -4.28538 255 0 0
-19.2771 -8.95969 -2.7954 255 0 0
-18.91 -10.0195 -4.41125 255 0 0
-19.0894 -6.15252 -4.25981 255 0 0
-20.2483 -6.31469 -4.21145 255 0 0
-18.9738 -8.38488 -3.98872 255 0 0
-19.2729 -9.01339 -3.15052 255 0 0
-18.8768 -7.29323 -4.62145 255 0 0
-18.9109 -7.04991 -4.44402 255 0 0
-19.0077 -9.33275 -4.03007 255 0 0
-19.3608 -9.79263 -3.71662 255 0 0
-20.4662 -9.04441 -3.20996 255 0 0
-19.2329 -8.17435 -3.30433 255 0 0
-18.8424 -9.47442 -4.73202 255 0 0
-19.3287 -9.66157 -3.70969 255 0 0
-19.0349 -7.56255 -4.13555 255 0 0
-18.9221 -9.2351 -4.72751 255 0 0
-19.0176 -8.89401 -4.18898 255 0 0
-19.0035 -9.78229 -4.04907 255 0 0
-20.0636 -8.24796 -3.35393 255 0 0
-19.0403 -10.0885 -4.24667 255 0 0
-18.9977 -8.50334 -3.99542 255 0 0
-18.9074 -8.67908 -4.51934 255 0 0
-18.902 -7.50977 -4.46303 255 0 0
-18.8853 -8.13254 -4.66357 255 0 0
-19.011 -9.84325 -4.2321 255 0 0
-18.9558 -7.42726 -4.2939 255 0 0
-18.9733 -8.70936 -4.35225 255 0 0
-20.4294 -6.90673 -4.24849 255 0 0
-19.4492 -9.95347 -3.72863 255 0 0
-18.962 -6.76331 -4.26833 255 0 0
-19.131 -8.40017 -3.82798 255 0 0
-19.0315 -9.06604 -3.84431 255 0 0
-19.0685 -10.4536 -4.26731 255 0 0
-19.1884 -8.15544 -3.12744 255 0 0
-19.0746 -9.70474 -3.87238 255 0 0
-18.8323 -6.46644 -4.57933 255 0 0
-19.8526 -8.21634 -2.80394 255 0 0
-18.9003 -7.56104 -4.46514 255 0 0
-18.8895 -6.94011 -4.43698 255 0 0
-20.4135 -8.22256 -3.19004 255 0 0
-19.1219 -8.12715 -3.81778 255 0 0
-19.0531 -9.92238 -4.42043 255 0 0
-19.1545 -8.19471 -3.47424 255 0 0
-19.0071 -8.88906 -4.01163 255 0 0
-19.5854 -6.15896 -4.48626 255 0 0
-20.1351 -8.22164 -2.81379 255 0 0
-20.4242 -9.08376 -3.39515 255 0 0
-18.9759 -9.26136 -4.37913 255 0 0
-20.3114 -6.22884 -4.21509 255 0 0
-18.8919 -7.3506 -4.62596 255 0 0
-19.0943 -8.16894 -3.64319 255 0 0
-19.0311 -7.50885 -4.13312 255 0 0
-18.9112 -8.03764 -4.48837 255 0 0
-18.9711 -6.61485 -4.26375 255 0 0
-18.8572 -6.3752 -4.57857 255 0 0
-18.8879 -6.38557 -4.41446 255 0 0
-19.0325 -7.45733 -4.1313 255 0 0
-18.8959 -6.48828 -4.41938 255 0 0
-19.0056 -8.07776 -4.15316 255 0 0
-19.147 -6.62529 -4.11248 255 0 0
-18.9294 -8.9075 -4.53342 255 0 0
-18.8789 -7.60442 -4.63649 255 0 0
-20.1793 -8.12823 -3.72124 255 0 0
-19.0168 -7.87043 -4.14587 255 0 0
-19.0397 -6.9953 -4.1149 255 0 0
-18.895 -6.89132 -4.43557 255 0 0
-19.0253 -7.29882 -4.12462 255 0 0
-18.8987 -8.72941 -4.69667 255 0 0
-19.007 -8.83417 -4.18534 255 0 0
-19.6914 -8.86992 -2.8081 255 0 0
-19.0162 -9.73189 -4.04795 255 0 0
-19.1433 -9.73969 -4.601 255 0 0
-18.8552 -6.47432 -4.75112 255 0 0
-19.0588 -9.35785 -3.85758 255 0 0
-18.8871 -9.38496 -4.73202 255 0 0
-18.8721 -6.23101 -4.40671 255 0 0
-19.0376 -8.09132 -3.98313 255 0 0
-20.3476 -8.19603 -2.8208 255 0 0
-20.1447 -6.12552 -4.72751 255 0 0
-18.8645 -7.5467 -4.63198 255 0 0
-18.9658 -8.54311 -4.34373 255 0 0
-19.9224 -8.13478 -2.98435 255 0 0
-19.9587 -8.20484 -2.80744 255 0 0
-18.9571 -6.91397 -4.27358 255 0 0
-18.92 -6.1971 -4.41094 255 0 0
-19.0286 -10.1982 -4.06974 255 0 0
-18.9456 -7.06286 -4.27817 255 0 0
-19.0775 -9.76322 -3.87493 255 0 0
-20.2632 -6.26666 -4.21145 255 0 0
-19.2717 -8.9017 -2.79431 255 0 0
-19.5206 -9.1857 -3.70692 255 0 0
-18.9035 -7.45853 -4.46091 255 0 0
-18.9044 -8.84107 -4.70344 255 0 0
-19.2332 -9.33056 -3.51268 255 0 0
-19.107 -8.22804 -3.64596 255 0 0
-19.1468 -10.0869 -4.62071 255 0 0
-19.9106 -8.12994 -3.88157 255 0 0
-19.4372 -8.15258 -3.66766 255 0 0
-19.0097 -8.3469 -3.99039 255 0 0
-19.0171 -9.56224 -4.21934 255 0 0
-19.2751 -8.24628 -2.78445 255 0 0
-18.9097 -8.89823 -4.7072 255 0 0
-19.0182 -9.67608 -4.22481 255 0 0
-20.2793 -8.22446 -2.81883 255 0 0
-18.9758 -6.56605 -4.26243 255 0 0
-18.8995 -7.09677 -4.44472 255 0 0
-18.9583 -6.5097 -4.2585 255 0 0
-19.0189 -9.9046 -4.05577 255 0 0
-20.2314 -8.20502 -3.18055 255 0 0
-19.6574 -8.19018 -3.32913 255 0 0
-19.0543 -8.15182 -3.81318 255 0 0
-19.2381 -8.28446 -2.95813 255 0 0
-19.8512 -8.88536 -2.81379 255 0 0
-19.4359 -10.0049 -3.72955 255 0 0
-20.4339 -8.17453 -3.37363 255 0 0
-18.9513 -7.84331 -4.31095 255 0 0
-18.9081 -9.11752 -4.71924 255 0 0
-19.1184 -10.0141 -3.8882 255 0 0
-18.8376 -6.26921 -4.5718 255 0 0
-18.9293 -8.79804 -4.52779 255 0 0
-18.9166 -7.2057 -4.6222 255 0 0
-19.1513 -10.0893 -3.89382 255 0 0
-19.351 -9.16202 -3.69399 255 0 0
-19.2858 -10.395 -3.91678 255 0 0
-18.9801 -9.99906 -4.41715 255 0 0
-19.0282 -7.09364 -4.11733 255 0 0
-19.0672 -8.64323 -3.83156 255 0 0
-18.8744 -7.08734 -4.61167 255 0 0
-19.459 -10.2514 -3.74017 255 0 0
-20.436 -8.17536 -3.00683 255 0 0
-18.9376 -10.0917 -4.41781 255 0 0
-19.162 -8.14419 -3.64734 255 0 0
-18.8617 -6.5266 -4.75433 255 0 0
-19.2969 -8.96893 -2.97338 255 0 0
-19.2502 -9.45181 -3.69676 255 0 0
-19.0175 -6.17917 -4.42149 255 0 0
-19.3766 -8.95013 -2.97632 255 0 0
-18.9596 -9.64625 -4.39683 255 0 0
-18.9919 -10.2366 -4.43092 255 0 0
-18.8216 -6.96583 -4.76953 255 0 0
-18.9366 -9.24217 -4.55172 255 0 0
-19.5798 -9.10041 -3.70831 255 0 0
-19.0118 -8.24054 -4.16045 255 0 0
-20.1691 -8.06862 -4.08259 255 0 0
-19.2958 -9.53103 -3.70276 255 0 0
-19.0307 -9.23228 -4.20538 255 0 0
-19.8919 -8.12233 -3.69999 255 0 0
-19.0238 -7.71526 -4.14041 255 0 0
-19.8137 -8.14525 -3.15842 255 0 0
-18.9131 -8.73607 -4.52286 255 0 0
-20.4716 -8.9888 -3.20901 255 0 0
-19.232 -10.2486 -3.90657 255 0 0
-19.0616 -6.84984 -4.11187 255 0 0
-19.1245 -9.16604 -3.5007 255 0 0
-20.4531 -8.9229 -3.02074 255 0 0
-19.2157 -9.04224 -3.32548 255 0 0
-18.9538 -7.2714 -4.28735 255 0 0
-18.8477 -6.77296 -4.59437 255 0 0
-19.5046 -6.13353 -4.30374 255 0 0
-18.909 -8.35625 -4.3293 255 0 0
-18.8947 -7.45502 -4.63123 255 0 0
-20.1671 -8.17895 -3.53996 255 0 0
-20.1547 -8.17394 -2.63284 255 0 0
-19.2083 -9.15025 -3.15052 255 0 0
-19.2696 -8.13604 -2.95679 255 0 0
-19.8922 -8.17754 -2.98382 255 0 0
-19.014 -8.02815 -4.15194 255 0 0
-18.8885 -8.08089 -4.66132 255 0 0
-18.994 -10.2377 -4.61296 255 0 0
-19.8876 -8.0656 -4.05745 255 0 0
-18.9843 -8.76896 -4.35618 255 0 0
-19.0012 -9.38553 -4.03174 255 0 0
-18.9554 -8.32309 -4.33258 255 0 0
-18.9184 -9.01216 -4.53764 255 0 0
-18.9781 -8.6571 -4.35028 255 0 0
-20.2642 -6.90444 -4.2321 255 0 0
-19.537 -8.85619 -2.80262 255 0 0
-18.9705 -9.48253 -4.38962 255 0 0
-19.8447 -6.13724 -4.34045 255 0 0
-18.8678 -6.32897 -4.74632 255 0 0
-18.8543 -6.82585 -4.76713 255 0 0
-18.8627 -6.57703 -4.75673 255 0 0
-18.9205 -6.64757 -4.42853 255 0 0
-19.171 -8.25559 -3.1287 255 0 0
-20.3977 -8.21622 -3.55608 255 0 0
-19.0162 -8.94837 -3.8387 255 0 0
-19.1852 -8.20781 -3.12839 255 0 0
-19.0706 -10.279 -4.25881 255 0 0
-19.3989 -8.84906 -2.79781 255 0 0
-19.5529 -9.14433 -3.70784 255 0 0
-19.0255 -9.62308 -4.22299 255 0 0
-19.6819 -8.20038 -2.79781 255 0 0
-19.5329 -8.1927 -2.79255 255 0 0
-19.4218 -8.2003 -2.78883 255 0 0
-19.2608 -8.29427 -2.78467 255 0 0
-19.3002 -8.36551 -2.78708 255 0 0
-20.3743 -8.88855 -2.83174 255 0 0
-19.3353 -8.87551 -2.79606 255 0 0
-19.3353 -9.04256 -2.79868 255 0 0
-18.9172 -9.39991 -4.55806 255 0 0
-18.9965 -8.93907 -4.01275 255 0 0
-18.9486 -8.00054 -4.3175 255 0 0
-19.4667 -8.87999 -2.97873 255 0 0
-18.8974 -8.40472 -4.50456 255 0 0
-18.9922 -6.17095 -4.58685 255 0 0
-19.2454 -8.12584 -3.12965 255 0 0
-18.9565 -7.58351 -4.30046 255 0 0
-18.9881 -6.21943 -4.25129 255 0 0
-19.0029 -8.29025 -4.16166 255 0 0
-19.7161 -8.15982 -2.97606 255 0 0
-19.6319 -8.17955 -2.97285 255 0 0
-19.2394 -8.17713 -2.95626 255 0 0
-19.2415 -8.23193 -2.95733 255 0 0
-20.4426 -8.97607 -3.02127 255 0 0
-20.464 -9.04343 -3.02341 255 0 0
-19.6102 -8.88935 -2.98489 255 0 0
-19.2438 -8.99979 -2.97178 255 0 0
-19.2436 -9.05535 -2.97285 255 0 0
-18.9442 -9.0796 -3.66212 255 0 0
-19.2149 -6.1427 -4.61317 255 0 0
-18.9012 -8.51401 -4.68539 255 0 0
-18.9107 -6.74503 -4.43135 255 0 0
-20.6207 -8.19259 -3.19984 255 0 0
-20.4655 -8.18717 -3.19193 255 0 0
-20.0386 -8.18224 -3.17044 255 0 0
-19.6106 -8.11619 -3.14767 255 0 0
-19.559 -8.14917 -3.14577 255 0 0
-19.4533 -8.15934 -3.14072 255 0 0
-20.5089 -9.12142 -3.21375 255 0 0
-19.3313 -8.98492 -3.15273 255 0 0
-19.1877 -9.08467 -3.14799 255 0 0
-18.9039 -8.46137 -4.50808 255 0 0
-18.8907 -8.29468 -4.6726 255 0 0
-18.8839 -7.86789 -4.65003 255 0 0
-20.0719 -8.19583 -3.53417 255 0 0
-18.892 -7.24768 -4.45036 255 0 0
-18.9439 -7.63061 -4.30111 255 0 0
-19.1655 -8.52398 -3.83513 255 0 0
-18.9635 -7.69082 -4.3057 255 0 0
-19.0297 -7.3523 -4.12705 255 0 0
-18.9626 -6.46098 -4.25719 255 0 0
-19.3401 -6.18273 -4.4588 255 0 0
-18.957 -6.96491 -4.27555 255 0 0
-18.9028 -8.08702 -4.48978 255 0 0
-18.8376 -6.76936 -4.76233 255 0 0
-18.9721 -9.42717 -4.387 255 0 0
-20.4912 -8.14116 -3.37618 255 0 0
-20.3277 -8.18802 -3.36779 255 0 0
-20.1349 -8.16591 -3.35612 255 0 0
-20.0668 -8.19374 -3.35284 255 0 0
-19.5032 -8.18025 -3.32001 255 0 0
-19.3922 -8.18783 -3.31381 255 0 0
-19.1329 -8.18545 -3.29886 255 0 0
-19.151 -8.24697 -3.30141 255 0 0
-20.4719 -9.1632 -3.39989 255 0 0
-19.1702 -9.10425 -3.32457 255 0 0
-19.2089 -9.20647 -3.32949 255 0 0
-19.8024 -8.14062 -3.69399 255 0 0
-18.9157 -8.30566 -4.50174 255 0 0
-18.8497 -6.27323 -4.74152 255 0 0
-19.3581 -9.90687 -4.63338 255 0 0
-18.8973 -7.92612 -4.65455 255 0 0
-19.0636 -8.26296 -3.81778 255 0 0
-20.3707 -6.19422 -4.21995 255 0 0
-20.2866 -9.25403 -3.76419 255 0 0
-18.8738 -6.18197 -4.74072 255 0 0
-19.0197 -10.2516 -4.07142 255 0 0
-19.0309 -9.45641 -4.2157 255 0 0
-19.253 -10.0846 -4.63197 255 0 0
-20.462 -7.96151 -4.10495 255 0 0
-18.8448 -6.32124 -4.57481 255 0 0
-20.4799 -8.13665 -3.55938 255 0 0
-20.4659 -8.18736 -3.5598 255 0 0
-20.0092 -8.22564 -3.53087 255 0 0
-19.8224 -8.20381 -3.51805 255 0 0
-19.6142 -8.17217 -3.50359 255 0 0
-19.557 -8.20284 -3.5007 255 0 0
-19.4192 -8.1992 -3.4916 255 0 0
-19.1363 -8.13328 -3.47135 255 0 0
-19.1297 -8.23779 -3.47383 255 0 0
-19.1262 -8.29009 -3.47507 255 0 0
-20.4713 -9.1629 -3.58708 255 0 0
-19.0197 -9.06038 -3.49078 255 0 0
-19.1448 -9.23165 -3.504 255 0 0
-18.9892 -10.3516 -4.43682 255 0 0
-19.482 -6.12642 -4.64552 255 0 0
-19.0372 -9.0134 -3.84278 255 0 0
-18.9226 -9.1245 -4.54398 255 0 0
-18.8481 -6.92487 -4.60114 255 0 0
-18.9243 -10.0846 -4.59677 255 0 0
-19.0646 -9.81377 -3.87595 255 0 0
-19.044 -7.15102 -4.12098 255 0 0
-18.9218 -9.17949 -4.54679 255 0 0
-20.44 -8.12081 -3.74017 255 0 0
-20.2852 -8.11505 -3.72863 255 0 0
-20.0409 -8.12779 -3.71108 255 0 0
-19.659 -8.13621 -3.68337 255 0 0
-19.5481 -8.14463 -3.67552 255 0 0
-19.2995 -8.14869 -3.6575 255 0 0
-19.1089 -8.28261 -3.64781 255 0 0
-19.2186 -9.15516 -3.68429 255 0 0
-19.111 -9.27124 -3.6806 255 0 0
-19.1362 -9.33957 -3.68475 255 0 0
-19.3254 -9.60272 -3.70738 255 0 0
-19.3843 -9.86233 -3.72077 255 0 0
-19.4744 -10.0832 -3.73509 255 0 0
-19.4918 -10.1509 -3.73879 255 0 0
-19.4832 -10.2052 -3.74017 255 0 0
-18.9531 -8.86381 -4.35749 255 0 0
-19.0488 -7.20439 -4.12341 255 0 0
-18.8945 -7.97768 -4.6568 255 0 0
-19.04 -6.13659 -4.59136 255 0 0
-20.406 -6.15212 -4.40142 255 0 0
-18.9672 -9.146 -4.37257 255 0 0
-19.0134 -8.29481 -3.98872 255 0 0
-19.0428 -6.18739 -4.76313 255 0 0
-18.989 -8.60777 -3.99878 255 0 0
-19.0566 -9.18912 -3.85095 255 0 0
-18.9898 -8.66244 -4.00101 255 0 0
-20.4342 -8.06246 -3.92188 255 0 0
-20.4259 -8.11519 -3.9229 255 0 0
-20.2928 -8.1181 -3.91219 255 0 0
-20.0109 -8.11559 -3.88922 255 0 0
-19.7725 -8.12833 -3.87034 255 0 0
-19.6454 -8.13058 -3.86013 255 0 0
-19.5345 -8.13899 -3.85146 255 0 0
-19.4022 -8.13791 -3.84074 255 0 0
-19.2647 -8.13397 -3.82951 255 0 0
-19.067 -8.21081 -3.81625 255 0 0
-19.0493 -8.31047 -3.81829 255 0 0
-19.1323 -8.45493 -3.83003 255 0 0
-19.2198 -8.60276 -3.84227 255 0 0
-19.0945 -8.7102 -3.83615 255 0 0
-19.0847 -8.81532 -3.83921 255 0 0
-19.048 -8.9082 -3.83972 255 0 0
-19.0521 -9.1313 -3.8484 255 0 0
-19.0558 -9.24446 -3.85299 255 0 0
-19.0653 -9.30497 -3.85605 255 0 0
-19.0837 -9.42627 -3.86218 255 0 0
-19.0822 -9.48187 -3.86422 255 0 0
-19.0753 -9.53491 -3.86575 255 0 0
-19.0839 -9.59583 -3.86881 255 0 0
-19.0923 -9.65685 -3.87187 255 0 0
-19.1035 -9.89113 -3.88208 255 0 0
-19.111 -9.95256 -3.88514 255 0 0
-19.2744 -10.33 -3.91321 255 0 0
-18.9977 -9.66563 -4.04348 255 0 0
-20.2911 -6.17002 -4.38962 255 0 0
-18.9747 -10.2855 -4.61367 255 0 0
-18.8904 -6.28675 -4.41094 255 0 0
-20.3107 -7.35313 -4.07086 255 0 0
-20.4575 -7.46118 -4.08762 255 0 0
-20.385 -7.48957 -4.08204 255 0 0
-20.4749 -7.63298 -4.09489 255 0 0
-20.484 -7.69175 -4.09768 255 0 0
-20.4003 -7.71555 -4.09098 255 0 0
-20.4582 -7.79294 -4.0988 255 0 0
-20.4723 -7.85395 -4.10215 255 0 0
-20.4374 -7.89617 -4.10048 255 0 0
-20.3861 -8.04348 -4.10103 255 0 0
-20.2532 -8.0466 -4.0893 255 0 0
-20.0148 -8.06197 -4.06862 255 0 0
-19.7227 -8.05324 -4.04236 255 0 0
-19.6335 -8.07117 -4.0351 255 0 0
-19.3773 -8.01962 -4.01051 255 0 0
-19.2399 -8.01623 -3.99822 255 0 0
-19.0889 -8.05976 -3.98648 255 0 0
-19.0076 -8.13185 -3.98201 255 0 0
-19.0097 -8.18612 -3.98425 255 0 0
-19.0116 -8.24044 -3.98648 255 0 0
-18.9859 -8.44406 -3.99207 255 0 0
-18.9881 -8.55315 -3.99654 255 0 0
-19.001 -8.72203 -4.00436 255 0 0
-18.9908 -8.77195 -4.00548 255 0 0
-19.0016 -8.99656 -4.01554 255 0 0
-19.0118 -9.05662 -4.01889 255 0 0
-19.0113 -9.11175 -4.02113 255 0 0
-19.0046 -9.21961 -4.02504 255 0 0
-20.6251 -6.21819 -4.24606 255 0 0
-18.9984 -9.27231 -4.02672 255 0 0
-18.9946 -9.43834 -4.03342 255 0 0
-19.0034 -9.49898 -4.03677 255 0 0
-19.0017 -9.55449 -4.03901 255 0 0
-19.0102 -9.6153 -4.04236 255 0 0
-19.0061 -9.84071 -4.05186 255 0 0
-19.0109 -9.95778 -4.05745 255 0 0
-19.0181 -10.0191 -4.0608 255 0 0
-19.0252 -10.0806 -4.06415 255 0 0
-19.0218 -10.1366 -4.06639 255 0 0
-19.0569 -10.33 -4.07812 255 0 0
-19.0937 -10.4086 -4.08483 255 0 0
-19.0946 -10.4679 -4.08762 255 0 0
-18.9457 -6.25531 -4.24801 255 0 0
-18.9568 -7.0159 -4.27751 255 0 0
-19.0295 -9.96753 -4.42043 255 0 0
-20.1499 -6.33647 -4.20234 255 0 0
-20.3514 -6.45288 -4.22602 255 0 0
-20.4358 -6.53303 -4.23695 255 0 0
-20.4314 -6.58504 -4.23817 255 0 0
-20.4213 -6.63527 -4.23878 255 0 0
-20.3619 -6.7229 -4.23574 255 0 0
-20.4126 -6.84716 -4.24485 255 0 0
-20.0605 -6.88816 -4.21145 255 0 0
-19.0377 -6.63808 -4.10215 255 0 0
-19.0164 -6.68127 -4.10155 255 0 0
-19.017 -6.73217 -4.10337 255 0 0
-19.0284 -6.78702 -4.1064 255 0 0
-19.0344 -6.89105 -4.11065 255 0 0
-19.0399 -6.94415 -4.11308 255 0 0
-19.0122 -7.03638 -4.11369 255 0 0
-19.048 -7.25576 -4.12523 255 0 0
-19.0176 -7.39951 -4.12766 255 0 0
-19.0223 -7.60982 -4.13616 255 0 0
-19.0366 -7.66796 -4.1398 255 0 0
-19.0085 -7.81424 -4.14284 255 0 0
-19.0142 -7.92221 -4.14769 255 0 0
-19.0115 -7.97403 -4.14952 255 0 0
-19.0046 -8.18392 -4.15741 255 0 0
-19.0099 -8.34699 -4.1647 255 0 0
-18.9953 -8.39439 -4.1653 255 0 0
-19.0339 -8.46544 -4.17198 255 0 0
-19.0244 -8.5153 -4.1732 255 0 0
-19.0042 -8.56039 -4.1732 255 0 0
-19.021 -8.62225 -4.17745 255 0 0
-19.0164 -8.67458 -4.17927 255 0 0
-18.9957 -8.71964 -4.17927 255 0 0
-19.0173 -8.78419 -4.18413 255 0 0
-19.0229 -8.95148 -4.19202 255 0 0
-19.0121 -9.00154 -4.19323 255 0 0
-19.0012 -9.0516 -4.19445 255 0 0
-19.006 -9.10921 -4.19749 255 0 0
-19.0105 -9.1669 -4.20052 255 0 0
-19.0442 -9.35065 -4.21206 255 0 0
-19.0376 -9.40352 -4.21388 255 0 0
-19.0397 -9.51712 -4.21934 255 0 0
-19.0315 -9.73972 -4.22906 255 0 0
-19.0291 -9.79548 -4.23149 255 0 0
-19.0134 -9.90174 -4.23513 255 0 0
-19.0257 -10.3131 -4.25638 255 0 0
-19.0676 -10.3944 -4.26428 255 0 0
-18.8475 -6.42177 -4.57933 255 0 0
-18.9114 -7.8268 -4.47851 255 0 0
-18.8969 -9.16739 -4.72074 255 0 0
-19.0258 -10.4302 -4.44469 255 0 0
-19.8215 -6.13004 -4.68764 255 0 0
-19.9538 -6.11917 -4.35159 255 0 0
-19.669 -6.13404 -4.32144 255 0 0
-19.3569 -6.13755 -4.288 255 0 0
-19.2148 -6.14268 -4.27292 255 0 0
-18.9917 -6.17079 -4.24998 255 0 0
-18.9695 -6.31307 -4.2526 255 0 0
-18.9544 -6.35803 -4.2526 255 0 0
-18.9503 -6.40668 -4.25391 255 0 0
-18.9609 -6.66174 -4.2644 255 0 0
-18.9725 -6.71639 -4.26768 255 0 0
-18.9568 -6.81219 -4.26965 255 0 0
-18.957 -6.86306 -4.27161 255 0 0
-18.956 -7.11799 -4.28145 255 0 0
-18.9554 -7.16909 -4.28341 255 0 0
-18.9582 -7.32471 -4.28997 255 0 0
-18.9679 -7.38018 -4.29325 255 0 0
-18.969 -7.5364 -4.2998 255 0 0
-18.9591 -7.79393 -4.30964 255 0 0
-18.9488 -7.89493 -4.31291 255 0 0
-18.9515 -7.94884 -4.31554 255 0 0
-18.9457 -8.05228 -4.31947 255 0 0
-18.9479 -8.10633 -4.32209 255 0 0
-18.968 -8.22154 -4.3293 255 0 0
-18.9538 -8.26882 -4.32996 255 0 0
-18.9104 -8.41052 -4.33193 255 0 0
-18.9276 -8.47197 -4.33652 255 0 0
-18.9773 -8.60247 -4.34766 255 0 0
-18.9714 -8.95475 -4.36372 255 0 0
-18.9736 -9.03844 -4.36798 255 0 0
-18.9683 -9.36928 -4.38372 255 0 0
-18.9636 -9.53533 -4.39158 255 0 0
-18.9461 -9.58289 -4.39224 255 0 0
-18.9729 -9.70974 -4.40142 255 0 0
-18.9757 -9.76801 -4.4047 255 0 0
-18.97 -10.1668 -4.42502 255 0 0
-19.0188 -10.3093 -4.43748 255 0 0
-19.0163 -10.4837 -4.44665 255 0 0
-18.8837 -8.23826 -4.66884 255 0 0
-19.3626 -10.0253 -4.64041 255 0 0
-18.924 -8.95982 -4.53553 255 0 0
-20.4084 -6.15286 -4.58129 255 0 0
-20.2714 -6.16403 -4.5658 255 0 0
-20.1067 -6.16606 -4.54679 255 0 0
-19.8754 -6.14674 -4.51934 255 0 0
-19.7776 -6.16788 -4.50878 255 0 0
-19.4433 -6.16497 -4.47007 255 0 0
-19.1981 -6.18756 -4.44261 255 0 0
-18.8976 -8.35118 -4.67636 255 0 0
-18.903 -6.34077 -4.41446 255 0 0
-18.8892 -6.43596 -4.41657 255 0 0
-18.9134 -6.54447 -4.42361 255 0 0
-18.9033 -6.59121 -4.42431 255 0 0
-18.9047 -6.69241 -4.42853 255 0 0
-18.8947 -6.78985 -4.43135 255 0 0
-18.9057 -6.99698 -4.4412 255 0 0
-18.8983 -7.19873 -4.44895 255 0 0
-18.891 -7.29874 -4.45247 255 0 0
-18.8953 -7.35194 -4.45528 255 0 0
-18.9049 -7.40732 -4.4588 255 0 0
-18.9039 -7.61452 -4.46795 255 0 0
-18.8891 -7.71286 -4.47077 255 0 0
-18.8923 -7.76647 -4.47359 255 0 0
-18.9089 -7.87833 -4.48062 255 0 0
-18.9277 -7.93887 -4.48555 255 0 0
-18.9142 -7.98599 -4.48626 255 0 0
-18.8943 -8.13642 -4.49118 255 0 0
-18.8981 -8.24452 -4.49681 255 0 0
-18.912 -8.35754 -4.50385 255 0 0
-18.9262 -8.52527 -4.51371 255 0 0
-18.9113 -8.57252 -4.51441 255 0 0
-18.9294 -8.85274 -4.5306 255 0 0
-18.9232 -9.06956 -4.54116 255 0 0
-18.9342 -9.35246 -4.55735 255 0 0
-18.9088 -9.50779 -4.56298 255 0 0
-18.964 -9.59195 -4.57354 255 0 0
-19.3604 -9.96604 -4.6369 255 0 0
-19.2975 -10.0497 -4.63478 255 0 0
-19.0971 -10.1187 -4.61719 255 0 0
-18.9003 -10.1295 -4.59677 255 0 0
-18.9911 -10.3527 -4.6193 255 0 0
-18.9614 -10.3949 -4.61859 255 0 0
-19.9581 -6.12048 -4.70419 255 0 0
-19.3401 -6.13223 -4.62822 255 0 0
-18.9334 -6.2015 -4.58083 255 0 0
-18.8525 -6.22453 -4.5718 255 0 0
-18.8443 -6.52057 -4.58309 255 0 0
-18.8343 -6.56714 -4.58384 255 0 0
-18.8406 -6.61948 -4.58685 255 0 0
-18.8358 -6.668 -4.58835 255 0 0
-18.8418 -6.72045 -4.59136 255 0 0
-18.8425 -6.82158 -4.59587 255 0 0
-18.8426 -6.87221 -4.59813 255 0 0
-18.8684 -7.13618 -4.61317 255 0 0
-18.9157 -7.25678 -4.62446 255 0 0
-18.8636 -7.39114 -4.62446 255 0 0
-18.8715 -7.49766 -4.63048 255 0 0
-18.8715 -7.65353 -4.638 255 0 0
-18.878 -7.76059 -4.64402 255 0 0
-18.8864 -7.81643 -4.64778 255 0 0
-18.8916 -8.02927 -4.65906 255 0 0
-18.8819 -8.18422 -4.66583 255 0 0
-18.9096 -8.41013 -4.68087 255 0 0
-18.9002 -8.45968 -4.68238 255 0 0
-18.8916 -8.5636 -4.68689 255 0 0
-18.8923 -8.618 -4.6899 255 0 0
-18.9035 -8.67731 -4.69441 255 0 0
-18.9043 -8.78643 -4.70043 255 0 0
-18.9095 -8.95298 -4.71021 255 0 0
-18.8935 -9.00028 -4.71096 255 0 0
-18.9088 -9.06262 -4.71623 255 0 0
-18.9158 -9.28761 -4.72977 255 0 0
-18.925 -9.34787 -4.73428 255 0 0
-18.8856 -9.4401 -4.73503 255 0 0
-19.0243 -6.13155 -4.75833 255 0 0
-18.8535 -6.22488 -4.73992 255 0 0
-18.865 -6.42773 -4.75032 255 0 0
-18.8482 -6.72272 -4.76153 255 0 0
-18.8653 -6.88047 -4.77114 255 0 0
-20.4106 -8.16523 -2.63965 255 0 0
-20.3206 -8.18517 -2.63743 255 0 0
