ply
format ascii 1.0
comment Created by Open3D
element vertex 705
property double x
property double y
property double z
property uchar red
property uchar green
property uchar blue
end_header
-4.64009 10.8815 -5.06457 255 0 0
-6.28988 9.98962 -4.64282 255 0 0
-6.77044 11.7161 -4.56032 255 0 0
-5.36857 9.87603 -5.11234 255 0 0
-4.48459 9.47193 -4.99565 255 0 0
-6.43086 11.9651 -4.92274 255 0 0
-6.14688 9.971 -4.62236 255 0 0
-3.92976 9.5272 -5.03876 255 0 0
-6.95789 9.91881 -5.03153 255 0 0
-4.43727 9.48797 -4.99404 255 0 0
-3.0116 9.94649 -5.53979 255 0 0
-5.34606 10.0036 -5.14047 255 0 0
-6.2923 10.8886 -5.14665 255 0 0
-5.15263 10.5892 -4.63643 255 0 0
-5.3152 10.4777 -5.25296 255 0 0
-3.12286 9.80864 -5.31629 255 0 0
-6.78238 9.8164 -5.09101 255 0 0
-5.59921 9.58408 -5.07328 255 0 0
-6.66204 11.0397 -5.22624 255 0 0
-3.6044 9.63363 -5.12601 255 0 0
-4.74202 9.74537 -4.71175 255 0 0
-6.35048 11.0195 -5.07019 255 0 0
-4.81633 10.0186 -4.68341 255 0 0
-6.88088 11.714 -4.22123 255 0 0
-3.58174 9.30326 -5.12043 255 0 0
-4.1854 10.8329 -5.21546 255 0 0
-6.60365 10.0596 -4.79922 255 0 0
-4.36383 10.7968 -5.12035 255 0 0
-5.34772 10.4801 -5.25765 255 0 0
-5.85256 9.90954 -4.67716 255 0 0
-6.75014 11.7451 -4.44673 255 0 0
-5.39172 10.6913 -4.996 255 0 0
-4.68864 10.3108 -4.73425 255 0 0
-5.34125 9.82578 -4.60155 255 0 0
-4.71148 9.74125 -4.70748 255 0 0
-6.3079 10.7678 -5.12249 255 0 0
-5.22061 9.76881 -4.67379 255 0 0
-6.29529 10.6592 -5.20701 255 0 0
-3.20376 10.3593 -5.39417 255 0 0
-3.08318 10.4503 -5.51021 255 0 0
-4.78697 11.0083 -4.89775 255 0 0
-4.52147 10.8884 -5.05429 255 0 0
-3.68603 9.47355 -5.0894 255 0 0
-3.33912 9.72454 -5.21839 255 0 0
-6.40852 10.9694 -5.06676 255 0 0
-5.805 9.93632 -4.57631 255 0 0
-6.68694 11.7639 -4.56032 255 0 0
-6.49735 11.7855 -4.89565 255 0 0
-6.67403 9.8582 -5.61807 255 0 0
-6.35794 9.9402 -4.74482 255 0 0
-5.75041 9.89668 -4.66257 255 0 0
-5.37658 10.0035 -5.04306 255 0 0
-4.54944 9.43473 -5.08844 255 0 0
-6.19998 10.1107 -4.96757 255 0 0
-4.79807 10.103 -4.6999 255 0 0
-3.04003 9.95522 -5.54546 255 0 0
-3.15173 9.28622 -5.61549 255 0 0
-3.0796 9.83382 -5.41462 255 0 0
-6.38146 10.2155 -5.01376 255 0 0
-5.84927 9.95782 -4.68645 255 0 0
-6.22934 9.89347 -4.71962 255 0 0
-5.45138 9.97196 -4.94416 255 0 0
-6.40094 9.90364 -4.95052 255 0 0
-5.47936 10.6755 -5.10863 255 0 0
-6.27523 10.019 -4.85379 255 0 0
-6.61185 9.86683 -4.97184 255 0 0
-5.18176 9.80773 -4.58032 255 0 0
-5.47446 10.604 -5.19764 255 0 0
-3.2721 9.87101 -5.25512 255 0 0
-6.50473 9.85787 -4.85104 255 0 0
-6.65115 11.7658 -4.67383 255 0 0
-5.42507 9.97998 -4.54305 255 0 0
-4.07893 10.374 -5.18635 255 0 0
-5.28649 9.83593 -4.59757 255 0 0
-3.80212 9.77195 -5.09175 255 0 0
-3.77824 9.88349 -5.11991 255 0 0
-5.97274 9.79217 -5.07337 255 0 0
-6.35672 9.73366 -5.01171 255 0 0
-6.34374 11.7696 -4.30031 255 0 0
-5.32967 10.6941 -5.09541 255 0 0
-6.70339 11.7281 -4.55597 255 0 0
-6.45791 9.8886 -4.85104 255 0 0
-6.50182 9.95585 -4.76605 255 0 0
-6.50534 9.75783 -5.03814 255 0 0
-6.55895 10.9863 -5.08874 255 0 0
-5.97525 9.74423 -5.06276 255 0 0
-5.43501 9.94202 -4.53665 255 0 0
-3.61142 9.58312 -5.11239 255 0 0
-4.48621 9.44632 -5.08347 255 0 0
-5.9792 10.9375 -5.00905 255 0 0
-5.29082 9.78824 -4.58828 255 0 0
-3.13058 9.55777 -5.33267 255 0 0
-6.43566 9.95736 -4.86203 255 0 0
-5.96272 9.67227 -5.04458 255 0 0
-3.42218 10.575 -5.378 255 0 0
-4.07543 9.49486 -5.42383 255 0 0
-4.9572 9.49138 -5.06083 255 0 0
-5.39853 9.93115 -4.82829 255 0 0
-5.45799 9.65512 -4.97183 255 0 0
-3.3099 9.75224 -5.22363 255 0 0
-4.24765 9.42983 -5.04953 255 0 0
-5.36146 9.91894 -4.82118 255 0 0
-6.79242 11.69 -4.55814 255 0 0
-6.08972 9.82605 -4.79058 255 0 0
-5.44009 9.78529 -4.70265 255 0 0
-4.4514 10.8282 -5.13702 255 0 0
-6.69657 10.9789 -5.21771 255 0 0
-3.09464 9.88184 -5.33605 255 0 0
-3.46465 9.89871 -5.18731 255 0 0
-6.459 9.78857 -5.03814 255 0 0
-5.85566 9.86131 -4.66788 255 0 0
-6.50099 11.0075 -5.08599 255 0 0
-5.77042 10.9219 -5.42014 255 0 0
-5.18217 10.4602 -4.6134 255 0 0
-3.88666 9.35968 -5.08004 255 0 0
-4.19827 9.65448 -5.00933 255 0 0
-4.13997 9.42854 -5.03628 255 0 0
-5.37039 10.1067 -4.56223 255 0 0
-2.97735 9.83335 -5.5951 255 0 0
-5.47837 9.90939 -5.03397 255 0 0
-3.49139 9.33158 -5.11869 255 0 0
-4.99496 9.87541 -4.57435 255 0 0
-4.228 10.8285 -5.21859 255 0 0
-3.54731 9.76216 -5.15666 255 0 0
-3.11313 9.54272 -5.41897 255 0 0
-4.08511 9.45551 -5.03711 255 0 0
-3.04929 9.90143 -5.43304 255 0 0
-3.68607 9.99609 -5.14143 255 0 0
-6.44746 11.7609 -4.65338 255 0 0
-6.46266 9.94733 -4.75942 255 0 0
-3.23422 9.45552 -5.40387 255 0 0
-5.17481 9.85105 -4.68616 255 0 0
-5.03112 10.0354 -5.20888 255 0 0
-5.05418 9.78992 -5.14934 255 0 0
-4.4763 9.60111 -4.83847 255 0 0
-5.05395 9.67662 -4.63532 255 0 0
-3.23283 10.154 -5.33558 255 0 0
-3.28022 9.51628 -5.33543 255 0 0
-6.40247 11.7117 -4.52549 255 0 0
-5.37513 10.4724 -5.25921 255 0 0
-5.80551 9.93719 -4.67716 255 0 0
-3.99584 9.43261 -5.02055 255 0 0
-6.64751 9.86935 -5.61637 255 0 0
-6.4456 11.9246 -4.91659 255 0 0
-2.99181 10.2299 -5.63041 255 0 0
-3.68294 10.5224 -5.28716 255 0 0
-5.87239 9.94312 -4.58526 255 0 0
-5.40869 9.92183 -5.02791 255 0 0
-3.43957 10.0171 -5.2188 255 0 0
-3.68466 10.1401 -5.18118 255 0 0
-6.3302 10.2141 -5.11303 255 0 0
-6.46154 9.9456 -4.96757 255 0 0
-3.13631 9.85089 -5.42567 255 0 0
-3.8724 9.78057 -5.10169 255 0 0
-3.05754 9.68281 -5.45862 255 0 0
-5.27557 10.523 -5.25921 255 0 0
-4.7557 10.3928 -4.75898 255 0 0
-3.55543 9.36716 -5.13618 255 0 0
-3.20874 9.52834 -5.23909 255 0 0
-5.94042 9.95023 -4.69574 255 0 0
-6.2391 10.6215 -5.30069 255 0 0
-4.45689 10.8783 -5.04548 255 0 0
-4.88481 10.4773 -4.6891 255 0 0
-5.41887 9.69293 -4.77855 255 0 0
-3.17566 9.50457 -5.41331 255 0 0
-5.23911 10.3277 -5.31026 255 0 0
-6.78899 11.716 -4.44569 255 0 0
-3.85015 9.36566 -5.07749 255 0 0
-6.51673 9.77491 -5.5704 255 0 0
-5.22868 9.81188 -4.58629 255 0 0
-6.23558 10.761 -5.33252 255 0 0
-5.32371 9.8491 -4.70265 255 0 0
-5.993 9.93101 -4.59677 255 0 0
-5.46003 9.71241 -4.98547 255 0 0
-6.35662 11.76 -4.41447 255 0 0
-6.3391 11.7276 -4.17966 255 0 0
-5.3488 10.066 -5.15609 255 0 0
-5.23328 10.3771 -4.60189 255 0 0
-7.20654 9.86966 -5.16589 255 0 0
-6.05839 9.67275 -5.05822 255 0 0
-5.76551 10.9755 -5.43264 255 0 0
-3.40961 9.45297 -5.3299 255 0 0
-3.14152 9.32877 -5.5365 255 0 0
-3.34305 9.51501 -5.34187 255 0 0
-2.98585 9.69543 -5.64473 255 0 0
-6.0553 9.92753 -4.70502 255 0 0
-6.56269 9.8946 -4.86615 255 0 0
-5.25739 10.243 -4.57758 255 0 0
-3.77074 9.93443 -5.13315 255 0 0
-5.42027 9.74963 -4.88983 255 0 0
-7.19812 9.95692 -5.07417 255 0 0
-4.53626 9.61046 -4.84757 255 0 0
-4.48987 9.51218 -4.91235 255 0 0
-3.02501 10.1643 -5.51408 255 0 0
-4.51101 9.44073 -5.08513 255 0 0
-6.0256 9.98503 -5.1249 255 0 0
-6.20341 9.98304 -4.63131 255 0 0
-4.4697 10.8362 -5.03667 255 0 0
-3.6745 10.3407 -5.23583 255 0 0
-4.84493 9.89715 -4.66005 255 0 0
-3.19283 9.26277 -5.52001 255 0 0
-4.09472 10.2709 -5.1606 255 0 0
-4.03158 9.42349 -5.0222 255 0 0
-6.68688 9.82691 -5.07926 255 0 0
-3.29919 9.83546 -5.24725 255 0 0
-6.63731 11.8066 -4.67951 255 0 0
-6.97766 11.7508 -4.23446 255 0 0
-6.2928 10.3169 -5.13065 255 0 0
-4.171 9.40821 -4.94174 255 0 0
-6.20432 10.3923 -5.2431 255 0 0
-6.09137 11.0802 -5.16371 255 0 0
-6.34833 10.0824 -5.0866 255 0 0
-6.29456 9.89269 -4.72758 255 0 0
-4.07028 9.93462 -5.06887 255 0 0
-3.50098 9.77887 -5.15666 255 0 0
-4.49206 10.8176 -5.13854 255 0 0
-5.39392 10.6329 -4.98321 255 0 0
-5.30566 9.87159 -4.80413 255 0 0
-4.59279 9.4387 -5.09507 255 0 0
-4.35147 10.9905 -5.16733 255 0 0
-5.43284 10.6158 -5.19537 255 0 0
-4.82777 9.71585 -4.71459 255 0 0
-6.51961 9.88042 -4.96189 255 0 0
-6.25018 10.9051 -5.2562 255 0 0
-5.97566 9.87581 -4.68512 255 0 0
-6.68187 11.755 -4.67497 255 0 0
-3.36205 9.39083 -5.12218 255 0 0
-3.42993 9.43911 -5.2355 255 0 0
-4.94702 9.98551 -4.59226 255 0 0
-4.86335 9.87542 -4.65731 255 0 0
-6.77041 9.79907 -5.61977 255 0 0
-5.4407 9.86885 -4.62145 255 0 0
-6.33043 11.7782 -4.18627 255 0 0
-4.86442 9.76055 -4.63257 255 0 0
-6.84737 10.0116 -4.92798 255 0 0
-5.35966 10.8184 -5.12772 255 0 0
-5.38959 10.4396 -5.25296 255 0 0
-3.90452 9.3401 -5.07663 255 0 0
-6.47222 11.8393 -4.78607 255 0 0
-4.71463 9.68909 -4.79145 255 0 0
-4.18725 9.44488 -5.51903 255 0 0
-4.35866 10.9329 -5.15369 255 0 0
-6.38345 11.743 -4.18533 255 0 0
-3.04771 9.61192 -5.52838 255 0 0
-6.26772 10.787 -5.23197 255 0 0
-4.71954 10.5778 -4.79608 255 0 0
-4.21623 9.44971 -4.95783 255 0 0
-7.19771 10.0062 -5.08412 255 0 0
-4.77655 10.9135 -4.87577 255 0 0
-3.54926 9.69585 -5.13793 255 0 0
-6.30824 10.4534 -5.16296 255 0 0
-3.42413 9.49321 -5.15892 255 0 0
-3.28636 9.46122 -5.31885 255 0 0
-4.13731 9.42254 -5.41002 255 0 0
-5.04553 9.6605 -4.92031 255 0 0
-6.71398 11.6822 -4.54944 255 0 0
-3.63682 9.51356 -5.09536 255 0 0
-6.30318 10.615 -5.1982 255 0 0
-3.70478 9.86628 -5.10749 255 0 0
-3.14265 9.48051 -5.40198 255 0 0
-5.14421 9.82103 -4.57899 255 0 0
-4.98754 9.49455 -5.06565 255 0 0
-5.18512 10.5288 -4.62747 255 0 0
-6.28657 9.82861 -4.91925 255 0 0
-5.53259 9.73315 -4.80129 255 0 0
-5.3728 10.0536 -4.552 255 0 0
-3.07473 10.0688 -5.39171 255 0 0
-3.09171 9.63173 -5.352 255 0 0
-6.35334 11.1156 -5.2035 255 0 0
-6.57579 9.81301 -5.06017 255 0 0
-7.08617 9.92543 -5.05143 255 0 0
-3.85941 9.35663 -5.35385 255 0 0
-4.7298 10.4671 -4.77272 255 0 0
-4.12309 10.7856 -5.30061 255 0 0
-3.43489 9.41797 -5.13793 255 0 0
-6.77925 11.7313 -4.33108 255 0 0
-4.65956 9.63391 -4.77236 255 0 0
-3.18728 9.4276 -5.29767 255 0 0
-3.22773 9.36398 -5.37366 255 0 0
-3.27943 9.26372 -5.34723 255 0 0
-2.96537 9.9639 -5.63765 255 0 0
-5.54862 9.7077 -4.99608 255 0 0
-3.24265 9.33536 -5.36611 255 0 0
-5.482 10.028 -4.85956 255 0 0
-5.39664 10.0982 -4.96619 255 0 0
-5.52347 9.77096 -4.80839 255 0 0
-3.09787 9.61176 -5.43974 255 0 0
-3.23641 10.3346 -5.3898 255 0 0
-3.90077 9.39365 -5.37042 255 0 0
-5.64772 9.90833 -4.55328 255 0 0
-6.2247 9.83432 -4.91215 255 0 0
-5.4477 9.90934 -4.92948 255 0 0
-5.42993 10.4569 -5.26234 255 0 0
-3.95135 9.42071 -5.38516 255 0 0
-5.47299 9.84446 -4.62012 255 0 0
-6.09572 9.83573 -4.69176 255 0 0
-4.89793 10.3767 -4.6692 255 0 0
-6.86766 11.7553 -4.22595 255 0 0
-6.9057 11.6927 -4.22028 255 0 0
-3.08763 9.46458 -5.48358 255 0 0
-4.36564 9.48088 -4.98358 255 0 0
-4.09606 10.6392 -5.25877 255 0 0
-3.05627 9.8411 -5.41462 255 0 0
-5.50323 9.68149 -4.98396 255 0 0
-4.49905 9.59047 -4.83847 255 0 0
-4.73357 10.7459 -4.83455 255 0 0
-7.19311 9.90047 -5.1703 255 0 0
-5.11258 10.5706 -4.62875 255 0 0
-3.68434 9.91888 -5.11991 255 0 0
-6.29008 11.0049 -5.05989 255 0 0
-6.3718 11.7216 -4.29534 255 0 0
-6.50753 11.9039 -4.33406 255 0 0
-6.82444 11.7451 -4.33704 255 0 0
-6.82898 11.6891 -4.3291 255 0 0
-6.87129 11.6977 -4.33406 255 0 0
-5.23405 9.79396 -4.77855 255 0 0
-6.73513 9.87261 -4.99031 255 0 0
-3.10295 9.82664 -5.31989 255 0 0
-6.2624 10.7192 -5.32645 255 0 0
-6.36691 11.8461 -4.42904 255 0 0
-6.38173 11.7399 -4.41343 255 0 0
-6.46759 11.8309 -4.43528 255 0 0
-6.8684 11.7565 -4.45922 255 0 0
-6.27108 9.90759 -4.72758 255 0 0
-4.90286 9.77952 -4.64082 255 0 0
-3.46063 9.38473 -5.13093 255 0 0
-4.78065 9.70749 -4.70748 255 0 0
-4.21189 9.43998 -5.52092 255 0 0
-6.279 10.8656 -5.25106 255 0 0
-3.01183 10.12 -5.59643 255 0 0
-7.00828 9.99065 -5.16149 255 0 0
-4.84372 10.9256 -4.99031 255 0 0
-5.67677 10.8691 -5.39514 255 0 0
-6.42139 11.8128 -4.54399 255 0 0
-6.44408 11.7217 -4.53093 255 0 0
-6.49969 11.7568 -4.54182 255 0 0
-6.15823 9.88418 -4.709 255 0 0
-7.0344 9.92741 -5.04432 255 0 0
-6.40155 9.75173 -5.02199 255 0 0
-4.88278 10.604 -4.71564 255 0 0
-6.32215 9.83279 -4.92494 255 0 0
-6.39736 11.7686 -4.64997 255 0 0
-6.50869 11.7731 -4.66133 255 0 0
-6.57287 11.8229 -4.6761 255 0 0
-6.62892 11.8574 -4.68747 255 0 0
-6.70687 11.7341 -4.67383 255 0 0
-6.68514 11.8259 -4.80501 255 0 0
-4.59155 10.9108 -4.96189 255 0 0
-6.4143 9.9243 -4.7488 255 0 0
-4.18589 9.62607 -5.00048 255 0 0
-6.09938 9.68707 -5.06731 255 0 0
-5.35359 9.79307 -4.59624 255 0 0
-6.48659 11.766 -4.77423 255 0 0
-6.53119 11.7479 -4.77541 255 0 0
-5.83433 9.93238 -4.57886 255 0 0
-6.60377 11.7796 -4.78844 255 0 0
-5.37226 9.99551 -4.93976 255 0 0
-6.04901 9.86453 -4.79333 255 0 0
-7.21076 9.82643 -5.26583 255 0 0
-3.14438 9.37402 -5.45973 255 0 0
-6.45198 11.8691 -4.90673 255 0 0
-6.4554 11.8086 -4.89565 255 0 0
-6.56704 11.8124 -4.90796 255 0 0
-5.63413 10.078 -4.48427 255 0 0
-5.46958 9.94913 -4.54177 255 0 0
-4.36772 10.8806 -5.14157 255 0 0
-4.58735 9.54227 -4.83696 255 0 0
-5.36223 9.69932 -5.0686 255 0 0
-6.59608 9.99631 -4.78595 255 0 0
-5.27365 9.70143 -4.66555 255 0 0
-4.74513 9.69329 -4.70038 255 0 0
-3.07712 9.66497 -5.45484 255 0 0
-5.26593 10.2001 -4.56991 255 0 0
-6.05039 9.71109 -5.06579 255 0 0
-5.16768 10.5565 -4.63131 255 0 0
-5.18741 10.3778 -4.59741 255 0 0
-5.23388 10.2871 -4.58398 255 0 0
-5.27694 10.1622 -4.56351 255 0 0
-5.31689 10.1801 -4.57119 255 0 0
-5.31709 10.1219 -4.55968 255 0 0
-5.32506 10.079 -4.552 255 0 0
-5.40036 10.0193 -4.54816 255 0 0
-5.49662 9.91461 -4.53793 255 0 0
-5.54579 9.91995 -4.54433 255 0 0
-5.58889 9.94164 -4.55328 255 0 0
-5.62651 9.95323 -4.55968 255 0 0
-5.70286 9.92287 -4.56223 255 0 0
-5.72065 9.89942 -4.55968 255 0 0
-5.7642 9.92041 -4.56863 255 0 0
-5.91346 9.95865 -4.59294 255 0 0
-5.94297 9.92774 -4.59038 255 0 0
-6.03727 9.95097 -4.60573 255 0 0
-6.0668 9.94638 -4.60829 255 0 0
-6.11426 9.97094 -4.61852 255 0 0
-6.27528 10.019 -4.64666 255 0 0
-6.393 10.1002 -4.67608 255 0 0
-4.04874 9.81564 -5.03508 255 0 0
-3.65925 10.221 -5.20105 255 0 0
-4.29898 10.6363 -5.1764 255 0 0
-4.90424 10.1398 -4.62012 255 0 0
-4.90296 9.72213 -4.62845 255 0 0
-4.89618 10.7672 -4.75146 255 0 0
-4.88136 10.6674 -4.7289 255 0 0
-4.87914 10.5303 -4.69972 255 0 0
-4.89511 10.4347 -4.68114 255 0 0
-4.90294 10.3238 -4.65859 255 0 0
-4.8979 10.2504 -4.64267 255 0 0
-4.90243 10.1977 -4.63206 255 0 0
-4.92577 10.123 -4.61879 255 0 0
-4.9297 10.0703 -4.60818 255 0 0
-4.92333 9.99722 -4.59226 255 0 0
-4.98888 9.9806 -4.59558 255 0 0
-5.02357 9.84489 -4.57103 255 0 0
-5.09285 9.86486 -4.58253 255 0 0
-5.48797 9.81653 -4.61614 255 0 0
-5.55035 9.87308 -4.63471 255 0 0
-5.57936 9.86983 -4.63736 255 0 0
-5.58302 9.82186 -4.62808 255 0 0
-5.6576 9.87122 -4.64665 255 0 0
-5.6984 9.86091 -4.6493 255 0 0
-5.89942 9.82855 -4.66655 255 0 0
-6.10566 9.9569 -4.71696 255 0 0
-6.16217 9.9958 -4.73156 255 0 0
-6.19376 9.88888 -4.71431 255 0 0
-6.40617 9.96347 -4.75544 255 0 0
-6.73869 9.82769 -5.62147 255 0 0
-7.02721 9.96728 -5.05143 255 0 0
-4.05218 10.8304 -5.30543 255 0 0
-6.43444 9.90389 -4.85104 255 0 0
-3.10604 10.0857 -5.59454 255 0 0
-4.72674 10.6618 -4.81531 255 0 0
-4.71896 10.5094 -4.78096 255 0 0
-4.72319 10.2574 -4.72601 255 0 0
-4.74032 10.2307 -4.72188 255 0 0
-4.78381 10.2607 -4.73288 255 0 0
-4.79603 10.2235 -4.72601 255 0 0
-4.81054 10.1915 -4.72051 255 0 0
-4.81955 10.0864 -4.69853 255 0 0
-4.83577 9.96808 -4.67448 255 0 0
-4.86654 9.82306 -4.64631 255 0 0
-4.95433 9.76631 -4.64357 255 0 0
-4.96971 9.73933 -4.63944 255 0 0
-5.01098 9.76296 -4.64906 255 0 0
-5.02889 9.74094 -4.64631 255 0 0
-5.08083 9.78455 -4.66143 255 0 0
-5.18316 9.78228 -4.67242 255 0 0
-5.29495 9.85166 -4.6999 255 0 0
-6.07092 11.043 -5.04202 255 0 0
-5.43616 9.83303 -4.71227 255 0 0
-5.44384 9.73759 -4.69303 255 0 0
-5.53295 9.81484 -4.71982 255 0 0
-6.19646 10.9011 -5.02691 255 0 0
-6.38821 10.9944 -5.0695 255 0 0
-6.43451 10.9541 -5.06676 255 0 0
-6.55322 11.0361 -5.09836 255 0 0
-5.97264 9.84444 -4.77959 255 0 0
-6.23639 9.87865 -4.82012 255 0 0
-6.29388 9.86576 -4.82493 255 0 0
-6.37817 9.91993 -4.84692 255 0 0
-6.51569 9.9256 -4.86615 255 0 0
-6.58929 9.88374 -4.86753 255 0 0
-6.64186 9.88621 -4.87508 255 0 0
-6.7398 9.92997 -4.89707 255 0 0
-4.5731 10.7953 -4.93346 255 0 0
-4.6165 10.8262 -4.94483 255 0 0
-4.58615 10.6847 -4.9093 255 0 0
-4.64977 10.7625 -4.93346 255 0 0
-4.6798 10.7618 -4.93631 255 0 0
-4.77135 10.9016 -4.97752 255 0 0
-4.77658 10.8435 -4.96473 255 0 0
-4.76083 10.6703 -4.92352 255 0 0
-4.87249 9.71894 -4.72028 255 0 0
-5.12463 9.75552 -4.75723 255 0 0
-5.12819 9.65085 -4.73449 255 0 0
-5.38109 9.73343 -4.78281 255 0 0
-5.42071 9.75043 -4.79134 255 0 0
-5.51143 9.80384 -4.81408 255 0 0
-6.37968 11.1005 -5.2035 255 0 0
-6.27815 10.8049 -5.12675 255 0 0
-6.33174 10.7209 -5.11538 255 0 0
-6.38614 10.7547 -5.1296 255 0 0
-6.62126 11.0907 -5.23193 255 0 0
-6.67385 11.1188 -5.24472 255 0 0
-6.70882 11.0579 -5.23619 255 0 0
-6.33762 10.2261 -5.01021 255 0 0
-6.35875 10.099 -4.98605 255 0 0
-6.2663 9.84828 -4.92067 255 0 0
-6.49753 9.94927 -4.97326 255 0 0
-6.49304 9.8911 -4.96047 255 0 0
-6.54056 9.83587 -4.95549 255 0 0
-6.6384 9.85583 -4.97326 255 0 0
-6.68723 9.8777 -4.98463 255 0 0
-6.79593 9.88605 -5.00168 255 0 0
-6.81612 9.86524 -5.00026 255 0 0
-6.88162 9.9097 -5.01874 255 0 0
-6.94085 9.94459 -5.03437 255 0 0
-7.2551 9.98578 -5.08838 255 0 0
-4.38568 9.40673 -5.06029 255 0 0
-3.66678 10.3971 -5.25073 255 0 0
-7.08104 9.79497 -5.23856 255 0 0
-6.23686 9.70015 -5.09004 255 0 0
-4.35096 9.50829 -4.89517 255 0 0
-4.60064 9.68729 -4.77823 255 0 0
-4.61627 9.66101 -4.77383 255 0 0
-4.62688 9.62449 -4.76649 255 0 0
-5.3422 10.6244 -5.08073 255 0 0
-5.40047 10.6458 -5.09247 255 0 0
-5.4257 10.6329 -5.09247 255 0 0
-5.39967 9.96138 -4.93535 255 0 0
-6.26755 10.7281 -5.21876 255 0 0
-6.32168 10.762 -5.23344 255 0 0
-6.32252 10.5903 -5.19526 255 0 0
-6.32136 10.5315 -5.18205 255 0 0
-6.30067 10.3851 -5.1468 255 0 0
-6.34431 10.3186 -5.13799 255 0 0
-6.31843 10.1413 -5.09541 255 0 0
-6.3575 10.1503 -5.10275 255 0 0
-6.33584 10.0099 -5.06898 255 0 0
-6.21045 9.76051 -4.99703 255 0 0
-6.35357 9.83034 -5.03227 255 0 0
-6.38921 9.83426 -5.03814 255 0 0
-6.50725 9.81101 -5.04989 255 0 0
-6.59271 9.78799 -5.05723 255 0 0
-6.64132 9.80988 -5.06898 255 0 0
-6.74303 9.8091 -5.08366 255 0 0
-6.89804 9.78406 -5.10128 255 0 0
-7.02656 9.86667 -5.13799 255 0 0
-7.01694 9.80389 -5.12331 255 0 0
-7.08159 9.82025 -5.13653 255 0 0
-3.69483 10.6372 -5.32028 255 0 0
-4.23302 10.7659 -5.20296 255 0 0
-3.43509 10.5296 -5.36608 255 0 0
-3.35288 9.43563 -5.13443 255 0 0
-4.37236 10.7445 -5.10823 255 0 0
-4.47968 9.66814 -4.85514 255 0 0
-4.55418 9.58946 -4.84453 255 0 0
-4.59154 9.60925 -4.85363 255 0 0
-5.3026 10.9303 -5.25523 255 0 0
-5.34393 10.9165 -5.25674 255 0 0
-5.30776 10.7137 -5.2037 255 0 0
-5.35845 10.72 -5.21128 255 0 0
-5.35836 10.6251 -5.18855 255 0 0
-5.39378 10.6326 -5.19461 255 0 0
-5.38483 10.0761 -5.06125 255 0 0
-5.3949 9.98081 -5.04003 255 0 0
-5.45486 9.92235 -5.03397 255 0 0
-5.38731 9.63647 -4.95819 255 0 0
-6.20854 10.8027 -5.33858 255 0 0
-6.26714 10.6115 -5.30221 255 0 0
-6.21431 10.4653 -5.26129 255 0 0
-6.16199 10.266 -5.20825 255 0 0
-5.98765 9.86917 -5.09307 255 0 0
-5.98563 9.6581 -5.04458 255 0 0
-6.12839 9.68214 -5.07034 255 0 0
-6.16954 9.69621 -5.07943 255 0 0
-6.35518 9.73131 -5.11429 255 0 0
-3.67162 10.7343 -5.34512 255 0 0
-4.21075 10.6351 -5.16703 255 0 0
-4.28629 10.7144 -5.19515 255 0 0
-4.35177 9.56995 -4.91079 255 0 0
-4.38949 9.503 -4.89829 255 0 0
-4.45242 9.52042 -4.91001 255 0 0
-5.31321 10.5356 -5.26702 255 0 0
-5.37197 9.93838 -5.12797 255 0 0
-5.38874 9.82965 -5.10375 255 0 0
-5.3057 9.54355 -5.02329 255 0 0
-5.40677 9.56451 -5.04204 255 0 0
-5.46607 9.56326 -5.04985 255 0 0
-3.96767 10.7597 -5.27808 255 0 0
-4.09466 10.8265 -5.30865 255 0 0
-4.10702 10.5927 -5.2475 255 0 0
-4.10141 10.5042 -5.22336 255 0 0
-4.07657 10.2962 -5.16543 255 0 0
-3.99532 9.95287 -5.06565 255 0 0
-4.04422 10.006 -5.08496 255 0 0
-4.05096 9.95467 -5.07209 255 0 0
-4.0828 9.83201 -5.04312 255 0 0
-4.14554 9.75374 -5.02944 255 0 0
-4.1591 9.6898 -5.01416 255 0 0
-4.22584 9.59325 -4.99646 255 0 0
-4.25477 9.47564 -4.9691 255 0 0
-4.30006 9.48608 -4.97714 255 0 0
-4.34549 9.49632 -4.98519 255 0 0
-4.3881 9.4705 -4.98358 255 0 0
-5.29827 10.506 -5.36337 255 0 0
-5.24567 10.2801 -5.299 255 0 0
-5.1852 10.1024 -5.24589 255 0 0
-5.00473 9.63801 -5.10428 255 0 0
-5.14526 9.51895 -5.09301 255 0 0
-3.74505 9.42627 -5.08259 255 0 0
-3.26305 9.53981 -5.34095 255 0 0
-3.58079 9.67528 -5.13538 255 0 0
-3.6281 10.6898 -5.32856 255 0 0
-3.67875 10.6725 -5.32856 255 0 0
-3.66442 10.1594 -5.18449 255 0 0
-3.6778 10.047 -5.15468 255 0 0
-3.77947 9.81685 -5.10169 255 0 0
-3.83481 9.75313 -5.0901 255 0 0
-3.85606 9.67224 -5.07023 255 0 0
-3.88108 9.66828 -5.07188 255 0 0
-3.8806 9.56853 -5.04456 255 0 0
-3.89439 9.50531 -5.02883 255 0 0
-3.92434 9.45042 -5.01723 255 0 0
-3.94024 9.42555 -5.01227 255 0 0
-3.99307 9.48865 -5.03545 255 0 0
-4.1008 9.43035 -5.03214 255 0 0
-4.19034 9.42164 -5.04042 255 0 0
-4.28929 9.43256 -5.05532 255 0 0
-4.33034 9.46322 -5.06857 255 0 0
-4.34102 9.42742 -5.06029 255 0 0
-4.38697 9.46806 -5.07685 255 0 0
-4.43421 9.45224 -5.07851 255 0 0
-4.4566 9.4417 -5.07851 255 0 0
-6.69108 9.83309 -5.61466 255 0 0
-3.3839 10.6285 -5.38992 255 0 0
-3.3834 10.5405 -5.36438 255 0 0
-3.44429 10.4735 -5.35076 255 0 0
-3.44796 10.4015 -5.33033 255 0 0
-3.44776 10.3189 -5.30649 255 0 0
-3.43646 10.2045 -5.27244 255 0 0
-3.43363 10.1168 -5.2469 255 0 0
-3.46139 9.96511 -5.20603 255 0 0
-3.49514 9.87312 -5.18305 255 0 0
-3.51085 9.73365 -5.14474 255 0 0
-3.62817 9.55881 -5.10728 255 0 0
-3.64327 9.46308 -5.08174 255 0 0
-3.71048 9.43693 -5.08174 255 0 0
-3.79421 9.45189 -5.09536 255 0 0
-3.79982 9.40131 -5.08174 255 0 0
-3.82843 9.40784 -5.08685 255 0 0
-6.61473 9.87112 -5.61126 255 0 0
-6.79721 9.76343 -5.61551 255 0 0
-6.5252 11.6719 -4.87717 255 0 0
-3.21379 10.1777 -5.34082 255 0 0
-3.22445 10.0453 -5.30234 255 0 0
-3.23277 9.98973 -5.2866 255 0 0
-3.26338 10.0033 -5.2936 255 0 0
-3.2417 9.85751 -5.24812 255 0 0
-3.33701 9.60704 -5.1834 255 0 0
-3.34501 9.55691 -5.16941 255 0 0
-3.36395 9.53841 -5.16591 255 0 0
-3.47509 9.35555 -5.12393 255 0 0
-3.53856 9.32273 -5.12131 255 0 0
-3.10256 9.58736 -5.33911 255 0 0
-3.05549 10.2667 -5.45096 255 0 0
-3.04778 10.1527 -5.41505 255 0 0
-3.04439 10.0548 -5.38452 255 0 0
-3.08582 9.97797 -5.36477 255 0 0
-3.13759 9.77467 -5.30732 255 0 0
-3.13845 9.69827 -5.28398 255 0 0
-3.14761 9.64842 -5.26961 255 0 0
-3.15481 9.59328 -5.25345 255 0 0
-3.18456 9.60693 -5.26063 255 0 0
-3.19143 9.55178 -5.24447 255 0 0
-3.23883 9.46906 -5.22413 255 0 0
-3.29753 9.42125 -5.21575 255 0 0
-3.32357 9.42392 -5.21934 255 0 0
-3.33284 9.37925 -5.20677 255 0 0
-3.41132 9.4577 -5.23909 255 0 0
-3.46787 9.33611 -5.20856 255 0 0
-3.0111 10.2959 -5.5546 255 0 0
-3.00405 10.1821 -5.51776 255 0 0
-3.04111 10.1305 -5.50487 255 0 0
-3.03291 10.0169 -5.46804 255 0 0
-3.04042 9.95648 -5.44962 255 0 0
-3.11127 9.85299 -5.42383 255 0 0
-3.15144 9.50702 -5.31885 255 0 0
-3.16693 9.47843 -5.31149 255 0 0
-3.34986 9.42713 -5.31517 255 0 0
-3.37782 9.43486 -5.32069 255 0 0
-3.40734 9.37695 -5.30596 255 0 0
-3.40472 9.30099 -5.28202 255 0 0
-3.99784 9.43731 -5.39621 255 0 0
-4.04854 9.49427 -5.42015 255 0 0
-4.09352 9.47497 -5.42015 255 0 0
-4.11154 9.45504 -5.41647 255 0 0
-2.97058 10.0687 -5.57566 255 0 0
-3.02785 10.0863 -5.58699 255 0 0
-3.15625 10.163 -5.62475 255 0 0
-3.06439 9.78524 -5.4926 255 0 0
-3.13229 9.52479 -5.41519 255 0 0
-3.20233 9.47221 -5.40575 255 0 0
-3.24829 9.28056 -5.34912 255 0 0
-4.21837 9.39458 -5.5077 255 0 0
-2.97309 9.9039 -5.61831 255 0 0
-2.99284 9.75929 -5.57189 255 0 0
-3.00296 9.66942 -5.54289 255 0 0
-3.03083 9.67809 -5.54869 255 0 0
-3.05061 9.50368 -5.49261 255 0 0
-3.11104 9.38514 -5.45973 255 0 0
-3.18735 9.31859 -5.44619 255 0 0
-3.17844 9.29246 -5.43652 255 0 0
-3.23074 9.26563 -5.43362 255 0 0
-3.0072 9.68306 -5.64275 255 0 0
-3.01038 9.6128 -5.61899 255 0 0
-3.01989 9.5636 -5.60316 255 0 0
-3.03963 9.50818 -5.58633 255 0 0
-3.0573 9.44751 -5.56752 255 0 0
-3.06773 9.40356 -5.55366 255 0 0
-3.09425 9.37165 -5.54574 255 0 0
-3.09522 9.37465 -5.6398 255 0 0
-3.11289 9.31669 -5.62157 255 0 0
-3.13847 9.3197 -5.62562 255 0 0
-3.18026 9.26196 -5.61043 255 0 0
-3.20869 9.23762 -5.60536 255 0 0
