ply
format ascii 1.0
comment Created by Open3D
element vertex 625
property double x
property double y
property double z
property uchar red
property uchar green
property uchar blue
end_header
-13.2757 -3.66145 -4.48732 255 0 0
-14.1289 -4.0776 -3.40982 255 0 0
-13.2844 -3.62996 -4.48732 255 0 0
-13.2577 -3.96276 -4.73747 255 0 0
-14.0185 -4.55488 -3.53684 255 0 0
-13.0854 -3.70931 -4.92644 255 0 0
-13.2187 -3.8829 -4.48836 255 0 0
-13.9632 -4.64697 -4.91133 255 0 0
-13.3013 -4.95868 -4.44228 255 0 0
-13.345 -4.86715 -4.81019 255 0 0
-14.0878 -4.46687 -3.66519 255 0 0
-13.0166 -3.80679 -5.15476 255 0 0
-15.1231 -4.1324 -3.6346 255 0 0
-15.9145 -3.70618 -4.5324 255 0 0
-14.0228 -3.76038 -4.00351 255 0 0
-13.2841 -4.0738 -4.74883 255 0 0
-13.2528 -5.01231 -4.55913 255 0 0
-13.3574 -3.92366 -4.03924 255 0 0
-13.0422 -4.86209 -5.11613 255 0 0
-13.0088 -4.2098 -5.18062 255 0 0
-12.9933 -4.9494 -5.23435 255 0 0
-13.1134 -5.01295 -5.02066 255 0 0
-14.6761 -3.7126 -4.21745 255 0 0
-13.0436 -3.96624 -5.05217 255 0 0
-15.1033 -4.20407 -3.6346 255 0 0
-14.0652 -4.02311 -3.52531 255 0 0
-13.2504 -3.68828 -4.4842 255 0 0
-13.9424 -3.45674 -4.96604 255 0 0
-13.3634 -4.73075 -3.95628 255 0 0
-14.078 -4.61114 -3.66913 255 0 0
-14.566 -3.61134 -4.45365 255 0 0
-13.0807 -3.80869 -4.93137 255 0 0
-13.3902 -3.48884 -4.73747 255 0 0
-14.282 -4.97984 -4.86186 255 0 0
-13.0211 -3.89205 -5.16139 255 0 0
-13.0371 -4.37313 -4.83935 255 0 0
-13.7797 -4.9149 -4.89428 255 0 0
-13.4748 -4.27252 -4.79656 255 0 0
-15.3052 -3.44971 -5.23956 255 0 0
-14.5854 -3.65289 -4.45837 255 0 0
-13.043 -4.82719 -5.11357 255 0 0
-14.0724 -4.72041 -3.6724 255 0 0
-13.0808 -3.64108 -4.92151 255 0 0
-13.3152 -3.60448 -4.49148 255 0 0
-14.3212 -3.62281 -4.28939 255 0 0
-14.3402 -3.44728 -5.04537 255 0 0
-13.51 -4.74662 -3.85495 255 0 0
-14.0561 -4.2014 -3.40646 255 0 0
-13.3861 -3.93207 -4.63979 255 0 0
-13.354 -3.78546 -4.26941 255 0 0
-13.2869 -4.77468 -4.06809 255 0 0
-14.989 -3.75395 -4.00163 255 0 0
-13.9833 -4.95019 -4.42531 255 0 0
-15.0752 -4.27337 -3.7655 255 0 0
-13.5654 -4.65795 -3.85796 255 0 0
-13.466 -4.37535 -4.19433 255 0 0
-14.1108 -4.77054 -3.67831 255 0 0
-15.5491 -3.42729 -5.14996 255 0 0
-15.8187 -3.52605 -5.06651 255 0 0
-13.3787 -3.86109 -3.8038 255 0 0
-13.354 -3.64898 -4.38171 255 0 0
-13.3072 -4.35869 -4.05112 255 0 0
-14.0851 -4.10116 -3.52956 255 0 0
-15.0457 -3.46628 -5.05451 255 0 0
-13.3203 -5.00175 -4.20509 255 0 0
-13.0375 -4.4077 -4.84172 255 0 0
-15.9562 -3.51701 -5.09154 255 0 0
-13.3543 -4.26916 -4.17281 255 0 0
-13.3092 -4.22 -4.16384 255 0 0
-15.4893 -3.76237 -4.06481 255 0 0
-14.0146 -3.36899 -5.10134 255 0 0
-13.3243 -5.00326 -4.32705 255 0 0
-13.3758 -4.91434 -4.32988 255 0 0
-14.1773 -4.16449 -3.78937 255 0 0
-13.2929 -4.16288 -3.92227 255 0 0
-13.0272 -4.09663 -5.05728 255 0 0
-14.1095 -4.16276 -3.53381 255 0 0
-13.3663 -3.80607 -3.91786 255 0 0
-13.6035 -4.74325 -3.86623 255 0 0
-13.9941 -3.54006 -4.73123 255 0 0
-13.1899 -3.43665 -5.17067 255 0 0
-13.212 -5.1046 -4.9246 255 0 0
-13.3347 -4.1586 -4.04603 255 0 0
-15.974 -3.68013 -4.54047 255 0 0
-13.4263 -3.70297 -4.04009 255 0 0
-13.3279 -4.12184 -4.04348 255 0 0
-13.0962 -5.0064 -4.895 255 0 0
-14.1073 -4.84403 -3.80627 255 0 0
-13.0901 -4.0653 -4.94922 255 0 0
-13.8042 -4.41299 -4.74211 255 0 0
-13.1954 -3.80818 -4.71701 255 0 0
-13.8533 -4.7568 -4.89769 255 0 0
-13.3474 -4.65396 -3.95068 255 0 0
-13.7218 -4.38666 -4.84997 255 0 0
-15.0765 -4.23514 -3.63278 255 0 0
-13.1247 -3.90607 -4.82751 255 0 0
-12.9944 -4.61747 -5.08735 255 0 0
-13.1581 -4.94086 -4.65938 255 0 0
-14.5938 -3.47166 -5.09747 255 0 0
-13.0385 -3.49641 -5.14016 255 0 0
-15.1308 -3.6753 -4.41314 255 0 0
-13.3946 -4.07298 -3.81358 255 0 0
-13.3287 -3.91522 -3.91706 255 0 0
-15.279 -4.09723 -3.51654 255 0 0
-16.0716 -3.62244 -4.69363 255 0 0
-14.2531 -3.56966 -4.65383 255 0 0
-13.0963 -4.1696 -4.95723 255 0 0
-13.332 -3.81338 -4.38569 255 0 0
-13.0495 -4.86483 -5.23966 255 0 0
-13.1265 -3.70417 -4.81626 255 0 0
-14.7809 -4.26576 -3.73337 255 0 0
-13.3273 -5.0044 -4.44922 255 0 0
-14.0591 -4.31145 -4.78239 255 0 0
-14.7719 -3.47705 -5.00224 255 0 0
-13.3089 -4.46429 -4.05621 255 0 0
-13.0261 -4.64613 -5.21711 255 0 0
-15.0738 -4.11894 -3.4981 255 0 0
-16.0769 -3.50367 -5.11332 255 0 0
-15.3563 -3.88466 -3.91819 255 0 0
-16.0698 -3.38257 -4.96605 255 0 0
-13.3492 -4.86867 -4.56641 255 0 0
-14.1577 -4.36009 -3.66913 255 0 0
-16.1523 -3.60042 -4.98895 255 0 0
-13.3862 -3.89767 -3.80605 255 0 0
-13.0931 -4.40922 -4.97263 255 0 0
-14.1028 -4.58229 -3.79571 255 0 0
-13.091 -4.9511 -5.01142 255 0 0
-13.1123 -3.61638 -4.80856 255 0 0
-13.3184 -3.74128 -4.26185 255 0 0
-15.2952 -3.60021 -4.70338 255 0 0
-13.6265 -3.3784 -5.14299 255 0 0
-13.9519 -4.71681 -4.9136 255 0 0
-13.0951 -3.96494 -4.82514 255 0 0
-13.3807 -4.13817 -3.81433 255 0 0
-13.1319 -4.89553 -4.89382 255 0 0
-16.237 -3.49826 -5.14271 255 0 0
-13.0242 -4.50668 -5.08543 255 0 0
-13.6016 -3.99539 -4.19702 255 0 0
-13.1912 -3.67182 -4.5908 255 0 0
-13.0022 -4.15662 -5.05601 255 0 0
-13.9065 -4.84891 -4.9136 255 0 0
-14.2565 -3.64243 -4.28042 255 0 0
-14.1496 -4.59747 -4.68714 255 0 0
-13.3108 -4.30751 -3.93067 255 0 0
-13.8547 -4.97874 -4.65904 255 0 0
-16.1099 -3.47087 -4.97646 255 0 0
-15.0004 -3.75683 -4.13398 255 0 0
-13.1973 -3.84266 -4.71929 255 0 0
-16.2296 -3.57727 -4.85925 255 0 0
-15.3168 -3.75895 -4.043 255 0 0
-13.3617 -3.82188 -4.27225 255 0 0
-13.3386 -4.45669 -4.17953 255 0 0
-16.1391 -3.47716 -4.6993 255 0 0
-13.2982 -4.51339 -4.1764 255 0 0
-13.4104 -4.30465 -3.82448 255 0 0
-14.1185 -4.16541 -3.41121 255 0 0
-13.3167 -4.29199 -4.04942 255 0 0
-14.0715 -4.83173 -3.67634 255 0 0
-15.1618 -3.60677 -4.54813 255 0 0
-15.1702 -3.72298 -4.15559 255 0 0
-14.0948 -3.60112 -4.50284 255 0 0
-13.1074 -3.5983 -4.92459 255 0 0
-13.0222 -4.78442 -5.10589 255 0 0
-16.1411 -3.51765 -4.98374 255 0 0
-13.0467 -3.53178 -5.14414 255 0 0
-14.5961 -3.61881 -4.58722 255 0 0
-13.4405 -3.67263 -4.15936 255 0 0
-13.5473 -4.36629 -4.69313 255 0 0
-13.3577 -3.70109 -4.14815 255 0 0
-14.6477 -3.55795 -4.72252 255 0 0
-13.3647 -3.85706 -4.03754 255 0 0
-13.3571 -3.82057 -4.15308 255 0 0
-13.2002 -4.9924 -4.67027 255 0 0
-13.8396 -3.4661 -4.94591 255 0 0
-14.342 -3.44771 -4.91815 255 0 0
-13.3807 -3.75877 -4.03585 255 0 0
-16.0656 -3.70123 -4.83641 255 0 0
-13.8188 -3.77599 -3.8557 255 0 0
-15.1296 -4.01874 -3.63217 255 0 0
-13.5598 -4.58427 -3.8542 255 0 0
-13.4768 -3.80301 -3.81395 255 0 0
-14.3425 -3.7733 -3.92114 255 0 0
-13.7486 -4.83047 -4.88292 255 0 0
-13.3758 -3.86025 -4.15756 255 0 0
-13.6957 -3.56843 -4.67789 255 0 0
-13.0373 -4.51119 -5.20915 255 0 0
-13.8842 -3.37249 -5.07424 255 0 0
-14.0323 -4.33967 -4.77912 255 0 0
-13.0734 -3.87393 -4.93383 255 0 0
-15.1289 -4.05698 -3.76484 255 0 0
-16.4985 -3.51368 -5.19169 255 0 0
-13.3472 -3.68116 -4.26374 255 0 0
-14.3022 -3.61802 -4.41208 255 0 0
-13.0831 -3.67518 -4.92398 255 0 0
-13.6149 -3.58187 -4.66374 255 0 0
-13.0435 -3.59739 -5.02914 255 0 0
-13.4479 -3.98489 -4.17371 255 0 0
-13.3715 -4.85884 -4.3261 255 0 0
-15.147 -4.25493 -3.77271 255 0 0
-14.6691 -4.15825 -3.84639 255 0 0
-15.1725 -3.76172 -4.02495 255 0 0
-13.2916 -4.81197 -4.19074 255 0 0
-13.367 -4.87516 -3.96349 255 0 0
-14.8311 -4.20417 -3.60728 255 0 0
-13.2864 -4.21276 -3.92347 255 0 0
-13.0058 -4.10685 -5.17267 255 0 0
-14.0707 -4.35156 -3.53563 255 0 0
-13.3008 -3.66835 -4.37377 255 0 0
-15.0879 -4.00765 -3.75894 255 0 0
-14.2929 -3.86915 -3.91813 255 0 0
-14.4903 -3.7388 -4.06514 255 0 0
-15.049 -3.69324 -4.40148 255 0 0
-13.2503 -3.58692 -4.59733 255 0 0
-14.9012 -3.76954 -3.9911 255 0 0
-13.0522 -4.30946 -4.83817 255 0 0
-13.0382 -5.00193 -5.12636 255 0 0
-15.005 -4.60154 -3.90059 255 0 0
-14.1798 -4.53306 -3.80275 255 0 0
-13.3626 -4.41195 -4.18088 255 0 0
-13.5535 -4.47496 -3.84893 255 0 0
-14.3529 -3.66707 -4.16993 255 0 0
-13.3681 -4.80387 -3.96029 255 0 0
-14.8905 -4.64378 -4.68352 255 0 0
-14.0476 -4.30794 -3.53199 255 0 0
-13.0214 -3.70785 -5.03106 255 0 0
-14.0865 -4.65093 -3.79641 255 0 0
-13.4661 -4.02505 -4.17819 255 0 0
-13.0713 -4.04248 -4.82514 255 0 0
-13.327 -3.77779 -4.50189 255 0 0
-13.0286 -4.71678 -5.10206 255 0 0
-13.0997 -4.8129 -5.0028 255 0 0
-13.2732 -5.05602 -4.56537 255 0 0
-13.0934 -4.91658 -4.8879 255 0 0
-14.1632 -4.16033 -3.66323 255 0 0
-14.7878 -4.22979 -3.86258 255 0 0
-13.0986 -4.86545 -5.0065 255 0 0
-13.2659 -4.66085 -4.05961 255 0 0
-16.1422 -3.51789 -4.84237 255 0 0
-13.3923 -4.35142 -3.82411 255 0 0
-13.0654 -4.62525 -4.86185 255 0 0
-13.1722 -3.63288 -4.58536 255 0 0
-13.1179 -4.78432 -4.88316 255 0 0
-14.0778 -4.57415 -3.66782 255 0 0
-13.2916 -4.45851 -3.93467 255 0 0
-13.0292 -4.43934 -5.08159 255 0 0
-15.3534 -3.46057 -5.1136 255 0 0
-15.0948 -4.08623 -3.49922 255 0 0
-15.8033 -3.71981 -4.24044 255 0 0
-13.309 -4.60522 -3.94348 255 0 0
-13.2111 -3.55949 -4.70679 255 0 0
-13.4102 -3.83574 -3.80681 255 0 0
-13.2658 -4.55508 -4.05452 255 0 0
-13.0324 -3.71099 -5.1521 255 0 0
-14.9881 -4.55749 -3.89707 255 0 0
-15.1514 -4.21744 -3.77205 255 0 0
-13.1056 -4.12128 -4.956 255 0 0
-15.4326 -3.74861 -4.19161 255 0 0
-15.2306 -4.00693 -3.50984 255 0 0
-15.1704 -4.02957 -3.50481 255 0 0
-15.109 -4.16706 -3.50257 255 0 0
-15.1777 -4.22476 -3.5104 255 0 0
-14.2866 -4.01325 -3.42267 255 0 0
-14.1088 -3.99943 -3.4059 255 0 0
-14.2338 -4.07134 -3.41932 255 0 0
-14.0856 -4.10131 -3.40646 255 0 0
-14.0908 -4.24817 -3.41093 255 0 0
-16.1021 -3.42926 -4.69174 255 0 0
-13.1599 -3.52896 -4.8133 255 0 0
-13.382 -4.17334 -3.81583 255 0 0
-15.1263 -4.13328 -3.76681 255 0 0
-13.0801 -4.45667 -4.97324 255 0 0
-13.207 -3.50806 -4.82159 255 0 0
-13.2222 -3.8499 -4.13425 255 0 0
-13.4892 -3.75477 -3.93227 255 0 0
-15.1529 -4.10196 -3.76878 255 0 0
-15.0843 -4.06419 -3.62883 255 0 0
-15.1133 -4.16824 -3.6346 255 0 0
-14.0892 -4.06614 -3.52895 255 0 0
-14.0946 -4.21292 -3.53381 255 0 0
-14.0684 -4.25963 -3.53259 255 0 0
-14.0746 -4.40767 -3.53775 255 0 0
-14.0838 -4.46562 -3.54049 255 0 0
-14.0595 -4.513 -3.53958 255 0 0
-14.0353 -4.59717 -3.53988 255 0 0
-14.0686 -4.66356 -3.54534 255 0 0
-13.9747 -4.68763 -3.53684 255 0 0
-13.9966 -4.73194 -3.54049 255 0 0
-14.0917 -3.52924 -4.74864 255 0 0
-13.3581 -4.72887 -4.80337 255 0 0
-13.474 -3.61319 -4.51958 255 0 0
-15.1501 -4.17841 -3.77074 255 0 0
-15.0595 -4.3075 -3.76484 255 0 0
-14.2456 -4.14789 -3.67175 255 0 0
-14.1477 -4.19225 -3.66257 255 0 0
-14.1856 -4.25843 -3.6688 255 0 0
-14.201 -4.31817 -3.6724 255 0 0
-14.1588 -4.41561 -3.67109 255 0 0
-14.1039 -4.4352 -3.66585 255 0 0
-14.0882 -4.5038 -3.6665 255 0 0
-14.0997 -4.54433 -3.66913 255 0 0
-14.0753 -4.66577 -3.67077 255 0 0
-14.149 -4.82087 -3.68421 255 0 0
-13.3031 -3.39886 -5.07391 255 0 0
-13.0857 -4.63244 -4.98679 255 0 0
-13.385 -4.10473 -3.81358 255 0 0
-15.2562 -4.83735 -4.48039 255 0 0
-13.2613 -3.38818 -5.18394 255 0 0
-13.8975 -4.84578 -4.40641 255 0 0
-14.0726 -4.17001 -3.77741 255 0 0
-14.319 -3.87622 -3.79641 255 0 0
-14.9281 -4.11717 -3.87525 255 0 0
-13.985 -3.92853 -3.7591 255 0 0
-14.862 -4.30825 -3.87384 255 0 0
-15.0039 -4.4847 -3.89637 255 0 0
-14.9599 -4.5102 -3.89214 255 0 0
-15.0662 -4.65943 -3.90974 255 0 0
-15.0662 -4.71818 -3.91185 255 0 0
-14.2736 -4.52578 -3.81331 255 0 0
-14.0749 -4.53635 -3.79078 255 0 0
-14.0974 -4.61752 -3.79641 255 0 0
-14.1057 -4.71298 -3.80099 255 0 0
-14.0916 -4.76404 -3.80134 255 0 0
-14.0802 -4.79744 -3.80134 255 0 0
-14.1113 -3.39224 -5.24916 255 0 0
-15.628 -3.75685 -4.08212 255 0 0
-14.7797 -3.77611 -3.97605 255 0 0
-14.5683 -3.75892 -3.94897 255 0 0
-14.5144 -3.78174 -3.94296 255 0 0
-14.2494 -3.78493 -3.90986 255 0 0
-14.246 -3.82021 -3.91061 255 0 0
-13.821 -3.81183 -3.8572 255 0 0
-13.6665 -3.8041 -3.83765 255 0 0
-13.377 -3.9294 -3.80605 255 0 0
-13.4066 -3.97265 -3.81132 255 0 0
-13.3784 -4.01613 -3.80944 255 0 0
-13.4108 -4.21725 -3.8211 255 0 0
-13.3731 -4.24026 -3.81734 255 0 0
-13.4482 -4.40485 -3.83313 255 0 0
-13.4381 -4.47224 -3.83464 255 0 0
-13.455 -4.51333 -3.8384 255 0 0
-13.5214 -4.60704 -3.85043 255 0 0
-13.5543 -4.6901 -3.85796 255 0 0
-13.312 -4.89091 -4.19792 255 0 0
-13.0593 -4.26032 -4.83639 255 0 0
-13.2954 -4.92059 -4.07658 255 0 0
-13.0184 -3.62371 -5.0253 255 0 0
-13.3377 -4.09022 -4.04348 255 0 0
-13.0019 -4.9527 -5.11485 255 0 0
-13.7091 -3.46797 -4.91986 255 0 0
-13.1229 -3.55243 -4.92521 255 0 0
-14.1592 -3.61759 -4.3894 255 0 0
-13.3217 -3.70814 -4.26091 255 0 0
-14.4427 -3.39955 -5.19248 255 0 0
-16.0793 -3.74455 -4.84039 255 0 0
-13.9426 -4.23961 -4.75735 255 0 0
-13.4709 -3.88769 -4.65285 255 0 0
-14.1983 -3.44879 -5.01696 255 0 0
-15.7098 -3.73713 -4.22843 255 0 0
-15.6106 -3.75268 -4.21563 255 0 0
-15.0825 -3.73939 -4.14439 255 0 0
-14.8172 -3.74828 -4.10917 255 0 0
-14.6846 -3.75182 -4.09156 255 0 0
-14.3804 -3.74682 -4.05074 255 0 0
-14.22 -3.74106 -4.02912 255 0 0
-14.1046 -3.74648 -4.01392 255 0 0
-13.8795 -3.75724 -3.9843 255 0 0
-13.7419 -3.75497 -3.96589 255 0 0
-13.677 -3.77212 -3.95788 255 0 0
-13.3965 -3.76321 -3.92026 255 0 0
-13.3397 -3.86699 -3.91666 255 0 0
-13.323 -3.96509 -3.91826 255 0 0
-13.3172 -4.01495 -3.91946 255 0 0
-13.3028 -4.06229 -3.91946 255 0 0
-13.3049 -4.11472 -3.92187 255 0 0
-13.304 -4.25308 -3.92747 255 0 0
-13.3285 -4.36565 -3.93547 255 0 0
-13.3074 -4.4112 -3.93467 255 0 0
-13.303 -4.49744 -3.93787 255 0 0
-13.3171 -4.55505 -3.94228 255 0 0
-13.3089 -4.67598 -3.94668 255 0 0
-13.3685 -4.76826 -3.95869 255 0 0
-13.3949 -4.84937 -3.96589 255 0 0
-14.1592 -3.58184 -4.51276 255 0 0
-13.4939 -3.46467 -4.87665 255 0 0
-16.1817 -3.60696 -4.71064 255 0 0
-15.9873 -3.80316 -4.96813 255 0 0
-13.6854 -3.94959 -4.57266 255 0 0
-16.0166 -3.68995 -4.40754 255 0 0
-15.9175 -3.70689 -4.39396 255 0 0
-15.8241 -3.72471 -4.38124 255 0 0
-15.2486 -3.66564 -4.29722 255 0 0
-15.141 -3.71582 -4.28364 255 0 0
-14.9185 -3.69873 -4.2514 255 0 0
-14.1223 -3.67959 -4.13768 255 0 0
-13.3739 -3.82536 -4.03754 255 0 0
-13.3703 -3.9619 -4.04263 255 0 0
-13.3403 -4.02191 -4.04094 255 0 0
-13.3226 -4.20687 -4.04645 255 0 0
-13.3189 -4.3975 -4.05452 255 0 0
-13.2763 -4.48841 -4.05282 255 0 0
-13.2659 -4.62557 -4.05791 255 0 0
-13.2545 -4.7276 -4.0613 255 0 0
-13.2804 -4.84359 -4.07064 255 0 0
-13.2517 -4.95807 -4.55549 255 0 0
-13.3788 -4.91545 -4.4522 255 0 0
-13.2976 -3.70143 -4.37477 255 0 0
-16.0447 -3.65639 -4.55034 255 0 0
-14.3711 -3.70803 -4.30015 255 0 0
-13.355 -3.78574 -4.15129 255 0 0
-13.2712 -4.59213 -4.1764 255 0 0
-13.2821 -4.63121 -4.17998 255 0 0
-13.2929 -4.67036 -4.18357 255 0 0
-13.2491 -4.69028 -4.17819 255 0 0
-13.3004 -4.76174 -4.1894 255 0 0
-13.3104 -4.96207 -4.2015 255 0 0
-13.5125 -4.92821 -4.72143 255 0 0
-13.5931 -3.50731 -4.77724 255 0 0
-13.4267 -4.86091 -4.70184 255 0 0
-15.9994 -3.32815 -4.6719 255 0 0
-16.0876 -3.38631 -4.68796 255 0 0
-16.0348 -3.65412 -4.68891 255 0 0
-15.1588 -3.64406 -4.54907 255 0 0
-14.0163 -3.6165 -4.36673 255 0 0
-13.4005 -3.66168 -4.2713 255 0 0
-15.057 -4.97137 -4.59254 255 0 0
-13.9062 -4.96004 -4.41397 255 0 0
-13.4974 -4.85034 -4.345 255 0 0
-13.3501 -4.95887 -4.32846 255 0 0
-13.3293 -4.93314 -4.44525 255 0 0
-13.1413 -4.97015 -4.77951 255 0 0
-16.0471 -3.2984 -4.81854 255 0 0
-16.1448 -3.47839 -4.84138 255 0 0
-16.1985 -3.61072 -4.85528 255 0 0
-15.1575 -3.60575 -4.68055 255 0 0
-14.8064 -3.6337 -4.62296 255 0 0
-14.3188 -3.58611 -4.53957 255 0 0
-13.3681 -3.61881 -4.38271 255 0 0
-13.3177 -3.7581 -4.38072 255 0 0
-13.3118 -3.84178 -4.3837 255 0 0
-13.8053 -4.92405 -4.5217 255 0 0
-13.8696 -4.98409 -4.5356 255 0 0
-13.3742 -4.87778 -4.44922 255 0 0
-13.3424 -5.04619 -4.45419 255 0 0
-13.0312 -4.68278 -5.22109 255 0 0
-16.0956 -3.42787 -4.97229 255 0 0
-16.1664 -3.56335 -4.98999 255 0 0
-16.0676 -3.66161 -4.97646 255 0 0
-15.2279 -3.58437 -4.82555 255 0 0
-14.1106 -3.56953 -4.62886 255 0 0
-14.0016 -3.5773 -4.61012 255 0 0
-13.9819 -3.60761 -4.60804 255 0 0
-13.2804 -3.7306 -4.49148 255 0 0
-13.3274 -3.88054 -4.50709 255 0 0
-13.4636 -3.98953 -4.53623 255 0 0
-14.0346 -4.6338 -4.66945 255 0 0
-14.1073 -4.95646 -4.70067 255 0 0
-13.5666 -4.91154 -4.60596 255 0 0
-13.2781 -4.87844 -4.55497 255 0 0
-14.5246 -3.52805 -4.82811 255 0 0
-16.6588 -3.50655 -5.22109 255 0 0
-15.6194 -3.52053 -5.0295 255 0 0
-15.3811 -3.50515 -4.98487 255 0 0
-15.1933 -3.50027 -4.95003 255 0 0
-15.1009 -3.51671 -4.9337 255 0 0
-14.9749 -3.52483 -4.91084 255 0 0
-14.7762 -3.51505 -4.87383 255 0 0
-14.6839 -3.52991 -4.8575 255 0 0
-14.4268 -3.54053 -4.81069 255 0 0
-14.1671 -3.51243 -4.76171 255 0 0
-13.8519 -3.53905 -4.7051 255 0 0
-13.693 -3.53308 -4.67571 255 0 0
-13.4729 -3.57869 -4.63761 255 0 0
-13.281 -3.56145 -4.60169 255 0 0
-13.2085 -3.60922 -4.5908 255 0 0
-13.2379 -3.71864 -4.60169 255 0 0
-13.229 -3.75002 -4.60169 255 0 0
-13.375 -3.82568 -4.63217 255 0 0
-13.6991 -3.98878 -4.69966 255 0 0
-13.5311 -4.00956 -4.67027 255 0 0
-13.4775 -4.02845 -4.66156 255 0 0
-13.7488 -4.14509 -4.71708 255 0 0
-14.1922 -4.42603 -4.81287 255 0 0
-14.028 -4.41134 -4.78239 255 0 0
-13.8969 -4.40633 -4.75844 255 0 0
-14.0238 -4.66717 -4.79654 255 0 0
-13.6309 -4.60832 -4.72252 255 0 0
-13.4718 -4.76912 -4.70401 255 0 0
-13.6393 -4.86483 -4.73994 255 0 0
-13.3949 -4.81349 -4.69313 255 0 0
-13.4683 -4.94833 -4.7149 255 0 0
-13.2353 -4.89838 -4.67027 255 0 0
-13.2129 -4.92573 -4.66809 255 0 0
-13.2367 -5.04211 -4.68006 255 0 0
-13.2723 -3.45812 -4.95107 255 0 0
-13.1271 -3.75477 -4.81922 255 0 0
-13.1701 -4.90979 -4.78065 255 0 0
-15.9108 -3.46746 -5.22155 255 0 0
-15.1995 -3.46378 -5.08405 255 0 0
-14.8752 -3.46416 -5.02155 255 0 0
-14.5904 -3.47085 -4.96701 255 0 0
-14.2083 -3.48693 -4.89428 255 0 0
-14.0607 -3.48605 -4.86587 255 0 0
-13.9521 -3.49426 -4.84542 255 0 0
-13.8157 -3.49493 -4.81928 255 0 0
-13.735 -3.50919 -4.80451 255 0 0
-13.2181 -3.51101 -4.70565 255 0 0
-13.1691 -3.61525 -4.70167 255 0 0
-13.1479 -3.65976 -4.69997 255 0 0
-13.1668 -3.69869 -4.70565 255 0 0
-13.1657 -3.76582 -4.70906 255 0 0
-13.1716 -3.86909 -4.71588 255 0 0
-13.3253 -4.01739 -4.75338 255 0 0
-13.3567 -4.13074 -4.76588 255 0 0
-13.6266 -4.24962 -4.82383 255 0 0
-13.7715 -4.43857 -4.86247 255 0 0
-13.7776 -4.51276 -4.86815 255 0 0
-13.9032 -4.59044 -4.89656 255 0 0
-14.0331 -4.78137 -4.93292 255 0 0
-13.4376 -4.86483 -4.82724 255 0 0
-13.2141 -4.89051 -4.78747 255 0 0
-13.1659 -5.05093 -4.78974 255 0 0
-15.1405 -3.45032 -5.2064 255 0 0
-15.0931 -3.47719 -5.19812 255 0 0
-14.8447 -3.45704 -5.1472 255 0 0
-14.7248 -3.46595 -5.12352 255 0 0
-14.0731 -3.45374 -4.99209 255 0 0
-13.3789 -3.48587 -4.85474 255 0 0
-13.3206 -3.50445 -4.84409 255 0 0
-13.085 -3.54218 -4.79909 255 0 0
-13.0655 -3.57017 -4.79672 255 0 0
-13.1092 -3.649 -4.80975 255 0 0
-13.1384 -3.80862 -4.82455 255 0 0
-13.1495 -3.86259 -4.82988 255 0 0
-13.0699 -4.00812 -4.82277 255 0 0
-13.0891 -4.082 -4.83106 255 0 0
-13.1013 -4.1199 -4.8358 255 0 0
-13.1243 -4.16136 -4.8429 255 0 0
-13.098 -4.18722 -4.83935 255 0 0
-13.1262 -4.23058 -4.84764 255 0 0
-13.0746 -4.35126 -4.84527 255 0 0
-13.0705 -4.45339 -4.85119 255 0 0
-13.1033 -4.49927 -4.86066 255 0 0
-13.1305 -4.54345 -4.86895 255 0 0
-13.1657 -4.60813 -4.8802 255 0 0
-13.2164 -4.71401 -4.89737 255 0 0
-13.1836 -4.73757 -4.89263 255 0 0
-13.1454 -4.75906 -4.88671 255 0 0
-13.1281 -4.82332 -4.8879 255 0 0
-13.1704 -4.87434 -4.89974 255 0 0
-13.0817 -4.94761 -4.8879 255 0 0
-13.0478 -4.06913 -5.05984 255 0 0
-14.1395 -3.36358 -5.1272 255 0 0
-13.7983 -3.3863 -5.057 255 0 0
-13.7347 -3.40523 -5.04468 255 0 0
-13.6877 -3.42805 -5.03606 255 0 0
-13.5796 -3.43522 -5.01389 255 0 0
-13.4383 -3.4334 -4.98433 255 0 0
-13.3415 -3.44237 -4.96462 255 0 0
-13.2143 -3.47647 -4.93999 255 0 0
-13.1064 -3.48134 -4.91782 255 0 0
-13.1147 -3.51686 -4.92151 255 0 0
-13.0831 -3.75899 -4.9289 255 0 0
-13.0826 -3.84292 -4.93383 255 0 0
-13.0752 -3.9082 -4.93629 255 0 0
-13.0639 -3.95549 -4.93691 255 0 0
-13.0854 -4.01285 -4.94491 255 0 0
-13.0978 -4.22142 -4.96093 255 0 0
-13.0908 -4.27063 -4.96277 255 0 0
-13.0837 -4.31986 -4.96462 255 0 0
-13.0897 -4.35629 -4.96832 255 0 0
-13.0803 -4.49139 -4.97571 255 0 0
-13.0859 -4.52801 -4.9794 255 0 0
-13.0859 -4.56279 -4.98186 255 0 0
-13.0804 -4.5957 -4.9831 255 0 0
-13.0909 -4.66922 -4.99049 255 0 0
-13.0905 -4.70412 -4.99295 255 0 0
-13.0952 -4.75846 -4.99788 255 0 0
-13.1134 -4.92407 -5.01389 255 0 0
-13.0875 -5.05647 -5.01881 255 0 0
-13.1021 -5.09786 -5.02497 255 0 0
-13.0394 -4.06651 -5.17731 255 0 0
-13.7922 -3.35016 -5.17753 255 0 0
-13.563 -3.39681 -5.1302 255 0 0
-13.4275 -3.39673 -5.10078 255 0 0
-13.2508 -3.41897 -5.06368 255 0 0
-13.157 -3.46141 -5.04577 255 0 0
-13.0604 -3.46913 -5.0253 255 0 0
-13.0522 -3.50009 -5.0253 255 0 0
-13.0562 -3.55096 -5.02914 255 0 0
-13.0219 -3.75811 -5.03426 255 0 0
-13.054 -4.02016 -5.05792 255 0 0
-13.0338 -4.13268 -5.06112 255 0 0
-13.0258 -4.23235 -5.06624 255 0 0
-13.0321 -4.26856 -5.07008 255 0 0
-13.0168 -4.31488 -5.07008 255 0 0
-13.0068 -4.36296 -5.07136 255 0 0
-12.9964 -4.39379 -5.07136 255 0 0
-13.0162 -4.55579 -5.08735 255 0 0
-13.0398 -4.68588 -5.10206 255 0 0
-13.0382 -4.91349 -5.11933 255 0 0
-13.0569 -5.08028 -5.13659 255 0 0
-13.4543 -3.36959 -5.22639 255 0 0
-13.3633 -3.38051 -5.20649 255 0 0
-13.2146 -3.40964 -5.17466 255 0 0
-13.0412 -3.46402 -5.13884 255 0 0
-13.0712 -3.57173 -5.1521 255 0 0
-13.0392 -3.61287 -5.14746 255 0 0
-13.0236 -3.65844 -5.1468 255 0 0
-13.0301 -3.76047 -5.15476 255 0 0
-13.0085 -3.85468 -5.15608 255 0 0
-13.0501 -3.93443 -5.17067 255 0 0
-13.0571 -3.97034 -5.17466 255 0 0
-13.0368 -3.99794 -5.172 255 0 0
-13.0272 -4.02884 -5.172 255 0 0
-13.0265 -4.16437 -5.18129 255 0 0
-13.0236 -4.26579 -5.18792 255 0 0
-13.0029 -4.3103 -5.18659 255 0 0
-13.0038 -4.36195 -5.19057 255 0 0
-13.037 -4.45926 -5.20517 255 0 0
-12.9996 -4.5327 -5.20251 255 0 0
-13.0361 -4.71949 -5.22507 255 0 0
-13.041 -4.75625 -5.22905 255 0 0
-13.04 -4.80852 -5.23303 255 0 0
-13.0482 -4.91724 -5.24364 255 0 0
-13.0401 -5.00267 -5.24895 255 0 0
