ply
format ascii 1.0
comment Created by Open3D
element vertex 79
property double x
property double y
property double z
property uchar red
property uchar green
property uchar blue
end_header
-27.0778 -30.5309 -2.84803 255 0 0
-26.7741 -30.0446 -4.17615 255 0 0
-27.0878 -30.3967 -2.84609 255 0 0
-28.0294 -28.6001 -3.1652 255 0 0
-27.0661 -30.2277 -2.84317 255 0 0
-27.6775 -28.782 -2.82979 255 0 0
-27.9115 -28.7512 -2.8327 255 0 0
-27.0402 -28.7949 -3.14936 255 0 0
-26.7861 -30.3466 -4.1888 255 0 0
-27.0002 -28.7523 -4.13284 255 0 0
-27.5322 -28.7672 -2.82747 255 0 0
-27.6218 -28.5881 -4.14959 255 0 0
-26.9958 -28.8846 -3.15038 255 0 0
-27.0942 -29.5466 -2.83307 255 0 0
-28.0045 -28.5746 -4.1635 255 0 0
-27.064 -29.7961 -2.83648 255 0 0
-26.7855 -29.3494 -4.14864 255 0 0
-27.1099 -28.8691 -2.82297 255 0 0
-28.2044 -28.6424 -3.5041 255 0 0
-26.9007 -29.1964 -3.15515 255 0 0
-27.0974 -28.9932 -2.82468 255 0 0
-27.4254 -28.6555 -3.15413 255 0 0
-28.1717 -28.882 -2.83842 255 0 0
-27.0868 -29.2588 -2.82857 255 0 0
-28.1665 -28.604 -4.17077 255 0 0
-27.3311 -28.8295 -2.82553 255 0 0
-26.8301 -30.9838 -4.2163 255 0 0
-27.7546 -28.5897 -4.15465 255 0 0
-28.2647 -28.8402 -2.83915 255 0 0
-27.7863 -28.7584 -2.831 255 0 0
-27.472 -28.8409 -2.82772 255 0 0
-27.2225 -28.8516 -2.82431 255 0 0
-27.1083 -29.1431 -2.82711 255 0 0
-27.0848 -29.3962 -2.83064 255 0 0
-27.0674 -29.6583 -2.83441 255 0 0
-27.0678 -29.9427 -2.83879 255 0 0
-27.0594 -30.0764 -2.84073 255 0 0
-26.7989 -29.6452 -4.16097 255 0 0
-27.3282 -28.554 -4.13726 255 0 0
-27.1925 -28.6833 -3.15004 255 0 0
-28.2122 -28.6503 -3.16996 255 0 0
-27.0923 -28.7137 -3.14868 255 0 0
-26.9831 -29.0085 -3.15276 255 0 0
-27.8713 -28.574 -4.15844 255 0 0
-26.9013 -31.5163 -4.24065 255 0 0
-27.0607 -28.6802 -3.47542 255 0 0
-27.0167 -28.7699 -3.47673 255 0 0
-26.9724 -28.8595 -3.47805 255 0 0
-26.9557 -28.979 -3.48089 255 0 0
-26.9505 -29.1116 -3.4844 255 0 0
-26.7881 -30.2042 -4.1831 255 0 0
-28.1905 -28.6283 -3.83787 255 0 0
-27.0871 -28.5721 -3.80094 255 0 0
-27.0594 -28.6788 -3.80362 255 0 0
-27.0594 -28.8153 -3.80817 255 0 0
-26.9351 -28.8196 -3.80442 255 0 0
-26.8946 -28.9134 -3.80629 255 0 0
-26.8816 -29.0371 -3.81004 255 0 0
-26.8798 -30.0196 -3.84322 255 0 0
-26.7455 -30.8861 -3.8689 255 0 0
-27.4323 -28.5271 -4.14011 255 0 0
-27.208 -28.5637 -4.13315 255 0 0
-27.1121 -28.5984 -4.13094 255 0 0
-27.0081 -28.6244 -4.12809 255 0 0
-26.876 -28.7564 -4.12841 255 0 0
-26.8237 -28.8372 -4.12967 255 0 0
-26.8307 -28.9822 -4.13568 255 0 0
-26.8174 -29.1059 -4.14011 255 0 0
-26.7799 -29.2039 -4.14264 255 0 0
-26.7866 -29.4907 -4.15433 255 0 0
-26.7677 -29.7521 -4.16413 255 0 0
-26.7633 -29.8896 -4.16951 255 0 0
-26.7835 -30.4891 -4.19449 255 0 0
-26.7958 -30.6493 -4.20144 255 0 0
-26.8634 -31.1713 -4.22515 255 0 0
-26.896 -31.3592 -4.23401 255 0 0
-27.11 -30.7135 -2.85132 255 0 0
-26.8612 -30.8716 -4.21282 255 0 0
-26.906 -31.6735 -4.24729 255 0 0
