ply
format ascii 1.0
comment Created by Open3D
element vertex 142
property double x
property double y
property double z
property uchar red
property uchar green
property uchar blue
end_header
21.6281 -34.1699 -2.50417 255 0 0
20.8368 -34.5286 -2.83806 255 0 0
20.9246 -34.4891 -2.8383 255 0 0
23.0683 -33.3876 -3.85633 255 0 0
20.6094 -34.7076 -3.84643 255 0 0
21.6733 -34.0623 -3.17473 255 0 0
21.3152 -34.2117 -3.17286 255 0 0
21.7279 -34.1482 -2.50461 255 0 0
21.4835 -34.1201 -3.1732 255 0 0
20.8614 -35.3226 -3.53497 255 0 0
22.0081 -33.8749 -3.17541 255 0 0
21.1374 -34.2875 -3.17201 255 0 0
23.7525 -33.3532 -3.19142 255 0 0
21.2618 -34.1259 -3.8392 255 0 0
21.3847 -34.3231 -2.84037 255 0 0
21.1002 -34.4095 -2.83879 255 0 0
23.1605 -33.5211 -2.50797 255 0 0
21.5472 -34.2213 -2.84037 255 0 0
20.7023 -34.4905 -3.17047 255 0 0
22.2443 -33.7111 -3.8475 255 0 0
23.4557 -33.4372 -2.84876 255 0 0
21.0247 -34.6541 -2.50534 255 0 0
23.1184 -33.2911 -3.17933 255 0 0
20.884 -35.3607 -3.87853 255 0 0
21.5458 -34.0399 -3.50738 255 0 0
23.397 -33.3536 -3.18546 255 0 0
23.0929 -33.4232 -3.52008 255 0 0
22.8872 -33.6347 -3.18376 255 0 0
20.775 -34.4263 -3.16996 255 0 0
21.9341 -33.9368 -3.17575 255 0 0
22.0586 -33.7771 -3.84536 255 0 0
20.7518 -34.5729 -2.83794 255 0 0
23.5718 -33.2661 -3.18631 255 0 0
21.6932 -33.9158 -3.84161 255 0 0
22.4539 -33.6802 -3.51461 255 0 0
22.295 -33.9629 -2.50651 255 0 0
21.3395 -34.0704 -3.83894 255 0 0
23.2813 -33.3566 -3.52205 255 0 0
23.4944 -33.3241 -2.8473 255 0 0
23.071 -33.5615 -2.50775 255 0 0
23.0509 -33.7031 -2.50906 255 0 0
20.6816 -34.4559 -3.50366 255 0 0
22.1451 -33.7345 -3.84589 255 0 0
21.0003 -34.4294 -2.83806 255 0 0
22.9339 -33.532 -3.18205 255 0 0
21.0289 -35.0345 -2.50943 255 0 0
23.1126 -33.4518 -3.18308 255 0 0
23.3361 -33.4351 -2.8473 255 0 0
22.633 -33.6025 -3.51592 255 0 0
21.3526 -34.4533 -2.84232 255 0 0
20.8748 -34.4069 -3.17099 255 0 0
23.0877 -33.5858 -2.84694 255 0 0
21.4495 -34.0661 -3.50629 255 0 0
22.0052 -33.8704 -3.51133 255 0 0
22.2952 -33.9631 -2.84426 255 0 0
21.7382 -33.9862 -3.17388 255 0 0
20.7813 -34.4368 -3.50498 255 0 0
21.0397 -34.4942 -2.50373 255 0 0
21.1215 -34.4442 -2.50373 255 0 0
21.2154 -34.4139 -2.50403 255 0 0
21.2907 -34.3536 -2.50388 255 0 0
21.4031 -34.3527 -2.50461 255 0 0
21.5595 -34.2409 -2.50446 255 0 0
23.2245 -34.1303 -2.51468 255 0 0
23.2934 -33.543 -2.50914 255 0 0
20.9341 -35.4455 -2.85545 255 0 0
20.7628 -34.7778 -2.84171 255 0 0
21.194 -34.3793 -2.83927 255 0 0
21.4598 -34.2624 -2.84013 255 0 0
22.3554 -34.2315 -2.84961 255 0 0
23.1607 -33.5213 -2.84669 255 0 0
23.2167 -33.4326 -2.84584 255 0 0
20.897 -35.3827 -3.19568 255 0 0
20.7716 -34.9808 -3.18376 255 0 0
20.7015 -34.6751 -3.17507 255 0 0
20.9715 -34.3823 -3.17184 255 0 0
21.0407 -34.3125 -3.17116 255 0 0
21.2217 -34.2422 -3.17218 255 0 0
21.4211 -34.2007 -3.17422 255 0 0
21.5925 -34.1136 -3.17473 255 0 0
22.1076 -33.852 -3.17643 255 0 0
22.1942 -33.8093 -3.17678 255 0 0
22.5725 -33.6848 -3.17984 255 0 0
22.6425 -33.6166 -3.17933 255 0 0
22.7352 -33.5822 -3.18001 255 0 0
23.0432 -33.5209 -3.18359 255 0 0
23.2877 -33.3658 -3.18393 255 0 0
23.4895 -33.3172 -3.18614 255 0 0
23.8588 -33.3348 -3.19278 255 0 0
20.8569 -34.3774 -3.50454 255 0 0
20.9128 -34.286 -3.83706 255 0 0
20.7629 -34.9661 -3.52162 255 0 0
20.6928 -34.6605 -3.51045 255 0 0
20.9474 -34.3428 -3.5052 255 0 0
21.0288 -34.2931 -3.5052 255 0 0
21.107 -34.2381 -3.50498 255 0 0
21.185 -34.183 -3.50476 255 0 0
21.266 -34.1327 -3.50476 255 0 0
21.3624 -34.107 -3.50585 255 0 0
21.6422 -34.0134 -3.50848 255 0 0
21.7385 -33.9866 -3.50957 255 0 0
22.0919 -33.8279 -3.51176 255 0 0
22.1656 -33.7657 -3.51133 255 0 0
22.5532 -33.656 -3.51592 255 0 0
22.7126 -33.5487 -3.51592 255 0 0
22.7986 -33.5044 -3.51636 255 0 0
22.8978 -33.4793 -3.51767 255 0 0
23.0136 -33.4779 -3.52008 255 0 0
23.1788 -33.378 -3.52052 255 0 0
23.3569 -33.2965 -3.52183 255 0 0
23.4426 -33.2506 -3.52227 255 0 0
23.5687 -33.2617 -3.52534 255 0 0
21.5259 -34.0084 -3.84108 255 0 0
21.0015 -35.7531 -3.89673 255 0 0
20.6407 -34.5732 -3.84188 255 0 0
20.6563 -34.4139 -3.83599 255 0 0
20.7439 -34.3748 -3.83653 255 0 0
20.8314 -34.3355 -3.83706 255 0 0
20.9879 -34.2264 -3.83653 255 0 0
21.0751 -34.1865 -3.83706 255 0 0
21.1685 -34.1563 -3.83813 255 0 0
21.4296 -34.0346 -3.83974 255 0 0
21.6127 -33.9671 -3.84161 255 0 0
21.9657 -33.8097 -3.84429 255 0 0
22.6023 -33.5569 -3.85071 255 0 0
22.7047 -33.5371 -3.85258 255 0 0
22.8039 -33.5122 -3.85419 255 0 0
22.9924 -33.4471 -3.85659 255 0 0
23.1607 -33.3521 -3.8574 255 0 0
23.3724 -33.3185 -3.86168 255 0 0
22.2649 -33.7423 -3.51264 255 0 0
23.6747 -33.2439 -3.52709 255 0 0
21.8789 -34.0281 -3.17712 255 0 0
22.3033 -33.8005 -3.17831 255 0 0
21.8127 -33.9252 -3.50914 255 0 0
21.909 -33.8979 -3.51023 255 0 0
21.8052 -33.9134 -3.84429 255 0 0
21.8855 -33.8616 -3.84429 255 0 0
22.3131 -33.469 -3.84001 255 0 0
22.5194 -33.6055 -3.85044 255 0 0
23.2632 -33.3306 -3.85927 255 0 0
23.4378 -33.2439 -3.86061 255 0 0
