ply
format ascii 1.0
comment Created by Open3D
element vertex 971
property double x
property double y
property double z
property uchar red
property uchar green
property uchar blue
end_header
11.6502 -6.42277 -3.72331 255 0 0
11.5842 -5.15216 -3.32189 255 0 0
11.2613 -4.91288 -5.07417 255 0 0
11.5659 -6.35839 -4.04547 255 0 0
9.62966 -5.36852 -4.37219 255 0 0
11.082 -5.05519 -4.94035 255 0 0
11.6057 -5.36074 -3.76418 255 0 0
11.6514 -5.49964 -3.56025 255 0 0
10.6587 -5.71244 -5.34827 255 0 0
9.55209 -5.45969 -4.65593 255 0 0
11.6442 -6.16971 -3.59579 255 0 0
11.5663 -4.91591 -3.31035 255 0 0
9.62897 -5.45828 -4.96577 255 0 0
11.539 -6.20186 -4.14187 255 0 0
11.4248 -4.90381 -4.3524 255 0 0
11.7352 -4.82425 -4.29166 255 0 0
11.6331 -6.09337 -3.47966 255 0 0
11.6378 -6.6701 -3.7376 255 0 0
11.6221 -5.60418 -3.67141 255 0 0
11.5944 -5.3555 -3.33161 255 0 0
11.3342 -5.10544 -5.0008 255 0 0
11.5635 -6.0569 -4.02305 255 0 0
11.561 -6.75417 -4.07506 255 0 0
11.6318 -5.35606 -3.55074 255 0 0
9.75285 -5.15278 -3.89773 255 0 0
11.5386 -5.80188 -4.11163 255 0 0
11.6561 -6.6074 -3.62254 255 0 0
10.3567 -5.11561 -4.2852 255 0 0
9.79057 -5.06922 -4.66143 255 0 0
11.176 -5.11408 -5.40295 255 0 0
11.6269 -5.91551 -3.36015 255 0 0
9.70508 -5.44077 -4.20111 255 0 0
11.6614 -5.21963 -3.22486 255 0 0
10.6737 -5.14689 -4.34429 255 0 0
10.3387 -5.38413 -5.12338 255 0 0
9.54174 -5.2162 -4.81715 255 0 0
9.60306 -5.44359 -4.27929 255 0 0
11.5432 -5.49885 -4.30936 255 0 0
11.5649 -6.11016 -4.02709 255 0 0
11.6312 -6.23366 -3.48687 255 0 0
10.1236 -5.10542 -4.737 255 0 0
11.6295 -5.81309 -3.6842 255 0 0
10.1619 -5.10965 -4.44732 255 0 0
11.2678 -5.26962 -4.78481 255 0 0
11.6133 -5.54913 -3.77618 255 0 0
11.6818 -5.85658 -3.2528 255 0 0
11.5437 -5.85596 -4.11636 255 0 0
9.70303 -5.08239 -4.45222 255 0 0
10.9304 -5.11184 -4.91287 255 0 0
11.6538 -5.85979 -3.5796 255 0 0
11.6202 -5.65432 -3.34739 255 0 0
11.5825 -6.74831 -4.30626 255 0 0
9.55193 -4.97442 -4.78998 255 0 0
11.5913 -5.18826 -3.64508 255 0 0
9.56657 -5.25927 -4.63532 255 0 0
11.6449 -6.2055 -3.5979 255 0 0
11.5106 -4.95681 -4.26356 255 0 0
11.5881 -4.8604 -3.84066 255 0 0
11.5965 -5.19057 -3.86103 255 0 0
10.3236 -4.97804 -4.96913 255 0 0
11.6059 -5.59638 -3.88734 255 0 0
11.5487 -6.72863 -4.18533 255 0 0
10.5186 -5.10285 -4.82218 255 0 0
9.65562 -5.23393 -4.07808 255 0 0
11.4717 -4.85966 -4.14344 255 0 0
11.6088 -5.59778 -3.34375 255 0 0
10.0396 -5.07802 -4.3231 255 0 0
11.5794 -6.50964 -4.28541 255 0 0
11.1078 -5.32376 -4.33063 255 0 0
11.5409 -5.97546 -4.12486 255 0 0
11.6308 -6.19796 -3.37411 255 0 0
11.4969 -4.91862 -4.04455 255 0 0
9.66108 -5.11895 -4.35248 255 0 0
11.6547 -6.13992 -3.48425 255 0 0
11.5605 -6.49899 -4.05534 255 0 0
11.5823 -6.31388 -4.26953 255 0 0
11.5333 -5.3605 -3.97104 255 0 0
11.6884 -6.35379 -3.27543 255 0 0
11.6621 -6.3574 -3.60846 255 0 0
11.6235 -6.46203 -3.94801 255 0 0
11.542 -6.01082 -4.12769 255 0 0
11.5946 -4.99298 -3.6353 255 0 0
9.57283 -5.42645 -5.04672 255 0 0
11.4958 -4.95044 -4.04644 255 0 0
11.6259 -6.35556 -3.9408 255 0 0
11.5126 -5.15301 -4.27813 255 0 0
11.6172 -5.99752 -3.8042 255 0 0
10.9712 -5.45156 -5.39202 255 0 0
11.5926 -6.40895 -4.27896 255 0 0
11.6364 -6.11266 -3.37047 255 0 0
11.519 -5.25456 -4.07006 255 0 0
11.7041 -4.84394 -3.42722 255 0 0
9.8761 -5.08385 -4.48676 255 0 0
9.62333 -5.06976 -4.6257 255 0 0
11.5651 -5.95331 -4.01588 255 0 0
10.6308 -5.63277 -5.33108 255 0 0
9.651 -4.96798 -4.81201 255 0 0
11.6298 -5.1559 -3.54054 255 0 0
11.5619 -6.00375 -4.01902 255 0 0
11.5532 -4.86191 -3.72976 255 0 0
9.56128 -5.36016 -4.54981 255 0 0
11.66 -6.68283 -3.62747 255 0 0
11.6494 -6.95487 -3.75754 255 0 0
9.89174 -4.94445 -4.86487 255 0 0
9.6055 -5.39993 -4.37096 255 0 0
11.6031 -4.96404 -3.42197 255 0 0
10.5155 -5.07057 -4.71564 255 0 0
9.57723 -5.44396 -4.46629 255 0 0
10.2573 -5.06651 -4.66124 255 0 0
11.5287 -5.55916 -4.20202 255 0 0
11.5088 -5.00462 -4.26669 255 0 0
9.64102 -5.46511 -4.38451 255 0 0
11.5592 -6.60689 -4.06341 255 0 0
11.5292 -5.16043 -3.95759 255 0 0
11.5149 -4.8297 -3.93517 255 0 0
9.90618 -5.06966 -4.39436 255 0 0
11.2366 -5.10964 -5.30751 255 0 0
11.6196 -6.6049 -3.95777 255 0 0
10.6144 -4.9334 -5.03227 255 0 0
10.3719 -5.15378 -4.09185 255 0 0
10.1843 -5.86915 -5.25452 255 0 0
11.5215 -5.45499 -4.08423 255 0 0
11.5118 -5.28427 -4.07101 255 0 0
11.4136 -5.15752 -4.69489 255 0 0
10.4865 -5.78119 -5.31546 255 0 0
11.6382 -6.76231 -3.74362 255 0 0
10.6618 -5.36101 -5.19764 255 0 0
11.1739 -4.9538 -5.38421 255 0 0
10.1069 -5.14217 -4.04814 255 0 0
11.5863 -5.99898 -4.24471 255 0 0
9.55777 -5.29878 -4.63807 255 0 0
11.6432 -6.45491 -3.49999 255 0 0
11.6131 -5.51526 -3.66539 255 0 0
11.5303 -5.66137 -4.20996 255 0 0
11.6293 -6.05625 -3.69849 255 0 0
10.8296 -5.12743 -4.78728 255 0 0
10.7048 -5.35089 -5.20673 255 0 0
9.72113 -5.03327 -4.26035 255 0 0
11.5657 -6.6653 -4.06879 255 0 0
11.6087 -5.56384 -3.88564 255 0 0
11.5876 -5.15364 -3.85763 255 0 0
11.5973 -5.35683 -3.87121 255 0 0
10.8742 -5.63029 -5.39046 255 0 0
11.3651 -5.15184 -4.90269 255 0 0
11.6465 -6.56547 -3.61902 255 0 0
11.4886 -5.50628 -4.30103 255 0 0
9.72057 -5.44946 -4.01275 255 0 0
11.595 -5.3892 -3.87291 255 0 0
9.70303 -5.2299 -4.18066 255 0 0
9.9794 -5.07731 -4.40914 255 0 0
9.98833 -5.47572 -5.05215 255 0 0
9.72978 -5.21459 -3.89922 255 0 0
11.527 -4.96386 -3.94504 255 0 0
11.6563 -6.05278 -3.59051 255 0 0
9.56054 -5.1531 -4.24259 255 0 0
11.5254 -5.50715 -4.08848 255 0 0
11.5556 -5.84478 -4.00691 255 0 0
11.6226 -6.26454 -3.93401 255 0 0
10.6728 -5.0842 -4.85379 255 0 0
11.6153 -6.1016 -3.8106 255 0 0
11.6134 -5.09931 -3.53596 255 0 0
10.236 -5.11652 -4.06687 255 0 0
11.1663 -5.15779 -5.18645 255 0 0
11.6268 -6.75571 -3.40204 255 0 0
11.6611 -5.40312 -3.23212 255 0 0
11.5591 -5.81217 -4.00512 255 0 0
11.6224 -6.80856 -3.97305 255 0 0
11.2439 -4.87358 -5.1747 255 0 0
11.6327 -6.52143 -3.50261 255 0 0
11.6583 -6.75554 -3.63169 255 0 0
9.56532 -5.31781 -4.54583 255 0 0
11.6563 -5.10165 -3.21983 255 0 0
10.1252 -5.36485 -5.07034 255 0 0
11.62 -6.84419 -3.86103 255 0 0
9.68263 -5.50389 -4.20338 255 0 0
11.639 -5.40965 -3.55426 255 0 0
9.58643 -5.19642 -4.53654 255 0 0
11.691 -6.9047 -3.30169 255 0 0
11.5391 -5.3134 -3.9688 255 0 0
11.6309 -5.65952 -3.78499 255 0 0
11.6076 -5.41178 -3.76738 255 0 0
11.6788 -5.75145 -3.24805 255 0 0
11.6838 -6.91911 -3.64436 255 0 0
10.7465 -4.96388 -4.96189 255 0 0
11.5528 -5.65545 -3.99346 255 0 0
11.6157 -5.70331 -3.34922 255 0 0
11.5987 -4.92969 -3.42 255 0 0
10.0162 -5.77232 -5.09762 255 0 0
11.6377 -6.34408 -3.49343 255 0 0
11.244 -4.90534 -5.28705 255 0 0
11.5292 -5.55939 -4.09274 255 0 0
11.281 -5.30843 -4.68257 255 0 0
11.6273 -5.50511 -3.44951 255 0 0
9.70354 -5.28972 -3.9961 255 0 0
10.2193 -5.07793 -4.35626 255 0 0
9.85902 -5.14922 -3.91361 255 0 0
11.5921 -5.05719 -3.85254 255 0 0
11.5394 -6.55934 -4.17021 255 0 0
9.72345 -5.24091 -3.99506 255 0 0
11.604 -5.46044 -3.76978 255 0 0
10.5062 -5.03544 -4.60829 255 0 0
11.5403 -5.41378 -3.97552 255 0 0
9.67637 -5.45487 -4.97638 255 0 0
9.59825 -5.36595 -4.46182 255 0 0
11.4804 -5.05714 -4.48179 255 0 0
9.67453 -5.06746 -4.54052 255 0 0
11.6545 -5.99931 -3.58735 255 0 0
11.2398 -4.84018 -5.1703 255 0 0
9.55654 -5.06355 -4.70606 255 0 0
11.6529 -5.8248 -3.46786 255 0 0
11.6112 -6.294 -3.82261 255 0 0
11.5177 -6.89475 -4.19477 255 0 0
11.6527 -6.10363 -3.59298 255 0 0
11.6132 -5.70207 -3.67592 255 0 0
11.5634 -6.44656 -4.05175 255 0 0
11.2676 -5.01132 -5.08554 255 0 0
11.5921 -5.05719 -3.63831 255 0 0
11.6873 -6.05129 -3.26174 255 0 0
11.6547 -6.40723 -3.61058 255 0 0
9.75324 -5.31681 -3.91113 255 0 0
11.5146 -5.31867 -4.18216 255 0 0
10.4147 -5.05244 -4.19021 255 0 0
9.58043 -5.2669 -4.54317 255 0 0
11.6786 -6.40232 -3.27683 255 0 0
10.1499 -5.1338 -4.05438 255 0 0
11.6472 -5.44708 -3.55708 255 0 0
11.7465 -4.86146 -3.53948 255 0 0
11.5938 -4.89515 -3.52399 255 0 0
11.5656 -5.90163 -4.01229 255 0 0
11.6335 -5.95367 -3.36257 255 0 0
11.5082 -5.10199 -4.16578 255 0 0
11.6191 -6.086 -3.92128 255 0 0
11.2368 -4.94986 -5.29008 255 0 0
11.5723 -6.45154 -4.27946 255 0 0
11.6556 -6.64365 -3.62465 255 0 0
11.5275 -6.4984 -4.1636 255 0 0
11.6068 -5.49538 -3.77218 255 0 0
9.86656 -5.16805 -4.01171 255 0 0
11.6365 -5.56023 -3.45311 255 0 0
11.6079 -4.8364 -3.73536 255 0 0
11.2619 -4.96092 -5.07914 255 0 0
11.6065 -6.50676 -3.83622 255 0 0
11.6644 -5.35431 -3.23045 255 0 0
11.5101 -5.21757 -4.17422 255 0 0
9.52682 -5.26687 -4.82008 255 0 0
10.8926 -5.44475 -5.37171 255 0 0
11.6854 -5.99771 -3.25922 255 0 0
11.5625 -6.55433 -4.05982 255 0 0
10.3683 -5.06034 -4.6838 255 0 0
11.6671 -6.98421 -3.53211 255 0 0
10.3395 -5.73216 -5.27327 255 0 0
11.6278 -6.00303 -3.3644 255 0 0
11.6357 -6.70559 -3.40022 255 0 0
11.6313 -6.85084 -3.52096 255 0 0
9.67306 -5.21375 -4.07917 255 0 0
11.6144 -6.45699 -3.83382 255 0 0
11.6227 -5.00508 -3.53244 255 0 0
10.2665 -5.07107 -4.56351 255 0 0
9.71973 -5.40366 -4.00859 255 0 0
10.5359 -4.92734 -5.01318 255 0 0
11.5941 -5.32207 -3.86867 255 0 0
11.6822 -6.26099 -3.27068 255 0 0
11.6094 -5.032 -3.63906 255 0 0
11.6818 -5.90861 -3.25503 255 0 0
11.2415 -5.16019 -5.31433 255 0 0
11.3854 -5.22627 -4.47838 255 0 0
9.72119 -5.49532 -4.01691 255 0 0
11.6011 -4.83354 -3.94773 255 0 0
9.54581 -5.56169 -4.66692 255 0 0
11.6269 -6.21362 -3.93104 255 0 0
11.5347 -6.1117 -4.13431 255 0 0
9.67227 -5.34727 -4.09115 255 0 0
11.6379 -6.81762 -3.40629 255 0 0
10.6729 -4.96061 -4.94483 255 0 0
9.82842 -5.1778 -4.1977 255 0 0
11.5899 -4.82887 -4.26773 255 0 0
11.3607 -4.90823 -4.87881 255 0 0
11.5923 -6.90213 -4.32115 255 0 0
11.5703 -4.86909 -3.30884 255 0 0
9.55915 -5.16699 -4.71885 255 0 0
11.556 -5.4044 -4.30415 255 0 0
11.6138 -5.21486 -3.43443 255 0 0
9.55599 -5.10689 -4.71104 255 0 0
11.6067 -5.09634 -3.64207 255 0 0
11.5981 -5.45767 -3.33646 255 0 0
11.5431 -5.80417 -4.22287 255 0 0
10.1894 -5.09323 -4.15537 255 0 0
10.3842 -5.28327 -5.12187 255 0 0
9.74521 -5.16352 -3.99194 255 0 0
11.3821 -5.48845 -4.2823 255 0 0
11.2354 -5.06097 -5.19233 255 0 0
11.6878 -6.84687 -3.29862 255 0 0
9.64487 -5.55831 -4.20225 255 0 0
11.618 -6.0504 -3.91874 255 0 0
10.4596 -4.98265 -5.00143 255 0 0
10.8508 -5.65085 -5.38733 255 0 0
11.6833 -5.94422 -3.25671 255 0 0
10.308 -5.0007 -4.86666 255 0 0
9.589 -4.96486 -4.7018 255 0 0
11.5125 -5.35082 -4.18415 255 0 0
11.6631 -5.18723 -3.22374 255 0 0
11.5396 -6.68675 -4.1806 255 0 0
11.2677 -4.8839 -5.07275 255 0 0
9.73903 -5.13071 -4.36849 255 0 0
11.6343 -6.25307 -3.37715 255 0 0
9.97649 -5.07583 -4.50595 255 0 0
11.6115 -5.5652 -3.34254 255 0 0
11.7685 -4.87058 -3.32796 255 0 0
9.58484 -5.1662 -4.62845 255 0 0
11.6038 -6.14829 -3.8122 255 0 0
11.5931 -5.00864 -3.31673 255 0 0
11.596 -5.2565 -3.75697 255 0 0
11.6259 -6.16002 -3.92722 255 0 0
11.763 -4.83567 -3.97104 255 0 0
10.316 -5.09554 -4.47565 255 0 0
11.3599 -5.10088 -4.89672 255 0 0
11.6202 -5.96424 -3.91322 255 0 0
11.6533 -6.20997 -3.71052 255 0 0
11.6443 -5.85503 -3.46852 255 0 0
11.6187 -5.4002 -3.4436 255 0 0
11.665 -5.25445 -3.22653 255 0 0
11.5472 -5.53436 -3.98449 255 0 0
9.56102 -5.46479 -4.56175 255 0 0
11.5362 -5.76646 -4.2189 255 0 0
11.6243 -5.3026 -3.54722 255 0 0
11.638 -6.41605 -3.49736 255 0 0
11.6181 -5.91105 -3.9094 255 0 0
9.99138 -5.11326 -4.22043 255 0 0
11.6297 -6.35763 -3.71692 255 0 0
11.6302 -6.12703 -3.92552 255 0 0
11.5537 -5.75812 -4.00063 255 0 0
9.58658 -5.40426 -4.46374 255 0 0
11.5871 -4.98973 -3.74096 255 0 0
11.6368 -6.14814 -3.70488 255 0 0
11.5454 -6.6536 -4.17871 255 0 0
11.6511 -5.89312 -3.47114 255 0 0
11.6563 -5.80922 -3.57714 255 0 0
11.5957 -5.49014 -3.33768 255 0 0
9.74553 -5.28267 -3.90716 255 0 0
11.5943 -5.1896 -3.75297 255 0 0
11.1674 -4.85618 -5.37171 255 0 0
11.6609 -6.24957 -3.60213 255 0 0
11.6808 -5.70093 -3.24609 255 0 0
11.6189 -5.75623 -3.67968 255 0 0
11.5654 -5.84975 -4.22982 255 0 0
11.4782 -5.15397 -4.48917 255 0 0
11.5989 -6.70274 -4.30477 255 0 0
10.6248 -5.09227 -4.84417 255 0 0
11.6196 -5.56908 -3.66915 255 0 0
11.5772 -4.85584 -3.62628 255 0 0
11.6744 -4.86411 -3.85254 255 0 0
11.5679 -4.91657 -3.73456 255 0 0
11.6916 -6.70093 -3.29191 255 0 0
9.83551 -5.48328 -5.0173 255 0 0
11.5692 -6.88835 -4.08672 255 0 0
11.6817 -5.80462 -3.25056 255 0 0
11.6161 -5.31549 -3.43934 255 0 0
11.6131 -6.60124 -3.84342 255 0 0
11.5745 -4.95182 -3.84406 255 0 0
11.5858 -6.60387 -4.29435 255 0 0
11.6391 -6.70756 -3.62677 255 0 0
9.6361 -4.96031 -4.71175 255 0 0
11.5433 -5.90751 -4.12013 255 0 0
11.5431 -6.39943 -4.15793 255 0 0
11.694 -6.81327 -3.2975 255 0 0
11.6903 -6.7556 -3.29443 255 0 0
11.6821 -6.65876 -3.28912 255 0 0
11.6854 -6.6057 -3.28688 255 0 0
11.6834 -6.54984 -3.28409 255 0 0
11.6939 -6.50118 -3.28269 255 0 0
11.6889 -6.44406 -3.27962 255 0 0
11.6828 -6.29697 -3.27235 255 0 0
11.689 -6.2112 -3.269 255 0 0
11.6852 -6.156 -3.26621 255 0 0
11.6889 -6.10496 -3.26425 255 0 0
11.6838 -5.66813 -3.24497 255 0 0
11.6724 -5.61138 -3.24162 255 0 0
11.6765 -5.56232 -3.23995 255 0 0
11.6751 -5.5108 -3.23771 255 0 0
11.6682 -5.4569 -3.23492 255 0 0
11.6648 -5.30436 -3.22849 255 0 0
11.6541 -5.15014 -3.22151 255 0 0
11.6476 -5.04857 -3.21704 255 0 0
11.6316 -6.88824 -3.75114 255 0 0
10.4635 -5.13755 -4.10538 255 0 0
11.5099 -5.00512 -4.05211 255 0 0
11.5654 -4.89933 -3.83981 255 0 0
9.86873 -4.94757 -4.7622 255 0 0
11.6212 -6.66058 -3.96202 255 0 0
11.5912 -5.32071 -3.32979 255 0 0
10.9923 -5.55986 -5.30069 255 0 0
11.621 -6.2637 -3.82181 255 0 0
10.2708 -5.37976 -5.10671 255 0 0
11.5679 -4.90039 -3.6274 255 0 0
11.375 -5.05908 -4.57057 255 0 0
11.6323 -6.90731 -3.41054 255 0 0
11.6318 -6.85111 -3.40751 255 0 0
11.6263 -6.66351 -3.39719 255 0 0
11.6271 -6.60917 -3.39445 255 0 0
11.6378 -6.56062 -3.39293 255 0 0
11.6306 -6.50214 -3.38929 255 0 0
11.6282 -6.44661 -3.38626 255 0 0
11.6383 -6.41621 -3.38565 255 0 0
11.6355 -6.36082 -3.38261 255 0 0
11.6376 -6.30829 -3.38018 255 0 0
11.6249 -6.15946 -3.37168 255 0 0
11.6271 -6.0551 -3.36682 255 0 0
11.6166 -5.85839 -3.3565 255 0 0
11.627 -5.81183 -3.35529 255 0 0
11.6163 -5.75493 -3.35164 255 0 0
11.6037 -5.52764 -3.34011 255 0 0
11.6096 -5.41269 -3.33555 255 0 0
11.6037 -5.29321 -3.32979 255 0 0
10.6632 -5.76372 -5.35608 255 0 0
11.6003 -5.25847 -3.32796 255 0 0
11.6022 -5.22616 -3.32675 255 0 0
11.5879 -5.18674 -3.32371 255 0 0
11.6018 -5.12703 -3.3225 255 0 0
11.5926 -5.09014 -3.32007 255 0 0
11.5939 -5.05798 -3.31886 255 0 0
11.5921 -4.95935 -3.3146 255 0 0
11.6494 -4.85367 -3.31582 255 0 0
9.75721 -5.09604 -4.36849 255 0 0
11.4214 -5.11222 -4.69242 255 0 0
11.6217 -5.26814 -3.4377 255 0 0
11.6308 -5.65946 -3.67555 255 0 0
11.6375 -6.56042 -3.50523 255 0 0
11.6355 -6.09459 -3.7015 255 0 0
10.2221 -5.01901 -4.54944 255 0 0
9.64774 -5.37861 -5.15738 255 0 0
11.5265 -6.02009 -4.23726 255 0 0
11.6382 -6.13125 -3.59298 255 0 0
11.6487 -6.93569 -3.52752 255 0 0
11.6375 -6.81736 -3.51965 255 0 0
11.6385 -6.78096 -3.51769 255 0 0
11.6403 -6.70827 -3.51375 255 0 0
11.6309 -6.66618 -3.51047 255 0 0
11.6315 -6.62994 -3.50851 255 0 0
11.6532 -6.38844 -3.49736 255 0 0
11.655 -6.29989 -3.49277 255 0 0
11.6452 -6.17026 -3.48491 255 0 0
11.6516 -6.03278 -3.47835 255 0 0
11.6607 -6.00248 -3.4777 255 0 0
11.6386 -5.95626 -3.47311 255 0 0
11.6345 -5.76394 -3.46294 255 0 0
11.6523 -5.72125 -3.46262 255 0 0
11.6292 -5.67574 -3.45803 255 0 0
11.635 -5.61042 -3.45541 255 0 0
11.6389 -5.46002 -3.44852 255 0 0
11.627 -5.17116 -3.43377 255 0 0
11.6073 -5.12946 -3.42984 255 0 0
11.6048 -5.06273 -3.42656 255 0 0
11.6094 -5.01566 -3.42492 255 0 0
11.5782 -4.88859 -3.41607 255 0 0
11.6113 -4.87013 -3.41869 255 0 0
11.6299 -5.20554 -3.543 255 0 0
11.1617 -5.28468 -4.44315 255 0 0
11.518 -4.9115 -3.94055 255 0 0
11.5688 -6.88811 -4.20139 255 0 0
11.5317 -5.76418 -4.10785 255 0 0
11.6162 -6.80489 -3.85783 255 0 0
11.6061 -6.04417 -3.8058 255 0 0
11.6239 -4.97294 -3.53103 255 0 0
11.6186 -5.3667 -3.65787 255 0 0
11.3913 -4.95354 -4.67272 255 0 0
11.5929 -5.25507 -3.86442 255 0 0
11.6263 -5.70851 -3.78739 255 0 0
11.6632 -6.85102 -3.63803 255 0 0
11.6523 -6.78901 -3.6331 255 0 0
11.652 -6.51409 -3.61656 255 0 0
11.6471 -6.4571 -3.61269 255 0 0
11.654 -6.2993 -3.60424 255 0 0
11.648 -5.96107 -3.58453 255 0 0
11.6484 -5.90909 -3.58171 255 0 0
11.6587 -5.75873 -3.57468 255 0 0
11.6556 -5.70573 -3.57151 255 0 0
11.647 -5.65028 -3.56764 255 0 0
11.6447 -5.61507 -3.56552 255 0 0
11.6527 -5.58494 -3.56482 255 0 0
11.6449 -5.54729 -3.562 255 0 0
11.6352 -5.25764 -3.54617 255 0 0
11.6182 -5.05218 -3.5342 255 0 0
11.5982 -4.92945 -3.5261 255 0 0
11.5893 -4.8609 -3.52188 255 0 0
11.6329 -4.84682 -3.5261 255 0 0
9.95864 -5.12634 -3.92701 255 0 0
9.577 -5.1327 -4.62296 255 0 0
9.76252 -5.14308 -3.99298 255 0 0
11.6329 -6.8518 -3.74889 255 0 0
11.6391 -6.81833 -3.74738 255 0 0
11.642 -6.70927 -3.74061 255 0 0
11.6311 -6.61146 -3.73309 255 0 0
11.6192 -6.55008 -3.72782 255 0 0
11.6373 -6.50588 -3.72707 255 0 0
11.6401 -6.45319 -3.72406 255 0 0
11.6242 -6.301 -3.71278 255 0 0
11.6311 -6.25137 -3.71052 255 0 0
11.6301 -6.00421 -3.69548 255 0 0
11.6307 -5.95222 -3.69247 255 0 0
11.6388 -5.90426 -3.69059 255 0 0
11.6364 -5.85108 -3.68721 255 0 0
11.6064 -5.46157 -3.66163 255 0 0
11.6073 -5.41167 -3.659 255 0 0
11.6139 -5.31447 -3.65448 255 0 0
11.5983 -5.25755 -3.64959 255 0 0
11.6002 -5.22526 -3.64809 255 0 0
11.5824 -5.15132 -3.64207 255 0 0
11.5946 -5.12384 -3.64207 255 0 0
11.5851 -4.95634 -3.63229 255 0 0
11.653 -4.85518 -3.6353 255 0 0
9.9209 -5.07719 -4.69028 255 0 0
11.5198 -5.40417 -4.08045 255 0 0
9.55805 -5.40312 -4.65044 255 0 0
11.5957 -5.52384 -3.8814 255 0 0
10.2899 -5.3123 -5.10292 255 0 0
11.6218 -5.80922 -3.79299 255 0 0
11.5492 -6.08433 -4.13431 255 0 0
9.79581 -5.19033 -4.19316 255 0 0
11.5668 -6.81286 -4.08044 255 0 0
11.628 -6.90473 -3.86623 255 0 0
11.6223 -6.77149 -3.85623 255 0 0
11.6161 -6.71269 -3.85143 255 0 0
11.6198 -6.65981 -3.84822 255 0 0
11.6163 -6.5485 -3.84022 255 0 0
11.6068 -6.39883 -3.82901 255 0 0
11.6142 -6.34917 -3.82661 255 0 0
11.6074 -6.2032 -3.81621 255 0 0
11.6178 -5.9456 -3.801 255 0 0
11.6163 -5.91015 -3.7986 255 0 0
11.6166 -5.85835 -3.79539 255 0 0
11.6242 -5.75884 -3.79019 255 0 0
11.6196 -5.603 -3.78019 255 0 0
11.592 -5.3211 -3.76018 255 0 0
11.6046 -5.29361 -3.76018 255 0 0
11.5979 -5.22422 -3.75537 255 0 0
11.6013 -5.15974 -3.75217 255 0 0
11.5877 -5.10443 -3.74737 255 0 0
11.5845 -5.05389 -3.74417 255 0 0
11.5965 -5.02641 -3.74417 255 0 0
11.5829 -4.9554 -3.73856 255 0 0
11.6944 -4.83992 -3.74657 255 0 0
11.538 -6.04353 -4.12958 255 0 0
11.5269 -5.35755 -4.29583 255 0 0
10.8302 -5.36551 -5.23856 255 0 0
9.93381 -5.11356 -4.01795 255 0 0
11.6185 -6.91774 -3.98069 255 0 0
11.6131 -6.8587 -3.97559 255 0 0
11.6185 -6.76932 -3.96965 255 0 0
11.6099 -6.70912 -3.96414 255 0 0
11.6228 -6.55214 -3.95438 255 0 0
11.6181 -6.51324 -3.95098 255 0 0
11.6337 -6.41365 -3.94589 255 0 0
11.6281 -6.30313 -3.93741 255 0 0
11.6272 -6.02018 -3.91789 255 0 0
11.6209 -5.86056 -3.90643 255 0 0
11.6132 -5.80495 -3.90176 255 0 0
11.6078 -5.75075 -3.89752 255 0 0
11.6126 -5.70177 -3.89497 255 0 0
11.6094 -5.64902 -3.89116 255 0 0
11.6035 -5.49385 -3.88055 255 0 0
11.606 -5.46139 -3.87885 255 0 0
11.598 -5.42404 -3.87546 255 0 0
11.5962 -5.28976 -3.86697 255 0 0
11.5894 -5.22043 -3.86188 255 0 0
11.5899 -5.1054 -3.85509 255 0 0
11.5994 -5.01134 -3.85085 255 0 0
11.5076 -5.34854 -4.07478 255 0 0
11.5579 -6.3006 -4.04009 255 0 0
11.4686 -4.95486 -4.47156 255 0 0
9.65675 -5.14601 -4.16475 255 0 0
11.7141 -4.84806 -3.96476 255 0 0
11.5599 -6.6985 -4.07058 255 0 0
11.5634 -6.41071 -4.04906 255 0 0
11.5675 -6.25258 -4.03785 255 0 0
11.5617 -6.19636 -4.03292 255 0 0
11.5661 -6.16349 -4.03112 255 0 0
11.5586 -5.7093 -3.99794 255 0 0
11.5521 -5.60421 -3.98987 255 0 0
11.5445 -5.56675 -3.98629 255 0 0
11.5394 -5.49701 -3.98091 255 0 0
11.5419 -5.46469 -3.97911 255 0 0
11.5395 -5.26392 -3.96566 255 0 0
11.5318 -5.21094 -3.96118 255 0 0
11.5263 -5.11003 -3.954 255 0 0
11.5338 -5.06434 -3.95221 255 0 0
11.5278 -5.0129 -3.94817 255 0 0
11.5034 -4.85699 -3.93517 255 0 0
11.5391 -5.71671 -4.10549 255 0 0
11.4824 -4.86419 -4.03888 255 0 0
9.71394 -5.44574 -4.98396 255 0 0
10.0924 -5.10471 -4.23747 255 0 0
10.1043 -5.05072 -4.52898 255 0 0
11.5427 -6.76184 -4.18722 255 0 0
11.5379 -6.45031 -4.16123 255 0 0
11.538 -6.36088 -4.15415 255 0 0
11.5326 -6.30456 -4.14895 255 0 0
11.5372 -6.25387 -4.14564 255 0 0
11.5457 -6.15262 -4.13903 255 0 0
11.5396 -5.94015 -4.12202 255 0 0
11.5361 -5.66418 -4.10124 255 0 0
11.5301 -5.61047 -4.09651 255 0 0
11.5255 -5.32366 -4.07573 255 0 0
11.5113 -5.20167 -4.06534 255 0 0
11.5086 -5.15125 -4.06156 255 0 0
11.5137 -5.10444 -4.05919 255 0 0
11.508 -5.05299 -4.05494 255 0 0
11.1977 -5.10798 -4.75539 255 0 0
9.62649 -5.50221 -4.38574 255 0 0
10.7363 -5.08324 -4.86753 255 0 0
9.70448 -5.36509 -4.19372 255 0 0
9.62523 -5.14388 -4.44327 255 0 0
9.69075 -5.5237 -3.91907 255 0 0
9.53314 -5.40395 -3.88532 255 0 0
9.75202 -5.49752 -3.92602 255 0 0
9.75891 -5.45576 -3.92354 255 0 0
9.767 -5.39966 -3.92007 255 0 0
9.78615 -5.36488 -3.92007 255 0 0
9.75803 -5.25955 -3.90716 255 0 0
9.7523 -5.19693 -3.9012 255 0 0
9.87472 -5.11279 -3.91312 255 0 0
11.5754 -5.90658 -4.23577 255 0 0
11.5256 -5.71003 -4.21294 255 0 0
11.5193 -5.60518 -4.204 255 0 0
11.525 -5.50694 -4.19755 255 0 0
11.5158 -5.45232 -4.19209 255 0 0
11.5116 -5.40031 -4.18762 255 0 0
11.5072 -5.26568 -4.1772 255 0 0
11.5023 -5.16478 -4.16926 255 0 0
11.5025 -5.05059 -4.16131 255 0 0
11.5071 -5.0039 -4.15883 255 0 0
11.5116 -4.95724 -4.15635 255 0 0
11.4968 -4.91858 -4.15139 255 0 0
9.99869 -5.05732 -4.50851 255 0 0
11.3254 -4.95685 -4.98432 255 0 0
10.5652 -4.95631 -4.91996 255 0 0
9.97126 -5.51258 -5.05291 255 0 0
9.73768 -5.35334 -4.00703 255 0 0
9.74645 -5.28317 -4.00234 255 0 0
9.72678 -5.19814 -3.99194 255 0 0
9.89923 -5.15528 -4.01587 255 0 0
9.97283 -5.16359 -4.02836 255 0 0
10.0793 -5.15824 -4.04501 255 0 0
10.229 -5.14337 -4.06791 255 0 0
10.4254 -5.14958 -4.10017 255 0 0
10.6931 -5.21887 -4.14909 255 0 0
11.2446 -5.45507 -4.25732 255 0 0
11.5731 -5.46267 -4.31144 255 0 0
11.5197 -5.30448 -4.29062 255 0 0
11.5123 -5.25151 -4.28542 255 0 0
11.5126 -5.20224 -4.28178 255 0 0
11.509 -5.11868 -4.27501 255 0 0
11.5158 -5.08905 -4.27397 255 0 0
11.5067 -5.05246 -4.26981 255 0 0
11.5012 -4.92044 -4.2594 255 0 0
11.4841 -4.8649 -4.25264 255 0 0
11.7078 -4.84545 -4.28854 255 0 0
11.4337 -5.18293 -4.37526 255 0 0
9.56875 -4.99761 -4.70109 255 0 0
9.54523 -5.44075 -5.04204 255 0 0
10.4187 -4.9935 -4.89083 255 0 0
11.4703 -4.90725 -4.46815 255 0 0
9.65215 -5.59303 -4.11074 255 0 0
9.53174 -5.43307 -4.07591 255 0 0
9.65618 -5.45858 -4.09877 255 0 0
9.66186 -5.4015 -4.09441 255 0 0
9.64078 -5.28519 -4.08026 255 0 0
9.64318 -5.25681 -4.07808 255 0 0
9.58398 -5.13645 -4.0574 255 0 0
9.62505 -5.11447 -4.0623 255 0 0
9.71285 -5.10223 -4.07591 255 0 0
9.75646 -5.08093 -4.08135 255 0 0
9.80424 -5.0763 -4.08897 255 0 0
9.84694 -5.06884 -4.0955 255 0 0
9.9264 -5.06517 -4.10856 255 0 0
10.071 -5.0789 -4.13415 255 0 0
10.2899 -5.09783 -4.17279 255 0 0
10.3235 -5.0688 -4.17606 255 0 0
10.444 -5.0973 -4.19892 255 0 0
10.5095 -5.06771 -4.20762 255 0 0
11.0747 -5.25954 -4.31975 255 0 0
11.1922 -5.26666 -4.34043 255 0 0
11.3193 -5.29373 -4.36438 255 0 0
11.3319 -5.26688 -4.36438 255 0 0
11.2555 -5.19898 -4.34587 255 0 0
11.3097 -5.19148 -4.35458 255 0 0
11.4476 -5.22196 -4.38071 255 0 0
11.4302 -5.14871 -4.372 255 0 0
11.4274 -5.09865 -4.36764 255 0 0
11.4192 -5.04635 -4.3622 255 0 0
11.4265 -5.00109 -4.36002 255 0 0
11.4284 -4.95356 -4.35676 255 0 0
11.3998 -4.84514 -4.3437 255 0 0
11.3562 -5.3438 -4.48292 255 0 0
10.234 -5.08523 -4.5584 255 0 0
10.2079 -5.10249 -4.75486 255 0 0
9.68785 -5.40097 -4.19429 255 0 0
9.65556 -5.08674 -4.44327 255 0 0
9.67887 -5.1873 -4.26745 255 0 0
11.3693 -5.0082 -4.56524 255 0 0
9.66301 -5.53828 -4.20338 255 0 0
9.68214 -5.45813 -4.19884 255 0 0
9.6958 -5.31535 -4.18747 255 0 0
9.70333 -5.2896 -4.18634 255 0 0
9.6704 -5.24194 -4.17611 255 0 0
9.6749 -5.18517 -4.17156 255 0 0
9.7847 -5.12517 -4.1852 255 0 0
9.8172 -5.11256 -4.18975 255 0 0
9.8956 -5.12361 -4.20452 255 0 0
9.93326 -5.11328 -4.2102 255 0 0
10.1161 -5.14686 -4.24543 255 0 0
10.1772 -5.10225 -4.25225 255 0 0
10.3445 -5.14015 -4.2852 255 0 0
10.3997 -5.10623 -4.29202 255 0 0
10.5615 -5.15462 -4.32497 255 0 0
10.5582 -5.12204 -4.32156 255 0 0
10.6911 -5.12405 -4.34543 255 0 0
10.7447 -5.11845 -4.35452 255 0 0
11.3896 -5.32659 -4.48747 255 0 0
11.4606 -5.3102 -4.49883 255 0 0
11.4719 -5.21665 -4.49315 255 0 0
11.4676 -5.10027 -4.48292 255 0 0
11.4773 -5.00709 -4.47724 255 0 0
11.4586 -4.85411 -4.4619 255 0 0
11.6763 -4.83243 -4.49997 255 0 0
9.98037 -4.95922 -4.7885 255 0 0
9.562 -5.40536 -4.55511 255 0 0
9.58709 -5.49477 -4.28166 255 0 0
9.62093 -5.42362 -4.28048 255 0 0
9.60375 -5.38397 -4.27337 255 0 0
9.60147 -5.35281 -4.26982 255 0 0
9.59909 -5.32169 -4.26627 255 0 0
9.59159 -5.28784 -4.26153 255 0 0
9.6041 -5.26508 -4.26153 255 0 0
9.61383 -5.21128 -4.25798 255 0 0
9.59499 -5.1131 -4.24496 255 0 0
9.57162 -5.07154 -4.23667 255 0 0
9.71045 -5.11565 -4.26627 255 0 0
9.687 -5.07399 -4.25798 255 0 0
9.80952 -5.04958 -4.27811 255 0 0
9.88782 -5.06027 -4.2935 255 0 0
9.96112 -5.06801 -4.30771 255 0 0
10.0568 -5.05678 -4.32429 255 0 0
10.1303 -5.06369 -4.3385 255 0 0
10.3874 -5.10018 -4.38941 255 0 0
10.3376 -5.04536 -4.3752 255 0 0
10.4011 -5.04586 -4.38704 255 0 0
10.4131 -5.02119 -4.38704 255 0 0
10.5956 -5.07827 -4.42612 255 0 0
10.6179 -5.05807 -4.42848 255 0 0
10.7025 -5.06723 -4.44506 255 0 0
11.3133 -5.29093 -4.57886 255 0 0
11.2947 -5.24959 -4.57175 255 0 0
11.3175 -5.2276 -4.57412 255 0 0
11.3246 -5.19836 -4.57294 255 0 0
11.1752 -5.09772 -4.53623 255 0 0
11.3805 -5.15881 -4.58004 255 0 0
11.3839 -5.09541 -4.57531 255 0 0
11.3634 -4.95741 -4.55991 255 0 0
11.3704 -4.91242 -4.55755 255 0 0
11.3835 -4.8382 -4.55399 255 0 0
11.714 -6.97456 -3.307 255 0 0
9.85342 -5.07218 -4.38451 255 0 0
9.61862 -5.31763 -4.3648 255 0 0
9.62615 -5.26235 -4.36049 255 0 0
9.61713 -5.21307 -4.35371 255 0 0
9.6165 -5.15386 -4.34756 255 0 0
9.5812 -5.13496 -4.33893 255 0 0
9.84136 -5.09552 -4.38451 255 0 0
10.0067 -5.06138 -4.41283 255 0 0
10.1484 -5.07274 -4.44116 255 0 0
10.2629 -5.09961 -4.4658 255 0 0
10.3538 -5.08368 -4.48181 255 0 0
10.3812 -5.06665 -4.4855 255 0 0
10.4739 -5.06584 -4.50336 255 0 0
10.5985 -5.06424 -4.52738 255 0 0
10.72 -5.07551 -4.55201 255 0 0
11.3247 -5.29622 -4.68996 255 0 0
11.2905 -5.24764 -4.67887 255 0 0
11.3133 -5.22565 -4.68134 255 0 0
11.3828 -5.22508 -4.69489 255 0 0
11.2181 -5.1173 -4.65301 255 0 0
11.4003 -5.05417 -4.68318 255 0 0
11.4051 -5.00783 -4.68011 255 0 0
11.3984 -4.90847 -4.67025 255 0 0
11.3995 -4.87693 -4.66779 255 0 0
11.3794 -4.83645 -4.6604 255 0 0
9.61348 -5.06457 -4.81494 255 0 0
11.5594 -5.95036 -4.23677 255 0 0
9.58103 -5.5064 -4.47397 255 0 0
9.60108 -5.30794 -4.45606 255 0 0
9.61612 -5.25687 -4.4535 255 0 0
9.60463 -5.20629 -4.44583 255 0 0
9.56665 -5.15639 -4.43304 255 0 0
9.62833 -5.10159 -4.43943 255 0 0
9.74039 -5.07256 -4.45862 255 0 0
9.77269 -5.05996 -4.46374 255 0 0
9.85761 -5.0448 -4.47909 255 0 0
10.0566 -5.0567 -4.52002 255 0 0
10.4137 -5.08248 -4.59421 255 0 0
10.4154 -5.05279 -4.59166 255 0 0
10.484 -5.05538 -4.60573 255 0 0
10.5749 -5.03755 -4.62236 255 0 0
10.8967 -5.15917 -4.69911 255 0 0
11.2708 -5.30362 -4.78865 255 0 0
11.1662 -5.1899 -4.75667 255 0 0
11.0903 -5.12268 -4.73493 255 0 0
11.3206 -5.19649 -4.78865 255 0 0
11.3659 -5.15218 -4.79377 255 0 0
11.3659 -5.10354 -4.78929 255 0 0
11.3605 -5.05263 -4.78354 255 0 0
11.3601 -5.00413 -4.77906 255 0 0
11.3542 -4.95342 -4.7733 255 0 0
11.3613 -4.90848 -4.77074 255 0 0
11.3472 -4.85455 -4.76307 255 0 0
11.1347 -5.17526 -4.85626 255 0 0
9.55139 -5.59531 -4.57501 255 0 0
9.56136 -5.55558 -4.57236 255 0 0
9.56624 -5.513 -4.56838 255 0 0
9.59911 -5.23279 -4.54317 255 0 0
9.5937 -5.17097 -4.53521 255 0 0
9.61096 -5.15091 -4.53654 255 0 0
9.58288 -5.10665 -4.52593 255 0 0
9.63528 -5.10527 -4.53654 255 0 0
9.64735 -5.08241 -4.53654 255 0 0
9.7371 -5.07085 -4.55379 255 0 0
9.79974 -5.07397 -4.56705 255 0 0
9.87101 -5.06641 -4.58098 255 0 0
9.97883 -5.06213 -4.60287 255 0 0
10.0732 -5.06505 -4.62277 255 0 0
10.126 -5.06155 -4.63338 255 0 0
10.2146 -5.07559 -4.65328 255 0 0
10.3256 -5.06983 -4.67584 255 0 0
10.447 -5.0681 -4.70104 255 0 0
10.5583 -5.06041 -4.7236 255 0 0
10.6578 -5.07706 -4.74615 255 0 0
10.9965 -5.17458 -4.82707 255 0 0
11.1018 -5.19198 -4.85095 255 0 0
11.2505 -5.19668 -4.88279 255 0 0
11.1281 -5.10813 -4.8483 255 0 0
11.3684 -5.18587 -4.90667 255 0 0
11.365 -5.05465 -4.89341 255 0 0
11.3568 -5.0027 -4.88677 255 0 0
11.3693 -4.96 -4.88545 255 0 0
11.3414 -4.85208 -4.86953 255 0 0
9.97127 -5.90497 -4.79745 255 0 0
9.54912 -5.53333 -4.66418 255 0 0
9.54249 -5.49931 -4.65868 255 0 0
9.56369 -5.34663 -4.64494 255 0 0
9.5714 -5.20298 -4.62983 255 0 0
9.57909 -5.10463 -4.62021 255 0 0
9.57105 -5.07124 -4.61471 255 0 0
9.66148 -5.04603 -4.6312 255 0 0
9.7975 -5.04339 -4.66005 255 0 0
10.0394 -5.10786 -4.71914 255 0 0
10.2709 -5.1036 -4.7686 255 0 0
10.3391 -5.10696 -4.78371 255 0 0
10.3768 -5.09497 -4.79058 255 0 0
10.4502 -5.10031 -4.80707 255 0 0
10.5768 -5.10014 -4.83455 255 0 0
10.7947 -5.07958 -4.87989 255 0 0
11.0424 -5.10053 -4.93623 255 0 0
11.0803 -5.0862 -4.9431 255 0 0
11.3272 -5.13465 -5.00218 255 0 0
11.3236 -5.05235 -4.99325 255 0 0
11.3285 -5.00629 -4.98981 255 0 0
11.3221 -4.90747 -4.97882 255 0 0
11.3232 -4.87611 -4.97607 255 0 0
11.3243 -4.84477 -4.97332 255 0 0
10.0379 -4.95818 -4.80129 255 0 0
9.61041 -5.3877 -5.14934 255 0 0
11.1751 -5.21015 -5.41389 255 0 0
9.80335 -5.77418 -4.84677 255 0 0
9.52961 -5.26841 -4.72454 255 0 0
9.54331 -5.23176 -4.72312 255 0 0
9.5507 -5.20639 -4.7217 255 0 0
9.53836 -5.025 -4.69754 255 0 0
9.67311 -4.95038 -4.71885 255 0 0
9.73545 -4.95319 -4.73307 255 0 0
9.77758 -4.94548 -4.74159 255 0 0
10.2077 -5.01197 -4.84535 255 0 0
10.2604 -5.00769 -4.85672 255 0 0
10.3608 -4.99598 -4.87804 255 0 0
10.5023 -5.00298 -4.91072 255 0 0
10.5193 -4.9805 -4.91215 255 0 0
10.8409 -4.9763 -4.98463 255 0 0
11.1369 -5.08024 -5.0628 255 0 0
11.2161 -5.0843 -5.08127 255 0 0
11.2678 -5.05952 -5.09051 255 0 0
11.2688 -4.85268 -5.0699 255 0 0
9.66244 -5.41687 -5.06703 255 0 0
9.56667 -5.15639 -4.81543 255 0 0
9.61042 -5.1067 -4.81935 255 0 0
9.56019 -5.00757 -4.79585 255 0 0
9.54356 -4.94133 -4.78411 255 0 0
9.74853 -4.98898 -4.83697 255 0 0
9.70982 -4.94015 -4.82229 255 0 0
9.75185 -4.93246 -4.8311 255 0 0
9.80403 -4.9297 -4.84284 255 0 0
9.89328 -4.91594 -4.86193 255 0 0
10.0167 -4.9477 -4.89424 255 0 0
10.0793 -4.94892 -4.90892 255 0 0
10.2082 -4.98218 -4.9427 255 0 0
10.2658 -4.98023 -4.95591 255 0 0
10.3762 -4.97314 -4.98087 255 0 0
10.4714 -4.95784 -5.00143 255 0 0
10.4985 -4.94024 -5.00584 255 0 0
10.9313 -5.0178 -5.11597 255 0 0
11.1494 -5.08596 -5.1747 255 0 0
11.2182 -5.08526 -5.19086 255 0 0
11.2474 -5.03432 -5.19233 255 0 0
11.2438 -5.00073 -5.18792 255 0 0
11.2504 -4.97176 -5.18645 255 0 0
11.2414 -4.93596 -5.18058 255 0 0
11.2479 -4.90702 -5.17911 255 0 0
9.92421 -5.75068 -5.07337 255 0 0
9.56776 -5.46861 -4.95289 255 0 0
10.0013 -5.45202 -5.05215 255 0 0
10.0204 -5.40093 -5.05013 255 0 0
10.1025 -5.38352 -5.06731 255 0 0
10.2079 -5.37774 -5.09156 255 0 0
10.2961 -5.26923 -5.09913 255 0 0
11.0422 -5.42168 -5.29614 255 0 0
11.1312 -5.43269 -5.31888 255 0 0
11.1186 -5.39394 -5.3113 255 0 0
11.2027 -5.40196 -5.33252 255 0 0
11.2321 -5.36695 -5.33555 255 0 0
11.2511 -5.32697 -5.33555 255 0 0
11.2432 -5.29065 -5.32948 255 0 0
11.2301 -5.252 -5.32191 255 0 0
11.241 -5.20846 -5.31963 255 0 0
11.2426 -5.04819 -5.30221 255 0 0
11.2347 -4.99668 -5.29463 255 0 0
11.2406 -4.85635 -5.28099 255 0 0
10.1703 -5.89328 -5.25452 255 0 0
9.63482 -5.43145 -5.06235 255 0 0
10.2569 -5.71819 -5.2514 255 0 0
10.6041 -5.81327 -5.34827 255 0 0
10.5683 -5.7611 -5.33265 255 0 0
10.742 -5.72431 -5.37014 255 0 0
10.6991 -5.63648 -5.34827 255 0 0
10.8274 -5.67132 -5.38421 255 0 0
10.9126 -5.61741 -5.39827 255 0 0
10.9452 -5.50352 -5.39202 255 0 0
11.0549 -5.46052 -5.41389 255 0 0
11.1731 -5.1609 -5.40764 255 0 0
11.1744 -5.04942 -5.39514 255 0 0
11.1768 -5.00272 -5.39046 255 0 0
11.1759 -4.90722 -5.37952 255 0 0
10.1855 -5.9021 -5.36498 255 0 0
9.78356 -5.60738 -5.22336 255 0 0
9.56328 -5.39112 -5.13807 255 0 0
11.582 -6.27815 -4.26655 255 0 0
11.6186 -6.88051 -4.32314 255 0 0
11.5827 -6.15474 -4.25662 255 0 0
11.5606 -6.84616 -4.08224 255 0 0
11.7073 -6.97059 -3.65 255 0 0
11.6369 -6.96609 -3.98663 255 0 0
11.5925 -6.93954 -4.0939 255 0 0
11.5503 -6.84005 -4.19477 255 0 0
11.5465 -6.80092 -4.19099 255 0 0
11.5361 -6.61184 -4.17399 255 0 0
11.5901 -6.82658 -4.3142 255 0 0
11.6063 -6.79908 -4.3142 255 0 0
11.6001 -6.64853 -4.30031 255 0 0
11.5713 -6.5593 -4.28839 255 0 0
11.6027 -6.36074 -4.27648 255 0 0
11.5969 -6.25067 -4.26655 255 0 0
11.576 -6.20408 -4.2596 255 0 0
11.5637 -6.09199 -4.24868 255 0 0
10.0734 -5.86909 -5.22796 255 0 0
10.1507 -5.84982 -5.34888 255 0 0
