ply
format ascii 1.0
comment Created by Open3D
element vertex 256
property double x
property double y
property double z
property uchar red
property uchar green
property uchar blue
end_header
11.3508 -18.1225 -5.13227 255 0 0
12.7003 -18.8558 -4.75304 255 0 0
12.2459 -19.8644 -4.43308 255 0 0
12.4071 -19.6018 -4.61383 255 0 0
11.6785 -19.3525 -4.16697 255 0 0
12.2862 -19.9298 -3.8524 255 0 0
12.5139 -18.9647 -4.56007 255 0 0
11.4601 -20.9634 -4.29046 255 0 0
11.412 -20.9936 -4.49137 255 0 0
12.2707 -19.5913 -4.99454 255 0 0
12.1124 -19.6478 -4.01936 255 0 0
12.1147 -19.7563 -5.00207 255 0 0
11.8304 -19.2927 -4.35961 255 0 0
11.8856 -21.0255 -4.9248 255 0 0
11.4471 -20.1382 -4.80513 255 0 0
12.2013 -19.792 -4.61973 255 0 0
11.5006 -20.6866 -5.066 255 0 0
11.5373 -19.965 -4.98702 255 0 0
11.8255 -21.1527 -4.93465 255 0 0
11.756 -20.0134 -4.81076 255 0 0
11.0337 -18.8863 -5.01847 255 0 0
11.6694 -19.7585 -4.00762 255 0 0
12.5413 -19.7102 -4.82907 255 0 0
12.2712 -19.592 -4.7995 255 0 0
11.2159 -20.75 -5.05547 255 0 0
11.5243 -20.274 -4.04028 255 0 0
12.3488 -19.9254 -3.8547 255 0 0
11.3443 -20.6352 -4.85159 255 0 0
12.4221 -19.32 -4.39483 255 0 0
12.4679 -19.2905 -4.39483 255 0 0
12.2524 -19.6655 -4.80584 255 0 0
11.3619 -18.9291 -4.6735 255 0 0
11.4156 -20.6487 -4.26196 255 0 0
12.4691 -19.5968 -4.61711 255 0 0
12.3732 -20.1778 -3.87272 255 0 0
11.5992 -19.9627 -4.99078 255 0 0
12.5009 -19.2413 -4.3924 255 0 0
11.9197 -19.3352 -4.17759 255 0 0
11.5219 -20.6096 -4.26364 255 0 0
11.3204 -20.7079 -4.85793 255 0 0
12.1604 -19.8308 -4.62104 255 0 0
11.2269 -18.3084 -5.14584 255 0 0
11.4465 -19.8078 -4.19323 255 0 0
11.8713 -19.6719 -4.01017 255 0 0
12.5301 -18.7949 -4.73544 255 0 0
11.0996 -18.7938 -5.01207 255 0 0
11.5195 -18.886 -4.49255 255 0 0
12.3759 -19.5525 -4.99755 255 0 0
11.523 -20.8431 -4.08366 255 0 0
11.7187 -20.0587 -4.42215 255 0 0
11.4383 -20.0122 -4.40333 255 0 0
12.4972 -19.3359 -4.2072 255 0 0
11.7047 -18.3955 -5.00887 255 0 0
11.4567 -19.9345 -4.39726 255 0 0
11.6641 -19.9652 -4.60531 255 0 0
11.3645 -18.5328 -5.00006 255 0 0
12.6133 -18.9196 -4.56204 255 0 0
12.3076 -20.2861 -3.87733 255 0 0
11.3761 -20.5773 -4.64923 255 0 0
11.3364 -19.0913 -4.50172 255 0 0
11.4409 -21.1662 -4.30667 255 0 0
11.3105 -20.925 -4.88045 255 0 0
11.5825 -20.1534 -4.03364 255 0 0
11.0844 -18.87 -5.02007 255 0 0
11.4705 -20.2911 -4.03926 255 0 0
12.2341 -20.0576 -3.85886 255 0 0
12.6796 -18.7291 -4.92985 255 0 0
12.0475 -19.6467 -4.01629 255 0 0
12.2612 -19.576 -4.02089 255 0 0
11.6386 -19.3902 -4.16809 255 0 0
11.8372 -19.3038 -4.17088 255 0 0
11.8246 -19.7 -4.01017 255 0 0
12.3543 -19.6211 -5.00357 255 0 0
11.7437 -19.9925 -5.00357 255 0 0
11.4708 -19.8499 -4.77627 255 0 0
11.2214 -20.9975 -5.08406 255 0 0
11.4087 -20.7523 -4.27035 255 0 0
11.7572 -20.7983 -4.29046 255 0 0
11.1985 -20.6009 -5.03742 255 0 0
12.3486 -19.6121 -4.80654 255 0 0
12.6714 -18.2471 -5.0657 255 0 0
11.4273 -20.7861 -4.47316 255 0 0
11.8669 -20.8768 -4.3022 255 0 0
12.4185 -21.0269 -4.7515 255 0 0
12.351 -19.616 -4.02803 255 0 0
12.5293 -18.6973 -4.91556 255 0 0
11.2312 -19.6497 -5.12333 255 0 0
11.218 -18.6895 -5.00807 255 0 0
11.6536 -20.7296 -4.27985 255 0 0
11.2058 -21.2097 -5.10738 255 0 0
11.7261 -19.9626 -4.60858 255 0 0
12.1067 -19.6386 -4.98853 255 0 0
12.7828 -18.7854 -4.94339 255 0 0
12.0366 -19.1166 -4.35536 255 0 0
12.1734 -19.5904 -4.98778 255 0 0
11.784 -19.9527 -4.41608 255 0 0
11.2811 -19.7371 -4.9449 255 0 0
12.6644 -18.3296 -5.0745 255 0 0
12.3915 -18.5869 -4.89375 255 0 0
11.3982 -20.6172 -5.05171 255 0 0
12.3849 -20.8571 -4.93747 255 0 0
12.5716 -19.3502 -4.21223 255 0 0
11.8932 -17.9314 -5.15178 255 0 0
12.2601 -19.1678 -4.37236 255 0 0
11.3351 -20.8521 -4.87412 255 0 0
12.521 -19.1726 -4.38754 255 0 0
12.5342 -19.5963 -5.01335 255 0 0
11.3379 -18.788 -4.8426 255 0 0
11.6071 -20.647 -5.06826 255 0 0
11.9625 -20.7008 -3.89165 255 0 0
11.8789 -20.2226 -3.85563 255 0 0
11.8377 -20.0436 -3.84177 255 0 0
12.1871 -20.1953 -3.86625 255 0 0
11.4745 -19.3238 -4.34321 255 0 0
12.2104 -19.291 -4.18876 255 0 0
11.2873 -18.9064 -4.85238 255 0 0
11.5354 -20.9828 -4.09488 255 0 0
11.5554 -20.7852 -4.08059 255 0 0
11.5847 -20.7221 -4.07702 255 0 0
11.5318 -20.1757 -4.03313 255 0 0
11.5427 -19.9744 -4.01833 255 0 0
11.5725 -19.9167 -4.01527 255 0 0
11.5873 -19.8338 -4.00966 255 0 0
11.59 -19.7308 -4.002 255 0 0
11.7311 -19.7559 -4.01017 255 0 0
11.7689 -19.713 -4.00864 255 0 0
11.93 -19.6637 -4.01221 255 0 0
11.9766 -19.6353 -4.01221 255 0 0
12.1713 -19.6389 -4.0214 255 0 0
12.2301 -19.6298 -4.02344 255 0 0
12.385 -19.5669 -4.02599 255 0 0
12.4471 -19.5621 -4.02854 255 0 0
12.4965 -19.5375 -4.02905 255 0 0
11.9919 -20.3046 -5.05472 255 0 0
11.2782 -18.4904 -4.98886 255 0 0
11.4369 -18.454 -4.99606 255 0 0
12.5638 -18.6531 -4.91331 255 0 0
11.545 -19.2342 -4.33896 255 0 0
11.4515 -18.875 -4.6735 255 0 0
11.1861 -20.4622 -5.02087 255 0 0
11.4744 -21.1083 -4.30331 255 0 0
11.4333 -20.5656 -4.25582 255 0 0
11.8354 -20.7069 -4.28655 255 0 0
11.504 -20.0168 -4.21335 255 0 0
11.4992 -19.7906 -4.19435 255 0 0
11.4579 -19.6123 -4.17759 255 0 0
11.5073 -19.5901 -4.17815 255 0 0
11.4886 -19.4524 -4.16585 255 0 0
11.5168 -19.395 -4.1625 255 0 0
11.5866 -19.4077 -4.16697 255 0 0
11.7002 -19.2849 -4.1625 255 0 0
11.7914 -19.3318 -4.17088 255 0 0
11.987 -19.3415 -4.1815 255 0 0
12.0051 -19.2685 -4.17647 255 0 0
12.1033 -19.324 -4.18597 255 0 0
12.1522 -19.3002 -4.18653 255 0 0
12.2936 -19.321 -4.19547 255 0 0
12.3897 -19.3704 -4.20441 255 0 0
12.4419 -19.3508 -4.20553 255 0 0
11.4114 -18.5107 -5.00086 255 0 0
12.4456 -18.2897 -5.05289 255 0 0
12.0345 -19.2142 -4.36386 255 0 0
11.2991 -18.9261 -4.66928 255 0 0
11.4591 -21.1999 -4.51263 255 0 0
11.4115 -20.8745 -4.48044 255 0 0
11.3864 -20.5959 -4.45373 255 0 0
11.4352 -20.5688 -4.45373 255 0 0
11.8408 -21.0626 -4.51931 255 0 0
11.9394 -21.1207 -4.52963 255 0 0
11.4544 -19.8215 -4.38693 255 0 0
11.5453 -19.8699 -4.39604 255 0 0
11.775 -20.0459 -4.42397 255 0 0
11.4785 -19.2266 -4.33471 255 0 0
11.6361 -19.1793 -4.33896 255 0 0
11.7301 -19.2312 -4.34868 255 0 0
12.2316 -19.7363 -4.42094 255 0 0
12.1037 -19.1224 -4.35961 255 0 0
12.1646 -19.1182 -4.36265 255 0 0
12.576 -19.1575 -4.38936 255 0 0
12.5989 -19.0936 -4.38511 255 0 0
12.4848 -19.0186 -4.56335 255 0 0
11.3741 -21.0426 -4.69512 255 0 0
11.3545 -20.8878 -4.67873 255 0 0
11.3203 -20.7076 -4.65906 255 0 0
11.3553 -20.6552 -4.65579 255 0 0
11.2923 -19.7567 -4.564 255 0 0
11.5402 -19.9699 -4.59875 255 0 0
11.605 -19.9727 -4.60268 255 0 0
11.2981 -18.9245 -4.48337 255 0 0
11.4119 -19.0124 -4.49845 255 0 0
12.4911 -20.699 -4.72397 255 0 0
12.2543 -19.7729 -4.62104 255 0 0
12.1966 -19.5759 -4.59875 255 0 0
12.1287 -19.3645 -4.57449 255 0 0
12.28 -19.5031 -4.59678 255 0 0
12.4238 -19.0238 -4.56007 255 0 0
12.5524 -18.9253 -4.55876 255 0 0
12.2535 -20.6356 -5.10888 255 0 0
11.689 -18.4673 -5.01607 255 0 0
12.5434 -18.9117 -4.74812 255 0 0
11.349 -21.1156 -4.90298 255 0 0
11.396 -20.6133 -4.8523 255 0 0
11.7527 -21.14 -4.92902 255 0 0
11.8557 -21.0891 -4.92973 255 0 0
11.3629 -19.7712 -4.76149 255 0 0
11.6025 -19.9684 -4.79669 255 0 0
11.6821 -19.996 -4.80443 255 0 0
12.3946 -20.9865 -4.95155 255 0 0
11.3887 -18.8723 -4.66928 255 0 0
12.1379 -19.8999 -4.82273 255 0 0
12.2064 -19.9057 -4.82766 255 0 0
12.2474 -19.8668 -4.82625 255 0 0
12.2394 -19.7488 -4.81358 255 0 0
12.4541 -19.676 -4.81992 255 0 0
12.6135 -18.8231 -4.74389 255 0 0
11.207 -21.0907 -5.09384 255 0 0
11.1749 -20.7918 -5.05773 255 0 0
11.2541 -20.4712 -5.02614 255 0 0
11.5298 -20.6238 -5.06074 255 0 0
11.6332 -20.579 -5.06224 255 0 0
11.4321 -19.8916 -4.97198 255 0 0
11.6582 -19.9552 -4.99379 255 0 0
11.2783 -18.7899 -4.83884 255 0 0
11.3101 -18.6419 -4.82455 255 0 0
12.0709 -19.7899 -5.00282 255 0 0
12.4877 -19.626 -5.01335 255 0 0
12.5609 -18.3655 -5.0705 255 0 0
11.2048 -19.9314 -5.15535 255 0 0
11.1721 -19.7634 -5.13294 255 0 0
11.1702 -19.6511 -5.11933 255 0 0
11.3587 -19.7639 -5.14574 255 0 0
11.1375 -19.1681 -5.0593 255 0 0
11.1441 -18.7674 -5.01207 255 0 0
11.3848 -19.0696 -5.0649 255 0 0
11.2383 -18.6231 -5.00166 255 0 0
11.2734 -18.5815 -4.99926 255 0 0
11.5297 -18.5056 -5.00887 255 0 0
11.5643 -18.4635 -5.00647 255 0 0
11.6297 -18.4704 -5.01207 255 0 0
11.7764 -18.4116 -5.01607 255 0 0
12.3539 -18.4356 -5.0625 255 0 0
12.3749 -18.3726 -5.05689 255 0 0
12.4249 -18.3528 -5.05849 255 0 0
12.657 -18.4122 -5.08331 255 0 0
11.2196 -18.3943 -5.15603 255 0 0
11.2338 -18.2225 -5.13566 255 0 0
11.2434 -18.1417 -5.12633 255 0 0
11.3231 -18.174 -5.13651 255 0 0
11.4246 -18.1446 -5.14075 255 0 0
11.4614 -18.1077 -5.13906 255 0 0
11.5198 -18.1049 -5.1433 255 0 0
11.5815 -18.1068 -5.14839 255 0 0
12.5671 -20.7138 -4.93395 255 0 0
12.4281 -18.8347 -4.73263 255 0 0
12.2577 -20.5317 -5.0976 255 0 0
12.3101 -18.4649 -5.0625 255 0 0
