ply
format ascii 1.0
comment Created by Open3D
element vertex 54
property double x
property double y
property double z
property uchar red
property uchar green
property uchar blue
end_header
40.5159 -32.7164 -3.94854 255 0 0
40.7568 -31.4983 -3.07041 255 0 0
40.4869 -31.1367 -4.33633 255 0 0
40.5442 -30.7242 -4.32696 255 0 0
40.7052 -31.6128 -3.07102 255 0 0
40.6727 -30.3686 -4.32188 255 0 0
40.5271 -30.8628 -4.33018 255 0 0
40.7359 -32.8941 -3.08805 255 0 0
40.5204 -32.5616 -3.94504 255 0 0
40.45 -32.1906 -3.93431 255 0 0
40.5188 -31.0086 -4.33392 255 0 0
40.4464 -32.3447 -4.36897 255 0 0
40.5102 -31.3077 -4.34195 255 0 0
40.6566 -33.1498 -3.09012 255 0 0
40.6515 -31.8814 -3.07357 255 0 0
40.4832 -32.3741 -3.93957 255 0 0
40.4651 -32.8342 -4.38369 255 0 0
40.7092 -32.0827 -3.0771 255 0 0
41.0478 -30.1964 -4.33098 255 0 0
40.4706 -31.7394 -4.35265 255 0 0
40.6416 -31.1026 -3.48911 255 0 0
40.6941 -33.0201 -3.08902 255 0 0
40.7123 -32.3994 -3.08124 255 0 0
40.6716 -31.7417 -3.07211 255 0 0
41.0356 -31.5586 -3.07576 255 0 0
41.1614 -31.5004 -3.0771 255 0 0
41.5248 -31.6226 -3.08465 255 0 0
40.477 -33.3241 -3.52555 255 0 0
40.5378 -33.2132 -3.52487 255 0 0
40.5529 -33.0652 -3.52249 255 0 0
40.6975 -31.4524 -3.4966 255 0 0
40.6698 -31.2773 -3.49285 255 0 0
40.4757 -32.0546 -3.9319 255 0 0
40.5612 -31.1938 -3.91461 255 0 0
40.5793 -31.0549 -3.91198 255 0 0
40.5737 -30.8983 -3.90826 255 0 0
40.4673 -31.5822 -4.3481 255 0 0
40.4572 -32.0399 -4.36068 255 0 0
40.4319 -31.8643 -4.35479 255 0 0
40.4866 -31.4431 -4.34489 255 0 0
40.5749 -30.5963 -4.32456 255 0 0
40.6052 -30.4685 -4.32215 255 0 0
40.7211 -30.2546 -4.32054 255 0 0
40.7927 -30.158 -4.32054 255 0 0
41.1335 -30.1093 -4.33178 255 0 0
41.3135 -30.0909 -4.33793 255 0 0
41.4842 -30.065 -4.34355 255 0 0
40.42 -32.639 -4.37646 255 0 0
40.5245 -33.3633 -3.96409 255 0 0
40.4949 -33.1781 -3.95883 255 0 0
40.5326 -33.0487 -3.95686 255 0 0
40.5472 -32.9009 -3.9538 255 0 0
40.4425 -32.4991 -4.37325 255 0 0
40.4635 -32.2013 -4.36549 255 0 0
