ply
format ascii 1.0
comment Created by Open3D
element vertex 705
property double x
property double y
property double z
property uchar red
property uchar green
property uchar blue
end_header
-16.2984 7.43472 -3.41735 255 0 0
-11.8102 7.77287 -5.413 255 0 0
-14.1354 8.50733 -4.8384 255 0 0
-13.9731 7.36129 -3.91256 255 0 0
-13.6434 8.88696 -4.52344 255 0 0
-13.94 8.61653 -4.67946 255 0 0
-11.7986 7.76528 -5.16218 255 0 0
-13.8444 7.20986 -4.68551 255 0 0
-12.1731 7.60437 -4.96367 255 0 0
-14.2227 7.40685 -3.00086 255 0 0
-11.7294 7.9206 -5.16857 255 0 0
-13.3783 7.75219 -3.61214 255 0 0
-11.7809 7.71366 -5.39926 255 0 0
-12.7955 7.05414 -5.01696 255 0 0
-12.6963 7.11767 -4.87951 255 0 0
-13.8819 7.91264 -4.74905 255 0 0
-15.4547 7.18311 -5.37155 255 0 0
-11.7625 7.62213 -5.13787 255 0 0
-12.7649 9.02231 -4.95765 255 0 0
-15.3256 9.17425 -4.3138 255 0 0
-12.7946 7.21271 -4.65279 255 0 0
-13.9444 8.61919 -4.96085 255 0 0
-13.2491 7.26333 -4.21321 255 0 0
-13.8848 8.71946 -4.4016 255 0 0
-15.0087 7.10605 -5.28519 255 0 0
-15.6634 7.41604 -3.37117 255 0 0
-11.7632 8.10688 -5.32324 255 0 0
-13.3284 7.34792 -3.97154 255 0 0
-13.3885 7.97158 -3.75566 255 0 0
-14.0409 8.4959 -4.68324 255 0 0
-13.6693 7.32592 -3.61699 255 0 0
-12.8837 7.26296 -4.54453 255 0 0
-13.9201 7.24925 -4.29892 255 0 0
-13.9651 8.95571 -4.14906 255 0 0
-13.5028 7.27798 -4.37727 255 0 0
-15.4053 9.02461 -5.07171 255 0 0
-15.3936 7.15474 -5.06596 255 0 0
-11.6745 7.96434 -5.53607 255 0 0
-13.8133 7.11059 -5.47814 255 0 0
-14.3613 7.30674 -3.95127 255 0 0
-14.1813 7.17285 -4.73416 255 0 0
-13.0639 9.00332 -4.45887 255 0 0
-14.9097 7.1025 -5.41006 255 0 0
-12.6328 9.1783 -5.08917 255 0 0
-11.9061 8.58579 -5.28626 255 0 0
-12.4911 8.82878 -5.0261 255 0 0
-12.1175 7.37139 -5.29936 255 0 0
-11.7454 8.30172 -5.34579 255 0 0
-11.6507 7.82725 -5.51191 255 0 0
-13.6544 8.89413 -4.66434 255 0 0
-16.2947 7.24717 -5.22103 255 0 0
-16.0395 7.22496 -5.17732 255 0 0
-11.7372 7.48775 -5.36079 255 0 0
-14.1026 7.34432 -3.52437 255 0 0
-12.8928 8.84037 -4.82347 255 0 0
-12.9364 7.05203 -4.66112 255 0 0
-13.9712 7.36031 -3.77927 255 0 0
-15.5973 9.13709 -4.34163 255 0 0
-14.1109 8.44712 -4.82947 255 0 0
-14.8114 7.18539 -4.97334 255 0 0
-12.0382 7.20633 -5.01881 255 0 0
-11.9042 7.43639 -5.02005 255 0 0
-13.9148 9.06375 -4.29167 255 0 0
-13.8535 8.93053 -4.41433 255 0 0
-15.3391 9.03475 -5.06277 255 0 0
-11.6604 7.91431 -5.52613 255 0 0
-13.1697 8.89315 -4.5982 255 0 0
-12.5218 7.29559 -4.86701 255 0 0
-12.4768 8.27535 -4.9619 255 0 0
-13.877 7.22681 -4.42479 255 0 0
-11.7094 8.15195 -5.19416 255 0 0
-14.1844 7.21673 -4.33117 255 0 0
-14.0338 8.58278 -4.54944 255 0 0
-12.8522 7.08542 -4.90337 255 0 0
-11.8057 7.57086 -5.38552 255 0 0
-11.7228 8.20262 -5.20311 255 0 0
-12.7939 7.2724 -4.658 255 0 0
-12.9772 7.31566 -4.4357 255 0 0
-12.5264 8.89829 -5.03974 255 0 0
-13.0917 7.25799 -4.31987 255 0 0
-15.6748 7.15028 -5.11175 255 0 0
-16.7131 7.48076 -3.44876 255 0 0
-13.6391 7.06188 -5.43849 255 0 0
-14.0482 8.63741 -4.97854 255 0 0
-13.4476 8.7141 -3.80549 255 0 0
-13.3816 7.83909 -3.61699 255 0 0
-13.8854 7.27311 -4.42928 255 0 0
-12.604 8.73049 -4.90105 255 0 0
-12.8506 8.90132 -4.68948 255 0 0
-13.6992 7.17557 -4.92608 255 0 0
-11.713 8.27881 -5.46247 255 0 0
-13.6736 7.45393 -3.23216 255 0 0
-11.8972 7.33435 -5.37384 255 0 0
-12.5794 6.97397 -5.47208 255 0 0
-13.7576 8.96134 -4.405 255 0 0
-12.144 7.74724 -4.97433 255 0 0
-12.6386 8.97803 -3.87736 255 0 0
-13.0853 8.97232 -4.45887 255 0 0
-12.5214 8.80575 -5.02837 255 0 0
-13.3857 8.18641 -3.50425 255 0 0
-12.3841 7.67512 -4.88235 255 0 0
-12.443 7.81406 -4.90678 255 0 0
-14.1453 8.92991 -4.30848 255 0 0
-14.1826 7.34325 -3.39727 255 0 0
-14.1281 7.18806 -4.86302 255 0 0
-11.8164 7.61733 -5.39377 255 0 0
-11.772 8.03087 -5.19032 255 0 0
-15.0055 8.55309 -4.67678 255 0 0
-12.1034 8.7717 -5.47713 255 0 0
-15.8041 7.39113 -3.38041 255 0 0
-16.5087 7.29552 -4.18568 255 0 0
-11.7259 8.04026 -5.30732 255 0 0
-15.4184 9.08143 -4.46937 255 0 0
-12.2185 8.46347 -5.06905 255 0 0
-14.05 7.23243 -4.44901 255 0 0
-12.877 6.98013 -4.89769 255 0 0
-13.9731 9.00767 -4.15357 255 0 0
-12.5088 8.06373 -4.94428 255 0 0
-14.9243 8.57728 -4.96151 255 0 0
-13.0401 9.40348 -4.35493 255 0 0
-15.5143 7.21083 -4.50598 255 0 0
-12.9545 6.98241 -4.658 255 0 0
-11.7638 7.90325 -5.29671 255 0 0
-12.7904 9.13156 -5.10905 255 0 0
-12.6538 9.12491 -5.08633 255 0 0
-13.6191 7.34064 -3.74321 255 0 0
-13.4095 8.02721 -3.76091 255 0 0
-12.9613 8.84221 -4.69941 255 0 0
-12.7336 7.05944 -5.0063 255 0 0
-13.8712 8.75684 -4.54227 255 0 0
-11.7425 8.27883 -5.21654 255 0 0
-13.452 8.58172 -3.93227 255 0 0
-14.1477 7.28269 -3.52548 255 0 0
-12.9379 7.0131 -4.658 255 0 0
-13.7322 8.80633 -4.80663 255 0 0
-11.7078 7.94648 -5.41575 255 0 0
-11.7236 7.67614 -5.50623 255 0 0
-12.0134 8.75 -5.45723 255 0 0
-13.7508 9.00346 -4.40754 255 0 0
-11.8725 7.18385 -5.47212 255 0 0
-14.1295 8.50379 -4.97854 255 0 0
-13.1717 7.22086 -4.32795 255 0 0
-13.4354 7.82786 -3.62124 255 0 0
-13.9975 7.28958 -3.91115 255 0 0
-12.0463 8.21799 -5.01104 255 0 0
-13.4047 8.64121 -3.79697 255 0 0
-17.4132 7.44975 -3.65702 255 0 0
-17.1658 9.09535 -4.35251 255 0 0
-13.1775 8.89845 -4.46425 255 0 0
-17.3593 7.47542 -3.4954 255 0 0
-13.3414 7.39639 -3.97605 255 0 0
-13.7245 8.73265 -4.79869 255 0 0
-14.2252 7.40815 -3.13492 255 0 0
-12.0685 8.79017 -5.34255 255 0 0
-14.2994 7.27525 -4.21403 255 0 0
-11.8031 7.64843 -5.39514 255 0 0
-12.2044 7.11064 -5.16218 255 0 0
-13.4954 8.97403 -4.09942 255 0 0
-13.4077 8.7788 -3.94072 255 0 0
-11.7672 7.54621 -5.4977 255 0 0
-11.7608 7.66072 -5.51191 255 0 0
-11.8668 8.51472 -5.39753 255 0 0
-13.4819 9.01122 -3.82712 255 0 0
-11.7339 7.72265 -5.51476 255 0 0
-12.8717 8.87083 -4.68948 255 0 0
-12.7851 7.08802 -4.89201 255 0 0
-11.734 7.21456 -5.44654 255 0 0
-11.8323 7.21714 -5.46785 255 0 0
-12.8149 8.83168 -4.81098 255 0 0
-12.8273 8.97546 -4.82763 255 0 0
-12.606 8.95485 -4.26497 255 0 0
-11.7021 7.42635 -5.34568 255 0 0
-14.104 7.34504 -3.79172 255 0 0
-13.2928 7.32829 -4.22339 255 0 0
-15.5159 7.21156 -4.65167 255 0 0
-14.0801 8.56527 -4.83542 255 0 0
-12.0624 7.33787 -5.1609 255 0 0
-13.7721 8.33325 -3.13906 255 0 0
-14.2946 7.27281 -4.0776 255 0 0
-13.6733 8.76855 -4.93379 255 0 0
-13.3745 7.70768 -3.73928 255 0 0
-14.0752 7.20321 -4.72026 255 0 0
-13.6109 7.33621 -3.61214 255 0 0
-12.1702 7.12945 -5.03483 255 0 0
-11.8504 7.44187 -5.13276 255 0 0
-12.5112 7.05298 -5.09025 255 0 0
-12.9709 9.26043 -4.60576 255 0 0
-13.8063 8.80774 -4.67757 255 0 0
-13.4293 7.32077 -3.98132 255 0 0
-12.5829 7.05409 -5.1038 255 0 0
-15.2922 9.10509 -4.60697 255 0 0
-14.1051 7.21853 -4.59065 255 0 0
-15.3142 9.06903 -4.90999 255 0 0
-17.1545 9.1415 -4.35392 255 0 0
-15.2382 9.02405 -5.04689 255 0 0
-14.0244 8.71467 -4.41857 255 0 0
-14.0843 8.52213 -4.55123 255 0 0
-13.7389 8.85665 -4.5333 255 0 0
-14.1612 7.12059 -5.41048 255 0 0
-12.1049 7.01433 -5.50054 255 0 0
-14.1962 7.3503 -3.66679 255 0 0
-11.9572 7.31279 -5.13787 255 0 0
-11.9529 7.19379 -5.36766 255 0 0
-12.6256 9.24183 -5.09542 255 0 0
-13.4633 7.92991 -3.62914 255 0 0
-16.0791 7.38081 -3.3998 255 0 0
-13.8254 7.36744 -3.63339 255 0 0
-11.8904 8.61735 -5.28754 255 0 0
-11.9477 7.11373 -5.35667 255 0 0
-12.1765 7.56641 -4.96012 255 0 0
-13.6128 7.42078 -3.48637 255 0 0
-12.7395 7.10228 -5.13829 255 0 0
-12.4334 7.52322 -4.87496 255 0 0
-12.6397 8.97877 -4.0084 255 0 0
-13.9525 7.30826 -3.77468 255 0 0
-12.6803 9.12121 -4.95547 255 0 0
-13.8034 8.89827 -4.82549 255 0 0
-13.5203 8.05008 -3.90552 255 0 0
-11.7117 7.4325 -5.4707 255 0 0
-16.563 9.28543 -4.45972 255 0 0
-12.6087 8.60171 -4.88798 255 0 0
-13.9232 7.08383 -5.36122 255 0 0
-13.4157 8.96694 -3.95409 255 0 0
-15.3755 9.05616 -4.91755 255 0 0
-12.7194 7.17032 -4.8886 255 0 0
-13.3467 8.96669 -4.08287 255 0 0
-13.5821 8.21826 -3.92241 255 0 0
-14.8025 7.13778 -5.2511 255 0 0
-14.1427 7.23778 -4.19241 255 0 0
-12.0677 7.12719 -5.26022 255 0 0
-11.995 7.375 -5.27548 255 0 0
-13.8438 8.87789 -4.68891 255 0 0
-14.2543 7.29489 -3.80418 255 0 0
-13.9711 7.10819 -5.1011 255 0 0
-14.1006 8.48642 -4.69079 255 0 0
-12.0277 7.47394 -5.29405 255 0 0
-13.3547 8.16745 -3.63217 255 0 0
-13.2577 8.9526 -4.20762 255 0 0
-13.9915 7.41345 -3.91749 255 0 0
-13.313 8.49306 -3.77927 255 0 0
-12.404 7.62651 -4.88065 255 0 0
-13.2955 7.1256 -5.50897 255 0 0
-13.4177 8.87656 -3.8127 255 0 0
-12.8717 7.01676 -5.1543 255 0 0
-11.7782 7.87249 -5.41987 255 0 0
-13.4127 8.91901 -3.95057 255 0 0
-13.4014 8.82016 -3.94283 255 0 0
-14.9855 8.49466 -4.6696 255 0 0
-12.0319 7.35844 -5.28079 255 0 0
-13.3831 9.0373 -4.09189 255 0 0
-11.9761 8.63623 -5.43468 255 0 0
-14.1253 7.37744 -3.39421 255 0 0
-13.8855 7.23124 -4.82763 255 0 0
-12.6754 9.09489 -5.08633 255 0 0
-12.8832 8.83375 -4.6875 255 0 0
-13.0966 7.22016 -4.44515 255 0 0
-15.8308 7.17614 -5.43859 255 0 0
-12.4008 7.54372 -4.87156 255 0 0
-13.9182 7.08128 -5.49605 255 0 0
-14.1788 7.21389 -4.60104 255 0 0
-11.7381 7.82557 -5.15834 255 0 0
-13.9851 7.36764 -3.51543 255 0 0
-15.5949 7.2483 -4.81173 255 0 0
-17.4291 7.50549 -3.34281 255 0 0
-15.3145 9.06925 -4.75838 255 0 0
-13.3914 7.75979 -3.74386 255 0 0
-13.3247 7.46996 -3.59271 255 0 0
-11.9399 7.34112 -5.13787 255 0 0
-12.6012 7.14312 -4.99091 255 0 0
-15.8024 7.43604 -3.38179 255 0 0
-16.0704 7.46927 -3.40211 255 0 0
-16.0615 7.41891 -3.3998 255 0 0
-13.8989 7.3222 -4.43466 255 0 0
-12.0758 7.07414 -5.25558 255 0 0
-13.4394 8.7088 -3.93931 255 0 0
-17.1789 9.20686 -4.36025 255 0 0
-12.102 7.2056 -5.15322 255 0 0
-13.3944 8.99872 -3.95409 255 0 0
-13.6925 7.50638 -3.36614 255 0 0
-13.7102 7.47389 -3.36614 255 0 0
-13.9958 7.37326 -3.384 255 0 0
-14.3626 7.35032 -3.41156 255 0 0
-15.6753 7.37626 -3.51566 255 0 0
-16.6446 7.40278 -3.59374 255 0 0
-14.0499 8.5241 -4.96813 255 0 0
-13.4351 7.63688 -3.74124 255 0 0
-11.6936 7.97742 -5.41712 255 0 0
-11.8165 7.11174 -5.4508 255 0 0
-13.4266 7.40205 -3.72747 255 0 0
-11.8198 7.50104 -5.13404 255 0 0
-16.5464 9.22463 -4.29408 255 0 0
-12.48 8.17138 -4.9511 255 0 0
-15.8711 7.2398 -5.00122 255 0 0
-13.7909 7.182 -5.0761 255 0 0
-13.4028 7.8515 -3.48916 255 0 0
-13.8112 7.35987 -3.50034 255 0 0
-13.7462 7.28344 -3.4914 255 0 0
-15.6333 7.31126 -3.65456 255 0 0
-16.6281 7.34826 -3.74285 255 0 0
-17.4375 7.46012 -3.81829 255 0 0
-14.1268 8.68574 -4.57007 255 0 0
-15.5366 9.10151 -4.63752 255 0 0
-14.1244 8.59223 -4.70308 255 0 0
-13.0989 8.89067 -4.45349 255 0 0
-11.7245 7.87683 -5.16218 255 0 0
-12.3731 7.56711 -4.86928 255 0 0
-15.3859 9.06228 -4.76735 255 0 0
-12.4318 8.182 -4.94428 255 0 0
-17.1301 9.12849 -4.18704 255 0 0
-13.5473 9.05495 -3.69897 255 0 0
-13.3591 8.12668 -3.63035 255 0 0
-13.3783 8.09499 -3.63035 255 0 0
-13.4374 8.08727 -3.63521 255 0 0
-13.4286 8.01702 -3.63066 255 0 0
-13.4118 7.72917 -3.61396 255 0 0
-13.4685 7.67702 -3.61639 255 0 0
-13.4287 7.57017 -3.60728 255 0 0
-13.4899 7.52058 -3.61032 255 0 0
-13.3294 7.38974 -3.58906 255 0 0
-13.4795 7.43122 -3.60485 255 0 0
-13.4091 7.26855 -3.59028 255 0 0
-13.922 7.33437 -3.64068 255 0 0
-14.0012 7.33377 -3.64796 255 0 0
-14.1167 7.35166 -3.6595 255 0 0
-14.3242 7.33066 -3.67772 255 0 0
-15.6783 7.33232 -3.80462 255 0 0
-12.3017 7.08941 -4.93171 255 0 0
-12.0207 7.11866 -5.12764 255 0 0
-12.3816 7.85759 -4.9011 255 0 0
-11.8418 7.35845 -5.12124 255 0 0
-12.6747 9.27775 -4.837 255 0 0
-12.6492 9.21315 -4.96092 255 0 0
-13.8892 8.67641 -4.67757 255 0 0
-12.8741 7.01809 -5.02761 255 0 0
-13.0713 7.16584 -4.82049 255 0 0
-12.5747 8.93261 -4.91846 255 0 0
-11.791 8.16735 -5.46247 255 0 0
-15.4368 9.04304 -4.92511 255 0 0
-12.6248 9.01335 -3.7478 255 0 0
-13.4509 9.03667 -3.82581 255 0 0
-13.4015 8.91157 -3.81336 255 0 0
-13.3658 8.79674 -3.80287 255 0 0
-13.3282 8.72678 -3.795 255 0 0
-13.3782 8.7142 -3.79893 255 0 0
-13.2929 8.5246 -3.77927 255 0 0
-13.3172 7.88644 -3.74386 255 0 0
-13.4111 7.89914 -3.7537 255 0 0
-13.3495 7.82026 -3.74321 255 0 0
-13.3378 7.77101 -3.73928 255 0 0
-13.4584 7.71356 -3.7478 255 0 0
-13.4673 7.59192 -3.7419 255 0 0
-13.4091 7.51729 -3.73206 255 0 0
-13.3913 7.46564 -3.72747 255 0 0
-13.5709 7.35627 -3.73928 255 0 0
-13.7082 7.34681 -3.75239 255 0 0
-13.8643 7.38817 -3.77009 255 0 0
-13.9846 7.40976 -3.7832 255 0 0
-14.1214 7.31157 -3.79172 255 0 0
-13.5002 7.23533 -3.85484 255 0 0
-13.0355 7.28754 -4.31449 255 0 0
-13.9051 8.64055 -4.81656 255 0 0
-11.7918 7.44413 -5.48917 255 0 0
-16.174 7.23944 -5.50564 255 0 0
-13.4393 7.32618 -4.24206 255 0 0
-12.6823 9.3296 -5.11473 255 0 0
-12.2796 6.96083 -5.53181 255 0 0
-11.7487 7.77239 -5.5247 255 0 0
-13.2469 7.05916 -5.36045 255 0 0
-13.4435 8.8936 -3.95198 255 0 0
-13.3993 8.72795 -3.93649 255 0 0
-13.4991 8.70211 -3.94494 255 0 0
-13.4855 8.64811 -3.94001 255 0 0
-13.4625 8.54358 -3.93086 255 0 0
-13.4621 8.10211 -3.9027 255 0 0
-13.5062 8.0851 -3.90622 255 0 0
-13.5944 8.05058 -3.91326 255 0 0
-15.5167 9.13935 -4.18075 255 0 0
-15.428 9.0379 -4.16527 255 0 0
-13.6838 7.88595 -3.91256 255 0 0
-16.4282 9.20983 -4.28071 255 0 0
-13.3626 7.3668 -3.8478 255 0 0
-13.3953 7.34348 -3.84991 255 0 0
-13.4229 7.31727 -3.85132 255 0 0
-13.522 7.32974 -3.86258 255 0 0
-13.4933 7.27284 -3.85624 255 0 0
-13.9596 7.31195 -3.90834 255 0 0
-14.187 7.30293 -3.93227 255 0 0
-13.6203 7.09313 -5.17088 255 0 0
-14.9238 7.1527 -5.41717 255 0 0
-12.0895 8.20551 -5.01696 255 0 0
-11.7849 7.67639 -5.39514 255 0 0
-13.3341 8.91243 -4.0776 255 0 0
-12.6043 8.95369 -4.3961 255 0 0
-12.3918 8.32516 -4.95337 255 0 0
-14.0339 7.39331 -4.59348 255 0 0
-11.7364 7.64483 -5.25823 255 0 0
-13.9136 9.11002 -4.15433 255 0 0
-13.9059 9.05799 -4.14981 255 0 0
-13.9274 9.02499 -4.14981 255 0 0
-14.0989 8.9944 -4.16636 255 0 0
-15.3237 9.22254 -4.3168 255 0 0
-15.3523 9.14086 -4.31455 255 0 0
-15.3839 9.11035 -4.31605 255 0 0
-15.4956 9.12689 -4.32959 255 0 0
-15.5939 9.08547 -4.33787 255 0 0
-16.5191 9.20937 -4.44995 255 0 0
-13.4783 7.28536 -3.9847 255 0 0
-17.2391 9.1866 -4.53043 255 0 0
-14.1075 7.43211 -4.06557 255 0 0
-13.9605 7.31243 -4.0415 255 0 0
-14.0138 7.29808 -4.04676 255 0 0
-14.0999 7.25812 -4.05428 255 0 0
-15.6921 7.29347 -4.24158 255 0 0
-14.0546 7.19266 -4.85157 255 0 0
-12.0284 7.27815 -5.02497 255 0 0
-13.6207 8.82627 -4.51536 255 0 0
-12.1708 7.01397 -5.51476 255 0 0
-11.8987 7.43294 -5.26354 255 0 0
-13.7319 7.27587 -4.80682 255 0 0
-12.8751 7.05827 -5.15922 255 0 0
-12.0722 7.14916 -5.01881 255 0 0
-12.661 9.03915 -4.14679 255 0 0
-13.2508 8.99378 -4.21002 255 0 0
-13.2789 8.92114 -4.20762 255 0 0
-13.9216 9.02127 -4.28927 255 0 0
-14.0131 8.98647 -4.29727 255 0 0
-14.0539 8.96569 -4.30047 255 0 0
-14.1241 8.96343 -4.30848 255 0 0
-15.3195 9.26958 -4.47097 255 0 0
-15.2887 9.15214 -4.45896 255 0 0
-15.3502 9.1396 -4.46537 255 0 0
-15.5199 9.09175 -4.48218 255 0 0
-16.403 9.19569 -4.59504 255 0 0
-13.1823 7.34914 -4.08275 255 0 0
-13.2699 7.27471 -4.08836 255 0 0
-13.3635 7.28487 -4.10036 255 0 0
-13.5715 7.31499 -4.12758 255 0 0
-13.9614 7.3975 -4.18041 255 0 0
-13.9777 7.27925 -4.17481 255 0 0
-14.031 7.26476 -4.18041 255 0 0
-15.6168 7.25848 -4.37652 255 0 0
-12.0578 7.4531 -4.92697 255 0 0
-12.1268 7.27888 -5.29007 255 0 0
-13.4646 7.25739 -4.50089 255 0 0
-12.8551 9.08607 -4.84325 255 0 0
-13.1441 7.20575 -4.45082 255 0 0
-12.2868 7.11973 -5.30334 255 0 0
-15.2408 9.12347 -4.60188 255 0 0
-13.0953 9.39618 -4.36087 255 0 0
-13.1516 8.97207 -4.33202 255 0 0
-13.1585 8.9311 -4.32947 255 0 0
-13.17 8.89339 -4.32777 255 0 0
-13.91 9.01376 -4.42791 255 0 0
-13.7966 8.84762 -4.40075 255 0 0
-13.8224 8.818 -4.4016 255 0 0
-13.8757 8.78271 -4.40542 255 0 0
-13.9545 8.71721 -4.41009 255 0 0
-14.1601 8.66004 -4.4313 255 0 0
-14.1806 8.62644 -4.4313 255 0 0
-14.1267 8.54781 -4.41857 255 0 0
-15.0503 9.05801 -4.57302 255 0 0
-15.3437 9.08652 -4.61206 255 0 0
-15.4251 9.0854 -4.62224 255 0 0
-13.106 7.30661 -4.19793 255 0 0
-13.5096 7.28161 -4.248 255 0 0
-13.9676 7.35838 -4.3125 255 0 0
-16.5333 7.30635 -4.6477 255 0 0
-12.132 7.06845 -5.26619 255 0 0
-12.9465 9.19673 -4.73217 255 0 0
-11.8085 8.38837 -5.24277 255 0 0
-12.8521 7.02589 -4.89769 255 0 0
-11.7164 7.83117 -5.52613 255 0 0
-11.6606 7.8741 -5.39651 255 0 0
-14.9902 8.59152 -4.67767 255 0 0
-12.8639 7.1716 -4.66008 255 0 0
-12.057 8.82562 -5.4758 255 0 0
-13.0472 9.40863 -4.49295 255 0 0
-12.966 9.30346 -4.47322 255 0 0
-12.9679 8.84671 -4.43286 255 0 0
-13.2274 8.88654 -4.46963 255 0 0
-13.661 8.94464 -4.53061 255 0 0
-13.677 8.77095 -4.51805 255 0 0
-13.7905 8.79763 -4.53509 255 0 0
-13.8113 8.7649 -4.53509 255 0 0
-13.9409 8.7547 -4.55123 255 0 0
-13.8978 8.68177 -4.53958 255 0 0
-13.9822 8.6885 -4.55123 255 0 0
-13.9733 8.63706 -4.54585 255 0 0
-14.0541 8.54948 -4.54944 255 0 0
-15.2267 9.11502 -4.75031 255 0 0
-15.2532 9.08185 -4.75121 255 0 0
-15.4722 9.06379 -4.77901 255 0 0
-13.0785 7.21016 -4.31449 255 0 0
-14.0321 7.64934 -4.4768 255 0 0
-14.1678 7.50684 -4.48488 255 0 0
-14.2337 7.24181 -4.47501 255 0 0
-16.4755 7.28083 -4.79156 255 0 0
-12.0821 7.74815 -4.96367 255 0 0
-14.0246 8.62287 -4.83244 255 0 0
-13.7627 8.9183 -4.68135 255 0 0
-11.8398 8.45287 -5.25684 255 0 0
-12.05 7.09744 -5.3759 255 0 0
-12.8907 6.98754 -5.02761 255 0 0
-12.6434 9.16308 -5.22417 255 0 0
-11.7459 7.26028 -5.45506 255 0 0
-12.8279 9.11252 -4.57269 255 0 0
-12.9811 8.92355 -4.57553 255 0 0
-13.0414 8.89688 -4.5812 255 0 0
-13.0959 8.88865 -4.58781 255 0 0
-13.7838 8.88564 -4.68135 255 0 0
-13.8125 8.7657 -4.67473 255 0 0
-13.8333 8.73292 -4.67473 255 0 0
-13.8539 8.7001 -4.67473 255 0 0
-13.9883 8.69225 -4.69268 255 0 0
-14.0786 8.65609 -4.70213 255 0 0
-14.0892 8.61665 -4.70024 255 0 0
-15.266 9.13858 -4.90904 255 0 0
-15.2678 9.09054 -4.90526 255 0 0
-15.6479 9.11696 -4.96101 255 0 0
-13.0147 7.29618 -4.43948 255 0 0
-12.9058 7.19495 -4.41586 255 0 0
-13.0188 7.21757 -4.43381 255 0 0
-13.8791 7.22793 -4.55852 255 0 0
-13.8706 7.18171 -4.5538 255 0 0
-16.5556 7.26934 -4.95628 255 0 0
-17.3653 7.33204 -5.08194 255 0 0
-11.8884 7.34838 -5.12892 255 0 0
-12.4031 8.07906 -4.92837 255 0 0
-11.7228 7.47858 -5.47922 255 0 0
-12.4029 8.03714 -4.92383 255 0 0
-12.3525 7.15776 -5.07178 255 0 0
-13.7804 8.67669 -4.80167 255 0 0
-13.8503 8.65209 -4.80961 255 0 0
-13.9353 8.61362 -4.81854 255 0 0
-14.0351 8.58357 -4.83046 255 0 0
-14.0707 8.51393 -4.82947 255 0 0
-14.0714 8.37821 -4.81755 255 0 0
-15.1475 8.82538 -5.01611 255 0 0
-12.7359 7.2195 -4.51872 255 0 0
-12.9533 7.22145 -4.55148 255 0 0
-12.9502 7.17953 -4.54751 255 0 0
-12.9874 7.15995 -4.55148 255 0 0
-12.9705 7.07066 -4.54155 255 0 0
-12.9264 7.00689 -4.52964 255 0 0
-12.9531 6.9817 -4.53163 255 0 0
-12.9696 6.95097 -4.53163 255 0 0
-13.1248 6.95423 -4.55545 255 0 0
-13.9888 7.36957 -4.72026 255 0 0
-13.9244 7.29354 -4.70437 255 0 0
-13.8769 7.18497 -4.68849 255 0 0
-17.3957 7.29631 -5.24545 255 0 0
-12.678 9.2341 -4.83284 255 0 0
-12.7605 9.24797 -4.84637 255 0 0
-12.7123 9.16714 -4.83076 255 0 0
-12.6504 8.98639 -4.80266 255 0 0
-12.7539 8.87918 -4.80682 255 0 0
-12.775 8.84891 -4.80682 255 0 0
-13.6799 8.86463 -4.9442 255 0 0
-13.5943 8.76348 -4.9213 255 0 0
-13.9752 8.54695 -4.95877 255 0 0
-12.8529 7.36657 -4.67569 255 0 0
-12.8708 7.13549 -4.658 255 0 0
-12.8994 7.07161 -4.65696 255 0 0
-13.918 7.20624 -4.83076 255 0 0
-15.773 7.24031 -5.13465 255 0 0
-15.9646 7.2368 -5.16587 255 0 0
-16.3857 7.24112 -5.2356 255 0 0
-16.5874 7.28333 -5.27202 255 0 0
-16.9934 7.31785 -5.34175 255 0 0
-17.3383 7.27225 -5.39587 255 0 0
-12.887 6.94608 -5.02288 255 0 0
-12.6506 9.2601 -4.96636 255 0 0
-12.6711 9.18313 -4.96092 255 0 0
-12.6733 8.91259 -4.93153 255 0 0
-12.6683 8.81952 -4.92064 255 0 0
-12.5536 8.65161 -4.88472 255 0 0
-12.5741 8.62182 -4.88472 255 0 0
-12.5958 8.54918 -4.88036 255 0 0
-12.7067 7.1235 -4.75626 255 0 0
-12.7336 7.09895 -4.75844 255 0 0
-12.8158 7.10501 -4.77259 255 0 0
-12.8729 7.09682 -4.7813 255 0 0
-12.871 7.01642 -4.77368 255 0 0
-12.9028 6.99411 -4.77695 255 0 0
-12.8524 7.04584 -5.02643 255 0 0
-11.7389 7.41074 -5.35117 255 0 0
-13.8335 7.12096 -5.34767 255 0 0
-12.4282 8.43544 -4.97155 255 0 0
-12.472 8.42202 -4.97724 255 0 0
-12.4449 8.31809 -4.96133 255 0 0
-12.4167 7.96273 -4.91815 255 0 0
-12.3905 7.82208 -4.89883 255 0 0
-12.3251 7.69933 -4.87496 255 0 0
-12.5349 7.54407 -4.89428 255 0 0
-12.5281 7.49958 -4.8886 255 0 0
-12.4372 7.4052 -4.8636 255 0 0
-12.3485 7.27326 -4.83519 255 0 0
-12.3949 7.18237 -4.83406 255 0 0
-12.7432 7.10433 -4.88633 255 0 0
-13.5026 7.11345 -5.01928 255 0 0
-15.0696 7.17867 -5.30223 255 0 0
-11.742 7.37386 -5.46928 255 0 0
-15.4717 7.14645 -5.37155 255 0 0
-15.6817 7.19841 -5.41359 255 0 0
-15.8242 7.21842 -5.44087 255 0 0
-16.0782 7.24238 -5.48859 255 0 0
-16.2331 7.21974 -5.51473 255 0 0
-16.1766 7.14873 -5.49882 255 0 0
-11.8085 7.4547 -5.12636 255 0 0
-11.9796 7.17128 -5.37041 255 0 0
-12.5687 9.24598 -5.2218 255 0 0
-12.6362 9.22658 -5.23068 255 0 0
-12.2064 8.54104 -5.07616 255 0 0
-12.1796 8.47931 -5.06432 255 0 0
-12.0827 8.32709 -5.02998 255 0 0
-12.1469 8.2025 -5.02643 255 0 0
-12.1071 7.80474 -4.97433 255 0 0
-12.0448 7.60385 -4.94118 255 0 0
-12.223 7.67591 -4.98025 255 0 0
-12.6281 7.11886 -4.99328 255 0 0
-12.72 7.13096 -5.01104 255 0 0
-12.6918 7.07565 -5.00038 255 0 0
-13.7491 7.11882 -5.19693 255 0 0
-13.9118 7.07805 -5.22298 255 0 0
-15.3716 7.14447 -5.50005 255 0 0
-12.7302 9.31836 -5.39447 255 0 0
-12.4098 9.03876 -5.30333 255 0 0
-11.9704 7.43836 -5.03236 255 0 0
-11.9393 7.37986 -5.02005 255 0 0
-12.023 7.35302 -5.03236 255 0 0
-12.0502 7.33045 -5.03483 255 0 0
-12.0652 7.26141 -5.0299 255 0 0
-12.0651 7.18362 -5.02128 255 0 0
-12.1089 7.13214 -5.02374 255 0 0
-12.2662 7.14668 -5.05453 255 0 0
-12.3694 7.12845 -5.07178 255 0 0
-12.4746 7.07134 -5.08532 255 0 0
-12.7347 7.0403 -5.1309 255 0 0
-13.7962 7.14321 -5.34274 255 0 0
-13.8911 7.109 -5.35752 255 0 0
-14.0268 7.09472 -5.38216 255 0 0
-14.6332 7.05614 -5.49547 255 0 0
-11.7576 8.06199 -5.1916 255 0 0
-11.8431 7.08954 -5.45364 255 0 0
-12.0569 8.82551 -5.3451 255 0 0
-11.8661 8.51423 -5.26963 255 0 0
-11.7782 8.13785 -5.20503 255 0 0
-11.6823 7.92913 -5.1609 255 0 0
-11.7278 7.75856 -5.14811 255 0 0
-11.7836 7.71538 -5.15322 255 0 0
-11.7539 7.65623 -5.14043 255 0 0
-11.7853 7.59731 -5.13915 255 0 0
-11.7456 7.53233 -5.1238 255 0 0
-11.773 7.51061 -5.12636 255 0 0
-11.8583 7.4077 -5.1302 255 0 0
-12.1373 7.32445 -5.17369 255 0 0
-12.1143 7.25189 -5.1609 255 0 0
-12.148 7.11645 -5.15194 255 0 0
-12.2706 7.11033 -5.17497 255 0 0
-14.0333 7.05627 -5.51652 255 0 0
-12.0959 7.31902 -5.28875 255 0 0
-11.7106 8.36063 -5.34712 255 0 0
-11.7464 8.26072 -5.34049 255 0 0
-11.7827 8.22378 -5.34248 255 0 0
-11.7346 8.12825 -5.32059 255 0 0
-11.7921 8.04458 -5.32059 255 0 0
-11.7498 7.97496 -5.30334 255 0 0
-11.8017 7.96942 -5.31263 255 0 0
-11.7683 7.86583 -5.29273 255 0 0
-11.7204 7.79369 -5.27415 255 0 0
-11.7933 7.78179 -5.28676 255 0 0
-11.7565 7.69763 -5.26885 255 0 0
-11.7827 7.61542 -5.26354 255 0 0
-11.7857 7.55808 -5.25691 255 0 0
-11.7651 7.50558 -5.24629 255 0 0
-11.7492 7.45627 -5.23701 255 0 0
-11.8103 7.45579 -5.24895 255 0 0
-11.8376 7.43383 -5.2516 255 0 0
-12.0599 7.4544 -5.29803 255 0 0
-12.1134 7.21237 -5.27946 255 0 0
-12.4697 7.02959 -5.32987 255 0 0
-12.7356 7.02114 -5.38294 255 0 0
-12.8773 7.05947 -5.4161 255 0 0
-13.3543 7.07582 -5.5156 255 0 0
-11.8425 8.62555 -5.53666 255 0 0
-11.728 8.24774 -5.46109 255 0 0
-11.7102 8.1938 -5.4501 255 0 0
-11.7903 8.20829 -5.46796 255 0 0
-11.7775 8.11676 -5.45285 255 0 0
-11.7592 8.06307 -5.44186 255 0 0
-11.7123 7.86865 -5.40613 255 0 0
-11.7919 7.82112 -5.41575 255 0 0
-11.8155 7.34207 -5.35804 255 0 0
-11.9305 7.29645 -5.3759 255 0 0
-11.8894 7.23264 -5.35942 255 0 0
-11.8919 7.19559 -5.35529 255 0 0
-12.0135 7.11439 -5.37041 255 0 0
-12.7056 7.00458 -5.50231 255 0 0
-11.6886 7.893 -5.52897 255 0 0
-11.7586 7.8191 -5.53323 255 0 0
-11.7694 7.62664 -5.50907 255 0 0
-11.7541 7.57717 -5.49912 255 0 0
-11.7065 7.31289 -5.45364 255 0 0
-11.7045 7.27312 -5.44796 255 0 0
-16.512 8.30467 -3.06295 255 0 0
