ply
format ascii 1.0
comment Created by Open3D
element vertex 960
property double x
property double y
property double z
property uchar red
property uchar green
property uchar blue
end_header
7.8163 -3.19157 -4.79763 255 0 0
8.67864 -3.68859 -4.69552 255 0 0
9.74305 -3.7378 -4.24533 255 0 0
10.6822 -2.75624 -5.05453 255 0 0
8.024 -3.68327 -4.76361 255 0 0
7.61592 -3.92039 -5.23916 255 0 0
8.02085 -3.95004 -4.7986 255 0 0
11.0111 -2.75771 -5.04155 255 0 0
8.93839 -3.40481 -4.6483 255 0 0
9.64645 -3.3123 -4.28337 255 0 0
9.4285 -2.74529 -5.16368 255 0 0
8.53058 -3.06549 -4.67279 255 0 0
7.65969 -3.89709 -5.0072 255 0 0
9.57515 -3.08607 -4.3402 255 0 0
8.09684 -4.02329 -4.83008 255 0 0
10.7582 -3.13245 -4.31363 255 0 0
8.44934 -3.92713 -4.74731 255 0 0
9.75995 -2.74166 -5.26602 255 0 0
8.08852 -3.28037 -4.73213 255 0 0
7.68721 -4.0149 -5.27955 255 0 0
8.52827 -2.84945 -4.73271 255 0 0
8.11692 -2.94949 -4.70327 255 0 0
10.4296 -2.74385 -5.27754 255 0 0
9.70809 -3.99092 -4.34989 255 0 0
9.40843 -2.78792 -4.80495 255 0 0
10.5006 -2.81586 -4.81641 255 0 0
10.0865 -2.73045 -5.27086 255 0 0
8.61939 -2.98251 -4.68935 255 0 0
8.59864 -2.77135 -4.91051 255 0 0
9.77122 -2.76984 -4.90312 255 0 0
8.09271 -3.14877 -4.71814 255 0 0
8.32547 -2.83667 -4.75312 255 0 0
8.48639 -4.10458 -4.7796 255 0 0
8.5627 -2.94018 -4.66947 255 0 0
9.58993 -2.74303 -5.12218 255 0 0
9.2949 -2.92293 -4.5242 255 0 0
7.72917 -3.76096 -4.84828 255 0 0
10.6653 -2.72491 -5.24576 255 0 0
7.88923 -3.26509 -4.75071 255 0 0
8.22322 -2.76922 -5.03621 255 0 0
9.0302 -2.79271 -4.78705 255 0 0
7.61331 -3.61568 -5.02804 255 0 0
8.99553 -3.94982 -4.72018 255 0 0
8.4447 -4.25874 -4.78871 255 0 0
8.68455 -3.78874 -4.7084 255 0 0
9.87533 -2.77407 -4.93208 255 0 0
9.38442 -4.22719 -4.57531 255 0 0
9.32875 -4.44393 -4.76876 255 0 0
7.78628 -3.82305 -4.95455 255 0 0
10.0516 -3.10858 -4.2638 255 0 0
9.69691 -4.12137 -4.35884 255 0 0
8.67911 -3.5559 -4.68104 255 0 0
8.53544 -3.10158 -4.67775 255 0 0
9.58623 -4.15508 -4.43041 255 0 0
7.90463 -3.22764 -4.75071 255 0 0
7.85875 -3.01491 -4.94531 255 0 0
11.1078 -2.75395 -4.96472 255 0 0
7.7234 -3.91798 -4.94983 255 0 0
8.25376 -4.19934 -4.81443 255 0 0
7.83553 -3.50718 -4.76567 255 0 0
7.8384 -2.84825 -4.91824 255 0 0
10.3795 -2.73068 -5.16462 255 0 0
10.3005 -2.91987 -4.58448 255 0 0
7.63192 -3.87158 -5.07456 255 0 0
7.93631 -3.16399 -4.75251 255 0 0
9.34011 -2.71956 -4.60661 255 0 0
9.74045 -3.06304 -4.28593 255 0 0
8.77132 -3.05838 -4.65529 255 0 0
9.49442 -3.61661 -4.45258 255 0 0
9.94476 -2.74277 -5.32348 255 0 0
11.4736 -2.98945 -4.75809 255 0 0
9.71783 -3.67535 -4.23547 255 0 0
9.22464 -2.73345 -5.18809 255 0 0
8.07834 -4.12214 -4.83883 255 0 0
9.24572 -2.85936 -4.67955 255 0 0
11.1231 -2.95452 -4.67716 255 0 0
8.0227 -3.85684 -4.78635 255 0 0
7.62022 -3.80903 -5.0607 255 0 0
7.78292 -3.79852 -5.03041 255 0 0
8.46981 -3.57614 -4.71087 255 0 0
10.6287 -2.76932 -4.94304 255 0 0
7.99476 -3.61263 -4.74612 255 0 0
8.16262 -2.84614 -4.70589 255 0 0
9.58537 -3.96706 -4.41316 255 0 0
10.3072 -2.7902 -4.8612 255 0 0
8.49077 -3.21127 -4.67665 255 0 0
9.75762 -4.06548 -4.36652 255 0 0
8.28174 -3.21104 -4.6995 255 0 0
11.1189 -2.78471 -5.27647 255 0 0
8.00071 -2.83231 -4.81237 255 0 0
9.57923 -4.19256 -4.4324 255 0 0
8.64916 -3.7003 -4.68908 255 0 0
9.86347 -2.74553 -5.01889 255 0 0
7.91449 -4.20554 -4.96984 255 0 0
8.69757 -3.25417 -4.65449 255 0 0
7.62618 -3.84597 -5.22984 255 0 0
10.0059 -3.12048 -4.25518 255 0 0
8.55426 -2.75704 -5.22898 255 0 0
8.05481 -3.24448 -4.71814 255 0 0
9.32089 -2.78603 -4.78081 255 0 0
8.28172 -2.8437 -4.74087 255 0 0
9.93986 -3.17763 -4.24533 255 0 0
11.0389 -2.9602 -4.65859 255 0 0
7.78273 -3.36242 -4.96659 255 0 0
10.1291 -2.79361 -4.90923 255 0 0
9.57537 -2.73887 -5.20856 255 0 0
9.31576 -2.76045 -4.86488 255 0 0
8.03697 -2.81301 -4.82158 255 0 0
9.21508 -2.77822 -4.9251 255 0 0
9.4031 -2.7621 -4.88972 255 0 0
8.00473 -3.90678 -4.7881 255 0 0
9.20873 -2.75251 -5.00849 255 0 0
11.5185 -2.8268 -4.96757 255 0 0
7.9347 -2.80894 -4.94531 255 0 0
9.61859 -3.69005 -4.30639 255 0 0
7.9705 -3.123 -4.75789 255 0 0
7.95317 -2.99718 -4.73814 255 0 0
10.8212 -2.9569 -4.60951 255 0 0
7.735 -4.2047 -5.32925 255 0 0
11.1232 -2.78579 -4.9706 255 0 0
8.60751 -2.84194 -4.75484 255 0 0
10.8703 -2.74984 -5.10453 255 0 0
9.17443 -2.93293 -4.58084 255 0 0
7.85879 -2.89795 -4.77553 255 0 0
7.99346 -3.11016 -4.76328 255 0 0
8.77764 -2.76027 -4.96438 255 0 0
10.8804 -3.67843 -4.87377 255 0 0
9.06789 -2.73385 -5.13836 255 0 0
9.80223 -3.05695 -4.29872 255 0 0
8.30269 -2.78503 -4.98287 255 0 0
8.21797 -2.75662 -5.11416 255 0 0
8.67678 -3.83443 -4.71161 255 0 0
7.69249 -3.94828 -5.02557 255 0 0
7.70388 -4.15236 -5.2266 255 0 0
7.62127 -3.76448 -5.29542 255 0 0
8.03151 -3.30166 -4.71814 255 0 0
8.54485 -2.77639 -5.06027 255 0 0
8.28005 -3.17653 -4.69525 255 0 0
8.02616 -3.21085 -4.70589 255 0 0
9.53446 -3.63186 -4.37336 255 0 0
7.96244 -4.38969 -5.35218 255 0 0
7.80201 -4.30125 -5.11743 255 0 0
9.22429 -2.75716 -5.27927 255 0 0
10.9548 -3.13344 -4.35271 255 0 0
9.26274 -2.74474 -4.67487 255 0 0
9.4767 -2.99243 -4.39899 255 0 0
9.33692 -2.88756 -4.61873 255 0 0
7.65119 -4.06564 -5.27644 255 0 0
9.7347 -3.3943 -4.21823 255 0 0
7.64448 -3.93509 -5.16988 255 0 0
8.23215 -3.603 -4.731 255 0 0
9.08425 -2.76229 -5.32242 255 0 0
8.50416 -3.17032 -4.6761 255 0 0
7.80243 -3.69416 -5.02074 255 0 0
7.96826 -3.14393 -4.75969 255 0 0
8.87742 -2.88445 -4.66816 255 0 0
11.3026 -2.74542 -5.32475 255 0 0
7.70491 -3.16743 -4.8375 255 0 0
9.6333 -3.35893 -4.28401 255 0 0
7.70253 -3.27372 -4.85071 255 0 0
9.41062 -3.15668 -4.65965 255 0 0
9.58571 -4.2361 -4.62221 255 0 0
9.86331 -2.7203 -5.20264 255 0 0
7.83243 -3.00483 -4.77983 255 0 0
7.66867 -4.18044 -5.13791 255 0 0
9.64676 -2.73456 -5.32254 255 0 0
8.5991 -2.81657 -4.99839 255 0 0
9.09883 -4.30797 -4.78736 255 0 0
7.65434 -4.14912 -5.12801 255 0 0
7.78948 -3.40926 -4.97529 255 0 0
9.53337 -2.72686 -5.2857 255 0 0
8.97283 -3.29666 -4.64674 255 0 0
9.58361 -3.59864 -4.38132 255 0 0
8.00534 -2.7913 -4.96659 255 0 0
8.24147 -4.01026 -4.78549 255 0 0
7.88303 -2.82223 -4.92984 255 0 0
9.48216 -4.15009 -4.49861 255 0 0
8.94462 -2.85946 -4.68426 255 0 0
7.8135 -3.6316 -4.77585 255 0 0
8.73214 -2.79154 -5.12257 255 0 0
11.6453 -2.91653 -4.79258 255 0 0
7.69916 -3.52311 -4.96272 255 0 0
8.32646 -3.14913 -4.70546 255 0 0
7.84252 -3.89692 -4.98287 255 0 0
8.52844 -2.79343 -4.80909 255 0 0
8.69133 -2.77849 -5.19285 255 0 0
8.32213 -2.79156 -4.82792 255 0 0
9.63047 -3.93234 -4.4198 255 0 0
8.27817 -4.1134 -4.80932 255 0 0
7.63398 -3.96411 -5.0904 255 0 0
8.64617 -2.83199 -4.76506 255 0 0
7.76945 -4.04614 -5.06522 255 0 0
11.5504 -2.8056 -5.07926 255 0 0
9.78528 -3.54259 -4.23917 255 0 0
10.9452 -2.82408 -4.82829 255 0 0
9.40436 -4.18264 -4.57531 255 0 0
7.83419 -3.86965 -5.05748 255 0 0
9.28228 -2.77449 -4.8566 255 0 0
8.05774 -3.4699 -4.74612 255 0 0
9.85602 -3.1766 -4.22808 255 0 0
7.94012 -2.8533 -4.79579 255 0 0
10.5854 -2.75803 -5.12681 255 0 0
7.7716 -4.18887 -5.33857 255 0 0
8.31349 -4.15555 -4.82465 255 0 0
9.25671 -4.40961 -4.83892 255 0 0
7.60567 -3.73437 -5.28484 255 0 0
9.00504 -2.85526 -4.70035 255 0 0
7.97336 -3.52357 -4.72863 255 0 0
8.33916 -3.07506 -4.70121 255 0 0
11.7186 -2.90538 -4.8085 255 0 0
10.1355 -3.3065 -4.85666 255 0 0
7.7736 -3.20643 -4.94241 255 0 0
9.29629 -2.73073 -4.68268 255 0 0
8.73033 -2.76816 -4.86681 255 0 0
9.23141 -4.21104 -4.71875 255 0 0
9.17727 -2.98188 -4.67174 255 0 0
9.48588 -3.0573 -4.40586 255 0 0
8.4556 -3.31307 -4.67775 255 0 0
8.35134 -2.77934 -4.99797 255 0 0
7.87294 -2.99896 -4.86959 255 0 0
9.99729 -3.88982 -4.97016 255 0 0
10.5774 -2.75595 -5.02641 255 0 0
9.58692 -3.88806 -4.40653 255 0 0
7.7874 -3.96207 -4.89525 255 0 0
7.61466 -3.89694 -5.15368 255 0 0
8.21982 -3.74957 -4.74576 255 0 0
8.09328 -3.19326 -4.72338 255 0 0
9.1542 -2.83106 -4.73897 255 0 0
8.28208 -3.25639 -4.70461 255 0 0
10.6165 -3.03665 -4.37588 255 0 0
8.81417 -3.00318 -4.66173 255 0 0
7.82506 -3.65956 -4.78303 255 0 0
8.28359 -4.16519 -4.81784 255 0 0
8.02422 -3.51202 -4.74175 255 0 0
11.3451 -2.98473 -4.7289 255 0 0
8.46544 -3.95905 -4.75559 255 0 0
9.06254 -2.77918 -4.88083 255 0 0
10.8977 -3.62679 -4.87377 255 0 0
9.69953 -3.45961 -4.21577 255 0 0
7.94117 -2.94972 -4.72917 255 0 0
11.0584 -2.74171 -5.15453 255 0 0
7.78308 -2.85954 -4.82428 255 0 0
8.02372 -4.25139 -4.84232 255 0 0
9.67924 -3.42652 -4.29872 255 0 0
10.2433 -2.74684 -5.22306 255 0 0
11.8459 -2.96677 -4.41588 255 0 0
9.22059 -2.73225 -5.01024 255 0 0
7.78089 -4.25358 -5.10293 255 0 0
7.63881 -3.8637 -5.3187 255 0 0
9.68824 -2.74632 -4.96921 255 0 0
9.59894 -4.05289 -4.42378 255 0 0
9.00194 -2.7606 -4.94727 255 0 0
10.4024 -3.05562 -4.33278 255 0 0
9.434 -4.19582 -4.49243 255 0 0
9.53057 -3.55296 -4.45533 255 0 0
7.6229 -3.75406 -5.05278 255 0 0
7.83429 -3.84662 -4.81176 255 0 0
8.42638 -2.87105 -4.70546 255 0 0
8.22215 -2.84505 -4.72338 255 0 0
10.095 -2.75847 -5.18049 255 0 0
7.82064 -3.17173 -4.95305 255 0 0
9.20048 -2.75004 -5.09365 255 0 0
8.43682 -3.71643 -4.71833 255 0 0
8.33236 -3.11751 -4.70376 255 0 0
10.7104 -3.00865 -4.4906 255 0 0
8.66227 -3.37038 -4.6569 255 0 0
9.63015 -3.60308 -4.30192 255 0 0
7.64065 -3.95607 -5.25366 255 0 0
7.87736 -3.04349 -4.95498 255 0 0
8.34805 -2.82229 -4.75837 255 0 0
8.56805 -3.01031 -4.67775 255 0 0
7.86676 -3.35454 -4.7552 255 0 0
9.65968 -3.29126 -4.28465 255 0 0
9.04815 -3.87099 -4.72486 255 0 0
9.31402 -4.3559 -4.75512 255 0 0
9.60653 -2.77244 -4.85806 255 0 0
8.96369 -2.79544 -4.85359 255 0 0
9.78056 -3.93962 -4.26873 255 0 0
8.70245 -2.78204 -4.85981 255 0 0
7.80919 -3.47318 -4.91113 255 0 0
8.49526 -2.80489 -4.80034 255 0 0
8.1592 -2.75844 -5.09436 255 0 0
8.27369 -4.18482 -4.81784 255 0 0
8.95921 -2.79404 -4.76718 255 0 0
8.71257 -3.53347 -4.68748 255 0 0
10.489 -2.75948 -5.00297 255 0 0
10.2794 -2.96663 -4.48878 255 0 0
8.39711 -2.77248 -4.93024 255 0 0
8.10192 -2.99851 -4.70414 255 0 0
7.85937 -3.06872 -4.79579 255 0 0
11.3277 -2.80847 -5.33601 255 0 0
8.05801 -4.29405 -4.85807 255 0 0
7.85945 -2.90877 -4.85449 255 0 0
7.84939 -3.45767 -4.76328 255 0 0
9.52649 -3.42337 -4.35479 255 0 0
8.44064 -3.65853 -4.71253 255 0 0
8.7666 -2.82548 -4.71584 255 0 0
10.5742 -3.6589 -4.21361 255 0 0
9.47876 -2.95607 -4.48435 255 0 0
8.2336 -3.91027 -4.77016 255 0 0
9.32534 -2.79942 -4.60888 255 0 0
8.14773 -2.77611 -4.93189 255 0 0
11.0689 -3.10937 -4.37402 255 0 0
9.06076 -3.92732 -4.73424 255 0 0
9.35995 -4.26967 -4.66517 255 0 0
8.06362 -4.15086 -4.83883 255 0 0
8.46204 -3.76354 -4.73075 255 0 0
10.224 -2.76767 -4.93267 255 0 0
7.94984 -2.91012 -4.72737 255 0 0
9.51377 -3.50822 -4.44777 255 0 0
11.8417 -2.90613 -4.83636 255 0 0
9.75069 -3.3481 -4.21823 255 0 0
8.13057 -2.83497 -4.77405 255 0 0
7.80286 -3.05732 -4.85449 255 0 0
9.71026 -3.35997 -4.21084 255 0 0
8.0007 -3.70709 -4.76012 255 0 0
8.84471 -2.75834 -4.90004 255 0 0
8.73874 -3.11691 -4.65207 255 0 0
8.14928 -3.12637 -4.73213 255 0 0
9.5168 -4.20565 -4.51166 255 0 0
10.6355 -2.74417 -5.13968 255 0 0
9.04938 -2.84572 -4.71161 255 0 0
8.8641 -2.76438 -5.33589 255 0 0
7.83592 -3.04886 -4.86393 255 0 0
7.91339 -4.28954 -5.06593 255 0 0
11.3076 -2.83197 -4.81394 255 0 0
9.5692 -3.15947 -4.34418 255 0 0
8.01085 -3.2932 -4.71114 255 0 0
9.74808 -2.73833 -5.16941 255 0 0
9.67748 -4.00518 -4.34477 255 0 0
7.84952 -3.05415 -4.94725 255 0 0
9.2711 -2.74722 -5.1152 255 0 0
7.7412 -3.10752 -4.84128 255 0 0
8.23692 -3.42044 -4.71057 255 0 0
10.7702 -2.97041 -4.59889 255 0 0
10.0535 -3.08306 -4.26257 255 0 0
11.5256 -2.95927 -4.76804 255 0 0
11.2181 -2.83783 -4.79333 255 0 0
7.59702 -3.65221 -5.26791 255 0 0
7.73782 -3.06362 -4.83467 255 0 0
8.8375 -2.75609 -5.23927 255 0 0
9.76403 -3.66639 -4.2441 255 0 0
7.59735 -3.7751 -5.20809 255 0 0
11.2405 -2.81515 -4.89935 255 0 0
10.0298 -2.81746 -4.79149 255 0 0
8.25077 -2.81122 -4.80817 255 0 0
7.85566 -4.18622 -5.03195 255 0 0
8.68275 -3.98566 -4.73093 255 0 0
10.0833 -2.7296 -5.08016 255 0 0
8.24385 -3.46923 -4.71823 255 0 0
11.093 -2.89029 -4.76723 255 0 0
9.69185 -3.19996 -4.19606 255 0 0
9.73823 -4.1117 -4.36652 255 0 0
9.63108 -3.33257 -4.37071 255 0 0
10.9173 -3.06678 -4.43993 255 0 0
9.96957 -3.05734 -4.33454 255 0 0
8.44407 -3.80361 -4.73075 255 0 0
8.69213 -4.05253 -4.74139 255 0 0
9.58891 -3.11563 -4.52272 255 0 0
7.87782 -3.39242 -4.76328 255 0 0
7.80682 -3.78729 -5.03621 255 0 0
8.57886 -2.77618 -5.15514 255 0 0
8.67444 -3.89501 -4.71805 255 0 0
8.76203 -3.10182 -4.6569 255 0 0
8.45506 -3.40571 -4.68769 255 0 0
10.889 -2.83713 -4.8155 255 0 0
10.1901 -2.78446 -4.92485 255 0 0
7.73321 -3.79699 -4.85473 255 0 0
7.93307 -4.05991 -4.87101 255 0 0
11.3806 -2.82159 -4.83043 255 0 0
9.34771 -2.76992 -5.3208 255 0 0
7.60913 -3.66913 -5.03497 255 0 0
7.86281 -2.96312 -4.86204 255 0 0
8.02161 -3.09923 -4.77046 255 0 0
8.61534 -2.88991 -4.67941 255 0 0
11.089 -2.74929 -5.06125 255 0 0
10.5004 -3.66127 -4.19997 255 0 0
10.4697 -3.42927 -4.17952 255 0 0
10.5324 -3.42219 -4.19088 255 0 0
7.84508 -3.16 -4.80255 255 0 0
8.13761 -2.79421 -4.85105 255 0 0
10.3708 -2.75472 -5.06726 255 0 0
7.68316 -3.57102 -4.96465 255 0 0
7.61047 -3.55922 -5.01847 255 0 0
11.5199 -2.82715 -4.8634 255 0 0
9.38616 -2.75712 -5.33213 255 0 0
7.8233 -4.06243 -4.92103 255 0 0
9.70441 -3.3065 -4.20591 255 0 0
7.85138 -3.11935 -4.79948 255 0 0
8.20155 -2.77276 -4.94889 255 0 0
10.2075 -3.20991 -4.20944 255 0 0
10.4809 -3.15986 -4.26035 255 0 0
10.4279 -3.11693 -4.24732 255 0 0
10.5233 -3.11827 -4.26627 255 0 0
10.6242 -3.12078 -4.2864 255 0 0
10.8592 -3.13397 -4.33376 255 0 0
11.0505 -3.13248 -4.37165 255 0 0
9.28975 -2.72881 -5.20835 255 0 0
9.84413 -3.85712 -4.27489 255 0 0
8.7715 -3.02349 -4.65207 255 0 0
9.80946 -4.00543 -4.27981 255 0 0
9.81893 -3.98216 -4.27981 255 0 0
9.70184 -3.82793 -4.2441 255 0 0
9.78923 -3.80887 -4.26011 255 0 0
9.78312 -3.75313 -4.25456 255 0 0
9.73515 -3.62923 -4.23547 255 0 0
9.77057 -3.61607 -4.24163 255 0 0
9.72307 -3.54616 -4.22685 255 0 0
9.77749 -3.51357 -4.23547 255 0 0
9.81433 -3.46126 -4.23917 255 0 0
9.73392 -3.29082 -4.21084 255 0 0
9.76184 -3.26163 -4.21454 255 0 0
9.83105 -3.2072 -4.225 255 0 0
9.99102 -3.16789 -4.25518 255 0 0
9.95482 -3.13045 -4.24533 255 0 0
10.1484 -3.08586 -4.28228 255 0 0
10.1556 -3.06179 -4.28228 255 0 0
10.2232 -3.05574 -4.29583 255 0 0
10.2963 -3.05101 -4.31061 255 0 0
10.4865 -3.05336 -4.35002 255 0 0
10.5212 -3.03642 -4.35618 255 0 0
10.7172 -3.03801 -4.39682 255 0 0
10.9687 -3.05316 -4.44978 255 0 0
10.9924 -3.03171 -4.45348 255 0 0
11.8734 -2.94376 -4.63207 255 0 0
7.87473 -2.8509 -4.8526 255 0 0
8.2144 -3.8061 -4.75143 255 0 0
10.2393 -2.824 -4.84605 255 0 0
9.50235 -3.38928 -4.34683 255 0 0
9.69761 -4.14884 -4.3614 255 0 0
9.71634 -4.07534 -4.35884 255 0 0
9.66463 -3.94629 -4.3371 255 0 0
9.67859 -3.9119 -4.3371 255 0 0
9.62879 -3.85198 -4.32175 255 0 0
9.6379 -3.82914 -4.32175 255 0 0
9.66821 -3.81466 -4.32686 255 0 0
9.60274 -3.76254 -4.30895 255 0 0
9.63294 -3.74805 -4.31407 255 0 0
9.6951 -3.7458 -4.32686 255 0 0
9.64767 -3.66191 -4.31023 255 0 0
9.59736 -3.55197 -4.29104 255 0 0
9.68084 -3.55679 -4.30895 255 0 0
9.62483 -3.51033 -4.2936 255 0 0
9.71909 -3.51862 -4.31407 255 0 0
9.66698 -3.46092 -4.29872 255 0 0
9.67919 -3.37494 -4.29488 255 0 0
9.66205 -3.26652 -4.28337 255 0 0
9.64809 -3.23633 -4.27825 255 0 0
9.68122 -3.20922 -4.28337 255 0 0
9.69259 -3.17474 -4.28337 255 0 0
9.7327 -3.16234 -4.29104 255 0 0
9.68947 -3.11024 -4.27825 255 0 0
9.72771 -3.0844 -4.28465 255 0 0
9.86404 -3.05058 -4.31151 255 0 0
10.3779 -3.04844 -4.42152 255 0 0
10.6372 -3.01533 -4.47525 255 0 0
10.8551 -3.02155 -4.52258 255 0 0
10.8787 -3.00036 -4.52642 255 0 0
11.0402 -3.01673 -4.56223 255 0 0
11.1355 -3.01443 -4.5827 255 0 0
11.8351 -2.93427 -4.72981 255 0 0
8.91506 -2.80348 -4.75559 255 0 0
7.81774 -3.75832 -5.03524 255 0 0
7.74911 -3.82762 -4.86394 255 0 0
7.74535 -4.12744 -5.07102 255 0 0
9.67463 -4.16617 -4.45031 255 0 0
9.61593 -4.10043 -4.43174 255 0 0
9.61904 -4.03453 -4.42643 255 0 0
9.60752 -4.00294 -4.42112 255 0 0
9.63167 -3.9595 -4.42245 255 0 0
9.52734 -3.83762 -4.38928 255 0 0
9.61054 -3.84468 -4.40786 255 0 0
9.53212 -3.66985 -4.37602 255 0 0
9.52799 -3.552 -4.3654 255 0 0
9.50429 -3.51752 -4.35744 255 0 0
9.63037 -3.53825 -4.38663 255 0 0
9.56125 -3.46148 -4.3654 255 0 0
9.53724 -3.37625 -4.35346 255 0 0
9.56136 -3.3593 -4.35744 255 0 0
9.55853 -3.33287 -4.35479 255 0 0
9.53107 -3.27269 -4.34418 255 0 0
9.66837 -3.29422 -4.37602 255 0 0
9.50326 -3.21284 -4.33356 255 0 0
9.58764 -3.20343 -4.35147 255 0 0
9.63188 -3.1422 -4.35678 255 0 0
9.58877 -3.05286 -4.34086 255 0 0
9.6295 -3.02815 -4.34816 255 0 0
9.69654 -3.02399 -4.36275 255 0 0
10.9162 -2.95507 -4.63073 255 0 0
11.5111 -2.91196 -4.76207 255 0 0
7.84234 -4.27511 -4.95971 255 0 0
7.75493 -4.06199 -5.06328 255 0 0
9.04646 -3.10629 -4.6483 255 0 0
10.2332 -2.74415 -5.31634 255 0 0
7.87947 -4.16299 -4.87101 255 0 0
8.23381 -4.21379 -4.81103 255 0 0
8.17341 -3.10232 -4.7365 255 0 0
9.59348 -4.15822 -4.52403 255 0 0
10.7648 -4.57523 -4.82356 255 0 0
9.47185 -3.65954 -4.45121 255 0 0
9.53917 -3.59486 -4.46082 255 0 0
9.52352 -3.47338 -4.44708 255 0 0
11.0262 -3.90335 -4.82356 255 0 0
10.1336 -3.29261 -4.57212 255 0 0
9.54162 -2.97567 -4.41273 255 0 0
10.8413 -2.9072 -4.70952 255 0 0
10.9416 -2.90633 -4.73288 255 0 0
11.1562 -2.85033 -4.77959 255 0 0
11.6759 -2.83611 -4.9005 255 0 0
7.66415 -3.92226 -5.33775 255 0 0
7.74061 -3.3116 -4.86771 255 0 0
7.72447 -3.65726 -4.83201 255 0 0
7.81298 -4.23511 -5.1097 255 0 0
8.48557 -2.77939 -5.04139 255 0 0
9.27642 -4.23157 -4.55115 255 0 0
9.35368 -4.24005 -4.56962 255 0 0
9.42034 -4.21653 -4.58241 255 0 0
10.7361 -4.65349 -4.92778 255 0 0
10.8673 -4.02195 -4.89935 255 0 0
10.8074 -3.97071 -4.88088 255 0 0
10.8416 -3.57957 -4.85672 255 0 0
9.33136 -3.0075 -4.45308 255 0 0
9.37634 -2.99748 -4.46303 255 0 0
9.39425 -2.97867 -4.46587 255 0 0
9.43922 -2.96832 -4.47582 255 0 0
10.2849 -2.91546 -4.6748 255 0 0
10.6875 -2.86596 -4.7686 255 0 0
10.7381 -2.85228 -4.77997 255 0 0
10.7998 -2.84126 -4.79418 255 0 0
11.0289 -2.8178 -4.84819 255 0 0
11.1291 -2.81533 -4.87235 255 0 0
11.3684 -2.81856 -4.93062 255 0 0
11.6687 -2.83434 -5.00453 255 0 0
9.45745 -2.72942 -5.26176 255 0 0
9.11757 -2.89094 -4.6483 255 0 0
9.23647 -4.23983 -4.63286 255 0 0
9.31807 -4.1973 -4.64754 255 0 0
9.27013 -2.96352 -4.52126 255 0 0
9.25552 -2.93468 -4.51539 255 0 0
10.3845 -2.81112 -4.78704 255 0 0
10.5182 -2.79386 -4.81935 255 0 0
10.607 -2.79055 -4.84138 255 0 0
10.7178 -2.79254 -4.86928 255 0 0
10.7519 -2.7742 -4.87662 255 0 0
10.9012 -2.78519 -4.9148 255 0 0
10.9627 -2.77323 -4.92948 255 0 0
11.3235 -2.77894 -5.02052 255 0 0
8.92854 -2.76127 -5.35767 255 0 0
10.9424 -2.74051 -5.12328 255 0 0
7.84191 -2.86007 -4.84316 255 0 0
7.6164 -3.71725 -5.04486 255 0 0
8.66884 -2.81668 -4.77016 255 0 0
7.92372 -4.11454 -4.8764 255 0 0
7.874 -4.29237 -5.05461 255 0 0
9.92409 -2.73707 -5.03545 255 0 0
9.36385 -4.50159 -4.78392 255 0 0
9.29326 -4.40002 -4.75512 255 0 0
9.17045 -4.26229 -4.70966 255 0 0
9.25242 -4.27374 -4.73087 255 0 0
9.1957 -4.22111 -4.71117 255 0 0
9.54687 -3.17722 -4.69602 255 0 0
10.1398 -3.34785 -4.8612 255 0 0
9.24282 -2.97896 -4.60206 255 0 0
9.22988 -2.92655 -4.59448 255 0 0
9.29765 -2.89959 -4.60964 255 0 0
9.33364 -2.7417 -4.60661 255 0 0
10.1345 -2.82097 -4.81877 255 0 0
10.3957 -2.78772 -4.88394 255 0 0
10.5225 -2.79501 -4.91728 255 0 0
10.805 -2.78792 -4.99002 255 0 0
10.9431 -2.79589 -5.02639 255 0 0
11.4196 -2.80252 -5.15066 255 0 0
11.4822 -2.76023 -5.1643 255 0 0
11.8244 -2.81285 -5.25674 255 0 0
8.89825 -2.7982 -4.83486 255 0 0
7.71753 -3.15124 -4.83939 255 0 0
9.22318 -2.76874 -4.66627 255 0 0
8.8831 -3.35965 -4.62956 255 0 0
10.5282 -2.74313 -5.30649 255 0 0
7.6915 -3.20463 -4.83813 255 0 0
9.09669 -2.76608 -5.06313 255 0 0
10.82 -2.76443 -5.09203 255 0 0
10.7643 -2.72303 -5.27391 255 0 0
8.02898 -3.4801 -4.73913 255 0 0
9.34752 -4.50738 -4.87329 255 0 0
9.33783 -4.47545 -4.86704 255 0 0
9.06555 -4.25282 -4.77252 255 0 0
9.09075 -4.21213 -4.77408 255 0 0
8.98193 -3.86788 -4.70768 255 0 0
10.131 -4.19288 -5.03579 255 0 0
8.89868 -3.41387 -4.63893 255 0 0
8.97162 -3.35672 -4.65221 255 0 0
8.94911 -3.31205 -4.64206 255 0 0
8.98304 -3.25214 -4.64518 255 0 0
9.02078 -3.20546 -4.65065 255 0 0
8.9709 -3.15185 -4.63268 255 0 0
9.03536 -3.13842 -4.6483 255 0 0
9.05915 -3.08665 -4.64987 255 0 0
9.07178 -3.06697 -4.65143 255 0 0
9.12718 -3.0616 -4.66549 255 0 0
9.10229 -3.02926 -4.65612 255 0 0
9.16124 -3.01273 -4.67018 255 0 0
9.0911 -2.91817 -4.64362 255 0 0
9.15669 -2.87947 -4.65768 255 0 0
9.17427 -2.86111 -4.6608 255 0 0
9.25787 -2.83908 -4.68112 255 0 0
9.23218 -2.80728 -4.67174 255 0 0
10.0137 -2.78736 -4.87798 255 0 0
10.3177 -2.7668 -4.95766 255 0 0
10.4115 -2.76551 -4.98266 255 0 0
11.306 -2.77466 -5.22328 255 0 0
11.2578 -2.73453 -5.20765 255 0 0
11.5166 -2.7685 -5.27952 255 0 0
11.6659 -2.77514 -5.32015 255 0 0
9.54045 -2.75337 -5.10819 255 0 0
7.98111 -2.88942 -4.73455 255 0 0
8.69439 -2.84779 -4.69763 255 0 0
8.65167 -4.27344 -4.75828 255 0 0
8.68704 -4.26532 -4.76633 255 0 0
8.73505 -4.25042 -4.77679 255 0 0
8.75773 -4.22298 -4.7792 255 0 0
8.73459 -4.17359 -4.76713 255 0 0
8.68069 -4.10999 -4.74541 255 0 0
8.72098 -4.10378 -4.75506 255 0 0
8.73972 -4.03692 -4.75185 255 0 0
8.68661 -3.9501 -4.72771 255 0 0
8.67281 -3.85728 -4.71322 255 0 0
8.691 -3.81611 -4.71322 255 0 0
8.66695 -3.74443 -4.69874 255 0 0
8.65624 -3.65486 -4.68587 255 0 0
8.6545 -3.62997 -4.68265 255 0 0
8.68034 -3.60458 -4.68667 255 0 0
8.69482 -3.50228 -4.67943 255 0 0
8.69152 -3.46508 -4.6746 255 0 0
8.6869 -3.41558 -4.66816 255 0 0
8.69124 -3.35795 -4.66334 255 0 0
8.68952 -3.31 -4.65797 255 0 0
8.71026 -3.21193 -4.65368 255 0 0
8.72384 -3.15833 -4.65207 255 0 0
8.7428 -3.07171 -4.64885 255 0 0
8.78926 -2.97145 -4.65207 255 0 0
8.82113 -2.94732 -4.65851 255 0 0
8.84035 -2.90721 -4.66012 255 0 0
8.89495 -2.86684 -4.67138 255 0 0
9.09372 -2.83599 -4.72288 255 0 0
9.19921 -2.80916 -4.74943 255 0 0
9.2873 -2.8 -4.77277 255 0 0
9.48524 -2.78623 -4.82587 255 0 0
9.52425 -2.77317 -4.83553 255 0 0
9.71591 -2.77907 -4.88863 255 0 0
9.94696 -2.76877 -4.9514 255 0 0
10.0132 -2.76164 -4.9691 255 0 0
10.1175 -2.7646 -4.99806 255 0 0
10.1838 -2.75679 -5.01577 255 0 0
10.2664 -2.75305 -5.0383 255 0 0
10.4699 -2.75447 -5.09462 255 0 0
10.7456 -2.74543 -5.17026 255 0 0
10.7739 -2.72546 -5.17669 255 0 0
11.3124 -2.77623 -5.32957 255 0 0
7.71168 -3.56206 -4.97239 255 0 0
7.72328 -3.6343 -4.90735 255 0 0
7.79738 -3.14079 -4.94145 255 0 0
8.49496 -4.24626 -4.8003 255 0 0
8.49997 -4.22361 -4.79864 255 0 0
8.5301 -4.21339 -4.80527 255 0 0
8.51981 -4.17068 -4.79699 255 0 0
8.46297 -4.05614 -4.76718 255 0 0
8.46719 -4.0212 -4.76387 255 0 0
8.44079 -3.97193 -4.75062 255 0 0
8.45863 -3.90708 -4.74731 255 0 0
8.44948 -3.86646 -4.73985 255 0 0
8.47482 -3.81746 -4.74068 255 0 0
8.45097 -3.66301 -4.71584 255 0 0
8.43636 -3.59744 -4.70425 255 0 0
8.43683 -3.53867 -4.69763 255 0 0
8.46491 -3.51512 -4.70259 255 0 0
8.4477 -3.4611 -4.69183 255 0 0
8.46024 -3.40781 -4.68935 255 0 0
8.48815 -3.36069 -4.69183 255 0 0
8.50398 -3.2972 -4.68935 255 0 0
8.50517 -3.2629 -4.68603 255 0 0
8.52329 -3.14296 -4.67858 255 0 0
8.55898 -3.0528 -4.67941 255 0 0
8.57841 -2.91152 -4.67113 255 0 0
8.63356 -2.86189 -4.68189 255 0 0
8.73317 -2.83758 -4.70756 255 0 0
8.82142 -2.82008 -4.73075 255 0 0
8.8602 -2.80934 -4.74068 255 0 0
9.07438 -2.78281 -4.79864 255 0 0
9.16155 -2.7858 -4.82348 255 0 0
9.2219 -2.78028 -4.84004 255 0 0
9.45816 -2.75393 -4.90463 255 0 0
9.51862 -2.74707 -4.92119 255 0 0
9.5683 -2.73685 -4.93443 255 0 0
9.7542 -2.74005 -4.98743 255 0 0
10.0118 -2.73573 -5.06029 255 0 0
10.182 -2.73041 -5.10831 255 0 0
10.2699 -2.72789 -5.13315 255 0 0
10.462 -2.72589 -5.1878 255 0 0
10.5772 -2.72914 -5.22092 255 0 0
11.0486 -2.76708 -5.35837 255 0 0
8.02401 -4.16662 -4.83008 255 0 0
7.78408 -4.19559 -5.09422 255 0 0
7.89126 -2.95249 -4.94822 255 0 0
8.15924 -3.05277 -4.72688 255 0 0
8.22325 -4.30729 -4.82124 255 0 0
8.2086 -4.27484 -4.81273 255 0 0
8.2487 -4.24613 -4.81954 255 0 0
8.24729 -4.0494 -4.7923 255 0 0
8.23768 -3.9602 -4.77783 255 0 0
8.23127 -3.84953 -4.76165 255 0 0
8.21368 -3.69983 -4.73781 255 0 0
8.23546 -3.65109 -4.73781 255 0 0
8.23885 -3.5595 -4.7276 255 0 0
8.22572 -3.51914 -4.71908 255 0 0
8.26977 -3.39964 -4.71738 255 0 0
8.2818 -3.3702 -4.71738 255 0 0
8.26393 -3.29461 -4.70376 255 0 0
8.38952 -3.05979 -4.71398 255 0 0
8.35988 -3.02654 -4.70206 255 0 0
8.33542 -2.96195 -4.68844 255 0 0
8.34145 -2.91958 -4.68588 255 0 0
8.38698 -2.89095 -4.6961 255 0 0
8.72882 -2.8133 -4.78719 255 0 0
8.77282 -2.80454 -4.79911 255 0 0
9.01846 -2.78908 -4.86892 255 0 0
9.15486 -2.78377 -4.90808 255 0 0
9.30215 -2.78043 -4.95064 255 0 0
9.42274 -2.76787 -4.98469 255 0 0
9.50996 -2.76901 -5.01023 255 0 0
9.5757 -2.76354 -5.02896 255 0 0
9.65764 -2.7624 -5.0528 255 0 0
9.71806 -2.75477 -5.06982 255 0 0
9.80007 -2.75294 -5.09366 255 0 0
9.88753 -2.75223 -5.1192 255 0 0
10.1664 -2.75209 -5.20093 255 0 0
10.3526 -2.74988 -5.25541 255 0 0
10.616 -2.73915 -5.33203 255 0 0
7.8002 -3.42497 -4.90169 255 0 0
7.71331 -3.50749 -4.80776 255 0 0
8.09227 -4.04498 -4.83183 255 0 0
8.92597 -2.76047 -4.92453 255 0 0
7.89643 -4.28034 -4.97629 255 0 0
7.64423 -3.88922 -5.32505 255 0 0
8.453 -2.76872 -4.86562 255 0 0
8.02889 -4.21763 -4.83883 255 0 0
8.12523 -4.09762 -4.84845 255 0 0
8.05419 -3.9073 -4.80209 255 0 0
8.01115 -3.81626 -4.77761 255 0 0
7.96967 -3.77335 -4.76012 255 0 0
8.0235 -3.76397 -4.77411 255 0 0
7.97678 -3.63872 -4.74437 255 0 0
7.98374 -3.56215 -4.7365 255 0 0
8.02438 -3.41051 -4.72921 255 0 0
8.04391 -3.37387 -4.73038 255 0 0
8.07252 -3.36338 -4.73738 255 0 0
8.12723 -3.22895 -4.73738 255 0 0
8.03839 -3.1496 -4.70239 255 0 0
8.13664 -3.14367 -4.73038 255 0 0
8.0723 -2.9658 -4.6919 255 0 0
8.12555 -2.90908 -4.70152 255 0 0
8.12796 -2.87736 -4.6989 255 0 0
8.19802 -2.8803 -4.71989 255 0 0
8.38121 -2.81137 -4.76711 255 0 0
8.45147 -2.81267 -4.7881 255 0 0
8.58819 -2.79047 -4.82658 255 0 0
8.66924 -2.7941 -4.85107 255 0 0
8.76352 -2.75583 -4.87556 255 0 0
9.06192 -2.7555 -4.96476 255 0 0
9.18613 -2.7695 -5.00324 255 0 0
9.32891 -2.74031 -5.04347 255 0 0
9.40513 -2.73849 -5.06621 255 0 0
9.65555 -2.73705 -5.14142 255 0 0
9.78147 -2.7227 -5.17816 255 0 0
9.98293 -2.72784 -5.23937 255 0 0
10.3207 -2.7414 -5.34257 255 0 0
7.6374 -4.05831 -5.10723 255 0 0
7.9179 -4.29198 -4.90153 255 0 0
7.86428 -4.23882 -4.87819 255 0 0
7.87683 -4.20952 -4.87729 255 0 0
7.91398 -4.1453 -4.87819 255 0 0
7.89257 -3.99205 -4.84946 255 0 0
7.87433 -3.94772 -4.83779 255 0 0
7.8655 -3.89672 -4.82792 255 0 0
7.8534 -3.83292 -4.81535 255 0 0
7.84742 -3.80699 -4.80996 255 0 0
7.83521 -3.75529 -4.79919 255 0 0
7.83467 -3.69807 -4.79111 255 0 0
7.79679 -3.60138 -4.76687 255 0 0
7.78505 -3.57358 -4.75969 255 0 0
7.82814 -3.55972 -4.77046 255 0 0
7.84781 -3.41264 -4.757 255 0 0
7.8805 -3.30534 -4.75311 255 0 0
7.91242 -3.25273 -4.7561 255 0 0
7.9083 -3.19638 -4.74802 255 0 0
7.98572 -3.05278 -4.7543 255 0 0
7.99318 -2.87237 -4.73635 255 0 0
8.0401 -2.85697 -4.74892 255 0 0
8.09228 -2.84315 -4.76328 255 0 0
8.17485 -2.81782 -4.78572 255 0 0
8.27853 -2.79878 -4.81535 255 0 0
8.38226 -2.77858 -4.84498 255 0 0
8.52314 -2.76934 -4.88717 255 0 0
8.66358 -2.76962 -4.93026 255 0 0
8.70732 -2.76086 -4.94283 255 0 0
8.8832 -2.75877 -4.9967 255 0 0
8.96755 -2.75005 -5.02183 255 0 0
9.14057 -2.75576 -5.0757 255 0 0
9.31502 -2.73623 -5.12777 255 0 0
9.48853 -2.73838 -5.18163 255 0 0
9.64618 -2.7344 -5.23011 255 0 0
9.82011 -2.73346 -5.28398 255 0 0
10.0265 -2.73975 -5.34861 255 0 0
7.91404 -4.25356 -4.97721 255 0 0
7.83101 -4.11369 -4.93116 255 0 0
7.80292 -4.00497 -4.9063 255 0 0
7.73692 -3.90181 -4.8713 255 0 0
7.73087 -3.86433 -4.86394 255 0 0
7.73503 -3.84351 -4.8621 255 0 0
7.71686 -3.70982 -4.83723 255 0 0
7.71999 -3.59928 -4.8225 255 0 0
7.72183 -3.55566 -4.81697 255 0 0
7.72127 -3.45604 -4.80316 255 0 0
7.73146 -3.40572 -4.79948 255 0 0
7.7464 -3.35762 -4.79763 255 0 0
7.75339 -3.3062 -4.79303 255 0 0
7.7737 -3.26053 -4.79334 255 0 0
7.78948 -3.21299 -4.79211 255 0 0
7.86392 -3.10277 -4.80132 255 0 0
7.89167 -2.98469 -4.79579 255 0 0
7.89963 -2.95562 -4.79487 255 0 0
7.89335 -2.86823 -4.7829 255 0 0
7.96257 -2.84007 -4.80132 255 0 0
8.09945 -2.80259 -4.83999 255 0 0
8.18104 -2.78746 -4.86394 255 0 0
8.2304 -2.77164 -4.87775 255 0 0
8.27449 -2.75377 -4.88972 255 0 0
8.69366 -2.81335 -5.02785 255 0 0
8.69692 -2.75756 -5.02325 255 0 0
8.66251 -2.74665 -5.01128 255 0 0
8.82931 -2.75353 -5.06469 255 0 0
8.88892 -2.74901 -5.08311 255 0 0
8.94855 -2.74423 -5.10152 255 0 0
9.00289 -2.73755 -5.1181 255 0 0
9.14358 -2.73303 -5.1623 255 0 0
9.39225 -2.73474 -5.2415 255 0 0
9.74418 -2.73723 -5.35385 255 0 0
7.82954 -4.30432 -5.04328 255 0 0
7.91378 -4.2655 -5.06216 255 0 0
7.87991 -4.22316 -5.04517 255 0 0
7.79699 -4.13126 -5.00552 255 0 0
7.73812 -4.07659 -4.97909 255 0 0
7.79195 -4.08138 -4.99608 255 0 0
7.82116 -4.06132 -5.00175 255 0 0
7.77643 -4.00302 -4.97909 255 0 0
7.71682 -3.94922 -4.95266 255 0 0
7.67539 -3.85937 -4.92623 255 0 0
7.72418 -3.86099 -4.94133 255 0 0
7.81695 -3.86113 -4.96965 255 0 0
7.81228 -3.80139 -4.95927 255 0 0
7.81772 -3.75831 -4.95455 255 0 0
7.79603 -3.71379 -4.94133 255 0 0
7.81984 -3.70241 -4.947 255 0 0
7.68669 -3.59484 -4.89036 255 0 0
7.78741 -3.60828 -4.9234 255 0 0
7.70702 -3.53776 -4.88847 255 0 0
7.80112 -3.55859 -4.92057 255 0 0
7.81458 -3.54237 -4.92245 255 0 0
7.81195 -3.50775 -4.91679 255 0 0
7.8022 -3.44793 -4.90546 255 0 0
7.81846 -3.4109 -4.90546 255 0 0
7.80255 -3.37098 -4.89508 255 0 0
7.64389 -3.22742 -4.82617 255 0 0
7.76607 -3.1496 -4.85449 255 0 0
7.87931 -3.04425 -4.87715 255 0 0
7.93826 -3.04541 -4.89602 255 0 0
7.88888 -2.94095 -4.86771 255 0 0
7.90754 -2.8416 -4.86204 255 0 0
7.93514 -2.83029 -4.86959 255 0 0
7.98697 -2.81678 -4.8847 255 0 0
8.03881 -2.80297 -4.8998 255 0 0
8.0821 -2.79659 -4.91302 255 0 0
8.10968 -2.78462 -4.92057 255 0 0
8.40001 -2.77344 -5.01307 255 0 0
8.67275 -2.79523 -5.10369 255 0 0
8.70175 -2.7591 -5.10936 255 0 0
8.75057 -2.75176 -5.12446 255 0 0
8.81527 -2.74916 -5.14523 255 0 0
8.90119 -2.75281 -5.17354 255 0 0
8.98718 -2.75607 -5.20186 255 0 0
9.07854 -2.76056 -5.23207 255 0 0
9.13813 -2.75502 -5.25095 255 0 0
8.73335 -2.75773 -5.29035 255 0 0
7.78913 -4.17451 -5.09229 255 0 0
7.7307 -4.09613 -5.06135 255 0 0
7.74039 -4.07779 -5.06135 255 0 0
7.77902 -4.02771 -5.06522 255 0 0
7.68864 -3.8889 -5.01493 255 0 0
7.66821 -3.85576 -5.00333 255 0 0
7.7762 -3.88699 -5.04201 255 0 0
7.7953 -3.87346 -5.04588 255 0 0
7.69947 -3.78043 -5.0014 255 0 0
7.8136 -3.72216 -5.02847 255 0 0
7.69114 -3.61918 -4.97432 255 0 0
7.66967 -3.58688 -4.96272 255 0 0
7.78541 -3.50691 -4.98786 255 0 0
7.78333 -3.45065 -4.97916 255 0 0
7.66772 -3.25893 -4.91534 255 0 0
7.64994 -3.25137 -4.90857 255 0 0
7.69712 -3.21769 -4.91921 255 0 0
7.85403 -3.20698 -4.96852 255 0 0
7.77402 -3.10998 -4.92984 255 0 0
7.73878 -3.064 -4.91244 255 0 0
7.7908 -3.05259 -4.92791 255 0 0
7.81775 -2.96734 -4.92598 255 0 0
7.83693 -2.90043 -4.92404 255 0 0
7.77634 -2.85707 -4.8989 255 0 0
7.97784 -2.80295 -4.95885 255 0 0
8.04327 -2.78316 -4.97819 255 0 0
8.07598 -2.77305 -4.98786 255 0 0
8.12439 -2.76816 -5.00333 255 0 0
8.32741 -2.77138 -5.07102 255 0 0
8.41859 -2.7685 -5.10099 255 0 0
8.76638 -2.77959 -5.21799 255 0 0
8.73077 -2.74553 -5.20252 255 0 0
8.92849 -2.76125 -5.27021 255 0 0
9.03012 -2.76924 -5.30502 255 0 0
9.18073 -2.76787 -5.3553 255 0 0
7.69657 -4.26694 -5.16167 255 0 0
7.67065 -4.21698 -5.14484 255 0 0
7.6496 -4.12311 -5.12208 255 0 0
7.63022 -4.08935 -5.1102 255 0 0
7.62974 -4.00794 -5.09634 255 0 0
7.63308 -3.9178 -5.08248 255 0 0
7.60536 -3.68956 -5.03695 255 0 0
7.6029 -3.64393 -5.02903 255 0 0
7.61394 -3.51692 -5.01319 255 0 0
8.31925 -2.75771 -5.1488 255 0 0
8.42589 -2.75984 -5.18543 255 0 0
8.48482 -2.75688 -5.20523 255 0 0
8.61327 -2.75353 -5.24878 255 0 0
7.70787 -4.22554 -5.24078 255 0 0
7.69375 -4.19411 -5.23065 255 0 0
7.65537 -4.14967 -5.21039 255 0 0
7.67012 -4.11073 -5.20837 255 0 0
7.64588 -4.06279 -5.19216 255 0 0
7.63598 -4.02278 -5.18204 255 0 0
7.60656 -3.98427 -5.16583 255 0 0
7.60624 -3.96115 -5.16178 255 0 0
7.77186 -4.16526 -5.33443 255 0 0
7.685 -4.04861 -5.28472 255 0 0
7.60026 -3.86685 -5.22466 255 0 0
7.69416 -4.00694 -5.36315 255 0 0
7.69394 -3.98366 -5.35892 255 0 0
7.66939 -3.94792 -5.3441 255 0 0
7.63332 -3.83822 -5.31235 255 0 0
7.62981 -3.80253 -5.30495 255 0 0
7.60908 -3.70252 -5.28061 255 0 0
7.59947 -3.60911 -5.26156 255 0 0
7.59672 -3.56377 -5.25309 255 0 0
