ply
format ascii 1.0
comment Created by Open3D
element vertex 401
property double x
property double y
property double z
property uchar red
property uchar green
property uchar blue
end_header
-20.0573 -3.97419 -4.13191 255 0 0
-20.0319 -4.26618 -4.30767 255 0 0
-17.8687 -3.40864 -5.28555 255 0 0
-19.9827 -3.27432 -4.11126 255 0 0
-19.9946 -3.86334 -4.638 255 0 0
-17.9784 -4.41215 -5.18489 255 0 0
-19.9625 -3.27101 -4.44965 255 0 0
-20.0196 -3.47564 -4.11855 255 0 0
-20.0138 -3.6705 -3.95072 255 0 0
-19.951 -3.51247 -4.45317 255 0 0
-17.8525 -3.58135 -5.28867 255 0 0
-19.9078 -2.77914 -4.43417 255 0 0
-19.9842 -3.4695 -4.62747 255 0 0
-20.7998 -2.85341 -4.18898 255 0 0
-20.049 -2.55692 -5.13232 255 0 0
-17.8709 -3.51898 -4.97801 255 0 0
-19.9775 -4.15566 -4.64326 255 0 0
-19.8526 -4.03156 -4.45317 255 0 0
-19.7896 -3.82371 -4.95236 255 0 0
-19.9402 -2.97672 -4.27161 255 0 0
-19.9013 -4.23838 -4.80796 255 0 0
-20.1271 -2.90713 -3.9496 255 0 0
-19.7481 -4.10795 -5.12605 255 0 0
-19.9569 -3.3187 -4.27948 255 0 0
-20.0391 -2.94294 -4.96678 255 0 0
-18.0064 -4.28345 -5.0262 255 0 0
-19.7722 -3.1917 -4.93369 255 0 0
-17.8484 -3.36093 -5.28035 255 0 0
-19.9524 -3.07534 -4.44472 255 0 0
-20.0737 -3.53408 -4.81276 255 0 0
-19.8516 -3.05981 -4.94217 255 0 0
-17.9097 -3.63702 -5.14418 255 0 0
-17.887 -3.14911 -4.96951 255 0 0
-20.1626 -3.50047 -3.9619 255 0 0
-20.7825 -2.65048 -4.8912 255 0 0
-17.9131 -3.28522 -5.13326 255 0 0
-19.6842 -3.85179 -5.27941 255 0 0
-19.9112 -3.6029 -4.45036 255 0 0
-17.8579 -3.67061 -5.29284 255 0 0
-17.9093 -3.90301 -4.99691 255 0 0
-19.7683 -2.66416 -4.92181 255 0 0
-20.0098 -4.31111 -4.65154 255 0 0
-21.0636 -2.58487 -5.1085 255 0 0
-17.8904 -3.0623 -4.96762 255 0 0
-19.9124 -2.97257 -4.77834 255 0 0
-19.9995 -2.55062 -5.29641 255 0 0
-20.023 -3.62314 -4.12158 255 0 0
-18.998 -2.56035 -5.29806 255 0 0
-19.9551 -2.83399 -4.27096 255 0 0
-19.6099 -4.32235 -5.28319 255 0 0
-19.9879 -3.7638 -4.46303 255 0 0
-20.01 -2.98714 -4.10944 255 0 0
-17.8782 -4.11882 -5.31365 255 0 0
-17.8852 -4.16512 -5.31677 255 0 0
-19.8066 -3.34199 -4.77194 255 0 0
-19.8477 -3.78615 -5.13143 255 0 0
-19.9357 -3.12118 -4.27358 255 0 0
-17.8694 -3.67298 -4.98274 255 0 0
-19.9517 -2.97845 -4.61317 255 0 0
-19.9265 -3.21662 -4.61468 255 0 0
-20.0018 -3.6683 -4.63424 255 0 0
-17.864 -3.58365 -4.97896 255 0 0
-17.8549 -3.23081 -5.27723 255 0 0
-19.9609 -3.22217 -4.27817 255 0 0
-20.0757 -4.17609 -4.13798 255 0 0
-20.0373 -3.57668 -4.12219 255 0 0
-20.3891 -2.79706 -4.31881 255 0 0
-21.7678 -2.6713 -5.02648 255 0 0
-20.0909 -2.95054 -4.63048 255 0 0
-19.7487 -2.7092 -5.08928 255 0 0
-17.8571 -3.86948 -5.30012 255 0 0
-20.0829 -3.04672 -3.94737 255 0 0
-17.9006 -3.41472 -5.13525 255 0 0
-20.8729 -2.71231 -4.54891 255 0 0
-20.1019 -3.63741 -4.64627 255 0 0
-19.9677 -3.56425 -4.28538 255 0 0
-20.1144 -3.29589 -3.95407 255 0 0
-20.0674 -3.82806 -3.95854 255 0 0
-20.1445 -3.399 -3.95854 255 0 0
-20.0641 -3.09255 -3.94625 255 0 0
-20.3091 -3.0318 -3.9686 255 0 0
-19.8958 -4.38537 -5.15743 255 0 0
-17.9125 -3.02239 -5.12532 255 0 0
-19.9904 -3.22693 -4.11126 255 0 0
-19.8066 -4.31648 -4.96933 255 0 0
-17.8492 -3.71294 -5.29284 255 0 0
-17.8539 -3.80234 -5.297 255 0 0
-19.965 -3.95591 -4.29325 255 0 0
-17.8781 -3.6306 -4.98274 255 0 0
-20.0018 -3.81554 -4.46584 255 0 0
-17.9182 -3.90495 -5.1551 255 0 0
-19.8033 -2.86036 -5.10094 255 0 0
-20.5634 -2.67209 -4.86159 255 0 0
-19.7969 -3.24388 -5.10901 255 0 0
-19.9316 -3.07213 -4.27227 255 0 0
-20.14 -3.59501 -3.96134 255 0 0
-19.8724 -2.82225 -4.43065 255 0 0
-19.8899 -2.58458 -4.93793 255 0 0
-19.9538 -2.93041 -4.78314 255 0 0
-19.7193 -4.19961 -5.29641 255 0 0
-19.8894 -3.40447 -4.61393 255 0 0
-17.9352 -4.22162 -5.16999 255 0 0
-19.8229 -3.63548 -5.12336 255 0 0
-20.1381 -2.90871 -4.63574 255 0 0
-19.7956 -2.76348 -4.92775 255 0 0
-19.9095 -2.82752 -4.94557 255 0 0
-21.7863 -2.67356 -4.84335 255 0 0
-20.1366 -2.6652 -4.63123 255 0 0
-17.9971 -4.37152 -5.02809 255 0 0
-19.9991 -3.42325 -4.11551 255 0 0
-19.9753 -3.41919 -4.28341 255 0 0
-19.9681 -4.20312 -4.81596 255 0 0
-19.8597 -3.54498 -4.78394 255 0 0
-20.1558 -3.79542 -4.83037 255 0 0
-18.08 -4.12019 -5.03187 255 0 0
-19.722 -4.10252 -5.29358 255 0 0
-19.9991 -4.11072 -4.81756 255 0 0
-20.1028 -3.63757 -3.95854 255 0 0
-19.8855 -4.28433 -4.80716 255 0 0
-19.9728 -3.76096 -4.63273 255 0 0
-17.8816 -2.75616 -4.95817 255 0 0
-20.1113 -4.23328 -4.14284 255 0 0
-19.9591 -4.1025 -4.29587 255 0 0
-19.8932 -3.55096 -4.61769 255 0 0
-19.9745 -4.05633 -4.29652 255 0 0
-17.944 -4.35862 -5.17694 255 0 0
-19.75 -4.30414 -5.30492 255 0 0
-19.8353 -2.76902 -4.59437 255 0 0
-17.8835 -3.6317 -5.29596 255 0 0
-19.5598 -2.82519 -5.23122 255 0 0
-19.9414 -2.92859 -4.27096 255 0 0
-19.9374 -3.07303 -4.61317 255 0 0
-21.2038 -2.60208 -5.31078 255 0 0
-20.0028 -3.03458 -4.10944 255 0 0
-18.1208 -4.17473 -5.04037 255 0 0
-19.9331 -3.02401 -4.61167 255 0 0
-19.9125 -4.06829 -4.63273 255 0 0
-19.9185 -3.84862 -4.45669 255 0 0
-17.8744 -3.76243 -4.98652 255 0 0
-17.9117 -3.77027 -5.14915 255 0 0
-19.78 -2.95281 -4.92945 255 0 0
-19.9471 -4.14934 -4.46725 255 0 0
-19.9834 -3.3231 -4.45317 255 0 0
-19.8387 -3.49271 -4.60941 255 0 0
-19.2557 -2.54861 -5.34175 255 0 0
-19.9131 -3.70086 -4.62371 255 0 0
-20.7223 -2.74272 -4.53131 255 0 0
-17.9345 -2.67731 -4.96479 255 0 0
-20.0196 -3.76978 -4.12401 255 0 0
-21.5481 -2.74812 -4.63056 255 0 0
-17.8762 -2.97269 -4.9629 255 0 0
-20.0192 -4.21388 -4.30505 255 0 0
-19.902 -3.99249 -4.4581 255 0 0
-19.9646 -3.51488 -4.28407 255 0 0
-20.0087 -3.66955 -4.12098 255 0 0
-19.9473 -3.7072 -4.97188 255 0 0
-20.149 -2.95907 -3.9524 255 0 0
-20.0394 -3.13741 -3.94457 255 0 0
-20.1125 -3.19773 -3.9524 255 0 0
-20.1164 -3.24726 -3.95351 255 0 0
-20.0375 -3.3321 -3.94737 255 0 0
-20.0962 -3.43987 -3.95463 255 0 0
-20.1485 -3.54725 -3.96134 255 0 0
-19.9936 -3.71581 -3.9496 255 0 0
-20.0936 -3.7837 -3.96022 255 0 0
-20.0468 -3.87341 -3.95743 255 0 0
-21.0489 -2.83675 -4.21449 255 0 0
-19.862 -3.01321 -4.43276 255 0 0
-20.2459 -3.81238 -5.0177 255 0 0
-20.1464 -3.71948 -4.82717 255 0 0
-17.875 -4.02893 -5.30949 255 0 0
-19.8517 -2.81931 -4.59738 255 0 0
-21.2461 -2.81205 -4.23452 255 0 0
-20.5161 -2.86407 -4.15984 255 0 0
-20.0653 -2.84965 -4.11308 255 0 0
-20.0527 -2.89638 -4.11248 255 0 0
-19.9956 -3.082 -4.10944 255 0 0
-19.9882 -3.1294 -4.10944 255 0 0
-19.9865 -3.1777 -4.11005 255 0 0
-19.9784 -3.37098 -4.11248 255 0 0
-20.0285 -3.52613 -4.12037 255 0 0
-20.0679 -3.82815 -4.13008 255 0 0
-19.8414 -3.20287 -4.77354 255 0 0
-20.0723 -3.92774 -4.13251 255 0 0
-20.0935 -4.0309 -4.13676 255 0 0
-20.1067 -4.08316 -4.13919 255 0 0
-19.9792 -3.66415 -4.28866 255 0 0
-17.9242 -3.86176 -4.99786 255 0 0
-19.9541 -3.65954 -4.45669 255 0 0
-17.8887 -4.30031 -5.32302 255 0 0
-18.0497 -2.60707 -5.29388 255 0 0
-17.8789 -3.98528 -5.30845 255 0 0
-19.9261 -3.1681 -4.44332 255 0 0
-19.7149 -4.24757 -5.29736 255 0 0
-21.5864 -2.753 -4.4519 255 0 0
-21.3894 -2.77943 -4.43026 255 0 0
-21.0078 -2.78051 -4.38765 255 0 0
-20.6724 -2.78601 -4.35028 255 0 0
-20.0424 -2.79793 -4.28013 255 0 0
-19.931 -2.8788 -4.26899 255 0 0
-19.933 -3.02399 -4.27161 255 0 0
-19.9398 -3.17026 -4.27489 255 0 0
-19.9647 -3.27137 -4.27948 255 0 0
-19.9776 -3.37085 -4.28276 255 0 0
-19.9729 -3.46753 -4.28407 255 0 0
-19.9821 -3.61573 -4.288 255 0 0
-19.9476 -3.70725 -4.28604 255 0 0
-19.973 -3.761 -4.28997 255 0 0
-19.964 -3.80834 -4.28997 255 0 0
-19.9721 -3.85898 -4.29194 255 0 0
-19.9572 -3.90521 -4.29128 255 0 0
-19.9898 -4.0101 -4.29718 255 0 0
-20.0006 -4.16048 -4.30177 255 0 0
-19.7507 -2.90058 -5.09376 255 0 0
-19.8407 -3.05813 -4.77034 255 0 0
-17.8492 -2.92472 -5.26682 255 0 0
-21.6815 -2.71289 -4.64605 255 0 0
-20.2434 -2.72819 -4.47359 255 0 0
-19.9834 -2.74141 -4.44261 255 0 0
-19.8541 -2.8677 -4.42924 255 0 0
-19.9048 -2.92321 -4.43628 255 0 0
-19.9668 -2.9807 -4.44472 255 0 0
-19.8475 -3.10736 -4.43276 255 0 0
-19.8956 -3.21163 -4.4405 255 0 0
-19.9239 -3.36177 -4.44684 255 0 0
-17.8598 -2.70946 -5.26266 255 0 0
-19.8733 -3.45025 -4.44261 255 0 0
-19.8911 -3.55058 -4.44684 255 0 0
-19.9453 -3.70684 -4.45669 255 0 0
-19.9264 -3.89918 -4.4588 255 0 0
-19.9342 -3.94981 -4.46091 255 0 0
-19.9056 -4.0915 -4.46091 255 0 0
-19.9485 -4.19901 -4.46866 255 0 0
-19.9897 -4.2572 -4.47499 255 0 0
-18.7517 -2.57244 -5.25637 255 0 0
-21.8471 -2.41849 -5.21967 255 0 0
-17.908 -2.76023 -5.11738 255 0 0
-21.9021 -2.63508 -4.85764 255 0 0
-21.6243 -2.70575 -4.82304 255 0 0
-20.6496 -2.6833 -4.69742 255 0 0
-19.9345 -2.68657 -4.60565 255 0 0
-19.8648 -2.72514 -4.59738 255 0 0
-19.8727 -3.11131 -4.60565 255 0 0
-19.9857 -3.17757 -4.62145 255 0 0
-19.9341 -3.9007 -4.63123 255 0 0
-19.9818 -3.95924 -4.63875 255 0 0
-19.8983 -3.99176 -4.62897 255 0 0
-19.905 -4.18986 -4.63499 255 0 0
-19.9064 -4.23946 -4.63649 255 0 0
-19.8778 -3.88968 -4.79515 255 0 0
-17.8468 -2.79412 -5.26266 255 0 0
-17.9036 -3.72426 -5.14617 255 0 0
-19.8393 -4.07787 -4.96678 255 0 0
-17.8699 -3.2773 -4.97046 255 0 0
-21.8547 -2.62938 -5.03768 255 0 0
-21.7557 -2.72218 -5.02568 255 0 0
-20.1315 -2.66452 -4.80235 255 0 0
-19.8894 -2.68048 -4.76953 255 0 0
-19.8198 -2.71896 -4.76073 255 0 0
-19.8018 -2.76434 -4.75913 255 0 0
-19.8641 -2.82107 -4.76873 255 0 0
-20.2075 -2.91874 -4.81756 255 0 0
-19.9225 -3.02239 -4.78074 255 0 0
-19.9308 -3.12041 -4.78394 255 0 0
-19.9234 -3.16766 -4.78394 255 0 0
-19.7135 -3.23021 -4.75673 255 0 0
-19.8374 -3.29883 -4.77514 255 0 0
-19.8101 -3.3909 -4.77354 255 0 0
-20.0192 -3.47557 -4.80395 255 0 0
-20.1195 -3.6406 -4.82156 255 0 0
-20.3576 -3.88341 -4.85998 255 0 0
-19.8016 -3.82603 -4.78314 255 0 0
-19.897 -3.94244 -4.79915 255 0 0
-19.8876 -3.9896 -4.79915 255 0 0
-19.952 -4.05175 -4.80956 255 0 0
-19.8417 -4.12742 -4.79675 255 0 0
-19.9037 -4.33764 -4.81116 255 0 0
-17.9512 -3.73416 -4.99786 255 0 0
-17.8994 -3.81202 -4.99219 255 0 0
-17.9254 -4.08496 -5.16304 255 0 0
-17.8511 -3.18644 -5.27514 255 0 0
-17.8685 -3.76118 -5.29804 255 0 0
-21.9444 -2.27139 -5.23155 255 0 0
-22.6015 -2.44778 -5.33 255 0 0
-21.7944 -2.62212 -5.21543 255 0 0
-20.6948 -2.63929 -5.05589 255 0 0
-20.3327 -2.93683 -5.00922 255 0 0
-19.8083 -3.14936 -4.93793 255 0 0
-19.81 -3.3184 -4.94217 255 0 0
-19.8928 -3.45362 -4.95745 255 0 0
-19.8191 -3.53773 -4.94896 255 0 0
-20.1699 -3.6497 -5.00243 255 0 0
-19.919 -3.94679 -4.97442 255 0 0
-19.83 -3.97805 -4.96254 255 0 0
-19.892 -4.13788 -4.97612 255 0 0
-19.8495 -4.22733 -4.97272 255 0 0
-17.917 -4.17254 -5.16503 255 0 0
-19.7034 -4.04993 -5.28885 255 0 0
-20.5545 -2.57188 -5.21034 255 0 0
-19.8592 -2.58059 -5.10363 255 0 0
-19.767 -2.61628 -5.09018 255 0 0
-19.7642 -2.80689 -5.09376 255 0 0
-19.7094 -2.94228 -5.08838 255 0 0
-19.7539 -2.99681 -5.09645 255 0 0
-19.7452 -3.09134 -5.09735 255 0 0
-19.6846 -3.17756 -5.09018 255 0 0
-19.8052 -3.3176 -5.11215 255 0 0
-19.7505 -3.3807 -5.10542 255 0 0
-19.7571 -3.47834 -5.10901 255 0 0
-19.8428 -3.59053 -5.12515 255 0 0
-19.8142 -3.68247 -5.12336 255 0 0
-19.777 -3.72409 -5.11887 255 0 0
-19.8068 -3.87578 -5.12784 255 0 0
-19.879 -3.98787 -5.14219 255 0 0
-19.8297 -4.02693 -5.13591 255 0 0
-19.8938 -4.08908 -5.14757 255 0 0
-19.7496 -4.15715 -5.12784 255 0 0
-19.8259 -4.27147 -5.14308 255 0 0
-17.9019 -3.21741 -5.12929 255 0 0
-17.9615 -2.63781 -5.12333 255 0 0
-17.8561 -2.8824 -5.26682 255 0 0
-20.2807 -2.53763 -5.34176 255 0 0
-19.7929 -2.57197 -5.26334 255 0 0
-19.4544 -2.57491 -5.20855 255 0 0
-19.3567 -2.60868 -5.19343 255 0 0
-18.9955 -2.60588 -5.13485 255 0 0
-18.869 -2.63413 -5.11501 255 0 0
-19.3605 -2.74955 -5.19721 255 0 0
-18.0894 -2.65661 -4.98935 255 0 0
-17.8995 -2.71549 -4.96006 255 0 0
-17.8979 -2.80213 -4.96195 255 0 0
-17.9106 -2.86943 -4.96573 255 0 0
-17.8775 -2.92936 -4.96195 255 0 0
-17.8976 -3.01987 -4.96762 255 0 0
-17.9001 -3.10768 -4.97046 255 0 0
-17.8624 -3.18846 -4.96668 255 0 0
-17.8776 -3.23492 -4.97046 255 0 0
-17.8564 -3.3186 -4.96951 255 0 0
-17.8371 -3.35879 -4.96762 255 0 0
-17.8574 -3.40649 -4.97235 255 0 0
-17.8039 -3.44005 -4.96479 255 0 0
-17.8549 -3.93551 -4.98935 255 0 0
-18.0993 -4.03441 -5.03187 255 0 0
-18.1517 -4.09129 -5.04226 255 0 0
-18.094 -4.21375 -5.03754 255 0 0
-18.0108 -4.23942 -5.02525 255 0 0
-18.0299 -4.33424 -5.03187 255 0 0
-17.9213 -4.12875 -5.16404 255 0 0
-17.8563 -3.3186 -5.28035 255 0 0
-17.9409 -2.63479 -5.27514 255 0 0
-18.5913 -2.59536 -5.22956 255 0 0
-18.328 -2.60292 -5.18489 255 0 0
-18.1333 -2.61914 -5.15212 255 0 0
-17.9152 -2.67443 -5.11638 255 0 0
-17.9202 -2.71863 -5.11837 255 0 0
-17.9128 -2.80447 -5.11936 255 0 0
-17.9198 -2.8709 -5.12234 255 0 0
-17.9038 -2.93368 -5.12135 255 0 0
-17.9082 -2.97801 -5.12333 255 0 0
-17.9053 -3.06485 -5.12532 255 0 0
-17.8979 -3.10729 -5.12532 255 0 0
-17.9019 -3.15172 -5.1273 255 0 0
-17.9052 -3.32769 -5.13326 255 0 0
-17.903 -3.3712 -5.13425 255 0 0
-17.8981 -3.45825 -5.13624 255 0 0
-17.9012 -3.50289 -5.13822 255 0 0
-17.9084 -3.57049 -5.1417 255 0 0
-17.8898 -3.67715 -5.1422 255 0 0
-17.9083 -3.81393 -5.15014 255 0 0
-17.9161 -3.86002 -5.15312 255 0 0
-17.9089 -3.94742 -5.1551 255 0 0
-17.9201 -4.01677 -5.15957 255 0 0
-17.9251 -4.26413 -5.16999 255 0 0
-17.943 -4.31336 -5.17496 255 0 0
-17.8453 -3.11996 -5.27202 255 0 0
-18.2441 -2.591 -5.32822 255 0 0
-19.6574 -3.55697 -5.26618 255 0 0
-18.4956 -2.582 -5.37297 255 0 0
-17.8776 -2.66881 -5.26474 255 0 0
-17.8571 -2.83915 -5.26578 255 0 0
-17.8479 -2.96798 -5.26786 255 0 0
-17.8578 -3.01317 -5.27098 255 0 0
-17.879 -3.06036 -5.27618 255 0 0
-17.8585 -3.27522 -5.27931 255 0 0
-17.8508 -3.47105 -5.28451 255 0 0
-17.861 -3.53901 -5.28867 255 0 0
-17.8658 -3.93792 -5.30428 255 0 0
-17.8767 -4.07386 -5.31157 255 0 0
-17.8877 -4.25522 -5.32094 255 0 0
-17.8901 -4.368 -5.32614 255 0 0
-17.8074 -4.41497 -5.31365 255 0 0
-19.6713 -3.70419 -5.27279 255 0 0
-19.6733 -3.99515 -5.28224 255 0 0
-19.6568 -3.74974 -5.27185 255 0 0
-19.6202 -3.50223 -5.25862 255 0 0
-19.6773 -3.60878 -5.2709 255 0 0
-19.6687 -3.65543 -5.2709 255 0 0
-19.6649 -3.79962 -5.27468 255 0 0
-19.6863 -3.90069 -5.2813 255 0 0
-19.6544 -3.94281 -5.27752 255 0 0
-19.7292 -4.15284 -5.29641 255 0 0
