ply
format ascii 1.0
comment Created by Open3D
element vertex 638
property double x
property double y
property double z
property uchar red
property uchar green
property uchar blue
end_header
-3.92957 13.9253 -4.86247 0 0 255
-5.17033 13.2419 -4.93526 0 0 255
-4.37219 13.1897 -4.39065 0 0 255
-5.57307 13.2432 -5.09148 0 0 255
-4.80323 12.9782 -4.97755 0 0 255
-5.00312 13.2761 -4.68442 0 0 255
-4.93773 13.2932 -4.31854 0 0 255
-5.2638 15.039 -4.19882 255 0 0
-3.94697 15.5252 -4.756 0 0 255
-3.85945 13.3138 -5.10334 0 0 255
-4.79031 13.6862 -4.24724 0 0 255
-4.86679 13.6961 -4.25262 0 0 255
-4.00037 15.5804 -4.49295 0 0 255
-3.83784 13.2392 -5.20649 0 0 255
-4.44193 13.4001 -4.30815 0 0 255
-3.95692 14.1505 -4.65383 0 0 255
-5.06271 13.2435 -4.4393 0 0 255
-4.05274 13.6769 -4.45419 0 0 255
-4.35426 14.7586 -4.25394 0 0 255
-3.9525 12.9433 -5.14812 0 0 255
-5.43292 12.9101 -5.25823 0 0 255
-4.2975 13.2263 -4.39264 0 0 255
-4.35006 13.4423 -4.31004 0 0 255
-3.73082 14.675 -5.38988 0 0 255
-3.97482 15.6347 -4.50012 0 0 255
-4.95129 13.2335 -4.9175 0 0 255
-5.04857 13.301 -4.3261 0 0 255
-5.29054 13.0008 -5.02005 0 0 255
-4.30223 13.4577 -4.31004 0 0 255
-3.93641 15.3313 -4.72324 0 0 255
-4.21718 14.6778 -4.23697 0 0 255
-3.96386 13.7962 -4.71599 0 0 255
-4.0077 15.0162 -4.40865 0 0 255
-3.86172 14.6082 -5.11997 0 0 255
-5.38429 13.6939 -4.28042 0 0 255
-4.90458 13.3005 -4.68224 0 0 255
-4.10119 13.2612 -4.50709 0 0 255
-4.16905 15.0466 -4.28704 0 0 255
-4.72104 13.2859 -4.30532 0 0 255
-4.00267 14.7169 -4.62396 0 0 255
-4.0128 14.7542 -4.49994 0 0 255
-3.82571 13.3153 -5.46643 0 0 255
-5.27965 14.3177 -4.23527 0 0 255
-4.07843 13.1324 -4.72042 0 0 255
-3.84807 12.9299 -5.49482 0 0 255
-4.05327 13.5022 -4.4254 0 0 255
-4.08839 14.3578 -4.3136 0 0 255
-3.81424 14.2914 -5.18263 0 0 255
-4.17933 13.3455 -4.52583 0 0 255
-5.19746 13.1273 -4.79315 0 0 255
-3.91557 15.7133 -5.34375 0 0 255
-4.79756 13.2028 -5.02251 0 0 255
-4.48102 13.4114 -4.31193 0 0 255
-4.80071 13.2604 -4.30579 0 0 255
-3.839 14.9519 -5.18746 0 0 255
-5.1116 13.2769 -4.93763 0 0 255
-4.94816 14.1372 -5.09274 0 0 255
-3.6781 16.2288 -5.29201 0 0 255
-3.98427 14.7877 -4.63488 0 0 255
-4.70254 13.6952 -4.2441 0 0 255
-4.49652 14.6008 -4.23782 0 0 255
-3.89652 15.959 -5.24996 0 0 255
-4.54406 13.0821 -4.73974 0 0 255
-4.18045 13.1304 -4.7261 0 0 255
-3.77991 13.5175 -5.38827 0 0 255
-4.89144 13.6627 -4.24903 0 0 255
-3.86086 12.9728 -5.26736 0 0 255
-3.80741 13.999 -5.24788 0 0 255
-4.75605 12.9925 -4.97694 0 0 255
-5.39441 13.1221 -4.80678 0 0 255
-4.25757 13.8249 -4.24186 0 0 255
-3.89787 12.8736 -5.36552 0 0 255
-3.98238 15.6644 -4.64261 0 0 255
-3.93111 13.8055 -4.83974 0 0 255
-5.05853 14.4525 -4.24291 0 0 255
-4.22728 13.1694 -4.85593 0 0 255
-4.9537 13.9407 -5.05485 0 0 255
-4.43883 13.3907 -4.79088 0 0 255
-4.06276 13.0819 -4.94738 0 0 255
-4.11615 14.1993 -4.29118 0 0 255
-4.55269 13.2079 -4.40356 0 0 255
-5.12709 14.0061 -5.07971 0 0 255
-5.00085 13.27 -4.92815 0 0 255
-4.64792 13.33 -4.30815 0 0 255
-4.47478 13.2879 -4.77383 0 0 255
-3.99506 15.259 -4.44452 0 0 255
-3.91545 14.5322 -4.8477 0 0 255
-4.04816 14.2165 -4.4168 0 0 255
-4.02221 14.9285 -4.3961 0 0 255
-3.98914 14.2657 -4.5485 0 0 255
-5.23779 15.1954 -4.21803 255 0 0
-4.76032 13.2964 -4.3091 0 0 255
-4.01259 14.6165 -4.47821 0 0 255
-4.74549 14.4303 -4.22509 0 0 255
-3.9915 14.0809 -4.64343 0 0 255
-3.9348 14.4674 -4.83682 0 0 255
-3.99374 13.6559 -4.81474 0 0 255
-3.96194 12.8649 -5.2495 0 0 255
-4.64511 12.8783 -5.06496 0 0 255
-4.0521 13.1577 -4.60495 0 0 255
-3.80731 13.8687 -5.21974 0 0 255
-5.12895 14.4338 -4.24376 0 0 255
-3.8542 16.117 -5.27837 0 0 255
-4.05568 14.6374 -4.35395 0 0 255
-4.09678 15.4234 -4.33753 0 0 255
-3.97653 13.3615 -4.75792 0 0 255
-5.27716 14.0033 -4.19199 0 0 255
-3.82995 13.6964 -5.18392 0 0 255
-4.93283 13.1842 -4.54248 0 0 255
-4.9459 13.6615 -4.25172 0 0 255
-3.96051 14.5619 -4.72564 0 0 255
-5.34777 13.2764 -4.58515 0 0 255
-5.38968 13.155 -4.68986 0 0 255
-5.087 14.4241 -4.24036 0 0 255
-5.09478 13.3274 -4.69966 0 0 255
-3.9347 15.7901 -4.79968 0 0 255
-4.15 13.59 -4.32327 0 0 255
-5.29388 13.1878 -4.81133 0 0 255
-3.94691 13.6155 -4.68224 0 0 255
-5.21422 13.2614 -4.5737 0 0 255
-5.03867 13.2749 -4.6866 0 0 255
-4.49105 13.13 -4.62564 0 0 255
-4.39661 13.2633 -5.0065 0 0 255
-5.26151 12.9294 -5.12508 0 0 255
-4.95018 13.2306 -4.43036 0 0 255
-5.22777 14.2812 -4.22763 0 0 255
-4.02419 14.7961 -4.37637 0 0 255
-4.00003 15.2779 -4.58214 0 0 255
-5.07229 14.0627 -5.08682 0 0 255
-4.25482 13.5303 -4.31902 0 0 255
-4.70263 12.8939 -5.07263 0 0 255
-3.8962 12.8681 -5.48307 0 0 255
-4.00018 15.132 -4.42569 0 0 255
-4.18172 12.9221 -5.04065 0 0 255
-4.45544 13.3349 -4.53936 0 0 255
-4.41087 14.6934 -4.24715 0 0 255
-5.38667 13.237 -4.82724 0 0 255
-4.31275 14.7467 -4.25055 0 0 255
-3.89943 14.7509 -4.88689 0 0 255
-3.91674 13.2757 -4.97817 0 0 255
-5.27324 14.1965 -4.2183 0 0 255
-4.99987 13.3634 -4.82269 0 0 255
-3.94306 12.9124 -5.25911 0 0 255
-3.9213 15.5788 -4.90153 0 0 255
-5.27219 13.6941 -4.27414 0 0 255
-4.23985 13.2086 -4.38668 0 0 255
-4.01961 14.3747 -4.44042 0 0 255
-5.26298 13.3854 -4.35161 0 0 255
-3.84582 16.4259 -5.33746 0 0 255
-4.02556 14.6637 -4.35664 0 0 255
-5.29185 13.942 -4.18435 0 0 255
-3.8951 12.9753 -5.38969 0 0 255
-5.28826 13.084 -4.91394 0 0 255
-4.86814 12.9179 -5.09054 0 0 255
-5.10569 13.2616 -4.68877 0 0 255
-3.98937 15.386 -4.46335 0 0 255
-4.05464 12.8937 -5.14414 0 0 255
-3.86773 16.1736 -5.43374 0 0 255
-5.34858 13.509 -4.25172 0 0 255
-4.05544 15.6409 -4.36681 0 0 255
-3.9307 14.0567 -4.76171 0 0 255
-3.84948 13.5188 -5.14683 0 0 255
-4.00698 13.0662 -4.9406 0 0 255
-3.91739 12.938 -5.26324 0 0 255
-4.44402 14.6774 -4.2463 0 0 255
-4.65351 15.2389 -4.19882 255 0 0
-4.74211 13.1962 -4.41249 0 0 255
-3.91921 15.1154 -4.82035 0 0 255
-4.4269 13.0433 -4.72497 0 0 255
-4.82053 13.4646 -4.58307 0 0 255
-3.93605 13.1684 -4.95723 0 0 255
-4.18057 14.8148 -4.25479 0 0 255
-3.81176 15.1436 -5.35999 0 0 255
-4.30227 12.8765 -5.03938 0 0 255
-4.67864 13.2662 -4.78292 0 0 255
-3.81312 14.5641 -5.23928 0 0 255
-4.12926 12.864 -5.14282 0 0 255
-3.89104 15.0068 -5.06701 0 0 255
-3.95915 15.4199 -4.60293 0 0 255
-5.30465 13.6815 -4.27414 0 0 255
-4.38594 14.7371 -4.25224 0 0 255
-4.26182 13.277 -4.51854 0 0 255
-4.95626 13.9479 -4.92837 0 0 255
-3.83244 15.2257 -5.24193 0 0 255
-4.13194 14.1284 -4.28131 0 0 255
-5.25921 13.2374 -4.57266 0 0 255
-4.14931 13.1403 -4.7261 0 0 255
-3.81624 13.2824 -5.33606 0 0 255
-4.9142 13.3266 -4.32232 0 0 255
-3.58991 16.1956 -5.28178 0 0 255
-4.52425 14.5679 -4.23442 0 0 255
-4.5988 13.764 -4.24903 0 0 255
-4.1579 15.1458 -4.30062 0 0 255
-4.54839 14.524 -4.22933 0 0 255
-3.88799 13.064 -5.17067 0 0 255
-3.92169 13.7724 -4.70946 0 0 255
-4.61284 13.1792 -4.64196 0 0 255
-3.89721 14.4645 -4.9636 0 0 255
-5.35812 13.7228 -4.28311 0 0 255
-5.50714 13.1738 -4.94828 0 0 255
-4.29557 13.2739 -4.88079 0 0 255
-5.06349 13.9347 -4.80525 0 0 255
-3.78961 13.8042 -5.4556 0 0 255
-4.59356 12.9271 -5.07136 0 0 255
-5.00435 13.2317 -4.43384 0 0 255
-4.17909 13.9213 -4.25262 0 0 255
-4.46806 13.8069 -4.24903 0 0 255
-3.99223 13.8949 -4.61117 0 0 255
-5.1025 13.1602 -4.42838 0 0 255
-4.08949 13.7411 -4.34405 0 0 255
-4.50682 13.1253 -4.74542 0 0 255
-4.09995 13.3131 -4.39661 0 0 255
-5.05283 13.7025 -4.26338 0 0 255
-3.80352 15.2637 -5.38462 0 0 255
-4.34327 13.3673 -4.65938 0 0 255
-4.12111 13.6109 -4.32516 0 0 255
-4.16118 13.1779 -4.61475 0 0 255
-4.40188 13.8828 -4.2571 0 0 255
-4.21126 13.7907 -4.23468 0 0 255
-5.00521 13.2816 -4.80792 0 0 255
-4.35213 13.3406 -4.7761 0 0 255
-3.8257 14.472 -5.22081 0 0 255
-5.19568 13.2143 -4.6866 0 0 255
-4.37298 13.2975 -4.76928 0 0 255
-3.98318 12.9339 -5.14812 0 0 255
-4.98572 13.926 -4.79872 0 0 255
-3.85431 15.3126 -5.12383 0 0 255
-3.74003 14.5665 -5.36685 0 0 255
-5.09453 13.3268 -4.33272 0 0 255
-4.38192 13.432 -4.31004 0 0 255
-4.18871 14.7101 -4.24036 0 0 255
-3.8687 12.8873 -5.24812 0 0 255
-3.97485 15.7915 -4.66245 0 0 255
-5.28097 15.088 -5.16246 255 0 0
-4.85356 14.4126 -4.22763 0 0 255
-3.77628 13.8846 -5.47346 0 0 255
-4.01637 14.4955 -4.45932 0 0 255
-4.78151 14.4245 -4.22594 0 0 255
-3.95666 16.0402 -4.70119 0 0 255
-4.97734 13.3031 -4.32232 0 0 255
-4.88372 13.5399 -4.59972 0 0 255
-3.90833 13.0193 -5.04321 0 0 255
-3.99694 13.6668 -4.69422 0 0 255
-3.81159 13.7565 -5.32059 0 0 255
-4.83893 13.219 -4.54248 0 0 255
-5.20915 13.1568 -5.04468 0 0 255
-4.66402 13.742 -4.24903 0 0 255
-5.50782 12.9164 -5.38964 0 0 255
-5.1448 13.3632 -4.34122 0 0 255
-3.99936 14.5683 -4.59914 0 0 255
-3.95197 14.7373 -4.75583 0 0 255
-5.18554 14.3766 -4.23867 0 0 255
-4.84882 13.246 -4.30626 0 0 255
-4.16423 13.9922 -4.26248 0 0 255
-4.67879 14.4581 -4.22594 0 0 255
-4.10605 13.0572 -5.06432 0 0 255
-3.83099 14.2188 -5.04064 0 0 255
-5.14861 13.0945 -5.02744 0 0 255
-3.84739 13.3908 -5.24099 0 0 255
-4.1403 15.3667 -4.33117 0 0 255
-5.22072 13.3709 -4.34689 0 0 255
-5.3993 13.268 -4.58723 0 0 255
-4.10877 13.687 -4.33649 0 0 255
-3.93167 12.8751 -5.48748 0 0 255
-5.16098 13.2179 -4.44128 0 0 255
-5.09851 14.031 -4.95337 0 0 255
-4.58979 14.5353 -4.23273 0 0 255
-4.0483 14.4773 -4.32974 0 0 255
-4.3075 13.87 -4.25083 0 0 255
-4.89109 15.2374 -4.20842 255 0 0
-4.64273 14.4637 -4.22509 0 0 255
-4.62219 13.7256 -4.24455 0 0 255
-4.34271 13.2055 -4.39164 0 0 255
-3.89903 14.2028 -4.78674 0 0 255
-5.23929 15.3175 -4.23404 255 0 0
-4.16476 13.299 -4.3976 0 0 255
-3.77297 14.0034 -5.50094 0 0 255
-3.85489 15.3149 -4.98813 0 0 255
-3.90637 13.2405 -5.09054 0 0 255
-3.90658 14.0993 -4.76824 0 0 255
-4.06508 13.7784 -4.34878 0 0 255
-4.54621 13.7692 -4.24724 0 0 255
-5.2129 15.0076 -4.19241 255 0 0
-3.94316 14.3636 -4.69026 0 0 255
-4.27939 14.7624 -4.2514 0 0 255
-4.8583 13.175 -4.53623 0 0 255
-4.36083 13.3673 -4.90329 0 0 255
-3.83914 13.6048 -5.16474 0 0 255
-4.53342 13.3572 -4.30626 0 0 255
-5.23665 13.3184 -4.46213 0 0 255
-5.39681 13.4442 -4.36862 0 0 255
-3.8924 16.1078 -5.27837 0 0 255
-4.4486 13.3144 -4.65612 0 0 255
-4.04572 15.7571 -4.38293 0 0 255
-4.0529 15.4799 -4.3439 0 0 255
-4.15239 15.2674 -4.31759 0 0 255
-4.17663 14.9362 -4.27176 0 0 255
-4.46358 14.6169 -4.23867 0 0 255
-4.61369 14.4912 -4.22763 0 0 255
-4.71306 14.447 -4.22594 0 0 255
-4.80652 14.3856 -4.22169 0 0 255
-4.87841 14.3737 -4.22339 0 0 255
-4.94833 14.411 -4.23188 0 0 255
-5.14753 14.378 -4.23697 0 0 255
-5.20774 14.3316 -4.23357 0 0 255
-5.27034 14.0863 -4.20302 0 0 255
-5.3042 13.8752 -4.17587 0 0 255
-5.32668 13.8356 -4.17163 0 0 255
-4.44238 13.8395 -4.25262 0 0 255
-3.97199 15.9397 -4.54585 0 0 255
-5.11201 13.965 -4.94201 0 0 255
-5.1474 13.0915 -4.78292 0 0 255
-3.78258 13.4044 -5.36216 0 0 255
-3.99988 15.891 -4.53958 0 0 255
-4.06847 14.4175 -4.32167 0 0 255
-4.10804 14.298 -4.30553 0 0 255
-4.15724 14.0908 -4.27683 0 0 255
-4.197 13.8615 -4.24455 0 0 255
-4.36458 13.9371 -4.26338 0 0 255
-4.49719 13.7853 -4.24724 0 0 255
-4.73887 13.6429 -4.23827 0 0 255
-4.82853 13.6912 -4.24993 0 0 255
-5.00442 13.671 -4.25621 0 0 255
-5.09135 13.7068 -4.26607 0 0 255
-5.14208 13.7435 -4.27414 0 0 255
-5.16037 13.6933 -4.26786 0 0 255
-5.21108 13.6803 -4.26876 0 0 255
-4.45237 13.3257 -4.77951 0 0 255
-4.44475 13.1987 -4.51542 0 0 255
-3.99646 13.3129 -4.62999 0 0 255
-3.97512 15.9523 -4.68796 0 0 255
-3.987 15.3769 -4.59726 0 0 255
-3.99489 15.112 -4.55569 0 0 255
-4.00985 15.0243 -4.54246 0 0 255
-4.02291 14.9311 -4.52829 0 0 255
-4.05054 14.354 -4.43853 0 0 255
-4.05154 14.1014 -4.39885 0 0 255
-4.056 13.9918 -4.38184 0 0 255
-4.07619 13.9378 -4.37429 0 0 255
-4.1618 13.5139 -4.31193 0 0 255
-4.2144 13.5702 -4.32327 0 0 255
-4.39751 13.3721 -4.30154 0 0 255
-4.50174 13.3679 -4.30626 0 0 255
-4.56134 13.3355 -4.30437 0 0 255
-4.60424 13.3574 -4.31004 0 0 255
-4.69337 13.308 -4.30721 0 0 255
-5.0109 13.2967 -4.32327 0 0 255
-5.17229 13.3402 -4.33933 0 0 255
-5.31172 13.4159 -4.35917 0 0 255
-5.35422 13.4301 -4.36389 0 0 255
-3.81962 13.6595 -5.29936 0 0 255
-5.27778 13.058 -4.78633 0 0 255
-3.93642 16.1225 -4.85528 0 0 255
-3.95806 16.0459 -4.84336 0 0 255
-3.91297 15.5457 -4.75798 0 0 255
-3.95972 15.2717 -4.7143 0 0 255
-3.94914 15.0836 -4.68253 0 0 255
-3.96425 14.9961 -4.66863 0 0 255
-3.96706 14.864 -4.64679 0 0 255
-3.98304 14.3752 -4.56637 0 0 255
-4.00728 14.2007 -4.53858 0 0 255
-3.98247 13.9858 -4.50184 0 0 255
-4.03315 14.0373 -4.51276 0 0 255
-4.0134 13.8448 -4.48 0 0 255
-4.0535 13.3876 -4.40653 0 0 255
-4.08523 13.3779 -4.40653 0 0 255
-4.14006 13.3309 -4.40157 0 0 255
-4.18933 13.2671 -4.39363 0 0 255
-4.21552 13.2406 -4.39065 0 0 255
-4.40162 13.1738 -4.38966 0 0 255
-4.45213 13.169 -4.39164 0 0 255
-4.51389 13.1968 -4.39959 0 0 255
-4.57264 13.1643 -4.3976 0 0 255
-4.60574 13.1589 -4.39859 0 0 255
-4.65036 13.186 -4.40554 0 0 255
-4.69128 13.2021 -4.41051 0 0 255
-4.80759 13.1817 -4.41398 0 0 255
-4.89406 13.2237 -4.42589 0 0 255
-5.09824 13.2423 -4.44128 0 0 255
-5.24909 13.2577 -4.4532 0 0 255
-5.28906 13.2666 -4.45717 0 0 255
-5.34415 13.313 -4.46809 0 0 255
-5.39797 13.3099 -4.47107 0 0 255
-4.6426 13.2642 -5.02374 0 0 255
-5.105 12.8938 -5.10461 0 0 255
-5.21872 15.1401 -5.16814 255 0 0
-3.83778 13.1226 -5.42095 0 0 255
-3.89582 16.2911 -5.02537 0 0 255
-3.94557 16.2435 -5.01913 0 0 255
-3.93984 15.972 -4.97125 0 0 255
-3.90525 15.6719 -4.91714 0 0 255
-3.90854 15.374 -4.8651 0 0 255
-3.93208 15.3144 -4.85573 0 0 255
-3.92731 15.0002 -4.80058 0 0 255
-3.9393 14.9017 -4.78392 0 0 255
-3.96336 14.3042 -4.68089 0 0 255
-4.01073 13.8356 -4.6018 0 0 255
-4.03705 13.804 -4.59764 0 0 255
-4.05347 13.7391 -4.58723 0 0 255
-4.02686 13.5306 -4.54976 0 0 255
-4.04568 13.4769 -4.54144 0 0 255
-4.05591 13.3956 -4.52791 0 0 255
-4.07252 13.3363 -4.51854 0 0 255
-4.19361 13.2806 -4.51542 0 0 255
-4.21809 13.2487 -4.51126 0 0 255
-4.2791 13.223 -4.51022 0 0 255
-4.34852 13.2762 -4.52322 0 0 255
-4.37304 13.1922 -4.51022 0 0 255
-4.50837 13.2319 -4.52479 0 0 255
-4.53664 13.1613 -4.51438 0 0 255
-4.59052 13.2158 -4.52687 0 0 255
-4.63517 13.2429 -4.53415 0 0 255
-4.67805 13.2645 -4.5404 0 0 255
-4.77123 13.4271 -4.5737 0 0 255
-4.88432 13.4416 -4.58307 0 0 255
-4.9136 13.2283 -4.54872 0 0 255
-4.99253 13.248 -4.55705 0 0 255
-5.04233 13.2846 -4.56641 0 0 255
-5.1129 13.3748 -4.58619 0 0 255
-5.18187 13.4595 -4.60492 0 0 255
-5.14711 13.2752 -4.57162 0 0 255
-5.16809 13.2361 -4.56641 0 0 255
-5.44822 13.2978 -4.59555 0 0 255
-4.35443 12.88 -5.04385 0 0 255
-3.98906 12.953 -5.03426 0 0 255
-3.67063 16.3759 -5.17537 0 0 255
-3.69673 16.311 -5.16448 0 0 255
-3.71998 16.2349 -5.15142 0 0 255
-3.75716 16.2204 -5.15033 0 0 255
-3.85656 16.2976 -5.16883 0 0 255
-3.87244 16.1933 -5.15033 0 0 255
-3.88369 15.9065 -5.09808 0 0 255
-3.84698 15.5956 -5.03929 0 0 255
-3.87135 15.2277 -4.97289 0 0 255
-3.89456 15.1683 -4.96309 0 0 255
-3.88864 14.9975 -4.93153 0 0 255
-3.87902 14.8158 -4.89778 0 0 255
-3.91511 14.6693 -4.87274 0 0 255
-3.95621 14.0197 -4.75626 0 0 255
-3.97965 13.372 -4.63979 0 0 255
-4.013 13.2538 -4.62019 0 0 255
-4.03098 13.2003 -4.61148 0 0 255
-4.11742 13.2579 -4.62672 0 0 255
-4.0921 13.067 -4.5908 0 0 255
-4.16623 13.0858 -4.59842 0 0 255
-4.23066 13.1799 -4.6191 0 0 255
-4.39619 13.3681 -4.66265 0 0 255
-4.41339 13.314 -4.65394 0 0 255
-4.39569 13.053 -4.60604 0 0 255
-4.43032 13.0534 -4.60822 0 0 255
-4.50717 13.0758 -4.61693 0 0 255
-4.54949 13.0977 -4.62346 0 0 255
-4.91962 13.9495 -4.79872 0 0 255
-4.9758 14.0028 -4.81178 0 0 255
-5.03824 13.9683 -4.8096 0 0 255
-5.11629 13.9766 -4.81614 0 0 255
-4.94211 13.305 -4.68551 0 0 255
-4.98574 13.3256 -4.69204 0 0 255
-5.2224 13.4694 -4.7334 0 0 255
-5.16015 13.2158 -4.68442 0 0 255
-5.2037 13.1431 -4.67462 0 0 255
-5.24764 13.1627 -4.68115 0 0 255
-5.29812 13.1983 -4.69095 0 0 255
-5.31215 13.143 -4.68224 0 0 255
-5.38667 13.237 -4.70401 0 0 255
-5.43183 13.1688 -4.6953 0 0 255
-3.78173 14.5852 -5.37325 0 0 255
-4.78292 13.7697 -5.00985 0 0 255
-3.63207 16.2038 -5.28519 0 0 255
-3.75255 16.2883 -5.30678 0 0 255
-3.85036 16.2714 -5.30791 0 0 255
-3.90683 15.8382 -5.22723 0 0 255
-3.89438 15.6283 -5.18632 0 0 255
-3.87786 15.2533 -5.1136 0 0 255
-3.85259 15.0049 -5.06474 0 0 255
-3.88442 14.8364 -5.03405 0 0 255
-3.8917 14.7216 -5.01246 0 0 255
-3.91178 14.6569 -5.0011 0 0 255
-3.90587 14.361 -4.94428 0 0 255
-3.8882 14.1634 -4.90565 0 0 255
-3.92484 14.1652 -4.90792 0 0 255
-3.92284 14.0286 -4.88178 0 0 255
-3.99715 13.912 -4.8636 0 0 255
-3.94216 13.5991 -4.8011 0 0 255
-3.98343 13.2695 -4.74088 0 0 255
-4.00323 13.2216 -4.73292 0 0 255
-4.0401 13.1743 -4.7261 0 0 255
-4.12844 13.183 -4.73292 0 0 255
-4.18699 13.0439 -4.71019 0 0 255
-4.2409 13.105 -4.72497 0 0 255
-4.59594 13.1309 -4.75224 0 0 255
-5.03772 14.0713 -4.95678 0 0 255
-5.07692 14.0755 -4.96019 0 0 255
-4.89869 13.2845 -4.8011 0 0 255
-4.94217 13.3052 -4.80792 0 0 255
-5.06726 13.3502 -4.82497 0 0 255
-5.08659 13.306 -4.81815 0 0 255
-5.11813 13.2939 -4.81815 0 0 255
-5.11849 13.2014 -4.8011 0 0 255
-5.16857 13.2374 -4.81133 0 0 255
-5.25197 13.1736 -4.80565 0 0 255
-5.47188 13.1771 -4.82269 0 0 255
-4.44096 12.8837 -5.05089 0 0 255
-3.83496 13.59 -5.28477 0 0 255
-3.80564 16.4297 -5.48229 0 0 255
-3.83674 16.3872 -5.47518 0 0 255
-3.84258 16.2385 -5.44558 0 0 255
-3.89529 16.1198 -5.42427 0 0 255
-3.89678 15.9601 -5.3923 0 0 255
-3.90714 15.8395 -5.36862 0 0 255
-4.49997 13.156 -4.99172 0 0 255
-3.84965 14.1543 -5.0288 0 0 255
-3.86498 14.0788 -5.01459 0 0 255
-3.90191 13.7649 -4.9542 0 0 255
-3.94795 13.3814 -4.88079 0 0 255
-3.94532 13.2566 -4.85593 0 0 255
-3.9619 13.1978 -4.84527 0 0 255
-3.99045 13.1233 -4.83224 0 0 255
-4.04927 13.0932 -4.82988 0 0 255
-4.14752 13.1346 -4.84409 0 0 255
-4.39967 13.3787 -4.90802 0 0 255
-4.44541 13.3575 -4.90684 0 0 255
-4.47459 13.2873 -4.895 0 0 255
-4.67177 13.5533 -4.96012 0 0 255
-4.85579 13.7685 -5.01459 0 0 255
-4.92489 13.7561 -5.01696 0 0 255
-5.02924 13.8404 -5.04064 0 0 255
-4.948 13.4183 -4.95302 0 0 255
-4.93387 13.2829 -4.92578 0 0 255
-5.073 13.3654 -4.95183 0 0 255
-5.07191 13.2676 -4.93289 0 0 255
-5.0788 13.099 -4.90092 0 0 255
-5.2164 13.2669 -4.94355 0 0 255
-5.24784 13.2545 -4.94355 0 0 255
-5.2389 13.1408 -4.92105 0 0 255
-5.29995 13.2029 -4.93763 0 0 255
-5.35751 13.1208 -4.92638 0 0 255
-5.39869 13.0884 -4.92342 0 0 255
-5.4363 13.0915 -4.92697 0 0 255
-3.79973 15.7243 -5.48069 0 0 255
-3.79084 15.5262 -5.43881 0 0 255
-3.81119 15.4505 -5.42403 0 0 255
-3.82367 15.0402 -5.33905 0 0 255
-3.79669 14.7871 -5.28485 0 0 255
-3.803 14.6673 -5.26022 0 0 255
-3.82578 14.1994 -5.16415 0 0 255
-3.86394 14.2069 -5.16785 0 0 255
-3.87033 14.0983 -5.14568 0 0 255
-3.87471 13.9843 -5.12227 0 0 255
-3.88473 13.8924 -5.1038 0 0 255
-3.87879 13.7454 -5.07301 0 0 255
-3.96794 13.105 -4.94615 0 0 255
-4.11771 13.1487 -4.96462 0 0 255
-4.14888 13.1389 -4.96462 0 0 255
-4.14529 13.02 -4.93999 0 0 255
-4.20386 13.0433 -4.94861 0 0 255
-4.3512 13.2843 -5.00773 0 0 255
-4.44255 13.2963 -5.01635 0 0 255
-4.45397 13.2261 -5.0028 0 0 255
-4.4522 13.1179 -4.98063 0 0 255
-4.57592 13.2752 -5.02128 0 0 255
-4.60175 13.2481 -5.01758 0 0 255
-4.66832 13.2369 -5.02005 0 0 255
-4.71886 13.2798 -5.03236 0 0 255
-4.74671 13.209 -5.02005 0 0 255
-4.85436 12.9745 -4.98063 0 0 255
-4.89116 12.979 -4.98433 0 0 255
-4.92395 12.9727 -4.98556 0 0 255
-5.01193 13.1107 -5.02005 0 0 255
-5.00187 12.9919 -4.99541 0 0 255
-5.04094 13.0014 -5.00034 0 0 255
-5.06134 12.9627 -4.99418 0 0 255
-5.20217 13.0487 -5.02251 0 0 255
-5.23999 13.0089 -5.01758 0 0 255
-5.34305 13.0412 -5.03236 0 0 255
-5.38487 13.0549 -5.03852 0 0 255
-5.41361 13.0368 -5.03729 0 0 255
-5.46438 13.0715 -5.04837 0 0 255
-5.29432 12.9222 -5.12636 0 0 255
-3.74065 14.8611 -5.43081 0 0 255
-3.72761 15.1117 -5.48454 0 0 255
-3.74271 15.0196 -5.46535 0 0 255
-3.77867 14.4325 -5.33999 0 0 255
-3.78367 14.313 -5.3144 0 0 255
-3.78813 14.1936 -5.28882 0 0 255
-3.77718 14.019 -5.25044 0 0 255
-3.81882 13.7826 -5.20183 0 0 255
-3.86416 13.4492 -5.13276 0 0 255
-3.87817 13.2607 -5.0931 0 0 255
-3.90516 13.1217 -5.06496 0 0 255
-3.94084 13.0155 -5.04449 0 0 255
-3.955 12.9515 -5.0317 0 0 255
-4.02146 12.949 -5.03554 0 0 255
-4.15333 13.0452 -5.06496 0 0 255
-4.15107 12.932 -5.04065 0 0 255
-4.24831 12.9184 -5.04449 0 0 255
-4.26634 12.8704 -5.03554 0 0 255
-4.4141 12.905 -5.05345 0 0 255
-5.07023 12.8952 -5.10206 0 0 255
-5.14402 12.9028 -5.10973 0 0 255
-5.1995 12.9083 -5.11549 0 0 255
-5.35109 12.973 -5.14171 0 0 255
-5.38183 12.9603 -5.14171 0 0 255
-5.42577 12.9791 -5.14939 0 0 255
-5.46983 12.9978 -5.15706 0 0 255
-5.49394 12.969 -5.15322 0 0 255
-3.77027 14.541 -5.49438 0 0 255
-3.78162 14.4437 -5.47315 0 0 255
-3.77942 14.2969 -5.43998 0 0 255
-3.7986 14.2328 -5.42672 0 0 255
-3.79673 14.0916 -5.39488 0 0 255
-3.79121 13.9395 -5.36038 0 0 255
-3.82425 13.9304 -5.36038 0 0 255
-3.83125 13.4547 -5.25425 0 0 255
-3.88203 13.2739 -5.21711 0 0 255
-3.87476 13.1334 -5.18527 0 0 255
-3.91076 13.0274 -5.16404 0 0 255
-3.93337 12.9908 -5.15741 0 0 255
-4.02399 12.9571 -5.15608 0 0 255
-4.09702 12.8684 -5.14149 0 0 255
-5.39569 12.9072 -5.25425 0 0 255
-5.49688 12.976 -5.27813 0 0 255
-3.76913 13.6032 -5.40751 0 0 255
-3.78786 13.3024 -5.33881 0 0 255
-3.83505 13.2296 -5.32507 0 0 255
-3.81528 13.0456 -5.2811 0 0 255
-3.84137 13.0202 -5.27698 0 0 255
-3.82835 13.4446 -5.4977 0 0 255
-3.82089 13.1808 -5.43374 0 0 255
-3.83674 13.0045 -5.39253 0 0 255
-3.86756 12.9954 -5.39253 0 0 255
-3.94663 12.9241 -5.38116 0 0 255
-3.97893 12.9201 -5.38258 0 0 255
-4.03167 12.874 -5.37547 0 0 255
-3.82061 12.9498 -5.49775 0 0 255
-5.04568 15.2214 -4.89632 255 0 0
-5.15279 15.1232 -5.16076 255 0 0
-5.19618 14.9594 -5.13292 255 0 0
