ply
format ascii 1.0
comment Created by Open3D
element vertex 701
property double x
property double y
property double z
property uchar red
property uchar green
property uchar blue
end_header
7.54943 -2.2176 -4.32006 255 0 0
7.63369 -2.70238 -4.60887 255 0 0
6.81561 -3.16779 -4.14837 255 0 0
7.55244 -3.04213 -4.77331 255 0 0
8.62118 -2.0941 -5.18741 255 0 0
7.98926 -2.0412 -4.88536 255 0 0
8.26852 -2.34387 -4.37957 255 0 0
7.39414 -2.03931 -4.54163 255 0 0
7.48698 -2.25722 -4.23527 255 0 0
6.78133 -2.25684 -4.23713 255 0 0
5.95708 -2.04548 -4.26286 255 0 0
7.6362 -3.11803 -4.73317 255 0 0
7.34449 -3.54152 -4.70186 255 0 0
7.65395 -3.4477 -4.17472 255 0 0
6.80769 -2.25666 -4.11471 255 0 0
8.49946 -2.08589 -5.2266 255 0 0
7.7875 -2.13786 -4.60168 255 0 0
7.58745 -2.68601 -4.08514 255 0 0
7.52163 -2.86514 -4.08514 255 0 0
7.36732 -3.48816 -4.47731 255 0 0
6.82384 -3.33043 -4.23891 255 0 0
7.75815 -2.00176 -4.87857 255 0 0
8.11336 -3.77097 -4.71908 255 0 0
7.53101 -3.55471 -4.83656 255 0 0
7.75837 -2.15957 -4.5945 255 0 0
6.16986 -2.41747 -4.31873 255 0 0
8.26572 -3.10377 -4.68333 255 0 0
6.89632 -2.27696 -4.07595 255 0 0
8.46847 -3.24882 -4.67444 255 0 0
8.26672 -2.97067 -4.74962 255 0 0
6.19253 -2.73659 -4.36902 255 0 0
7.17251 -3.35438 -4.12166 255 0 0
8.17037 -3.82105 -4.74122 255 0 0
6.76152 -2.23245 -4.16403 255 0 0
6.37851 -1.91478 -4.33034 255 0 0
6.3098 -2.05018 -4.2598 255 0 0
6.76661 -2.80047 -4.35929 255 0 0
8.11429 -2.03221 -5.00527 255 0 0
6.64998 -3.46315 -4.21076 255 0 0
7.29447 -3.43252 -4.45007 255 0 0
7.2392 -3.49075 -4.36974 255 0 0
7.49912 -2.2803 -4.1702 255 0 0
8.17612 -3.59003 -4.7951 255 0 0
8.3135 -3.05442 -4.61151 255 0 0
7.50989 -3.00431 -4.09542 255 0 0
6.57715 -1.93199 -4.46282 255 0 0
7.58016 -3.11612 -4.79156 255 0 0
8.64972 -2.14452 -4.87101 255 0 0
8.1693 -3.06757 -4.89156 255 0 0
8.29067 -2.07638 -4.91113 255 0 0
7.12287 -2.96773 -4.0676 255 0 0
6.42128 -2.13701 -4.30511 255 0 0
7.7089 -3.31968 -4.70403 255 0 0
8.54338 -2.18277 -4.76012 255 0 0
5.17607 -2.45068 -4.22023 255 0 0
8.1243 -2.91949 -4.78123 255 0 0
7.15239 -3.30373 -4.11105 255 0 0
7.16671 -2.67172 -4.04942 255 0 0
7.2864 -2.25341 -4.24885 255 0 0
7.22953 -2.27344 -4.09833 255 0 0
7.08088 -1.95291 -4.70807 255 0 0
6.27648 -1.97371 -4.36383 255 0 0
6.7439 -1.92898 -4.3243 255 0 0
6.85889 -2.24658 -4.06308 255 0 0
7.29413 -2.3509 -4.05346 255 0 0
8.27373 -3.01756 -4.67652 255 0 0
6.05513 -1.95157 -4.34551 255 0 0
8.18196 -2.97311 -4.80458 255 0 0
6.15683 -1.96825 -4.32225 255 0 0
8.25627 -2.10942 -4.74532 255 0 0
7.00478 -2.91852 -4.37531 255 0 0
6.80649 -2.91196 -4.11619 255 0 0
7.49127 -3.02782 -4.09322 255 0 0
6.06882 -1.97188 -4.29256 255 0 0
8.24545 -3.14085 -4.76186 255 0 0
7.61635 -2.25688 -4.27068 255 0 0
8.27911 -3.27795 -4.78723 255 0 0
8.25743 -2.57518 -4.78662 255 0 0
6.22482 -2.31219 -4.32357 255 0 0
6.62146 -2.12542 -4.17678 255 0 0
7.72713 -2.23005 -4.37139 255 0 0
6.8683 -2.56048 -4.09527 255 0 0
7.69469 -2.33976 -4.155 255 0 0
7.25542 -2.01957 -4.49559 255 0 0
7.34609 -2.60057 -4.36835 255 0 0
6.89422 -2.72961 -4.05302 255 0 0
6.83681 -2.81056 -4.11297 255 0 0
6.95483 -2.33291 -4.09687 255 0 0
6.80999 -2.17705 -4.10809 255 0 0
7.77798 -2.45604 -4.11304 255 0 0
8.96155 -2.28961 -4.81103 255 0 0
7.51409 -1.97684 -4.79146 255 0 0
8.29339 -3.20423 -4.70206 255 0 0
6.72618 -2.83994 -4.1528 255 0 0
8.23339 -2.98075 -4.74087 255 0 0
6.87499 -2.05495 -4.37771 255 0 0
7.91345 -2.30416 -4.35597 255 0 0
7.34471 -2.57072 -4.36494 255 0 0
7.29044 -2.2926 -4.53242 255 0 0
7.14491 -2.15409 -4.40418 255 0 0
8.17173 -3.1239 -4.89893 255 0 0
8.11181 -2.23724 -4.55734 255 0 0
6.68656 -3.39199 -4.21076 255 0 0
8.28208 -3.06519 -4.6839 255 0 0
6.38559 -2.0748 -4.22485 255 0 0
7.20184 -2.57837 -4.04967 255 0 0
6.84822 -3.32225 -4.17573 255 0 0
8.27686 -3.04096 -4.76012 255 0 0
8.16608 -2.18982 -4.64642 255 0 0
6.37462 -2.05454 -4.21932 255 0 0
7.2265 -3.51634 -4.58912 255 0 0
7.68166 -2.58683 -4.09983 255 0 0
6.2291 -2.35589 -4.33034 255 0 0
8.16093 -3.04237 -4.88604 255 0 0
6.8874 -2.53046 -4.09741 255 0 0
6.82851 -2.7788 -4.10733 255 0 0
7.16712 -3.56132 -4.57834 255 0 0
6.88291 -2.22737 -4.06791 255 0 0
7.96878 -2.05611 -5.03418 255 0 0
8.20516 -3.23741 -4.92287 255 0 0
8.01694 -3.22923 -4.86394 255 0 0
7.24111 -3.59809 -4.53098 255 0 0
6.79261 -2.94421 -4.11619 255 0 0
6.28299 -2.02501 -4.24848 255 0 0
7.19248 -3.57392 -4.66134 255 0 0
8.23256 -2.37591 -4.29594 255 0 0
7.75761 -3.18909 -4.62543 255 0 0
6.15271 -1.93482 -4.37792 255 0 0
5.42712 -2.57742 -4.27197 255 0 0
6.85322 -2.64781 -4.10009 255 0 0
7.61643 -2.00376 -4.75579 255 0 0
8.62591 -2.11692 -4.94313 255 0 0
8.25752 -2.36192 -4.37801 255 0 0
7.32375 -2.20801 -4.25547 255 0 0
7.17341 -2.18126 -4.21076 255 0 0
8.51837 -2.11195 -4.90814 255 0 0
8.19746 -3.25685 -4.92287 255 0 0
6.59303 -3.3741 -4.25086 255 0 0
7.33567 -3.49449 -4.76765 255 0 0
7.24823 -2.48882 -4.05346 255 0 0
6.62271 -2.09989 -4.3022 255 0 0
7.16502 -2.08624 -4.40418 255 0 0
6.86517 -3.00471 -4.0749 255 0 0
8.01504 -2.12896 -4.67171 255 0 0
7.45541 -2.18998 -4.36153 255 0 0
6.46619 -1.78336 -4.3471 255 0 0
8.76016 -2.34913 -4.59253 255 0 0
8.06203 -2.08017 -4.75896 255 0 0
6.79372 -2.81169 -4.1017 255 0 0
6.42675 -1.82179 -4.33743 255 0 0
6.87986 -2.7807 -4.05458 255 0 0
6.31397 -2.11794 -4.33034 255 0 0
7.40541 -2.52318 -4.30681 255 0 0
8.28423 -3.13316 -4.77236 255 0 0
8.6277 -2.37952 -4.478 255 0 0
7.69469 -3.48802 -4.79948 255 0 0
8.19825 -3.62296 -4.80559 255 0 0
6.41154 -1.96621 -4.40936 255 0 0
8.20724 -3.17095 -4.91551 255 0 0
7.57225 -3.28214 -4.81107 255 0 0
6.83618 -3.3767 -4.17948 255 0 0
7.11974 -3.45397 -4.33331 255 0 0
6.39282 -1.88609 -4.33227 255 0 0
7.74595 -2.53713 -4.11158 255 0 0
7.76519 -2.3411 -4.17318 255 0 0
7.14352 -3.26887 -4.10499 255 0 0
6.40037 -1.94619 -4.40342 255 0 0
7.73656 -2.48338 -4.10497 255 0 0
7.10464 -2.17876 -4.46243 255 0 0
6.4658 -2.15183 -4.38449 255 0 0
7.98604 -2.34585 -4.30457 255 0 0
7.61755 -3.31251 -4.75251 255 0 0
8.08657 -3.59655 -4.85126 255 0 0
6.22339 -2.0221 -4.28973 255 0 0
7.89726 -2.27914 -4.34953 255 0 0
6.73608 -2.11827 -4.2749 255 0 0
6.84239 -3.26946 -4.16768 255 0 0
7.24279 -2.25876 -4.514 255 0 0
6.48608 -2.43552 -4.35986 255 0 0
7.6835 -3.2227 -4.68428 255 0 0
7.38549 -2.57518 -4.30626 255 0 0
6.50984 -1.91222 -4.50147 255 0 0
8.26598 -3.07037 -4.76012 255 0 0
7.15575 -2.73549 -4.0527 255 0 0
8.26608 -3.31819 -4.7881 255 0 0
8.18648 -2.11228 -4.72378 255 0 0
7.73957 -2.56556 -4.11231 255 0 0
6.87555 -2.83602 -4.05927 255 0 0
6.59207 -1.95337 -4.27826 255 0 0
8.36871 -2.31878 -4.48229 255 0 0
8.18862 -2.0302 -5.03101 255 0 0
6.72702 -2.95375 -4.10009 255 0 0
6.40966 -1.85805 -4.33517 255 0 0
7.58184 -3.4694 -4.16003 255 0 0
7.05984 -1.9471 -4.6311 255 0 0
6.31074 -2.42103 -4.36515 255 0 0
7.78667 -2.42837 -4.11304 255 0 0
6.87196 -2.95927 -4.13872 255 0 0
6.78899 -3.4541 -4.17734 255 0 0
8.09639 -2.37826 -4.26108 255 0 0
6.36286 -2.08411 -4.28057 255 0 0
6.32473 -2.02192 -4.26169 255 0 0
7.22939 -3.51775 -4.66411 255 0 0
7.52628 -2.82611 -4.0827 255 0 0
6.31137 -2.00117 -4.3168 255 0 0
8.22352 -2.03885 -4.96465 255 0 0
6.11019 -1.96932 -4.30642 255 0 0
6.90715 -2.64984 -4.04833 255 0 0
6.57101 -1.91327 -4.26782 255 0 0
8.4109 -2.10649 -4.87315 255 0 0
8.27926 -2.19915 -4.6814 255 0 0
8.17041 -2.04626 -4.94725 255 0 0
6.60481 -2.19809 -4.24258 255 0 0
8.16174 -2.37645 -4.27775 255 0 0
7.54934 -3.0201 -4.76954 255 0 0
7.53007 -2.25075 -4.24654 255 0 0
8.06909 -2.04123 -4.91244 255 0 0
7.42792 -2.62954 -4.32337 255 0 0
7.57347 -3.27202 -4.13727 255 0 0
7.33519 -2.47986 -4.63738 255 0 0
8.08475 -2.12697 -4.69326 255 0 0
7.52467 -3.0517 -4.76576 255 0 0
8.44129 -2.24218 -4.65439 255 0 0
6.87421 -3.11611 -4.08974 255 0 0
7.02496 -2.31948 -4.04833 255 0 0
7.27825 -2.57657 -4.62983 255 0 0
6.63596 -3.37624 -4.26278 255 0 0
8.78168 -2.11105 -5.3299 255 0 0
8.22302 -3.22196 -4.84527 255 0 0
6.98626 -1.94465 -4.67364 255 0 0
6.51904 -1.76473 -4.36321 255 0 0
6.65754 -1.88721 -4.29299 255 0 0
6.72132 -2.17505 -4.147 255 0 0
8.28749 -3.2699 -4.62697 255 0 0
8.25104 -2.96503 -4.6646 255 0 0
7.97895 -2.03857 -5.0362 255 0 0
7.53252 -2.78777 -4.08074 255 0 0
7.83996 -3.17957 -4.64817 255 0 0
8.15788 -3.76817 -4.731 255 0 0
7.34574 -2.46404 -4.35472 255 0 0
7.43114 -2.21157 -4.28611 255 0 0
8.09186 -3.17055 -4.96021 255 0 0
6.82589 -3.49327 -4.19182 255 0 0
7.23266 -2.21802 -4.23063 255 0 0
8.38251 -2.07827 -5.18406 255 0 0
6.77086 -1.93669 -4.53013 255 0 0
5.66454 -2.63279 -4.30298 255 0 0
6.8349 -3.22617 -4.16044 255 0 0
6.85733 -2.62141 -4.09848 255 0 0
8.20417 -3.30465 -4.84946 255 0 0
7.01406 -2.22397 -4.10331 255 0 0
7.74963 -3.16435 -4.62019 255 0 0
5.91576 -2.04699 -4.249 255 0 0
6.7622 -2.19717 -4.0965 255 0 0
8.77552 -2.13159 -5.15998 255 0 0
8.14885 -3.78746 -4.6496 255 0 0
7.49909 -2.29972 -4.17177 255 0 0
6.20187 -2.39615 -4.32647 255 0 0
6.86498 -2.86027 -4.12584 255 0 0
7.60532 -2.63162 -4.59271 255 0 0
8.19735 -3.76284 -4.65954 255 0 0
7.40639 -2.2521 -4.49395 255 0 0
8.16387 -2.08581 -4.79211 255 0 0
7.63354 -2.02763 -4.69024 255 0 0
7.70383 -3.27427 -4.62019 255 0 0
8.0874 -2.06628 -4.84316 255 0 0
6.68753 -1.94721 -4.50241 255 0 0
7.12135 -2.23942 -4.13389 255 0 0
7.52327 -1.97925 -4.86809 255 0 0
7.18044 -3.33736 -4.12166 255 0 0
6.35828 -1.99946 -4.33227 255 0 0
8.21679 -2.30818 -4.43965 255 0 0
6.23613 -2.24097 -4.31873 255 0 0
6.41254 -1.86715 -4.27491 255 0 0
8.32005 -2.97871 -4.60572 255 0 0
7.80559 -3.40528 -4.66566 255 0 0
7.70953 -2.087 -4.64661 255 0 0
8.20896 -2.2431 -4.58628 255 0 0
8.49368 -2.3209 -4.51689 255 0 0
7.78831 -3.15862 -4.70762 255 0 0
6.29874 -2.1628 -4.33034 255 0 0
6.71363 -3.37577 -4.21573 255 0 0
7.44014 -1.97626 -4.76572 255 0 0
7.98658 -2.02036 -4.95974 255 0 0
6.16741 -2.31586 -4.3052 255 0 0
7.13949 -3.50548 -4.70912 255 0 0
6.41551 -1.93419 -4.40738 255 0 0
8.22111 -2.93229 -4.65268 255 0 0
7.85897 -2.00791 -4.9142 255 0 0
7.73368 -3.33035 -4.55904 255 0 0
7.35552 -2.50619 -4.64682 255 0 0
6.34368 -1.96187 -4.38561 255 0 0
7.89052 -2.39931 -4.13654 255 0 0
7.55115 -2.29612 -4.6153 255 0 0
6.74673 -3.3724 -4.22401 255 0 0
8.25452 -2.9884 -4.66801 255 0 0
8.07056 -2.71783 -4.74353 255 0 0
6.46868 -2.0764 -4.18872 255 0 0
6.54376 -1.98979 -4.32966 255 0 0
7.59197 -2.07451 -4.60793 255 0 0
6.44492 -1.79397 -4.27868 255 0 0
7.35183 -2.1123 -4.46433 255 0 0
6.87402 -2.17957 -4.12631 255 0 0
6.89259 -2.42167 -4.08829 255 0 0
6.41926 -1.95194 -4.34774 255 0 0
8.74293 -2.10173 -5.14644 255 0 0
6.7654 -2.21596 -4.22838 255 0 0
6.86912 -2.91953 -4.06656 255 0 0
6.69759 -1.91573 -4.56832 255 0 0
8.82401 -2.0991 -5.25868 255 0 0
7.85596 -2.027 -4.83895 255 0 0
6.21485 -2.28337 -4.3168 255 0 0
8.27594 -3.10761 -4.76711 255 0 0
7.50459 -3.48802 -4.14388 255 0 0
7.49226 -3.46071 -4.13801 255 0 0
7.63026 -3.45882 -4.17031 255 0 0
7.68574 -3.41826 -4.17912 255 0 0
7.64997 -3.359 -4.16444 255 0 0
7.59557 -3.31366 -4.14682 255 0 0
7.57204 -3.23948 -4.1336 255 0 0
7.49102 -3.18383 -4.10864 255 0 0
7.5232 -3.16594 -4.11451 255 0 0
7.50825 -3.12828 -4.10717 255 0 0
7.46851 -3.09096 -4.09395 255 0 0
7.50829 -3.07621 -4.10203 255 0 0
7.56967 -3.00743 -4.11011 255 0 0
7.52228 -2.95768 -4.09395 255 0 0
7.52302 -2.91683 -4.09028 255 0 0
7.49894 -2.87688 -4.08074 255 0 0
7.56634 -2.76974 -4.08735 255 0 0
7.60546 -2.75342 -4.09542 255 0 0
7.62854 -2.73113 -4.09909 255 0 0
7.6237 -2.66836 -4.09249 255 0 0
7.63132 -2.62039 -4.09028 255 0 0
7.67691 -2.63602 -4.10276 255 0 0
7.80586 -2.53628 -4.12626 255 0 0
7.72743 -2.38981 -4.09542 255 0 0
7.78726 -2.3881 -4.11011 255 0 0
7.97759 -2.40514 -4.15856 255 0 0
8.02672 -2.3992 -4.17031 255 0 0
8.15194 -2.41559 -4.20262 255 0 0
8.29361 -2.43619 -4.23933 255 0 0
7.74878 -3.55693 -4.82526 255 0 0
6.38885 -2.50328 -4.33721 255 0 0
7.02229 -3.4067 -4.09135 255 0 0
7.13631 -3.43071 -4.12166 255 0 0
7.15868 -3.41018 -4.12469 255 0 0
7.22191 -3.40883 -4.13984 255 0 0
7.12286 -3.21864 -4.09438 255 0 0
7.10705 -3.171 -4.08528 255 0 0
7.11018 -3.122 -4.08074 255 0 0
7.11819 -3.07531 -4.07771 255 0 0
7.11286 -3.02309 -4.07089 255 0 0
7.12589 -3.02864 -4.07468 255 0 0
7.1229 -2.9183 -4.06255 255 0 0
7.12782 -2.8711 -4.05902 255 0 0
7.12808 -2.8222 -4.05422 255 0 0
7.13852 -2.77751 -4.05245 255 0 0
7.15221 -2.70502 -4.04891 255 0 0
7.18908 -2.62197 -4.05043 255 0 0
7.21363 -2.55368 -4.05043 255 0 0
7.22533 -2.52894 -4.05119 255 0 0
7.25834 -2.51155 -4.05801 255 0 0
7.26506 -2.46575 -4.05573 255 0 0
7.2858 -2.42474 -4.0575 255 0 0
7.32874 -2.39084 -4.06558 255 0 0
7.31861 -2.33008 -4.05801 255 0 0
7.36462 -2.31592 -4.06861 255 0 0
7.41868 -2.31361 -4.08225 255 0 0
7.47278 -2.31105 -4.09589 255 0 0
7.57557 -2.32318 -4.12317 255 0 0
7.86826 -2.35184 -4.20046 255 0 0
7.97143 -2.3621 -4.22774 255 0 0
8.37411 -2.39527 -4.33382 255 0 0
8.5158 -2.41397 -4.37171 255 0 0
8.47325 -2.18627 -4.73913 255 0 0
6.87064 -2.86263 -4.06083 255 0 0
7.11007 -2.19888 -4.46612 255 0 0
7.32298 -2.52419 -4.63833 255 0 0
6.83742 -3.39749 -4.11396 255 0 0
6.89099 -3.40376 -4.12802 255 0 0
6.9085 -3.36163 -4.12724 255 0 0
6.89639 -3.31538 -4.11864 255 0 0
7.18271 -3.53726 -4.65306 255 0 0
6.90063 -3.2672 -4.11396 255 0 0
6.89302 -3.22368 -4.10693 255 0 0
6.86845 -3.16271 -4.09365 255 0 0
6.86424 -3.06266 -4.08115 255 0 0
6.881 -2.98252 -4.07646 255 0 0
6.90389 -2.70508 -4.05302 255 0 0
6.8945 -2.68256 -4.04833 255 0 0
6.91388 -2.62425 -4.04755 255 0 0
6.92748 -2.56385 -4.04521 255 0 0
6.94555 -2.51451 -4.04521 255 0 0
6.94618 -2.49613 -4.04365 255 0 0
6.96857 -2.46691 -4.04677 255 0 0
6.97508 -2.4228 -4.04443 255 0 0
6.99734 -2.38414 -4.04677 255 0 0
7.00577 -2.35924 -4.04677 255 0 0
7.11608 -2.34952 -4.0749 255 0 0
7.03054 -2.28436 -4.04677 255 0 0
7.05742 -2.27461 -4.05302 255 0 0
7.1273 -2.25988 -4.07021 255 0 0
7.35884 -2.27582 -4.13271 255 0 0
7.64502 -2.28511 -4.20926 255 0 0
7.87765 -2.33431 -4.27489 255 0 0
8.17057 -2.35802 -4.35457 255 0 0
8.3774 -2.33188 -4.40769 255 0 0
7.63083 -3.3722 -4.76448 255 0 0
8.18106 -3.072 -4.81535 255 0 0
6.73688 -3.4075 -4.15803 255 0 0
6.79021 -3.41428 -4.17251 255 0 0
6.80836 -3.4032 -4.17573 255 0 0
6.82009 -3.3286 -4.16929 255 0 0
6.86115 -3.30845 -4.17734 255 0 0
6.81892 -3.12032 -4.14354 255 0 0
6.82532 -3.07443 -4.13979 255 0 0
6.77467 -3.01307 -4.1194 255 0 0
6.79724 -3.00382 -4.12423 255 0 0
6.75981 -2.94905 -4.10814 255 0 0
6.83928 -2.90683 -4.12423 255 0 0
6.79509 -2.85956 -4.10733 255 0 0
6.79919 -2.73872 -4.09527 255 0 0
6.83503 -2.72496 -4.10331 255 0 0
6.82834 -2.67548 -4.09634 255 0 0
6.84597 -2.57993 -4.09124 255 0 0
6.87519 -2.47064 -4.08829 255 0 0
6.9203 -2.37622 -4.09151 255 0 0
6.92544 -2.32309 -4.08802 255 0 0
6.92833 -2.21488 -4.07917 255 0 0
7.25563 -2.26276 -4.17251 255 0 0
7.39007 -2.27587 -4.21033 255 0 0
7.43313 -2.26023 -4.22079 255 0 0
7.75672 -2.27849 -4.31091 255 0 0
8.06502 -2.30686 -4.39781 255 0 0
8.19505 -2.32305 -4.43482 255 0 0
8.61871 -2.33312 -4.5523 255 0 0
7.38234 -2.4958 -4.36835 255 0 0
7.34358 -2.5313 -4.36068 255 0 0
7.2276 -2.52012 -4.60718 255 0 0
6.64398 -2.5128 -4.35377 255 0 0
8.78686 -2.11229 -5.2468 255 0 0
6.63885 -3.41743 -4.20165 255 0 0
6.66134 -3.42901 -4.20911 255 0 0
6.75471 -3.3564 -4.22401 255 0 0
6.8321 -3.3646 -4.24554 255 0 0
7.12591 -3.41532 -4.32999 255 0 0
7.32063 -3.47671 -4.38961 255 0 0
7.31264 -3.44107 -4.38299 255 0 0
7.46322 -3.49034 -4.42935 255 0 0
8.24958 -3.81052 -4.67941 255 0 0
8.15515 -3.72008 -4.64298 255 0 0
8.24398 -3.34342 -4.62311 255 0 0
8.31961 -3.35115 -4.64463 255 0 0
8.27018 -3.30847 -4.62642 255 0 0
8.32857 -3.22916 -4.63387 255 0 0
8.30097 -3.07218 -4.60986 255 0 0
8.32167 -3.02387 -4.61069 255 0 0
7.39475 -2.51958 -4.3035 255 0 0
7.08716 -2.3773 -4.20414 255 0 0
6.75163 -2.21145 -4.09484 255 0 0
6.77808 -2.18458 -4.09981 255 0 0
8.2025 -2.57941 -4.53534 255 0 0
8.10672 -2.52818 -4.50387 255 0 0
7.56005 -2.20126 -4.32171 255 0 0
7.88899 -2.25651 -4.41942 255 0 0
7.99698 -2.2669 -4.45088 255 0 0
8.01856 -2.25249 -4.45585 255 0 0
8.17537 -2.27564 -4.50222 255 0 0
8.24571 -2.27417 -4.52209 255 0 0
8.41903 -2.3005 -4.57343 255 0 0
8.45157 -2.28787 -4.58171 255 0 0
8.53834 -2.28965 -4.60655 255 0 0
8.67401 -2.304 -4.64629 255 0 0
8.86412 -2.33201 -4.70259 255 0 0
8.99463 -2.34356 -4.74068 255 0 0
7.10862 -2.57355 -4.57508 255 0 0
7.56701 -3.15277 -4.79219 255 0 0
6.21712 -1.98752 -4.28392 255 0 0
7.77771 -3.37119 -4.73096 255 0 0
7.41236 -1.96888 -4.82758 255 0 0
7.16438 -2.21568 -4.55432 255 0 0
7.66949 -3.21681 -4.75589 255 0 0
7.7101 -3.30937 -4.62631 255 0 0
7.2252 -2.26269 -4.57886 255 0 0
6.59996 -3.39741 -4.25597 255 0 0
6.74893 -3.4136 -4.29854 255 0 0
7.24655 -3.55804 -4.45348 255 0 0
7.31533 -3.50611 -4.46539 255 0 0
7.3742 -3.51284 -4.48242 255 0 0
8.34073 -3.66231 -4.76846 255 0 0
8.19535 -3.57532 -4.71738 255 0 0
7.75146 -3.35981 -4.56755 255 0 0
7.78791 -3.33183 -4.57436 255 0 0
7.69782 -3.27172 -4.54201 255 0 0
7.73136 -3.26436 -4.55053 255 0 0
8.26263 -3.28274 -4.70206 255 0 0
8.23391 -3.24875 -4.69014 255 0 0
8.30419 -3.25374 -4.71057 255 0 0
8.30666 -3.23201 -4.70887 255 0 0
8.27595 -3.1637 -4.69269 255 0 0
8.31598 -3.14516 -4.70206 255 0 0
7.3764 -2.5133 -4.36835 255 0 0
6.72432 -2.23787 -4.15381 255 0 0
7.97903 -2.50914 -4.54201 255 0 0
7.42334 -2.19969 -4.35302 255 0 0
7.44983 -2.16916 -4.35813 255 0 0
8.36026 -2.26316 -4.63225 255 0 0
8.37643 -2.24623 -4.63566 255 0 0
8.58203 -2.2578 -4.69695 255 0 0
8.72831 -2.27417 -4.74122 255 0 0
8.88557 -2.29266 -4.78889 255 0 0
9.08101 -2.28574 -4.84593 255 0 0
7.58897 -3.5711 -4.77922 255 0 0
7.37211 -2.47289 -4.57662 255 0 0
7.15425 -3.47071 -4.489 255 0 0
7.24299 -3.49258 -4.51699 255 0 0
7.33352 -3.50412 -4.5441 255 0 0
7.34846 -3.47923 -4.54497 255 0 0
7.70085 -3.33788 -4.62718 255 0 0
7.69613 -3.24948 -4.61494 255 0 0
7.70896 -3.23338 -4.61669 255 0 0
7.63127 -3.15833 -4.5852 255 0 0
8.27496 -3.21968 -4.77936 255 0 0
8.23276 -3.15839 -4.76012 255 0 0
8.22105 -2.99835 -4.73913 255 0 0
8.23164 -2.93604 -4.73563 255 0 0
7.44316 -2.63494 -4.47151 255 0 0
7.37817 -2.57263 -4.44586 255 0 0
7.39628 -2.52008 -4.44586 255 0 0
7.36402 -2.47017 -4.43128 255 0 0
6.66462 -2.20046 -4.1969 255 0 0
6.62183 -2.15156 -4.17941 255 0 0
6.66893 -2.11454 -4.1899 255 0 0
7.39856 -2.15424 -4.41204 255 0 0
7.49492 -2.16303 -4.44177 255 0 0
8.15547 -2.20772 -4.64467 255 0 0
8.37092 -2.20226 -4.70939 255 0 0
8.41937 -2.19367 -4.72338 255 0 0
8.62979 -2.18307 -4.78635 255 0 0
8.76503 -2.19518 -4.82833 255 0 0
8.85699 -2.19591 -4.85632 255 0 0
5.80565 -2.76563 -4.31038 255 0 0
7.17055 -3.54185 -4.57655 255 0 0
7.28899 -3.57888 -4.61605 255 0 0
7.19378 -3.46884 -4.57296 255 0 0
7.25727 -3.47827 -4.59271 255 0 0
7.32245 -3.47754 -4.61156 255 0 0
8.10696 -3.57113 -4.85395 255 0 0
8.10173 -3.53448 -4.84767 255 0 0
7.70138 -3.29481 -4.69864 255 0 0
7.71817 -3.26957 -4.70044 255 0 0
6.72909 -2.80365 -4.34852 255 0 0
7.68046 -3.15737 -4.6753 255 0 0
7.73436 -3.15812 -4.69146 255 0 0
8.22881 -3.28062 -4.85395 255 0 0
8.20731 -3.1598 -4.8333 255 0 0
8.19767 -3.12266 -4.82612 255 0 0
8.18607 -3.01862 -4.81086 255 0 0
7.46979 -2.66431 -4.555 255 0 0
8.12383 -2.85424 -4.77405 255 0 0
7.62537 -2.65882 -4.60168 255 0 0
8.08594 -2.77647 -4.7543 255 0 0
8.13998 -2.77347 -4.77046 255 0 0
6.52003 -2.15272 -4.21206 255 0 0
6.50393 -2.13032 -4.20488 255 0 0
6.48247 -2.10628 -4.1959 255 0 0
6.52916 -2.07022 -4.20667 255 0 0
6.78864 -2.09948 -4.28927 255 0 0
8.23757 -2.52619 -4.77585 255 0 0
7.24077 -2.16428 -4.4347 255 0 0
7.11229 -2.10752 -4.38982 255 0 0
7.11727 -2.09065 -4.38982 255 0 0
7.44241 -2.1097 -4.49216 255 0 0
7.66738 -2.15384 -4.56577 255 0 0
7.85423 -2.12617 -4.62144 255 0 0
7.93999 -2.1292 -4.64837 255 0 0
8.1437 -2.12185 -4.71121 255 0 0
8.40172 -2.12537 -4.79201 255 0 0
8.49865 -2.12847 -4.82253 255 0 0
8.79551 -2.15854 -4.91769 255 0 0
6.30909 -2.14964 -4.33227 255 0 0
8.15875 -3.26389 -4.91182 255 0 0
7.86297 -2.0487 -4.76765 255 0 0
7.89081 -2.07595 -4.7037 255 0 0
7.49181 -3.4175 -4.80478 255 0 0
7.32607 -3.48992 -4.68897 255 0 0
7.6864 -3.50626 -4.79948 255 0 0
7.62845 -3.42534 -4.77093 255 0 0
7.58726 -3.37448 -4.75159 255 0 0
7.63789 -3.26764 -4.75282 255 0 0
7.66615 -3.16214 -4.74791 255 0 0
7.70538 -3.12499 -4.75527 255 0 0
8.19729 -3.21186 -4.91735 255 0 0
8.1997 -3.1904 -4.91551 255 0 0
8.05865 -2.98249 -4.84736 255 0 0
7.304 -2.68353 -4.57846 255 0 0
7.36715 -2.66714 -4.59627 255 0 0
7.36887 -2.61846 -4.59136 255 0 0
7.38075 -2.57353 -4.59013 255 0 0
7.3866 -2.51677 -4.58583 255 0 0
6.47615 -2.15528 -4.26168 255 0 0
6.45485 -2.1312 -4.25247 255 0 0
6.42819 -2.10551 -4.24142 255 0 0
6.41654 -2.05127 -4.23221 255 0 0
7.94505 -2.39533 -4.74975 255 0 0
7.01517 -1.97063 -4.41455 255 0 0
7.76814 -2.08311 -4.66503 255 0 0
7.82678 -2.07896 -4.68345 255 0 0
7.96026 -2.07405 -4.72581 255 0 0
8.352 -2.11279 -4.85473 255 0 0
8.89016 -2.15944 -5.03154 255 0 0
7.33399 -3.53646 -4.77331 255 0 0
7.30237 -3.49989 -4.75821 255 0 0
7.57288 -3.5307 -4.846 255 0 0
7.48225 -3.45609 -4.80729 255 0 0
7.52099 -3.36639 -4.80666 255 0 0
7.56418 -3.32137 -4.8139 255 0 0
7.54138 -3.31132 -4.80541 255 0 0
7.54947 -3.25102 -4.79974 255 0 0
7.57329 -3.21879 -4.80289 255 0 0
7.49307 -3.14283 -4.76765 255 0 0
7.56679 -3.00628 -4.77331 255 0 0
6.43093 -2.50219 -4.35042 255 0 0
6.45374 -2.45836 -4.35231 255 0 0
6.80174 -2.44422 -4.46181 255 0 0
6.35552 -2.11514 -4.28152 255 0 0
6.44046 -2.0421 -4.30134 255 0 0
7.2491 -2.22306 -4.58263 255 0 0
6.41807 -1.92669 -4.28246 255 0 0
6.3948 -1.87843 -4.27019 255 0 0
6.43456 -1.82399 -4.27805 255 0 0
6.47264 -1.77689 -4.28624 255 0 0
6.51102 -1.76256 -4.29756 255 0 0
6.59549 -1.76865 -4.32588 255 0 0
7.75625 -2.04055 -4.73178 255 0 0
7.98588 -2.06052 -4.80918 255 0 0
8.22124 -2.07972 -4.88847 255 0 0
8.34398 -2.06872 -4.92812 255 0 0
8.48882 -2.08328 -4.9772 255 0 0
8.59607 -2.088 -5.01307 255 0 0
8.75189 -2.10389 -5.06593 255 0 0
7.3556 -1.97248 -4.73602 255 0 0
6.26926 -2.21935 -4.32711 255 0 0
6.24546 -2.58478 -4.36515 255 0 0
6.21288 -2.51112 -4.34484 255 0 0
6.23793 -2.47831 -4.34871 255 0 0
6.18914 -2.45895 -4.33034 255 0 0
6.17374 -2.37683 -4.31487 255 0 0
6.23851 -2.26691 -4.3226 255 0 0
6.35626 -2.2163 -4.35548 255 0 0
6.26226 -2.16689 -4.31873 255 0 0
6.41364 -2.16831 -4.36902 255 0 0
6.25572 -2.06545 -4.3052 255 0 0
6.18181 -2.02481 -4.27619 255 0 0
6.18609 -1.99378 -4.27425 255 0 0
6.47907 -2.02058 -4.37482 255 0 0
6.73447 -2.07397 -4.46571 255 0 0
6.62997 -1.7779 -4.40189 255 0 0
7.51552 -1.99628 -4.72098 255 0 0
7.76022 -2.02193 -4.80607 255 0 0
8.74897 -2.14712 -5.15224 255 0 0
8.76402 -2.08484 -5.15224 255 0 0
5.78913 -2.77463 -4.30642 255 0 0
5.79551 -2.73556 -4.30246 255 0 0
5.8209 -2.71387 -4.30741 255 0 0
6.00886 -2.04735 -4.28068 255 0 0
5.99281 -2.02604 -4.27276 255 0 0
6.02088 -2.0117 -4.28068 255 0 0
6.04344 -1.98743 -4.28563 255 0 0
6.23969 -1.96217 -4.34997 255 0 0
6.7186 -1.93898 -4.51231 255 0 0
6.81254 -1.93115 -4.54399 255 0 0
6.87546 -1.93138 -4.56576 255 0 0
6.97026 -1.9402 -4.59942 255 0 0
7.17075 -1.95941 -4.67069 255 0 0
7.25516 -1.964 -4.70039 255 0 0
7.6254 -1.9868 -4.83105 255 0 0
8.47705 -2.08039 -5.13593 255 0 0
5.63076 -2.66595 -4.2969 255 0 0
5.62345 -2.62993 -4.2888 255 0 0
5.93903 -1.97653 -4.3077 255 0 0
5.97794 -1.95803 -4.31918 255 0 0
5.99301 -1.94725 -4.32323 255 0 0
6.10621 -1.93612 -4.36172 255 0 0
7.25976 -1.96525 -4.77289 255 0 0
6.27204 -1.93971 -4.42045 255 0 0
6.32093 -1.93021 -4.43666 255 0 0
6.39016 -1.91003 -4.45894 255 0 0
6.47369 -1.91829 -4.48932 255 0 0
6.61385 -1.90875 -4.53793 255 0 0
6.77611 -1.92082 -4.59667 255 0 0
7.12259 -1.94625 -4.72225 255 0 0
7.32277 -1.96368 -4.79517 255 0 0
7.66085 -1.99604 -4.91872 255 0 0
8.02105 -2.02907 -5.05038 255 0 0
8.19637 -2.05276 -5.1152 255 0 0
8.63251 -2.09685 -5.27521 255 0 0
5.32902 -2.5541 -4.23469 255 0 0
5.275 -2.46695 -4.25762 255 0 0
7.15601 -3.53467 -4.71856 255 0 0
