ply
format ascii 1.0
comment Created by Open3D
element vertex 310
property double x
property double y
property double z
property uchar red
property uchar green
property uchar blue
end_header
-17.4161 -3.02364 -3.99168 255 0 0
-15.7651 -1.99158 -5.00664 255 0 0
-16.0138 -2.23553 -4.78181 255 0 0
-17.2782 -2.03722 -4.10684 255 0 0
-17.6697 -2.04092 -4.00413 255 0 0
-17.0647 -2.69242 -4.09206 255 0 0
-17.3671 -1.92256 -4.55945 255 0 0
-18.612 -1.70371 -4.73766 255 0 0
-17.0749 -2.30118 -4.08643 255 0 0
-17.0854 -2.92452 -4.0991 255 0 0
-15.6423 -2.33513 -4.99249 255 0 0
-16.8177 -1.78105 -5.05451 255 0 0
-16.9548 -1.87692 -4.78905 255 0 0
-15.7177 -2.34638 -4.8703 255 0 0
-15.773 -3.04763 -4.90153 255 0 0
-15.795 -1.93832 -5.01099 255 0 0
-16.4378 -2.77357 -4.58352 255 0 0
-16.3294 -1.84688 -4.96813 255 0 0
-15.6298 -2.59913 -4.99793 255 0 0
-17.368 -2.29877 -3.97398 255 0 0
-15.6994 -2.99482 -5.02405 255 0 0
-16.4761 -1.98227 -4.57186 255 0 0
-15.7288 -2.29088 -4.87082 255 0 0
-15.666 -2.89231 -5.01426 255 0 0
-16.0199 -2.27512 -4.7838 255 0 0
-18.5412 -1.56433 -5.04226 255 0 0
-15.7201 -2.72919 -4.88175 255 0 0
-16.6608 -2.93322 -4.47798 255 0 0
-16.553 -2.23084 -4.44658 255 0 0
-16.9058 -1.95269 -4.3485 255 0 0
-17.9162 -1.98334 -4.18287 255 0 0
-16.5709 -2.31331 -4.45082 255 0 0
-15.9798 -1.84573 -5.04365 255 0 0
-16.7752 -2.26078 -4.19269 255 0 0
-16.013 -3.05465 -4.80465 255 0 0
-16.8488 -2.67882 -4.20999 255 0 0
-17.4988 -2.14741 -3.98643 255 0 0
-15.6669 -2.95014 -5.01643 255 0 0
-16.5725 -2.03374 -4.44573 255 0 0
-17.2784 -2.78915 -3.97201 255 0 0
-16.5369 -2.4286 -4.44828 255 0 0
-17.0804 -1.97285 -4.22729 255 0 0
-15.9514 -2.94503 -4.79075 255 0 0
-17.2454 -2.69998 -3.96676 255 0 0
-15.6473 -2.24115 -4.99085 255 0 0
-15.6349 -2.6381 -5.00011 255 0 0
-16.6233 -1.99998 -4.45252 255 0 0
-17.2354 -3.07654 -3.97266 255 0 0
-16.2402 -2.70064 -4.69174 255 0 0
-16.4623 -1.86191 -4.85031 255 0 0
-17.7463 -1.92196 -4.31229 255 0 0
-16.0696 -2.1463 -4.78926 255 0 0
-17.2185 -2.5287 -3.96086 255 0 0
-15.9897 -1.92375 -4.90881 255 0 0
-17.097 -3.09367 -4.10403 255 0 0
-16.3857 -2.44609 -4.70875 255 0 0
-17.1041 -2.38775 -4.09136 255 0 0
-16.0475 -3.17969 -4.81457 255 0 0
-17.1007 -2.98977 -4.10227 255 0 0
-16.8474 -3.13109 -4.21977 255 0 0
-16.4965 -2.50264 -4.44403 255 0 0
-18.6175 -1.70422 -4.89738 255 0 0
-17.4365 -2.22374 -3.98053 255 0 0
-16.6003 -2.84147 -4.46695 255 0 0
-16.8808 -2.80717 -4.21676 255 0 0
-17.0637 -2.87917 -4.09558 255 0 0
-16.2126 -1.91157 -4.80862 255 0 0
-16.199 -1.87105 -4.94524 255 0 0
-17.0552 -2.44279 -4.08643 255 0 0
-16.5582 -3.07734 -4.46695 255 0 0
-16.6874 -1.80727 -5.03162 255 0 0
-16.5613 -2.7944 -4.46016 255 0 0
-16.4704 -2.41883 -4.57993 255 0 0
-18.5386 -1.78568 -5.0451 255 0 0
-18.2494 -1.8452 -4.84268 255 0 0
-17.0608 -2.75402 -4.09276 255 0 0
-17.0966 -2.1804 -4.08713 255 0 0
-16.6387 -2.20223 -4.45846 255 0 0
-18.2924 -1.89338 -4.38225 255 0 0
-16.2201 -3.01451 -4.69741 255 0 0
-17.2936 -2.45602 -3.96808 255 0 0
-15.962 -2.61549 -4.7828 255 0 0
-16.2833 -1.99825 -4.68229 255 0 0
-15.7052 -2.59255 -4.87499 255 0 0
-16.8162 -2.4289 -4.20096 255 0 0
-17.1664 -2.56264 -3.95562 255 0 0
-15.6538 -2.69857 -5.00555 255 0 0
-15.783 -2.08898 -4.87551 255 0 0
-16.2867 -2.90719 -4.70497 255 0 0
-16.9968 -2.0858 -4.21827 255 0 0
-17.15 -3.0613 -4.10966 255 0 0
-16.6655 -3.17912 -4.3413 255 0 0
-16.5047 -2.38391 -4.58441 255 0 0
-16.0379 -3.2569 -4.81557 255 0 0
-16.8053 -1.94107 -4.47798 255 0 0
-15.9561 -2.88723 -4.78975 255 0 0
-15.9747 -2.44286 -4.78032 255 0 0
-18.5202 -1.60679 -5.03943 255 0 0
-16.6612 -2.04463 -4.31648 255 0 0
-16.5311 -2.38773 -4.44658 255 0 0
-15.771 -1.89743 -5.00555 255 0 0
-17.2761 -1.95396 -4.54672 255 0 0
-18.5871 -1.70144 -5.05171 255 0 0
-15.7076 -3.07366 -5.02841 255 0 0
-17.5559 -1.90133 -4.5866 255 0 0
-18.5105 -1.65018 -5.03848 255 0 0
-18.4266 -1.86312 -4.55582 255 0 0
-15.9628 -2.53796 -4.78082 255 0 0
-16.4794 -2.34038 -4.43809 255 0 0
-15.6695 -2.18747 -4.99357 255 0 0
-16.0284 -3.09699 -4.80862 255 0 0
-16.2009 -2.65465 -4.68418 255 0 0
-17.0033 -2.12754 -4.21977 255 0 0
-16.3453 -1.96654 -4.69174 255 0 0
-16.3971 -2.36837 -4.70875 255 0 0
-15.818 -1.99827 -4.87967 255 0 0
-16.8909 -2.39882 -4.20999 255 0 0
-17.3802 -3.05988 -3.9884 255 0 0
-18.6282 -1.8389 -4.7419 255 0 0
-17.1406 -2.06221 -4.09065 255 0 0
-17.0496 -3.12686 -4.0991 255 0 0
-16.7917 -1.97986 -4.33329 255 0 0
-16.5699 -3.14051 -4.47034 255 0 0
-16.038 -3.13831 -4.81159 255 0 0
-16.7028 -1.96938 -4.46355 255 0 0
-15.6479 -2.48789 -4.99793 255 0 0
-16.9348 -2.94009 -4.22654 255 0 0
-15.9397 -2.74787 -4.7828 255 0 0
-15.7235 -2.38537 -4.87239 255 0 0
-16.2738 -3.10439 -4.70875 255 0 0
-17.0542 -2.79446 -4.09276 255 0 0
-16.4501 -2.73554 -4.58441 255 0 0
-17.3051 -2.39488 -3.9684 255 0 0
-18.4955 -1.8258 -4.88034 255 0 0
-17.8321 -2.70526 -3.88052 255 0 0
-16.7545 -3.11383 -4.3517 255 0 0
-16.6043 -1.83811 -4.87414 255 0 0
-17.4405 -1.84701 -4.86747 255 0 0
-15.734 -2.23452 -4.8703 255 0 0
-17.3646 -1.83896 -5.0042 255 0 0
-18.3888 -1.90336 -4.86509 255 0 0
-16.5993 -2.27717 -4.45422 255 0 0
-18.0898 -2.00256 -4.05068 255 0 0
-17.8537 -2.01929 -4.02446 255 0 0
-17.5666 -2.07122 -3.99299 255 0 0
-17.5269 -2.1087 -3.98905 255 0 0
-17.511 -2.19106 -3.9884 255 0 0
-17.3965 -2.26058 -3.9766 255 0 0
-17.3107 -2.33295 -3.96808 255 0 0
-17.2935 -2.49785 -3.96873 255 0 0
-17.258 -2.61817 -3.96676 255 0 0
-17.246 -2.6582 -3.96611 255 0 0
-17.2735 -2.74634 -3.9707 255 0 0
-17.2947 -2.83387 -3.97463 255 0 0
-17.3166 -2.87964 -3.97791 255 0 0
-17.3327 -2.92456 -3.98053 255 0 0
-17.3487 -2.96958 -3.98315 255 0 0
-17.1356 -2.10285 -4.09065 255 0 0
-16.2528 -2.62359 -4.69174 255 0 0
-15.7158 -2.65174 -4.87863 255 0 0
-18.1751 -1.9684 -4.21384 255 0 0
-17.64 -1.99511 -4.14978 255 0 0
-17.4158 -2.01159 -4.12303 255 0 0
-17.1191 -2.14202 -4.08924 255 0 0
-17.0974 -2.24234 -4.08819 255 0 0
-17.0982 -2.34561 -4.08995 255 0 0
-17.0465 -2.50344 -4.08643 255 0 0
-17.0635 -2.54728 -4.08924 255 0 0
-17.0459 -2.58599 -4.08784 255 0 0
-17.0627 -2.62994 -4.09065 255 0 0
-17.0704 -2.8387 -4.09558 255 0 0
-16.3193 -3.23354 -4.72008 255 0 0
-17.7044 -1.87496 -4.60782 255 0 0
-16.303 -1.88306 -4.82351 255 0 0
-15.651 -2.39336 -4.99575 255 0 0
-16.6604 -2.12477 -4.46016 255 0 0
-18.1955 -1.92696 -4.37021 255 0 0
-17.6148 -1.94997 -4.29574 255 0 0
-17.3793 -1.96563 -4.26565 255 0 0
-16.9315 -1.99634 -4.20849 255 0 0
-16.9152 -2.03509 -4.20698 255 0 0
-16.9009 -2.19617 -4.20773 255 0 0
-16.9014 -2.237 -4.20849 255 0 0
-16.8506 -2.47468 -4.20623 255 0 0
-16.9021 -2.52319 -4.21375 255 0 0
-16.871 -2.72339 -4.21375 255 0 0
-16.9161 -2.77183 -4.22052 255 0 0
-16.8856 -2.84912 -4.21827 255 0 0
-16.945 -2.98325 -4.2288 255 0 0
-16.8947 -3.09847 -4.22503 255 0 0
-15.6535 -2.29887 -4.99357 255 0 0
-17.2896 -1.91398 -4.40053 255 0 0
-17.5594 -1.90171 -4.43735 255 0 0
-17.2735 -1.95367 -4.39893 255 0 0
-16.7121 -2.01066 -4.32289 255 0 0
-16.5997 -2.71998 -4.32129 255 0 0
-16.6787 -3.14067 -4.3421 255 0 0
-18.3906 -1.81544 -5.02148 255 0 0
-18.4163 -1.86208 -4.71135 255 0 0
-18.043 -1.86757 -4.65704 255 0 0
-16.6194 -2.07951 -4.45337 255 0 0
-16.5749 -2.15381 -4.44828 255 0 0
-16.5024 -2.46352 -4.44403 255 0 0
-16.5646 -2.59339 -4.45591 255 0 0
-16.5584 -2.63266 -4.45591 255 0 0
-16.6036 -2.68022 -4.46355 255 0 0
-16.5286 -2.70834 -4.45337 255 0 0
-16.5564 -2.75322 -4.45846 255 0 0
-16.5707 -2.87686 -4.46355 255 0 0
-18.5023 -1.56105 -4.87765 255 0 0
-18.5616 -1.74349 -4.88931 255 0 0
-18.6841 -1.7997 -4.90903 255 0 0
-17.5269 -1.85616 -4.73148 255 0 0
-16.8405 -1.90469 -4.62656 255 0 0
-16.652 -1.92337 -4.59786 255 0 0
-16.567 -1.95336 -4.58531 255 0 0
-16.4254 -2.01569 -4.56469 255 0 0
-16.4149 -2.05391 -4.56379 255 0 0
-16.4387 -2.09649 -4.56827 255 0 0
-16.5093 -2.22495 -4.58172 255 0 0
-16.384 -2.28722 -4.56379 255 0 0
-16.4702 -2.33908 -4.57814 255 0 0
-16.3215 -2.43652 -4.55751 255 0 0
-16.3843 -2.48562 -4.56827 255 0 0
-16.6171 -2.6824 -4.60863 255 0 0
-16.4165 -2.68998 -4.57814 255 0 0
-16.4905 -2.94357 -4.59607 255 0 0
-17.0187 -3.07951 -4.68037 255 0 0
-16.509 -3.0682 -4.60235 255 0 0
-16.4846 -3.10412 -4.59966 255 0 0
-16.3996 -3.14854 -4.588 255 0 0
-16.3599 -3.20129 -4.58352 255 0 0
-16.3061 -3.15064 -4.71536 255 0 0
-18.0067 -1.82067 -4.95912 255 0 0
-17.5828 -1.81993 -4.89015 255 0 0
-17.2235 -1.86533 -4.83252 255 0 0
-16.6919 -1.88789 -4.74654 255 0 0
-16.5611 -1.91287 -4.72575 255 0 0
-16.4131 -1.93522 -4.70213 255 0 0
-16.267 -2.03541 -4.6804 255 0 0
-16.5219 -2.22664 -4.72575 255 0 0
-16.3909 -2.28819 -4.70591 255 0 0
-16.4598 -2.33761 -4.71819 255 0 0
-16.4772 -2.41983 -4.72292 255 0 0
-16.3398 -2.47887 -4.70213 255 0 0
-16.2539 -2.50528 -4.68891 255 0 0
-16.2594 -2.5456 -4.69079 255 0 0
-16.259 -2.58505 -4.69174 255 0 0
-16.2508 -2.74202 -4.69457 255 0 0
-16.3069 -2.79127 -4.70497 255 0 0
-16.3003 -2.82992 -4.70497 255 0 0
-16.2195 -2.85554 -4.69268 255 0 0
-16.3309 -2.95505 -4.71347 255 0 0
-16.2841 -2.98647 -4.70686 255 0 0
-16.2697 -3.06366 -4.70686 255 0 0
-16.2929 -3.18818 -4.71441 255 0 0
-17.6487 -1.78447 -5.05185 255 0 0
-17.4033 -1.80135 -5.01015 255 0 0
-16.7922 -1.81862 -4.90591 255 0 0
-16.1564 -1.94381 -4.79968 255 0 0
-16.1403 -1.9807 -4.7977 255 0 0
-16.1012 -2.01467 -4.79174 255 0 0
-16.0964 -2.05284 -4.79174 255 0 0
-16.08 -2.08951 -4.78975 255 0 0
-16.0362 -2.19991 -4.78479 255 0 0
-15.9973 -2.31062 -4.78082 255 0 0
-16.0032 -2.35022 -4.7828 255 0 0
-15.9804 -2.3856 -4.77983 255 0 0
-15.9688 -2.5001 -4.78082 255 0 0
-15.9453 -2.57396 -4.77883 255 0 0
-15.9557 -2.65333 -4.7828 255 0 0
-15.9494 -2.69115 -4.7828 255 0 0
-15.9355 -2.80553 -4.7838 255 0 0
-15.9515 -2.84736 -4.78777 255 0 0
-15.9975 -3.0124 -4.80067 255 0 0
-16.0343 -3.21659 -4.81358 255 0 0
-16.517 -1.82845 -5.00143 255 0 0
-16.0744 -1.89528 -4.92338 255 0 0
-15.8593 -1.94622 -4.88592 255 0 0
-15.7879 -2.05155 -4.87551 255 0 0
-15.7669 -2.14394 -4.87395 255 0 0
-15.7506 -2.1988 -4.87239 255 0 0
-15.7149 -2.44128 -4.87239 255 0 0
-15.7118 -2.49805 -4.87343 255 0 0
-15.7058 -2.5353 -4.87343 255 0 0
-15.7095 -2.689 -4.87863 255 0 0
-15.7273 -2.78811 -4.88487 255 0 0
-15.7286 -2.84607 -4.88696 255 0 0
-15.7445 -2.88751 -4.89112 255 0 0
-15.7539 -2.94721 -4.89476 255 0 0
-15.7632 -3.00699 -4.8984 255 0 0
-15.7996 -3.09166 -4.90777 255 0 0
-15.8149 -3.13359 -4.91193 255 0 0
-15.83 -3.17562 -4.9161 255 0 0
-15.8507 -3.21887 -4.9213 255 0 0
-15.9276 -3.27385 -4.93691 255 0 0
-16.0813 -1.81883 -5.06215 255 0 0
-15.8554 -1.86947 -5.02079 255 0 0
-15.7009 -2.04024 -4.99575 255 0 0
-15.6964 -2.09645 -4.99629 255 0 0
-15.6917 -2.15266 -4.99684 255 0 0
-15.6537 -2.45078 -4.99793 255 0 0
-15.6531 -2.54584 -5.00065 255 0 0
-15.6611 -2.75722 -5.00881 255 0 0
-15.6602 -2.79536 -5.0099 255 0 0
-15.6762 -2.83658 -5.01426 255 0 0
-15.6979 -3.03313 -5.02514 255 0 0
-15.7229 -3.11536 -5.03276 255 0 0
-15.7718 -3.16395 -5.04365 255 0 0
-15.7827 -3.28308 -5.05018 255 0 0
