ply
format ascii 1.0
comment Created by Open3D
element vertex 939
property double x
property double y
property double z
property uchar red
property uchar green
property uchar blue
end_header
10.4138 -2.50339 -4.96548 255 0 0
10.8835 -2.37185 -4.68891 255 0 0
11.0793 -2.60786 -4.54816 255 0 0
13.1282 -2.56892 -3.95947 255 0 0
12.3383 -2.56659 -3.95311 255 0 0
13.524 -3.35299 -3.6873 255 0 0
13.5564 -3.53213 -3.69645 255 0 0
11.9871 -3.30604 -3.9271 255 0 0
12.6086 -3.80133 -4.49174 255 0 0
10.3056 -2.71123 -4.76061 255 0 0
12.5482 -2.70351 -3.77138 255 0 0
11.3104 -4.00395 -4.58157 255 0 0
12.2748 -3.95616 -4.66293 255 0 0
12.0375 -2.44451 -4.3241 255 0 0
10.215 -3.90496 -5.126 255 0 0
10.1471 -3.9481 -5.11232 255 0 0
13.5027 -2.50947 -4.36285 255 0 0
10.2694 -2.6757 -5.03347 255 0 0
12.1667 -3.69959 -3.86273 255 0 0
11.8918 -2.5326 -4.09182 255 0 0
14.6227 -2.57441 -4.55446 255 0 0
12.3973 -2.33446 -4.93453 255 0 0
11.3624 -2.27938 -5.1052 255 0 0
11.5505 -2.28865 -4.94626 255 0 0
12.5017 -3.99662 -4.59656 255 0 0
10.6416 -3.56958 -4.70952 255 0 0
10.2628 -3.45608 -4.8054 255 0 0
11.8761 -2.26549 -5.13212 255 0 0
10.4774 -2.38767 -4.87939 255 0 0
12.5663 -3.69126 -3.8074 255 0 0
12.3169 -2.4405 -4.48406 255 0 0
12.4355 -3.94298 -4.69371 255 0 0
14.4881 -2.60385 -4.28131 255 0 0
13.6688 -2.33969 -5.10461 255 0 0
12.1125 -3.00304 -3.82793 255 0 0
10.2581 -2.26106 -5.19241 255 0 0
12.953 -3.63862 -3.74287 255 0 0
12.4815 -3.8925 -4.81313 255 0 0
12.1098 -3.35536 -3.84066 255 0 0
10.6328 -3.49665 -4.70196 255 0 0
11.1043 -3.71018 -4.62108 255 0 0
11.3401 -2.3309 -4.7947 255 0 0
10.6138 -3.35152 -4.68685 255 0 0
12.1594 -3.60308 -3.85763 255 0 0
12.3721 -4.10118 -4.69134 255 0 0
10.8882 -3.88359 -4.6891 255 0 0
12.8014 -3.23836 -3.71052 255 0 0
10.3363 -2.61476 -4.76208 255 0 0
10.1268 -3.59848 -4.97563 255 0 0
11.2268 -2.47458 -4.57375 255 0 0
10.4414 -4.0057 -4.89717 255 0 0
13.5912 -2.96194 -3.68449 255 0 0
14.1618 -2.56255 -4.47603 255 0 0
11.2867 -3.95047 -4.57295 255 0 0
11.0343 -2.86103 -4.552 255 0 0
14.3651 -2.66976 -4.01632 255 0 0
12.4301 -2.75524 -3.75697 255 0 0
11.139 -3.6047 -4.62108 255 0 0
13.588 -2.42548 -4.73065 255 0 0
11.3031 -4.0921 -4.5865 255 0 0
11.0612 -2.30092 -4.82687 255 0 0
13.6007 -2.56107 -4.2628 255 0 0
12.1857 -2.71624 -4.68626 255 0 0
12.4794 -4.08755 -4.3718 255 0 0
12.2395 -2.60663 -3.83302 255 0 0
10.1854 -2.35925 -5.27261 255 0 0
10.6378 -2.85265 -4.65868 255 0 0
10.3196 -2.30028 -5.0222 255 0 0
13.2314 -2.65432 -3.74813 255 0 0
12.308 -2.59073 -3.84236 255 0 0
10.4292 -2.24697 -5.04956 255 0 0
10.7427 -3.91804 -4.76036 255 0 0
12.2353 -3.00272 -4.60136 255 0 0
11.9614 -2.95053 -4.01432 255 0 0
12.0176 -3.60763 -3.94459 255 0 0
14.0913 -2.51532 -4.70837 255 0 0
10.7092 -2.54755 -4.65731 255 0 0
13.7168 -2.6841 -3.81057 255 0 0
12.86 -3.38326 -3.72256 255 0 0
12.6523 -2.63191 -3.78339 255 0 0
14.2085 -2.71042 -3.87375 255 0 0
12.0217 -3.95343 -4.06912 255 0 0
12.5942 -2.55757 -3.99167 255 0 0
13.0299 -3.89467 -3.76167 255 0 0
12.3322 -2.87193 -3.74737 255 0 0
14.4945 -2.72938 -3.91061 255 0 0
13.5163 -3.09706 -3.67921 255 0 0
11.9281 -4.03262 -4.16628 255 0 0
12.1719 -2.8042 -3.82963 255 0 0
10.8242 -2.69726 -4.59491 255 0 0
10.3344 -2.22655 -5.21284 255 0 0
12.476 -3.79363 -4.80574 255 0 0
11.1019 -3.7533 -4.62364 255 0 0
14.1187 -2.5202 -4.59035 255 0 0
11.2097 -2.3041 -5.16859 255 0 0
12.4139 -4.0661 -4.81066 255 0 0
12.4403 -3.20986 -3.77298 255 0 0
12.8176 -2.76156 -3.69849 255 0 0
11.4653 -4.05882 -4.51137 255 0 0
13.0443 -2.32842 -4.96646 255 0 0
13.5415 -2.38406 -4.95846 255 0 0
11.8342 -4.00088 -4.25628 255 0 0
10.7377 -2.50062 -4.66143 255 0 0
12.5137 -2.51035 -4.30519 255 0 0
12.4695 -2.53225 -4.18911 255 0 0
12.1397 -3.94443 -3.97822 255 0 0
12.4654 -3.34273 -3.78099 255 0 0
10.61 -2.28593 -4.90818 255 0 0
10.9629 -2.25338 -5.19922 255 0 0
13.942 -2.38646 -5.04345 255 0 0
11.073 -3.19566 -4.58014 255 0 0
10.5587 -2.39302 -4.70891 255 0 0
10.2321 -2.64009 -5.02059 255 0 0
12.2104 -2.8741 -4.26565 255 0 0
11.4293 -2.321 -4.81531 255 0 0
13.5397 -3.28882 -3.6873 255 0 0
13.086 -2.49629 -4.40614 255 0 0
10.791 -3.47796 -4.63736 255 0 0
11.5038 -4.01113 -4.4102 255 0 0
11.9075 -3.60534 -4.03416 255 0 0
10.4032 -2.47477 -4.96079 255 0 0
11.2307 -2.58736 -4.58014 255 0 0
12.3035 -2.95767 -4.50338 255 0 0
12.0273 -2.84605 -3.91544 255 0 0
13.8714 -2.68021 -3.83013 255 0 0
12.0336 -2.77234 -4.01904 255 0 0
12.4636 -2.43887 -4.51247 255 0 0
12.9758 -3.81156 -3.7519 255 0 0
12.2301 -2.65016 -3.83302 255 0 0
12.0201 -2.9499 -3.91813 255 0 0
12.1181 -2.65596 -3.92262 255 0 0
10.207 -2.35151 -5.08844 255 0 0
11.9892 -3.35255 -3.92934 255 0 0
10.3957 -3.09389 -4.71388 255 0 0
10.2299 -2.51055 -5.01094 255 0 0
10.8253 -2.25184 -5.1606 255 0 0
11.4775 -2.45857 -4.32213 255 0 0
10.8382 -2.28135 -4.86928 255 0 0
11.9834 -3.10712 -3.91858 255 0 0
13.508 -3.14576 -3.67956 255 0 0
12.6003 -3.63645 -3.8098 255 0 0
10.348 -2.59162 -4.76355 255 0 0
10.8412 -2.57897 -4.59226 255 0 0
12.1596 -3.54052 -3.85509 255 0 0
10.8986 -2.48364 -4.60022 255 0 0
11.8122 -2.28234 -5.01021 255 0 0
10.4145 -2.41231 -4.76942 255 0 0
10.3823 -2.31425 -4.94517 255 0 0
10.3169 -2.4413 -4.84075 255 0 0
12.3976 -2.79434 -3.75377 255 0 0
11.4351 -2.37869 -4.71696 255 0 0
12.9547 -2.31243 -5.17668 255 0 0
11.5687 -2.32076 -4.84829 255 0 0
12.9275 -2.40258 -4.71502 255 0 0
12.9411 -2.34167 -5.05924 255 0 0
14.8519 -3.94499 -4.64381 255 0 0
12.5057 -3.25836 -3.78339 255 0 0
14.3544 -2.63257 -4.13768 255 0 0
11.7948 -2.27897 -5.21886 255 0 0
10.3875 -2.40606 -4.9522 255 0 0
12.6795 -2.38759 -4.66411 255 0 0
10.8088 -2.24841 -4.95819 255 0 0
10.6119 -3.10351 -4.66898 255 0 0
10.602 -3.26504 -4.67792 255 0 0
11.0865 -3.37114 -4.59421 255 0 0
11.1998 -2.24676 -5.2652 255 0 0
12.3879 -3.13376 -3.76338 255 0 0
10.3926 -3.95874 -4.88102 255 0 0
12.1456 -3.5677 -3.85424 255 0 0
10.392 -3.21386 -4.7217 255 0 0
10.561 -2.223 -5.08496 255 0 0
10.6856 -2.60896 -4.65524 255 0 0
11.6796 -2.37184 -4.56433 255 0 0
11.2169 -3.91109 -4.65945 255 0 0
11.9311 -4.00213 -4.27293 255 0 0
11.5971 -2.49858 -4.24464 255 0 0
10.9334 -4.07594 -4.71431 255 0 0
11.687 -3.25312 -4.39997 255 0 0
12.0221 -2.90509 -3.91679 255 0 0
12.2777 -4.02147 -3.89243 255 0 0
11.9344 -3.26109 -4.02282 255 0 0
11.3277 -3.91966 -4.57911 255 0 0
12.1891 -2.70184 -3.82878 255 0 0
12.4521 -4.01332 -4.47541 255 0 0
14.4829 -2.62066 -4.40641 255 0 0
10.4112 -3.34191 -4.73591 255 0 0
10.7038 -3.87512 -4.74799 255 0 0
14.4463 -2.36714 -5.27731 255 0 0
12.7972 -3.30193 -3.71203 255 0 0
11.9972 -3.5241 -3.93786 255 0 0
11.9641 -3.39147 -4.03321 255 0 0
11.5952 -2.44071 -4.54955 255 0 0
10.2059 -3.7772 -5.11071 255 0 0
10.3293 -2.66516 -4.76355 255 0 0
12.4581 -3.43593 -3.78339 255 0 0
11.961 -3.35996 -4.03132 255 0 0
12.5608 -2.27286 -5.30686 255 0 0
12.2671 -2.88745 -4.49315 255 0 0
13.1221 -2.60004 -3.95947 255 0 0
11.1939 -2.38395 -4.56223 255 0 0
10.6666 -2.32459 -4.82816 255 0 0
11.8642 -3.1213 -4.00581 255 0 0
13.8521 -2.60841 -4.0647 255 0 0
12.4192 -2.83017 -3.75777 255 0 0
10.3989 -2.9611 -4.70535 255 0 0
10.3889 -2.41937 -4.85817 255 0 0
12.3024 -3.86868 -3.88903 255 0 0
12.0095 -2.99263 -3.91813 255 0 0
12.6028 -3.66956 -3.8114 255 0 0
13.377 -3.75772 -4.74883 255 0 0
13.3844 -3.41961 -4.73292 255 0 0
11.0743 -2.77353 -4.55584 255 0 0
12.8101 -3.43518 -3.71805 255 0 0
12.4508 -4.0455 -4.81682 255 0 0
11.94 -3.75472 -4.04644 255 0 0
12.4014 -4.09457 -4.47106 255 0 0
12.331 -2.84085 -4.50338 255 0 0
12.7009 -3.92792 -3.83462 255 0 0
11.9453 -2.99166 -4.01337 255 0 0
13.6183 -2.59783 -4.03075 255 0 0
10.6222 -3.40964 -4.69303 255 0 0
10.2591 -2.33793 -5.00772 255 0 0
11.4959 -2.39136 -4.62875 255 0 0
10.9327 -2.40974 -4.6042 255 0 0
13.3525 -2.31815 -5.27148 255 0 0
12.0359 -3.70665 -3.95176 255 0 0
12.2693 -2.28026 -5.12249 255 0 0
11.203 -4.08593 -4.66969 255 0 0
12.0205 -2.61965 -4.01148 255 0 0
11.8375 -2.34551 -4.80718 255 0 0
12.9612 -3.84067 -3.75114 255 0 0
14.2 -2.63908 -4.11562 255 0 0
11.2275 -2.28003 -5.27486 255 0 0
13.8621 -2.33896 -5.27017 255 0 0
10.889 -2.31903 -4.78565 255 0 0
14.0682 -2.40806 -4.9471 255 0 0
11.0374 -2.70873 -4.54433 255 0 0
10.2166 -3.89169 -4.9294 255 0 0
11.4017 -4.06672 -4.49953 255 0 0
13.6278 -2.90231 -3.6873 255 0 0
11.9116 -3.40711 -4.02565 255 0 0
10.4502 -2.69635 -4.70038 255 0 0
10.8167 -2.38417 -4.67379 255 0 0
12.1458 -2.52654 -4.24067 255 0 0
12.4445 -2.58868 -3.86188 255 0 0
12.4751 -3.56829 -3.79059 255 0 0
12.1677 -2.7577 -3.82751 255 0 0
11.9186 -3.96655 -4.26877 255 0 0
14.5569 -2.4917 -4.79436 255 0 0
11.7797 -3.27891 -3.9992 255 0 0
13.0318 -3.92891 -3.76318 255 0 0
12.1087 -3.87097 -3.97014 255 0 0
12.374 -4.02056 -4.34994 255 0 0
12.4721 -2.84223 -4.3104 255 0 0
10.2618 -2.31296 -5.10169 255 0 0
11.6628 -2.25348 -5.2889 255 0 0
10.1414 -2.90077 -4.82635 255 0 0
13.505 -2.54304 -4.12976 255 0 0
10.8054 -3.03533 -4.61083 255 0 0
10.2755 -2.29046 -5.29535 255 0 0
11.6743 -3.94683 -4.33172 255 0 0
11.9889 -3.49079 -3.93517 255 0 0
10.4722 -2.60953 -4.70038 255 0 0
12.2634 -2.80995 -4.5978 255 0 0
12.2621 -2.8556 -4.27397 255 0 0
12.4517 -2.94649 -3.76578 255 0 0
12.5925 -2.58833 -3.88309 255 0 0
11.0455 -2.79418 -4.55072 255 0 0
12.3259 -2.87046 -4.6132 255 0 0
11.9834 -3.19825 -3.92217 255 0 0
10.789 -3.1137 -4.61216 255 0 0
12.4665 -2.47015 -4.40466 255 0 0
11.5426 -2.42963 -4.43559 255 0 0
10.1804 -3.79521 -4.91122 255 0 0
12.9503 -2.70991 -3.71391 255 0 0
13.8802 -2.5116 -4.54768 255 0 0
12.2498 -2.30669 -5.00905 255 0 0
11.9515 -3.85196 -4.05305 255 0 0
14.2049 -2.50085 -4.72905 255 0 0
11.9873 -3.44414 -3.93293 255 0 0
10.7872 -3.05783 -4.60818 255 0 0
12.5439 -2.64039 -3.76898 255 0 0
10.9614 -2.36162 -4.70677 255 0 0
12.4479 -3.18036 -3.77298 255 0 0
10.2495 -3.93211 -4.94152 255 0 0
12.7753 -3.15128 -3.70451 255 0 0
11.5665 -2.54945 -4.34315 255 0 0
10.1794 -2.72972 -5.01255 255 0 0
12.2627 -2.85575 -4.49088 255 0 0
11.0623 -3.44991 -4.59421 255 0 0
11.056 -2.3546 -4.72875 255 0 0
11.577 -3.97519 -4.42156 255 0 0
10.2797 -3.84613 -5.03891 255 0 0
10.8041 -2.91098 -4.60287 255 0 0
10.4152 -2.37349 -4.95766 255 0 0
13.6453 -2.63652 -3.91786 255 0 0
12.5031 -3.64052 -4.35203 255 0 0
10.6121 -3.30951 -4.68341 255 0 0
12.1339 -3.1308 -3.83557 255 0 0
10.3174 -2.68822 -4.76208 255 0 0
10.2857 -2.84992 -4.76502 255 0 0
10.3874 -3.13166 -4.71459 255 0 0
12.5714 -2.584 -4.0984 255 0 0
10.7993 -3.45236 -4.63736 255 0 0
10.8045 -3.51058 -4.64267 255 0 0
10.2549 -3.39934 -4.79879 255 0 0
10.1337 -3.60095 -4.88166 255 0 0
14.8775 -3.8011 -4.64183 255 0 0
13.1431 -2.34606 -5.10567 255 0 0
14.3157 -3.76623 -4.67361 255 0 0
12.394 -4.10843 -4.80943 255 0 0
12.0249 -2.86054 -4.02093 255 0 0
11.7182 -2.23536 -4.56679 255 0 0
13.5625 -2.48733 -4.49044 255 0 0
12.1144 -3.29485 -3.83897 255 0 0
13.3844 -2.42189 -4.69088 255 0 0
13.3559 -3.34494 -4.72383 255 0 0
13.7164 -2.38132 -4.99541 255 0 0
10.8965 -3.94488 -4.69574 255 0 0
14.6229 -2.64598 -4.17672 255 0 0
14.1413 -2.59349 -4.35067 255 0 0
12.8651 -3.49899 -3.72707 255 0 0
12.915 -2.75051 -3.71052 255 0 0
13.4508 -3.43659 -4.86658 255 0 0
11.1088 -2.65655 -4.55712 255 0 0
10.1285 -2.80637 -4.91001 255 0 0
13.5418 -3.25535 -3.6866 255 0 0
11.8716 -3.18351 -4.00959 255 0 0
14.2073 -2.39721 -5.1001 255 0 0
13.2762 -3.56015 -4.83817 255 0 0
13.8028 -2.80301 -3.70561 255 0 0
13.8835 -2.78514 -3.71476 255 0 0
11.1824 -2.43701 -4.56223 255 0 0
14.4227 -3.72134 -4.69026 255 0 0
11.1319 -2.2606 -4.9427 255 0 0
10.533 -2.47927 -4.70748 255 0 0
12.4387 -3.65378 -4.56474 255 0 0
11.7201 -2.35114 -4.78064 255 0 0
12.5917 -3.82883 -3.81621 255 0 0
10.2037 -2.64568 -4.9186 255 0 0
12.3728 -3.09875 -3.76018 255 0 0
10.4058 -4.10569 -5.19761 255 0 0
12.1432 -3.21007 -3.83981 255 0 0
10.3136 -2.63505 -4.75768 255 0 0
13.0688 -2.62171 -3.83942 255 0 0
10.1867 -2.4616 -4.99565 255 0 0
11.1197 -2.75689 -4.56479 255 0 0
12.7701 -2.53029 -4.23975 255 0 0
14.2795 -2.61884 -4.24993 255 0 0
11.9155 -3.28631 -4.02093 255 0 0
11.7347 -3.41679 -4.10274 255 0 0
11.9785 -2.46213 -4.41929 255 0 0
10.4522 -3.70014 -4.77428 255 0 0
10.6703 -2.65892 -4.65456 255 0 0
14.3508 -3.63029 -4.67361 255 0 0
10.1197 -3.4079 -4.8612 255 0 0
10.6248 -2.94387 -4.66143 255 0 0
13.4643 -3.67913 -4.76133 255 0 0
11.83 -3.29291 -4.11267 255 0 0
11.3057 -2.29592 -4.88656 255 0 0
11.0211 -3.05369 -4.56032 255 0 0
10.4245 -3.51053 -4.75225 255 0 0
12.6801 -4.004 -3.83502 255 0 0
12.3167 -4.00194 -4.45038 255 0 0
12.1402 -3.50364 -3.85085 255 0 0
13.5272 -3.7308 -3.69927 255 0 0
13.4911 -3.68646 -3.69364 255 0 0
13.4662 -3.64535 -3.68942 255 0 0
13.4074 -3.59534 -3.68097 255 0 0
13.5255 -3.55834 -3.69364 255 0 0
13.5929 -3.50724 -3.69997 255 0 0
13.6068 -3.47644 -3.70068 255 0 0
13.553 -3.42848 -3.69293 255 0 0
13.5272 -3.38787 -3.68871 255 0 0
13.5778 -3.22996 -3.69012 255 0 0
13.5288 -3.18444 -3.68308 255 0 0
13.5692 -3.00773 -3.68308 255 0 0
13.6209 -2.93461 -3.6873 255 0 0
13.6517 -2.87358 -3.68942 255 0 0
13.7381 -2.85777 -3.69927 255 0 0
14.0383 -2.78159 -3.73306 255 0 0
14.1989 -2.77843 -3.75206 255 0 0
14.3025 -2.76351 -3.76403 255 0 0
10.9834 -2.31193 -4.80839 255 0 0
13.4797 -2.53828 -4.35987 255 0 0
12.0748 -4.05034 -4.08234 255 0 0
14.4859 -2.58575 -4.53163 255 0 0
11.1505 -3.85833 -4.64154 255 0 0
12.3881 -2.27196 -5.26281 255 0 0
12.9891 -3.94966 -3.75867 255 0 0
12.9726 -3.76052 -3.74964 255 0 0
13.0305 -3.72715 -3.75566 255 0 0
12.8777 -3.58455 -3.73159 255 0 0
12.7781 -3.32933 -3.71052 255 0 0
12.7825 -3.26583 -3.70902 255 0 0
12.7865 -3.20236 -3.70751 255 0 0
12.7776 -3.05561 -3.70187 255 0 0
12.7594 -2.9555 -3.69661 255 0 0
12.7331 -2.9017 -3.69172 255 0 0
12.7626 -2.87661 -3.69473 255 0 0
12.7794 -2.8009 -3.69473 255 0 0
13.1049 -2.69365 -3.73309 255 0 0
13.5111 -2.67711 -3.78424 255 0 0
12.6075 -3.73588 -3.81461 255 0 0
10.1521 -3.67539 -4.89303 255 0 0
12.7635 -3.98047 -3.84502 255 0 0
11.7139 -3.9912 -4.34152 255 0 0
11.8888 -2.85798 -3.9992 255 0 0
10.1267 -3.54445 -4.87484 255 0 0
11.8568 -3.14942 -4.00581 255 0 0
12.6381 -3.87568 -3.82421 255 0 0
12.6397 -3.81069 -3.82181 255 0 0
12.6542 -3.78237 -3.82261 255 0 0
12.5058 -3.54502 -3.79379 255 0 0
12.4807 -3.50595 -3.78899 255 0 0
12.4163 -3.45613 -3.77859 255 0 0
12.5053 -3.41709 -3.78899 255 0 0
12.4406 -3.36772 -3.77859 255 0 0
12.5069 -3.32209 -3.78579 255 0 0
12.3689 -3.25406 -3.76498 255 0 0
12.3239 -3.05544 -3.75217 255 0 0
12.3536 -3.03175 -3.75537 255 0 0
12.4693 -2.99753 -3.76978 255 0 0
12.3785 -2.85179 -3.75297 255 0 0
12.4511 -2.7135 -3.75857 255 0 0
12.4922 -2.66046 -3.76258 255 0 0
12.7267 -2.61592 -3.79299 255 0 0
12.9034 -2.62036 -3.81701 255 0 0
13.2514 -2.62566 -3.86423 255 0 0
13.4113 -2.62431 -3.88585 255 0 0
13.8281 -2.63785 -3.94268 255 0 0
14.1307 -2.66087 -3.9843 255 0 0
12.5677 -4.00129 -4.49555 255 0 0
11.4635 -4.01233 -4.50782 255 0 0
12.2742 -3.76409 -3.88055 255 0 0
10.3666 -3.85066 -4.86487 255 0 0
12.1079 -2.59362 -3.91903 255 0 0
12.3037 -3.99772 -3.89497 255 0 0
12.3793 -3.98986 -3.90516 255 0 0
12.3667 -3.95344 -3.90176 255 0 0
12.3374 -3.91185 -3.89582 255 0 0
12.2949 -3.83433 -3.88649 255 0 0
12.2763 -3.79661 -3.88224 255 0 0
12.1576 -3.64963 -3.85933 255 0 0
12.1386 -3.45649 -3.84872 255 0 0
12.1257 -3.40623 -3.84491 255 0 0
12.1261 -3.25174 -3.83897 255 0 0
12.1601 -3.16833 -3.84066 255 0 0
12.1189 -3.09629 -3.83218 255 0 0
12.1101 -3.04821 -3.82921 255 0 0
12.1259 -2.96064 -3.82836 255 0 0
12.1257 -2.89972 -3.82624 255 0 0
12.1393 -2.84219 -3.82624 255 0 0
12.7292 -2.58498 -3.90261 255 0 0
12.9398 -2.59582 -3.93316 255 0 0
13.4869 -2.60593 -4.01208 255 0 0
11.882 -2.88616 -3.9992 255 0 0
11.1931 -2.49498 -4.56735 255 0 0
13.4436 -2.33398 -5.05473 255 0 0
13.8264 -2.53574 -4.41845 255 0 0
10.1332 -2.41054 -5.26036 255 0 0
10.6336 -2.8245 -4.65593 255 0 0
10.227 -2.69057 -4.92798 255 0 0
11.7483 -4.00291 -4.24171 255 0 0
12.0159 -4.06231 -4.07384 255 0 0
12.1059 -4.02886 -3.97732 255 0 0
12.1374 -4.0074 -3.98091 255 0 0
12.1633 -3.98401 -3.9836 255 0 0
12.127 -3.90854 -3.97463 255 0 0
12.0847 -3.83175 -3.96476 255 0 0
12.0717 -3.79615 -3.96118 255 0 0
12.0641 -3.76234 -3.95849 255 0 0
12.0352 -3.6596 -3.94952 255 0 0
12.011 -3.55911 -3.94145 255 0 0
11.98 -3.39596 -3.92979 255 0 0
11.9764 -3.25731 -3.92351 255 0 0
11.9807 -3.15193 -3.91993 255 0 0
11.998 -3.05026 -3.91858 255 0 0
12.0542 -2.8072 -3.91813 255 0 0
12.0613 -2.76366 -3.91769 255 0 0
12.0771 -2.70707 -3.91813 255 0 0
12.2076 -2.56961 -3.93338 255 0 0
12.5597 -2.58159 -3.98718 255 0 0
12.7761 -2.56298 -4.01947 255 0 0
13.5955 -2.59349 -4.14501 255 0 0
13.8751 -2.57868 -4.18716 255 0 0
11.6561 -2.28086 -5.18248 255 0 0
11.9989 -2.55539 -4.00581 255 0 0
12.1851 -2.32443 -4.77714 255 0 0
10.2531 -3.21089 -4.78337 255 0 0
11.8789 -3.065 -4.00581 255 0 0
11.3908 -2.45415 -4.40599 255 0 0
14.7269 -2.52081 -4.69859 255 0 0
12.0946 -2.81659 -4.03038 255 0 0
11.8325 -3.08296 -3.9992 255 0 0
13.8321 -2.3339 -5.14043 255 0 0
12.0131 -3.99798 -4.07006 255 0 0
11.9753 -3.891 -4.05872 255 0 0
11.9991 -3.83593 -4.05967 255 0 0
11.931 -3.78302 -4.04644 255 0 0
11.9312 -3.70537 -4.04266 255 0 0
11.9774 -3.67309 -4.04833 255 0 0
11.887 -3.55305 -4.02849 255 0 0
11.9175 -3.53142 -4.03227 255 0 0
11.9148 -3.49989 -4.03038 255 0 0
11.9327 -3.45912 -4.03132 255 0 0
11.8752 -3.21467 -4.01148 255 0 0
11.9793 -3.0455 -4.02093 255 0 0
12.0766 -2.84261 -4.02849 255 0 0
11.925 -2.56923 -3.99448 255 0 0
12.118 -2.55074 -4.02471 255 0 0
12.5889 -2.55648 -4.10029 255 0 0
13.4924 -2.57382 -4.24579 255 0 0
13.8681 -2.57738 -4.30626 255 0 0
14.5573 -2.59849 -4.41775 255 0 0
10.2239 -2.5348 -5.01094 255 0 0
12.2603 -2.96267 -4.27813 255 0 0
10.8169 -2.33048 -4.7686 255 0 0
11.3947 -2.28586 -4.90788 255 0 0
10.1326 -2.8593 -4.82105 255 0 0
11.3651 -2.27991 -5.0029 255 0 0
11.8324 -4.0629 -4.15238 255 0 0
11.8748 -4.046 -4.15834 255 0 0
11.872 -3.98231 -4.15436 255 0 0
11.8561 -3.88339 -4.14642 255 0 0
11.8151 -3.47062 -4.11862 255 0 0
14.8501 -3.90683 -4.64183 255 0 0
14.8751 -3.85689 -4.64381 255 0 0
12.2313 -2.94032 -4.16429 255 0 0
12.281 -2.90612 -4.17124 255 0 0
11.871 -2.60182 -4.09083 255 0 0
11.8125 -2.54499 -4.07891 255 0 0
12.0164 -2.52936 -4.11267 255 0 0
12.5717 -2.52197 -4.20599 255 0 0
13.1105 -2.5332 -4.29733 255 0 0
10.7828 -2.29642 -4.85606 255 0 0
11.329 -2.46894 -4.39415 255 0 0
10.6793 -2.22149 -5.02016 255 0 0
10.2794 -2.80884 -4.76061 255 0 0
11.6513 -2.27991 -4.55448 255 0 0
11.7292 -4.05858 -4.24171 255 0 0
11.766 -4.04011 -4.24691 255 0 0
12.4541 -3.99766 -4.36243 255 0 0
12.5286 -3.9725 -4.37388 255 0 0
12.5563 -3.78555 -4.36868 255 0 0
12.5211 -3.74257 -4.36035 255 0 0
12.4636 -3.69323 -4.34786 255 0 0
12.5497 -3.6864 -4.36243 255 0 0
11.8404 -3.29581 -4.21985 255 0 0
14.3915 -3.74971 -4.6861 255 0 0
14.3254 -3.66003 -4.67049 255 0 0
12.2316 -2.90971 -4.27085 255 0 0
12.2632 -2.82522 -4.27293 255 0 0
12.4113 -2.79745 -4.29791 255 0 0
12.581 -2.80437 -4.32809 255 0 0
11.6817 -2.57484 -4.16053 255 0 0
11.7215 -2.5545 -4.16678 255 0 0
11.6742 -2.50071 -4.15637 255 0 0
11.824 -2.48886 -4.18239 255 0 0
12.4744 -2.47171 -4.29687 255 0 0
12.7799 -2.50077 -4.35203 255 0 0
12.9273 -2.49779 -4.37804 255 0 0
13.5112 -2.51106 -4.48212 255 0 0
14.5219 -2.55665 -4.6632 255 0 0
14.6471 -2.54291 -4.68506 255 0 0
10.8157 -2.95539 -4.60818 255 0 0
10.553 -3.90563 -4.8155 255 0 0
10.65 -3.54434 -4.70952 255 0 0
10.4068 -3.29971 -4.73165 255 0 0
10.4395 -3.59847 -4.76291 255 0 0
12.3713 -2.81926 -4.5102 255 0 0
11.6321 -4.08685 -4.33281 255 0 0
11.6731 -4.03917 -4.33716 255 0 0
11.5902 -3.97972 -4.31866 255 0 0
12.4231 -3.61724 -4.4482 255 0 0
14.3026 -3.72655 -4.79654 255 0 0
13.4634 -3.33798 -4.62455 255 0 0
12.2394 -2.94226 -4.3818 255 0 0
12.2072 -2.90391 -4.37418 255 0 0
12.214 -2.87496 -4.37418 255 0 0
12.2993 -2.86426 -4.38942 255 0 0
12.3621 -2.84801 -4.4003 255 0 0
11.7143 -2.58203 -4.26967 255 0 0
11.6361 -2.53587 -4.25334 255 0 0
11.6986 -2.49145 -4.26314 255 0 0
12.3591 -2.47933 -4.38506 255 0 0
13.4964 -2.47521 -4.59624 255 0 0
14.3695 -2.49472 -4.75953 255 0 0
12.0263 -2.2646 -5.1703 255 0 0
11.3321 -2.24537 -5.30222 255 0 0
11.3365 -2.24624 -5.19984 255 0 0
10.6208 -3.45091 -4.69578 255 0 0
10.4003 -2.44805 -4.76795 255 0 0
13.4311 -3.39765 -4.86066 255 0 0
10.793 -2.85315 -4.5969 255 0 0
10.3541 -2.43717 -4.94517 255 0 0
10.4869 -2.57363 -4.7018 255 0 0
11.4792 -4.06372 -4.40906 255 0 0
11.5267 -4.04982 -4.41702 255 0 0
11.5784 -4.00639 -4.42383 255 0 0
11.6734 -3.97737 -4.43974 255 0 0
12.3978 -4.09339 -4.58292 255 0 0
12.4096 -4.04839 -4.58235 255 0 0
12.4157 -4.00158 -4.58065 255 0 0
12.5221 -3.97044 -4.59883 255 0 0
12.5071 -3.70611 -4.58065 255 0 0
12.4117 -3.58201 -4.55565 255 0 0
13.4012 -3.79882 -4.75565 255 0 0
13.4389 -3.70646 -4.75792 255 0 0
13.412 -3.63068 -4.74883 255 0 0
13.2874 -3.56317 -4.72156 255 0 0
13.3486 -3.51181 -4.73065 255 0 0
13.4014 -3.49173 -4.73974 255 0 0
13.5038 -3.41604 -4.75565 255 0 0
13.4418 -3.33262 -4.73974 255 0 0
13.1819 -3.23503 -4.68519 255 0 0
12.3132 -2.9909 -4.50679 255 0 0
12.2099 -2.90456 -4.48292 255 0 0
12.5012 -2.81771 -4.5352 255 0 0
11.5388 -2.51468 -4.33634 255 0 0
11.6182 -2.44555 -4.34883 255 0 0
12.2379 -2.45501 -4.46929 255 0 0
13.209 -2.4549 -4.65792 255 0 0
13.2487 -2.42979 -4.66474 255 0 0
13.7748 -2.42512 -4.76701 255 0 0
13.9673 -2.42488 -4.80451 255 0 0
14.1315 -2.41889 -4.83633 255 0 0
14.4317 -2.43508 -4.89542 255 0 0
14.6301 -2.43289 -4.93406 255 0 0
10.8418 -3.72275 -4.66655 255 0 0
10.2716 -3.52697 -4.81348 255 0 0
10.4017 -3.16289 -4.72028 255 0 0
11.4397 -3.95841 -4.49953 255 0 0
12.3249 -4.13423 -4.68424 255 0 0
12.4017 -4.02956 -4.69253 255 0 0
12.4808 -3.98991 -4.70555 255 0 0
12.2991 -3.64449 -4.64872 255 0 0
11.8386 -3.29533 -4.53742 255 0 0
13.3721 -3.68804 -4.86421 255 0 0
12.232 -2.95582 -4.5984 255 0 0
12.1615 -2.89305 -4.58123 255 0 0
11.973 -2.81822 -4.53978 255 0 0
12.3241 -2.76242 -4.60787 255 0 0
11.4911 -2.53282 -4.42967 255 0 0
11.4415 -2.43669 -4.41546 255 0 0
12.4427 -2.43477 -4.61793 255 0 0
13.046 -2.39261 -4.73871 255 0 0
13.2435 -2.39638 -4.77896 255 0 0
13.4015 -2.39218 -4.81093 255 0 0
13.6048 -2.3952 -4.85237 255 0 0
13.7969 -2.39531 -4.89145 255 0 0
14.2096 -2.39759 -4.97551 255 0 0
14.515 -2.41375 -5.03827 255 0 0
10.2692 -3.49895 -4.81054 255 0 0
10.4676 -2.22927 -5.05922 255 0 0
10.6107 -3.15786 -4.67242 255 0 0
10.1954 -3.99474 -5.13002 255 0 0
10.2495 -3.11663 -4.7753 255 0 0
10.4331 -2.40362 -4.86878 255 0 0
10.7547 -2.4777 -4.66418 255 0 0
10.1434 -3.69945 -4.89303 255 0 0
13.2242 -2.3282 -5.00612 255 0 0
11.3579 -4.14242 -4.60128 255 0 0
11.3278 -4.04037 -4.58773 255 0 0
12.4494 -4.01245 -4.81436 255 0 0
12.4172 -3.95342 -4.80389 255 0 0
12.5217 -3.83998 -4.81805 255 0 0
11.4208 -3.32541 -4.5594 255 0 0
12.1705 -2.83428 -4.68873 255 0 0
12.2497 -2.82212 -4.70474 255 0 0
12.1447 -2.76763 -4.68011 255 0 0
12.2406 -2.75897 -4.69981 255 0 0
11.3144 -2.49389 -4.49289 255 0 0
11.2841 -2.44515 -4.48427 255 0 0
11.3935 -2.42646 -4.50644 255 0 0
11.6179 -2.33063 -4.54955 255 0 0
11.6121 -2.30085 -4.54709 255 0 0
11.6566 -2.25228 -4.55448 255 0 0
11.6897 -2.20121 -4.5594 255 0 0
12.8373 -2.38582 -4.80943 255 0 0
12.9725 -2.37913 -4.83776 255 0 0
13.1527 -2.37996 -4.87594 255 0 0
13.2992 -2.37391 -4.90673 255 0 0
14.5461 -2.41892 -5.17277 255 0 0
10.1869 -2.60269 -4.81726 255 0 0
10.5417 -2.44179 -4.70748 255 0 0
10.3802 -4.0105 -5.0811 255 0 0
10.405 -3.19088 -4.72312 255 0 0
10.4258 -4.05655 -4.9976 255 0 0
11.1966 -4.05352 -4.66585 255 0 0
11.2217 -4.01751 -4.66841 255 0 0
11.252 -3.98331 -4.67225 255 0 0
11.2129 -3.93957 -4.66073 255 0 0
11.1209 -3.80386 -4.63131 255 0 0
11.0198 -3.63841 -4.59805 255 0 0
11.2456 -3.68341 -4.64922 255 0 0
12.353 -3.91681 -4.90122 255 0 0
11.0015 -3.31681 -4.57247 255 0 0
11.0531 -3.3038 -4.5827 255 0 0
11.0319 -3.25475 -4.57503 255 0 0
11.0873 -3.22829 -4.58526 255 0 0
11.0476 -3.15997 -4.57247 255 0 0
10.9946 -3.11662 -4.5584 255 0 0
11.0404 -3.10136 -4.56735 255 0 0
11.0457 -3.01824 -4.56351 255 0 0
11.0528 -2.99204 -4.56351 255 0 0
11.0358 -2.94534 -4.55712 255 0 0
11.0075 -2.8959 -4.54816 255 0 0
11.0776 -2.83026 -4.55968 255 0 0
11.0938 -2.69469 -4.55584 255 0 0
11.1689 -2.60102 -4.56735 255 0 0
11.2758 -2.56961 -4.5891 255 0 0
11.2094 -2.52654 -4.57247 255 0 0
11.1379 -2.39966 -4.55072 255 0 0
11.3393 -2.38683 -4.59421 255 0 0
11.5855 -2.38135 -4.64794 255 0 0
11.5855 -2.35274 -4.64666 255 0 0
11.5351 -2.31402 -4.63387 255 0 0
11.5629 -2.29111 -4.63899 255 0 0
11.6132 -2.27246 -4.64922 255 0 0
11.7981 -2.27961 -4.69015 255 0 0
12.331 -2.32197 -4.80912 255 0 0
12.5668 -2.33553 -4.86157 255 0 0
12.6903 -2.32738 -4.88843 255 0 0
12.8588 -2.32679 -4.92553 255 0 0
14.063 -2.33859 -5.1916 255 0 0
10.7663 -2.26623 -5.24411 255 0 0
10.389 -2.47139 -4.76649 255 0 0
10.394 -3.25504 -4.72525 255 0 0
10.4334 -2.35163 -4.86575 255 0 0
10.9098 -4.00831 -4.7037 255 0 0
10.9032 -3.97657 -4.69972 255 0 0
10.8759 -3.85015 -4.6838 255 0 0
10.8635 -3.81679 -4.67849 255 0 0
10.8491 -3.75404 -4.67053 255 0 0
10.8312 -3.6475 -4.65859 255 0 0
10.8279 -3.60355 -4.65461 255 0 0
10.8136 -3.5561 -4.64798 255 0 0
10.7992 -3.39598 -4.63338 255 0 0
10.7948 -3.35248 -4.6294 255 0 0
10.7806 -3.29209 -4.62211 255 0 0
10.7786 -3.24961 -4.61879 255 0 0
10.7863 -3.22405 -4.61879 255 0 0
10.7833 -3.15365 -4.61349 255 0 0
10.7799 -3.0834 -4.60818 255 0 0
10.807 -3.00818 -4.60951 255 0 0
10.8009 -2.80051 -4.59558 255 0 0
10.8145 -2.73573 -4.59491 255 0 0
10.8368 -2.64589 -4.59491 255 0 0
10.8517 -2.60867 -4.59624 255 0 0
10.8811 -2.534 -4.59889 255 0 0
10.8704 -2.50436 -4.59491 255 0 0
10.9157 -2.44673 -4.60221 255 0 0
10.9941 -2.39596 -4.61747 255 0 0
11.089 -2.36162 -4.63736 255 0 0
11.195 -2.35646 -4.66124 255 0 0
11.5077 -2.36535 -4.73288 255 0 0
11.6083 -2.35736 -4.75544 255 0 0
11.9885 -2.3164 -4.84034 255 0 0
12.1228 -2.31255 -4.87085 255 0 0
12.4925 -2.32173 -4.95576 255 0 0
12.6606 -2.32194 -4.99423 255 0 0
13.3564 -2.31882 -5.15343 255 0 0
13.5417 -2.31794 -5.19588 255 0 0
10.4263 -2.29813 -4.9561 255 0 0
11.1451 -2.34596 -4.74936 255 0 0
10.3298 -3.7536 -4.84725 255 0 0
10.4183 -2.91327 -4.70677 255 0 0
10.1351 -2.43639 -5.07354 255 0 0
10.7743 -4.04576 -4.77822 255 0 0
10.77 -4.00048 -4.77341 255 0 0
10.7548 -3.95135 -4.76585 255 0 0
10.6915 -3.84203 -4.74249 255 0 0
10.6863 -3.79732 -4.73768 255 0 0
10.6703 -3.7489 -4.73013 255 0 0
10.6593 -3.70253 -4.72394 255 0 0
10.6525 -3.64365 -4.71776 255 0 0
10.6492 -3.60027 -4.71364 255 0 0
10.6146 -3.21391 -4.67723 255 0 0
10.6073 -3.04765 -4.66418 255 0 0
10.6189 -2.99654 -4.66349 255 0 0
10.6304 -2.89122 -4.65937 255 0 0
10.6513 -2.80218 -4.65868 255 0 0
10.6556 -2.76285 -4.65731 255 0 0
10.6631 -2.71089 -4.65593 255 0 0
10.692 -2.57028 -4.65456 255 0 0
10.7262 -2.52476 -4.66005 255 0 0
10.7439 -2.4484 -4.66005 255 0 0
10.7637 -2.41267 -4.6628 255 0 0
11.2342 -2.33692 -4.76997 255 0 0
11.6802 -2.31435 -4.8744 255 0 0
11.803 -2.3096 -4.90325 255 0 0
11.9258 -2.30428 -4.9321 255 0 0
12.1157 -2.3112 -4.97745 255 0 0
12.4399 -2.31196 -5.05439 255 0 0
12.5909 -2.30915 -5.09011 255 0 0
12.7812 -2.31274 -5.13546 255 0 0
13.19 -2.32217 -5.23301 255 0 0
10.2216 -2.59865 -4.92017 255 0 0
10.5604 -2.30144 -4.89606 255 0 0
10.192 -3.71718 -5.10106 255 0 0
11.9446 -2.27855 -5.25826 255 0 0
10.5653 -4.01021 -4.82758 255 0 0
10.5523 -3.94812 -4.81905 255 0 0
10.5241 -3.85246 -4.80413 255 0 0
10.4843 -3.79567 -4.78992 255 0 0
10.4737 -3.74975 -4.78352 255 0 0
10.4492 -3.65732 -4.77002 255 0 0
10.4254 -3.55216 -4.75581 255 0 0
10.4249 -3.45569 -4.74799 255 0 0
10.4114 -3.39653 -4.74017 255 0 0
10.4021 -3.04216 -4.71175 255 0 0
10.4129 -3.00515 -4.71175 255 0 0
10.421 -2.86083 -4.70393 255 0 0
10.4208 -2.80769 -4.70038 255 0 0
10.434 -2.75825 -4.70038 255 0 0
10.4437 -2.72112 -4.70038 255 0 0
10.4597 -2.65917 -4.70038 255 0 0
10.5125 -2.54031 -4.70606 255 0 0
10.5492 -2.50949 -4.71317 255 0 0
10.6226 -2.36782 -4.72312 255 0 0
10.6892 -2.35608 -4.73875 255 0 0
10.7613 -2.34524 -4.75581 255 0 0
11.1779 -2.29756 -4.85529 255 0 0
11.6786 -2.28525 -4.97752 255 0 0
11.9794 -2.28519 -5.05143 255 0 0
12.1132 -2.28096 -5.08412 255 0 0
12.3976 -2.2737 -5.15376 255 0 0
12.6433 -2.28779 -5.21487 255 0 0
12.8165 -2.28775 -5.25751 255 0 0
13.0121 -2.29084 -5.30583 255 0 0
10.3694 -3.90775 -4.87074 255 0 0
10.359 -3.80593 -4.859 255 0 0
10.3111 -3.70532 -4.83844 255 0 0
10.3028 -3.66103 -4.83256 255 0 0
10.2853 -3.59996 -4.82302 255 0 0
10.2739 -3.55502 -4.81641 255 0 0
10.2574 -3.34628 -4.79512 255 0 0
10.2557 -3.30543 -4.79145 255 0 0
10.2566 -3.26549 -4.78851 255 0 0
10.2546 -3.15807 -4.7797 255 0 0
10.246 -3.08905 -4.77236 255 0 0
10.2597 -3.0534 -4.77309 255 0 0
10.2659 -3.00232 -4.77089 255 0 0
10.2664 -2.9497 -4.76722 255 0 0
10.2775 -2.90021 -4.76649 255 0 0
10.2915 -2.78595 -4.76208 255 0 0
10.2926 -2.76007 -4.76061 255 0 0
10.2991 -2.73566 -4.76061 255 0 0
10.3626 -2.55617 -4.76502 255 0 0
10.3801 -2.50833 -4.76649 255 0 0
10.4506 -2.38157 -4.77677 255 0 0
10.4894 -2.36426 -4.78558 255 0 0
10.5503 -2.35172 -4.80026 255 0 0
10.6057 -2.33767 -4.81348 255 0 0
10.733 -2.31243 -4.84431 255 0 0
10.8935 -2.26604 -4.88249 255 0 0
11.0043 -2.26189 -4.91039 255 0 0
11.4816 -2.275 -5.03227 255 0 0
11.6205 -2.27389 -5.06751 255 0 0
11.7539 -2.27106 -5.10128 255 0 0
12.2044 -2.26819 -5.21582 255 0 0
10.1574 -2.39088 -5.07685 255 0 0
10.3035 -3.98086 -4.95971 255 0 0
10.1993 -3.85745 -4.92182 255 0 0
10.1872 -3.82531 -4.91576 255 0 0
10.1567 -3.74529 -4.90061 255 0 0
10.1342 -3.64175 -4.88545 255 0 0
10.1232 -3.50286 -4.8703 255 0 0
10.1224 -3.35542 -4.85742 255 0 0
10.1224 -3.1042 -4.83696 255 0 0
10.1234 -3.01284 -4.83014 255 0 0
10.1329 -2.9504 -4.82786 255 0 0
10.1542 -2.81349 -4.82332 255 0 0
10.1592 -2.76307 -4.82105 255 0 0
10.1722 -2.71487 -4.82105 255 0 0
10.1799 -2.65237 -4.81877 255 0 0
10.2095 -2.58269 -4.8218 255 0 0
10.2186 -2.54634 -4.8218 255 0 0
10.2331 -2.51135 -4.82332 255 0 0
10.2555 -2.49108 -4.82786 255 0 0
10.2614 -2.46676 -4.82786 255 0 0
10.461 -2.3318 -4.87181 255 0 0
10.5107 -2.31673 -4.88394 255 0 0
10.6597 -2.27019 -4.92031 255 0 0
10.7038 -2.25306 -4.93092 255 0 0
10.9636 -2.25352 -4.99911 255 0 0
11.1131 -2.25679 -5.03851 255 0 0
11.4843 -2.27552 -5.13702 255 0 0
10.1267 -3.66618 -5.07853 255 0 0
10.4767 -4.10497 -5.11547 255 0 0
10.3549 -4.02896 -5.07641 255 0 0
10.337 -3.96566 -5.06547 255 0 0
10.378 -3.9532 -5.07485 255 0 0
10.2765 -3.88666 -5.04204 255 0 0
10.2087 -3.77821 -5.01391 255 0 0
10.2176 -3.75399 -5.01391 255 0 0
10.1999 -3.72009 -5.0061 255 0 0
10.1451 -3.67284 -4.98735 255 0 0
10.1484 -3.64687 -4.98579 255 0 0
10.1466 -2.77256 -4.91235 255 0 0
10.1487 -2.72149 -4.90923 255 0 0
10.1661 -2.70032 -4.91235 255 0 0
10.2776 -2.56107 -4.93267 255 0 0
10.2732 -2.50828 -4.92798 255 0 0
10.3547 -2.3339 -4.93892 255 0 0
10.4703 -2.28182 -4.96704 255 0 0
10.5088 -2.26412 -4.97641 255 0 0
10.5665 -2.23723 -4.99048 255 0 0
11.2096 -2.27639 -5.16703 255 0 0
11.1486 -2.23648 -5.14828 255 0 0
11.519 -2.25403 -5.24984 255 0 0
10.1617 -3.92606 -5.11393 255 0 0
10.1841 -3.85169 -5.11232 255 0 0
10.1879 -3.82555 -5.11071 255 0 0
10.1178 -3.77189 -5.08657 255 0 0
10.2677 -3.7724 -5.12681 255 0 0
10.2299 -2.7043 -5.02462 255 0 0
10.2008 -2.58049 -5.00772 255 0 0
10.2451 -2.56587 -5.01898 255 0 0
10.1764 -2.40807 -4.98921 255 0 0
10.2096 -2.36486 -4.99565 255 0 0
10.2921 -2.31979 -5.01577 255 0 0
10.369 -2.2855 -5.03508 255 0 0
10.3909 -2.2645 -5.03991 255 0 0
10.3605 -4.11624 -5.28716 255 0 0
10.1551 -3.97897 -5.21595 255 0 0
10.1795 -2.37061 -5.08182 255 0 0
10.3275 -2.27636 -5.11825 255 0 0
10.3766 -2.23564 -5.12984 255 0 0
10.4149 -2.21805 -5.13978 255 0 0
10.1488 -2.33812 -5.16517 255 0 0
10.1707 -2.31778 -5.17028 255 0 0
10.2172 -2.29016 -5.1822 255 0 0
10.3017 -2.24508 -5.20433 255 0 0
10.4931 -2.23471 -5.26052 255 0 0
10.1498 -2.38907 -5.26386 255 0 0
10.2237 -2.31709 -5.28135 255 0 0
10.3191 -2.26167 -5.30672 255 0 0
