ply
format ascii 1.0
comment Created by Open3D
element vertex 1360
property double x
property double y
property double z
property uchar red
property uchar green
property uchar blue
end_header
1.78862 -6.51533 -4.05336 255 0 0
1.76737 -6.55961 -3.69982 255 0 0
2.05761 -7.29159 -4.23395 255 0 0
2.55808 -6.93714 -3.65528 255 0 0
2.31153 -4.81804 -4.49189 255 0 0
2.80638 -6.58124 -3.72711 255 0 0
2.91706 -5.88804 -3.93752 255 0 0
2.58001 -4.92561 -4.15568 255 0 0
1.45984 -7.10225 -5.02102 255 0 0
1.65654 -6.64776 -4.92155 255 0 0
3.04806 -5.76917 -4.04239 255 0 0
2.97322 -5.40833 -4.21733 255 0 0
2.28219 -7.47352 -4.23366 255 0 0
2.78402 -5.82645 -3.84583 255 0 0
2.86777 -5.6531 -4.15912 255 0 0
1.2948 -7.72962 -4.96371 255 0 0
3.04656 -5.83315 -4.18064 255 0 0
1.6384 -6.78015 -3.7453 255 0 0
2.82788 -5.55818 -4.06646 255 0 0
2.31237 -7.35331 -4.27286 255 0 0
2.54192 -6.55603 -4.07331 255 0 0
2.68239 -6.45961 -4.25336 255 0 0
1.38086 -8.12507 -4.13507 255 0 0
1.84767 -8.06369 -4.29051 255 0 0
2.02623 -5.09999 -4.07522 255 0 0
1.99688 -6.37647 -4.33807 255 0 0
1.85607 -6.34649 -4.25225 255 0 0
1.55133 -7.11846 -3.75871 255 0 0
1.98835 -4.78824 -4.41765 255 0 0
2.31217 -5.72069 -3.76376 255 0 0
1.75646 -6.77425 -5.05331 255 0 0
2.79051 -5.80461 -3.841 255 0 0
2.31661 -5.77098 -3.72179 255 0 0
1.70223 -6.56508 -3.69697 255 0 0
1.34474 -7.09507 -4.19468 255 0 0
2.4104 -5.57913 -4.12663 255 0 0
1.74852 -6.61437 -3.65154 255 0 0
1.36601 -7.11504 -4.13624 255 0 0
2.3079 -5.07529 -4.10835 255 0 0
1.82313 -7.46702 -4.336 255 0 0
1.95037 -5.28913 -3.97257 255 0 0
1.83656 -7.92878 -4.18076 255 0 0
1.82879 -5.36743 -3.98417 255 0 0
2.46308 -5.52042 -4.17179 255 0 0
2.84235 -5.85901 -3.92013 255 0 0
2.30525 -5.33579 -4.14296 255 0 0
1.57007 -7.24571 -5.01693 255 0 0
2.26107 -5.71081 -3.75571 255 0 0
1.85013 -5.49396 -3.92096 255 0 0
1.61561 -7.12848 -5.04541 255 0 0
1.94663 -6.37465 -4.33227 255 0 0
1.96672 -4.96737 -4.07123 255 0 0
1.92814 -5.57226 -3.79201 255 0 0
2.04767 -8.47381 -4.25842 255 0 0
2.29869 -5.48049 -4.13517 255 0 0
1.47329 -7.1678 -3.89572 255 0 0
1.8168 -6.2952 -3.63941 255 0 0
2.94259 -5.23434 -4.21386 255 0 0
2.98882 -6.14236 -4.26352 255 0 0
2.57826 -6.44488 -4.2363 255 0 0
1.8262 -5.33904 -4.02727 255 0 0
1.51134 -7.13802 -4.08561 255 0 0
2.94899 -5.84758 -3.99036 255 0 0
2.18231 -7.52822 -4.1702 255 0 0
2.83695 -6.65296 -4.19808 255 0 0
2.91682 -6.41438 -4.20564 255 0 0
2.16422 -4.83517 -4.10453 255 0 0
1.40154 -7.59131 -4.99276 255 0 0
1.87833 -7.73291 -4.2747 255 0 0
2.78643 -6.71015 -3.69014 255 0 0
2.80708 -5.07747 -4.19396 255 0 0
2.35718 -5.77282 -3.72648 255 0 0
2.36251 -6.4068 -4.32588 255 0 0
3.05906 -5.53329 -4.21237 255 0 0
1.97388 -5.39223 -3.95585 255 0 0
1.26906 -7.46725 -4.30194 255 0 0
2.04389 -5.66658 -3.72192 255 0 0
1.4424 -7.14622 -3.95344 255 0 0
2.41935 -6.4199 -4.21026 255 0 0
1.79563 -6.45092 -5.05498 255 0 0
2.02969 -6.02715 -3.64756 255 0 0
2.64934 -7.40008 -4.38878 255 0 0
1.78473 -7.96223 -4.25926 255 0 0
1.51158 -6.936 -5.0272 255 0 0
2.94399 -6.59826 -4.26162 255 0 0
1.31659 -7.22713 -4.16605 255 0 0
2.90296 -6.46508 -4.15381 255 0 0
1.42007 -8.12256 -4.06318 255 0 0
2.95691 -6.38167 -4.26593 255 0 0
1.89371 -7.16357 -4.31934 255 0 0
2.88018 -5.6444 -4.04149 255 0 0
1.35522 -7.05885 -4.18446 255 0 0
1.92261 -6.24295 -3.98526 255 0 0
2.64822 -6.73525 -3.68351 255 0 0
2.09248 -5.63333 -3.77192 255 0 0
2.11037 -7.21603 -4.28492 255 0 0
1.9639 -4.87008 -4.08616 255 0 0
2.47229 -6.4216 -4.21685 255 0 0
1.4605 -6.74002 -4.09593 255 0 0
2.81077 -6.38085 -3.68314 255 0 0
1.26697 -7.56348 -4.12333 255 0 0
2.61391 -6.46715 -4.31141 255 0 0
2.31195 -5.90056 -3.69808 255 0 0
3.19176 -5.40428 -4.25494 255 0 0
2.89549 -7.85216 -3.65566 255 0 0
3.14627 -5.64354 -4.14105 255 0 0
1.39916 -7.19551 -4.02959 255 0 0
1.41377 -7.41117 -4.99736 255 0 0
2.10474 -6.01336 -3.65049 255 0 0
1.74636 -6.24524 -5.02392 255 0 0
2.68243 -5.54608 -4.21337 255 0 0
2.3632 -7.60942 -4.20614 255 0 0
3.0487 -5.7704 -4.10253 255 0 0
2.10597 -5.24624 -4.08422 255 0 0
1.39068 -7.73783 -4.03669 255 0 0
1.28362 -8.13567 -4.06082 255 0 0
2.95205 -6.45121 -4.4165 255 0 0
2.36822 -5.89954 -3.70339 255 0 0
2.31535 -5.26744 -4.12136 255 0 0
1.76432 -6.36763 -3.88874 255 0 0
1.82018 -5.96048 -3.78146 255 0 0
1.74528 -7.61682 -4.23366 255 0 0
1.79387 -5.45489 -4.00931 255 0 0
2.33002 -5.39313 -3.94674 255 0 0
2.53826 -5.54693 -4.19159 255 0 0
1.96485 -5.6137 -3.7537 255 0 0
1.88364 -6.27475 -4.23149 255 0 0
2.10675 -6.18319 -3.63444 255 0 0
1.76572 -6.74411 -5.0416 255 0 0
1.51623 -7.11952 -3.82133 255 0 0
2.76345 -5.52848 -3.99121 255 0 0
2.64741 -5.89595 -3.84744 255 0 0
2.67467 -6.48438 -4.3243 255 0 0
1.87394 -5.95913 -3.67384 255 0 0
1.36979 -7.18064 -3.95874 255 0 0
2.31514 -5.39377 -3.99928 255 0 0
1.36724 -7.12156 -5.02139 255 0 0
1.56671 -6.76371 -5.02912 255 0 0
1.42551 -7.14992 -4.084 255 0 0
2.16051 -7.48616 -4.22723 255 0 0
1.52309 -8.08847 -4.05939 255 0 0
2.98059 -5.87554 -4.00228 255 0 0
2.91309 -5.67562 -4.17296 255 0 0
1.70028 -6.92822 -5.04213 255 0 0
1.64123 -6.39218 -4.00569 255 0 0
2.06577 -6.4619 -4.37385 255 0 0
2.17748 -5.07305 -4.08764 255 0 0
1.52487 -7.24429 -5.01252 255 0 0
2.23076 -4.78469 -4.4085 255 0 0
1.71126 -6.53608 -4.05336 255 0 0
2.47106 -5.9308 -3.72157 255 0 0
2.81375 -5.69649 -3.98875 255 0 0
2.90812 -6.66599 -4.27648 255 0 0
2.83064 -6.63817 -4.45803 255 0 0
3.11141 -5.65965 -4.14013 255 0 0
2.11719 -5.09851 -4.08764 255 0 0
2.22876 -4.81016 -4.47209 255 0 0
1.95221 -6.47523 -4.17884 255 0 0
1.9981 -6.59916 -4.34854 255 0 0
2.61495 -6.7207 -3.67754 255 0 0
1.36526 -7.02121 -4.70482 255 0 0
2.12699 -7.14688 -4.26619 255 0 0
2.76189 -6.56302 -3.71887 255 0 0
2.82364 -6.57847 -4.37219 255 0 0
2.88928 -5.56412 -4.07751 255 0 0
2.40848 -5.78064 -3.7339 255 0 0
2.1818 -5.30734 -4.11562 255 0 0
2.31697 -5.09522 -4.11664 255 0 0
2.01455 -4.85132 -4.08688 255 0 0
2.70372 -7.02269 -3.6847 255 0 0
2.34746 -4.82428 -4.50179 255 0 0
2.41765 -5.71971 -3.77502 255 0 0
1.55033 -7.40884 -5.00709 255 0 0
2.85993 -6.57679 -3.73123 255 0 0
1.60615 -6.93405 -5.03524 255 0 0
1.99887 -7.34942 -4.38405 255 0 0
2.66139 -6.49585 -4.32614 255 0 0
1.94595 -5.35522 -3.94075 255 0 0
1.37695 -6.99276 -4.10147 255 0 0
2.4935 -6.43115 -4.28562 255 0 0
2.21073 -5.76252 -3.7089 255 0 0
2.12791 -7.40618 -4.41204 255 0 0
1.47786 -8.27931 -4.2535 255 0 0
2.7657 -5.46799 -4.20149 255 0 0
1.65173 -7.45164 -4.25051 255 0 0
1.88097 -6.43162 -4.28246 255 0 0
2.74571 -6.31413 -3.96813 255 0 0
2.19978 -8.48402 -4.19299 255 0 0
2.76294 -5.06839 -4.18291 255 0 0
1.74328 -5.75757 -4.50644 255 0 0
2.41207 -6.2211 -3.6695 255 0 0
1.77901 -6.2476 -4.21261 255 0 0
1.65704 -6.85731 -3.64106 255 0 0
2.73473 -5.79377 -3.83135 255 0 0
1.86198 -5.61709 -3.85232 255 0 0
2.7237 -5.5975 -3.94852 255 0 0
2.71126 -5.63974 -4.13143 255 0 0
1.63501 -7.3762 -4.15964 255 0 0
1.6382 -6.13808 -4.10513 255 0 0
2.92503 -6.6189 -4.26511 255 0 0
2.433 -6.41001 -4.33532 255 0 0
1.66545 -6.61653 -5.04456 255 0 0
2.01165 -5.88119 -3.6655 255 0 0
2.80725 -5.22305 -4.18617 255 0 0
2.01101 -5.70221 -3.72835 255 0 0
1.96495 -5.08573 -4.06175 255 0 0
2.11145 -5.98697 -3.64462 255 0 0
2.26528 -6.14311 -4.16959 255 0 0
2.44987 -5.78317 -3.73898 255 0 0
2.28014 -8.46278 -4.19299 255 0 0
1.40476 -7.22434 -4.99486 255 0 0
2.06781 -5.52672 -3.84707 255 0 0
2.11447 -4.78469 -4.4393 255 0 0
1.27923 -7.52707 -4.11396 255 0 0
1.30805 -7.27809 -4.7263 255 0 0
2.6203 -5.55132 -4.20545 255 0 0
1.87705 -5.2824 -4.01407 255 0 0
1.74999 -5.68244 -4.13616 255 0 0
1.80607 -6.64052 -5.07081 255 0 0
1.3743 -7.06768 -4.12299 255 0 0
1.43768 -7.12283 -4.81709 255 0 0
2.55112 -6.37707 -4.08741 255 0 0
1.55548 -7.26148 -4.05615 255 0 0
1.91354 -5.17028 -4.03257 255 0 0
1.81025 -5.78053 -3.89605 255 0 0
2.17824 -7.58134 -4.39729 255 0 0
1.9587 -6.41417 -4.28435 255 0 0
1.27534 -7.39797 -4.28151 255 0 0
2.76684 -5.86174 -3.7947 255 0 0
1.76881 -5.7679 -3.94363 255 0 0
1.27594 -7.9643 -4.08955 255 0 0
1.45824 -7.59543 -4.9984 255 0 0
2.76225 -6.47778 -4.33351 255 0 0
2.01216 -7.16301 -4.397 255 0 0
1.90267 -5.23612 -4.00153 255 0 0
2.82625 -6.54172 -4.16573 255 0 0
2.65091 -5.65086 -3.95377 255 0 0
1.83027 -6.12337 -3.71248 255 0 0
1.57568 -6.95235 -3.78367 255 0 0
2.17537 -5.45652 -4.11042 255 0 0
1.76852 -5.84095 -4.02225 255 0 0
1.24287 -7.64181 -4.14364 255 0 0
2.71366 -5.64475 -4.13332 255 0 0
1.97713 -5.44105 -3.81209 255 0 0
2.37429 -5.75615 -3.77985 255 0 0
1.2894 -7.47953 -4.10146 255 0 0
1.96056 -8.41873 -4.23933 255 0 0
1.85481 -5.82585 -3.74766 255 0 0
2.21388 -5.88871 -3.68571 255 0 0
2.55555 -6.45459 -4.30036 255 0 0
2.11314 -5.45012 -4.04541 255 0 0
2.16789 -7.34798 -4.39805 255 0 0
1.8927 -5.44894 -3.85835 255 0 0
1.76568 -6.25697 -3.74203 255 0 0
2.45815 -5.72697 -3.78146 255 0 0
1.90649 -6.35085 -4.19722 255 0 0
2.0679 -5.99914 -3.64389 255 0 0
2.15384 -5.63422 -3.77854 255 0 0
2.85901 -5.58653 -4.19593 255 0 0
2.4335 -6.32082 -4.307 255 0 0
1.47072 -7.1985 -4.03427 255 0 0
1.85757 -7.37985 -4.24388 255 0 0
2.18125 -7.52455 -4.45227 255 0 0
2.06327 -5.98576 -3.64022 255 0 0
2.70778 -6.4558 -4.06421 255 0 0
1.91008 -7.22551 -4.40777 255 0 0
1.9133 -6.05915 -3.64609 255 0 0
2.02774 -5.22986 -4.06802 255 0 0
2.71024 -7.45849 -4.41176 255 0 0
1.71602 -6.0811 -4.1522 255 0 0
1.99222 -6.30908 -4.07096 255 0 0
2.79172 -5.60162 -4.01635 255 0 0
1.92938 -5.23221 -4.00351 255 0 0
1.85277 -6.11919 -3.77022 255 0 0
1.22434 -7.75992 -4.10499 255 0 0
2.94367 -5.76882 -4.02723 255 0 0
1.67462 -6.82367 -3.63442 255 0 0
1.87223 -5.47367 -3.86373 255 0 0
2.05564 -8.59604 -4.21147 255 0 0
1.76731 -6.75017 -4.24797 255 0 0
2.9048 -6.55215 -4.30902 255 0 0
1.497 -7.60245 -4.00732 255 0 0
2.74892 -6.51061 -4.3418 255 0 0
1.26873 -7.62954 -4.0724 255 0 0
2.90741 -6.42066 -4.27071 255 0 0
2.69702 -6.765 -3.69412 255 0 0
1.87816 -5.16867 -4.02751 255 0 0
2.01357 -6.07437 -3.65784 255 0 0
2.664 -5.97075 -3.75188 255 0 0
2.38423 -6.41877 -3.65292 255 0 0
1.98683 -6.24045 -4.04997 255 0 0
1.93783 -5.29374 -3.97257 255 0 0
3.07375 -5.55988 -4.22301 255 0 0
1.63108 -6.29066 -3.97504 255 0 0
2.46001 -6.43509 -4.28286 255 0 0
1.84978 -5.7161 -3.93555 255 0 0
2.66985 -6.47271 -4.19165 255 0 0
2.19717 -4.95598 -4.10171 255 0 0
1.83923 -8.02683 -4.20652 255 0 0
2.00678 -5.4421 -3.81559 255 0 0
1.28836 -7.36909 -4.20579 255 0 0
1.71224 -6.355 -3.8223 255 0 0
2.36316 -4.94564 -4.12499 255 0 0
3.05829 -5.36544 -4.21881 255 0 0
1.65563 -6.003 -4.12105 255 0 0
1.98497 -6.23462 -4.10792 255 0 0
2.28392 -5.32105 -4.13486 255 0 0
2.37444 -5.09289 -4.12492 255 0 0
1.51357 -7.27609 -4.05771 255 0 0
2.90469 -5.09595 -4.21812 255 0 0
2.397 -6.45314 -4.34476 255 0 0
2.10727 -5.75661 -3.69731 255 0 0
1.67388 -6.58409 -3.69982 255 0 0
2.67988 -7.06043 -4.29513 255 0 0
2.26156 -6.20086 -3.65149 255 0 0
1.82196 -6.45651 -4.22301 255 0 0
2.75529 -5.90975 -3.92262 255 0 0
1.8947 -5.90265 -4.22723 255 0 0
1.59868 -6.16572 -4.11066 255 0 0
1.86968 -5.11695 -4.07304 255 0 0
2.56197 -5.58124 -3.92229 255 0 0
2.46053 -5.18097 -4.11461 255 0 0
1.76065 -5.86506 -4.14275 255 0 0
2.23698 -8.30259 -4.22758 255 0 0
2.01164 -5.7693 -3.69171 255 0 0
1.3479 -7.20505 -4.09527 255 0 0
3.02391 -5.90875 -3.89733 255 0 0
1.89504 -5.13908 -4.01941 255 0 0
1.2201 -7.61576 -4.2047 255 0 0
1.62643 -6.94666 -3.65963 255 0 0
1.8964 -5.41814 -3.84937 255 0 0
2.71774 -5.72258 -3.86797 255 0 0
1.88203 -8.03835 -4.28582 255 0 0
1.71199 -5.80264 -4.5207 255 0 0
1.5654 -6.61527 -5.03343 255 0 0
1.95302 -7.24865 -4.41854 255 0 0
1.97277 -7.87701 -4.24832 255 0 0
1.74571 -6.73276 -4.24079 255 0 0
2.9112 -5.60625 -4.21044 255 0 0
1.31863 -7.75892 -4.97613 255 0 0
2.87204 -7.84581 -3.72516 255 0 0
2.7576 -7.37038 -4.39161 255 0 0
1.47864 -7.23726 -5.0059 255 0 0
1.9016 -5.62469 -3.77752 255 0 0
1.32102 -7.40063 -4.98656 255 0 0
3.14437 -5.53171 -4.1673 255 0 0
1.48773 -7.19473 -4.10009 255 0 0
2.73218 -6.80622 -3.70606 255 0 0
1.7248 -6.71765 -3.73535 255 0 0
2.62376 -5.55865 -3.92403 255 0 0
2.94979 -6.06214 -3.80644 255 0 0
3.06777 -5.71867 -4.17033 255 0 0
2.21617 -4.93555 -4.09747 255 0 0
2.6466 -5.53885 -4.20545 255 0 0
1.86145 -6.30915 -4.17972 255 0 0
2.07701 -7.03995 -4.36468 255 0 0
2.95102 -6.32958 -4.37874 255 0 0
2.92655 -6.43577 -4.34272 255 0 0
2.25968 -7.52739 -4.24654 255 0 0
2.87898 -6.5992 -4.45237 255 0 0
1.95898 -5.39109 -3.9007 255 0 0
1.87636 -7.84632 -4.30608 255 0 0
2.91961 -6.05476 -3.80113 255 0 0
2.4516 -6.43599 -3.66253 255 0 0
1.51704 -6.54938 -4.4153 255 0 0
1.67811 -6.87305 -3.70788 255 0 0
1.70572 -5.83232 -4.12631 255 0 0
2.99065 -5.23235 -4.22196 255 0 0
2.15161 -6.17073 -3.63515 255 0 0
2.24316 -5.09227 -4.10421 255 0 0
2.0626 -4.83701 -4.08904 255 0 0
1.95638 -5.44417 -3.86373 255 0 0
2.84516 -6.71631 -4.48446 255 0 0
1.85298 -5.21468 -4.04034 255 0 0
2.22168 -5.69002 -3.74605 255 0 0
2.03509 -6.34001 -4.20643 255 0 0
1.64861 -7.0414 -5.01314 255 0 0
3.15591 -5.40189 -4.24768 255 0 0
1.90924 -5.25423 -4.00846 255 0 0
2.18771 -6.20322 -3.64581 255 0 0
2.06869 -7.33088 -4.17734 255 0 0
2.0606 -4.78503 -4.42941 255 0 0
2.1153 -4.9606 -4.0907 255 0 0
3.22698 -5.29055 -4.28475 255 0 0
1.68291 -6.24615 -5.0165 255 0 0
1.85492 -5.16185 -4.07418 255 0 0
2.9233 -6.38838 -4.32799 255 0 0
2.47787 -6.4589 -4.16541 255 0 0
1.4472 -7.63566 -4.93885 255 0 0
2.1614 -7.35813 -4.26127 255 0 0
2.9709 -5.94349 -3.83975 255 0 0
2.26064 -4.80406 -4.4758 255 0 0
1.89471 -6.20463 -3.97163 255 0 0
2.61837 -6.10023 -3.95739 255 0 0
2.21429 -5.71102 -3.75088 255 0 0
1.78298 -6.55563 -4.18872 255 0 0
2.7659 -5.58288 -4.18014 255 0 0
1.65298 -6.91229 -3.71566 255 0 0
2.82082 -6.16443 -3.75622 255 0 0
1.85334 -6.06914 -3.70036 255 0 0
2.60909 -6.45526 -4.17941 255 0 0
3.09848 -5.86461 -3.95574 255 0 0
2.07018 -8.39246 -4.23933 255 0 0
2.20588 -5.89576 -3.68672 255 0 0
1.61623 -7.21053 -4.24576 255 0 0
3.00549 -6.32848 -3.81496 255 0 0
2.56046 -6.46697 -3.67902 255 0 0
1.37116 -7.00725 -4.16999 255 0 0
2.66828 -5.55036 -3.98403 255 0 0
1.26801 -7.5697 -4.33259 255 0 0
2.56204 -6.94784 -3.65784 255 0 0
2.92607 -5.07739 -4.21605 255 0 0
2.48125 -6.01546 -3.68574 255 0 0
1.77546 -6.528 -3.69271 255 0 0
2.8671 -6.40552 -3.75596 255 0 0
2.3767 -7.5267 -4.25619 255 0 0
1.7791 -6.42097 -3.66713 255 0 0
1.84563 -5.70327 -3.8218 255 0 0
2.6382 -5.83835 -3.83135 255 0 0
1.96 -7.94578 -4.19288 255 0 0
2.75135 -7.09618 -3.70389 255 0 0
2.75432 -7.46939 -4.34738 255 0 0
3.06096 -6.03398 -3.87334 255 0 0
1.45229 -7.19522 -3.90159 255 0 0
2.08936 -8.64635 -4.22568 255 0 0
2.6564 -5.69764 -3.96776 255 0 0
1.97638 -6.41755 -4.34968 255 0 0
2.71764 -6.5445 -3.71062 255 0 0
1.2301 -7.67816 -4.15302 255 0 0
3.17432 -5.27428 -4.26956 255 0 0
1.37049 -7.23092 -4.99486 255 0 0
1.81905 -7.81101 -4.36477 255 0 0
2.45892 -5.58208 -4.13437 255 0 0
2.70213 -5.8318 -3.7796 255 0 0
2.95968 -6.15643 -4.26352 255 0 0
1.49698 -6.6051 -4.11994 255 0 0
2.05171 -7.9909 -4.28426 255 0 0
3.01809 -5.8122 -4.04997 255 0 0
1.58758 -6.30723 -4.09535 255 0 0
2.81921 -6.00961 -3.77866 255 0 0
2.9726 -5.79156 -3.97844 255 0 0
1.80461 -6.22527 -3.73673 255 0 0
2.6673 -7.45025 -4.33331 255 0 0
2.21846 -5.08515 -4.098 255 0 0
1.54926 -6.5471 -4.10594 255 0 0
2.70019 -6.50249 -4.20389 255 0 0
1.61341 -6.28381 -4.03073 255 0 0
1.95128 -6.28307 -4.24093 255 0 0
2.93215 -6.53009 -4.24063 255 0 0
1.77774 -5.47137 -4.06687 255 0 0
2.59915 -5.71578 -3.85141 255 0 0
2.12542 -8.19724 -4.19381 255 0 0
2.515 -5.58331 -4.14275 255 0 0
1.31392 -7.56817 -4.97794 255 0 0
2.61045 -6.48072 -3.68658 255 0 0
2.05355 -7.99805 -4.21258 255 0 0
2.41986 -6.44438 -4.28102 255 0 0
2.20681 -5.73201 -3.75571 255 0 0
2.8223 -5.49872 -3.99121 255 0 0
2.78917 -6.80772 -3.71137 255 0 0
1.35975 -7.17433 -4.02177 255 0 0
2.01944 -6.39531 -4.28435 255 0 0
1.85915 -5.93667 -3.77824 255 0 0
2.17146 -4.96133 -4.09959 255 0 0
1.38787 -6.96112 -4.15722 255 0 0
2.05766 -7.16168 -4.40059 255 0 0
2.47021 -5.79292 -3.74366 255 0 0
2.71282 -5.22427 -4.17031 255 0 0
2.10528 -5.88038 -3.67358 255 0 0
1.66334 -6.54266 -4.05166 255 0 0
2.97406 -5.37955 -4.20842 255 0 0
3.07848 -5.963 -3.91825 255 0 0
1.287 -7.5728 -4.97794 255 0 0
1.26138 -7.42216 -4.21987 255 0 0
1.70912 -6.82433 -3.69826 255 0 0
1.43672 -8.21767 -4.23532 255 0 0
1.72066 -7.7626 -4.20145 255 0 0
2.74831 -6.79972 -3.70606 255 0 0
2.86166 -5.07628 -4.20362 255 0 0
1.41187 -6.91054 -4.1436 255 0 0
2.337 -5.23785 -4.11461 255 0 0
2.91945 -6.58519 -4.38692 255 0 0
2.97767 -5.93943 -3.95905 255 0 0
2.41205 -6.42356 -3.65635 255 0 0
2.55365 -6.06817 -3.70556 255 0 0
1.93969 -6.09241 -3.65637 255 0 0
3.09254 -5.75391 -4.04472 255 0 0
2.05508 -7.05799 -4.36827 255 0 0
2.88402 -6.38234 -3.7524 255 0 0
1.94555 -4.7972 -4.41394 255 0 0
1.87065 -6.17824 -4.25878 255 0 0
2.65093 -6.44848 -4.24617 255 0 0
2.91804 -6.31739 -4.30588 255 0 0
2.90772 -6.6009 -4.19212 255 0 0
2.02998 -7.9848 -4.28114 255 0 0
2.22156 -6.18212 -3.64368 255 0 0
2.9171 -6.49656 -4.09981 255 0 0
2.66497 -5.07318 -4.16703 255 0 0
2.30839 -6.01715 -3.66958 255 0 0
2.75322 -7.41215 -4.47501 255 0 0
1.9586 -5.70404 -3.72393 255 0 0
2.17305 -5.7663 -3.70616 255 0 0
1.95373 -7.08382 -4.36737 255 0 0
2.70186 -5.75946 -3.81847 255 0 0
1.67581 -6.30902 -3.86594 255 0 0
2.92757 -6.20232 -3.77678 255 0 0
1.58979 -7.25358 -4.12262 255 0 0
1.46652 -8.10469 -4.06082 255 0 0
1.2813 -7.3287 -4.26108 255 0 0
2.47256 -6.46796 -4.10444 255 0 0
2.21832 -7.3265 -4.25713 255 0 0
2.04278 -5.66349 -3.77523 255 0 0
2.54048 -6.41652 -4.16017 255 0 0
3.08138 -5.63663 -4.18807 255 0 0
2.59695 -6.94099 -3.65912 255 0 0
2.73095 -6.53279 -3.70925 255 0 0
1.85873 -7.69193 -4.33331 255 0 0
2.2165 -4.78366 -4.45848 255 0 0
2.85509 -7.91558 -3.81055 255 0 0
1.61992 -6.91888 -3.653 255 0 0
3.0369 -5.65038 -4.06662 255 0 0
2.58114 -6.47433 -4.30957 255 0 0
2.46977 -6.06915 -3.69748 255 0 0
2.86589 -6.5905 -4.3814 255 0 0
1.81228 -6.30764 -3.8171 255 0 0
1.79465 -5.50116 -4.02478 255 0 0
1.79432 -6.41674 -3.66713 255 0 0
2.7777 -5.92113 -4.22771 255 0 0
2.47568 -6.16726 -4.26358 255 0 0
2.06836 -6.4699 -4.31361 255 0 0
2.41942 -5.90521 -3.70995 255 0 0
2.40611 -6.62155 -3.63885 255 0 0
2.36265 -6.05106 -4.21261 255 0 0
2.03872 -5.56936 -3.74874 255 0 0
1.74025 -8.12408 -4.22622 255 0 0
1.42038 -7.16833 -4.02334 255 0 0
1.81758 -5.4615 -3.96057 255 0 0
1.46696 -7.4036 -4.99845 255 0 0
1.80364 -5.71189 -4.15199 255 0 0
2.77247 -6.00226 -3.77158 255 0 0
1.46764 -6.77285 -4.10614 255 0 0
1.84793 -5.6645 -3.97437 255 0 0
2.66716 -6.5099 -3.69826 255 0 0
1.93292 -7.99897 -4.20501 255 0 0
2.75967 -6.10712 -3.73615 255 0 0
3.02707 -5.25262 -4.23512 255 0 0
2.85226 -6.60192 -4.25112 255 0 0
1.4042 -7.13118 -4.07756 255 0 0
2.31068 -5.52745 -4.09634 255 0 0
1.90411 -5.98063 -4.25494 255 0 0
1.61378 -7.00482 -3.79859 255 0 0
2.01132 -7.25909 -4.35782 255 0 0
2.36296 -5.8864 -3.6996 255 0 0
2.04624 -8.38082 -4.23492 255 0 0
1.43524 -6.94089 -4.08987 255 0 0
1.71232 -6.76891 -5.04629 255 0 0
1.24704 -7.55434 -4.1886 255 0 0
2.9585 -6.26783 -4.29668 255 0 0
2.57017 -6.44681 -4.17241 255 0 0
2.26251 -4.79333 -4.41822 255 0 0
2.02177 -5.64717 -3.76861 255 0 0
1.82434 -6.29336 -3.69748 255 0 0
1.74223 -6.52788 -3.99217 255 0 0
1.97431 -6.02762 -3.64315 255 0 0
1.85776 -6.13566 -3.66077 255 0 0
2.67777 -5.65573 -4.13143 255 0 0
2.67467 -7.02158 -3.68215 255 0 0
1.53404 -8.20006 -4.23532 255 0 0
1.37294 -7.90819 -4.95923 255 0 0
1.95138 -7.75255 -4.28516 255 0 0
2.08816 -5.70441 -3.7364 255 0 0
2.54816 -6.05513 -3.70189 255 0 0
2.36031 -5.72231 -3.76939 255 0 0
1.47291 -7.38765 -3.95152 255 0 0
1.31395 -7.41181 -3.95005 255 0 0
1.92708 -6.47517 -4.11469 255 0 0
1.61453 -6.61262 -5.0374 255 0 0
2.87457 -6.6105 -4.12548 255 0 0
2.05919 -5.70893 -3.73479 255 0 0
2.87709 -5.73881 -4.12723 255 0 0
1.79664 -8.29128 -4.2732 255 0 0
2.14015 -8.67611 -4.15717 255 0 0
2.96581 -5.24648 -4.22196 255 0 0
2.21095 -8.36367 -4.16457 255 0 0
1.80031 -6.55793 -4.12868 255 0 0
2.72111 -6.53095 -4.40989 255 0 0
1.85379 -5.41973 -3.92445 255 0 0
3.09831 -5.24605 -4.24626 255 0 0
2.86924 -6.5982 -4.318 255 0 0
1.30845 -7.92645 -4.08123 255 0 0
2.88865 -7.83359 -3.72398 255 0 0
2.99451 -5.86846 -4.00228 255 0 0
2.38884 -5.0922 -4.12699 255 0 0
2.65227 -6.40849 -4.10784 255 0 0
2.12318 -7.38971 -4.26707 255 0 0
2.49674 -5.20934 -4.1298 255 0 0
2.91955 -5.89309 -3.93918 255 0 0
2.92022 -6.26352 -4.22642 255 0 0
2.35063 -5.97838 -4.18807 255 0 0
2.72485 -5.56628 -3.9966 255 0 0
2.16585 -5.09588 -4.09386 255 0 0
1.25455 -7.59986 -4.13271 255 0 0
2.91422 -6.49014 -4.35745 255 0 0
1.58105 -7.29638 -4.06708 255 0 0
2.67128 -4.94198 -4.1779 255 0 0
1.5452 -6.59973 -4.12169 255 0 0
2.99983 -5.66163 -4.1824 255 0 0
2.21345 -6.04669 -3.66811 255 0 0
2.91502 -6.53334 -4.17425 255 0 0
2.37998 -5.50877 -4.15595 255 0 0
1.43749 -6.95174 -5.0272 255 0 0
2.40894 -6.90869 -3.63801 255 0 0
2.00457 -7.37039 -4.25216 255 0 0
2.44929 -6.91873 -3.64313 255 0 0
2.5014 -6.96081 -3.65592 255 0 0
2.76323 -7.60437 -3.81134 255 0 0
2.63154 -6.98293 -3.67063 255 0 0
3.0713 -5.2428 -4.24019 255 0 0
1.23855 -7.50294 -4.59019 255 0 0
1.90995 -5.51969 -3.82827 255 0 0
2.06187 -4.75696 -4.36536 255 0 0
1.97038 -4.76413 -4.13798 255 0 0
1.78803 -7.55613 -4.35983 255 0 0
2.04947 -5.21251 -4.06498 255 0 0
1.64874 -6.8945 -3.64902 255 0 0
2.46246 -6.65353 -3.65034 255 0 0
2.51596 -6.67616 -3.65963 255 0 0
2.56977 -6.69842 -3.66892 255 0 0
2.67048 -6.74486 -3.68749 255 0 0
2.7697 -6.76021 -3.69943 255 0 0
2.79353 -6.68247 -3.68484 255 0 0
1.68847 -5.82465 -4.64589 255 0 0
2.75993 -5.75846 -3.88287 255 0 0
1.96987 -5.09854 -4.06693 255 0 0
2.95931 -6.38685 -4.39762 255 0 0
2.89989 -6.49943 -4.29286 255 0 0
2.39012 -5.2561 -4.12878 255 0 0
2.75041 -7.45873 -4.41602 255 0 0
2.6754 -5.66807 -3.8481 255 0 0
1.93583 -7.25326 -4.41854 255 0 0
1.69945 -6.61893 -5.04933 255 0 0
1.92636 -6.41707 -4.0972 255 0 0
1.56402 -7.01658 -3.73536 255 0 0
1.58142 -6.97767 -3.72711 255 0 0
1.60935 -6.9479 -3.72162 255 0 0
1.69031 -6.85247 -3.70375 255 0 0
1.71937 -6.76305 -3.68452 255 0 0
1.72919 -6.70177 -3.67078 255 0 0
1.74293 -6.65704 -3.66116 255 0 0
1.7554 -6.57721 -3.6433 255 0 0
2.19783 -6.40076 -3.63368 255 0 0
2.30845 -6.40003 -3.64238 255 0 0
2.35158 -6.40048 -3.64605 255 0 0
2.50342 -6.45671 -3.67169 255 0 0
2.81307 -6.59697 -3.73123 255 0 0
2.85561 -6.60968 -3.7381 255 0 0
2.84585 -6.50221 -3.71337 255 0 0
2.90463 -6.38755 -4.39007 255 0 0
1.8248 -8.05153 -4.28582 255 0 0
3.1701 -5.14229 -4.2844 255 0 0
1.94619 -5.39572 -3.9007 255 0 0
2.29742 -7.5234 -4.17802 255 0 0
2.87267 -6.43842 -4.4014 255 0 0
1.7464 -5.5999 -4.10745 255 0 0
1.99897 -5.62549 -3.76033 255 0 0
1.86439 -6.21062 -3.67986 255 0 0
2.51409 -6.4389 -4.16366 255 0 0
1.29679 -7.36595 -4.13791 255 0 0
1.82811 -5.51498 -3.92525 255 0 0
1.79802 -5.42412 -4.05301 255 0 0
2.71519 -5.06616 -4.17359 255 0 0
2.79558 -7.31295 -4.30847 255 0 0
1.31616 -8.15348 -4.0665 255 0 0
1.36511 -8.14926 -4.06745 255 0 0
1.49432 -8.09384 -4.05939 255 0 0
1.55506 -8.09974 -4.06366 255 0 0
1.57318 -8.09046 -4.06224 255 0 0
1.61598 -8.10517 -4.06792 255 0 0
1.63392 -7.99726 -4.04234 255 0 0
1.5436 -7.46492 -3.90732 255 0 0
1.50429 -7.18881 -3.83768 255 0 0
1.53614 -7.08911 -3.81494 255 0 0
1.56358 -7.05401 -3.80783 255 0 0
2.00838 -8.57804 -4.20436 255 0 0
1.66248 -7.02553 -3.80641 255 0 0
2.09773 -8.59171 -4.21289 255 0 0
2.1474 -8.66138 -4.23279 255 0 0
1.68738 -6.70372 -3.72966 255 0 0
1.7106 -6.53355 -3.68987 255 0 0
1.76528 -6.67775 -3.72824 255 0 0
1.75767 -6.58574 -3.7055 255 0 0
1.77289 -6.45804 -3.67566 255 0 0
1.79873 -6.3742 -3.65718 255 0 0
2.13613 -6.19714 -3.64012 255 0 0
2.20241 -6.19801 -3.64581 255 0 0
2.30752 -6.21218 -3.65813 255 0 0
2.35566 -6.20624 -3.66097 255 0 0
2.4688 -6.23548 -3.67802 255 0 0
2.52128 -6.25938 -3.68845 255 0 0
2.56553 -6.26183 -3.69318 255 0 0
2.61947 -6.26615 -3.69934 255 0 0
2.67955 -6.30453 -3.71403 255 0 0
2.72065 -6.31784 -3.72114 255 0 0
2.75669 -6.33938 -3.72966 255 0 0
2.78082 -6.35364 -3.73535 255 0 0
2.80733 -6.37302 -3.74245 255 0 0
2.83394 -6.39231 -3.74956 255 0 0
2.91022 -6.3798 -3.75454 255 0 0
2.86305 -6.67028 -4.27211 255 0 0
2.67566 -6.4868 -4.39007 255 0 0
1.91992 -7.19367 -4.26278 255 0 0
2.71054 -6.50561 -4.33535 255 0 0
1.88441 -5.03654 -4.08477 255 0 0
2.18026 -7.455 -4.43128 255 0 0
2.45627 -4.92855 -4.13486 255 0 0
2.05984 -5.09635 -4.07867 255 0 0
2.70704 -6.16514 -3.92468 255 0 0
1.94612 -5.89428 -3.66323 255 0 0
1.43101 -7.4536 -3.9662 255 0 0
2.6302 -6.08793 -3.71804 255 0 0
1.34812 -7.82014 -4.05578 255 0 0
1.32663 -7.58799 -3.99557 255 0 0
1.41918 -7.79027 -4.05137 255 0 0
1.47277 -7.92449 -4.08808 255 0 0
1.46822 -7.74657 -4.04256 255 0 0
1.48114 -7.61711 -4.01025 255 0 0
1.49968 -7.12468 -3.88617 255 0 0
1.84333 -8.41037 -4.23052 255 0 0
1.87554 -8.46131 -4.2452 255 0 0
1.9075 -8.46287 -4.2474 255 0 0
1.95213 -8.51958 -4.26429 255 0 0
1.99461 -8.34082 -4.22171 255 0 0
2.09725 -8.37404 -4.23639 255 0 0
2.14099 -8.42147 -4.25107 255 0 0
2.24774 -8.26445 -4.21877 255 0 0
1.77229 -6.36706 -3.71217 255 0 0
1.77492 -6.28981 -3.69308 255 0 0
1.79727 -6.28345 -3.69308 255 0 0
1.8285 -6.19765 -3.67399 255 0 0
1.85946 -6.16767 -3.66885 255 0 0
1.89741 -6.10965 -3.65735 255 0 0
1.95178 -6.0558 -3.64829 255 0 0
2.14892 -6.0248 -3.6571 255 0 0
2.1636 -5.99846 -3.65196 255 0 0
2.1933 -6.03593 -3.66371 255 0 0
2.20229 -5.97228 -3.64903 255 0 0
2.26254 -6.02544 -3.66738 255 0 0
2.36673 -6.06141 -3.68574 255 0 0
2.35021 -6.0192 -3.67399 255 0 0
2.41818 -6.06549 -3.69161 255 0 0
2.39087 -5.99707 -3.67252 255 0 0
2.50637 -6.03573 -3.69308 255 0 0
2.55461 -5.99084 -3.6872 255 0 0
2.61576 -6.09415 -3.71804 255 0 0
2.65141 -6.09727 -3.72245 255 0 0
2.66965 -6.08001 -3.72024 255 0 0
2.70193 -6.07504 -3.72245 255 0 0
2.84491 -6.17832 -3.76209 255 0 0
2.86909 -6.19213 -3.76797 255 0 0
2.91969 -6.26236 -3.78999 255 0 0
2.90082 -6.18358 -3.76944 255 0 0
1.95149 -7.99273 -4.27801 255 0 0
2.76756 -7.31758 -4.30681 255 0 0
1.6094 -6.33046 -4.10433 255 0 0
2.63092 -5.71359 -3.85472 255 0 0
2.08945 -5.24101 -4.08017 255 0 0
2.81941 -5.88257 -3.80616 255 0 0
2.66156 -5.57014 -4.16016 255 0 0
2.99808 -5.74033 -4.08638 255 0 0
1.72126 -6.32869 -4.17328 255 0 0
1.52524 -8.31672 -4.26563 255 0 0
1.23826 -7.72907 -4.09741 255 0 0
1.2475 -7.67029 -4.08225 255 0 0
1.27407 -7.39058 -4.00951 255 0 0
1.41105 -7.16591 -3.95698 255 0 0
1.45821 -7.13724 -3.95192 255 0 0
1.50948 -7.29992 -3.99739 255 0 0
1.55227 -7.41811 -4.03073 255 0 0
1.67647 -7.91793 -4.16864 255 0 0
1.78602 -8.14889 -4.23532 255 0 0
1.80167 -8.12806 -4.23077 255 0 0
1.81227 -8.08514 -4.22016 255 0 0
1.84519 -8.14149 -4.23683 255 0 0
1.85277 -7.91339 -4.17773 255 0 0
1.88976 -7.98603 -4.19895 255 0 0
1.91132 -7.99253 -4.20198 255 0 0
1.93579 -7.92843 -4.18682 255 0 0
1.9761 -7.93014 -4.18985 255 0 0
2.00456 -7.96382 -4.20046 255 0 0
2.03737 -8.01386 -4.21562 255 0 0
2.01289 -7.76322 -4.14893 255 0 0
2.01553 -7.69824 -4.13226 255 0 0
2.06702 -7.8192 -4.16712 255 0 0
1.71561 -6.36759 -3.76704 255 0 0
1.73832 -6.33212 -3.75946 255 0 0
1.75996 -6.29383 -3.75112 255 0 0
1.81328 -6.25512 -3.74506 255 0 0
2.24382 -7.60535 -4.12469 255 0 0
1.83566 -6.06269 -3.69732 255 0 0
1.85902 -6.01118 -3.68596 255 0 0
1.90802 -5.92007 -3.66664 255 0 0
1.97494 -5.88766 -3.66398 255 0 0
2.05654 -5.87563 -3.66803 255 0 0
2.15092 -5.87589 -3.67661 255 0 0
2.25878 -5.88781 -3.68975 255 0 0
2.28584 -5.89556 -3.69429 255 0 0
2.33189 -5.88967 -3.69732 255 0 0
2.50911 -5.92298 -3.72359 255 0 0
2.5498 -5.94049 -3.73218 255 0 0
2.56837 -5.94481 -3.73521 255 0 0
2.60409 -5.94982 -3.74026 255 0 0
2.72047 -5.98253 -3.76097 255 0 0
2.87385 -6.03279 -3.79053 255 0 0
2.94426 -6.01449 -3.79431 255 0 0
2.22437 -7.53944 -4.17645 255 0 0
2.9504 -5.45843 -4.22921 255 0 0
2.00006 -5.08678 -4.06693 255 0 0
1.51882 -7.09038 -4.07274 255 0 0
1.76187 -6.35877 -4.94435 255 0 0
3.0397 -5.78654 -4.16591 255 0 0
2.65154 -5.72262 -3.85969 255 0 0
2.76183 -5.25757 -4.18955 255 0 0
1.31613 -7.22453 -4.03323 255 0 0
1.44695 -7.16878 -4.0249 255 0 0
1.55696 -7.35348 -4.08115 255 0 0
1.61889 -7.38631 -4.09365 255 0 0
1.86723 -7.97514 -4.26786 255 0 0
1.92765 -8.01882 -4.28348 255 0 0
1.96232 -7.95521 -4.26864 255 0 0
2.06375 -7.92075 -4.26629 255 0 0
1.69459 -6.41034 -3.83585 255 0 0
1.73141 -6.30691 -3.81085 255 0 0
1.75369 -6.27144 -3.80303 255 0 0
1.74762 -6.24972 -3.79679 255 0 0
1.77723 -6.24137 -3.79679 255 0 0
2.21441 -7.57177 -4.18427 255 0 0
1.78188 -5.98729 -3.7296 255 0 0
2.25361 -7.50718 -4.1702 255 0 0
1.87513 -6.08877 -3.76397 255 0 0
1.85729 -5.95546 -3.72726 255 0 0
1.88038 -5.93045 -3.72257 255 0 0
1.87991 -5.85656 -3.70304 255 0 0
1.89205 -5.84672 -3.70148 255 0 0
1.91388 -5.8198 -3.69627 255 0 0
1.94027 -5.80711 -3.69523 255 0 0
1.96234 -5.7818 -3.69054 255 0 0
2.06247 -5.76083 -3.69419 255 0 0
2.14661 -5.75813 -3.70148 255 0 0
2.27138 -5.7768 -3.71866 255 0 0
2.50587 -5.80012 -3.74939 255 0 0
2.55994 -5.81141 -3.75825 255 0 0
2.61433 -5.82222 -3.7671 255 0 0
2.66167 -5.83487 -3.77569 255 0 0
2.70926 -5.84713 -3.78429 255 0 0
2.8559 -5.8869 -3.81163 255 0 0
2.9012 -5.90875 -3.82256 255 0 0
2.93847 -5.93127 -3.83272 255 0 0
3.00599 -5.96061 -3.84834 255 0 0
2.42773 -6.46532 -4.35231 255 0 0
1.83255 -6.61389 -4.02363 255 0 0
2.88034 -6.55989 -4.30812 255 0 0
1.8348 -5.40602 -3.94453 255 0 0
2.31646 -4.81849 -4.12399 255 0 0
1.31056 -7.29203 -4.1178 255 0 0
1.17296 -7.794 -4.25297 255 0 0
1.18548 -7.75224 -4.24171 255 0 0
1.19694 -7.70491 -4.22883 255 0 0
1.20906 -7.66312 -4.21757 255 0 0
1.23364 -7.58506 -4.19665 255 0 0
1.25843 -7.5125 -4.17734 255 0 0
1.26964 -7.47064 -4.16607 255 0 0
1.28161 -7.43432 -4.15642 255 0 0
1.32481 -7.27229 -4.11297 255 0 0
1.33694 -7.24144 -4.10492 255 0 0
1.35764 -7.16311 -4.084 255 0 0
1.37669 -7.12507 -4.07435 255 0 0
1.62513 -8.05156 -4.34792 255 0 0
1.68028 -8.22419 -4.39942 255 0 0
1.49672 -7.15261 -4.08883 255 0 0
1.56305 -7.21331 -4.10975 255 0 0
1.65249 -7.37231 -4.15964 255 0 0
1.66375 -7.34091 -4.15159 255 0 0
1.81704 -7.80247 -4.28999 255 0 0
1.84219 -7.785 -4.28677 255 0 0
1.93617 -7.84917 -4.31091 255 0 0
1.96853 -7.82078 -4.30527 255 0 0
1.65198 -6.40255 -3.89008 255 0 0
1.66976 -6.37757 -3.88445 255 0 0
1.69311 -6.284 -3.86031 255 0 0
1.72869 -6.35602 -3.88284 255 0 0
2.13541 -7.49922 -4.22883 255 0 0
2.21705 -7.51461 -4.23956 255 0 0
1.83672 -5.91418 -3.77019 255 0 0
1.87714 -5.77728 -3.7364 255 0 0
1.90722 -5.75357 -3.73264 255 0 0
1.92791 -5.72491 -3.72674 255 0 0
2.10866 -5.67684 -3.73103 255 0 0
2.16085 -5.71339 -3.74605 255 0 0
2.16909 -5.67413 -3.7364 255 0 0
2.27351 -5.74223 -3.76537 255 0 0
2.41736 -5.74431 -3.78146 255 0 0
2.51638 -5.82448 -3.81364 255 0 0
2.78143 -6.27386 -3.9617 255 0 0
2.67472 -5.99476 -3.87641 255 0 0
2.60077 -5.71934 -3.79594 255 0 0
2.66295 -5.76513 -3.81525 255 0 0
2.77986 -5.85338 -3.85227 255 0 0
2.83858 -5.86893 -3.86353 255 0 0
2.91654 -5.99381 -3.90537 255 0 0
2.94312 -6.01216 -3.91342 255 0 0
2.93249 -5.95466 -3.89733 255 0 0
2.92911 -5.91237 -3.88606 255 0 0
2.96522 -5.93213 -3.89572 255 0 0
2.99644 -5.94166 -3.90215 255 0 0
3.00054 -5.91486 -3.92563 255 0 0
3.05398 -5.60228 -4.23268 255 0 0
1.35729 -7.76336 -4.98028 255 0 0
3.26835 -5.05684 -4.50869 255 0 0
2.71482 -5.57923 -4.17111 255 0 0
1.29113 -7.28306 -4.18095 255 0 0
1.40565 -6.96413 -4.09484 255 0 0
1.46 -6.89555 -4.07828 255 0 0
1.48928 -6.95247 -4.0965 255 0 0
1.6366 -7.5527 -4.27866 255 0 0
1.73546 -7.65734 -4.31509 255 0 0
1.84422 -7.79357 -4.36146 255 0 0
1.87366 -7.59578 -4.30681 255 0 0
1.6495 -6.4882 -3.97395 255 0 0
1.63415 -6.36459 -3.93752 255 0 0
1.65009 -6.30244 -3.92096 255 0 0
1.96109 -7.14356 -4.18427 255 0 0
2.18996 -7.35847 -4.26375 255 0 0
2.26461 -7.35347 -4.26872 255 0 0
1.85377 -5.82252 -3.80173 255 0 0
1.86374 -5.71308 -3.77192 255 0 0
1.90218 -5.67079 -3.76364 255 0 0
1.93272 -5.60702 -3.74874 255 0 0
2.13536 -5.70726 -3.79676 255 0 0
2.137 -5.67065 -3.78682 255 0 0
2.1624 -5.69707 -3.79676 255 0 0
2.5401 -6.46028 -4.04682 255 0 0
2.57208 -6.42946 -4.04185 255 0 0
2.60967 -6.45672 -4.05344 255 0 0
2.65984 -6.44835 -4.05675 255 0 0
2.45797 -5.8023 -3.85803 255 0 0
2.40343 -5.6363 -3.8067 255 0 0
2.90351 -6.57023 -4.11803 255 0 0
2.90855 -6.51884 -4.10478 255 0 0
2.71443 -5.78625 -3.88453 255 0 0
2.91627 -5.95731 -3.95574 255 0 0
3.01162 -5.86761 -3.9447 255 0 0
3.0308 -5.83666 -3.93918 255 0 0
3.05763 -5.85434 -3.94746 255 0 0
3.07934 -5.86199 -3.95242 255 0 0
2.92749 -5.23651 -4.21183 255 0 0
1.40632 -6.92513 -5.01342 255 0 0
2.03682 -4.84006 -4.08616 255 0 0
1.24185 -7.52293 -4.31727 255 0 0
1.43776 -6.87088 -4.13338 255 0 0
1.45057 -6.85101 -4.12828 255 0 0
1.4888 -6.71661 -4.09082 255 0 0
1.74229 -7.68749 -4.39559 255 0 0
1.75266 -7.60753 -4.3726 255 0 0
1.77394 -7.57671 -4.36494 255 0 0
1.82668 -7.59874 -4.37516 255 0 0
1.85559 -7.52251 -4.35472 255 0 0
1.92148 -7.26861 -4.28492 255 0 0
1.91365 -7.10255 -4.23554 255 0 0
1.91726 -7.04934 -4.22022 255 0 0
2.01948 -7.28852 -4.29854 255 0 0
2.05335 -7.34306 -4.31727 255 0 0
2.3622 -6.45303 -4.21386 255 0 0
2.03271 -7.20337 -4.2747 255 0 0
2.11269 -7.41945 -4.34451 255 0 0
2.16077 -7.32385 -4.32067 255 0 0
1.90231 -6.33695 -4.01079 255 0 0
1.92383 -6.35387 -4.01761 255 0 0
1.91248 -6.15812 -3.95972 255 0 0
1.84504 -5.8916 -3.87629 255 0 0
1.82526 -5.78036 -3.84224 255 0 0
1.93414 -6.07496 -3.93758 255 0 0
1.83382 -5.71297 -3.82351 255 0 0
1.85807 -5.6501 -3.80762 255 0 0
1.87656 -5.61644 -3.79967 255 0 0
1.90857 -5.62339 -3.80478 255 0 0
1.95267 -5.55778 -3.79031 255 0 0
2.63179 -7.40634 -4.38878 255 0 0
2.5212 -6.45716 -4.10671 255 0 0
2.54494 -6.42778 -4.10103 255 0 0
2.61107 -6.4163 -4.10529 255 0 0
2.71404 -6.47076 -4.13253 255 0 0
2.82991 -6.68031 -4.20489 255 0 0
2.89314 -6.65317 -4.20489 255 0 0
2.89756 -6.57785 -4.18446 255 0 0
3.01119 -5.81579 -3.99036 255 0 0
3.01697 -5.74327 -3.97163 255 0 0
3.06097 -5.77706 -3.98696 255 0 0
1.96289 -5.28444 -4.02529 255 0 0
1.41963 -7.12049 -5.02515 255 0 0
1.91172 -5.09722 -4.05865 255 0 0
1.82412 -5.56913 -3.88797 255 0 0
2.95467 -5.60847 -4.21817 255 0 0
1.9794 -5.40731 -3.90806 255 0 0
2.06301 -5.43519 -4.08864 255 0 0
1.84862 -5.5111 -3.87271 255 0 0
2.66322 -5.50638 -4.19753 255 0 0
1.26107 -7.52827 -4.3893 255 0 0
1.26207 -7.4261 -4.35782 255 0 0
1.4133 -6.83478 -4.18465 255 0 0
1.45282 -6.66643 -4.13568 255 0 0
1.47834 -6.63219 -4.12693 255 0 0
1.51359 -6.56978 -4.11032 255 0 0
1.68695 -7.05428 -4.27036 255 0 0
1.83361 -7.58799 -4.44352 255 0 0
1.60242 -6.56306 -4.11469 255 0 0
1.61129 -6.53212 -4.10594 255 0 0
1.6054 -6.37808 -4.05872 255 0 0
1.59587 -6.34016 -4.04647 255 0 0
1.73349 -6.68565 -4.16192 255 0 0
1.88521 -7.20047 -4.32983 255 0 0
1.91266 -7.13249 -4.31147 255 0 0
1.99241 -7.12514 -4.31584 255 0 0
2.02296 -7.1688 -4.33158 255 0 0
2.07362 -7.28222 -4.37006 255 0 0
1.92235 -6.32196 -4.06834 255 0 0
1.9292 -6.26435 -4.05172 255 0 0
1.81643 -5.84884 -3.91704 255 0 0
1.99649 -6.21976 -4.04472 255 0 0
1.85983 -5.74715 -3.8908 255 0 0
1.85418 -5.66084 -3.86456 255 0 0
1.87609 -5.57112 -3.84008 255 0 0
1.88503 -5.5976 -3.84882 255 0 0
1.95898 -5.51288 -3.83133 255 0 0
2.00674 -5.52243 -3.8392 255 0 0
2.08778 -5.62066 -3.87681 255 0 0
2.06317 -5.47475 -3.83133 255 0 0
2.74044 -7.21998 -4.41729 255 0 0
2.51817 -6.44928 -4.16716 255 0 0
2.63331 -6.42731 -4.17416 255 0 0
2.70711 -6.45418 -4.19078 255 0 0
2.82267 -6.6632 -4.26511 255 0 0
2.82969 -6.63593 -4.25812 255 0 0
2.92462 -6.4722 -4.22313 255 0 0
2.5912 -5.59238 -3.92928 255 0 0
2.62015 -5.51708 -3.91179 255 0 0
2.71343 -5.66141 -3.96514 255 0 0
2.71772 -5.61903 -3.95377 255 0 0
2.74679 -5.6111 -3.95552 255 0 0
2.85393 -5.72646 -4.00275 255 0 0
2.84917 -5.66634 -3.98525 255 0 0
2.89206 -5.70103 -4.001 255 0 0
2.99816 -5.84136 -4.05522 255 0 0
3.06572 -5.73659 -4.03598 255 0 0
3.10899 -5.7355 -4.0421 255 0 0
2.61984 -4.93031 -4.1645 255 0 0
2.56272 -5.58288 -4.14952 255 0 0
2.22287 -4.95048 -4.10382 255 0 0
3.08233 -5.6543 -4.0747 255 0 0
2.36275 -5.57748 -4.11954 255 0 0
1.55061 -6.35085 -4.10613 255 0 0
1.58168 -6.41209 -4.12767 255 0 0
1.56588 -6.28394 -4.08638 255 0 0
1.83369 -7.14174 -4.37545 255 0 0
2.04526 -7.18262 -4.40597 255 0 0
2.0317 -6.82668 -4.29465 255 0 0
1.96037 -6.25991 -4.11331 255 0 0
2.027 -6.3148 -4.13665 255 0 0
1.83077 -5.52293 -3.87451 255 0 0
1.92405 -5.41469 -3.86886 255 0 0
2.0138 -5.54194 -3.89964 255 0 0
2.36978 -6.4265 -4.20667 255 0 0
2.39277 -6.44176 -4.21386 255 0 0
2.51509 -6.41894 -4.22104 255 0 0
2.54814 -6.43587 -4.23002 255 0 0
2.61403 -6.44549 -4.24079 255 0 0
2.7173 -6.45708 -4.25695 255 0 0
2.75228 -6.45439 -4.26054 255 0 0
2.82473 -6.581 -4.30722 255 0 0
2.82485 -6.53847 -4.29465 255 0 0
2.95444 -6.45642 -4.28747 255 0 0
2.91613 -6.21621 -4.21206 255 0 0
2.79526 -5.922 -4.10972 255 0 0
2.68736 -5.6586 -4.01815 255 0 0
2.66518 -5.52707 -3.97685 255 0 0
2.70813 -5.59921 -4.00378 255 0 0
2.69864 -5.4798 -3.96787 255 0 0
2.80569 -5.56343 -4.00737 255 0 0
2.87112 -5.56134 -4.01635 255 0 0
2.92025 -5.62377 -4.04149 255 0 0
3.03501 -5.77761 -4.10253 255 0 0
3.05775 -5.71085 -4.08697 255 0 0
3.10915 -5.65551 -4.07919 255 0 0
1.5073 -7.11902 -5.0319 255 0 0
2.96266 -5.65616 -4.17485 255 0 0
2.26769 -4.81909 -4.11588 255 0 0
1.62174 -6.19417 -4.12171 255 0 0
1.63784 -6.19568 -4.12355 255 0 0
1.66287 -6.17175 -4.11802 255 0 0
1.92181 -6.96817 -4.39521 255 0 0
1.83059 -6.54645 -4.25247 255 0 0
1.81747 -6.38268 -4.19906 255 0 0
1.82473 -6.32277 -4.18064 255 0 0
1.8559 -6.29052 -4.17328 255 0 0
1.76289 -5.77295 -4.00015 255 0 0
1.95652 -6.35307 -4.20275 255 0 0
1.96004 -6.31125 -4.18985 255 0 0
1.97581 -6.28303 -4.18249 255 0 0
2.01331 -6.32363 -4.19906 255 0 0
2.0621 -6.37218 -4.21932 255 0 0
1.85422 -5.46324 -3.91175 255 0 0
1.87202 -5.41013 -3.89701 255 0 0
1.88392 -5.38246 -3.88965 255 0 0
1.90118 -5.37048 -3.8878 255 0 0
2.39209 -6.43992 -4.27642 255 0 0
2.46695 -6.45329 -4.28931 255 0 0
2.52751 -6.4507 -4.29575 255 0 0
2.89935 -6.60316 -4.38968 255 0 0
2.90335 -6.50719 -4.36114 255 0 0
2.92273 -6.46802 -4.35193 255 0 0
2.92794 -6.26069 -4.29023 255 0 0
2.94474 -6.20055 -4.27457 255 0 0
2.99097 -6.22158 -4.28747 255 0 0
2.96633 -6.02339 -4.22485 255 0 0
2.98354 -6.05831 -4.23774 255 0 0
2.88827 -5.79536 -4.14565 255 0 0
2.84064 -5.63272 -4.0904 255 0 0
2.97707 -5.80028 -4.16039 255 0 0
2.84548 -5.51169 -4.0554 255 0 0
3.03005 -5.73509 -4.14933 255 0 0
3.03842 -5.71807 -4.14565 255 0 0
3.07637 -5.69143 -4.14381 255 0 0
3.10313 -5.70853 -4.15302 255 0 0
3.14862 -5.60083 -4.12908 255 0 0
1.61925 -6.84286 -4.92981 255 0 0
1.49354 -7.58487 -4.99699 255 0 0
1.7541 -6.44945 -5.04931 255 0 0
1.23054 -7.56603 -4.61095 255 0 0
1.66876 -5.96772 -4.11066 255 0 0
1.83055 -6.37122 -4.25792 255 0 0
1.7161 -5.76627 -4.07709 255 0 0
1.95922 -6.36184 -4.26736 255 0 0
1.97943 -6.32074 -4.25603 255 0 0
1.82597 -5.64251 -4.02004 255 0 0
1.80547 -5.5122 -3.97568 255 0 0
1.8201 -5.41894 -3.9825 255 0 0
1.86999 -5.36312 -3.93462 255 0 0
1.89481 -5.33237 -3.92754 255 0 0
1.92502 -5.35688 -3.93886 255 0 0
2.43236 -6.36281 -4.32022 255 0 0
2.4044 -6.20134 -4.26547 255 0 0
2.38928 -6.03463 -4.21072 255 0 0
2.42411 -6.08043 -4.2296 255 0 0
2.57753 -6.3772 -4.34287 255 0 0
2.65676 -6.50653 -4.39385 255 0 0
2.76688 -6.57488 -4.42972 255 0 0
2.83571 -6.56361 -4.43538 255 0 0
2.87663 -6.50943 -4.42405 255 0 0
2.92515 -6.49386 -4.42594 255 0 0
2.90243 -6.30323 -4.36364 255 0 0
2.74525 -5.64179 -4.13709 255 0 0
2.76774 -5.63696 -4.13898 255 0 0
2.80605 -5.63037 -4.14276 255 0 0
2.99011 -5.79182 -4.22016 255 0 0
2.97829 -5.73553 -4.20128 255 0 0
3.05625 -5.66496 -4.19247 255 0 0
3.10985 -5.62518 -4.18932 255 0 0
3.11967 -5.56474 -4.17296 255 0 0
3.16904 -5.57505 -4.18429 255 0 0
1.84481 -5.19164 -4.0835 255 0 0
1.72532 -5.79723 -4.57932 255 0 0
1.72665 -5.90396 -4.15242 255 0 0
1.99323 -6.41813 -4.35161 255 0 0
2.03196 -6.43496 -4.36128 255 0 0
2.03855 -6.2994 -4.3168 255 0 0
1.80448 -5.42215 -4.02626 255 0 0
1.84969 -5.32517 -3.97257 255 0 0
1.87519 -5.27716 -3.95968 255 0 0
1.90677 -5.26681 -3.96 255 0 0
1.98793 -5.35184 -3.99771 255 0 0
2.06362 -5.45625 -4.04122 255 0 0
2.16203 -5.46064 -4.05508 255 0 0
2.21048 -5.46904 -4.06411 255 0 0
2.25267 -5.4797 -4.07313 255 0 0
2.28485 -5.50228 -4.08473 255 0 0
2.59301 -5.5963 -4.15822 255 0 0
2.61561 -5.57559 -4.155 255 0 0
2.81548 -5.58281 -4.18787 255 0 0
3.00818 -5.61288 -4.22832 255 0 0
3.11232 -5.52094 -4.21769 255 0 0
3.16319 -5.51906 -4.22591 255 0 0
3.15516 -5.45992 -4.20657 255 0 0
3.20142 -5.50977 -4.22978 255 0 0
1.2947 -7.30323 -4.66475 255 0 0
1.30324 -7.25133 -4.64693 255 0 0
1.8116 -5.35856 -4.03222 255 0 0
1.84725 -5.31818 -4.02265 255 0 0
2.03141 -5.42944 -4.0827 255 0 0
2.11353 -5.43199 -4.09409 255 0 0
2.15228 -5.43605 -4.10052 255 0 0
2.21545 -5.46265 -4.11784 255 0 0
2.2653 -5.47351 -4.12824 255 0 0
2.32784 -5.49512 -4.14408 255 0 0
2.34846 -5.48933 -4.14507 255 0 0
2.41198 -5.51087 -4.16123 255 0 0
2.50487 -5.5258 -4.17971 255 0 0
2.56376 -5.53315 -4.19093 255 0 0
2.7157 -5.51449 -4.20842 255 0 0
2.71779 -5.4858 -4.19951 255 0 0
2.75118 -5.48765 -4.20545 255 0 0
2.80393 -5.46294 -4.20611 255 0 0
2.85588 -5.46809 -4.21634 255 0 0
2.87248 -5.49985 -4.22921 255 0 0
2.90031 -5.45819 -4.22063 255 0 0
2.93733 -5.43419 -4.21931 255 0 0
3.03047 -5.42072 -4.23118 255 0 0
3.01091 -5.35587 -4.20743 255 0 0
3.11555 -5.39137 -4.23712 255 0 0
1.8129 -5.31394 -4.07005 255 0 0
1.96484 -5.19512 -4.04777 255 0 0
1.99164 -5.17313 -4.04371 255 0 0
2.14532 -5.27182 -4.0984 255 0 0
2.21852 -5.30699 -4.12068 255 0 0
2.23509 -5.27618 -4.11258 255 0 0
2.37646 -5.22609 -4.11663 255 0 0
2.42052 -5.22401 -4.12271 255 0 0
2.45226 -5.2274 -4.12878 255 0 0
2.5265 -5.17664 -4.12372 255 0 0
2.56796 -5.21445 -4.14296 255 0 0
2.59756 -5.21204 -4.14701 255 0 0
2.62965 -5.22976 -4.15815 255 0 0
2.67428 -5.2256 -4.16423 255 0 0
2.76402 -5.23158 -4.18145 255 0 0
2.85925 -5.23029 -4.19765 255 0 0
2.88752 -5.25238 -4.2098 255 0 0
2.89997 -5.24552 -4.2098 255 0 0
3.12033 -5.22658 -4.24424 255 0 0
1.41544 -7.76967 -4.98649 255 0 0
1.44923 -7.74674 -4.98028 255 0 0
1.35894 -7.07821 -4.72553 255 0 0
1.37662 -6.99108 -4.69447 255 0 0
1.38998 -6.97169 -4.68825 255 0 0
1.91784 -5.08909 -4.05658 255 0 0
2.08053 -5.07809 -4.07522 255 0 0
2.11752 -5.07659 -4.08005 255 0 0
2.20253 -5.09804 -4.10007 255 0 0
2.2568 -5.07425 -4.10007 255 0 0
2.28381 -5.08618 -4.10835 255 0 0
2.34828 -5.08389 -4.11767 255 0 0
2.41375 -5.08245 -4.12768 255 0 0
2.46341 -5.07784 -4.13424 255 0 0
2.51072 -5.06787 -4.13873 255 0 0
2.56155 -5.06436 -4.14615 255 0 0
2.60816 -5.06673 -4.15495 255 0 0
2.62238 -5.05013 -4.15185 255 0 0
2.84091 -5.08165 -4.20155 255 0 0
2.97178 -5.08673 -4.22779 255 0 0
3.00237 -5.0836 -4.23262 255 0 0
3.0256 -5.09531 -4.2409 255 0 0
3.05214 -5.0986 -4.24712 255 0 0
3.08723 -5.11586 -4.25954 255 0 0
3.11393 -5.11889 -4.26576 255 0 0
3.16006 -5.12595 -4.27715 255 0 0
3.20949 -5.12425 -4.28647 255 0 0
1.68544 -5.81417 -4.52221 255 0 0
2.01534 -4.73655 -4.29694 255 0 0
1.36328 -7.58531 -4.98782 255 0 0
1.42154 -7.5987 -4.99699 255 0 0
1.49658 -7.50635 -4.96736 255 0 0
1.90934 -5.01251 -4.07948 255 0 0
1.92819 -4.97312 -4.06784 255 0 0
2.01938 -4.96234 -4.07701 255 0 0
2.06301 -4.96801 -4.08548 255 0 0
2.2641 -4.94778 -4.10947 255 0 0
2.31739 -4.95518 -4.12075 255 0 0
2.30585 -4.93047 -4.11017 255 0 0
2.37133 -4.93264 -4.12181 255 0 0
2.40651 -4.93078 -4.1271 255 0 0
2.43368 -4.94178 -4.13557 255 0 0
2.50843 -4.93029 -4.14456 255 0 0
2.54784 -4.92082 -4.14827 255 0 0
2.66481 -4.92994 -4.17261 255 0 0
2.70254 -4.94363 -4.18425 255 0 0
2.71483 -4.92442 -4.18002 255 0 0
1.67762 -5.83895 -4.65057 255 0 0
1.36687 -7.40335 -4.99088 255 0 0
1.51628 -7.42141 -5.00925 255 0 0
1.4811 -6.99522 -4.84063 255 0 0
1.91592 -4.91837 -4.09697 255 0 0
1.95371 -4.90055 -4.09589 255 0 0
2.10846 -4.83302 -4.0948 255 0 0
2.15866 -4.82272 -4.09913 255 0 0
2.20087 -4.80962 -4.10129 255 0 0
2.22595 -4.81905 -4.10886 255 0 0
1.31612 -7.22446 -4.98824 255 0 0
1.44219 -7.23356 -5.00148 255 0 0
1.57887 -7.04386 -4.93748 255 0 0
1.94363 -4.84184 -4.12311 255 0 0
1.95635 -4.80745 -4.11207 255 0 0
2.00162 -4.75641 -4.09993 255 0 0
1.28402 -7.34427 -4.67861 255 0 0
1.56292 -7.131 -5.04166 255 0 0
1.65142 -7.12953 -5.04917 255 0 0
1.7405 -5.79793 -4.52221 255 0 0
1.73641 -5.68622 -4.47717 255 0 0
1.9464 -4.81568 -4.16414 255 0 0
1.46652 -6.92638 -5.01916 255 0 0
1.56384 -6.93821 -5.03294 255 0 0
1.65221 -6.94538 -5.04442 255 0 0
1.70915 -5.8441 -4.59655 255 0 0
1.72667 -5.75186 -4.56095 255 0 0
1.46426 -6.75734 -5.01663 255 0 0
1.51581 -6.76247 -5.02365 255 0 0
1.61769 -6.76458 -5.03458 255 0 0
1.66286 -6.77573 -5.04395 255 0 0
1.73645 -6.56869 -4.96433 255 0 0
1.51475 -6.6106 -5.02627 255 0 0
1.72635 -6.62578 -5.0553 255 0 0
1.76766 -6.62316 -5.05888 255 0 0
1.76353 -6.60768 -5.05172 255 0 0
1.79774 -6.54856 -5.03024 255 0 0
1.755 -5.55786 -4.60076 255 0 0
1.97013 -4.72853 -4.28581 255 0 0
2.01063 -4.74631 -4.30012 255 0 0
2.04646 -4.7368 -4.30251 255 0 0
1.56327 -6.43576 -5.02157 255 0 0
1.6202 -6.43678 -5.02825 255 0 0
1.62149 -6.44196 -5.03068 255 0 0
1.67128 -6.44573 -5.03797 255 0 0
1.71493 -6.45631 -5.04769 255 0 0
1.80121 -6.38297 -5.02582 255 0 0
1.96533 -4.74868 -4.34471 255 0 0
2.0135 -4.75306 -4.35503 255 0 0
2.11082 -4.7612 -4.3761 255 0 0
2.16198 -4.76939 -4.38906 255 0 0
2.40032 -4.84502 -4.46683 255 0 0
1.57254 -6.24749 -5.00412 255 0 0
1.61286 -6.25088 -5.01031 255 0 0
1.65728 -6.23927 -5.01031 255 0 0
1.71532 -6.24832 -5.02144 255 0 0
1.75828 -6.23087 -5.01897 255 0 0
1.96727 -4.78546 -4.4127 255 0 0
2.01926 -4.79832 -4.42755 255 0 0
2.16947 -4.78089 -4.44817 255 0 0
2.16556 -4.79239 -4.45229 255 0 0
2.36811 -4.82305 -4.5055 255 0 0
2.24103 -8.39682 -4.17452 255 0 0
2.17432 -8.63827 -4.1503 255 0 0
2.11561 -8.57662 -4.13244 255 0 0
2.199 -8.73632 -4.25411 255 0 0
2.2309 -8.77512 -4.26548 255 0 0
2.20119 -8.40735 -4.17452 255 0 0
2.29275 -8.42994 -4.18589 255 0 0
2.68877 -7.45447 -4.33662 255 0 0
2.7612 -7.37999 -4.32337 255 0 0
2.72262 -7.46509 -4.48725 255 0 0
2.73177 -7.40817 -4.47151 255 0 0
2.75512 -7.36373 -4.46102 255 0 0
2.78834 -7.39901 -4.47501 255 0 0
1.34114 -7.89136 -4.95113 255 0 0
1.25641 -7.50045 -4.94831 255 0 0
