ply
format ascii 1.0
comment Created by Open3D
element vertex 305
property double x
property double y
property double z
property uchar red
property uchar green
property uchar blue
end_header
2.06267 2.57723 -3.50602 255 0 0
1.18924 3.79749 -3.81549 255 0 0
1.03386 3.83718 -3.81306 255 0 0
0.0186162 3.56643 -3.62 255 0 0
1.22143 3.86814 -3.6901 255 0 0
0.356718 3.4069 -3.46077 255 0 0
2.07809 2.54865 -3.4674 255 0 0
-1.24437 3.36226 -3.63564 255 0 0
-1.02906 3.25891 -3.59362 255 0 0
1.28225 3.42713 -3.52458 255 0 0
1.1515 3.73908 -3.70695 255 0 0
2.02053 2.51428 -3.47159 255 0 0
1.35421 3.39678 -3.45274 255 0 0
0.00432957 3.65475 -3.63084 255 0 0
1.2032 3.90693 -3.74328 255 0 0
1.26226 3.86923 -3.69573 255 0 0
-0.688153 3.49475 -3.48405 255 0 0
-0.188935 3.31663 -3.54908 255 0 0
1.26483 3.36437 -3.49756 255 0 0
2.06344 2.55536 -3.433 255 0 0
0.139725 3.6814 -3.57102 255 0 0
-1.02975 3.56792 -3.65709 255 0 0
1.27495 3.75648 -3.57597 255 0 0
2.03893 2.47658 -3.49588 255 0 0
-1.14457 3.42562 -3.6478 255 0 0
0.284559 3.32597 -3.45641 255 0 0
0.320199 3.40899 -3.49387 255 0 0
1.20916 3.86102 -3.84587 255 0 0
-1.01157 3.68481 -3.66715 255 0 0
0.153964 3.60536 -3.53886 255 0 0
0.125092 3.51578 -3.60502 255 0 0
-0.971594 3.56112 -3.64715 255 0 0
-0.971951 3.32341 -3.57974 255 0 0
1.24268 3.60515 -3.62614 255 0 0
-1.51589 3.43026 -3.71098 255 0 0
0.210234 3.36325 -3.51489 255 0 0
0.173839 3.1846 -3.48721 255 0 0
-0.973811 3.75596 -3.6929 255 0 0
1.92827 2.70767 -3.51655 255 0 0
-0.980976 3.82065 -3.721 255 0 0
-0.938911 3.32733 -3.57731 255 0 0
1.01771 3.92492 -3.70917 255 0 0
0.0171018 3.60641 -3.64536 255 0 0
-0.813669 3.88841 -3.6552 255 0 0
-0.0255588 3.59317 -3.6034 255 0 0
1.22199 3.80692 -3.74441 255 0 0
1.17302 3.85767 -3.67997 255 0 0
0.0299198 3.60649 -3.60937 255 0 0
1.75606 3.88616 -3.7768 255 0 0
-1.58818 3.51464 -3.75959 255 0 0
-0.805285 3.7163 -3.62155 255 0 0
-0.0332238 3.50099 -3.61496 255 0 0
0.259866 3.26489 -3.51072 255 0 0
0.316023 3.16298 -3.48226 255 0 0
2.38249e-16 3.89091 -3.69758 255 0 0
1.73275 3.90843 -3.78131 255 0 0
-1.03107 3.46448 -3.61295 255 0 0
1.20916 3.76695 -3.80496 255 0 0
0.273958 3.31278 -3.51655 255 0 0
-0.918375 3.82028 -3.67552 255 0 0
1.54108 3.614 -3.56083 255 0 0
-0.558546 3.83488 -3.61466 255 0 0
-0.890886 3.84614 -3.68356 255 0 0
1.7916 2.51576 -3.4402 255 0 0
0.324627 3.4128 -3.46192 255 0 0
-1.08809 3.38058 -3.62025 255 0 0
-0.881157 3.80413 -3.66519 255 0 0
0.923515 3.86192 -3.65445 255 0 0
0.976606 3.91902 -3.70909 255 0 0
1.0163 3.82604 -3.68816 255 0 0
1.12631 3.8176 -3.69734 255 0 0
0.331545 3.3998 -3.42324 255 0 0
0.318331 3.30467 -3.50908 255 0 0
-1.01785 3.52686 -3.638 255 0 0
1.92283 2.50635 -3.44121 255 0 0
-0.710176 3.56202 -3.51332 255 0 0
0.141779 3.51555 -3.57 255 0 0
0.872313 3.72575 -3.66949 255 0 0
0.903059 3.83655 -3.66145 255 0 0
1.22254 3.75763 -3.76327 255 0 0
-1.01551 3.7338 -3.68822 255 0 0
0.499342 3.4284 -3.44351 255 0 0
0.418061 3.40658 -3.43 255 0 0
-1.0375 3.20607 -3.57135 255 0 0
2.08003 2.51229 -3.49355 255 0 0
1.22364 3.76592 -3.70802 255 0 0
0.45052 3.43515 -3.44351 255 0 0
1.24597 3.21355 -3.57245 255 0 0
2.17361 2.6085 -3.51512 255 0 0
0.280949 3.28348 -3.53671 255 0 0
-0.766012 3.576 -3.55954 255 0 0
0.174351 3.41816 -3.56152 255 0 0
1.26914 3.00937 -3.51193 255 0 0
1.43118 3.56526 -3.52625 255 0 0
0.488146 3.40817 -3.4345 255 0 0
2.00368 2.55488 -3.48131 255 0 0
1.07429 3.85922 -3.82764 255 0 0
1.10904 3.79217 -3.64619 255 0 0
2.14952 2.54259 -3.51899 255 0 0
-0.940441 3.2156 -3.56228 255 0 0
0.170498 3.47583 -3.50686 255 0 0
1.11818 3.90339 -3.71827 255 0 0
-0.916974 3.45217 -3.59386 255 0 0
-1.21561 3.39541 -3.64536 255 0 0
0.945812 3.91403 -3.67772 255 0 0
-0.0708276 3.51516 -3.60405 255 0 0
0.932828 3.86019 -3.69352 255 0 0
-0.52493 3.66499 -3.5426 255 0 0
1.20297 3.5444 -3.67021 255 0 0
0.314014 3.301 -3.46319 255 0 0
0.147369 3.65415 -3.55954 255 0 0
0.139484 3.56349 -3.55592 255 0 0
1.73956 3.81351 -3.7464 255 0 0
0.888456 3.83564 -3.67897 255 0 0
-0.11111 3.47 -3.56657 255 0 0
-0.0909934 3.48807 -3.5919 255 0 0
1.44456 3.13715 -3.43901 255 0 0
0.215733 3.33441 -3.52445 255 0 0
-0.116875 3.51927 -3.60648 255 0 0
-0.578456 3.78273 -3.59439 255 0 0
2.13698 2.51564 -3.53918 255 0 0
0.228277 3.31514 -3.45802 255 0 0
1.22014 3.68082 -3.57798 255 0 0
1.60202 3.80684 -3.64082 255 0 0
2.09954 2.49946 -3.51119 255 0 0
-0.925388 3.36058 -3.59028 255 0 0
0.0182407 3.8506 -3.68002 255 0 0
-0.987828 3.53261 -3.63681 255 0 0
0.233725 3.22597 -3.50825 255 0 0
-0.0180435 3.80499 -3.66012 255 0 0
-0.169211 3.09982 -3.44762 255 0 0
1.31645 3.41936 -3.45563 255 0 0
0.225776 3.39594 -3.5187 255 0 0
0.20125 3.3912 -3.48217 255 0 0
-0.830097 3.766 -3.64452 255 0 0
-0.917469 3.4051 -3.60891 255 0 0
1.11756 3.85519 -3.7117 255 0 0
0.134252 3.77323 -3.61007 255 0 0
0.644595 3.73915 -3.65544 255 0 0
2.05851 2.51044 -3.47025 255 0 0
0.149097 3.4914 -3.59433 255 0 0
0.0767484 3.59606 -3.65913 255 0 0
-0.571601 3.62284 -3.45707 255 0 0
0.216971 3.26436 -3.52557 255 0 0
0.0748112 3.57193 -3.60615 255 0 0
1.00826 3.85093 -3.65858 255 0 0
1.53763 3.76579 -3.61596 255 0 0
-0.968784 3.2552 -3.58372 255 0 0
1.309 3.15228 -3.48919 255 0 0
0.334708 3.12512 -3.43392 255 0 0
1.69149 3.76705 -3.7205 255 0 0
0.118302 3.56053 -3.60744 255 0 0
0.27262 3.35439 -3.50176 255 0 0
1.89681 2.55934 -3.45336 255 0 0
0.311128 3.23011 -3.5132 255 0 0
1.1336 3.82558 -3.82035 255 0 0
0.229605 3.37236 -3.55344 255 0 0
0.259245 3.30655 -3.5466 255 0 0
1.26972 3.44331 -3.52909 255 0 0
0.171183 3.51802 -3.55414 255 0 0
1.23507 3.73573 -3.66503 255 0 0
1.18465 3.81453 -3.66421 255 0 0
-1.37425 3.49515 -3.71342 255 0 0
0.0395283 3.57047 -3.653 255 0 0
0.967064 3.86146 -3.65858 255 0 0
-0.929118 3.60099 -3.65948 255 0 0
1.59618 3.76796 -3.62569 255 0 0
1.56361 3.74034 -3.61056 255 0 0
1.57095 3.82562 -3.64298 255 0 0
1.33012 3.38291 -3.4441 255 0 0
1.30164 3.74732 -3.57597 255 0 0
1.30161 3.77612 -3.58678 255 0 0
1.27983 3.77078 -3.60114 255 0 0
1.27819 3.7956 -3.5911 255 0 0
1.28816 3.85539 -3.61488 255 0 0
-0.418983 3.66556 -3.46571 255 0 0
1.26764 3.38808 -3.47205 255 0 0
1.26338 3.40124 -3.47646 255 0 0
1.25661 3.73153 -3.60226 255 0 0
1.10612 3.71668 -3.57798 255 0 0
2.09679 3.75061 -3.79032 255 0 0
2.05113 3.68943 -3.75879 255 0 0
1.71558 3.84508 -3.75428 255 0 0
1.23926 3.3854 -3.50206 255 0 0
1.25421 3.66678 -3.61466 255 0 0
1.26809 3.73628 -3.64394 255 0 0
1.25822 3.75101 -3.64844 255 0 0
1.21488 3.77469 -3.6522 255 0 0
1.13536 3.85953 -3.67622 255 0 0
1.06898 3.81584 -3.66653 255 0 0
1.09505 3.88054 -3.67997 255 0 0
1.03483 3.81917 -3.65636 255 0 0
0.96544 3.82275 -3.65565 255 0 0
0.463884 3.38154 -3.42212 255 0 0
0.43761 3.43137 -3.44126 255 0 0
0.421392 3.64838 -3.53021 255 0 0
0.447344 3.83311 -3.60791 255 0 0
0.443779 3.88249 -3.62817 255 0 0
0.372413 3.401 -3.4255 255 0 0
0.37068 3.46099 -3.45027 255 0 0
-0.527543 3.7465 -3.57638 255 0 0
-0.649187 3.42521 -3.45252 255 0 0
-0.649153 3.3812 -3.4345 255 0 0
-0.66439 3.41679 -3.45027 255 0 0
0.373972 3.49173 -3.49752 255 0 0
-0.987106 3.66365 -3.65544 255 0 0
2.11226 2.63493 -3.4401 255 0 0
1.37731 3.04799 -3.42632 255 0 0
1.2198 3.80008 -3.70194 255 0 0
1.16186 3.82101 -3.70309 255 0 0
1.15989 3.8638 -3.72031 255 0 0
1.05228 3.83308 -3.69505 255 0 0
1.01466 3.85062 -3.69811 255 0 0
0.98204 3.86279 -3.69964 255 0 0
0.928959 3.92573 -3.72031 255 0 0
0.633058 3.80682 -3.64567 255 0 0
0.327358 3.37382 -3.45219 255 0 0
0.270428 3.36753 -3.46066 255 0 0
0.199101 3.35499 -3.43321 255 0 0
0.18638 3.41504 -3.45848 255 0 0
0.177063 3.49763 -3.50494 255 0 0
0.159844 3.5458 -3.5136 255 0 0
-0.852904 3.80508 -3.66289 255 0 0
-0.941842 3.81841 -3.69641 255 0 0
2.10573 2.57633 -3.45173 255 0 0
1.26619 3.70181 -3.70695 255 0 0
1.22725 3.73186 -3.71398 255 0 0
1.20812 3.8901 -3.7772 255 0 0
0.315078 3.27128 -3.45018 255 0 0
0.22719 3.35726 -3.46812 255 0 0
0.19443 3.4131 -3.49153 255 0 0
0.151876 3.55646 -3.57068 255 0 0
0.116923 3.60635 -3.57427 255 0 0
0.0907748 3.64559 -3.59105 255 0 0
0.0788997 3.69686 -3.61329 255 0 0
0.0673736 3.78834 -3.6531 255 0 0
0.0548924 3.85831 -3.68354 255 0 0
0.0361884 3.8156 -3.6648 255 0 0
0.0183744 3.87476 -3.69056 255 0 0
-0.0367992 3.88 -3.6929 255 0 0
-0.891031 3.76545 -3.68822 255 0 0
-0.932694 3.78112 -3.69915 255 0 0
-0.988104 3.70228 -3.67183 255 0 0
-1.1301 3.70074 -3.68822 255 0 0
1.25705 3.7475 -3.80334 255 0 0
0.173047 3.36582 -3.53762 255 0 0
2.13059 2.58166 -3.49365 255 0 0
1.92177 2.54225 -3.42207 255 0 0
0.327225 3.35543 -3.50438 255 0 0
0.177712 3.35264 -3.50931 255 0 0
0.172718 3.46598 -3.54853 255 0 0
0.115668 3.6128 -3.61295 255 0 0
0.0767854 3.59779 -3.60579 255 0 0
-0.0167604 3.53441 -3.57716 255 0 0
-0.0313226 3.55607 -3.61225 255 0 0
-0.0720904 3.50872 -3.56602 255 0 0
-0.090592 3.47327 -3.56774 255 0 0
2.20382 2.59433 -3.55301 255 0 0
1.97659 2.53887 -3.46795 255 0 0
1.96452 2.54821 -3.46795 255 0 0
1.88218 2.48376 -3.42177 255 0 0
1.85376 2.56004 -3.44202 255 0 0
1.91003 2.62893 -3.48253 255 0 0
1.89128 2.64245 -3.48253 255 0 0
2.12317 3.10432 -3.71585 255 0 0
2.08266 3.18906 -3.73772 255 0 0
1.32135 2.83412 -3.42663 255 0 0
1.28385 3.05077 -3.51007 255 0 0
1.22117 3.66955 -3.76445 255 0 0
1.16024 3.76745 -3.79848 255 0 0
1.10653 3.78357 -3.79848 255 0 0
1.08341 3.77085 -3.78997 255 0 0
1.07681 3.74782 -3.77904 255 0 0
1.05852 3.80281 -3.80091 255 0 0
0.331994 3.28338 -3.50562 255 0 0
0.0628955 3.58439 -3.65 255 0 0
-0.990255 3.36614 -3.60081 255 0 0
-1.03179 3.42233 -3.63078 255 0 0
-1.03958 3.36146 -3.60526 255 0 0
-1.06017 3.32989 -3.59433 255 0 0
-1.11968 3.37776 -3.62349 255 0 0
-1.16718 3.41236 -3.64536 255 0 0
-1.25076 3.46768 -3.68182 255 0 0
-1.25621 3.4317 -3.66724 255 0 0
-1.28778 3.3687 -3.64536 255 0 0
-1.34077 3.43388 -3.68182 255 0 0
-1.38535 3.35859 -3.65752 255 0 0
-1.4458 3.37941 -3.67696 255 0 0
-1.55966 3.45154 -3.728 255 0 0
-1.64455 3.58263 -3.79848 255 0 0
2.10018 2.48423 -3.51691 255 0 0
2.06547 2.47872 -3.50454 255 0 0
1.80374 2.52014 -3.44515 255 0 0
1.27052 2.96003 -3.50206 255 0 0
1.17503 3.72109 -3.81963 255 0 0
0.303315 3.31346 -3.55155 255 0 0
0.275764 3.22266 -3.50825 255 0 0
0.231852 3.30857 -3.5466 255 0 0
0.185795 3.13077 -3.46247 255 0 0
0.174312 3.33869 -3.55898 255 0 0
0.158311 3.25448 -3.51938 255 0 0
0.0793054 3.52275 -3.64311 255 0 0
0.0125256 3.517 -3.64002 255 0 0
-0.0219265 3.46697 -3.61672 255 0 0
-0.907094 3.15713 -3.53176 255 0 0
