ply
format ascii 1.0
comment Created by Open3D
element vertex 757
property double x
property double y
property double z
property uchar red
property uchar green
property uchar blue
end_header
8.57116 10.0416 -3.48753 255 0 0
8.71998 8.81352 -4.34587 255 0 0
8.53181 8.7885 -4.31757 255 0 0
8.86854 9.09212 -3.53807 255 0 0
9.14773 8.77583 -4.28958 255 0 0
8.49215 10.4912 -3.63451 255 0 0
9.54983 10.3648 -3.35114 255 0 0
9.38322 8.83238 -4.10691 255 0 0
8.54311 9.60959 -3.55708 255 0 0
8.50344 11.0842 -3.57407 255 0 0
8.9247 10.1595 -3.40994 255 0 0
9.03161 10.1348 -3.4154 255 0 0
8.5058 11.0872 -3.69223 255 0 0
8.51736 10.994 -3.80154 255 0 0
9.40192 9.80035 -3.41601 255 0 0
9.6273 8.93384 -3.92383 255 0 0
8.54939 9.5026 -3.54793 255 0 0
9.65944 9.00638 -3.59931 255 0 0
9.04196 10.6697 -3.34081 255 0 0
8.58498 9.27338 -3.53033 255 0 0
8.41085 11.5765 -4.21765 255 0 0
9.22064 8.93013 -3.77138 255 0 0
9.70112 8.79062 -4.36451 255 0 0
8.40182 9.89057 -3.90091 255 0 0
8.94126 8.65954 -4.46247 255 0 0
8.51469 9.55478 -3.65787 255 0 0
8.53345 9.53024 -3.65712 255 0 0
8.39796 10.682 -3.76017 255 0 0
8.48696 8.78388 -4.31104 255 0 0
9.51912 9.00297 -3.58664 255 0 0
8.49849 11.2424 -3.82561 255 0 0
9.45374 8.94114 -3.90601 255 0 0
8.50997 10.1147 -3.60072 255 0 0
8.49704 10.861 -3.55374 255 0 0
8.45299 11.3491 -3.83313 255 0 0
8.48366 10.035 -4.0365 255 0 0
8.59456 8.68675 -4.52321 255 0 0
9.13257 8.92915 -3.76258 255 0 0
9.39611 9.01411 -3.57679 255 0 0
8.31693 9.74372 -4.204 255 0 0
8.51472 10.3174 -3.95947 255 0 0
8.52226 9.93647 -3.58523 255 0 0
8.69214 8.95365 -3.6165 255 0 0
9.27703 8.89987 -3.88309 255 0 0
8.47878 10.6284 -3.87624 255 0 0
8.71603 9.15032 -3.53033 255 0 0
8.40696 11.3998 -3.95468 255 0 0
8.49913 10.1996 -3.60776 255 0 0
9.58073 8.9969 -3.59157 255 0 0
8.33991 8.75546 -4.49676 255 0 0
8.49358 9.26238 -4.26981 255 0 0
8.49265 10.0457 -3.59298 255 0 0
8.58265 11.0241 -3.80982 255 0 0
9.35964 9.23838 -4.26258 255 0 0
9.33582 8.91386 -3.89073 255 0 0
8.49023 10.3376 -3.95947 255 0 0
8.40877 11.3458 -3.82937 255 0 0
8.74288 11.1208 -3.35617 255 0 0
8.58907 10.6625 -3.42755 255 0 0
8.49043 9.10608 -3.82369 255 0 0
9.09381 8.89125 -3.97104 255 0 0
9.41649 9.74592 -3.41297 255 0 0
8.43084 8.99928 -4.01621 255 0 0
8.79224 8.95 -3.73136 255 0 0
9.57719 8.63706 -4.66293 255 0 0
8.51933 9.69799 -3.67216 255 0 0
8.41095 11.5192 -3.96829 255 0 0
8.48962 10.6939 -3.88424 255 0 0
8.49973 11.2996 -3.83163 255 0 0
9.27238 8.68668 -4.51361 255 0 0
8.44024 9.51657 -3.75537 255 0 0
8.5747 11.1771 -3.82486 255 0 0
8.38089 9.81865 -4.00063 255 0 0
9.56711 10.2852 -3.34667 255 0 0
8.53309 9.0223 -3.81902 255 0 0
8.68095 9.55729 -3.45475 255 0 0
8.52294 9.38333 -3.64207 255 0 0
9.18697 8.93983 -3.76898 255 0 0
8.52303 9.88982 -3.58101 255 0 0
8.4485 10.2868 -3.61198 255 0 0
8.65143 10.7922 -3.79176 255 0 0
9.09706 8.89442 -3.64809 255 0 0
9.84561 8.83689 -4.38949 255 0 0
8.35995 10.6337 -3.86663 255 0 0
8.3533 10.6772 -4.2165 255 0 0
9.28573 8.65794 -4.62148 255 0 0
9.55174 8.90597 -4.02395 255 0 0
9.08241 8.92232 -3.75697 255 0 0
8.73167 8.80445 -4.23963 255 0 0
8.75196 8.86684 -4.03699 255 0 0
8.40291 9.65745 -3.76658 255 0 0
8.9386 9.05593 -3.54089 255 0 0
9.04885 8.93161 -3.75457 255 0 0
8.53195 9.75892 -3.56975 255 0 0
8.84201 8.93685 -3.62853 255 0 0
8.82934 10.1963 -3.40629 255 0 0
9.6244 9.59023 -3.41662 255 0 0
8.43905 10.4763 -3.9705 255 0 0
9.50455 8.81993 -4.23081 255 0 0
8.4628 8.96925 -4.01621 255 0 0
8.47976 9.51559 -3.86697 255 0 0
9.38212 8.91564 -3.89582 255 0 0
8.69431 9.17096 -3.53033 255 0 0
8.4471 10.1862 -4.1636 255 0 0
8.67834 9.64593 -3.46196 255 0 0
8.61684 10.9604 -3.45366 255 0 0
9.58537 9.2175 -3.49835 255 0 0
8.79635 8.93297 -3.62402 255 0 0
8.39755 11.5582 -4.0927 255 0 0
8.48463 10.2314 -3.72181 255 0 0
8.50891 11.1459 -3.57997 255 0 0
9.10626 8.65349 -4.4852 255 0 0
8.52345 12.6545 -4.62495 255 0 0
8.48262 10.685 -3.65211 255 0 0
9.31629 9.15208 -4.13525 255 0 0
8.81229 8.781 -4.24691 255 0 0
8.42152 11.5336 -4.09185 255 0 0
8.46774 10.2605 -3.72331 255 0 0
8.43145 9.87788 -3.79219 255 0 0
8.49478 11.349 -3.95628 255 0 0
9.26685 8.93239 -3.77618 255 0 0
8.65027 8.86835 -4.23755 255 0 0
9.36299 9.82952 -3.4154 255 0 0
9.21959 8.63723 -4.82831 255 0 0
9.25321 10.4832 -3.34053 255 0 0
8.38611 10.667 -4.10286 255 0 0
8.50601 8.88755 -4.22194 255 0 0
8.46015 9.6768 -3.77378 255 0 0
8.78341 8.83563 -4.14344 255 0 0
8.6067 10.8943 -3.44758 255 0 0
8.53124 9.852 -3.5782 255 0 0
8.54258 10.3013 -3.50785 255 0 0
8.44775 11.1753 -3.69645 255 0 0
9.10061 8.9402 -3.86867 255 0 0
8.48606 9.94187 -3.69322 255 0 0
8.50371 10.8165 -3.66619 255 0 0
9.59761 8.94874 -3.92213 255 0 0
8.51156 9.64294 -3.66614 255 0 0
8.74002 8.91797 -3.93517 255 0 0
8.64747 10.8135 -3.44364 255 0 0
8.38859 10.7749 -4.0002 255 0 0
8.52448 8.94922 -3.91544 255 0 0
8.66273 10.2468 -3.39901 255 0 0
8.58661 9.07887 -3.61875 255 0 0
8.54351 8.69681 -4.51729 255 0 0
9.16806 8.92143 -3.65712 255 0 0
8.8417 8.95773 -3.84363 255 0 0
9.25327 10.584 -3.34779 255 0 0
9.13907 10.0617 -3.41722 255 0 0
9.08345 9.0512 -3.55285 255 0 0
8.52559 9.34165 -3.63831 255 0 0
9.69846 8.74642 -4.47106 255 0 0
9.63611 10.1162 -3.33941 255 0 0
9.48485 10.3927 -3.34891 255 0 0
8.48868 8.93279 -4.01479 255 0 0
8.7578 9.15062 -3.53385 255 0 0
8.51136 9.78209 -3.67968 255 0 0
8.43884 9.42458 -3.74577 255 0 0
8.54739 9.72993 -3.56834 255 0 0
8.70591 10.8075 -3.33047 255 0 0
8.44219 8.77909 -4.30451 255 0 0
8.72169 8.94157 -3.82963 255 0 0
8.80318 8.73043 -4.34587 255 0 0
9.6552 8.95973 -3.59509 255 0 0
8.41154 9.52963 -3.86188 255 0 0
8.35962 9.70021 -4.09368 255 0 0
9.0734 8.82931 -3.96207 255 0 0
9.72536 8.89693 -4.15509 255 0 0
8.43513 11.4949 -4.08846 255 0 0
8.50793 10.6649 -3.65211 255 0 0
8.50663 9.54573 -4.30936 255 0 0
9.64448 8.69774 -4.56929 255 0 0
9.28048 9.29149 -3.47966 255 0 0
8.55907 9.83692 -3.46917 255 0 0
8.39952 9.47065 -3.85424 255 0 0
8.45757 10.0042 -3.69698 255 0 0
9.54819 8.65204 -4.66056 255 0 0
8.98306 9.03646 -3.543 255 0 0
9.70782 10.0474 -3.33941 255 0 0
8.83587 8.8884 -3.94235 255 0 0
9.5242 9.49038 -4.31321 255 0 0
9.1575 10.6516 -3.34667 255 0 0
9.34509 9.26786 -3.48294 255 0 0
9.23589 8.65249 -4.6132 255 0 0
8.56713 8.994 -3.81945 255 0 0
8.63871 10.5693 -3.30868 255 0 0
8.68892 10.5285 -3.4233 255 0 0
9.75844 8.71696 -4.5886 255 0 0
8.93894 9.429 -3.46393 255 0 0
8.54445 11.0831 -3.81282 255 0 0
8.3732 11.5824 -4.21496 255 0 0
8.42567 9.05812 -3.91724 255 0 0
9.20028 10.5992 -3.34556 255 0 0
8.37513 12.4982 -4.71732 255 0 0
8.54598 9.58989 -4.20996 255 0 0
8.57762 9.90557 -3.47638 255 0 0
8.52571 9.05743 -3.71655 255 0 0
8.72726 10.9398 -3.34164 255 0 0
8.43016 11.4312 -4.56537 255 0 0
8.99233 8.91802 -3.64057 255 0 0
8.98535 9.43306 -3.46786 255 0 0
8.5588 8.90036 -3.91365 255 0 0
8.4932 10.5948 -3.64436 255 0 0
8.51415 10.9362 -3.56161 255 0 0
8.42033 9.44889 -3.74657 255 0 0
9.1364 8.80665 -4.07478 255 0 0
8.38243 10.0596 -4.02933 255 0 0
8.84842 8.73378 -4.3524 255 0 0
8.56362 11.0537 -3.45791 255 0 0
8.69155 10.2071 -3.39779 255 0 0
9.16442 8.96029 -4.09557 255 0 0
8.92349 8.89181 -4.05967 255 0 0
9.12715 10.6929 -3.34779 255 0 0
9.3048 9.90861 -3.41722 255 0 0
8.32817 8.70172 -4.80187 255 0 0
8.47348 8.89568 -4.11366 255 0 0
9.36902 10.3641 -3.33941 255 0 0
9.10667 8.86169 -4.18613 255 0 0
9.61321 8.96328 -3.81381 255 0 0
8.42829 10.6685 -3.87624 255 0 0
8.84693 10.1192 -3.40144 255 0 0
9.42587 8.99984 -3.5782 255 0 0
8.33796 10.7624 -4.22595 255 0 0
8.66997 9.5908 -3.45672 255 0 0
8.86893 9.53466 -3.46721 255 0 0
8.34354 9.7749 -4.10124 255 0 0
8.30588 8.90815 -4.30451 255 0 0
8.35347 8.64571 -4.69143 255 0 0
9.64395 9.54159 -3.41449 255 0 0
8.5063 10.2576 -4.0652 255 0 0
8.70081 8.66992 -4.53623 255 0 0
9.66169 8.88086 -4.14564 255 0 0
9.00025 8.63434 -4.57531 255 0 0
8.51235 9.41644 -3.64433 255 0 0
8.59503 8.81172 -4.4352 255 0 0
8.9113 8.92187 -3.74016 255 0 0
8.51238 10.7749 -3.54719 255 0 0
8.54132 11.1884 -3.46762 255 0 0
8.43679 10.3724 -4.30031 255 0 0
9.74633 8.95866 -3.9391 255 0 0
9.19896 9.07978 -3.89328 255 0 0
9.6024 8.86846 -4.13714 255 0 0
9.31165 8.84868 -3.99077 255 0 0
8.56974 9.39003 -3.53948 255 0 0
9.67642 8.93681 -3.59509 255 0 0
8.50892 10.0166 -3.59157 255 0 0
8.67908 8.89789 -4.03227 255 0 0
9.4903 8.9544 -3.69021 255 0 0
9.71515 9.36451 -3.4069 255 0 0
8.45222 11.0989 -3.68942 255 0 0
9.73201 8.73493 -4.47432 255 0 0
8.47239 10.6722 -3.99596 255 0 0
8.43819 9.98125 -3.91449 255 0 0
8.94321 8.95382 -4.06912 255 0 0
9.63603 10.2127 -3.34611 255 0 0
8.54971 11.2546 -3.83088 255 0 0
9.14351 8.73024 -4.28334 255 0 0
9.35625 8.76525 -4.3156 255 0 0
8.34767 11.7218 -4.2302 255 0 0
8.38751 10.4123 -4.30031 255 0 0
8.38663 11.6591 -4.10374 255 0 0
9.32309 9.28999 -3.48294 255 0 0
9.06048 8.77501 -4.27813 255 0 0
8.77729 9.57177 -3.46327 255 0 0
8.38399 8.99191 -4.11515 255 0 0
8.82671 9.09227 -3.53455 255 0 0
9.66787 9.14365 -3.49933 255 0 0
9.34698 10.4388 -3.34332 255 0 0
8.41331 9.80943 -3.78339 255 0 0
8.48127 9.98409 -3.69698 255 0 0
8.46111 9.77102 -3.89328 255 0 0
8.66797 8.8026 -4.2313 255 0 0
8.51718 9.46681 -3.64959 255 0 0
8.48415 9.65795 -4.32185 255 0 0
9.14455 8.85643 -4.0814 255 0 0
9.68406 9.51337 -3.4154 255 0 0
8.83696 8.84744 -4.15139 255 0 0
9.16403 8.95991 -4.205 255 0 0
8.47804 10.8367 -3.66619 255 0 0
9.49037 9.70658 -3.4154 255 0 0
9.0925 9.01736 -3.55074 255 0 0
8.55029 9.10514 -3.618 255 0 0
8.62048 9.00715 -3.82624 255 0 0
8.35757 10.5789 -4.08941 255 0 0
9.17075 10.0486 -3.41844 255 0 0
8.53847 10.0999 -3.49015 255 0 0
8.44631 11.2564 -3.7042 255 0 0
8.40246 9.74991 -3.77618 255 0 0
8.31301 9.69249 -5.19497 255 0 0
9.18894 8.89943 -3.87376 255 0 0
8.54017 12.81 -4.64878 255 0 0
9.6522 10.1814 -3.345 255 0 0
9.72543 8.897 -4.04278 255 0 0
8.50463 10.1571 -3.60424 255 0 0
9.02286 9.40524 -3.46852 255 0 0
8.95568 8.71475 -4.36438 255 0 0
9.02957 8.99752 -3.97552 255 0 0
8.53438 9.26268 -3.63154 255 0 0
9.10877 8.73846 -4.38833 255 0 0
9.52843 8.92656 -3.8018 255 0 0
9.43551 9.71939 -3.41237 255 0 0
8.42394 8.90689 -4.10919 255 0 0
9.38835 9.24476 -3.48458 255 0 0
8.52137 11.3845 -3.60226 255 0 0
8.45574 12.1765 -4.55049 255 0 0
9.67063 9.41048 -3.4069 255 0 0
9.21422 8.9239 -3.66163 255 0 0
8.49889 10.9701 -3.56358 255 0 0
8.95471 8.92292 -3.63756 255 0 0
9.69527 8.95422 -3.93316 255 0 0
8.54036 10.3485 -3.51179 255 0 0
8.48393 11.3907 -3.60029 255 0 0
8.6547 9.21632 -3.53103 255 0 0
9.79815 8.66925 -5.04332 255 0 0
8.57326 9.00044 -3.71535 255 0 0
9.57601 8.8021 -4.23776 255 0 0
8.44867 10.0418 -4.03381 255 0 0
8.63983 10.6736 -3.3165 255 0 0
8.46798 10.1622 -3.71353 255 0 0
8.34572 11.6022 -4.21496 255 0 0
8.48637 10.7158 -3.7707 255 0 0
8.40704 9.99236 -3.9128 255 0 0
9.78632 9.93831 -3.33717 255 0 0
8.78923 8.67536 -4.44315 255 0 0
9.67755 9.89804 -3.32712 255 0 0
8.74016 8.93927 -3.61951 255 0 0
8.42445 10.0131 -3.8058 255 0 0
8.71545 8.6845 -4.43406 255 0 0
9.08568 10.0746 -3.41449 255 0 0
8.47495 10.0731 -3.70526 255 0 0
9.62815 8.97721 -3.70526 255 0 0
8.32579 9.80107 -5.21771 255 0 0
8.44753 8.72234 -4.50722 255 0 0
8.50371 10.5565 -3.64155 255 0 0
8.44984 10.3383 -3.61691 255 0 0
8.47768 9.15748 -3.82793 255 0 0
9.1946 10.003 -3.41662 255 0 0
8.51557 10.8316 -3.55243 255 0 0
9.6812 8.96252 -3.82061 255 0 0
9.67328 9.45781 -3.41054 255 0 0
8.64605 9.81876 -3.47409 255 0 0
8.99551 10.1669 -3.4154 255 0 0
9.17741 9.31995 -3.47376 255 0 0
8.89414 9.07522 -3.53878 255 0 0
8.81144 10.127 -3.39961 255 0 0
8.31838 8.6915 -5.01021 255 0 0
9.48971 8.91142 -3.90686 255 0 0
9.55598 8.95237 -3.69623 255 0 0
8.48399 10.4304 -3.62817 255 0 0
8.73496 9.57106 -3.45999 255 0 0
9.67738 8.81098 -4.25166 255 0 0
9.32027 8.8149 -4.09746 255 0 0
9.40225 8.66297 -4.63984 255 0 0
9.44129 8.69895 -4.53974 255 0 0
8.77388 8.78429 -4.34914 255 0 0
8.39908 8.90173 -4.21049 255 0 0
8.44927 9.80422 -3.89582 255 0 0
8.92893 8.68873 -4.46474 255 0 0
9.50446 9.205 -3.49081 255 0 0
9.77669 10.6616 -4.24186 255 0 0
8.52043 9.65299 -3.55919 255 0 0
9.54118 9.68937 -3.41783 255 0 0
8.7859 8.90124 -3.93831 255 0 0
9.53955 9.64188 -3.41419 255 0 0
9.69102 9.98258 -3.33382 255 0 0
9.63549 10.02 -3.3327 255 0 0
9.67216 10.106 -3.34109 255 0 0
9.61977 10.244 -3.34723 255 0 0
9.56361 10.2327 -3.34276 255 0 0
9.5625 10.3293 -3.34947 255 0 0
9.54098 10.4046 -3.35338 255 0 0
9.49154 10.4497 -3.35338 255 0 0
9.34832 10.3906 -3.33997 255 0 0
9.28731 10.4218 -3.33829 255 0 0
9.27031 10.4525 -3.33941 255 0 0
9.26295 10.5445 -3.34556 255 0 0
8.93078 10.6149 -3.32991 255 0 0
8.64525 10.5263 -3.30588 255 0 0
8.59891 10.5717 -3.30644 255 0 0
8.76775 10.9373 -3.34388 255 0 0
8.73391 11.0016 -3.34667 255 0 0
8.63554 10.9308 -3.3355 255 0 0
8.5501 9.54883 -3.55215 255 0 0
8.50279 9.86633 -3.68721 255 0 0
8.51965 10.6278 -3.53473 255 0 0
8.46263 8.84222 -4.10572 255 0 0
8.60111 10.0044 -3.48655 255 0 0
9.68037 9.37536 -3.40508 255 0 0
9.55224 9.56358 -3.40933 255 0 0
9.59113 9.64815 -3.41844 255 0 0
9.34367 9.85592 -3.41601 255 0 0
9.33626 9.89499 -3.41844 255 0 0
9.28923 9.93915 -3.41844 255 0 0
9.24194 9.95931 -3.41662 255 0 0
9.04396 10.1004 -3.41358 255 0 0
8.82795 10.2436 -3.40994 255 0 0
8.71265 10.1584 -3.39536 255 0 0
8.65715 10.2896 -3.40204 255 0 0
8.67386 10.3593 -3.40872 255 0 0
8.65673 10.3887 -3.40994 255 0 0
8.67668 10.463 -3.41722 255 0 0
8.66393 10.5491 -3.4233 255 0 0
8.58588 10.5301 -3.41662 255 0 0
8.56669 10.5833 -3.41965 255 0 0
8.64699 10.8921 -3.45001 255 0 0
8.5975 11.0163 -3.457 255 0 0
8.58362 11.1339 -3.4658 255 0 0
8.5501 11.145 -3.46459 255 0 0
8.55352 11.2596 -3.4743 255 0 0
8.51504 10.5195 -3.5249 255 0 0
8.47732 10.8889 -3.67111 255 0 0
8.4829 12.3401 -4.5763 255 0 0
8.52417 9.29573 -3.6338 255 0 0
9.63351 9.15453 -3.49736 255 0 0
9.62019 9.18538 -3.49867 255 0 0
9.44667 9.21436 -3.48687 255 0 0
9.23303 9.30997 -3.47737 255 0 0
9.12678 9.3126 -3.46917 255 0 0
9.09563 9.34707 -3.4695 255 0 0
9.07244 9.38983 -3.47114 255 0 0
8.92854 9.46287 -3.46589 255 0 0
8.90277 9.50306 -3.46721 255 0 0
8.83496 9.56613 -3.46721 255 0 0
8.67873 9.69249 -3.46589 255 0 0
8.65959 9.71738 -3.46655 255 0 0
8.66356 9.76836 -3.47114 255 0 0
8.61683 9.85602 -3.47507 255 0 0
8.56239 10.0796 -3.49015 255 0 0
8.54072 10.1512 -3.49474 255 0 0
8.54651 10.2072 -3.49999 255 0 0
8.53719 10.2453 -3.50261 255 0 0
8.53426 10.3912 -3.51506 255 0 0
8.52848 10.4598 -3.52064 255 0 0
8.52658 10.5849 -3.53145 255 0 0
8.53072 10.6935 -3.54129 255 0 0
8.5379 10.7547 -3.54719 255 0 0
8.50483 11.0317 -3.56948 255 0 0
8.50006 11.1892 -3.58325 255 0 0
8.50859 11.2558 -3.5898 255 0 0
8.50986 11.3131 -3.59505 255 0 0
9.22273 8.72266 -4.51133 255 0 0
8.47965 10.4757 -3.74588 255 0 0
8.46922 10.8254 -3.78048 255 0 0
9.48089 9.0095 -3.58383 255 0 0
9.3496 9.01216 -3.57256 255 0 0
9.30315 9.01004 -3.56834 255 0 0
9.23776 9.01058 -3.56271 255 0 0
9.16834 9.00673 -3.55637 255 0 0
9.14696 9.02844 -3.55637 255 0 0
9.03321 9.04393 -3.54793 255 0 0
8.78624 9.11523 -3.53314 255 0 0
8.67653 9.19577 -3.53103 255 0 0
8.5961 9.2194 -3.52646 255 0 0
8.57478 9.30654 -3.53244 255 0 0
8.54484 9.31827 -3.53103 255 0 0
8.57481 9.44044 -3.54441 255 0 0
8.5602 9.46937 -3.54581 255 0 0
8.53549 9.80982 -3.57468 255 0 0
8.50623 9.96549 -3.58664 255 0 0
8.48316 10.2544 -3.61163 255 0 0
8.48249 10.7371 -3.65703 255 0 0
8.49776 10.9687 -3.68026 255 0 0
8.46818 10.9842 -3.67956 255 0 0
8.47569 11.3796 -3.71828 255 0 0
8.46945 11.4277 -3.7225 255 0 0
8.47338 11.4898 -3.72883 255 0 0
8.3763 9.95583 -4.34994 255 0 0
8.4765 8.6902 -4.50663 255 0 0
8.72391 8.94385 -3.72416 255 0 0
8.38076 10.8176 -4.00445 255 0 0
8.36785 8.70179 -4.91424 255 0 0
9.68345 8.9646 -3.7094 255 0 0
9.40788 8.94012 -3.68119 255 0 0
9.36146 8.93834 -3.67667 255 0 0
9.30671 8.92835 -3.67066 255 0 0
9.2688 8.93427 -3.66765 255 0 0
9.04468 8.90633 -3.64433 255 0 0
8.92532 8.93591 -3.63606 255 0 0
8.87955 8.93234 -3.63154 255 0 0
8.64009 8.96359 -3.61274 255 0 0
8.61618 9.00266 -3.61424 255 0 0
8.59481 9.02306 -3.61424 255 0 0
8.56436 9.16356 -3.62477 255 0 0
8.55146 9.21525 -3.62853 255 0 0
8.51513 9.60101 -3.66238 255 0 0
8.48484 9.70505 -3.6699 255 0 0
8.50715 9.82419 -3.68344 255 0 0
8.49071 9.89968 -3.68946 255 0 0
8.46222 10.1065 -3.70751 255 0 0
8.47656 10.3209 -3.73008 255 0 0
8.47044 10.3635 -3.73384 255 0 0
8.51912 10.4736 -3.74889 255 0 0
8.60779 10.6857 -3.77747 255 0 0
8.52805 10.6901 -3.77145 255 0 0
8.5658 11.2204 -3.82862 255 0 0
8.459 11.3012 -3.82862 255 0 0
9.39942 8.95331 -3.79139 255 0 0
8.47145 11.4872 -3.84893 255 0 0
8.46481 11.5354 -3.85344 255 0 0
8.61288 8.83002 -4.3339 255 0 0
8.31829 9.56019 -4.07195 255 0 0
8.98585 8.95395 -3.75057 255 0 0
9.50302 8.94515 -3.801 255 0 0
9.4565 8.94375 -3.7962 255 0 0
9.33404 8.95457 -3.78499 255 0 0
9.01529 8.94078 -3.75217 255 0 0
8.90239 8.95532 -3.74257 255 0 0
8.40936 10.0434 -3.91874 255 0 0
8.86074 8.95579 -3.73856 255 0 0
8.70268 8.96451 -3.72416 255 0 0
8.63452 8.9578 -3.71695 255 0 0
8.59057 8.9759 -3.71455 255 0 0
8.54392 9.01232 -3.71375 255 0 0
8.48663 9.10199 -3.71735 255 0 0
8.47588 9.15554 -3.72175 255 0 0
8.46987 9.19267 -3.72496 255 0 0
8.47549 9.24265 -3.73056 255 0 0
8.49266 9.30557 -3.73856 255 0 0
8.47702 9.35505 -3.74217 255 0 0
8.46504 9.40886 -3.74657 255 0 0
8.32553 9.43219 -3.73616 255 0 0
8.43053 9.92437 -3.797 255 0 0
8.39547 10.7311 -3.88024 255 0 0
8.4388 11.3582 -3.95268 255 0 0
8.40393 11.4524 -3.96029 255 0 0
8.39044 11.5484 -3.96989 255 0 0
8.33511 8.75042 -4.7055 255 0 0
9.76754 8.93552 -3.9391 255 0 0
9.2559 8.92184 -3.88309 255 0 0
9.14271 8.91789 -3.87079 255 0 0
9.15273 9.07709 -3.88819 255 0 0
9.07372 9.04151 -3.8763 255 0 0
8.9311 8.96291 -3.85339 255 0 0
8.7672 8.9457 -3.83472 255 0 0
8.71257 8.9747 -3.83218 255 0 0
8.66309 8.96617 -3.82624 255 0 0
8.60567 8.9491 -3.8186 255 0 0
8.5069 9.05893 -3.8203 255 0 0
8.44024 9.16051 -3.82454 255 0 0
8.43416 9.19757 -3.82793 255 0 0
8.49186 9.75968 -3.89497 255 0 0
8.43693 9.86062 -3.90091 255 0 0
8.49679 10.1968 -3.94419 255 0 0
8.42903 10.3128 -3.95098 255 0 0
8.48574 10.4833 -3.97559 255 0 0
8.4291 10.6695 -3.99172 255 0 0
8.39111 10.6994 -3.99172 255 0 0
8.50362 11.5309 -4.09864 255 0 0
8.39728 11.6157 -4.09949 255 0 0
9.30135 8.6725 -4.51588 255 0 0
8.39605 11.7307 -4.11307 255 0 0
8.35431 9.0028 -4.21829 255 0 0
8.86055 8.66319 -4.55873 255 0 0
9.73366 8.86223 -4.04009 255 0 0
9.63615 8.85738 -4.02843 255 0 0
9.63637 8.89983 -4.03292 255 0 0
9.57283 8.8833 -4.02395 255 0 0
9.50949 8.90881 -4.01947 255 0 0
9.42514 8.87184 -4.00601 255 0 0
9.38726 8.87826 -4.00243 255 0 0
9.28849 8.88972 -3.99256 255 0 0
9.19432 8.86248 -3.97911 255 0 0
9.12756 8.83998 -3.96925 255 0 0
9.15113 8.98983 -3.98808 255 0 0
9.25745 9.13751 -4.01588 255 0 0
9.18235 9.10647 -4.00422 255 0 0
8.94279 8.9534 -3.96118 255 0 0
8.66633 8.88482 -3.92351 255 0 0
8.65733 8.91779 -3.9262 255 0 0
8.58792 8.88836 -3.91544 255 0 0
8.50966 8.89136 -3.90737 255 0 0
8.48066 8.96687 -3.91275 255 0 0
8.44199 9.01121 -3.91365 255 0 0
8.42382 9.0993 -3.92172 255 0 0
8.40222 9.11925 -3.92172 255 0 0
8.37069 9.71305 -3.98718 255 0 0
8.35894 9.74605 -3.98987 255 0 0
8.36508 9.84732 -4.00243 255 0 0
8.36912 9.9953 -4.02036 255 0 0
8.4392 10.2754 -4.06072 255 0 0
8.39219 10.4181 -4.07327 255 0 0
8.34297 10.664 -4.09838 255 0 0
8.37809 10.7614 -4.11362 255 0 0
8.43486 11.5519 -4.21675 255 0 0
8.3586 11.6784 -4.22572 255 0 0
8.40999 8.95573 -4.11366 255 0 0
9.53272 8.86712 -4.12864 255 0 0
9.73361 8.86218 -4.15226 255 0 0
9.41257 8.81801 -4.1088 255 0 0
9.31191 8.84892 -4.10029 255 0 0
9.22821 8.81111 -4.08612 255 0 0
9.20312 8.82897 -4.08518 255 0 0
9.08211 8.83778 -4.07195 255 0 0
9.22053 9.10107 -4.11825 255 0 0
9.05532 8.98049 -4.08518 255 0 0
8.83641 8.88894 -4.04927 255 0 0
8.70015 8.87728 -4.03227 255 0 0
8.64186 8.90185 -4.02849 255 0 0
8.65285 8.95556 -4.03605 255 0 0
8.59955 8.94273 -4.02849 255 0 0
8.53437 8.91718 -4.0181 255 0 0
8.41453 9.04614 -4.01999 255 0 0
8.40876 9.08303 -4.02377 255 0 0
8.41461 9.13269 -4.03038 255 0 0
9.80081 10.7389 -4.37712 255 0 0
8.4116 9.26075 -4.0455 255 0 0
8.4156 9.81211 -4.11352 255 0 0
8.35168 9.85521 -4.1121 255 0 0
8.35193 9.92686 -4.12108 255 0 0
8.35285 10.0241 -4.13336 255 0 0
8.33861 10.7107 -4.21934 255 0 0
8.40554 11.6854 -4.3535 255 0 0
8.34418 11.6583 -4.34405 255 0 0
8.3735 11.758 -4.36011 255 0 0
8.58507 8.84336 -4.2261 255 0 0
9.1076 8.65477 -4.59425 255 0 0
8.32019 8.8601 -4.40452 255 0 0
8.74179 8.64899 -4.53919 255 0 0
9.78314 8.65596 -5.15332 255 0 0
9.75383 8.83838 -4.26456 255 0 0
9.66072 8.83779 -4.25265 255 0 0
9.51696 8.78954 -4.22882 255 0 0
9.44985 8.81096 -4.22287 255 0 0
9.40787 8.81362 -4.2179 255 0 0
9.35333 8.80426 -4.20996 255 0 0
9.28846 8.80569 -4.20202 255 0 0
9.207 8.79086 -4.19011 255 0 0
9.20695 8.83264 -4.19507 255 0 0
9.15275 8.82241 -4.18713 255 0 0
9.10693 8.82 -4.18117 255 0 0
9.21686 9.0544 -4.22287 255 0 0
9.02222 8.94766 -4.18613 255 0 0
8.73166 8.84627 -4.13848 255 0 0
8.68803 8.86491 -4.1355 255 0 0
8.67504 8.89375 -4.13749 255 0 0
8.6057 8.86461 -4.12557 255 0 0
8.54055 8.83934 -4.11465 255 0 0
8.54757 8.88868 -4.1216 255 0 0
8.3696 9.04073 -4.11962 255 0 0
8.34457 9.5904 -4.18713 255 0 0
8.43891 9.74539 -4.2179 255 0 0
8.34964 9.71189 -4.20351 255 0 0
8.32279 9.84475 -4.2179 255 0 0
8.32933 10.02 -4.24173 255 0 0
8.41486 10.1964 -4.27449 255 0 0
8.38475 10.6652 -4.33406 255 0 0
8.48589 12.282 -4.56836 255 0 0
8.49271 12.4173 -4.58822 255 0 0
8.49571 12.4851 -4.59814 255 0 0
8.50814 12.5674 -4.61105 255 0 0
8.5416 12.7466 -4.63984 255 0 0
8.60227 12.9697 -4.67757 255 0 0
9.00938 8.72552 -4.37309 255 0 0
9.49194 8.66273 -4.65345 255 0 0
8.57393 8.70709 -4.31213 255 0 0
9.50725 8.78058 -4.33746 255 0 0
9.76472 8.80618 -4.37492 255 0 0
9.62912 8.76704 -4.35203 255 0 0
9.62956 8.8093 -4.35723 255 0 0
9.54926 8.77751 -4.34266 255 0 0
9.438 8.779 -4.32809 255 0 0
9.33544 8.78741 -4.3156 255 0 0
9.2769 8.77389 -4.30623 255 0 0
9.24354 8.78395 -4.30311 255 0 0
9.10201 8.7735 -4.28334 255 0 0
9.15115 8.90497 -4.30623 255 0 0
9.19761 9.01408 -4.32601 255 0 0
8.99326 8.87674 -4.2823 255 0 0
9.42223 9.34436 -4.39678 255 0 0
8.7833 8.79372 -4.24483 255 0 0
8.64304 8.81901 -4.23026 255 0 0
8.54806 8.84711 -4.22194 255 0 0
8.43325 8.85345 -4.20841 255 0 0
8.42413 8.88597 -4.21153 255 0 0
8.3851 8.95045 -4.21517 255 0 0
8.33591 9.04728 -4.22194 255 0 0
8.51838 9.60468 -4.31872 255 0 0
8.33179 9.69111 -4.30832 255 0 0
8.36535 10.6406 -4.44465 255 0 0
8.34849 11.3769 -4.54872 255 0 0
8.39342 12.5899 -4.73293 255 0 0
8.42087 12.6962 -4.75166 255 0 0
8.32571 8.86598 -4.30124 255 0 0
9.37431 8.6578 -4.41445 255 0 0
9.59669 8.69599 -4.45038 255 0 0
9.54657 8.71261 -4.44548 255 0 0
9.50918 8.74067 -4.44384 255 0 0
9.41702 8.7387 -4.43078 255 0 0
9.35419 8.72177 -4.4199 255 0 0
9.32089 8.73213 -4.41663 255 0 0
9.27084 8.7266 -4.40901 255 0 0
9.22504 8.72484 -4.40248 255 0 0
9.1793 8.72291 -4.39595 255 0 0
9.1586 8.74465 -4.39595 255 0 0
9.05489 8.72809 -4.37962 255 0 0
8.90619 8.70781 -4.35676 255 0 0
8.85679 8.70068 -4.34914 255 0 0
8.76208 8.73097 -4.34043 255 0 0
8.68813 8.73978 -4.33172 255 0 0
8.62574 8.80136 -4.33172 255 0 0
8.39748 8.77415 -4.29798 255 0 0
8.36872 8.7857 -4.2958 255 0 0
8.33741 8.81541 -4.2958 255 0 0
9.7121 8.71705 -4.58179 255 0 0
9.58552 8.68587 -4.55906 255 0 0
9.52668 8.67377 -4.54883 255 0 0
9.49337 8.6847 -4.54542 255 0 0
9.34294 8.66996 -4.52156 255 0 0
9.1932 8.65352 -4.4977 255 0 0
9.03601 8.64808 -4.4744 255 0 0
8.99485 8.67021 -4.47156 255 0 0
8.85902 8.66169 -4.45111 255 0 0
8.83846 8.68267 -4.45111 255 0 0
8.76864 8.69617 -4.44315 255 0 0
8.69483 8.70514 -4.43406 255 0 0
8.65392 8.70537 -4.42838 255 0 0
8.64133 8.73403 -4.43065 255 0 0
8.68508 8.81998 -4.44883 255 0 0
8.6159 8.79132 -4.4352 255 0 0
8.47572 8.75145 -4.4102 255 0 0
8.48834 8.82709 -4.4227 255 0 0
8.39343 8.79074 -4.40452 255 0 0
8.33585 8.81376 -4.39997 255 0 0
8.30232 8.90434 -4.40849 255 0 0
8.33241 9.48521 -4.4977 255 0 0
8.3175 9.55928 -4.50679 255 0 0
9.76695 8.68302 -4.69845 255 0 0
9.70785 8.67177 -4.68779 255 0 0
9.65739 8.66795 -4.6795 255 0 0
9.33146 8.65931 -4.62859 255 0 0
9.19864 8.65865 -4.60846 255 0 0
9.15309 8.65679 -4.60136 255 0 0
9.05387 8.64466 -4.58478 255 0 0
8.88107 8.64215 -4.55873 255 0 0
8.80726 8.65202 -4.54926 255 0 0
8.6335 8.66424 -4.52558 255 0 0
8.41845 8.7544 -4.50782 255 0 0
8.29962 8.79631 -4.49716 255 0 0
9.7413 8.66021 -4.8045 255 0 0
9.66951 8.63752 -4.78972 255 0 0
9.53959 8.62365 -4.76694 255 0 0
8.49046 8.64278 -4.60682 255 0 0
8.43768 8.6504 -4.60005 255 0 0
8.39092 8.6639 -4.59512 255 0 0
8.34816 8.68131 -4.59143 255 0 0
8.31172 8.68454 -4.5865 255 0 0
9.9323 8.78794 -4.96902 255 0 0
9.74489 8.6634 -4.91913 255 0 0
9.45203 8.64688 -4.86796 255 0 0
9.26512 8.63872 -4.83598 255 0 0
8.37255 8.70668 -4.70423 255 0 0
8.33213 8.70586 -4.69783 255 0 0
8.30254 8.75772 -4.70167 255 0 0
8.33111 8.74622 -4.80983 255 0 0
8.30784 8.68049 -4.9005 255 0 0
8.34532 9.77698 -5.21629 255 0 0
9.78097 11.5696 -4.21915 255 0 0
