ply
format ascii 1.0
comment Created by Open3D
element vertex 539
property double x
property double y
property double z
property uchar red
property uchar green
property uchar blue
end_header
6.7141 -12.4921 -4.19792 255 0 0
7.33531 -9.37603 -4.15013 255 0 0
7.57038 -9.91653 -4.14642 255 0 0
8.75488 -10.7635 -3.91466 255 0 0
6.96704 -12.5319 -4.22213 255 0 0
7.90552 -8.70359 -4.32611 255 0 0
8.28411 -10.334 -4.16549 255 0 0
7.00283 -8.95106 -4.54433 255 0 0
6.94491 -12.8484 -4.51276 255 0 0
7.03843 -11.9174 -4.14501 255 0 0
7.04352 -12.5292 -3.9835 255 0 0
8.72443 -10.7781 -3.79628 255 0 0
7.00972 -8.95987 -4.9471 255 0 0
8.83735 -10.7083 -3.79853 255 0 0
7.61058 -8.74683 -4.69706 255 0 0
6.93099 -11.7355 -4.57883 255 0 0
8.58969 -10.7152 -3.77897 255 0 0
6.81832 -12.7584 -3.99631 255 0 0
8.44539 -10.6381 -3.07468 255 0 0
7.04007 -11.8559 -4.13694 255 0 0
8.27122 -8.93447 -4.19904 255 0 0
8.69537 -10.0898 -4.17777 255 0 0
7.15986 -8.84527 -4.1532 255 0 0
8.3135 -8.89515 -4.19904 255 0 0
7.03274 -13.702 -4.91411 255 0 0
7.13571 -9.16561 -4.19783 255 0 0
6.94527 -11.6334 -4.56359 255 0 0
8.86071 -8.7459 -4.35567 255 0 0
7.03337 -13.7836 -5.06133 255 0 0
6.93693 -9.2677 -4.59166 255 0 0
7.03221 -12.169 -4.17819 255 0 0
6.97979 -9.37119 -4.61596 255 0 0
8.75008 -10.5515 -4.12438 255 0 0
8.49411 -8.70826 -4.72341 255 0 0
8.37575 -10.7584 -3.76619 255 0 0
6.88622 -10.7943 -5.0908 255 0 0
6.99927 -8.81655 -4.91626 255 0 0
6.96029 -12.5197 -4.95775 255 0 0
7.0361 -8.81992 -4.42761 255 0 0
8.33301 -10.6253 -3.86343 255 0 0
7.86472 -9.81081 -4.1633 255 0 0
7.04104 -9.29146 -4.40717 255 0 0
6.68379 -12.4357 -3.94828 255 0 0
7.08709 -9.14782 -4.38941 255 0 0
7.19482 -12.6574 -3.51802 255 0 0
8.4781 -10.273 -4.17777 255 0 0
7.22566 -13.7551 -5.07383 255 0 0
8.74356 -9.09249 -4.17025 255 0 0
8.29188 -8.70504 -4.37838 255 0 0
7.04447 -13.2571 -5.09984 255 0 0
6.99956 -8.99072 -4.35271 255 0 0
8.71824 -10.7184 -3.09315 255 0 0
7.09703 -12.5546 -3.74643 255 0 0
6.92518 -13.1076 -4.55049 255 0 0
6.98309 -9.1024 -4.97206 255 0 0
8.69441 -9.2586 -4.18514 255 0 0
7.54916 -8.71789 -5.09004 255 0 0
7.02063 -8.80053 -4.61879 255 0 0
7.4395 -8.69485 -4.16517 255 0 0
8.46715 -8.80506 -4.20633 255 0 0
7.15545 -12.519 -3.50345 255 0 0
8.57426 -10.748 -3.54915 255 0 0
8.75363 -10.7619 -3.79703 255 0 0
8.1577 -10.4783 -4.05803 255 0 0
8.77799 -10.6879 -3.55833 255 0 0
8.06194 -9.04672 -4.18863 255 0 0
7.00165 -11.6025 -4.10017 255 0 0
8.51803 -9.46775 -4.1911 255 0 0
8.71289 -8.72323 -4.33281 255 0 0
7.85514 -9.15864 -4.17927 255 0 0
6.6896 -12.4465 -4.06979 255 0 0
6.93689 -11.557 -5.01763 255 0 0
6.90315 -11.7519 -4.57883 255 0 0
6.91609 -12.6513 -3.86774 255 0 0
6.92405 -11.4739 -4.76712 255 0 0
8.7434 -8.71236 -5.08838 255 0 0
6.95117 -9.10541 -4.96766 255 0 0
6.97538 -13.3555 -4.33512 255 0 0
8.35299 -10.6248 -3.18242 255 0 0
7.75471 -9.19488 -4.1725 255 0 0
7.08202 -9.18618 -4.59677 255 0 0
8.40947 -8.70367 -4.39429 255 0 0
7.003 -9.03928 -4.65992 255 0 0
7.05178 -9.37472 -4.2196 255 0 0
7.72297 -9.87154 -4.15635 255 0 0
7.96707 -9.79491 -4.17224 255 0 0
6.97607 -8.70227 -4.9885 255 0 0
7.97837 -9.0822 -4.18343 255 0 0
7.06341 -13.7617 -5.06019 255 0 0
7.11858 -8.96685 -4.16626 255 0 0
8.68312 -10.6237 -3.43058 255 0 0
8.44274 -10.6348 -3.87384 255 0 0
8.66013 -10.0972 -4.17493 255 0 0
8.25445 -8.74844 -4.37952 255 0 0
8.88763 -8.73098 -4.46474 255 0 0
6.98362 -13.7666 -4.78809 255 0 0
8.71413 -10.6102 -3.66267 255 0 0
6.90158 -10.8467 -4.8782 255 0 0
8.51134 -10.6692 -3.88344 255 0 0
8.38514 -10.6138 -3.86663 255 0 0
8.77339 -9.79821 -4.15037 255 0 0
6.98475 -11.9557 -4.14591 255 0 0
7.04579 -9.00597 -4.65992 255 0 0
8.41402 -10.6504 -3.64366 255 0 0
8.44518 -8.86597 -4.21153 255 0 0
8.29981 -10.5058 -3.96117 255 0 0
8.10432 -10.4097 -4.15698 255 0 0
8.70015 -10.7481 -3.09407 255 0 0
8.71767 -10.5633 -4.12259 255 0 0
7.14576 -9.49966 -4.147 255 0 0
7.13746 -9.12314 -4.39178 255 0 0
7.14323 -12.4976 -3.62192 255 0 0
7.08719 -12.6068 -3.75136 255 0 0
8.39807 -10.6302 -3.7549 255 0 0
6.97579 -13.9143 -4.41224 255 0 0
6.99957 -11.7243 -4.23257 255 0 0
8.5803 -8.71356 -4.41929 255 0 0
7.9644 -9.10976 -4.18551 255 0 0
8.19917 -10.6875 -3.40447 255 0 0
7.03652 -8.86348 -4.435 255 0 0
8.49546 -10.7012 -3.76995 255 0 0
6.9452 -9.23303 -4.89083 255 0 0
8.25775 -10.685 -3.06844 255 0 0
8.4149 -10.5997 -3.5249 255 0 0
6.95386 -9.19906 -4.78371 255 0 0
7.03177 -12.6837 -3.87864 255 0 0
8.08136 -8.72938 -4.35338 255 0 0
6.96421 -12.3196 -4.31382 255 0 0
7.12365 -8.71569 -4.32429 255 0 0
7.12717 -11.8104 -4.02057 255 0 0
7.1531 -8.77293 -4.14177 255 0 0
7.03554 -11.7846 -4.12707 255 0 0
8.74635 -9.72153 -4.13809 255 0 0
8.2495 -9.66472 -4.18613 255 0 0
8.42516 -10.6645 -3.18906 255 0 0
6.9905 -9.15693 -4.78096 255 0 0
6.95499 -9.15535 -4.77547 255 0 0
6.91697 -13.7157 -4.90649 255 0 0
7.0704 -12.6471 -3.99951 255 0 0
6.9104 -12.57 -3.9795 255 0 0
7.05143 -8.79628 -4.32784 255 0 0
8.72233 -9.20052 -4.18117 255 0 0
7.48628 -9.24852 -4.14909 255 0 0
7.09135 -8.88918 -4.34797 255 0 0
8.13558 -9.04266 -4.19696 255 0 0
7.07727 -9.18001 -4.29315 255 0 0
7.0349 -12.5138 -4.22482 255 0 0
8.73932 -10.0441 -4.17682 255 0 0
8.19667 -9.64907 -4.17819 255 0 0
6.90037 -12.912 -4.14447 255 0 0
7.04814 -11.5553 -4.44465 255 0 0
8.54353 -10.2036 -4.17588 255 0 0
7.89774 -9.78052 -4.1628 255 0 0
7.02452 -9.20149 -4.59166 255 0 0
7.04968 -9.23446 -4.39888 255 0 0
6.98543 -8.75641 -5.10141 255 0 0
7.02823 -8.87462 -4.63338 255 0 0
8.35156 -10.623 -3.06913 255 0 0
7.15322 -13.6172 -4.25309 255 0 0
7.35811 -8.70366 -4.15646 255 0 0
8.64716 -10.6827 -3.31762 255 0 0
6.93263 -9.14841 -5.07564 255 0 0
7.00265 -8.99469 -4.552 255 0 0
7.02876 -13.6147 -4.37458 255 0 0
8.6938 -10.6884 -3.20539 255 0 0
8.25577 -10.6563 -3.17936 255 0 0
7.2002 -12.3918 -3.25387 255 0 0
8.59282 -10.1886 -4.17918 255 0 0
7.11446 -13.7807 -5.06814 255 0 0
7.13297 -9.436 -4.2381 255 0 0
8.64296 -8.73567 -4.53742 255 0 0
7.12796 -12.5398 -3.6252 255 0 0
7.39823 -9.3191 -4.14909 255 0 0
8.80942 -8.73662 -4.45452 255 0 0
6.91111 -12.9321 -4.52269 255 0 0
7.64429 -9.93986 -4.15734 255 0 0
7.02475 -11.7034 -4.11542 255 0 0
7.15658 -12.3843 -3.37126 255 0 0
7.03236 -12.5093 -4.10204 255 0 0
7.14218 -13.5183 -4.23952 255 0 0
8.43335 -10.623 -3.41419 255 0 0
7.07932 -9.00475 -4.46456 255 0 0
8.53785 -10.6505 -3.53801 255 0 0
6.95005 -11.6414 -4.44881 255 0 0
6.98768 -13.7746 -5.05564 255 0 0
8.65375 -10.6908 -3.20335 255 0 0
6.95126 -9.17298 -4.98161 255 0 0
8.80103 -10.613 -3.90265 255 0 0
7.062 -11.64 -3.99426 255 0 0
6.81784 -11.5439 -4.76831 255 0 0
7.625 -9.23932 -4.16366 255 0 0
8.62576 -9.36186 -4.19011 255 0 0
8.19661 -10.6842 -3.06544 255 0 0
8.34412 -10.7178 -3.07468 255 0 0
8.45633 -10.7039 -3.07929 255 0 0
8.53955 -10.6526 -3.08022 255 0 0
6.98282 -8.92548 -4.73562 255 0 0
7.07127 -12.5785 -3.86924 255 0 0
7.11578 -12.3813 -4.21316 255 0 0
8.60461 -9.42823 -4.19606 255 0 0
6.97778 -8.7044 -4.69303 255 0 0
7.04193 -8.74188 -4.4153 255 0 0
8.62236 -10.7038 -3.78048 255 0 0
7.2531 -12.415 -3.25795 255 0 0
8.14814 -10.6471 -3.17298 255 0 0
8.30609 -10.6689 -3.18293 255 0 0
8.43954 -10.6308 -3.18753 255 0 0
8.52657 -10.6883 -3.1962 255 0 0
8.53729 -10.6498 -3.19416 255 0 0
7.83783 -9.82492 -4.16231 255 0 0
8.37459 -10.8097 -3.42572 255 0 0
8.24937 -10.7004 -3.40872 255 0 0
8.69607 -9.30449 -4.1911 255 0 0
8.39515 -10.6524 -3.52818 255 0 0
6.96329 -12.3865 -4.32327 255 0 0
8.69454 -10.6893 -3.32097 255 0 0
8.4139 -10.7023 -3.64859 255 0 0
8.43167 -9.55244 -4.19209 255 0 0
7.11899 -13.87 -4.28364 255 0 0
7.78817 -8.6979 -4.41072 255 0 0
7.18512 -12.502 -3.50345 255 0 0
7.02923 -8.68388 -4.59889 255 0 0
8.35783 -9.58267 -4.18762 255 0 0
7.07243 -12.5111 -3.6193 255 0 0
6.93458 -13.0503 -4.54255 255 0 0
8.59488 -10.6697 -3.65915 255 0 0
8.39665 -10.7326 -3.53539 255 0 0
7.12309 -9.42293 -4.13347 255 0 0
6.95542 -13.1648 -4.68922 255 0 0
7.95653 -8.75975 -4.75278 255 0 0
7.04877 -12.6084 -3.74925 255 0 0
8.40999 -10.7497 -3.65281 255 0 0
8.5007 -10.7078 -3.65563 255 0 0
8.50431 -10.6604 -3.6514 255 0 0
8.62409 -10.7581 -3.66971 255 0 0
8.79846 -10.6612 -3.67393 255 0 0
8.47333 -10.7779 -3.77597 255 0 0
6.96295 -13.179 -4.31001 255 0 0
7.01807 -9.10322 -4.47319 255 0 0
7.01641 -11.5032 -4.31818 255 0 0
8.1436 -8.75488 -4.99174 255 0 0
6.98891 -8.88975 -4.92948 255 0 0
8.00443 -10.5368 -3.93825 255 0 0
7.06693 -12.6409 -3.87601 255 0 0
8.3583 -10.6836 -3.75716 255 0 0
8.52443 -10.6856 -3.7707 255 0 0
7.40112 -9.36827 -4.15637 255 0 0
6.91979 -11.1065 -4.702 255 0 0
6.96178 -11.5364 -4.31818 255 0 0
8.19985 -9.69932 -4.18514 255 0 0
7.00581 -9.35971 -4.71962 255 0 0
7.30246 -13.7427 -4.14759 255 0 0
6.76014 -12.5066 -3.96189 255 0 0
6.97667 -12.6196 -3.9899 255 0 0
7.02348 -12.6334 -3.99471 255 0 0
8.54387 -10.658 -3.88504 255 0 0
8.57639 -10.6468 -3.88665 255 0 0
6.99227 -9.2271 -4.69308 255 0 0
6.98101 -9.09969 -4.7686 255 0 0
6.93355 -12.9004 -4.51971 255 0 0
7.11157 -9.00176 -4.17061 255 0 0
7.10978 -13.9333 -4.29128 255 0 0
7.13662 -13.7436 -4.26837 255 0 0
6.98244 -12.63 -4.11392 255 0 0
6.98006 -12.4855 -4.09525 255 0 0
8.49029 -10.5912 -3.98832 255 0 0
7.03909 -8.78088 -4.42146 255 0 0
7.49018 -8.73312 -4.27611 255 0 0
8.30497 -10.3098 -4.16454 255 0 0
6.89822 -12.8347 -5.00867 255 0 0
6.97886 -13.7572 -4.39072 255 0 0
6.96212 -13.5644 -4.36292 255 0 0
6.9757 -13.4337 -4.34588 255 0 0
6.97789 -13.1318 -4.30463 255 0 0
6.64628 -12.4365 -4.18536 255 0 0
6.79158 -12.5292 -4.20868 255 0 0
6.86107 -12.5506 -4.21675 255 0 0
6.90754 -12.5648 -4.22213 255 0 0
6.95971 -12.5889 -4.2293 255 0 0
6.99674 -12.5153 -4.22213 255 0 0
7.22383 -12.4325 -4.22841 255 0 0
7.10393 -12.0938 -4.17371 255 0 0
7.00813 -11.5512 -4.0939 255 0 0
8.4329 -10.5709 -4.09569 255 0 0
8.38194 -10.456 -4.07686 255 0 0
8.4539 -10.4947 -4.08851 255 0 0
8.56977 -10.5871 -4.11093 255 0 0
8.55468 -10.5173 -4.10107 255 0 0
8.6565 -10.5911 -4.1199 255 0 0
8.6265 -10.5035 -4.10645 255 0 0
8.801 -10.5619 -4.13066 255 0 0
7.01238 -13.9873 -5.09542 255 0 0
6.98958 -8.8906 -4.63073 255 0 0
7.03648 -14.0354 -4.56703 255 0 0
6.99306 -13.1604 -4.43664 255 0 0
6.80097 -12.6537 -4.34878 255 0 0
6.93681 -12.7971 -4.37996 255 0 0
6.98748 -12.7102 -4.37145 255 0 0
6.93093 -12.5368 -4.34216 255 0 0
6.95502 -12.5102 -4.34027 255 0 0
6.96774 -12.4635 -4.3346 255 0 0
6.97626 -12.2729 -4.30815 255 0 0
6.99387 -12.2363 -4.30437 255 0 0
6.9649 -11.6037 -4.21273 255 0 0
7.01926 -11.6316 -4.22123 255 0 0
7.04407 -11.5794 -4.21603 255 0 0
7.94903 -10.4381 -4.14517 255 0 0
7.98434 -10.4075 -4.1447 255 0 0
8.04251 -10.4065 -4.15037 255 0 0
8.12898 -10.3905 -4.15698 255 0 0
8.1393 -10.353 -4.1532 255 0 0
8.20323 -10.3836 -4.1636 255 0 0
8.2422 -10.3822 -4.16737 255 0 0
8.24517 -10.3355 -4.16171 255 0 0
8.34393 -10.3081 -4.16832 255 0 0
8.37199 -10.2927 -4.16926 255 0 0
8.43417 -10.2942 -4.17588 255 0 0
8.47661 -10.2218 -4.17115 255 0 0
8.53411 -10.2416 -4.17966 255 0 0
8.60467 -10.1294 -4.17304 255 0 0
8.65868 -10.1441 -4.1806 255 0 0
8.72683 -10.0779 -4.17966 255 0 0
8.74029 -9.99723 -4.17115 255 0 0
8.7449 -9.95477 -4.16643 255 0 0
8.73406 -9.89502 -4.15793 255 0 0
8.769 -9.88725 -4.16076 255 0 0
8.82702 -9.90526 -4.16926 255 0 0
7.3861 -8.69487 -4.45471 255 0 0
8.84141 -8.74757 -4.24639 255 0 0
7.93522 -9.11993 -4.18343 255 0 0
6.93938 -13.924 -4.67657 255 0 0
6.94909 -13.8611 -4.66764 255 0 0
7.58874 -9.98959 -4.15834 255 0 0
7.68249 -9.89211 -4.15486 255 0 0
7.75087 -9.83495 -4.15436 255 0 0
7.80734 -9.83443 -4.16032 255 0 0
7.9501 -9.72684 -4.16131 255 0 0
7.99145 -9.73026 -4.16628 255 0 0
8.04807 -9.72845 -4.17224 255 0 0
8.07155 -9.68647 -4.16926 255 0 0
8.13524 -9.71598 -4.18018 255 0 0
8.15082 -9.68783 -4.17819 255 0 0
8.26112 -9.63199 -4.18316 255 0 0
8.29524 -9.62549 -4.18613 255 0 0
8.33314 -9.62325 -4.19011 255 0 0
8.39758 -9.55939 -4.18911 255 0 0
8.4275 -9.5022 -4.18514 255 0 0
8.48238 -9.49582 -4.1906 255 0 0
8.56754 -9.47749 -4.19805 255 0 0
8.54731 -9.41017 -4.18713 255 0 0
8.61914 -9.3993 -4.19408 255 0 0
8.66753 -9.36256 -4.19507 255 0 0
8.68971 -9.34198 -4.19507 255 0 0
8.73218 -9.25475 -4.18911 255 0 0
8.76004 -9.19653 -4.18514 255 0 0
8.76586 -9.15905 -4.18117 255 0 0
8.74504 -9.05098 -4.16529 255 0 0
8.80265 -9.06749 -4.17422 255 0 0
8.76369 -8.98463 -4.15933 255 0 0
8.86171 -9.04213 -4.17819 255 0 0
8.74951 -8.88541 -4.14543 255 0 0
6.99071 -9.29354 -4.40125 255 0 0
6.93887 -9.22462 -4.78646 255 0 0
7.26843 -9.42797 -4.15013 255 0 0
7.23549 -8.7462 -4.14775 255 0 0
7.88717 -9.10822 -4.17614 255 0 0
6.93971 -14.0078 -4.82347 255 0 0
6.92664 -13.8984 -4.80474 255 0 0
6.88312 -13.3326 -4.71003 255 0 0
6.87691 -13.167 -4.68297 255 0 0
6.95566 -12.3045 -4.55288 255 0 0
6.93872 -11.7486 -4.46442 255 0 0
6.92831 -11.6677 -4.45089 255 0 0
7.02899 -11.6478 -4.45714 255 0 0
6.9729 -11.4931 -4.428 255 0 0
7.05142 -11.4992 -4.43632 255 0 0
7.02424 -11.3942 -4.41759 255 0 0
7.17679 -9.44731 -4.14284 255 0 0
7.23063 -9.47149 -4.15221 255 0 0
7.25547 -9.36516 -4.13972 255 0 0
7.31306 -9.3934 -4.15013 255 0 0
7.34683 -9.34502 -4.147 255 0 0
7.46396 -9.31089 -4.15533 255 0 0
7.4824 -9.28868 -4.15429 255 0 0
7.53727 -9.2665 -4.15741 255 0 0
7.57746 -9.27092 -4.16262 255 0 0
7.5921 -9.24402 -4.16053 255 0 0
7.67611 -9.21191 -4.16574 255 0 0
7.72752 -9.22903 -4.17406 255 0 0
7.7967 -9.17822 -4.1751 255 0 0
7.84088 -9.18601 -4.18135 255 0 0
8.01514 -9.08053 -4.18759 255 0 0
8.04047 -9.06581 -4.18863 255 0 0
8.14639 -8.99019 -4.19123 255 0 0
8.19193 -8.97605 -4.19488 255 0 0
8.22876 -8.97359 -4.19904 255 0 0
8.25002 -8.95406 -4.19904 255 0 0
8.35429 -8.89641 -4.20424 255 0 0
8.35419 -8.83315 -4.19592 255 0 0
8.45024 -8.82927 -4.20737 255 0 0
8.52085 -8.77721 -4.20945 255 0 0
8.57383 -8.78998 -4.21777 255 0 0
8.60099 -8.75531 -4.21673 255 0 0
8.6564 -8.74925 -4.22298 255 0 0
8.7383 -8.76942 -4.23599 255 0 0
6.97126 -8.73865 -4.79702 255 0 0
7.43976 -9.84184 -4.1226 255 0 0
6.95207 -13.7044 -4.90758 255 0 0
6.98978 -13.6981 -4.90975 255 0 0
7.09688 -13.7466 -4.92717 255 0 0
7.10559 -13.6838 -4.91737 255 0 0
6.89674 -12.7593 -4.74429 255 0 0
6.94411 -11.6943 -4.57338 255 0 0
6.93139 -11.5478 -4.54835 255 0 0
7.11008 -9.3595 -4.22395 255 0 0
7.03799 -9.21915 -4.19456 255 0 0
7.08785 -9.23895 -4.20327 255 0 0
7.08163 -9.18567 -4.19456 255 0 0
7.0893 -9.15066 -4.19021 255 0 0
7.09192 -9.04284 -4.17442 255 0 0
7.13964 -8.92799 -4.16299 255 0 0
7.15692 -8.88462 -4.15864 255 0 0
7.20434 -8.77189 -4.14775 255 0 0
7.28979 -8.72725 -4.15156 255 0 0
7.33746 -8.72108 -4.15646 255 0 0
7.39363 -8.70373 -4.16082 255 0 0
7.54263 -8.68952 -4.17714 255 0 0
8.11508 -8.72422 -4.25443 255 0 0
8.22036 -8.7123 -4.26641 255 0 0
8.30126 -8.71488 -4.27729 255 0 0
8.39035 -8.72518 -4.29036 255 0 0
8.84811 -8.77499 -4.35785 255 0 0
6.99295 -9.38886 -4.9292 255 0 0
6.92913 -13.7398 -5.04428 255 0 0
7.163 -13.7944 -5.07496 255 0 0
7.19568 -13.7773 -5.07496 255 0 0
6.90477 -12.7741 -4.87269 255 0 0
7.05029 -8.92419 -4.24997 255 0 0
7.08214 -8.92094 -4.25338 255 0 0
7.12436 -8.88726 -4.25338 255 0 0
7.10578 -8.82114 -4.24088 255 0 0
7.14074 -8.80025 -4.24202 255 0 0
7.11382 -8.70366 -4.22384 255 0 0
7.24752 -8.69758 -4.23975 255 0 0
7.4115 -8.72476 -4.26475 255 0 0
8.60901 -8.70136 -4.42156 255 0 0
8.75166 -8.76204 -4.44997 255 0 0
8.74393 -8.71288 -4.44202 255 0 0
8.86691 -8.75202 -4.46474 255 0 0
6.98782 -8.71692 -4.89424 255 0 0
6.86074 -11.4918 -4.76357 255 0 0
6.87985 -11.3397 -4.73871 255 0 0
6.97897 -9.32386 -4.4048 255 0 0
7.05062 -9.19042 -4.39178 255 0 0
7.02794 -8.9394 -4.34797 255 0 0
7.10955 -8.9992 -4.3681 255 0 0
7.00607 -8.82513 -4.32666 255 0 0
7.05383 -8.73546 -4.31837 255 0 0
7.08125 -8.70586 -4.31718 255 0 0
7.31114 -8.73175 -4.35152 255 0 0
7.31706 -8.69684 -4.34678 255 0 0
8.38665 -8.72134 -4.49834 255 0 0
8.76174 -8.73064 -4.55399 255 0 0
7.05097 -8.92505 -4.44732 255 0 0
7.05493 -8.69455 -4.40914 255 0 0
7.33005 -8.71228 -4.44978 255 0 0
7.5441 -8.69123 -4.47626 255 0 0
7.89768 -8.69495 -4.52738 255 0 0
8.15346 -8.72391 -4.56926 255 0 0
8.39577 -8.73083 -4.60621 255 0 0
8.86943 -8.71309 -4.67518 255 0 0
6.95551 -11.9707 -5.0995 255 0 0
6.96495 -11.48 -5.00612 255 0 0
6.88801 -11.2927 -4.96134 255 0 0
7.01384 -9.32429 -4.61212 255 0 0
6.96702 -9.21647 -4.58654 255 0 0
6.97328 -9.08961 -4.56479 255 0 0
7.0443 -9.09257 -4.57503 255 0 0
7.00638 -8.91197 -4.53793 255 0 0
6.99882 -8.816 -4.52002 255 0 0
6.99833 -8.77258 -4.51235 255 0 0
6.99766 -8.72921 -4.50467 255 0 0
7.00759 -8.69924 -4.50083 255 0 0
7.07761 -8.70138 -4.51107 255 0 0
7.85885 -8.69353 -4.62364 255 0 0
8.55073 -8.72482 -4.73493 255 0 0
8.63219 -8.72479 -4.74772 255 0 0
7.02788 -9.43576 -4.73686 255 0 0
6.99369 -9.2975 -4.70635 255 0 0
7.01812 -9.19312 -4.69043 255 0 0
6.99167 -9.09124 -4.66788 255 0 0
7.02442 -9.02265 -4.65992 255 0 0
7.00937 -8.74382 -4.60685 255 0 0
7.0122 -8.70496 -4.60022 255 0 0
8.13362 -8.74415 -4.77799 255 0 0
6.84322 -10.8115 -5.08874 255 0 0
6.92918 -10.7769 -5.09286 255 0 0
6.91698 -9.24105 -4.78646 255 0 0
6.96781 -9.03803 -4.75486 255 0 0
6.96133 -8.98549 -4.74387 255 0 0
6.98961 -8.97794 -4.74661 255 0 0
6.98286 -8.88205 -4.72738 255 0 0
6.9932 -8.83038 -4.71914 255 0 0
7.00681 -8.78322 -4.71227 255 0 0
8.59023 -8.72365 -4.95546 255 0 0
8.75322 -8.72214 -4.98294 255 0 0
6.9735 -9.04541 -4.95885 255 0 0
6.99691 -9.16534 -4.88514 255 0 0
6.95392 -9.2904 -4.90362 255 0 0
6.95798 -9.15928 -4.87804 255 0 0
6.95639 -9.0676 -4.85956 255 0 0
6.99931 -9.03451 -4.85956 255 0 0
6.97897 -8.94238 -4.83824 255 0 0
7.01777 -8.88304 -4.83255 255 0 0
6.99644 -8.81299 -4.8155 255 0 0
7.01262 -8.70549 -4.79702 255 0 0
7.06829 -9.44319 -5.05576 255 0 0
7.05318 -9.37658 -5.03961 255 0 0
6.99542 -8.98541 -4.95004 255 0 0
6.99894 -8.77335 -4.90745 255 0 0
7.02907 -8.68369 -4.89424 255 0 0
6.94969 -9.10347 -5.06882 255 0 0
6.95097 -9.03836 -5.05518 255 0 0
6.96577 -8.99122 -5.04761 255 0 0
6.96275 -8.94344 -5.037 255 0 0
6.95605 -8.89127 -5.02488 255 0 0
6.95265 -8.84362 -5.01427 255 0 0
6.9771 -8.83155 -5.01578 255 0 0
6.98044 -8.79284 -5.00821 255 0 0
6.98716 -8.75858 -5.00214 255 0 0
6.96382 -8.68699 -5.08266 255 0 0
8.16063 -10.6897 -3.06405 255 0 0
7.25297 -12.3475 -3.25285 255 0 0
7.08465 -11.74 -3.89225 255 0 0
7.01441 -11.5 -4.08762 255 0 0
7.00214 -11.4189 -4.19005 255 0 0
7.8892 -10.4364 -4.13903 255 0 0
7.33315 -9.74878 -4.09877 255 0 0
6.90525 -9.27111 -4.79058 255 0 0
