ply
format ascii 1.0
comment Created by Open3D
element vertex 78
property double x
property double y
property double z
property uchar red
property uchar green
property uchar blue
end_header
-54.0919 3.91854 -2.67615 255 0 0
-53.7692 4.27984 -3.1209 255 0 0
-53.8527 5.31611 -1.77512 255 0 0
-53.591 7.48134 -2.67461 255 0 0
-53.6987 5.04391 -2.67242 255 0 0
-53.6916 5.30021 -2.67264 255 0 0
-53.8434 4.15729 -3.12224 255 0 0
-53.6986 4.78713 -2.67213 255 0 0
-54.0605 4.30302 -2.22536 255 0 0
-53.732 5.04704 -3.12151 255 0 0
-53.7717 4.53673 -3.12138 255 0 0
-53.6847 5.42809 -2.67272 255 0 0
-53.6456 6.45419 -2.22454 255 0 0
-53.6753 6.9748 -3.12479 255 0 0
-53.6632 4.65575 -2.67155 255 0 0
-53.6563 5.68238 -2.22422 255 0 0
-53.859 4.03006 -3.12236 255 0 0
-53.725 5.30351 -3.12187 255 0 0
-53.6281 6.71022 -2.67381 255 0 0
-53.67 5.68384 -2.67286 255 0 0
-53.6766 6.58707 -2.22473 255 0 0
-53.7468 6.59569 -3.12528 255 0 0
-53.6785 6.07113 -2.22449 255 0 0
-53.6674 6.06987 -3.12236 255 0 0
-53.7311 5.1755 -2.22432 255 0 0
-53.7942 4.28182 -2.67279 255 0 0
-53.6375 6.32423 -2.22444 255 0 0
-53.7863 7.37864 -1.77439 255 0 0
-53.7605 4.40744 -2.6725 255 0 0
-53.6988 4.9155 -2.67228 255 0 0
-53.6923 6.97701 -2.225 255 0 0
-53.7322 4.91856 -3.12126 255 0 0
-53.7549 5.17779 -3.12224 255 0 0
-54.0385 4.43023 -2.22531 255 0 0
-53.7846 7.76856 -1.77417 255 0 0
-53.8149 7.12273 -1.77442 255 0 0
-53.8889 5.06178 -1.77508 255 0 0
-53.6703 7.36272 -2.22512 255 0 0
-53.6638 5.55454 -2.22419 255 0 0
-53.7292 5.43259 -2.22441 255 0 0
-53.7361 5.30461 -2.22439 255 0 0
-53.749 5.04863 -2.22434 255 0 0
-53.7725 4.92225 -2.22439 255 0 0
-53.7607 4.79266 -2.22429 255 0 0
-53.8186 4.66923 -2.22449 255 0 0
-53.8645 4.54456 -2.22463 255 0 0
-54.1815 4.1834 -2.22583 255 0 0
-53.6975 5.68675 -3.12211 255 0 0
-53.6631 6.06939 -2.6733 255 0 0
-53.7613 4.02275 -2.67213 255 0 0
-53.7199 4.66067 -3.12053 255 0 0
-53.7633 5.56484 -3.12321 255 0 0
-53.7297 5.43264 -3.12224 255 0 0
-53.6971 4.78699 -3.12029 255 0 0
-53.7123 4.40349 -3.11992 255 0 0
-54.1078 3.91969 -3.12734 255 0 0
-53.7189 6.72159 -2.22497 255 0 0
-53.6644 7.23232 -2.22502 255 0 0
-54.0657 8.07107 -2.22716 255 0 0
-53.6194 5.80706 -2.22412 255 0 0
-53.6608 7.36142 -2.67527 255 0 0
-53.6527 6.84254 -2.67432 255 0 0
-53.6386 7.87735 -2.22529 255 0 0
-53.6585 7.49076 -2.22514 255 0 0
-53.629 7.61632 -2.2251 255 0 0
-53.6296 7.09821 -3.12418 255 0 0
-53.6408 7.09968 -2.22485 255 0 0
-53.6397 7.74764 -2.22522 255 0 0
-53.6274 6.83931 -2.22466 255 0 0
-53.7337 6.20645 -2.22478 255 0 0
-53.5944 7.87085 -2.67534 255 0 0
-53.6254 7.09765 -2.67439 255 0 0
-53.6247 6.96822 -2.67418 255 0 0
-53.5837 6.44675 -2.67286 255 0 0
-53.6512 6.32585 -2.67352 255 0 0
-53.6599 5.94021 -2.67308 255 0 0
-53.6389 5.80918 -2.67264 255 0 0
-53.6761 6.19979 -3.12284 255 0 0
