ply
format ascii 1.0
comment Created by Open3D
element vertex 64
property double x
property double y
property double z
property uchar red
property uchar green
property uchar blue
end_header
-17.0263 -36.7466 -4.86583 255 0 0
-17.2478 -36.7664 -3.85767 255 0 0
-18.1317 -36.818 -3.53563 255 0 0
-17.2431 -36.9843 -3.52687 255 0 0
-18.2977 -38.5282 -3.95104 255 0 0
-18.4692 -36.8398 -3.54198 255 0 0
-17.2893 -37.5474 -4.23527 255 0 0
-17.5119 -36.427 -4.86004 255 0 0
-18.5855 -36.8533 -3.54438 255 0 0
-18.27 -38.47 -4.30293 255 0 0
-18.6728 -36.8092 -3.54438 255 0 0
-17.5805 -36.3486 -4.85715 255 0 0
-17.4882 -36.8238 -3.52534 255 0 0
-18.6426 -36.7495 -3.88496 255 0 0
-18.0756 -36.704 -4.55358 255 0 0
-18.2398 -36.8168 -3.53738 255 0 0
-17.3288 -37.1682 -4.21757 255 0 0
-17.1782 -37.54 -3.88843 255 0 0
-17.0014 -36.6927 -4.52403 255 0 0
-18.3479 -36.8154 -3.53913 255 0 0
-18.6084 -36.6821 -4.22421 255 0 0
-17.2389 -37.4377 -3.5422 255 0 0
-17.1458 -36.5492 -4.85674 255 0 0
-17.6007 -36.835 -3.52753 255 0 0
-17.2786 -36.8321 -3.52227 255 0 0
-17.2489 -37.2269 -3.53519 255 0 0
-17.2085 -37.6062 -3.54745 255 0 0
-18.5286 -37.6238 -3.9184 255 0 0
-18.5991 -38.6885 -4.32127 255 0 0
-17.3315 -36.4938 -4.8588 255 0 0
-18.5503 -38.8225 -3.96817 255 0 0
-17.3808 -36.8228 -3.52359 255 0 0
-18.0437 -36.421 -4.87616 255 0 0
-18.0212 -36.8136 -3.53366 255 0 0
-17.9211 -36.8299 -3.53256 255 0 0
-17.8185 -36.8407 -3.53125 255 0 0
-17.7108 -36.8406 -3.5295 255 0 0
-18.3391 -36.3647 -4.88195 255 0 0
-18.6271 -38.7468 -3.96656 255 0 0
-17.321 -37.6161 -3.89432 255 0 0
-18.6847 -36.6171 -4.22294 255 0 0
-18.6204 -37.5852 -4.26815 255 0 0
-18.368 -37.7482 -4.27005 255 0 0
-18.2377 -37.7074 -4.26499 255 0 0
-17.2108 -36.6877 -4.19133 255 0 0
-17.1589 -37.4979 -4.2299 255 0 0
-18.5782 -36.6227 -4.56306 255 0 0
-17.1801 -36.6223 -4.52476 255 0 0
-17.1031 -36.6841 -4.52622 255 0 0
-17.1433 -37.4638 -4.57145 255 0 0
-17.0665 -37.5309 -4.57327 255 0 0
-18.6095 -36.4698 -4.89724 255 0 0
-18.5045 -36.4774 -4.89435 255 0 0
-18.2554 -36.4133 -4.88236 255 0 0
-18.1638 -36.446 -4.88153 255 0 0
-17.9185 -36.385 -4.86996 255 0 0
-17.8168 -36.396 -4.86748 255 0 0
-17.7151 -36.4066 -4.865 255 0 0
-17.4431 -36.5053 -4.86294 255 0 0
-17.2324 -36.5084 -4.85674 255 0 0
-17.1332 -36.7485 -4.86914 255 0 0
-17.1248 -37.1901 -4.89724 255 0 0
-17.1047 -37.3793 -4.90881 255 0 0
-17.0837 -37.5686 -4.92038 255 0 0
