ply
format ascii 1.0
comment Created by Open3D
element vertex 1222
property double x
property double y
property double z
property uchar red
property uchar green
property uchar blue
end_header
1.16234 -11.1011 -3.07007 255 0 0
1.01512 -10.2832 -3.33856 255 0 0
0.663276 -9.63113 -3.82662 255 0 0
1.31018 -10.2732 -3.34157 255 0 0
1.45783 -10.265 -3.34307 255 0 0
1.71897 -9.31067 -4.03718 255 0 0
0.868471 -10.2937 -3.33818 255 0 0
0.710844 -8.93069 -4.16267 255 0 0
1.81888 -11.0185 -3.07063 255 0 0
2.10074 -8.78463 -4.4202 255 0 0
1.11064 -10.6073 -3.20169 255 0 0
0.487477 -9.33692 -4.33938 255 0 0
1.78875 -10.0901 -3.58813 255 0 0
1.61155 -10.7953 -3.87787 255 0 0
1.96334 -8.90734 -4.20183 255 0 0
0.866066 -11.0463 -3.06225 255 0 0
1.23294 -10.3513 -3.0869 255 0 0
0.573513 -8.62606 -4.39363 255 0 0
0.843407 -11.0948 -3.06672 255 0 0
0.969767 -11.0259 -3.06113 255 0 0
0.62878 -10.1869 -3.93113 255 0 0
1.46117 -10.2886 -3.17088 255 0 0
1.38047 -11.59 -3.02116 255 0 0
1.94794 -10.4813 -3.29099 255 0 0
1.663 -10.4596 -3.28255 255 0 0
1.97108 -8.64938 -4.37701 255 0 0
1.42852 -11.5276 -4.19783 255 0 0
1.91852 -9.00839 -4.14253 255 0 0
1.53833 -10.3891 -3.18334 255 0 0
1.91136 -10.217 -3.43439 255 0 0
1.11013 -9.51222 -4.06058 255 0 0
2.03607 -10.6052 -4.04325 255 0 0
1.40194 -10.3101 -3.26002 255 0 0
0.566936 -10.8588 -4.0574 255 0 0
1.6145 -10.1546 -3.59351 255 0 0
1.31022 -9.14788 -4.06889 255 0 0
2.21054 -9.64733 -4.12955 255 0 0
1.30598 -9.95792 -3.64207 255 0 0
0.963842 -8.99926 -4.10538 255 0 0
1.96464 -11.5601 -4.11786 255 0 0
0.635853 -8.63531 -4.47505 255 0 0
1.97037 -9.762 -3.88432 255 0 0
1.56057 -10.3696 -3.26988 255 0 0
0.741608 -10.4084 -3.44 255 0 0
0.635702 -10.712 -3.7545 255 0 0
0.611168 -9.53386 -3.97263 255 0 0
0.797371 -8.48923 -4.36082 255 0 0
0.583045 -8.46613 -4.50222 255 0 0
1.52285 -9.65194 -4.01762 255 0 0
0.490484 -9.84266 -4.29244 255 0 0
1.62791 -10.8171 -3.78851 255 0 0
1.35416 -9.14535 -4.06974 255 0 0
0.473882 -9.07652 -4.43536 255 0 0
1.96249 -10.4903 -4.0193 255 0 0
0.51828 -9.7059 -4.00696 255 0 0
0.897959 -10.4945 -3.27551 255 0 0
1.93538 -10.0807 -3.59082 255 0 0
0.748027 -10.8618 -3.31845 255 0 0
2.0313 -11.1504 -4.14449 255 0 0
0.910483 -9.00483 -4.10538 255 0 0
1.00858 -8.73207 -4.19939 255 0 0
1.25681 -8.55788 -4.2408 255 0 0
0.483727 -11.3274 -4.83682 255 0 0
0.964248 -8.5255 -4.29897 255 0 0
0.404594 -9.74519 -4.18359 255 0 0
1.98287 -9.04701 -4.15447 255 0 0
1.41091 -8.80677 -4.15305 255 0 0
0.905461 -8.64775 -4.25254 255 0 0
1.94983 -10.1559 -3.51479 255 0 0
1.98738 -10.0928 -4.2133 255 0 0
1.89061 -9.14306 -4.09021 255 0 0
1.26163 -10.181 -3.41572 255 0 0
0.719443 -8.52705 -4.44609 255 0 0
0.549279 -11.5745 -4.09289 255 0 0
1.56958 -11.6465 -4.12255 255 0 0
1.91715 -10.5951 -3.21317 255 0 0
0.706132 -11.8988 -3.64491 255 0 0
2.12319 -8.69599 -4.55873 255 0 0
1.48765 -11.5556 -4.10433 255 0 0
0.757948 -11.0058 -3.24299 255 0 0
1.05284 -10.5375 -4.27858 255 0 0
0.71468 -11.1486 -3.54165 255 0 0
2.13485 -8.8346 -4.43536 255 0 0
1.28776 -10.0029 -3.56302 255 0 0
0.816671 -11.0909 -3.06616 255 0 0
0.988033 -10.6545 -3.93262 255 0 0
1.38171 -10.5353 -3.01867 255 0 0
1.16995 -9.44108 -3.96434 255 0 0
1.13883 -9.75814 -3.77443 255 0 0
0.964201 -10.6727 -3.66077 255 0 0
0.849761 -10.6759 -4.11872 255 0 0
1.54704 -9.30305 -4.02917 255 0 0
1.9399 -10.2352 -3.4376 255 0 0
0.656115 -10.6297 -3.74127 255 0 0
1.5705 -11.5498 -4.20545 255 0 0
1.91824 -9.80289 -3.97611 255 0 0
0.915888 -10.1379 -3.49103 255 0 0
2.00472 -9.58027 -3.93634 255 0 0
1.11921 -10.4499 -3.27269 255 0 0
0.993908 -8.5164 -4.29745 255 0 0
0.547203 -8.53605 -4.52209 255 0 0
0.505792 -8.52292 -4.59479 255 0 0
0.668872 -10.8364 -3.59032 255 0 0
1.10292 -10.6556 -4.11929 255 0 0
0.581147 -9.06555 -4.1929 255 0 0
0.617738 -11.3165 -3.94985 255 0 0
2.07029 -8.47932 -4.65268 255 0 0
1.25884 -9.77824 -3.78067 255 0 0
0.745794 -11.2173 -3.36139 255 0 0
1.05462 -10.189 -3.41358 255 0 0
1.31986 -11.3093 -2.99615 255 0 0
1.73105 -10.805 -3.14094 255 0 0
1.35286 -9.60775 -4.00341 255 0 0
0.60697 -10.655 -4.0193 255 0 0
2.05443 -8.59098 -4.52494 255 0 0
0.725757 -10.9159 -3.41716 255 0 0
1.05865 -10.5957 -3.55977 255 0 0
1.81689 -9.16963 -4.09277 255 0 0
1.67475 -10.7807 -3.78379 255 0 0
0.640665 -9.994 -3.80877 255 0 0
1.15656 -9.15515 -4.06591 255 0 0
1.30015 -10.9156 -3.05387 255 0 0
0.873692 -10.8144 -3.13123 255 0 0
1.35995 -8.55358 -4.24373 255 0 0
1.67053 -10.8381 -3.14337 255 0 0
0.402225 -9.68864 -4.08644 255 0 0
1.16605 -9.78974 -3.78067 255 0 0
0.797919 -10.3344 -3.34269 255 0 0
0.713701 -8.70549 -4.26282 255 0 0
1.9542 -9.80167 -3.71952 255 0 0
1.99684 -9.65677 -3.86581 255 0 0
2.32864 -9.73762 -4.06735 255 0 0
1.61826 -10.8402 -3.14277 255 0 0
1.22926 -10.3204 -3.25861 255 0 0
0.591866 -8.9021 -4.31128 255 0 0
0.714541 -12.0405 -3.46064 255 0 0
0.850503 -9.17143 -4.06207 255 0 0
0.974731 -10.511 -3.27832 255 0 0
0.844477 -8.65962 -4.25401 255 0 0
2.22241 -9.6466 -4.21621 255 0 0
0.465324 -9.80541 -4.19766 255 0 0
0.680984 -11.9542 -3.55106 255 0 0
0.894894 -10.1747 -3.49612 255 0 0
1.47027 -10.0946 -3.58096 255 0 0
1.12318 -10.1462 -3.49527 255 0 0
0.578716 -11.6132 -4.00048 255 0 0
1.96826 -8.6845 -4.30687 255 0 0
0.630678 -11.0712 -3.81307 255 0 0
1.73268 -10.1952 -3.51479 255 0 0
1.74931 -10.293 -3.35247 255 0 0
1.4424 -11.6397 -3.8177 255 0 0
1.71055 -9.14357 -4.08253 255 0 0
0.473284 -8.67019 -4.79739 255 0 0
0.50435 -9.23931 -4.31522 255 0 0
1.3268 -10.7068 -3.03431 255 0 0
1.33647 -10.0063 -3.65057 255 0 0
0.504368 -9.66044 -4.16568 255 0 0
1.73317 -10.8183 -3.79134 255 0 0
1.16738 -8.98376 -4.10737 255 0 0
2.03296 -10.3243 -4.17273 255 0 0
1.20219 -10.196 -3.41679 255 0 0
1.12705 -11.0162 -3.90517 255 0 0
0.672779 -10.1191 -3.65813 255 0 0
0.701559 -8.43459 -4.49559 255 0 0
1.08895 -10.1674 -3.49782 255 0 0
0.766896 -11.5347 -3.20531 255 0 0
1.91495 -10.1036 -3.50631 255 0 0
2.01791 -9.53053 -3.92725 255 0 0
0.628049 -11.5054 -3.88393 255 0 0
1.57606 -11.3884 -3.00585 255 0 0
0.946564 -11.7164 -4.02232 255 0 0
0.469363 -8.98997 -4.81784 255 0 0
1.07433 -10.5009 -3.54619 255 0 0
0.853055 -10.8803 -3.13791 255 0 0
1.86977 -10.4749 -3.28853 255 0 0
1.06788 -10.6881 -4.12497 255 0 0
2.16162 -8.8534 -4.52331 255 0 0
0.935852 -10.6403 -3.65539 255 0 0
1.16806 -8.82505 -4.14893 255 0 0
1.92205 -8.62274 -4.36716 255 0 0
1.10577 -10.5609 -4.28474 255 0 0
1.15945 -9.1778 -4.07102 255 0 0
0.647309 -9.736 -3.84622 255 0 0
1.34315 -11.5089 -4.19238 255 0 0
0.494692 -8.68402 -4.48632 255 0 0
1.97032 -10.1329 -3.59979 255 0 0
1.54717 -10.6226 -4.21654 255 0 0
1.25386 -9.30376 -4.01993 255 0 0
0.501532 -9.60611 -4.32205 255 0 0
0.8224 -10.8184 -3.13123 255 0 0
1.87293 -8.44958 -4.5519 255 0 0
0.767086 -10.766 -3.21612 255 0 0
1.30781 -8.55214 -4.24128 255 0 0
2.01241 -8.8307 -4.26619 255 0 0
0.823166 -8.54595 -4.30048 255 0 0
1.73861 -9.17318 -4.09021 255 0 0
0.710498 -8.54222 -4.37332 255 0 0
0.821436 -10.1676 -4.19483 255 0 0
2.32989 -9.74284 -4.15542 255 0 0
1.05146 -10.6514 -4.21003 255 0 0
0.802799 -11.2673 -3.08293 255 0 0
1.85317 -10.1726 -3.60248 255 0 0
1.71877 -10.1864 -3.42559 255 0 0
1.7157 -10.791 -3.87986 255 0 0
1.40716 -10.2575 -3.34119 255 0 0
1.15335 -10.5327 -4.27981 255 0 0
1.21938 -11.3851 -3.00177 255 0 0
1.93868 -9.15635 -4.09533 255 0 0
1.9791 -9.80525 -3.80669 255 0 0
1.85646 -10.6933 -4.14713 255 0 0
1.47812 -8.57422 -4.25401 255 0 0
1.7298 -10.4788 -4.10111 255 0 0
0.833237 -10.6275 -4.20115 255 0 0
2.36923 -9.80453 -4.08274 255 0 0
1.71879 -8.51559 -4.32776 255 0 0
1.55686 -10.2622 -3.34457 255 0 0
1.12303 -10.8499 -3.1373 255 0 0
1.81668 -8.6306 -4.28485 255 0 0
0.524273 -8.49374 -4.58628 255 0 0
1.5569 -8.48917 -4.31261 255 0 0
1.63946 -9.3773 -4.04826 255 0 0
0.742252 -11.5787 -3.40503 255 0 0
2.3081 -9.75391 -3.98293 255 0 0
0.727679 -11.7891 -3.33084 255 0 0
1.89662 -10.8482 -3.14823 255 0 0
0.923513 -11.4311 -3.77734 255 0 0
1.30195 -11.6348 -3.91417 255 0 0
1.51792 -10.5979 -4.21062 255 0 0
2.02261 -10.535 -3.84561 255 0 0
1.77057 -10.8055 -3.88383 255 0 0
1.89952 -10.7149 -3.04325 255 0 0
0.552069 -11.0785 -4.09877 255 0 0
0.663809 -8.73217 -4.26869 255 0 0
0.562186 -9.47321 -4.20753 255 0 0
1.87082 -10.2009 -3.43119 255 0 0
1.26259 -10.2885 -3.16793 255 0 0
1.26161 -11.0374 -3.06505 255 0 0
1.5584 -8.97635 -4.11931 255 0 0
1.9862 -10.2145 -3.436 255 0 0
1.19889 -10.8301 -3.13609 255 0 0
2.05644 -9.38269 -4.06674 255 0 0
1.23829 -11.5618 -4.10017 255 0 0
0.630976 -8.85572 -4.22142 255 0 0
1.82163 -10.796 -3.14155 255 0 0
0.908811 -10.1943 -3.41238 255 0 0
0.611375 -8.58064 -4.45896 255 0 0
2.11327 -9.02602 -4.31948 255 0 0
1.3072 -8.97504 -4.1098 255 0 0
1.72261 -8.97243 -4.12528 255 0 0
2.00235 -10.5647 -4.03454 255 0 0
1.78717 -10.5158 -4.1102 255 0 0
1.40638 -9.27035 -4.01747 255 0 0
1.31298 -9.32449 -4.02609 255 0 0
0.465957 -9.81874 -4.63388 255 0 0
1.61404 -8.4069 -4.37019 255 0 0
1.95658 -9.02939 -4.14916 255 0 0
0.808336 -9.19052 -4.06548 255 0 0
0.763456 -8.6804 -4.25744 255 0 0
1.82188 -10.1371 -3.5962 255 0 0
2.11443 -8.57184 -4.60323 255 0 0
1.99228 -9.87054 -3.73243 255 0 0
1.14271 -10.4356 -3.27128 255 0 0
2.24379 -9.6869 -4.05314 255 0 0
1.46454 -10.3123 -3.08599 255 0 0
1.15803 -9.345 -4.02609 255 0 0
0.845702 -8.89035 -4.1558 255 0 0
1.61789 -10.1759 -3.50928 255 0 0
1.54096 -8.81386 -4.15992 255 0 0
1.05724 -10.4563 -3.27269 255 0 0
1.36413 -10.3064 -3.25897 255 0 0
1.17196 -10.1465 -3.49612 255 0 0
0.957736 -8.74635 -4.20152 255 0 0
1.41285 -10.5782 -3.02314 255 0 0
1.19587 -9.8414 -3.70562 255 0 0
1.20608 -9.73263 -3.7713 255 0 0
0.802306 -10.8959 -3.13912 255 0 0
1.4006 -9.9468 -3.55675 255 0 0
0.924467 -10.8043 -3.13062 255 0 0
1.46671 -10.3275 -3.26319 255 0 0
1.67425 -11.4951 -4.09809 255 0 0
1.96616 -10.1115 -3.50885 255 0 0
1.9998 -10.4833 -4.11134 255 0 0
0.555372 -9.74922 -4.18615 255 0 0
2.05815 -8.98229 -4.2245 255 0 0
1.92847 -10.7301 -3.13669 255 0 0
0.765378 -9.20186 -4.06718 255 0 0
0.999593 -10.642 -4.20707 255 0 0
0.648301 -11.8764 -3.74222 255 0 0
1.68494 -11.5685 -4.21198 255 0 0
1.31634 -9.59545 -3.99986 255 0 0
0.899813 -10.8181 -3.13184 255 0 0
1.88576 -11.0959 -3.07902 255 0 0
1.30762 -9.87956 -3.71456 255 0 0
1.92048 -9.1777 -4.09916 255 0 0
1.31246 -10.291 -3.16891 255 0 0
1.03015 -10.5636 -3.55468 255 0 0
1.74331 -9.69989 -3.86472 255 0 0
0.484043 -9.71341 -4.00815 255 0 0
1.75287 -10.7775 -3.97216 255 0 0
0.557794 -11.1934 -4.0242 255 0 0
0.618939 -10.4295 -3.97685 255 0 0
1.70211 -10.7881 -3.78567 255 0 0
0.48095 -10.1347 -4.62846 255 0 0
1.69702 -10.1307 -3.50461 255 0 0
0.57263 -10.4902 -4.07838 255 0 0
0.488134 -8.56889 -4.76508 255 0 0
1.3607 -10.1877 -3.41839 255 0 0
1.37011 -9.90022 -3.71952 255 0 0
1.705 -10.8902 -3.9909 255 0 0
0.632826 -12.1209 -3.77786 255 0 0
1.59753 -10.6152 -4.21654 255 0 0
2.01366 -8.6006 -4.44571 255 0 0
1.33069 -9.78617 -3.78379 255 0 0
0.8206 -10.6279 -3.20104 255 0 0
1.71714 -9.55428 -3.92043 255 0 0
0.350913 -9.86258 -4.03775 255 0 0
0.71807 -9.75187 -3.7661 255 0 0
1.68639 -9.64571 -3.85275 255 0 0
0.547249 -8.69843 -4.41316 255 0 0
2.05726 -8.88159 -4.28111 255 0 0
1.177 -10.5182 -3.19251 255 0 0
1.92803 -10.443 -3.91805 255 0 0
0.542643 -9.52576 -4.21947 255 0 0
1.15336 -10.6495 -4.2118 255 0 0
1.41216 -8.68265 -4.20105 255 0 0
0.869079 -10.6007 -3.19841 255 0 0
1.84596 -11.0199 -3.07119 255 0 0
1.25293 -8.97511 -4.10803 255 0 0
0.912032 -11.6325 -4.10746 255 0 0
0.940915 -10.4149 -3.26636 255 0 0
2.09777 -10.5872 -4.04216 255 0 0
1.2497 -10.0847 -3.48848 255 0 0
1.25898 -10.2591 -3.33893 255 0 0
1.99308 -8.42263 -4.78842 255 0 0
1.43343 -9.68072 -3.85166 255 0 0
1.74482 -10.1213 -3.59172 255 0 0
1.38275 -11.6091 -4.0114 255 0 0
1.09624 -10.4698 -3.2748 255 0 0
1.66521 -8.72928 -4.22355 255 0 0
2.00841 -11.4876 -4.20654 255 0 0
1.35856 -11.641 -4.01637 255 0 0
1.34744 -10.0884 -3.57737 255 0 0
1.23146 -10.7737 -3.13062 255 0 0
2.10484 -8.7104 -4.48113 255 0 0
0.485824 -12.0465 -4.69911 255 0 0
1.15828 -9.53205 -3.81683 255 0 0
1.81483 -10.3082 -3.35586 255 0 0
0.86118 -10.2071 -3.41358 255 0 0
1.08005 -9.86336 -3.79212 255 0 0
1.01716 -8.9934 -4.10538 255 0 0
1.6986 -8.51964 -4.32776 255 0 0
0.687241 -9.97911 -3.63545 255 0 0
0.601757 -8.89191 -4.22994 255 0 0
0.396726 -9.83721 -3.9477 255 0 0
1.89208 -8.53595 -4.49919 255 0 0
0.758905 -10.6512 -3.29311 255 0 0
1.25698 -10.7706 -4.23904 255 0 0
1.54616 -11.5763 -4.2098 255 0 0
0.529764 -9.70486 -4.17592 255 0 0
1.07101 -10.8493 -3.13669 255 0 0
0.918828 -10.3068 -3.34044 255 0 0
1.60287 -10.7372 -4.1477 255 0 0
1.09419 -10.695 -3.66615 255 0 0
1.70992 -10.6732 -4.23193 255 0 0
1.02958 -11.1025 -3.06896 255 0 0
0.67029 -11.2948 -3.65736 255 0 0
0.667232 -11.7128 -3.71846 255 0 0
2.0378 -9.19334 -4.10812 255 0 0
0.565578 -8.50671 -4.51381 255 0 0
1.64686 -11.1221 -3.0779 255 0 0
1.07353 -10.7447 -3.95031 255 0 0
1.11306 -8.98202 -4.10538 255 0 0
1.74406 -9.57364 -4.00933 255 0 0
1.66826 -9.81614 -3.79836 255 0 0
1.16164 -10.3809 -3.26495 255 0 0
1.88836 -11.273 -3.86882 255 0 0
0.761403 -9.86135 -3.70165 255 0 0
1.06206 -8.40709 -4.34624 255 0 0
0.964426 -8.61855 -4.24667 255 0 0
0.489023 -8.5845 -4.8492 255 0 0
2.26937 -9.69272 -4.05551 255 0 0
1.17953 -9.70687 -3.7661 255 0 0
1.77568 -10.3003 -3.35398 255 0 0
1.71638 -9.42172 -4.06058 255 0 0
0.660905 -10.7073 -3.66256 255 0 0
1.14143 -10.6573 -4.02801 255 0 0
1.02385 -8.51 -4.29669 255 0 0
0.925895 -10.5271 -3.27973 255 0 0
1.71305 -10.4545 -3.2829 255 0 0
2.00462 -11.6284 -3.92928 255 0 0
1.00999 -10.6174 -3.20169 255 0 0
1.27046 -9.59874 -3.99927 255 0 0
1.28385 -8.81471 -4.1503 255 0 0
1.90422 -10.8916 -3.06002 255 0 0
1.25467 -10.3253 -3.08447 255 0 0
0.467514 -8.95456 -4.48269 255 0 0
1.16131 -8.69492 -4.19489 255 0 0
1.53743 -10.383 -3.62669 255 0 0
0.638209 -9.95569 -3.88758 255 0 0
1.60807 -10.4329 -3.27832 255 0 0
1.02855 -10.8125 -3.13244 255 0 0
1.21242 -10.8348 -4.06284 255 0 0
1.82192 -10.2068 -3.43079 255 0 0
1.88983 -10.6602 -4.23548 255 0 0
1.75454 -10.4741 -3.28607 255 0 0
0.95225 -10.6817 -4.12157 255 0 0
1.01949 -10.4542 -3.27199 255 0 0
0.579682 -8.41729 -4.79579 255 0 0
2.03049 -8.40273 -4.70589 255 0 0
0.718345 -11.6379 -3.51044 255 0 0
0.548267 -9.23866 -4.23412 255 0 0
0.495531 -10.4419 -4.43174 255 0 0
0.9196 -10.5993 -3.19874 255 0 0
2.26881 -9.63873 -4.21685 255 0 0
1.15187 -10.1843 -3.41438 255 0 0
1.61203 -10.8869 -3.98777 255 0 0
2.02615 -10.5534 -4.21891 255 0 0
1.21621 -8.56375 -4.2408 255 0 0
1.51693 -10.3291 -3.26425 255 0 0
1.51057 -8.58007 -4.25695 255 0 0
1.76283 -10.0829 -3.58634 255 0 0
1.98796 -9.61383 -4.02709 255 0 0
0.583644 -9.45562 -4.12091 255 0 0
1.86776 -8.52182 -4.4155 255 0 0
1.76182 -8.41946 -4.38165 255 0 0
0.864177 -8.44675 -4.35092 255 0 0
1.50852 -9.13851 -4.07358 255 0 0
0.952817 -11.4554 -3.97765 255 0 0
1.82929 -10.1783 -3.51479 255 0 0
1.96508 -10.3013 -3.35849 255 0 0
0.76151 -8.54216 -4.52871 255 0 0
1.56167 -10.1319 -3.50164 255 0 0
1.21028 -11.5589 -4.09913 255 0 0
1.16264 -8.47502 -4.29215 255 0 0
1.11499 -8.82616 -4.14755 255 0 0
0.540755 -9.11207 -4.28395 255 0 0
1.66705 -9.6702 -3.77235 255 0 0
1.97139 -11.5998 -4.02431 255 0 0
1.45011 -11.264 -2.9936 255 0 0
1.33465 -10.5649 -3.0209 255 0 0
0.724019 -11.2943 -3.46606 255 0 0
0.570757 -8.90348 -4.31128 255 0 0
1.1968 -10.2549 -3.33743 255 0 0
1.76318 -10.5257 -4.11134 255 0 0
1.09568 -10.7096 -3.76017 255 0 0
1.51673 -10.4136 -3.09722 255 0 0
1.41155 -8.55096 -4.2452 255 0 0
1.26043 -9.97736 -3.64427 255 0 0
1.76852 -9.1529 -4.08701 255 0 0
1.01657 -10.6865 -3.93886 255 0 0
1.50056 -10.8428 -3.0494 255 0 0
0.904595 -10.7216 -3.75922 255 0 0
2.11856 -8.58861 -4.68844 255 0 0
0.909057 -9.20886 -4.07166 255 0 0
1.00486 -10.1794 -3.41158 255 0 0
2.16144 -9.69679 -4.05136 255 0 0
1.28595 -10.1794 -3.50291 255 0 0
0.87531 -8.76071 -4.20294 255 0 0
1.08773 -9.93347 -3.54868 255 0 0
1.38121 -11.3666 -3.00177 255 0 0
1.39453 -11.2534 -2.99207 255 0 0
1.48592 -11.3299 -2.99973 255 0 0
1.66943 -10.1881 -3.51225 255 0 0
1.42797 -10.3183 -3.26143 255 0 0
1.81041 -10.8077 -3.88532 255 0 0
0.698222 -9.79952 -3.77443 255 0 0
0.796187 -10.4736 -3.27199 255 0 0
0.367975 -9.69519 -4.17208 255 0 0
1.35813 -10.2611 -3.34081 255 0 0
1.46932 -10.1727 -3.41839 255 0 0
1.13447 -10.5924 -4.29213 255 0 0
1.81315 -10.5927 -3.21087 255 0 0
1.71169 -10.6037 -3.21022 255 0 0
2.01162 -8.54616 -4.50965 255 0 0
1.69593 -8.4023 -4.37332 255 0 0
0.608948 -8.99812 -4.17709 255 0 0
1.62963 -10.6567 -4.22601 255 0 0
1.20211 -11.0998 -3.07035 255 0 0
1.32657 -9.5856 -3.83098 255 0 0
2.16225 -9.64651 -4.12709 255 0 0
0.788096 -11.4436 -3.09969 255 0 0
0.906781 -11.0605 -3.06393 255 0 0
0.941137 -10.9992 -3.05834 255 0 0
0.999054 -11.0584 -3.06449 255 0 0
1.05479 -11.0884 -3.06784 255 0 0
1.10024 -11.1455 -3.07371 255 0 0
1.14076 -11.1502 -3.07454 255 0 0
1.24062 -11.0867 -3.06952 255 0 0
1.28845 -11.0402 -3.0656 255 0 0
1.31618 -10.8315 -3.04605 255 0 0
1.353 -10.5097 -3.01587 255 0 0
1.46071 -10.7423 -3.03934 255 0 0
1.54658 -10.9835 -3.06337 255 0 0
1.58253 -11.049 -3.07007 255 0 0
1.6188 -11.1144 -3.07678 255 0 0
1.66802 -11.0836 -3.07454 255 0 0
1.70921 -11.0891 -3.07566 255 0 0
1.75446 -11.0348 -3.07119 255 0 0
1.80023 -11.0688 -3.0751 255 0 0
1.90513 -11.0512 -3.0751 255 0 0
0.761626 -9.02722 -4.10737 255 0 0
0.544959 -8.82888 -4.37019 255 0 0
1.12507 -9.64029 -3.83642 255 0 0
0.682536 -11.9815 -3.65612 255 0 0
2.25413 -9.7842 -3.98634 255 0 0
1.80299 -8.5155 -4.33231 255 0 0
0.812007 -10.6817 -4.02692 255 0 0
0.585062 -9.4786 -4.04333 255 0 0
1.7501 -10.9239 -3.99818 255 0 0
0.777837 -11.2946 -3.18041 255 0 0
0.78599 -11.0313 -3.15309 255 0 0
0.951102 -10.8137 -3.13184 255 0 0
0.979359 -10.8404 -3.13487 255 0 0
1.00345 -10.8207 -3.13305 255 0 0
1.161 -10.8401 -3.13669 255 0 0
1.21109 -10.3774 -3.08933 255 0 0
1.277 -10.3049 -3.08265 255 0 0
1.31438 -10.3061 -3.08326 255 0 0
1.36285 -10.2969 -3.08296 255 0 0
1.41206 -10.2932 -3.08326 255 0 0
1.70906 -10.8321 -3.14337 255 0 0
1.77042 -10.8046 -3.14155 255 0 0
1.86001 -10.7895 -3.14155 255 0 0
1.9142 -10.7978 -3.14337 255 0 0
1.95431 -10.5853 -3.21284 255 0 0
2.02812 -8.66233 -4.38383 255 0 0
1.97549 -8.52859 -4.50241 255 0 0
2.02691 -9.35397 -4.05935 255 0 0
0.51749 -8.72005 -4.41863 255 0 0
0.40484 -9.75146 -4.01525 255 0 0
0.76064 -8.53225 -4.37176 255 0 0
0.75272 -8.92154 -4.16129 255 0 0
0.747067 -11.6538 -3.31577 255 0 0
0.758871 -11.414 -3.28889 255 0 0
0.784492 -10.6539 -3.20366 255 0 0
0.971429 -10.6122 -3.20071 255 0 0
1.03347 -10.5976 -3.19973 255 0 0
1.06033 -10.6125 -3.20169 255 0 0
1.08667 -10.6215 -3.203 255 0 0
1.14836 -10.6033 -3.20169 255 0 0
1.18211 -10.342 -3.17285 255 0 0
1.21377 -10.2943 -3.16793 255 0 0
1.36049 -10.2789 -3.16826 255 0 0
1.40921 -10.2724 -3.16826 255 0 0
1.4986 -10.2891 -3.17154 255 0 0
1.60799 -10.5993 -3.20792 255 0 0
1.64791 -10.6079 -3.20956 255 0 0
1.67578 -10.6212 -3.21153 255 0 0
1.76291 -10.6012 -3.21087 255 0 0
1.86489 -10.5926 -3.21185 255 0 0
1.22702 -9.53105 -3.90111 255 0 0
0.48763 -11.4188 -4.75898 255 0 0
1.86996 -8.88379 -4.19152 255 0 0
1.18031 -10.3261 -3.25861 255 0 0
1.36008 -8.68714 -4.2001 255 0 0
1.66822 -11.6473 -4.02431 255 0 0
1.06045 -8.72687 -4.19962 255 0 0
0.608887 -10.6886 -3.93366 255 0 0
0.730911 -11.8415 -3.43671 255 0 0
0.776474 -10.545 -3.28044 255 0 0
0.824652 -10.5181 -3.27762 255 0 0
0.859452 -10.4832 -3.27375 255 0 0
0.996898 -10.4798 -3.2748 255 0 0
1.20276 -10.306 -3.2565 255 0 0
1.2789 -10.3203 -3.25932 255 0 0
1.31523 -10.3128 -3.25897 255 0 0
1.77743 -10.4585 -3.28466 255 0 0
1.81411 -10.4492 -3.28431 255 0 0
1.91483 -10.511 -3.29381 255 0 0
0.702117 -9.85419 -3.69966 255 0 0
0.754202 -8.57503 -4.30654 255 0 0
0.651645 -10.5573 -3.81979 255 0 0
1.49499 -11.6126 -4.01438 255 0 0
0.848158 -10.6558 -4.02257 255 0 0
1.75696 -10.8027 -3.78945 255 0 0
1.11323 -8.4883 -4.29391 255 0 0
1.65117 -8.60031 -4.26869 255 0 0
1.86524 -10.3081 -3.35699 255 0 0
1.88436 -8.40675 -4.54031 255 0 0
0.697388 -9.471 -4.04333 255 0 0
0.707949 -11.9294 -3.54805 255 0 0
0.742061 -10.7751 -3.39911 255 0 0
0.744496 -10.449 -3.35699 255 0 0
0.764152 -10.3777 -3.34796 255 0 0
0.832805 -10.3083 -3.33968 255 0 0
0.966882 -10.2937 -3.33931 255 0 0
1.06417 -10.2812 -3.33893 255 0 0
1.11448 -10.2904 -3.34081 255 0 0
1.16065 -10.262 -3.3378 255 0 0
1.22317 -10.2693 -3.33968 255 0 0
1.50902 -10.2752 -3.34533 255 0 0
1.59736 -10.2825 -3.34796 255 0 0
1.61902 -10.2614 -3.3457 255 0 0
1.66151 -10.2929 -3.35059 255 0 0
1.71317 -10.3021 -3.35285 255 0 0
1.90715 -10.3299 -3.36075 255 0 0
1.93591 -10.3482 -3.36376 255 0 0
1.45995 -8.9765 -4.11555 255 0 0
0.669414 -8.66999 -4.33003 255 0 0
0.801837 -8.42922 -4.42034 255 0 0
0.663941 -10.3571 -3.69686 255 0 0
0.712544 -11.5439 -3.59608 255 0 0
0.716485 -10.7765 -3.49043 255 0 0
0.739643 -10.74 -3.48562 255 0 0
0.756062 -10.2678 -3.42079 255 0 0
0.777327 -10.2255 -3.41518 255 0 0
0.801116 -10.2179 -3.41438 255 0 0
0.825341 -10.2159 -3.41438 255 0 0
0.9566 -10.1841 -3.41158 255 0 0
1.10262 -10.181 -3.41318 255 0 0
1.3109 -10.1826 -3.41679 255 0 0
1.42107 -10.1795 -3.41839 255 0 0
1.51926 -10.177 -3.41999 255 0 0
1.56881 -10.1783 -3.42119 255 0 0
1.61753 -10.1736 -3.42159 255 0 0
1.66857 -10.183 -3.42399 255 0 0
1.76855 -10.1867 -3.42679 255 0 0
1.95979 -10.2078 -3.43439 255 0 0
0.682959 -10.6538 -3.65449 255 0 0
1.55561 -8.71486 -4.21502 255 0 0
1.07234 -9.18841 -4.07102 255 0 0
0.6148 -8.77554 -4.27897 255 0 0
0.46517 -9.80217 -4.71705 255 0 0
1.76397 -10.1604 -3.51055 255 0 0
1.05672 -10.7046 -3.66705 255 0 0
1.87916 -11.2181 -4.05438 255 0 0
1.91449 -8.88595 -4.19427 255 0 0
0.836252 -9.01776 -4.10671 255 0 0
0.589482 -8.5596 -4.45252 255 0 0
0.690115 -10.7654 -3.58014 255 0 0
0.697959 -10.4978 -3.5411 255 0 0
0.702945 -10.2071 -3.49867 255 0 0
0.722615 -10.1419 -3.48933 255 0 0
0.75997 -10.1566 -3.49188 255 0 0
0.807664 -10.1471 -3.49103 255 0 0
0.855766 -10.1431 -3.49103 255 0 0
0.939923 -10.1357 -3.49103 255 0 0
1.00071 -10.5199 -3.54789 255 0 0
1.06062 -10.1296 -3.49188 255 0 0
1.24256 -10.2256 -3.50885 255 0 0
1.30269 -10.1188 -3.49442 255 0 0
1.32291 -10.087 -3.49018 255 0 0
1.35879 -10.0822 -3.49018 255 0 0
1.41537 -10.1388 -3.49952 255 0 0
1.46512 -10.1434 -3.50121 255 0 0
1.51318 -10.1364 -3.50121 255 0 0
1.79605 -10.1313 -3.50715 255 0 0
1.85654 -10.1911 -3.51734 255 0 0
1.86597 -10.1069 -3.50546 255 0 0
1.90484 -10.1821 -3.51734 255 0 0
1.99125 -10.1124 -3.5097 255 0 0
0.953776 -10.6989 -4.03236 255 0 0
1.57127 -10.1145 -3.58634 255 0 0
0.814719 -8.78555 -4.20768 255 0 0
0.481178 -9.65591 -4.1644 255 0 0
1.40565 -9.98266 -3.73441 255 0 0
0.537595 -9.84833 -4.12216 255 0 0
1.99526 -9.94616 -3.6586 255 0 0
0.522702 -9.17571 -4.29959 255 0 0
0.624794 -11.967 -3.85715 255 0 0
0.645597 -11.8268 -3.83563 255 0 0
0.657511 -11.5422 -3.79169 255 0 0
0.657796 -11.0843 -3.72085 255 0 0
0.692862 -10.4212 -3.61862 255 0 0
0.700475 -10.1713 -3.58006 255 0 0
0.715542 -10.0426 -3.56033 255 0 0
0.741901 -10.0755 -3.56571 255 0 0
0.763156 -10.0391 -3.56033 255 0 0
0.793289 -10.118 -3.57289 255 0 0
0.870516 -10.4659 -3.62759 255 0 0
0.910621 -10.6425 -3.65539 255 0 0
0.992175 -10.6992 -3.66525 255 0 0
1.02083 -10.7313 -3.67063 255 0 0
1.11653 -10.6636 -3.66166 255 0 0
1.06417 -9.93602 -3.54868 255 0 0
1.30625 -11.6732 -3.82039 255 0 0
1.32604 -11.6011 -3.80963 255 0 0
1.35622 -11.6209 -3.81321 255 0 0
1.18052 -9.91122 -3.54688 255 0 0
1.40643 -11.5741 -3.80694 255 0 0
1.43809 -11.3836 -3.77824 255 0 0
1.29417 -9.86784 -3.5424 255 0 0
1.35498 -9.96479 -3.55854 255 0 0
1.40002 -10.1163 -3.58275 255 0 0
1.42829 -9.97209 -3.56123 255 0 0
1.52932 -10.1619 -3.59262 255 0 0
1.54816 -10.124 -3.58724 255 0 0
1.66219 -10.144 -3.59306 255 0 0
1.6968 -10.1295 -3.59172 255 0 0
1.71694 -10.1026 -3.58813 255 0 0
1.95713 -10.6006 -3.67063 255 0 0
1.90352 -10.1751 -3.60427 255 0 0
1.91794 -10.1194 -3.5962 255 0 0
1.9731 -10.0203 -3.58275 255 0 0
2.00702 -10.0047 -3.58141 255 0 0
1.20459 -10.6504 -4.12043 255 0 0
0.488742 -10.2989 -4.03975 255 0 0
1.39962 -11.5181 -4.29543 255 0 0
1.26302 -8.46065 -4.29215 255 0 0
1.92624 -9.6614 -4.1197 255 0 0
1.11438 -9.74936 -3.77235 255 0 0
1.35571 -9.628 -3.83969 255 0 0
1.73636 -11.5377 -4.20762 255 0 0
1.21501 -9.61777 -3.83424 255 0 0
0.589302 -11.8257 -3.9359 255 0 0
0.606493 -11.6165 -3.90189 255 0 0
0.721474 -9.9593 -3.63262 255 0 0
0.761271 -10.0143 -3.64207 255 0 0
0.780496 -9.95486 -3.63262 255 0 0
0.939974 -11.6348 -3.9085 255 0 0
0.956966 -10.7345 -3.76205 255 0 0
1.00841 -10.7356 -3.763 255 0 0
1.05871 -10.7249 -3.76205 255 0 0
1.20111 -11.4714 -3.88582 255 0 0
1.06461 -9.94012 -3.63451 255 0 0
1.27059 -11.6034 -3.9085 255 0 0
1.32625 -11.603 -3.90944 255 0 0
1.35577 -11.617 -3.91228 255 0 0
1.18511 -9.94975 -3.63829 255 0 0
1.40805 -11.5875 -3.9085 255 0 0
1.34618 -9.90008 -3.63356 255 0 0
1.37361 -9.92548 -3.63829 255 0 0
1.40117 -9.95081 -3.64301 255 0 0
1.43459 -10.0161 -3.65435 255 0 0
1.4625 -10.0413 -3.65907 255 0 0
1.59972 -10.8037 -3.78567 255 0 0
1.6553 -10.8246 -3.7904 255 0 0
1.78822 -10.8327 -3.79512 255 0 0
1.69046 -9.9468 -3.64962 255 0 0
1.75088 -9.94514 -3.65104 255 0 0
1.95763 -10.6742 -3.77434 255 0 0
1.9892 -10.6331 -3.76867 255 0 0
1.91764 -10.0526 -3.67324 255 0 0
1.95087 -9.96968 -3.66096 255 0 0
0.466153 -9.35441 -4.50962 255 0 0
1.71895 -8.6217 -4.27751 255 0 0
1.05947 -8.98564 -4.10472 255 0 0
2.12117 -8.87004 -4.36267 255 0 0
1.24399 -9.66292 -4.0117 255 0 0
2.2889 -9.77613 -3.98634 255 0 0
1.16001 -9.54629 -3.98565 255 0 0
0.907759 -8.87278 -4.15305 255 0 0
0.782943 -8.90181 -4.15717 255 0 0
2.00264 -9.45844 -3.99631 255 0 0
1.53683 -11.5064 -4.29656 255 0 0
0.657853 -9.08112 -4.11798 255 0 0
0.842004 -8.42737 -4.49725 255 0 0
2.04772 -9.55942 -3.93407 255 0 0
0.594516 -11.3871 -3.96176 255 0 0
0.632097 -11.0961 -3.91212 255 0 0
0.636184 -10.7201 -3.84759 255 0 0
0.663016 -10.3427 -3.78306 255 0 0
0.669544 -10.0704 -3.7364 255 0 0
0.680733 -9.88461 -3.70463 255 0 0
0.727598 -9.88127 -3.70463 255 0 0
0.914545 -10.6884 -3.84561 255 0 0
0.955886 -10.7224 -3.85206 255 0 0
1.00537 -10.7034 -3.84958 255 0 0
1.04567 -10.7227 -3.85355 255 0 0
1.07281 -10.7375 -3.85653 255 0 0
1.21806 -11.6333 -4.01239 255 0 0
1.04899 -9.7943 -3.6947 255 0 0
1.2616 -11.649 -4.01587 255 0 0
1.3165 -11.64 -4.01537 255 0 0
1.14518 -9.81257 -3.69966 255 0 0
1.44275 -11.6425 -4.01835 255 0 0
1.23313 -9.76119 -3.69272 255 0 0
1.2489 -9.70101 -3.68279 255 0 0
1.33964 -9.85198 -3.71059 255 0 0
1.69583 -11.6433 -4.02431 255 0 0
1.66229 -10.7847 -3.87737 255 0 0
2.00869 -11.652 -4.03424 255 0 0
2.02737 -11.596 -4.0253 255 0 0
1.8409 -10.1053 -3.76717 255 0 0
1.98639 -10.7591 -3.88234 255 0 0
1.98749 -10.6239 -3.8595 255 0 0
2.02342 -10.6759 -3.86943 255 0 0
2.04538 -10.5189 -3.84362 255 0 0
1.96329 -9.97047 -3.74831 255 0 0
2.00875 -9.83187 -3.72647 255 0 0
2.03556 -9.84403 -3.72945 255 0 0
1.90495 -9.55462 -4.0117 255 0 0
1.86189 -8.54334 -4.34291 255 0 0
1.88771 -10.5033 -4.20352 255 0 0
0.885746 -10.3518 -4.23547 255 0 0
1.31282 -9.82927 -3.79108 255 0 0
2.04549 -8.73651 -4.32449 255 0 0
2.07545 -8.50044 -4.58005 255 0 0
2.00676 -10.657 -3.95863 255 0 0
0.513758 -9.41166 -4.27533 255 0 0
0.57622 -11.0367 -3.9961 255 0 0
0.59956 -10.9835 -3.98673 255 0 0
1.8647 -11.2961 -4.16626 255 0 0
0.623988 -10.5146 -3.90244 255 0 0
0.631522 -10.2313 -3.85144 255 0 0
0.651362 -9.79697 -3.77339 255 0 0
0.671026 -9.74366 -3.76402 255 0 0
0.748614 -9.84781 -3.78379 255 0 0
0.936826 -11.5959 -4.10121 255 0 0
0.90748 -10.9103 -3.97737 255 0 0
0.914188 -10.6842 -3.93678 255 0 0
0.940527 -10.6935 -3.93886 255 0 0
0.971582 -10.7544 -3.95031 255 0 0
1.0419 -10.6841 -3.93886 255 0 0
1.1858 -11.5904 -4.10433 255 0 0
1.09831 -9.81496 -3.78379 255 0 0
1.22554 -9.70116 -3.7661 255 0 0
1.28052 -9.7638 -3.77859 255 0 0
1.35988 -9.74142 -3.77651 255 0 0
1.40272 -9.79357 -3.78692 255 0 0
1.63098 -10.8375 -3.97945 255 0 0
1.66625 -10.8962 -3.9909 255 0 0
1.80094 -10.9098 -3.99714 255 0 0
1.70982 -9.77974 -3.79316 255 0 0
2.02369 -11.4153 -4.09393 255 0 0
1.76026 -9.79421 -3.79732 255 0 0
1.95284 -10.7197 -3.968 255 0 0
2.03812 -10.6158 -3.95239 255 0 0
2.07208 -10.6562 -3.96072 255 0 0
1.93815 -9.84279 -3.81189 255 0 0
1.94796 -9.77036 -3.7994 255 0 0
1.99773 -9.77795 -3.80253 255 0 0
2.01041 -9.7224 -3.79316 255 0 0
2.03935 -9.74581 -3.79836 255 0 0
1.9866 -9.72348 -3.87779 255 0 0
1.18575 -8.56802 -4.2408 255 0 0
1.86701 -8.51841 -4.49275 255 0 0
2.03946 -8.43983 -4.56018 255 0 0
0.544618 -11.4763 -4.17388 255 0 0
0.585469 -10.7253 -4.03236 255 0 0
0.687745 -9.65248 -3.83098 255 0 0
0.711897 -9.66804 -3.83424 255 0 0
0.900872 -10.6775 -4.02747 255 0 0
1.00129 -10.6599 -4.02583 255 0 0
1.05238 -10.6607 -4.02692 255 0 0
1.10322 -10.6585 -4.02747 255 0 0
1.17233 -10.7061 -4.03781 255 0 0
1.31455 -11.5006 -4.19021 255 0 0
1.13296 -9.51191 -3.81247 255 0 0
1.47241 -11.5453 -4.20218 255 0 0
1.26285 -9.62902 -3.83751 255 0 0
1.29405 -9.68872 -3.84948 255 0 0
1.31004 -9.63432 -3.83969 255 0 0
1.38996 -9.70449 -3.85493 255 0 0
1.4254 -9.78656 -3.87126 255 0 0
1.7724 -11.5904 -4.21851 255 0 0
1.80829 -11.5499 -4.21198 255 0 0
1.8548 -11.5775 -4.21851 255 0 0
1.87486 -11.5276 -4.2098 255 0 0
1.60823 -9.60072 -3.84186 255 0 0
1.96997 -11.5088 -4.20926 255 0 0
1.7183 -9.69267 -3.86255 255 0 0
1.98566 -10.7552 -4.06938 255 0 0
2.02937 -10.4365 -4.01168 255 0 0
2.01148 -9.61258 -3.85819 255 0 0
2.01996 -9.54025 -3.84513 255 0 0
1.99958 -9.38911 -4.0655 255 0 0
1.47051 -8.47012 -4.30351 255 0 0
0.634075 -9.53695 -3.89089 255 0 0
1.98434 -10.748 -4.2568 255 0 0
1.15641 -8.5806 -4.243 255 0 0
0.597289 -9.31736 -4.09021 255 0 0
2.13457 -9.52301 -4.18487 255 0 0
0.949761 -10.5128 -4.27119 255 0 0
1.26306 -9.63063 -3.92157 255 0 0
1.11261 -9.53351 -3.89884 255 0 0
0.418578 -9.80181 -3.94089 255 0 0
0.442076 -9.80653 -3.94202 255 0 0
0.514589 -10.3264 -4.04543 255 0 0
0.543264 -10.4054 -4.06134 255 0 0
0.590641 -10.3683 -4.05452 255 0 0
0.596507 -10.0515 -3.99202 255 0 0
0.605829 -9.81504 -3.94543 255 0 0
0.61587 -9.60722 -3.90452 255 0 0
0.660632 -9.59273 -3.90225 255 0 0
0.687865 -9.65416 -3.91475 255 0 0
0.782461 -10.6263 -4.10793 255 0 0
0.809395 -10.6474 -4.11247 255 0 0
0.901587 -10.6861 -4.12157 255 0 0
1.00372 -10.6856 -4.12327 255 0 0
1.03974 -10.662 -4.11929 255 0 0
1.15343 -10.6503 -4.11929 255 0 0
1.1522 -9.67344 -3.92725 255 0 0
1.16543 -9.59085 -3.91134 255 0 0
1.1924 -9.62227 -3.91816 255 0 0
1.23537 -9.77898 -3.94998 255 0 0
1.31495 -9.75699 -3.9477 255 0 0
1.49925 -10.8333 -4.16361 255 0 0
1.51131 -10.733 -4.14429 255 0 0
1.55234 -10.7475 -4.14827 255 0 0
1.65378 -10.7294 -4.1477 255 0 0
1.69965 -10.6903 -4.14145 255 0 0
1.72431 -10.602 -4.12497 255 0 0
1.92609 -10.8648 -4.18293 255 0 0
1.98788 -10.9121 -4.19429 255 0 0
1.90634 -10.3255 -4.07725 255 0 0
1.80195 -9.63216 -3.93861 255 0 0
1.95644 -9.81291 -3.97952 255 0 0
1.95584 -9.69 -3.95566 255 0 0
1.97651 -9.67408 -3.95339 255 0 0
1.98199 -9.585 -3.93634 255 0 0
2.16414 -9.76332 -3.97839 255 0 0
2.19822 -9.75275 -3.97782 255 0 0
1.22112 -8.82362 -4.1503 255 0 0
1.21112 -8.9866 -4.10936 255 0 0
1.10134 -8.718 -4.19868 255 0 0
0.707747 -8.6329 -4.32094 255 0 0
1.05528 -8.59934 -4.24447 255 0 0
0.865674 -8.87699 -4.15305 255 0 0
0.52048 -8.4323 -4.79948 255 0 0
0.371904 -9.79869 -4.02472 255 0 0
0.450017 -9.72652 -4.01051 255 0 0
0.580518 -10.1906 -4.10761 255 0 0
0.595506 -10.0347 -4.07564 255 0 0
0.603752 -9.7814 -4.02354 255 0 0
0.628445 -9.45228 -3.95605 255 0 0
0.653219 -9.48509 -3.96315 255 0 0
0.668371 -9.38056 -3.94184 255 0 0
0.774831 -10.5227 -4.17865 255 0 0
0.805429 -10.5952 -4.19404 255 0 0
0.861203 -10.6598 -4.20825 255 0 0
0.884574 -10.6349 -4.20352 255 0 0
0.911743 -10.6556 -4.20825 255 0 0
0.95167 -10.6752 -4.21299 255 0 0
1.10286 -10.6548 -4.2118 255 0 0
1.20256 -10.6325 -4.20944 255 0 0
1.3639 -11.4508 -4.38112 255 0 0
1.22108 -9.66584 -4.0117 255 0 0
1.569 -10.5962 -4.2118 255 0 0
1.65489 -10.6528 -4.22601 255 0 0
1.74926 -10.6755 -4.23371 255 0 0
1.78201 -10.6381 -4.2272 255 0 0
1.81395 -10.6734 -4.23548 255 0 0
1.85629 -10.6923 -4.24081 255 0 0
1.76413 -9.42998 -3.98091 255 0 0
1.92103 -10.1357 -4.1301 255 0 0
2.02489 -10.4135 -4.19049 255 0 0
2.01779 -9.64277 -4.0342 255 0 0
2.03947 -9.52095 -4.01052 255 0 0
2.04261 -9.42642 -3.99157 255 0 0
2.12266 -9.68481 -4.04722 255 0 0
2.20551 -9.67804 -4.04959 255 0 0
2.2963 -9.70405 -4.05906 255 0 0
0.512375 -8.63386 -4.55024 255 0 0
1.38349 -9.19296 -4.08126 255 0 0
1.1144 -9.35609 -4.02732 255 0 0
0.553207 -8.62971 -4.47183 255 0 0
1.60965 -8.49275 -4.31614 255 0 0
0.542976 -8.47011 -4.57947 255 0 0
1.44573 -8.56824 -4.25107 255 0 0
0.349077 -9.81099 -4.11231 255 0 0
0.370384 -9.75866 -4.10122 255 0 0
0.45848 -9.66129 -4.08111 255 0 0
0.503499 -9.64378 -4.07782 255 0 0
0.564851 -9.91561 -4.13694 255 0 0
0.572082 -9.63996 -4.07782 255 0 0
0.601675 -9.38578 -4.02363 255 0 0
0.621649 -9.35006 -4.01624 255 0 0
0.658288 -9.39632 -4.02671 255 0 0
0.768873 -10.1143 -4.18251 255 0 0
0.792404 -10.1067 -4.18128 255 0 0
0.86025 -10.3425 -4.23301 255 0 0
0.921322 -10.4751 -4.26257 255 0 0
0.966227 -10.4193 -4.25149 255 0 0
0.998518 -10.4968 -4.26873 255 0 0
1.02563 -10.5172 -4.27366 255 0 0
1.08306 -10.5862 -4.28967 255 0 0
1.06246 -9.49462 -4.05565 255 0 0
1.07002 -9.36127 -4.02732 255 0 0
1.20973 -9.3096 -4.01993 255 0 0
1.305 -9.26783 -4.01377 255 0 0
1.36489 -9.29391 -4.02116 255 0 0
1.45564 -9.29751 -4.02486 255 0 0
1.48598 -9.27532 -4.02116 255 0 0
1.52083 -9.35087 -4.03841 255 0 0
1.59741 -9.33228 -4.03718 255 0 0
1.6567 -9.3452 -4.0421 255 0 0
1.67176 -9.30181 -4.03348 255 0 0
1.77115 -9.40574 -4.05935 255 0 0
1.82617 -9.51183 -4.08398 255 0 0
1.94268 -9.99071 -4.1899 255 0 0
1.91787 -9.44411 -4.07351 255 0 0
1.96203 -9.43211 -4.07289 255 0 0
2.23599 -9.65321 -4.13201 255 0 0
2.26539 -9.67575 -4.13817 255 0 0
2.29228 -9.68706 -4.14187 255 0 0
1.66375 -9.13283 -4.07827 255 0 0
0.438472 -9.72658 -4.17975 255 0 0
0.572055 -9.6395 -4.16185 255 0 0
0.614451 -9.2418 -4.07358 255 0 0
0.634006 -9.20611 -4.06591 255 0 0
0.668591 -9.22944 -4.07166 255 0 0
0.71235 -9.22617 -4.07166 255 0 0
0.744939 -9.22073 -4.07102 255 0 0
0.871164 -9.15801 -4.05951 255 0 0
0.950363 -9.18172 -4.06655 255 0 0
1.00692 -9.19578 -4.07102 255 0 0
1.01068 -9.22989 -4.0787 255 0 0
1.0473 -9.16254 -4.06463 255 0 0
1.10567 -9.19021 -4.0723 255 0 0
1.21157 -9.15379 -4.06718 255 0 0
1.25457 -9.14512 -4.06655 255 0 0
1.41575 -9.18515 -4.08062 255 0 0
1.44529 -9.16031 -4.07614 255 0 0
1.45706 -9.0948 -4.06207 255 0 0
1.56511 -9.1435 -4.07678 255 0 0
1.60843 -9.13597 -4.07678 255 0 0
1.85979 -9.15812 -4.09213 255 0 0
1.96397 -9.16849 -4.09916 255 0 0
1.99901 -9.1726 -4.10172 255 0 0
2.17862 -9.61266 -4.20662 255 0 0
0.609008 -8.40685 -4.79303 255 0 0
1.85784 -8.77453 -4.24416 255 0 0
1.12056 -8.7041 -4.19583 255 0 0
0.496378 -11.6236 -4.70635 255 0 0
0.492859 -10.9331 -4.54583 255 0 0
0.504007 -9.65353 -4.24866 255 0 0
0.523164 -9.58397 -4.23274 255 0 0
0.574105 -9.30109 -4.16773 255 0 0
0.589954 -9.20295 -4.14518 255 0 0
0.606476 -9.12185 -4.12661 255 0 0
0.626144 -9.09194 -4.11997 255 0 0
0.709644 -9.05147 -4.11201 255 0 0
0.804175 -9.02067 -4.10671 255 0 0
0.868042 -9.01188 -4.10604 255 0 0
1.36266 -8.98218 -4.11334 255 0 0
1.40525 -8.97562 -4.11334 255 0 0
1.51344 -8.96958 -4.11599 255 0 0
1.61261 -8.97254 -4.12064 255 0 0
1.61108 -8.96415 -4.11865 255 0 0
1.66731 -8.97126 -4.12263 255 0 0
1.69921 -8.96528 -4.12263 255 0 0
1.75506 -8.96903 -4.12594 255 0 0
1.81139 -8.9743 -4.1297 255 0 0
1.8723 -9.00064 -4.13855 255 0 0
2.02062 -9.06494 -4.16044 255 0 0
0.505987 -11.2243 -4.71227 255 0 0
0.498064 -10.4953 -4.53639 255 0 0
0.501134 -10.0564 -4.4306 255 0 0
0.530892 -9.31949 -4.25335 255 0 0
0.565261 -9.1578 -4.21488 255 0 0
0.659424 -8.95555 -4.16771 255 0 0
0.814341 -8.89613 -4.15648 255 0 0
0.887285 -8.88057 -4.15442 255 0 0
0.928202 -8.86494 -4.15168 255 0 0
0.959723 -8.86158 -4.15168 255 0 0
1.01116 -8.8463 -4.14939 255 0 0
1.06335 -8.83828 -4.14893 255 0 0
1.1979 -8.80957 -4.14618 255 0 0
1.25249 -8.81921 -4.1503 255 0 0
1.31478 -8.80727 -4.14961 255 0 0
1.35782 -8.80937 -4.15168 255 0 0
1.41272 -8.81803 -4.1558 255 0 0
1.46496 -8.8095 -4.1558 255 0 0
1.50769 -8.80806 -4.15717 255 0 0
1.56384 -8.8214 -4.16267 255 0 0
1.60974 -8.83626 -4.16816 255 0 0
1.66525 -8.84336 -4.17229 255 0 0
1.70932 -8.84654 -4.17503 255 0 0
1.75402 -8.85229 -4.17847 255 0 0
1.79824 -8.85503 -4.18122 255 0 0
1.83375 -8.86809 -4.18603 255 0 0
2.01244 -8.92847 -4.20938 255 0 0
1.00246 -8.41632 -4.34676 255 0 0
1.20162 -8.46102 -4.28987 255 0 0
1.25578 -8.69422 -4.19797 255 0 0
0.471445 -10.458 -4.61937 255 0 0
0.47416 -9.99161 -4.50282 255 0 0
0.474667 -9.52526 -4.38628 255 0 0
0.558159 -9.04273 -4.2669 255 0 0
0.574147 -8.95635 -4.24558 255 0 0
0.660765 -8.83076 -4.21573 255 0 0
0.691286 -8.81704 -4.21289 255 0 0
0.721711 -8.80319 -4.21005 255 0 0
0.762459 -8.78835 -4.2072 255 0 0
0.856189 -8.77972 -4.2072 255 0 0
0.896657 -8.76426 -4.20436 255 0 0
0.918026 -8.76776 -4.20578 255 0 0
1.21375 -8.69445 -4.19654 255 0 0
1.30714 -8.68568 -4.19773 255 0 0
1.46675 -8.69281 -4.20578 255 0 0
1.50991 -8.69695 -4.20863 255 0 0
1.60982 -8.71944 -4.21857 255 0 0
1.70767 -8.72686 -4.22497 255 0 0
1.75517 -8.7493 -4.23279 255 0 0
1.81123 -8.75912 -4.238 255 0 0
1.87745 -8.76455 -4.24274 255 0 0
1.91406 -8.78278 -4.24913 255 0 0
1.96186 -8.80133 -4.25624 255 0 0
0.489236 -8.96242 -4.40505 255 0 0
0.480999 -9.65231 -4.50364 255 0 0
0.483787 -9.26623 -4.40379 255 0 0
0.497723 -9.11791 -4.36561 255 0 0
0.517084 -9.07709 -4.35533 255 0 0
0.533903 -8.99662 -4.33477 255 0 0
0.552439 -8.95007 -4.32303 255 0 0
0.813673 -8.66256 -4.25401 255 0 0
0.873263 -8.63682 -4.24887 255 0 0
0.926566 -8.65122 -4.25401 255 0 0
1.0155 -8.61269 -4.24667 255 0 0
1.10587 -8.59011 -4.24373 255 0 0
1.39491 -8.57667 -4.25107 255 0 0
1.55376 -8.58675 -4.26062 255 0 0
1.60969 -8.60431 -4.26772 255 0 0
1.67588 -8.61863 -4.27457 255 0 0
1.69631 -8.61463 -4.27457 255 0 0
1.76283 -8.62825 -4.28142 255 0 0
1.86236 -8.64405 -4.29072 255 0 0
1.90037 -8.6706 -4.29953 255 0 0
1.92092 -8.66607 -4.29953 255 0 0
1.94518 -8.67808 -4.30394 255 0 0
2.00024 -8.72953 -4.32009 255 0 0
2.01837 -8.71372 -4.31715 255 0 0
2.08055 -8.79231 -4.34065 255 0 0
1.42622 -11.5091 -4.29429 255 0 0
0.506624 -8.89348 -4.38686 255 0 0
0.524024 -8.83015 -4.37019 255 0 0
0.562996 -8.78241 -4.35807 255 0 0
0.581191 -8.74154 -4.34746 255 0 0
0.609101 -8.69428 -4.33534 255 0 0
0.63754 -8.65822 -4.32624 255 0 0
0.734833 -8.58807 -4.30957 255 0 0
0.773514 -8.56196 -4.30351 255 0 0
0.794856 -8.57136 -4.30654 255 0 0
0.863675 -8.54196 -4.30048 255 0 0
0.913285 -8.5273 -4.29796 255 0 0
1.0642 -8.50505 -4.29669 255 0 0
1.31331 -8.45393 -4.2924 255 0 0
1.36549 -8.45904 -4.29594 255 0 0
1.40652 -8.45805 -4.29745 255 0 0
1.43849 -8.46415 -4.30048 255 0 0
1.51464 -8.48532 -4.30957 255 0 0
1.66341 -8.50064 -4.32094 255 0 0
1.76184 -8.52025 -4.3313 255 0 0
1.82792 -8.53333 -4.33837 255 0 0
2.0114 -8.68364 -4.38838 255 0 0
2.05386 -8.67951 -4.38989 255 0 0
1.41236 -11.6229 -4.01438 255 0 0
2.05793 -8.6056 -4.44988 255 0 0
0.464818 -9.32762 -4.58581 255 0 0
0.485669 -8.89708 -4.46706 255 0 0
0.502911 -8.82829 -4.44831 255 0 0
0.61175 -8.5857 -4.38321 255 0 0
0.663115 -8.5885 -4.38504 255 0 0
0.71332 -8.57598 -4.38269 255 0 0
0.823745 -8.44703 -4.34988 255 0 0
0.913221 -8.43214 -4.34832 255 0 0
0.962538 -8.42096 -4.34676 255 0 0
1.02241 -8.41392 -4.34676 255 0 0
1.66604 -8.40827 -4.37332 255 0 0
1.72036 -8.42037 -4.37957 255 0 0
1.81903 -8.4429 -4.39129 255 0 0
1.90604 -8.55092 -4.42566 255 0 0
1.9408 -8.56335 -4.43113 255 0 0
1.96614 -8.58073 -4.43738 255 0 0
0.459547 -9.68368 -4.77116 255 0 0
0.466815 -9.36768 -4.68104 255 0 0
0.460845 -8.82682 -4.52655 255 0 0
0.477783 -8.75262 -4.50563 255 0 0
0.512279 -8.63224 -4.47183 255 0 0
0.530317 -8.59167 -4.46057 255 0 0
0.571053 -8.58906 -4.46057 255 0 0
0.661799 -8.57124 -4.45735 255 0 0
0.692726 -8.57445 -4.45896 255 0 0
0.749259 -8.51883 -4.44448 255 0 0
0.775027 -8.57871 -4.46218 255 0 0
0.795365 -8.57685 -4.46218 255 0 0
1.85754 -8.57234 -4.50724 255 0 0
1.93078 -8.61384 -4.52333 255 0 0
1.95888 -8.59594 -4.52011 255 0 0
2.0629 -8.53683 -4.51046 255 0 0
0.472678 -9.48534 -4.8003 255 0 0
0.478182 -9.15889 -4.70425 255 0 0
0.477856 -8.75396 -4.58502 255 0 0
0.496694 -8.71916 -4.57508 255 0 0
0.530423 -8.59338 -4.53865 255 0 0
0.611122 -8.43599 -4.49394 255 0 0
0.661877 -8.44153 -4.4967 255 0 0
0.726823 -8.49445 -4.51381 255 0 0
0.812849 -8.54494 -4.53092 255 0 0
1.84826 -8.48087 -4.55935 255 0 0
0.456255 -8.73891 -4.65949 255 0 0
0.47331 -8.67067 -4.63906 255 0 0
0.489087 -8.58563 -4.61352 255 0 0
0.570442 -8.429 -4.56755 255 0 0
2.03965 -8.44064 -4.63906 255 0 0
0.471489 -8.63731 -4.70764 255 0 0
0.488471 -8.5748 -4.6884 255 0 0
0.513707 -8.48655 -4.66129 255 0 0
0.540514 -8.4317 -4.64467 255 0 0
2.07701 -8.42014 -4.71464 255 0 0
0.504818 -8.50651 -4.74532 255 0 0
0.521208 -8.4441 -4.72557 255 0 0
0.58279 -8.46242 -4.73276 255 0 0
0.610671 -8.42972 -4.72288 255 0 0
0.504436 -8.50009 -4.82158 255 0 0
1.40959 -11.6002 -4.11058 255 0 0
0.499746 -8.42106 -4.87337 255 0 0
1.43993 -11.6197 -4.11474 255 0 0
1.30449 -12.1798 -3.89841 255 0 0
0.911565 -11.6266 -4.00644 255 0 0
1.46673 -11.6104 -4.01339 255 0 0
1.31264 -11.6058 -4.10954 255 0 0
1.36597 -11.5851 -4.10694 255 0 0
1.46242 -11.5762 -4.10746 255 0 0
1.51879 -11.5806 -4.10954 255 0 0
1.61061 -11.638 -4.12203 255 0 0
1.65157 -11.6293 -4.12151 255 0 0
1.99694 -11.5838 -4.12307 255 0 0
1.3752 -11.5457 -4.2 255 0 0
1.39841 -11.5081 -4.19347 255 0 0
1.51871 -11.5799 -4.2098 255 0 0
1.61515 -11.5698 -4.21035 255 0 0
1.65506 -11.5554 -4.20871 255 0 0
1.71489 -11.5816 -4.21524 255 0 0
1.9314 -11.5299 -4.21198 255 0 0
0.497246 -11.644 -4.30565 255 0 0
1.3573 -11.5116 -4.29315 255 0 0
1.48372 -11.525 -4.29884 255 0 0
1.51104 -11.5214 -4.29884 255 0 0
1.39105 -11.4476 -4.38112 255 0 0
1.42171 -11.4727 -4.38704 255 0 0
