ply
format ascii 1.0
comment Created by Open3D
element vertex 1029
property double x
property double y
property double z
property uchar red
property uchar green
property uchar blue
end_header
-4.4632 11.929 -4.74046 255 0 0
-4.67622 10.2834 -4.92654 255 0 0
-6.12401 10.8333 -3.82284 255 0 0
-4.36099 11.8264 -4.82191 255 0 0
-5.2211 10.7299 -3.95102 255 0 0
-5.21934 11.3349 -3.6165 255 0 0
-4.47129 11.8648 -4.72814 255 0 0
-4.68086 11.5026 -4.45679 255 0 0
-7.17172 10.5394 -4.74292 255 0 0
-5.46778 11.3737 -3.52822 255 0 0
-5.7278 10.7179 -3.98692 255 0 0
-5.34782 11.6868 -3.55637 255 0 0
-6.81372 10.8216 -4.09085 255 0 0
-7.09621 11.9505 -4.15398 255 0 0
-5.09534 10.7949 -3.84998 255 0 0
-5.33294 10.7006 -3.95479 255 0 0
-3.61365 11.6358 -5.04859 255 0 0
-4.33217 10.3286 -4.90158 255 0 0
-4.70055 11.8722 -4.52611 255 0 0
-2.93745 10.5047 -5.41429 255 0 0
-6.03726 10.7095 -4.01007 255 0 0
-6.47718 10.7911 -4.05778 255 0 0
-5.32808 10.6909 -4.05509 255 0 0
-5.29855 10.9551 -3.67933 255 0 0
-6.05974 10.3161 -4.88814 255 0 0
-3.19133 10.4953 -5.13566 255 0 0
-5.52541 11.4241 -3.42984 255 0 0
-5.3273 10.6577 -4.25443 255 0 0
-7.27427 11.0812 -4.50807 255 0 0
-4.48273 10.3087 -4.81266 255 0 0
-6.96394 10.4996 -4.82063 255 0 0
-6.48396 10.2979 -4.9376 255 0 0
-3.73804 11.1001 -4.93062 255 0 0
-6.64 10.6574 -4.16032 255 0 0
-3.00104 10.5392 -5.33033 255 0 0
-6.87353 10.3101 -5.542 255 0 0
-7.0842 10.7916 -4.00063 255 0 0
-4.75532 11.2254 -4.30668 255 0 0
-4.60956 10.6003 -4.58782 255 0 0
-5.22901 11.2504 -3.6071 255 0 0
-4.08301 10.3483 -4.78352 255 0 0
-6.25581 10.7665 -3.92979 255 0 0
-6.2206 10.6477 -4.1216 255 0 0
-4.59845 12.1151 -4.56361 255 0 0
-4.50515 10.496 -4.55712 255 0 0
-7.07015 10.3374 -4.91331 255 0 0
-3.61706 11.3609 -4.98321 255 0 0
-7.12354 10.5222 -4.18613 255 0 0
-7.24098 10.2705 -5.25547 255 0 0
-4.11213 10.3145 -4.87662 255 0 0
-3.03072 10.8383 -5.21692 255 0 0
-5.67276 10.6757 -4.07991 255 0 0
-5.06698 10.868 -4.06303 255 0 0
-4.7461 10.9143 -4.35452 255 0 0
-7.16684 10.4788 -4.18415 255 0 0
-7.36726 10.5555 -4.54656 255 0 0
-5.64276 11.2554 -3.5247 255 0 0
-7.33572 11.7121 -4.85356 255 0 0
-3.04073 10.3065 -5.36356 255 0 0
-6.71933 10.2889 -4.96645 255 0 0
-5.88493 10.7046 -4.20633 255 0 0
-5.57267 10.7629 -3.77532 255 0 0
-5.22351 10.6705 -4.2479 255 0 0
-7.08712 10.3096 -5.02004 255 0 0
-6.27362 12.0816 -4.81093 255 0 0
-5.21924 10.4106 -4.709 255 0 0
-3.18149 11.1729 -5.11277 255 0 0
-5.07812 11.8309 -4.10502 255 0 0
-5.03034 11.1322 -3.99731 255 0 0
-3.83963 11.865 -5.01042 255 0 0
-6.5209 10.3838 -4.85228 255 0 0
-6.37675 10.7971 -4.05022 255 0 0
-3.85065 10.3666 -4.86487 255 0 0
-4.95786 11.3278 -3.91634 255 0 0
-6.42546 10.7917 -4.05353 255 0 0
-3.00074 11.2433 -5.32635 255 0 0
-3.37512 10.3044 -5.09945 255 0 0
-5.09984 10.8711 -3.9633 255 0 0
-4.41831 10.3614 -4.71914 255 0 0
-3.43105 10.5172 -4.96426 255 0 0
-6.07638 10.7193 -3.90961 255 0 0
-5.92669 10.3407 -4.87714 255 0 0
-6.94469 10.6893 -4.19308 255 0 0
-4.1756 11.7952 -4.91065 255 0 0
-6.29994 10.667 -4.23755 255 0 0
-7.20283 10.5314 -4.63451 255 0 0
-4.27525 10.3997 -4.71433 255 0 0
-5.16715 10.7158 -3.8437 255 0 0
-5.40479 10.9095 -3.68013 255 0 0
-6.76775 10.283 -5.40842 255 0 0
-4.76053 11.5413 -4.3622 255 0 0
-5.26151 10.6839 -4.25334 255 0 0
-6.85648 10.6638 -4.18117 255 0 0
-4.96146 11.4839 -3.93876 255 0 0
-7.24604 10.5946 -4.4286 255 0 0
-6.95437 10.378 -5.57096 255 0 0
-4.38434 10.3497 -4.91186 255 0 0
-7.39653 10.4385 -4.86413 255 0 0
-4.0021 10.3951 -4.78707 255 0 0
-5.04476 11.0939 -3.99259 255 0 0
-3.81148 11.8741 -5.01042 255 0 0
-7.02062 10.6672 -4.19705 255 0 0
-7.09082 10.7461 -4.10502 255 0 0
-6.8845 11.6568 -4.91289 255 0 0
-6.3242 11.9701 -4.91289 255 0 0
-2.98821 10.5894 -5.34395 255 0 0
-5.1894 10.4126 -4.80844 255 0 0
-4.29227 11.9001 -4.83215 255 0 0
-5.22172 10.6989 -3.84505 255 0 0
-7.10672 11.9038 -4.1486 255 0 0
-4.92706 11.7862 -4.30728 255 0 0
-6.71846 10.6423 -4.16529 255 0 0
-5.01276 10.9545 -3.86702 255 0 0
-4.73495 10.6462 -4.30509 255 0 0
-5.06281 10.9267 -3.96897 255 0 0
-4.39288 12.0891 -4.76755 255 0 0
-7.03939 10.835 -4.11258 255 0 0
-3.57251 10.4043 -4.94759 255 0 0
-5.1051 10.6193 -4.2294 255 0 0
-6.62152 10.7982 -4.07101 255 0 0
-4.46457 10.4699 -4.54816 255 0 0
-6.37211 11.9576 -4.91535 255 0 0
-6.29319 10.6556 -4.34152 255 0 0
-5.10217 11.2202 -3.70094 255 0 0
-5.01066 11.1946 -3.79653 255 0 0
-5.01072 11.375 -4.03227 255 0 0
-4.56411 11.9392 -4.63925 255 0 0
-7.38974 10.5344 -4.65701 255 0 0
-3.11512 10.6516 -5.27226 255 0 0
-7.0608 10.4829 -4.82959 255 0 0
-3.16719 10.6421 -5.27391 255 0 0
-4.69602 11.9434 -4.6499 255 0 0
-3.01571 11.0881 -5.38818 255 0 0
-5.57379 10.7028 -3.87016 255 0 0
-4.76369 11.6271 -4.37744 255 0 0
-5.37956 11.4321 -3.31734 255 0 0
-7.14968 10.5608 -4.08518 255 0 0
-3.55836 10.65 -4.90892 255 0 0
-3.81055 10.8047 -4.86666 255 0 0
-4.35747 10.4236 -4.62808 255 0 0
-3.05605 10.9289 -5.14203 255 0 0
-7.19572 10.6288 -4.4286 255 0 0
-5.07558 10.8194 -4.05608 255 0 0
-5.09518 10.4084 -4.79745 255 0 0
-5.6731 11.3832 -3.54018 255 0 0
-7.34756 11.7931 -4.74883 255 0 0
-7.18394 12.0331 -4.05282 255 0 0
-7.23005 11.0709 -4.61588 255 0 0
-3.57603 11.6118 -5.04006 255 0 0
-6.23568 10.4448 -4.82973 255 0 0
-4.40871 10.4763 -4.644 255 0 0
-5.029 11.1292 -3.7889 255 0 0
-3.92429 10.339 -4.86487 255 0 0
-5.47759 11.4987 -3.43508 255 0 0
-3.41829 10.563 -4.97486 255 0 0
-3.49502 10.4604 -4.95516 255 0 0
-3.93611 10.2965 -4.95365 255 0 0
-3.6569 11.3004 -4.97184 255 0 0
-4.90875 11.3619 -4.23547 255 0 0
-5.83314 10.7004 -3.99259 255 0 0
-5.96627 10.3245 -4.87852 255 0 0
-4.36192 10.5749 -4.56096 255 0 0
-5.0657 10.7984 -4.15429 255 0 0
-6.38357 10.3002 -4.92523 255 0 0
-5.38013 10.7633 -3.76259 255 0 0
-3.96941 11.3408 -4.9005 255 0 0
-3.21376 10.5241 -5.04672 255 0 0
-6.88112 11.7783 -4.93506 255 0 0
-4.63121 11.9446 -4.75647 255 0 0
-3.02384 11.6622 -5.44383 255 0 0
-4.53156 12.0681 -4.66174 255 0 0
-5.21801 10.9872 -3.67853 255 0 0
-5.28393 10.416 -4.81944 255 0 0
-7.17336 11.3331 -4.07865 255 0 0
-3.58996 11.7561 -5.07559 255 0 0
-7.15915 10.5748 -3.97911 255 0 0
-5.17657 11.3481 -3.61575 255 0 0
-4.2435 10.4278 -4.81692 255 0 0
-4.78586 11.0057 -4.27076 255 0 0
-6.17888 11.9685 -4.89811 255 0 0
-6.87294 10.4159 -4.79377 255 0 0
-5.81197 11.128 -3.62628 255 0 0
-5.627 10.7738 -3.78041 255 0 0
-4.12149 12.0495 -4.96239 255 0 0
-5.3225 10.4921 -4.63387 255 0 0
-5.08988 11.2639 -3.70575 255 0 0
-5.12863 11.1379 -3.69214 255 0 0
-4.75101 11.2897 -4.31757 255 0 0
-6.77884 10.823 -4.08801 255 0 0
-7.2798 10.6439 -4.55111 255 0 0
-5.82652 10.7793 -3.79484 255 0 0
-3.78723 10.9032 -4.88798 255 0 0
-5.28137 10.6922 -3.84819 255 0 0
-6.38504 10.5807 -4.33825 255 0 0
-5.52376 10.762 -3.77192 255 0 0
-6.83709 10.6337 -4.28334 255 0 0
-7.3215 10.6506 -4.33433 255 0 0
-7.41059 10.3539 -5.07363 255 0 0
-6.87776 10.29 -4.98775 255 0 0
-5.03347 10.8972 -3.86029 255 0 0
-3.63889 10.5568 -4.89277 255 0 0
-4.01998 11.9373 -5.04065 255 0 0
-4.19113 10.3695 -4.6999 255 0 0
-4.77501 10.6006 -4.40066 255 0 0
-3.77247 10.9443 -4.89651 255 0 0
-4.90226 11.4212 -4.24483 255 0 0
-5.08714 10.9113 -3.76344 255 0 0
-5.14056 10.8574 -3.75962 255 0 0
-5.8873 10.709 -3.89392 255 0 0
-4.97737 11.0849 -3.88316 255 0 0
-7.12449 10.3115 -5.02554 255 0 0
-6.09263 10.8377 -3.82114 255 0 0
-3.63611 10.3493 -4.93925 255 0 0
-4.22641 12.0751 -4.86413 255 0 0
-5.52216 11.3829 -3.53209 255 0 0
-7.05865 10.9497 -4.01902 255 0 0
-5.31409 10.4755 -4.52738 255 0 0
-4.54392 11.9715 -4.64398 255 0 0
-5.22466 11.7849 -3.6699 255 0 0
-6.33347 12.0567 -4.69429 255 0 0
-5.65657 10.5846 -4.27076 255 0 0
-3.06465 10.2975 -5.56012 255 0 0
-5.47445 10.6971 -3.96471 255 0 0
-7.07999 10.5654 -4.18812 255 0 0
-2.95741 10.6736 -5.36608 255 0 0
-5.54739 11.4005 -3.42853 255 0 0
-6.74637 10.6028 -4.26981 255 0 0
-5.82888 10.6926 -4.19956 255 0 0
-5.97334 10.8047 -3.80841 255 0 0
-5.96592 10.852 -3.70895 255 0 0
-6.43222 10.2967 -4.93073 255 0 0
-3.27018 10.8936 -5.04761 255 0 0
-3.11387 10.6007 -5.15819 255 0 0
-5.74315 11.1244 -3.62176 255 0 0
-7.29639 12.0263 -4.06046 255 0 0
-4.84548 10.86 -4.25008 255 0 0
-7.10002 10.6498 -4.09274 255 0 0
-4.9196 11.3133 -4.22818 255 0 0
-3.72352 11.89 -5.00767 255 0 0
-6.31976 12.0306 -4.92398 255 0 0
-4.76652 10.5817 -4.29599 255 0 0
-6.97213 10.2985 -5.00218 255 0 0
-5.0466 11.6053 -4.06912 255 0 0
-5.05841 11.2654 -4.12458 255 0 0
-5.03891 11.6632 -3.86103 255 0 0
-5.00841 11.2971 -3.81011 255 0 0
-5.35665 10.4364 -4.8318 255 0 0
-2.98755 10.3519 -5.57025 255 0 0
-2.98586 10.3923 -5.38455 255 0 0
-7.31255 10.5837 -4.43405 255 0 0
-3.51561 10.2782 -5.00766 255 0 0
-5.40395 11.3788 -3.31339 255 0 0
-5.08224 10.7014 -4.13972 255 0 0
-7.26425 10.3555 -4.94249 255 0 0
-5.42722 10.6985 -3.96141 255 0 0
-5.1671 10.651 -4.13816 255 0 0
-4.53059 11.7678 -4.60372 255 0 0
-4.22696 10.317 -4.88836 255 0 0
-5.92443 10.9605 -3.71935 255 0 0
-5.42546 10.8863 -3.67853 255 0 0
-7.05644 10.639 -4.41554 255 0 0
-6.02591 10.6598 -4.10671 255 0 0
-4.42859 10.4541 -4.54177 255 0 0
-4.44049 10.4134 -4.83255 255 0 0
-7.1684 10.3227 -5.03378 255 0 0
-4.3843 11.8896 -4.9478 255 0 0
-5.3895 11.4181 -3.42263 255 0 0
-6.56517 10.6495 -4.15238 255 0 0
-6.81937 10.3614 -4.88545 255 0 0
-4.97465 11.1495 -3.89213 255 0 0
-3.16665 10.5943 -5.06157 255 0 0
-6.27039 12.0057 -4.79672 255 0 0
-5.82455 10.9613 -3.71295 255 0 0
-4.49842 10.6895 -4.49536 255 0 0
-4.81248 10.925 -4.25879 255 0 0
-7.18192 10.9972 -4.48521 255 0 0
-5.43176 10.6448 -4.15845 255 0 0
-5.83481 10.3503 -4.86821 255 0 0
-6.41881 10.5798 -4.55518 255 0 0
-3.27167 10.4471 -5.0311 255 0 0
-4.83992 10.5768 -4.30111 255 0 0
-5.75047 10.6386 -4.28818 255 0 0
-7.29101 10.5526 -4.53747 255 0 0
-7.02931 10.6529 -4.30519 255 0 0
-3.92368 10.4492 -4.79276 255 0 0
-4.96093 11.1188 -4.19904 255 0 0
-5.06655 11.5018 -4.16231 255 0 0
-4.77731 11.7396 -4.39812 255 0 0
-5.46104 11.429 -3.32068 255 0 0
-7.32438 10.5206 -4.64694 255 0 0
-2.93388 10.8891 -5.42737 255 0 0
-7.38066 10.6553 -4.3411 255 0 0
-6.32082 12.1023 -4.7011 255 0 0
-3.03821 10.5745 -5.24411 255 0 0
-6.28326 12.0304 -4.92028 255 0 0
-5.38434 11.4423 -3.53138 255 0 0
-5.3341 10.7668 -3.76004 255 0 0
-6.68067 10.6103 -4.26461 255 0 0
-5.91883 10.7061 -4.00014 255 0 0
-7.18663 10.5077 -4.0814 255 0 0
-4.95386 10.6254 -4.31929 255 0 0
-5.07477 11.7462 -3.76578 255 0 0
-5.51643 10.6853 -3.96613 255 0 0
-5.26 10.9415 -3.67533 255 0 0
-6.56785 10.2952 -4.94791 255 0 0
-6.23429 10.6421 -4.22766 255 0 0
-6.99486 10.8226 -4.10691 255 0 0
-4.29366 11.7294 -4.79633 255 0 0
-6.23728 10.504 -4.73493 255 0 0
-5.34279 10.9142 -3.67693 255 0 0
-5.22644 10.6445 -4.1418 255 0 0
-7.32911 10.5541 -4.54201 255 0 0
-5.27916 10.6559 -4.25008 255 0 0
-5.6798 10.9064 -3.69694 255 0 0
-5.91817 10.7954 -3.80332 255 0 0
-3.88948 10.3582 -4.86634 255 0 0
-4.51538 10.5891 -4.47688 255 0 0
-5.42124 10.6554 -4.26205 255 0 0
-6.42121 10.4994 -4.64808 255 0 0
-3.02838 10.4934 -5.31926 255 0 0
-3.17884 10.4098 -5.20933 255 0 0
-3.85539 11.818 -5.0008 255 0 0
-6.02811 10.9038 -3.71935 255 0 0
-3.15966 10.5254 -5.14129 255 0 0
-3.41773 11.005 -4.98528 255 0 0
-5.00879 11.5184 -3.83981 255 0 0
-4.1359 10.41 -4.70402 255 0 0
-5.08217 11.3183 -3.71215 255 0 0
-4.93467 10.6171 -4.21524 255 0 0
-5.2919 11.2114 -3.60597 255 0 0
-7.22294 10.669 -4.32705 255 0 0
-3.95497 11.6529 -4.97058 255 0 0
-6.93815 10.3009 -4.99806 255 0 0
-3.05234 10.4369 -5.30479 255 0 0
-3.14288 11.6648 -5.23704 255 0 0
-5.16808 11.5463 -3.63869 255 0 0
-4.97675 11.0485 -4.18863 255 0 0
-6.33338 11.9531 -4.79317 255 0 0
-5.78021 11.1314 -3.62477 255 0 0
-6.16972 10.854 -3.82878 255 0 0
-5.48275 10.6821 -4.27185 255 0 0
-4.32618 10.4181 -4.6241 255 0 0
-5.52786 11.4292 -3.32371 255 0 0
-6.19169 10.7145 -3.81266 255 0 0
-6.3189 11.8239 -4.65224 255 0 0
-7.1682 10.5342 -4.08329 255 0 0
-7.07154 10.8002 -4.11069 255 0 0
-4.51036 10.6472 -4.48797 255 0 0
-6.88116 10.5915 -4.28126 255 0 0
-5.33496 11.514 -3.32311 255 0 0
-5.3401 11.4539 -3.31764 255 0 0
-5.47299 11.3845 -3.31703 255 0 0
-5.56258 11.4317 -3.32553 255 0 0
-3.68915 11.2181 -4.95478 255 0 0
-5.57735 11.3592 -3.53244 255 0 0
-7.27509 10.2929 -5.15376 255 0 0
-5.29473 10.6874 -3.95007 255 0 0
-5.32005 10.6431 -4.14909 255 0 0
-4.80502 10.9785 -4.2675 255 0 0
-5.03031 10.3379 -4.87661 255 0 0
-3.83559 10.7537 -4.85672 255 0 0
-4.9162 12.04 -4.3489 255 0 0
-4.09689 10.4927 -4.71914 255 0 0
-5.38692 11.5543 -3.43639 255 0 0
-5.50083 11.4424 -3.43049 255 0 0
-5.87857 11.1586 -3.6338 255 0 0
-3.2917 11.4567 -5.08807 255 0 0
-3.25526 10.4818 -5.03891 255 0 0
-6.32868 11.9785 -5.03298 255 0 0
-7.37775 10.4908 -4.75955 255 0 0
-4.67607 10.5475 -4.38231 255 0 0
-7.20953 11.3307 -4.08134 255 0 0
-5.47904 10.6129 -4.25988 255 0 0
-3.7928 10.2855 -5.53176 255 0 0
-5.30054 11.4398 -3.52681 255 0 0
-4.52323 10.4696 -4.55328 255 0 0
-4.93264 11.9585 -4.33642 255 0 0
-4.41256 10.9923 -4.65178 255 0 0
-4.91253 11.6735 -4.2875 255 0 0
-7.28428 10.3319 -5.05164 255 0 0
-4.90906 11.5123 -4.26044 255 0 0
-6.25464 11.9756 -5.14282 255 0 0
-4.83137 10.8978 -4.25552 255 0 0
-5.37552 11.674 -3.55637 255 0 0
-5.34976 11.4746 -3.53314 255 0 0
-5.42355 11.3852 -3.52716 255 0 0
-5.63578 11.3758 -3.53737 255 0 0
-5.604 11.1122 -3.5071 255 0 0
-5.47511 10.6984 -3.86254 255 0 0
-7.3347 10.2994 -5.16371 255 0 0
-4.25124 11.7863 -4.91463 255 0 0
-3.97319 10.4305 -4.79276 255 0 0
-7.41663 10.3106 -5.17792 255 0 0
-5.97462 10.7168 -3.90154 255 0 0
-6.167 10.7896 -4.78226 255 0 0
-6.27602 10.5692 -4.43179 255 0 0
-6.33943 10.7923 -4.04644 255 0 0
-7.32329 10.6532 -4.44602 255 0 0
-6.02378 10.3108 -4.88264 255 0 0
-5.16728 11.4352 -3.62552 255 0 0
-5.2801 11.2554 -3.61048 255 0 0
-5.30353 11.1673 -3.60145 255 0 0
-5.34251 11.1809 -3.60521 255 0 0
-5.37594 11.1487 -3.60333 255 0 0
-5.43206 11.1635 -3.60822 255 0 0
-5.43299 11.0984 -3.6007 255 0 0
-5.47758 11.0894 -3.60221 255 0 0
-5.52733 11.0907 -3.60521 255 0 0
-5.57327 11.0839 -3.6071 255 0 0
-5.62972 11.0977 -3.61198 255 0 0
-5.68635 11.1112 -3.61687 255 0 0
-5.93141 11.1306 -3.6338 255 0 0
-4.12542 10.277 -4.96729 255 0 0
-5.04982 10.3157 -4.87377 255 0 0
-6.22702 10.4303 -4.71958 255 0 0
-6.57118 10.631 -4.25732 255 0 0
-4.78028 11.0646 -4.28056 255 0 0
-5.30613 10.6468 -4.35338 255 0 0
-6.95355 10.8148 -4.10218 255 0 0
-3.07734 10.6158 -5.25901 255 0 0
-5.03741 10.607 -4.22178 255 0 0
-4.26271 10.475 -4.63073 255 0 0
-5.77874 10.6909 -4.09083 255 0 0
-3.62462 11.9711 -5.1296 255 0 0
-6.28017 11.9553 -4.78844 255 0 0
-6.17286 11.9568 -5.01251 255 0 0
-5.05038 11.0367 -3.77786 255 0 0
-7.4072 10.4012 -4.97035 255 0 0
-5.11418 11.7607 -3.76978 255 0 0
-5.05832 11.5573 -3.74096 255 0 0
-5.0684 11.4324 -3.72576 255 0 0
-5.0695 11.3621 -3.71695 255 0 0
-5.11428 11.1764 -3.69614 255 0 0
-5.16668 11.0819 -3.68734 255 0 0
-5.18802 11.0591 -3.68573 255 0 0
-5.20184 11.0206 -3.68173 255 0 0
-5.23404 10.9539 -3.67533 255 0 0
-5.37378 10.9119 -3.67853 255 0 0
-3.30644 11.6117 -5.12772 255 0 0
-5.47978 10.898 -3.68333 255 0 0
-5.53425 10.9095 -3.68814 255 0 0
-5.59386 10.8986 -3.69054 255 0 0
-5.63033 10.9059 -3.69374 255 0 0
-5.73474 10.917 -3.70174 255 0 0
-5.77415 10.929 -3.70575 255 0 0
-5.88744 10.954 -3.71615 255 0 0
-5.93655 10.9209 -3.71535 255 0 0
-5.96243 10.9068 -3.71535 255 0 0
-3.72251 11.1413 -4.93915 255 0 0
-2.83951 11.0592 -5.36665 255 0 0
-5.86037 10.7807 -3.79738 255 0 0
-3.04723 10.7985 -5.20727 255 0 0
-4.7538 10.7918 -4.33293 255 0 0
-6.74279 10.6528 -4.27709 255 0 0
-7.20649 12.0061 -4.05112 255 0 0
-5.52374 10.6995 -3.86612 255 0 0
-6.87695 10.8363 -4.0984 255 0 0
-4.93004 11.8723 -4.32185 255 0 0
-3.38704 10.6384 -4.99154 255 0 0
-5.96953 10.7077 -4.0044 255 0 0
-6.84809 12.1142 -4.99418 255 0 0
-5.05159 10.9706 -4.07792 255 0 0
-6.41915 10.6372 -4.13749 255 0 0
-7.26573 10.516 -4.63925 255 0 0
-5.00124 11.4269 -3.82708 255 0 0
-5.00263 11.3567 -3.81775 255 0 0
-5.03858 11.0803 -3.78296 255 0 0
-5.05957 10.9879 -3.77192 255 0 0
-5.07343 10.9496 -3.76768 255 0 0
-5.11053 10.8939 -3.76259 255 0 0
-5.17946 10.8067 -3.75538 255 0 0
-5.2294 10.7794 -3.75495 255 0 0
-5.28429 10.7623 -3.75622 255 0 0
-5.42881 10.7648 -3.76598 255 0 0
-5.47495 10.7609 -3.76853 255 0 0
-5.65791 10.7707 -3.78211 255 0 0
-5.69426 10.7777 -3.7855 255 0 0
-5.71708 10.7591 -3.78465 255 0 0
-5.75896 10.7762 -3.78975 255 0 0
-5.78449 10.7625 -3.78975 255 0 0
-6.02725 10.8112 -3.81308 255 0 0
-6.20981 10.8645 -3.83302 255 0 0
-6.21246 10.8096 -3.82624 255 0 0
-7.19003 11.9146 -4.03839 255 0 0
-7.35204 12.0535 -4.06809 255 0 0
-7.21023 11.3913 -3.97474 255 0 0
-7.26628 11.39 -3.97899 255 0 0
-7.17371 10.6779 -4.32341 255 0 0
-4.97986 11.602 -3.95669 255 0 0
-7.22107 10.5045 -3.97552 255 0 0
-2.88276 10.6994 -5.46851 255 0 0
-5.59134 10.7055 -4.07792 255 0 0
-6.4157 10.6315 -4.24275 255 0 0
-4.07438 10.3264 -4.87588 255 0 0
-6.76377 10.3569 -4.87749 255 0 0
-3.02266 11.0105 -5.36665 255 0 0
-6.16358 10.8432 -4.90137 255 0 0
-4.62695 10.5377 -4.47626 255 0 0
-6.70163 11.4711 -4.05892 255 0 0
-3.6038 11.4127 -4.99458 255 0 0
-5.00227 11.7309 -3.97642 255 0 0
-4.95868 11.4032 -3.9271 255 0 0
-4.96604 11.2736 -3.90917 255 0 0
-4.96227 11.193 -3.89751 255 0 0
-4.98569 10.9986 -3.8715 255 0 0
-5.07161 10.8444 -3.85536 255 0 0
-5.12622 10.761 -3.84729 255 0 0
-5.32968 10.6941 -3.85177 255 0 0
-5.38068 10.7009 -3.85626 255 0 0
-5.42393 10.692 -3.85805 255 0 0
-5.62661 10.7111 -3.87509 255 0 0
-5.6574 10.708 -3.87688 255 0 0
-5.69092 10.7099 -3.87957 255 0 0
-5.73717 10.7048 -3.88226 255 0 0
-5.78621 10.7047 -3.88585 255 0 0
-5.83671 10.707 -3.88989 255 0 0
-5.92667 10.7203 -3.89841 255 0 0
-6.02546 10.7182 -3.90558 255 0 0
-6.12738 10.7203 -3.91365 255 0 0
-6.1672 10.7308 -3.91813 255 0 0
-6.2071 10.7412 -3.92262 255 0 0
-6.74639 11.4851 -4.0643 255 0 0
-7.09433 12.0121 -4.16205 255 0 0
-7.10515 11.8373 -4.13963 255 0 0
-7.1033 11.7709 -4.13066 255 0 0
-7.12106 11.706 -4.12349 255 0 0
-7.18256 11.682 -4.12528 255 0 0
-7.22101 11.6514 -4.12438 255 0 0
-7.09256 11.3838 -4.07865 255 0 0
-7.10418 11.3424 -4.07417 255 0 0
-7.12797 11.3207 -4.07327 255 0 0
-7.07393 10.8882 -4.01229 255 0 0
-7.09023 10.8568 -4.0096 255 0 0
-7.09383 10.7507 -3.99615 255 0 0
-7.08732 10.6856 -3.98718 255 0 0
-7.11241 10.6411 -3.9836 255 0 0
-7.13729 10.5965 -3.98001 255 0 0
-7.1842 10.5578 -3.97911 255 0 0
-7.20268 10.5311 -3.97732 255 0 0
-4.19535 10.3799 -4.80129 255 0 0
-5.06999 10.6106 -4.22504 255 0 0
-6.35228 10.4144 -4.83769 255 0 0
-2.89606 10.6482 -5.5551 255 0 0
-4.48509 10.3141 -4.71501 255 0 0
-5.03283 11.1377 -4.10274 255 0 0
-5.6186 10.6959 -4.286 255 0 0
-5.08095 11.7605 -4.09463 255 0 0
-5.02081 11.4716 -4.04738 255 0 0
-5.01192 11.305 -4.02188 255 0 0
-5.0081 11.2245 -4.00959 255 0 0
-5.0205 11.181 -4.00392 255 0 0
-5.04941 11.0346 -3.98408 255 0 0
-5.04414 10.9544 -3.9718 255 0 0
-5.08382 10.9042 -3.96708 255 0 0
-5.13104 10.8373 -3.96046 255 0 0
-5.1571 10.7929 -3.95574 255 0 0
-5.18792 10.7589 -3.9529 255 0 0
-5.23891 10.702 -3.94818 255 0 0
-5.25405 10.6688 -3.9444 255 0 0
-5.37876 10.6971 -3.95763 255 0 0
-5.57175 10.6989 -3.97227 255 0 0
-5.62186 10.7021 -3.97652 255 0 0
-5.67071 10.7024 -3.9803 255 0 0
-5.77 10.705 -3.98833 255 0 0
-5.88508 10.7049 -3.99731 255 0 0
-6.09102 10.7156 -4.01526 255 0 0
-6.12788 10.7212 -4.01904 255 0 0
-6.1648 10.7266 -4.02282 255 0 0
-6.196 10.722 -4.02471 255 0 0
-6.23302 10.7273 -4.02849 255 0 0
-6.29924 10.7823 -4.04172 255 0 0
-6.53048 10.7927 -4.0625 255 0 0
-6.58687 10.799 -4.06817 255 0 0
-6.67509 10.7991 -4.07573 255 0 0
-6.73177 10.8047 -4.0814 255 0 0
-6.93723 10.8459 -4.10502 255 0 0
-7.08434 10.6811 -4.09557 255 0 0
-7.11691 10.5933 -4.08659 255 0 0
-7.22888 10.4892 -4.08281 255 0 0
-5.07629 11.5983 -4.17819 255 0 0
-5.70601 10.6771 -4.18655 255 0 0
-7.22336 10.3494 -4.93586 255 0 0
-6.34326 12.0061 -4.68633 255 0 0
-3.70681 11.1824 -4.94768 255 0 0
-6.27754 10.2919 -4.91012 255 0 0
-6.68252 10.2857 -4.96096 255 0 0
-6.79323 10.6207 -4.27709 255 0 0
-5.67606 10.3247 -4.84417 255 0 0
-5.06673 11.9606 -4.23478 255 0 0
-5.10291 11.8887 -4.22585 255 0 0
-5.09019 11.7056 -4.19606 255 0 0
-5.04937 11.3895 -4.14344 255 0 0
-5.0599 11.3406 -4.13649 255 0 0
-5.06638 11.0717 -4.0948 255 0 0
-5.04847 10.8957 -4.06601 255 0 0
-5.1194 10.7796 -4.0531 255 0 0
-5.17693 10.7361 -4.05062 255 0 0
-5.21639 10.6881 -4.04615 255 0 0
-5.26203 10.685 -4.04913 255 0 0
-5.38651 10.681 -4.05806 255 0 0
-5.42227 10.6887 -4.06203 255 0 0
-5.47471 10.6976 -4.0675 255 0 0
-5.52463 10.7012 -4.07196 255 0 0
-5.64743 10.6891 -4.07991 255 0 0
-5.72297 10.6783 -4.08437 255 0 0
-5.84044 10.6837 -4.0948 255 0 0
-5.89662 10.6659 -4.09678 255 0 0
-5.93031 10.6671 -4.09976 255 0 0
-5.97667 10.661 -4.10274 255 0 0
-6.09643 10.6661 -4.11366 255 0 0
-6.17113 10.6498 -4.11763 255 0 0
-6.27601 10.6553 -4.12756 255 0 0
-6.36272 10.6576 -4.1355 255 0 0
-6.47344 10.6414 -4.14295 255 0 0
-6.5218 10.6355 -4.14642 255 0 0
-6.78105 10.6573 -4.17323 255 0 0
-6.8063 10.6412 -4.17323 255 0 0
-7.06171 10.647 -4.19805 255 0 0
-7.07093 10.6062 -4.19308 255 0 0
-7.19167 10.4617 -4.18415 255 0 0
-7.21973 10.4494 -4.18514 255 0 0
-6.82066 10.2835 -4.97882 255 0 0
-7.2952 11.7712 -4.85948 255 0 0
-7.2817 10.2764 -5.26281 255 0 0
-4.70103 11.7917 -4.51133 255 0 0
-3.86418 10.7132 -4.84961 255 0 0
-3.2217 10.4613 -5.22755 255 0 0
-3.71614 10.3028 -5.32862 255 0 0
-7.43721 10.6021 -4.45038 255 0 0
-7.32521 10.3378 -5.05851 255 0 0
-7.40876 10.5616 -4.55224 255 0 0
-3.63531 11.3252 -4.9761 255 0 0
-3.29303 10.4286 -5.02797 255 0 0
-6.87479 10.6368 -4.2875 255 0 0
-3.73886 10.4044 -4.86414 255 0 0
-4.8712 12.0521 -4.34786 255 0 0
-4.91097 11.5929 -4.27397 255 0 0
-4.92792 11.2593 -4.21985 255 0 0
-4.93834 11.2107 -4.21257 255 0 0
-4.9509 11.1674 -4.20633 255 0 0
-4.99457 10.9835 -4.17927 255 0 0
-5.01101 10.9507 -4.1751 255 0 0
-5.01527 10.8917 -4.16574 255 0 0
-5.03818 10.8398 -4.15897 255 0 0
-5.06669 10.7342 -4.14388 255 0 0
-5.10511 10.6841 -4.13868 255 0 0
-5.12793 10.6667 -4.13764 255 0 0
-5.27449 10.6465 -4.14596 255 0 0
-5.38086 10.6384 -4.15325 255 0 0
-5.47882 10.6434 -4.16209 255 0 0
-5.53389 10.6571 -4.16886 255 0 0
-5.56715 10.6592 -4.17198 255 0 0
-5.60848 10.6766 -4.17823 255 0 0
-5.64455 10.6837 -4.18239 255 0 0
-5.67257 10.6753 -4.18343 255 0 0
-5.73131 10.6635 -4.18655 255 0 0
-5.77576 10.6854 -4.19384 255 0 0
-5.89914 10.6705 -4.20216 255 0 0
-5.93842 10.6817 -4.20737 255 0 0
-5.96092 10.6625 -4.20633 255 0 0
-6.00313 10.6785 -4.21257 255 0 0
-6.03679 10.6495 -4.21101 255 0 0
-6.08751 10.6505 -4.21569 255 0 0
-6.13685 10.6488 -4.21985 255 0 0
-6.18627 10.6468 -4.22402 255 0 0
-6.31344 10.6323 -4.23338 255 0 0
-6.33863 10.6173 -4.23338 255 0 0
-6.38455 10.6368 -4.24067 255 0 0
-6.46994 10.6357 -4.24847 255 0 0
-6.50924 10.615 -4.24899 255 0 0
-6.62419 10.6321 -4.26252 255 0 0
-6.66467 10.6407 -4.26773 255 0 0
-6.94091 10.6282 -4.2927 255 0 0
-6.9819 10.6358 -4.29791 255 0 0
-7.08958 10.689 -4.31664 255 0 0
-7.10851 10.6626 -4.31456 255 0 0
-7.27058 10.6575 -4.33017 255 0 0
-7.43994 10.6597 -4.34786 255 0 0
-4.76387 11.1718 -4.29798 255 0 0
-6.87948 10.3456 -4.89009 255 0 0
-6.3771 12.0012 -4.6886 255 0 0
-3.92597 11.8907 -5.02279 255 0 0
-7.03278 10.3352 -4.908 255 0 0
-4.06542 11.9783 -4.94249 255 0 0
-5.42149 10.5628 -4.34883 255 0 0
-4.53943 10.5414 -4.46949 255 0 0
-4.72833 12.0256 -4.44493 255 0 0
-4.76106 12.0251 -4.44711 255 0 0
-4.78956 12.0137 -4.44711 255 0 0
-4.81589 11.997 -4.44602 255 0 0
-4.82492 11.9376 -4.43622 255 0 0
-4.75478 11.4503 -4.34587 255 0 0
-4.75307 11.3699 -4.33172 255 0 0
-6.25594 11.978 -5.0253 255 0 0
-4.77219 11.1182 -4.28927 255 0 0
-4.85707 10.817 -4.24355 255 0 0
-4.87055 10.7446 -4.23212 255 0 0
-4.8908 10.688 -4.22395 255 0 0
-4.90169 10.645 -4.21742 255 0 0
-4.98986 10.604 -4.21742 255 0 0
-5.17172 10.6605 -4.24191 255 0 0
-5.36518 10.6387 -4.25443 255 0 0
-5.50683 10.6049 -4.26096 255 0 0
-5.5586 10.6429 -4.27185 255 0 0
-5.64496 10.6234 -4.2762 255 0 0
-6.23294 10.611 -4.32846 255 0 0
-7.12951 10.6941 -4.43187 255 0 0
-7.18675 10.6973 -4.4384 255 0 0
-7.23061 10.626 -4.43187 255 0 0
-7.37152 10.5883 -4.44112 255 0 0
-6.62068 10.378 -4.86356 255 0 0
-7.18132 10.3938 -4.82831 255 0 0
-3.03333 11.1529 -5.30382 255 0 0
-3.48083 10.296 -5.00922 255 0 0
-3.62486 10.5976 -4.90158 255 0 0
-5.01321 10.3651 -4.88088 255 0 0
-6.65193 10.292 -4.95821 255 0 0
-3.14967 10.3143 -5.27754 255 0 0
-7.31909 10.4865 -4.75154 255 0 0
-4.6214 10.559 -4.37994 255 0 0
-6.25163 10.4153 -4.82575 255 0 0
-4.6343 12.0799 -4.55963 255 0 0
-4.67205 12.05 -4.55679 255 0 0
-4.70478 12.0496 -4.55906 255 0 0
-4.6913 11.9314 -4.53633 255 0 0
-4.80173 11.9617 -4.54997 255 0 0
-4.81286 11.9077 -4.54088 255 0 0
-4.68119 11.198 -4.40111 255 0 0
-4.67208 11.1021 -4.38293 255 0 0
-4.67822 11.0434 -4.3727 255 0 0
-4.72016 11.0693 -4.38065 255 0 0
-4.71241 10.9789 -4.36361 255 0 0
-4.7726 11.0468 -4.38065 255 0 0
-4.78117 10.9241 -4.35906 255 0 0
-4.80532 10.5674 -4.29656 255 0 0
-4.8818 10.6018 -4.30906 255 0 0
-4.92866 10.6371 -4.31929 255 0 0
-4.98307 10.5895 -4.31531 255 0 0
-6.28307 10.6385 -4.44429 255 0 0
-6.39683 10.5436 -4.43974 255 0 0
-7.43953 11.8779 -4.77269 255 0 0
-7.12555 10.9676 -4.58747 255 0 0
-7.13376 10.6457 -4.5352 255 0 0
-7.15898 10.6287 -4.5352 255 0 0
-7.1584 10.5737 -4.52611 255 0 0
-7.29525 10.6124 -4.5477 255 0 0
-4.22643 10.3859 -4.70677 255 0 0
-5.22619 10.549 -4.43085 255 0 0
-5.26609 10.29 -4.89225 255 0 0
-4.37312 10.496 -4.5456 255 0 0
-4.57461 10.5199 -4.46826 255 0 0
-7.22432 10.4826 -4.73923 255 0 0
-4.40157 10.4594 -4.54049 255 0 0
-4.03287 10.3649 -4.78281 255 0 0
-6.71724 12.0825 -4.97447 255 0 0
-4.51159 11.8863 -4.73553 255 0 0
-4.32633 11.906 -4.83598 255 0 0
-4.45201 12.0732 -4.65701 255 0 0
-4.48262 12.068 -4.65819 255 0 0
-4.51288 11.6394 -4.57767 255 0 0
-4.58463 10.6812 -4.40007 255 0 0
-4.5781 10.5966 -4.38349 255 0 0
-4.60321 10.5857 -4.38349 255 0 0
-4.63949 10.5323 -4.37639 255 0 0
-4.73144 10.6044 -4.3977 255 0 0
-4.7925 10.5392 -4.39059 255 0 0
-6.21712 10.5268 -4.52439 255 0 0
-7.3989 11.8755 -4.88908 255 0 0
-7.14674 11.0576 -4.71858 255 0 0
-7.19397 10.5721 -4.64043 255 0 0
-7.22128 10.5048 -4.63214 255 0 0
-3.00717 11.4858 -5.28734 255 0 0
-3.08635 10.6468 -5.16865 255 0 0
-6.95712 10.4355 -4.80784 255 0 0
-3.05158 10.7167 -5.28551 255 0 0
-7.21898 10.3955 -4.83342 255 0 0
-3.01539 11.1916 -5.20921 255 0 0
-6.22098 11.9802 -5.14016 255 0 0
-4.3778 12.1372 -4.77618 255 0 0
-4.42153 12.0787 -4.76755 255 0 0
-4.43827 12.036 -4.76016 255 0 0
-4.42693 11.9181 -4.73553 255 0 0
-4.68876 10.5761 -4.4892 255 0 0
-6.27583 12.0859 -4.93013 255 0 0
-6.6221 11.9782 -4.94491 255 0 0
-6.79894 12.1615 -4.99788 255 0 0
-6.81934 12.1304 -4.99418 255 0 0
-6.93222 11.8014 -4.94491 255 0 0
-6.22529 10.4838 -4.62345 255 0 0
-6.256 10.4788 -4.62591 255 0 0
-7.28027 11.2642 -4.88579 255 0 0
-7.09927 10.5401 -4.7343 255 0 0
-7.19345 10.5177 -4.74169 255 0 0
-7.27788 10.4803 -4.74538 255 0 0
-2.89041 11.0398 -5.46824 255 0 0
-6.51141 10.2873 -4.93897 255 0 0
-4.41702 11.8056 -4.82191 255 0 0
-4.24933 12.0489 -4.86029 255 0 0
-4.28362 12.0549 -4.86413 255 0 0
-4.31027 12.0394 -4.86285 255 0 0
-4.42284 11.9071 -4.84366 255 0 0
-5.21205 10.4581 -4.61596 255 0 0
-5.2522 10.4763 -4.62364 255 0 0
-5.42176 10.5633 -4.65817 255 0 0
-6.21172 11.9624 -5.01763 255 0 0
-6.26041 11.9176 -5.01379 255 0 0
-6.1641 10.7254 -4.76946 255 0 0
-6.41893 10.4678 -4.749 255 0 0
-7.01684 10.4712 -4.82191 255 0 0
-7.08563 10.4662 -4.82959 255 0 0
-7.08793 10.4163 -4.82063 255 0 0
-7.12656 10.3933 -4.82127 255 0 0
-7.27885 10.4025 -4.84238 255 0 0
-7.33884 10.4093 -4.85133 255 0 0
-7.42789 10.4302 -4.86668 255 0 0
-5.64338 10.3232 -4.84005 255 0 0
-6.73298 10.3634 -4.87483 255 0 0
-3.93286 11.498 -4.93348 255 0 0
-3.06026 10.2828 -5.45634 255 0 0
-7.37563 10.305 -5.17081 255 0 0
-4.16306 12.0775 -4.97168 255 0 0
-4.18981 12.0622 -4.97035 255 0 0
-4.20898 12.0253 -4.96372 255 0 0
-4.26365 11.9091 -4.94249 255 0 0
-4.30449 11.8459 -4.93188 255 0 0
-4.3757 11.9535 -4.96107 255 0 0
-4.45815 12.0021 -4.97831 255 0 0
-4.38532 10.8499 -4.72227 255 0 0
-4.29017 10.4361 -4.62476 255 0 0
-4.43132 10.4606 -4.64267 255 0 0
-4.46953 10.4815 -4.65063 255 0 0
-5.39723 10.4544 -4.73686 255 0 0
-6.17778 10.6905 -4.87218 255 0 0
-6.25953 10.3173 -4.80718 255 0 0
-6.3859 10.4139 -4.84167 255 0 0
-6.42553 10.423 -4.8483 255 0 0
-6.45023 10.4077 -4.8483 255 0 0
-6.48394 10.4069 -4.85228 255 0 0
-5.11885 10.3324 -4.88514 255 0 0
-6.57915 10.3943 -4.86157 255 0 0
-6.67142 10.376 -4.86953 255 0 0
-6.7022 10.3697 -4.87218 255 0 0
-6.93052 10.3424 -4.89606 255 0 0
-6.98162 10.3389 -4.90203 255 0 0
-7.13115 10.3474 -4.92326 255 0 0
-7.18253 10.343 -4.92923 255 0 0
-7.32902 10.3692 -4.95377 255 0 0
-3.34148 10.7594 -5.01881 255 0 0
-3.12907 10.7466 -5.09906 255 0 0
-3.19079 11.1055 -5.0961 255 0 0
-3.79368 11.9156 -5.01867 255 0 0
-3.978 11.4524 -4.92661 255 0 0
-4.01712 11.3905 -4.91562 255 0 0
-3.99434 11.1569 -4.86066 255 0 0
-4.13454 10.8929 -4.81257 255 0 0
-4.13298 10.7351 -4.77684 255 0 0
-4.33216 10.3977 -4.71914 255 0 0
-4.37134 10.3875 -4.72051 255 0 0
-5.2259 10.3625 -4.80157 255 0 0
-5.58626 10.2765 -4.82356 255 0 0
-5.70879 10.3262 -4.84829 255 0 0
-5.77751 10.3922 -4.87027 255 0 0
-5.7938 10.3636 -4.86615 255 0 0
-5.99645 10.3201 -4.88127 255 0 0
-6.12807 10.2922 -4.89157 255 0 0
-6.18367 10.3021 -4.9005 255 0 0
-6.23058 10.2971 -4.90531 255 0 0
-6.31085 10.2915 -4.91424 255 0 0
-6.7684 10.284 -4.97195 255 0 0
-7.03117 10.3066 -5.0118 255 0 0
-7.20263 10.3197 -5.0379 255 0 0
-7.37281 10.3529 -5.06813 255 0 0
-3.45281 10.9346 -4.9706 255 0 0
-3.51597 11.814 -5.08412 255 0 0
-3.61909 12.0559 -5.14949 255 0 0
-3.5971 11.4863 -5.01163 255 0 0
-3.67664 11.2701 -4.96615 255 0 0
-3.74426 11.032 -4.91499 255 0 0
-3.76673 11.0124 -4.91215 255 0 0
-3.80181 10.862 -4.87946 255 0 0
-3.88183 10.6434 -4.83469 255 0 0
-3.90295 10.5842 -4.82261 255 0 0
-3.88452 10.4578 -4.79134 255 0 0
-4.13625 10.3394 -4.78636 255 0 0
-4.27252 10.4282 -4.81976 255 0 0
-4.40914 10.4082 -4.82829 255 0 0
-4.43828 10.3402 -4.8155 255 0 0
-4.44026 10.2775 -4.80129 255 0 0
-5.0843 10.3241 -4.87946 255 0 0
-5.1332 10.2999 -4.87946 255 0 0
-5.18511 10.312 -4.88798 255 0 0
-5.22175 10.2935 -4.88798 255 0 0
-5.30526 10.2763 -4.89367 255 0 0
-7.20906 10.2769 -5.14097 255 0 0
-3.28733 11.7025 -5.14901 255 0 0
-3.30149 11.389 -5.07192 255 0 0
-3.32999 11.3364 -5.0609 255 0 0
-3.35655 11.2783 -5.04842 255 0 0
-3.3621 11.1998 -5.02933 255 0 0
-3.37222 11.1375 -5.01465 255 0 0
-3.38537 11.0861 -5.0029 255 0 0
-3.40164 11.0455 -4.99409 255 0 0
-3.43365 10.9644 -4.97647 255 0 0
-3.46835 10.8493 -4.95077 255 0 0
-3.48861 10.7803 -4.93535 255 0 0
-3.5001 10.7289 -4.92361 255 0 0
-3.5329 10.7002 -4.9192 255 0 0
-3.59446 10.6737 -4.91773 255 0 0
-3.61794 10.6598 -4.91626 255 0 0
-3.65089 10.5107 -4.88249 255 0 0
-3.67018 10.4859 -4.87809 255 0 0
-3.68372 10.4451 -4.86928 255 0 0
-3.70658 10.431 -4.86781 255 0 0
-3.78068 10.4044 -4.86781 255 0 0
-3.81473 10.3829 -4.8656 255 0 0
-3.96611 10.3382 -4.86854 255 0 0
-4.02023 10.3324 -4.87221 255 0 0
-4.14502 10.3258 -4.88249 255 0 0
-4.16949 10.3159 -4.88249 255 0 0
-4.20248 10.327 -4.88836 255 0 0
-4.25789 10.3227 -4.89277 255 0 0
-4.28453 10.3178 -4.89424 255 0 0
-4.40442 10.3288 -4.90892 255 0 0
-7.32248 10.2822 -5.27015 255 0 0
-7.36004 10.2833 -5.27602 255 0 0
-7.40757 10.298 -5.2863 255 0 0
-3.28617 10.8533 -5.03851 255 0 0
-3.16162 11.6246 -5.22795 255 0 0
-3.15773 11.5025 -5.19612 255 0 0
-3.15026 11.3697 -5.16127 255 0 0
-3.15589 11.2859 -5.14005 255 0 0
-3.17496 11.2512 -5.13247 255 0 0
-3.19822 11.0327 -5.07792 255 0 0
-3.21325 10.9871 -5.06731 255 0 0
-3.24104 10.9377 -5.0567 255 0 0
-3.30033 10.8076 -5.02791 255 0 0
-3.32262 10.789 -5.02488 255 0 0
-3.36191 10.7353 -5.01427 255 0 0
-3.37543 10.6895 -5.00366 255 0 0
-3.40534 10.6088 -4.98547 255 0 0
-3.46399 10.4915 -4.96047 255 0 0
-3.52947 10.4399 -4.95289 255 0 0
-3.60579 10.3808 -4.94456 255 0 0
-3.9727 10.2824 -4.95365 255 0 0
-4.02865 10.2819 -4.95895 255 0 0
-4.08363 10.2784 -4.9635 255 0 0
-7.37424 10.2773 -5.38935 255 0 0
-3.17018 10.5151 -5.23831 255 0 0
-3.00844 11.3804 -5.25921 255 0 0
-3.00922 11.2751 -5.23109 255 0 0
-3.0197 11.1028 -5.18578 255 0 0
-3.02959 11.0357 -5.16859 255 0 0
-3.04068 10.9741 -5.15297 255 0 0
-3.0651 10.8618 -5.12484 255 0 0
-3.0905 10.8048 -5.11156 255 0 0
-3.14893 10.6732 -5.0811 255 0 0
-3.19207 10.5425 -5.04985 255 0 0
-3.23538 10.5057 -5.0436 255 0 0
-3.32236 10.3926 -5.02094 255 0 0
-3.3766 10.3504 -5.01443 255 0 0
-3.43375 10.3177 -5.01079 255 0 0
-6.72342 10.2952 -5.40452 255 0 0
-7.42538 10.2713 -5.5092 255 0 0
-3.24529 10.2774 -5.17787 255 0 0
-3.02581 11.557 -5.41486 255 0 0
-3.00573 11.3701 -5.36176 255 0 0
-3.03032 11.247 -5.32957 255 0 0
-3.02102 11.0045 -5.26198 255 0 0
-3.03508 10.9539 -5.24911 255 0 0
-3.05895 10.7426 -5.19279 255 0 0
-3.07198 10.692 -5.17991 255 0 0
-3.14273 10.5599 -5.14934 255 0 0
-3.22693 10.4343 -5.12198 255 0 0
-3.26625 10.3866 -5.11232 255 0 0
-3.29634 10.3535 -5.10589 255 0 0
-3.32432 10.3564 -5.1091 255 0 0
-3.3558 10.3699 -5.11554 255 0 0
-6.57057 10.2726 -5.48567 255 0 0
-6.96637 10.3428 -5.56453 255 0 0
-6.96878 10.2936 -5.55326 255 0 0
-2.8285 11.1257 -5.38487 255 0 0
-2.87953 11.0517 -5.36748 255 0 0
-2.92958 11.0821 -5.3799 255 0 0
-2.9964 11.2271 -5.42627 255 0 0
-3.0011 11.1386 -5.40143 255 0 0
-2.99627 10.8139 -5.30869 255 0 0
-3.01953 10.7491 -5.29213 255 0 0
-3.15943 10.7088 -5.29213 255 0 0
-3.20985 10.3356 -5.19111 255 0 0
-3.22595 10.3012 -5.18283 255 0 0
-2.884 11.2324 -5.52442 255 0 0
-2.87266 11.0792 -5.47845 255 0 0
-2.91371 11.0221 -5.46483 255 0 0
-2.92395 10.9556 -5.4461 255 0 0
-2.93764 10.8011 -5.40184 255 0 0
-2.94989 10.7454 -5.38651 255 0 0
-2.97215 10.6288 -5.35416 255 0 0
-3.08068 10.3964 -5.29542 255 0 0
-3.12266 10.3576 -5.28776 255 0 0
-3.16752 10.2853 -5.27073 255 0 0
-3.94689 10.3247 -5.35927 255 0 0
-3.99954 10.3885 -5.38311 255 0 0
-4.02821 10.3894 -5.38651 255 0 0
-4.03857 10.3433 -5.37459 255 0 0
-2.83771 11.0521 -5.57171 255 0 0
-2.83305 10.9264 -5.53323 255 0 0
-2.86178 10.9304 -5.53673 255 0 0
-2.86341 10.8318 -5.50699 255 0 0
-2.86603 10.7386 -5.479 255 0 0
-2.89052 10.6278 -5.44752 255 0 0
-2.9024 10.5724 -5.43178 255 0 0
-2.92 10.5386 -5.42303 255 0 0
-2.96258 10.4512 -5.40029 255 0 0
-3.00894 10.3798 -5.3828 255 0 0
-3.02256 10.3351 -5.37056 255 0 0
-3.07737 10.2956 -5.36356 255 0 0
-3.11397 10.2846 -5.36356 255 0 0
-4.04652 10.3637 -5.4825 255 0 0
-4.07313 10.3592 -5.48425 255 0 0
-4.07094 10.282 -5.46151 255 0 0
-2.88096 10.6927 -5.56767 255 0 0
-2.91245 10.6091 -5.54432 255 0 0
-2.92272 10.5484 -5.52637 255 0 0
-2.93271 10.4878 -5.50841 255 0 0
-2.94697 10.4433 -5.49585 255 0 0
-2.96257 10.4041 -5.48507 255 0 0
-2.98949 10.3587 -5.4734 255 0 0
-3.02837 10.3096 -5.46173 255 0 0
-3.02957 10.3136 -5.56197 255 0 0
