ply
format ascii 1.0
comment Created by Open3D
element vertex 1212
property double x
property double y
property double z
property uchar red
property uchar green
property uchar blue
end_header
-0.550198 -4.52784 -3.85606 255 0 0
-1.14349 -4.88398 -3.70854 255 0 0
-0.851159 -4.61023 -3.77284 255 0 0
-0.433322 -5.88481 -4.40118 255 0 0
-1.09582 -4.10587 -3.81218 255 0 0
-2.09499 -4.31843 -3.95317 255 0 0
-0.397473 -4.28603 -3.92074 255 0 0
-0.748725 -4.84468 -3.71536 255 0 0
-0.974463 -3.72192 -3.79406 255 0 0
-0.796489 -4.68649 -3.70787 255 0 0
-1.96663 -4.3248 -3.97948 255 0 0
-1.08308 -4.07748 -3.88257 255 0 0
-1.08466 -4.42732 -3.81089 255 0 0
-1.44916 -4.17204 -3.88339 255 0 0
-0.638839 -4.12828 -3.86408 255 0 0
-0.472054 -4.40751 -3.89028 255 0 0
-0.987301 -4.47089 -3.77506 255 0 0
-0.925505 -4.50269 -3.78211 255 0 0
-1.70894 -4.38711 -3.78043 255 0 0
-1.05988 -4.25334 -3.82635 255 0 0
-1.20154 -4.27751 -3.76513 255 0 0
-1.05408 -4.36208 -3.73978 255 0 0
-1.25384 -4.17675 -3.85965 255 0 0
-0.940019 -4.32559 -3.79054 255 0 0
-1.40482 -4.20456 -3.71861 255 0 0
-1.45858 -4.29754 -3.80296 255 0 0
-0.677168 -5.80238 -4.04412 255 0 0
-1.04203 -4.47432 -3.78105 255 0 0
-1.58811 -3.98349 -3.91359 255 0 0
-1.21094 -5.34299 -3.76498 255 0 0
-0.722659 -4.25217 -3.79707 255 0 0
-1.13405 -4.41682 -3.81161 255 0 0
-1.35564 -3.77246 -3.82886 255 0 0
-0.827999 -4.02831 -3.87625 255 0 0
-0.510893 -4.28929 -3.84204 255 0 0
-0.530231 -4.5907 -3.92543 255 0 0
-1.39132 -4.29937 -3.92703 255 0 0
-1.04953 -4.5804 -3.77698 255 0 0
-0.721181 -4.18341 -3.85212 255 0 0
-1.62116 -3.70404 -3.84466 255 0 0
-1.24327 -3.97831 -3.8599 255 0 0
-0.64541 -4.43122 -3.82222 255 0 0
-0.536751 -4.13068 -3.85871 255 0 0
-0.595689 -4.6709 -3.8255 255 0 0
-0.959456 -4.55814 -3.76145 255 0 0
-1.68758 -4.66141 -3.7347 255 0 0
-1.46269 -4.179 -3.93173 255 0 0
-1.79436 -4.0474 -3.88798 255 0 0
-1.54157 -5.41376 -3.81346 255 0 0
-1.45021 -4.08117 -3.93268 255 0 0
-0.510184 -5.64718 -4.25262 255 0 0
-1.61228 -4.10054 -3.92237 255 0 0
-1.64513 -4.54404 -3.73625 255 0 0
-1.43536 -4.33007 -3.90066 255 0 0
-1.08144 -4.17091 -3.83745 255 0 0
-1.69369 -4.03802 -3.86731 255 0 0
-1.88075 -5.17581 -4.18776 255 0 0
-1.34284 -4.53179 -3.92338 255 0 0
-0.651883 -4.79408 -3.73823 255 0 0
-1.54168 -4.42145 -3.86025 255 0 0
-0.294052 -7.2911 -5.25612 255 0 0
-2.04987 -4.27696 -3.93 255 0 0
-0.815415 -5.08973 -3.75574 255 0 0
-1.84359 -3.78112 -3.91919 255 0 0
-1.83732 -4.53028 -3.77929 255 0 0
-0.669826 -5.30222 -3.87007 255 0 0
-1.74822 -4.54085 -3.74812 255 0 0
-1.64492 -3.58336 -3.8386 255 0 0
-1.78379 -4.0756 -3.89717 255 0 0
-1.04667 -4.37682 -3.78783 255 0 0
-1.26281 -4.47505 -3.75834 255 0 0
-1.03576 -4.67274 -3.67475 255 0 0
-1.93214 -4.9833 -4.07207 255 0 0
-0.620348 -4.25921 -3.87788 255 0 0
-1.64798 -5.09245 -3.77362 255 0 0
-0.554786 -5.68901 -4.216 255 0 0
-0.385765 -4.32735 -3.93864 255 0 0
-1.39103 -3.67795 -3.83365 255 0 0
-1.89352 -4.21699 -3.88108 255 0 0
-1.10737 -4.38474 -3.81113 255 0 0
-0.633922 -5.546 -4.00549 255 0 0
-1.00027 -3.85778 -3.8584 255 0 0
-0.532421 -4.97114 -4.08307 255 0 0
-0.710789 -4.24321 -3.79257 255 0 0
-0.538378 -4.34473 -3.8241 255 0 0
-0.506091 -4.57175 -3.96148 255 0 0
-1.97374 -3.98401 -3.98397 255 0 0
-1.6385 -4.81512 -3.73245 255 0 0
-0.534954 -4.83262 -3.97855 255 0 0
-0.745585 -4.58408 -3.75627 255 0 0
-1.5375 -4.67523 -3.72213 255 0 0
-0.751434 -4.32824 -3.78765 255 0 0
-0.951656 -4.10849 -3.7984 255 0 0
-2.0661 -4.14567 -3.97526 255 0 0
-0.420185 -5.35926 -4.50674 255 0 0
-0.674626 -4.67073 -3.73989 255 0 0
-1.07154 -4.57667 -3.68873 255 0 0
-1.24786 -4.54553 -3.73787 255 0 0
-0.451385 -5.93784 -4.42325 255 0 0
-1.80778 -4.44237 -3.76825 255 0 0
-0.898501 -4.09949 -3.83105 255 0 0
-0.664908 -5.16478 -3.87087 255 0 0
-0.945285 -4.26457 -3.86271 255 0 0
-1.32712 -3.64324 -3.80808 255 0 0
-1.0913 -4.4241 -3.72313 255 0 0
-0.656564 -4.91578 -3.78178 255 0 0
-1.40343 -4.53797 -3.70655 255 0 0
-1.42798 -5.06036 -3.74231 255 0 0
-0.910181 -4.40167 -3.78566 255 0 0
-0.870685 -4.26159 -3.76999 255 0 0
-1.92956 -3.80368 -3.53233 255 0 0
-1.03651 -4.72917 -3.69409 255 0 0
-1.64312 -4.8038 -3.72931 255 0 0
-1.81786 -4.3777 -3.97498 255 0 0
-1.80925 -3.65196 -3.90047 255 0 0
-1.92838 -4.29463 -3.96147 255 0 0
-1.44203 -4.15151 -3.7038 255 0 0
-1.505 -4.54015 -3.71843 255 0 0
-1.09925 -4.04175 -3.86905 255 0 0
-1.69325 -4.27667 -3.96148 255 0 0
-1.86065 -4.90208 -3.78594 255 0 0
-0.979666 -4.68169 -3.71843 255 0 0
-1.88434 -4.31928 -3.87214 255 0 0
-1.3781 -3.77849 -3.83493 255 0 0
-1.44236 -4.47511 -3.77802 255 0 0
-1.20553 -4.56032 -3.69467 255 0 0
-0.978715 -4.1142 -3.8451 255 0 0
-0.465893 -5.15693 -4.15739 255 0 0
-0.761644 -4.68299 -3.70457 255 0 0
-1.29146 -4.22915 -3.88568 255 0 0
-0.735128 -4.65929 -3.82867 255 0 0
-0.663983 -6.64561 -4.39946 255 0 0
-0.411951 -5.09907 -4.38548 255 0 0
-0.539262 -4.03752 -3.7772 255 0 0
-0.384629 -4.3731 -3.95892 255 0 0
-0.729959 -5.32096 -3.82937 255 0 0
-0.551974 -4.36912 -3.79206 255 0 0
-1.02221 -4.23017 -3.85582 255 0 0
-1.49641 -4.27534 -3.93162 255 0 0
-0.78525 -4.42949 -3.74401 255 0 0
-0.303509 -6.7327 -5.1427 255 0 0
-1.4975 -3.8353 -3.83723 255 0 0
-0.704502 -4.08666 -3.87117 255 0 0
-1.74413 -4.06344 -3.88568 255 0 0
-0.9831 -4.6162 -3.69566 255 0 0
-0.557341 -4.98065 -3.99104 255 0 0
-0.631763 -4.26663 -3.79707 255 0 0
-1.57705 -4.12539 -3.88339 255 0 0
-0.882975 -5.0503 -3.7463 255 0 0
-1.45779 -4.24549 -3.87026 255 0 0
-1.10676 -4.03155 -3.82403 255 0 0
-1.49225 -3.91748 -3.87064 255 0 0
-1.69203 -3.73269 -3.86977 255 0 0
-0.952211 -3.94051 -3.84952 255 0 0
-0.99427 -4.58844 -3.68675 255 0 0
-0.794291 -4.48052 -3.76412 255 0 0
-1.3147 -3.67219 -3.81881 255 0 0
-0.868691 -5.42228 -3.81966 255 0 0
-0.606208 -4.09403 -3.84678 255 0 0
-2.0043 -4.18187 -3.97756 255 0 0
-1.59364 -5.40156 -3.81436 255 0 0
-0.398745 -4.66017 -4.13387 255 0 0
-1.44083 -4.63942 -3.69989 255 0 0
-0.426559 -4.37411 -4.00506 255 0 0
-0.893464 -4.99403 -3.72805 255 0 0
-1.09069 -3.91825 -3.85559 255 0 0
-0.534322 -5.22266 -4.13635 255 0 0
-1.65671 -3.88516 -3.84276 255 0 0
-0.581777 -4.8844 -3.90699 255 0 0
-0.78025 -4.59104 -3.80539 255 0 0
-0.967335 -3.88195 -3.82521 255 0 0
-1.10258 -4.46985 -3.69736 255 0 0
-0.760333 -3.96029 -3.83979 255 0 0
-1.16254 -4.23472 -3.74459 255 0 0
-0.900137 -3.99368 -3.86774 255 0 0
-0.583175 -5.38467 -4.07392 255 0 0
-0.413682 -4.46096 -4.04395 255 0 0
-1.35478 -4.2206 -3.89028 255 0 0
-0.912273 -4.21003 -3.79482 255 0 0
-0.786941 -4.83863 -3.71536 255 0 0
-1.42942 -4.27832 -3.92358 255 0 0
-1.64732 -4.132 -3.85337 255 0 0
-1.54796 -4.54315 -3.72437 255 0 0
-1.0368 -5.23266 -3.76763 255 0 0
-0.604144 -4.60651 -3.80116 255 0 0
-1.46681 -4.64518 -3.7501 255 0 0
-1.83435 -3.95893 -3.94699 255 0 0
-1.65012 -3.52834 -3.81633 255 0 0
-0.675371 -4.34748 -3.8331 255 0 0
-0.724141 -4.17103 -3.80529 255 0 0
-0.832508 -5.53194 -3.85373 255 0 0
-1.01911 -4.92844 -3.7142 255 0 0
-0.722753 -6.74824 -4.37482 255 0 0
-1.34808 -4.41458 -3.92318 255 0 0
-0.691406 -4.59422 -3.80116 255 0 0
-1.74539 -5.16266 -3.80585 255 0 0
-1.87633 -5.16364 -4.23566 255 0 0
-0.546024 -4.12593 -3.81583 255 0 0
-0.650588 -5.14994 -3.86493 255 0 0
-1.74533 -4.03978 -3.96369 255 0 0
-1.37805 -4.5127 -3.92007 255 0 0
-1.79559 -4.56674 -3.76297 255 0 0
-1.35291 -4.32006 -3.93047 255 0 0
-2.10854 -4.28161 -3.94213 255 0 0
-1.19461 -4.08474 -3.85681 255 0 0
-0.88703 -4.48629 -3.77294 255 0 0
-1.2411 -4.52089 -3.77284 255 0 0
-0.517624 -5.18074 -4.11869 255 0 0
-0.298266 -6.98456 -5.18946 255 0 0
-1.95223 -3.80356 -3.78131 255 0 0
-0.411643 -5.09525 -4.28103 255 0 0
-0.620233 -5.00505 -3.8594 255 0 0
-0.687856 -4.47435 -3.78389 255 0 0
-0.54245 -4.46408 -3.87364 255 0 0
-0.981586 -4.02014 -3.82597 255 0 0
-1.19238 -3.63558 -3.78416 255 0 0
-2.13603 -4.28598 -3.99525 255 0 0
-0.555087 -5.42563 -4.1144 255 0 0
-1.87004 -3.75226 -3.91271 255 0 0
-1.16381 -4.08712 -3.81218 255 0 0
-1.13803 -3.87426 -3.84223 255 0 0
-0.796085 -4.58531 -3.7599 255 0 0
-1.80522 -4.37653 -3.88078 255 0 0
-0.627242 -4.78263 -3.77838 255 0 0
-0.242297 -7.29657 -5.25771 255 0 0
-0.695106 -4.22644 -3.82654 255 0 0
-0.566748 -5.29165 -4.11426 255 0 0
-0.562164 -6.57007 -4.49357 255 0 0
-0.497123 -4.09093 -3.88014 255 0 0
-1.54476 -4.15877 -3.8053 255 0 0
-1.45856 -4.04378 -3.87554 255 0 0
-0.857278 -4.61274 -3.72976 255 0 0
-0.895581 -4.08621 -3.86666 255 0 0
-0.794273 -5.19403 -3.78972 255 0 0
-1.10859 -5.14547 -3.74415 255 0 0
-0.52568 -5.97682 -4.32606 255 0 0
-1.19813 -4.17007 -3.76558 255 0 0
-1.19579 -4.01798 -3.87064 255 0 0
-0.3977 -6.98138 -5.19027 255 0 0
-0.923799 -4.3126 -3.83761 255 0 0
-1.42487 -4.36766 -3.91417 255 0 0
-0.579614 -4.37923 -3.79758 255 0 0
-1.2023 -4.12928 -3.834 255 0 0
-1.29382 -4.64813 -3.68829 255 0 0
-1.51679 -4.20523 -3.90635 255 0 0
-1.91054 -4.04764 -3.95281 255 0 0
-1.38343 -4.45459 -3.94345 255 0 0
-1.78969 -5.13277 -3.80124 255 0 0
-0.590711 -4.07255 -3.87747 255 0 0
-0.968253 -5.31502 -3.79019 255 0 0
-1.28397 -4.33304 -3.79539 255 0 0
-1.59608 -5.07545 -3.76303 255 0 0
-0.700007 -4.00385 -3.85438 255 0 0
-0.921729 -4.40482 -3.78783 255 0 0
-1.18972 -4.41567 -3.72935 255 0 0
-1.66395 -4.41539 -3.96597 255 0 0
-0.997684 -4.30721 -3.84211 255 0 0
-0.504295 -4.98765 -4.0887 255 0 0
-1.94197 -3.76156 -3.93134 255 0 0
-1.93669 -4.19282 -3.92431 255 0 0
-1.73831 -4.30084 -3.7542 255 0 0
-0.812874 -6.82461 -4.34098 255 0 0
-0.751086 -4.54988 -3.74384 255 0 0
-0.294436 -4.42854 -3.93642 255 0 0
-0.690744 -6.75159 -4.37482 255 0 0
-1.89077 -3.66241 -3.79827 255 0 0
-1.4354 -5.32752 -3.77755 255 0 0
-1.14183 -4.03708 -3.83046 255 0 0
-0.597833 -4.4356 -3.7781 255 0 0
-1.13827 -5.13518 -3.74292 255 0 0
-1.72315 -4.70728 -3.75404 255 0 0
-0.447818 -5.71171 -4.38709 255 0 0
-1.65066 -3.97505 -3.87788 255 0 0
-1.401 -5.05636 -3.73862 255 0 0
-0.827583 -4.25605 -3.84893 255 0 0
-0.5882 -6.68765 -4.47514 255 0 0
-1.07604 -4.23255 -3.81959 255 0 0
-1.54029 -3.49661 -3.78169 255 0 0
-0.960876 -3.5663 -3.7223 255 0 0
-1.823 -4.83744 -4.05373 255 0 0
-1.0042 -4.28904 -3.83536 255 0 0
-2.04131 -4.27209 -3.97273 255 0 0
-1.53929 -4.4485 -3.78009 255 0 0
-0.609053 -4.40092 -3.85112 255 0 0
-0.660008 -4.18317 -3.88973 255 0 0
-1.53398 -3.9014 -3.87064 255 0 0
-0.617049 -5.07799 -3.93438 255 0 0
-0.538704 -4.03334 -3.81576 255 0 0
-1.96862 -4.14519 -3.95688 255 0 0
-0.846264 -4.67682 -3.70754 255 0 0
-1.57524 -4.12066 -3.92471 255 0 0
-1.86773 -3.70354 -3.52924 255 0 0
-1.41034 -4.39369 -3.83322 255 0 0
-1.39249 -4.4651 -3.7687 255 0 0
-0.674933 -4.21286 -3.86149 255 0 0
-1.10939 -4.27865 -3.79868 255 0 0
-1.04399 -3.91168 -3.84709 255 0 0
-1.41711 -3.89988 -3.85155 255 0 0
-1.26197 -3.5783 -3.76931 255 0 0
-1.33016 -4.11038 -3.8849 255 0 0
-1.14219 -4.44855 -3.69331 255 0 0
-0.846185 -4.58329 -3.76248 255 0 0
-1.30475 -4.50094 -3.72774 255 0 0
-1.28003 -4.70637 -3.70666 255 0 0
-0.600834 -5.42771 -4.01333 255 0 0
-1.66193 -3.87193 -3.88018 255 0 0
-1.39556 -4.77185 -3.69344 255 0 0
-1.32355 -4.29773 -3.87364 255 0 0
-1.74483 -4.29734 -3.84259 255 0 0
-1.27525 -5.5055 -3.82064 255 0 0
-0.792136 -4.23428 -3.79482 255 0 0
-0.607551 -5.37154 -4.01855 255 0 0
-1.4055 -4.07749 -3.67205 255 0 0
-2.04229 -4.18441 -3.98559 255 0 0
-0.442924 -4.32964 -3.98562 255 0 0
-1.18843 -4.43203 -3.77894 255 0 0
-0.478644 -4.27773 -3.92074 255 0 0
-1.1858 -4.24054 -3.8346 255 0 0
-1.35148 -4.22754 -3.93642 255 0 0
-1.83659 -5.12995 -3.80554 255 0 0
-1.07369 -3.63923 -3.76931 255 0 0
-0.770147 -3.7695 -3.79406 255 0 0
-0.743462 -5.27992 -3.81615 255 0 0
-0.421556 -5.54545 -4.59334 255 0 0
-0.476128 -5.41342 -4.21139 255 0 0
-0.618887 -4.8073 -3.8329 255 0 0
-0.817662 -4.54953 -3.74799 255 0 0
-1.00168 -3.75315 -3.81138 255 0 0
-1.54042 -4.2081 -3.91095 255 0 0
-1.08423 -3.89519 -3.84466 255 0 0
-0.685204 -4.48079 -3.8008 255 0 0
-1.29913 -5.0433 -3.72573 255 0 0
-1.08298 -4.3904 -3.79647 255 0 0
-1.70377 -4.55375 -3.79255 255 0 0
-1.46245 -4.61236 -3.69312 255 0 0
-1.0925 -4.71655 -3.69409 255 0 0
-1.42744 -3.9871 -3.88973 255 0 0
-1.33812 -5.06187 -3.73494 255 0 0
-2.06928 -4.2526 -3.97047 255 0 0
-1.25791 -5.04803 -3.72389 255 0 0
-1.1413 -4.13817 -3.83056 255 0 0
-0.635435 -4.71503 -3.75407 255 0 0
-0.893615 -4.42726 -3.79431 255 0 0
-2.05026 -4.21351 -3.99823 255 0 0
-1.83935 -4.04491 -3.89487 255 0 0
-1.02739 -4.58349 -3.73179 255 0 0
-1.41424 -4.7111 -3.72116 255 0 0
-0.732855 -4.37472 -3.78353 255 0 0
-1.34483 -4.72275 -3.71826 255 0 0
-1.84251 -5.03337 -4.12939 255 0 0
-0.641855 -6.74743 -4.4351 255 0 0
-0.497888 -4.35588 -3.86961 255 0 0
-0.604922 -4.22348 -3.86149 255 0 0
-1.29217 -3.8827 -3.86693 255 0 0
-0.672682 -5.12911 -3.81012 255 0 0
-0.5919 -4.35296 -3.78765 255 0 0
-0.556708 -4.4068 -3.80751 255 0 0
-1.23319 -4.85068 -3.70477 255 0 0
-0.949796 -4.2848 -3.8286 255 0 0
-1.84914 -3.97856 -3.95773 255 0 0
-1.04777 -4.29135 -3.79758 255 0 0
-0.427212 -5.44889 -4.49357 255 0 0
-0.335695 -6.73647 -5.14517 255 0 0
-0.874555 -4.01301 -3.87382 255 0 0
-1.96849 -3.85773 -3.9759 255 0 0
-1.6458 -4.43068 -3.78734 255 0 0
-1.24012 -5.07913 -3.73248 255 0 0
-1.16093 -3.90082 -3.85681 255 0 0
-0.545713 -4.04928 -3.8641 255 0 0
-1.55213 -4.08926 -3.90832 255 0 0
-1.30134 -5.49939 -3.82064 255 0 0
-1.46417 -4.41699 -3.89358 255 0 0
-1.21411 -5.41654 -3.78832 255 0 0
-1.20241 -3.54275 -3.74457 255 0 0
-0.448323 -6.74321 -5.15136 255 0 0
-0.702084 -5.66556 -3.94453 255 0 0
-1.94043 -4.03636 -3.95398 255 0 0
-1.30798 -4.35711 -3.80728 255 0 0
-2.14279 -4.32518 -3.9642 255 0 0
-0.539764 -4.2727 -3.83653 255 0 0
-0.447867 -5.54363 -4.31728 255 0 0
-0.733573 -4.44387 -3.74613 255 0 0
-0.542752 -5.368 -4.14345 255 0 0
-0.624586 -4.76238 -3.81633 255 0 0
-0.492904 -4.05634 -3.90542 255 0 0
-0.498708 -5.82845 -4.32396 255 0 0
-0.754112 -5.17761 -3.78217 255 0 0
-0.579997 -5.29672 -4.06572 255 0 0
-0.497517 -5.98146 -4.38449 255 0 0
-0.425862 -4.02123 -3.88562 255 0 0
-1.73019 -4.52612 -3.78648 255 0 0
-1.70336 -4.45582 -3.80391 255 0 0
-0.73835 -4.08043 -3.85036 255 0 0
-1.47794 -3.47734 -3.76189 255 0 0
-0.810543 -4.41963 -3.82848 255 0 0
-1.59919 -4.55163 -3.73328 255 0 0
-0.763139 -5.15387 -3.77462 255 0 0
-0.527893 -4.92887 -4.01717 255 0 0
-1.62901 -4.3697 -3.85268 255 0 0
-1.754 -3.51942 -3.83365 255 0 0
-0.49483 -6.94492 -5.1765 255 0 0
-2.06735 -4.22315 -4.00512 255 0 0
-1.49199 -4.57343 -3.72833 255 0 0
-0.960752 -4.64623 -3.70457 255 0 0
-1.63327 -4.24228 -3.93851 255 0 0
-1.73202 -4.80194 -3.73875 255 0 0
-1.91094 -5.22029 -4.26215 255 0 0
-2.02695 -4.32083 -3.94213 255 0 0
-1.93261 -3.78742 -3.73027 255 0 0
-0.428413 -5.63565 -4.52202 255 0 0
-1.68252 -5.11627 -3.78467 255 0 0
-0.460897 -4.11878 -3.89083 255 0 0
-0.989472 -4.18145 -3.79032 255 0 0
-1.22266 -4.21775 -3.74459 255 0 0
-1.61635 -3.53227 -3.81138 255 0 0
-1.33657 -4.4715 -3.72065 255 0 0
-1.09398 -4.6393 -3.71249 255 0 0
-0.988195 -4.5604 -3.76456 255 0 0
-0.756588 -6.76122 -4.38062 255 0 0
-1.28606 -3.51325 -3.74457 255 0 0
-0.613911 -5.26035 -3.95257 255 0 0
-1.68936 -3.98791 -3.88959 255 0 0
-1.10591 -3.95488 -3.83246 255 0 0
-0.801722 -4.6506 -3.73989 255 0 0
-1.48905 -4.47424 -3.7832 255 0 0
-1.73838 -4.18629 -3.8008 255 0 0
-1.49726 -4.70276 -4.00834 255 0 0
-0.422493 -5.73774 -4.62481 255 0 0
-1.49486 -5.39503 -3.80358 255 0 0
-1.34854 -4.27062 -3.9098 255 0 0
-1.42764 -3.61837 -3.81386 255 0 0
-0.30307 -4.40074 -3.88109 255 0 0
-0.629185 -5.39123 -3.95006 255 0 0
-0.509023 -5.21974 -4.13414 255 0 0
-0.895596 -4.66483 -3.70655 255 0 0
-1.6571 -4.64593 -3.726 255 0 0
-1.09297 -4.52309 -3.71559 255 0 0
-0.999174 -4.07133 -3.87064 255 0 0
-1.76245 -3.75696 -3.89326 255 0 0
-0.894262 -4.57958 -3.72031 255 0 0
-0.764137 -6.68521 -4.2919 255 0 0
-1.58074 -4.4485 -3.78527 255 0 0
-1.15902 -5.0859 -3.72849 255 0 0
-0.611606 -4.84136 -3.84533 255 0 0
-1.03358 -3.88502 -3.83412 255 0 0
-1.86266 -5.12602 -4.1144 255 0 0
-1.25018 -4.55399 -3.69665 255 0 0
-0.697677 -4.42233 -3.82185 255 0 0
-1.30011 -3.9854 -3.87064 255 0 0
-0.614273 -6.29901 -4.33336 255 0 0
-0.688028 -4.36076 -3.79647 255 0 0
-0.69813 -4.76711 -3.73097 255 0 0
-0.516035 -5.56468 -4.22019 255 0 0
-0.801241 -4.17337 -3.81218 255 0 0
-1.25924 -4.80962 -3.69344 255 0 0
-1.24339 -4.61484 -3.71711 255 0 0
-0.734032 -4.87768 -3.726 255 0 0
-1.48026 -3.79116 -3.85681 255 0 0
-0.602061 -5.26725 -4.0048 255 0 0
-1.14014 -4.3547 -3.83179 255 0 0
-1.8013 -3.7813 -3.91088 255 0 0
-1.54269 -3.7316 -3.84223 255 0 0
-1.99621 -4.33512 -3.94213 255 0 0
-0.690738 -4.06435 -3.83962 255 0 0
-1.6968 -4.56807 -3.79661 255 0 0
-0.988674 -3.50359 -3.69755 255 0 0
-0.799903 -6.85405 -4.35042 255 0 0
-0.545875 -4.58298 -3.87813 255 0 0
-1.90883 -4.11969 -3.93621 255 0 0
-1.12657 -4.18127 -3.84664 255 0 0
-1.49416 -5.0644 -3.74967 255 0 0
-0.952513 -3.96233 -3.85924 255 0 0
-0.465027 -6.52664 -5.05114 255 0 0
-0.844161 -4.23413 -3.82702 255 0 0
-1.24381 -4.44803 -3.79058 255 0 0
-1.09618 -4.91752 -3.71609 255 0 0
-1.39899 -4.23715 -3.77269 255 0 0
-1.86275 -4.2287 -3.88034 255 0 0
-0.632903 -4.57335 -3.74592 255 0 0
-1.48079 -4.50286 -3.72529 255 0 0
-1.27673 -4.58667 -3.71051 255 0 0
-1.24573 -4.18576 -3.81959 255 0 0
-1.88171 -4.32732 -3.82938 255 0 0
-1.22758 -4.66606 -3.68829 255 0 0
-0.547541 -4.79028 -3.962 255 0 0
-0.955961 -3.7979 -3.82623 255 0 0
-0.852587 -4.27631 -3.7744 255 0 0
-0.718496 -4.93307 -3.74437 255 0 0
-1.41759 -4.56458 -3.76217 255 0 0
-1.02498 -4.42507 -3.76095 255 0 0
-1.59047 -4.01707 -3.9279 255 0 0
-1.60031 -3.76524 -3.86653 255 0 0
-1.38713 -5.03711 -3.73125 255 0 0
-0.540406 -5.82748 -4.26891 255 0 0
-1.48749 -4.55962 -3.76825 255 0 0
-0.907157 -4.23491 -3.88959 255 0 0
-1.01959 -4.59981 -3.69269 255 0 0
-1.845 -3.53256 -3.8584 255 0 0
-1.18399 -5.11153 -3.73862 255 0 0
-0.719095 -5.38396 -3.85013 255 0 0
-1.44116 -4.0557 -3.87788 255 0 0
-1.3912 -4.63429 -3.69312 255 0 0
-1.78627 -4.86182 -3.76423 255 0 0
-1.25242 -4.3983 -3.72935 255 0 0
-0.823749 -4.71163 -3.71843 255 0 0
-0.8988 -4.5081 -3.78211 255 0 0
-1.28103 -4.15966 -3.89895 255 0 0
-1.90135 -4.28873 -3.90903 255 0 0
-1.90165 -4.2621 -3.85412 255 0 0
-1.09632 -4.32677 -3.81634 255 0 0
-0.757668 -3.84778 -3.8287 255 0 0
-0.848026 -4.36118 -3.85112 255 0 0
-0.741989 -4.5965 -3.7166 255 0 0
-0.940825 -4.43059 -3.77763 255 0 0
-0.992816 -4.91871 -3.70917 255 0 0
-1.21928 -4.13272 -3.83745 255 0 0
-0.678381 -4.98895 -3.76177 255 0 0
-0.97599 -3.95664 -3.85924 255 0 0
-1.70463 -4.13265 -3.90635 255 0 0
-1.20131 -4.8701 -3.70854 255 0 0
-0.787337 -4.23627 -3.83745 255 0 0
-0.997264 -4.38831 -3.78783 255 0 0
-0.579687 -4.96711 -3.93873 255 0 0
-1.00044 -4.18366 -3.83439 255 0 0
-1.85372 -5.17784 -4.18488 255 0 0
-0.608199 -5.21141 -3.98409 255 0 0
-1.56102 -5.38498 -3.80628 255 0 0
-0.856927 -3.73984 -3.78911 255 0 0
-0.885592 -3.90748 -3.8683 255 0 0
-1.5101 -4.70448 -3.7289 255 0 0
-1.00457 -3.64237 -3.76189 255 0 0
-1.9467 -3.74892 -3.88495 255 0 0
-1.57731 -4.64737 -3.71729 255 0 0
-0.618967 -5.09377 -3.8918 255 0 0
-0.492974 -6.10195 -4.43205 255 0 0
-1.19019 -3.88428 -3.86158 255 0 0
-1.77063 -4.44131 -3.80805 255 0 0
-0.256215 -6.7506 -5.15012 255 0 0
-1.01701 -4.53723 -3.75834 255 0 0
-0.248518 -6.98473 -5.18865 255 0 0
-0.581548 -5.0878 -3.9853 255 0 0
-1.59564 -4.83922 -3.7356 255 0 0
-1.06255 -4.74038 -3.69989 255 0 0
-0.700206 -4.37055 -3.82984 255 0 0
-0.94584 -4.77347 -3.70279 255 0 0
-0.44745 -6.72999 -5.14517 255 0 0
-1.81565 -4.20255 -3.90742 255 0 0
-0.457245 -4.26923 -3.95888 255 0 0
-0.521747 -6.09771 -4.37262 255 0 0
-0.755733 -4.23383 -3.834 255 0 0
-1.38499 -4.57434 -3.71711 255 0 0
-1.63701 -3.72421 -3.856 255 0 0
-1.90796 -3.9329 -3.95057 255 0 0
-0.5475 -5.75553 -4.2414 255 0 0
-0.98847 -4.52284 -3.72874 255 0 0
-0.643089 -4.45234 -3.74401 255 0 0
-1.01017 -3.91505 -3.84466 255 0 0
-1.72921 -4.10907 -3.81413 255 0 0
-1.49068 -5.03062 -3.73862 255 0 0
-0.650899 -6.67459 -4.40936 255 0 0
-1.20864 -3.99179 -3.86109 255 0 0
-0.579161 -5.40755 -4.05658 255 0 0
-1.14004 -4.23128 -3.78323 255 0 0
-1.7681 -4.09249 -3.81413 255 0 0
-1.54137 -3.74946 -3.84952 255 0 0
-1.03213 -4.27128 -3.83085 255 0 0
-0.995543 -4.39261 -3.74613 255 0 0
-0.660221 -4.387 -3.8053 255 0 0
-0.44001 -5.78821 -4.41862 255 0 0
-1.78869 -4.07359 -3.91904 255 0 0
-1.08488 -5.18459 -3.7552 255 0 0
-1.50674 -4.43942 -3.77284 255 0 0
-0.286333 -4.46663 -3.90865 255 0 0
-0.893114 -4.12162 -3.7984 255 0 0
-0.596064 -6.42767 -4.37995 255 0 0
-0.400164 -4.37133 -3.8719 255 0 0
-1.48262 -4.26837 -3.88265 255 0 0
-0.733631 -4.13831 -3.87541 255 0 0
-0.680272 -4.59423 -3.75627 255 0 0
-1.36265 -3.95319 -3.86587 255 0 0
-1.10366 -3.98325 -3.84439 255 0 0
-0.889584 -4.57505 -3.76248 255 0 0
-1.32407 -3.87103 -3.86653 255 0 0
-1.98527 -4.27144 -3.91675 255 0 0
-1.64055 -4.03141 -3.89895 255 0 0
-0.851606 -4.49316 -3.77294 255 0 0
-0.483594 -5.35286 -4.18711 255 0 0
-0.533438 -5.4701 -4.18344 255 0 0
-1.49637 -5.35122 -3.79012 255 0 0
-0.780657 -4.46515 -3.8008 255 0 0
-0.932954 -4.40633 -3.74613 255 0 0
-2.08188 -4.33056 -4.002 255 0 0
-0.691542 -4.03051 -3.86572 255 0 0
-1.18979 -3.98029 -3.83304 255 0 0
-1.83797 -4.14576 -3.97856 255 0 0
-0.294064 -4.42295 -3.89028 255 0 0
-1.14097 -4.57878 -3.69533 255 0 0
-1.42855 -4.25877 -3.95983 255 0 0
-1.8503 -4.39683 -3.80391 255 0 0
-0.661342 -5.44249 -3.91842 255 0 0
-1.81522 -4.28503 -3.93895 255 0 0
-1.36917 -4.80831 -3.70288 255 0 0
-0.655694 -4.73794 -3.71843 255 0 0
-1.14252 -3.61821 -3.76931 255 0 0
-0.843906 -4.164 -3.85368 255 0 0
-0.865384 -4.28745 -3.90832 255 0 0
-1.03064 -4.17821 -3.83515 255 0 0
-1.73437 -4.47322 -3.81426 255 0 0
-1.02908 -4.17188 -3.79032 255 0 0
-1.34921 -3.88428 -3.83485 255 0 0
-0.310098 -4.35222 -3.94699 255 0 0
-1.30205 -4.0073 -3.88018 255 0 0
-0.588318 -4.22677 -3.81984 255 0 0
-1.6505 -3.47535 -3.79406 255 0 0
-0.609542 -5.1175 -3.94888 255 0 0
-1.94191 -3.96691 -3.97085 255 0 0
-0.694058 -4.92912 -3.74179 255 0 0
-0.953304 -4.07167 -3.90785 255 0 0
-0.592573 -5.65947 -4.15185 255 0 0
-1.63478 -4.47412 -3.80132 255 0 0
-2.12193 -4.23261 -3.97273 255 0 0
-0.593298 -4.28707 -3.76116 255 0 0
-1.27435 -4.43538 -3.70141 255 0 0
-1.52466 -4.7114 -3.73277 255 0 0
-1.28013 -4.33894 -3.71071 255 0 0
-0.755052 -4.1447 -3.83807 255 0 0
-1.34963 -4.10403 -3.8849 255 0 0
-0.589226 -6.52209 -4.41438 255 0 0
-1.46479 -4.83779 -4.0569 255 0 0
-0.613399 -4.5926 -3.75213 255 0 0
-0.394759 -4.74604 -4.17276 255 0 0
-1.71492 -4.30158 -3.83971 255 0 0
-0.914552 -4.53105 -3.74799 255 0 0
-1.66246 -3.61037 -3.85345 255 0 0
-0.418681 -5.18237 -4.37205 255 0 0
-1.45361 -4.5285 -3.71988 255 0 0
-0.968885 -3.81105 -3.83365 255 0 0
-1.31733 -4.27755 -3.90865 255 0 0
-1.34239 -5.36892 -3.78294 255 0 0
-0.925845 -3.73431 -3.79406 255 0 0
-0.759794 -4.37636 -3.80751 255 0 0
-1.07568 -4.08218 -3.82794 255 0 0
-1.52075 -3.63782 -3.8386 255 0 0
-0.615985 -5.1716 -3.92016 255 0 0
-0.832877 -4.33818 -3.79758 255 0 0
-0.530609 -4.6422 -3.92408 255 0 0
-0.431842 -5.8647 -4.45014 255 0 0
-0.784886 -5.47996 -3.83439 255 0 0
-1.43714 -4.5264 -3.76586 255 0 0
-0.999793 -3.97199 -3.82769 255 0 0
-1.14718 -4.58048 -3.7409 255 0 0
-1.33333 -4.55906 -3.70655 255 0 0
-1.64176 -4.51803 -3.7723 255 0 0
-1.29634 -4.55253 -3.70061 255 0 0
-0.604539 -6.35514 -4.35361 255 0 0
-1.74522 -4.57342 -3.77014 255 0 0
-1.52824 -5.31903 -3.78294 255 0 0
-1.44774 -5.37324 -3.79281 255 0 0
-1.41441 -5.37636 -3.79101 255 0 0
-1.40076 -5.42887 -3.80628 255 0 0
-1.36447 -5.42087 -3.80089 255 0 0
-1.32192 -5.41419 -3.7955 255 0 0
-1.29337 -5.35231 -3.77396 255 0 0
-1.29104 -5.39872 -3.78832 255 0 0
-1.25399 -5.35594 -3.77216 255 0 0
-1.24601 -5.43788 -3.7973 255 0 0
-1.76025 -4.07433 -3.93642 255 0 0
-1.49734 -3.7558 -3.84466 255 0 0
-1.74235 -4.14031 -3.95983 255 0 0
-1.41908 -4.38516 -3.83106 255 0 0
-1.00453 -4.13559 -3.85681 255 0 0
-1.87166 -5.15079 -3.81598 255 0 0
-1.82643 -5.17879 -3.81966 255 0 0
-1.77867 -5.16013 -3.80861 255 0 0
-1.71213 -5.16502 -3.80308 255 0 0
-1.54592 -5.06239 -3.75397 255 0 0
-1.50458 -5.05552 -3.74783 255 0 0
-1.44429 -5.02681 -3.7331 255 0 0
-1.35106 -5.03829 -3.72849 255 0 0
-1.29334 -5.06199 -3.73125 255 0 0
-1.2035 -5.08602 -3.73187 255 0 0
-1.05919 -5.18424 -3.75336 255 0 0
-1.00709 -5.24555 -3.76993 255 0 0
-0.989335 -5.28851 -3.78282 255 0 0
-0.944192 -5.36307 -3.80447 255 0 0
-0.8951 -5.38275 -3.80815 255 0 0
-0.856699 -5.42981 -3.8215 255 0 0
-0.837673 -5.47775 -3.83624 255 0 0
-0.803485 -5.51659 -3.84729 255 0 0
-0.597411 -4.24269 -3.74351 255 0 0
-1.26639 -4.79054 -3.68777 255 0 0
-1.00912 -4.2198 -3.76558 255 0 0
-0.740897 -4.73232 -3.7209 255 0 0
-1.14492 -4.37299 -3.75248 255 0 0
-1.82811 -4.74837 -3.73308 255 0 0
-1.8307 -4.78893 -3.7463 255 0 0
-1.84126 -4.92122 -3.78972 255 0 0
-1.76422 -4.85512 -3.75951 255 0 0
-1.74118 -4.86343 -3.75951 255 0 0
-1.69586 -4.82068 -3.74064 255 0 0
-1.54017 -4.8242 -3.7249 255 0 0
-1.53308 -4.77605 -3.70854 255 0 0
-1.50569 -4.80799 -3.71609 255 0 0
-1.50245 -4.87864 -3.73875 255 0 0
-1.4466 -4.79135 -3.70477 255 0 0
-1.45974 -4.86266 -3.72931 255 0 0
-1.41314 -4.78979 -3.70099 255 0 0
-1.36679 -4.7571 -3.68589 255 0 0
-1.37131 -4.85955 -3.71987 255 0 0
-1.34658 -4.8377 -3.71043 255 0 0
-1.29397 -4.78027 -3.68683 255 0 0
-1.31062 -4.81885 -3.70099 255 0 0
-1.25738 -4.87309 -3.7142 255 0 0
-1.19772 -4.83098 -3.69533 255 0 0
-1.15078 -4.8291 -3.69092 255 0 0
-1.09106 -4.86758 -3.6991 255 0 0
-1.07832 -4.86474 -3.69721 255 0 0
-1.04756 -4.89034 -3.70351 255 0 0
-0.978745 -4.97051 -3.72553 255 0 0
-0.943352 -4.97731 -3.72553 255 0 0
-0.837734 -5.07486 -3.75196 255 0 0
-0.834125 -5.053 -3.74441 255 0 0
-0.79989 -5.06975 -3.74819 255 0 0
-0.796375 -5.12641 -3.76707 255 0 0
-0.745763 -5.20681 -3.79161 255 0 0
-0.700832 -5.49534 -3.88695 255 0 0
-0.826378 -6.80066 -4.33343 255 0 0
-1.5973 -4.42844 -3.96147 255 0 0
-1.88955 -5.16185 -4.29025 255 0 0
-0.834578 -4.52042 -3.78211 255 0 0
-0.457101 -5.34218 -4.23395 255 0 0
-1.48864 -4.42053 -3.94345 255 0 0
-1.53851 -3.56108 -3.80891 255 0 0
-1.80042 -4.2783 -3.84403 255 0 0
-1.83826 -4.67539 -3.75791 255 0 0
-1.80261 -4.69319 -3.7592 255 0 0
-1.7404 -4.66847 -3.7434 255 0 0
-1.73528 -4.63796 -3.73277 255 0 0
-1.63713 -4.67741 -3.73405 255 0 0
-1.59419 -4.67274 -3.72761 255 0 0
-1.5465 -4.62859 -3.70762 255 0 0
-1.44284 -4.68508 -3.71536 255 0 0
-1.43182 -4.7289 -3.7289 255 0 0
-1.38888 -4.66677 -3.70376 255 0 0
-1.34304 -4.6744 -3.70182 255 0 0
-1.2764 -4.69305 -3.70182 255 0 0
-1.25271 -4.69371 -3.69989 255 0 0
-1.20054 -4.67593 -3.68925 255 0 0
-1.17464 -4.71386 -3.69989 255 0 0
-1.13001 -4.67642 -3.68345 255 0 0
-1.13718 -4.70598 -3.69409 255 0 0
-1.12384 -4.80004 -3.72503 255 0 0
-1.07514 -4.69219 -3.68442 255 0 0
-1.01986 -4.76105 -3.70376 255 0 0
-0.997122 -4.70939 -3.68442 255 0 0
-0.989338 -4.78441 -3.70956 255 0 0
-0.895321 -4.78601 -3.70376 255 0 0
-0.867155 -4.82491 -3.71536 255 0 0
-0.837603 -4.79086 -3.70182 255 0 0
-0.814875 -4.79478 -3.70182 255 0 0
-0.34599 -7.2906 -5.25692 255 0 0
-0.667447 -5.38606 -3.89908 255 0 0
-0.768224 -6.72097 -4.36708 255 0 0
-0.709628 -6.77742 -4.38449 255 0 0
-1.55395 -3.92483 -3.75879 255 0 0
-0.545905 -4.3629 -3.83198 255 0 0
-1.73594 -3.61098 -3.8683 255 0 0
-1.06128 -4.34668 -3.82075 255 0 0
-1.05585 -3.69138 -3.79035 255 0 0
-1.80957 -4.32872 -3.72976 255 0 0
-1.83656 -4.57518 -3.77122 255 0 0
-1.79055 -4.55394 -3.75802 255 0 0
-1.69099 -4.53599 -3.73922 255 0 0
-1.59657 -4.573 -3.74021 255 0 0
-1.53428 -4.57395 -3.73328 255 0 0
-1.41297 -4.51192 -3.69863 255 0 0
-1.34474 -4.53817 -3.72275 255 0 0
-1.30051 -4.53985 -3.69665 255 0 0
-1.19359 -4.62607 -3.71645 255 0 0
-1.12797 -4.61983 -3.70853 255 0 0
-1.11183 -4.60107 -3.70061 255 0 0
-1.0769 -4.69987 -3.73229 255 0 0
-1.06332 -4.69166 -3.72833 255 0 0
-1.04255 -4.65115 -3.71249 255 0 0
-1.0134 -4.62375 -3.70061 255 0 0
-1.04145 -4.13752 -3.86149 255 0 0
-0.941622 -4.66513 -3.70985 255 0 0
-0.891797 -4.63022 -3.7162 255 0 0
-0.779028 -4.71923 -3.71843 255 0 0
-0.684573 -4.73942 -3.72041 255 0 0
-0.66712 -5.08669 -3.84315 255 0 0
-0.65464 -5.28271 -3.91244 255 0 0
-0.647431 -5.32801 -3.92828 255 0 0
-0.644572 -5.41161 -3.95798 255 0 0
-0.642832 -5.74464 -4.07676 255 0 0
-0.675395 -6.16793 -4.22921 255 0 0
-0.704781 -6.58045 -4.37769 255 0 0
-0.694342 -6.63143 -4.3955 255 0 0
-0.681981 -6.66594 -4.40738 255 0 0
-1.68824 -4.32379 -3.84403 255 0 0
-1.26976 -4.41938 -3.82674 255 0 0
-0.391057 -4.32858 -4.02667 255 0 0
-0.573976 -4.67736 -3.87214 255 0 0
-0.385909 -4.51016 -4.1108 255 0 0
-1.17945 -4.10505 -3.82137 255 0 0
-1.18359 -4.23256 -3.76715 255 0 0
-1.84768 -4.47945 -3.78648 255 0 0
-1.78402 -4.4904 -3.78141 255 0 0
-1.77696 -4.56698 -3.80673 255 0 0
-1.75181 -4.58257 -3.80876 255 0 0
-1.58916 -4.54029 -3.77351 255 0 0
-1.53163 -4.53046 -3.76318 255 0 0
-1.50909 -4.55251 -3.76825 255 0 0
-1.4513 -4.48473 -3.73787 255 0 0
-1.38634 -4.47644 -3.72774 255 0 0
-1.32106 -4.43889 -3.70748 255 0 0
-1.26082 -4.42782 -3.69736 255 0 0
-1.23854 -4.47019 -3.71018 255 0 0
-1.23854 -4.44948 -3.72465 255 0 0
-1.18607 -4.47597 -3.71809 255 0 0
-1.0429 -3.76394 -3.82128 255 0 0
-1.17017 -4.38444 -3.67305 255 0 0
-1.15104 -4.48314 -3.70647 255 0 0
-1.04701 -4.53252 -3.71508 255 0 0
-1.04714 -4.4884 -3.72832 255 0 0
-0.991302 -4.57456 -3.72571 255 0 0
-0.947674 -4.52876 -3.72774 255 0 0
-0.942418 -4.58487 -3.72571 255 0 0
-0.828049 -4.57621 -3.71457 255 0 0
-0.791699 -4.59237 -3.71812 255 0 0
-0.701646 -4.62506 -3.7247 255 0 0
-0.646783 -4.63307 -3.7247 255 0 0
-0.627597 -4.92107 -3.82901 255 0 0
-0.603193 -5.63193 -4.08828 255 0 0
-0.621304 -5.93386 -4.19968 255 0 0
-0.634072 -6.19766 -4.2969 255 0 0
-0.627022 -6.27567 -4.32526 255 0 0
-0.389737 -4.49184 -4.0797 255 0 0
-1.20172 -4.03788 -3.83807 255 0 0
-1.52925 -3.9721 -3.89927 255 0 0
-1.92424 -3.771 -3.60094 255 0 0
-1.88689 -4.42494 -3.81909 255 0 0
-1.86311 -4.45679 -3.82669 255 0 0
-1.77018 -4.47096 -3.8184 255 0 0
-1.67976 -4.44135 -3.79562 255 0 0
-1.60365 -4.513 -3.81115 255 0 0
-1.55003 -4.47958 -3.79251 255 0 0
-1.44174 -4.4552 -3.77077 255 0 0
-1.38825 -4.43286 -3.77865 255 0 0
-1.11599 -4.38968 -3.71278 255 0 0
-1.13224 -4.54373 -3.77077 255 0 0
-1.0938 -4.47988 -3.74384 255 0 0
-1.08443 -4.53472 -3.76317 255 0 0
-1.04158 -4.52124 -3.77658 255 0 0
-0.984935 -4.49385 -3.7397 255 0 0
-0.929678 -4.55033 -3.75627 255 0 0
-0.711171 -4.54244 -3.73867 255 0 0
-1.19201 -4.36903 -3.78463 255 0 0
-0.686273 -4.56011 -3.74384 255 0 0
-0.645661 -4.5854 -3.75109 255 0 0
-0.613596 -4.9515 -3.88675 255 0 0
-0.603121 -5.89514 -4.2409 255 0 0
-0.591557 -5.99262 -4.27715 255 0 0
-0.578289 -6.0792 -4.30925 255 0 0
-0.565391 -6.09691 -4.31546 255 0 0
-0.563746 -6.24006 -4.36931 255 0 0
-0.559986 -6.36686 -4.41694 255 0 0
-0.492467 -7.27682 -5.25453 255 0 0
-1.95534 -3.83196 -3.66782 255 0 0
-1.85617 -4.32448 -3.82444 255 0 0
-1.69038 -4.0981 -3.71861 255 0 0
-1.75735 -4.31846 -3.80751 255 0 0
-1.84436 -4.89412 -4.02763 255 0 0
-1.83727 -5.01905 -4.07207 255 0 0
-1.83895 -5.17515 -4.12922 255 0 0
-1.4565 -4.42899 -3.80751 255 0 0
-1.57791 -5.12367 -4.07842 255 0 0
-1.20867 -4.48598 -3.80116 255 0 0
-1.21633 -4.55741 -3.82867 255 0 0
-1.1406 -4.46431 -3.78634 255 0 0
-1.13655 -4.44846 -3.77999 255 0 0
-1.09567 -4.44183 -3.77364 255 0 0
-1.08437 -4.53448 -3.80751 255 0 0
-0.980756 -4.42471 -3.77871 255 0 0
-0.740246 -4.51744 -3.7747 255 0 0
-0.730046 -4.48871 -3.76306 255 0 0
-0.634666 -4.48165 -3.76925 255 0 0
-0.617154 -4.53868 -3.77576 255 0 0
-0.595567 -4.47946 -3.78435 255 0 0
-0.586155 -4.77663 -3.86571 255 0 0
-0.580411 -5.18682 -4.02339 255 0 0
-0.560559 -5.35371 -4.08689 255 0 0
-0.568274 -5.68768 -4.216 255 0 0
-0.53199 -5.88856 -4.29219 255 0 0
-0.519959 -6.25127 -4.43188 255 0 0
-1.89336 -4.17693 -3.9108 255 0 0
-0.54074 -4.0732 -3.87463 255 0 0
-1.89209 -3.708 -3.65379 255 0 0
-1.8449 -4.25632 -3.84295 255 0 0
-1.9031 -4.37643 -3.89592 255 0 0
-1.79146 -4.22892 -3.82458 255 0 0
-1.71874 -4.34105 -3.85484 255 0 0
-1.76939 -4.53163 -3.93267 255 0 0
-1.70019 -4.44753 -3.89159 255 0 0
-1.60969 -4.36526 -3.84836 255 0 0
-1.51667 -4.30048 -3.81161 255 0 0
-1.45266 -4.23056 -3.77702 255 0 0
-1.47965 -4.39382 -3.84187 255 0 0
-1.38506 -4.35036 -3.81377 255 0 0
-1.40424 -4.44704 -3.85268 255 0 0
-1.32864 -4.24263 -3.76621 255 0 0
-1.34698 -4.37368 -3.81809 255 0 0
-1.20211 -4.11039 -3.70135 255 0 0
-1.17528 -4.20296 -3.73378 255 0 0
-1.15484 -4.327 -3.77918 255 0 0
-1.15214 -4.38993 -3.81399 255 0 0
-1.03983 -4.41759 -3.80296 255 0 0
-0.959952 -4.43006 -3.8008 255 0 0
-0.867344 -4.40476 -3.7835 255 0 0
-0.844297 -4.42584 -3.78999 255 0 0
-0.802671 -4.4262 -3.78711 255 0 0
-0.791233 -4.40248 -3.77702 255 0 0
-0.740799 -4.43881 -3.78783 255 0 0
-0.698379 -4.42641 -3.78026 255 0 0
-0.638696 -4.42166 -3.77485 255 0 0
-0.643449 -4.49247 -3.80296 255 0 0
-0.576304 -4.56192 -3.82674 255 0 0
-0.569585 -4.78204 -3.91321 255 0 0
-0.567076 -4.85905 -3.94348 255 0 0
-0.566059 -4.95229 -3.98023 255 0 0
-0.556192 -5.07933 -4.02995 255 0 0
-0.559866 -5.3471 -4.13588 255 0 0
-0.527681 -5.54719 -4.2137 255 0 0
-0.505374 -5.74594 -4.29153 255 0 0
-1.58669 -4.24074 -3.93085 255 0 0
-1.22253 -4.33229 -3.83179 255 0 0
-0.480192 -6.97265 -5.18865 255 0 0
-0.846182 -4.11677 -3.87541 255 0 0
-2.05675 -4.33077 -3.95096 255 0 0
-1.90602 -4.19151 -3.87372 255 0 0
-1.86214 -4.28225 -3.9002 255 0 0
-1.84604 -5.1371 -4.22132 255 0 0
-1.46279 -4.21128 -3.81413 255 0 0
-1.50214 -4.49581 -3.92889 255 0 0
-1.41552 -4.55791 -3.94213 255 0 0
-1.45898 -4.73749 -4.01717 255 0 0
-1.2529 -4.28407 -3.81634 255 0 0
-1.21497 -4.26679 -3.8053 255 0 0
-1.21079 -4.32996 -3.82958 255 0 0
-1.21178 -4.4141 -3.86268 255 0 0
-1.14153 -4.19716 -3.76999 255 0 0
-1.14344 -4.28428 -3.82591 255 0 0
-1.00681 -4.30022 -3.79721 255 0 0
-0.98722 -4.30847 -3.79868 255 0 0
-0.959256 -4.27958 -3.7847 255 0 0
-0.91558 -4.32427 -3.79868 255 0 0
-0.9131 -4.36358 -3.81413 255 0 0
-0.891361 -4.33678 -3.82314 255 0 0
-0.840548 -4.3781 -3.81413 255 0 0
-0.773244 -4.30239 -3.77882 255 0 0
-0.718602 -4.28986 -3.76999 255 0 0
-0.676021 -4.35166 -3.79206 255 0 0
-0.538231 -5.14047 -4.10324 255 0 0
-0.495759 -5.27821 -4.15731 255 0 0
-0.470689 -5.501 -4.2467 255 0 0
-0.468884 -5.63722 -4.30187 255 0 0
-0.462068 -5.7194 -4.33498 255 0 0
-0.459951 -5.86647 -4.39456 255 0 0
-0.955744 -4.21701 -3.80158 255 0 0
-2.08411 -4.25739 -3.97498 255 0 0
-2.00903 -4.26944 -3.96597 255 0 0
-1.81388 -4.14437 -3.8849 255 0 0
-1.63339 -4.02746 -3.83199 255 0 0
-1.6021 -4.16133 -3.85787 255 0 0
-1.88726 -5.13675 -4.28012 255 0 0
-1.49925 -4.2511 -3.87814 255 0 0
-1.43862 -4.27199 -3.87814 255 0 0
-1.40452 -4.34017 -3.90066 255 0 0
-1.38941 -4.3819 -3.9153 255 0 0
-1.36007 -4.34298 -3.89616 255 0 0
-1.29164 -4.31493 -3.87664 255 0 0
-1.26076 -4.31093 -3.87139 255 0 0
-1.22796 -4.23604 -3.83761 255 0 0
-1.1907 -4.18149 -3.82559 255 0 0
-1.1437 -4.23154 -3.82635 255 0 0
-1.15583 -4.28988 -3.85112 255 0 0
-1.1294 -4.31368 -3.85787 255 0 0
-1.09345 -4.27272 -3.83761 255 0 0
-0.959704 -4.18839 -3.79032 255 0 0
-0.886871 -4.28907 -3.82485 255 0 0
-0.847019 -4.32831 -3.83761 255 0 0
-0.802874 -4.32022 -3.83085 255 0 0
-0.783179 -4.29913 -3.82072 255 0 0
-0.752121 -4.30193 -3.81959 255 0 0
-0.688305 -4.27464 -3.81804 255 0 0
-0.641259 -4.27479 -3.83485 255 0 0
-1.42479 -3.57383 -3.79406 255 0 0
-0.642456 -4.33879 -3.82747 255 0 0
-0.630008 -4.43618 -3.86688 255 0 0
-0.577677 -4.32518 -3.81809 255 0 0
-0.524791 -4.79256 -4.00876 255 0 0
-0.525698 -5.02077 -4.10334 255 0 0
-0.48727 -5.12237 -4.14388 255 0 0
-0.460768 -5.23879 -4.19117 255 0 0
-0.448017 -5.38634 -4.25197 255 0 0
-1.79892 -3.98102 -3.94938 255 0 0
-0.893641 -4.22065 -3.83975 255 0 0
-0.44933 -7.27961 -5.25453 255 0 0
-1.94499 -4.12062 -3.9431 255 0 0
-1.89525 -4.09032 -3.92243 255 0 0
-1.84266 -4.09071 -3.91324 255 0 0
-1.74275 -4.04252 -3.87726 255 0 0
-1.67441 -4.08685 -3.88339 255 0 0
-1.65253 -4.06087 -3.86961 255 0 0
-1.66937 -4.15863 -3.91095 255 0 0
-1.64218 -4.18389 -3.91669 255 0 0
-1.59402 -4.19962 -3.91554 255 0 0
-1.53176 -4.15391 -3.88798 255 0 0
-1.55251 -4.27249 -3.93851 255 0 0
-1.50404 -4.23266 -3.91554 255 0 0
-1.4788 -4.16162 -3.88339 255 0 0
-1.45155 -4.2111 -3.89946 255 0 0
-1.4105 -4.13977 -3.86501 255 0 0
-1.38019 -4.18589 -3.87956 255 0 0
-1.17197 -4.19114 -3.85582 255 0 0
-1.13938 -4.18925 -3.87275 255 0 0
-1.07095 -4.21253 -3.85353 255 0 0
-1.03241 -4.12227 -3.81218 255 0 0
-0.969888 -4.09869 -3.79611 255 0 0
-0.943623 -4.14073 -3.81104 255 0 0
-0.933011 -4.16246 -3.81908 255 0 0
-0.891653 -4.12657 -3.8211 255 0 0
-0.874806 -4.18058 -3.82137 255 0 0
-0.841041 -4.1413 -3.82283 255 0 0
-0.840116 -4.18766 -3.82137 255 0 0
-0.691665 -4.17455 -3.83571 255 0 0
-0.65482 -4.21519 -3.81908 255 0 0
-0.589533 -4.18674 -3.803 255 0 0
-0.537095 -4.19803 -3.8326 255 0 0
-0.501519 -4.32692 -3.88605 255 0 0
-0.446765 -4.33289 -3.88609 255 0 0
-0.436764 -4.37144 -3.87343 255 0 0
-0.376983 -4.40584 -3.88568 255 0 0
-0.343552 -4.38151 -3.8742 255 0 0
-0.339426 -4.46556 -3.9098 255 0 0
-0.34125 -4.41955 -3.89028 255 0 0
-0.928498 -4.14233 -3.85212 255 0 0
-1.78145 -3.98006 -3.92408 255 0 0
-1.62941 -4.05908 -3.90832 255 0 0
-1.64363 -4.12276 -3.93642 255 0 0
-1.62386 -4.1882 -3.95983 255 0 0
-1.55 -4.11301 -3.91769 255 0 0
-1.504 -4.0786 -3.89661 255 0 0
-1.47067 -4.10786 -3.90364 255 0 0
-1.41138 -4.09456 -3.88959 255 0 0
-1.41609 -4.17235 -3.92237 255 0 0
-1.28149 -4.09208 -3.87086 255 0 0
-1.09743 -4.11192 -3.85681 255 0 0
-1.05038 -4.09095 -3.84276 255 0 0
-0.951867 -4.08744 -3.83105 255 0 0
-0.947807 -4.18199 -3.87086 255 0 0
-0.784964 -4.17754 -3.86855 255 0 0
-0.771522 -4.07067 -3.80764 255 0 0
-0.751315 -4.23807 -3.87788 255 0 0
-0.673306 -4.26746 -3.8849 255 0 0
-0.639945 -4.21829 -3.86149 255 0 0
-0.631158 -4.12736 -3.82168 255 0 0
-0.512239 -4.30058 -3.88959 255 0 0
-0.480192 -4.38527 -3.92471 255 0 0
-0.42909 -4.32954 -3.92696 255 0 0
-0.900948 -3.76763 -3.80643 255 0 0
-0.393143 -4.39032 -3.92315 255 0 0
-0.369228 -4.43909 -3.94344 255 0 0
-0.343296 -4.37836 -3.91612 255 0 0
-0.312382 -4.38427 -3.91769 255 0 0
-0.87057 -4.11168 -3.87541 255 0 0
-0.420727 -4.42284 -4.02693 255 0 0
-1.94409 -3.92412 -3.95415 255 0 0
-1.90083 -3.96601 -3.9625 255 0 0
-1.84949 -3.92626 -3.93665 255 0 0
-1.79775 -3.92869 -3.9279 255 0 0
-1.77515 -3.90373 -3.91359 255 0 0
-1.74081 -3.90161 -3.90643 255 0 0
-1.7399 -3.93711 -3.92074 255 0 0
-1.77304 -4.05105 -3.97324 255 0 0
-1.65255 -3.80026 -3.84916 255 0 0
-1.68316 -3.97331 -3.92552 255 0 0
-1.67463 -4.00592 -3.93745 255 0 0
-1.64872 -3.97037 -3.91836 255 0 0
-1.65594 -4.02813 -3.94341 255 0 0
-1.5906 -3.92197 -3.88853 255 0 0
-1.5141 -3.96073 -3.89211 255 0 0
-1.45157 -3.82433 -3.8253 255 0 0
-1.43819 -3.77549 -3.82307 255 0 0
-1.45165 -3.93657 -3.87223 255 0 0
-1.45503 -4.034 -3.91359 255 0 0
-1.39073 -3.9434 -3.86587 255 0 0
-1.39551 -3.98706 -3.88495 255 0 0
-1.3572 -3.98332 -3.8778 255 0 0
-1.33896 -4.02329 -3.89211 255 0 0
-1.37593 -4.11808 -3.93745 255 0 0
-1.23977 -3.92619 -3.83723 255 0 0
-1.19314 -3.9406 -3.83723 255 0 0
-1.14821 -3.92609 -3.8253 255 0 0
-1.14077 -3.9703 -3.8639 255 0 0
-1.15051 -4.04044 -3.87462 255 0 0
-1.04724 -4.03897 -3.86189 255 0 0
-1.01284 -4.02385 -3.85155 255 0 0
-0.943139 -3.98582 -3.82769 255 0 0
-0.948104 -4.00663 -3.83723 255 0 0
-0.936335 -4.08623 -3.87064 255 0 0
-0.926746 -4.04455 -3.85155 255 0 0
-0.882657 -4.02702 -3.83962 255 0 0
-0.858628 -4.10327 -3.87064 255 0 0
-0.8093 -4.03423 -3.83604 255 0 0
-0.792213 -4.12638 -3.87493 255 0 0
-0.701716 -4.01363 -3.81815 255 0 0
-0.685946 -4.1248 -3.86587 255 0 0
-0.644241 -4.08321 -3.87762 255 0 0
-0.604206 -4.14837 -3.87064 255 0 0
-0.622419 -4.34564 -3.95892 255 0 0
-0.593474 -4.21473 -3.89927 255 0 0
-0.58789 -4.32346 -3.94699 255 0 0
-0.530106 -4.19622 -3.88734 255 0 0
-0.513218 -4.18216 -3.88018 255 0 0
-0.491686 -4.24215 -3.90563 255 0 0
-0.445774 -4.29023 -3.92472 255 0 0
-0.36699 -4.41218 -3.97562 255 0 0
-0.42004 -5.35742 -4.39795 255 0 0
-0.320416 -4.35147 -3.94699 255 0 0
-0.398308 -7.29686 -5.26089 255 0 0
-1.86438 -3.80853 -3.93458 255 0 0
-1.9497 -3.84338 -3.96617 255 0 0
-1.89661 -3.79057 -3.93377 255 0 0
-1.7401 -3.74387 -3.88354 255 0 0
-1.59448 -3.73102 -3.85114 255 0 0
-1.496 -3.73528 -3.83574 255 0 0
-1.45748 -3.83989 -3.87382 255 0 0
-1.42246 -3.80186 -3.85195 255 0 0
-1.41354 -3.81939 -3.85802 255 0 0
-1.3452 -3.83363 -3.85357 255 0 0
-1.33207 -3.82034 -3.84587 255 0 0
-1.23696 -3.88518 -3.86021 255 0 0
-1.17324 -3.90826 -3.86167 255 0 0
-1.1359 -3.93591 -3.86896 255 0 0
-1.05465 -3.91434 -3.84952 255 0 0
-0.990983 -3.89797 -3.83493 255 0 0
-0.98954 -3.9313 -3.84952 255 0 0
-0.980035 -4.09819 -3.92243 255 0 0
-0.909988 -3.92861 -3.83979 255 0 0
-0.839991 -3.99053 -3.87074 255 0 0
-0.797362 -3.97474 -3.84952 255 0 0
-0.796601 -4.0455 -3.88111 255 0 0
-0.769721 -3.95848 -3.83979 255 0 0
-0.748287 -4.02625 -3.86835 255 0 0
-0.718985 -4.00049 -3.85438 255 0 0
-0.659392 -4.02423 -3.86045 255 0 0
-0.599257 -4.04709 -3.86653 255 0 0
-0.473081 -4.13885 -3.90055 255 0 0
-0.459828 -4.19929 -3.92729 255 0 0
-0.398591 -4.53185 -4.07554 255 0 0
-0.423982 -5.57737 -4.55189 255 0 0
-0.447563 -6.98192 -5.19189 255 0 0
-0.347847 -6.98049 -5.18865 255 0 0
-1.8089 -3.58688 -3.87325 255 0 0
-1.79658 -3.67003 -3.90542 255 0 0
-1.71215 -3.53997 -3.83365 255 0 0
-1.55097 -3.52091 -3.79406 255 0 0
-1.57235 -3.61582 -3.8386 255 0 0
-1.46727 -3.41842 -3.73467 255 0 0
-1.46938 -3.5385 -3.78664 255 0 0
-1.4727 -3.59453 -3.81138 255 0 0
-1.48618 -3.65208 -3.8386 255 0 0
-1.43178 -3.54243 -3.78169 255 0 0
-1.3896 -3.52206 -3.7656 255 0 0
-1.39135 -3.62672 -3.81138 255 0 0
-1.34645 -3.54737 -3.76931 255 0 0
-1.34263 -3.58851 -3.78664 255 0 0
-1.20668 -3.47395 -3.71487 255 0 0
-1.25378 -3.63735 -3.79406 255 0 0
-1.18533 -3.60441 -3.76931 255 0 0
-1.14993 -3.58243 -3.75447 255 0 0
-1.14715 -3.66308 -3.78994 255 0 0
-1.15053 -3.70467 -3.80891 255 0 0
-1.09188 -3.66886 -3.78499 255 0 0
-1.1014 -3.73336 -3.81509 255 0 0
-1.01149 -3.68452 -3.78169 255 0 0
-0.983424 -3.7744 -3.81881 255 0 0
-0.883102 -3.73192 -3.78829 255 0 0
-0.871682 -3.88885 -3.8584 255 0 0
-0.837194 -3.77693 -3.80396 255 0 0
-0.808923 -3.69078 -3.76189 255 0 0
-0.829389 -3.82753 -3.82623 255 0 0
-0.794011 -3.75008 -3.78746 255 0 0
-0.765407 -3.79213 -3.80396 255 0 0
-0.745 -3.73668 -3.77674 255 0 0
-0.742139 -3.91564 -3.8584 255 0 0
-0.476381 -3.99953 -3.8782 255 0 0
-0.465666 -3.99011 -3.87325 255 0 0
-0.46645 -4.08083 -3.91531 255 0 0
-0.437298 -3.90789 -3.83365 255 0 0
-0.443627 -4.05135 -3.90047 255 0 0
-0.4229 -4.13359 -3.93759 255 0 0
-0.400204 -4.10386 -3.92274 255 0 0
-0.374284 -4.25548 -3.99203 255 0 0
-0.413083 -5.60994 -4.62304 255 0 0
-0.399472 -6.73122 -5.14435 255 0 0
-0.368215 -6.74542 -5.15012 255 0 0
-0.280222 -6.74964 -5.15012 255 0 0
-0.231752 -6.7382 -5.14394 255 0 0
-0.524211 -7.11913 -5.18533 255 0 0
-0.51721 -7.25903 -5.24737 255 0 0
