ply
format ascii 1.0
comment Created by Open3D
element vertex 399
property double x
property double y
property double z
property uchar red
property uchar green
property uchar blue
end_header
10.8033 -0.102442 -4.70322 255 0 0
12.0477 0.14284 -4.17614 255 0 0
11.9953 0.412559 -4.16782 255 0 0
11.7227 -0.236287 -4.21851 255 0 0
11.7652 0.0557915 -4.22613 255 0 0
12.1016 0.358769 -4.60497 255 0 0
10.9095 0.738318 -4.73591 255 0 0
12.0226 0.45631 -4.17302 255 0 0
11.2855 0.710021 -4.53153 255 0 0
11.283 -0.656165 -4.53025 255 0 0
11.7905 0.293593 -4.23157 255 0 0
11.9936 -0.0568849 -4.16626 255 0 0
11.2958 0.939549 -4.6367 255 0 0
12.3763 -0.366911 -4.66409 255 0 0
12.3075 0.160506 -4.11763 255 0 0
12.105 0.0717537 -4.49953 255 0 0
11.719 -0.0972525 -4.21742 255 0 0
12.4825 0.518229 -4.1494 255 0 0
11.4109 -0.881048 -4.56223 255 0 0
12.4753 -0.488303 -4.79505 255 0 0
12.0759 0.558727 -4.18343 255 0 0
11.554 -0.64444 -4.38941 255 0 0
10.7626 0.523539 -4.69611 255 0 0
10.6506 -0.695432 -4.76502 255 0 0
12.2514 -0.276005 -4.95821 255 0 0
13.2232 -0.0156762 -4.84515 255 0 0
12.3448 0.248827 -4.6567 255 0 0
13.1575 -0.265208 -4.8316 255 0 0
10.5223 0.737183 -4.82635 255 0 0
11.2047 -0.651611 -4.61083 255 0 0
12.0325 0.199719 -4.17354 255 0 0
11.2347 -0.813866 -4.71914 255 0 0
12.1138 0.359131 -4.71318 255 0 0
12.3407 -0.248743 -4.12359 255 0 0
13.181 0.234417 -4.83653 255 0 0
12.917 0.107195 -5.00484 255 0 0
13.2002 -0.0469469 -4.84022 255 0 0
10.992 -0.691555 -4.65868 255 0 0
12.1744 0.216515 -4.72597 255 0 0
12.9817 0.0769504 -4.90634 255 0 0
12.3364 0.409653 -4.12359 255 0 0
12.0554 0.5005 -4.17927 255 0 0
12.3674 -0.601599 -4.77202 255 0 0
11.2431 0.653843 -4.5213 255 0 0
11.21 -0.75866 -4.71227 255 0 0
12.339 -0.453672 -4.6567 255 0 0
11.9601 0.340373 -4.16105 255 0 0
10.8082 -0.166584 -4.70464 255 0 0
12.0945 -0.530851 -4.18655 255 0 0
12.5389 0.550354 -4.15933 255 0 0
12.1932 0.30362 -4.51847 255 0 0
12.0414 -0.414143 -4.17614 255 0 0
11.724 -0.626045 -4.3227 255 0 0
11.8034 0.43398 -4.23484 255 0 0
11.5181 -0.669836 -4.38231 255 0 0
10.8887 -0.503795 -4.72738 255 0 0
11.8103 0.546435 -4.23702 255 0 0
11.7299 -0.152973 -4.2196 255 0 0
12.1096 0.33027 -4.39656 255 0 0
11.7545 -0.348477 -4.22504 255 0 0
12.0803 0.32947 -4.81115 255 0 0
11.7451 -0.2646 -4.22286 255 0 0
11.3885 -0.960848 -4.65859 255 0 0
10.6182 -0.668042 -4.75621 255 0 0
11.1275 0.700081 -4.59359 255 0 0
12.0753 0.300685 -4.80983 255 0 0
12.3404 -0.424426 -4.76435 255 0 0
11.0795 -0.749825 -4.77855 255 0 0
10.5374 0.763355 -4.8309 255 0 0
11.8719 -0.450591 -4.2479 255 0 0
12.3412 -0.219482 -4.12359 255 0 0
10.7337 -0.726424 -4.78704 255 0 0
11.8735 -0.54936 -4.24899 255 0 0
11.7535 0.097539 -4.22395 255 0 0
13.1126 -0.139911 -4.93576 255 0 0
10.6803 0.824635 -4.8703 255 0 0
12.3352 -0.541417 -4.87218 255 0 0
10.8682 -0.451212 -4.7217 255 0 0
11.3229 -0.928285 -4.74249 255 0 0
12.2386 0.130586 -4.10572 255 0 0
10.5041 0.398674 -4.72317 255 0 0
12.0112 -0.256355 -4.1699 255 0 0
12.016 0.384749 -4.37838 255 0 0
11.714 -0.59766 -4.32043 255 0 0
12.0173 0.242224 -4.17094 255 0 0
11.775 0.209413 -4.22831 255 0 0
11.5454 -0.58906 -4.38704 255 0 0
10.8922 0.81502 -4.82963 255 0 0
12.3839 -0.367138 -4.13153 255 0 0
13.1845 -0.516062 -4.83899 255 0 0
12.0369 0.528324 -4.17614 255 0 0
12.166 0.33181 -4.72469 255 0 0
12.3021 -0.306332 -4.54097 255 0 0
11.4993 0.696104 -4.37875 255 0 0
11.8495 0.506033 -4.24409 255 0 0
12.4035 -0.279432 -4.13451 255 0 0
12.0202 -0.356355 -4.17198 255 0 0
11.9874 0.383831 -4.78993 255 0 0
11.2813 0.871037 -4.63206 255 0 0
12.6009 0.283879 -4.60254 255 0 0
10.81 0.692973 -4.71033 255 0 0
12.0796 -0.472817 -4.18343 255 0 0
12.278 -0.34943 -4.53623 255 0 0
10.7367 -0.828989 -4.88545 255 0 0
12.3714 -0.337409 -4.66286 255 0 0
12.0554 -0.5005 -4.17927 255 0 0
13.0711 -0.0929765 -5.04066 255 0 0
12.3213 0.336044 -4.12061 255 0 0
13.0962 0.0155256 -4.93192 255 0 0
11.4449 0.69281 -4.46703 255 0 0
13.2119 0.0469885 -4.72805 255 0 0
10.7433 0.752664 -4.78998 255 0 0
11.2605 0.923169 -4.72738 255 0 0
13.0279 -0.540872 -4.91913 255 0 0
11.7122 -0.180518 -4.21633 255 0 0
12.2732 -0.130955 -4.11167 255 0 0
10.9579 0.689411 -4.65044 255 0 0
11.7475 0.125345 -4.22286 255 0 0
12.0397 0.271236 -4.1751 255 0 0
11.9232 -0.594161 -4.25879 255 0 0
12.2934 -0.408213 -4.53978 255 0 0
11.7308 -0.041721 -4.2196 255 0 0
13.2308 0.298069 -4.61815 255 0 0
10.8621 -0.580021 -4.7217 255 0 0
12.4109 -0.42685 -4.13649 255 0 0
13.2347 0.549458 -4.85008 255 0 0
10.8452 -0.295785 -4.71459 255 0 0
11.2967 -0.899177 -4.73562 255 0 0
10.7964 -0.192008 -4.7018 255 0 0
12.2219 -0.0434677 -4.10274 255 0 0
12.5375 0.580082 -4.15933 255 0 0
12.2385 0.217656 -4.42156 255 0 0
11.2398 0.814235 -4.62145 255 0 0
13.1637 -0.171671 -4.94727 255 0 0
12.3155 -0.277448 -4.86555 255 0 0
12.283 0.24758 -4.11366 255 0 0
11.6422 0.649363 -4.30679 255 0 0
11.7824 -0.377267 -4.23048 255 0 0
12.0196 0.0427483 -4.17094 255 0 0
12.2242 -0.594636 -4.21049 255 0 0
11.3254 -0.712532 -4.54049 255 0 0
10.8096 -0.346119 -4.70606 255 0 0
11.8106 0.518388 -4.85379 255 0 0
12.1565 -0.562455 -4.198 255 0 0
12.26 -0.421662 -4.85361 255 0 0
12.0526 0.157182 -4.48887 255 0 0
10.8239 0.423665 -4.71033 255 0 0
12.0836 0.100279 -4.60005 255 0 0
11.2529 0.681189 -4.52386 255 0 0
10.9966 0.613352 -4.65868 255 0 0
12.332 0.365599 -4.1226 255 0 0
11.6681 0.595319 -4.31134 255 0 0
12.0333 -0.299638 -4.17406 255 0 0
10.5268 -0.812779 -4.92329 255 0 0
11.1606 0.622502 -4.60022 255 0 0
12.0308 0.385223 -4.17406 255 0 0
12.1058 0.129169 -4.92249 255 0 0
12.383 -0.396499 -4.13153 255 0 0
11.3236 0.982425 -4.644 255 0 0
11.9308 0.353704 -4.36133 255 0 0
13.337 -0.0158111 -4.1806 255 0 0
12.2624 -6.84129e-06 -4.10969 255 0 0
12.2449 0.0580526 -4.10671 255 0 0
12.2447 0.101615 -4.10671 255 0 0
12.2578 0.203453 -4.10919 255 0 0
12.2964 0.291595 -4.11614 255 0 0
12.381 0.455215 -4.13153 255 0 0
12.3856 0.484795 -4.13252 255 0 0
12.5465 -0.849111 -4.92525 255 0 0
10.531 0.499764 -4.73124 255 0 0
13.0998 -0.04659 -5.0473 255 0 0
12.6355 -0.584616 -4.17621 255 0 0
12.5907 -0.552632 -4.16826 255 0 0
12.4658 -0.50274 -4.14642 255 0 0
12.4617 -0.458183 -4.14543 255 0 0
12.3674 -0.337302 -4.12855 255 0 0
12.374 -0.308122 -4.12954 255 0 0
12.3244 -0.189954 -4.12061 255 0 0
12.2447 -0.101615 -4.10671 255 0 0
12.2449 -0.0725827 -4.10671 255 0 0
11.9909 4.79651e-16 -4.16574 255 0 0
12.0193 0.0997451 -4.17094 255 0 0
12.1321 0.590157 -4.19384 255 0 0
12.0065 -0.199306 -4.16886 255 0 0
11.9729 -0.127751 -4.16262 255 0 0
12.1332 0.273342 -4.71702 255 0 0
12.2506 -0.552244 -4.96027 255 0 0
12.0404 -0.442692 -4.17614 255 0 0
12.0325 -0.328168 -4.17406 255 0 0
12.0078 -0.0996494 -4.16886 255 0 0
11.764 0.181316 -4.22613 255 0 0
11.7739 0.265248 -4.22831 255 0 0
11.7725 0.321077 -4.22831 255 0 0
11.8177 0.350352 -4.23702 255 0 0
11.7872 0.405399 -4.23157 255 0 0
11.9066 0.579188 -4.25552 255 0 0
11.9325 0.637176 -4.26096 255 0 0
12.1966 0.448436 -4.73237 255 0 0
12.113 0.531664 -4.82044 255 0 0
12.2154 -0.347655 -4.94997 255 0 0
10.5078 -0.511141 -4.72537 255 0 0
10.6166 0.693216 -4.75621 255 0 0
11.8808 -0.634415 -4.25117 255 0 0
11.8725 -0.507008 -4.24845 255 0 0
11.761 -0.320763 -4.22613 255 0 0
11.7359 -0.125222 -4.22069 255 0 0
11.7193 -0.0138934 -4.21742 255 0 0
12.1303 0.158195 -4.39997 255 0 0
12.0724 0.18607 -4.38861 255 0 0
13.2143 0.266351 -4.61474 255 0 0
11.7011 0.62482 -4.31815 255 0 0
11.1555 0.662004 -4.59956 255 0 0
11.2431 -0.854693 -4.72188 255 0 0
13.1274 -0.295741 -4.5977 255 0 0
12.0647 0.100121 -4.49124 255 0 0
12.0759 0.128849 -4.49361 255 0 0
13.2787 0.236154 -4.74226 255 0 0
12.1118 0.344686 -4.5019 255 0 0
12.1391 0.388691 -4.50782 255 0 0
12.207 0.419837 -4.52202 255 0 0
12.0107 0.584251 -4.48295 255 0 0
11.4767 0.585553 -4.37283 255 0 0
11.544 0.616433 -4.38704 255 0 0
11.5139 0.642205 -4.38112 255 0 0
12.112 0.18668 -4.7119 255 0 0
13.1076 0.0466175 -4.93448 255 0 0
12.3429 -0.278067 -4.54926 255 0 0
13.1634 -0.265326 -4.71858 255 0 0
13.2792 -0.20467 -4.74226 255 0 0
13.1372 -0.077872 -4.71266 255 0 0
13.1431 -0.0467437 -4.71384 255 0 0
13.1431 -0.0155813 -4.71384 255 0 0
13.2346 0.0156897 -4.84761 255 0 0
13.1258 0.0466823 -4.82421 255 0 0
12.0662 0.128746 -4.59635 255 0 0
12.9587 0.168999 -4.78849 255 0 0
13.2273 0.20387 -4.84638 255 0 0
12.2984 0.277064 -4.64685 255 0 0
12.1661 0.302946 -4.61852 255 0 0
12.1482 0.331323 -4.61483 255 0 0
12.1808 0.390025 -4.62222 255 0 0
12.2828 0.422447 -4.64439 255 0 0
12.3104 0.45262 -4.65055 255 0 0
13.1787 0.515838 -4.83776 255 0 0
13.2069 0.59538 -4.84453 255 0 0
11.368 0.634067 -4.44978 255 0 0
11.4179 0.66401 -4.46087 255 0 0
10.5179 0.6367 -4.72978 255 0 0
11.4316 -0.909915 -4.56735 255 0 0
11.2906 0.898687 -4.63471 255 0 0
11.4677 -0.694193 -4.47195 255 0 0
11.4587 -0.652752 -4.46949 255 0 0
11.5181 -0.615048 -4.48181 255 0 0
12.3785 -0.602141 -4.66656 255 0 0
13.2612 -0.597819 -4.85623 255 0 0
13.2232 -0.548983 -4.84761 255 0 0
12.3463 -0.409981 -4.65794 255 0 0
12.3582 -0.293052 -4.65978 255 0 0
13.244 -0.235537 -4.85008 255 0 0
13.3017 -0.205017 -4.86239 255 0 0
13.2566 -0.157151 -4.85254 255 0 0
13.2571 -0.110017 -4.85254 255 0 0
13.2229 -0.0783803 -4.84515 255 0 0
12.0844 0.100286 -4.7055 255 0 0
12.0956 0.12906 -4.70806 255 0 0
12.0438 0.157067 -4.69655 255 0 0
12.1795 0.245495 -4.72725 255 0 0
12.1382 0.302252 -4.7183 255 0 0
12.1353 0.402969 -4.7183 255 0 0
12.8921 0.504617 -4.88843 255 0 0
12.7881 0.530917 -4.8654 255 0 0
13.1029 0.590659 -4.9364 255 0 0
12.1818 0.650488 -4.73109 255 0 0
12.9201 0.843626 -4.89866 255 0 0
11.2152 0.892687 -4.51874 255 0 0
10.7794 -0.396331 -4.69896 255 0 0
13.0342 -0.851072 -4.92425 255 0 0
11.2757 -0.68257 -4.52898 255 0 0
11.2974 -0.603263 -4.53281 255 0 0
12.2974 -0.627426 -4.75667 255 0 0
13.1336 -0.607661 -4.94344 255 0 0
13.1236 -0.576019 -4.94088 255 0 0
12.3128 -0.394252 -4.75795 255 0 0
12.3366 -0.365734 -4.76307 255 0 0
12.3088 -0.335704 -4.75667 255 0 0
12.3385 -0.292616 -4.76307 255 0 0
12.5051 -0.252058 -4.80017 255 0 0
13.0947 -0.201825 -4.93192 255 0 0
13.13 -0.108963 -4.9396 255 0 0
13.1131 -0.0777294 -4.93576 255 0 0
13.1076 -0.0466175 -4.93448 255 0 0
13.1705 -0.0156137 -4.94855 255 0 0
13.1028 2.36639e-05 -5.04796 255 0 0
13.0542 0.0464277 -5.03668 255 0 0
13.0826 0.0775483 -5.04332 255 0 0
12.1096 0.143577 -4.81712 255 0 0
12.0943 0.21509 -4.81381 255 0 0
12.1276 0.258832 -4.82177 255 0 0
12.0624 0.357605 -4.80718 255 0 0
12.0869 0.473102 -4.81381 255 0 0
12.1029 0.502469 -4.81779 255 0 0
12.9777 0.600447 -5.02209 255 0 0
12.1587 0.649256 -4.83238 255 0 0
12.4745 0.81453 -4.908 255 0 0
11.2929 0.79117 -4.63338 255 0 0
11.2663 0.84301 -4.62808 255 0 0
10.5222 0.56187 -4.72978 255 0 0
11.3452 -0.930115 -4.64798 255 0 0
11.3247 -0.901403 -4.64267 255 0 0
11.3022 -0.859178 -4.6367 255 0 0
11.2862 -0.804158 -4.63206 255 0 0
11.2072 -0.705094 -4.61216 255 0 0
11.1576 -0.675419 -4.60022 255 0 0
11.1436 -0.621549 -4.59624 255 0 0
13.0503 -0.634818 -5.03934 255 0 0
12.3086 -0.496387 -4.86555 255 0 0
12.2989 -0.452196 -4.86289 255 0 0
12.3123 -0.394235 -4.86555 255 0 0
12.3197 -0.336001 -4.86687 255 0 0
12.3319 -0.307073 -4.86953 255 0 0
12.3026 -0.20421 -4.86223 255 0 0
12.3746 -0.161381 -4.87881 255 0 0
13.0342 0.0463566 -5.14645 255 0 0
12.003 0.156536 -4.89775 255 0 0
11.9173 0.551388 -4.87989 255 0 0
11.0142 0.653634 -4.66349 255 0 0
11.0187 0.71947 -4.66555 255 0 0
11.1248 0.752895 -4.69166 255 0 0
11.1741 0.782851 -4.70402 255 0 0
11.1779 0.809754 -4.7054 255 0 0
11.209 0.852104 -4.71364 255 0 0
11.2229 0.893306 -4.71776 255 0 0
11.2753 0.9513 -4.7315 255 0 0
10.8366 0.167022 -4.71175 255 0 0
12.1894 -0.245694 -4.9431 255 0 0
11.4398 -0.965178 -4.77135 255 0 0
11.1628 -0.782055 -4.70127 255 0 0
11.0471 -0.721324 -4.67242 255 0 0
11.0163 -0.666867 -4.66418 255 0 0
11.086 -0.644711 -4.68066 255 0 0
12.2272 -0.623845 -4.95546 255 0 0
12.9848 -0.631633 -5.1382 255 0 0
12.2445 -0.493804 -4.95821 255 0 0
12.269 -0.451097 -4.96371 255 0 0
12.2473 -0.421223 -4.95821 255 0 0
12.1913 -0.390362 -4.94447 255 0 0
12.2109 -0.304061 -4.94859 255 0 0
12.1217 -0.215578 -4.92661 255 0 0
10.7754 0.0127743 -4.69611 255 0 0
10.8065 0.0512416 -4.70393 255 0 0
10.8004 0.102459 -4.70251 255 0 0
10.7688 0.140439 -4.69469 255 0 0
10.7566 0.191301 -4.69185 255 0 0
10.7845 0.217377 -4.69896 255 0 0
10.8036 0.256212 -4.70393 255 0 0
10.8395 0.29563 -4.71317 255 0 0
10.8104 0.320488 -4.70606 255 0 0
10.8266 0.346664 -4.71033 255 0 0
10.7747 0.370576 -4.69754 255 0 0
10.7945 0.448149 -4.70322 255 0 0
10.8263 0.500907 -4.71175 255 0 0
10.8294 0.552529 -4.71317 255 0 0
10.7934 0.589169 -4.70464 255 0 0
10.7799 0.626906 -4.7018 255 0 0
10.767 0.651777 -4.69896 255 0 0
11.1853 0.783635 -4.80555 255 0 0
10.8108 -0.680157 -4.71033 255 0 0
11.2817 -0.790383 -4.82971 255 0 0
10.9055 -0.71208 -4.73449 255 0 0
10.799 -0.640846 -4.70677 255 0 0
10.804 -0.602611 -4.70748 255 0 0
10.9316 -0.557739 -4.73875 255 0 0
10.8364 -0.527127 -4.71459 255 0 0
10.8671 -0.47698 -4.7217 255 0 0
10.752 -0.369795 -4.69185 255 0 0
10.8047 -0.32032 -4.70464 255 0 0
10.7922 -0.255936 -4.70109 255 0 0
10.8426 -0.141402 -4.71317 255 0 0
10.8008 -0.0512214 -4.70251 255 0 0
10.5168 0.436621 -4.72684 255 0 0
10.5384 0.46255 -4.73271 255 0 0
10.5461 0.538075 -4.73565 255 0 0
10.5315 0.599926 -4.73271 255 0 0
10.573 0.665195 -4.74446 255 0 0
10.6319 0.719535 -4.76061 255 0 0
10.7754 0.780591 -4.79879 255 0 0
10.8828 -0.788373 -4.82669 255 0 0
10.7885 -0.755833 -4.80173 255 0 0
10.5632 -0.63944 -4.74152 255 0 0
10.5315 -0.599926 -4.73271 255 0 0
10.5165 -0.561567 -4.72831 255 0 0
10.5292 -0.537209 -4.73124 255 0 0
10.5163 -0.449095 -4.72684 255 0 0
10.6089 0.793824 -4.8506 255 0 0
10.6653 -0.798044 -4.86575 255 0 0
10.5431 -0.763764 -4.83241 255 0 0
10.5223 -0.737183 -4.82635 255 0 0
10.5417 0.839079 -4.92798 255 0 0
10.5642 -0.84087 -4.93423 255 0 0
