ply
format ascii 1.0
comment Created by Open3D
element vertex 478
property double x
property double y
property double z
property uchar red
property uchar green
property uchar blue
end_header
13.5148 -11.4255 -4.74269 255 0 0
12.3448 -13.0216 -3.41966 255 0 0
12.4239 -11.584 -4.48816 255 0 0
12.1286 -12.7329 -3.68586 255 0 0
11.8499 -13.361 -3.71212 255 0 0
13.135 -11.8456 -4.29123 255 0 0
11.2578 -14.6026 -4.23284 255 0 0
12.7535 -11.6671 -4.38532 255 0 0
12.8723 -13.2596 -3.30768 255 0 0
11.2784 -14.5578 -4.07494 255 0 0
13.2633 -12.7847 -3.45753 255 0 0
12.4514 -11.5545 -4.48816 255 0 0
12.4088 -11.6804 -4.3517 255 0 0
13.3534 -11.1004 -4.83913 255 0 0
12.0832 -12.6853 -4.26942 255 0 0
12.4098 -12.0188 -4.09206 255 0 0
11.322 -14.3313 -4.21173 255 0 0
12.0889 -12.5118 -4.54841 255 0 0
13.0361 -12.8672 -3.44922 255 0 0
12.4365 -12.4512 -3.53965 255 0 0
12.0375 -12.9411 -3.54628 255 0 0
11.2918 -14.3629 -4.05855 255 0 0
12.5632 -11.493 -4.4941 255 0 0
13.7585 -12.5267 -3.94003 255 0 0
12.4105 -11.8496 -4.22278 255 0 0
12.9462 -10.866 -4.9079 255 0 0
12.2636 -12.5727 -3.53659 255 0 0
12.4244 -11.7507 -4.21526 255 0 0
12.8703 -12.9469 -4.82922 255 0 0
12.3329 -13.708 -4.54461 255 0 0
11.811 -13.4451 -4.6214 255 0 0
13.5643 -13.1994 -4.61185 255 0 0
12.3883 -12.1123 -3.80644 255 0 0
13.5877 -13.2222 -4.45596 255 0 0
11.1027 -14.6875 -4.69692 255 0 0
11.2603 -14.5345 -4.22651 255 0 0
12.5361 -12.3152 -3.68474 255 0 0
13.3133 -11.3366 -4.70996 255 0 0
12.2798 -12.4115 -3.82041 255 0 0
12.7759 -13.2228 -3.30107 255 0 0
12.4726 -11.8525 -4.08361 255 0 0
12.2678 -12.6369 -4.57981 255 0 0
12.6299 -11.3359 -4.63015 255 0 0
12.7053 -13.3068 -3.3019 255 0 0
13.8559 -11.9124 -4.67656 255 0 0
13.4985 -12.5859 -3.61467 255 0 0
12.0534 -12.5941 -4.55351 255 0 0
12.377 -13.6915 -3.30603 255 0 0
12.8329 -10.8751 -4.894 255 0 0
13.02 -12.0249 -4.14626 255 0 0
11.9946 -13.0181 -3.69703 255 0 0
12.2089 -13.1253 -3.41828 255 0 0
14.0448 -11.2862 -4.94589 255 0 0
12.5007 -11.8229 -4.08361 255 0 0
12.364 -13.7426 -3.3081 255 0 0
12.4607 -11.7292 -4.21676 255 0 0
12.3206 -11.8197 -4.50089 255 0 0
12.6249 -12.0543 -3.96676 255 0 0
12.3555 -12.1665 -3.80796 255 0 0
12.196 -12.5629 -3.67859 255 0 0
12.7323 -12.3311 -3.69927 255 0 0
11.9359 -12.8319 -4.27017 255 0 0
12.6065 -13.4245 -3.30314 255 0 0
11.9767 -13.0608 -3.55037 255 0 0
11.2206 -14.4125 -4.5206 255 0 0
12.0651 -12.6062 -4.26039 255 0 0
12.785 -13.2952 -3.3052 255 0 0
11.8583 -13.3068 -3.70877 255 0 0
12.084 -12.8072 -3.68809 255 0 0
12.9967 -12.1757 -3.85684 255 0 0
11.9439 -13.1184 -3.55215 255 0 0
11.4985 -14.4136 -3.61314 255 0 0
12.0156 -12.5545 -4.39813 255 0 0
12.2412 -12.1977 -3.9471 255 0 0
12.0098 -12.6082 -4.40293 255 0 0
12.9001 -11.5784 -4.53908 255 0 0
11.1486 -14.4609 -4.5198 255 0 0
13.7888 -12.1419 -4.37999 255 0 0
12.1475 -12.5725 -4.41254 255 0 0
14.0375 -11.8959 -4.69523 255 0 0
12.77 -11.3528 -4.64808 255 0 0
12.6423 -13.3988 -3.30355 255 0 0
12.3437 -12.0117 -4.08572 255 0 0
11.8557 -13.3039 -3.55904 255 0 0
13.0277 -13.0432 -4.70032 255 0 0
11.287 -14.3568 -4.3657 255 0 0
13.2544 -12.4763 -3.74509 255 0 0
12.4908 -12.4464 -3.54271 255 0 0
12.0373 -12.5176 -4.39653 255 0 0
13.2643 -12.0767 -4.17231 255 0 0
12.1053 -12.8297 -3.54322 255 0 0
11.907 -13.1716 -3.55343 255 0 0
12.3139 -13.0509 -3.41966 255 0 0
13.3103 -11.7767 -4.45256 255 0 0
12.7418 -11.8803 -4.10966 255 0 0
12.4153 -11.6311 -4.3477 255 0 0
12.2399 -13.0963 -3.41828 255 0 0
13.8031 -12.3299 -4.24129 255 0 0
12.5981 -12.9157 -3.42751 255 0 0
11.8724 -13.515 -3.57384 255 0 0
13.3957 -13.2221 -4.2793 255 0 0
12.8037 -11.1138 -4.77205 255 0 0
12.9606 -11.7442 -4.26565 255 0 0
12.1864 -12.6128 -3.68139 255 0 0
14.1212 -11.2926 -4.95628 255 0 0
11.6225 -13.4863 -4.60782 255 0 0
12.5786 -13.4586 -3.30355 255 0 0
12.8212 -11.785 -4.25588 255 0 0
13.1234 -10.6486 -5.05243 255 0 0
12.9027 -11.7475 -4.26039 255 0 0
11.9135 -13.2103 -3.70541 255 0 0
12.3759 -11.9859 -3.9412 255 0 0
12.8073 -11.5776 -4.5289 255 0 0
12.1839 -12.5505 -4.71085 255 0 0
12.3833 -11.6564 -4.78055 255 0 0
12.8542 -12.1572 -3.8447 255 0 0
11.2861 -14.426 -4.21806 255 0 0
12.0437 -12.704 -4.41574 255 0 0
12.4094 -11.8767 -4.08009 255 0 0
13.9326 -11.2505 -4.92794 255 0 0
12.4504 -12.1154 -3.8113 255 0 0
12.2217 -12.4115 -3.81616 255 0 0
11.9918 -13.0152 -3.54833 255 0 0
12.7646 -11.4023 -4.65257 255 0 0
12.646 -11.7351 -4.23481 255 0 0
12.29 -12.4218 -3.67524 255 0 0
13.1683 -12.1041 -4.01528 255 0 0
12.3821 -11.8225 -4.50768 255 0 0
12.0954 -12.8803 -3.84227 255 0 0
12.1896 -12.616 -3.9766 255 0 0
12.7161 -11.1439 -4.76449 255 0 0
13.0068 -11.5633 -4.54926 255 0 0
11.2164 -14.3369 -4.66637 255 0 0
13.0104 -10.6596 -5.03786 255 0 0
13.2562 -13.0845 -4.72832 255 0 0
13.3525 -12.3319 -3.8951 255 0 0
13.4967 -12.5843 -3.76912 255 0 0
11.2059 -14.4643 -4.37021 255 0 0
12.1156 -12.7798 -3.54067 255 0 0
12.0954 -12.5781 -4.11318 255 0 0
12.8575 -11.3761 -4.66064 255 0 0
12.8935 -11.9648 -4.13007 255 0 0
11.2038 -14.3909 -4.67146 255 0 0
12.9392 -12.4722 -3.57231 255 0 0
11.1195 -14.5656 -4.68419 255 0 0
11.0946 -14.6045 -4.531 255 0 0
12.3429 -11.7292 -4.4941 255 0 0
11.8349 -13.408 -3.56466 255 0 0
13.7134 -11.1814 -4.89298 255 0 0
12.0187 -12.9824 -3.54782 255 0 0
12.2758 -12.6451 -4.28296 255 0 0
12.2119 -12.6391 -3.53761 255 0 0
13.0185 -11.0855 -4.79567 255 0 0
13.5358 -13.1717 -4.76651 255 0 0
12.1682 -12.5939 -3.82587 255 0 0
11.8952 -13.2215 -3.55598 255 0 0
12.3822 -12.3382 -3.6758 255 0 0
12.3307 -11.999 -3.93857 255 0 0
12.9745 -13.176 -3.30851 255 0 0
11.4915 -14.5458 -3.62181 255 0 0
11.3059 -14.3809 -4.21525 255 0 0
13.7535 -12.4034 -4.08674 255 0 0
13.6171 -12.4571 -3.92424 255 0 0
12.3147 -12.0404 -3.94054 255 0 0
13.4359 -11.9448 -4.32884 255 0 0
13.3359 -12.0843 -4.17935 255 0 0
11.9563 -13.1007 -3.70038 255 0 0
11.7815 -13.3476 -4.60782 255 0 0
13.3472 -12.2103 -4.03822 255 0 0
12.1586 -12.7645 -3.83802 255 0 0
12.408 -11.791 -4.36211 255 0 0
13.4733 -13.1108 -4.91352 255 0 0
12.8576 -11.7624 -4.25738 255 0 0
13.3622 -10.8424 -4.96051 255 0 0
12.263 -13.0587 -3.41735 255 0 0
12.4614 -12.9587 -3.42243 255 0 0
13.4231 -13.2491 -4.44318 255 0 0
11.4372 -14.7628 -3.79035 255 0 0
12.4232 -11.7496 -4.35971 255 0 0
12.8705 -12.3473 -3.70988 255 0 0
13.0362 -11.7006 -4.41734 255 0 0
11.1531 -14.4668 -4.67571 255 0 0
12.4745 -11.521 -4.48731 255 0 0
13.0756 -11.0808 -4.80228 255 0 0
12.1098 -12.653 -4.12092 255 0 0
13.4205 -13.2466 -4.60224 255 0 0
12.674 -13.3688 -3.30355 255 0 0
12.7249 -11.7523 -4.24384 255 0 0
12.5626 -13.5055 -3.3052 255 0 0
11.2295 -14.4239 -4.36795 255 0 0
13.2409 -11.8843 -4.30477 255 0 0
13.7666 -11.4991 -4.7799 255 0 0
12.179 -12.486 -3.81859 255 0 0
12.4861 -11.477 -4.62835 255 0 0
12.9621 -11.5787 -4.54587 255 0 0
13.19 -12.8352 -3.45615 255 0 0
13.225 -12.2724 -3.88113 255 0 0
11.2935 -14.4355 -4.0651 255 0 0
11.4374 -14.407 -3.76353 255 0 0
12.8661 -12.0534 -3.98643 255 0 0
13.8659 -11.9783 -4.5286 255 0 0
12.3027 -12.0859 -3.94316 255 0 0
12.0736 -12.8571 -3.69089 255 0 0
11.5219 -14.6556 -3.631 255 0 0
13.7263 -10.9236 -5.0181 255 0 0
12.2974 -12.5478 -3.5371 255 0 0
12.0135 -12.9768 -3.69536 255 0 0
11.285 -14.2845 -4.35818 255 0 0
12.1119 -13.5267 -4.65958 255 0 0
12.3529 -12.3675 -3.6758 255 0 0
11.4897 -14.4729 -3.61671 255 0 0
11.1284 -14.5057 -4.523 255 0 0
13.6479 -11.7899 -4.64176 255 0 0
12.4094 -13.6622 -3.30603 255 0 0
12.4339 -13.6241 -3.3052 255 0 0
12.4504 -13.5773 -3.30355 255 0 0
12.5261 -13.595 -3.3081 255 0 0
12.5146 -13.5181 -3.30355 255 0 0
12.8588 -13.183 -3.30314 255 0 0
12.9595 -13.2234 -3.31016 255 0 0
12.9851 -13.1244 -3.30644 255 0 0
13.394 -13.1579 -4.59104 255 0 0
12.6679 -11.155 -4.75977 255 0 0
13.3196 -12.5974 -3.60395 255 0 0
12.8509 -12.446 -3.56517 255 0 0
11.9756 -12.5723 -4.54332 255 0 0
12.0317 -13.4371 -3.42705 255 0 0
12.0599 -13.3726 -3.42474 255 0 0
12.0917 -13.3123 -3.42289 255 0 0
12.1114 -13.2707 -3.42151 255 0 0
12.1447 -13.2125 -3.41989 255 0 0
12.1896 -13.1671 -3.41966 255 0 0
12.588 -11.849 -4.09347 255 0 0
12.3717 -12.9881 -3.4192 255 0 0
12.3943 -12.9503 -3.41828 255 0 0
12.5054 -12.9122 -3.4222 255 0 0
12.6532 -12.9108 -3.43028 255 0 0
12.6961 -12.8933 -3.43167 255 0 0
12.7307 -12.8673 -3.43213 255 0 0
12.7859 -12.8619 -3.4349 255 0 0
12.8823 -12.8976 -3.44229 255 0 0
12.9377 -12.8918 -3.44506 255 0 0
13.0138 -12.9063 -3.45014 255 0 0
13.0874 -12.8567 -3.45153 255 0 0
13.1596 -12.8664 -3.45615 255 0 0
13.233 -12.8161 -3.45753 255 0 0
12.6571 -12.3166 -3.69312 255 0 0
13.0669 -12.0681 -4.00413 255 0 0
12.417 -11.7437 -4.50344 255 0 0
13.436 -13.1992 -4.75887 255 0 0
12.4831 -11.5839 -4.3501 255 0 0
12.0667 -12.5483 -4.25512 255 0 0
13.9034 -11.8391 -4.67486 255 0 0
13.2165 -11.093 -4.82118 255 0 0
12.9499 -12.0744 -3.99495 255 0 0
11.8435 -13.3538 -3.56159 255 0 0
11.8755 -13.2627 -3.55751 255 0 0
12.0655 -12.879 -3.54399 255 0 0
12.1468 -12.7218 -3.53888 255 0 0
12.186 -12.6723 -3.53812 255 0 0
12.2337 -12.6018 -3.53659 255 0 0
12.3502 -12.5123 -3.53812 255 0 0
12.3987 -12.4724 -3.53863 255 0 0
12.5202 -12.4168 -3.54271 255 0 0
12.5912 -12.428 -3.54782 255 0 0
12.6456 -12.4227 -3.55088 255 0 0
12.7042 -12.4212 -3.55445 255 0 0
12.7754 -12.4317 -3.55955 255 0 0
13.0192 -12.4899 -3.57843 255 0 0
13.1121 -12.5195 -3.58609 255 0 0
13.2179 -12.5607 -3.59528 255 0 0
13.4811 -12.6897 -3.61977 255 0 0
13.0303 -12.3825 -3.72329 255 0 0
13.6376 -12.5953 -3.77973 255 0 0
12.7719 -10.8756 -4.88605 255 0 0
11.3946 -14.6361 -3.93396 255 0 0
12.729 -12.1537 -3.83498 255 0 0
11.4435 -14.6988 -3.78588 255 0 0
11.3814 -14.5477 -3.77079 255 0 0
11.4194 -14.5253 -3.77135 255 0 0
11.4285 -14.4661 -3.76744 255 0 0
11.882 -13.27 -3.70765 255 0 0
11.9291 -13.1333 -3.70094 255 0 0
11.9755 -13.0594 -3.69871 255 0 0
12.0284 -12.9312 -3.69312 255 0 0
12.055 -12.8984 -3.69256 255 0 0
12.1144 -12.7785 -3.68809 255 0 0
12.1576 -12.6728 -3.68362 255 0 0
12.2257 -12.534 -3.67859 255 0 0
12.258 -12.4779 -3.67692 255 0 0
12.3153 -12.3885 -3.67468 255 0 0
12.4445 -12.3416 -3.68027 255 0 0
12.482 -12.3203 -3.68139 255 0 0
12.5986 -12.318 -3.68921 255 0 0
12.7992 -12.3373 -3.7043 255 0 0
12.9672 -12.3811 -3.71882 255 0 0
13.1486 -12.4356 -3.73503 255 0 0
13.3775 -12.5325 -3.75738 255 0 0
13.6163 -12.6355 -3.78085 255 0 0
13.3604 -11.6527 -4.59679 255 0 0
12.0602 -12.7214 -3.8277 255 0 0
12.9317 -10.6465 -5.02537 255 0 0
13.2644 -11.3493 -4.70547 255 0 0
11.3242 -14.617 -3.92788 255 0 0
11.3647 -14.5264 -3.92303 255 0 0
11.3631 -14.4537 -3.91696 255 0 0
11.3865 -14.413 -3.91513 255 0 0
11.3953 -14.354 -3.91088 255 0 0
12.1419 -12.8686 -3.8447 255 0 0
12.1325 -12.6767 -3.82952 255 0 0
12.1544 -12.6395 -3.8283 255 0 0
12.198 -12.565 -3.82587 255 0 0
12.2085 -12.4571 -3.81859 255 0 0
12.2886 -12.3617 -3.81737 255 0 0
12.3303 -12.3449 -3.81919 255 0 0
12.3224 -12.2786 -3.81373 255 0 0
12.3308 -12.2289 -3.81069 255 0 0
12.4958 -12.1021 -3.81373 255 0 0
12.5328 -12.0805 -3.81494 255 0 0
12.7379 -12.2201 -3.84045 255 0 0
12.7789 -12.1435 -3.83802 255 0 0
12.955 -12.1945 -3.85502 255 0 0
13.0724 -12.1886 -3.86352 255 0 0
13.5017 -12.4106 -3.9121 255 0 0
13.2093 -11.6317 -4.57812 255 0 0
12.1005 -12.7336 -3.97922 255 0 0
11.3093 -14.5265 -4.07428 255 0 0
11.315 -14.3224 -4.05658 255 0 0
12.0934 -12.6358 -3.9707 255 0 0
12.1072 -12.5904 -3.96808 255 0 0
12.299 -12.1974 -3.95169 255 0 0
12.3072 -12.1477 -3.94841 255 0 0
12.4457 -11.9681 -3.94546 255 0 0
12.6788 -12.0484 -3.9707 255 0 0
12.758 -12.0663 -3.97856 255 0 0
12.7866 -12.036 -3.97856 255 0 0
13.0724 -12.1307 -4.00938 255 0 0
13.5353 -12.3235 -4.06248 255 0 0
13.6895 -12.4047 -4.08149 255 0 0
12.4133 -11.7962 -4.21827 255 0 0
12.4044 -11.9567 -4.2318 255 0 0
11.2662 -14.4711 -4.22088 255 0 0
11.3451 -14.2907 -4.20961 255 0 0
12.0057 -12.6639 -4.11318 255 0 0
12.0798 -12.6817 -4.12092 255 0 0
12.101 -12.5243 -4.10895 255 0 0
13.1146 -13.068 -4.24199 255 0 0
12.4649 -12.1872 -4.11106 255 0 0
12.3964 -11.949 -4.08502 255 0 0
12.7221 -11.9185 -4.11106 255 0 0
13.0742 -12.0176 -4.15048 255 0 0
13.1756 -12.0532 -4.16245 255 0 0
13.5243 -12.1967 -4.20539 255 0 0
13.6527 -12.2539 -4.22158 255 0 0
13.8713 -12.3319 -4.24763 255 0 0
13.2173 -11.7504 -4.44055 255 0 0
13.488 -13.1875 -4.76312 255 0 0
11.2008 -14.6002 -4.38375 255 0 0
11.1964 -14.523 -4.37548 255 0 0
11.2422 -14.3698 -4.36344 255 0 0
11.3333 -14.2759 -4.36118 255 0 0
11.6445 -13.383 -4.298 255 0 0
11.92 -13.5045 -4.33335 255 0 0
12.0667 -12.7889 -4.27769 255 0 0
11.9932 -12.6507 -4.25813 255 0 0
12.1772 -12.6032 -4.27017 255 0 0
13.0757 -13.1535 -4.40256 255 0 0
13.0453 -13.0608 -4.39127 255 0 0
13.0434 -12.997 -4.38526 255 0 0
13.4296 -13.1929 -4.43866 255 0 0
12.3573 -11.8549 -4.21827 255 0 0
12.549 -11.7284 -4.22503 255 0 0
13.3513 -11.9264 -4.31906 255 0 0
13.6164 -12.0476 -4.35517 255 0 0
13.9879 -12.2585 -4.40933 255 0 0
12.5304 -12.7855 -4.62224 255 0 0
13.0062 -13.0217 -4.53981 255 0 0
13.2873 -10.8339 -4.94959 255 0 0
12.8983 -10.8781 -4.90293 255 0 0
11.1151 -14.5598 -4.5278 255 0 0
11.1651 -14.4115 -4.51579 255 0 0
11.2118 -14.331 -4.51099 255 0 0
11.2996 -14.3728 -4.523 255 0 0
11.5998 -13.3957 -4.44535 255 0 0
12.9999 -13.0772 -4.54461 255 0 0
13.4583 -13.1585 -4.59744 255 0 0
12.4429 -11.6016 -4.3477 255 0 0
12.485 -11.5307 -4.3453 255 0 0
12.6404 -11.6188 -4.36931 255 0 0
12.8068 -11.6603 -4.39012 255 0 0
12.8474 -11.6416 -4.39253 255 0 0
12.9654 -11.6926 -4.40934 255 0 0
13.224 -11.8126 -4.44696 255 0 0
13.373 -11.7758 -4.45896 255 0 0
13.5753 -11.897 -4.49098 255 0 0
13.7172 -11.9639 -4.51179 255 0 0
13.8506 -12.0226 -4.531 255 0 0
13.2456 -11.608 -4.57981 255 0 0
11.113 -14.6288 -4.69098 255 0 0
11.1329 -14.5116 -4.6791 255 0 0
11.1945 -14.4495 -4.6774 255 0 0
11.254 -14.3148 -4.66722 255 0 0
11.2412 -14.229 -4.65619 255 0 0
12.0592 -12.5404 -4.54841 255 0 0
12.4151 -12.7281 -4.60442 255 0 0
12.9273 -13.0042 -4.68589 255 0 0
13.0176 -12.9714 -4.69183 255 0 0
12.3815 -11.6547 -4.49071 255 0 0
12.4049 -11.6213 -4.48986 255 0 0
12.489 -11.4796 -4.48477 255 0 0
12.6546 -11.5217 -4.50683 255 0 0
13.0168 -11.5171 -4.54587 255 0 0
13.458 -11.6818 -4.61036 255 0 0
14.0426 -12.0151 -4.70711 255 0 0
12.0175 -12.4379 -4.68037 255 0 0
12.2985 -12.6086 -4.72969 255 0 0
12.4337 -12.6868 -4.753 255 0 0
12.5409 -12.7356 -4.77004 255 0 0
13.2506 -13.3928 -4.9198 255 0 0
12.8765 -12.8917 -4.82384 255 0 0
12.8578 -12.8122 -4.81308 255 0 0
13.2788 -13.0448 -4.88482 255 0 0
13.4297 -13.1306 -4.91083 255 0 0
12.402 -11.6186 -4.63373 255 0 0
12.6182 -11.7093 -4.66781 255 0 0
12.5056 -11.5498 -4.63822 255 0 0
12.5471 -11.3154 -4.61849 255 0 0
12.9409 -11.3953 -4.67229 255 0 0
13.0027 -11.3951 -4.67947 255 0 0
13.0559 -11.3871 -4.68485 255 0 0
13.1134 -11.3827 -4.69113 255 0 0
13.1929 -11.3969 -4.70189 255 0 0
13.1936 -11.343 -4.69651 255 0 0
13.664 -11.4685 -4.76466 255 0 0
13.8561 -11.5182 -4.79246 255 0 0
13.9146 -11.5112 -4.79874 255 0 0
13.9865 -11.5149 -4.8077 255 0 0
13.9332 -11.4157 -4.79156 255 0 0
12.4025 -11.6191 -4.77866 255 0 0
12.468 -11.6251 -4.78716 255 0 0
12.4763 -11.5227 -4.77677 255 0 0
12.5717 -11.5557 -4.79189 255 0 0
12.6022 -11.1769 -4.7541 255 0 0
12.7555 -11.1251 -4.76732 255 0 0
12.8606 -11.1099 -4.77866 255 0 0
12.9264 -11.1132 -4.78716 255 0 0
12.9615 -11.0901 -4.78905 255 0 0
13.146 -11.087 -4.81173 255 0 0
13.2916 -11.1023 -4.83157 255 0 0
13.4331 -11.1129 -4.85047 255 0 0
13.5041 -11.1177 -4.85991 255 0 0
13.6019 -11.1443 -4.87503 255 0 0
13.8296 -11.2216 -4.91188 255 0 0
12.7286 -10.8908 -4.88208 255 0 0
12.9852 -10.8464 -4.91087 255 0 0
13.0242 -10.8267 -4.91385 255 0 0
13.0898 -10.8289 -4.92279 255 0 0
13.1556 -10.8308 -4.93172 255 0 0
13.2259 -10.8362 -4.94165 255 0 0
13.4418 -10.8542 -4.97243 255 0 0
13.5215 -10.8657 -4.98434 255 0 0
13.6148 -10.8876 -4.99923 255 0 0
13.8653 -10.9806 -5.04292 255 0 0
12.8531 -10.633 -5.01288 255 0 0
13.0624 -10.6506 -5.0441 255 0 0
11.8018 -13.4346 -3.71435 255 0 0
12.2871 -13.788 -3.30686 255 0 0
12.3392 -13.7805 -3.30892 255 0 0
11.9446 -13.4678 -3.42428 255 0 0
12.0153 -13.483 -3.4289 255 0 0
11.4279 -14.3252 -3.75682 255 0 0
11.8529 -13.4284 -3.71715 255 0 0
11.4439 -14.3452 -3.91331 255 0 0
11.3272 -14.2682 -4.05265 255 0 0
11.3392 -14.214 -4.04871 255 0 0
11.3971 -14.2865 -4.21313 255 0 0
11.6926 -13.5028 -4.3138 255 0 0
11.2461 -14.166 -4.6494 255 0 0
