ply
format ascii 1.0
comment Created by Open3D
element vertex 1075
property double x
property double y
property double z
property uchar red
property uchar green
property uchar blue
end_header
3.98813 2.54425 -3.87934 255 0 0
3.99468 2.39775 -3.63027 255 0 0
2.96663 3.25835 -3.79316 255 0 0
1.75525 3.59985 -3.78713 255 0 0
3.91542 2.24716 -3.88096 255 0 0
3.91966 2.59753 -3.92864 255 0 0
3.72512 2.40137 -3.84662 255 0 0
2.29172 3.5643 -3.76554 255 0 0
1.549 3.53916 -3.80148 255 0 0
3.66609 2.87517 -3.9412 255 0 0
2.85496 3.23445 -3.83975 255 0 0
3.15062 2.59807 -3.83579 255 0 0
2.87477 3.19028 -3.83132 255 0 0
2.17617 3.60614 -3.79611 255 0 0
4.34961 2.37111 -3.7798 255 0 0
4.40567 2.37464 -3.84522 255 0 0
2.13435 3.55587 -3.76855 255 0 0
3.25972 2.53159 -3.60009 255 0 0
2.9875 2.96281 -3.83573 255 0 0
2.82018 3.19504 -3.90166 255 0 0
4.40852 2.39647 -3.77922 255 0 0
3.86491 3.0608 -3.95861 255 0 0
2.84472 3.30091 -3.98805 255 0 0
4.3233 2.2776 -3.98848 255 0 0
3.16279 2.50127 -3.77071 255 0 0
3.13468 3.20611 -3.78134 255 0 0
4.24031 2.19549 -4.13071 255 0 0
3.7833 3.59519 -4.22561 255 0 0
2.26219 3.60226 -3.7723 255 0 0
3.88605 3.09257 -3.83104 255 0 0
4.29417 2.4883 -3.73663 255 0 0
4.3174 2.78318 -3.89383 255 0 0
3.2288 2.30516 -3.65295 255 0 0
4.41548 2.3128 -3.98023 255 0 0
4.51345 2.92473 -3.93224 255 0 0
3.49436 2.45743 -3.86383 255 0 0
2.88536 3.33206 -3.75107 255 0 0
4.22226 2.38022 -3.69602 255 0 0
2.22755 3.63262 -3.85915 255 0 0
3.62033 3.6332 -3.93956 255 0 0
4.00419 2.615 -3.85407 255 0 0
4.03795 2.56256 -3.85407 255 0 0
3.07107 3.58932 -3.92227 255 0 0
3.16675 2.63244 -3.92026 255 0 0
3.92166 2.66176 -3.88295 255 0 0
3.15876 2.74515 -3.78462 255 0 0
3.88952 2.30337 -3.75248 255 0 0
3.966 2.81731 -3.93267 255 0 0
4.3121 2.45788 -3.64469 255 0 0
2.78624 3.09689 -3.90055 255 0 0
3.10315 2.29414 -3.63308 255 0 0
3.92099 2.75052 -4.04244 255 0 0
3.36093 2.23951 -3.7861 255 0 0
4.22697 2.2848 -3.90889 255 0 0
4.11331 2.19195 -4.07981 255 0 0
2.29536 3.63593 -3.72898 255 0 0
4.47948 2.29245 -4.09658 255 0 0
3.18364 2.30729 -3.67667 255 0 0
3.11029 2.29373 -3.72449 255 0 0
3.24897 3.4434 -3.88078 255 0 0
2.26122 3.6008 -3.73027 255 0 0
3.9166 3.07163 -3.83509 255 0 0
1.82554 3.64139 -3.7772 255 0 0
3.4044 2.27548 -3.78656 255 0 0
2.39298 3.11923 -3.79362 255 0 0
3.83034 2.76214 -3.83079 255 0 0
2.91067 3.6309 -3.98445 255 0 0
2.99862 3.49621 -3.74177 255 0 0
4.27494 2.8281 -3.88978 255 0 0
4.5804 2.26246 -4.33073 255 0 0
3.59801 3.35475 -4.19514 255 0 0
2.26282 3.59383 -3.81104 255 0 0
3.16802 2.59142 -3.66553 255 0 0
3.57114 2.19568 -3.87064 255 0 0
3.08435 2.88267 -3.92607 255 0 0
3.1059 2.84133 -3.87839 255 0 0
4.16436 3.29795 -3.90848 255 0 0
3.86121 2.21909 -4.03179 255 0 0
2.35065 3.54409 -3.62172 255 0 0
3.03255 2.29806 -3.77426 255 0 0
3.72127 2.21567 -3.9759 255 0 0
2.1729 3.64948 -3.83209 255 0 0
3.81505 2.3958 -3.6609 255 0 0
4.34529 3.4245 -3.98768 255 0 0
4.30462 2.20295 -4.15776 255 0 0
4.37048 2.40945 -3.7463 255 0 0
3.76512 3.62923 -4.33353 255 0 0
4.20247 2.19488 -4.16303 255 0 0
2.3017 3.48821 -3.66028 255 0 0
2.91573 3.67277 -4.09254 255 0 0
3.21063 2.56751 -3.67288 255 0 0
2.09594 3.49188 -3.69686 255 0 0
3.30487 2.20144 -3.83831 255 0 0
2.55576 3.62502 -3.89142 255 0 0
3.80163 3.6298 -4.34546 255 0 0
2.60891 3.64512 -3.92254 255 0 0
3.14718 3.33553 -3.77788 255 0 0
3.07234 2.3397 -3.64681 255 0 0
3.16533 2.59971 -3.74673 255 0 0
3.97828 2.35595 -3.7338 255 0 0
3.10305 3.28095 -3.66495 255 0 0
4.043 2.63352 -3.82462 255 0 0
4.4091 2.32945 -3.88571 255 0 0
3.13526 2.81404 -3.83807 255 0 0
2.95445 3.28387 -3.72663 255 0 0
3.18886 3.11783 -3.94578 255 0 0
2.37268 3.09277 -3.73941 255 0 0
4.45409 2.33303 -3.94932 255 0 0
3.3415 2.37368 -3.74787 255 0 0
4.28036 3.04827 -3.93738 255 0 0
3.19459 2.7465 -3.83807 255 0 0
2.32193 3.6877 -3.90129 255 0 0
3.19858 2.3355 -3.63087 255 0 0
3.20326 2.82742 -3.78018 255 0 0
3.94456 2.70473 -4.03957 255 0 0
3.28602 2.92134 -3.74675 255 0 0
3.08397 2.36015 -3.77174 255 0 0
3.12127 3.33171 -3.68318 255 0 0
3.9675 2.49591 -3.87715 255 0 0
4.3059 2.20362 -4.20678 255 0 0
3.11601 3.0466 -3.94461 255 0 0
2.70892 3.63707 -3.93392 255 0 0
4.01248 2.90798 -3.82699 255 0 0
4.2341 2.91803 -3.89585 255 0 0
3.10253 2.73198 -3.92769 255 0 0
1.73188 3.64672 -3.80144 255 0 0
4.42159 2.89507 -3.94852 255 0 0
2.26919 3.67115 -3.7982 255 0 0
1.91741 3.36074 -3.76526 255 0 0
3.81215 3.10325 -3.82776 255 0 0
3.49896 2.19154 -3.92521 255 0 0
4.30638 2.4614 -3.598 255 0 0
2.94381 3.49893 -3.90517 255 0 0
3.23284 2.65514 -3.74302 255 0 0
3.11993 2.8952 -3.89927 255 0 0
3.03519 3.573 -3.77284 255 0 0
1.88305 3.42526 -3.74418 255 0 0
3.10245 2.28228 -3.75716 255 0 0
4.41058 2.33025 -4.32609 255 0 0
4.16322 2.3145 -3.84666 255 0 0
4.55437 2.39933 -3.89788 255 0 0
1.89946 3.54412 -3.79429 255 0 0
1.83778 3.64424 -3.78071 255 0 0
2.06207 3.60771 -3.69098 255 0 0
3.19233 2.64094 -3.80764 255 0 0
2.98596 3.16466 -3.81284 255 0 0
3.91122 2.40478 -3.77999 255 0 0
4.26456 2.4442 -3.76594 255 0 0
4.01371 2.2878 -3.83539 255 0 0
2.80818 3.18652 -3.83218 255 0 0
1.72372 3.39802 -3.77674 255 0 0
4.16213 2.50497 -3.6097 255 0 0
3.14302 3.21462 -3.74295 255 0 0
2.94756 3.45324 -3.89165 255 0 0
4.22532 2.23879 -4.08627 255 0 0
3.83594 2.40892 -3.62736 255 0 0
4.48556 2.37668 -3.87155 255 0 0
3.76371 3.57658 -4.31682 255 0 0
3.84512 3.01558 -3.94131 255 0 0
3.35885 2.21063 -3.79429 255 0 0
3.24633 2.74449 -3.77117 255 0 0
2.47217 3.06896 -3.7585 255 0 0
3.90843 2.54586 -3.94345 255 0 0
3.10776 2.44921 -3.76565 255 0 0
2.27037 3.70244 -3.64236 255 0 0
2.31683 3.58837 -3.6723 255 0 0
3.93478 2.60307 -3.8743 255 0 0
3.18745 2.47547 -3.76081 255 0 0
4.27921 2.22851 -4.10501 255 0 0
3.31467 2.23831 -3.78474 255 0 0
3.67498 2.46896 -3.88798 255 0 0
3.5057 2.2658 -3.78003 255 0 0
2.04238 3.59307 -3.72201 255 0 0
1.66133 3.55238 -3.8287 255 0 0
3.31797 2.35697 -3.69573 255 0 0
2.85792 3.3887 -3.93408 255 0 0
2.88929 3.34462 -3.67136 255 0 0
3.36503 2.34271 -3.7889 255 0 0
4.48518 2.29537 -4.05028 255 0 0
4.25964 2.23977 -4.08382 255 0 0
2.90499 3.299 -3.78875 255 0 0
1.93868 3.46779 -3.77281 255 0 0
3.1411 2.89413 -3.82137 255 0 0
4.02049 2.85602 -3.91192 255 0 0
3.08038 2.26604 -3.63074 255 0 0
3.10665 2.70311 -3.92026 255 0 0
2.03349 3.64753 -3.69937 255 0 0
3.9839 2.52826 -3.92007 255 0 0
3.15455 2.40823 -3.73154 255 0 0
4.06708 2.26104 -3.89358 255 0 0
3.90978 2.43593 -3.6119 255 0 0
2.25768 3.54818 -3.63043 255 0 0
4.3197 2.32831 -3.85568 255 0 0
3.1092 2.41469 -3.79605 255 0 0
3.00069 3.24131 -3.62849 255 0 0
4.38448 2.23073 -4.29392 255 0 0
4.49139 2.2384 -4.23928 255 0 0
3.00833 3.17326 -3.82184 255 0 0
4.0955 2.59911 -3.83428 255 0 0
3.15927 3.22865 -3.72251 255 0 0
1.80988 3.45196 -3.77823 255 0 0
1.91043 3.62631 -3.74787 255 0 0
3.29488 2.4359 -3.62785 255 0 0
3.17308 2.59976 -3.91284 255 0 0
2.24087 3.44915 -3.71375 255 0 0
2.87215 3.29308 -3.73594 255 0 0
3.66517 2.24151 -3.83209 255 0 0
4.50354 2.33856 -3.96731 255 0 0
2.87918 3.40569 -3.90176 255 0 0
1.86466 3.55649 -3.7919 255 0 0
4.16993 2.25396 -3.92889 255 0 0
3.05888 3.27289 -3.82296 255 0 0
2.20685 3.63746 -3.83226 255 0 0
3.15722 3.34616 -3.7397 255 0 0
2.47808 3.47971 -3.61544 255 0 0
1.6505 3.47536 -3.79406 255 0 0
1.72212 3.44319 -3.77192 255 0 0
3.82221 3.58928 -4.23595 255 0 0
2.78341 3.19897 -3.93458 255 0 0
4.10936 2.31015 -3.82762 255 0 0
4.45474 2.31992 -3.99536 255 0 0
4.29258 2.50101 -3.69218 255 0 0
2.40042 3.67562 -3.91534 255 0 0
1.65556 3.60296 -3.80901 255 0 0
3.99316 2.22618 -4.04005 255 0 0
1.87438 3.31575 -3.73772 255 0 0
3.1632 2.80544 -3.803 255 0 0
2.79669 2.20406 -3.66043 255 0 0
3.95488 2.82355 -3.93051 255 0 0
2.5511 3.61844 -3.88798 255 0 0
3.74132 3.00648 -3.72437 255 0 0
3.16733 2.25373 -3.73464 255 0 0
1.69584 3.59279 -3.77281 255 0 0
4.46195 2.4806 -3.69166 255 0 0
3.16353 3.33696 -3.82674 255 0 0
3.72392 3.06585 -3.77838 255 0 0
2.87936 3.48896 -4.01857 255 0 0
2.77768 3.15443 -3.91757 255 0 0
3.26493 2.59827 -3.73852 255 0 0
4.53281 3.17169 -3.93582 255 0 0
3.1399 2.56015 -3.64861 255 0 0
3.51459 2.19549 -3.84916 255 0 0
3.21721 2.58531 -3.67951 255 0 0
3.14348 3.22273 -3.70242 255 0 0
4.12508 2.20451 -4.13387 255 0 0
3.21336 2.22018 -3.82128 255 0 0
3.19165 2.79709 -3.72696 255 0 0
3.86687 2.35024 -3.71836 255 0 0
4.27925 2.26737 -4.01776 255 0 0
3.74512 2.3272 -3.79427 255 0 0
2.37084 3.6116 -3.8849 255 0 0
3.15513 2.40273 -3.63312 255 0 0
2.07941 3.46433 -3.64419 255 0 0
2.67596 3.19591 -3.65595 255 0 0
4.25246 2.30508 -3.87524 255 0 0
4.40936 2.21713 -4.2023 255 0 0
3.54411 2.87576 -3.76941 255 0 0
3.97343 2.19055 -4.11575 255 0 0
4.18112 2.46268 -3.69796 255 0 0
4.57329 2.9944 -3.96392 255 0 0
2.43198 3.2093 -3.67772 255 0 0
3.95776 2.39477 -3.61867 255 0 0
2.9014 3.33458 -3.79868 255 0 0
4.12381 2.35056 -3.75002 255 0 0
3.66012 3.61269 -3.99376 255 0 0
4.21469 2.34968 -3.77905 255 0 0
3.06549 2.28695 -3.7385 255 0 0
3.14922 2.68812 -3.88901 255 0 0
2.92606 3.37906 -3.86238 255 0 0
4.42976 2.46958 -3.63391 255 0 0
4.38023 2.21551 -4.19037 255 0 0
1.77421 3.24549 -3.72477 255 0 0
3.13197 2.77112 -3.62125 255 0 0
3.14286 2.50115 -3.8325 255 0 0
4.04293 2.32993 -3.76456 255 0 0
4.45837 3.05702 -3.94214 255 0 0
4.41381 2.28973 -4.31867 255 0 0
3.88181 3.13455 -3.88675 255 0 0
4.24333 2.25478 -3.95538 255 0 0
1.97438 3.5713 -3.70024 255 0 0
3.91362 2.8222 -3.82462 255 0 0
2.5877 3.38966 -3.7768 255 0 0
3.92216 2.7444 -3.99449 255 0 0
3.45155 2.43957 -3.76104 255 0 0
2.57721 3.6463 -3.94812 255 0 0
4.00513 2.50196 -3.83079 255 0 0
3.16839 2.44065 -3.73179 255 0 0
1.96698 3.55291 -3.7318 255 0 0
2.78529 3.30257 -3.97104 255 0 0
4.11398 2.28715 -3.86997 255 0 0
2.96061 2.35606 -3.76437 255 0 0
2.84058 3.31196 -3.94699 255 0 0
1.55956 3.6098 -3.83365 255 0 0
2.93913 3.68427 -3.91786 255 0 0
2.83478 3.16591 -3.81218 255 0 0
4.15588 2.33631 -3.80287 255 0 0
2.89468 3.14171 -3.86383 255 0 0
3.95968 2.31332 -3.77788 255 0 0
4.39378 2.84719 -3.93029 255 0 0
3.12817 2.79436 -3.93051 255 0 0
2.34308 2.98035 -3.69169 255 0 0
4.04256 2.60601 -3.86465 255 0 0
3.14037 3.29685 -3.76518 255 0 0
4.36419 2.33227 -3.87122 255 0 0
1.90809 3.63926 -3.79281 255 0 0
2.52655 3.07629 -3.61992 255 0 0
2.86999 3.31431 -3.86961 255 0 0
3.89466 2.40734 -3.73142 255 0 0
2.31289 3.59727 -3.72648 255 0 0
4.4647 2.26488 -4.13489 255 0 0
3.11449 2.35238 -3.66442 255 0 0
3.80132 3.64678 -4.37689 255 0 0
2.26899 3.64185 -3.82979 255 0 0
3.99078 2.50616 -3.87214 255 0 0
4.06123 2.33405 -3.81597 255 0 0
1.74613 3.36267 -3.76684 255 0 0
3.53842 3.39456 -4.2865 255 0 0
3.1602 2.78722 -3.92243 255 0 0
2.15875 3.60294 -3.72281 255 0 0
3.72345 3.57208 -4.20035 255 0 0
3.12882 2.21146 -3.78664 255 0 0
2.96064 3.25182 -3.73652 255 0 0
1.83126 3.34988 -3.74177 255 0 0
4.37085 2.24994 -4.14481 255 0 0
1.71657 3.25836 -3.71735 255 0 0
3.04559 3.25868 -3.7292 255 0 0
3.11849 2.87328 -3.93458 255 0 0
2.82736 3.28077 -3.88959 255 0 0
3.97733 2.47149 -3.77077 255 0 0
3.5718 2.52456 -3.90832 255 0 0
4.11787 2.23634 -3.98294 255 0 0
2.35674 3.14081 -3.63606 255 0 0
4.44841 2.85273 -3.89859 255 0 0
2.14888 3.55146 -3.72951 255 0 0
1.60418 3.50573 -3.79777 255 0 0
3.11516 2.34518 -3.727 255 0 0
3.9187 2.29564 -3.82616 255 0 0
4.34173 2.75534 -3.89585 255 0 0
3.91777 2.75865 -3.93824 255 0 0
2.92134 3.63539 -4.03476 255 0 0
3.21007 2.58584 -3.63758 255 0 0
2.9061 3.29555 -3.72865 255 0 0
2.32755 3.55175 -3.63278 255 0 0
2.8748 3.35992 -3.88568 255 0 0
4.48459 3.10637 -3.95996 255 0 0
3.76822 3.61502 -4.27828 255 0 0
4.00607 2.37879 -3.67388 255 0 0
3.27385 3.08166 -4.05124 255 0 0
3.13255 3.30428 -3.76518 255 0 0
4.44143 3.13922 -3.95402 255 0 0
3.52107 2.7885 -3.87139 255 0 0
3.80092 3.01011 -3.92618 255 0 0
3.15956 2.64423 -3.78128 255 0 0
3.66682 2.20448 -3.9778 255 0 0
1.74549 3.653 -3.84709 255 0 0
2.91352 3.18478 -3.81947 255 0 0
4.06863 2.20542 -4.0651 255 0 0
3.85438 2.35312 -3.66495 255 0 0
2.21461 3.70944 -3.8849 255 0 0
3.26781 2.22927 -3.82462 255 0 0
3.86368 2.23272 -3.9249 255 0 0
4.05824 2.3005 -3.83827 255 0 0
3.62733 2.23616 -3.85915 255 0 0
2.94833 3.19993 -3.60418 255 0 0
1.96784 3.62004 -3.75706 255 0 0
3.05013 2.28869 -3.62614 255 0 0
3.96244 2.22756 -3.98325 255 0 0
3.65293 3.52109 -4.1636 255 0 0
4.63507 3.27608 -3.98611 255 0 0
3.44421 2.24929 -3.79476 255 0 0
3.12441 2.30987 -3.69524 255 0 0
2.7226 3.67356 -3.99495 255 0 0
2.57194 3.55768 -3.95892 255 0 0
3.16364 2.54844 -3.73237 255 0 0
4.00223 2.71645 -3.87524 255 0 0
3.10752 3.2392 -3.87026 255 0 0
3.95231 2.21156 -4.02096 255 0 0
3.19782 2.30028 -3.71866 255 0 0
2.92378 3.12091 -3.82367 255 0 0
2.39805 3.02067 -3.75959 255 0 0
4.1575 2.99807 -3.88978 255 0 0
3.18576 2.57249 -3.66626 255 0 0
2.9672 3.61276 -3.99363 255 0 0
3.91056 2.32832 -3.72106 255 0 0
3.86225 3.65283 -4.26695 255 0 0
3.96417 2.43733 -3.62834 255 0 0
3.86729 3.10017 -3.87432 255 0 0
3.91628 3.13182 -3.80158 255 0 0
4.50638 2.45657 -3.74819 255 0 0
4.42285 2.4933 -3.6357 255 0 0
2.67465 3.60888 -3.95983 255 0 0
3.80624 3.58279 -4.28062 255 0 0
3.13452 2.73387 -3.81466 255 0 0
3.57045 2.23984 -3.83057 255 0 0
2.78024 3.29659 -3.92432 255 0 0
2.14297 3.62847 -3.71482 255 0 0
3.83615 2.21076 -3.93173 255 0 0
3.52134 2.20553 -3.88524 255 0 0
3.04953 3.27844 -3.65077 255 0 0
4.46604 2.25226 -4.18227 255 0 0
3.9376 2.36983 -3.65112 255 0 0
3.2142 2.50848 -3.73869 255 0 0
3.19275 3.23465 -3.762 255 0 0
4.30485 2.89215 -3.91206 255 0 0
1.8078 3.38276 -3.74987 255 0 0
2.34124 3.62241 -3.79707 255 0 0
3.85552 2.2832 -3.8234 255 0 0
3.80299 2.20368 -3.96131 255 0 0
2.23221 3.02686 -3.71585 255 0 0
4.05905 2.23147 -3.97526 255 0 0
3.0892 2.59284 -3.88067 255 0 0
2.99974 3.6348 -4.00971 255 0 0
3.1173 3.29342 -3.71485 255 0 0
2.60671 3.57887 -3.93173 255 0 0
3.95802 2.49869 -3.72571 255 0 0
3.25073 2.20076 -3.83056 255 0 0
1.60631 3.46678 -3.78169 255 0 0
1.66629 3.55198 -3.78997 255 0 0
2.53342 3.61151 -3.92471 255 0 0
3.77306 2.22836 -3.91183 255 0 0
1.63115 3.65593 -3.82643 255 0 0
3.65762 2.29092 -3.7982 255 0 0
3.7783 2.21337 -3.99777 255 0 0
3.71877 2.20821 -4.01677 255 0 0
2.47814 3.14447 -3.74676 255 0 0
3.05598 3.19303 -3.6295 255 0 0
4.46824 3.20607 -3.9758 255 0 0
4.35172 2.20756 -4.22622 255 0 0
1.65088 3.39275 -3.75942 255 0 0
4.11415 2.24698 -3.92274 255 0 0
3.04041 2.44323 -3.81881 255 0 0
2.94113 3.17697 -3.80383 255 0 0
3.96074 2.20814 -4.08401 255 0 0
3.75683 3.48622 -4.08559 255 0 0
3.16758 2.80263 -3.97223 255 0 0
2.81135 3.61988 -3.97707 255 0 0
3.16391 2.57972 -3.7811 255 0 0
2.8205 3.27281 -3.9279 255 0 0
3.08822 2.36338 -3.77417 255 0 0
3.5107 2.2927 -3.78807 255 0 0
2.66389 3.63018 -3.92014 255 0 0
2.08319 3.58524 -3.64731 255 0 0
2.3826 3.51934 -3.60715 255 0 0
3.77153 3.55014 -4.31126 255 0 0
2.11226 3.67529 -3.68406 255 0 0
3.60796 2.24787 -3.81276 255 0 0
4.00625 2.23761 -3.91192 255 0 0
1.91356 3.40388 -3.66519 255 0 0
3.16116 2.74833 -3.92514 255 0 0
2.89026 3.35375 -3.88798 255 0 0
2.89533 3.59427 -3.87813 255 0 0
2.93183 3.67512 -4.05115 255 0 0
3.66706 2.2129 -3.93257 255 0 0
3.96928 2.447 -3.83 255 0 0
3.14983 2.53526 -3.77747 255 0 0
2.91588 2.27566 -3.72477 255 0 0
3.15798 2.64633 -3.6236 255 0 0
3.21565 2.75137 -3.76329 255 0 0
2.91644 3.26487 -3.73918 255 0 0
3.96856 2.45953 -3.85484 255 0 0
3.28421 2.65199 -3.75879 255 0 0
4.09616 2.56556 -3.82772 255 0 0
3.61943 2.24909 -3.98708 255 0 0
3.2266 2.32677 -3.65745 255 0 0
1.79213 3.25987 -3.73467 255 0 0
2.82481 3.24655 -3.83515 255 0 0
3.47597 2.21171 -3.83843 255 0 0
3.00175 3.23472 -3.66877 255 0 0
2.07383 3.62832 -3.66028 255 0 0
3.85016 2.38613 -3.62736 255 0 0
3.25692 2.64274 -3.74753 255 0 0
3.15215 3.26242 -3.83505 255 0 0
4.20624 2.42404 -3.74417 255 0 0
2.5073 3.48564 -3.91597 255 0 0
2.94833 3.64236 -3.95246 255 0 0
4.05545 2.61429 -3.82462 255 0 0
3.91219 2.64184 -3.96687 255 0 0
2.06223 3.55882 -3.71375 255 0 0
3.61079 2.20239 -3.97223 255 0 0
2.87837 3.29233 -3.63301 255 0 0
1.71942 3.35653 -3.75859 255 0 0
4.42667 2.2127 -4.25782 255 0 0
3.09241 2.49711 -3.85345 255 0 0
2.66172 3.36919 -3.91597 255 0 0
4.48273 3.01162 -3.99105 255 0 0
3.01561 3.1137 -3.59811 255 0 0
1.80944 3.55293 -3.77917 255 0 0
2.25282 3.57793 -3.59887 255 0 0
3.12684 3.25548 -3.72846 255 0 0
2.94154 2.25113 -3.72725 255 0 0
4.54669 2.36781 -3.93853 255 0 0
2.94409 3.03266 -3.76104 255 0 0
3.91279 2.65574 -4.0166 255 0 0
4.14862 2.28072 -3.88078 255 0 0
3.12203 2.63304 -3.78188 255 0 0
3.29606 2.36501 -3.65081 255 0 0
3.54547 2.27368 -3.79611 255 0 0
1.87378 3.38933 -3.76688 255 0 0
3.15517 2.79165 -3.83807 255 0 0
4.36776 2.26148 -4.04929 255 0 0
2.84281 3.616 -3.96148 255 0 0
2.90957 3.60756 -3.97641 255 0 0
1.81054 3.60431 -3.79985 255 0 0
1.75862 3.48032 -3.77904 255 0 0
4.30939 2.86561 -3.90801 255 0 0
2.98198 3.64841 -4.05583 255 0 0
2.86201 3.41812 -3.81413 255 0 0
3.76719 2.35331 -3.80751 255 0 0
2.76166 3.64429 -3.99495 255 0 0
4.3764 2.26595 -4.10158 255 0 0
3.25862 2.7088 -3.76554 255 0 0
2.98445 3.63382 -3.95921 255 0 0
4.23384 2.38675 -3.74614 255 0 0
3.07576 2.79375 -3.93759 255 0 0
2.10901 3.60346 -3.68563 255 0 0
4.01518 2.30127 -3.75006 255 0 0
1.84356 3.43008 -3.7766 255 0 0
3.66036 3.64736 -3.99094 255 0 0
2.59613 3.18404 -3.67178 255 0 0
4.41138 2.47993 -3.67692 255 0 0
4.34209 2.46136 -3.6539 255 0 0
4.63765 3.03654 -3.93969 255 0 0
2.9594 3.30509 -3.8053 255 0 0
3.16857 2.74379 -3.82871 255 0 0
4.25058 2.41393 -3.72568 255 0 0
3.78128 2.2091 -3.95415 255 0 0
4.07032 2.44314 -3.61698 255 0 0
3.16932 3.08406 -3.92939 255 0 0
2.97019 3.61645 -4.04178 255 0 0
2.85613 3.15944 -3.77455 255 0 0
3.14045 2.87294 -3.89927 255 0 0
3.54444 2.25528 -3.79151 255 0 0
2.76277 3.5487 -3.96217 255 0 0
3.09343 3.62412 -3.80183 255 0 0
2.35976 3.55782 -3.65512 255 0 0
4.31375 2.5546 -3.66127 255 0 0
3.72658 3.52452 -4.13712 255 0 0
3.1624 2.82489 -3.93458 255 0 0
3.00828 3.23794 -3.78785 255 0 0
1.76063 3.55382 -3.73037 255 0 0
3.16258 2.56866 -3.87523 255 0 0
4.30588 2.99772 -3.93434 255 0 0
2.92401 3.25002 -3.6325 255 0 0
1.61232 3.34361 -3.73096 255 0 0
3.14088 3.3447 -3.8671 255 0 0
3.47173 3.49237 -3.9091 255 0 0
4.17065 2.39038 -3.7723 255 0 0
2.80766 3.22682 -3.86617 255 0 0
3.15366 2.84071 -3.8204 255 0 0
4.0068 2.19041 -4.12936 255 0 0
3.19898 2.88497 -3.79482 255 0 0
2.8199 3.2024 -3.94673 255 0 0
3.05425 3.26794 -3.77702 255 0 0
3.91289 2.68981 -3.97836 255 0 0
4.44333 2.49098 -3.64109 255 0 0
4.37329 2.47904 -3.61954 255 0 0
4.24528 2.47343 -3.71923 255 0 0
3.91394 2.26178 -3.83951 255 0 0
4.47609 2.33104 -4.35331 255 0 0
3.14388 2.73876 -3.87096 255 0 0
2.84768 3.11282 -3.88257 255 0 0
4.45858 2.33538 -3.90332 255 0 0
4.29833 2.4907 -3.64617 255 0 0
4.29106 2.52744 -3.65022 255 0 0
4.2456 2.52785 -3.63733 255 0 0
4.23093 2.57378 -3.64101 255 0 0
4.26656 2.2801 -3.92186 255 0 0
3.19716 2.67056 -3.94253 255 0 0
1.86926 3.51781 -3.77758 255 0 0
3.6665 2.23041 -3.87242 255 0 0
3.12682 2.85505 -3.83899 255 0 0
4.35047 2.86326 -3.92016 255 0 0
4.44708 2.43794 -3.72742 255 0 0
4.39958 2.43228 -3.71232 255 0 0
4.30818 2.40848 -3.68117 255 0 0
4.26336 2.40339 -3.66701 255 0 0
4.2899 2.45201 -3.68305 255 0 0
4.28463 2.45571 -3.68211 255 0 0
4.15015 2.44444 -3.64058 255 0 0
4.10041 2.44141 -3.62547 255 0 0
3.96479 3.10943 -3.90539 255 0 0
3.17627 2.43076 -3.66646 255 0 0
3.96286 2.69521 -3.87633 255 0 0
2.84591 3.2708 -4.02172 255 0 0
2.35246 3.6779 -3.77661 255 0 0
4.28046 2.32027 -3.84119 255 0 0
1.73822 3.63778 -3.79906 255 0 0
4.30752 2.40141 -3.72567 255 0 0
4.4231 2.37052 -3.75597 255 0 0
4.5099 2.43082 -3.79272 255 0 0
4.45553 2.41517 -3.77338 255 0 0
4.28674 2.45691 -3.7289 255 0 0
4.27132 2.46155 -3.72503 255 0 0
4.18694 2.45276 -3.69796 255 0 0
4.11056 2.44084 -3.67281 255 0 0
3.99929 2.43287 -3.638 255 0 0
3.90996 2.39125 -3.62511 255 0 0
3.86451 2.43966 -3.63121 255 0 0
3.92984 2.53334 -3.63607 255 0 0
4.48503 2.90632 -3.87007 255 0 0
2.71459 3.53845 -3.94578 255 0 0
2.22645 3.63082 -3.77455 255 0 0
3.11971 2.63744 -3.82292 255 0 0
1.65938 3.64906 -3.82886 255 0 0
3.16085 2.596 -3.62497 255 0 0
3.94779 2.3442 -3.77999 255 0 0
4.45419 2.38038 -3.81445 255 0 0
2.87315 3.22411 -3.79932 255 0 0
4.49428 2.3813 -3.82731 255 0 0
4.32948 2.37347 -3.77386 255 0 0
4.29006 2.36511 -3.76 255 0 0
4.26998 2.36726 -3.75406 255 0 0
4.2597 2.39689 -3.75604 255 0 0
4.47701 2.59425 -3.85899 255 0 0
4.49942 2.6215 -3.87087 255 0 0
4.4076 2.58203 -3.83523 255 0 0
4.10234 2.41628 -3.71051 255 0 0
3.956 2.36391 -3.6846 255 0 0
3.85696 2.35048 -3.62274 255 0 0
4.02312 2.56655 -3.71447 255 0 0
4.58521 2.95582 -3.95996 255 0 0
4.53883 2.95648 -3.9461 255 0 0
4.56563 3.036 -3.96986 255 0 0
4.44634 2.95668 -3.91838 255 0 0
4.50187 3.03222 -3.95006 255 0 0
4.51515 3.09598 -3.96689 255 0 0
4.50515 3.14436 -3.97382 255 0 0
4.48492 3.15404 -3.96986 255 0 0
4.39857 3.14557 -3.9428 255 0 0
4.4976 3.25956 -3.99559 255 0 0
3.68274 2.9738 -3.70061 255 0 0
3.76637 3.63044 -4.38663 255 0 0
1.70568 3.61364 -3.86335 255 0 0
3.04393 2.99028 -3.90404 255 0 0
2.84967 3.19268 -3.92388 255 0 0
4.33121 2.32127 -4.29145 255 0 0
4.39713 2.34988 -3.83813 255 0 0
4.33724 2.35105 -3.81889 255 0 0
4.30753 2.34818 -3.80876 255 0 0
4.26786 2.34627 -3.79559 255 0 0
4.09591 2.32181 -3.73584 255 0 0
4.22209 2.43318 -3.79661 255 0 0
4.36842 2.53132 -3.86142 255 0 0
4.39564 2.56103 -3.8756 255 0 0
3.93448 2.30486 -3.68115 255 0 0
3.88167 2.2863 -3.6609 255 0 0
3.91629 2.35701 -3.6852 255 0 0
3.83467 2.33273 -3.65482 255 0 0
3.8567 2.39651 -3.67406 255 0 0
3.80771 2.36609 -3.6528 255 0 0
4.42318 2.82177 -3.93434 255 0 0
4.47197 2.86784 -3.95864 255 0 0
4.44686 2.89658 -3.95662 255 0 0
4.4103 3.00103 -3.96675 255 0 0
4.36787 2.99497 -3.95257 255 0 0
4.24025 2.96697 -3.90801 255 0 0
4.27681 3.01527 -3.92927 255 0 0
3.97441 2.59556 -3.93165 255 0 0
4.20477 3.01703 -3.90801 255 0 0
3.86684 3.05489 -3.81686 255 0 0
3.86001 3.09436 -3.82395 255 0 0
3.85229 3.12579 -3.82901 255 0 0
3.16067 2.70248 -3.63497 255 0 0
3.11485 3.25457 -3.6609 255 0 0
2.9546 3.24515 -3.63183 255 0 0
2.95428 3.28367 -3.62849 255 0 0
2.89116 3.24432 -3.60216 255 0 0
2.91068 3.30285 -3.62309 255 0 0
2.9829 3.47789 -3.68925 255 0 0
2.31633 3.54694 -3.68298 255 0 0
3.2365 2.3456 -3.62654 255 0 0
2.36653 3.17735 -3.65069 255 0 0
3.90456 2.23171 -3.91784 255 0 0
4.30349 2.28021 -3.93483 255 0 0
2.95547 3.64231 -4.04647 255 0 0
4.53284 2.34695 -3.93024 255 0 0
4.27495 2.33041 -3.84119 255 0 0
4.23099 2.31948 -3.82462 255 0 0
4.21074 2.32787 -3.81944 255 0 0
4.17133 2.32551 -3.80598 255 0 0
4.12571 2.34515 -3.79459 255 0 0
3.99317 2.33925 -3.75006 255 0 0
4.02156 2.6468 -3.83198 255 0 0
4.02194 2.69517 -3.83083 255 0 0
4.01203 2.744 -3.83808 255 0 0
4.00592 2.78184 -3.84429 255 0 0
4.01098 2.81362 -3.87602 255 0 0
4.02403 2.85138 -3.865 255 0 0
4.0093 2.87677 -3.86604 255 0 0
3.89482 3.09201 -3.88054 255 0 0
3.73672 3.6362 -3.97166 255 0 0
3.70641 3.64107 -3.96476 255 0 0
3.20484 3.23922 -3.72313 255 0 0
3.11675 3.21052 -3.69207 255 0 0
3.14705 3.27264 -3.71692 255 0 0
2.95783 3.25253 -3.68341 255 0 0
2.9139 3.28549 -3.67264 255 0 0
2.38786 3.50915 -3.60508 255 0 0
2.41097 3.57949 -3.63201 255 0 0
2.30293 3.58174 -3.61026 255 0 0
2.27061 3.58728 -3.61891 255 0 0
2.25327 3.65508 -3.62372 255 0 0
3.57319 2.20279 -3.95738 255 0 0
3.15709 2.74041 -3.68503 255 0 0
4.40991 2.32322 -3.93238 255 0 0
4.38026 2.32089 -3.9218 255 0 0
4.36029 2.32357 -3.91545 255 0 0
4.31147 2.31069 -3.8964 255 0 0
4.20339 2.30436 -3.87369 255 0 0
4.10824 2.3288 -3.83079 255 0 0
4.01039 2.32386 -3.79693 255 0 0
3.90866 2.33982 -3.78059 255 0 0
3.86613 2.35188 -3.77602 255 0 0
4.01488 2.54794 -3.84349 255 0 0
4.0207 2.59528 -3.87818 255 0 0
3.99749 2.65822 -3.86113 255 0 0
3.99628 2.75414 -3.88159 255 0 0
3.98213 2.77934 -3.88265 255 0 0
4.00987 2.87718 -3.91333 255 0 0
3.85985 3.10173 -3.91968 255 0 0
3.86948 3.12459 -3.92815 255 0 0
3.19878 2.60816 -3.60009 255 0 0
3.1606 2.74671 -3.62337 255 0 0
3.14628 2.78377 -3.62866 255 0 0
3.10684 3.21553 -3.73343 255 0 0
3.12805 3.33104 -3.77153 255 0 0
2.99986 3.24483 -3.73132 255 0 0
2.88333 3.30589 -3.70062 255 0 0
2.22428 3.56064 -3.6276 255 0 0
2.21178 3.60686 -3.6403 255 0 0
2.22605 3.63017 -3.65089 255 0 0
2.16436 3.60587 -3.63043 255 0 0
2.12122 3.57228 -3.61067 255 0 0
2.15994 3.65721 -3.64665 255 0 0
3.21105 2.79391 -3.77343 255 0 0
1.67648 3.57369 -3.80091 255 0 0
2.83208 3.38238 -3.92471 255 0 0
3.21813 2.27459 -3.7585 255 0 0
4.52098 2.33401 -4.0213 255 0 0
4.35968 2.29018 -3.98014 255 0 0
4.08209 2.28846 -3.85917 255 0 0
3.9606 2.29498 -3.81852 255 0 0
3.93304 2.32914 -3.81593 255 0 0
3.88543 2.31341 -3.79647 255 0 0
3.80978 2.29291 -3.78789 255 0 0
3.91808 2.39621 -3.82458 255 0 0
3.95315 2.58834 -3.87718 255 0 0
3.94751 2.6453 -3.88781 255 0 0
3.92277 2.70349 -3.89267 255 0 0
3.94017 2.74313 -3.93047 255 0 0
3.92379 2.77335 -3.90889 255 0 0
3.29263 2.37439 -3.61272 255 0 0
3.78632 2.94057 -3.90456 255 0 0
3.28087 2.62369 -3.66893 255 0 0
3.17181 2.69829 -3.67845 255 0 0
3.16234 2.78465 -3.67397 255 0 0
3.20717 3.21098 -3.80296 255 0 0
3.16003 3.19389 -3.78494 255 0 0
3.14222 3.23675 -3.79215 255 0 0
3.21128 3.35533 -3.84511 255 0 0
3.32229 3.47131 -3.90889 255 0 0
2.95085 3.29947 -3.79061 255 0 0
2.92719 3.39661 -3.78134 255 0 0
3.04599 3.55997 -3.86133 255 0 0
3.05838 3.6351 -3.88727 255 0 0
2.34464 3.59021 -3.70351 255 0 0
2.27022 3.60559 -3.69271 255 0 0
2.20455 3.59511 -3.67541 255 0 0
2.16759 3.53484 -3.64731 255 0 0
2.19036 3.57196 -3.6646 255 0 0
2.1902 3.62938 -3.68406 255 0 0
2.14787 3.59766 -3.6646 255 0 0
2.10006 3.58485 -3.65055 255 0 0
2.09646 3.62786 -3.6646 255 0 0
3.26188 3.04135 -3.94578 255 0 0
3.35774 2.29646 -3.77485 255 0 0
4.49437 2.3001 -4.07897 255 0 0
4.40892 2.28941 -4.02159 255 0 0
4.20182 2.25193 -3.93993 255 0 0
4.01076 2.26725 -3.87482 255 0 0
3.98147 2.26943 -3.86489 255 0 0
3.94784 2.26268 -3.85165 255 0 0
3.77901 2.29274 -3.79868 255 0 0
3.72223 2.28857 -3.77808 255 0 0
3.81672 2.39685 -3.83399 255 0 0
3.99011 2.55884 -3.92889 255 0 0
3.9304 2.64962 -3.92889 255 0 0
3.94362 2.64944 -3.93331 255 0 0
3.93023 2.6949 -3.93919 255 0 0
3.9417 2.78601 -3.9642 255 0 0
3.54443 2.53051 -3.7722 255 0 0
3.15596 2.35451 -3.62775 255 0 0
3.13117 2.39625 -3.60447 255 0 0
3.3228 2.64432 -3.72806 255 0 0
3.1655 2.63778 -3.67675 255 0 0
3.19542 2.7297 -3.73741 255 0 0
3.16599 2.74813 -3.70599 255 0 0
3.20014 3.2653 -3.86048 255 0 0
3.13559 3.21464 -3.82737 255 0 0
3.13078 3.29203 -3.84871 255 0 0
3.14236 3.29897 -3.87609 255 0 0
2.9197 3.35561 -3.84243 255 0 0
2.96397 3.43106 -3.84503 255 0 0
2.52348 3.05774 -3.6133 255 0 0
2.57285 3.17849 -3.66406 255 0 0
2.99196 3.73231 -3.94655 255 0 0
2.31356 3.56102 -3.72806 255 0 0
2.27525 3.63263 -3.74424 255 0 0
2.09041 3.55872 -3.67951 255 0 0
2.03317 3.61664 -3.68833 255 0 0
3.12061 2.24712 -3.78211 255 0 0
4.14962 2.19239 -4.14116 255 0 0
3.17642 3.07634 -3.88568 255 0 0
4.04278 2.19143 -4.05198 255 0 0
4.3094 2.2507 -4.02565 255 0 0
4.21367 2.25825 -3.99187 255 0 0
4.07537 2.24675 -3.93895 255 0 0
3.84808 2.24814 -3.87865 255 0 0
3.7566 2.24475 -3.82334 255 0 0
3.71287 2.25864 -3.82487 255 0 0
3.68803 2.26755 -3.80383 255 0 0
3.65506 2.25924 -3.79032 255 0 0
3.6052 2.28793 -3.77906 255 0 0
3.64989 2.32845 -3.80383 255 0 0
3.83735 2.48662 -3.90517 255 0 0
3.92851 2.59896 -3.96259 255 0 0
3.94106 2.72988 -3.9975 255 0 0
3.17123 2.29261 -3.63043 255 0 0
3.25171 2.35662 -3.67321 255 0 0
3.10526 2.35897 -3.6248 255 0 0
3.69249 2.8677 -3.94795 255 0 0
3.78369 2.95293 -3.99975 255 0 0
3.61257 2.84705 -3.91643 255 0 0
3.34632 2.68255 -3.78694 255 0 0
3.28835 2.68119 -3.7678 255 0 0
3.22525 2.68972 -3.74978 255 0 0
3.17122 2.83955 -3.78392 255 0 0
3.38911 3.08569 -3.90967 255 0 0
3.72022 3.45225 -4.1146 255 0 0
3.82214 3.58071 -4.18216 255 0 0
3.77035 3.54901 -4.15739 255 0 0
3.09826 3.22191 -3.86238 255 0 0
2.94883 3.14763 -3.79707 255 0 0
2.93393 3.15416 -3.79482 255 0 0
2.9519 3.20381 -3.81509 255 0 0
2.94721 3.24473 -3.82635 255 0 0
2.91246 3.22946 -3.83314 255 0 0
2.8631 3.18232 -3.78356 255 0 0
2.91003 3.28894 -3.82973 255 0 0
2.88582 3.28507 -3.82184 255 0 0
2.92069 3.45479 -3.8849 255 0 0
3.01139 3.61386 -3.95996 255 0 0
2.97073 3.6171 -3.95021 255 0 0
2.91684 3.61217 -3.93444 255 0 0
2.9702 3.68722 -3.97273 255 0 0
2.86842 3.59563 -3.91643 255 0 0
2.8568 3.64268 -3.92881 255 0 0
2.80835 3.64274 -3.91643 255 0 0
2.73062 3.55934 -3.86913 255 0 0
2.34586 3.21275 -3.65745 255 0 0
2.13325 3.18344 -3.59665 255 0 0
2.29066 3.59065 -3.77455 255 0 0
2.05868 3.49518 -3.6901 255 0 0
2.01767 3.60907 -3.72276 255 0 0
1.95651 3.60265 -3.72818 255 0 0
1.95742 3.58062 -3.70024 255 0 0
1.96869 3.64217 -3.72501 255 0 0
1.91064 3.57519 -3.68898 255 0 0
2.43083 3.18417 -3.82764 255 0 0
2.37106 3.00127 -3.74501 255 0 0
4.41798 2.26757 -4.11766 255 0 0
4.30626 2.24907 -4.07172 255 0 0
4.21404 2.23923 -4.03498 255 0 0
4.15059 2.23714 -4.0339 255 0 0
4.00979 2.2313 -3.9719 255 0 0
3.97432 2.23423 -3.94425 255 0 0
3.91715 2.22048 -3.92014 255 0 0
3.79887 2.23147 -3.87879 255 0 0
3.75229 2.23654 -3.87999 255 0 0
3.73331 2.24688 -3.85812 255 0 0
3.46622 2.29903 -3.77371 255 0 0
3.81642 2.57713 -3.96377 255 0 0
3.92728 2.72033 -4.03727 255 0 0
3.20794 2.3104 -3.68586 255 0 0
3.24994 2.524 -3.75476 255 0 0
3.16016 2.50263 -3.73223 255 0 0
3.19872 2.54558 -3.74328 255 0 0
3.1561 2.62358 -3.75017 255 0 0
3.16366 2.69651 -3.77268 255 0 0
3.13274 2.75858 -3.78003 255 0 0
3.12635 2.84645 -3.803 255 0 0
3.0842 3.00123 -3.83515 255 0 0
2.94225 3.11833 -3.82826 255 0 0
2.90331 3.14361 -3.82482 255 0 0
2.90641 3.44611 -3.92243 255 0 0
2.86997 3.42759 -3.92837 255 0 0
2.90316 3.48401 -3.93392 255 0 0
2.87572 3.6312 -3.97526 255 0 0
2.79586 3.59119 -3.94081 255 0 0
2.68178 3.46156 -3.86731 255 0 0
2.50256 3.2461 -3.74787 255 0 0
2.6865 3.51908 -3.88798 255 0 0
2.66838 3.51257 -3.88109 255 0 0
2.74017 3.63385 -3.94081 255 0 0
2.69607 3.61979 -3.92473 255 0 0
2.44452 3.50241 -3.82137 255 0 0
2.47687 3.58486 -3.85812 255 0 0
2.29856 3.60308 -3.82252 255 0 0
2.23037 3.59881 -3.82635 255 0 0
1.93188 3.61494 -3.74787 255 0 0
1.88145 3.62325 -3.74098 255 0 0
4.41974 2.24867 -4.16354 255 0 0
4.16316 2.21852 -4.05818 255 0 0
4.17681 2.23852 -4.06754 255 0 0
4.06804 2.23638 -4.02539 255 0 0
3.91963 2.23417 -3.96842 255 0 0
3.83224 2.23887 -3.93642 255 0 0
3.69237 2.22224 -3.88022 255 0 0
3.51402 2.24175 -3.81856 255 0 0
3.46702 2.24274 -3.8151 255 0 0
3.42007 2.25672 -3.78773 255 0 0
3.31616 2.26228 -3.75144 255 0 0
3.3339 2.27439 -3.76081 255 0 0
3.27447 2.25668 -3.73505 255 0 0
3.33309 2.33222 -3.77485 255 0 0
3.08446 2.29167 -3.67651 255 0 0
3.16216 2.65726 -3.83282 255 0 0
3.15759 2.70169 -3.83365 255 0 0
3.11317 2.88207 -3.85095 255 0 0
3.82811 3.63778 -4.30403 255 0 0
3.73408 3.56531 -4.25252 255 0 0
3.10318 3.05572 -3.90012 255 0 0
2.85108 3.0797 -3.83105 255 0 0
2.86546 3.12483 -3.84978 255 0 0
2.86296 3.15798 -3.88509 255 0 0
2.86918 3.18911 -3.87164 255 0 0
2.89213 3.24541 -3.89661 255 0 0
2.86056 3.35128 -3.93322 255 0 0
2.88453 3.47839 -3.97154 255 0 0
2.91726 3.53489 -3.99964 255 0 0
2.81351 3.6316 -4.00432 255 0 0
2.7583 3.61313 -3.98325 255 0 0
2.69923 3.59726 -3.96217 255 0 0
2.61755 3.65711 -3.96217 255 0 0
2.41783 3.6642 -3.91534 255 0 0
2.2962 3.64683 -3.88022 255 0 0
2.2561 3.64023 -3.86851 255 0 0
2.17818 3.70815 -3.87632 255 0 0
1.87865 3.53547 -3.74676 255 0 0
1.85751 3.59447 -3.77863 255 0 0
3.37514 2.25592 -3.89304 255 0 0
4.20932 2.20481 -4.12038 255 0 0
4.01566 2.20762 -4.04482 255 0 0
3.86472 2.20895 -3.98636 255 0 0
3.76601 2.22419 -3.97351 255 0 0
3.70341 2.19907 -3.92194 255 0 0
3.61196 2.19724 -3.88655 255 0 0
3.55734 2.22806 -3.87302 255 0 0
3.41556 2.20755 -3.83507 255 0 0
3.4108 2.22938 -3.83181 255 0 0
3.28809 2.22037 -3.77043 255 0 0
3.25023 2.23313 -3.77542 255 0 0
3.20954 2.24956 -3.74895 255 0 0
3.21299 2.23909 -3.77882 255 0 0
3.15197 2.28434 -3.73702 255 0 0
3.09216 2.26343 -3.72909 255 0 0
3.16104 2.44295 -3.7827 255 0 0
3.1229 2.47317 -3.77758 255 0 0
3.15243 2.55795 -3.81966 255 0 0
3.1148 2.60176 -3.81099 255 0 0
3.1295 2.71645 -3.84916 255 0 0
3.15366 2.80033 -3.88197 255 0 0
3.1703 2.83194 -3.89688 255 0 0
3.11712 2.81113 -3.87302 255 0 0
3.15388 3.06904 -3.96369 255 0 0
2.87387 3.24035 -3.93268 255 0 0
2.75571 3.15202 -3.86825 255 0 0
2.76175 3.18931 -3.88257 255 0 0
2.84908 3.35392 -3.96369 255 0 0
2.80455 3.3495 -3.94938 255 0 0
2.84732 3.42524 -3.98755 255 0 0
2.90162 3.53297 -4.04005 255 0 0
2.92452 3.58677 -4.0651 255 0 0
2.81772 3.53209 -4.01619 255 0 0
2.32752 2.98234 -3.68811 255 0 0
2.35096 3.042 -3.71555 255 0 0
1.94084 3.49107 -3.78236 255 0 0
1.79692 3.62706 -3.80622 255 0 0
1.74302 3.54997 -3.78447 255 0 0
1.72046 3.54647 -3.78844 255 0 0
4.49869 2.23539 -4.29184 255 0 0
4.39761 2.21122 -4.24567 255 0 0
4.2578 2.19813 -4.18612 255 0 0
4.07475 2.20251 -4.11321 255 0 0
4.00996 2.20447 -4.08769 255 0 0
3.91568 2.20736 -4.08848 255 0 0
3.89947 2.21655 -4.04638 255 0 0
3.84407 2.22748 -4.02693 255 0 0
3.80129 2.22681 -4.00992 255 0 0
3.61486 2.21666 -3.93458 255 0 0
3.57035 2.21272 -3.91635 255 0 0
3.45246 2.2071 -3.8777 255 0 0
3.34993 2.21614 -3.8325 255 0 0
3.30521 2.23188 -3.81954 255 0 0
3.15541 2.25275 -3.76883 255 0 0
3.03571 2.30045 -3.73772 255 0 0
3.14495 2.44247 -3.81671 255 0 0
3.13252 2.46271 -3.81792 255 0 0
3.14991 2.59639 -3.88287 255 0 0
3.15926 2.6453 -3.8799 255 0 0
3.12364 2.844 -3.92729 255 0 0
3.06194 2.84812 -3.92881 255 0 0
3.77021 3.58276 -4.37286 255 0 0
3.79219 3.67271 -4.4085 255 0 0
2.81442 3.14318 -3.92486 255 0 0
2.82272 3.25973 -3.98893 255 0 0
2.81391 3.28874 -3.97468 255 0 0
2.81412 3.35021 -3.99615 255 0 0
2.84723 3.44171 -4.03787 255 0 0
2.3837 3.03201 -3.75959 255 0 0
2.26698 3.12024 -3.75959 255 0 0
2.05645 3.14892 -3.71585 255 0 0
1.93912 3.12886 -3.67939 255 0 0
1.89639 3.14251 -3.67453 255 0 0
1.88176 3.25632 -3.71585 255 0 0
1.83004 3.27346 -3.71098 255 0 0
1.85851 3.34298 -3.74501 255 0 0
1.83395 3.39289 -3.75959 255 0 0
1.77102 3.39091 -3.7645 255 0 0
1.77252 3.44337 -3.76688 255 0 0
1.7214 3.60251 -3.82157 255 0 0
1.64313 3.68268 -3.83979 255 0 0
4.50314 2.23093 -4.34341 255 0 0
4.44269 2.22729 -4.31743 255 0 0
4.38502 2.21793 -4.29145 255 0 0
4.40752 2.25563 -4.30877 255 0 0
4.37416 2.33096 -4.31124 255 0 0
4.12949 2.22578 -4.18752 255 0 0
4.08222 2.21281 -4.16525 255 0 0
3.86746 2.21661 -4.07864 255 0 0
3.79783 2.18868 -4.04399 255 0 0
3.82477 2.2163 -4.06131 255 0 0
3.75622 2.20041 -4.02997 255 0 0
3.47732 2.201 -3.91903 255 0 0
3.41358 2.20057 -3.89387 255 0 0
3.3727 2.20829 -3.87985 255 0 0
3.20061 2.23388 -3.82004 255 0 0
3.14707 2.21319 -3.79406 255 0 0
3.05886 2.23903 -3.76766 255 0 0
2.99963 2.24247 -3.74642 255 0 0
3.02013 2.24387 -3.75447 255 0 0
2.97526 2.27693 -3.74704 255 0 0
2.91135 2.25555 -3.71735 255 0 0
3.00628 2.39244 -3.79159 255 0 0
3.1539 2.68559 -3.93165 255 0 0
3.06807 2.6504 -3.89057 255 0 0
3.12055 2.80752 -3.95738 255 0 0
3.09323 2.82974 -3.95491 255 0 0
3.01333 2.79629 -3.91696 255 0 0
3.0056 2.84596 -3.93016 255 0 0
2.91582 2.97518 -3.94253 255 0 0
2.96072 3.04259 -3.97965 255 0 0
2.74376 3.18376 -3.95986 255 0 0
2.76995 3.24518 -3.98955 255 0 0
1.7767 3.20474 -3.70869 255 0 0
1.72032 3.48281 -3.81138 255 0 0
1.67759 3.42695 -3.77921 255 0 0
1.629 3.40919 -3.76189 255 0 0
1.57661 3.44541 -3.76684 255 0 0
1.59959 3.53989 -3.81138 255 0 0
1.56963 3.50681 -3.79159 255 0 0
1.56028 3.54965 -3.80808 255 0 0
1.55818 3.64215 -3.84726 255 0 0
1.51097 3.57861 -3.81138 255 0 0
1.53508 3.67209 -3.85592 255 0 0
