ply
format ascii 1.0
comment Created by Open3D
element vertex 206
property double x
property double y
property double z
property uchar red
property uchar green
property uchar blue
end_header
20.7395 3.09605 -5.2498 255 0 0
22.7572 4.06218 -4.99454 255 0 0
22.2042 4.3449 -4.359 255 0 0
21.68 4.40267 -5.05289 255 0 0
21.0086 3.69867 -5.12463 255 0 0
20.9498 3.89351 -5.12123 255 0 0
22.7304 3.94627 -4.98853 255 0 0
22.8946 2.97502 -4.21335 255 0 0
22.9525 3.20419 -4.61121 255 0 0
22.592 4.08798 -4.00864 255 0 0
22.7531 3.06643 -4.00864 255 0 0
20.677 3.23723 -5.24352 255 0 0
22.5399 3.36482 -3.99384 255 0 0
22.5249 3.96563 -4.00098 255 0 0
22.4543 3.29763 -4.36629 255 0 0
22.6874 3.99424 -4.78965 255 0 0
21.471 3.62283 -5.00487 255 0 0
24.5794 2.83901 -5.20516 255 0 0
23.1895 3.18123 -3.85193 255 0 0
22.9695 3.37329 -4.6158 255 0 0
21.493 4.15285 -5.02087 255 0 0
22.7799 2.96012 -4.58826 255 0 0
21.7288 3.13848 -5.02968 255 0 0
22.4975 3.8509 -3.9969 255 0 0
21.5029 3.94359 -5.01687 255 0 0
23.2543 2.96571 -4.24744 255 0 0
22.698 3.99611 -4.59678 255 0 0
22.774 3.89824 -4.99304 255 0 0
21.4561 3.77747 -5.00647 255 0 0
21.9641 4.35202 -4.71151 255 0 0
23.0461 3.32874 -5.01636 255 0 0
21.5467 4.05732 -5.02568 255 0 0
20.6617 3.18467 -5.23993 255 0 0
23.5618 3.9756 -4.49137 255 0 0
21.1786 4.35315 -5.16706 255 0 0
22.3591 3.01332 -4.35232 255 0 0
20.6763 3.38797 -5.24711 255 0 0
20.9823 4.00258 -5.12887 255 0 0
21.4207 2.93858 -5.16706 255 0 0
22.9193 3.86719 -3.839 255 0 0
21.101 4.18101 -5.15094 255 0 0
22.9111 3.80997 -3.83762 255 0 0
22.4667 3.57202 -3.99027 255 0 0
22.9223 3.0339 -4.02293 255 0 0
23.3447 2.97724 -4.45373 255 0 0
23.4571 2.99158 -4.06886 255 0 0
22.5707 4.13943 -4.00762 255 0 0
23.5099 3.90953 -4.88608 255 0 0
23.5083 3.90927 -5.08707 255 0 0
21.1265 3.15382 -5.12887 255 0 0
20.7812 3.05192 -5.25518 255 0 0
23.3133 2.91708 -4.64726 255 0 0
22.9128 3.47604 -5.00207 255 0 0
24.3581 2.93056 -5.17808 255 0 0
21.5539 3.58428 -5.01527 255 0 0
22.9232 3.70035 -3.83716 255 0 0
22.587 2.98953 -4.18429 255 0 0
21.0027 3.49261 -5.11869 255 0 0
23.0301 3.43799 -5.01636 255 0 0
22.2339 3.69734 -4.16082 255 0 0
23.1292 2.89404 -4.82273 255 0 0
21.2192 4.41397 -5.1747 255 0 0
22.975 3.3741 -5.00808 255 0 0
21.635 3.33469 -5.02087 255 0 0
22.5238 3.80046 -3.99843 255 0 0
22.3192 3.22375 -4.16194 255 0 0
22.1028 2.81885 -5.2638 255 0 0
23.0486 3.3849 -3.84316 255 0 0
22.4883 3.90423 -3.9969 255 0 0
21.6658 3.28687 -5.02408 255 0 0
22.2957 3.38243 -4.16194 255 0 0
21.893 2.7921 -5.04569 255 0 0
22.5499 4.02518 -4.00405 255 0 0
23.1935 3.23782 -3.85286 255 0 0
21.1877 3.21433 -5.13906 255 0 0
20.9484 3.73931 -5.11699 255 0 0
21.5306 3.47556 -5.00967 255 0 0
21.2702 2.96934 -5.14584 255 0 0
22.8598 3.30183 -4.40819 255 0 0
22.5922 3.20851 -3.99639 255 0 0
22.5265 4.18655 -4.19659 255 0 0
23.3666 4.34269 -4.47802 255 0 0
23.2531 4.26457 -4.86285 255 0 0
22.9895 3.65515 -3.84177 255 0 0
23.0875 3.27885 -3.84501 255 0 0
23.0565 3.33025 -3.84316 255 0 0
23.0058 3.43437 -3.84039 255 0 0
23.038 3.49504 -3.84362 255 0 0
22.9489 3.5372 -3.83716 255 0 0
22.9866 3.59883 -3.84085 255 0 0
22.9201 3.75563 -3.83762 255 0 0
22.887 3.91758 -3.83716 255 0 0
23.0215 3.9968 -3.8487 255 0 0
22.9602 4.04226 -3.84454 255 0 0
22.8873 4.08541 -3.83946 255 0 0
22.2768 3.75878 -4.16585 255 0 0
21.1228 3.25574 -5.13057 255 0 0
21.8586 4.49292 -4.89074 255 0 0
23.1608 3.00961 -4.04334 255 0 0
22.6187 3.10293 -3.99741 255 0 0
22.669 3.16461 -4.00251 255 0 0
22.596 3.26373 -3.99741 255 0 0
22.5651 3.31391 -3.99537 255 0 0
22.4973 3.413 -3.99078 255 0 0
22.4891 3.46633 -3.99078 255 0 0
22.4751 3.51874 -3.99027 255 0 0
22.5618 3.64201 -3.99945 255 0 0
22.5416 3.69361 -3.99843 255 0 0
22.5443 3.74896 -3.99945 255 0 0
22.6985 4.21852 -4.01987 255 0 0
22.5852 4.25289 -4.01068 255 0 0
22.5293 4.29769 -4.0066 255 0 0
22.3658 2.90631 -4.73122 255 0 0
23.0392 3.38352 -4.81992 255 0 0
20.988 3.43905 -5.11529 255 0 0
21.4471 3.82833 -5.00647 255 0 0
21.8451 2.94406 -4.85539 255 0 0
22.4051 3.07363 -4.16809 255 0 0
22.34 3.11868 -4.1625 255 0 0
22.3845 3.17902 -4.16753 255 0 0
22.3519 3.28259 -4.16585 255 0 0
22.3152 3.33128 -4.16306 255 0 0
22.4637 3.51697 -4.17982 255 0 0
22.3528 3.93533 -4.17591 255 0 0
22.3962 4.2173 -4.18485 255 0 0
22.3575 4.26492 -4.18206 255 0 0
23.0022 3.26674 -5.00959 255 0 0
22.0316 2.86288 -4.87795 255 0 0
20.9746 3.94961 -5.12633 255 0 0
22.9275 2.9793 -4.41061 255 0 0
22.6664 3.00003 -4.3839 255 0 0
22.2769 3.05603 -4.34443 255 0 0
23.5466 4.03048 -4.49077 255 0 0
23.5714 4.09227 -4.49441 255 0 0
23.4928 4.13603 -4.48712 255 0 0
23.351 4.16818 -4.47316 255 0 0
20.9544 3.53565 -5.11275 255 0 0
22.9427 2.92598 -4.60596 255 0 0
22.4037 2.96526 -4.5463 255 0 0
22.9449 3.2586 -4.61121 255 0 0
23.0062 3.32298 -4.61907 255 0 0
23.5311 4.02783 -4.68988 255 0 0
22.7189 3.94427 -4.5981 255 0 0
22.7458 4.06014 -4.60334 255 0 0
23.0853 4.17725 -4.64333 255 0 0
23.5046 4.3107 -4.6925 255 0 0
23.3627 4.34196 -4.67742 255 0 0
22.0928 4.3231 -4.53647 255 0 0
21.7099 3.1883 -5.02808 255 0 0
23.4649 2.87955 -4.86285 255 0 0
22.8455 2.91358 -4.78894 255 0 0
22.0996 2.92501 -4.69954 255 0 0
22.0119 2.96653 -4.68969 255 0 0
23.0108 3.21233 -4.81358 255 0 0
23.0032 3.26688 -4.81358 255 0 0
23.0241 3.32557 -4.8171 255 0 0
23.363 3.94205 -4.86919 255 0 0
22.9066 3.92094 -4.81428 255 0 0
22.714 3.94342 -4.79176 255 0 0
22.6951 4.05109 -4.79176 255 0 0
23.2173 4.20114 -4.85722 255 0 0
23.3972 4.34837 -4.88186 255 0 0
21.9988 2.75261 -4.87193 255 0 0
23.0444 3.21701 -5.0141 255 0 0
23.4774 3.84695 -5.0818 255 0 0
22.7832 3.84423 -4.99304 255 0 0
21.9081 4.39493 -4.8945 255 0 0
21.0635 3.29774 -5.12293 255 0 0
21.2287 3.01488 -5.14075 255 0 0
21.9266 2.84924 -5.05129 255 0 0
21.799 2.88523 -5.03448 255 0 0
21.6772 2.92142 -5.01847 255 0 0
22.6126 3.10209 -5.14975 255 0 0
22.002 3.07149 -5.0657 255 0 0
21.8224 3.09918 -5.04169 255 0 0
21.7539 3.24748 -5.03528 255 0 0
21.6615 3.39136 -5.02568 255 0 0
21.5617 3.42814 -5.01287 255 0 0
21.4651 3.51722 -5.00166 255 0 0
21.5081 3.68155 -5.01127 255 0 0
21.5565 3.74246 -5.01927 255 0 0
21.5407 3.89776 -5.02087 255 0 0
21.4536 3.98715 -5.01127 255 0 0
21.4743 4.09644 -5.01687 255 0 0
21.5856 4.22385 -5.03528 255 0 0
21.5584 4.27163 -5.03288 255 0 0
21.7416 4.36152 -5.0601 255 0 0
21.8741 4.49611 -5.08171 255 0 0
21.8236 4.53969 -5.0761 255 0 0
21.8547 2.8399 -5.22816 255 0 0
21.6354 2.86358 -5.19676 255 0 0
21.4506 2.89088 -5.17045 255 0 0
21.233 3.06686 -5.14245 255 0 0
21.1913 3.11214 -5.13736 255 0 0
21.027 3.34313 -5.11869 255 0 0
21.0305 3.39482 -5.12039 255 0 0
20.9802 3.59119 -5.11784 255 0 0
20.9887 3.64389 -5.12039 255 0 0
20.9851 3.79722 -5.12378 255 0 0
20.9703 3.84592 -5.12293 255 0 0
21.0296 4.06331 -5.13736 255 0 0
21.1393 4.13653 -5.15518 255 0 0
21.1308 4.239 -5.15688 255 0 0
21.1207 4.28909 -5.15688 255 0 0
20.7436 3.14695 -5.25159 255 0 0
20.6546 3.58588 -5.2489 255 0 0
