ply
format ascii 1.0
comment Created by Open3D
element vertex 940
property double x
property double y
property double z
property uchar red
property uchar green
property uchar blue
end_header
5.33291 5.09187 -4.92927 255 0 0
5.81866 5.07492 -4.70164 255 0 0
5.55401 6.02797 -4.05087 255 0 0
5.58027 6.56906 -4.46379 255 0 0
7.54388 5.09419 -4.84932 255 0 0
6.58695 5.19115 -4.54882 255 0 0
5.71627 5.6422 -4.00965 255 0 0
7.32275 5.30704 -4.42323 255 0 0
5.60541 5.22644 -4.32918 255 0 0
6.30051 5.08764 -4.68345 255 0 0
5.59315 5.19027 -4.31897 255 0 0
5.44981 5.06927 -4.81459 255 0 0
6.31256 5.07269 -4.68345 255 0 0
5.71173 5.15104 -4.83568 255 0 0
6.15584 5.06802 -4.86471 255 0 0
6.04474 5.06131 -4.75869 255 0 0
5.42726 5.13298 -4.47533 255 0 0
5.15015 5.11971 -4.33954 255 0 0
5.24721 5.44367 -4.16125 255 0 0
8.44884 5.16713 -5.19061 255 0 0
7.11286 5.15492 -4.66971 255 0 0
5.24484 5.28851 -4.26363 255 0 0
7.68573 5.08453 -5.05364 255 0 0
5.893 5.09077 -4.65249 255 0 0
6.12845 5.55327 -3.99641 255 0 0
6.95801 5.19526 -4.63906 255 0 0
5.34303 5.10153 -4.58497 255 0 0
6.09025 5.44025 -4.04329 255 0 0
5.65556 5.07612 -4.9462 255 0 0
5.70136 5.20334 -4.84581 255 0 0
5.67486 5.09345 -4.81137 255 0 0
6.45804 5.06478 -4.87183 255 0 0
5.97678 5.44169 -4.02244 255 0 0
6.68811 5.06823 -4.85827 255 0 0
5.48962 5.44426 -4.07165 255 0 0
5.45675 5.63425 -5.4221 255 0 0
5.18103 6.43175 -4.36079 255 0 0
6.97367 5.07931 -4.77944 255 0 0
5.80436 5.36073 -4.11711 255 0 0
5.20382 5.45018 -4.154 255 0 0
5.18829 5.34438 -5.32372 255 0 0
5.35247 5.30825 -4.15481 255 0 0
7.40974 5.09365 -4.65126 255 0 0
6.4802 5.39982 -4.11056 255 0 0
5.20893 5.81739 -5.40688 255 0 0
5.74695 5.15815 -4.92022 255 0 0
6.27354 5.06586 -4.82155 255 0 0
7.52602 5.37312 -4.47779 255 0 0
5.4523 5.15666 -4.76681 255 0 0
8.44934 5.195 -5.10469 255 0 0
7.37242 5.1067 -4.56356 255 0 0
6.54004 5.33249 -4.26108 255 0 0
5.28968 5.47474 -4.03982 255 0 0
7.20449 5.09216 -5.4203 255 0 0
8.1082 5.11869 -5.26605 255 0 0
5.92417 6.04478 -4.04313 255 0 0
7.46221 5.15584 -4.75654 255 0 0
6.19365 5.08683 -4.65582 255 0 0
5.84243 5.56512 -4.01889 255 0 0
5.74634 5.08427 -5.04817 255 0 0
6.36698 5.06692 -4.69634 255 0 0
8.27022 5.19359 -5.41718 255 0 0
5.40376 5.06243 -4.80009 255 0 0
6.81585 5.21609 -4.60841 255 0 0
6.34667 5.06303 -4.84088 255 0 0
5.15494 6.18633 -4.22958 255 0 0
6.06761 5.71142 -4.01153 255 0 0
6.63107 5.4857 -4.07748 255 0 0
5.39223 5.24716 -4.28662 255 0 0
5.54847 6.92141 -4.45613 255 0 0
5.14156 6.44508 -4.43101 255 0 0
7.08129 5.06829 -4.80547 255 0 0
6.16157 5.82748 -4.04725 255 0 0
5.46477 6.46409 -4.34363 255 0 0
5.68019 6.55958 -4.55852 255 0 0
5.99226 5.42986 -4.23895 255 0 0
5.5454 5.07303 -4.55998 255 0 0
5.54084 6.17331 -4.44591 255 0 0
6.48606 5.08675 -4.65555 255 0 0
5.37248 5.32808 -4.16285 255 0 0
5.39447 5.69021 -5.42093 255 0 0
5.96696 5.88965 -4.02389 255 0 0
6.4541 5.14876 -4.58433 255 0 0
7.23977 5.33907 -4.41035 255 0 0
5.78047 5.11446 -5.21581 255 0 0
5.2284 5.23461 -4.31584 255 0 0
6.629 5.24981 -4.41712 255 0 0
5.50866 5.06346 -4.9725 255 0 0
7.21654 5.07507 -5.4203 255 0 0
5.5591 6.40439 -4.12193 255 0 0
5.79554 5.06685 -4.76572 255 0 0
7.63015 5.12615 -4.87731 255 0 0
5.33965 5.40976 -4.10458 255 0 0
5.24096 5.34766 -4.14032 255 0 0
5.57885 5.85682 -4.02386 255 0 0
6.47739 5.20514 -4.37528 255 0 0
5.55949 6.32865 -4.10772 255 0 0
5.29312 5.31196 -4.14354 255 0 0
5.24532 5.08006 -5.04241 255 0 0
5.61107 5.06027 -4.92926 255 0 0
7.8783 5.10517 -4.93853 255 0 0
6.46454 5.09468 -4.80352 255 0 0
5.41768 5.66069 -5.41858 255 0 0
5.93372 5.11367 -4.52358 255 0 0
5.42892 6.51512 -4.50056 255 0 0
5.72393 5.18671 -4.84783 255 0 0
8.06419 5.17149 -4.91148 255 0 0
5.68759 6.17296 -3.87914 255 0 0
5.90055 5.06075 -4.64777 255 0 0
5.54876 6.09439 -4.06224 255 0 0
6.79627 5.15019 -4.66916 255 0 0
5.44859 6.05609 -4.32861 255 0 0
5.58611 5.08599 -4.57319 255 0 0
7.39325 5.14711 -4.65623 255 0 0
5.90106 5.06118 -5.01393 255 0 0
7.64681 5.1637 -4.80422 255 0 0
5.59538 5.14316 -4.44847 255 0 0
8.28464 5.09374 -5.13315 255 0 0
5.65137 5.73914 -4.01534 255 0 0
7.26818 5.08567 -4.93945 255 0 0
5.7359 5.5816 -4.00254 255 0 0
6.27236 5.49688 -4.45916 255 0 0
5.6861 5.55944 -3.98975 255 0 0
6.40042 5.41094 -4.09706 255 0 0
5.71569 5.27882 -4.22401 255 0 0
8.05986 5.20925 -4.91659 255 0 0
5.4494 5.32802 -4.24719 255 0 0
6.34422 5.4937 -4.55053 255 0 0
6.2037 5.05826 -4.95113 255 0 0
5.29232 6.73172 -4.44769 255 0 0
6.70402 5.10535 -4.63768 255 0 0
6.43952 5.22516 -4.37045 255 0 0
6.23995 5.41636 -4.06745 255 0 0
5.20173 5.07381 -4.81709 255 0 0
6.34527 5.61419 -4.27017 255 0 0
5.73931 5.1513 -5.36473 255 0 0
6.35093 5.42094 -4.08924 255 0 0
5.70291 5.25449 -4.85897 255 0 0
5.18737 5.29296 -5.30702 255 0 0
5.34358 5.29939 -4.21904 255 0 0
5.21012 6.07471 -4.14439 255 0 0
5.70164 6.64779 -4.42488 255 0 0
6.77917 5.16258 -4.58969 255 0 0
5.4918 5.35675 -4.12411 255 0 0
5.70501 6.52544 -4.39988 255 0 0
6.63512 5.3319 -4.28078 255 0 0
7.02223 5.48041 -4.70717 255 0 0
5.22558 5.55149 -4.04285 255 0 0
6.72523 5.37811 -4.15462 255 0 0
6.02485 5.10569 -4.54423 255 0 0
7.48976 5.13559 -4.75995 255 0 0
6.20643 5.41313 -4.50285 255 0 0
7.11546 5.20845 -4.67992 255 0 0
5.59097 5.13912 -4.37706 255 0 0
6.34829 5.06435 -5.14832 255 0 0
5.2895 5.06243 -4.97941 255 0 0
5.30872 5.06877 -4.63704 255 0 0
5.34307 5.05333 -4.99265 255 0 0
6.7361 5.49235 -4.09809 255 0 0
5.93576 5.07875 -4.44527 255 0 0
5.20503 5.07702 -4.61229 255 0 0
5.3084 6.33986 -4.21562 255 0 0
6.67482 5.49529 -4.0871 255 0 0
5.85242 5.09219 -5.38463 255 0 0
6.31109 5.07151 -5.1388 255 0 0
5.80656 5.05227 -4.8377 255 0 0
6.36798 5.09242 -4.70186 255 0 0
5.79539 5.11541 -4.49036 255 0 0
5.84397 5.51396 -4.01036 255 0 0
5.5724 5.24528 -4.32578 255 0 0
6.97688 5.13246 -4.71114 255 0 0
7.44293 5.10348 -4.82483 255 0 0
5.63706 5.28099 -4.84783 255 0 0
5.51138 6.1846 -4.4426 255 0 0
5.19748 5.15452 -4.4256 255 0 0
6.41104 5.4069 -4.54882 255 0 0
6.02482 6.08945 -4.06786 255 0 0
5.97459 5.0631 -4.74032 255 0 0
5.2015 5.34528 -4.19917 255 0 0
5.51064 5.26157 -4.31556 255 0 0
6.07339 5.09754 -5.22659 255 0 0
6.64792 5.0626 -4.69206 255 0 0
6.45849 5.06514 -5.02607 255 0 0
6.19096 5.07235 -4.72611 255 0 0
7.24767 5.08412 -4.85216 255 0 0
6.24366 5.47173 -5.45903 255 0 0
5.17578 6.09289 -4.42964 255 0 0
5.78967 5.08599 -4.5536 255 0 0
7.94341 5.10733 -4.95602 255 0 0
5.89651 5.06942 -4.72098 255 0 0
5.48919 5.05758 -4.68158 255 0 0
6.84929 5.08884 -4.67091 255 0 0
7.4239 5.14236 -4.66285 255 0 0
6.99902 5.07242 -5.0246 255 0 0
6.38566 5.13143 -4.56421 255 0 0
6.42129 5.18517 -4.58345 255 0 0
5.32132 6.20436 -4.48412 255 0 0
6.59941 5.06286 -4.9105 255 0 0
7.75265 5.39732 -4.61549 255 0 0
8.34062 5.10093 -5.42105 255 0 0
5.17699 5.79554 -4.08225 255 0 0
5.28874 6.56546 -4.33426 255 0 0
5.60042 6.19524 -4.46247 255 0 0
6.24527 5.06755 -4.66503 255 0 0
5.26938 5.3259 -4.20911 255 0 0
5.67054 5.06534 -4.80327 255 0 0
6.4504 5.33624 -4.39298 255 0 0
5.20084 6.4407 -4.44095 255 0 0
5.28973 5.22119 -5.31657 255 0 0
7.04182 5.07801 -4.87683 255 0 0
6.47539 5.33109 -4.24744 255 0 0
5.89686 5.0941 -4.58215 255 0 0
7.38656 5.19463 -4.58126 255 0 0
8.26631 5.13664 -5.22492 255 0 0
7.10025 5.06914 -4.97154 255 0 0
5.53871 5.96861 -4.03736 255 0 0
5.65429 6.04989 -3.92628 255 0 0
6.48877 5.23966 -4.45916 255 0 0
7.75505 5.18342 -4.83486 255 0 0
7.69912 6.57171 -4.89346 255 0 0
7.3848 5.08941 -4.80734 255 0 0
5.27733 5.23372 -5.31657 255 0 0
5.44529 6.47211 -4.49394 255 0 0
5.70217 5.14242 -4.90365 255 0 0
6.53876 5.40933 -4.12335 255 0 0
7.41412 5.08373 -4.89615 255 0 0
6.24892 5.60869 -4.32488 255 0 0
5.55965 5.28322 -4.33089 255 0 0
5.23287 6.40234 -4.21562 255 0 0
5.14278 6.41534 -4.42439 255 0 0
5.37044 6.47609 -4.48069 255 0 0
5.73852 5.12607 -4.40854 255 0 0
6.08728 5.08465 -4.70157 255 0 0
5.68253 5.12472 -4.46523 255 0 0
5.76542 5.07683 -4.61662 255 0 0
5.34871 5.0707 -4.64792 255 0 0
6.53158 5.19791 -4.5369 255 0 0
5.19299 5.33655 -5.17534 255 0 0
6.25883 5.1032 -4.60168 255 0 0
6.09784 5.06897 -4.84887 255 0 0
6.29836 5.46707 -4.45916 255 0 0
6.65915 5.32527 -4.36082 255 0 0
5.68534 5.15174 -4.40154 255 0 0
5.65612 5.29884 -4.28528 255 0 0
7.52245 5.39755 -4.48082 255 0 0
5.76821 6.08444 -4.02389 255 0 0
5.34859 5.18007 -4.39879 255 0 0
5.65258 5.64588 -3.99899 255 0 0
6.1775 5.06132 -4.79447 255 0 0
5.90176 5.09833 -5.17362 255 0 0
6.1085 5.07784 -5.07954 255 0 0
5.77572 5.13473 -4.41904 255 0 0
5.15261 5.80968 -4.08074 255 0 0
5.31632 5.17331 -4.38982 255 0 0
6.92071 5.06589 -5.2433 255 0 0
5.83779 5.05515 -4.99382 255 0 0
5.8265 5.05749 -4.62794 255 0 0
7.17051 5.17081 -4.68674 255 0 0
5.20002 6.6467 -4.41229 255 0 0
6.19302 5.06179 -4.87362 255 0 0
6.83591 5.07889 -5.38325 255 0 0
7.18865 5.10657 -4.76012 255 0 0
5.94531 5.07471 -4.80828 255 0 0
5.22808 5.54095 -4.10927 255 0 0
7.59433 5.076 -4.94283 255 0 0
5.99238 5.83118 -4.0184 255 0 0
5.36261 6.49795 -4.3327 255 0 0
7.02895 5.06874 -5.03234 255 0 0
5.50896 5.59452 -5.42561 255 0 0
5.70111 5.36642 -4.09791 255 0 0
7.0251 5.14231 -4.72513 255 0 0
5.33358 5.04438 -5.13056 255 0 0
5.20689 6.12952 -4.155 255 0 0
7.248 5.49251 -4.27542 255 0 0
6.65639 5.09406 -4.62368 255 0 0
6.48617 5.30137 -4.31942 255 0 0
5.18985 5.70017 -4.06558 255 0 0
7.09825 5.08042 -4.89249 255 0 0
5.49108 5.14423 -5.20865 255 0 0
5.59108 5.16374 -4.3823 255 0 0
5.35171 5.1098 -4.52033 255 0 0
7.78132 5.17433 -4.83997 255 0 0
5.54871 5.90878 -4.02813 255 0 0
5.21663 6.41345 -4.43763 255 0 0
6.17718 5.41346 -4.05513 255 0 0
5.30459 5.41259 -4.09833 255 0 0
5.51256 5.10335 -4.98439 255 0 0
5.3926 5.1002 -4.59721 255 0 0
6.4062 5.21074 -4.50966 255 0 0
5.46668 5.37032 -4.12177 255 0 0
5.79766 5.40569 -4.26585 255 0 0
6.33898 5.06923 -5.06933 255 0 0
5.20379 5.36035 -4.1355 255 0 0
6.4344 5.09571 -5.02607 255 0 0
5.62947 5.24887 -4.8377 255 0 0
7.04407 5.40398 -4.22142 255 0 0
6.61377 5.26332 -4.49228 255 0 0
5.36442 6.50014 -4.40907 255 0 0
5.15227 5.1218 -4.5421 255 0 0
5.91756 5.06318 -4.94507 255 0 0
6.09972 5.66036 -4.00878 255 0 0
5.24017 5.1113 -4.56144 255 0 0
6.71676 5.06491 -5.18117 255 0 0
5.79472 5.40295 -4.19364 255 0 0
5.34507 5.26332 -4.27981 255 0 0
5.53743 5.35025 -4.13192 255 0 0
5.67834 5.39601 -4.09892 255 0 0
5.30004 5.14524 -4.4477 255 0 0
6.47885 5.06871 -4.72581 255 0 0
6.89751 5.20121 -4.62544 255 0 0
5.12212 5.32653 -5.29748 255 0 0
5.86154 5.16147 -5.2541 255 0 0
7.36352 5.10054 -4.80384 255 0 0
5.57338 6.46715 -4.13614 255 0 0
7.89158 5.08725 -5.19809 255 0 0
7.28098 5.31637 -4.41566 255 0 0
5.24157 6.35128 -4.20652 255 0 0
6.64452 5.07247 -4.77001 255 0 0
7.28931 5.17808 -4.71738 255 0 0
8.31706 5.08653 -5.41138 255 0 0
6.02882 5.08455 -4.75966 255 0 0
5.99484 5.08026 -4.82313 255 0 0
5.89628 5.06924 -4.57662 255 0 0
6.53946 5.0663 -4.81768 255 0 0
5.66712 5.11082 -4.52874 255 0 0
7.02086 5.11368 -5.20229 255 0 0
7.42244 5.19361 -4.67113 255 0 0
6.90514 5.10496 -4.84552 255 0 0
5.27292 5.08261 -5.05142 255 0 0
5.49742 5.08929 -4.62139 255 0 0
5.1919 6.46089 -5.4534 255 0 0
7.8543 5.19605 -4.8621 255 0 0
5.85965 5.13519 -4.51011 255 0 0
6.17567 5.15848 -4.51874 255 0 0
5.1905 5.29618 -4.2537 255 0 0
7.40793 5.18345 -4.83008 255 0 0
5.13232 5.15063 -5.1007 255 0 0
5.4348 6.09867 -4.33505 255 0 0
6.52886 5.09536 -4.66812 255 0 0
5.85145 5.09132 -4.57018 255 0 0
5.34556 6.54022 -4.49063 255 0 0
5.90574 5.05304 -5.0878 255 0 0
6.78793 5.06826 -4.72917 255 0 0
6.99472 5.0693 -4.78303 255 0 0
6.14019 5.16601 -4.51174 255 0 0
5.4007 5.3055 -4.23229 255 0 0
5.24717 5.13029 -4.49957 255 0 0
5.59362 5.10498 -4.5094 255 0 0
5.46363 5.60137 -5.4139 255 0 0
6.0411 5.07044 -4.61346 255 0 0
5.25339 6.4743 -4.30848 255 0 0
5.86345 5.08957 -4.78948 255 0 0
6.05443 5.06939 -4.83699 255 0 0
5.16554 5.86617 -4.09438 255 0 0
5.89472 5.06787 -5.39166 255 0 0
5.84737 5.07561 -4.70938 255 0 0
5.6509 5.05985 -4.72513 255 0 0
5.15408 5.51468 -4.22567 255 0 0
6.00973 5.06844 -4.89847 255 0 0
5.55322 5.85766 -4.0196 255 0 0
5.17153 5.94362 -4.11105 255 0 0
5.56929 5.1192 -4.50664 255 0 0
5.65542 5.10027 -4.59396 255 0 0
6.80641 5.08206 -5.3746 255 0 0
6.42825 5.16566 -4.50626 255 0 0
5.13514 5.25213 -4.29922 255 0 0
6.45915 5.06565 -4.79597 255 0 0
6.52232 5.21585 -4.46247 255 0 0
5.28223 5.10368 -4.57014 255 0 0
5.53143 5.04821 -4.69049 255 0 0
5.70386 5.07085 -4.74196 255 0 0
6.83056 5.07492 -4.81974 255 0 0
5.50931 6.48552 -4.35613 255 0 0
6.62899 5.07309 -5.23616 255 0 0
6.31297 5.12248 -5.30825 255 0 0
5.42192 5.45415 -5.35536 255 0 0
6.62879 5.07294 -4.84316 255 0 0
7.41789 5.34921 -4.45051 255 0 0
5.45393 5.38327 -4.12177 255 0 0
6.4656 5.41369 -4.25956 255 0 0
6.16577 5.61376 -4.0129 255 0 0
6.30183 5.54917 -4.32488 255 0 0
6.58868 5.41128 -4.1333 255 0 0
5.71256 5.25089 -4.35813 255 0 0
7.71576 5.07814 -4.8913 255 0 0
5.53461 5.3985 -4.07165 255 0 0
5.28025 5.73086 -5.39985 255 0 0
5.66496 5.72573 -4.01534 255 0 0
6.30539 5.52582 -4.02389 255 0 0
7.02427 5.21884 -4.65949 255 0 0
6.10889 5.40505 -4.04092 255 0 0
5.69626 5.08832 -4.67264 255 0 0
5.67929 6.59004 -4.56515 255 0 0
6.91359 5.0859 -4.76508 255 0 0
5.49431 6.1361 -4.35436 255 0 0
6.41163 5.17737 -4.50455 255 0 0
7.73741 5.09238 -5.2412 255 0 0
5.45612 5.20951 -4.36132 255 0 0
6.43317 5.65131 -4.29442 255 0 0
6.34709 5.10042 -4.62323 255 0 0
5.73443 5.25845 -4.22401 255 0 0
6.19693 5.06497 -5.10282 255 0 0
5.13858 5.0961 -4.60008 255 0 0
7.41152 5.08195 -5.14451 255 0 0
5.58753 6.6093 -4.5519 255 0 0
6.6385 5.39969 -4.14112 255 0 0
5.14359 5.12533 -5.16804 255 0 0
5.17816 5.92283 -4.10802 255 0 0
7.41011 5.21119 -4.67113 255 0 0
5.53552 5.1368 -4.43291 255 0 0
5.69063 6.55591 -4.48149 255 0 0
6.82711 5.17356 -4.60331 255 0 0
7.36138 5.07327 -5.04517 255 0 0
6.04017 5.05747 -5.05414 255 0 0
5.10975 5.28851 -4.30185 255 0 0
5.75821 5.36891 -4.10953 255 0 0
5.76921 5.1045 -4.98641 255 0 0
7.83531 5.13023 -4.93153 255 0 0
5.64913 5.36826 -4.1577 255 0 0
5.5711 6.07537 -3.7736 255 0 0
5.85689 5.08387 -5.15597 255 0 0
6.45591 5.21312 -5.37667 255 0 0
5.43388 5.15147 -4.41226 255 0 0
5.18733 5.52395 -4.16607 255 0 0
5.13895 5.04838 -5.07199 255 0 0
5.96672 5.0686 -4.66665 255 0 0
6.73356 5.28086 -4.44609 255 0 0
5.90876 5.17823 -4.45927 255 0 0
5.60129 6.05044 -3.84588 255 0 0
5.93975 5.45971 -4.01865 255 0 0
6.78615 5.11724 -4.66042 255 0 0
6.424 5.21257 -4.43929 255 0 0
5.35698 5.71817 -5.41858 255 0 0
6.44617 5.50225 -4.04588 255 0 0
6.45837 5.34283 -4.24592 255 0 0
6.3466 5.32686 -4.51818 255 0 0
6.82328 5.09466 -5.1395 255 0 0
6.14644 5.4643 -4.49945 255 0 0
7.68629 6.48241 -4.87415 255 0 0
5.34067 5.48831 -4.05194 255 0 0
6.61528 6.22693 -4.11334 255 0 0
5.69204 6.06141 -3.93424 255 0 0
7.72562 5.08463 -5.06469 255 0 0
5.29096 5.06382 -5.05142 255 0 0
7.29846 5.08112 -4.94682 255 0 0
7.39029 5.08026 -4.97168 255 0 0
8.03189 5.23178 -4.91318 255 0 0
5.26494 5.51418 -4.04285 255 0 0
6.68276 5.26666 -4.50884 255 0 0
6.51321 5.25939 -4.39298 255 0 0
6.13039 5.0715 -5.23763 255 0 0
6.14219 5.08126 -4.93898 255 0 0
7.66234 5.38858 -4.59362 255 0 0
6.83267 5.49064 -4.11595 255 0 0
6.77978 5.47465 -4.10359 255 0 0
6.70932 5.44408 -4.08572 255 0 0
6.66582 5.46141 -4.08023 255 0 0
6.58303 5.4723 -4.06649 255 0 0
6.59188 5.50614 -4.07336 255 0 0
6.54177 5.50389 -4.06374 255 0 0
6.50478 5.51241 -4.05824 255 0 0
6.37046 5.4769 -4.02802 255 0 0
6.39826 5.54051 -4.04313 255 0 0
6.33134 5.52208 -4.02802 255 0 0
6.24516 5.51241 -4.01084 255 0 0
6.27868 5.58187 -4.02802 255 0 0
6.18902 5.52849 -4.00328 255 0 0
6.1759 5.54315 -4.00328 255 0 0
6.19232 5.58446 -4.0129 255 0 0
6.15415 5.64335 -4.01565 255 0 0
6.14563 5.70296 -4.02389 255 0 0
6.05621 5.67367 -4.00328 255 0 0
6.03982 5.75318 -4.01359 255 0 0
6.01317 5.76871 -4.01153 255 0 0
5.95987 5.75841 -4.00054 255 0 0
5.98903 5.88346 -4.02664 255 0 0
5.95709 5.96416 -4.03489 255 0 0
5.9864 6.07938 -4.05962 255 0 0
5.92969 6.07918 -4.05 255 0 0
5.88751 6.06463 -4.04038 255 0 0
5.87964 6.14337 -4.05275 255 0 0
5.82972 6.1202 -4.04038 255 0 0
5.69385 6.04897 -4.00534 255 0 0
6.45669 5.06372 -5.18113 255 0 0
7.85724 5.17125 -4.8587 255 0 0
5.20322 5.12363 -4.4873 255 0 0
5.27537 5.08498 -4.98162 255 0 0
5.3504 5.20646 -4.33683 255 0 0
5.45704 5.0881 -4.61075 255 0 0
5.11547 5.12154 -4.46559 255 0 0
5.62281 5.07086 -4.64943 255 0 0
7.30182 5.50609 -4.28822 255 0 0
7.09939 5.40644 -4.23279 255 0 0
6.95101 5.38514 -4.2001 255 0 0
6.89151 5.37839 -4.18731 255 0 0
6.87873 5.39471 -4.18731 255 0 0
6.81239 5.36882 -4.17025 255 0 0
6.79102 5.39124 -4.16954 255 0 0
6.69943 5.39664 -4.15249 255 0 0
6.46966 5.43014 -4.1134 255 0 0
6.29715 5.41388 -4.07787 255 0 0
6.1558 5.42058 -4.05229 255 0 0
6.00243 5.4261 -4.02457 255 0 0
5.89108 5.49278 -4.01534 255 0 0
5.75906 5.52493 -3.99686 255 0 0
5.77866 5.5701 -4.00823 255 0 0
5.77768 5.59564 -4.01249 255 0 0
5.67782 5.60431 -3.99615 255 0 0
5.61444 5.64782 -3.9926 255 0 0
5.57413 5.68762 -3.9926 255 0 0
5.55782 5.71148 -3.99402 255 0 0
5.58423 5.80709 -4.01581 255 0 0
5.62508 5.96171 -4.05087 255 0 0
5.51917 5.90532 -4.02244 255 0 0
5.54354 6.04531 -4.05229 255 0 0
5.5423 6.13094 -4.06792 255 0 0
5.54368 6.20602 -4.08213 255 0 0
5.54065 6.27712 -4.09493 255 0 0
5.56316 6.3632 -4.11482 255 0 0
8.01684 5.08764 -5.32242 255 0 0
5.44768 5.45415 -3.99704 255 0 0
6.04457 5.06113 -4.90657 255 0 0
5.43132 5.11248 -4.47164 255 0 0
5.2386 5.33258 -4.20414 255 0 0
5.29155 6.38097 -4.2952 255 0 0
5.81731 5.34717 -4.04696 255 0 0
5.69124 5.38265 -4.02934 255 0 0
5.49468 5.52735 -4.01907 255 0 0
5.49751 5.55648 -4.02494 255 0 0
5.63425 5.2036 -4.33089 255 0 0
5.74095 6.61387 -4.42488 255 0 0
6.56526 5.30142 -4.26108 255 0 0
6.63172 5.38112 -4.28836 255 0 0
6.56676 5.38025 -4.27472 255 0 0
6.00165 5.43837 -4.17015 255 0 0
5.94692 5.4145 -4.155 255 0 0
5.91737 5.41332 -4.14893 255 0 0
5.82931 5.38376 -4.1262 255 0 0
5.64099 5.38602 -4.08983 255 0 0
5.60451 5.40224 -4.08579 255 0 0
5.50694 5.4227 -4.07089 255 0 0
5.44822 5.44175 -4.06331 255 0 0
5.38735 5.44513 -4.05245 255 0 0
5.36807 5.47737 -4.05498 255 0 0
5.29628 5.50765 -4.0474 255 0 0
5.21417 5.50003 -4.03073 255 0 0
5.18377 5.55966 -4.03679 255 0 0
5.17845 5.60703 -4.04513 255 0 0
5.19098 5.66084 -4.05801 255 0 0
5.18359 5.74782 -4.07392 255 0 0
5.19815 6.0029 -4.12772 255 0 0
5.19498 6.02806 -4.13226 255 0 0
5.19203 6.08274 -4.14287 255 0 0
5.22886 6.18504 -4.17015 255 0 0
5.287 6.28397 -4.20046 255 0 0
5.19197 6.23076 -4.17318 255 0 0
5.23856 6.31707 -4.19895 255 0 0
5.28034 6.42925 -4.22925 255 0 0
5.23552 6.43667 -4.22319 255 0 0
5.23567 6.49959 -4.23633 255 0 0
5.79986 5.05853 -5.13169 255 0 0
7.48365 5.28948 -4.53737 255 0 0
7.43093 5.30523 -4.528 255 0 0
7.35414 5.27678 -4.50612 255 0 0
7.30499 5.2678 -4.49363 255 0 0
6.64651 5.34105 -4.36082 255 0 0
6.58553 5.31779 -4.34363 255 0 0
6.56414 5.32628 -4.34051 255 0 0
6.50054 5.40372 -4.34051 255 0 0
6.30878 5.51557 -4.3202 255 0 0
6.29166 5.62017 -4.33582 255 0 0
5.95016 5.41746 -4.22801 255 0 0
5.85392 5.36801 -4.19911 255 0 0
5.77442 5.35849 -4.18114 255 0 0
5.60374 5.35046 -4.14521 255 0 0
5.41711 5.37234 -4.11239 255 0 0
5.39954 5.40594 -4.11552 255 0 0
5.29122 5.43746 -4.10068 255 0 0
5.22504 5.44648 -4.08974 255 0 0
5.20759 5.46707 -4.09052 255 0 0
5.20626 5.49169 -4.09521 255 0 0
5.26515 5.60681 -4.12958 255 0 0
5.5333 6.16492 -4.29364 255 0 0
5.37619 6.0329 -4.23739 255 0 0
5.7616 6.68555 -4.44363 255 0 0
5.449 6.49212 -4.34676 255 0 0
5.31138 6.46704 -4.31707 255 0 0
5.29603 6.47962 -4.31707 255 0 0
8.32161 5.08932 -5.23229 255 0 0
5.82819 5.1321 -5.38815 255 0 0
5.40883 5.06717 -4.66277 255 0 0
5.13793 5.04736 -4.93086 255 0 0
7.16252 5.19091 -4.76886 255 0 0
5.79335 5.07709 -4.98641 255 0 0
6.35257 5.15461 -4.56072 255 0 0
7.40187 5.15312 -4.57805 255 0 0
7.36657 5.15451 -4.57 255 0 0
7.35426 5.2111 -4.57644 255 0 0
7.72868 5.973 -4.79208 255 0 0
6.56807 5.22696 -4.39942 255 0 0
6.56885 5.25306 -4.40424 255 0 0
6.39256 5.22485 -4.35999 255 0 0
6.40743 5.32632 -4.38171 255 0 0
7.57641 6.42054 -4.83875 255 0 0
6.34359 5.48002 -4.3962 255 0 0
6.34299 5.53224 -4.40585 255 0 0
6.25983 5.49903 -4.38171 255 0 0
6.22759 5.51007 -4.37689 255 0 0
6.23886 5.5863 -4.39378 255 0 0
5.7864 5.26836 -4.23688 255 0 0
5.69057 5.30586 -4.22401 255 0 0
5.47867 5.35664 -4.19021 255 0 0
5.42178 5.32621 -4.17251 255 0 0
5.26231 5.31876 -4.13872 255 0 0
5.12438 5.40532 -4.12906 255 0 0
5.19999 5.5506 -4.17412 255 0 0
5.66728 6.57611 -4.48149 255 0 0
5.6585 6.61333 -4.48793 255 0 0
5.36904 6.47441 -4.40424 255 0 0
5.28239 6.44733 -4.38252 255 0 0
5.24345 6.44642 -4.37528 255 0 0
5.16793 6.38444 -4.34792 255 0 0
7.20406 5.14326 -4.69014 255 0 0
8.22827 5.16725 -5.30947 255 0 0
6.50311 5.07527 -5.19806 255 0 0
6.84174 5.07062 -4.74353 255 0 0
7.10836 5.11319 -4.74087 255 0 0
7.85997 5.24007 -4.78539 255 0 0
7.7294 5.19283 -4.74565 255 0 0
7.40232 5.23199 -4.67279 255 0 0
6.63944 5.25808 -4.49725 255 0 0
6.44746 5.3081 -4.46247 255 0 0
6.24728 5.44877 -4.44426 255 0 0
6.28039 5.53029 -4.46744 255 0 0
5.78284 5.25258 -4.3035 255 0 0
5.7807 5.28828 -4.31012 255 0 0
5.72679 5.26397 -4.29356 255 0 0
5.70586 5.29489 -4.29522 255 0 0
5.30414 5.32303 -4.21573 255 0 0
5.1605 5.35372 -4.19255 255 0 0
5.148 5.40457 -4.20083 255 0 0
5.12093 5.37609 -4.18923 255 0 0
5.17246 5.48201 -4.22235 255 0 0
5.19405 5.5311 -4.23726 255 0 0
5.11804 5.50221 -4.21573 255 0 0
5.17366 5.58852 -4.24554 255 0 0
5.40014 5.86098 -4.34987 255 0 0
5.54953 6.50156 -4.52043 255 0 0
5.57409 6.56179 -4.53865 255 0 0
5.34792 6.48015 -4.47738 255 0 0
5.33967 6.50149 -4.48069 255 0 0
5.74017 5.13978 -4.48228 255 0 0
5.9294 5.07331 -4.58583 255 0 0
6.86707 5.33317 -4.64247 255 0 0
5.13613 6.89586 -4.8492 255 0 0
7.63663 5.07812 -5.03891 255 0 0
8.19551 5.17381 -4.94553 255 0 0
7.90229 5.17409 -4.87062 255 0 0
7.70089 5.17368 -4.81954 255 0 0
7.60062 5.17194 -4.794 255 0 0
7.39634 5.1623 -4.74122 255 0 0
7.36878 5.18213 -4.73781 255 0 0
7.26497 5.13491 -4.70376 255 0 0
7.21916 5.17993 -4.70036 255 0 0
7.13685 5.19816 -4.68333 255 0 0
7.09407 5.21867 -4.67652 255 0 0
6.98257 5.1622 -4.63906 255 0 0
6.88742 5.16803 -4.61693 255 0 0
6.72797 5.17418 -4.57947 255 0 0
6.73341 5.20382 -4.58628 255 0 0
6.59924 5.17552 -4.54882 255 0 0
6.5351 5.17545 -4.5335 255 0 0
6.49736 5.19589 -4.52839 255 0 0
6.48731 5.31515 -4.54882 255 0 0
6.31898 5.20233 -4.48753 255 0 0
6.2828 5.32429 -4.50285 255 0 0
6.2362 5.33582 -4.49434 255 0 0
6.21504 5.34328 -4.49093 255 0 0
6.23535 5.49063 -4.52499 255 0 0
6.17616 5.46457 -4.50626 255 0 0
6.30059 5.62815 -4.56755 255 0 0
5.88275 5.30528 -4.40751 255 0 0
5.80789 5.26279 -4.38197 255 0 0
5.80362 5.29662 -4.38793 255 0 0
5.67068 5.31249 -4.36153 255 0 0
5.5803 5.27773 -4.33429 255 0 0
5.43347 5.21257 -4.28832 255 0 0
5.43723 5.24099 -4.29513 255 0 0
5.30217 5.27083 -4.27215 255 0 0
5.28142 5.28768 -4.2713 255 0 0
5.13932 5.29394 -4.24235 255 0 0
6.6 5.07576 -4.75896 255 0 0
5.23859 5.09766 -5.26169 255 0 0
5.96844 5.05789 -5.03297 255 0 0
6.89378 5.16003 -4.6954 255 0 0
7.21518 5.07411 -4.92287 255 0 0
8.37045 5.17389 -5.0802 255 0 0
8.34392 5.18487 -5.07496 255 0 0
8.2463 5.15135 -5.04347 255 0 0
8.04904 5.10807 -4.984 255 0 0
8.01806 5.11512 -4.97701 255 0 0
7.70836 5.0995 -4.89305 255 0 0
7.72126 5.16084 -4.90704 255 0 0
7.50954 5.10999 -4.8432 255 0 0
7.43854 5.17865 -4.83708 255 0 0
7.24478 5.09493 -4.77236 255 0 0
7.19017 5.13334 -4.76536 255 0 0
7.0192 5.11248 -4.71814 255 0 0
7.01861 5.18885 -4.73213 255 0 0
6.66478 5.13817 -4.63418 255 0 0
7.43815 5.07432 -4.98365 255 0 0
6.52079 5.11399 -4.59395 255 0 0
6.51303 5.1329 -4.5957 255 0 0
6.28228 5.13473 -4.53973 255 0 0
6.16476 5.07536 -4.4995 255 0 0
6.15701 5.09352 -4.50125 255 0 0
6.06025 5.14804 -4.489 255 0 0
5.9581 5.14702 -4.46451 255 0 0
5.84614 5.14791 -4.43828 255 0 0
5.79206 5.12472 -4.42079 255 0 0
5.59077 5.11454 -4.37181 255 0 0
5.62388 5.21879 -4.40154 255 0 0
5.56237 5.21102 -4.3858 255 0 0
5.44621 5.16317 -4.34907 255 0 0
5.40936 5.20177 -4.34907 255 0 0
5.3097 5.21611 -4.32983 255 0 0
5.23861 5.19532 -4.30942 255 0 0
5.17208 5.22756 -4.30185 255 0 0
8.04359 5.10462 -5.15678 255 0 0
5.27513 5.28138 -5.33088 255 0 0
5.79829 5.08142 -4.69778 255 0 0
7.71405 5.07701 -4.97515 255 0 0
7.55452 5.07534 -4.93206 255 0 0
7.36533 5.07599 -4.88178 255 0 0
7.33495 5.08075 -4.8746 255 0 0
7.29544 5.07902 -4.86383 255 0 0
7.15607 5.08343 -4.82792 255 0 0
7.04288 5.07878 -4.79739 255 0 0
6.59866 5.0872 -4.68428 255 0 0
6.53652 5.07645 -4.66632 255 0 0
6.44606 5.09251 -4.64657 255 0 0
6.39738 5.09112 -4.634 255 0 0
6.29931 5.06205 -4.60348 255 0 0
6.28822 5.1024 -4.60887 255 0 0
6.19726 5.10212 -4.58612 255 0 0
6.13123 5.10903 -4.57116 255 0 0
6.07495 5.11114 -4.55769 255 0 0
5.9897 5.1126 -4.53705 255 0 0
5.87997 5.11615 -4.51101 255 0 0
5.77299 5.1323 -4.48857 255 0 0
5.64972 5.11946 -4.45625 255 0 0
5.65405 5.14785 -4.46343 255 0 0
5.51518 5.14231 -4.42932 255 0 0
5.48669 5.15234 -4.42483 255 0 0
5.37507 5.15659 -4.39969 255 0 0
5.36103 5.14308 -4.39341 255 0 0
5.20029 5.1086 -4.34852 255 0 0
5.1201 5.12617 -4.33415 255 0 0
5.96678 5.08084 -5.18907 255 0 0
5.96474 5.0791 -5.03721 255 0 0
6.10959 5.06649 -4.70346 255 0 0
8.25956 5.10534 -5.21756 255 0 0
8.28711 5.17684 -5.23782 255 0 0
8.27481 5.19648 -5.23782 255 0 0
8.23427 5.19828 -5.22676 255 0 0
7.98461 5.09378 -5.13836 255 0 0
7.95379 5.1007 -5.13099 255 0 0
7.19405 5.08479 -4.91919 255 0 0
7.16838 5.09217 -4.91367 255 0 0
6.99375 5.0686 -4.8621 255 0 0
6.9465 5.07213 -4.85012 255 0 0
6.74706 5.07521 -4.79763 255 0 0
6.70238 5.07904 -4.78658 255 0 0
6.55276 5.06421 -4.74422 255 0 0
6.44166 5.08903 -4.72028 255 0 0
6.23324 5.08234 -4.66503 255 0 0
6.14126 5.08049 -4.64108 255 0 0
6.10355 5.07372 -4.63003 255 0 0
6.07444 5.07392 -4.62267 255 0 0
6.02907 5.08475 -4.61346 255 0 0
5.98341 5.08276 -4.60149 255 0 0
5.73637 5.08758 -4.54071 255 0 0
5.69354 5.09805 -4.53242 255 0 0
5.65087 5.12051 -4.5269 255 0 0
5.54698 5.13518 -4.50479 255 0 0
5.49821 5.13865 -4.49374 255 0 0
5.3909 5.12286 -4.46428 255 0 0
5.39884 5.15482 -4.47348 255 0 0
5.34441 5.13931 -4.45691 255 0 0
5.2478 5.14308 -4.43481 255 0 0
5.14723 5.16555 -4.41639 255 0 0
5.15571 5.05283 -4.66149 255 0 0
8.29445 5.11332 -5.31891 255 0 0
8.29505 5.1545 -5.32646 255 0 0
8.29221 5.18003 -5.33024 255 0 0
7.84415 5.10949 -5.18865 255 0 0
7.27516 5.09055 -5.0244 255 0 0
7.20866 5.06953 -5.00175 255 0 0
7.0792 5.0795 -4.96776 255 0 0
7.03117 5.07034 -4.95266 255 0 0
6.9817 5.0725 -4.93945 255 0 0
6.6849 5.09079 -4.86204 255 0 0
6.59478 5.07175 -4.83372 255 0 0
6.5061 5.0776 -4.81107 255 0 0
6.3519 5.06722 -4.76765 255 0 0
6.29111 5.06774 -4.7516 255 0 0
6.25798 5.07786 -4.74499 255 0 0
6.21586 5.06817 -4.73178 255 0 0
6.17036 5.07997 -4.72234 255 0 0
6.01225 5.07058 -4.67892 255 0 0
5.84791 5.10044 -4.64305 255 0 0
5.77744 5.06315 -4.61662 255 0 0
5.73299 5.09675 -4.61284 255 0 0
5.68783 5.08079 -4.59774 255 0 0
5.52129 5.09927 -4.55998 255 0 0
5.49298 5.10942 -4.55526 255 0 0
5.45656 5.11189 -4.54676 255 0 0
5.39198 5.08752 -4.52505 255 0 0
5.2994 5.12027 -4.50995 255 0 0
5.25137 5.1101 -4.49579 255 0 0
5.16686 5.14852 -4.48446 255 0 0
8.33045 5.14916 -5.42685 255 0 0
8.33231 5.17765 -5.43265 255 0 0
8.33875 5.20911 -5.44039 255 0 0
8.10833 5.11878 -5.3553 255 0 0
6.80595 5.06917 -4.96949 255 0 0
6.66134 5.07285 -4.92984 255 0 0
6.50436 5.06384 -4.8844 255 0 0
6.43782 5.08599 -4.87086 255 0 0
6.30707 5.06828 -4.83121 255 0 0
6.28297 5.09813 -4.83121 255 0 0
6.23231 5.08158 -4.81381 255 0 0
6.14668 5.07269 -4.78867 255 0 0
6.08184 5.05567 -4.7674 255 0 0
5.96257 5.07725 -4.74032 255 0 0
5.74654 5.08442 -4.68488 255 0 0
5.6595 5.07966 -4.66103 255 0 0
5.59439 5.06933 -4.64169 255 0 0
5.59871 5.09746 -4.64943 255 0 0
5.52758 5.06878 -4.62429 255 0 0
5.40265 5.07341 -4.59335 255 0 0
5.19815 5.11865 -4.55273 255 0 0
5.77153 5.05797 -5.12286 255 0 0
6.16686 5.06484 -5.17031 255 0 0
8.08913 5.10665 -5.43686 255 0 0
6.54892 5.06123 -4.97359 255 0 0
6.41022 5.0642 -4.93499 255 0 0
6.34307 5.06016 -4.91519 255 0 0
6.13956 5.07909 -4.86273 255 0 0
6.01108 5.06959 -4.82511 255 0 0
5.89822 5.08305 -4.7974 255 0 0
5.74046 5.06693 -4.75087 255 0 0
5.5921 5.05517 -4.70831 255 0 0
5.44094 5.06104 -4.6697 255 0 0
5.40081 5.08376 -4.66475 255 0 0
5.29668 5.08135 -4.63704 255 0 0
5.24093 5.06377 -4.61823 255 0 0
5.18104 5.08972 -4.60932 255 0 0
5.93708 5.05555 -5.40219 255 0 0
5.58701 5.08682 -4.92926 255 0 0
7.51854 5.10308 -5.35015 255 0 0
6.75079 5.09057 -5.11722 255 0 0
6.68287 5.08924 -5.09697 255 0 0
6.61407 5.06167 -5.07064 255 0 0
6.30806 5.06908 -4.98354 255 0 0
5.89102 5.08905 -4.87011 255 0 0
5.69828 5.28783 -4.86606 255 0 0
5.56452 5.23786 -4.81745 255 0 0
5.25486 5.05322 -4.68782 255 0 0
5.19537 5.04364 -4.66959 255 0 0
5.53607 5.05244 -4.83427 255 0 0
6.61967 5.06596 -5.15218 255 0 0
6.45572 5.06296 -5.10247 255 0 0
6.37841 5.06368 -5.07969 255 0 0
6.03633 5.05425 -4.97717 255 0 0
5.99529 5.05627 -4.96578 255 0 0
5.73994 5.10295 -4.90434 255 0 0
5.58444 5.06031 -4.8498 255 0 0
5.48988 5.05824 -4.82287 255 0 0
5.35449 5.06414 -4.78698 255 0 0
5.29207 5.06487 -4.77006 255 0 0
5.28782 5.09698 -4.77731 255 0 0
5.1411 5.07449 -5.15165 255 0 0
7.06607 5.07008 -5.37162 255 0 0
7.00216 5.07469 -5.35257 255 0 0
6.54485 5.07049 -5.2097 255 0 0
6.25906 5.06644 -5.12187 255 0 0
6.14094 5.05575 -5.08377 255 0 0
5.99293 5.05428 -5.03932 255 0 0
5.74032 5.05473 -4.96525 255 0 0
5.76933 5.12905 -4.99276 255 0 0
5.77751 5.1609 -5.00334 255 0 0
5.49653 5.06435 -4.89752 255 0 0
5.47449 5.08016 -4.8954 255 0 0
5.34275 5.05307 -4.85095 255 0 0
5.30295 5.06327 -4.84249 255 0 0
5.23955 5.05047 -4.82132 255 0 0
5.27495 5.08457 -4.84037 255 0 0
5.18365 5.09228 -4.81709 255 0 0
7.00546 5.17913 -5.46107 255 0 0
5.718 5.08342 -5.03952 255 0 0
5.36095 5.07027 -4.93143 255 0 0
5.33708 5.07172 -4.92494 255 0 0
5.30904 5.0932 -4.92278 255 0 0
5.14605 5.05536 -4.86585 255 0 0
5.1201 5.10192 -5.08232 255 0 0
6.23356 5.0826 -5.27294 255 0 0
6.20287 5.0944 -5.26632 255 0 0
6.06464 5.06574 -5.21556 255 0 0
5.99308 5.06659 -5.19349 255 0 0
5.9135 5.05971 -5.167 255 0 0
5.77179 5.09462 -5.1328 255 0 0
5.49028 5.04657 -5.03459 255 0 0
5.4524 5.04763 -5.02355 255 0 0
5.50723 5.08629 -5.12348 255 0 0
5.13965 5.04906 -5.00188 255 0 0
5.38721 6.28117 -5.44777 255 0 0
5.1672 6.47721 -5.45227 255 0 0
5.45619 5.06318 -5.17419 255 0 0
5.49932 5.12752 -5.20635 255 0 0
5.40435 5.0871 -5.16501 255 0 0
5.21924 5.0548 -5.0984 255 0 0
5.11306 5.0708 -5.07084 255 0 0
5.20628 5.31228 -5.1719 255 0 0
5.60249 5.79849 -5.43833 255 0 0
5.8119 5.15458 -5.38932 255 0 0
5.17859 5.13579 -5.18209 255 0 0
5.34026 5.74112 -5.42093 255 0 0
5.23854 5.73997 -5.39049 255 0 0
5.23678 5.80679 -5.41156 255 0 0
5.19553 5.85808 -5.41624 255 0 0
5.17832 5.89475 -5.42327 255 0 0
5.1345 5.9152 -5.41741 255 0 0
5.10116 5.9192 -5.40922 255 0 0
5.23914 5.07407 -5.25453 255 0 0
5.20355 5.08764 -5.24737 255 0 0
5.26636 5.29767 -5.33327 255 0 0
5.2425 5.29874 -5.32611 255 0 0
5.12426 5.35411 -5.30702 255 0 0
5.11524 5.37012 -5.30941 255 0 0
