ply
format ascii 1.0
comment Created by Open3D
element vertex 1167
property double x
property double y
property double z
property uchar red
property uchar green
property uchar blue
end_header
7.35619 6.87518 -4.4306 255 0 0
8.25359 5.86307 -3.65529 255 0 0
6.89818 7.03862 -3.86472 255 0 0
6.36436 6.61834 -4.13589 255 0 0
7.41219 5.89871 -3.71094 255 0 0
6.45134 6.42843 -3.95958 255 0 0
7.57866 7.03276 -4.13484 255 0 0
6.76346 5.95567 -3.62769 255 0 0
5.93637 6.4737 -4.35352 255 0 0
8.41122 7.05974 -4.26745 255 0 0
6.81971 6.8278 -3.57782 255 0 0
6.41274 5.72834 -4.22758 255 0 0
8.83896 5.60937 -4.61937 255 0 0
7.02261 5.86592 -3.65266 255 0 0
8.09428 5.63516 -4.55504 255 0 0
6.63327 6.48551 -3.67556 255 0 0
8.35491 5.61307 -4.51846 255 0 0
8.84877 7.12804 -4.14993 255 0 0
7.46022 5.86503 -3.63265 255 0 0
8.54768 5.62566 -5.01723 255 0 0
7.21209 5.65615 -4.37442 255 0 0
5.80307 5.62023 -4.45518 255 0 0
8.8328 5.84338 -3.91284 255 0 0
7.72262 6.02702 -3.51819 255 0 0
6.69939 6.14334 -3.64173 255 0 0
5.97091 5.62039 -5.17901 255 0 0
8.19415 5.85013 -3.905 255 0 0
7.82114 5.89769 -3.76922 255 0 0
6.55545 5.63594 -4.39363 255 0 0
7.40505 6.67814 -3.9727 255 0 0
6.91023 5.62069 -4.46628 255 0 0
7.39701 6.83163 -3.47491 255 0 0
6.78554 5.91822 -3.70362 255 0 0
7.05489 6.09448 -3.52428 255 0 0
6.85506 6.30105 -3.84202 255 0 0
8.47011 6.32428 -4.36652 255 0 0
6.68653 7.0531 -3.9227 255 0 0
8.20368 5.88634 -3.56482 255 0 0
6.68329 6.65956 -3.62322 255 0 0
8.25637 5.74801 -4.3402 255 0 0
7.52469 6.46924 -4.30836 255 0 0
7.50235 6.14679 -4.34129 255 0 0
7.42028 6.75596 -4.07209 255 0 0
7.15818 5.89323 -4.23824 255 0 0
8.65027 5.66383 -5.0487 255 0 0
7.5625 6.69118 -4.17266 255 0 0
8.56818 5.61009 -4.56252 255 0 0
6.60396 5.81522 -3.96997 255 0 0
6.86741 7.04054 -3.60805 255 0 0
6.64046 5.77785 -3.97061 255 0 0
8.4179 5.86047 -3.67702 255 0 0
5.91186 5.94701 -4.32176 255 0 0
7.31512 6.41072 -3.50743 255 0 0
7.61667 5.77188 -4.30694 255 0 0
6.13797 5.80516 -4.79948 255 0 0
6.26039 5.83716 -4.83631 255 0 0
7.77484 5.94999 -3.51729 255 0 0
6.49129 6.43764 -4.04672 255 0 0
8.92489 5.75336 -4.28474 255 0 0
8.74804 5.72785 -4.34093 255 0 0
8.45077 5.85365 -3.6808 255 0 0
7.1856 6.86083 -3.53971 255 0 0
5.93696 5.92993 -4.32332 255 0 0
7.55367 7.04298 -4.04316 255 0 0
8.36826 6.27919 -4.34221 255 0 0
6.7114 5.85356 -3.83883 255 0 0
7.7524 6.35167 -4.24371 255 0 0
8.93897 5.85286 -3.74694 255 0 0
8.21193 5.61645 -4.48932 255 0 0
7.56535 5.88989 -3.81411 255 0 0
6.72208 6.17882 -3.72756 255 0 0
8.14833 5.78829 -4.0638 255 0 0
6.76342 5.81475 -3.99683 255 0 0
8.39371 5.81413 -4.28593 255 0 0
6.73293 6.90267 -3.65896 255 0 0
7.56319 5.9026 -3.7328 255 0 0
7.07195 5.87872 -3.66099 255 0 0
8.40925 7.16066 -4.47269 255 0 0
7.52437 7.08266 -4.04429 255 0 0
6.46309 6.48612 -4.04992 255 0 0
7.32695 5.60723 -4.55456 255 0 0
8.70121 6.15005 -3.47041 255 0 0
6.90182 5.84888 -3.78975 255 0 0
7.35818 5.60352 -4.56081 255 0 0
8.7213 5.59289 -4.86861 255 0 0
8.86416 6.12445 -3.48682 255 0 0
8.45403 5.90049 -3.51012 255 0 0
8.32385 5.88333 -3.84103 255 0 0
6.41194 5.64614 -4.36551 255 0 0
8.17111 5.77538 -4.15295 255 0 0
8.56125 5.87029 -3.60876 255 0 0
6.02457 6.23534 -4.32321 255 0 0
8.39402 5.66828 -4.35612 255 0 0
7.36739 6.64418 -4.39487 255 0 0
6.71008 6.52957 -3.85225 255 0 0
8.96505 6.05388 -3.49283 255 0 0
7.6389 6.18338 -4.20022 255 0 0
7.40119 6.86808 -3.91044 255 0 0
8.2849 5.59459 -4.94768 255 0 0
7.30021 5.61427 -4.54987 255 0 0
8.97419 5.84557 -3.84263 255 0 0
6.83859 6.25606 -3.75369 255 0 0
8.39164 6.53317 -3.46761 255 0 0
7.73103 5.80104 -3.8288 255 0 0
6.87042 6.25532 -3.75804 255 0 0
6.68196 6.37995 -3.58946 255 0 0
7.36494 6.96559 -4.44708 255 0 0
7.18199 6.47697 -3.82989 255 0 0
7.71202 5.85853 -3.58349 255 0 0
7.52711 5.84577 -3.72135 255 0 0
7.45924 6.82385 -3.48085 255 0 0
8.6703 5.85484 -3.79994 255 0 0
6.07515 5.98225 -4.28457 255 0 0
7.40886 6.24843 -3.50204 255 0 0
7.85363 5.86398 -3.77026 255 0 0
7.25376 6.76335 -4.48151 255 0 0
7.7378 5.92165 -3.75986 255 0 0
7.55116 5.92207 -3.81574 255 0 0
8.82396 5.59985 -4.89361 255 0 0
6.76479 5.87195 -3.69491 255 0 0
8.91665 7.06151 -4.15211 255 0 0
8.01081 5.86384 -3.62317 255 0 0
7.39803 6.78397 -4.15973 255 0 0
6.509 7.04766 -4.31587 255 0 0
8.92221 5.72174 -4.37291 255 0 0
6.979 5.60823 -4.39899 255 0 0
9.05776 6.74633 -4.43008 255 0 0
8.86523 5.80458 -3.91388 255 0 0
6.88794 5.86522 -3.78975 255 0 0
6.56222 5.7509 -4.10633 255 0 0
7.37914 6.2835 -3.50204 255 0 0
6.83976 6.48429 -3.54097 255 0 0
7.81132 5.86128 -3.59671 255 0 0
7.70485 5.81 -3.90907 255 0 0
6.80304 7.00771 -3.76402 255 0 0
8.86025 5.77135 -4.18339 255 0 0
7.60676 6.14243 -4.10369 255 0 0
6.68819 6.23605 -3.65162 255 0 0
7.26014 6.51631 -3.51191 255 0 0
8.18544 5.81466 -3.98634 255 0 0
7.49148 6.985 -4.38265 255 0 0
6.3122 6.11332 -4.19868 255 0 0
7.43386 6.80063 -4.08037 255 0 0
6.86277 7.06924 -3.61089 255 0 0
7.23458 6.87488 -4.49714 255 0 0
8.81811 7.1552 -4.24656 255 0 0
7.77136 5.71691 -4.32892 255 0 0
8.3519 5.84397 -3.66663 255 0 0
8.47652 6.3919 -4.37675 255 0 0
8.7956 5.89401 -4.37035 255 0 0
8.72505 5.86174 -3.71859 255 0 0
7.55749 6.13231 -3.50832 255 0 0
8.19738 5.85243 -3.81918 255 0 0
8.51011 5.65895 -4.37734 255 0 0
8.40125 5.61534 -4.52841 255 0 0
7.69105 5.82825 -3.90907 255 0 0
8.76784 5.59344 -4.87954 255 0 0
8.4571 5.79889 -3.7642 255 0 0
7.39612 6.79839 -3.47151 255 0 0
8.10871 5.87665 -3.63734 255 0 0
7.75909 5.62327 -4.39765 255 0 0
5.8048 5.63525 -4.38547 255 0 0
6.3774 5.64263 -4.35769 255 0 0
9.02909 6.54367 -4.39929 255 0 0
6.6798 6.22819 -3.64954 255 0 0
6.67616 5.8788 -3.91401 255 0 0
8.49776 5.76771 -4.03179 255 0 0
8.1638 5.97582 -4.35346 255 0 0
6.41946 6.5813 -4.05823 255 0 0
8.31333 5.61379 -4.50993 255 0 0
6.7723 7.00922 -3.67683 255 0 0
7.32791 5.86008 -3.61428 255 0 0
6.85664 5.85259 -3.62821 255 0 0
5.85005 6.83723 -4.41111 255 0 0
7.20045 5.87097 -3.5984 255 0 0
6.31694 6.41505 -4.25268 255 0 0
8.84187 7.07077 -4.23975 255 0 0
7.85781 5.59591 -4.67096 255 0 0
6.54233 6.61251 -4.00146 255 0 0
8.4164 5.91887 -3.50715 255 0 0
8.43814 5.66898 -4.45395 255 0 0
8.40006 5.61454 -4.97915 255 0 0
7.56126 7.08364 -4.22932 255 0 0
8.44818 6.12267 -4.33582 255 0 0
7.58331 6.21313 -4.2805 255 0 0
8.3216 6.65472 -3.47041 255 0 0
7.47251 5.80337 -4.2009 255 0 0
6.34506 7.12012 -4.38628 255 0 0
7.17204 5.8478 -3.6714 255 0 0
6.65764 7.08967 -4.0926 255 0 0
6.80681 6.63943 -3.55467 255 0 0
6.80567 7.07727 -3.77339 255 0 0
8.46822 5.6601 -4.36938 255 0 0
7.62068 7.10546 -4.15142 255 0 0
7.00991 6.14324 -3.52396 255 0 0
8.29245 6.16106 -4.31279 255 0 0
8.92725 5.81499 -3.92429 255 0 0
6.68557 6.32306 -3.66203 255 0 0
7.8255 5.93014 -3.77339 255 0 0
6.70017 7.30663 -4.21941 255 0 0
6.46515 7.01687 -4.21947 255 0 0
6.80961 5.86849 -3.70089 255 0 0
6.36153 5.65552 -4.28078 255 0 0
7.57254 7.07738 -4.32047 255 0 0
6.70543 6.23725 -3.57557 255 0 0
7.22168 5.85983 -3.67972 255 0 0
8.94054 5.76345 -4.19641 255 0 0
7.48713 6.68806 -4.24755 255 0 0
6.81219 6.02733 -3.72103 255 0 0
6.88252 5.93136 -3.56316 255 0 0
6.68785 6.34027 -3.58549 255 0 0
7.00951 5.67389 -4.33624 255 0 0
6.7188 6.04484 -3.63237 255 0 0
6.55148 5.61904 -4.15959 255 0 0
6.62575 6.79279 -3.87725 255 0 0
8.34523 5.66418 -4.43472 255 0 0
6.64114 6.63328 -3.69533 255 0 0
6.63497 6.42592 -3.66827 255 0 0
8.22556 5.87255 -3.65246 255 0 0
7.44877 6.2369 -3.50563 255 0 0
7.63184 6.07352 -4.18359 255 0 0
7.73701 6.52519 -3.48254 255 0 0
8.3452 6.62508 -3.47041 255 0 0
8.66207 5.87923 -3.53346 255 0 0
8.34775 5.88539 -3.75725 255 0 0
8.38131 7.06858 -4.2639 255 0 0
6.72913 6.5481 -3.77655 255 0 0
7.53999 5.82717 -3.8852 255 0 0
8.87163 5.83887 -4.10111 255 0 0
6.19771 6.49109 -4.24558 255 0 0
5.84046 6.9418 -4.43081 255 0 0
7.32125 5.88327 -3.69637 255 0 0
6.90598 5.8524 -3.63497 255 0 0
7.4175 5.70447 -4.25885 255 0 0
6.65586 5.62687 -4.41316 255 0 0
6.67931 6.40776 -3.59244 255 0 0
7.16227 5.61708 -4.52019 255 0 0
6.61345 7.07616 -4.08398 255 0 0
6.58188 5.76813 -4.26723 255 0 0
5.8027 6.13537 -4.33816 255 0 0
8.45545 5.79775 -4.20591 255 0 0
7.35758 6.76296 -4.23732 255 0 0
6.84072 5.99496 -3.72103 255 0 0
8.75042 5.68505 -5.07685 255 0 0
8.91836 5.80921 -4.01386 255 0 0
8.89266 5.94379 -3.74883 255 0 0
8.87061 5.6 -4.90454 255 0 0
8.52192 5.99308 -4.24163 255 0 0
7.59636 6.80183 -3.49358 255 0 0
6.71697 6.85372 -3.65102 255 0 0
7.60478 5.87724 -3.73592 255 0 0
6.05993 5.62343 -4.43763 255 0 0
7.47129 5.80242 -4.28358 255 0 0
8.92238 5.87227 -3.65539 255 0 0
8.21599 5.67661 -4.41067 255 0 0
8.30232 5.72174 -4.3455 255 0 0
8.37197 6.58185 -3.46961 255 0 0
7.46806 7.09674 -4.48693 255 0 0
7.96716 5.80292 -4.20662 255 0 0
6.66708 7.0493 -4.08767 255 0 0
8.50534 6.35058 -3.46481 255 0 0
5.9653 5.88802 -4.32072 255 0 0
6.60412 6.39604 -3.73954 255 0 0
7.44317 6.64879 -4.32162 255 0 0
7.89108 5.92114 -3.52895 255 0 0
7.2388 6.91162 -4.50425 255 0 0
7.55824 5.92762 -4.06674 255 0 0
7.85793 6.31453 -3.4766 255 0 0
7.64111 6.20016 -4.03183 255 0 0
7.54095 5.82791 -3.96789 255 0 0
7.50446 6.68756 -4.16281 255 0 0
5.91492 5.63417 -4.40865 255 0 0
7.61189 6.08717 -4.26723 255 0 0
7.7181 5.63554 -4.47574 255 0 0
8.44297 7.08639 -4.18066 255 0 0
6.91497 5.90239 -3.56415 255 0 0
8.35907 5.95291 -4.29744 255 0 0
7.05982 5.8828 -3.58103 255 0 0
7.20816 5.97751 -3.53105 255 0 0
6.6014 7.06326 -4.1644 255 0 0
7.50147 6.14607 -3.50294 255 0 0
8.17835 5.80962 -3.81189 255 0 0
6.67372 6.58726 -3.61329 255 0 0
7.39116 5.65637 -4.41113 255 0 0
6.62798 6.44967 -3.67035 255 0 0
8.79433 5.90828 -3.82277 255 0 0
8.93139 7.10771 -4.15973 255 0 0
6.13293 5.61051 -4.45088 255 0 0
5.91038 6.53814 -4.36161 255 0 0
7.73976 6.63821 -3.49358 255 0 0
6.82792 6.88484 -3.58538 255 0 0
8.85595 5.8738 -3.73749 255 0 0
9.00719 6.59318 -4.40175 255 0 0
8.83923 6.34237 -4.43559 255 0 0
7.51935 7.09477 -4.22439 255 0 0
8.34458 6.13859 -4.31919 255 0 0
8.20016 5.8838 -3.7364 255 0 0
8.2246 5.93095 -4.35877 255 0 0
7.44673 5.95509 -3.88634 255 0 0
7.30392 6.49331 -3.5146 255 0 0
8.4534 5.87029 -3.77065 255 0 0
7.20894 6.78575 -3.53433 255 0 0
8.4454 5.83512 -3.85404 255 0 0
7.40973 6.71429 -4.2386 255 0 0
6.68809 6.1769 -3.64434 255 0 0
7.54446 7.16935 -3.96923 255 0 0
6.39811 6.2556 -4.0815 255 0 0
8.77666 5.89642 -3.90972 255 0 0
7.6022 5.87525 -3.81792 255 0 0
7.50108 5.83984 -3.88066 255 0 0
7.37118 5.89468 -3.7047 255 0 0
8.63057 5.73905 -4.96266 255 0 0
7.52715 5.87447 -4.05442 255 0 0
7.29078 6.68565 -4.47511 255 0 0
7.43059 5.79911 -4.27533 255 0 0
8.62099 6.23234 -3.46801 255 0 0
6.82768 7.16788 -3.78796 255 0 0
8.63282 5.5941 -4.57389 255 0 0
7.20605 5.93264 -3.84657 255 0 0
5.89413 5.98569 -4.32593 255 0 0
7.14831 5.87089 -3.59145 255 0 0
6.54396 6.93559 -4.21815 255 0 0
6.7097 5.85208 -3.76134 255 0 0
8.2466 6.83865 -3.47842 255 0 0
7.60069 6.13753 -4.27254 255 0 0
8.37718 5.86166 -3.58454 255 0 0
6.85564 6.13862 -3.74117 255 0 0
8.81817 5.77377 -4.0852 255 0 0
7.44501 6.69819 -4.1548 255 0 0
7.09475 5.86929 -3.66307 255 0 0
6.60079 6.64003 -3.85225 255 0 0
6.56947 6.70322 -3.8568 255 0 0
6.81121 6.58098 -3.54853 255 0 0
9.03205 6.57854 -4.40421 255 0 0
6.69991 6.59743 -3.8602 255 0 0
8.79822 5.85054 -3.81781 255 0 0
6.40203 6.48609 -4.11997 255 0 0
7.50773 5.88801 -4.21947 255 0 0
8.75237 5.88009 -3.54449 255 0 0
5.84754 7.06847 -4.45809 255 0 0
7.8839 5.62862 -4.50951 255 0 0
8.89552 5.85459 -4.01495 255 0 0
8.59134 6.27315 -3.46801 255 0 0
7.60167 5.83179 -3.89543 255 0 0
8.87389 6.99348 -4.2352 255 0 0
8.36094 7.01754 -4.53919 255 0 0
8.16071 5.68141 -4.40037 255 0 0
6.35136 5.64648 -4.35301 255 0 0
8.80867 5.70805 -4.34989 255 0 0
6.78459 5.93158 -3.62769 255 0 0
6.90622 7.14783 -3.62506 255 0 0
8.41689 5.80069 -4.28849 255 0 0
7.76906 6.50506 -3.48424 255 0 0
7.74242 6.68841 -3.49867 255 0 0
8.10214 5.90123 -3.72448 255 0 0
7.65701 6.55149 -4.34418 255 0 0
7.65591 6.24233 -4.12545 255 0 0
8.53951 6.32893 -3.46681 255 0 0
7.58623 5.74882 -4.21417 255 0 0
7.40462 6.72566 -4.32693 255 0 0
8.22128 5.60858 -5.11519 255 0 0
7.59766 5.87174 -3.65201 255 0 0
6.32689 5.65164 -4.96852 255 0 0
7.19361 6.80355 -3.87343 255 0 0
6.11367 5.61958 -4.37367 255 0 0
7.49457 5.65143 -4.43169 255 0 0
7.72808 6.74029 -3.50206 255 0 0
7.58458 6.0359 -4.33991 255 0 0
5.87154 6.68388 -4.38383 255 0 0
6.67649 6.54329 -3.60833 255 0 0
8.88162 5.84545 -3.73843 255 0 0
6.60672 5.73474 -4.03507 255 0 0
8.42946 6.45097 -3.46481 255 0 0
6.70392 5.62676 -4.42332 255 0 0
7.79214 6.4774 -3.48424 255 0 0
6.26323 6.45167 -4.24984 255 0 0
7.61187 6.1168 -4.18615 255 0 0
9.08407 6.81631 -4.44363 255 0 0
7.56751 6.11074 -3.50743 255 0 0
8.93833 5.98968 -3.48482 255 0 0
6.68379 6.69172 -3.62719 255 0 0
8.10644 5.81657 -3.97384 255 0 0
6.86619 5.62557 -4.45769 255 0 0
6.82676 7.13297 -3.69867 255 0 0
8.75752 5.64547 -4.42378 255 0 0
7.61078 6.05675 -3.50743 255 0 0
6.56664 6.82869 -4.03841 255 0 0
8.0695 5.90679 -3.72051 255 0 0
8.74364 5.84419 -3.98991 255 0 0
7.17602 6.78692 -3.53074 255 0 0
8.77967 5.80823 -4.26503 255 0 0
6.68201 6.47148 -3.60039 255 0 0
7.39822 6.80032 -4.33754 255 0 0
7.97022 5.89238 -3.53612 255 0 0
6.65777 6.35685 -3.74172 255 0 0
8.81735 5.86325 -3.64104 255 0 0
6.35364 7.02846 -4.37065 255 0 0
8.36733 5.88436 -3.93548 255 0 0
8.30691 6.69154 -3.47202 255 0 0
7.71711 6.77919 -3.50461 255 0 0
8.41153 7.1626 -4.37712 255 0 0
7.59331 5.83967 -3.81247 255 0 0
7.89834 6.28561 -3.47858 255 0 0
7.84371 5.85657 -3.60049 255 0 0
7.10702 6.06632 -3.52774 255 0 0
8.94993 5.95142 -3.48322 255 0 0
6.67056 6.33889 -3.66203 255 0 0
8.56431 6.30023 -3.46721 255 0 0
7.50138 5.65657 -4.35075 255 0 0
7.60225 6.13879 -4.01762 255 0 0
7.58256 7.13744 -3.97032 255 0 0
7.55824 5.92763 -3.73488 255 0 0
7.48975 5.70372 -4.27259 255 0 0
6.23775 5.6793 -4.87337 255 0 0
8.18053 6.04786 -3.49018 255 0 0
7.51995 7.1122 -4.13721 255 0 0
8.38636 5.83851 -4.02157 255 0 0
6.63295 5.86872 -3.98276 255 0 0
6.65243 6.59745 -3.69221 255 0 0
5.98128 6.33923 -4.33534 255 0 0
7.79725 6.43489 -3.48085 255 0 0
7.57343 5.79586 -4.05196 255 0 0
7.40192 6.64356 -4.31366 255 0 0
7.42427 6.75959 -3.98634 255 0 0
8.52173 5.87295 -3.69214 255 0 0
8.32693 5.94492 -3.49867 255 0 0
8.75865 6.14403 -3.47642 255 0 0
6.41364 6.62229 -4.14452 255 0 0
8.15685 5.88209 -3.55854 255 0 0
6.80677 7.09519 -3.86037 255 0 0
7.41391 6.68613 -4.06143 255 0 0
7.4844 5.86972 -3.55514 255 0 0
7.53112 6.63164 -3.9852 255 0 0
8.47343 5.60563 -4.99571 255 0 0
7.55779 5.8696 -3.56459 255 0 0
8.26547 6.78844 -3.47602 255 0 0
7.7681 5.8577 -3.67385 255 0 0
6.77813 6.05472 -3.56365 255 0 0
7.18021 5.99756 -3.52963 255 0 0
7.04533 5.85659 -3.81248 255 0 0
8.93148 6.06209 -3.48963 255 0 0
7.76971 5.85891 -3.59105 255 0 0
6.84395 6.95025 -3.59482 255 0 0
7.99996 5.69715 -4.37083 255 0 0
6.48556 6.97239 -4.29869 255 0 0
6.67448 6.61932 -3.61726 255 0 0
7.29062 6.6379 -3.52805 255 0 0
7.89926 6.22538 -3.47321 255 0 0
7.4112 5.6439 -4.33085 255 0 0
6.7953 6.02675 -3.56266 255 0 0
8.90561 5.89154 -4.02039 255 0 0
7.78529 5.78425 -4.34129 255 0 0
7.31023 5.90298 -3.53625 255 0 0
6.67704 7.21245 -4.11477 255 0 0
8.51025 5.61548 -4.55115 255 0 0
7.82602 5.93053 -3.52177 255 0 0
6.65583 5.62686 -4.33534 255 0 0
7.99356 6.13241 -3.47575 255 0 0
6.53471 6.45004 -3.97559 255 0 0
8.41303 5.88674 -3.85456 255 0 0
8.7129 5.61671 -4.59378 255 0 0
8.44553 5.76156 -4.19976 255 0 0
8.82257 5.80658 -3.90764 255 0 0
6.45398 5.79274 -4.24667 255 0 0
6.05132 5.77781 -4.31655 255 0 0
7.00995 5.6058 -4.40505 255 0 0
7.48993 7.11753 -4.22316 255 0 0
6.68376 6.29139 -3.65787 255 0 0
7.77976 6.37408 -3.47321 255 0 0
6.27206 5.73781 -4.27775 255 0 0
8.8798 5.7243 -4.36524 255 0 0
7.82813 5.8739 -3.68378 255 0 0
8.07723 6.87793 -3.46401 255 0 0
8.45194 6.95837 -4.45094 255 0 0
6.84596 6.44408 -3.53719 255 0 0
7.43098 5.74292 -4.26709 255 0 0
7.50057 5.7967 -4.03964 255 0 0
7.685 5.88124 -3.66492 255 0 0
8.82566 6.14435 -3.48402 255 0 0
7.87839 5.79564 -3.85057 255 0 0
8.92152 7.04818 -3.47283 255 0 0
7.5197 5.86865 -3.64109 255 0 0
5.80071 5.67148 -4.31895 255 0 0
8.0423 6.98084 -3.46961 255 0 0
6.14413 5.86643 -4.27623 255 0 0
7.38112 6.7203 -4.23476 255 0 0
8.01214 5.89403 -3.5415 255 0 0
6.84136 5.8536 -3.70362 255 0 0
8.37185 5.79898 -4.01475 255 0 0
7.39353 6.86097 -3.47745 255 0 0
8.90776 5.59396 -4.91235 255 0 0
6.50763 5.6352 -4.38347 255 0 0
7.22715 5.95001 -3.53058 255 0 0
8.79291 5.66828 -4.5254 255 0 0
7.50885 5.97562 -4.31655 255 0 0
6.00019 6.32914 -4.33685 255 0 0
7.29621 5.9203 -3.53625 255 0 0
8.6354 5.89109 -3.70915 255 0 0
5.8969 5.63038 -4.77709 255 0 0
8.75582 5.88241 -3.63476 255 0 0
6.81132 6.78714 -3.57215 255 0 0
8.65713 5.66833 -4.49792 255 0 0
6.75164 6.8565 -3.738 255 0 0
6.70277 6.79078 -3.64159 255 0 0
8.8599 5.84622 -3.82625 255 0 0
8.34943 5.60938 -4.9659 255 0 0
9.03174 5.97499 -3.49443 255 0 0
8.8931 6.08235 -3.48682 255 0 0
8.67242 6.16059 -3.46801 255 0 0
8.65045 6.19139 -3.46801 255 0 0
8.50417 6.38117 -3.46721 255 0 0
8.45597 6.39213 -3.46281 255 0 0
8.45396 6.43799 -3.46641 255 0 0
8.41564 6.48798 -3.46641 255 0 0
8.27733 6.7327 -3.47242 255 0 0
8.21777 6.86423 -3.47762 255 0 0
8.3775 5.65712 -4.44021 255 0 0
8.16224 6.86726 -3.47202 255 0 0
8.11564 6.87751 -3.46801 255 0 0
8.07032 6.92171 -3.46721 255 0 0
8.43109 6.23309 -4.34733 255 0 0
8.54848 5.89138 -3.52073 255 0 0
7.70903 6.69156 -3.49527 255 0 0
7.91905 5.89821 -3.53029 255 0 0
7.10071 5.87422 -3.58549 255 0 0
5.85686 5.6321 -4.76765 255 0 0
6.80996 6.68992 -3.56081 255 0 0
8.93841 5.88282 -3.56741 255 0 0
8.90027 5.88801 -3.56316 255 0 0
8.84287 5.88023 -3.55553 255 0 0
8.79519 5.87864 -3.54958 255 0 0
8.70479 5.87813 -3.53855 255 0 0
8.60764 5.88709 -3.52752 255 0 0
8.51067 5.89514 -3.51649 255 0 0
8.38815 5.92878 -3.50461 255 0 0
8.35517 5.93523 -3.50121 255 0 0
8.29868 5.96942 -3.49739 255 0 0
8.25153 5.99508 -3.494 255 0 0
8.20666 6.02214 -3.49103 255 0 0
8.1502 6.08542 -3.4899 255 0 0
8.10431 6.11122 -3.48679 255 0 0
8.05254 6.1172 -3.48127 255 0 0
7.9717 6.16081 -3.47575 255 0 0
7.94334 6.16903 -3.47321 255 0 0
7.9145 6.19188 -3.47194 255 0 0
7.80689 6.33466 -3.47264 255 0 0
7.74025 6.57517 -3.48764 255 0 0
7.65887 6.79264 -3.49952 255 0 0
7.55492 6.8133 -3.49018 255 0 0
7.50491 6.81673 -3.48509 255 0 0
6.96381 5.88722 -3.72539 255 0 0
7.29249 6.79946 -3.46048 255 0 0
5.95948 5.63634 -4.3447 255 0 0
6.15882 5.68807 -4.32124 255 0 0
6.82146 6.52863 -3.54381 255 0 0
6.92328 5.81087 -3.9448 255 0 0
6.78941 7.12771 -3.86255 255 0 0
7.00573 5.88008 -3.80945 255 0 0
7.25349 5.85717 -3.68388 255 0 0
6.68487 6.4436 -3.59741 255 0 0
7.91858 5.62509 -4.43034 255 0 0
8.29664 5.93818 -4.37336 255 0 0
7.35527 5.6566 -4.40379 255 0 0
6.39605 6.40364 -4.10538 255 0 0
8.86983 5.86787 -3.64821 255 0 0
8.70828 5.88049 -3.62849 255 0 0
8.63208 5.85888 -3.61683 255 0 0
8.50442 5.86102 -3.60069 255 0 0
8.48099 5.87458 -3.59889 255 0 0
8.30452 5.88443 -3.57737 255 0 0
8.23174 5.87696 -3.56751 255 0 0
8.07741 5.88323 -3.54868 255 0 0
7.74957 5.98915 -3.51789 255 0 0
7.67123 6.04567 -3.5137 255 0 0
7.65687 6.06384 -3.5137 255 0 0
7.5964 6.07478 -3.50743 255 0 0
7.60453 6.1109 -3.51191 255 0 0
7.46778 6.17789 -3.50204 255 0 0
7.34927 6.31842 -3.50204 255 0 0
7.34223 6.38846 -3.50832 255 0 0
7.29623 6.58001 -3.52267 255 0 0
7.28061 6.59729 -3.52267 255 0 0
7.24628 6.66066 -3.52536 255 0 0
7.24903 6.74289 -3.53433 255 0 0
7.20812 6.75281 -3.53074 255 0 0
7.18215 6.92294 -3.54599 255 0 0
7.14909 6.92384 -3.5424 255 0 0
7.11192 6.9206 -3.53791 255 0 0
8.30273 5.85363 -3.66096 255 0 0
8.73436 5.83799 -4.07838 255 0 0
7.4387 6.09465 -4.40618 255 0 0
6.7487 6.95174 -3.6669 255 0 0
7.56549 5.87558 -3.64804 255 0 0
8.77339 5.92445 -3.73088 255 0 0
8.58329 5.88541 -3.70159 255 0 0
8.16006 5.86969 -3.64348 255 0 0
8.05272 5.86524 -3.62884 255 0 0
7.97361 5.86569 -3.61845 255 0 0
7.90628 5.85959 -3.609 255 0 0
7.66819 5.86837 -3.57876 255 0 0
7.60608 5.86384 -3.57026 255 0 0
7.51652 5.86617 -3.55892 255 0 0
7.45231 5.87314 -3.55136 255 0 0
7.41101 5.88342 -3.54711 255 0 0
7.35146 5.89321 -3.5405 255 0 0
7.25721 5.93158 -3.53247 255 0 0
7.15315 6.03277 -3.52995 255 0 0
6.96172 6.18911 -3.52302 255 0 0
6.93661 6.22592 -3.52396 255 0 0
6.92612 6.24622 -3.52491 255 0 0
6.89925 6.28158 -3.52554 255 0 0
6.87606 6.33543 -3.52869 255 0 0
6.85106 6.38789 -3.53152 255 0 0
6.80664 6.73443 -3.56554 255 0 0
6.85577 6.99535 -3.60144 255 0 0
6.81612 5.86005 -3.62352 255 0 0
8.49433 7.09523 -4.47781 255 0 0
6.87274 7.07951 -3.8669 255 0 0
7.90914 5.87627 -3.77963 255 0 0
6.70613 5.87702 -3.8412 255 0 0
6.95542 5.8519 -3.64173 255 0 0
6.98755 6.33173 -3.78417 255 0 0
8.22207 5.84068 -3.90827 255 0 0
8.86108 5.92269 -3.83369 255 0 0
7.4987 7.02504 -3.94419 255 0 0
6.45836 6.55867 -3.98052 255 0 0
8.92168 5.84154 -3.83468 255 0 0
8.397 5.87552 -3.7632 255 0 0
8.37852 5.95181 -3.76817 255 0 0
8.17685 5.92603 -3.73739 255 0 0
8.07406 5.93959 -3.72448 255 0 0
7.92075 5.8558 -3.6947 255 0 0
7.91611 5.88145 -3.69669 255 0 0
7.84665 5.85877 -3.68477 255 0 0
7.70587 5.85386 -3.66492 255 0 0
7.65731 5.88889 -3.66194 255 0 0
7.40538 5.86467 -3.62521 255 0 0
7.35985 5.85706 -3.61826 255 0 0
7.29601 5.86298 -3.61031 255 0 0
7.24596 5.86528 -3.60386 255 0 0
6.99652 5.88649 -3.57308 255 0 0
6.96013 5.89829 -3.56961 255 0 0
6.85869 5.9677 -3.56415 255 0 0
6.8238 5.99446 -3.56266 255 0 0
6.75504 6.09194 -3.56498 255 0 0
6.63431 6.51737 -3.67972 255 0 0
6.7332 6.13039 -3.56663 255 0 0
6.73568 6.16192 -3.5706 255 0 0
6.71583 6.18779 -3.5711 255 0 0
6.69681 6.28873 -3.58053 255 0 0
6.67492 6.49535 -3.60237 255 0 0
6.68418 6.72392 -3.63116 255 0 0
6.82765 7.10013 -3.6947 255 0 0
6.61884 6.53309 -3.67972 255 0 0
8.44765 5.61742 -4.53836 255 0 0
6.65762 6.50932 -3.84202 255 0 0
8.7073 5.74553 -4.98197 255 0 0
6.15578 7.04105 -4.42288 255 0 0
6.65564 5.83277 -3.90416 255 0 0
8.83332 5.87387 -3.91596 255 0 0
8.79062 5.87559 -3.90972 255 0 0
8.58694 5.85803 -3.87746 255 0 0
8.51125 5.83601 -3.86393 255 0 0
8.41751 5.86019 -3.85248 255 0 0
8.28593 5.82712 -3.82958 255 0 0
8.16007 5.85505 -3.81397 255 0 0
8.13221 5.89368 -3.81397 255 0 0
8.08095 5.88581 -3.80565 255 0 0
8.05768 5.89814 -3.80357 255 0 0
7.99726 5.88309 -3.79316 255 0 0
7.70598 5.86838 -3.74945 255 0 0
7.65523 5.88729 -3.74425 255 0 0
7.45121 5.88659 -3.71511 255 0 0
7.14452 5.86778 -3.66983 255 0 0
6.79523 5.88425 -3.62352 255 0 0
6.74439 5.9816 -3.62821 255 0 0
6.72523 6.00747 -3.62873 255 0 0
6.70498 6.0902 -3.63601 255 0 0
6.66119 6.39039 -3.66723 255 0 0
6.66627 6.7059 -3.70782 255 0 0
6.70303 6.77494 -3.72135 255 0 0
6.77553 6.92991 -3.75049 255 0 0
6.76571 7.03573 -3.76298 255 0 0
7.3015 5.65668 -4.39278 255 0 0
6.03828 6.19051 -4.31715 255 0 0
6.95248 5.61411 -4.39444 255 0 0
6.86836 5.84855 -3.70688 255 0 0
7.04092 5.60325 -4.41111 255 0 0
7.03539 5.82018 -4.04416 255 0 0
8.93211 5.78804 -4.01386 255 0 0
8.85162 5.79567 -4.00188 255 0 0
8.80059 5.85211 -3.99971 255 0 0
8.45118 5.82433 -3.94201 255 0 0
8.39478 5.81487 -3.93222 255 0 0
8.42347 5.86434 -3.94201 255 0 0
8.34826 5.84142 -3.92786 255 0 0
7.63911 5.84613 -3.82009 255 0 0
8.86107 6.98337 -4.13469 255 0 0
8.84711 7.07497 -4.1434 255 0 0
7.18656 5.9166 -3.76131 255 0 0
7.06169 5.84194 -3.7341 255 0 0
7.06038 5.89748 -3.74063 255 0 0
6.73277 6.21816 -3.7341 255 0 0
7.55741 7.04647 -3.95508 255 0 0
6.85737 7.03025 -3.85819 255 0 0
6.87992 7.12061 -3.87343 255 0 0
6.74479 7.11456 -3.85493 255 0 0
8.81426 5.74139 -4.355 255 0 0
7.58639 6.18565 -4.02117 255 0 0
8.45249 7.1286 -4.18747 255 0 0
6.61647 5.63406 -4.40613 255 0 0
7.25865 5.69267 -4.30811 255 0 0
6.71416 7.08227 -3.93066 255 0 0
8.61172 5.63859 -4.66663 255 0 0
7.39462 6.66873 -4.31632 255 0 0
8.92258 5.78187 -4.10338 255 0 0
8.8559 5.76852 -4.09088 255 0 0
8.79336 5.83228 -4.08747 255 0 0
8.72527 5.86188 -4.07952 255 0 0
8.43186 5.75223 -4.01929 255 0 0
8.41607 5.78545 -4.02043 255 0 0
8.36308 5.85179 -4.01929 255 0 0
8.25051 5.80221 -3.99543 255 0 0
8.23673 5.82176 -3.99543 255 0 0
8.15761 5.82404 -3.98293 255 0 0
8.05086 5.83472 -3.96702 255 0 0
7.94431 5.81516 -3.9477 255 0 0
7.9814 5.87142 -3.9602 255 0 0
7.86579 5.87306 -3.94202 255 0 0
7.8059 5.85722 -3.93066 255 0 0
7.61324 5.79775 -3.89316 255 0 0
7.48479 5.87002 -3.8818 255 0 0
7.46634 5.8842 -3.88066 255 0 0
7.51991 5.95537 -3.8977 255 0 0
7.52824 5.99107 -3.90339 255 0 0
7.4501 6.00135 -3.89259 255 0 0
7.4131 6.01515 -3.88861 255 0 0
7.3543 5.99641 -3.87725 255 0 0
7.09569 5.81361 -3.81475 255 0 0
6.81727 5.83299 -3.77498 255 0 0
6.74896 5.83019 -3.76437 255 0 0
6.75196 5.91718 -3.77611 255 0 0
7.61001 6.73322 -4.0102 255 0 0
7.40806 6.60164 -3.96304 255 0 0
7.41659 6.65673 -3.97157 255 0 0
7.45304 6.75354 -3.98975 255 0 0
7.40822 6.77717 -3.98634 255 0 0
6.6366 6.14394 -3.78918 255 0 0
7.54114 7.0648 -4.04429 255 0 0
7.52425 7.11627 -4.04884 255 0 0
6.77586 6.4696 -3.85339 255 0 0
6.66931 6.39817 -3.82839 255 0 0
6.71055 6.48369 -3.846 255 0 0
6.64785 6.59291 -3.85225 255 0 0
6.59151 6.56811 -3.84089 255 0 0
6.49474 6.50244 -3.81816 255 0 0
6.59311 6.66383 -3.85452 255 0 0
6.76567 6.96922 -3.92157 255 0 0
6.78904 7.02655 -3.93293 255 0 0
6.76838 7.03849 -3.93179 255 0 0
6.76358 7.06696 -3.9352 255 0 0
6.72771 7.16429 -3.94429 255 0 0
8.99007 5.70527 -4.47684 255 0 0
8.82609 5.63061 -4.71215 255 0 0
6.72905 7.37315 -4.23476 255 0 0
6.45721 5.64533 -4.29821 255 0 0
5.98958 5.61124 -4.49434 255 0 0
6.47126 5.69837 -4.15746 255 0 0
6.25311 5.77516 -4.28078 255 0 0
6.35439 6.79897 -4.24648 255 0 0
6.57127 5.6767 -4.24961 255 0 0
8.06409 5.6854 -4.38182 255 0 0
8.89316 5.7628 -4.18812 255 0 0
8.37879 5.78911 -4.10287 255 0 0
8.19481 5.79213 -4.07209 255 0 0
7.60502 5.79149 -3.97381 255 0 0
7.68801 6.05889 -4.02117 255 0 0
7.65114 6.0593 -4.01525 255 0 0
7.66816 6.10242 -4.02354 255 0 0
7.57754 6.0597 -4.00341 255 0 0
6.7884 5.80829 -3.84475 255 0 0
6.78765 5.83558 -3.8483 255 0 0
6.7521 5.83292 -3.84238 255 0 0
7.43828 6.6762 -4.0638 255 0 0
7.48663 7.01373 -4.11826 255 0 0
6.71642 7.15226 -4.02591 255 0 0
6.67203 7.13884 -4.01762 255 0 0
7.44574 6.68289 -4.23988 255 0 0
6.36735 7.07728 -4.38202 255 0 0
6.33712 6.94371 -4.35217 255 0 0
6.55204 5.79714 -4.03507 255 0 0
8.69625 5.72344 -4.3307 255 0 0
6.63505 5.6228 -4.09946 255 0 0
7.61423 5.79851 -4.14266 255 0 0
9.01078 5.77854 -4.30322 255 0 0
8.85357 5.73715 -4.26996 255 0 0
8.85434 5.7675 -4.27366 255 0 0
8.81254 5.79998 -4.26996 255 0 0
8.39455 5.7853 -4.1936 255 0 0
8.38081 5.80519 -4.1936 255 0 0
8.4423 5.90722 -4.217 255 0 0
8.23207 5.84778 -4.17266 255 0 0
8.99154 6.41942 -4.37712 255 0 0
9.03676 6.4841 -4.39313 255 0 0
9.04458 6.52225 -4.39929 255 0 0
9.0574 6.67952 -4.42146 255 0 0
9.0496 6.82404 -4.4387 255 0 0
7.66926 5.81174 -4.07043 255 0 0
7.62358 5.80563 -4.06181 255 0 0
7.55967 5.8138 -4.05196 255 0 0
7.51393 5.83554 -4.04703 255 0 0
7.68804 6.05891 -4.10615 255 0 0
7.65075 6.07375 -4.10184 255 0 0
7.61792 6.09199 -4.09876 255 0 0
7.657 6.15307 -4.11354 255 0 0
7.07972 5.82863 -3.97313 255 0 0
8.55748 7.11361 -4.39436 255 0 0
8.44873 7.07417 -4.37096 255 0 0
8.45853 7.1337 -4.38081 255 0 0
8.41539 7.13153 -4.37342 255 0 0
6.8044 5.83595 -3.92879 255 0 0
6.70563 5.79277 -3.90662 255 0 0
6.66554 5.79967 -3.90108 255 0 0
7.43175 6.73424 -4.15788 255 0 0
7.41999 6.75569 -4.15911 255 0 0
7.60735 7.05939 -4.23301 255 0 0
7.61152 7.09692 -4.23917 255 0 0
7.51858 7.17875 -4.23671 255 0 0
6.495 6.64299 -3.99899 255 0 0
6.50724 6.70301 -4.01008 255 0 0
6.51917 6.74724 -4.0187 255 0 0
6.73645 7.03861 -4.0963 255 0 0
6.73948 7.07529 -4.10245 255 0 0
6.63954 7.13792 -4.09753 255 0 0
8.37859 7.10035 -4.1727 255 0 0
5.80363 5.63409 -4.53185 255 0 0
7.38208 6.81784 -4.33754 255 0 0
8.37959 5.62965 -4.61524 255 0 0
8.71601 5.76611 -4.33965 255 0 0
8.78796 5.84371 -4.36268 255 0 0
8.4068 5.74975 -4.28017 255 0 0
8.86291 6.17028 -4.41769 255 0 0
8.39886 5.89166 -4.2968 255 0 0
8.14689 5.75826 -4.23348 255 0 0
7.89209 5.9806 -4.21685 255 0 0
7.56416 5.78877 -4.13242 255 0 0
7.51418 5.77882 -4.12219 255 0 0
7.46647 5.78451 -4.11451 255 0 0
7.47289 5.83212 -4.12219 255 0 0
7.55795 5.9274 -4.15033 255 0 0
7.65788 6.04987 -4.18487 255 0 0
7.62635 6.09873 -4.18615 255 0 0
7.61245 6.20689 -4.19894 255 0 0
8.47551 7.02851 -4.46502 255 0 0
6.87564 5.77089 -4.00962 255 0 0
8.37323 7.06176 -4.45222 255 0 0
8.38698 7.10745 -4.46118 255 0 0
6.70638 5.79341 -3.98404 255 0 0
6.60484 5.78825 -3.96613 255 0 0
7.68659 6.83354 -4.30256 255 0 0
7.42139 6.69288 -4.23732 255 0 0
7.39046 6.76092 -4.24243 255 0 0
7.51812 7.0936 -4.31407 255 0 0
7.48042 7.10849 -4.31023 255 0 0
7.46747 7.1469 -4.31407 255 0 0
6.45003 6.51922 -4.05311 255 0 0
6.36802 6.5596 -4.04672 255 0 0
6.45565 6.71328 -4.08509 255 0 0
6.50688 6.79875 -4.10684 255 0 0
6.47498 6.79761 -4.10172 255 0 0
6.62788 6.99124 -4.15673 255 0 0
6.65194 7.06676 -4.17272 255 0 0
6.57233 7.08251 -4.16312 255 0 0
6.64004 7.20668 -4.19383 255 0 0
7.12234 5.61309 -4.51081 255 0 0
6.60326 5.63632 -4.32624 255 0 0
6.05194 6.66289 -4.33184 255 0 0
5.88737 6.66994 -4.38383 255 0 0
8.84289 5.67087 -4.44368 255 0 0
8.72018 5.65071 -4.41714 255 0 0
8.66853 5.64647 -4.40653 255 0 0
8.61025 5.65221 -4.39592 255 0 0
8.55204 5.65764 -4.3853 255 0 0
8.35023 5.68205 -4.34948 255 0 0
8.32527 5.70849 -4.34816 255 0 0
8.21936 5.75122 -4.33356 255 0 0
8.1569 5.75083 -4.32162 255 0 0
8.26658 5.87229 -4.35877 255 0 0
8.22404 5.99003 -4.36673 255 0 0
8.3058 6.11006 -4.39857 255 0 0
8.34632 6.17042 -4.41449 255 0 0
8.37004 6.23415 -4.42776 255 0 0
8.31019 6.26647 -4.42112 255 0 0
7.5204 5.74116 -4.2009 255 0 0
7.44114 5.73672 -4.18564 255 0 0
7.56504 5.97655 -4.24269 255 0 0
7.55937 6.01584 -4.24733 255 0 0
7.51297 6.03733 -4.24203 255 0 0
7.53614 6.14467 -4.26193 255 0 0
7.60209 6.28898 -4.29509 255 0 0
7.56695 6.25992 -4.28448 255 0 0
7.57219 6.32498 -4.29509 255 0 0
6.9063 5.79662 -4.09742 255 0 0
6.74821 5.71869 -4.05762 255 0 0
6.68072 5.77125 -4.05364 255 0 0
6.56732 5.72789 -4.02711 255 0 0
6.52724 5.74766 -4.02313 255 0 0
7.03695 6.25599 -4.19029 255 0 0
7.42024 6.88575 -4.35479 255 0 0
7.54982 7.07293 -4.40653 255 0 0
7.50396 7.06344 -4.39724 255 0 0
7.45384 7.08323 -4.39194 255 0 0
7.4492 7.12941 -4.39857 255 0 0
6.41708 6.33394 -4.09742 255 0 0
6.42737 6.40455 -4.11069 255 0 0
6.38889 6.42687 -4.10803 255 0 0
6.46304 6.62598 -4.15314 255 0 0
6.39203 6.67874 -4.15049 255 0 0
6.39191 6.71039 -4.15579 255 0 0
6.36813 6.71725 -4.15314 255 0 0
6.58216 7.00929 -4.23672 255 0 0
6.56827 7.0613 -4.24335 255 0 0
6.50114 7.02245 -4.22611 255 0 0
6.59496 7.19191 -4.26988 255 0 0
6.66247 7.3002 -4.29907 255 0 0
7.46308 5.65549 -4.42581 255 0 0
7.08522 5.61112 -4.42172 255 0 0
6.50012 5.72378 -4.24373 255 0 0
6.02752 6.20887 -4.31867 255 0 0
8.90127 5.67856 -4.54876 255 0 0
8.85424 5.67815 -4.53914 255 0 0
8.73168 5.65816 -4.51166 255 0 0
8.69439 5.66332 -4.50479 255 0 0
8.61039 5.66693 -4.4883 255 0 0
8.56844 5.66849 -4.48006 255 0 0
8.5218 5.66673 -4.47044 255 0 0
8.47995 5.66794 -4.4622 255 0 0
8.31297 5.67112 -4.42922 255 0 0
8.27133 5.67151 -4.42098 255 0 0
8.12857 5.68769 -4.39487 255 0 0
7.94958 5.70402 -4.3619 255 0 0
7.91757 5.70954 -4.3564 255 0 0
7.86714 5.70157 -4.34541 255 0 0
7.849 5.71686 -4.34403 255 0 0
7.79868 5.70856 -4.33304 255 0 0
7.68456 5.68118 -4.30694 255 0 0
8.02239 5.98999 -4.41686 255 0 0
8.15841 6.12172 -4.4622 255 0 0
7.78485 5.87032 -4.35365 255 0 0
7.53045 5.76297 -4.28907 255 0 0
7.51535 5.89398 -4.30556 255 0 0
7.479 5.89417 -4.29869 255 0 0
7.5603 6.07536 -4.34129 255 0 0
7.59459 6.13261 -4.3564 255 0 0
7.51815 6.10039 -4.33716 255 0 0
7.54778 6.15416 -4.3509 255 0 0
6.13113 5.60886 -4.37528 255 0 0
6.64337 5.65697 -4.10633 255 0 0
6.62994 5.6727 -4.10633 255 0 0
7.56168 6.50104 -4.40724 255 0 0
6.77095 5.84919 -4.15992 255 0 0
6.6496 5.77196 -4.12557 255 0 0
6.62732 5.78022 -4.12282 255 0 0
6.54003 5.75892 -4.10359 255 0 0
6.51098 5.77459 -4.10084 255 0 0
6.54559 5.84701 -4.1187 255 0 0
7.31535 6.56586 -4.37289 255 0 0
7.35423 6.67991 -4.39831 255 0 0
7.38293 6.75404 -4.41548 255 0 0
7.35677 6.77832 -4.4148 255 0 0
7.37643 6.8451 -4.42922 255 0 0
7.35242 6.9208 -4.43747 255 0 0
6.27652 6.4961 -4.18053 255 0 0
6.45119 7.03512 -4.30419 255 0 0
6.44984 7.06722 -4.30968 255 0 0
6.53639 7.19625 -4.34678 255 0 0
6.46206 7.14839 -4.32617 255 0 0
6.21883 5.67556 -4.33113 255 0 0
5.9856 6.37401 -4.34291 255 0 0
8.76923 5.62363 -4.60658 255 0 0
8.2812 5.62072 -4.50425 255 0 0
8.12408 5.5989 -4.46871 255 0 0
8.06947 5.61789 -4.46019 255 0 0
8.01424 5.6077 -4.4474 255 0 0
7.97305 5.60708 -4.43887 255 0 0
7.87749 5.62405 -4.42181 255 0 0
7.82721 5.61622 -4.41044 255 0 0
7.69776 5.62067 -4.38486 255 0 0
7.61195 5.64146 -4.37065 255 0 0
7.54632 5.63453 -4.35644 255 0 0
7.46078 5.65375 -4.34222 255 0 0
7.35962 5.67384 -4.32517 255 0 0
7.29902 5.66864 -4.31238 255 0 0
7.20047 5.68852 -4.29603 255 0 0
7.25313 5.80028 -4.32375 255 0 0
7.29249 5.86015 -4.3408 255 0 0
7.37138 5.95237 -4.37065 255 0 0
7.45429 6.04857 -4.40192 255 0 0
5.86385 5.6388 -4.39872 255 0 0
7.40911 6.0411 -4.39197 255 0 0
6.58089 5.68501 -4.17594 255 0 0
6.59313 5.72294 -4.18446 255 0 0
6.54958 5.71242 -4.17452 255 0 0
6.44071 5.69864 -4.15178 255 0 0
6.40938 5.72533 -4.15035 255 0 0
6.46765 5.80502 -4.17452 255 0 0
7.25111 6.53932 -4.44313 255 0 0
7.30714 6.62133 -4.46729 255 0 0
7.30661 6.74814 -4.48861 255 0 0
7.2833 6.82324 -4.49714 255 0 0
7.27124 6.84439 -4.49856 255 0 0
6.62024 6.47278 -4.31664 255 0 0
6.5733 6.48814 -4.31096 255 0 0
6.81205 6.78786 -4.40618 255 0 0
6.7918 6.83217 -4.41044 255 0 0
6.74362 6.81595 -4.39907 255 0 0
6.29964 6.64501 -4.29106 255 0 0
6.20965 6.62834 -4.27258 255 0 0
6.23247 6.70029 -4.28964 255 0 0
6.2426 6.79148 -4.30811 255 0 0
6.09839 5.72675 -4.31629 255 0 0
6.71279 5.62065 -4.34595 255 0 0
8.85856 5.62181 -4.71803 255 0 0
8.75069 5.61174 -4.69307 255 0 0
8.71354 5.61712 -4.68572 255 0 0
8.66024 5.62644 -4.67544 255 0 0
8.54151 5.6216 -4.64901 255 0 0
8.50924 5.62933 -4.64314 255 0 0
8.45339 5.62124 -4.62992 255 0 0
8.40234 5.61607 -4.61818 255 0 0
8.29183 5.62794 -4.59615 255 0 0
8.25037 5.62842 -4.58734 255 0 0
8.26038 5.66399 -4.59468 255 0 0
8.15825 5.62245 -4.56678 255 0 0
8.11228 5.61918 -4.5565 255 0 0
8.04839 5.63159 -4.54476 255 0 0
7.99792 5.62457 -4.53301 255 0 0
7.95937 5.63986 -4.52714 255 0 0
7.8224 5.62685 -4.4963 255 0 0
7.76564 5.62801 -4.48455 255 0 0
7.6548 5.64515 -4.46399 255 0 0
7.60738 5.65207 -4.45518 255 0 0
7.54865 5.65021 -4.4427 255 0 0
7.45416 5.67661 -4.42728 255 0 0
7.24335 5.65298 -4.38029 255 0 0
7.18085 5.6592 -4.36855 255 0 0
7.18518 5.69028 -4.37442 255 0 0
7.10729 5.66985 -4.35533 255 0 0
7.0429 5.65959 -4.34065 255 0 0
6.95401 5.68374 -4.3267 255 0 0
6.89655 5.67783 -4.31422 255 0 0
6.78262 5.61107 -4.28044 255 0 0
6.61004 5.62857 -4.24912 255 0 0
6.59331 5.66849 -4.25254 255 0 0
6.57919 5.71084 -4.25695 255 0 0
6.52292 5.68917 -4.24226 255 0 0
6.45004 5.72053 -4.23345 255 0 0
6.12503 6.71132 -4.35386 255 0 0
6.11739 6.7833 -4.36634 255 0 0
6.15504 6.89041 -4.39351 255 0 0
6.12673 6.90803 -4.39204 255 0 0
6.21536 7.04152 -4.43316 255 0 0
6.26598 7.13289 -4.45959 255 0 0
6.21348 7.14114 -4.45225 255 0 0
6.34388 5.66682 -4.27926 255 0 0
7.20959 5.59918 -4.44597 255 0 0
7.10739 5.60131 -4.42475 255 0 0
6.91719 5.61276 -4.38686 255 0 0
6.87757 5.6077 -4.37777 255 0 0
6.85987 5.6204 -4.37625 255 0 0
6.80059 5.61235 -4.36262 255 0 0
6.75883 5.61844 -4.35504 255 0 0
6.54886 5.63028 -4.31412 255 0 0
6.52693 5.6384 -4.31109 255 0 0
6.49646 5.63903 -4.30503 255 0 0
6.40916 5.65718 -4.29063 255 0 0
6.31413 5.6943 -4.27825 255 0 0
6.20496 5.78546 -4.2732 255 0 0
6.18159 5.8187 -4.27472 255 0 0
6.16085 5.84065 -4.27472 255 0 0
6.12526 5.8902 -4.27699 255 0 0
6.09361 5.92969 -4.27825 255 0 0
6.0576 6.03612 -4.29139 255 0 0
6.04164 6.092 -4.29897 255 0 0
6.04043 6.14882 -4.30957 255 0 0
6.01317 6.28291 -4.33029 255 0 0
5.97047 6.38819 -4.34291 255 0 0
5.94906 6.42609 -4.34645 255 0 0
5.92863 6.49611 -4.35655 255 0 0
5.88912 6.59274 -4.36868 255 0 0
5.88065 6.63057 -4.37474 255 0 0
5.87189 6.73242 -4.39368 255 0 0
5.86023 6.78374 -4.40202 255 0 0
5.84682 6.89941 -4.42323 255 0 0
5.84577 6.98165 -4.4399 255 0 0
5.85093 7.02156 -4.449 255 0 0
5.81519 7.08048 -4.45506 255 0 0
5.80555 7.10301 -4.45809 255 0 0
8.67007 5.5891 -4.85611 255 0 0
7.99412 5.59362 -4.70143 255 0 0
7.92143 5.5989 -4.6858 255 0 0
7.79887 5.59589 -4.65768 255 0 0
7.51485 5.59715 -4.5944 255 0 0
7.46104 5.59845 -4.58268 255 0 0
7.40507 5.59772 -4.57018 255 0 0
7.25344 5.61944 -4.5405 255 0 0
7.18892 5.6105 -4.52487 255 0 0
7.08689 5.61245 -4.503 255 0 0
7.06032 5.61869 -4.49831 255 0 0
7.00507 5.61551 -4.48581 255 0 0
6.95871 5.61914 -4.47644 255 0 0
6.81567 5.6248 -4.44675 255 0 0
6.74557 5.62094 -4.43113 255 0 0
6.58165 5.63139 -4.39832 255 0 0
6.4511 5.64 -4.37254 255 0 0
6.31022 5.6502 -4.3452 255 0 0
6.2687 5.66682 -4.33973 255 0 0
6.1249 5.71081 -4.31863 255 0 0
6.08003 5.75036 -4.31707 255 0 0
6.00855 5.83306 -4.31863 255 0 0
5.86452 6.04095 -4.33113 255 0 0
5.84364 6.07684 -4.33426 255 0 0
5.82198 6.09758 -4.33426 255 0 0
8.68933 5.66002 -4.96427 255 0 0
8.71827 5.70836 -4.97875 255 0 0
8.39227 5.60933 -4.88542 255 0 0
6.20186 5.60639 -4.38976 255 0 0
6.16106 5.60947 -4.38171 255 0 0
6.05806 5.62167 -4.3624 255 0 0
6.00001 5.63438 -4.35275 255 0 0
5.91494 5.6342 -4.33505 255 0 0
5.85712 5.64571 -4.32539 255 0 0
8.44608 5.61638 -4.99074 255 0 0
8.70922 5.61433 -5.05532 255 0 0
6.19276 5.61153 -4.46413 255 0 0
6.15867 5.6073 -4.45585 255 0 0
6.09435 5.61515 -4.44343 255 0 0
6.00587 5.62648 -4.42659 255 0 0
5.95736 5.63434 -4.41776 255 0 0
8.80377 7.10901 -4.23861 255 0 0
8.75821 5.64591 -5.16687 255 0 0
8.46639 5.60097 -5.08515 255 0 0
5.93441 5.61264 -4.48242 255 0 0
5.91297 5.61897 -4.47902 255 0 0
5.86462 5.61284 -4.4671 255 0 0
5.82848 5.61812 -4.46029 255 0 0
5.95982 5.63666 -4.56771 255 0 0
5.92213 5.62768 -4.55722 255 0 0
5.86044 5.62215 -4.54206 255 0 0
6.30055 5.61469 -5.032 255 0 0
7.79896 5.59595 -5.18072 255 0 0
6.2522 5.6654 -4.79579 255 0 0
6.28807 5.72511 -4.81789 255 0 0
6.27176 5.75119 -4.81974 255 0 0
6.27985 5.79986 -4.83263 255 0 0
6.22861 5.86297 -4.83447 255 0 0
5.96303 5.66654 -4.72581 255 0 0
6.29546 5.62357 -4.87526 255 0 0
6.30987 5.69048 -4.89414 255 0 0
6.16701 5.64169 -4.84694 255 0 0
6.12914 5.63379 -4.83561 255 0 0
6.00262 5.62346 -4.80163 255 0 0
5.81462 5.65819 -4.83895 255 0 0
6.32609 5.65093 -5.12735 255 0 0
8.4862 7.08844 -4.18747 255 0 0
8.39433 7.04556 -4.4535 255 0 0
8.32757 7.05711 -4.53919 255 0 0
