ply
format ascii 1.0
comment Created by Open3D
element vertex 484
property double x
property double y
property double z
property uchar red
property uchar green
property uchar blue
end_header
-20.2312 -2.53143 -3.61317 255 0 0
-19.6824 -1.61362 -5.06058 255 0 0
-21.4718 -1.35089 -4.78694 255 0 0
-20.2017 -2.18788 -3.43787 255 0 0
-23.3344 -1.24602 -4.82977 255 0 0
-20.1189 -2.71141 -4.28735 255 0 0
-23.2086 -1.18413 -5.01034 255 0 0
-20.1025 -2.17713 -4.10823 255 0 0
-19.7594 -2.75842 -5.09197 255 0 0
-20.1331 -2.47069 -4.1149 255 0 0
-20.6261 -1.4942 -4.15619 255 0 0
-19.7586 -1.76144 -4.90568 255 0 0
-20.878 -1.46269 -4.35815 255 0 0
-19.8594 -3.01282 -4.77194 255 0 0
-20.072 -2.55986 -4.45036 255 0 0
-19.7494 -1.66626 -4.90314 255 0 0
-20.3349 -2.69145 -3.28025 255 0 0
-19.8001 -2.00199 -4.74632 255 0 0
-20.1641 -2.23219 -3.77491 255 0 0
-20.1419 -1.60323 -3.76777 255 0 0
-20.1933 -1.84846 -3.94402 255 0 0
-21.8343 -1.32173 -4.83357 255 0 0
-20.3052 -2.15039 -3.27442 255 0 0
-20.1536 -2.76476 -4.12098 255 0 0
-22.6665 -1.37211 -3.98669 255 0 0
-20.2812 -2.09923 -3.27259 255 0 0
-20.1267 -1.45802 -4.78474 255 0 0
-19.7868 -2.333 -4.91841 255 0 0
-20.6506 -1.44677 -4.68163 255 0 0
-19.7792 -2.14212 -4.91417 255 0 0
-19.8574 -3.06069 -4.94302 255 0 0
-20.1516 -2.03754 -3.94178 255 0 0
-20.1711 -1.70184 -3.94066 255 0 0
-19.6935 -1.75564 -5.06417 255 0 0
-20.4943 -1.53351 -3.97028 255 0 0
-23.4609 -1.02974 -4.64595 255 0 0
-19.6977 -1.56787 -5.06238 255 0 0
-19.7513 -1.90249 -4.90653 255 0 0
-20.5644 -1.63685 -3.45978 255 0 0
-20.2955 -2.34421 -3.27515 255 0 0
-20.147 -2.08535 -3.60255 255 0 0
-20.0799 -2.03029 -3.76572 255 0 0
-20.2916 -2.22195 -3.27405 255 0 0
-19.8998 -3.16392 -4.95151 255 0 0
-19.8313 -2.72054 -4.76233 255 0 0
-20.0041 -3.08331 -4.45106 255 0 0
-20.2861 -2.05114 -3.27259 255 0 0
-19.8441 -1.95893 -4.58309 255 0 0
-19.7747 -2.85623 -5.09645 255 0 0
-19.7683 -2.18837 -4.91332 255 0 0
-19.809 -2.19288 -4.75032 255 0 0
-19.9427 -2.88048 -4.61017 255 0 0
-19.9969 -1.54397 -4.25981 255 0 0
-19.7745 -1.71561 -4.73912 255 0 0
-20.1603 -3.15634 -3.95631 255 0 0
-23.6165 -1.1488 -4.46526 255 0 0
-19.8119 -2.81367 -4.93114 255 0 0
-20.9723 -1.4693 -4.19202 255 0 0
-19.867 -2.39023 -4.59211 255 0 0
-20.1962 -1.94535 -3.60532 255 0 0
-20.281 -1.6627 -3.43994 255 0 0
-19.8592 -2.77236 -4.76713 255 0 0
-20.3443 -2.79092 -3.62471 255 0 0
-19.8597 -3.25417 -5.11887 255 0 0
-20.0764 -1.78977 -4.10155 255 0 0
-20.2947 -2.68613 -3.44862 255 0 0
-21.8478 -1.27057 -5.02007 255 0 0
-19.7436 -2.66083 -5.08749 255 0 0
-21.9557 -1.32908 -4.66364 255 0 0
-20.0976 -3.04895 -4.46162 255 0 0
-23.5173 -1.19988 -4.85159 255 0 0
-23.4596 -1.25271 -4.44948 255 0 0
-21.5619 -1.51061 -3.71015 255 0 0
-19.9281 -2.39758 -4.43065 255 0 0
-20.7019 -1.54904 -3.81625 255 0 0
-19.982 -2.50025 -4.26899 255 0 0
-20.1083 -1.88877 -4.1058 255 0 0
-19.7899 -1.52799 -4.73912 255 0 0
-20.2523 -1.85386 -3.26931 255 0 0
-23.7044 -1.15308 -5.07428 255 0 0
-21.7299 -1.36713 -4.45321 255 0 0
-19.7612 -1.66726 -4.73672 255 0 0
-20.1057 -2.85538 -4.11733 255 0 0
-22.0898 -1.3372 -4.30739 255 0 0
-20.1122 -3.05118 -4.12098 255 0 0
-20.2709 -2.24401 -3.61363 255 0 0
-22.763 -1.43213 -3.61394 255 0 0
-19.7607 -1.52574 -4.90314 255 0 0
-19.8787 -3.11225 -4.94727 255 0 0
-19.7417 -1.61849 -4.90144 255 0 0
-21.2555 -1.53979 -3.68614 255 0 0
-20.5718 -1.68654 -3.28828 255 0 0
-20.313 -2.54166 -3.2777 255 0 0
-20.255 -1.7573 -3.26895 255 0 0
-20.7576 -1.30596 -5.04656 255 0 0
-20.2427 -2.3381 -3.61224 255 0 0
-20.0947 -1.40782 -4.95066 255 0 0
-19.7985 -2.42963 -4.92181 255 0 0
-20.1567 -3.10684 -4.12644 255 0 0
-19.8474 -3.01099 -4.94048 255 0 0
-19.7849 -1.85839 -4.74232 255 0 0
-19.9109 -2.73146 -4.6034 255 0 0
-19.8142 -2.67035 -4.9286 255 0 0
-22.4954 -1.25472 -4.91857 255 0 0
-19.8428 -1.72154 -4.58008 255 0 0
-20.051 -2.21967 -4.10337 255 0 0
-19.957 -2.44907 -4.43487 255 0 0
-19.9042 -1.67932 -4.25063 255 0 0
-19.8945 -1.58353 -4.24867 255 0 0
-20.0589 -1.64448 -3.92949 255 0 0
-21.8715 -1.37604 -4.28492 255 0 0
-19.9215 -3.21581 -4.78474 255 0 0
-22.5799 -1.42061 -3.79005 255 0 0
-20.2915 -2.88177 -3.45027 255 0 0
-20.3813 -2.99319 -3.28572 255 0 0
-19.9626 -2.49783 -4.43628 255 0 0
-20.0048 -2.31063 -4.26899 255 0 0
-19.8128 -2.76588 -4.93029 255 0 0
-19.83 -1.86263 -4.58008 255 0 0
-21.8973 -1.48194 -3.73648 255 0 0
-20.301 -2.638 -3.44862 255 0 0
-20.301 -2.29608 -3.27515 255 0 0
-20.0569 -1.59646 -3.92893 255 0 0
-20.319 -2.44461 -3.27734 255 0 0
-20.2677 -2.00074 -3.27113 255 0 0
-20.226 -1.99663 -3.94849 255 0 0
-19.7747 -1.90474 -4.74152 255 0 0
-20.0102 -2.26319 -3.9306 255 0 0
-20.1822 -1.944 -3.77389 255 0 0
-19.9177 -3.16675 -4.78314 255 0 0
-19.8675 -1.67623 -4.41446 255 0 0
-19.8334 -2.48165 -4.75833 255 0 0
-20.0374 -3.1858 -4.28604 255 0 0
-20.09 -3.19416 -4.12098 255 0 0
-20.3573 -2.69441 -3.62471 255 0 0
-20.2643 -2.97601 -3.96357 255 0 0
-22.1849 -1.5014 -3.57344 255 0 0
-20.1037 -1.93644 -4.1058 255 0 0
-20.3145 -2.83592 -3.62287 255 0 0
-20.213 -1.70538 -3.43539 255 0 0
-20.5406 -1.3412 -5.01516 255 0 0
-20.1478 -2.4725 -3.77593 255 0 0
-23.5081 -1.14353 -4.65185 255 0 0
-20.3828 -1.6224 -3.61779 255 0 0
-20.1764 -2.57318 -3.7795 255 0 0
-19.811 -1.52962 -5.07942 255 0 0
-20.4209 -1.91814 -3.96637 255 0 0
-19.9828 -2.40416 -4.09851 255 0 0
-19.7612 -2.09278 -4.91078 255 0 0
-19.7698 -1.95159 -4.90993 255 0 0
-20.1447 -2.0851 -3.77185 255 0 0
-20.1644 -2.62025 -3.77899 255 0 0
-22.6788 -1.48082 -3.41849 255 0 0
-20.3325 -3.08459 -3.45523 255 0 0
-19.9877 -1.73411 -4.09183 255 0 0
-20.1976 -1.80058 -3.94402 255 0 0
-19.6965 -1.85009 -5.06596 255 0 0
-21.5956 -1.41009 -4.07477 255 0 0
-21.1506 -1.63305 -3.32402 255 0 0
-21.4526 -1.45185 -4.06136 255 0 0
-19.739 -2.5174 -5.0839 255 0 0
-19.7558 -1.85566 -4.90653 255 0 0
-20.3185 -2.5913 -3.27843 255 0 0
-19.7825 -3.00115 -5.10094 255 0 0
-20.2018 -2.28485 -3.60855 255 0 0
-20.3075 -2.54098 -3.44821 255 0 0
-21.8692 -1.58425 -3.36852 255 0 0
-20.0451 -1.64335 -3.7596 255 0 0
-22.4479 -1.5192 -3.40427 255 0 0
-20.9956 -1.47093 -4.01777 255 0 0
-19.7631 -1.57307 -4.73592 255 0 0
-19.8772 -2.20043 -4.59061 255 0 0
-19.8891 -2.63244 -4.59888 255 0 0
-20.8409 -1.50976 -4.00325 255 0 0
-20.0335 -2.60324 -3.93675 255 0 0
-20.0058 -2.50323 -4.10215 255 0 0
-20.2834 -2.39156 -3.61594 255 0 0
-22.3417 -1.29929 -4.7101 255 0 0
-20.3003 -1.37386 -4.98036 255 0 0
-19.8641 -2.82107 -4.76873 255 0 0
-20.286 -3.02835 -3.96637 255 0 0
-20.0064 -2.11875 -4.43628 255 0 0
-23.4516 -0.973632 -4.64464 255 0 0
-20.8973 -1.41427 -4.71322 255 0 0
-20.041 -3.18635 -4.45739 255 0 0
-19.8325 -2.62495 -4.76073 255 0 0
-22.1221 -1.44447 -3.75403 255 0 0
-20.1755 -2.67035 -3.78052 255 0 0
-20.2793 -1.80786 -3.61086 255 0 0
-20.0771 -2.07811 -4.27423 255 0 0
-19.8791 -1.77219 -4.58534 255 0 0
-19.9419 -2.44723 -4.60264 255 0 0
-19.8545 -2.96393 -4.94048 255 0 0
-19.9446 -2.78428 -4.60866 255 0 0
-20.3119 -1.95649 -3.95631 255 0 0
-23.0322 -1.44906 -3.44038 255 0 0
-20.3393 -2.79023 -3.28135 255 0 0
-20.0498 -1.69161 -4.0979 255 0 0
-19.9345 -2.68657 -4.60565 255 0 0
-20.9423 -1.41731 -4.54187 255 0 0
-20.0983 -3.09783 -4.29128 255 0 0
-19.8937 -1.96382 -4.42079 255 0 0
-19.8329 -2.57717 -4.75993 255 0 0
-19.8799 -2.01006 -4.58835 255 0 0
-19.8997 -2.15517 -4.59287 255 0 0
-19.7275 -2.32601 -5.07852 255 0 0
-20.1753 -1.65403 -3.60162 255 0 0
-22.1935 -1.55486 -3.38858 255 0 0
-21.1369 -1.58159 -3.49987 255 0 0
-19.879 -2.2961 -4.76153 255 0 0
-20.139 -1.84349 -3.7693 255 0 0
-21.2676 -1.48999 -3.86524 255 0 0
-20.0347 -2.36223 -4.10337 255 0 0
-19.9018 -3.26106 -4.95406 255 0 0
-20.0545 -1.7399 -3.76113 255 0 0
-20.2171 -2.33515 -3.78052 255 0 0
-19.7979 -2.57263 -4.92435 255 0 0
-20.062 -2.70374 -4.11065 255 0 0
-19.7105 -1.94574 -5.06955 255 0 0
-20.2666 -2.29218 -3.44325 255 0 0
-22.7409 -1.59321 -3.23272 255 0 0
-20.2483 -2.92462 -3.96134 255 0 0
-20.0056 -1.83128 -4.43276 255 0 0
-20.8903 -1.6628 -3.30797 255 0 0
-19.9767 -2.54771 -4.09972 255 0 0
-20.1434 -1.50725 -4.44613 255 0 0
-20.1424 -2.13314 -4.11187 255 0 0
-20.2566 -1.80584 -3.26931 255 0 0
-21.4866 -1.60776 -3.34481 255 0 0
-20.3465 -1.71664 -3.27442 255 0 0
-20.2723 -1.95268 -3.27113 255 0 0
-20.3015 -2.39369 -3.27588 255 0 0
-20.3189 -2.49349 -3.2777 255 0 0
-20.3297 -2.64172 -3.27952 255 0 0
-20.3401 -2.74122 -3.28098 255 0 0
-20.3558 -2.84168 -3.28281 255 0 0
-20.3548 -2.89076 -3.28317 255 0 0
-19.8078 -2.71732 -4.9286 255 0 0
-20.3652 -2.94152 -3.28427 255 0 0
-20.3626 -3.03978 -3.285 255 0 0
-19.9917 -1.87781 -4.26243 255 0 0
-20.4367 -1.52919 -4.13676 255 0 0
-20.2949 -2.9805 -3.45151 255 0 0
-20.431 -1.48006 -4.48062 255 0 0
-19.804 -2.52568 -4.92435 255 0 0
-20.2438 -3.02205 -3.79073 255 0 0
-23.2327 -1.40638 -3.647 255 0 0
-22.573 -1.47392 -3.60071 255 0 0
-21.855 -1.53114 -3.55029 255 0 0
-21.4959 -1.55721 -3.52508 255 0 0
-20.8652 -1.61102 -3.48086 255 0 0
-20.2147 -1.7538 -3.43581 255 0 0
-20.2163 -1.80225 -3.43622 255 0 0
-20.2411 -1.85284 -3.43829 255 0 0
-20.2599 -1.90301 -3.43994 255 0 0
-20.2321 -1.9488 -3.43829 255 0 0
-20.2366 -2.0219 -3.43911 255 0 0
-20.2235 -2.09326 -3.4387 255 0 0
-20.201 -2.13936 -3.43746 255 0 0
-20.2719 -2.24413 -3.44325 255 0 0
-20.2263 -2.33621 -3.44077 255 0 0
-20.3019 -2.39373 -3.44655 255 0 0
-20.2787 -2.43977 -3.44531 255 0 0
-20.2845 -2.48927 -3.44614 255 0 0
-20.2783 -2.58617 -3.44655 255 0 0
-20.3057 -2.73658 -3.44986 255 0 0
-20.2933 -2.78393 -3.44945 255 0 0
-20.2693 -2.82961 -3.44821 255 0 0
-20.2904 -2.93071 -3.45069 255 0 0
-20.282 -3.02775 -3.4511 255 0 0
-20.3312 -1.5213 -4.29718 255 0 0
-19.7656 -2.02219 -4.91035 255 0 0
-20.2298 -2.19092 -3.60994 255 0 0
-22.7535 -1.215 -4.95167 255 0 0
-19.7688 -2.23589 -4.91417 255 0 0
-19.969 -2.98102 -4.61543 255 0 0
-23.3963 -1.36062 -3.85424 255 0 0
-22.8395 -1.38258 -3.81037 255 0 0
-20.9724 -1.56928 -3.66397 255 0 0
-20.6252 -1.59249 -3.63672 255 0 0
-20.1713 -1.70186 -3.60162 255 0 0
-20.1789 -1.75069 -3.60255 255 0 0
-20.1856 -1.87189 -3.60393 255 0 0
-20.209 -1.99495 -3.6067 255 0 0
-20.2042 -2.04286 -3.6067 255 0 0
-20.2349 -2.14294 -3.60994 255 0 0
-20.2198 -2.43267 -3.61132 255 0 0
-20.1908 -2.47776 -3.60947 255 0 0
-20.2135 -2.57791 -3.61224 255 0 0
-20.3 -2.63787 -3.61963 255 0 0
-20.212 -2.72396 -3.61363 255 0 0
-20.3424 -2.889 -3.62564 255 0 0
-20.2604 -2.92638 -3.61963 255 0 0
-20.2418 -2.97271 -3.61871 255 0 0
-20.2809 -3.02759 -3.6224 255 0 0
-20.2852 -3.07742 -3.62333 255 0 0
-19.7199 -2.1357 -5.07404 255 0 0
-20.0392 -3.13738 -4.28538 255 0 0
-23.447 -1.30779 -4.25135 255 0 0
-20.1437 -1.74764 -3.93843 255 0 0
-19.8037 -2.23984 -4.75032 255 0 0
-20.1182 -2.95455 -3.77899 255 0 0
-19.7932 -1.9539 -4.74472 255 0 0
-23.4066 -1.30554 -4.051 255 0 0
-22.1044 -1.39069 -3.9377 255 0 0
-21.8914 -1.42941 -3.91933 255 0 0
-21.5446 -1.45807 -3.88922 255 0 0
-20.9673 -1.51892 -3.83921 255 0 0
-20.4132 -1.57612 -3.79124 255 0 0
-20.0818 -1.69431 -3.76317 255 0 0
-20.0329 -1.78589 -3.7596 255 0 0
-20.0706 -1.88523 -3.76368 255 0 0
-20.1718 -1.99127 -3.77338 255 0 0
-20.1977 -2.139 -3.77695 255 0 0
-20.1694 -2.18437 -3.77491 255 0 0
-20.1588 -2.27999 -3.77491 255 0 0
-20.113 -2.37146 -3.77185 255 0 0
-20.1884 -2.4289 -3.77899 255 0 0
-20.1824 -2.52533 -3.7795 255 0 0
-20.1576 -2.71662 -3.7795 255 0 0
-20.2031 -2.77155 -3.7841 255 0 0
-20.2311 -2.82428 -3.78716 255 0 0
-20.1724 -2.86486 -3.78256 255 0 0
-20.1829 -2.91518 -3.7841 255 0 0
-20.1443 -3.05604 -3.78256 255 0 0
-20.212 -3.11535 -3.7892 255 0 0
-19.733 -2.27923 -5.07852 255 0 0
-20.5727 -1.49033 -4.32406 255 0 0
-20.0716 -2.60819 -4.45106 255 0 0
-20.1301 -1.84268 -4.10762 255 0 0
-21.177 -1.28194 -5.10766 255 0 0
-22.7191 -1.37529 -4.18206 255 0 0
-22.1806 -1.39548 -4.13065 255 0 0
-20.1303 -1.55428 -3.93563 255 0 0
-20.1148 -2.56532 -3.94402 255 0 0
-20.2023 -3.11386 -3.95966 255 0 0
-20.1219 -2.90638 -4.11976 255 0 0
-21.0091 -1.42183 -4.37257 255 0 0
-19.9667 -2.83564 -4.61242 255 0 0
-20.5616 -1.39155 -4.84398 255 0 0
-19.8726 -3.35312 -5.12336 255 0 0
-23.4576 -0.918169 -4.44765 255 0 0
-23.5543 -0.977892 -4.45798 255 0 0
-23.5751 -1.03476 -4.46041 255 0 0
-23.6715 -1.09523 -4.47073 255 0 0
-23.5614 -1.20212 -4.4598 255 0 0
-22.9449 -1.27979 -4.39604 255 0 0
-22.5987 -1.31424 -4.36022 255 0 0
-21.5776 -1.40892 -4.25456 255 0 0
-21.2547 -1.43845 -4.22117 255 0 0
-20.0497 -1.54806 -4.09669 255 0 0
-19.9763 -1.59005 -4.0894 255 0 0
-19.9841 -1.63836 -4.09062 255 0 0
-20.1628 -1.99039 -4.11248 255 0 0
-20.1696 -2.03936 -4.11369 255 0 0
-20.1184 -2.08238 -4.10883 255 0 0
-20.0804 -2.27113 -4.10701 255 0 0
-20.1502 -2.32742 -4.1149 255 0 0
-19.9937 -2.59807 -4.10215 255 0 0
-20.0337 -2.65158 -4.10701 255 0 0
-20.1239 -2.80931 -4.11855 255 0 0
-20.1611 -2.96085 -4.12462 255 0 0
-20.0445 -2.9923 -4.11308 255 0 0
-20.1263 -3.15102 -4.12401 255 0 0
-20.1629 -3.25477 -4.12948 255 0 0
-19.8434 -2.67429 -4.76313 255 0 0
-20.0485 -3.13883 -4.45739 255 0 0
-19.8042 -2.38268 -4.92181 255 0 0
-20.1647 -2.13551 -4.28472 255 0 0
-23.4584 -1.08537 -4.64595 255 0 0
-23.5111 -1.19956 -4.65251 255 0 0
-23.3629 -1.24754 -4.63612 255 0 0
-22.8603 -1.27507 -4.57974 255 0 0
-22.6597 -1.31778 -4.55745 255 0 0
-21.9712 -1.33002 -4.48009 255 0 0
-21.4537 -1.40083 -4.4224 255 0 0
-19.8907 -1.6307 -4.24867 255 0 0
-19.9714 -1.78041 -4.25916 255 0 0
-20.0192 -1.83253 -4.26506 255 0 0
-20.0969 -2.61148 -4.28341 255 0 0
-19.9126 -2.92436 -4.26768 255 0 0
-20.1114 -3.05104 -4.29194 255 0 0
-20.0358 -2.99099 -4.45317 255 0 0
-19.7134 -2.08772 -5.07224 255 0 0
-23.7233 -1.154 -4.87623 255 0 0
-22.693 -1.26574 -4.75234 255 0 0
-21.5231 -1.35412 -4.61155 255 0 0
-21.2182 -1.38545 -4.57495 255 0 0
-20.62 -1.44462 -4.50315 255 0 0
-19.9079 -1.53711 -4.41798 255 0 0
-19.8752 -1.582 -4.41446 255 0 0
-19.9409 -1.63482 -4.4229 255 0 0
-19.9388 -1.72986 -4.42361 255 0 0
-19.9462 -1.77816 -4.42501 255 0 0
-19.8507 -1.86457 -4.41446 255 0 0
-20.0372 -1.93003 -4.43769 255 0 0
-20.0197 -2.26426 -4.4398 255 0 0
-19.9799 -2.35577 -4.43628 255 0 0
-19.9007 -1.44165 -4.92266 255 0 0
-19.6861 -1.70794 -5.06238 255 0 0
-19.8295 -1.67302 -4.57782 255 0 0
-22.0808 -1.28412 -4.86516 255 0 0
-21.1904 -1.38363 -4.75083 255 0 0
-20.4329 -1.4802 -4.65379 255 0 0
-20.1745 -1.50958 -4.6207 255 0 0
-19.9335 -1.53908 -4.58986 255 0 0
-19.843 -1.57943 -4.57857 255 0 0
-19.8913 -1.63074 -4.58534 255 0 0
-19.8749 -1.81932 -4.58534 255 0 0
-19.8487 -1.91187 -4.58309 255 0 0
-19.8866 -2.05839 -4.58986 255 0 0
-19.8701 -2.10431 -4.58835 255 0 0
-19.8835 -2.24886 -4.59211 255 0 0
-19.9012 -2.29866 -4.59512 255 0 0
-19.9418 -2.35128 -4.60114 255 0 0
-19.8669 -2.48585 -4.59362 255 0 0
-19.9186 -2.5403 -4.60114 255 0 0
-19.8952 -2.58527 -4.59888 255 0 0
-19.9013 -2.9227 -4.60565 255 0 0
-19.9159 -3.02139 -4.60941 255 0 0
-19.9431 -3.07391 -4.61393 255 0 0
-19.9817 -3.12837 -4.61994 255 0 0
-19.9799 -3.17665 -4.6207 255 0 0
-19.9896 -3.22679 -4.62295 255 0 0
-19.8665 -2.96572 -4.77194 255 0 0
-22.9048 -1.16863 -5.16495 255 0 0
-22.5371 -1.20344 -5.11453 255 0 0
-22.1345 -1.23459 -5.0593 255 0 0
-21.4395 -1.29783 -4.96404 255 0 0
-19.886 -1.48799 -4.75192 255 0 0
-21.1874 -1.333 -4.92962 255 0 0
-20.8369 -1.36055 -4.8816 255 0 0
-20.321 -1.42367 -4.81116 255 0 0
-19.7651 -1.6204 -4.73672 255 0 0
-19.7704 -1.76249 -4.73912 255 0 0
-19.7662 -1.80936 -4.73912 255 0 0
-19.7928 -2.07239 -4.74632 255 0 0
-19.7911 -2.14341 -4.74712 255 0 0
-19.8851 -2.34459 -4.76313 255 0 0
-19.891 -2.39312 -4.76473 255 0 0
-19.8808 -3.20925 -4.94981 255 0 0
-19.8737 -2.43886 -4.76313 255 0 0
-19.8274 -2.52867 -4.75833 255 0 0
-19.8573 -2.86816 -4.76873 255 0 0
-19.8505 -2.91524 -4.76873 255 0 0
-19.8637 -3.06166 -4.77354 255 0 0
-19.9022 -3.11593 -4.77994 255 0 0
-19.9539 -3.2696 -4.79035 255 0 0
-21.5502 -1.25326 -5.16197 255 0 0
-19.7701 -1.47932 -4.90399 255 0 0
-19.7628 -1.57305 -4.90399 255 0 0
-19.7454 -1.71308 -4.90314 255 0 0
-19.7486 -1.80775 -4.90484 255 0 0
-19.775 -2.28408 -4.91587 255 0 0
-19.7984 -2.47728 -4.92266 255 0 0
-19.8033 -2.62108 -4.92605 255 0 0
-19.8282 -2.86395 -4.93454 255 0 0
-19.8385 -2.91348 -4.93708 255 0 0
-19.7338 -1.4766 -5.06686 255 0 0
-20.3994 -1.33199 -5.16819 255 0 0
-20.1768 -1.3655 -5.13412 255 0 0
-19.9945 -1.4008 -5.10632 255 0 0
-19.8411 -1.43733 -5.083 255 0 0
-19.6901 -1.66126 -5.06238 255 0 0
-19.7008 -1.80338 -5.06596 255 0 0
-19.7036 -1.89789 -5.06776 255 0 0
-19.7058 -1.99247 -5.06955 255 0 0
-19.7126 -2.04038 -5.07134 255 0 0
-19.7148 -2.18245 -5.07404 255 0 0
-19.7268 -2.23114 -5.07673 255 0 0
-19.722 -2.37278 -5.07852 255 0 0
-19.7393 -2.42236 -5.08211 255 0 0
-19.7277 -2.46843 -5.08121 255 0 0
-19.7445 -2.56568 -5.08569 255 0 0
-19.7555 -2.61477 -5.08838 255 0 0
-19.7487 -2.7092 -5.08928 255 0 0
-19.77 -2.8077 -5.09466 255 0 0
-19.7679 -2.9031 -5.09645 255 0 0
-19.7838 -2.95338 -5.10004 255 0 0
-19.7868 -3.04981 -5.10273 255 0 0
-19.7901 -3.12242 -5.10497 255 0 0
-19.8103 -3.19785 -5.10991 255 0 0
-19.9661 -3.32023 -5.13681 255 0 0
-24.2562 -3.03507 -3.32188 255 0 0
