ply
format ascii 1.0
comment Created by Open3D
element vertex 77
property double x
property double y
property double z
property uchar red
property uchar green
property uchar blue
end_header
47.4676 -9.40534 -2.6033 255 0 0
47.4444 -9.5177 -3.00557 255 0 0
47.2644 -10.3004 -3.40753 255 0 0
47.6556 -9.32521 -3.0091 255 0 0
47.6521 -7.46051 -4.2063 255 0 0
47.2971 -10.3075 -3.00594 255 0 0
47.2001 -11.11 -2.60454 255 0 0
47.3061 -9.37334 -3.80448 255 0 0
47.295 -10.5423 -3.40992 255 0 0
47.1999 -10.2864 -3.80755 255 0 0
47.4316 -8.11888 -4.20121 255 0 0
47.3285 -8.79601 -4.20201 255 0 0
47.3726 -8.45606 -4.20121 255 0 0
47.1803 -10.048 -4.20656 255 0 0
47.2513 -10.415 -3.40787 255 0 0
47.1436 -10.2741 -4.2071 255 0 0
47.1811 -9.93126 -4.20549 255 0 0
47.6342 -7.57347 -4.2063 255 0 0
47.1612 -10.1609 -3.80514 255 0 0
46.8381 -12.0852 -3.80996 255 0 0
47.2956 -9.72137 -3.80667 255 0 0
46.8093 -12.1962 -3.80996 255 0 0
47.1338 -12.7593 -3.42082 255 0 0
47.8748 -9.3681 -2.60819 255 0 0
47.2962 -10.4249 -2.60381 255 0 0
47.364 -8.57044 -4.20175 255 0 0
47.2249 -11.2341 -2.6052 255 0 0
47.3551 -10.3202 -2.60425 255 0 0
47.3451 -10.2005 -2.60381 255 0 0
47.5428 -9.53744 -2.60454 255 0 0
46.8966 -12.5758 -3.81674 255 0 0
47.146 -11.3335 -3.00764 255 0 0
47.1614 -11.219 -3.0074 255 0 0
47.3468 -10.436 -3.00752 255 0 0
47.3328 -10.1978 -3.00618 255 0 0
47.4439 -9.40063 -3.00508 255 0 0
47.3657 -9.50191 -3.40566 255 0 0
47.4053 -9.393 -3.40617 255 0 0
48.4671 -9.48401 -3.43699 255 0 0
47.2448 -9.59425 -4.20522 255 0 0
47.1966 -10.0514 -3.80558 255 0 0
47.1802 -9.93108 -3.80404 255 0 0
47.2094 -9.82037 -3.80426 255 0 0
47.2439 -9.59407 -3.80383 255 0 0
47.3182 -9.49238 -3.8058 255 0 0
47.3512 -9.26565 -3.80536 255 0 0
47.35 -9.14891 -3.80448 255 0 0
47.4176 -9.04539 -3.80623 255 0 0
47.1988 -9.81817 -4.20522 255 0 0
47.2277 -9.70741 -4.20549 255 0 0
47.2617 -9.48105 -4.20496 255 0 0
47.3185 -9.37579 -4.20656 255 0 0
47.2889 -9.25346 -4.20415 255 0 0
47.2763 -9.13465 -4.20255 255 0 0
47.315 -9.02582 -4.20335 255 0 0
47.3305 -8.91253 -4.20308 255 0 0
47.3493 -8.68377 -4.20201 255 0 0
47.3753 -8.34067 -4.20041 255 0 0
47.4352 -8.23532 -4.20228 255 0 0
47.5257 -8.01905 -4.20469 255 0 0
47.5099 -7.90058 -4.20308 255 0 0
47.5632 -7.79359 -4.20469 255 0 0
47.57 -7.67893 -4.20415 255 0 0
46.8013 -12.5503 -4.21646 255 0 0
46.7827 -12.6643 -4.217 255 0 0
47.1876 -10.4009 -4.21031 255 0 0
47.1678 -10.1623 -4.2071 255 0 0
47.1054 -12.2734 -3.41639 255 0 0
46.9814 -12.1222 -3.41179 255 0 0
47.1104 -11.5616 -3.41145 255 0 0
47.1548 -11.454 -3.41196 255 0 0
46.8384 -12.6793 -3.81565 255 0 0
47.1084 -10.618 -3.80689 255 0 0
47.1677 -10.5139 -3.8082 255 0 0
47.1925 -10.402 -3.8082 255 0 0
46.9839 -12.8384 -4.22797 255 0 0
46.8049 -12.0766 -4.21111 255 0 0
