ply
format ascii 1.0
comment Created by Open3D
element vertex 77
property double x
property double y
property double z
property uchar red
property uchar green
property uchar blue
end_header
-39.9929 -15.1256 -3.95586 255 0 0
-39.9052 -14.9844 -4.66045 255 0 0
-40.0403 -15.7982 -3.96897 255 0 0
-40.2178 -15.5385 -2.89596 255 0 0
-39.9296 -15.21 -3.95452 255 0 0
-40.331 -14.6011 -2.89134 255 0 0
-40.0178 -15.6798 -3.96603 255 0 0
-40.0013 -15.0205 -3.95452 255 0 0
-40.1209 -14.3102 -4.65862 255 0 0
-39.9482 -14.4625 -4.65169 255 0 0
-40.2291 -14.9973 -2.89219 255 0 0
-40.518 -14.4519 -3.60963 255 0 0
-39.9303 -15.4275 -4.67175 255 0 0
-39.9765 -14.9031 -3.95158 255 0 0
-39.9935 -15.4519 -3.96121 255 0 0
-40.006 -14.4835 -4.30072 255 0 0
-40.0567 -14.3945 -4.30167 255 0 0
-40.5749 -14.5807 -2.89596 255 0 0
-40.0025 -15.3464 -4.31684 255 0 0
-39.934 -15.3202 -4.66957 255 0 0
-40.2123 -15.2086 -2.89341 255 0 0
-40.0106 -14.2709 -5.00594 255 0 0
-39.8845 -14.6538 -5.00676 255 0 0
-40.2153 -14.2365 -4.66264 255 0 0
-40.1506 -15.4033 -2.89365 255 0 0
-40.1863 -14.6566 -2.88891 255 0 0
-40.0429 -15.909 -4.68926 255 0 0
-40.2064 -14.772 -2.89012 255 0 0
-40.1053 -14.8429 -2.88866 255 0 0
-40.1441 -15.0741 -2.8911 255 0 0
-40.2035 -15.3143 -2.89402 255 0 0
-40.2463 -15.6593 -2.89742 255 0 0
-40.2965 -14.4807 -3.24592 255 0 0
-39.9551 -15.437 -4.31621 255 0 0
-39.8717 -14.7564 -4.65352 255 0 0
-41.1163 -14.2272 -4.71552 255 0 0
-39.974 -15.6626 -4.32158 255 0 0
-40.1006 -15.932 -3.97379 255 0 0
-40.2909 -14.4787 -3.60197 255 0 0
-40.196 -14.5522 -3.59956 255 0 0
-40.2229 -15.8702 -3.61795 255 0 0
-40.109 -15.9353 -3.61488 255 0 0
-39.9403 -14.7819 -4.30293 255 0 0
-41.5092 -14.253 -4.73923 255 0 0
-40.0459 -15.9103 -4.33012 255 0 0
-40.3277 -14.384 -3.95854 255 0 0
-40.1834 -14.44 -3.95318 255 0 0
-40.0446 -14.4974 -3.9481 255 0 0
-40.076 -14.6164 -3.95131 255 0 0
-40.0083 -14.6993 -3.94971 255 0 0
-40.0118 -14.8083 -3.95158 255 0 0
-39.9535 -15.3277 -3.95746 255 0 0
-40.033 -15.5763 -3.96496 255 0 0
-42.7777 -14.2365 -4.43793 255 0 0
-40.2614 -14.3604 -4.31147 255 0 0
-39.9825 -14.5823 -4.30135 255 0 0
-39.9533 -14.679 -4.30167 255 0 0
-39.9245 -14.9916 -4.30609 255 0 0
-39.8725 -15.0801 -4.30514 255 0 0
-39.9623 -15.2224 -4.31242 255 0 0
-39.9565 -15.5466 -4.31842 255 0 0
-40.0678 -16.029 -4.3336 255 0 0
-39.957 -14.8958 -4.66154 255 0 0
-42.8125 -14.2481 -4.81619 255 0 0
-41.908 -14.279 -4.7633 255 0 0
-40.475 -14.2205 -4.67759 255 0 0
-39.9823 -14.3678 -4.65169 255 0 0
-39.9522 -14.5712 -4.65425 255 0 0
-39.923 -14.6679 -4.65461 255 0 0
-39.8914 -15.0872 -4.66191 255 0 0
-39.8938 -15.1963 -4.66446 255 0 0
-39.9535 -15.5454 -4.67577 255 0 0
-39.9492 -15.6529 -4.67795 255 0 0
-40.0152 -15.7883 -4.68488 255 0 0
-39.9492 -14.3559 -5.00387 255 0 0
-39.9425 -14.4605 -5.00594 255 0 0
-39.9136 -14.5571 -5.00635 255 0 0
