ply
format ascii 1.0
comment Created by Open3D
element vertex 994
property double x
property double y
property double z
property uchar red
property uchar green
property uchar blue
end_header
10.1986 8.03747 -4.45691 255 0 0
8.58531 8.00487 -5.35532 255 0 0
9.90215 7.88025 -4.94382 255 0 0
10.3032 8.23937 -4.15698 255 0 0
9.71797 8.00067 -4.81807 255 0 0
9.35425 7.85125 -5.05569 255 0 0
8.2183 7.9029 -4.95371 255 0 0
11.3884 8.04935 -4.6387 255 0 0
10.535 7.86604 -4.94344 255 0 0
9.79897 8.02845 -4.72568 255 0 0
9.94532 9.27294 -4.10735 255 0 0
8.584 7.89026 -5.33279 255 0 0
9.74989 7.83489 -5.1296 255 0 0
10.7977 8.46822 -4.83343 255 0 0
9.63434 8.56513 -4.77371 255 0 0
10.5813 7.93976 -4.84638 255 0 0
11.535 7.94962 -4.89263 255 0 0
9.11535 8.95468 -4.41772 255 0 0
8.1706 8.7008 -4.88127 255 0 0
11.3476 8.22394 -4.17191 255 0 0
7.97099 7.88638 -5.40779 255 0 0
11.1248 8.22456 -4.14411 255 0 0
9.63648 8.48556 -4.09935 255 0 0
10.025 8.33351 -4.02036 255 0 0
9.2622 9.36156 -4.49174 255 0 0
11.0154 7.78571 -5.61439 255 0 0
10.2301 8.14123 -4.36139 255 0 0
9.87963 8.95238 -4.75291 255 0 0
8.87167 8.01986 -4.78197 255 0 0
11.3668 7.83369 -5.09054 255 0 0
9.94773 8.47071 -4.47215 255 0 0
10.682 8.33664 -4.68065 255 0 0
9.68351 8.40543 -4.09651 255 0 0
9.7559 9.01022 -4.62724 255 0 0
10.1092 8.16311 -4.34682 255 0 0
10.7233 8.1261 -4.43008 255 0 0
8.09926 7.91885 -5.23784 255 0 0
8.60014 7.98066 -5.35371 255 0 0
9.87726 8.29022 -4.55111 255 0 0
9.97669 9.12685 -4.79199 255 0 0
9.02412 9.42889 -4.6949 255 0 0
11.2237 7.8138 -5.6644 255 0 0
10.7159 7.82445 -5.55529 255 0 0
8.80133 9.48453 -4.89674 255 0 0
11.4926 7.96062 -4.88671 255 0 0
10.9093 7.78856 -5.23576 255 0 0
9.38094 8.37975 -4.27189 255 0 0
10.9669 8.53806 -4.03585 255 0 0
11.1784 7.78227 -5.28797 255 0 0
11.309 7.9531 -4.85474 255 0 0
9.17502 8.84388 -4.41119 255 0 0
10.144 8.07274 -4.56474 255 0 0
8.14856 9.36512 -4.99668 255 0 0
11.1168 7.83762 -5.04513 255 0 0
8.3657 8.12135 -5.33279 255 0 0
9.28531 8.82365 -4.31352 255 0 0
10.4432 8.23026 -4.17399 255 0 0
11.5822 9.17246 -4.79545 255 0 0
9.43343 8.42664 -4.17621 255 0 0
10.5529 9.16007 -4.04688 255 0 0
9.40003 8.55846 -4.18713 255 0 0
10.6419 8.38681 -4.91535 255 0 0
10.7193 8.53053 -4.82869 255 0 0
9.54781 8.20858 -4.16628 255 0 0
10.1628 7.89271 -4.88075 255 0 0
8.95045 9.39642 -4.79219 255 0 0
10.8124 7.83608 -4.98949 255 0 0
8.15772 8.72846 -4.88401 255 0 0
10.1323 8.32168 -4.03202 255 0 0
10.2228 8.27488 -4.0383 255 0 0
9.88409 8.09819 -4.41772 255 0 0
10.9295 7.92094 -4.90427 255 0 0
10.6989 8.26848 -4.79199 255 0 0
11.1679 7.81434 -5.17067 255 0 0
11.2296 8.38465 -4.05282 255 0 0
11.0773 8.39433 -4.03585 255 0 0
9.01337 9.64398 -4.84022 255 0 0
10.6078 8.19808 -4.65224 255 0 0
9.84823 8.26586 -4.10218 255 0 0
10.3049 7.8862 -4.90506 255 0 0
9.76983 7.85091 -5.02554 255 0 0
8.01427 7.91044 -5.0173 255 0 0
11.4663 8.22739 -4.18716 255 0 0
10.2837 8.26385 -4.04457 255 0 0
8.1645 7.86983 -5.03851 255 0 0
9.39654 8.63713 -4.30519 255 0 0
11.4947 7.76212 -5.5932 255 0 0
8.92 7.91112 -4.98321 255 0 0
8.60027 8.6514 -4.83769 255 0 0
8.76858 8.3326 -4.70806 255 0 0
9.94952 8.23096 -4.33225 255 0 0
10.0091 9.24409 -4.8133 255 0 0
8.13025 9.12338 -4.94997 255 0 0
11.5077 7.85055 -5.11869 255 0 0
9.69918 9.43825 -4.21273 255 0 0
9.95711 9.39487 -4.94553 255 0 0
11.1602 7.76963 -5.40248 255 0 0
9.58559 8.89513 -4.13809 255 0 0
8.32272 7.87144 -4.96766 255 0 0
9.38822 8.58851 -4.18911 255 0 0
10.4152 7.8732 -4.92297 255 0 0
11.2151 7.96679 -4.84053 255 0 0
11.5919 9.22498 -4.80307 255 0 0
10.8751 8.14007 -4.4535 255 0 0
9.92854 8.2136 -4.21691 255 0 0
8.12162 8.18931 -4.88585 255 0 0
11.0039 8.01473 -4.69315 255 0 0
8.13126 9.16818 -4.95821 255 0 0
10.2063 8.20166 -4.25265 255 0 0
10.5314 8.46292 -3.97899 255 0 0
9.95593 8.37641 -4.46181 255 0 0
9.66225 8.44742 -4.0984 255 0 0
11.1769 7.89984 -4.94491 255 0 0
10.1171 8.24908 -4.13431 255 0 0
9.45653 9.37838 -4.29137 255 0 0
10.4994 8.1941 -4.29137 255 0 0
10.6462 7.79295 -5.18492 255 0 0
10.8275 8.57483 -4.02312 255 0 0
8.59096 8.0483 -5.36498 255 0 0
11.0767 8.22966 -4.25619 255 0 0
8.63302 7.86012 -5.54826 255 0 0
10.5834 9.27493 -4.0613 255 0 0
9.45739 7.93781 -4.87218 255 0 0
9.16145 7.91427 -4.92249 255 0 0
8.5841 8.00375 -4.83318 255 0 0
9.53354 7.84883 -5.0898 255 0 0
9.98999 9.00934 -4.66133 255 0 0
10.1892 8.55208 -4.06161 255 0 0
9.00115 9.31605 -4.78726 255 0 0
9.98019 8.05897 -4.64872 255 0 0
8.52533 8.02485 -4.82631 255 0 0
8.1321 9.21304 -4.96645 255 0 0
8.58186 7.85083 -5.01318 255 0 0
10.9622 7.9844 -4.80028 255 0 0
10.0877 9.27245 -4.12349 255 0 0
8.96271 8.80473 -4.59425 255 0 0
9.8982 9.49579 -4.83224 255 0 0
10.2728 9.35308 -4.035 255 0 0
9.74066 8.17557 -4.29687 255 0 0
10.8939 8.21473 -4.11452 255 0 0
9.93988 8.34278 -4.79219 255 0 0
9.90043 8.97122 -4.07058 255 0 0
10.4012 8.23719 -4.05623 255 0 0
10.7799 7.85161 -4.98565 255 0 0
10.2244 7.82463 -5.10798 255 0 0
11.2467 8.06978 -4.6191 255 0 0
11.3279 8.00657 -4.74428 255 0 0
10.1117 7.87223 -4.98097 255 0 0
8.5405 7.88772 -5.42792 255 0 0
8.95784 9.53913 -4.81559 255 0 0
10.0621 8.04655 -4.54883 255 0 0
9.8313 9.43161 -4.93137 255 0 0
10.7712 8.16241 -4.32513 255 0 0
11.1179 7.77938 -5.2756 255 0 0
11.2693 8.20805 -4.39859 255 0 0
8.29042 8.3397 -4.83867 255 0 0
10.6651 9.08158 -3.93307 255 0 0
10.3788 8.1795 -4.2735 255 0 0
11.2667 7.96335 -4.84882 255 0 0
8.13916 9.04665 -4.9376 255 0 0
10.4335 7.94546 -4.82175 255 0 0
9.63365 8.5237 -4.10313 255 0 0
9.76162 8.29227 -4.09415 255 0 0
10.5765 7.85807 -4.94983 255 0 0
10.7035 8.98367 -4.04688 255 0 0
8.15201 9.32435 -4.98981 255 0 0
8.50859 7.89571 -5.2139 255 0 0
10.8865 8.04841 -4.67838 255 0 0
11.5282 8.23044 -4.19523 255 0 0
8.14863 8.76029 -4.88814 255 0 0
9.89252 9.40066 -4.93629 255 0 0
7.9632 8.58133 -4.9292 255 0 0
11.0647 8.01896 -4.70338 255 0 0
9.23392 8.13107 -4.43406 255 0 0
10.3042 8.14051 -4.3718 255 0 0
10.5044 9.07443 -4.0333 255 0 0
10.6878 9.10093 -4.89855 255 0 0
9.83517 8.21523 -4.5352 255 0 0
11.3317 8.04967 -4.62999 255 0 0
8.41272 7.86259 -4.98308 255 0 0
9.42683 8.7063 -4.31768 255 0 0
10.5129 7.81078 -5.16156 255 0 0
8.67754 8.24609 -4.78462 255 0 0
8.31777 8.28824 -4.83455 255 0 0
8.71101 8.16077 -4.77666 255 0 0
9.38989 8.79677 -4.32393 255 0 0
10.0328 8.54316 -4.8353 255 0 0
9.91536 8.04553 -4.52611 255 0 0
11.0155 8.22479 -4.24768 255 0 0
8.81615 8.70193 -4.66533 255 0 0
8.34967 8.18308 -4.82218 255 0 0
11.4258 7.79469 -5.46075 255 0 0
10.0153 8.90384 -4.07686 255 0 0
9.42317 8.21872 -4.25836 255 0 0
8.54571 8.76116 -4.84697 255 0 0
10.368 8.25102 -4.05354 255 0 0
10.0707 8.25107 -4.12864 255 0 0
10.6454 8.14682 -4.53637 255 0 0
9.14049 9.37093 -4.58974 255 0 0
10.2055 8.24094 -4.1447 255 0 0
10.7873 7.81789 -5.09904 255 0 0
11.2796 8.2977 -4.05112 255 0 0
9.62551 7.84827 -4.99806 255 0 0
11.1101 8.21368 -4.25902 255 0 0
10.5061 8.11952 -4.28442 255 0 0
10.776 7.92724 -4.8784 255 0 0
8.80464 8.01638 -4.8744 255 0 0
10.0759 8.72513 -4.06565 255 0 0
9.47821 8.30637 -4.16826 255 0 0
10.1812 8.06293 -4.56929 255 0 0
10.8178 7.80095 -5.3371 255 0 0
9.0083 9.47963 -4.70022 255 0 0
8.40613 8.08355 -5.3336 255 0 0
11.556 8.20896 -4.3176 255 0 0
11.2389 7.78491 -5.30033 255 0 0
9.15029 8.77829 -4.39921 255 0 0
10.401 8.23706 -4.16926 255 0 0
8.48167 8.09831 -5.3521 255 0 0
10.6555 8.27537 -4.32115 255 0 0
10.7819 9.31408 -5.06562 255 0 0
8.21084 7.87703 -5.45802 255 0 0
8.58818 7.85662 -5.64342 255 0 0
10.6969 7.79115 -5.19454 255 0 0
9.64931 9.25701 -4.18627 255 0 0
9.88677 9.26226 -5.03298 255 0 0
9.81535 8.27801 -4.09935 255 0 0
11.1864 8.51885 -4.05961 255 0 0
10.5363 7.7895 -5.62794 255 0 0
10.0359 8.18289 -4.22783 255 0 0
10.7391 7.78299 -5.55377 255 0 0
10.6423 8.97541 -4.03924 255 0 0
10.6202 9.00001 -3.92106 255 0 0
10.6185 8.22646 -4.19619 255 0 0
10.786 8.96615 -4.05452 255 0 0
9.45168 8.36269 -4.17124 255 0 0
10.6158 8.20424 -4.53855 255 0 0
10.0759 9.32791 -4.12797 255 0 0
10.7167 8.20137 -4.43736 255 0 0
8.57974 8.67177 -4.83769 255 0 0
10.0306 8.06043 -4.65701 255 0 0
9.03535 8.12903 -4.50959 255 0 0
9.91703 9.11556 -4.78133 255 0 0
11.1685 7.97361 -5.55502 255 0 0
8.10397 9.3586 -4.98844 255 0 0
9.7642 8.19533 -4.85389 255 0 0
10.712 8.13756 -4.66133 255 0 0
11.1193 7.99837 -5.54842 255 0 0
11.0678 8.51176 -4.04518 255 0 0
9.93903 9.04921 -4.08313 255 0 0
8.6088 7.91306 -5.44779 255 0 0
10.6184 8.91226 -3.91306 255 0 0
9.11588 8.14297 -4.41815 255 0 0
11.403 8.14104 -4.41051 255 0 0
11.0262 8.88203 -3.95388 255 0 0
8.09843 8.22421 -4.88798 255 0 0
9.01871 9.37862 -4.79958 255 0 0
10.7937 7.78361 -5.2124 255 0 0
11.0384 8.53089 -4.04348 255 0 0
10.7111 7.95805 -4.75528 255 0 0
9.16145 7.87642 -5.023 255 0 0
8.61271 7.95441 -4.93346 255 0 0
9.43915 9.27277 -4.27648 255 0 0
11.1277 7.90473 -5.41527 255 0 0
11.0702 8.02291 -5.54181 255 0 0
9.92383 9.23092 -5.03426 255 0 0
9.99245 8.3869 -4.69371 255 0 0
10.5096 8.18204 -4.40562 255 0 0
9.51404 7.92784 -4.8808 255 0 0
9.50564 8.21161 -4.26877 255 0 0
10.0608 8.64963 -4.05623 255 0 0
11.0558 7.97257 -4.81448 255 0 0
11.3801 8.20645 -4.29398 255 0 0
11.3813 7.76438 -5.69168 255 0 0
9.92543 8.0537 -4.63925 255 0 0
7.96475 8.03113 -4.93021 255 0 0
11.0774 8.23021 -4.13873 255 0 0
10.412 7.81271 -5.14233 255 0 0
10.9998 7.93222 -4.68292 255 0 0
9.46403 7.84823 -5.0763 255 0 0
8.20872 8.61773 -4.87302 255 0 0
9.60508 8.72436 -4.12155 255 0 0
11.0694 7.90287 -4.92644 255 0 0
9.46288 9.42929 -4.29832 255 0 0
9.98523 8.18106 -4.22088 255 0 0
8.04108 7.89934 -5.02033 255 0 0
10.7499 8.18641 -4.44049 255 0 0
8.66906 7.98742 -4.84554 255 0 0
8.91179 7.84742 -5.71689 255 0 0
9.33297 8.17909 -4.34805 255 0 0
10.6189 8.22673 -4.08179 255 0 0
9.44022 8.80199 -4.33121 255 0 0
9.99852 8.93141 -4.07775 255 0 0
8.52666 8.86694 -4.86157 255 0 0
10.9297 8.61368 -4.03839 255 0 0
9.92753 9.30045 -4.10824 255 0 0
9.59675 9.1196 -4.16454 255 0 0
11.4894 8.20276 -4.30815 255 0 0
9.4125 8.44816 -4.28438 255 0 0
9.15767 8.12193 -4.42156 255 0 0
10.0393 9.1841 -4.57447 255 0 0
10.5459 8.23042 -4.18722 255 0 0
8.94895 9.35036 -4.7848 255 0 0
8.07701 7.87842 -5.32691 255 0 0
10.0622 8.18445 -4.34266 255 0 0
9.61675 8.67273 -4.1173 255 0 0
10.1129 8.12662 -4.45473 255 0 0
10.4003 7.84253 -5.03005 255 0 0
8.08125 7.88254 -5.02488 255 0 0
9.77485 7.89316 -4.92259 255 0 0
9.85827 8.23452 -4.65227 255 0 0
10.7364 7.81994 -5.08975 255 0 0
9.58983 8.94148 -4.14375 255 0 0
8.77749 8.0298 -4.66329 255 0 0
10.5189 7.7959 -5.27599 255 0 0
8.85368 7.90876 -4.97042 255 0 0
10.8933 8.21431 -4.23068 255 0 0
10.1852 8.26451 -4.25662 255 0 0
10.9734 8.94724 -3.95388 255 0 0
8.85835 7.96975 -4.87646 255 0 0
10.8363 9.36115 -4.70946 255 0 0
9.85044 8.07062 -4.51929 255 0 0
10.4732 9.00417 -4.02312 255 0 0
9.63495 8.20436 -4.1772 255 0 0
12.2742 8.16193 -5.68815 255 0 0
10.9672 8.10802 -4.46338 255 0 0
8.82289 9.3509 -4.8782 255 0 0
9.69247 9.38709 -4.20611 255 0 0
10.7906 8.13685 -4.32513 255 0 0
9.40257 8.8506 -4.33225 255 0 0
8.61645 8.42452 -4.8032 255 0 0
8.16557 8.11731 -4.88088 255 0 0
9.86039 7.84702 -5.04202 255 0 0
10.0227 8.82565 -4.06968 255 0 0
10.7821 8.49735 -4.83461 255 0 0
11.5443 8.07771 -4.66591 255 0 0
9.26605 8.15937 -4.33608 255 0 0
9.49134 8.23863 -4.16231 255 0 0
9.36597 8.56816 -4.2927 255 0 0
10.7386 8.21817 -4.09569 255 0 0
10.2808 7.98436 -4.80081 255 0 0
8.98869 8.06777 -4.59882 255 0 0
9.20778 8.22507 -4.33608 255 0 0
8.89124 8.13387 -3.76514 255 0 0
9.99388 9.09915 -4.67383 255 0 0
8.48709 9.12415 -4.89871 255 0 0
9.14712 8.48824 -4.36111 255 0 0
11.3703 7.99621 -4.74997 255 0 0
10.5069 8.5669 -3.98578 255 0 0
10.9497 8.2162 -4.23823 255 0 0
10.4146 7.97018 -4.82175 255 0 0
10.8092 9.02884 -4.063 255 0 0
11.2095 8.20528 -4.2713 255 0 0
9.83647 8.29582 -4.88075 255 0 0
9.41479 8.4906 -4.18117 255 0 0
10.4739 9.31148 -4.05282 255 0 0
11.543 8.19973 -4.19433 255 0 0
9.74242 8.25611 -4.19705 255 0 0
12.2934 8.25907 -5.57513 255 0 0
10.9596 8.22361 -4.12349 255 0 0
10.7244 8.32891 -4.68633 255 0 0
11.5259 8.02425 -4.77838 255 0 0
10.5543 7.80275 -5.16843 255 0 0
8.21612 8.09045 -4.88514 255 0 0
11.2142 7.76785 -5.65531 255 0 0
11.1704 8.29926 -4.03839 255 0 0
9.23924 9.33834 -4.59883 255 0 0
9.06747 7.88956 -5.00737 255 0 0
9.39891 8.51677 -4.18216 255 0 0
8.20552 8.57358 -4.86478 255 0 0
9.34194 9.04761 -4.3489 255 0 0
10.8783 7.92324 -4.89565 255 0 0
8.72132 8.22889 -4.78927 255 0 0
9.8062 7.84194 -5.03103 255 0 0
8.45711 7.97957 -4.9093 255 0 0
8.61496 8.32376 -4.78661 255 0 0
8.71365 8.12453 -4.77136 255 0 0
10.5159 7.813 -5.74476 255 0 0
10.448 8.234 -4.06161 255 0 0
9.86562 7.88946 -4.93851 255 0 0
10.5934 7.83169 -5.06454 255 0 0
10.3182 7.95472 -4.80327 255 0 0
10.3649 9.30299 -4.04009 255 0 0
10.8608 8.91994 -3.93947 255 0 0
8.1284 8.94896 -4.91836 255 0 0
9.896 8.10795 -4.64161 255 0 0
11.3683 9.1354 -4.88519 255 0 0
8.71107 7.93118 -4.94768 255 0 0
10.7638 8.27796 -4.68633 255 0 0
11.3701 7.95586 -4.8654 255 0 0
9.44315 8.15763 -4.36111 255 0 0
9.85668 7.9207 -4.83087 255 0 0
11.2859 8.22017 -4.16384 255 0 0
11.1342 8.39595 -4.04263 255 0 0
10.9895 8.04419 -4.69429 255 0 0
10.8141 9.38679 -4.83292 255 0 0
11.3368 8.13441 -4.40058 255 0 0
9.96709 8.81872 -4.06251 255 0 0
8.50555 9.2314 -4.91994 255 0 0
11.1355 8.35562 -4.03924 255 0 0
11.2981 8.18808 -4.40058 255 0 0
9.72208 8.37849 -4.0984 255 0 0
9.38702 8.18719 -4.35676 255 0 0
11.4798 9.1803 -4.65488 255 0 0
10.535 7.94415 -4.83899 255 0 0
11.032 7.91574 -4.92151 255 0 0
8.3689 7.89632 -5.18578 255 0 0
10.6319 7.86015 -4.96007 255 0 0
10.5311 9.18507 -4.04688 255 0 0
8.14047 9.09136 -4.94584 255 0 0
10.8508 8.22266 -4.22595 255 0 0
10.2792 7.82795 -5.11897 255 0 0
10.9301 8.67716 -3.92587 255 0 0
10.9082 8.72322 -3.92747 255 0 0
10.6636 8.82172 -3.90986 255 0 0
8.0358 8.35649 -4.90078 255 0 0
9.60155 9.08094 -4.16076 255 0 0
11.2918 7.82158 -5.07519 255 0 0
10.6938 8.51029 -4.0019 255 0 0
10.7995 8.22423 -4.10376 255 0 0
10.1424 8.1503 -4.79958 255 0 0
10.7295 8.58027 -4.956 255 0 0
8.46826 7.85828 -5.40639 255 0 0
10.4916 9.28278 -4.05197 255 0 0
9.46743 8.25732 -4.16131 255 0 0
9.98512 7.83092 -5.17508 255 0 0
10.4993 8.2342 -4.06789 255 0 0
10.0584 9.20164 -4.11273 255 0 0
11.2086 8.28653 -4.04179 255 0 0
11.134 8.52071 -4.05367 255 0 0
10.9365 8.57702 -4.03585 255 0 0
10.6103 8.48496 -3.99002 255 0 0
10.4798 8.46239 -3.97305 255 0 0
10.5092 8.52737 -3.98238 255 0 0
10.984 8.99935 -4.07997 255 0 0
11.2135 9.2766 -4.13174 255 0 0
10.6342 9.01185 -4.04179 255 0 0
10.6241 9.06841 -4.04603 255 0 0
10.5701 9.30765 -4.063 255 0 0
10.4042 9.29383 -4.04348 255 0 0
10.3859 9.36634 -4.04857 255 0 0
10.3379 9.3676 -4.04348 255 0 0
9.98692 8.2619 -4.11919 255 0 0
10.9109 7.98666 -4.79199 255 0 0
10.0301 7.90467 -4.85901 255 0 0
11.4008 8.09876 -4.52583 255 0 0
10.9237 7.83802 -5.00995 255 0 0
9.91934 9.20485 -4.91166 255 0 0
11.6273 8.21823 -4.32799 255 0 0
11.2375 7.86309 -5.67501 255 0 0
11.414 8.23086 -4.18088 255 0 0
11.2291 8.21956 -4.15667 255 0 0
11.1769 8.22216 -4.15039 255 0 0
11.0161 8.22529 -4.13066 255 0 0
10.8559 8.22656 -4.11093 255 0 0
10.687 8.21891 -4.08941 255 0 0
10.5508 8.2342 -4.07417 255 0 0
10.3213 8.2539 -4.04816 255 0 0
10.1753 8.29657 -4.03471 255 0 0
10.0804 8.33923 -4.02754 255 0 0
9.98745 8.34242 -4.01678 255 0 0
10.0716 8.49414 -4.04188 255 0 0
10.0691 8.53296 -4.04547 255 0 0
10.0929 8.59432 -4.05444 255 0 0
10.1209 8.65961 -4.0643 255 0 0
10.047 8.76281 -4.0661 255 0 0
10.0131 8.77517 -4.06341 255 0 0
9.89549 8.88166 -4.06072 255 0 0
9.93027 8.95547 -4.07237 255 0 0
9.83804 9.26051 -4.0939 255 0 0
10.9374 8.04597 -4.33605 255 0 0
9.95561 7.84598 -5.05989 255 0 0
10.035 7.83169 -5.18503 255 0 0
9.38325 9.3057 -4.50045 255 0 0
9.92906 9.48029 -4.71588 255 0 0
11.6365 7.81775 -5.50765 255 0 0
11.4418 8.20977 -4.30248 255 0 0
11.3325 8.21307 -4.28831 255 0 0
11.2663 8.20589 -4.27886 255 0 0
11.1714 8.21814 -4.26752 255 0 0
10.7944 8.22036 -4.21839 255 0 0
10.7428 8.22134 -4.21178 255 0 0
10.6866 8.21861 -4.20422 255 0 0
10.5082 8.24114 -4.18344 255 0 0
10.3724 8.2545 -4.16737 255 0 0
10.2521 8.23844 -4.15037 255 0 0
10.1591 8.24327 -4.13903 255 0 0
10.0377 8.2639 -4.1258 255 0 0
9.9153 8.2622 -4.11021 255 0 0
9.74305 8.33634 -4.09651 255 0 0
9.63131 8.58289 -4.10927 255 0 0
9.60718 8.62288 -4.11069 255 0 0
9.59319 8.77602 -4.1258 255 0 0
9.58739 8.83358 -4.13147 255 0 0
9.58968 8.98394 -4.14848 255 0 0
9.5936 9.03042 -4.15415 255 0 0
9.63779 9.20218 -4.17871 255 0 0
9.65645 9.30794 -4.19288 255 0 0
9.67264 9.45718 -4.21178 255 0 0
9.60897 9.4396 -4.20233 255 0 0
10.9028 7.82305 -5.71544 255 0 0
9.40182 8.64199 -4.19705 255 0 0
11.4839 8.11685 -4.41944 255 0 0
10.7324 8.21339 -4.32513 255 0 0
10.5208 8.25102 -4.30031 255 0 0
10.3038 8.19988 -4.26556 255 0 0
10.1734 8.21496 -4.24967 255 0 0
9.81995 8.22229 -4.20351 255 0 0
9.81491 8.27763 -4.20897 255 0 0
9.45849 8.32882 -4.16826 255 0 0
9.41149 8.73358 -4.20897 255 0 0
9.38682 8.79389 -4.21294 255 0 0
9.39115 8.83985 -4.2189 255 0 0
9.39532 8.88589 -4.22485 255 0 0
9.38259 8.91609 -4.22684 255 0 0
9.41151 8.98613 -4.23875 255 0 0
9.43111 9.09073 -4.25364 255 0 0
9.41685 9.16352 -4.26059 255 0 0
9.42398 9.21406 -4.26754 255 0 0
9.4541 9.33161 -4.28541 255 0 0
9.38749 9.39862 -4.28541 255 0 0
9.95304 9.41336 -4.71019 255 0 0
11.6187 8.12978 -4.56121 255 0 0
11.5239 8.10427 -4.54456 255 0 0
11.4671 8.10496 -4.53623 255 0 0
11.3535 8.10568 -4.51958 255 0 0
10.7794 8.1284 -4.43841 255 0 0
10.5876 8.14245 -4.41239 255 0 0
10.6047 8.19572 -4.42071 255 0 0
10.5144 8.24605 -4.41343 255 0 0
10.1388 8.10788 -4.34474 255 0 0
10.1824 8.18243 -4.35931 255 0 0
10.0107 8.20194 -4.33746 255 0 0
9.92007 8.16706 -4.3208 255 0 0
9.634 8.20356 -4.28542 255 0 0
9.50507 8.13272 -4.2594 255 0 0
9.56441 8.22285 -4.27813 255 0 0
9.45133 8.20391 -4.26044 255 0 0
9.36357 8.22555 -4.25108 255 0 0
9.37742 8.29699 -4.26148 255 0 0
9.43954 8.39194 -4.28126 255 0 0
9.37105 8.45115 -4.27918 255 0 0
9.4065 8.52365 -4.2927 255 0 0
9.39052 8.54981 -4.29375 255 0 0
9.42728 8.74822 -4.32289 255 0 0
9.3397 8.83328 -4.32185 255 0 0
9.41856 8.99286 -4.35203 255 0 0
9.2804 8.94545 -4.32809 255 0 0
9.56338 9.3282 -4.41291 255 0 0
9.54453 9.3763 -4.41655 255 0 0
9.51407 9.39081 -4.41447 255 0 0
9.50405 9.42551 -4.41759 255 0 0
9.41851 9.42969 -4.40718 255 0 0
9.36651 9.48946 -4.40822 255 0 0
11.5775 8.06018 -4.66918 255 0 0
10.5832 7.78539 -5.28736 255 0 0
9.99334 9.3621 -4.82751 255 0 0
9.9983 9.10317 -4.79199 255 0 0
8.31053 7.93491 -5.49207 255 0 0
10.5298 7.7847 -5.74315 255 0 0
11.1924 7.79207 -5.533 255 0 0
9.86487 8.12161 -4.41772 255 0 0
7.98672 8.50499 -4.91925 255 0 0
11.4545 8.05542 -4.64958 255 0 0
11.2798 8.05312 -4.62237 255 0 0
11.2089 8.08296 -4.61475 255 0 0
10.951 8.05594 -4.5723 255 0 0
10.8242 8.082 -4.55597 255 0 0
10.8142 8.11455 -4.55814 255 0 0
10.772 8.12285 -4.5527 255 0 0
10.6839 8.09624 -4.53637 255 0 0
10.596 8.06927 -4.52004 255 0 0
10.4847 8.06331 -4.50263 255 0 0
10.4691 8.13058 -4.50807 255 0 0
10.4407 8.1483 -4.50589 255 0 0
10.3127 8.08782 -4.47977 255 0 0
10.0827 8.06309 -4.44276 255 0 0
10.1026 8.1578 -4.45691 255 0 0
10.0832 8.18173 -4.45691 255 0 0
9.93894 8.10382 -4.42643 255 0 0
9.88104 8.17431 -4.42643 255 0 0
9.99879 8.31173 -4.46017 255 0 0
9.91723 8.28377 -4.44493 255 0 0
9.96779 8.4471 -4.47215 255 0 0
10.8629 9.33918 -4.71054 255 0 0
9.38903 8.14982 -4.3524 255 0 0
9.22407 8.1808 -4.33281 255 0 0
9.95041 9.05957 -4.54617 255 0 0
8.80605 8.09437 -4.26314 255 0 0
9.14186 8.44311 -4.35458 255 0 0
10.1242 9.43976 -4.6191 255 0 0
9.30829 8.72033 -4.41336 255 0 0
9.23313 8.69111 -4.39921 255 0 0
9.25848 8.75646 -4.41119 255 0 0
9.20852 8.77148 -4.40629 255 0 0
9.19415 8.98936 -4.43296 255 0 0
9.22512 9.1056 -4.45255 255 0 0
9.2226 9.18985 -4.46344 255 0 0
9.37561 9.38673 -4.51025 255 0 0
9.29654 9.35181 -4.49501 255 0 0
9.28842 9.43268 -4.5048 255 0 0
9.22979 9.4177 -4.49501 255 0 0
9.22431 9.47933 -4.50263 255 0 0
9.03287 9.34888 -4.68424 255 0 0
8.08686 8.25151 -4.89083 255 0 0
9.19887 9.38615 -4.59997 255 0 0
8.64246 8.2911 -4.78595 255 0 0
8.51309 8.08981 -5.35693 255 0 0
12.2028 8.15629 -5.67251 255 0 0
11.4724 7.90647 -4.99788 255 0 0
11.5733 8.01653 -4.78519 255 0 0
11.4363 8.00216 -4.76133 255 0 0
11.2573 7.99682 -4.73178 255 0 0
11.2056 8.00013 -4.72383 255 0 0
11.2006 8.03672 -4.72724 255 0 0
10.8075 8.02966 -4.6636 255 0 0
10.8022 8.06558 -4.66701 255 0 0
10.7555 8.07048 -4.66019 255 0 0
10.6767 8.051 -4.64542 255 0 0
10.6967 8.18609 -4.66474 255 0 0
10.7978 8.46829 -4.71474 255 0 0
10.4664 8.24854 -4.63633 255 0 0
10.0206 8.05239 -4.54315 255 0 0
9.9791 8.05809 -4.53747 255 0 0
9.86064 8.03998 -4.51701 255 0 0
9.81354 8.07935 -4.51474 255 0 0
9.905 8.19413 -4.54315 255 0 0
9.93413 8.25798 -4.55565 255 0 0
9.941 8.38398 -4.5727 255 0 0
9.86296 8.37837 -4.5602 255 0 0
9.60179 8.21548 -4.49997 255 0 0
10.8672 9.34289 -4.83519 255 0 0
10.7146 9.25599 -4.8011 255 0 0
9.33924 8.1066 -4.44656 255 0 0
9.28969 8.1023 -4.43861 255 0 0
9.26181 8.11673 -4.43633 255 0 0
9.10082 8.1684 -4.41929 255 0 0
9.98989 9.05228 -4.66701 255 0 0
9.99347 9.1422 -4.67951 255 0 0
8.78344 8.07359 -4.3602 255 0 0
10.0437 9.40926 -4.72269 255 0 0
9.9837 9.39761 -4.71247 255 0 0
9.83076 9.34197 -4.68292 255 0 0
9.13009 8.92672 -4.52611 255 0 0
9.09263 9.10342 -4.54542 255 0 0
9.23705 9.29197 -4.59201 255 0 0
9.18483 9.32748 -4.58974 255 0 0
9.17426 9.45028 -4.60565 255 0 0
9.15582 9.47613 -4.60679 255 0 0
9.10546 9.46883 -4.59883 255 0 0
9.84472 7.83455 -5.14807 255 0 0
9.9395 8.26244 -4.66885 255 0 0
8.65978 7.94099 -4.93986 255 0 0
8.36569 7.87459 -5.5962 255 0 0
9.09131 9.68126 -4.74226 255 0 0
11.6484 7.94654 -4.91158 255 0 0
11.5822 7.94171 -4.89974 255 0 0
11.4407 7.96491 -4.87842 255 0 0
11.1495 7.96004 -4.82869 255 0 0
11.1026 7.96639 -4.82159 255 0 0
10.9997 7.97184 -4.80501 255 0 0
10.8734 7.99891 -4.78725 255 0 0
10.8037 7.98717 -4.77423 255 0 0
10.6621 7.98062 -4.74995 255 0 0
10.7366 8.09618 -4.77659 255 0 0
10.818 8.19781 -4.80264 255 0 0
10.7209 8.16437 -4.78251 255 0 0
10.7471 8.22462 -4.79436 255 0 0
10.7185 8.24309 -4.79199 255 0 0
10.72 8.32548 -4.80264 255 0 0
10.7454 8.38615 -4.81448 255 0 0
10.7125 8.48373 -4.82159 255 0 0
10.7214 8.57383 -4.83461 255 0 0
9.83964 8.02286 -4.62148 255 0 0
9.93873 8.18242 -4.65819 255 0 0
9.94139 8.22423 -4.66411 255 0 0
9.82788 8.28857 -4.65464 255 0 0
9.93069 8.41566 -4.68779 255 0 0
10.8402 9.31973 -4.95183 255 0 0
9.17968 8.08332 -4.52558 255 0 0
9.13043 8.07846 -4.51729 255 0 0
9.12411 8.11151 -4.52084 255 0 0
9.07064 8.10256 -4.51137 255 0 0
9.87925 9.2993 -4.80146 255 0 0
9.97383 9.43302 -4.83461 255 0 0
9.90698 9.4368 -4.82514 255 0 0
9.06302 9.24753 -4.67358 255 0 0
9.10913 9.33878 -4.69371 255 0 0
9.11093 9.38504 -4.70082 255 0 0
9.03453 9.39507 -4.69134 255 0 0
9.06308 9.60546 -4.72686 255 0 0
8.97436 9.60224 -4.71384 255 0 0
11.4912 7.79947 -5.47496 255 0 0
10.8271 7.92534 -4.88703 255 0 0
11.5662 7.81035 -5.49202 255 0 0
8.83738 9.06017 -4.72321 255 0 0
11.5618 7.88746 -5.01142 255 0 0
11.5242 7.90191 -5.0065 255 0 0
11.4019 7.89779 -4.98433 255 0 0
11.3502 7.90191 -4.97571 255 0 0
11.2939 7.90255 -4.96585 255 0 0
11.2236 7.89308 -4.9523 255 0 0
11.1208 7.8998 -4.93506 255 0 0
10.9761 7.91509 -4.91166 255 0 0
10.7296 7.93235 -4.87101 255 0 0
10.6694 7.92705 -4.85993 255 0 0
10.6322 7.93862 -4.855 255 0 0
10.4797 7.94144 -4.82914 255 0 0
10.3611 8.0862 -4.82791 255 0 0
10.5221 8.25204 -4.87717 255 0 0
10.6489 8.43334 -4.92274 255 0 0
10.7498 8.55481 -4.956 255 0 0
9.89591 7.99092 -4.73676 255 0 0
9.82804 7.97468 -4.72321 255 0 0
9.84904 8.03052 -4.7343 255 0 0
9.87272 8.12807 -4.75154 255 0 0
9.99456 8.26822 -4.79096 255 0 0
9.84287 8.18211 -4.75401 255 0 0
9.88055 8.25313 -4.77002 255 0 0
9.99008 8.42537 -4.81189 255 0 0
9.8347 8.33431 -4.77371 255 0 0
9.03489 7.84243 -4.57418 255 0 0
9.01052 7.8965 -4.57788 255 0 0
8.98747 7.91406 -4.57665 255 0 0
9.05476 8.08838 -4.61236 255 0 0
8.92809 8.07088 -4.58958 255 0 0
8.90239 8.12472 -4.59327 255 0 0
8.76177 8.05367 -4.56063 255 0 0
9.97899 9.21626 -4.92274 255 0 0
9.8702 9.42409 -4.93629 255 0 0
9.84189 9.48668 -4.94122 255 0 0
8.8326 8.57464 -4.6487 255 0 0
8.809 8.90349 -4.69489 255 0 0
8.91092 9.09234 -4.73923 255 0 0
8.95177 9.44254 -4.79958 255 0 0
8.95686 9.49288 -4.8082 255 0 0
9.04896 9.7282 -4.8587 255 0 0
12.3021 8.30731 -5.58338 255 0 0
8.13264 8.14229 -4.87946 255 0 0
8.52787 9.38876 -4.95045 255 0 0
9.11013 7.83229 -5.76061 255 0 0
9.57848 7.8478 -5.09833 255 0 0
10.3295 7.82762 -5.12859 255 0 0
8.53683 8.79367 -4.85095 255 0 0
8.12956 7.87342 -5.03245 255 0 0
11.687 7.93234 -5.16218 255 0 0
11.4325 7.83903 -5.10334 255 0 0
11.2357 7.82221 -5.06496 255 0 0
11.1891 7.82918 -5.05728 255 0 0
11.0353 7.83908 -5.03042 255 0 0
10.9794 7.83866 -5.02019 255 0 0
10.8773 7.84385 -5.00228 255 0 0
10.7336 7.85689 -4.97797 255 0 0
10.6689 7.84846 -4.96518 255 0 0
10.4797 7.86356 -4.9332 255 0 0
10.3554 7.88597 -4.91401 255 0 0
10.2454 7.87926 -4.89355 255 0 0
10.2131 7.89305 -4.88971 255 0 0
10.126 7.90272 -4.87564 255 0 0
10.0668 7.89497 -4.86413 255 0 0
9.99787 7.91779 -4.85517 255 0 0
9.95672 7.92368 -4.84877 255 0 0
9.9022 7.91871 -4.83854 255 0 0
9.83342 7.94045 -4.82959 255 0 0
9.81457 7.96375 -4.82959 255 0 0
9.75963 7.9769 -4.82191 255 0 0
9.70778 8.03097 -4.82063 255 0 0
9.6975 8.06127 -4.82319 255 0 0
9.74414 8.13919 -4.84238 255 0 0
9.78626 8.29326 -4.8718 255 0 0
9.82312 8.36459 -4.88843 255 0 0
8.90526 7.87923 -4.66201 255 0 0
8.91218 7.92311 -4.66969 255 0 0
8.97007 8.01273 -4.69271 255 0 0
8.92665 8.03119 -4.68824 255 0 0
8.84934 8.01878 -4.67352 255 0 0
8.8134 8.02435 -4.66841 255 0 0
8.80049 8.08926 -4.67608 255 0 0
8.84425 8.16825 -4.69527 255 0 0
9.91055 9.32876 -5.04705 255 0 0
8.7717 8.29608 -4.70295 255 0 0
9.73236 9.29248 -5.01251 255 0 0
9.80102 9.40255 -5.04065 255 0 0
9.0623 8.81851 -4.83087 255 0 0
8.94595 9.3917 -4.90378 255 0 0
8.88435 9.37142 -4.89099 255 0 0
8.79679 9.36763 -4.87692 255 0 0
8.84868 9.46777 -4.90122 255 0 0
11.5352 7.78945 -5.72957 255 0 0
9.54864 7.86126 -4.98569 255 0 0
11.5799 7.85966 -5.25558 255 0 0
11.4811 7.83245 -5.23303 255 0 0
11.4155 7.8274 -5.21976 255 0 0
11.3453 7.81885 -5.20517 255 0 0
11.2798 7.81325 -5.1919 255 0 0
11.2144 7.80739 -5.17863 255 0 0
11.1073 7.81127 -5.15874 255 0 0
11.0515 7.81125 -5.14812 255 0 0
11.0004 7.81431 -5.13884 255 0 0
10.9494 7.81718 -5.12955 255 0 0
10.8891 7.81319 -5.11761 255 0 0
10.8474 7.82231 -5.11098 255 0 0
10.6718 7.83106 -5.07914 255 0 0
10.5382 7.82958 -5.05393 255 0 0
10.4646 7.83282 -5.04066 255 0 0
10.3635 7.85339 -5.02474 255 0 0
10.3085 7.8503 -5.01413 255 0 0
10.2672 7.85739 -5.0075 255 0 0
10.2169 7.85737 -4.99821 255 0 0
10.1757 7.86414 -4.99158 255 0 0
10.0432 7.87649 -4.96903 255 0 0
9.99763 7.8791 -4.96107 255 0 0
9.95657 7.88508 -4.95443 255 0 0
9.82021 7.8914 -4.93055 255 0 0
9.71354 7.90086 -4.91264 255 0 0
9.66552 7.91912 -4.90667 255 0 0
9.6115 7.91301 -4.89606 255 0 0
9.57074 7.9176 -4.88943 255 0 0
9.4211 7.94551 -4.86687 255 0 0
9.38048 7.94939 -4.86024 255 0 0
9.36161 7.97161 -4.86024 255 0 0
9.22135 7.88997 -4.82309 255 0 0
8.92975 7.88207 -4.77069 255 0 0
8.89955 7.91188 -4.77003 255 0 0
8.91479 7.96335 -4.78064 255 0 0
8.93408 8.01875 -4.79258 255 0 0
8.80091 8.01299 -4.7687 255 0 0
8.76506 8.01843 -4.7634 255 0 0
8.72599 8.03989 -4.76008 255 0 0
8.72034 8.09221 -4.76738 255 0 0
8.67859 8.28634 -4.79126 255 0 0
8.61596 8.38418 -4.79656 255 0 0
8.6412 8.48889 -4.81779 255 0 0
8.6454 8.53339 -4.82575 255 0 0
8.57254 8.52185 -4.81182 255 0 0
8.58449 8.59467 -4.82575 255 0 0
8.53514 8.66771 -4.82973 255 0 0
8.56646 8.74087 -4.84697 255 0 0
8.512 8.80978 -4.84963 255 0 0
8.52853 8.93227 -4.87284 255 0 0
8.49783 8.98505 -4.87682 255 0 0
8.50583 9.07934 -4.89407 255 0 0
8.5003 9.18191 -4.91065 255 0 0
8.50292 9.27256 -4.92657 255 0 0
8.53088 9.34745 -4.94382 255 0 0
8.50779 9.43385 -4.9551 255 0 0
8.47989 9.47043 -4.95709 255 0 0
11.5618 7.84739 -5.37316 255 0 0
11.4585 7.81704 -5.34842 255 0 0
11.3836 7.80556 -5.33194 255 0 0
11.3089 7.79377 -5.31545 255 0 0
11.0668 7.7828 -5.26599 255 0 0
11.0065 7.77945 -5.25362 255 0 0
10.9602 7.78575 -5.24537 255 0 0
10.8492 7.78454 -5.22339 255 0 0
10.7522 7.79248 -5.20553 255 0 0
10.5956 7.79456 -5.1753 255 0 0
10.467 7.81525 -5.15332 255 0 0
10.3662 7.81682 -5.13408 255 0 0
10.1788 7.82803 -5.09973 255 0 0
10.1332 7.83126 -5.09149 255 0 0
10.0693 7.83925 -5.0805 255 0 0
10.0011 7.84343 -5.06813 255 0 0
9.91021 7.84836 -5.05164 255 0 0
9.70248 7.83472 -5.01042 255 0 0
9.66619 7.84335 -5.00493 255 0 0
9.59367 7.86024 -4.99393 255 0 0
9.50366 7.86211 -4.97745 255 0 0
9.46748 7.87007 -4.97195 255 0 0
9.43132 7.8779 -4.96645 255 0 0
9.36841 7.88206 -4.95546 255 0 0
9.3186 7.89695 -4.94859 255 0 0
9.27385 7.89688 -4.94035 255 0 0
9.2378 7.90404 -4.93485 255 0 0
9.18882 7.89995 -4.92523 255 0 0
9.12547 7.92105 -4.91699 255 0 0
9.07153 7.93096 -4.90875 255 0 0
9.00909 7.93309 -4.89775 255 0 0
8.96166 7.94808 -4.89157 255 0 0
8.89725 7.94768 -4.87989 255 0 0
8.82362 7.99548 -4.8744 255 0 0
8.72681 7.98344 -4.85516 255 0 0
8.6114 7.99111 -4.83592 255 0 0
8.55264 8.0124 -4.82905 255 0 0
8.47814 8.03749 -4.82012 255 0 0
8.42006 8.07774 -4.81669 255 0 0
8.41598 8.07382 -4.81531 255 0 0
8.38021 8.13546 -4.81944 255 0 0
8.32898 8.24059 -4.82837 255 0 0
8.2981 8.30794 -4.83455 255 0 0
8.27668 8.38534 -4.84417 255 0 0
8.24876 8.43671 -4.84829 255 0 0
8.2544 8.50274 -4.86066 255 0 0
8.23002 8.53819 -4.86272 255 0 0
8.17997 8.64893 -4.87371 255 0 0
8.13943 8.79211 -4.89226 255 0 0
8.13013 8.82394 -4.89638 255 0 0
8.12366 8.88011 -4.90531 255 0 0
8.14151 9.00621 -4.93073 255 0 0
8.14028 9.26651 -4.97745 255 0 0
11.3557 7.78642 -5.44511 255 0 0
11.2905 7.78109 -5.4309 255 0 0
11.2113 7.76579 -5.41243 255 0 0
11.1278 7.7863 -5.39821 255 0 0
11.1418 7.83554 -5.40816 255 0 0
11.1742 7.898 -5.4238 255 0 0
11.0719 7.90469 -5.4039 255 0 0
10.9424 7.85144 -5.36979 255 0 0
10.7441 7.78658 -5.32004 255 0 0
10.6888 7.78528 -5.30867 255 0 0
10.6383 7.78711 -5.29873 255 0 0
10.4593 7.80949 -5.26604 255 0 0
10.4089 7.81041 -5.25609 255 0 0
10.3541 7.8077 -5.24472 255 0 0
10.322 7.82194 -5.24045 255 0 0
10.2627 7.81542 -5.22766 255 0 0
10.2126 7.81557 -5.21771 255 0 0
10.1715 7.82244 -5.21061 255 0 0
10.126 7.8257 -5.20208 255 0 0
10.0849 7.83226 -5.19497 255 0 0
9.91486 7.83292 -5.16157 255 0 0
9.79949 7.83658 -5.13955 255 0 0
9.70477 7.83657 -5.12107 255 0 0
9.66411 7.84166 -5.11396 255 0 0
9.61908 7.84302 -5.10544 255 0 0
9.40772 7.85818 -5.06706 255 0 0
9.31824 7.85876 -5.05001 255 0 0
9.27358 7.8588 -5.04148 255 0 0
9.21965 7.86959 -5.03295 255 0 0
9.13416 7.89069 -5.02016 255 0 0
9.01799 7.90305 -5.00026 255 0 0
8.96939 7.89814 -4.99031 255 0 0
8.81071 7.92689 -4.96544 255 0 0
8.7509 7.92958 -4.95478 255 0 0
8.573 7.95549 -4.92636 255 0 0
8.53334 7.95642 -4.91925 255 0 0
8.50617 7.96887 -4.91641 255 0 0
8.41633 7.99786 -4.90504 255 0 0
8.37552 8.01595 -4.90078 255 0 0
8.32515 8.04375 -4.89651 255 0 0
8.2666 8.06329 -4.88941 255 0 0
8.07124 8.27472 -4.89225 255 0 0
8.05954 8.32173 -4.89864 255 0 0
8.01596 8.37552 -4.90078 255 0 0
8.00764 8.42661 -4.90859 255 0 0
7.98737 8.46538 -4.91215 255 0 0
7.97429 8.53221 -4.92209 255 0 0
8.00182 9.46508 -5.10117 255 0 0
11.5837 7.78226 -5.61523 255 0 0
11.1925 7.83158 -5.53887 255 0 0
11.1925 7.87114 -5.54474 255 0 0
11.2154 7.9271 -5.55796 255 0 0
11.1827 7.94382 -5.55355 255 0 0
11.0053 8.01577 -5.52712 255 0 0
10.6524 7.79744 -5.41993 255 0 0
8.35787 7.86723 -4.97353 255 0 0
8.29581 7.88334 -4.96472 255 0 0
8.2566 7.88342 -4.95738 255 0 0
8.17181 7.91434 -4.9471 255 0 0
8.12738 7.92752 -4.94123 255 0 0
8.07557 7.95205 -4.93609 255 0 0
8.0257 7.97827 -4.93168 255 0 0
7.99127 8.00075 -4.92948 255 0 0
8.02893 7.88741 -5.31863 255 0 0
10.5866 7.78791 -5.63888 255 0 0
11.4465 7.76913 -5.70684 255 0 0
11.1633 7.85067 -5.65683 255 0 0
10.9508 7.77905 -5.59924 255 0 0
10.9093 7.78856 -5.59166 255 0 0
10.8448 7.78144 -5.57651 255 0 0
10.8034 7.79059 -5.56893 255 0 0
10.6516 7.83572 -5.54317 255 0 0
8.19946 7.86611 -5.04458 255 0 0
7.97606 7.92891 -5.01351 255 0 0
7.94288 7.9901 -5.01881 255 0 0
10.9259 7.80046 -5.717 255 0 0
10.7331 7.77864 -5.67013 255 0 0
10.6827 7.78081 -5.65919 255 0 0
8.47221 7.9182 -5.21078 255 0 0
8.31212 7.89884 -5.17484 255 0 0
8.59422 7.93733 -5.34406 255 0 0
8.56637 8.08266 -5.36659 255 0 0
8.63582 7.9002 -5.45111 255 0 0
8.6433 7.90704 -5.56018 255 0 0
8.54203 7.85169 -5.52613 255 0 0
9.07885 7.84291 -5.75537 255 0 0
9.01717 7.84579 -5.74137 255 0 0
8.95139 7.84468 -5.72563 255 0 0
8.63984 7.86633 -5.65741 255 0 0
8.31045 7.85984 -5.58045 255 0 0
8.62119 7.84935 -5.75619 255 0 0
11.5925 9.2704 -4.80852 255 0 0
11.4765 9.26721 -4.66424 255 0 0
11.5211 9.25822 -4.79654 255 0 0
11.5379 9.2268 -4.92269 255 0 0
