ply
format ascii 1.0
comment Created by Open3D
element vertex 403
property double x
property double y
property double z
property uchar red
property uchar green
property uchar blue
end_header
-14.4316 -2.96635 -4.91474 0 255 0
-13.2181 -2.19809 -5.47132 0 255 0
-14.4403 -2.38374 -4.89542 0 255 0
-13.8477 -2.03367 -5.37865 0 255 0
-14.0669 -2.92616 -5.09148 0 255 0
-15.1485 -3.03891 -5.45895 0 255 0
-15.0372 -2.68415 -4.89016 0 255 0
-13.5528 -2.45236 -5.20384 0 255 0
-13.283 -3.39371 -5.6735 0 255 0
-13.373 -2.09371 -5.38684 0 255 0
-13.9482 -2.01466 -5.40201 0 255 0
-13.3136 -3.13378 -5.30171 0 255 0
-13.6325 -3.14069 -5.25425 0 255 0
-13.2171 -2.58632 -5.36979 0 255 0
-15.1362 -2.29627 -4.89669 0 255 0
-14.2188 -3.27577 -5.13952 0 255 0
-13.2652 -2.98991 -5.52272 0 255 0
-14.3925 -2.07883 -5.25556 0 255 0
-15.0167 -3.12373 -4.90213 0 255 0
-15.0846 -2.03294 -5.275 0 255 0
-15.1469 -2.92666 -5.31934 0 255 0
-13.2859 -3.07743 -5.29209 0 255 0
-13.8543 -2.47301 -5.15067 0 255 0
-15.2085 -2.01294 -5.30087 0 255 0
-15.0392 -1.99053 -5.39627 0 255 0
-14.9812 -2.41833 -5.26515 0 255 0
-13.6683 -2.04044 -5.33606 0 255 0
-14.7184 -2.09028 -5.19864 0 255 0
-14.2 -1.98233 -5.46109 0 255 0
-14.1982 -2.32649 -5.22102 0 255 0
-13.4669 -3.4407 -5.4778 0 255 0
-14.443 -2.33145 -4.89428 0 255 0
-14.4224 -2.7158 -4.90337 0 255 0
-14.0829 -2.10234 -5.18776 0 255 0
-14.6274 -1.86549 -5.68957 0 255 0
-14.2496 -2.38698 -5.10873 0 255 0
-14.1474 -3.33004 -5.1272 0 255 0
-14.2566 -2.71959 -4.99683 0 255 0
-15.0031 -2.89888 -4.89125 0 255 0
-15.0765 -1.92277 -5.5355 0 255 0
-14.1973 -2.81307 -5.24021 0 255 0
-13.2105 -2.82983 -5.49996 0 255 0
-14.2147 -2.26002 -4.97196 0 255 0
-14.2886 -2.44579 -4.99328 0 255 0
-13.2621 -2.77517 -5.27079 0 255 0
-13.3421 -3.37514 -5.5653 0 255 0
-15.9945 -2.00132 -5.32836 0 255 0
-15.6829 -2.11358 -5.13064 0 255 0
-14.4326 -3.25302 -5.05485 0 255 0
-13.9096 -2.07646 -5.2715 0 255 0
-14.4464 -3.25614 -5.18632 0 255 0
-13.6809 -2.17515 -5.22241 0 255 0
-13.6743 -1.942 -5.70077 0 255 0
-13.2713 -2.97475 -5.28316 0 255 0
-14.2152 -2.39855 -4.9767 0 255 0
-14.2908 -2.9021 -5.01104 0 255 0
-14.3601 -3.12952 -5.03472 0 255 0
-13.2057 -2.81242 -5.37832 0 255 0
-14.2407 -2.26416 -5.10257 0 255 0
-14.2739 -3.25283 -5.02288 0 255 0
-13.9301 -1.97834 -5.52044 0 255 0
-13.2079 -2.37378 -5.47646 0 255 0
-15.1616 -3.11639 -5.33043 0 255 0
-14.1562 -3.36755 -5.1309 0 255 0
-14.5636 -1.92758 -5.54628 0 255 0
-13.2617 -2.12462 -5.4794 0 255 0
-14.3517 -3.1277 -5.16046 0 255 0
-15.1801 -3.08271 -5.33289 0 255 0
-13.2401 -2.16949 -5.47573 0 255 0
-16.0337 -1.96762 -5.47576 0 255 0
-13.2524 -3.21902 -5.533 0 255 0
-13.641 -2.60215 -5.23037 0 255 0
-16.3132 -1.88424 -5.67642 0 255 0
-13.1905 -2.48382 -5.4772 0 255 0
-13.1898 -2.2577 -5.5856 0 255 0
-14.5323 -2.02872 -5.28498 0 255 0
-14.4145 -2.48494 -4.89371 0 255 0
-14.0488 -1.99519 -5.42537 0 255 0
-15.2461 -2.12836 -5.04542 0 255 0
-13.4124 -3.47766 -5.58953 0 255 0
-14.7149 -1.91212 -5.582 0 255 0
-13.5783 -2.37394 -5.20649 0 255 0
-14.6121 -2.21677 -4.92383 0 255 0
-13.6525 -3.23064 -5.26354 0 255 0
-14.4075 -2.60701 -4.89656 0 255 0
-14.0048 -2.05673 -5.29273 0 255 0
-13.5413 -3.49394 -5.3759 0 255 0
-15.0378 -2.64749 -4.88907 0 255 0
-14.3057 -2.34409 -4.99328 0 255 0
-13.8828 -1.93806 -5.63138 0 255 0
-14.606 -2.18042 -4.92156 0 255 0
-15.0017 -3.19491 -4.90213 0 255 0
-13.4333 -3.36435 -5.34293 0 255 0
-13.585 -2.06094 -5.43801 0 255 0
-15.0286 -2.38942 -4.87927 0 255 0
-13.2637 -3.17186 -5.533 0 255 0
-14.2672 -2.12984 -5.1038 0 255 0
-13.2696 -2.58025 -5.26324 0 255 0
-13.2496 -2.07438 -5.47426 0 255 0
-13.2011 -2.77872 -5.49482 0 255 0
-13.625 -2.1994 -5.21047 0 255 0
-14.24 -3.13874 -5.26451 0 255 0
-14.6036 -3.27337 -4.96076 0 255 0
-13.2353 -2.91728 -5.39111 0 255 0
-15.0173 -2.06014 -5.26145 0 255 0
-13.5665 -1.99237 -5.4309 0 255 0
-14.7505 -2.13054 -5.07734 0 255 0
-15.167 -2.154 -5.03064 0 255 0
-13.6479 -2.23631 -5.21711 0 255 0
-13.3062 -3.16534 -5.30171 0 255 0
-13.9498 -2.25184 -5.16346 0 255 0
-16.1331 -1.74724 -5.63292 0 255 0
-15.0109 -2.5328 -4.88036 0 255 0
-16.1687 -1.78989 -5.64188 0 255 0
-13.7501 -3.40905 -5.29538 0 255 0
-15.3979 -1.92667 -5.60979 0 255 0
-15.0101 -2.60592 -4.88254 0 255 0
-14.9652 -2.56159 -4.87274 0 255 0
-14.4709 -2.2656 -4.89769 0 255 0
-13.3533 -2.02579 -5.61894 0 255 0
-13.2636 -3.35527 -5.66592 0 255 0
-16.1587 -1.82758 -5.6406 0 255 0
-15.0566 -2.50381 -4.88798 0 255 0
-13.879 -2.88708 -5.17369 0 255 0
-14.4084 -2.81942 -4.90451 0 255 0
-14.0867 -2.61802 -5.08286 0 255 0
-13.6513 -3.33307 -5.26885 0 255 0
-15.0666 -3.1714 -5.17917 0 255 0
-13.8257 -2.09746 -5.25293 0 255 0
-13.279 -3.05925 -5.40958 0 255 0
-15.057 -1.88401 -5.66307 0 255 0
-14.9765 -3.00439 -4.89016 0 255 0
-14.4945 -3.08688 -4.93178 0 255 0
-15.8094 -2.09247 -5.29284 0 255 0
-13.2038 -2.68137 -5.49041 0 255 0
-13.8292 -3.11703 -5.17369 0 255 0
-13.2545 -3.03707 -5.52272 0 255 0
-14.9608 -2.01626 -5.37964 0 255 0
-13.3684 -3.24721 -5.32094 0 255 0
-13.172 -2.15834 -5.57651 0 255 0
-14.3515 -2.10765 -5.12104 0 255 0
-15.0568 -2.32076 -4.88254 0 255 0
-14.2925 -2.62121 -5.00038 0 255 0
-14.7816 -2.17082 -4.95565 0 255 0
-14.4056 -2.85436 -5.03235 0 255 0
-15.1868 -2.23032 -4.90431 0 255 0
-15.0171 -2.46066 -4.87927 0 255 0
-15.1451 -3.11301 -5.46151 0 255 0
-14.4343 -3.0383 -4.91815 0 255 0
-14.3005 -1.96181 -5.48445 0 255 0
-13.1798 -2.41716 -5.47132 0 255 0
-13.2876 -2.4858 -5.26324 0 255 0
-14.2825 -2.51451 -4.99446 0 255 0
-14.3466 -2.0028 -5.36967 0 255 0
-13.3694 -2.22324 -5.39111 0 255 0
-14.599 -1.9675 -5.42672 0 255 0
-15.1345 -1.96665 -5.41674 0 255 0
-16.152 -1.98213 -5.64316 0 255 0
-13.4966 -2.14585 -5.29896 0 255 0
-13.4697 -3.47546 -5.48065 0 255 0
-15.1506 -2.48254 -5.30333 0 255 0
-15.2997 -2.17284 -4.9239 0 255 0
-15.2546 -2.20335 -4.91628 0 255 0
-15.1928 -2.26802 -4.90649 0 255 0
-15.0967 -2.36357 -4.89125 0 255 0
-15.0342 -2.42688 -4.88145 0 255 0
-14.9798 -2.71058 -4.88036 0 255 0
-15.0582 -2.76165 -4.89669 0 255 0
-15.0234 -2.79209 -4.89125 0 255 0
-14.9375 -2.8128 -4.87601 0 255 0
-15.0439 -2.86977 -4.89778 0 255 0
-15.0188 -2.93887 -4.8956 0 255 0
-15.1134 -2.9946 -4.9152 0 255 0
-15.0482 -3.05592 -4.9054 0 255 0
-15.0579 -3.09507 -4.90867 0 255 0
-15.0599 -3.17 -4.91193 0 255 0
-13.2149 -2.92921 -5.50657 0 255 0
-14.9258 -2.11975 -5.11286 0 255 0
-14.1655 -2.73705 -5.22998 0 255 0
-13.3496 -3.27619 -5.3182 0 255 0
-13.2592 -2.67627 -5.2653 0 255 0
-15.8018 -2.09146 -5.15337 0 255 0
-15.5072 -2.12734 -5.09655 0 255 0
-15.0255 -2.17025 -5.00337 0 255 0
-14.5217 -2.23828 -4.90678 0 255 0
-14.4939 -2.30441 -4.90337 0 255 0
-14.4091 -2.43125 -4.89087 0 255 0
-14.4197 -2.53866 -4.89656 0 255 0
-14.408 -2.57183 -4.89542 0 255 0
-14.4408 -2.64842 -4.90451 0 255 0
-14.4232 -2.68055 -4.90224 0 255 0
-14.4442 -2.75537 -4.90906 0 255 0
-14.3812 -2.77872 -4.89769 0 255 0
-14.4355 -2.86028 -4.91133 0 255 0
-14.4287 -2.8945 -4.91133 0 255 0
-14.4724 -2.93899 -4.92156 0 255 0
-14.5202 -3.02045 -4.93406 0 255 0
-14.4871 -3.12124 -4.93178 0 255 0
-14.5264 -3.1838 -4.94201 0 255 0
-14.5275 -3.31063 -4.94769 0 255 0
-14.2235 -2.67835 -4.98854 0 255 0
-14.2993 -2.9745 -5.01577 0 255 0
-13.1995 -2.13071 -5.58257 0 255 0
-14.0817 -2.58255 -5.0804 0 255 0
-16.1271 -1.9015 -5.63548 0 255 0
-15.8817 -2.02545 -5.30586 0 255 0
-15.8484 -2.05941 -5.29994 0 255 0
-15.1679 -2.04416 -5.16023 0 255 0
-14.9706 -2.0899 -5.12115 0 255 0
-14.6149 -2.14634 -5.05011 0 255 0
-14.4226 -2.15305 -5.01104 0 255 0
-14.3325 -2.17434 -4.99328 0 255 0
-14.3046 -2.20482 -4.98854 0 255 0
-15.0924 -2.43628 -5.15667 0 255 0
-14.2605 -2.37142 -4.98499 0 255 0
-14.2314 -2.54031 -4.98499 0 255 0
-14.2704 -2.58221 -4.99446 0 255 0
-14.2524 -2.64881 -4.99328 0 255 0
-14.2301 -2.85467 -4.99683 0 255 0
-14.2726 -2.93367 -5.00867 0 255 0
-14.7842 -3.14859 -5.12115 0 255 0
-14.6253 -3.15102 -5.08918 0 255 0
-14.4254 -3.17961 -5.05011 0 255 0
-14.4179 -3.2138 -5.05011 0 255 0
-14.4505 -3.32915 -5.06195 0 255 0
-13.2296 -2.23225 -5.47573 0 255 0
-14.1023 -2.69016 -5.08902 0 255 0
-16.152 -1.94328 -5.5004 0 255 0
-16.0517 -2.00848 -5.48069 0 255 0
-15.9958 -2.04001 -5.4696 0 255 0
-15.9001 -2.06613 -5.4499 0 255 0
-14.882 -2.07754 -5.23312 0 255 0
-14.5094 -2.09571 -5.1543 0 255 0
-14.1772 -2.15079 -5.08532 0 255 0
-14.1607 -2.18265 -5.08286 0 255 0
-14.099 -2.20736 -5.07054 0 255 0
-14.2749 -2.44344 -5.11612 0 255 0
-14.1788 -2.46161 -5.09641 0 255 0
-14.0377 -2.4714 -5.06685 0 255 0
-14.0148 -2.50166 -5.06315 0 255 0
-13.9807 -2.52979 -5.057 0 255 0
-14.0299 -2.64188 -5.07178 0 255 0
-15.1792 -2.97026 -5.32796 0 255 0
-15.2078 -3.03206 -5.33658 0 255 0
-14.1944 -2.98781 -5.12104 0 255 0
-14.372 -3.0608 -5.16169 0 255 0
-14.3983 -3.1021 -5.16908 0 255 0
-14.3219 -3.15679 -5.15553 0 255 0
-14.0853 -3.13968 -5.10503 0 255 0
-14.3438 -3.26876 -5.16538 0 255 0
-14.1218 -3.2887 -5.11981 0 255 0
-13.4705 -1.97828 -5.52712 0 255 0
-13.4475 -2.00749 -5.64319 0 255 0
-13.6876 -2.27615 -5.22772 0 255 0
-14.745 -1.95159 -5.45988 0 255 0
-16.1339 -1.9411 -5.63804 0 255 0
-16.1756 -2.02397 -5.64955 0 255 0
-14.8201 -2.03309 -5.34894 0 255 0
-14.4879 -2.05755 -5.27603 0 255 0
-14.1557 -2.0789 -5.20311 0 255 0
-14.0101 -2.12544 -5.17241 0 255 0
-13.9429 -2.14908 -5.15834 0 255 0
-13.9378 -2.18213 -5.15834 0 255 0
-13.8874 -2.20799 -5.14811 0 255 0
-13.8319 -2.30016 -5.13915 0 255 0
-13.8715 -2.34055 -5.14939 0 255 0
-13.8321 -2.36765 -5.14171 0 255 0
-14.1641 -2.47638 -5.2191 0 255 0
-13.8934 -2.51399 -5.1609 0 255 0
-13.8649 -2.5428 -5.15578 0 255 0
-14.2127 -2.64144 -5.23637 0 255 0
-14.2064 -2.67513 -5.23637 0 255 0
-14.172 -2.70345 -5.22998 0 255 0
-14.159 -2.77063 -5.22998 0 255 0
-15.0853 -3.06345 -5.44616 0 255 0
-14.1741 -2.98354 -5.24277 0 255 0
-14.2396 -3.03261 -5.2594 0 255 0
-14.2156 -3.06275 -5.25556 0 255 0
-14.2307 -3.10131 -5.26068 0 255 0
-13.9871 -3.11779 -5.20823 0 255 0
-13.8998 -3.16758 -5.1916 0 255 0
-13.8477 -3.19027 -5.18137 0 255 0
-13.8512 -3.22568 -5.18392 0 255 0
-13.8602 -3.26244 -5.18776 0 255 0
-13.908 -3.30852 -5.20055 0 255 0
-13.9668 -3.35751 -5.2159 0 255 0
-13.9255 -3.38253 -5.20823 0 255 0
-13.5781 -2.65695 -5.21843 0 255 0
-13.2603 -2.62743 -5.26324 0 255 0
-13.3437 -3.3251 -5.44085 0 255 0
-13.5821 -2.72467 -5.22241 0 255 0
-14.9588 -1.94381 -5.50897 0 255 0
-14.4643 -1.98428 -5.3962 0 255 0
-14.2346 -2.02157 -5.34447 0 255 0
-14.1281 -2.04064 -5.32059 0 255 0
-13.7305 -2.11633 -5.2317 0 255 0
-13.6635 -2.13918 -5.21711 0 255 0
-13.6484 -2.3029 -5.21976 0 255 0
-13.626 -2.33237 -5.21578 0 255 0
-13.6708 -2.44026 -5.23037 0 255 0
-13.5918 -2.49271 -5.21445 0 255 0
-13.6531 -2.53744 -5.23037 0 255 0
-13.591 -2.55925 -5.21711 0 255 0
-13.5956 -2.62691 -5.22109 0 255 0
-13.5997 -2.69468 -5.22507 0 255 0
-13.5723 -2.77296 -5.22241 0 255 0
-13.5702 -2.83962 -5.22507 0 255 0
-13.6214 -2.90094 -5.23966 0 255 0
-13.6368 -2.93803 -5.24497 0 255 0
-13.6011 -2.98101 -5.239 0 255 0
-13.5877 -3.02875 -5.23833 0 255 0
-13.6046 -3.08336 -5.24497 0 255 0
-13.6639 -3.18206 -5.26354 0 255 0
-13.6797 -3.2885 -5.27283 0 255 0
-13.6922 -3.42917 -5.28344 0 255 0
-15.2027 -1.86564 -5.69742 0 255 0
-14.8041 -1.88802 -5.60261 0 255 0
-14.3672 -1.93626 -5.49956 0 255 0
-13.7028 -2.07882 -5.34568 0 255 0
-13.591 -2.09483 -5.31957 0 255 0
-13.541 -2.12 -5.30858 0 255 0
-13.3903 -2.16151 -5.27423 0 255 0
-13.3177 -2.18221 -5.25774 0 255 0
-13.3099 -2.22956 -5.25774 0 255 0
-13.2906 -2.27497 -5.25499 0 255 0
-13.2908 -2.30744 -5.25637 0 255 0
-13.2965 -2.34092 -5.25911 0 255 0
-13.2797 -2.37044 -5.25637 0 255 0
-13.2853 -2.40395 -5.25911 0 255 0
-13.2571 -2.43134 -5.25362 0 255 0
-13.2675 -2.53091 -5.26049 0 255 0
-13.2692 -2.72741 -5.27011 0 255 0
-13.2828 -2.82884 -5.27835 0 255 0
-13.2538 -2.85553 -5.27285 0 255 0
-13.2804 -2.89422 -5.2811 0 255 0
-13.2624 -2.92325 -5.27835 0 255 0
-13.2634 -3.02257 -5.28385 0 255 0
-13.3318 -3.20487 -5.30995 0 255 0
-13.3695 -3.31468 -5.32507 0 255 0
-13.3977 -3.38921 -5.33606 0 255 0
-13.5165 -3.45337 -5.36766 0 255 0
-13.3665 -3.28033 -5.44369 0 255 0
-14.4494 -1.91247 -5.64693 0 255 0
-14.3717 -1.93686 -5.62846 0 255 0
-14.1194 -1.93696 -5.56592 0 255 0
-13.7511 -1.98619 -5.47638 0 255 0
-13.4846 -2.07844 -5.41385 0 255 0
-13.3632 -2.17339 -5.38755 0 255 0
-13.2635 -2.27032 -5.36695 0 255 0
-13.2917 -2.30759 -5.37547 0 255 0
-13.2079 -2.32531 -5.35558 0 255 0
-13.2023 -2.38893 -5.357 0 255 0
-13.2245 -2.42535 -5.3641 0 255 0
-13.2186 -2.47288 -5.36481 0 255 0
-13.1953 -2.54958 -5.36268 0 255 0
-13.2047 -2.64896 -5.36979 0 255 0
-13.204 -2.68139 -5.37121 0 255 0
-13.2254 -2.71841 -5.37832 0 255 0
-13.2434 -2.85329 -5.38969 0 255 0
-13.2553 -2.97115 -5.39892 0 255 0
-13.2828 -3.0933 -5.41243 0 255 0
-13.2975 -3.12999 -5.41811 0 255 0
-13.3212 -3.20231 -5.42806 0 255 0
-13.3577 -3.24461 -5.43943 0 255 0
-13.3979 -3.38926 -5.45791 0 255 0
-13.2576 -2.07564 -5.71544 0 255 0
-14.2166 -1.88165 -5.71508 0 255 0
-13.6537 -1.93909 -5.57264 0 255 0
-13.6211 -1.9674 -5.5653 0 255 0
-13.3537 -1.99347 -5.49775 0 255 0
-13.2817 -2.01493 -5.48013 0 255 0
-13.3161 -2.05246 -5.49041 0 255 0
-13.1937 -2.27448 -5.46839 0 255 0
-13.2134 -2.32629 -5.47573 0 255 0
-13.1852 -2.45047 -5.47426 0 255 0
-13.2122 -2.53661 -5.48527 0 255 0
-13.2392 -2.59065 -5.49482 0 255 0
-13.2331 -2.62203 -5.49482 0 255 0
-13.2101 -2.65005 -5.49041 0 255 0
-13.1997 -2.72946 -5.49188 0 255 0
-13.2086 -2.87858 -5.50216 0 255 0
-13.2271 -3.08033 -5.51831 0 255 0
-13.2473 -3.11818 -5.52565 0 255 0
-13.2997 -3.26394 -5.54768 0 255 0
-13.281 -3.29274 -5.54474 0 255 0
-13.3391 -3.34074 -5.56236 0 255 0
-13.4274 -3.43062 -5.59026 0 255 0
-13.7124 -1.91427 -5.70987 0 255 0
-13.5633 -1.95906 -5.67198 0 255 0
-13.5138 -1.98463 -5.65986 0 255 0
-13.2255 -2.03849 -5.5856 0 255 0
-13.2544 -2.09123 -5.59545 0 255 0
-13.1892 -2.19328 -5.58257 0 255 0
-13.1672 -2.22172 -5.57802 0 255 0
-13.2498 -3.23504 -5.65455 0 255 0
-13.2793 -3.29234 -5.66592 0 255 0
-13.2441 -3.31695 -5.65834 0 255 0
-13.3023 -3.43226 -5.68107 0 255 0
-13.3488 -3.47805 -5.69623 0 255 0
-13.357 -3.51401 -5.70077 0 255 0
-13.2067 -2.0356 -5.69981 0 255 0
-13.2025 -2.09909 -5.70138 0 255 0
-13.1587 -2.14013 -5.69122 0 255 0
