ply
format ascii 1.0
comment Created by Open3D
element vertex 93
property double x
property double y
property double z
property uchar red
property uchar green
property uchar blue
end_header
-33.0992 13.5151 -4.8287 255 0 0
-32.4707 12.2806 -5.61957 255 0 0
-34.6308 12.3521 -4.90906 255 0 0
-33.0664 12.7755 -4.80469 255 0 0
-35.7504 12.3705 -4.99311 255 0 0
-33.4474 12.3788 -4.82177 255 0 0
-33.5111 12.8561 -5.441 255 0 0
-32.8268 12.3265 -5.36165 255 0 0
-32.3924 12.251 -5.90206 255 0 0
-33.8058 12.3295 -5.14819 255 0 0
-33.3127 12.2393 -5.70032 255 0 0
-33.118 12.8858 -5.70518 255 0 0
-34.9605 12.3763 -5.24465 255 0 0
-35.4564 12.3629 -4.97095 255 0 0
-33.1106 12.3435 -5.09155 255 0 0
-32.7625 12.391 -5.0645 255 0 0
-34.0247 14.0817 -5.83937 255 0 0
-32.4024 14.0446 -5.68211 255 0 0
-33.1919 12.824 -5.71004 255 0 0
-36.2672 12.357 -5.03144 255 0 0
-33.0578 12.8624 -4.80653 255 0 0
-33.1318 13.6202 -4.83424 255 0 0
-32.7524 12.565 -5.06909 255 0 0
-36.2476 12.3504 -5.67122 255 0 0
-32.9216 13.8084 -5.42256 255 0 0
-33.0979 13.3319 -4.82316 255 0 0
-33.6465 12.3619 -4.83609 255 0 0
-33.221 12.3847 -4.80515 255 0 0
-34.8496 13.6548 -5.90252 255 0 0
-32.774 12.7519 -5.07675 255 0 0
-35.1516 12.3502 -4.94785 255 0 0
-32.8124 13.58 -5.10686 255 0 0
-33.0644 13.2273 -4.81762 255 0 0
-33.2945 12.3222 -5.70154 255 0 0
-32.8203 12.5019 -5.07267 255 0 0
-33.2657 12.762 -5.7149 255 0 0
-32.6939 12.3651 -5.35104 255 0 0
-32.8068 13.4866 -5.10329 255 0 0
-34.6211 12.2561 -4.59884 255 0 0
-33.074 13.1403 -4.81577 255 0 0
-33.1153 13.7974 -4.8384 255 0 0
-33.1965 13.7389 -4.84256 255 0 0
-33.0716 13.4125 -4.82362 255 0 0
-33.0996 13.0597 -4.81531 255 0 0
-33.0598 12.9535 -4.80931 255 0 0
-33.0476 12.6783 -4.80053 255 0 0
-33.0666 12.5957 -4.79961 255 0 0
-33.1073 12.5214 -4.80053 255 0 0
-33.1205 12.4367 -4.79914 255 0 0
-33.917 12.3701 -4.85641 255 0 0
-34.1493 12.3631 -4.8735 255 0 0
-34.3762 12.3532 -4.89013 255 0 0
-34.8966 12.3537 -4.92892 255 0 0
-36.0556 12.3804 -5.0162 255 0 0
-33.5167 12.2241 -5.71975 255 0 0
-32.8797 14.0666 -5.1288 255 0 0
-32.9237 13.9932 -5.12982 255 0 0
-32.8655 13.8765 -5.12115 255 0 0
-32.8445 13.776 -5.11604 255 0 0
-32.807 13.6689 -5.10941 255 0 0
-32.7846 13.3867 -5.09818 255 0 0
-32.7785 13.2936 -5.09461 255 0 0
-32.8099 13.2159 -5.09461 255 0 0
-32.7545 13.1034 -5.08644 255 0 0
-32.7367 13.0063 -5.08185 255 0 0
-32.762 12.9265 -5.08134 255 0 0
-32.7925 12.8488 -5.08134 255 0 0
-32.8259 12.6826 -5.07879 255 0 0
-32.8901 12.3502 -5.07369 255 0 0
-33.3531 12.3439 -5.11145 255 0 0
-33.5191 12.3151 -5.12421 255 0 0
-36.2808 12.3617 -5.35334 255 0 0
-32.621 12.426 -5.34657 255 0 0
-33.1692 13.5437 -5.73554 255 0 0
-32.9543 13.5472 -5.41586 255 0 0
-32.7529 14.0124 -5.4153 255 0 0
-32.8557 13.9643 -5.42256 255 0 0
-32.8404 13.866 -5.41753 255 0 0
-32.922 13.7168 -5.41921 255 0 0
-32.8844 13.6097 -5.41195 255 0 0
-33.3933 12.3588 -5.41362 255 0 0
-33.5374 12.3218 -5.42536 255 0 0
-36.5142 12.3446 -5.69525 255 0 0
-32.5426 14.0138 -5.69425 255 0 0
-32.5436 13.9228 -5.69061 255 0 0
-32.5176 13.8206 -5.68393 255 0 0
-33.2101 14.0221 -5.75862 255 0 0
-33.2713 13.4935 -5.74344 255 0 0
-34.4163 13.5792 -5.85759 255 0 0
-32.4197 12.3493 -5.61714 255 0 0
-35.0296 12.6818 -5.88431 255 0 0
-35.1198 12.6204 -5.89099 255 0 0
-32.3307 12.3154 -5.89813 255 0 0
