ply
format ascii 1.0
comment Created by Open3D
element vertex 294
property double x
property double y
property double z
property uchar red
property uchar green
property uchar blue
end_header
-3.03967 -2.44264 -3.66289 255 0 0
-2.94512 -2.45607 -3.63533 255 0 0
-2.31803 -2.22379 -3.46552 255 0 0
-2.15215 -2.2169 -3.40962 255 0 0
-2.7292 -2.83812 -3.60226 255 0 0
-2.65345 -2.39867 -3.56061 255 0 0
-2.9002 -3.00522 -3.6592 255 0 0
-2.94208 -2.21301 -3.64277 255 0 0
-3.27296 -2.57941 -3.73627 255 0 0
-3.13373 -2.57995 -3.69123 255 0 0
-3.14316 -2.91676 -3.70351 255 0 0
-3.03056 -2.471 -3.66749 255 0 0
-3.23973 -2.90781 -3.72946 255 0 0
-3.24669 -2.71193 -3.72144 255 0 0
-2.89853 -2.95754 -3.64515 255 0 0
-2.5539 -2.44137 -3.57656 255 0 0
-2.00737 -2.44414 -3.47484 255 0 0
-3.18884 -2.34583 -3.68816 255 0 0
-1.80665 -2.75214 -3.50197 255 0 0
-2.33275 -2.38025 -3.45407 255 0 0
-2.74692 -2.78299 -3.59123 255 0 0
-2.10461 -3.53475 -3.63434 255 0 0
-2.14375 -2.18534 -3.3844 255 0 0
-2.75018 -2.83293 -3.60668 255 0 0
-3.20522 -2.40505 -3.70883 255 0 0
-2.8036 -2.20589 -3.62754 255 0 0
-3.19768 -2.89756 -3.71432 255 0 0
-3.20091 -3.42486 -3.81739 255 0 0
-2.84155 -2.67469 -3.62592 255 0 0
-2.55882 -2.49 -3.57546 255 0 0
-2.94034 -2.59845 -3.63493 255 0 0
-2.79785 -2.8012 -3.61109 255 0 0
-2.79373 -2.49951 -3.59858 255 0 0
-2.67748 -2.53832 -3.57332 255 0 0
-2.04053 -2.32835 -3.3815 255 0 0
-2.85599 -2.46128 -3.60777 255 0 0
-3.04195 -2.23775 -3.68513 255 0 0
-2.84095 -2.19554 -3.63807 255 0 0
-2.89341 -2.2915 -3.62861 255 0 0
-2.70954 -2.80434 -3.58681 255 0 0
-2.99767 -2.29974 -3.64841 255 0 0
-2.37874 -2.23202 -3.4882 255 0 0
-2.69053 -2.27272 -3.57159 255 0 0
-3.01232 -2.61474 -3.66195 255 0 0
-2.49587 -2.29405 -3.51274 255 0 0
-2.61279 -2.89029 -3.54786 255 0 0
-3.14722 -2.67563 -3.68098 255 0 0
-2.99138 -2.2115 -3.69721 255 0 0
-3.17069 -2.88682 -3.70351 255 0 0
-2.86018 -2.82313 -3.63537 255 0 0
-1.844 -2.52544 -3.42663 255 0 0
-2.28188 -2.21522 -3.45093 255 0 0
-2.86074 -2.34386 -3.62274 255 0 0
-3.10645 -2.73106 -3.68318 255 0 0
-3.02862 -2.42197 -3.6537 255 0 0
-2.11722 -2.16032 -3.4105 255 0 0
-2.8018 -2.51475 -3.60547 255 0 0
-3.20998 -3.25983 -3.77364 255 0 0
-3.09674 -2.66238 -3.66185 255 0 0
-3.0032 -2.74739 -3.65633 255 0 0
-3.19435 -2.38807 -3.70079 255 0 0
-2.59052 -2.63073 -3.57446 255 0 0
-3.20544 -2.2316 -3.82128 255 0 0
-3.11366 -2.2398 -3.69241 255 0 0
-2.64068 -2.55143 -3.56585 255 0 0
-3.23473 -2.252 -3.77846 255 0 0
-2.706 -2.68788 -3.58914 255 0 0
-2.52864 -2.64206 -3.55954 255 0 0
-3.18729 -2.33307 -3.72334 255 0 0
-2.18778 -2.23234 -3.45752 255 0 0
-2.28491 -2.42165 -3.38721 255 0 0
-3.16134 -2.64065 -3.67619 255 0 0
-3.2553 -2.54061 -3.7205 255 0 0
-2.24466 -2.30125 -3.40256 255 0 0
-2.15622 -3.51629 -3.63866 255 0 0
-2.89299 -2.1977 -3.65752 255 0 0
-2.94858 -2.97313 -3.66352 255 0 0
-2.14729 -2.23297 -3.3885 255 0 0
-2.94409 -2.74503 -3.63801 255 0 0
-3.11232 -2.42897 -3.68356 255 0 0
-2.11165 -2.23452 -3.37701 255 0 0
-2.64518 -2.29386 -3.56237 255 0 0
-2.84898 -2.78551 -3.62139 255 0 0
-2.46409 -2.3978 -3.53421 255 0 0
-3.01759 -2.20884 -3.70612 255 0 0
-3.033 -2.40783 -3.65141 255 0 0
-2.9692 -2.71628 -3.63757 255 0 0
-2.78773 -3.04008 -3.63866 255 0 0
-3.10192 -2.23684 -3.73198 255 0 0
-2.54393 -2.33275 -3.54018 255 0 0
-2.65337 -2.77238 -3.5989 255 0 0
-1.83561 -2.59054 -3.4485 255 0 0
-3.17883 -2.24681 -3.73702 255 0 0
-2.69982 -2.38304 -3.57114 255 0 0
-3.19689 -2.25952 -3.76636 255 0 0
-3.08604 -2.29853 -3.67885 255 0 0
-2.57821 -2.24872 -3.54361 255 0 0
-2.7457 -2.34933 -3.57661 255 0 0
-3.1691 -2.59649 -3.70699 255 0 0
-2.09168 -3.58029 -3.64731 255 0 0
-2.69366 -2.19894 -3.58643 255 0 0
-2.59598 -2.22648 -3.5603 255 0 0
-2.77461 -2.67447 -3.60565 255 0 0
-2.6929 -2.35432 -3.56061 255 0 0
-3.09085 -2.70221 -3.67068 255 0 0
-2.42017 -2.36626 -3.51035 255 0 0
-2.16196 -2.29134 -3.37446 255 0 0
-2.14886 -2.23723 -3.43872 255 0 0
-2.36878 -2.32702 -3.48172 255 0 0
-2.12001 -2.20461 -3.3648 255 0 0
-2.30997 -2.28005 -3.44831 255 0 0
-2.53235 -2.67119 -3.53359 255 0 0
-2.33572 -2.20907 -3.46673 255 0 0
-2.54776 -2.23815 -3.53863 255 0 0
-2.88833 -2.75123 -3.62323 255 0 0
-3.1978 -2.56971 -3.70924 255 0 0
-2.61319 -2.21452 -3.56273 255 0 0
-2.8601 -3.00975 -3.64947 255 0 0
-2.56005 -2.55096 -3.54116 255 0 0
-3.11968 -2.81344 -3.66893 255 0 0
-2.86555 -2.60901 -3.61466 255 0 0
-2.62204 -2.2651 -3.54614 255 0 0
-2.85177 -2.76192 -3.6155 255 0 0
-3.15734 -2.82037 -3.6819 255 0 0
-3.00009 -2.57928 -3.64844 255 0 0
-2.25162 -2.21189 -3.44 255 0 0
-3.16515 -2.24278 -3.80891 255 0 0
-3.1447 -2.29961 -3.69204 255 0 0
-2.99853 -2.70414 -3.64309 255 0 0
-2.77541 -2.83864 -3.6155 255 0 0
-3.09059 -2.93695 -3.69379 255 0 0
-2.06708 -2.1804 -3.37073 255 0 0
-2.70349 -2.5813 -3.59399 255 0 0
-2.78649 -2.65424 -3.6034 255 0 0
-2.20061 -2.20844 -3.42238 255 0 0
-2.89275 -2.45142 -3.61696 255 0 0
-3.11994 -2.19411 -3.74015 255 0 0
-3.11056 -3.2347 -3.73978 255 0 0
-1.89119 -2.23702 -3.36596 255 0 0
-2.9944 -2.96966 -3.67541 255 0 0
-2.74403 -3.02104 -3.62137 255 0 0
-2.43741 -2.23615 -3.4958 255 0 0
-2.87974 -2.60946 -3.61917 255 0 0
-2.17873 -3.5248 -3.64623 255 0 0
-2.27576 -2.20406 -3.47732 255 0 0
-2.55686 -2.48218 -3.55475 255 0 0
-3.11953 -2.28347 -3.72509 255 0 0
-3.1028 -2.58549 -3.68278 255 0 0
-3.16403 -3.22844 -3.75248 255 0 0
-3.21235 -3.35644 -3.80116 255 0 0
-3.20641 -3.38219 -3.8068 255 0 0
-3.13735 -3.39698 -3.79269 255 0 0
-3.11786 -3.40008 -3.78846 255 0 0
-3.02559 -3.39518 -3.76306 255 0 0
-3.05101 -3.45653 -3.7874 255 0 0
-3.0781 -3.48725 -3.80328 255 0 0
-2.99326 -3.42372 -3.76306 255 0 0
-1.81904 -2.75674 -3.50683 255 0 0
-3.16785 -2.898 -3.70568 255 0 0
-3.17699 -2.92024 -3.71432 255 0 0
-3.1101 -2.87238 -3.6819 255 0 0
-3.14516 -2.94652 -3.71216 255 0 0
-3.11625 -2.96131 -3.70784 255 0 0
-3.04558 -2.94263 -3.68244 255 0 0
-3.04269 -2.97491 -3.69054 255 0 0
-2.99006 -2.95597 -3.67037 255 0 0
-2.88447 -2.97125 -3.64515 255 0 0
-2.84594 -3.0306 -3.65163 255 0 0
-2.80427 -3.00996 -3.63434 255 0 0
-2.23835 -3.55495 -3.66893 255 0 0
-2.20839 -3.5352 -3.65595 255 0 0
-2.15175 -3.54663 -3.64803 255 0 0
-2.06695 -3.53801 -3.62785 255 0 0
-2.99402 -2.44121 -3.64739 255 0 0
-2.96972 -2.46865 -3.64681 255 0 0
-3.18594 -2.69989 -3.69937 255 0 0
-3.05336 -2.7405 -3.66957 255 0 0
-2.87783 -2.77397 -3.62654 255 0 0
-2.78802 -2.76498 -3.59785 255 0 0
-2.77104 -2.77433 -3.59564 255 0 0
-2.70221 -2.85036 -3.59829 255 0 0
-2.64511 -2.8504 -3.5824 255 0 0
-2.66481 -2.90602 -3.60447 255 0 0
-2.12337 -3.61484 -3.70599 255 0 0
-1.98348 -3.39508 -3.60005 255 0 0
-3.29902 -2.53713 -3.73402 255 0 0
-3.20846 -2.504 -3.69573 255 0 0
-3.23742 -2.57639 -3.72388 255 0 0
-3.18034 -2.53096 -3.69348 255 0 0
-3.14781 -2.55417 -3.68898 255 0 0
-3.05445 -2.59469 -3.66984 255 0 0
-3.05123 -2.63586 -3.67997 255 0 0
-3.01018 -2.62543 -3.66421 255 0 0
-2.94861 -2.63391 -3.64732 255 0 0
-2.89466 -2.62918 -3.6293 255 0 0
-2.92875 -2.69206 -3.65745 255 0 0
-2.84182 -2.63085 -3.61354 255 0 0
-2.81236 -2.63472 -3.60565 255 0 0
-2.73057 -2.63834 -3.58201 255 0 0
-2.76437 -2.67728 -3.6034 255 0 0
-2.69737 -2.65816 -3.57788 255 0 0
-2.70548 -2.72156 -3.5989 255 0 0
-2.64761 -2.69514 -3.57413 255 0 0
-2.64095 -2.74307 -3.58651 255 0 0
-3.14235 -2.40479 -3.68739 255 0 0
-3.08495 -2.39981 -3.66672 255 0 0
-3.0627 -2.4137 -3.66289 255 0 0
-2.90231 -2.4872 -3.62997 255 0 0
-2.83959 -2.49651 -3.61236 255 0 0
-2.81116 -2.46361 -3.59399 255 0 0
-2.80182 -2.53885 -3.61236 255 0 0
-2.75597 -2.50923 -3.58939 255 0 0
-2.74279 -2.53312 -3.59215 255 0 0
-2.75537 -2.58132 -3.61007 255 0 0
-2.66688 -2.51032 -3.56183 255 0 0
-2.63034 -2.57175 -3.56872 255 0 0
-2.59478 -2.55308 -3.56425 255 0 0
-2.59449 -2.58527 -3.57995 255 0 0
-2.55503 -2.58855 -3.5689 255 0 0
-2.5911 -2.67538 -3.58825 255 0 0
-2.49516 -2.607 -3.53886 255 0 0
-1.94637 -3.53047 -3.71916 255 0 0
-3.29016 -2.33722 -3.76081 255 0 0
-3.21473 -2.29512 -3.72334 255 0 0
-3.24416 -2.32776 -3.74207 255 0 0
-3.0944 -2.32766 -3.68939 255 0 0
-3.04975 -2.31109 -3.66949 255 0 0
-2.93752 -2.23703 -3.61095 255 0 0
-2.87476 -2.24365 -3.59105 255 0 0
-2.90452 -2.23922 -3.62738 255 0 0
-2.92468 -2.29747 -3.62266 255 0 0
-2.84333 -2.28481 -3.59144 255 0 0
-2.89775 -2.33992 -3.625 255 0 0
-2.83121 -2.31966 -3.5969 255 0 0
-2.78163 -2.31229 -3.57817 255 0 0
-2.78608 -2.34598 -3.5891 255 0 0
-2.74431 -2.29236 -3.57775 255 0 0
-2.74461 -2.37666 -3.58402 255 0 0
-2.65196 -2.38025 -3.55475 255 0 0
-2.72967 -2.43834 -3.5969 255 0 0
-2.69815 -2.43329 -3.58519 255 0 0
-2.64227 -2.42294 -3.56412 255 0 0
-2.57953 -2.38806 -3.53368 255 0 0
-2.54736 -2.39499 -3.52548 255 0 0
-2.58319 -2.45475 -3.55475 255 0 0
-2.59373 -2.49422 -3.56997 255 0 0
-2.54706 -2.53801 -3.5688 255 0 0
-2.49934 -2.50231 -3.54305 255 0 0
-2.51764 -2.54465 -3.56178 255 0 0
-2.18828 -2.25055 -3.39029 255 0 0
-3.15073 -2.24942 -3.72748 255 0 0
-3.03417 -2.20996 -3.67499 255 0 0
-2.96821 -2.22722 -3.6559 255 0 0
-2.98185 -2.23747 -3.68214 255 0 0
-2.87147 -2.18673 -3.61056 255 0 0
-2.83915 -2.23102 -3.61846 255 0 0
-2.74786 -2.18674 -3.58459 255 0 0
-2.81464 -2.25085 -3.60818 255 0 0
-2.84264 -2.28431 -3.62726 255 0 0
-2.80597 -2.29342 -3.61712 255 0 0
-2.73505 -2.24093 -3.59538 255 0 0
-2.71262 -2.26583 -3.57716 255 0 0
-2.66788 -2.26087 -3.56046 255 0 0
-2.55039 -2.28179 -3.52705 255 0 0
-2.50106 -2.24481 -3.52649 255 0 0
-2.45601 -2.29 -3.49842 255 0 0
-2.58339 -2.44335 -3.5867 255 0 0
-2.28558 -2.26669 -3.43638 255 0 0
-2.25132 -2.22922 -3.43483 255 0 0
-2.19528 -2.20828 -3.38946 255 0 0
-2.06353 -2.25031 -3.36242 255 0 0
-2.74609 -2.12227 -3.61837 255 0 0
-3.13356 -2.19633 -3.74582 255 0 0
-3.16083 -2.2341 -3.78542 255 0 0
-3.03883 -2.19868 -3.72377 255 0 0
-2.93318 -2.20637 -3.67453 255 0 0
-2.91054 -2.2274 -3.6721 255 0 0
-2.87044 -2.21838 -3.65509 255 0 0
-2.76303 -2.20422 -3.61255 255 0 0
-2.64608 -2.20225 -3.57063 255 0 0
-2.59807 -2.19115 -3.55058 255 0 0
-2.50151 -2.2133 -3.52385 255 0 0
-2.46588 -2.21324 -3.51169 255 0 0
-2.4427 -2.25058 -3.51534 255 0 0
-2.34109 -2.24591 -3.4801 255 0 0
0.478039 -2.93923 -3.35858 255 0 0
0.490658 -2.95065 -3.36466 255 0 0
-3.11911 -2.16054 -3.76931 255 0 0
-3.14273 -2.21014 -3.79159 255 0 0
-2.2484 -2.18269 -3.46123 255 0 0
-2.10981 -2.20444 -3.42288 255 0 0
-1.94535 -2.18298 -3.36349 255 0 0
-1.89144 -2.21592 -3.35854 255 0 0
-2.11171 -2.65999 -3.58372 255 0 0
