ply
format ascii 1.0
comment Created by Open3D
element vertex 61
property double x
property double y
property double z
property uchar red
property uchar green
property uchar blue
end_header
-30.0621 4.12405 -4.90904 255 0 0
-30.0261 3.75702 -5.15505 255 0 0
-30.1069 4.34859 -4.66134 255 0 0
-30.1326 4.27939 -5.17327 255 0 0
-30.1053 4.78651 -4.66696 255 0 0
-30.139 3.69858 -5.16598 255 0 0
-31.3483 3.62085 -4.76086 255 0 0
-30.0459 4.92325 -5.17448 255 0 0
-31.8901 3.60682 -4.80781 255 0 0
-30.1286 3.84242 -4.65726 255 0 0
-30.0691 3.83483 -5.16052 255 0 0
-30.1051 4.71331 -4.66594 255 0 0
-30.0537 4.85139 -4.91854 255 0 0
-30.0395 3.7587 -4.90233 255 0 0
-30.081 3.54676 -5.15809 255 0 0
-30.0594 3.8336 -4.90513 255 0 0
-30.1145 3.76808 -4.65522 255 0 0
-30.1197 4.13195 -4.65981 255 0 0
-30.1032 4.49389 -4.66288 255 0 0
-30.882 3.64121 -4.72054 255 0 0
-30.1158 3.98601 -4.65777 255 0 0
-32.175 4.3362 -4.56869 255 0 0
-30.0603 4.0512 -4.90792 255 0 0
-30.0364 4.77554 -4.91574 255 0 0
-30.1841 3.6315 -4.65981 255 0 0
-30.0871 3.98221 -4.9096 255 0 0
-32.363 4.20539 -4.58209 255 0 0
-32.2455 4.1124 -4.57193 255 0 0
-30.0989 4.63925 -4.66441 255 0 0
-30.0824 4.85602 -4.66594 255 0 0
-30.1098 4.56788 -4.66441 255 0 0
-30.1138 4.4225 -4.66288 255 0 0
-30.1055 4.27555 -4.66032 255 0 0
-30.1156 4.20416 -4.66032 255 0 0
-30.1236 4.05974 -4.6593 255 0 0
-30.1252 3.9146 -4.65777 255 0 0
-30.1175 3.69596 -4.65471 255 0 0
-32.4957 3.59731 -4.86037 255 0 0
-30.0591 4.70612 -4.91686 255 0 0
-30.0183 4.62684 -4.91183 255 0 0
-30.0292 4.55565 -4.91183 255 0 0
-30.0399 4.48444 -4.91183 255 0 0
-29.9986 4.40558 -4.9068 255 0 0
-30.0378 4.33861 -4.9096 255 0 0
-30.0422 4.26656 -4.90904 255 0 0
-30.0061 4.18887 -4.90457 255 0 0
-30.0387 3.90335 -4.90401 255 0 0
-30.0483 3.68746 -4.90233 255 0 0
-30.0628 3.6169 -4.90289 255 0 0
-30.3954 3.58383 -4.93418 255 0 0
-31.0176 3.58265 -4.99341 255 0 0
-31.8079 3.59752 -5.06885 255 0 0
-32.4014 3.58687 -5.12529 255 0 0
-30.0287 4.84736 -5.17145 255 0 0
-30.1667 4.79626 -5.1848 255 0 0
-30.0906 4.56497 -5.17327 255 0 0
-30.1523 4.42815 -5.17752 255 0 0
-30.0988 4.05639 -5.16659 255 0 0
-30.2007 3.99724 -5.1763 255 0 0
-30.0551 3.61598 -5.15627 255 0 0
-30.5058 3.52354 -5.20181 255 0 0
