ply
format ascii 1.0
comment Created by Open3D
element vertex 499
property double x
property double y
property double z
property uchar red
property uchar green
property uchar blue
end_header
49.0671 -27.5076 -3.16895 255 0 0
49.4437 -24.1314 -1.31407 255 0 0
49.082 -27.0589 -2.23291 255 0 0
48.9255 -27.5808 -4.56911 255 0 0
49.0509 -31.6203 -1.75748 255 0 0
49.0013 -31.5883 -3.21153 255 0 0
49.0971 -24.9796 -2.22892 255 0 0
49.0624 -26.7455 -1.30334 255 0 0
49.0304 -32.94 -2.24546 255 0 0
49.0536 -25.3983 -3.1479 255 0 0
48.9866 -30.44 -3.67814 255 0 0
49.0088 -28.8662 -1.76364 255 0 0
49.5929 -23.9137 -3.14413 255 0 0
49.0931 -26.6114 -2.23205 255 0 0
49.0588 -25.401 -0.851975 255 0 0
49.0064 -28.2422 -3.1754 255 0 0
49.0696 -32.1287 -1.75627 255 0 0
49.0708 -25.4072 -1.31108 255 0 0
49.002 -27.0148 -4.0937 255 0 0
49.0736 -27.9718 -2.23473 255 0 0
49.0359 -25.2419 -3.60474 255 0 0
49.0192 -31.2718 -2.72491 255 0 0
49.0181 -28.7154 -2.70826 255 0 0
49.0253 -30.7873 -0.796988 255 0 0
49.0725 -27.3579 -1.29955 255 0 0
49.0341 -29.9882 -2.71658 255 0 0
49.4989 -24.0132 -2.22862 255 0 0
49.0864 -26.7586 -2.23232 255 0 0
48.918 -29.5994 -4.61539 255 0 0
49.0184 -30.4598 -2.7195 255 0 0
49.0172 -31.1073 -0.793582 255 0 0
49.0467 -30.4774 -1.76004 255 0 0
49.0468 -25.5424 -2.68943 255 0 0
49.002 -29.176 -3.65941 255 0 0
49.0018 -27.6238 -3.63676 255 0 0
49.017 -31.4342 -0.789932 255 0 0
49.755 -23.8467 -3.14657 255 0 0
49.0491 -30.3179 -1.76038 255 0 0
48.9123 -31.367 -4.65794 255 0 0
49.0501 -25.9893 -2.69206 255 0 0
48.9368 -29.9287 -4.62396 255 0 0
49.0169 -28.4033 -4.11975 255 0 0
49.059 -30.0035 -1.28305 255 0 0
48.9879 -29.3252 -3.66128 255 0 0
49.0279 -25.385 -3.60644 255 0 0
49.0287 -31.4417 -1.27385 255 0 0
49.018 -31.5991 -1.2729 255 0 0
49.0295 -31.9366 -1.2705 255 0 0
49.0484 -27.497 -1.29896 255 0 0
49.0829 -24.3892 -4.05079 255 0 0
49.0954 -25.1254 -0.853921 255 0 0
49.0145 -26.7194 -3.16007 255 0 0
48.9227 -28.8155 -4.5972 255 0 0
49.1106 -25.4278 -1.77018 255 0 0
49.0549 -27.8073 -1.29699 255 0 0
49.0708 -26.9012 -1.30232 255 0 0
49.0894 -27.2149 -2.23325 255 0 0
49.0718 -31.1419 -1.75848 255 0 0
49.052 -28.2685 -0.823508 255 0 0
49.0838 -27.8236 -2.23446 255 0 0
49.6103 -23.9221 -1.31334 255 0 0
49.0333 -24.5096 -3.59503 255 0 0
49.0493 -27.6506 -1.29801 255 0 0
49.0639 -29.529 -2.23797 255 0 0
49.0675 -26.5975 -0.840174 255 0 0
49.0607 -31.6266 -2.24257 255 0 0
49.0382 -30.9577 -1.27699 255 0 0
48.9136 -30.5557 -4.63814 255 0 0
49.0762 -29.0629 -2.23702 255 0 0
48.9868 -30.7631 -4.16442 255 0 0
49.0952 -29.3895 -2.71337 255 0 0
49.0777 -25.7066 -2.23023 255 0 0
48.9907 -32.745 -3.71458 255 0 0
49.0396 -25.3911 -2.68848 255 0 0
49.0147 -27.3256 -3.63284 255 0 0
48.987 -29.1671 -3.18476 255 0 0
49.0496 -26.4376 -2.69469 255 0 0
48.9126 -31.2038 -4.65392 255 0 0
48.9807 -30.7593 -3.20192 255 0 0
49.0998 -26.9171 -1.76731 255 0 0
49.0455 -24.9533 -3.60116 255 0 0
49.0462 -27.0391 -0.83616 255 0 0
49.0539 -24.5199 -0.860369 255 0 0
49.0116 -30.9409 -0.795528 255 0 0
49.0382 -24.5121 -3.13927 255 0 0
49.0702 -30.8155 -1.75921 255 0 0
49.0457 -30.3158 -1.28115 255 0 0
49.052 -32.2836 -1.75597 255 0 0
48.9174 -30.0764 -4.14865 255 0 0
49.0051 -28.3965 -3.17698 255 0 0
49.0207 -24.7946 -3.14158 255 0 0
49.0737 -25.2613 -1.31188 255 0 0
51.0639 -24.3253 -4.5873 255 0 0
49.071 -25.555 -2.22991 255 0 0
49.0795 -26.3037 -0.842851 255 0 0
49.0899 -26.1597 -2.23115 255 0 0
48.9298 -28.9761 -4.60121 255 0 0
48.9979 -28.2373 -4.11603 255 0 0
49.5243 -23.8807 -0.857449 255 0 0
48.9363 -27.74 -4.57312 255 0 0
48.9126 -29.7548 -4.61887 255 0 0
48.9252 -28.1955 -4.58302 255 0 0
49.1112 -24.5486 -1.77184 255 0 0
48.9818 -30.4371 -3.19839 255 0 0
49.0453 -27.3427 -0.833119 255 0 0
49.0889 -27.9805 -1.7652 255 0 0
49.0639 -26.5956 -1.30422 255 0 0
48.9299 -31.7068 -4.66703 255 0 0
49.0402 -25.539 -3.60883 255 0 0
48.9968 -30.4463 -0.801246 255 0 0
49.045 -24.953 -1.77133 255 0 0
48.9883 -31.9098 -0.785066 255 0 0
49.0031 -31.4253 -4.17821 255 0 0
49.0374 -27.6439 -0.830199 255 0 0
49.0432 -29.8342 -0.807085 255 0 0
49.0532 -27.8063 -0.828252 255 0 0
49.017 -25.8231 -3.61206 255 0 0
49.0049 -31.7554 -0.786526 255 0 0
49.0105 -32.09 -0.782633 255 0 0
49.5662 -23.9009 -2.22867 255 0 0
49.0752 -24.3853 -3.13878 255 0 0
49.0645 -32.7944 -2.24524 255 0 0
49.0326 -28.1027 -0.825576 255 0 0
49.0499 -27.9583 -2.70388 255 0 0
49.0605 -27.3512 -2.23342 255 0 0
48.9983 -28.548 -3.65004 255 0 0
48.9112 -32.025 -4.67426 255 0 0
49.0614 -30.9724 -1.75889 255 0 0
49.058 -28.1172 -2.23497 255 0 0
49.0215 -31.7661 -2.72826 255 0 0
49.2799 -24.3415 -0.857814 255 0 0
49.0708 -26.2991 -1.3059 255 0 0
49.052 -25.5451 -1.3105 255 0 0
48.9991 -26.2606 -4.08012 255 0 0
49.665 -23.8035 -2.22887 255 0 0
49.0467 -27.4961 -0.831537 255 0 0
49.0558 -28.8939 -1.2902 255 0 0
49.0472 -31.2897 -2.24176 255 0 0
49.0138 -30.6182 -0.799056 255 0 0
48.9409 -26.2294 -4.53994 255 0 0
49.0223 -31.2738 -0.791635 255 0 0
49.0555 -24.5207 -1.31626 255 0 0
49.2061 -24.305 -2.22806 255 0 0
49.0768 -24.3861 -2.68323 255 0 0
49.0116 -25.8203 -3.15119 255 0 0
48.919 -28.3466 -4.58623 255 0 0
48.9935 -28.8572 -3.65447 255 0 0
49.0239 -29.1891 -1.28867 255 0 0
49.0479 -24.6625 -0.859152 255 0 0
48.9941 -27.1621 -4.09611 255 0 0
48.9579 -25.4961 -4.52496 255 0 0
49.0619 -30.8102 -1.27772 255 0 0
49.0486 -32.4483 -2.24439 255 0 0
49.0434 -29.3584 -1.76247 255 0 0
49.0467 -25.6904 -0.84942 255 0 0
48.992 -31.4182 -3.69347 255 0 0
48.8953 -32.3469 -4.68175 255 0 0
49.0505 -26.739 -0.839079 255 0 0
49.0761 -28.4376 -2.2357 255 0 0
49.0565 -25.2525 -0.853434 255 0 0
48.9354 -28.6669 -4.59426 255 0 0
49.0969 -25.5685 -1.76997 255 0 0
49.0446 -31.7811 -1.75714 255 0 0
48.9991 -30.287 -0.802949 255 0 0
48.9953 -30.2846 -4.15522 255 0 0
49.0138 -24.6453 -4.05276 255 0 0
48.9819 -30.9222 -3.20374 255 0 0
48.9271 -27.5817 -4.10158 255 0 0
49.0207 -29.03 -3.18391 255 0 0
49.0234 -30.4629 -1.28042 255 0 0
49.0095 -27.3227 -3.16603 255 0 0
48.9916 -30.9283 -3.6858 255 0 0
49.0232 -29.3463 -0.812681 255 0 0
50.137 -24.3228 -4.54904 255 0 0
49.0403 -32.4428 -1.26692 255 0 0
49.9435 -23.7916 -3.14961 255 0 0
49.0289 -28.878 -0.817547 255 0 0
49.0684 -29.8496 -1.76133 255 0 0
49.0339 -25.832 -2.69096 255 0 0
49.0588 -24.8138 -2.68542 255 0 0
49.0314 -25.6824 -3.61053 255 0 0
49.0279 -27.4856 -2.70075 255 0 0
49.03 -29.8262 -2.71549 255 0 0
49.0735 -27.0542 -1.30137 255 0 0
50.914 -23.9583 -4.57392 255 0 0
49.0619 -28.741 -3.1816 255 0 0
49.0023 -26.1129 -3.15386 255 0 0
48.9982 -25.8132 -4.07224 255 0 0
49.0273 -29.984 -0.805747 255 0 0
48.9596 -33.0612 -4.70235 255 0 0
49.1082 -24.4017 -1.31634 255 0 0
49.0285 -29.6663 -3.66741 255 0 0
49.073 -32.4645 -1.75549 255 0 0
49.0534 -29.8404 -2.2386 255 0 0
49.0794 -25.4117 -2.22967 255 0 0
50.148 -23.7432 -3.15301 255 0 0
48.9902 -31.7458 -3.21311 255 0 0
49.0812 -26.7558 -1.7677 255 0 0
49.0457 -28.42 -0.822048 255 0 0
48.9166 -30.881 -4.64616 255 0 0
49.0556 -25.547 -0.850636 255 0 0
49.0355 -30.6318 -1.27918 255 0 0
49.0193 -32.2621 -1.26838 255 0 0
49.0332 -27.1838 -3.63131 255 0 0
49.0912 -32.3094 -2.24422 255 0 0
49.1001 -26.0158 -2.23091 255 0 0
49.4744 -24.0013 -1.31444 255 0 0
48.9875 -31.0884 -3.20569 255 0 0
49.0316 -27.3351 -2.69987 255 0 0
48.926 -27.1243 -4.55894 255 0 0
49.0566 -30.4835 -2.24001 255 0 0
48.9882 -28.5421 -3.1782 255 0 0
48.9663 -33.0657 -0.772171 255 0 0
48.9571 -32.8908 -0.774361 255 0 0
49.0057 -32.7551 -0.775091 255 0 0
49.0247 -32.5999 -0.776551 255 0 0
49.0238 -32.4319 -0.778497 255 0 0
49.0223 -32.2641 -0.780443 255 0 0
49.0161 -31.5979 -0.788107 255 0 0
49.0159 -30.137 -0.804287 255 0 0
49.0437 -29.6754 -0.808788 255 0 0
49.0086 -29.4957 -0.811343 255 0 0
49.0222 -29.1881 -0.814384 255 0 0
49.0308 -29.036 -0.815844 255 0 0
49.0518 -28.7351 -0.818642 255 0 0
49.0338 -28.5686 -0.82071 255 0 0
49.0482 -27.9573 -0.826793 255 0 0
49.0434 -27.1894 -0.8347 255 0 0
49.0691 -26.9003 -0.837133 255 0 0
49.0531 -26.4395 -0.841999 255 0 0
49.0436 -26.135 -0.845162 255 0 0
49.064 -25.9967 -0.846135 255 0 0
49.0323 -25.8312 -0.848325 255 0 0
49.0504 -24.9558 -0.856354 255 0 0
49.0677 -24.8183 -0.857327 255 0 0
49.0857 -24.3905 -0.860977 255 0 0
49.3211 -24.0716 -0.859517 255 0 0
48.9896 -32.4093 -3.22065 255 0 0
49.1273 -24.2662 -1.7723 255 0 0
49.0689 -29.6907 -1.76167 255 0 0
49.0666 -31.466 -2.24222 255 0 0
49.0749 -24.3852 -2.22772 255 0 0
49.0339 -31.1178 -1.27597 255 0 0
49.2508 -24.3271 -4.05538 255 0 0
48.9412 -26.8302 -4.55305 255 0 0
49.0221 -27.6353 -1.76615 255 0 0
48.9788 -30.5964 -3.68035 255 0 0
49.0478 -26.4366 -1.76846 255 0 0
49.0203 -28.4053 -3.64851 255 0 0
48.9269 -32.3678 -4.19507 255 0 0
49.0657 -26.2963 -2.69403 255 0 0
49.04 -29.8323 -1.28436 255 0 0
49.0839 -29.6998 -2.2384 255 0 0
49.0614 -25.255 -1.7707 255 0 0
49.0376 -29.04 -2.71053 255 0 0
48.993 -32.9149 -1.26414 255 0 0
49.0222 -32.7661 -1.26487 255 0 0
49.0413 -32.6109 -1.26575 255 0 0
49.032 -32.1041 -1.26933 255 0 0
49.0166 -31.7629 -1.27181 255 0 0
49.029 -31.2781 -1.27495 255 0 0
49.0277 -30.1442 -1.28247 255 0 0
49.0405 -29.6735 -1.28539 255 0 0
49.0555 -29.5239 -1.28619 255 0 0
49.0249 -29.3474 -1.28765 255 0 0
49.0376 -29.04 -1.28947 255 0 0
49.0636 -28.742 -1.29108 255 0 0
49.0507 -28.5784 -1.29225 255 0 0
49.0474 -28.421 -1.29327 255 0 0
49.0791 -28.2841 -1.29378 255 0 0
49.0698 -28.124 -1.29488 255 0 0
49.0601 -27.9641 -1.29597 255 0 0
49.0604 -27.1989 -1.30064 255 0 0
49.0805 -26.4542 -1.30488 255 0 0
49.0659 -26.1468 -1.30685 255 0 0
49.0656 -25.9975 -1.30772 255 0 0
49.0494 -25.8402 -1.30882 255 0 0
49.0743 -25.7048 -1.30933 255 0 0
49.1022 -25.1289 -1.31232 255 0 0
49.0833 -24.9726 -1.31342 255 0 0
49.0901 -24.8297 -1.31415 255 0 0
49.0756 -24.6764 -1.31517 255 0 0
49.3024 -24.3526 -1.31444 255 0 0
49.0479 -24.6625 -3.14085 255 0 0
49.0575 -29.2091 -2.23726 255 0 0
49.0296 -24.9452 -3.14316 255 0 0
49.0982 -26.6142 -1.76792 255 0 0
49.0314 -24.8 -3.59878 255 0 0
50.6121 -24.2575 -4.10005 255 0 0
49.0075 -27.9342 -3.17223 255 0 0
49.0158 -32.9302 -1.75461 255 0 0
48.9964 -32.7488 -1.7551 255 0 0
49.0525 -31.9516 -1.75673 255 0 0
48.9976 -31.4217 -1.75812 255 0 0
49.0587 -30.6463 -1.75962 255 0 0
49.0011 -30.1279 -1.76096 255 0 0
49.079 -29.538 -1.76196 255 0 0
49.0474 -29.2031 -1.76279 255 0 0
49.0662 -29.0569 -1.76303 255 0 0
49.0288 -28.5657 -1.7642 255 0 0
49.0825 -28.2861 -1.76459 255 0 0
49.0935 -28.1376 -1.76486 255 0 0
49.094 -27.8294 -1.76549 255 0 0
49.0247 -27.3312 -1.76675 255 0 0
49.0923 -27.0645 -1.76705 255 0 0
49.0331 -26.1294 -1.76911 255 0 0
49.0943 -25.8638 -1.76941 255 0 0
49.0984 -25.7175 -1.76967 255 0 0
49.1 -24.6886 -1.77162 255 0 0
49.0959 -24.3956 -1.77218 255 0 0
49.0128 -26.1185 -3.61598 255 0 0
49.4304 -23.98 -1.77169 255 0 0
49.6175 -23.7808 -1.77135 255 0 0
49.0206 -27.025 -3.16323 255 0 0
49.0542 -28.8929 -2.23658 255 0 0
50.8161 -24.3552 -3.63965 255 0 0
48.9958 -32.0804 -3.217 255 0 0
48.9603 -24.6184 -4.50676 255 0 0
49.0771 -25.2631 -2.22938 255 0 0
48.9134 -31.861 -4.67024 255 0 0
49.0642 -32.6261 -2.24485 255 0 0
49.0647 -32.1255 -2.24371 255 0 0
49.0623 -31.958 -2.24332 255 0 0
49.0495 -31.7842 -2.24288 255 0 0
49.0521 -31.1294 -2.24142 255 0 0
49.0762 -30.9817 -2.24118 255 0 0
49.0653 -30.8124 -2.24077 255 0 0
49.0587 -30.6463 -2.24038 255 0 0
49.064 -30.3271 -2.23969 255 0 0
49.066 -30.1678 -2.23935 255 0 0
49.0624 -30.0055 -2.23899 255 0 0
49.0534 -29.3644 -2.23758 255 0 0
49.067 -28.744 -2.23631 255 0 0
49.0642 -28.5863 -2.23597 255 0 0
49.0774 -28.2832 -2.23539 255 0 0
49.0833 -27.6698 -2.23415 255 0 0
49.0671 -27.5075 -2.23376 255 0 0
49.069 -26.9002 -2.23254 255 0 0
49.0736 -26.4505 -2.23166 255 0 0
49.1 -26.3147 -2.23149 255 0 0
49.0943 -25.8638 -2.23059 255 0 0
49.0951 -25.1253 -2.22918 255 0 0
49.1144 -24.842 -2.22872 255 0 0
49.1104 -24.6939 -2.22843 255 0 0
49.106 -24.546 -2.22814 255 0 0
49.0883 -31.9749 -2.73038 255 0 0
48.9441 -31.0609 -4.16901 255 0 0
48.9548 -26.5365 -4.54717 255 0 0
48.9263 -29.131 -4.60469 255 0 0
48.9638 -32.8953 -2.73542 255 0 0
49.012 -32.5914 -2.73381 255 0 0
49.0257 -32.4331 -2.73286 255 0 0
49.0859 -32.1394 -2.73148 255 0 0
49.018 -31.5991 -2.7271 255 0 0
49.019 -31.1084 -2.72381 255 0 0
49.1015 -30.8351 -2.72286 255 0 0
49.0901 -30.6659 -2.72162 255 0 0
49.0208 -30.3004 -2.71848 255 0 0
49.1007 -29.5511 -2.71447 255 0 0
49.0239 -29.1891 -2.71133 255 0 0
49.0405 -28.5726 -2.70761 255 0 0
49.0436 -28.2637 -2.70571 255 0 0
49.0394 -28.1066 -2.70469 255 0 0
49.0549 -27.8073 -2.70301 255 0 0
49.0289 -27.6391 -2.70169 255 0 0
49.0581 -27.0457 -2.69841 255 0 0
49.0367 -26.7315 -2.69629 255 0 0
49.0434 -26.5845 -2.69549 255 0 0
49.0452 -26.1358 -2.69286 255 0 0
49.0424 -25.2452 -2.68768 255 0 0
50.184 -24.3456 -3.62296 255 0 0
49.0448 -25.0995 -2.68688 255 0 0
49.0572 -24.9593 -2.68622 255 0 0
49.1288 -24.5574 -2.68476 255 0 0
49.1974 -24.3008 -2.6841 255 0 0
49.4744 -24.0013 -2.68556 255 0 0
48.9316 -28.9772 -4.12785 255 0 0
49 -29.649 -4.14296 255 0 0
48.9313 -30.4057 -4.63519 255 0 0
50.5325 -23.7788 -3.16056 255 0 0
48.954 -25.4941 -4.06524 255 0 0
48.9804 -29.0061 -3.65634 255 0 0
48.8984 -33.0199 -3.22613 255 0 0
49.0251 -32.9365 -3.22734 255 0 0
49.0686 -32.6291 -3.22454 255 0 0
49.0027 -32.2512 -3.21907 255 0 0
48.9883 -31.9098 -3.21493 255 0 0
49.0568 -31.2958 -3.20922 255 0 0
48.9741 -30.5934 -3.19997 255 0 0
49.0339 -30.3085 -3.1979 255 0 0
49.0772 -30.0146 -3.19547 255 0 0
48.9982 -29.8069 -3.19182 255 0 0
49.0237 -29.6633 -3.19073 255 0 0
48.9835 -29.4806 -3.18805 255 0 0
48.993 -29.3283 -3.18659 255 0 0
49.0072 -28.0881 -3.17382 255 0 0
49.0227 -27.789 -3.17102 255 0 0
49.0127 -27.1724 -3.16457 255 0 0
49.0178 -26.8721 -3.16165 255 0 0
49.0469 -26.5864 -3.15934 255 0 0
49.0847 -26.3065 -3.15727 255 0 0
49.0227 -25.9748 -3.15289 255 0 0
49.026 -25.6795 -3.15009 255 0 0
49.0193 -25.5281 -3.14851 255 0 0
49.0954 -25.1254 -3.14608 255 0 0
49.2694 -24.3363 -3.14194 255 0 0
49.4781 -24.0031 -3.14279 255 0 0
48.9831 -31.9064 -3.70096 255 0 0
48.943 -25.1941 -4.518 255 0 0
50.4314 -24.318 -3.62909 255 0 0
49.0628 -33.1309 -3.72259 255 0 0
48.9746 -32.3993 -3.70862 255 0 0
48.9779 -32.2349 -3.70607 255 0 0
48.98 -31.7392 -3.69824 255 0 0
49.007 -31.1008 -3.68887 255 0 0
48.969 -30.2684 -3.67507 255 0 0
48.9858 -30.1185 -3.6732 255 0 0
48.9931 -29.8037 -3.6686 255 0 0
48.9919 -28.0794 -3.64306 255 0 0
48.9923 -27.9255 -3.64084 255 0 0
48.9957 -27.4675 -3.63437 255 0 0
49.0053 -27.0166 -3.62824 255 0 0
49.0128 -26.8694 -3.62637 255 0 0
49.0249 -26.7251 -3.62467 255 0 0
48.9966 -26.409 -3.61956 255 0 0
48.9971 -26.2596 -3.61751 255 0 0
49.0177 -25.9721 -3.61411 255 0 0
49.0331 -25.0935 -3.6027 255 0 0
49.0169 -24.6468 -3.5964 255 0 0
49.0755 -24.3855 -3.59452 255 0 0
51.0745 -24.3303 -3.64612 255 0 0
49.4202 -23.975 -0.858544 255 0 0
48.9173 -29.283 -4.6079 255 0 0
49.4126 -24.2615 -1.31371 255 0 0
49.0638 -33.1316 -4.21521 255 0 0
49.055 -32.788 -4.20777 255 0 0
49.0205 -32.5971 -4.20273 255 0 0
48.9819 -32.0713 -4.19069 255 0 0
48.9892 -31.9104 -4.18762 255 0 0
48.9174 -31.6987 -4.18105 255 0 0
49.0035 -31.2618 -4.17492 255 0 0
48.9206 -30.56 -4.15829 255 0 0
48.9945 -29.8046 -4.14581 255 0 0
48.9949 -29.4875 -4.13968 255 0 0
48.9342 -29.2931 -4.13398 255 0 0
48.9245 -28.8166 -4.12457 255 0 0
48.9898 -28.543 -4.1215 255 0 0
48.9987 -28.0833 -4.11318 255 0 0
48.9889 -27.9235 -4.1099 255 0 0
48.9226 -27.7323 -4.10421 255 0 0
48.996 -27.3152 -4.09895 255 0 0
48.9992 -26.8619 -4.09085 255 0 0
48.9549 -26.6869 -4.08626 255 0 0
48.946 -26.5317 -4.08319 255 0 0
48.9579 -26.0893 -4.07575 255 0 0
48.9556 -25.6427 -4.06786 255 0 0
48.952 -25.3457 -4.06261 255 0 0
48.9547 -25.2001 -4.0602 255 0 0
48.9485 -24.904 -4.05495 255 0 0
48.9936 -24.4898 -4.04947 255 0 0
50.1965 -24.3516 -4.08757 255 0 0
51.1132 -24.3488 -4.11844 255 0 0
48.9316 -24.8954 -4.51131 255 0 0
48.9411 -31.5495 -4.66355 255 0 0
49.3945 -24.1074 -2.2284 255 0 0
48.9488 -33.2232 -4.7061 255 0 0
48.9262 -32.87 -4.6962 255 0 0
48.8873 -32.6759 -4.68977 255 0 0
48.911 -32.5243 -4.68683 255 0 0
48.9133 -32.1923 -4.67854 255 0 0
49.2023 -24.3032 -4.51024 255 0 0
48.8975 -31.0313 -4.64911 255 0 0
48.9154 -30.7182 -4.64215 255 0 0
48.9436 -30.2527 -4.63198 255 0 0
48.9205 -30.0783 -4.6269 255 0 0
48.9129 -29.4381 -4.61138 255 0 0
48.9224 -28.5037 -4.58998 255 0 0
48.9361 -28.0474 -4.58008 255 0 0
48.9262 -27.8878 -4.57606 255 0 0
48.9397 -27.4361 -4.56643 255 0 0
48.9229 -27.2745 -4.56215 255 0 0
48.9441 -26.9828 -4.55653 255 0 0
48.9482 -26.6833 -4.55011 255 0 0
48.9352 -26.3759 -4.54288 255 0 0
48.941 -26.0803 -4.53673 255 0 0
48.9458 -25.9341 -4.53379 255 0 0
48.9451 -25.7852 -4.53058 255 0 0
48.9595 -25.6447 -4.52817 255 0 0
48.961 -25.3504 -4.52202 255 0 0
48.9609 -25.0566 -4.51586 255 0 0
48.9539 -24.7608 -4.50944 255 0 0
48.9662 -24.4761 -4.50409 255 0 0
49.0555 -24.3755 -4.50569 255 0 0
49.8111 -24.3108 -4.53539 255 0 0
50.5265 -24.3639 -4.56589 255 0 0
50.6421 -24.2718 -4.56884 255 0 0
49.4331 -24.1263 -2.68578 255 0 0
49.5312 -23.884 -2.68556 255 0 0
49.5161 -24.3123 -0.853678 255 0 0
