ply
format ascii 1.0
comment Created by Open3D
element vertex 898
property double x
property double y
property double z
property uchar red
property uchar green
property uchar blue
end_header
9.5801 5.52098 -4.96274 255 0 0
6.99431 6.07117 -3.59344 255 0 0
6.91197 6.08644 -3.5845 255 0 0
7.61523 5.94321 -3.66194 255 0 0
7.03877 5.93631 -3.66307 255 0 0
7.70268 5.9529 -3.67484 255 0 0
6.85613 5.88033 -3.78691 255 0 0
7.05662 6.83428 -3.60616 255 0 0
9.74637 5.52483 -5.20244 255 0 0
6.97281 5.96607 -4.37736 255 0 0
6.92873 6.04311 -4.38176 255 0 0
6.83831 5.54875 -4.59661 255 0 0
7.32998 5.90458 -3.70002 255 0 0
6.48782 5.51127 -5.13849 255 0 0
8.22472 6.93651 -4.40873 255 0 0
8.04242 6.03469 -3.64395 255 0 0
8.68927 5.82274 -4.06929 255 0 0
9.19473 5.56356 -4.78411 255 0 0
6.57989 6.00507 -3.60895 255 0 0
7.10481 6.53062 -3.57782 255 0 0
6.92978 5.73281 -4.09211 255 0 0
8.77211 6.01488 -4.47419 255 0 0
7.96251 6.06374 -3.6364 255 0 0
7.77382 5.57791 -4.47868 255 0 0
6.90591 5.5765 -4.94129 255 0 0
7.85974 6.07428 -3.62411 255 0 0
6.8846 5.51894 -4.68163 255 0 0
8.07412 5.85158 -3.9727 255 0 0
7.04778 6.98953 -4.13571 255 0 0
9.14277 5.50255 -5.1464 255 0 0
9.1573 5.57062 -4.77677 255 0 0
7.00642 7.11524 -4.49856 255 0 0
6.54184 5.51722 -5.07456 255 0 0
7.53458 5.59798 -4.43169 255 0 0
7.02187 5.89363 -3.81361 255 0 0
7.77498 5.89185 -3.76194 255 0 0
6.9927 5.82687 -4.03776 255 0 0
7.21498 6.29277 -4.31106 255 0 0
6.94771 6.01631 -4.29959 255 0 0
7.24628 5.5455 -4.52644 255 0 0
7.30456 5.50815 -4.78038 255 0 0
9.44014 5.65107 -4.65593 255 0 0
6.62665 5.86315 -3.82699 255 0 0
6.73796 5.54727 -4.57343 255 0 0
9.4962 5.57811 -4.85312 255 0 0
9.661 5.50674 -5.27888 255 0 0
8.14299 5.87209 -3.89956 255 0 0
8.16854 5.51602 -4.90628 255 0 0
6.81031 5.91146 -3.78407 255 0 0
7.20057 5.89954 -3.76131 255 0 0
9.14144 5.5165 -5.05197 255 0 0
7.00756 5.63118 -4.3289 255 0 0
8.15693 5.53638 -4.72955 255 0 0
6.8024 6.10547 -3.57259 255 0 0
7.94692 5.58871 -4.51686 255 0 0
9.47326 5.64043 -4.75865 255 0 0
8.69343 5.57502 -4.67544 255 0 0
7.74015 5.59554 -4.47427 255 0 0
9.637 5.58425 -4.88543 255 0 0
6.69225 5.54969 -4.56349 255 0 0
8.55301 5.54239 -4.73087 255 0 0
8.05147 5.63375 -4.45877 255 0 0
6.87874 5.71811 -4.88178 255 0 0
9.58126 5.49143 -5.05766 255 0 0
9.70444 5.5315 -4.99305 255 0 0
7.63228 5.88403 -3.7406 255 0 0
6.60093 5.95296 -3.68184 255 0 0
9.09314 5.74048 -4.40745 255 0 0
6.87799 5.95592 -3.6433 255 0 0
7.15103 5.88734 -3.7526 255 0 0
7.50043 5.53131 -4.58034 255 0 0
6.96244 5.59493 -4.95971 255 0 0
8.51207 5.51586 -4.99074 255 0 0
7.68752 6.08811 -3.60333 255 0 0
7.28726 5.52226 -4.69597 255 0 0
7.56096 6.13512 -3.59199 255 0 0
9.78705 5.57859 -5.22014 255 0 0
6.48093 6.9674 -3.63712 255 0 0
7.48462 6.19182 -3.58821 255 0 0
9.66017 5.65904 -4.80129 255 0 0
6.64975 5.51443 -4.62544 255 0 0
7.35843 5.54878 -4.63437 255 0 0
6.49851 5.52034 -4.59139 255 0 0
7.53804 5.89735 -3.72864 255 0 0
6.97148 5.56151 -5.03762 255 0 0
7.40348 6.2439 -3.58349 255 0 0
6.59911 6.39119 -3.58053 255 0 0
8.12437 5.74234 -4.14064 255 0 0
8.08514 5.97733 -3.64395 255 0 0
7.37766 6.34283 -4.26325 255 0 0
6.75299 5.88983 -3.77271 255 0 0
8.28594 5.58099 -4.58807 255 0 0
6.81996 5.89154 -3.78293 255 0 0
7.991 5.50719 -4.86157 255 0 0
8.01821 5.75326 -4.12339 255 0 0
9.76435 5.50447 -5.20405 255 0 0
8.74308 5.51949 -5.0487 255 0 0
7.44785 5.95599 -4.13498 255 0 0
6.80026 6.17671 -3.58053 255 0 0
9.56665 5.51323 -5.2557 255 0 0
7.42526 5.54413 -4.64885 255 0 0
9.10828 5.54079 -4.85666 255 0 0
7.30605 5.92829 -3.86134 255 0 0
6.78593 5.54635 -4.58419 255 0 0
9.33972 5.5011 -5.19608 255 0 0
6.77202 5.52164 -5.05748 255 0 0
7.64388 5.56746 -4.53386 255 0 0
7.99726 5.88309 -3.79316 255 0 0
6.98649 5.83575 -4.35827 255 0 0
7.3417 5.97165 -3.62818 255 0 0
7.25818 6.31532 -4.23805 255 0 0
7.25102 6.4463 -4.17208 255 0 0
8.95995 5.53826 -5.01094 255 0 0
9.60406 5.5045 -5.26398 255 0 0
6.94679 7.12193 -4.14064 255 0 0
7.77996 6.10151 -3.61656 255 0 0
7.55012 5.52662 -4.7589 255 0 0
7.73864 5.52492 -4.63268 255 0 0
7.04736 6.68107 -3.58774 255 0 0
6.53487 5.89338 -3.74089 255 0 0
6.58157 5.55072 -4.53865 255 0 0
6.96836 5.87693 -3.80339 255 0 0
7.92471 5.54506 -4.76472 255 0 0
8.42709 5.51771 -4.78892 255 0 0
7.06427 6.37082 -4.21284 255 0 0
7.85572 5.52457 -4.83176 255 0 0
6.74716 5.92712 -3.69926 255 0 0
7.76252 6.05816 -3.60994 255 0 0
7.79533 5.93642 -3.68577 255 0 0
8.65151 5.49042 -5.11409 255 0 0
9.03414 5.52508 -5.02703 255 0 0
8.02101 6.86294 -4.45561 255 0 0
7.13398 5.93029 -3.67556 255 0 0
8.44258 5.57083 -4.62038 255 0 0
7.22437 5.80541 -4.07486 255 0 0
9.15012 5.62587 -4.68759 255 0 0
8.03349 5.53647 -4.78886 255 0 0
8.07844 5.79648 -3.96702 255 0 0
6.96397 6.16161 -4.32659 255 0 0
6.85376 5.86421 -3.86251 255 0 0
7.04548 5.6892 -4.18603 255 0 0
8.1981 5.53597 -4.73893 255 0 0
6.62926 5.55071 -4.54941 255 0 0
6.93688 5.87858 -3.79884 255 0 0
6.67381 5.49446 -4.70589 255 0 0
8.20214 5.87053 -3.82178 255 0 0
8.04762 5.68809 -4.29244 255 0 0
6.58389 5.57942 -4.38946 255 0 0
7.24129 5.90426 -3.76784 255 0 0
7.25251 6.41691 -4.25264 255 0 0
7.15447 6.46756 -3.57687 255 0 0
6.9767 5.92655 -4.37148 255 0 0
7.10601 6.34762 -4.4684 255 0 0
7.33173 5.52864 -4.70756 255 0 0
6.97135 5.57493 -4.95787 255 0 0
7.2962 5.55632 -4.6215 255 0 0
6.55505 6.65686 -3.60733 255 0 0
7.98532 5.75839 -4.20406 255 0 0
8.63458 5.53728 -4.93208 255 0 0
8.043 5.54302 -4.70455 255 0 0
8.98188 5.50775 -5.10666 255 0 0
7.35619 6.26395 -3.57971 255 0 0
7.4655 5.54666 -4.65851 255 0 0
7.51451 5.92216 -3.8103 255 0 0
8.93395 5.49296 -5.18731 255 0 0
7.11077 5.93956 -3.83293 255 0 0
8.65767 5.49432 -5.20964 255 0 0
7.43824 6.41024 -4.1983 255 0 0
7.57518 5.60032 -4.4405 255 0 0
6.5864 6.47031 -3.58847 255 0 0
9.1994 5.50696 -4.9686 255 0 0
8.0245 5.58658 -4.53301 255 0 0
8.08701 6.0233 -3.64868 255 0 0
6.45912 5.50008 -5.20809 255 0 0
8.08791 5.77428 -4.05196 255 0 0
7.0416 5.92441 -4.38397 255 0 0
7.03781 5.50601 -5.29445 255 0 0
8.02745 6.673 -4.51991 255 0 0
7.30936 5.539 -4.6215 255 0 0
8.42833 5.54711 -4.7036 255 0 0
7.63974 5.53677 -4.61237 255 0 0
9.73754 5.51982 -5.30041 255 0 0
8.09025 5.87791 -3.80617 255 0 0
7.98809 5.53316 -4.69049 255 0 0
7.72592 5.94166 -3.67683 255 0 0
6.96999 5.90664 -3.72865 255 0 0
7.44657 5.50524 -4.81443 255 0 0
6.97328 5.68574 -4.25126 255 0 0
6.73646 5.59984 -4.50402 255 0 0
6.53571 5.49878 -4.67353 255 0 0
8.05459 5.86661 -3.88541 255 0 0
8.01384 5.86605 -3.96475 255 0 0
7.90627 5.72994 -4.44313 255 0 0
7.49439 5.9063 -3.72343 255 0 0
9.54519 5.65265 -4.67792 255 0 0
7.50374 6.17773 -3.58916 255 0 0
7.18196 5.85589 -3.91342 255 0 0
6.88768 5.57526 -4.53299 255 0 0
7.27737 5.54198 -4.53269 255 0 0
7.24764 5.92375 -3.69065 255 0 0
6.81187 5.91281 -3.86251 255 0 0
7.03111 5.78861 -3.95958 255 0 0
8.3847 5.86692 -3.84832 255 0 0
7.89736 5.92585 -3.69867 255 0 0
7.77207 5.94787 -3.68378 255 0 0
7.37004 5.5029 -4.87906 255 0 0
7.59173 6.11543 -3.59388 255 0 0
6.9422 5.78479 -4.10206 255 0 0
8.65052 5.5186 -5.02551 255 0 0
7.39432 5.97089 -3.63513 255 0 0
6.78905 5.78102 -3.8412 255 0 0
7.02704 6.77342 -3.59577 255 0 0
6.9035 5.93518 -3.64434 255 0 0
6.7649 5.51584 -5.13593 255 0 0
6.79116 5.86665 -3.85304 255 0 0
8.6904 5.54405 -4.94657 255 0 0
6.90292 7.07695 -4.0413 255 0 0
6.88686 5.53419 -5.0093 255 0 0
6.47801 5.59614 -4.37019 255 0 0
9.0542 5.5079 -5.12487 255 0 0
8.56043 5.66319 -4.5682 255 0 0
7.04121 7.18457 -4.51704 255 0 0
7.18993 5.52945 -4.67444 255 0 0
6.88643 5.54728 -4.60737 255 0 0
6.67756 5.88003 -3.76021 255 0 0
6.53227 6.01864 -3.60427 255 0 0
6.53972 6.75247 -3.61726 255 0 0
7.23672 6.35719 -4.2407 255 0 0
7.73267 5.50681 -4.88509 255 0 0
7.18832 5.91804 -3.84202 255 0 0
8.57376 5.84903 -3.96378 255 0 0
6.58843 6.53398 -3.59641 255 0 0
6.83573 5.61416 -4.37019 255 0 0
8.54563 5.85959 -3.96052 255 0 0
8.92766 5.5476 -5.0045 255 0 0
6.52733 5.61177 -4.46057 255 0 0
6.94382 5.94127 -3.65058 255 0 0
6.64965 6.31903 -3.57821 255 0 0
6.67593 5.92088 -3.68838 255 0 0
8.70189 5.55137 -4.76573 255 0 0
6.79 5.96475 -3.63237 255 0 0
6.77343 5.52279 -4.65609 255 0 0
6.83071 5.95762 -3.63705 255 0 0
7.03116 6.05943 -3.59691 255 0 0
6.93574 6.06372 -3.585 255 0 0
6.97799 7.18793 -4.06853 255 0 0
8.62976 5.54862 -4.74906 255 0 0
7.04889 5.52816 -4.72249 255 0 0
8.25351 5.86301 -3.82854 255 0 0
7.58172 5.88818 -3.73384 255 0 0
7.09462 5.82679 -3.89566 255 0 0
8.74514 5.49184 -5.23238 255 0 0
6.97915 6.88872 -3.60333 255 0 0
6.53952 5.51526 -4.5999 255 0 0
7.90421 6.06388 -3.62884 255 0 0
7.12331 5.55929 -4.58287 255 0 0
6.5865 5.86949 -3.82166 255 0 0
9.7361 5.61088 -5.2121 255 0 0
7.00245 6.25511 -4.34933 255 0 0
7.38732 5.52944 -4.72081 255 0 0
7.73807 5.89282 -3.75673 255 0 0
7.17743 6.44207 -3.57687 255 0 0
8.15084 5.87775 -3.81501 255 0 0
7.08619 5.51681 -4.7293 255 0 0
9.91979 5.56114 -5.25072 255 0 0
6.87757 5.6077 -4.37777 255 0 0
7.49155 6.13795 -3.58349 255 0 0
7.6665 6.40376 -4.41136 255 0 0
7.67306 6.10632 -3.60333 255 0 0
7.84631 5.93127 -3.69222 255 0 0
6.979 5.60823 -4.39899 255 0 0
8.05536 5.8089 -3.96475 255 0 0
7.05157 5.89011 -3.73845 255 0 0
8.85529 5.67882 -4.63216 255 0 0
7.11902 6.57489 -3.58443 255 0 0
7.38365 6.36322 -4.35297 255 0 0
7.09167 6.02421 -3.60088 255 0 0
7.41099 5.53348 -4.56081 255 0 0
7.23298 5.72814 -4.22725 255 0 0
9.1924 5.50277 -5.06243 255 0 0
7.38318 5.84709 -3.78199 255 0 0
7.33304 6.36519 -4.34403 255 0 0
8.72096 5.56354 -4.67985 255 0 0
7.64469 5.54036 -4.69874 255 0 0
8.18621 6.87088 -4.48613 255 0 0
9.76554 5.65874 -4.82403 255 0 0
6.81693 5.9172 -3.70797 255 0 0
8.77992 5.51368 -5.05698 255 0 0
6.53456 6.90918 -3.63613 255 0 0
7.57387 5.93988 -3.65598 255 0 0
6.64104 5.98913 -3.6152 255 0 0
7.97446 5.55174 -4.60358 255 0 0
6.58387 5.6063 -4.47183 255 0 0
8.40594 5.50386 -4.96259 255 0 0
8.97702 5.66718 -4.46954 255 0 0
8.05499 5.52316 -4.87979 255 0 0
7.46486 5.54618 -4.57487 255 0 0
6.87786 5.50017 -4.75662 255 0 0
7.81544 5.52399 -4.64987 255 0 0
6.59273 5.88912 -3.74884 255 0 0
7.19172 5.5853 -4.4399 255 0 0
6.97858 5.88555 -3.88501 255 0 0
7.11346 5.82817 -3.8193 255 0 0
8.43642 5.87336 -3.85664 255 0 0
7.74762 5.55911 -4.55508 255 0 0
6.60822 5.54644 -4.77944 255 0 0
7.06289 7.03782 -4.2322 255 0 0
8.14722 6.90428 -4.39082 255 0 0
7.13913 5.5309 -4.66285 255 0 0
9.14885 5.50621 -5.24519 255 0 0
7.30441 5.92695 -3.77982 255 0 0
9.03624 5.79486 -4.21654 255 0 0
7.65856 6.12449 -3.60333 255 0 0
8.2008 5.58036 -4.56972 255 0 0
8.19445 5.76278 -4.06853 255 0 0
7.14119 6.37904 -4.22743 255 0 0
8.23768 5.91074 -3.74434 255 0 0
7.06897 6.65399 -3.58727 255 0 0
7.68426 5.55513 -4.54068 255 0 0
7.83049 5.87567 -3.76818 255 0 0
6.77533 5.65937 -4.84408 255 0 0
6.49261 5.89727 -3.73521 255 0 0
8.91924 5.5131 -5.09175 255 0 0
6.58072 5.49682 -4.92057 255 0 0
6.9434 5.55258 -4.62145 255 0 0
7.09681 5.56575 -4.57805 255 0 0
9.79822 5.61578 -5.22819 255 0 0
8.50688 5.86272 -3.86601 255 0 0
8.28822 5.74106 -4.52272 255 0 0
8.89389 5.79326 -4.19167 255 0 0
6.48759 6.02028 -3.59855 255 0 0
7.02755 5.7023 -4.18465 255 0 0
6.60852 6.33985 -3.57557 255 0 0
8.8765 5.69242 -4.45296 255 0 0
7.96105 5.54241 -4.6858 255 0 0
7.14079 6.51699 -3.58065 255 0 0
8.23408 5.53189 -4.83553 255 0 0
8.74632 5.63825 -4.60373 255 0 0
7.22519 6.36226 -3.57404 255 0 0
8.02637 6.9171 -4.27981 255 0 0
8.38549 5.91198 -3.76519 255 0 0
6.94541 7.25695 -4.24883 255 0 0
7.22732 5.58553 -4.44748 255 0 0
7.5371 5.93996 -3.65102 255 0 0
8.55425 5.77648 -4.04202 255 0 0
7.37813 6.31287 -4.34403 255 0 0
6.98978 5.64422 -4.32743 255 0 0
7.22965 5.98089 -3.61428 255 0 0
8.26221 6.078 -3.67702 255 0 0
8.00502 6.03635 -3.63923 255 0 0
7.95845 6.03088 -3.63262 255 0 0
7.80881 6.06455 -3.61656 255 0 0
7.73824 6.09848 -3.61089 255 0 0
7.53295 6.14208 -3.58916 255 0 0
7.44187 6.21611 -3.58538 255 0 0
7.35779 6.23528 -3.57687 255 0 0
7.29718 6.27363 -3.57341 255 0 0
7.2422 6.31652 -3.5712 255 0 0
7.18845 6.36023 -3.56932 255 0 0
7.19167 6.40881 -3.57498 255 0 0
7.08494 6.60593 -3.5838 255 0 0
7.01728 6.70012 -3.58632 255 0 0
7.00138 6.71673 -3.58632 255 0 0
6.99916 6.82706 -3.5986 255 0 0
6.87591 6.75472 -3.57593 255 0 0
6.8356 6.77911 -3.57404 255 0 0
6.79904 6.7749 -3.56932 255 0 0
6.74419 6.16971 -3.57259 255 0 0
8.09624 5.78022 -4.22708 255 0 0
7.13924 5.76491 -4.13457 255 0 0
7.16733 5.84396 -3.82952 255 0 0
7.55158 5.89353 -3.81247 255 0 0
6.98264 5.50299 -4.78285 255 0 0
8.55402 5.86534 -3.87329 255 0 0
6.57832 5.52135 -4.61012 255 0 0
7.64753 5.93929 -3.66591 255 0 0
8.4912 5.53096 -4.89668 255 0 0
8.43235 5.88536 -3.76916 255 0 0
8.29625 5.90817 -3.75228 255 0 0
8.18153 5.91462 -3.73689 255 0 0
8.08814 5.89104 -3.72151 255 0 0
8.09743 5.92724 -3.72647 255 0 0
8.02986 5.92174 -3.71654 255 0 0
7.97632 5.92619 -3.70959 255 0 0
7.92988 5.92091 -3.70264 255 0 0
7.49785 5.95237 -3.64705 255 0 0
7.43353 5.95897 -3.6391 255 0 0
7.27763 5.9771 -3.62024 255 0 0
6.73578 5.97394 -3.62612 255 0 0
7.20214 5.98694 -3.61131 255 0 0
7.17906 5.9966 -3.60932 255 0 0
7.13341 6.00165 -3.60386 255 0 0
7.05924 6.04002 -3.5984 255 0 0
6.88888 6.09517 -3.58251 255 0 0
6.85207 6.10619 -3.57904 255 0 0
6.81362 6.14477 -3.57854 255 0 0
6.7318 6.21727 -3.57656 255 0 0
6.70117 6.26298 -3.57805 255 0 0
6.68936 6.29666 -3.58053 255 0 0
6.61424 6.37552 -3.58053 255 0 0
6.62529 6.44706 -3.59046 255 0 0
6.57292 6.54959 -3.59641 255 0 0
6.54106 6.54882 -3.59244 255 0 0
6.5482 6.60277 -3.59989 255 0 0
6.56752 6.70123 -3.61428 255 0 0
6.57982 6.7457 -3.62123 255 0 0
6.52961 6.8063 -3.62272 255 0 0
6.52725 6.85248 -3.62818 255 0 0
6.53524 6.97589 -3.64456 255 0 0
8.56407 5.49206 -5.09196 255 0 0
7.05862 5.59005 -4.41263 255 0 0
8.17074 5.83341 -3.89956 255 0 0
8.28476 5.52327 -4.75689 255 0 0
6.4425 5.52556 -4.57947 255 0 0
6.97518 5.88268 -3.72648 255 0 0
7.33243 5.89225 -3.77982 255 0 0
9.38598 5.52835 -4.91879 255 0 0
7.03282 5.87445 -3.89211 255 0 0
8.60467 5.93011 -4.52265 255 0 0
7.79353 5.87687 -3.76298 255 0 0
8.63418 5.86031 -3.88474 255 0 0
8.60122 5.86777 -3.88058 255 0 0
8.46927 5.86646 -3.86081 255 0 0
8.3472 5.87021 -3.84311 255 0 0
8.29562 5.86338 -3.83479 255 0 0
8.05303 5.89474 -3.80253 255 0 0
7.93462 5.8806 -3.78379 255 0 0
7.88133 5.88466 -3.77651 255 0 0
7.68747 5.88313 -3.74841 255 0 0
7.44874 5.89901 -3.71615 255 0 0
7.39168 5.8967 -3.70782 255 0 0
7.2888 5.91429 -3.69533 255 0 0
7.1817 5.92687 -3.6818 255 0 0
7.08855 5.93527 -3.66983 255 0 0
7.01588 5.94553 -3.66099 255 0 0
6.97544 5.93973 -3.65474 255 0 0
6.68161 5.98276 -3.61988 255 0 0
6.62682 6.00486 -3.6152 255 0 0
6.4514 6.02954 -3.5949 255 0 0
9.03325 5.73267 -4.30198 255 0 0
9.43062 5.64537 -4.75012 255 0 0
7.12521 5.62905 -4.35239 255 0 0
8.76705 5.82981 -3.99209 255 0 0
8.79147 5.87616 -4.0008 255 0 0
8.71066 5.85207 -3.98556 255 0 0
8.65384 5.84373 -3.97576 255 0 0
8.04519 5.83061 -3.87996 255 0 0
7.45157 5.84397 -3.79179 255 0 0
7.35537 5.88203 -3.78199 255 0 0
7.10533 5.90647 -3.74825 255 0 0
6.93407 5.9045 -3.72321 255 0 0
6.90256 5.90597 -3.71886 255 0 0
6.84835 5.91607 -3.71232 255 0 0
6.61075 5.93345 -3.68076 255 0 0
6.52728 5.95708 -3.67205 255 0 0
6.49474 5.98405 -3.67096 255 0 0
6.96909 6.07832 -4.3138 255 0 0
6.7413 5.61739 -4.35125 255 0 0
7.05416 5.86394 -3.81475 255 0 0
8.78934 5.75489 -4.07838 255 0 0
8.78269 5.81023 -4.08331 255 0 0
8.59348 5.8924 -4.06134 255 0 0
8.56057 5.89972 -4.05679 255 0 0
8.17164 5.83405 -3.98634 255 0 0
7.98593 5.8166 -3.95452 255 0 0
7.12558 5.89479 -3.82952 255 0 0
6.90106 5.87639 -3.79316 255 0 0
6.70013 5.87176 -3.76248 255 0 0
6.63298 5.88277 -3.75396 255 0 0
6.56165 5.88938 -3.7443 255 0 0
6.99531 5.78702 -3.95342 255 0 0
7.44159 5.57006 -4.49067 255 0 0
9.36367 5.6355 -4.73449 255 0 0
7.96914 5.49212 -5.02948 255 0 0
6.562 5.61458 -4.46862 255 0 0
6.99364 7.20405 -4.42373 255 0 0
7.00811 5.74186 -4.2669 255 0 0
9.23136 5.55587 -4.88697 255 0 0
9.00319 5.80384 -4.2118 255 0 0
8.93647 5.79087 -4.19878 255 0 0
8.81776 5.7735 -4.17628 255 0 0
8.14798 5.75903 -4.06025 255 0 0
8.14365 5.78497 -4.06261 255 0 0
8.06509 5.81592 -4.05314 255 0 0
8.03271 5.82157 -4.0484 255 0 0
8.17621 5.98491 -4.09221 255 0 0
7.79738 5.85083 -4.01288 255 0 0
7.29048 5.85854 -3.93118 255 0 0
7.17801 5.82439 -3.90869 255 0 0
6.75287 5.80567 -3.83883 255 0 0
6.67163 5.84678 -3.83172 255 0 0
6.7266 5.92322 -3.85067 255 0 0
6.54637 5.87567 -3.81633 255 0 0
6.48869 5.87965 -3.80804 255 0 0
6.90065 6.97468 -4.02591 255 0 0
6.9839 7.12609 -4.06025 255 0 0
7.65469 5.49243 -4.94902 255 0 0
9.53724 5.51134 -5.04985 255 0 0
6.48625 5.56309 -4.51961 255 0 0
8.40277 5.67419 -4.53693 255 0 0
8.3857 5.51906 -4.77955 255 0 0
8.02984 5.73282 -4.29509 255 0 0
9.01481 5.751 -4.30075 255 0 0
8.92887 5.726 -4.28228 255 0 0
8.90161 5.76828 -4.28228 255 0 0
8.06873 5.73175 -4.12955 255 0 0
7.96057 5.75491 -4.11354 255 0 0
8.24454 6.065 -4.20222 255 0 0
7.17031 5.79 -3.98298 255 0 0
7.08066 5.77329 -3.96574 255 0 0
6.99918 5.81823 -3.95835 255 0 0
7.02851 5.8992 -3.97436 255 0 0
8.17957 6.93169 -4.30691 255 0 0
8.05415 6.85828 -4.27612 255 0 0
8.01974 6.99467 -4.28967 255 0 0
6.47101 5.80803 -3.8709 255 0 0
6.894 7.10141 -4.12955 255 0 0
7.35946 5.60449 -4.39645 255 0 0
8.74655 5.52168 -4.86392 255 0 0
7.03967 5.71214 -4.26832 255 0 0
8.22993 5.52911 -4.74518 255 0 0
9.64328 5.49664 -5.07328 255 0 0
8.79507 5.55231 -4.78695 255 0 0
9.39233 5.50214 -5.30819 255 0 0
6.53449 5.59104 -4.38113 255 0 0
7.19032 5.73606 -4.22038 255 0 0
9.17306 5.71519 -4.4196 255 0 0
9.13576 5.73714 -4.41513 255 0 0
9.02643 5.72835 -4.39338 255 0 0
8.98874 5.73437 -4.38698 255 0 0
8.94626 5.73716 -4.37931 255 0 0
8.83118 6.05538 -4.39722 255 0 0
7.29437 6.42317 -4.17592 255 0 0
8.77445 6.04712 -4.38571 255 0 0
8.18347 5.72611 -4.23604 255 0 0
8.1327 5.73376 -4.22772 255 0 0
8.07731 5.73785 -4.21813 255 0 0
7.99431 5.73611 -4.20278 255 0 0
7.18391 5.80098 -4.06718 255 0 0
7.12577 5.782 -4.05439 255 0 0
7.10761 5.79527 -4.05311 255 0 0
7.06733 5.79037 -4.04544 255 0 0
7.04476 5.79985 -4.04288 255 0 0
8.07428 6.87542 -4.37419 255 0 0
8.06663 6.90197 -4.37675 255 0 0
7.38303 6.40858 -4.18871 255 0 0
7.32044 6.38476 -4.17464 255 0 0
7.2838 6.38326 -4.16824 255 0 0
7.21921 6.38744 -4.15801 255 0 0
7.20163 6.43302 -4.16185 255 0 0
6.46976 5.86253 -3.95462 255 0 0
7.07041 7.0788 -4.23988 255 0 0
6.94799 7.19106 -4.2386 255 0 0
6.9428 7.21987 -4.24243 255 0 0
8.0221 5.6558 -4.45592 255 0 0
6.64341 5.57597 -4.40144 255 0 0
7.06137 5.92678 -4.30669 255 0 0
8.05264 5.49353 -4.96256 255 0 0
7.01469 5.50134 -5.11936 255 0 0
9.06677 5.60429 -4.47949 255 0 0
9.1019 5.65587 -4.49276 255 0 0
9.28677 5.80132 -4.54715 255 0 0
8.91194 5.62609 -4.45163 255 0 0
8.85631 5.64989 -4.44368 255 0 0
8.82356 6.08097 -4.49276 255 0 0
8.18197 5.72507 -4.32295 255 0 0
8.09374 5.69196 -4.30172 255 0 0
8.00156 5.68404 -4.28315 255 0 0
7.95599 5.70862 -4.27784 255 0 0
8.0166 5.83893 -4.30703 255 0 0
7.20419 5.77515 -4.14783 255 0 0
7.07887 5.75786 -4.12263 255 0 0
6.99659 5.73241 -4.10405 255 0 0
8.20041 6.91601 -4.49541 255 0 0
8.13178 6.89119 -4.47949 255 0 0
8.02858 6.8365 -4.45296 255 0 0
7.28492 6.2932 -4.23937 255 0 0
7.11794 6.32799 -4.21549 255 0 0
7.13878 6.40738 -4.23141 255 0 0
6.98825 7.01313 -4.30305 255 0 0
8.28462 5.53738 -4.8484 255 0 0
9.37794 5.64409 -4.64219 255 0 0
7.25369 5.51037 -4.76846 255 0 0
9.37044 5.57921 -4.82522 255 0 0
7.492 5.52508 -4.74482 255 0 0
8.758 5.558 -4.77937 255 0 0
8.95107 5.62116 -4.55151 255 0 0
8.95265 5.66666 -4.55769 255 0 0
8.24435 5.71066 -4.42098 255 0 0
8.17473 5.69117 -4.40449 255 0 0
8.05395 5.63548 -4.37289 255 0 0
8.02249 5.67033 -4.37151 255 0 0
7.98582 5.67285 -4.36464 255 0 0
7.11662 5.71883 -4.20389 255 0 0
6.9912 5.75576 -4.18603 255 0 0
7.68286 6.46397 -4.42373 255 0 0
7.70326 6.52804 -4.43747 255 0 0
7.41908 6.3175 -4.35228 255 0 0
7.07933 7.08772 -4.41823 255 0 0
6.99885 7.27816 -4.43747 255 0 0
6.98158 7.29474 -4.43747 255 0 0
8.0983 5.6095 -4.5521 255 0 0
8.45566 5.53641 -4.70814 255 0 0
7.93346 5.55118 -4.59448 255 0 0
9.56202 5.5408 -5.15899 255 0 0
7.13236 5.51214 -4.73952 255 0 0
7.084 5.52862 -4.6496 255 0 0
7.18447 5.49819 -4.83183 255 0 0
9.69811 5.65042 -4.80839 255 0 0
9.5831 5.64445 -4.78281 255 0 0
9.54526 5.65269 -4.7757 255 0 0
9.30654 5.63122 -4.7217 255 0 0
9.23979 5.6208 -4.70606 255 0 0
9.19736 5.62491 -4.69754 255 0 0
9.04496 5.59081 -4.66058 255 0 0
8.87246 5.5133 -4.61368 255 0 0
8.8401 5.52229 -4.608 255 0 0
8.89432 5.58552 -4.62789 255 0 0
8.87918 5.62017 -4.62932 255 0 0
8.87352 5.66087 -4.63358 255 0 0
8.74723 5.66824 -4.608 255 0 0
8.67665 5.65176 -4.59094 255 0 0
8.62521 5.64742 -4.57957 255 0 0
8.57384 5.64288 -4.5682 255 0 0
8.56117 5.69291 -4.57247 255 0 0
8.48153 5.669 -4.55257 255 0 0
8.58594 5.76828 -4.5881 255 0 0
8.33087 5.66889 -4.5213 255 0 0
8.21698 5.63423 -4.49288 255 0 0
8.19424 5.64725 -4.49003 255 0 0
8.08812 5.63087 -4.46587 255 0 0
7.97878 5.66785 -4.44882 255 0 0
7.95608 5.68015 -4.44597 255 0 0
7.75798 5.56654 -4.38912 255 0 0
7.92905 5.71782 -4.44597 255 0 0
7.82379 5.6985 -4.42181 255 0 0
7.2002 5.73001 -4.30243 255 0 0
7.12214 5.7094 -4.28395 255 0 0
7.03994 5.68473 -4.26405 255 0 0
7.00167 5.83435 -4.2804 255 0 0
7.08638 5.97647 -4.31948 255 0 0
7.0261 5.96854 -4.30669 255 0 0
6.98912 5.99437 -4.30385 255 0 0
8.86447 5.53751 -4.80059 255 0 0
6.9773 6.1293 -4.32375 255 0 0
7.00028 6.22339 -4.34364 255 0 0
7.02327 7.09861 -4.49856 255 0 0
7.02151 7.26715 -4.52841 255 0 0
8.99272 5.57324 -4.74079 255 0 0
8.11362 5.50698 -4.89138 255 0 0
9.8636 5.62223 -4.94123 255 0 0
9.78631 5.60896 -4.92214 255 0 0
9.71897 5.60101 -4.90599 255 0 0
9.60414 5.59567 -4.87955 255 0 0
9.42266 5.58009 -4.83697 255 0 0
9.31828 5.57812 -4.81348 255 0 0
9.25646 5.57097 -4.79879 255 0 0
9.10055 5.5657 -4.76355 255 0 0
9.07767 5.58132 -4.76061 255 0 0
8.91755 5.57067 -4.7239 255 0 0
8.88809 5.5963 -4.72097 255 0 0
8.78199 5.57322 -4.69453 255 0 0
8.63308 5.57975 -4.66296 255 0 0
8.57757 5.58722 -4.65195 255 0 0
8.49316 5.56097 -4.62992 255 0 0
8.38259 5.57416 -4.6079 255 0 0
8.33637 5.57197 -4.59762 255 0 0
8.12948 5.57424 -4.55357 255 0 0
8.08357 5.57098 -4.54329 255 0 0
7.98337 5.5861 -4.5242 255 0 0
7.89662 5.58136 -4.50511 255 0 0
7.83748 5.58144 -4.49263 255 0 0
7.69729 5.60636 -4.46693 255 0 0
7.62909 5.58442 -4.44931 255 0 0
7.6204 5.60586 -4.45078 255 0 0
7.49421 5.60944 -4.42508 255 0 0
7.42669 5.60024 -4.40966 255 0 0
7.39983 5.60757 -4.40526 255 0 0
7.30114 5.58748 -4.38176 255 0 0
7.28571 5.61686 -4.38323 255 0 0
7.19568 5.61577 -4.36463 255 0 0
7.05636 5.61554 -4.33624 255 0 0
7.08729 5.66765 -4.35093 255 0 0
7.05698 5.86628 -4.37736 255 0 0
7.01669 6.14918 -4.417 255 0 0
6.98933 6.15456 -4.4126 255 0 0
7.16764 6.37218 -4.48455 255 0 0
9.3915 5.50165 -5.20933 255 0 0
9.8061 5.55868 -5.02033 255 0 0
9.47562 5.52079 -4.93849 255 0 0
9.34851 5.53618 -4.91122 255 0 0
9.29648 5.53518 -4.89909 255 0 0
9.17461 5.55139 -4.87333 255 0 0
9.02756 5.52106 -4.83544 255 0 0
8.96279 5.54002 -4.82332 255 0 0
8.9112 5.53737 -4.81119 255 0 0
8.82737 5.54347 -4.79301 255 0 0
8.37742 5.54212 -4.69147 255 0 0
8.336 5.54317 -4.68238 255 0 0
8.28522 5.53778 -4.67026 255 0 0
8.24859 5.54164 -4.66268 255 0 0
8.21668 5.54852 -4.65662 255 0 0
8.16606 5.54258 -4.64449 255 0 0
8.12486 5.5428 -4.6354 255 0 0
8.09304 5.54925 -4.62934 255 0 0
8.05192 5.54917 -4.62025 255 0 0
7.89715 5.55371 -4.5869 255 0 0
7.84044 5.55558 -4.57478 255 0 0
7.793 5.56373 -4.56569 255 0 0
7.59415 5.55884 -4.52174 255 0 0
7.56272 5.56343 -4.51568 255 0 0
7.52677 5.56453 -4.5081 255 0 0
7.49086 5.5655 -4.50052 255 0 0
7.37883 5.56416 -4.47628 255 0 0
7.33197 5.56982 -4.46718 255 0 0
7.28517 5.57525 -4.45809 255 0 0
7.15171 5.58146 -4.43081 255 0 0
7.10295 5.59781 -4.42323 255 0 0
7.03207 5.59621 -4.40808 255 0 0
6.92824 5.6081 -4.38838 255 0 0
6.69313 5.6177 -4.3414 255 0 0
6.64719 5.61955 -4.33231 255 0 0
6.58606 5.62163 -4.32018 255 0 0
6.52932 5.62696 -4.30957 255 0 0
6.48365 5.62791 -4.30048 255 0 0
8.97003 5.51514 -4.91548 255 0 0
7.38651 5.50155 -4.79911 255 0 0
6.84676 5.56906 -4.44363 255 0 0
9.92332 5.56312 -5.14984 255 0 0
9.80196 5.52567 -5.11547 255 0 0
9.43469 5.49694 -5.02329 255 0 0
9.23182 5.49668 -4.97485 255 0 0
9.15247 5.50839 -4.95766 255 0 0
9.08458 5.51162 -4.94204 255 0 0
9.01677 5.51447 -4.92642 255 0 0
8.93772 5.52452 -4.90923 255 0 0
8.88626 5.52187 -4.89673 255 0 0
8.83964 5.522 -4.88579 255 0 0
8.79785 5.52494 -4.87642 255 0 0
8.68578 5.51217 -4.84829 255 0 0
8.63285 5.52172 -4.83736 255 0 0
8.55624 5.51572 -4.81861 255 0 0
8.51473 5.51758 -4.80923 255 0 0
8.47325 5.51927 -4.79986 255 0 0
8.34906 5.52336 -4.77174 255 0 0
8.10649 5.53026 -4.71705 255 0 0
8.04681 5.51756 -4.70143 255 0 0
7.91552 5.53863 -4.67487 255 0 0
7.87467 5.5379 -4.66549 255 0 0
7.78392 5.52943 -4.64362 255 0 0
7.69604 5.53591 -4.62487 255 0 0
7.59923 5.53494 -4.60299 255 0 0
7.55876 5.53294 -4.59362 255 0 0
7.38882 5.54426 -4.55768 255 0 0
7.34862 5.54138 -4.54831 255 0 0
7.31748 5.54516 -4.54206 255 0 0
7.21075 5.54546 -4.51862 255 0 0
7.17526 5.54529 -4.51081 255 0 0
7.13323 5.55343 -4.503 255 0 0
7.08679 5.55788 -4.49363 255 0 0
7.03377 5.5568 -4.48191 255 0 0
6.97866 5.56722 -4.47175 255 0 0
6.92803 5.56727 -4.46081 255 0 0
6.89286 5.56596 -4.453 255 0 0
6.78757 5.57459 -4.43191 255 0 0
6.74378 5.57894 -4.42332 255 0 0
6.68488 5.57037 -4.40925 255 0 0
6.49982 5.58812 -4.37332 255 0 0
9.50021 5.53512 -5.1429 255 0 0
9.45791 5.54055 -5.13324 255 0 0
9.4205 5.54868 -5.1252 255 0 0
9.3395 5.53084 -5.10267 255 0 0
9.24412 5.504 -5.07531 255 0 0
9.08088 5.52413 -5.0383 255 0 0
8.99703 5.53174 -5.01898 255 0 0
8.86196 5.53595 -4.9868 255 0 0
8.82974 5.54497 -4.98036 255 0 0
8.7642 5.53283 -4.96266 255 0 0
8.72254 5.53549 -4.953 255 0 0
8.56938 5.52419 -4.91438 255 0 0
8.53264 5.52918 -4.90634 255 0 0
8.4498 5.53257 -4.88702 255 0 0
8.40844 5.53402 -4.87737 255 0 0
8.36243 5.5322 -4.8661 255 0 0
8.32116 5.53331 -4.85645 255 0 0
8.19294 5.53249 -4.82587 255 0 0
8.17049 5.54558 -4.82265 255 0 0
8.13871 5.55225 -4.81622 255 0 0
8.08838 5.54606 -4.80334 255 0 0
8.01571 5.55229 -4.78725 255 0 0
7.97018 5.54877 -4.77599 255 0 0
7.89773 5.55411 -4.75989 255 0 0
7.85695 5.55333 -4.75024 255 0 0
7.78671 5.54529 -4.73254 255 0 0
7.73949 5.55328 -4.72288 255 0 0
7.67607 5.53539 -4.70518 255 0 0
7.59539 5.54592 -4.68828 255 0 0
7.53707 5.54455 -4.6746 255 0 0
7.49674 5.54233 -4.66495 255 0 0
7.39408 5.54821 -4.64242 255 0 0
7.26066 5.5565 -4.61345 255 0 0
7.22068 5.5531 -4.60379 255 0 0
7.17641 5.55977 -4.59494 255 0 0
7.04384 5.56476 -4.56598 255 0 0
6.99537 5.567 -4.55552 255 0 0
6.94259 5.56543 -4.54345 255 0 0
6.81981 5.5606 -4.51528 255 0 0
6.79563 5.58124 -4.51367 255 0 0
6.74538 5.58026 -4.50241 255 0 0
6.69059 5.60207 -4.49436 255 0 0
6.62957 5.60465 -4.48149 255 0 0
6.48818 5.61835 -4.45333 255 0 0
7.23291 5.49456 -4.8432 255 0 0
9.51953 5.51619 -5.24411 255 0 0
9.47246 5.51895 -5.23251 255 0 0
9.28628 5.51421 -5.18449 255 0 0
9.07684 5.49223 -5.12819 255 0 0
8.87752 5.51645 -5.08182 255 0 0
8.81202 5.50475 -5.0636 255 0 0
8.70626 5.52516 -5.04042 255 0 0
8.59959 5.51484 -5.01227 255 0 0
8.55345 5.51392 -5.00067 255 0 0
8.4472 5.5023 -4.97252 255 0 0
8.36941 5.50833 -4.95431 255 0 0
8.33291 5.51267 -4.94603 255 0 0
8.27772 5.50442 -4.93112 255 0 0
8.25064 5.51467 -4.92615 255 0 0
8.20491 5.51229 -4.91456 255 0 0
8.08198 5.51354 -4.88475 255 0 0
7.97331 5.52292 -4.85991 255 0 0
7.92331 5.51614 -4.84667 255 0 0
7.878 5.51237 -4.83507 255 0 0
7.79249 5.52161 -4.81603 255 0 0
7.72938 5.51831 -4.8003 255 0 0
7.70715 5.53007 -4.79699 255 0 0
7.63282 5.51795 -4.77711 255 0 0
7.5859 5.52523 -4.76718 255 0 0
7.43849 5.52659 -4.7324 255 0 0
7.24303 5.52939 -4.68686 255 0 0
7.06645 5.54193 -4.64795 255 0 0
7.04006 5.54824 -4.64298 255 0 0
6.98949 5.54879 -4.63139 255 0 0
6.53611 5.55226 -4.52871 255 0 0
8.89231 5.49645 -5.17709 255 0 0
8.84595 5.49682 -5.16517 255 0 0
8.80913 5.50294 -5.15666 255 0 0
8.7581 5.49998 -5.14304 255 0 0
8.7024 5.49381 -5.12771 255 0 0
8.13896 5.49604 -4.98469 255 0 0
8.00073 5.49991 -4.95064 255 0 0
7.94428 5.50282 -4.93702 255 0 0
7.88332 5.50216 -4.9217 255 0 0
7.82245 5.50118 -4.90637 255 0 0
7.77279 5.49384 -4.89275 255 0 0
7.66524 5.5 -4.86721 255 0 0
7.63854 5.50833 -4.8621 255 0 0
7.60732 5.51327 -4.85529 255 0 0
7.54241 5.50725 -4.83827 255 0 0
7.47314 5.49753 -4.81954 255 0 0
7.34449 5.51099 -4.79059 255 0 0
7.17859 5.50719 -4.74973 255 0 0
6.98743 5.52019 -4.70632 255 0 0
6.93925 5.52234 -4.69525 255 0 0
6.81262 5.50117 -4.6612 255 0 0
6.81696 5.53143 -4.66801 255 0 0
6.72565 5.51043 -4.64247 255 0 0
6.69959 5.51568 -4.63736 255 0 0
6.5957 5.50932 -4.61182 255 0 0
6.65045 5.58189 -5.03814 255 0 0
6.93457 5.66789 -4.88537 255 0 0
8.89331 5.49707 -5.27261 255 0 0
8.51974 5.49219 -5.17291 255 0 0
7.8612 5.50061 -5.00324 255 0 0
7.55219 5.50068 -4.92453 255 0 0
7.15812 5.50499 -4.82658 255 0 0
7.10968 5.49461 -4.81259 255 0 0
7.08339 5.50117 -4.80734 255 0 0
7.03078 5.50049 -4.79422 255 0 0
6.94767 5.50219 -4.77411 255 0 0
6.904 5.49429 -4.76186 255 0 0
6.79084 5.49688 -4.73475 255 0 0
6.71708 5.50341 -4.71814 255 0 0
6.48187 5.50621 -4.66216 255 0 0
6.89434 5.56716 -4.85485 255 0 0
6.93738 5.62914 -4.87819 255 0 0
6.92482 5.71489 -4.89256 255 0 0
6.9541 5.53416 -4.94498 255 0 0
6.61931 5.50246 -4.93189 255 0 0
6.98092 5.52852 -5.19929 255 0 0
6.94192 5.52447 -5.18741 255 0 0
6.70889 5.52334 -5.12208 255 0 0
6.74248 5.57787 -5.14385 255 0 0
6.47781 5.51603 -5.05674 255 0 0
6.63729 5.50408 -5.179 255 0 0
7.07688 5.49611 -5.30357 255 0 0
7.01172 5.52591 -5.29141 255 0 0
6.57761 5.49422 -5.15976 255 0 0
6.53912 5.50164 -5.15064 255 0 0
