ply
format ascii 1.0
comment Created by Open3D
element vertex 133
property double x
property double y
property double z
property uchar red
property uchar green
property uchar blue
end_header
26.3954 8.50724 -4.6587 255 0 0
25.6674 9.56871 -3.93838 255 0 0
25.6889 9.50743 -3.25298 255 0 0
27.6968 8.92669 -3.33111 255 0 0
26.1471 8.4957 -4.17521 255 0 0
25.9279 8.76566 -3.93673 255 0 0
26.1227 9.38728 -3.03864 255 0 0
25.8437 8.73718 -3.2479 255 0 0
25.6644 9.70647 -3.25512 255 0 0
25.7885 8.99193 -3.9326 255 0 0
25.8066 8.52058 -3.92309 255 0 0
25.8039 8.9973 -3.25004 255 0 0
28.0514 8.74818 -4.32485 255 0 0
25.8863 8.95724 -3.48122 255 0 0
25.7278 9.10785 -3.24843 255 0 0
25.6957 9.23383 -4.38883 255 0 0
28.0056 8.80682 -4.56847 255 0 0
25.8906 9.58205 -3.72305 255 0 0
27.9113 8.92283 -4.07353 255 0 0
25.7062 9.16882 -3.24843 255 0 0
25.9963 8.99532 -4.40669 255 0 0
25.7942 8.72045 -3.47237 255 0 0
26.6044 9.77458 -3.76901 255 0 0
25.6282 9.62338 -3.93714 255 0 0
26.1525 9.74956 -3.74202 255 0 0
25.61 9.6859 -3.48059 255 0 0
27.9231 8.78088 -4.80622 255 0 0
25.9634 9.60902 -3.49703 255 0 0
26.5481 8.69564 -3.51063 255 0 0
26.1533 9.67928 -3.04346 255 0 0
26.2662 8.67234 -3.26529 255 0 0
26.5971 9.62902 -4.23802 255 0 0
26.2213 9.70447 -3.97847 255 0 0
25.8824 9.50933 -3.95119 255 0 0
25.9845 8.92229 -4.40363 255 0 0
26.1277 8.62658 -3.48786 255 0 0
26.1487 8.56482 -3.94706 255 0 0
26.7532 8.8331 -3.05418 255 0 0
26.0121 8.8629 -3.94458 255 0 0
25.8175 8.45633 -4.6045 255 0 0
26.5656 8.84108 -3.04762 255 0 0
27.9346 8.85733 -4.56387 255 0 0
25.8477 8.6703 -3.24709 255 0 0
26.2385 9.21869 -3.04061 255 0 0
27.3286 8.80802 -4.03179 255 0 0
26.1285 8.76448 -3.0312 255 0 0
25.9491 8.84142 -3.71102 255 0 0
25.6883 9.57651 -4.39853 255 0 0
27.4411 8.70084 -4.75984 255 0 0
25.7174 9.24161 -3.25004 255 0 0
25.69 9.16305 -3.4749 255 0 0
28.1418 8.70322 -4.57714 255 0 0
26.013 9.41754 -3.7267 255 0 0
25.8434 9.495 -3.48881 255 0 0
26.2935 9.16801 -3.04192 255 0 0
25.9215 8.76348 -4.39393 255 0 0
25.9859 9.06077 -4.40771 255 0 0
27.9605 8.64716 -4.31561 255 0 0
25.6436 9.62914 -3.25298 255 0 0
27.329 8.87972 -3.0752 255 0 0
26.8852 8.80607 -3.05856 255 0 0
26.4624 8.94634 -3.04521 255 0 0
26.358 8.98075 -3.04192 255 0 0
26.3367 9.04322 -3.04192 255 0 0
26.3151 9.10564 -3.04192 255 0 0
26.189 9.27111 -3.03952 255 0 0
26.167 9.33318 -3.03952 255 0 0
26.1719 9.47508 -3.04149 255 0 0
26.1219 9.52709 -3.04039 255 0 0
26.1981 9.62532 -3.04433 255 0 0
26.1138 9.73513 -3.0428 255 0 0
25.8113 9.69212 -3.03163 255 0 0
25.8606 8.47045 -4.15305 255 0 0
26.6362 9.0051 -4.22463 255 0 0
27.2305 8.84773 -3.3097 255 0 0
26.6814 8.7393 -3.28429 255 0 0
25.9681 8.64224 -3.25191 255 0 0
25.7676 8.77957 -3.24522 255 0 0
25.7754 8.91888 -3.24763 255 0 0
25.7107 9.03325 -3.24656 255 0 0
25.6898 9.36947 -3.25084 255 0 0
25.6894 9.43843 -3.25191 255 0 0
26.6894 8.60199 -4.21863 255 0 0
27.702 8.92837 -3.57386 255 0 0
27.2303 8.84768 -3.54825 255 0 0
25.7965 8.58511 -3.47016 255 0 0
25.8786 8.81741 -3.47838 255 0 0
25.8632 8.88065 -3.47869 255 0 0
25.7221 9.03725 -3.47427 255 0 0
25.8057 9.34249 -3.48407 255 0 0
25.8274 9.41968 -3.4866 255 0 0
27.8043 8.88862 -3.8219 255 0 0
27.7442 8.94197 -3.81935 255 0 0
26.7336 8.68628 -3.75442 255 0 0
26.2187 8.58775 -3.72196 255 0 0
25.9707 8.57477 -3.707 255 0 0
25.8426 8.73682 -3.70263 255 0 0
25.8451 8.87445 -3.70555 255 0 0
25.9897 8.99303 -3.71649 255 0 0
25.7163 9.24122 -3.70555 255 0 0
26.062 9.50523 -3.73144 255 0 0
28.004 8.87934 -4.32438 255 0 0
26.5577 8.62913 -3.97599 255 0 0
26.0187 8.93403 -3.94665 255 0 0
25.9698 8.98615 -3.94458 255 0 0
26.5766 9.47927 -3.99666 255 0 0
26.4001 9.48696 -3.98508 255 0 0
25.9602 9.39842 -3.95367 255 0 0
25.9707 9.47195 -3.95615 255 0 0
25.9644 9.12236 -4.40771 255 0 0
28.0695 8.82693 -4.32808 255 0 0
27.8884 8.9155 -4.31653 255 0 0
25.9462 8.84044 -4.16875 255 0 0
25.892 8.89056 -4.16598 255 0 0
25.7937 8.9252 -4.15951 255 0 0
26.7188 9.60146 -4.24634 255 0 0
26.6181 9.70805 -4.24172 255 0 0
26.606 9.77516 -4.24264 255 0 0
25.7052 9.65227 -4.17244 255 0 0
25.7356 9.04199 -4.61512 255 0 0
28.0598 8.75081 -4.57153 255 0 0
27.0134 8.6358 -4.4812 255 0 0
26.5654 8.56204 -4.4419 255 0 0
26.0291 8.45737 -4.39444 255 0 0
25.7983 8.45007 -4.37505 255 0 0
25.9338 8.8362 -4.397 255 0 0
25.9537 9.18779 -4.40873 255 0 0
25.9648 9.26106 -4.4118 255 0 0
25.7583 9.67225 -4.4072 255 0 0
26.8985 8.59905 -4.70732 255 0 0
26.0592 8.46714 -4.62685 255 0 0
25.7837 8.92176 -4.61568 255 0 0
27.9594 9.82329 -4.34471 255 0 0
