ply
format ascii 1.0
comment Created by Open3D
element vertex 774
property double x
property double y
property double z
property uchar red
property uchar green
property uchar blue
end_header
23.4871 -6.29832 -4.33125 255 0 0
23.6708 -9.79653 -2.7454 255 0 0
23.5451 -7.96008 -3.96647 255 0 0
23.6057 -6.93402 -3.53557 255 0 0
24.6532 -7.56031 -2.96486 255 0 0
23.5614 -9.62066 -3.16415 255 0 0
23.5679 -5.54746 -4.3212 255 0 0
23.5469 -8.65125 -3.77513 255 0 0
23.5572 -7.53089 -3.95677 255 0 0
23.6218 -10.1059 -2.96135 255 0 0
23.6297 -6.45682 -3.73338 255 0 0
23.6874 -5.57559 -3.92536 255 0 0
23.5409 -8.27088 -3.76562 255 0 0
23.5549 -7.83912 -3.54943 255 0 0
23.5235 -9.86648 -3.59211 255 0 0
23.9342 -6.66216 -4.59035 255 0 0
23.5889 -7.23393 -3.53995 255 0 0
23.459 -8.17968 -4.59035 255 0 0
23.6411 -8.36913 -2.52116 255 0 0
23.5663 -7.28817 -3.95169 255 0 0
23.5399 -8.39615 -3.76851 255 0 0
23.6026 -7.36077 -3.7495 255 0 0
23.5849 -8.22357 -3.35065 255 0 0
24.0919 -10.5104 -2.54622 255 0 0
23.5403 -7.28013 -4.5691 255 0 0
23.5 -8.00697 -4.58853 255 0 0
23.422 -9.30556 -4.41619 255 0 0
24.9804 -9.24519 -2.77504 255 0 0
24.2251 -5.39987 -4.17143 255 0 0
23.59 -9.69764 -2.95435 255 0 0
23.6723 -9.73148 -2.74472 255 0 0
23.6358 -8.30423 -3.14596 255 0 0
23.8623 -10.4776 -3.84415 255 0 0
23.5698 -7.28926 -3.74578 255 0 0
23.6264 -8.74408 -3.15238 255 0 0
23.5206 -9.40937 -4.21634 255 0 0
23.545 -9.61396 -4.01219 255 0 0
24.0646 -5.90578 -3.3399 255 0 0
23.5399 -7.95831 -4.17398 255 0 0
23.5989 -7.35963 -3.54287 255 0 0
23.8952 -5.38585 -4.55392 255 0 0
24.0048 -9.01378 -2.74609 255 0 0
23.577 -7.66064 -3.34053 255 0 0
23.5214 -9.73471 -3.58883 255 0 0
23.7303 -8.27428 -2.52225 255 0 0
23.6961 -9.87289 -2.74694 255 0 0
23.6367 -6.15857 -3.72842 255 0 0
23.4387 -9.11971 -4.41116 255 0 0
23.6262 -9.97552 -4.45866 255 0 0
24.1657 -7.09851 -3.15211 255 0 0
23.4406 -8.42345 -4.59703 255 0 0
23.57 -9.36437 -4.00665 255 0 0
23.6846 -6.59268 -4.35696 255 0 0
23.7428 -7.59023 -2.51799 255 0 0
24.0009 -5.40967 -3.53557 255 0 0
23.561 -10.5459 -3.39586 255 0 0
24.1098 -10.5863 -2.54719 255 0 0
23.5858 -9.43545 -3.16201 255 0 0
23.6315 -6.45732 -3.52901 255 0 0
23.5925 -9.17952 -3.158 255 0 0
23.5755 -6.74335 -4.35081 255 0 0
24.0269 -9.74431 -2.53879 255 0 0
23.5485 -7.40522 -4.15969 255 0 0
23.5982 -7.42085 -3.95723 255 0 0
23.5604 -7.34763 -4.15918 255 0 0
23.6484 -8.43485 -2.93946 255 0 0
23.5369 -9.41589 -4.00572 255 0 0
23.5951 -7.60471 -3.34053 255 0 0
23.5926 -6.74826 -3.53156 255 0 0
23.7381 -5.58751 -3.52208 255 0 0
23.6077 -6.39069 -3.93506 255 0 0
23.7482 -9.30503 -2.53004 255 0 0
23.6402 -6.58032 -3.32694 255 0 0
23.7438 -10.0916 -2.75068 255 0 0
23.5537 -8.2754 -3.97524 255 0 0
23.3999 -9.36107 -4.41619 255 0 0
23.7815 -7.6026 -2.93421 255 0 0
23.5734 -7.78325 -3.96416 255 0 0
24.305 -5.78182 -3.35096 255 0 0
23.492 -8.06645 -4.58974 255 0 0
23.5472 -9.09769 -3.78629 255 0 0
23.6826 -6.29061 -3.32504 255 0 0
23.7095 -9.28986 -2.95282 255 0 0
23.9554 -9.06012 -2.53223 255 0 0
23.9852 -10.0601 -4.27554 255 0 0
23.6823 -5.81196 -3.72553 255 0 0
23.4869 -7.32468 -4.35863 255 0 0
23.5356 -6.97408 -4.55938 255 0 0
23.4764 -7.81301 -4.37204 255 0 0
23.5327 -6.49031 -4.13571 255 0 0
23.5599 -5.42779 -4.31784 255 0 0
23.7389 -5.35061 -4.33293 255 0 0
23.6346 -5.97883 -3.72512 255 0 0
23.7198 -10.1478 -2.75068 255 0 0
23.6215 -6.51481 -4.34913 255 0 0
23.6946 -5.6366 -3.72347 255 0 0
23.984 -9.92616 -2.5394 255 0 0
23.6567 -5.4501 -3.92075 255 0 0
23.9225 -9.24269 -2.9596 255 0 0
23.6902 -5.93315 -3.52427 255 0 0
23.5224 -10.3284 -3.60342 255 0 0
23.5396 -7.34113 -4.57092 255 0 0
23.5739 -8.78825 -3.36045 255 0 0
23.523 -10.5288 -3.60852 255 0 0
23.683 -8.32082 -2.52164 255 0 0
23.6742 -7.50646 -3.13606 255 0 0
23.5144 -9.7972 -3.58992 255 0 0
23.5506 -8.33707 -3.97663 255 0 0
23.5517 -5.95785 -4.32902 255 0 0
23.9775 -10.1238 -2.54086 255 0 0
23.8978 -10.4257 -3.84498 255 0 0
23.6571 -5.62769 -3.92398 255 0 0
23.5207 -9.73443 -4.01404 255 0 0
23.915 -6.53478 -4.58488 255 0 0
23.6618 -6.04542 -3.52427 255 0 0
23.5422 -7.71109 -4.16735 255 0 0
24.4098 -9.16587 -2.54184 255 0 0
23.848 -5.37521 -4.13877 255 0 0
23.9304 -6.47806 -4.58488 255 0 0
23.5434 -7.46499 -4.57517 255 0 0
23.5764 -9.69207 -3.16602 255 0 0
23.5336 -9.22094 -3.36677 255 0 0
23.7016 -8.58076 -2.94318 255 0 0
23.6943 -5.51796 -3.51843 255 0 0
23.5708 -8.2814 -3.35096 255 0 0
24.226 -7.55519 -2.94953 255 0 0
23.5805 -7.47675 -3.54396 255 0 0
23.5168 -9.21435 -3.57643 255 0 0
23.5118 -10.0588 -3.59612 255 0 0
23.6351 -10.5118 -4.47989 255 0 0
23.5145 -8.57611 -4.1898 255 0 0
23.5246 -8.96098 -3.78133 255 0 0
23.6502 -7.80859 -3.13927 255 0 0
23.5989 -10.4957 -3.82762 255 0 0
23.7025 -7.63932 -2.51751 255 0 0
23.5976 -6.08866 -4.13214 255 0 0
23.5617 -8.34103 -3.56001 255 0 0
23.6428 -5.62427 -4.53388 255 0 0
23.4545 -8.99802 -4.40837 255 0 0
23.6395 -10.2463 -4.25411 255 0 0
23.7114 -10.3444 -2.75273 255 0 0
23.6486 -6.28156 -3.52719 255 0 0
23.6815 -9.47372 -2.53004 255 0 0
23.5679 -8.78604 -3.56986 255 0 0
23.661 -6.82855 -3.33168 255 0 0
23.5512 -8.21185 -3.97339 255 0 0
23.5214 -8.64189 -4.19236 255 0 0
23.6465 -9.65541 -2.74319 255 0 0
23.9444 -9.97633 -4.26941 255 0 0
23.6976 -7.63774 -2.72446 255 0 0
23.5859 -6.80689 -3.7371 255 0 0
23.5553 -8.46467 -3.35349 255 0 0
23.5704 -8.28127 -3.55928 255 0 0
23.9564 -5.57898 -3.3301 255 0 0
24.5525 -9.1531 -2.76243 255 0 0
23.5948 -10.2935 -3.17753 255 0 0
23.685 -8.82968 -2.94581 255 0 0
23.6064 -5.91216 -4.12908 255 0 0
23.8005 -7.54651 -2.7265 255 0 0
23.6474 -6.10151 -3.52427 255 0 0
23.5948 -6.99163 -3.53594 255 0 0
23.547 -9.48475 -4.00849 255 0 0
23.5941 -7.85215 -3.34464 255 0 0
23.5946 -7.2357 -3.95261 255 0 0
23.6098 -6.21136 -4.54542 255 0 0
23.4674 -8.05802 -4.37875 255 0 0
23.5368 -9.67578 -3.80075 255 0 0
23.5266 -9.41178 -3.58153 255 0 0
23.5604 -8.78322 -3.77926 255 0 0
24.3112 -6.95379 -3.15666 255 0 0
23.5245 -7.95309 -4.58913 255 0 0
23.5323 -9.02786 -4.20511 255 0 0
23.6734 -10.5289 -2.96946 255 0 0
23.975 -10.1898 -2.54135 255 0 0
23.5241 -9.86674 -3.37942 255 0 0
23.7344 -7.71178 -2.5186 255 0 0
23.5736 -9.30115 -2.52663 255 0 0
24.2512 -9.23776 -2.53928 255 0 0
23.603 -10.2305 -3.17673 255 0 0
23.5632 -6.92154 -4.5606 255 0 0
25.2879 -9.2909 -2.78389 255 0 0
23.5934 -6.80904 -3.53266 255 0 0
23.5842 -8.34897 -3.35286 255 0 0
23.4954 -8.69562 -4.19185 255 0 0
23.7328 -5.40841 -4.12959 255 0 0
24.7565 -8.23903 -2.5422 255 0 0
23.6031 -8.6719 -3.15024 255 0 0
23.5105 -7.63903 -4.16276 255 0 0
23.8368 -6.94055 -4.58853 255 0 0
23.6334 -6.21757 -3.72925 255 0 0
23.8547 -7.43939 -3.14301 255 0 0
23.512 -9.53552 -3.79538 255 0 0
23.5424 -6.43296 -4.1352 255 0 0
23.6112 -9.8375 -3.17004 255 0 0
23.6684 -5.86809 -3.72553 255 0 0
23.8083 -10.5889 -2.75818 255 0 0
23.6019 -8.92639 -3.15425 255 0 0
23.5742 -9.49571 -3.16255 255 0 0
23.7715 -5.41722 -3.52171 255 0 0
23.5964 -7.60513 -4.58488 255 0 0
23.6431 -5.92136 -3.7247 255 0 0
23.7064 -5.40238 -4.53509 255 0 0
23.4923 -7.88021 -4.16786 255 0 0
23.5937 -6.80913 -3.94291 255 0 0
23.8276 -7.36898 -3.14087 255 0 0
23.5819 -6.26384 -4.13469 255 0 0
23.6467 -6.40127 -3.52901 255 0 0
23.6702 -5.86853 -3.52208 255 0 0
23.5492 -8.52558 -3.77223 255 0 0
23.4565 -8.49202 -4.3916 255 0 0
23.5628 -8.09075 -3.34717 255 0 0
23.5713 -9.04284 -3.36519 255 0 0
24.0685 -10.6363 -2.54682 255 0 0
23.6423 -5.86163 -3.92721 255 0 0
23.6715 -9.92856 -2.96048 255 0 0
23.8795 -10.4852 -4.06345 255 0 0
23.7745 -10.5064 -2.7563 255 0 0
23.6041 -6.9944 -3.74206 255 0 0
23.5284 -10.331 -3.38954 255 0 0
23.4728 -8.12213 -4.58974 255 0 0
23.4678 -8.74871 -4.4011 255 0 0
23.4827 -7.07973 -4.35137 255 0 0
23.6583 -9.5296 -2.95435 255 0 0
23.5488 -5.89774 -4.32734 255 0 0
23.9029 -5.92624 -3.33168 255 0 0
23.6595 -10.255 -2.96486 255 0 0
24.1197 -9.3189 -2.53733 255 0 0
23.672 -8.19106 -2.93727 255 0 0
23.575 -7.90796 -3.55199 255 0 0
23.6061 -7.11693 -3.53886 255 0 0
23.4755 -8.24792 -4.38546 255 0 0
23.5681 -10.1491 -3.17378 255 0 0
24.5353 -6.89221 -3.16576 255 0 0
23.5388 -7.27968 -4.15561 255 0 0
23.6888 -9.93583 -2.74745 255 0 0
23.5193 -8.8315 -3.98771 255 0 0
23.6333 -8.24046 -3.14489 255 0 0
23.5612 -9.68583 -3.37752 255 0 0
23.9366 -10.0398 -2.5394 255 0 0
23.5342 -10.2007 -3.38701 255 0 0
23.5423 -7.52611 -4.57699 255 0 0
23.5013 -8.31962 -4.18113 255 0 0
24.0218 -8.18477 -2.73842 255 0 0
23.6332 -8.68296 -2.94209 255 0 0
23.6457 -10.0499 -2.96135 255 0 0
23.7527 -5.41293 -3.72388 255 0 0
23.6173 -10.4369 -4.47542 255 0 0
23.9239 -6.72047 -4.59096 255 0 0
23.7328 -7.7735 -2.51897 255 0 0
23.5023 -8.31998 -4.59946 255 0 0
23.5793 -7.78519 -3.34274 255 0 0
23.613 -6.21221 -3.93183 255 0 0
23.583 -7.53914 -3.75198 255 0 0
23.8867 -6.8937 -4.59217 255 0 0
23.5916 -8.98649 -3.15479 255 0 0
23.6377 -9.5213 -2.74149 255 0 0
23.6729 -7.69178 -2.93136 255 0 0
23.632 -9.45392 -2.95238 255 0 0
24.5697 -5.59912 -3.36266 255 0 0
23.9642 -10.3197 -4.06438 255 0 0
23.5513 -8.08681 -3.97016 255 0 0
23.6129 -9.64168 -2.95435 255 0 0
23.5734 -7.78325 -3.54943 255 0 0
24.1992 -5.69605 -3.34432 255 0 0
23.5838 -7.17124 -3.9503 255 0 0
23.7466 -10.494 -3.83712 255 0 0
23.5524 -7.10074 -4.56485 255 0 0
23.8527 -9.21572 -2.74404 255 0 0
23.6983 -5.51888 -3.72181 255 0 0
23.5863 -7.72552 -3.54907 255 0 0
24.0263 -9.21738 -2.96289 255 0 0
23.7112 -7.76642 -2.72599 255 0 0
23.823 -6.14683 -3.33041 255 0 0
23.6856 -10.4 -2.96792 255 0 0
24.5055 -5.40142 -4.19542 255 0 0
23.4713 -6.95505 -4.3469 255 0 0
23.5108 -9.01963 -3.57168 255 0 0
23.8182 -10.1232 -3.83134 255 0 0
23.5639 -7.90423 -3.96647 255 0 0
24.1264 -5.7998 -3.3418 255 0 0
23.5621 -7.10365 -4.15306 255 0 0
23.8235 -7.12089 -3.1374 255 0 0
23.5394 -8.71188 -3.56658 255 0 0
23.6622 -10.1896 -2.96398 255 0 0
23.523 -9.80076 -3.80323 255 0 0
23.5209 -8.0141 -4.17398 255 0 0
23.6037 -7.42257 -3.54433 255 0 0
23.5809 -9.3687 -3.16067 255 0 0
23.6138 -5.73583 -4.12601 255 0 0
24.0399 -9.88263 -2.54013 255 0 0
23.6042 -6.75156 -3.94245 255 0 0
23.4244 -9.56473 -4.42569 255 0 0
23.5893 -7.60283 -3.54688 255 0 0
23.5202 -6.78792 -4.3469 255 0 0
23.5736 -10.2842 -3.60524 255 0 0
23.5319 -6.01223 -4.32846 255 0 0
23.5624 -8.21574 -3.55746 255 0 0
23.6745 -6.6504 -4.35752 255 0 0
23.57 -10.4829 -3.39491 255 0 0
23.4991 -8.95127 -4.20001 255 0 0
23.5837 -7.04923 -3.5363 255 0 0
24.007 -10.3381 -2.54317 255 0 0
23.8357 -9.27417 -2.5315 255 0 0
23.6356 -6.63947 -3.53229 255 0 0
23.4526 -8.36502 -4.38713 255 0 0
23.6385 -8.55788 -3.14997 255 0 0
23.4999 -9.27204 -4.21022 255 0 0
24.063 -10.4299 -2.545 255 0 0
24.0315 -10.2812 -2.54317 255 0 0
23.9603 -9.78355 -2.53782 255 0 0
23.8273 -9.59764 -2.53381 255 0 0
24.2784 -9.3141 -2.54038 255 0 0
25.2488 -9.41266 -2.55996 255 0 0
25.3918 -9.39747 -2.56264 255 0 0
25.447 -9.34935 -2.56337 255 0 0
23.7056 -8.20268 -2.52128 255 0 0
23.5125 -9.60069 -4.22195 255 0 0
23.5475 -8.84206 -3.36013 255 0 0
23.662 -8.18758 -2.72854 255 0 0
23.6355 -6.27809 -3.73049 255 0 0
23.5975 -10.5622 -3.18261 255 0 0
23.5907 -7.41847 -3.74992 255 0 0
23.528 -9.28315 -3.36772 255 0 0
23.6773 -7.6312 -3.13793 255 0 0
23.5716 -9.88667 -3.16923 255 0 0
23.6072 -7.54688 -3.54688 255 0 0
23.633 -6.51799 -3.5301 255 0 0
23.6525 -8.24716 -2.93727 255 0 0
23.581 -6.86606 -3.73793 255 0 0
23.7886 -10.4453 -2.75596 255 0 0
23.7466 -10.2928 -2.75307 255 0 0
23.7548 -10.2295 -2.75256 255 0 0
23.7407 -10.0238 -2.74983 255 0 0
23.6151 -9.57732 -2.74149 255 0 0
23.6385 -9.45653 -2.74081 255 0 0
23.7052 -9.28816 -2.74081 255 0 0
23.7544 -9.24254 -2.74166 255 0 0
24.2624 -9.30798 -2.75613 255 0 0
24.2462 -9.23584 -2.75494 255 0 0
24.06 -9.09965 -2.74847 255 0 0
23.6362 -8.3674 -2.72957 255 0 0
23.6615 -8.31327 -2.72974 255 0 0
23.6756 -8.25522 -2.72957 255 0 0
24.7984 -8.31832 -2.76107 255 0 0
24.8958 -8.28537 -2.76346 255 0 0
23.6794 -7.6939 -2.72446 255 0 0
23.7268 -7.5851 -2.7248 255 0 0
23.6677 -6.34674 -3.32504 255 0 0
23.6377 -9.98035 -3.81563 255 0 0
23.6531 -6.70492 -4.35696 255 0 0
23.6769 -10.4633 -2.96858 255 0 0
23.6458 -10.3158 -2.9653 255 0 0
23.6479 -9.98466 -2.96048 255 0 0
23.6463 -9.85215 -2.95851 255 0 0
23.5993 -9.76697 -2.95566 255 0 0
23.6194 -9.57907 -2.95369 255 0 0
23.5677 -9.2988 -2.948 255 0 0
23.7751 -9.25059 -2.95457 255 0 0
23.7747 -9.05625 -2.95194 255 0 0
23.6757 -8.95432 -2.94712 255 0 0
23.6749 -8.88993 -2.94625 255 0 0
23.6729 -8.76131 -2.9445 255 0 0
23.6977 -8.64294 -2.94384 255 0 0
23.6558 -8.50079 -2.94056 255 0 0
23.6683 -8.37876 -2.93946 255 0 0
23.6495 -8.30904 -2.93793 255 0 0
23.7084 -7.8278 -2.93421 255 0 0
23.6824 -7.75699 -2.93245 255 0 0
23.7189 -7.6446 -2.93245 255 0 0
23.9891 -7.60632 -2.94165 255 0 0
24.1131 -7.58277 -2.94581 255 0 0
24.501 -7.57725 -2.9596 255 0 0
24.9341 -7.58184 -2.97515 255 0 0
25.2433 -7.61053 -2.98653 255 0 0
25.2893 -7.55903 -2.98763 255 0 0
24.0444 -5.84043 -3.338 255 0 0
23.6358 -5.74118 -3.92444 255 0 0
23.6217 -5.67847 -4.1255 255 0 0
23.9198 -6.84185 -4.59399 255 0 0
23.55 -8.71582 -3.98679 255 0 0
23.6196 -6.09434 -3.92998 255 0 0
23.5092 -10.3891 -3.38985 255 0 0
23.5473 -9.16197 -3.78794 255 0 0
23.4889 -8.31523 -4.38881 255 0 0
23.5884 -7.29502 -3.54105 255 0 0
23.5435 -9.22481 -4.00064 255 0 0
23.5538 -8.90821 -3.36171 255 0 0
23.5937 -10.6277 -3.18368 255 0 0
23.6065 -10.4991 -3.18181 255 0 0
23.5617 -10.4124 -3.17833 255 0 0
23.5864 -10.3565 -3.17833 255 0 0
23.5813 -10.0886 -3.17325 255 0 0
23.5406 -10.0052 -3.17004 255 0 0
23.575 -9.95391 -3.17057 255 0 0
23.5479 -9.7457 -3.16576 255 0 0
23.5841 -9.56477 -3.16415 255 0 0
23.5595 -9.29559 -3.15853 255 0 0
23.5379 -9.22263 -3.15639 255 0 0
23.5487 -9.09826 -3.15479 255 0 0
23.592 -9.05078 -3.15586 255 0 0
23.5682 -8.84985 -3.15158 255 0 0
23.5891 -8.79394 -3.15158 255 0 0
23.6126 -8.6119 -3.1497 255 0 0
23.6422 -8.49588 -3.14917 255 0 0
23.6567 -8.43783 -3.1489 255 0 0
23.616 -8.36025 -3.14596 255 0 0
23.6251 -8.17484 -3.14355 255 0 0
23.6334 -8.115 -3.14301 255 0 0
23.6304 -8.0514 -3.14194 255 0 0
23.6384 -7.9916 -3.14141 255 0 0
23.6572 -7.93553 -3.14141 255 0 0
23.5983 -7.85356 -3.13766 255 0 0
23.6408 -7.74339 -3.13793 255 0 0
23.6091 -7.67105 -3.13552 255 0 0
23.6897 -7.57325 -3.13766 255 0 0
23.7923 -7.48189 -3.14087 255 0 0
23.8226 -7.30561 -3.1398 255 0 0
23.8566 -7.25421 -3.14061 255 0 0
23.8962 -7.20437 -3.14168 255 0 0
23.9917 -7.10926 -3.14462 255 0 0
24.0083 -6.9905 -3.14382 255 0 0
24.2272 -6.99195 -3.15345 255 0 0
24.2938 -6.88655 -3.15505 255 0 0
24.4333 -6.80108 -3.16014 255 0 0
23.7113 -5.46267 -3.72181 255 0 0
23.5 -9.92223 -3.59211 255 0 0
23.4805 -7.38384 -4.35975 255 0 0
23.6101 -6.57193 -3.73421 255 0 0
23.5364 -6.67185 -4.1403 255 0 0
23.5582 -10.2775 -3.38985 255 0 0
23.5476 -10.1403 -3.38637 255 0 0
23.5232 -10.0637 -3.38353 255 0 0
23.5524 -10.0102 -3.38385 255 0 0
23.5437 -9.94068 -3.38195 255 0 0
23.5582 -9.81543 -3.38005 255 0 0
23.5436 -9.7439 -3.37784 255 0 0
23.557 -9.61888 -3.37594 255 0 0
23.5635 -9.55641 -3.37499 255 0 0
23.5482 -9.48522 -3.37278 255 0 0
23.5489 -9.42068 -3.37151 255 0 0
23.5114 -9.34107 -3.36804 255 0 0
23.5445 -9.16088 -3.36614 255 0 0
23.5498 -9.0987 -3.36519 255 0 0
23.5326 -8.96403 -3.36171 255 0 0
23.5672 -8.72219 -3.35887 255 0 0
23.5604 -8.6562 -3.35729 255 0 0
23.5534 -8.5903 -3.35571 255 0 0
23.5792 -8.53642 -3.35602 255 0 0
23.5974 -8.41665 -3.35476 255 0 0
23.5767 -8.15807 -3.34907 255 0 0
23.5763 -8.03297 -3.34685 255 0 0
23.5842 -7.97331 -3.34622 255 0 0
23.5532 -7.90063 -3.34338 255 0 0
23.5866 -7.72562 -3.34211 255 0 0
23.5852 -7.53985 -3.33895 255 0 0
23.5873 -7.4174 -3.33705 255 0 0
23.6104 -7.36319 -3.33737 255 0 0
23.6166 -7.30374 -3.33674 255 0 0
23.6115 -7.24086 -3.33547 255 0 0
23.6062 -7.17806 -3.33421 255 0 0
23.612 -7.11869 -3.33358 255 0 0
23.6064 -7.05599 -3.33231 255 0 0
23.6174 -6.99834 -3.33199 255 0 0
23.6339 -6.94232 -3.33199 255 0 0
23.6335 -6.88136 -3.33105 255 0 0
23.6771 -6.77243 -3.33168 255 0 0
23.6481 -6.70351 -3.32915 255 0 0
23.6076 -6.63161 -3.32599 255 0 0
23.7065 -6.53824 -3.32978 255 0 0
23.7219 -6.48202 -3.32978 255 0 0
23.6977 -6.41506 -3.32757 255 0 0
23.6975 -6.23444 -3.32504 255 0 0
23.7405 -6.1856 -3.32662 255 0 0
23.8489 -6.09322 -3.33105 255 0 0
23.8179 -6.02518 -3.32852 255 0 0
23.9399 -5.99568 -3.33452 255 0 0
24.3854 -5.61798 -3.35318 255 0 0
25.374 -5.59286 -3.40503 255 0 0
23.5499 -7.40565 -4.57395 255 0 0
23.5238 -8.76959 -3.98633 255 0 0
23.4907 -6.23962 -4.33014 255 0 0
23.6158 -5.73632 -4.53388 255 0 0
23.5006 -9.98819 -4.44804 255 0 0
23.5568 -6.13775 -4.53813 255 0 0
24.7975 -5.40417 -4.22042 255 0 0
23.4825 -8.37568 -4.59946 255 0 0
23.5209 -8.26388 -4.18113 255 0 0
23.5743 -8.15725 -3.76521 255 0 0
23.5158 -10.4588 -3.60633 255 0 0
23.5245 -10.3959 -3.60524 255 0 0
23.5389 -10.2028 -3.60123 255 0 0
23.5416 -10.1377 -3.59977 255 0 0
23.5087 -9.99164 -3.5943 255 0 0
23.5282 -9.67225 -3.58773 255 0 0
23.5294 -9.6076 -3.58627 255 0 0
23.5305 -9.543 -3.58482 255 0 0
23.5097 -9.46971 -3.5819 255 0 0
23.5217 -9.34518 -3.57971 255 0 0
23.5438 -9.28938 -3.57971 255 0 0
23.5113 -9.14797 -3.5746 255 0 0
23.5439 -9.09641 -3.57533 255 0 0
23.5376 -8.96594 -3.57205 255 0 0
23.526 -8.8977 -3.56986 255 0 0
23.5415 -8.83984 -3.5695 255 0 0
23.5215 -8.64194 -3.56402 255 0 0
23.5365 -8.58414 -3.56366 255 0 0
23.5458 -8.52433 -3.56293 255 0 0
23.5384 -8.4586 -3.56111 255 0 0
23.5584 -8.40276 -3.56111 255 0 0
23.5266 -8.14074 -3.55381 255 0 0
23.5679 -8.09253 -3.55527 255 0 0
23.5483 -8.02343 -3.55272 255 0 0
23.5396 -7.95822 -3.55089 255 0 0
23.5767 -7.66054 -3.54725 255 0 0
23.5724 -7.16778 -3.53776 255 0 0
23.5996 -6.87149 -3.53412 255 0 0
23.6085 -6.6923 -3.53156 255 0 0
23.64 -6.58027 -3.53156 255 0 0
23.6336 -6.33761 -3.52719 255 0 0
23.6408 -6.21952 -3.52573 255 0 0
23.6442 -6.16051 -3.525 255 0 0
23.6591 -5.98501 -3.52317 255 0 0
23.6897 -5.81378 -3.52244 255 0 0
23.6693 -5.74932 -3.52026 255 0 0
23.6886 -5.69455 -3.52062 255 0 0
23.6736 -5.63161 -3.5188 255 0 0
23.7244 -5.4657 -3.51953 255 0 0
24.1392 -5.38072 -3.5436 255 0 0
24.5571 -5.41279 -3.5695 255 0 0
24.7525 -5.39436 -3.58117 255 0 0
25.1252 -5.4132 -3.60415 255 0 0
23.5294 -7.76872 -4.16786 255 0 0
23.6437 -5.68376 -3.92398 255 0 0
23.4999 -9.07942 -4.20409 255 0 0
23.5557 -6.31672 -4.13367 255 0 0
23.519 -9.53834 -4.22042 255 0 0
23.5753 -5.66733 -4.32455 255 0 0
23.6171 -6.93738 -3.94753 255 0 0
23.9332 -10.3736 -3.8458 255 0 0
23.9416 -10.3099 -3.84456 255 0 0
23.923 -10.2348 -3.84126 255 0 0
23.5105 -9.86103 -3.80406 255 0 0
23.5138 -9.73156 -3.80075 255 0 0
23.5326 -9.60891 -3.79869 255 0 0
23.5292 -9.47757 -3.79497 255 0 0
23.5299 -9.41308 -3.79331 255 0 0
23.525 -9.34648 -3.79125 255 0 0
23.5579 -9.29496 -3.79207 255 0 0
23.5201 -9.21564 -3.78753 255 0 0
23.5469 -9.03346 -3.78463 255 0 0
23.5348 -8.90104 -3.7805 255 0 0
23.534 -8.837 -3.77885 255 0 0
23.5428 -8.71314 -3.77637 255 0 0
23.5344 -8.58339 -3.77265 255 0 0
23.5694 -8.46972 -3.77223 255 0 0
23.5267 -8.32862 -3.76604 255 0 0
23.5439 -8.20927 -3.76438 255 0 0
23.5383 -8.08236 -3.76108 255 0 0
23.5464 -8.02276 -3.76025 255 0 0
23.5653 -7.96691 -3.76025 255 0 0
23.5509 -7.89987 -3.75777 255 0 0
23.5807 -7.84769 -3.7586 255 0 0
23.5826 -7.78627 -3.75736 255 0 0
23.5621 -7.71761 -3.75446 255 0 0
23.5859 -7.66352 -3.75488 255 0 0
23.5429 -7.58787 -3.75033 255 0 0
23.573 -7.47438 -3.74992 255 0 0
23.6205 -7.24363 -3.74826 255 0 0
23.5873 -7.17231 -3.74454 255 0 0
23.5651 -7.10456 -3.74165 255 0 0
23.5987 -7.05369 -3.74289 255 0 0
23.5982 -6.93183 -3.74041 255 0 0
23.6076 -6.75256 -3.73752 255 0 0
23.5955 -6.6886 -3.73545 255 0 0
23.5832 -6.62474 -3.73338 255 0 0
23.6143 -6.51283 -3.73338 255 0 0
23.6167 -6.39315 -3.73132 255 0 0
23.6093 -6.33108 -3.72966 255 0 0
23.6456 -6.10105 -3.72801 255 0 0
23.6374 -6.03919 -3.72636 255 0 0
23.6733 -5.75028 -3.72388 255 0 0
23.6755 -5.6914 -3.72305 255 0 0
23.7022 -5.57907 -3.72305 255 0 0
23.9649 -5.40154 -3.73834 255 0 0
24.2398 -5.40316 -3.75736 255 0 0
24.6233 -5.42739 -3.78422 255 0 0
24.7331 -5.39014 -3.79125 255 0 0
25.1113 -5.41021 -3.8177 255 0 0
25.3354 -5.39567 -3.83299 255 0 0
23.5369 -6.13257 -4.33181 255 0 0
23.6007 -6.02981 -4.13112 255 0 0
23.4657 -9.06621 -4.41172 255 0 0
23.4815 -7.62961 -4.36702 255 0 0
23.5383 -9.67642 -4.01357 255 0 0
23.9364 -10.4425 -4.06622 255 0 0
24.0039 -10.4043 -4.06992 255 0 0
23.9618 -10.2514 -4.06207 255 0 0
23.9269 -10.1694 -4.05699 255 0 0
23.9563 -10.1149 -4.05745 255 0 0
23.9587 -10.049 -4.0556 255 0 0
23.8532 -9.93834 -4.04452 255 0 0
23.5244 -9.54056 -4.00849 255 0 0
23.5324 -9.28489 -4.00157 255 0 0
23.4891 -9.13933 -3.99418 255 0 0
23.5268 -9.02575 -3.99372 255 0 0
23.5154 -8.95747 -3.99094 255 0 0
23.542 -8.90376 -3.99141 255 0 0
23.5377 -8.64788 -3.98402 255 0 0
23.5253 -8.58005 -3.98125 255 0 0
23.5455 -8.52424 -3.98125 255 0 0
23.5272 -8.45458 -3.97801 255 0 0
23.5967 -8.41642 -3.98217 255 0 0
23.5651 -8.15408 -3.97293 255 0 0
23.5649 -8.02906 -3.9697 255 0 0
23.5826 -7.84834 -3.96647 255 0 0
23.5863 -7.72552 -3.9637 255 0 0
23.5657 -7.65695 -3.96046 255 0 0
23.5004 -7.57419 -3.95354 255 0 0
23.5861 -7.47855 -3.95769 255 0 0
23.5879 -7.35619 -3.95492 255 0 0
23.5784 -7.10857 -3.94846 255 0 0
23.5672 -7.04428 -3.94615 255 0 0
23.5782 -6.98673 -3.94569 255 0 0
23.5943 -6.86994 -3.9443 255 0 0
23.6089 -6.69239 -3.94153 255 0 0
23.5797 -6.62377 -3.93783 255 0 0
23.601 -6.56941 -3.9383 255 0 0
23.6109 -6.51188 -3.93783 255 0 0
23.6206 -6.45434 -3.93737 255 0 0
23.6058 -6.33016 -3.93368 255 0 0
23.6321 -6.27717 -3.9346 255 0 0
23.6164 -6.15327 -3.93091 255 0 0
23.634 -6.03832 -3.92998 255 0 0
23.6539 -5.9837 -3.93044 255 0 0
23.6284 -5.91767 -3.92721 255 0 0
23.6618 -5.80695 -3.92767 255 0 0
23.6608 -5.51015 -3.92213 255 0 0
23.8289 -5.43031 -3.93368 255 0 0
24.5966 -5.4215 -3.99279 255 0 0
24.8375 -5.41288 -4.01126 255 0 0
25.2383 -5.43757 -4.04267 255 0 0
23.6115 -5.79459 -4.12703 255 0 0
23.9136 -6.77876 -4.59156 255 0 0
23.6101 -10.1672 -4.249 255 0 0
23.5275 -7.83001 -4.16939 255 0 0
23.505 -7.0257 -4.35193 255 0 0
23.5717 -5.60737 -4.32287 255 0 0
23.9608 -10.5887 -4.29187 255 0 0
23.9057 -10.4967 -4.28421 255 0 0
23.7862 -10.377 -4.27044 255 0 0
23.6878 -10.1341 -4.25411 255 0 0
23.7762 -10.1053 -4.26023 255 0 0
23.8968 -10.0898 -4.26941 255 0 0
23.8009 -9.85038 -4.25359 255 0 0
23.4951 -9.65863 -4.22246 255 0 0
23.4928 -9.46293 -4.21583 255 0 0
23.5103 -9.34065 -4.21328 255 0 0
23.4892 -9.20353 -4.20716 255 0 0
23.5001 -9.14358 -4.20613 255 0 0
23.4984 -8.88728 -4.19797 255 0 0
23.5031 -8.82539 -4.19644 255 0 0
23.5075 -8.76352 -4.19491 255 0 0
23.5238 -8.51636 -4.18878 255 0 0
23.4945 -8.44281 -4.18419 255 0 0
23.5089 -8.38512 -4.18368 255 0 0
23.5184 -8.2004 -4.17909 255 0 0
23.5102 -8.13508 -4.17654 255 0 0
23.5074 -8.07174 -4.17449 255 0 0
23.523 -7.58148 -4.16225 255 0 0
23.5465 -7.52746 -4.16276 255 0 0
23.5309 -7.46103 -4.15969 255 0 0
23.5448 -7.22043 -4.15459 255 0 0
23.5451 -7.15949 -4.15306 255 0 0
23.5509 -7.03941 -4.15051 255 0 0
23.5675 -6.98355 -4.15051 255 0 0
23.5336 -6.91285 -4.14592 255 0 0
23.5276 -6.85051 -4.14387 255 0 0
23.5269 -6.78986 -4.14234 255 0 0
23.5261 -6.72924 -4.14081 255 0 0
23.5634 -6.61918 -4.14132 255 0 0
23.5509 -6.55548 -4.13877 255 0 0
23.5463 -6.37408 -4.13418 255 0 0
23.5685 -6.20049 -4.13214 255 0 0
23.5944 -6.14754 -4.13316 255 0 0
23.6092 -5.9724 -4.13061 255 0 0
23.6203 -5.85617 -4.12908 255 0 0
23.6124 -5.61704 -4.12346 255 0 0
23.6047 -5.49707 -4.1204 255 0 0
23.6801 -5.45549 -4.12601 255 0 0
25.1695 -5.42275 -4.25257 255 0 0
23.6351 -5.50417 -4.53023 255 0 0
23.882 -6.34357 -4.57638 255 0 0
23.493 -7.26552 -4.35752 255 0 0
23.5634 -7.16503 -4.56788 255 0 0
23.6237 -5.67895 -4.53327 255 0 0
23.4322 -8.92578 -4.4039 255 0 0
23.4552 -10.2989 -4.45586 255 0 0
23.4422 -10.2269 -4.45195 255 0 0
23.4717 -10.1736 -4.45251 255 0 0
23.4101 -10.0811 -4.44357 255 0 0
23.3911 -10.0072 -4.4391 255 0 0
23.8863 -10.0187 -4.48324 255 0 0
23.8777 -9.94855 -4.47989 255 0 0
23.8258 -9.8607 -4.47207 255 0 0
23.4448 -9.63798 -4.43016 255 0 0
23.4578 -9.51355 -4.42681 255 0 0
23.4371 -9.44048 -4.42234 255 0 0
23.4603 -9.25642 -4.41787 255 0 0
23.4442 -9.18589 -4.41395 255 0 0
23.4642 -8.87432 -4.40501 255 0 0
23.4633 -8.81047 -4.40278 255 0 0
23.4611 -8.68292 -4.39831 255 0 0
23.4598 -8.61923 -4.39607 255 0 0
23.4747 -8.56159 -4.39551 255 0 0
23.4327 -8.42061 -4.38713 255 0 0
23.473 -8.18456 -4.38322 255 0 0
23.4978 -8.13079 -4.38378 255 0 0
23.4644 -7.99483 -4.37652 255 0 0
23.4778 -7.93731 -4.37596 255 0 0
23.5131 -7.88718 -4.37763 255 0 0
23.4838 -7.75367 -4.37093 255 0 0
23.5021 -7.69796 -4.37093 255 0 0
23.5217 -7.58107 -4.36925 255 0 0
23.473 -7.50398 -4.36255 255 0 0
23.4685 -7.44125 -4.36031 255 0 0
23.5102 -7.2098 -4.35752 255 0 0
23.5049 -7.14726 -4.35528 255 0 0
23.4654 -6.8928 -4.34466 255 0 0
23.4817 -6.83715 -4.34466 255 0 0
23.5694 -6.44035 -4.34243 255 0 0
23.5115 -6.36465 -4.33517 255 0 0
23.5167 -6.18687 -4.33125 255 0 0
23.5401 -6.07383 -4.33069 255 0 0
23.5457 -5.83768 -4.32567 255 0 0
23.5595 -5.78184 -4.32567 255 0 0
23.5788 -5.72734 -4.32622 255 0 0
23.5696 -5.48892 -4.32008 255 0 0
23.6011 -5.37838 -4.32064 255 0 0
23.9563 -5.33996 -4.35305 255 0 0
24.3047 -5.35716 -4.38601 255 0 0
24.5793 -5.35661 -4.41172 255 0 0
25.1973 -5.36626 -4.46983 255 0 0
23.9007 -6.40923 -4.58003 255 0 0
23.4731 -8.62412 -4.60735 255 0 0
23.4934 -8.56844 -4.60735 255 0 0
23.5219 -8.26423 -4.59946 255 0 0
23.4549 -7.86766 -4.57942 255 0 0
23.4956 -7.81938 -4.58185 255 0 0
23.5085 -7.76183 -4.58124 255 0 0
23.5158 -7.70244 -4.58003 255 0 0
23.5229 -7.64306 -4.57881 255 0 0
23.5519 -7.22259 -4.56849 255 0 0
23.5357 -7.03487 -4.5612 255 0 0
23.9219 -6.59765 -4.58731 255 0 0
23.5826 -6.08479 -4.53934 255 0 0
23.6195 -6.03462 -4.54177 255 0 0
23.5942 -5.9686 -4.53752 255 0 0
23.614 -5.91406 -4.53813 255 0 0
23.611 -5.85385 -4.53631 255 0 0
23.6248 -5.79785 -4.53631 255 0 0
23.639 -5.5642 -4.53206 255 0 0
23.6708 -5.45334 -4.53266 255 0 0
23.5493 -10.7423 -3.39965 255 0 0
23.5644 -10.7492 -3.18475 255 0 0
23.7071 -10.6113 -2.97186 255 0 0
23.5548 -10.8124 -3.18556 255 0 0
23.6271 -10.7102 -3.18663 255 0 0
23.5374 -10.6696 -3.39744 255 0 0
23.4987 -10.5849 -3.39365 255 0 0
23.5899 -10.6933 -3.61655 255 0 0
23.5046 -10.5206 -3.82224 255 0 0
23.6909 -10.5366 -4.05144 255 0 0
23.8226 -10.5276 -4.06068 255 0 0
23.5027 -8.50875 -4.60614 255 0 0
