ply
format ascii 1.0
comment Created by Open3D
element vertex 1187
property double x
property double y
property double z
property uchar red
property uchar green
property uchar blue
end_header
4.24359 5.61372 -4.07497 255 0 0
4.54232 5.42493 -4.34456 255 0 0
3.07067 6.19811 -3.85342 255 0 0
4.60598 5.42213 -4.35745 255 0 0
3.21836 5.88719 -4.34774 255 0 0
2.34565 5.44701 -4.02004 255 0 0
4.65053 5.66238 -4.16053 255 0 0
3.19581 6.70871 -3.92509 255 0 0
3.59075 5.80921 -3.82993 255 0 0
4.63022 5.45066 -4.77264 255 0 0
4.38277 6.47379 -4.30515 255 0 0
3.25954 5.656 -4.16315 255 0 0
3.81506 6.18849 -4.27561 255 0 0
4.11326 6.18567 -4.46151 255 0 0
3.03137 6.28656 -3.87009 255 0 0
4.25057 5.63681 -4.01802 255 0 0
2.98716 5.83694 -4.11241 255 0 0
2.88743 5.7255 -3.83295 255 0 0
3.17526 6.76858 -3.93683 255 0 0
4.74287 5.58327 -4.2931 255 0 0
4.10514 5.73559 -4.1436 255 0 0
2.03626 5.4424 -4.70965 255 0 0
3.24093 6.54184 -3.89131 255 0 0
5.22926 5.62178 -4.40329 255 0 0
2.60465 5.58665 -3.98583 255 0 0
3.30654 5.94758 -4.19231 255 0 0
4.09478 5.49772 -4.20847 255 0 0
4.04361 5.63547 -4.04516 255 0 0
4.84173 5.56459 -4.30884 255 0 0
4.1359 6.46619 -4.54347 255 0 0
3.81012 5.41782 -4.25603 255 0 0
3.15891 5.71391 -3.80772 255 0 0
2.66865 6.69384 -4.05986 255 0 0
3.26723 5.84421 -4.28057 255 0 0
4.51703 5.49986 -4.29286 255 0 0
4.54721 5.49664 -4.29824 255 0 0
4.84532 5.42421 -4.545 255 0 0
5.16958 5.47895 -4.70633 255 0 0
3.23773 5.51191 -4.05944 255 0 0
4.46617 5.65324 -4.18957 255 0 0
2.44918 5.63223 -3.97864 255 0 0
2.52857 6.61448 -4.15211 255 0 0
2.10581 5.58789 -4.1454 255 0 0
3.03356 5.48717 -4.01994 255 0 0
3.04691 6.26174 -4.4367 255 0 0
2.9252 5.97555 -3.8421 255 0 0
4.07197 5.52156 -4.21026 255 0 0
4.0315 5.60458 -5.14977 255 0 0
3.00983 5.60002 -3.87459 255 0 0
4.26709 6.30291 -3.90448 255 0 0
3.37262 5.41318 -4.23171 255 0 0
3.47929 5.614 -3.94746 255 0 0
2.5146 6.48557 -4.3693 255 0 0
3.29367 5.73093 -4.31293 255 0 0
4.15941 6.7114 -4.47151 255 0 0
3.45001 6.24041 -3.84726 255 0 0
3.05652 5.78516 -4.10792 255 0 0
4.74267 5.41173 -4.51792 255 0 0
2.46473 6.18234 -4.02271 255 0 0
4.52233 5.42714 -4.34088 255 0 0
2.91423 5.6613 -3.82008 255 0 0
4.74362 5.49114 -4.33775 255 0 0
2.49221 5.50368 -4.00199 255 0 0
4.38837 6.25584 -4.32237 255 0 0
3.86145 5.42224 -4.26736 255 0 0
2.93437 5.95847 -3.83897 255 0 0
3.33685 6.00211 -4.3391 255 0 0
2.69523 5.34435 -4.20677 255 0 0
4.63057 5.53033 -4.7276 255 0 0
4.24213 5.38275 -4.33438 255 0 0
2.15307 5.63214 -4.10987 255 0 0
3.10221 6.2993 -4.32676 255 0 0
4.17927 5.86852 -4.18957 255 0 0
3.18634 6.03091 -3.82766 255 0 0
4.15672 5.60859 -4.05841 255 0 0
2.50891 6.60999 -4.14871 255 0 0
3.31937 5.80746 -4.03293 255 0 0
3.2463 5.67962 -4.16775 255 0 0
3.41614 5.60068 -3.99377 255 0 0
4.40629 5.67359 -4.05342 255 0 0
2.23074 5.87712 -4.08303 255 0 0
3.30174 5.93902 -4.37772 255 0 0
4.54073 5.69195 -4.08132 255 0 0
4.20879 5.48612 -5.15463 255 0 0
4.65778 5.39177 -4.42688 255 0 0
3.46008 5.61267 -3.94414 255 0 0
2.29293 5.43062 -4.17335 255 0 0
3.19996 5.47726 -4.16069 255 0 0
3.10605 5.76264 -4.29069 255 0 0
2.49849 6.51262 -4.31141 255 0 0
4.51687 5.55315 -4.24063 255 0 0
2.21345 6.13668 -4.22205 255 0 0
3.64884 5.38966 -4.27748 255 0 0
5.39308 6.28802 -4.4426 255 0 0
2.43058 5.37889 -4.06539 255 0 0
5.21543 5.71465 -4.35132 255 0 0
3.91802 5.61359 -5.19219 255 0 0
3.11418 5.60158 -3.9478 255 0 0
3.33894 5.50342 -4.07381 255 0 0
2.64274 6.84008 -4.09607 255 0 0
2.55405 6.25502 -3.99217 255 0 0
2.20079 5.38981 -4.09161 255 0 0
3.10108 6.14918 -3.84534 255 0 0
4.39651 5.81602 -4.01865 255 0 0
2.4558 6.65976 -4.15722 255 0 0
4.48406 5.59364 -4.17879 255 0 0
3.34651 5.45738 -4.18051 255 0 0
3.12429 5.65129 -3.84583 255 0 0
2.604 6.14705 -3.96843 255 0 0
2.55 6.69431 -4.11223 255 0 0
4.25011 5.51285 -4.24258 255 0 0
4.07965 5.47741 -5.18477 255 0 0
3.03645 5.61757 -3.88287 255 0 0
2.24068 6.03226 -4.19184 255 0 0
5.09211 5.42254 -4.74251 255 0 0
2.21158 5.43465 -4.16322 255 0 0
3.18171 6.42225 -4.30902 255 0 0
4.15141 6.59329 -4.51011 255 0 0
4.17051 5.85622 -4.3162 255 0 0
4.1969 5.6348 -4.00837 255 0 0
4.34534 5.79098 -4.00459 255 0 0
5.00882 5.41046 -4.64891 255 0 0
4.62997 5.58319 -4.27036 255 0 0
3.2186 5.72532 -4.23715 255 0 0
3.94044 5.65997 -3.97135 255 0 0
2.30888 6.40125 -4.19231 255 0 0
4.40235 5.73843 -4.19808 255 0 0
5.22612 5.46053 -5.00277 255 0 0
4.13492 5.74836 -4.3464 255 0 0
2.56768 6.06128 -4.00058 255 0 0
4.31308 6.24249 -4.23726 255 0 0
4.60343 5.52446 -4.71932 255 0 0
5.2101 5.74978 -4.35813 255 0 0
5.23469 5.62762 -5.2023 255 0 0
3.29506 5.92694 -3.81705 255 0 0
4.25053 5.90908 -3.95041 255 0 0
3.60571 5.63727 -5.12043 255 0 0
3.21205 5.46821 -4.10145 255 0 0
4.08335 5.56457 -4.09763 255 0 0
5.05912 5.78667 -4.336 255 0 0
4.12773 6.28792 -3.94858 255 0 0
4.33626 5.6384 -4.09733 255 0 0
3.19293 5.67962 -3.86246 255 0 0
5.11043 5.41626 -4.88693 255 0 0
2.49446 6.12976 -4.25414 255 0 0
3.74821 5.39747 -4.2994 255 0 0
4.19673 5.6068 -4.06503 255 0 0
3.32738 5.78957 -4.0902 255 0 0
4.89202 5.59555 -5.31657 255 0 0
4.14074 6.27527 -4.42213 255 0 0
3.5961 6.22295 -3.86195 255 0 0
2.55874 5.69847 -3.89842 255 0 0
5.15645 5.8279 -4.36494 255 0 0
3.72807 6.1448 -3.86195 255 0 0
2.76317 5.64457 -3.85306 255 0 0
3.40179 6.34734 -3.86562 255 0 0
2.94272 6.15858 -4.38835 255 0 0
2.36921 5.74384 -4.11633 255 0 0
5.08398 5.4656 -4.47348 255 0 0
5.27813 5.67432 -5.38112 255 0 0
5.19609 5.78922 -5.394 255 0 0
3.492 5.40286 -4.25105 255 0 0
2.17583 5.34679 -4.18291 255 0 0
4.19036 6.60294 -4.4479 255 0 0
4.26079 5.72061 -5.25427 255 0 0
3.37467 5.47413 -4.13092 255 0 0
4.0468 5.39314 -4.29662 255 0 0
4.16829 5.98729 -4.35031 255 0 0
3.02443 5.82439 -3.8171 255 0 0
2.94515 5.54254 -4.25494 255 0 0
3.03821 5.83969 -4.24218 255 0 0
2.20603 5.34822 -4.18774 255 0 0
4.41467 5.61537 -4.17084 255 0 0
1.97588 5.47801 -4.14701 255 0 0
3.30188 5.47155 -4.17674 255 0 0
2.86778 5.75425 -3.83778 255 0 0
2.57989 6.17143 -3.9723 255 0 0
4.36202 5.65803 -4.04216 255 0 0
2.98691 5.88804 -3.82803 255 0 0
3.25416 6.49093 -3.88103 255 0 0
4.15744 5.92664 -3.9398 255 0 0
2.77551 6.46635 -3.94834 255 0 0
2.77243 5.62964 -3.96426 255 0 0
2.96711 6.56623 -3.93071 255 0 0
3.70472 6.17213 -3.86488 255 0 0
3.41003 5.41583 -4.23944 255 0 0
4.43408 5.62631 -4.11223 255 0 0
3.25693 5.667 -3.86836 255 0 0
4.08279 5.59156 -4.16716 255 0 0
3.01976 6.33916 -3.88145 255 0 0
3.24712 5.69674 -3.81553 255 0 0
4.95828 5.72589 -4.30194 255 0 0
4.00299 5.38781 -4.28624 255 0 0
2.42537 5.76335 -4.07198 255 0 0
5.25108 5.53896 -4.6707 255 0 0
3.29256 5.80842 -4.15101 255 0 0
3.65226 6.15064 -3.85313 255 0 0
3.49943 5.69158 -3.84991 255 0 0
4.22705 5.42951 -4.2801 255 0 0
3.49873 5.61558 -4.01079 255 0 0
4.63888 5.3957 -4.48988 255 0 0
5.03266 5.41042 -4.72428 255 0 0
3.38922 5.48315 -4.19562 255 0 0
3.32634 5.48266 -4.18429 255 0 0
2.70412 6.62249 -4.37035 255 0 0
3.53829 5.6941 -3.85616 255 0 0
3.79902 5.74257 -5.21075 255 0 0
5.04557 5.45016 -4.52977 255 0 0
3.14305 5.81474 -4.12947 255 0 0
4.19965 5.59686 -4.12657 255 0 0
3.27094 5.85085 -4.22116 255 0 0
2.96744 6.24835 -4.35609 255 0 0
4.2003 5.86855 -3.93374 255 0 0
3.29602 5.53571 -4.0756 255 0 0
2.89885 6.84304 -3.99133 255 0 0
2.95696 5.79494 -4.15578 255 0 0
4.45518 5.61192 -4.17765 255 0 0
2.981 5.84197 -4.17328 255 0 0
2.28564 5.3425 -4.19741 255 0 0
4.15838 5.85388 -4.24762 255 0 0
2.40641 5.46289 -3.97805 255 0 0
4.26683 5.64446 -4.15041 255 0 0
2.6486 5.34618 -4.19968 255 0 0
4.74058 5.39645 -4.8536 255 0 0
3.34133 5.89447 -3.81553 255 0 0
4.09992 6.46045 -4.60623 255 0 0
4.88983 5.67398 -4.2764 255 0 0
2.64193 6.49217 -4.00354 255 0 0
3.15748 5.44899 -4.20367 255 0 0
2.43753 5.51578 -4.05402 255 0 0
2.50129 6.25252 -4.29379 255 0 0
2.97963 5.70499 -4.31236 255 0 0
5.44059 6.34343 -4.46413 255 0 0
4.26096 6.16705 -4.27811 255 0 0
5.04184 5.52444 -4.40957 255 0 0
4.1914 5.45006 -4.27826 255 0 0
4.77651 5.41141 -4.52566 255 0 0
3.72486 6.73761 -4.62228 255 0 0
5.15287 5.48725 -4.63396 255 0 0
3.29558 5.5902 -3.9722 255 0 0
5.39176 5.55398 -5.37722 255 0 0
4.05838 5.88874 -3.91631 255 0 0
2.96863 6.40696 -4.40517 255 0 0
3.78552 5.69278 -3.89287 255 0 0
2.21585 6.05325 -4.19562 255 0 0
5.07888 5.40846 -4.87635 255 0 0
3.04598 6.25977 -4.37119 255 0 0
3.26407 5.64837 -4.22205 255 0 0
2.87843 6.09821 -3.86709 255 0 0
4.14073 6.64601 -4.52268 255 0 0
4.18135 5.50421 -4.16366 255 0 0
2.33272 5.89178 -4.04149 255 0 0
3.02556 5.82656 -4.1151 255 0 0
2.50762 6.33353 -4.32022 255 0 0
4.11272 5.68899 -4.32614 255 0 0
2.8003 6.04366 -3.96402 255 0 0
5.20409 5.59472 -4.46164 255 0 0
3.14891 5.72785 -4.16591 255 0 0
4.95519 5.41657 -4.50051 255 0 0
2.39584 5.49171 -4.04081 255 0 0
5.1061 5.81254 -4.35132 255 0 0
3.20133 6.88778 -3.96767 255 0 0
4.05643 6.51072 -4.61284 255 0 0
4.14138 6.34149 -4.44009 255 0 0
2.84413 5.79261 -3.84462 255 0 0
2.6735 6.75249 -4.07595 255 0 0
3.16744 5.82683 -4.32067 255 0 0
2.73687 5.34786 -4.21487 255 0 0
3.12266 6.08392 -4.45688 255 0 0
4.70017 5.59993 -4.22192 255 0 0
4.78892 5.62394 -4.24491 255 0 0
4.81133 5.42488 -4.53726 255 0 0
3.60581 5.71173 -3.87022 255 0 0
2.212 5.6063 -4.10891 255 0 0
2.60994 6.90084 -4.10894 255 0 0
4.10341 5.63382 -4.0551 255 0 0
2.81143 6.28116 -3.90537 255 0 0
2.76145 6.9028 -4.05849 255 0 0
2.66274 5.58964 -3.93803 255 0 0
2.94251 5.63394 -3.81686 255 0 0
3.80805 6.1445 -3.87271 255 0 0
4.25756 5.41553 -4.93762 255 0 0
3.89636 5.63938 -5.19631 255 0 0
2.37888 5.72872 -3.9984 255 0 0
5.28644 5.49741 -4.95678 255 0 0
3.07383 5.62282 -3.8895 255 0 0
4.03065 5.52014 -5.18724 255 0 0
2.54272 6.48947 -4.37402 255 0 0
2.89026 6.04884 -3.85616 255 0 0
2.02815 5.34338 -4.66511 255 0 0
2.87992 6.25434 -4.03026 255 0 0
3.98052 5.39755 -4.28435 255 0 0
2.36357 5.36563 -4.10646 255 0 0
3.59507 5.39249 -4.26781 255 0 0
2.57352 6.59111 -4.15041 255 0 0
3.97147 6.01874 -4.45615 255 0 0
2.57908 6.46917 -4.30773 255 0 0
4.10563 5.44464 -5.17982 255 0 0
5.20007 5.45917 -4.92291 255 0 0
3.78765 5.4268 -4.25414 255 0 0
3.15957 5.68323 -3.8587 255 0 0
4.97822 5.50695 -4.39161 255 0 0
3.38492 6.38844 -3.87296 255 0 0
3.33018 5.54815 -4.02548 255 0 0
2.60935 6.82578 -4.08883 255 0 0
5.30622 5.67747 -5.39049 255 0 0
4.30295 5.50005 -4.24977 255 0 0
3.94263 5.69185 -3.91709 255 0 0
4.09992 6.29426 -4.48914 255 0 0
4.18804 5.72143 -3.96318 255 0 0
3.20741 6.55204 -3.88984 255 0 0
5.18665 5.52322 -4.58075 255 0 0
2.51298 6.01136 -3.98015 255 0 0
2.48839 5.54179 -3.9571 255 0 0
3.64164 5.81418 -3.83826 255 0 0
4.1456 5.64939 -4.003 255 0 0
3.43738 6.30555 -3.86048 255 0 0
2.4606 6.12969 -4.00739 255 0 0
3.07232 5.8151 -4.30133 255 0 0
4.06142 6.25134 -4.53921 255 0 0
4.59646 5.50281 -4.30992 255 0 0
3.32005 6.39368 -3.86635 255 0 0
4.18439 5.84632 -4.3162 255 0 0
3.83417 5.69251 -5.20044 255 0 0
5.11885 5.45102 -4.68653 255 0 0
4.17747 5.52625 -4.23181 255 0 0
3.73732 5.54868 -4.27868 255 0 0
2.99702 5.59209 -3.92822 255 0 0
3.37171 5.67818 -3.88767 255 0 0
2.08572 5.65616 -4.16585 255 0 0
3.86089 5.65945 -5.19466 255 0 0
2.09741 5.7297 -4.13501 255 0 0
5.16546 5.83811 -5.40102 255 0 0
4.92371 5.44666 -4.43297 255 0 0
3.45481 5.67918 -3.84053 255 0 0
3.84297 5.809 -3.8663 255 0 0
2.99514 6.88774 -4.69841 255 0 0
3.22033 6.82255 -3.95445 255 0 0
2.69772 5.59456 -3.94415 255 0 0
3.05087 6.30787 -4.32185 255 0 0
4.11141 6.23081 -3.9339 255 0 0
3.4422 5.64338 -3.94911 255 0 0
2.14099 5.50263 -4.12131 255 0 0
4.15482 6.04404 -4.36288 255 0 0
5.24535 5.73375 -5.39049 255 0 0
2.79685 5.35498 -4.22736 255 0 0
5.09564 5.46511 -4.61462 255 0 0
2.77873 6.69162 -4.00615 255 0 0
4.45539 5.42481 -4.32614 255 0 0
3.48229 5.55979 -3.99377 255 0 0
3.1387 6.43097 -4.30543 255 0 0
2.37741 5.68707 -3.98583 255 0 0
3.42172 5.60984 -3.93752 255 0 0
3.69201 5.80245 -3.84281 255 0 0
4.32877 6.59417 -4.39729 255 0 0
2.14582 5.43859 -4.10052 255 0 0
4.9371 5.54018 -4.32283 255 0 0
2.30235 5.47101 -4.077 255 0 0
3.61157 6.14834 -3.84726 255 0 0
2.70585 6.10339 -4.33614 255 0 0
3.33456 5.46694 -4.06303 255 0 0
2.67644 6.27654 -3.95043 255 0 0
3.30682 5.45048 -4.1125 255 0 0
2.6365 6.04343 -3.94414 255 0 0
2.9306 6.87257 -4.00193 255 0 0
2.37931 5.54335 -3.99892 255 0 0
2.97008 5.65401 -4.29454 255 0 0
4.3873 6.38221 -3.80158 255 0 0
2.63568 5.58392 -3.93278 255 0 0
4.12926 6.03746 -4.42376 255 0 0
2.24368 5.34926 -4.166 255 0 0
3.1334 5.89681 -4.0902 255 0 0
4.71387 5.44365 -4.79169 255 0 0
3.97993 5.67359 -3.98101 255 0 0
2.55982 6.08284 -4.00569 255 0 0
4.45355 6.66308 -4.36311 255 0 0
4.09218 5.59511 -4.10671 255 0 0
3.26853 5.75012 -4.1917 255 0 0
3.14115 6.30277 -4.33351 255 0 0
4.98328 5.61876 -4.35082 255 0 0
2.89627 5.69262 -3.82571 255 0 0
4.96449 5.41385 -4.63901 255 0 0
4.13405 6.23292 -4.40957 255 0 0
4.48312 5.68854 -4.07032 255 0 0
3.92987 5.68786 -3.97618 255 0 0
4.08874 5.38229 -4.36515 255 0 0
2.96286 5.4046 -4.21436 255 0 0
3.03387 6.44736 -4.36114 255 0 0
5.39229 6.34777 -4.45585 255 0 0
4.04553 5.70933 -3.9374 255 0 0
4.45978 5.56334 -4.23188 255 0 0
2.96544 6.60421 -3.9398 255 0 0
2.6488 6.57595 -4.34917 255 0 0
3.19828 5.72087 -3.93255 255 0 0
4.13773 5.44677 -4.26659 255 0 0
3.03205 6.26894 -4.4367 255 0 0
3.12336 6.12097 -3.84129 255 0 0
4.26245 6.52683 -4.29853 255 0 0
3.07879 6.40426 -4.28927 255 0 0
2.63919 6.52974 -4.01319 255 0 0
2.65369 5.6394 -3.89417 255 0 0
2.59184 5.9603 -4.27425 255 0 0
2.81 5.8452 -3.85388 255 0 0
4.16908 6.2535 -4.35257 255 0 0
3.74664 5.67798 -3.94453 255 0 0
4.75957 5.5494 -4.28844 255 0 0
4.1575 6.26828 -3.94858 255 0 0
4.20172 6.53493 -4.2908 255 0 0
5.12729 5.48601 -4.48822 255 0 0
3.54348 5.39791 -4.25943 255 0 0
4.63608 5.49708 -4.71932 255 0 0
2.09755 5.3721 -4.18084 255 0 0
2.19343 5.63732 -4.11664 255 0 0
4.14494 6.09132 -4.37366 255 0 0
5.00365 5.45656 -4.45323 255 0 0
4.22246 5.92916 -3.95041 255 0 0
3.11394 6.30424 -4.52617 255 0 0
2.2722 5.90184 -4.15408 255 0 0
4.18045 5.92948 -4.20489 255 0 0
4.98287 5.4339 -4.57981 255 0 0
4.75188 5.39638 -5.06624 255 0 0
3.24721 5.71262 -3.93752 255 0 0
2.45377 5.36227 -4.06346 255 0 0
3.99954 5.56015 -5.19384 255 0 0
5.28423 5.73517 -4.37005 255 0 0
3.40953 6.30778 -3.85754 255 0 0
4.26523 6.34869 -3.91372 255 0 0
4.83772 5.44163 -4.41271 255 0 0
2.1731 5.98034 -4.1673 255 0 0
4.0105 5.63153 -4.03854 255 0 0
3.3035 5.60867 -3.9193 255 0 0
2.24962 5.32805 -4.18705 255 0 0
3.30054 5.64948 -3.92924 255 0 0
4.69078 5.42999 -4.37771 255 0 0
1.9505 5.32835 -4.19977 255 0 0
2.22008 5.54957 -4.0915 255 0 0
2.63811 6.66311 -4.11306 255 0 0
4.18298 6.116 -4.31934 255 0 0
2.93146 5.34733 -4.24829 255 0 0
2.48613 5.36563 -4.06926 255 0 0
5.18796 5.44646 -4.63202 255 0 0
3.1788 5.65452 -3.91268 255 0 0
4.73502 5.68239 -4.18095 255 0 0
4.44659 5.41404 -4.32154 255 0 0
2.31267 5.49554 -4.1421 255 0 0
4.11617 6.07998 -4.43297 255 0 0
4.30447 5.77926 -3.99521 255 0 0
2.55482 5.54832 -3.96787 255 0 0
2.86647 6.03574 -4.33807 255 0 0
5.15711 5.5972 -4.3823 255 0 0
5.02956 5.72541 -5.32492 255 0 0
2.56956 6.1879 -3.97561 255 0 0
4.19126 5.91498 -4.20319 255 0 0
2.72468 5.56593 -3.93978 255 0 0
2.85412 6.14075 -3.87491 255 0 0
3.18151 5.62806 -3.96482 255 0 0
3.37362 5.65083 -3.88123 255 0 0
2.3976 6.31674 -4.30134 255 0 0
3.1101 6.2777 -4.38629 255 0 0
4.19502 5.75958 -4.29555 255 0 0
3.05931 5.89155 -4.07796 255 0 0
3.52674 5.63075 -3.95905 255 0 0
4.89938 5.49781 -4.37246 255 0 0
3.06376 5.76576 -4.22394 255 0 0
4.2943 5.63899 -4.02607 255 0 0
2.85893 5.63571 -3.92056 255 0 0
2.71455 6.20222 -4.36902 255 0 0
3.76329 6.16982 -3.87222 255 0 0
5.09001 5.42031 -5.02576 255 0 0
4.18598 6.44306 -4.40504 255 0 0
3.49247 6.22976 -3.8502 255 0 0
4.17481 5.92148 -4.33415 255 0 0
3.45696 5.68277 -3.90135 255 0 0
3.09592 5.85976 -4.07446 255 0 0
2.95052 5.93789 -3.83585 255 0 0
4.95977 5.49963 -5.30464 255 0 0
2.32042 6.06999 -4.09356 255 0 0
3.67753 5.66044 -3.92951 255 0 0
2.61611 6.01611 -3.99377 255 0 0
2.3316 5.43212 -4.17942 255 0 0
2.14568 5.34518 -4.17808 255 0 0
4.13526 5.69169 -5.20972 255 0 0
3.30169 5.84065 -4.10011 255 0 0
3.28827 5.84925 -4.16179 255 0 0
4.35871 5.53067 -4.26862 255 0 0
4.24573 6.50123 -4.35983 255 0 0
4.38395 5.65867 -4.24063 255 0 0
4.6934 5.40703 -4.50535 255 0 0
4.22582 6.30616 -4.30705 255 0 0
4.06959 5.54582 -4.15317 255 0 0
2.65091 5.96037 -3.92344 255 0 0
3.60965 6.19542 -3.85754 255 0 0
2.98001 6.49199 -3.91404 255 0 0
3.02809 5.63399 -4.17863 255 0 0
3.50093 5.67893 -3.90698 255 0 0
2.74693 5.59457 -3.89417 255 0 0
3.32308 6.43679 -3.87663 255 0 0
5.1533 5.43582 -4.90387 255 0 0
4.44624 5.49286 -4.2767 255 0 0
4.00586 6.10227 -4.48635 255 0 0
5.37529 5.58981 -5.38346 255 0 0
3.56564 5.81472 -3.82766 255 0 0
2.58111 6.47424 -4.0551 255 0 0
5.2683 5.69075 -5.38346 255 0 0
3.9558 5.59675 -5.1959 255 0 0
3.94986 5.6879 -4.04185 255 0 0
2.39521 5.69169 -3.98942 255 0 0
3.31816 6.46482 -3.8825 255 0 0
2.99513 5.78471 -4.15854 255 0 0
4.23027 5.62377 -4.07497 255 0 0
2.96747 5.64904 -3.93928 255 0 0
2.17279 5.68379 -4.12921 255 0 0
3.81763 5.81554 -3.86403 255 0 0
5.27981 5.68966 -4.35898 255 0 0
5.04378 5.46117 -4.46335 255 0 0
1.97701 5.32247 -4.20118 255 0 0
4.10585 6.12714 -4.44402 255 0 0
4.33434 5.6776 -4.17084 255 0 0
2.32357 5.44903 -4.12824 255 0 0
3.0931 5.78781 -4.23526 255 0 0
3.1455 6.33027 -4.47345 255 0 0
2.77788 6.51444 -3.96084 255 0 0
4.74899 5.61742 -4.23554 255 0 0
2.78438 6.75036 -4.02177 255 0 0
4.04593 6.19529 -4.52033 255 0 0
2.48658 6.02839 -3.98185 255 0 0
4.11525 6.58774 -4.57386 255 0 0
2.99084 6.22132 -4.41543 255 0 0
3.09909 5.74975 -3.8085 255 0 0
4.1971 5.51135 -4.23181 255 0 0
5.13958 5.42135 -4.82495 255 0 0
3.50447 5.6248 -3.95408 255 0 0
3.19686 5.70244 -3.81007 255 0 0
4.80583 5.40574 -4.4637 255 0 0
3.63175 5.66318 -3.92307 255 0 0
4.16136 5.60098 -4.12061 255 0 0
4.29517 6.15395 -4.34907 255 0 0
2.22691 5.47233 -4.06733 255 0 0
2.70414 5.5573 -3.93453 255 0 0
2.54352 6.89767 -4.16771 255 0 0
5.14006 5.44767 -5.04783 255 0 0
3.74676 5.43658 -4.24895 255 0 0
4.35952 6.37413 -4.277 255 0 0
5.25346 5.48911 -4.80125 255 0 0
4.4316 6.41402 -3.81352 255 0 0
2.49831 6.08412 -3.99888 255 0 0
5.1995 5.83463 -4.37516 255 0 0
2.73593 6.01658 -3.88928 255 0 0
4.15328 5.90581 -4.39245 255 0 0
4.10828 5.54323 -4.22283 255 0 0
2.23444 5.9292 -4.09961 255 0 0
4.0671 5.79785 -4.08822 255 0 0
2.96167 6.74511 -3.9739 255 0 0
2.36322 5.96882 -4.12723 255 0 0
3.42063 5.57824 -4.04822 255 0 0
3.04778 5.62257 -3.82813 255 0 0
4.34883 6.40726 -3.86932 255 0 0
2.29706 6.27509 -4.15281 255 0 0
3.84171 5.68909 -3.90069 255 0 0
3.16119 6.05263 -3.82968 255 0 0
4.24466 6.36688 -3.98235 255 0 0
2.79099 5.89482 -3.86434 255 0 0
4.05703 5.61196 -4.04185 255 0 0
3.60252 5.66182 -3.91825 255 0 0
4.15453 5.95245 -4.40534 255 0 0
2.68537 6.23596 -3.94078 255 0 0
4.70666 5.50087 -4.33236 255 0 0
4.80177 5.49228 -4.35031 255 0 0
2.70261 6.82601 -4.03271 255 0 0
4.20355 5.64376 -4.07497 255 0 0
4.24708 6.5033 -4.43128 255 0 0
3.3883 5.52553 -4.08817 255 0 0
2.71443 5.78625 -3.88453 255 0 0
4.33366 6.51708 -4.37856 255 0 0
3.05502 5.79349 -3.81345 255 0 0
2.51242 5.52505 -4.0112 255 0 0
3.08721 5.87698 -4.07796 255 0 0
5.2661 5.82541 -5.34875 255 0 0
4.05584 6.22656 -3.92509 255 0 0
3.99982 6.18859 -3.90893 255 0 0
3.94529 6.13608 -3.88984 255 0 0
3.90935 6.11199 -3.87957 255 0 0
3.89366 6.13542 -3.8825 255 0 0
3.85699 6.14181 -3.87883 255 0 0
3.78976 6.18021 -3.8781 255 0 0
3.68428 6.1381 -3.8546 255 0 0
3.65784 6.19345 -3.86341 255 0 0
3.54406 6.20054 -3.8502 255 0 0
3.50903 6.20743 -3.84726 255 0 0
3.34276 6.38182 -3.86635 255 0 0
3.29643 6.4791 -3.88324 255 0 0
3.29762 6.53887 -3.89719 255 0 0
3.21418 6.6055 -3.90306 255 0 0
3.20299 6.64241 -3.9104 255 0 0
3.4485 5.83899 -3.81705 255 0 0
4.47329 6.7444 -4.3863 255 0 0
3.01977 5.6185 -3.8233 255 0 0
2.44797 6.88898 -4.22192 255 0 0
4.22147 5.89812 -4.27036 255 0 0
2.97742 6.50665 -4.43727 255 0 0
2.55915 6.62373 -4.15807 255 0 0
2.26275 6.09172 -4.09356 255 0 0
3.75162 5.80453 -3.8519 255 0 0
4.29375 5.65217 -4.15722 255 0 0
4.2811 5.9219 -3.95799 255 0 0
4.18223 5.90224 -3.93828 255 0 0
4.17474 5.92139 -3.94132 255 0 0
4.13367 5.92256 -3.93525 255 0 0
4.11316 5.92306 -3.93222 255 0 0
4.00969 5.87755 -3.90646 255 0 0
3.95329 5.85431 -3.89282 255 0 0
3.89563 5.82832 -3.87842 255 0 0
3.80074 5.81984 -3.86251 255 0 0
3.54346 5.82494 -3.8269 255 0 0
3.49966 5.83047 -3.8221 255 0 0
3.40216 5.85522 -3.81452 255 0 0
3.37623 5.87457 -3.81553 255 0 0
3.2501 5.94526 -3.81553 255 0 0
3.22188 5.96062 -3.81553 255 0 0
3.20779 6.00242 -3.82361 255 0 0
3.13087 6.08216 -3.83296 255 0 0
3.08283 6.18575 -3.8519 255 0 0
3.05531 6.24138 -3.86201 255 0 0
3.00567 6.36776 -3.88676 255 0 0
3.00257 6.40047 -3.89434 255 0 0
2.99408 6.44188 -3.90343 255 0 0
2.97331 6.53859 -3.92465 255 0 0
2.9682 6.65254 -3.95192 255 0 0
2.96618 6.69058 -3.96102 255 0 0
2.95234 6.78931 -3.98375 255 0 0
2.94605 6.84133 -3.99587 255 0 0
2.84313 6.75606 -3.96405 255 0 0
2.94794 5.61182 -3.92651 255 0 0
4.2818 5.40669 -4.94107 255 0 0
4.06464 6.28888 -4.55054 255 0 0
2.55889 5.79039 -3.92396 255 0 0
4.42747 5.79959 -4.02021 255 0 0
4.24687 5.75873 -3.98115 255 0 0
4.12264 5.70271 -3.94834 255 0 0
4.09247 5.70358 -3.94365 255 0 0
3.9925 5.69147 -3.9249 255 0 0
3.89448 5.69414 -3.91006 255 0 0
3.75748 5.69443 -3.88897 255 0 0
3.7366 5.72164 -3.89209 255 0 0
3.69935 5.70884 -3.8835 255 0 0
3.65278 5.71085 -3.87699 255 0 0
3.42583 5.67695 -3.83585 255 0 0
3.38346 5.68261 -3.83116 255 0 0
3.34502 5.67914 -3.82491 255 0 0
3.30186 5.68259 -3.8197 255 0 0
3.13178 5.72882 -3.80772 255 0 0
3.00757 5.84263 -3.81944 255 0 0
2.915 6.00876 -3.84913 255 0 0
2.86636 6.11012 -3.86866 255 0 0
2.84643 6.18161 -3.88428 255 0 0
2.84116 6.20887 -3.89053 255 0 0
2.81866 6.2377 -3.89522 255 0 0
2.79758 6.33056 -3.91631 255 0 0
2.78782 6.39031 -3.93037 255 0 0
2.77343 6.54698 -3.96865 255 0 0
2.77322 6.58995 -3.97959 255 0 0
2.77283 6.63295 -3.99053 255 0 0
2.77999 6.83144 -4.04209 255 0 0
2.77013 6.8537 -4.04677 255 0 0
2.09394 5.78389 -4.15242 255 0 0
4.38886 6.68572 -4.35815 255 0 0
5.42806 5.53858 -5.38346 255 0 0
3.12763 5.65733 -3.90606 255 0 0
2.51534 6.3973 -4.08912 255 0 0
1.99805 5.45826 -4.14296 255 0 0
3.40813 5.49918 -4.14381 255 0 0
4.16895 5.79566 -4.30004 255 0 0
2.46842 5.53239 -4.06346 255 0 0
4.44725 5.6845 -4.06308 255 0 0
4.33488 5.65049 -4.03572 255 0 0
4.09433 5.66352 -3.99764 255 0 0
4.04667 5.6539 -3.98744 255 0 0
4.00244 5.64851 -3.97886 255 0 0
3.89688 5.68322 -3.96974 255 0 0
3.85157 5.68911 -3.96384 255 0 0
3.79842 5.66836 -3.95043 255 0 0
4.18104 6.14438 -4.32633 255 0 0
3.78185 5.67266 -3.94882 255 0 0
3.70941 5.67999 -3.93917 255 0 0
3.67632 5.68806 -3.93595 255 0 0
3.58987 5.68649 -3.92227 255 0 0
3.54946 5.68196 -3.91503 255 0 0
3.42074 5.66851 -3.8925 255 0 0
3.40729 5.67661 -3.8925 255 0 0
3.34392 5.66192 -3.87962 255 0 0
3.33904 5.6844 -3.88445 255 0 0
3.30356 5.68555 -3.87962 255 0 0
3.23814 5.68099 -3.86916 255 0 0
3.09742 5.65001 -3.84181 255 0 0
2.98957 5.62612 -3.82115 255 0 0
2.87889 5.7424 -3.83617 255 0 0
2.7773 5.9386 -3.87399 255 0 0
2.75265 5.95936 -3.87641 255 0 0
2.73613 5.97936 -3.87962 255 0 0
2.72861 6.03844 -3.89411 255 0 0
2.72435 6.08665 -3.90618 255 0 0
2.71709 6.14841 -3.92146 255 0 0
2.70027 6.18961 -3.93032 255 0 0
2.66374 6.28805 -3.95204 255 0 0
2.66095 6.34421 -3.96652 255 0 0
2.64376 6.38797 -3.97618 255 0 0
2.64237 6.44943 -3.99227 255 0 0
2.64886 6.59867 -4.0325 255 0 0
2.6926 6.87203 -4.10975 255 0 0
2.59229 6.92853 -4.11458 255 0 0
3.25163 5.62684 -4.03423 255 0 0
2.15219 5.98908 -4.10882 255 0 0
3.08145 6.25714 -4.44057 255 0 0
4.34306 5.39146 -4.42252 255 0 0
5.24669 6.20613 -4.39623 255 0 0
4.78771 5.70422 -4.19586 255 0 0
4.69644 5.66334 -4.16936 255 0 0
4.59291 5.64663 -4.14618 255 0 0
4.56537 5.64004 -4.13955 255 0 0
4.53437 5.62898 -4.13127 255 0 0
4.49362 5.63284 -4.12465 255 0 0
4.39699 5.63398 -4.10726 255 0 0
4.35112 5.6163 -4.09484 255 0 0
4.30424 5.63818 -4.09153 255 0 0
4.27727 5.63048 -4.08491 255 0 0
4.14341 5.63238 -4.06172 255 0 0
4.02772 5.6985 -4.05758 255 0 0
4.59979 6.5904 -4.36974 255 0 0
4.52098 6.57667 -4.35318 255 0 0
4.29069 6.30551 -4.24885 255 0 0
4.49605 6.67515 -4.37305 255 0 0
4.44491 6.73624 -4.37967 255 0 0
4.23472 6.51808 -4.29191 255 0 0
4.18749 6.59845 -4.30433 255 0 0
4.19244 6.65845 -4.32006 255 0 0
3.39508 5.626 -3.93752 255 0 0
3.36207 5.61635 -3.93007 255 0 0
3.34638 5.63552 -3.93255 255 0 0
3.26456 5.61844 -3.91599 255 0 0
3.2472 5.65008 -3.92151 255 0 0
3.23919 5.73009 -3.94083 255 0 0
3.11102 5.5959 -3.88784 255 0 0
3.12503 5.68442 -3.91268 255 0 0
3.06854 5.64489 -3.89446 255 0 0
2.99116 5.62908 -3.87956 255 0 0
2.9525 5.63679 -3.87625 255 0 0
2.9036 5.62423 -3.86631 255 0 0
2.84659 5.61135 -3.85527 255 0 0
2.80489 5.61139 -3.84975 255 0 0
2.78074 5.62966 -3.85141 255 0 0
2.75428 5.69468 -3.86521 255 0 0
2.74024 5.7523 -3.87873 255 0 0
2.71855 5.75949 -3.8779 255 0 0
2.70545 5.80285 -3.88784 255 0 0
2.92117 6.38372 -4.07 255 0 0
2.69083 5.95477 -3.92676 255 0 0
2.65034 5.86523 -3.89778 255 0 0
2.68063 6.08541 -3.9607 255 0 0
2.61006 6.06101 -3.9458 255 0 0
2.56559 6.21994 -3.98389 255 0 0
2.59885 6.452 -4.05096 255 0 0
2.59627 6.64937 -4.10478 255 0 0
2.56269 6.65638 -4.10312 255 0 0
2.52122 6.69021 -4.10809 255 0 0
2.54668 6.80663 -4.14287 255 0 0
2.54814 6.86003 -4.15777 255 0 0
2.51172 6.86149 -4.15446 255 0 0
2.49928 6.87798 -4.15777 255 0 0
2.49477 6.94231 -4.17516 255 0 0
5.06257 5.60026 -4.36306 255 0 0
2.71918 6.59229 -4.36298 255 0 0
3.04727 6.41644 -4.35377 255 0 0
2.91742 5.6183 -3.92396 255 0 0
2.35023 5.85478 -4.03251 255 0 0
2.30861 5.54096 -4.04459 255 0 0
5.25168 5.72704 -4.36153 255 0 0
5.23086 5.81407 -4.37686 255 0 0
5.22453 5.83481 -4.38026 255 0 0
5.00493 5.75216 -4.31727 255 0 0
4.85812 5.66429 -4.26789 255 0 0
4.65029 5.59415 -4.21085 255 0 0
4.60234 5.5902 -4.20064 255 0 0
4.54436 5.58695 -4.18872 255 0 0
4.53554 5.5761 -4.18446 255 0 0
4.42896 5.66112 -4.18446 255 0 0
4.36734 5.60972 -4.16063 255 0 0
4.39017 5.68063 -4.18191 255 0 0
4.04695 5.59802 -4.09933 255 0 0
4.04675 5.62579 -4.10614 255 0 0
4.29088 6.16335 -4.28236 255 0 0
4.23587 6.19335 -4.28038 255 0 0
4.21171 6.22111 -4.28321 255 0 0
4.21885 6.2636 -4.29513 255 0 0
4.32588 6.55584 -4.38707 255 0 0
4.1895 6.48207 -4.34564 255 0 0
4.16879 6.5176 -4.35132 255 0 0
4.15934 6.53692 -4.35472 255 0 0
4.16146 6.59194 -4.3692 255 0 0
3.49721 5.6429 -4.01761 255 0 0
3.43384 5.57011 -3.98866 255 0 0
3.39134 5.56001 -3.9793 255 0 0
3.35977 5.58242 -3.98015 255 0 0
3.36287 5.63282 -3.99377 255 0 0
3.256 5.58849 -3.96568 255 0 0
3.26771 5.62386 -3.97674 255 0 0
3.28846 5.72186 -4.00569 255 0 0
3.26406 5.74226 -4.00739 255 0 0
3.15464 5.62711 -3.96057 255 0 0
3.06836 5.55011 -3.92737 255 0 0
3.0336 5.5181 -3.91375 255 0 0
3.05813 5.5941 -3.93758 255 0 0
3.32826 5.42761 -4.22784 255 0 0
3.03951 5.59149 -3.93418 255 0 0
3.0235 5.64151 -3.94524 255 0 0
2.89357 5.62116 -3.92141 255 0 0
2.80379 5.62581 -3.91034 255 0 0
2.70396 5.59057 -3.88735 255 0 0
2.68705 5.5894 -3.8848 255 0 0
2.67494 5.63245 -3.89502 255 0 0
2.66085 5.70719 -3.91375 255 0 0
2.69913 5.82531 -3.9512 255 0 0
2.92197 6.34566 -4.12317 255 0 0
2.97685 6.5054 -4.17425 255 0 0
2.83387 6.23195 -4.0806 255 0 0
2.63222 5.82512 -3.94269 255 0 0
2.59544 5.81708 -3.93588 255 0 0
2.57421 5.88158 -3.9512 255 0 0
2.5263 5.84744 -3.93588 255 0 0
2.55662 5.95637 -3.96993 255 0 0
2.54688 5.97272 -3.97334 255 0 0
2.50242 6.19136 -4.02952 255 0 0
2.46863 6.23505 -4.03804 255 0 0
2.49917 6.65558 -4.16063 255 0 0
2.48914 6.70119 -4.17254 255 0 0
2.45733 6.71292 -4.17254 255 0 0
2.67674 5.60193 -4.00019 255 0 0
5.17795 5.59316 -4.3858 255 0 0
5.10605 5.56823 -4.36481 255 0 0
5.08998 5.59048 -4.36656 255 0 0
5.00069 5.55825 -4.34033 255 0 0
5.00241 5.58674 -4.34732 255 0 0
4.93666 5.59285 -4.33508 255 0 0
4.89095 5.58095 -4.32283 255 0 0
4.82487 5.57183 -4.30709 255 0 0
4.68271 5.53902 -4.27036 255 0 0
4.66957 5.55011 -4.27036 255 0 0
4.67433 5.58259 -4.27911 255 0 0
4.62173 5.54644 -4.25987 255 0 0
4.5857 5.58347 -4.26162 255 0 0
4.56443 5.55758 -4.25112 255 0 0
4.48129 5.54961 -4.23275 255 0 0
4.35946 5.46469 -4.18815 255 0 0
4.40337 5.60099 -4.23013 255 0 0
4.18177 5.53194 -4.17066 255 0 0
4.11154 5.46593 -4.14093 255 0 0
4.10915 5.54442 -4.16017 255 0 0
4.06946 5.51816 -4.14617 255 0 0
4.11551 5.66451 -4.19165 255 0 0
4.20028 5.81011 -4.24412 255 0 0
4.17018 5.79737 -4.23538 255 0 0
4.16331 5.90516 -4.26162 255 0 0
4.19422 5.97906 -4.2861 255 0 0
4.2812 6.18068 -4.35344 255 0 0
4.25445 6.18895 -4.35082 255 0 0
4.14821 6.143 -4.32021 255 0 0
4.16523 6.21574 -4.34207 255 0 0
4.17277 6.29131 -4.36306 255 0 0
4.22863 6.40846 -4.40329 255 0 0
4.16742 6.34839 -4.37706 255 0 0
4.19331 6.50487 -4.42253 255 0 0
4.16413 6.51033 -4.41904 255 0 0
4.19215 6.658 -4.46276 255 0 0
4.14772 6.63969 -4.45052 255 0 0
3.24445 5.55346 -4.01324 255 0 0
3.21443 5.53215 -4.00275 255 0 0
3.297 5.76834 -4.07971 255 0 0
3.30486 5.91153 -4.11994 255 0 0
3.06836 5.74152 -4.03773 255 0 0
3.04998 5.8397 -4.06222 255 0 0
3.07609 5.95837 -4.09895 255 0 0
3.01347 5.87119 -4.06571 255 0 0
3.25862 6.42362 -4.25462 255 0 0
3.28868 6.52114 -4.2861 255 0 0
3.17554 6.3341 -4.21789 255 0 0
2.59547 5.58422 -3.92753 255 0 0
2.5444 5.59541 -3.92403 255 0 0
2.53616 5.6482 -3.93803 255 0 0
2.55464 5.72564 -3.96252 255 0 0
2.50256 5.64483 -3.93278 255 0 0
2.37312 5.91175 -3.994 255 0 0
2.40686 6.57504 -4.19165 255 0 0
3.94832 5.39393 -4.33904 255 0 0
4.14673 6.5171 -4.48857 255 0 0
4.17595 5.89338 -4.32697 255 0 0
4.4004 5.42306 -4.31417 255 0 0
2.69643 6.49342 -4.32983 255 0 0
3.09342 6.13396 -4.27642 255 0 0
5.17938 5.43745 -4.98331 255 0 0
4.90627 5.42736 -4.49202 255 0 0
5.24299 5.59652 -4.47061 255 0 0
5.10373 5.51298 -4.42034 255 0 0
5.08031 5.52699 -4.41854 255 0 0
5.01374 5.51988 -4.40238 255 0 0
4.95023 5.50216 -4.38443 255 0 0
4.84251 5.48619 -4.3575 255 0 0
4.64879 5.49887 -4.31979 255 0 0
4.48159 5.49645 -4.28478 255 0 0
4.40155 5.49067 -4.26712 255 0 0
4.36622 5.49986 -4.26233 255 0 0
4.30359 5.52783 -4.25695 255 0 0
4.17776 5.55396 -4.23899 255 0 0
4.13786 5.52815 -4.22463 255 0 0
4.15448 5.6615 -4.26233 255 0 0
4.17288 5.77221 -4.29465 255 0 0
4.17996 5.95874 -4.34493 255 0 0
4.14664 6.14066 -4.38712 255 0 0
4.1345 6.18575 -4.397 255 0 0
4.15667 6.43127 -4.46702 255 0 0
4.14715 6.48378 -4.47959 255 0 0
4.14318 6.54575 -4.49575 255 0 0
3.40566 5.49519 -4.08278 255 0 0
3.34028 5.53518 -4.08278 255 0 0
3.23589 5.53882 -4.06662 255 0 0
3.20595 5.51757 -4.05585 255 0 0
3.31556 5.73747 -4.13485 255 0 0
3.31027 5.75982 -4.14024 255 0 0
3.29615 5.89595 -4.17615 255 0 0
3.01517 5.48458 -4.01635 255 0 0
3.09179 5.78537 -4.11331 255 0 0
2.96512 5.84505 -4.11151 255 0 0
3.11187 6.17054 -4.22642 255 0 0
3.27207 6.52666 -4.35211 255 0 0
3.1158 6.4421 -4.30543 255 0 0
2.59471 5.54819 -3.97326 255 0 0
2.51425 5.51173 -3.95171 255 0 0
2.46434 5.55862 -3.95889 255 0 0
2.47811 5.62566 -3.98044 255 0 0
2.43919 5.60921 -3.97057 255 0 0
2.41343 5.65976 -3.98224 255 0 0
2.36529 5.73435 -3.9984 255 0 0
2.37282 5.79151 -4.01635 255 0 0
2.33914 5.94916 -4.05944 255 0 0
2.53925 6.52617 -4.25605 255 0 0
2.25305 6.00015 -4.06483 255 0 0
2.25987 6.12844 -4.10433 255 0 0
2.86564 6.54744 -4.56774 255 0 0
3.94181 5.39844 -4.2768 255 0 0
4.2942 5.38289 -4.86901 255 0 0
2.23754 5.38834 -4.15107 255 0 0
4.15345 5.38746 -4.31707 255 0 0
5.19355 5.53056 -4.514 255 0 0
4.9553 5.45554 -4.44217 255 0 0
4.89318 5.45171 -4.42744 255 0 0
4.79995 5.43797 -4.4035 255 0 0
4.74484 5.4272 -4.38876 255 0 0
4.72466 5.43005 -4.38508 255 0 0
4.63969 5.4226 -4.36482 255 0 0
4.55517 5.41414 -4.34456 255 0 0
4.49526 5.42074 -4.33351 255 0 0
4.34906 5.42519 -4.30404 255 0 0
4.29266 5.42038 -4.29115 255 0 0
4.26992 5.43125 -4.28931 255 0 0
4.23306 5.41072 -4.27642 255 0 0
4.09148 5.45268 -4.25892 255 0 0
4.04638 5.45972 -4.25186 255 0 0
4.05443 5.52516 -4.27089 255 0 0
4.08065 5.58862 -4.29299 255 0 0
4.11313 5.66124 -4.31878 255 0 0
4.14069 5.78527 -4.35745 255 0 0
4.15065 5.84301 -4.37495 255 0 0
4.14308 5.99647 -4.41516 255 0 0
4.12119 6.05642 -4.42744 255 0 0
4.11416 6.10817 -4.44033 255 0 0
4.10529 6.2376 -4.47441 255 0 0
4.10316 6.34848 -4.50479 255 0 0
4.13018 6.42364 -4.53058 255 0 0
4.1325 6.49474 -4.55084 255 0 0
4.12715 6.5376 -4.56189 255 0 0
3.34648 5.47187 -4.12539 255 0 0
3.28952 5.48037 -4.11802 255 0 0
3.24132 5.44873 -4.10083 255 0 0
3.2131 5.49981 -4.11066 255 0 0
3.2168 5.53624 -4.12171 255 0 0
3.26583 5.77721 -4.19906 255 0 0
3.27391 5.8237 -4.2138 255 0 0
3.27596 5.89259 -4.23406 255 0 0
3.27005 5.91494 -4.23958 255 0 0
3.14561 5.78665 -4.18249 255 0 0
3.09812 5.78071 -4.17328 255 0 0
3.06189 5.76225 -4.16223 255 0 0
3.03884 5.78489 -4.1653 255 0 0
3.16356 6.31021 -4.33904 255 0 0
3.03611 6.35403 -4.33351 255 0 0
3.02504 6.48833 -4.37219 255 0 0
2.91384 6.28872 -4.29668 255 0 0
2.55951 5.55851 -4.02778 255 0 0
2.43938 5.48476 -3.9891 255 0 0
2.39253 5.48415 -3.98266 255 0 0
2.36315 5.57846 -4.00752 255 0 0
2.63893 6.31266 -4.26721 255 0 0
2.38974 6.07786 -4.16407 255 0 0
2.50268 6.40969 -4.2801 255 0 0
2.52364 6.50888 -4.31325 255 0 0
2.23401 5.97092 -4.1125 255 0 0
2.21597 5.96578 -4.10882 255 0 0
2.19405 5.9936 -4.11496 255 0 0
5.11993 5.42633 -4.96386 255 0 0
3.31419 5.83046 -4.28435 255 0 0
5.13191 5.49096 -4.55998 255 0 0
5.21495 5.52704 -4.5883 255 0 0
5.08113 5.46253 -4.5411 255 0 0
5.01385 5.44173 -4.52033 255 0 0
4.92658 5.42392 -4.49579 255 0 0
4.87856 5.42249 -4.48446 255 0 0
4.8472 5.4134 -4.47502 255 0 0
4.7545 5.39935 -4.45048 255 0 0
4.71702 5.39537 -4.44104 255 0 0
4.19951 5.38096 -4.32494 255 0 0
4.0949 5.39038 -4.30574 255 0 0
3.89144 5.40985 -4.26987 255 0 0
3.83256 5.40877 -4.25792 255 0 0
3.71681 5.46216 -4.25037 255 0 0
3.73493 5.51685 -4.26924 255 0 0
3.78894 5.65422 -4.31833 255 0 0
3.87699 5.81537 -4.38063 255 0 0
3.9459 5.94926 -4.4316 255 0 0
4.0767 6.34046 -4.56753 255 0 0
4.10347 6.41548 -4.59396 255 0 0
4.08726 6.49141 -4.61284 255 0 0
4.08657 6.52457 -4.62228 255 0 0
3.3682 5.52208 -4.20317 255 0 0
3.25599 5.45383 -4.16352 255 0 0
3.19605 5.44101 -4.14936 255 0 0
3.2964 5.78314 -4.26736 255 0 0
3.32801 5.82258 -4.28435 255 0 0
3.79966 6.91156 -4.68647 255 0 0
3.15008 5.79486 -4.24659 255 0 0
3.04537 5.79739 -4.23054 255 0 0
2.95612 5.75945 -4.20506 255 0 0
3.00292 5.88493 -4.25037 255 0 0
2.95134 5.81789 -4.22205 255 0 0
3.05234 6.05252 -4.30889 255 0 0
3.14605 6.29386 -4.39668 255 0 0
3.08296 6.2602 -4.37685 255 0 0
2.99922 6.25774 -4.36364 255 0 0
2.97154 6.29547 -4.37119 255 0 0
2.97073 6.3326 -4.38252 255 0 0
2.96273 6.3547 -4.38818 255 0 0
2.98357 6.47943 -4.42972 255 0 0
2.51459 5.52983 -4.06913 255 0 0
2.48011 5.50588 -4.05686 255 0 0
2.31653 5.45043 -4.01721 255 0 0
2.30681 5.48162 -4.02571 255 0 0
2.50757 6.55954 -4.39196 255 0 0
2.30248 6.10976 -4.22394 255 0 0
1.99441 5.34989 -4.1591 255 0 0
5.19242 5.50316 -4.6475 255 0 0
5.03862 5.44265 -4.59528 255 0 0
5.01447 5.44239 -4.58948 255 0 0
4.95236 5.43931 -4.57401 255 0 0
4.89505 5.42785 -4.55757 255 0 0
4.54652 5.39087 -4.46764 255 0 0
4.5032 5.39115 -4.45797 255 0 0
4.25175 5.38182 -4.39996 255 0 0
4.21938 5.39323 -4.39609 255 0 0
4.14717 5.37931 -4.37675 255 0 0
3.89522 5.38812 -4.32647 255 0 0
3.8568 5.40213 -4.3226 255 0 0
3.80454 5.39627 -4.31035 255 0 0
3.71003 5.39699 -4.29166 255 0 0
3.68787 5.39209 -4.28586 255 0 0
3.43864 5.40425 -4.24138 255 0 0
3.39718 5.4239 -4.23944 255 0 0
3.34027 5.40398 -4.22301 255 0 0
3.30247 5.44332 -4.22784 255 0 0
3.24534 5.4068 -4.20657 255 0 0
3.24385 5.43346 -4.2143 255 0 0
3.20055 5.40455 -4.19787 255 0 0
3.18469 5.43634 -4.20463 255 0 0
3.302 5.79302 -4.33324 255 0 0
3.31538 5.86487 -4.35741 255 0 0
3.29155 5.88776 -4.36031 255 0 0
3.29088 5.9861 -4.39029 255 0 0
3.09948 5.81633 -4.30616 255 0 0
3.04984 5.83938 -4.3052 255 0 0
3.04492 5.898 -4.3226 255 0 0
3.11673 6.07238 -4.38835 255 0 0
3.20412 6.2977 -4.47248 255 0 0
3.19292 6.33126 -4.48118 255 0 0
3.16303 6.30917 -4.46958 255 0 0
3.07876 6.28924 -4.45024 255 0 0
2.7224 5.76764 -4.23171 255 0 0
2.5491 5.43383 -4.1002 255 0 0
2.51987 5.4048 -4.08667 255 0 0
2.43367 5.41993 -4.07893 255 0 0
2.44333 5.47616 -4.09827 255 0 0
2.74707 6.23623 -4.38449 255 0 0
2.39797 5.5504 -4.11568 255 0 0
2.34416 5.4973 -4.09118 255 0 0
2.27445 5.44076 -4.06346 255 0 0
2.2465 5.44637 -4.06153 255 0 0
2.21807 5.48784 -4.0712 255 0 0
2.14588 5.73531 -4.14275 255 0 0
2.16717 5.79228 -4.16402 255 0 0
2.11864 5.74545 -4.14275 255 0 0
4.75284 5.43635 -4.86874 255 0 0
5.30367 5.54156 -4.75582 255 0 0
5.21288 5.49867 -4.72216 255 0 0
5.0404 5.41875 -4.65881 255 0 0
3.09763 5.36034 -4.22426 255 0 0
3.04853 5.36307 -4.21634 255 0 0
3.05534 5.37507 -4.22129 255 0 0
3.01631 5.36548 -4.21139 255 0 0
2.99587 5.37376 -4.2104 255 0 0
2.94167 5.44227 -4.22261 255 0 0
2.95774 5.59823 -4.27474 255 0 0
3.03212 5.83919 -4.36383 255 0 0
3.05618 5.91981 -4.39352 255 0 0
3.18103 6.27066 -4.52617 255 0 0
3.14632 6.27581 -4.52221 255 0 0
2.37561 5.49866 -4.15199 255 0 0
2.3517 5.47896 -4.1421 255 0 0
2.29773 5.45997 -4.12824 255 0 0
2.25268 5.44295 -4.11636 255 0 0
2.17438 5.37973 -4.08468 255 0 0
2.15009 5.39306 -4.10405 255 0 0
2.14023 5.55906 -4.14012 255 0 0
2.14475 5.61045 -4.15793 255 0 0
2.09431 5.6794 -4.17476 255 0 0
5.04297 5.40861 -5.00921 255 0 0
5.48978 5.44441 -5.37332 255 0 0
5.18958 5.47409 -4.78099 255 0 0
5.12757 5.43443 -4.75466 255 0 0
5.02355 5.42637 -4.7263 255 0 0
2.67843 5.37431 -4.21386 255 0 0
2.33575 5.4064 -4.17132 255 0 0
2.20018 5.40665 -4.15208 255 0 0
2.15252 5.39921 -4.14296 255 0 0
2.10007 5.37855 -4.12878 255 0 0
2.0417 5.40488 -4.13014 255 0 0
2.01244 5.41783 -4.13081 255 0 0
5.22582 5.46023 -4.85808 255 0 0
5.18264 5.44088 -4.84151 255 0 0
4.63434 5.45551 -4.70689 255 0 0
4.56235 5.50164 -4.70275 255 0 0
4.50048 5.4533 -4.67376 255 0 0
4.44235 5.40893 -4.64683 255 0 0
2.09936 5.35176 -4.17394 255 0 0
2.04104 5.33913 -4.16151 255 0 0
2.04946 5.64009 -4.15595 255 0 0
5.25074 5.48626 -4.94408 255 0 0
4.70526 5.40774 -4.77899 255 0 0
4.71049 5.49218 -4.8051 255 0 0
5.1515 5.43392 -4.97467 255 0 0
5.20894 5.49451 -5.08093 255 0 0
4.08523 5.37768 -5.01354 255 0 0
4.93418 5.53692 -5.30941 255 0 0
5.44755 5.49295 -5.37527 255 0 0
5.35537 5.60888 -5.38346 255 0 0
5.33609 5.64201 -5.38815 255 0 0
5.316 5.66096 -5.38815 255 0 0
5.26207 5.71112 -5.38815 255 0 0
5.2177 5.74443 -5.3858 255 0 0
5.03751 5.42852 -5.30464 255 0 0
5.00403 5.45696 -5.30384 255 0 0
4.98649 5.48988 -5.30941 255 0 0
4.89776 5.56206 -5.30702 255 0 0
4.76292 5.47401 -5.23783 255 0 0
4.29551 5.65449 -5.23969 255 0 0
4.28893 5.70174 -5.25508 255 0 0
4.2178 5.71931 -5.24212 255 0 0
4.17943 5.3815 -5.17734 255 0 0
4.15285 5.41319 -5.18147 255 0 0
4.06349 5.4828 -5.18229 255 0 0
4.05025 5.50576 -5.18724 255 0 0
4.01131 5.52109 -5.18229 255 0 0
3.80912 5.71357 -5.20209 255 0 0
3.75766 5.75387 -5.20456 255 0 0
3.71593 5.74935 -5.19219 255 0 0
3.65063 5.6778 -5.14765 255 0 0
3.5553 5.5876 -5.08826 255 0 0
3.39445 5.36284 -4.95958 255 0 0
2.43534 6.72688 -4.17425 255 0 0
2.46671 6.9418 -4.23895 255 0 0
1.96007 5.37424 -4.16324 255 0 0
2.04539 5.38881 -4.62967 255 0 0
2.03232 5.39287 -4.68738 255 0 0
