ply
format ascii 1.0
comment Created by Open3D
element vertex 593
property double x
property double y
property double z
property uchar red
property uchar green
property uchar blue
end_header
-21.4145 0.634862 -3.33715 255 0 0
-21.7742 1.62928 -2.9988 255 0 0
-21.3257 0.936024 -3.68891 255 0 0
-21.369 1.44619 -3.51557 255 0 0
-21.4364 -0.228725 -4.05521 255 0 0
-21.4628 0.483523 -2.62466 255 0 0
-21.3555 1.19114 -3.51351 255 0 0
-21.3302 1.44356 -4.22906 255 0 0
-21.2869 -0.176654 -5.29912 255 0 0
-21.4818 -0.331094 -4.6017 255 0 0
-21.407 1.24493 -2.98087 255 0 0
-21.2814 0.0756879 -4.93683 255 0 0
-21.3086 0.985902 -3.86626 255 0 0
-21.1878 0.879646 -4.92642 255 0 0
-21.3821 0.53243 -3.51351 255 0 0
-21.4588 -0.0254395 -3.51847 255 0 0
-21.5439 -0.127704 -2.62688 255 0 0
-21.4292 0.127024 -3.5164 255 0 0
-21.215 0.780016 -4.92962 255 0 0
-21.4321 0.737121 -2.62398 255 0 0
-21.3006 0.631484 -4.58058 255 0 0
-21.3474 0.177156 -4.40535 255 0 0
-21.2253 1.08294 -4.75309 255 0 0
-21.2994 0.580908 -4.40076 255 0 0
-21.3986 -0.279066 -4.41125 255 0 0
-21.3235 1.44311 -3.86983 255 0 0
-21.256 -0.125997 -5.1136 255 0 0
-21.3056 0.429443 -4.58058 255 0 0
-21.2794 0.327975 -4.75685 255 0 0
-21.2463 0.52905 -4.75309 255 0 0
-21.3226 -0.0252781 -4.76211 255 0 0
-21.4042 0.888627 -3.15842 255 0 0
-21.4058 0.685405 -3.1581 255 0 0
-21.4163 0.279296 -3.33679 255 0 0
-21.2982 0.985421 -4.04404 255 0 0
-21.4194 -0.177754 -4.05354 255 0 0
-21.3662 0.379986 -3.69076 255 0 0
-21.2297 0.478272 -4.93042 255 0 0
-21.3186 1.13838 -3.86779 255 0 0
-21.3277 1.24032 -3.69029 255 0 0
-21.3037 1.08694 -3.86626 255 0 0
-21.2716 0.883123 -4.3988 255 0 0
-21.2124 0.377252 -5.10766 255 0 0
-21.3826 -0.126748 -4.40929 255 0 0
-21.3336 0.733731 -3.68891 255 0 0
-21.3858 0.938663 -3.33606 255 0 0
-21.4989 -0.178414 -3.52136 255 0 0
-21.2049 1.13231 -4.93042 255 0 0
-21.2706 1.03469 -4.39945 255 0 0
-21.3814 0.380258 -4.22967 255 0 0
-21.341 0.582042 -3.86779 255 0 0
-21.4617 -0.228996 -3.69814 255 0 0
-21.1332 1.17874 -5.28029 255 0 0
-21.3255 1.24019 -4.22724 255 0 0
-21.18 1.53433 -5.29105 255 0 0
-21.4331 0.330344 -3.33788 255 0 0
-21.2795 1.33879 -4.58199 255 0 0
-21.1836 1.48411 -5.29105 255 0 0
-21.4368 0.381241 -3.15937 255 0 0
-21.3217 -0.126387 -4.94243 255 0 0
-23.1525 1.78762 -5.00808 255 0 0
-21.3771 -0.0760282 -4.40863 255 0 0
-21.4401 0.839202 -2.62432 255 0 0
-21.4203 1.24571 -2.62432 255 0 0
-21.3934 1.14238 -3.33715 255 0 0
-21.401 0.48213 -3.33606 255 0 0
-21.3842 1.39629 -3.33752 255 0 0
-21.2447 -0.0251858 -5.1119 255 0 0
-21.3363 1.03788 -4.22724 255 0 0
-21.438 0.890031 -2.80284 255 0 0
-21.397 -0.0760991 -4.59114 255 0 0
-21.4559 0.279813 -3.16032 255 0 0
-21.203 0.226235 -5.10596 255 0 0
-21.331 0.632386 -3.68845 255 0 0
-21.4595 0.228972 -2.98168 255 0 0
-21.4391 1.50201 -2.62534 255 0 0
-25.8808 2.30722 -5.14654 255 0 0
-21.21 1.03174 -4.93042 255 0 0
-21.2727 1.49035 -4.40273 255 0 0
-21.4851 0.178299 -2.62517 255 0 0
-21.3047 0.833902 -4.04404 255 0 0
-21.3816 1.14174 -3.51516 255 0 0
-25.7266 2.29348 -5.34583 255 0 0
-21.2973 0.732484 -4.58058 255 0 0
-21.3162 -0.0758117 -4.94163 255 0 0
-21.4684 -0.127256 -3.69861 255 0 0
-21.3667 1.59879 -5.32064 255 0 0
-21.3179 1.03699 -3.86728 255 0 0
-21.2613 0.983714 -4.39814 255 0 0
-21.2296 0.0755038 -5.29015 255 0 0
-21.3158 1.13823 -3.68891 255 0 0
-21.4364 0.737266 -2.98114 255 0 0
-25.7597 2.11185 -5.34808 255 0 0
-21.4532 -0.279778 -4.05689 255 0 0
-21.5043 -0.0764809 -3.16285 255 0 0
-21.3836 0.228162 -4.22967 255 0 0
-21.5325 -0.0255269 -2.80569 255 0 0
-21.6273 1.61829 -4.62634 255 0 0
-21.3942 1.4479 -2.98087 255 0 0
-21.3268 1.39255 -3.86983 255 0 0
-21.3765 0.329471 -4.22906 255 0 0
-21.2796 1.1363 -4.58058 255 0 0
-21.3557 -0.227864 -4.94723 255 0 0
-21.4099 0.736357 -3.15842 255 0 0
-21.4081 0.787118 -3.15842 255 0 0
-21.3268 0.834766 -3.86728 255 0 0
-21.306 1.54345 -4.04795 255 0 0
-21.3761 1.24313 -3.33642 255 0 0
-25.8792 2.12165 -5.14442 255 0 0
-21.4073 0.63465 -3.1581 255 0 0
-21.335 0.480643 -3.68845 255 0 0
-21.4634 0.0763353 -3.16063 255 0 0
-21.3267 1.49413 -4.22906 255 0 0
-21.2784 1.54146 -4.76362 255 0 0
-21.1424 1.17925 -5.10172 255 0 0
-21.1839 0.477239 -5.28387 255 0 0
-21.4121 0.838104 -3.15874 255 0 0
-21.2017 1.08173 -4.92962 255 0 0
-21.3773 1.09069 -3.15747 255 0 0
-21.2596 1.13523 -4.3988 255 0 0
-21.3509 -0.177185 -4.76587 255 0 0
-21.2778 0.933924 -4.57917 255 0 0
-21.3698 1.34447 -3.51516 255 0 0
-21.4169 1.09271 -2.80241 255 0 0
-21.3513 0.531663 -3.68983 255 0 0
-21.2066 0.981181 -4.92962 255 0 0
-21.2813 0.98464 -4.57988 255 0 0
-21.4464 1.29825 -2.80394 255 0 0
-21.3619 0.126625 -4.58692 255 0 0
-21.5425 -0.0766166 -2.98542 255 0 0
-21.4151 0.838223 -2.98034 255 0 0
-21.4709 1.60658 -4.97125 255 0 0
-21.4025 -0.0761186 -4.05186 255 0 0
-21.4371 -0.0762418 -4.23513 255 0 0
-21.3978 1.34624 -3.15937 255 0 0
-21.3724 1.39552 -3.51557 255 0 0
-21.4192 1.44958 -2.80328 255 0 0
-21.3038 0.985678 -4.22359 255 0 0
-21.2141 1.28419 -4.75309 255 0 0
-21.5091 0.0764978 -2.62585 255 0 0
-21.3894 1.19302 -3.15842 255 0 0
-21.34 0.430136 -4.04627 255 0 0
-21.2681 1.08512 -4.39945 255 0 0
-25.8522 2.11943 -4.92261 255 0 0
-21.4811 0.0254659 -3.16158 255 0 0
-21.3896 0.684886 -3.33569 255 0 0
-21.4619 -0.330788 -4.41846 255 0 0
-21.3243 1.34161 -3.86932 255 0 0
-21.227 0.125825 -5.10935 255 0 0
-21.4336 0.991684 -2.62432 255 0 0
-21.3919 0.786523 -3.33606 255 0 0
-22.3228 1.61711 -2.65123 255 0 0
-21.2199 1.18357 -4.75309 255 0 0
-21.2865 0.227127 -4.7576 255 0 0
-21.1436 0.777391 -5.09917 255 0 0
-21.216 1.43583 -4.75459 255 0 0
-21.3625 0.227937 -3.69029 255 0 0
-21.4022 -0.177611 -4.59184 255 0 0
-21.2552 0.630138 -4.75459 255 0 0
-21.4755 0.432867 -2.80372 255 0 0
-21.3869 1.04035 -3.33642 255 0 0
-21.4137 0.431622 -3.33679 255 0 0
-21.2106 0.276614 -5.28746 255 0 0
-21.4962 0.229364 -2.80438 255 0 0
-21.4346 0.78809 -2.98114 255 0 0
-21.4311 1.0425 -2.80284 255 0 0
-21.2826 1.28833 -4.58199 255 0 0
-21.3305 0.733624 -3.86728 255 0 0
-21.5309 -0.025525 -2.98489 255 0 0
-21.4535 -0.127168 -3.87697 255 0 0
-21.4686 0.483653 -2.8035 255 0 0
-21.2813 0.782457 -4.39945 255 0 0
-21.3493 1.08926 -3.51268 255 0 0
-21.5214 -0.280668 -3.34335 255 0 0
-21.4979 -0.178405 -3.16253 255 0 0
-21.3652 0.227966 -3.86932 255 0 0
-21.4588 0.0763191 -3.33934 255 0 0
-21.3894 1.54949 -3.69676 255 0 0
-21.3315 0.885611 -4.22602 255 0 0
-21.3921 1.14231 -3.15842 255 0 0
-21.2054 0.226261 -5.28656 255 0 0
-21.2275 1.48718 -5.11699 255 0 0
-21.1919 0.930151 -4.74782 255 0 0
-21.3934 -0.228267 -4.4106 255 0 0
-21.1325 0.827164 -5.2776 255 0 0
-21.2841 -0.227101 -5.11784 255 0 0
-21.3005 0.934919 -4.04404 255 0 0
-21.4707 0.0254536 -3.34007 255 0 0
-21.274 1.23719 -4.58058 255 0 0
-21.3202 0.53089 -4.0446 255 0 0
-21.2694 0.933556 -4.3988 255 0 0
-21.3963 -0.279035 -4.77189 255 0 0
-21.4192 -0.228542 -4.59396 255 0 0
-21.3189 0.581439 -4.0446 255 0 0
-21.4216 1.19482 -2.98141 255 0 0
-21.4181 -0.330114 -5.31974 255 0 0
-21.4259 1.14411 -2.80284 255 0 0
-21.2279 1.33555 -4.93523 255 0 0
-21.3731 0.126691 -4.04907 255 0 0
-21.4505 -0.178012 -3.69722 255 0 0
-21.2503 1.43815 -4.93923 255 0 0
-21.3352 0.227646 -4.40404 255 0 0
-21.3774 0.177405 -3.87034 255 0 0
-21.3805 0.430952 -4.22967 255 0 0
-21.5841 -0.230301 -2.62807 255 0 0
-21.145 1.33033 -5.10341 255 0 0
-21.5267 0.0255201 -2.62636 255 0 0
-21.3898 0.837235 -3.51475 255 0 0
-21.3692 1.4462 -3.33679 255 0 0
-21.4485 0.584973 -2.80284 255 0 0
-21.3489 0.227792 -4.04683 255 0 0
-21.2236 0.125805 -5.28925 255 0 0
-21.2258 0.629266 -4.93042 255 0 0
-21.4125 1.34716 -2.98141 255 0 0
-21.4868 -0.229263 -3.52053 255 0 0
-21.1536 0.72754 -5.28029 255 0 0
-21.299 0.681986 -4.58058 255 0 0
-21.2446 -0.0755573 -5.1119 255 0 0
-21.4338 0.635433 -2.98087 255 0 0
-21.401 1.2955 -3.15937 255 0 0
-21.305 0.0757721 -4.75986 255 0 0
-21.3969 -0.228304 -4.77189 255 0 0
-21.3185 1.08769 -3.68891 255 0 0
-21.497 0.127426 -2.80438 255 0 0
-21.4532 -0.178034 -3.87697 255 0 0
-21.3072 1.28982 -3.68891 255 0 0
-21.3093 1.03657 -3.68798 255 0 0
-21.3703 0.887221 -3.51351 255 0 0
-21.428 1.55229 -2.98275 255 0 0
-21.322 1.4938 -4.94963 255 0 0
-21.4881 -0.0764231 -3.34117 255 0 0
-21.3448 0.683451 -4.22663 255 0 0
-21.3994 1.49922 -3.16 255 0 0
-21.3221 1.08788 -4.22602 255 0 0
-21.453 -0.33065 -4.96084 255 0 0
-21.3342 1.18995 -4.22785 255 0 0
-21.4773 0.331026 -2.80372 255 0 0
-21.5759 -0.281378 -2.98703 255 0 0
-21.4226 1.3988 -2.62466 255 0 0
-21.429 1.2972 -2.62466 255 0 0
-21.4202 1.1438 -2.62415 255 0 0
-21.4287 1.09331 -2.62432 255 0 0
-21.4322 0.889792 -2.62415 255 0 0
-21.4455 0.686678 -2.62432 255 0 0
-21.4544 0.585135 -2.62449 255 0 0
-21.4639 0.432633 -2.62466 255 0 0
-21.4774 0.331027 -2.625 255 0 0
-21.4898 0.280255 -2.62534 255 0 0
-21.5383 -0.0766018 -2.62671 255 0 0
-21.4632 0.381712 -2.98194 255 0 0
-21.3597 -0.0253221 -4.40666 255 0 0
-21.1601 0.627321 -5.10087 255 0 0
-21.3565 0.937376 -3.51268 255 0 0
-21.4278 0.279446 -3.5164 255 0 0
-21.3322 0.683048 -3.86728 255 0 0
-21.423 0.482627 -3.15874 255 0 0
-21.2508 0.579582 -4.75384 255 0 0
-21.4026 -0.126866 -4.59184 255 0 0
-21.4133 1.55122 -3.16095 255 0 0
-21.4573 0.12719 -3.16032 255 0 0
-21.5148 0.0765182 -2.80503 255 0 0
-25.7378 2.23298 -5.34658 255 0 0
-21.5288 1.55959 -2.80766 255 0 0
-21.4273 1.50118 -2.80372 255 0 0
-21.4342 1.39956 -2.80372 255 0 0
-21.4375 1.34873 -2.80372 255 0 0
-21.4203 1.2457 -2.80284 255 0 0
-21.4232 1.19491 -2.80284 255 0 0
-21.4335 0.99168 -2.80284 255 0 0
-21.4241 0.940345 -2.80241 255 0 0
-21.44 0.839199 -2.80284 255 0 0
-21.442 0.788362 -2.80284 255 0 0
-21.4496 0.737722 -2.80306 255 0 0
-21.4455 0.686675 -2.80284 255 0 0
-21.447 0.635826 -2.80284 255 0 0
-21.4615 0.534408 -2.80328 255 0 0
-21.4765 0.381948 -2.80372 255 0 0
-21.4897 0.280254 -2.80416 255 0 0
-21.4967 0.178395 -2.80438 255 0 0
-21.5208 0.0255131 -2.80525 255 0 0
-21.5499 -0.0766431 -2.80635 255 0 0
-21.5555 -0.127773 -2.80657 255 0 0
-21.5493 -0.178832 -2.80635 255 0 0
-21.5839 -0.2303 -2.80766 255 0 0
-21.6009 -0.281704 -2.80832 255 0 0
-21.1155 1.02714 -5.09662 255 0 0
-21.2795 1.38945 -4.40273 255 0 0
-21.4146 0.58405 -3.15842 255 0 0
-21.2424 0.428169 -4.93202 255 0 0
-21.3896 0.0760729 -3.87136 255 0 0
-21.3727 1.09046 -3.33569 255 0 0
-21.1144 0.926749 -5.09578 255 0 0
-25.7719 2.17439 -5.35034 255 0 0
-21.3923 1.24407 -3.15874 255 0 0
-21.4083 1.49985 -2.98168 255 0 0
-21.3952 1.14247 -2.98007 255 0 0
-21.4212 1.09293 -2.98114 255 0 0
-21.3945 1.04072 -2.9798 255 0 0
-21.4109 0.939764 -2.98034 255 0 0
-21.4439 0.686625 -2.98141 255 0 0
-21.4424 0.533932 -2.98114 255 0 0
-21.4447 0.432246 -2.98114 255 0 0
-21.4582 0.330731 -2.98168 255 0 0
-21.4882 0.280234 -2.98301 255 0 0
-21.4955 0.127416 -2.98328 255 0 0
-21.5075 0.0254973 -2.98382 255 0 0
-21.5481 -0.127729 -2.98569 255 0 0
-21.5243 -0.178625 -2.98462 255 0 0
-21.5414 -0.229846 -2.98542 255 0 0
-21.3869 0.0760633 -3.69214 255 0 0
-21.4701 -0.127266 -3.51929 255 0 0
-21.4241 0.431831 -3.15874 255 0 0
-21.4104 0.0253822 -3.69399 255 0 0
-21.4588 0.0254395 -3.51847 255 0 0
-21.4189 -0.0253923 -3.87391 255 0 0
-21.3136 1.34094 -4.22663 255 0 0
-21.3795 1.4469 -3.15874 255 0 0
-21.4004 1.39735 -3.15969 255 0 0
-21.3798 1.04 -3.15747 255 0 0
-21.3822 0.989305 -3.15747 255 0 0
-21.3845 0.938605 -3.15747 255 0 0
-21.4218 0.53342 -3.15874 255 0 0
-21.4376 0.330414 -3.15937 255 0 0
-21.4506 0.228877 -3.16 255 0 0
-21.4569 0.178066 -3.16032 255 0 0
-21.4869 -0.0254729 -3.1619 255 0 0
-21.5158 -0.127537 -3.16348 255 0 0
-21.5208 -0.229626 -3.1638 255 0 0
-21.5552 -0.281109 -3.16569 255 0 0
-21.5896 -0.332756 -3.16759 255 0 0
-21.304 0.37888 -4.40076 255 0 0
-21.2134 0.83033 -4.75008 255 0 0
-21.2714 1.23704 -4.40076 255 0 0
-21.3909 0.0253591 -4.05074 255 0 0
-21.4971 -0.331331 -5.14924 255 0 0
-21.3084 0.732865 -4.04404 255 0 0
-21.2227 1.13326 -4.75309 255 0 0
-21.467 1.55512 -3.34335 255 0 0
-21.3657 1.49686 -3.33679 255 0 0
-21.3758 1.34485 -3.33679 255 0 0
-21.3789 1.29417 -3.33679 255 0 0
-21.3673 1.1918 -3.33569 255 0 0
-21.3718 0.988827 -3.33533 255 0 0
-21.3938 0.888197 -3.33642 255 0 0
-21.39 0.837241 -3.33606 255 0 0
-21.3937 0.7358 -3.33606 255 0 0
-21.4043 0.583768 -3.33642 255 0 0
-21.4173 0.533307 -3.33715 255 0 0
-21.4264 0.381057 -3.33752 255 0 0
-21.4519 0.228891 -3.33898 255 0 0
-21.429 0.177834 -3.33752 255 0 0
-21.4528 0.127163 -3.33898 255 0 0
-21.4765 -0.0254605 -3.34044 255 0 0
-21.4995 -0.127441 -3.3419 255 0 0
-21.505 -0.178464 -3.34226 255 0 0
-21.4987 -0.22939 -3.3419 255 0 0
-21.6493 -0.333676 -3.35138 255 0 0
-21.3643 1.24245 -3.51433 255 0 0
-21.3048 1.3911 -4.04683 255 0 0
-21.3634 1.03921 -3.51351 255 0 0
-21.2898 1.44083 -4.04571 255 0 0
-21.1615 1.38175 -5.28656 255 0 0
-21.2817 1.54169 -5.12548 255 0 0
-21.3819 0.735393 -3.51392 255 0 0
-21.4493 1.55384 -3.52177 255 0 0
-21.3597 1.49644 -3.51516 255 0 0
-21.3613 1.2931 -3.51433 255 0 0
-21.3658 0.988549 -3.51351 255 0 0
-21.3859 0.786302 -3.51433 255 0 0
-21.3777 0.684507 -3.51351 255 0 0
-21.3793 0.633818 -3.51351 255 0 0
-21.3983 0.583604 -3.51475 255 0 0
-21.4008 0.482126 -3.51475 255 0 0
-21.4136 0.431619 -3.51557 255 0 0
-21.4028 0.380638 -3.51475 255 0 0
-21.427 0.330251 -3.5164 255 0 0
-21.4342 0.228702 -3.51681 255 0 0
-21.4464 0.177978 -3.51764 255 0 0
-21.4528 0.0762977 -3.51805 255 0 0
-21.4703 -0.07636 -3.51929 255 0 0
-21.5212 -0.280665 -3.52301 255 0 0
-21.684 -0.334211 -3.53459 255 0 0
-21.2021 1.18258 -4.93042 255 0 0
-21.3372 0.278265 -4.5841 255 0 0
-21.1477 1.22985 -5.28298 255 0 0
-21.3289 1.49429 -3.69168 255 0 0
-21.315 1.44253 -3.69029 255 0 0
-21.33 1.39275 -3.69122 255 0 0
-21.3216 1.34144 -3.69029 255 0 0
-21.3189 1.18909 -3.68937 255 0 0
-21.3234 0.986585 -3.68891 255 0 0
-21.322 0.885216 -3.68845 255 0 0
-21.3299 0.834887 -3.68891 255 0 0
-21.3318 0.784311 -3.68891 255 0 0
-21.3586 0.683894 -3.69076 255 0 0
-21.3616 0.582604 -3.69076 255 0 0
-21.3535 0.430409 -3.68983 255 0 0
-21.3787 0.329506 -3.69168 255 0 0
-21.3969 0.279044 -3.69306 255 0 0
-21.398 0.177576 -3.69306 255 0 0
-21.3984 0.126841 -3.69306 255 0 0
-21.4221 -0.025396 -3.69491 255 0 0
-21.4453 -0.0762709 -3.69676 255 0 0
-21.4728 -0.280033 -3.69907 255 0 0
-21.6413 -0.333554 -3.71246 255 0 0
-21.4189 0.0253923 -3.87391 255 0 0
-21.3027 0.884413 -4.04404 255 0 0
-21.2769 1.18675 -4.58058 255 0 0
-21.3409 0.379538 -4.04627 255 0 0
-21.3423 0.53144 -3.86779 255 0 0
-21.9118 1.63958 -3.92239 255 0 0
-21.3339 1.54547 -3.87136 255 0 0
-21.3142 1.49325 -3.86932 255 0 0
-21.3157 1.29034 -3.8683 255 0 0
-21.3129 1.23946 -3.86779 255 0 0
-21.3158 1.18892 -3.86779 255 0 0
-21.3051 0.935121 -3.86575 255 0 0
-21.3072 0.884603 -3.86575 255 0 0
-21.3229 0.783983 -3.86677 255 0 0
-21.3454 0.632813 -3.8683 255 0 0
-21.3552 0.481099 -3.86881 255 0 0
-21.3563 0.430464 -3.86881 255 0 0
-21.363 0.379931 -3.86932 255 0 0
-21.3639 0.329277 -3.86932 255 0 0
-21.3646 0.278623 -3.86932 255 0 0
-21.3894 0.126788 -3.87136 255 0 0
-21.4305 -0.0762182 -3.87493 255 0 0
-21.4702 -0.229086 -3.87851 255 0 0
-21.4929 -0.280296 -3.88055 255 0 0
-21.4766 1.60701 -4.06471 255 0 0
-21.2921 1.49171 -4.04627 255 0 0
-21.3022 1.34022 -4.04627 255 0 0
-21.3053 1.28971 -4.04627 255 0 0
-21.285 1.23784 -4.04404 255 0 0
-21.2937 1.18769 -4.0446 255 0 0
-21.2907 1.13689 -4.04404 255 0 0
-21.2817 1.08581 -4.04292 255 0 0
-21.2842 1.03535 -4.04292 255 0 0
-21.295 0.782957 -4.04292 255 0 0
-21.3159 0.682527 -4.0446 255 0 0
-21.3291 0.632331 -4.04571 255 0 0
-21.3214 0.480338 -4.0446 255 0 0
-21.3418 0.328937 -4.04627 255 0 0
-21.3483 0.27841 -4.04683 255 0 0
-21.3611 0.17727 -4.04795 255 0 0
-21.3792 0.0760357 -4.04963 255 0 0
-21.4026 -0.0253729 -4.05186 255 0 0
-21.4255 -0.127002 -4.0541 255 0 0
-21.5399 -0.331991 -4.06527 255 0 0
-21.2278 1.03261 -4.75309 255 0 0
-21.3739 0.0253389 -4.58832 255 0 0
-21.2859 0.277597 -4.7576 255 0 0
-21.482 1.60741 -4.24606 255 0 0
-21.3231 1.54469 -4.22906 255 0 0
-21.3336 1.39298 -4.22906 255 0 0
-21.3225 1.29075 -4.22724 255 0 0
-21.3195 1.13843 -4.22602 255 0 0
-21.3177 0.935674 -4.22481 255 0 0
-21.3394 0.835259 -4.22663 255 0 0
-21.3413 0.78466 -4.22663 255 0 0
-21.3431 0.734058 -4.22663 255 0 0
-21.3463 0.63284 -4.22663 255 0 0
-21.3594 0.582544 -4.22785 255 0 0
-21.3503 0.480988 -4.22663 255 0 0
-21.383 0.278862 -4.22967 255 0 0
-21.3841 0.177461 -4.22967 255 0 0
-21.4019 0.126862 -4.23149 255 0 0
-21.408 0.0761382 -4.2321 255 0 0
-21.4256 0.0254002 -4.23392 255 0 0
-21.4427 -0.127104 -4.23574 255 0 0
-21.454 -0.178041 -4.23695 255 0 0
-21.4471 -0.279698 -4.23635 255 0 0
-21.1756 0.57753 -5.28298 255 0 0
-21.3797 -0.0253457 -4.58903 255 0 0
-25.8364 2.30327 -4.92261 255 0 0
-21.2981 1.54288 -4.40601 255 0 0
-21.282 1.4403 -4.40339 255 0 0
-21.2711 1.33827 -4.40142 255 0 0
-21.2742 1.28783 -4.40142 255 0 0
-21.2743 1.18661 -4.40076 255 0 0
-21.2794 0.832913 -4.39945 255 0 0
-21.2831 0.731996 -4.39945 255 0 0
-21.279 0.681345 -4.3988 255 0 0
-21.298 0.631408 -4.40076 255 0 0
-21.2833 0.529971 -4.3988 255 0 0
-21.3078 0.480031 -4.40142 255 0 0
-21.3089 0.429509 -4.40142 255 0 0
-21.3281 0.328726 -4.40339 255 0 0
-21.3114 0.277928 -4.40142 255 0 0
-21.3477 0.126541 -4.40535 255 0 0
-21.348 0.0759248 -4.40535 255 0 0
-21.3655 0.025329 -4.40732 255 0 0
-21.4055 -0.177639 -4.41191 255 0 0
-21.2386 0.780883 -4.75309 255 0 0
-21.3006 1.54306 -4.58621 255 0 0
-21.2868 1.49134 -4.5841 255 0 0
-21.2729 1.43968 -4.58199 255 0 0
-21.2762 1.38924 -4.58199 255 0 0
-21.288 1.08614 -4.58129 255 0 0
-21.2964 1.03594 -4.58199 255 0 0
-21.28 0.883471 -4.57917 255 0 0
-21.2878 0.833241 -4.57988 255 0 0
-21.2955 0.782979 -4.58058 255 0 0
-21.3078 0.581137 -4.58129 255 0 0
-21.3208 0.530904 -4.58269 255 0 0
-21.3045 0.479958 -4.58058 255 0 0
-21.3182 0.379133 -4.58199 255 0 0
-21.319 0.328586 -4.58199 255 0 0
-21.3668 0.227983 -4.58762 255 0 0
-21.3615 0.177274 -4.58692 255 0 0
-21.3679 0.0759958 -4.58762 255 0 0
-21.4418 -0.279629 -4.59677 255 0 0
-21.2099 0.0754336 -5.10681 255 0 0
-21.1591 1.3816 -5.10596 255 0 0
-25.7877 2.05261 -5.35109 255 0 0
-21.3384 1.59667 -4.77189 255 0 0
-21.2299 1.48735 -4.75685 255 0 0
-21.2135 1.38515 -4.75384 255 0 0
-21.2052 1.33412 -4.75233 255 0 0
-21.2229 1.23422 -4.75384 255 0 0
-21.2128 0.981468 -4.75083 255 0 0
-21.2404 0.881829 -4.75384 255 0 0
-21.2403 0.730524 -4.75309 255 0 0
-21.242 0.680161 -4.75309 255 0 0
-21.2591 0.478935 -4.75459 255 0 0
-21.266 0.428645 -4.75534 255 0 0
-21.2786 0.378428 -4.75685 255 0 0
-21.287 0.176655 -4.7576 255 0 0
-21.3048 0.126286 -4.75986 255 0 0
-21.311 0.0252643 -4.76061 255 0 0
-21.3108 -0.0757927 -4.76061 255 0 0
-21.328 -0.126424 -4.76286 255 0 0
-21.4594 -0.33075 -4.78017 255 0 0
-21.3474 1.54645 -4.95364 255 0 0
-21.2131 1.38512 -4.93363 255 0 0
-21.1963 1.28311 -4.93042 255 0 0
-21.1993 1.23285 -4.93042 255 0 0
-21.2089 0.930898 -4.92962 255 0 0
-21.2015 0.829861 -4.92802 255 0 0
-21.2167 0.729713 -4.92962 255 0 0
-21.2184 0.679405 -4.92962 255 0 0
-21.2272 0.578938 -4.93042 255 0 0
-21.2285 0.528607 -4.93042 255 0 0
-21.2433 0.377801 -4.93202 255 0 0
-21.2558 0.327611 -4.93363 255 0 0
-21.2565 0.277212 -4.93363 255 0 0
-21.2687 0.226936 -4.93523 255 0 0
-21.2692 0.176507 -4.93523 255 0 0
-21.2811 0.126146 -4.93683 255 0 0
-21.2931 0.0252431 -4.93843 255 0 0
-21.3047 -0.0252568 -4.94003 255 0 0
-21.3446 -0.177133 -4.94563 255 0 0
-21.4537 -0.279784 -4.96084 255 0 0
-21.1629 0.526972 -5.10087 255 0 0
-21.1847 1.43372 -5.1102 255 0 0
-21.1308 1.27914 -5.10087 255 0 0
-21.1393 1.12881 -5.10087 255 0 0
-21.1419 1.07868 -5.10087 255 0 0
-21.1121 0.976809 -5.09578 255 0 0
-21.1107 0.876444 -5.09493 255 0 0
-21.1396 0.727058 -5.09832 255 0 0
-21.1586 0.67749 -5.10087 255 0 0
-21.1616 0.577148 -5.10087 255 0 0
-21.193 0.477446 -5.10511 255 0 0
-21.2307 0.327224 -5.1102 255 0 0
-21.2198 0.276734 -5.1085 255 0 0
-21.2035 0.175962 -5.10596 255 0 0
-21.273 -0.176539 -5.11614 255 0 0
-21.3414 -0.27832 -5.12633 255 0 0
-21.1626 0.627393 -5.28118 255 0 0
-21.164 1.43231 -5.28746 255 0 0
-21.1474 1.33048 -5.28387 255 0 0
-21.1274 1.27894 -5.28029 255 0 0
-21.136 1.12863 -5.28029 255 0 0
-21.1444 1.07881 -5.28118 255 0 0
-21.1469 1.02867 -5.28118 255 0 0
-21.1435 0.97826 -5.28029 255 0 0
-21.1284 0.927365 -5.2776 255 0 0
-21.0958 0.875827 -5.27222 255 0 0
-21.1518 0.777694 -5.28029 255 0 0
-21.161 0.677568 -5.28118 255 0 0
-21.1769 0.527321 -5.28298 255 0 0
-21.1791 0.426894 -5.28298 255 0 0
-21.1801 0.376677 -5.28298 255 0 0
-21.1867 0.326547 -5.28387 255 0 0
-21.2116 0.17603 -5.28746 255 0 0
-21.2413 0.0251817 -5.29194 255 0 0
-21.2471 -0.0251886 -5.29284 255 0 0
-21.2643 -0.0756273 -5.29553 255 0 0
-21.2699 -0.126079 -5.29643 255 0 0
-21.3211 -0.227495 -5.3045 255 0 0
-21.3436 -0.278349 -5.30809 255 0 0
-25.752 1.98833 -5.34583 255 0 0
