ply
format ascii 1.0
comment Created by Open3D
element vertex 53
property double x
property double y
property double z
property uchar red
property uchar green
property uchar blue
end_header
-12.7673 34.3719 -5.2079 255 0 0
-13.0018 34.0113 -4.88089 255 0 0
-12.6874 36.2485 -5.35998 255 0 0
-12.8217 35.5476 -4.98988 255 0 0
-13.4083 33.8656 -4.88181 255 0 0
-13.4209 33.664 -5.17065 255 0 0
-12.8778 34.6693 -4.92615 255 0 0
-12.7566 34.8483 -5.24669 255 0 0
-13.697 33.8884 -4.89197 255 0 0
-13.3216 33.881 -4.88043 255 0 0
-13.1324 33.6336 -5.15891 255 0 0
-12.7377 35.0539 -5.26302 255 0 0
-13.1734 33.9764 -4.8832 255 0 0
-13.7971 33.6755 -5.18392 255 0 0
-13.2455 33.9234 -4.88135 255 0 0
-12.8553 33.6281 -5.14973 255 0 0
-13.6088 33.6703 -5.17728 255 0 0
-12.9769 33.7064 -5.15993 255 0 0
-12.7956 34.1995 -5.19463 255 0 0
-13.9948 34.158 -4.92061 255 0 0
-12.8109 34.7414 -5.23954 255 0 0
-13.7084 33.6866 -5.18188 255 0 0
-12.6989 35.7372 -5.31813 255 0 0
-12.8965 34.9735 -4.94924 255 0 0
-13.0929 34.0076 -4.8832 255 0 0
-13.0694 33.7082 -5.16299 255 0 0
-12.9418 34.0966 -4.88551 255 0 0
-12.7938 36.2764 -5.04345 255 0 0
-13.2462 33.6893 -5.16708 255 0 0
-12.676 36.4934 -5.37988 255 0 0
-13.3218 33.6469 -5.16606 255 0 0
-13.5094 33.6537 -5.17269 255 0 0
-12.6976 36.0038 -5.34008 255 0 0
-12.7161 36.8908 -5.08733 255 0 0
-12.7537 36.7172 -5.07532 255 0 0
-12.7636 36.4665 -5.05685 255 0 0
-12.7976 36.015 -5.02406 255 0 0
-12.8122 35.7867 -5.00743 255 0 0
-12.8462 35.3525 -4.97603 255 0 0
-12.8537 35.1137 -4.95848 255 0 0
-12.9088 34.502 -4.9146 255 0 0
-12.9103 34.2583 -4.89659 255 0 0
-13.5102 33.8879 -4.88643 255 0 0
-13.6079 33.8991 -4.89013 255 0 0
-13.7993 33.9099 -4.89659 255 0 0
-14.0757 34.1247 -4.92061 255 0 0
-12.7168 35.5203 -5.30078 255 0 0
-12.6617 36.7329 -5.39927 255 0 0
-12.7258 35.2816 -5.28139 255 0 0
-12.815 34.0053 -5.17932 255 0 0
-12.8231 33.7839 -5.16146 255 0 0
-13.9258 33.7614 -5.19514 255 0 0
-14.0014 33.7175 -5.19412 255 0 0
