ply
format ascii 1.0
comment Created by Open3D
element vertex 64
property double x
property double y
property double z
property uchar red
property uchar green
property uchar blue
end_header
-16.2991 -31.0279 -3.60322 255 0 0
-15.3435 -30.9708 -3.29326 255 0 0
-16.0495 -30.9079 -3.30312 255 0 0
-15.6002 -30.9338 -3.58475 255 0 0
-15.1198 -31.4511 -3.30574 255 0 0
-15.624 -30.981 -3.2983 255 0 0
-15.1184 -31.64 -3.31209 255 0 0
-15.1184 -31.8339 -3.61205 255 0 0
-15.2555 -31.1638 -3.58716 255 0 0
-16.3672 -30.9788 -3.60268 255 0 0
-16.4777 -31.0097 -3.89887 255 0 0
-16.288 -31.1861 -3.31647 255 0 0
-15.2339 -32.0771 -2.73794 255 0 0
-15.828 -30.8379 -3.29699 255 0 0
-15.1971 -32.1964 -3.03594 255 0 0
-15.333 -30.9496 -3.57994 255 0 0
-15.2596 -30.9859 -3.57994 255 0 0
-15.3215 -30.9263 -3.86631 255 0 0
-16.3141 -31.7851 -2.74244 255 0 0
-15.832 -30.8457 -3.87485 255 0 0
-15.1779 -31.572 -3.60241 255 0 0
-16.1268 -30.8774 -3.8837 255 0 0
-15.2204 -31.6602 -3.02214 255 0 0
-15.7601 -30.8858 -3.29742 255 0 0
-16.1578 -30.9368 -3.59653 255 0 0
-15.4038 -30.9079 -3.57967 255 0 0
-15.1409 -31.6871 -3.60643 255 0 0
-15.5085 -30.9341 -3.58288 255 0 0
-15.1709 -32.9467 -2.75375 255 0 0
-16.3429 -31.1112 -3.31494 255 0 0
-15.2555 -31.5416 -3.311 255 0 0
-15.6973 -30.9436 -3.58716 255 0 0
-16.4754 -31.9127 -2.74633 255 0 0
-15.9954 -31.7174 -2.73818 255 0 0
-15.2594 -31.9352 -2.73551 255 0 0
-15.3786 -31.2276 -3.30246 255 0 0
-15.2018 -31.4306 -3.59706 255 0 0
-16.2975 -31.5681 -3.03372 255 0 0
-15.275 -31.5819 -3.02078 255 0 0
-15.1781 -31.7649 -3.02436 255 0 0
-16.4461 -30.9503 -3.60322 255 0 0
-15.9172 -30.8315 -3.2983 255 0 0
-15.4248 -30.95 -3.29392 255 0 0
-15.6975 -30.9439 -3.2983 255 0 0
-15.5112 -30.9395 -3.29502 255 0 0
-15.2585 -31.358 -3.30487 255 0 0
-15.1638 -31.9294 -3.3226 255 0 0
-15.261 -31.363 -3.59546 255 0 0
-16.0467 -30.9024 -3.59278 255 0 0
-15.9412 -30.878 -3.58957 255 0 0
-15.8599 -30.9001 -3.58877 255 0 0
-15.7707 -30.9063 -3.58716 255 0 0
-16.3331 -30.9143 -3.89065 255 0 0
-16.2054 -30.8494 -3.88433 255 0 0
-16.0104 -30.8325 -3.87864 255 0 0
-15.9453 -30.886 -3.87959 255 0 0
-15.7482 -30.8623 -3.87358 255 0 0
-15.6564 -30.863 -3.87137 255 0 0
-15.5674 -30.8687 -3.86947 255 0 0
-15.4654 -30.8481 -3.86599 255 0 0
-15.3974 -30.8951 -3.86663 255 0 0
-15.2404 -30.9468 -3.86536 255 0 0
-15.149 -30.9461 -3.86315 255 0 0
-15.1088 -31.0503 -3.86726 255 0 0
