ply
format ascii 1.0
comment Created by Open3D
element vertex 383
property double x
property double y
property double z
property uchar red
property uchar green
property uchar blue
end_header
-9.80391 -14.9347 -4.46537 255 0 0
-8.81046 -15.1632 -3.97594 255 0 0
-8.67917 -15.6991 -4.17231 255 0 0
-8.87412 -17.5966 -4.05479 255 0 0
-9.61291 -14.9509 -4.30251 255 0 0
-9.31062 -15.103 -3.70094 255 0 0
-9.44732 -14.9257 -4.28822 255 0 0
-9.35149 -14.9699 -4.13746 255 0 0
-8.72632 -16.1441 -4.06772 255 0 0
-9.42224 -15.7823 -3.4543 255 0 0
-9.94966 -16.7559 -3.05377 255 0 0
-9.04268 -14.9846 -4.26716 255 0 0
-8.96228 -15.6801 -2.97663 255 0 0
-8.68608 -15.7999 -4.33561 255 0 0
-9.45965 -15.0239 -3.70206 255 0 0
-9.17984 -14.9702 -4.12655 255 0 0
-9.0484 -15.0748 -3.83316 255 0 0
-8.69517 -15.8165 -4.03363 255 0 0
-9.60407 -14.9371 -4.15048 255 0 0
-8.68222 -15.2741 -4.42454 255 0 0
-8.84744 -17.7525 -3.40357 255 0 0
-8.80636 -18.0981 -4.09851 255 0 0
-10.1178 -15.1764 -3.59579 255 0 0
-8.74027 -15.3762 -3.84409 255 0 0
-8.69581 -17.6575 -3.55729 255 0 0
-10.1022 -15.153 -3.44091 255 0 0
-8.73643 -15.5405 -4.00872 255 0 0
-8.79542 -15.6455 -3.57027 255 0 0
-8.87629 -17.7051 -3.89875 255 0 0
-10.1343 -16.884 -3.06484 255 0 0
-9.90645 -15.1692 -3.58507 255 0 0
-9.39553 -15.1601 -3.70988 255 0 0
-9.44629 -15.1217 -3.70933 255 0 0
-9.56207 -15.028 -3.70765 255 0 0
-9.25104 -15.1669 -3.70318 255 0 0
-9.9239 -14.8856 -4.62055 255 0 0
-9.25698 -14.9762 -4.2807 255 0 0
-9.52463 -14.8911 -3.99168 255 0 0
-8.91505 -18.8873 -4.5292 255 0 0
-8.76276 -16.9734 -3.99164 255 0 0
-8.72567 -15.2662 -4.12937 255 0 0
-10.0673 -15.4154 -2.9956 255 0 0
-8.81379 -15.5056 -3.70988 255 0 0
-8.81692 -18.6794 -4.32734 255 0 0
-9.11387 -14.942 -4.56369 255 0 0
-9.93056 -14.9723 -3.87324 255 0 0
-9.3497 -15.0066 -3.84348 255 0 0
-8.83453 -15.2046 -3.68586 255 0 0
-10.1048 -15.3138 -2.99212 255 0 0
-9.56031 -15.8424 -3.464 255 0 0
-8.62656 -16.0504 -4.36043 255 0 0
-8.81751 -15.3423 -3.69647 255 0 0
-10.2129 -15.0855 -4.20609 255 0 0
-9.37503 -15.619 -3.59374 255 0 0
-9.31102 -15.0238 -3.84288 255 0 0
-8.69148 -15.9889 -4.35742 255 0 0
-8.75251 -15.4831 -3.85441 255 0 0
-10.5279 -18.8316 -3.16664 255 0 0
-8.76917 -16.2234 -3.768 255 0 0
-10.2005 -14.9905 -4.50219 255 0 0
-9.15391 -15.4158 -3.71882 255 0 0
-8.85215 -15.3184 -3.3998 255 0 0
-9.74227 -14.9953 -3.71435 255 0 0
-9.87899 -14.9715 -3.8702 255 0 0
-9.16392 -15.2673 -3.70709 255 0 0
-8.71846 -15.4229 -4.29499 255 0 0
-10.0273 -14.9637 -4.33335 255 0 0
-8.73265 -15.7958 -4.03363 255 0 0
-8.68317 -17.6319 -3.39076 255 0 0
-9.07914 -15.0451 -4.12796 255 0 0
-8.88482 -16.2526 -3.0016 255 0 0
-8.7308 -15.5305 -4.15752 255 0 0
-8.82179 -15.3498 -3.84591 255 0 0
-9.05062 -14.9978 -4.41734 255 0 0
-9.71272 -14.9498 -4.00872 255 0 0
-8.88734 -16.3492 -3.47231 255 0 0
-8.66915 -15.0842 -4.54841 255 0 0
-8.72966 -15.3576 -4.13922 255 0 0
-8.82559 -15.2724 -3.54322 255 0 0
-8.69562 -16.7459 -3.96735 255 0 0
-9.28714 -15.556 -3.58507 255 0 0
-8.80091 -15.5687 -3.56466 255 0 0
-8.79533 -16.3644 -3.62538 255 0 0
-9.6919 -14.9178 -4.45496 255 0 0
-9.21375 -14.9458 -4.42294 255 0 0
-9.80821 -14.9799 -4.31944 255 0 0
-10.4705 -18.8336 -2.98569 255 0 0
-8.71703 -16.8848 -4.30112 255 0 0
-8.77005 -16.9875 -3.83282 255 0 0
-8.7376 -15.5426 -4.46056 255 0 0
-9.42211 -15.4473 -3.58303 255 0 0
-8.99168 -15.1426 -3.8362 255 0 0
-8.88232 -15.2037 -3.68809 255 0 0
-8.92219 -16.1386 -2.99718 255 0 0
-10.5883 -18.8348 -2.98836 255 0 0
-9.61557 -14.8774 -4.44455 255 0 0
-9.50039 -14.892 -4.58745 255 0 0
-9.66154 -14.9485 -4.15541 255 0 0
-9.54927 -15.0868 -3.5621 255 0 0
-9.01205 -15.0142 -4.41654 255 0 0
-10.2085 -15.8773 -3.17812 255 0 0
-10.0151 -15.0224 -4.03429 255 0 0
-9.61757 -15.0364 -3.56159 255 0 0
-9.64172 -14.9957 -4.00872 255 0 0
-8.85154 -15.4864 -3.26222 255 0 0
-8.86753 -15.0961 -3.97266 255 0 0
-10.4116 -18.8328 -2.98435 255 0 0
-8.83933 -17.7363 -3.56791 255 0 0
-8.73057 -17.0099 -4.15426 255 0 0
-9.75262 -14.9336 -4.46136 255 0 0
-9.40227 -14.9721 -3.992 255 0 0
-9.64824 -14.9279 -4.60357 255 0 0
-8.6865 -16.924 -4.46424 255 0 0
-9.15237 -15.0051 -3.83255 255 0 0
-9.03147 -15.0466 -4.12514 255 0 0
-9.33035 -14.8967 -4.57472 255 0 0
-8.65426 -16.9601 -4.46649 255 0 0
-9.54162 -14.9959 -3.8532 255 0 0
-8.62683 -15.6044 -4.46056 255 0 0
-8.5657 -15.581 -4.60442 255 0 0
-8.85264 -15.0708 -4.26415 255 0 0
-8.63949 -15.5402 -4.60442 255 0 0
-8.77438 -15.6951 -3.72385 255 0 0
-9.83868 -15.1437 -3.57997 255 0 0
-8.68914 -15.2863 -4.57557 255 0 0
-9.55609 -14.9403 -4.14767 255 0 0
-9.16442 -14.945 -4.56793 255 0 0
-9.25992 -14.9413 -4.12866 255 0 0
-9.79664 -15.8073 -3.47139 255 0 0
-8.85828 -17.9875 -3.92222 255 0 0
-8.82112 -15.9558 -3.74788 255 0 0
-10.0086 -15.0127 -4.18498 255 0 0
-9.12768 -14.9646 -4.41894 255 0 0
-8.67167 -15.3401 -4.43175 255 0 0
-9.75659 -15.7427 -3.31058 255 0 0
-8.71679 -16.983 -4.31168 255 0 0
-9.17829 -14.9677 -4.42294 255 0 0
-9.12364 -15.0381 -3.98184 255 0 0
-10.1755 -15.8259 -3.01741 255 0 0
-8.8176 -17.6927 -3.72949 255 0 0
-8.77401 -16.8968 -3.6657 255 0 0
-8.91203 -15.5068 -2.96714 255 0 0
-8.90781 -15.4147 -2.96272 255 0 0
-9.01359 -15.2618 -3.69927 255 0 0
-8.90626 -15.0801 -3.97332 255 0 0
-8.85437 -15.1559 -3.83012 255 0 0
-9.97334 -15.351 -2.98991 255 0 0
-10.1254 -15.8303 -3.01615 255 0 0
-10.1111 -16.5769 -3.04998 255 0 0
-9.84747 -16.6737 -3.04713 255 0 0
-8.9884 -15.4694 -2.96746 255 0 0
-8.90929 -16.0255 -2.99149 255 0 0
-8.95636 -17.6554 -3.07053 255 0 0
-9.98856 -14.9826 -4.3326 255 0 0
-9.55117 -15.8273 -3.3081 255 0 0
-9.83082 -16.6455 -3.20657 255 0 0
-8.90935 -15.4174 -3.11138 255 0 0
-8.89898 -15.4841 -3.11466 255 0 0
-8.84194 -15.4696 -3.11211 255 0 0
-8.84477 -16.2709 -3.15588 255 0 0
-9.7533 -15.0123 -4.31906 255 0 0
-9.48203 -14.9805 -4.14696 255 0 0
-9.71302 -15.0281 -3.71547 255 0 0
-8.60804 -15.3122 -4.57302 255 0 0
-8.80011 -16.0073 -3.75123 255 0 0
-8.84802 -18.0746 -4.43698 255 0 0
-9.45079 -14.9312 -3.99102 255 0 0
-10.1176 -15.7358 -3.3238 255 0 0
-9.83404 -15.784 -3.31595 255 0 0
-8.91159 -15.3372 -3.2552 255 0 0
-8.89273 -15.3886 -3.25767 255 0 0
-8.87368 -15.44 -3.26015 255 0 0
-8.87614 -16.3286 -3.31512 255 0 0
-8.66143 -15.322 -4.57812 255 0 0
-8.63361 -15.6167 -4.31154 255 0 0
-9.54637 -15.7349 -3.45615 255 0 0
-8.90311 -15.3226 -3.40211 255 0 0
-8.84024 -15.4666 -3.4095 255 0 0
-8.88659 -17.7257 -3.56883 255 0 0
-9.39952 -14.9284 -4.28521 255 0 0
-8.79778 -15.2243 -3.98119 255 0 0
-10.2033 -15.0713 -4.05068 255 0 0
-9.16697 -15.1906 -3.70094 255 0 0
-8.75337 -16.7598 -3.8127 255 0 0
-8.88427 -18.4804 -3.96581 255 0 0
-8.99279 -15.063 -4.12444 255 0 0
-8.69324 -16.9372 -3.98496 255 0 0
-8.69788 -16.0007 -4.05199 255 0 0
-9.95519 -15.1651 -3.58711 255 0 0
-9.71092 -15.0249 -3.56517 255 0 0
-9.68474 -15.0626 -3.5667 255 0 0
-9.57249 -15.0444 -3.56006 255 0 0
-9.47618 -15.0501 -3.55598 255 0 0
-9.47763 -15.1319 -3.5621 255 0 0
-9.2637 -15.6853 -3.59374 255 0 0
-8.87936 -15.2817 -3.54628 255 0 0
-8.82424 -15.354 -3.54935 255 0 0
-8.82833 -15.4458 -3.55649 255 0 0
-8.76862 -15.4261 -3.55241 255 0 0
-8.78392 -15.7121 -3.57486 255 0 0
-8.78065 -15.7941 -3.58099 255 0 0
-8.80526 -15.9271 -3.59221 255 0 0
-8.78153 -15.9735 -3.59477 255 0 0
-8.8452 -16.364 -3.62743 255 0 0
-8.81687 -17.0782 -3.68152 255 0 0
-8.80422 -17.458 -3.71061 255 0 0
-8.88305 -17.7186 -3.73408 255 0 0
-8.81188 -17.7867 -3.73664 255 0 0
-8.7233 -17.7134 -3.72745 255 0 0
-8.94547 -18.3839 -3.78869 255 0 0
-8.95773 -18.5206 -3.79992 255 0 0
-8.8961 -18.505 -3.79634 255 0 0
-8.90353 -15.0754 -4.12022 255 0 0
-8.79208 -15.1315 -3.82466 255 0 0
-9.01598 -14.9404 -4.55605 255 0 0
-8.79945 -15.8279 -3.73615 255 0 0
-10.1787 -15.1119 -3.74676 255 0 0
-10.0876 -15.0537 -3.73726 255 0 0
-9.97748 -15.0431 -3.73056 255 0 0
-9.92894 -15.0472 -3.72832 255 0 0
-9.86765 -15.0318 -3.72385 255 0 0
-9.84791 -15.0795 -3.72665 255 0 0
-9.65214 -15.0119 -3.711 255 0 0
-9.5233 -15.0457 -3.70709 255 0 0
-9.27552 -15.2884 -3.71435 255 0 0
-9.29501 -15.5692 -3.73838 255 0 0
-8.82762 -15.2759 -3.69144 255 0 0
-8.85053 -15.4846 -3.70988 255 0 0
-8.82289 -15.6076 -3.71882 255 0 0
-8.83203 -16.156 -3.7652 255 0 0
-8.80761 -16.2025 -3.768 255 0 0
-8.78344 -16.915 -3.82723 255 0 0
-8.88014 -17.4027 -3.87305 255 0 0
-8.88104 -17.5069 -3.88199 255 0 0
-8.86838 -17.5852 -3.88814 255 0 0
-8.88888 -17.8357 -3.91049 255 0 0
-8.84684 -18.1812 -3.93843 255 0 0
-8.90607 -15.0797 -4.26866 255 0 0
-8.85598 -15.0764 -4.1174 255 0 0
-10.1539 -15.0752 -3.8951 255 0 0
-10.0566 -15.0073 -3.88356 255 0 0
-10.0597 -15.0893 -3.89085 255 0 0
-9.87542 -15.0436 -3.87627 255 0 0
-9.80788 -15.0182 -3.8702 255 0 0
-9.75638 -15.017 -3.86716 255 0 0
-9.67017 -14.9618 -3.85745 255 0 0
-9.60947 -14.9455 -3.85259 255 0 0
-9.56146 -14.9487 -3.85016 255 0 0
-9.45558 -14.978 -3.84682 255 0 0
-9.37289 -14.9646 -3.84105 255 0 0
-9.24481 -14.9962 -3.8368 255 0 0
-9.19096 -14.9883 -3.83316 255 0 0
-9.14697 -15.0765 -3.83863 255 0 0
-9.08111 -15.0483 -3.83255 255 0 0
-9.00069 -15.0762 -3.83073 255 0 0
-8.9291 -15.1187 -3.83073 255 0 0
-8.87258 -15.1047 -3.82648 255 0 0
-8.78823 -15.2078 -3.83134 255 0 0
-8.7767 -15.3555 -3.84409 255 0 0
-8.70721 -15.4886 -3.85259 255 0 0
-8.71309 -15.5854 -3.8617 255 0 0
-8.7129 -15.6722 -3.86959 255 0 0
-8.68981 -15.7183 -3.87263 255 0 0
-8.66654 -15.7644 -3.87566 255 0 0
-8.69898 -15.9126 -3.89085 255 0 0
-8.70294 -16.01 -3.89995 255 0 0
-8.70927 -16.1125 -3.90967 255 0 0
-8.71129 -17.0718 -3.99832 255 0 0
-8.72611 -17.2015 -4.01107 255 0 0
-8.80907 -18.2133 -4.10944 255 0 0
-8.67363 -15.0919 -4.40213 255 0 0
-8.62152 -15.5078 -4.44856 255 0 0
-9.74426 -14.9208 -4.61036 255 0 0
-8.96479 -18.8766 -4.5306 255 0 0
-10.1643 -15.0906 -4.05002 255 0 0
-10.0637 -15.018 -4.03691 255 0 0
-9.96663 -15.0267 -4.03167 255 0 0
-9.90854 -15.0163 -4.02708 255 0 0
-9.79628 -14.923 -4.01134 255 0 0
-9.77678 -14.9706 -4.01462 255 0 0
-9.68357 -14.9826 -4.01003 255 0 0
-9.50491 -14.9382 -3.99495 255 0 0
-9.3505 -15.0079 -3.99233 255 0 0
-9.26279 -14.9459 -3.98119 255 0 0
-9.24259 -14.9926 -3.98446 255 0 0
-9.21006 -15.0195 -3.98512 255 0 0
-9.15018 -15.0015 -3.97988 255 0 0
-9.08796 -15.0597 -3.98184 255 0 0
-9.03127 -15.0463 -3.97725 255 0 0
-8.98065 -15.0427 -3.97398 255 0 0
-8.95981 -15.0889 -3.97725 255 0 0
-8.84933 -15.1472 -3.9766 255 0 0
-8.77615 -15.2703 -3.98446 255 0 0
-8.71682 -15.2507 -3.97922 255 0 0
-8.7784 -15.4433 -4.00151 255 0 0
-8.67877 -15.3526 -3.98709 255 0 0
-8.72795 -15.612 -4.01528 255 0 0
-8.67961 -15.6123 -4.01266 255 0 0
-8.69393 -15.9034 -4.04216 255 0 0
-8.68243 -16.7204 -4.12279 255 0 0
-8.73517 -17.1187 -4.16541 255 0 0
-8.72878 -17.2068 -4.17393 255 0 0
-8.78824 -18.0608 -4.26309 255 0 0
-8.791 -18.1759 -4.27489 255 0 0
-8.8201 -18.4589 -4.30505 255 0 0
-8.81625 -18.5638 -4.31554 255 0 0
-8.68511 -15.1952 -4.56369 255 0 0
-10.096 -15.0276 -4.19237 255 0 0
-9.90533 -15.0115 -4.17794 255 0 0
-9.85695 -15.0155 -4.17512 255 0 0
-9.78318 -14.9804 -4.16667 255 0 0
-9.71596 -14.9548 -4.15964 255 0 0
-9.4279 -14.9734 -4.14274 255 0 0
-9.21836 -14.9533 -4.12726 255 0 0
-9.10272 -15.0036 -4.12514 255 0 0
-8.94518 -15.0643 -4.12162 255 0 0
-8.79607 -15.1384 -4.12022 255 0 0
-8.76888 -15.1743 -4.12233 255 0 0
-8.78501 -15.2858 -4.135 255 0 0
-8.67892 -15.3529 -4.1357 255 0 0
-8.674 -15.6022 -4.16175 255 0 0
-8.67553 -15.7807 -4.18075 255 0 0
-8.73289 -15.9747 -4.20469 255 0 0
-8.7283 -16.0566 -4.21313 255 0 0
-8.72338 -16.1386 -4.22158 255 0 0
-8.76238 -17.273 -4.34547 255 0 0
-8.84802 -18.861 -4.52286 255 0 0
-8.81801 -18.9135 -4.52708 255 0 0
-8.88152 -14.9571 -4.40053 255 0 0
-10.2053 -14.9976 -4.3499 255 0 0
-10.1017 -14.9976 -4.34238 255 0 0
-9.88882 -14.9094 -4.31756 255 0 0
-9.52737 -14.8954 -4.29048 255 0 0
-9.34869 -14.926 -4.28145 255 0 0
-9.17939 -14.9694 -4.27468 255 0 0
-9.09023 -14.983 -4.27017 255 0 0
-9.01908 -15.026 -4.27017 255 0 0
-8.93883 -15.0536 -4.26791 255 0 0
-8.78983 -15.1276 -4.26641 255 0 0
-8.7336 -15.1132 -4.26114 255 0 0
-8.74114 -15.2094 -4.27242 255 0 0
-8.7137 -15.2452 -4.27468 255 0 0
-8.68901 -15.286 -4.27769 255 0 0
-8.6594 -15.4894 -4.29875 255 0 0
-8.67062 -15.5961 -4.31154 255 0 0
-8.64024 -15.8052 -4.33335 255 0 0
-8.65079 -16.0043 -4.35667 255 0 0
-8.67835 -16.7126 -4.43941 255 0 0
-8.79541 -17.9671 -4.59136 255 0 0
-8.75815 -18.108 -4.60565 255 0 0
-9.77007 -14.8831 -4.60782 255 0 0
-8.63342 -15.7927 -4.48378 255 0 0
-10.1162 -14.9426 -4.49018 255 0 0
-10.058 -14.9329 -4.48458 255 0 0
-10.0161 -14.947 -4.48298 255 0 0
-9.93885 -14.908 -4.47257 255 0 0
-9.90348 -14.9315 -4.47257 255 0 0
-9.87124 -14.9598 -4.47337 255 0 0
-9.26139 -14.9437 -4.42614 255 0 0
-9.10119 -15.0011 -4.42134 255 0 0
-8.74857 -14.9748 -4.39333 255 0 0
-8.74509 -15.0506 -4.40213 255 0 0
-8.71809 -15.0864 -4.40453 255 0 0
-8.68675 -15.1981 -4.41574 255 0 0
-8.62713 -15.4317 -4.43975 255 0 0
-8.63731 -15.7112 -4.47417 255 0 0
-8.59041 -15.8029 -4.48218 255 0 0
-8.73219 -16.1549 -4.5342 255 0 0
-9.69623 -14.9244 -4.60697 255 0 0
-9.60342 -14.9361 -4.60103 255 0 0
-9.44116 -14.9159 -4.58575 255 0 0
-9.38107 -14.8991 -4.57896 255 0 0
-9.28581 -14.904 -4.57218 255 0 0
-9.24434 -14.9162 -4.57048 255 0 0
-9.21199 -14.943 -4.57133 255 0 0
-9.06941 -14.9487 -4.56114 255 0 0
-8.70779 -15.0686 -4.54926 255 0 0
-8.64804 -15.4691 -4.59594 255 0 0
-8.60542 -15.5657 -4.60527 255 0 0
-8.85965 -16.3907 -3.47416 255 0 0
-8.83295 -16.9121 -3.66927 255 0 0
-8.69334 -16.1746 -4.22369 255 0 0
-8.79286 -14.969 -4.39573 255 0 0
