ply
format ascii 1.0
comment Created by Open3D
element vertex 625
property double x
property double y
property double z
property uchar red
property uchar green
property uchar blue
end_header
-10.8436 0.992609 -4.72454 255 0 0
-11.5773 -0.05489 -4.49104 255 0 0
-10.7558 0.843299 -4.60441 255 0 0
-10.6409 0.378604 -4.47684 255 0 0
-10.5914 0.326567 -4.65135 255 0 0
-11.6349 -0.0551665 -4.40244 255 0 0
-11.8035 0.770717 -4.2381 255 0 0
-12.0373 -0.0142704 -4.07097 255 0 0
-11.8231 -0.126152 -4.13556 255 0 0
-12.5059 0.638066 -4.04738 255 0 0
-10.7302 0.77732 -4.69185 255 0 0
-10.5029 0.535867 -5.00611 255 0 0
-11.687 0.291015 -4.21198 255 0 0
-10.5167 0.486576 -4.91496 255 0 0
-11.2901 -0.468725 -4.43131 255 0 0
-10.5097 -0.161983 -5.0045 255 0 0
-11.5723 0.507928 -4.39178 255 0 0
-10.5846 -0.125491 -4.74226 255 0 0
-10.5601 0.28801 -4.55013 255 0 0
-10.5614 0.27551 -4.8309 255 0 0
-11.7308 0.041721 -4.2196 255 0 0
-10.5582 0.513595 -4.83241 255 0 0
-11.5669 0.493964 -4.49104 255 0 0
-10.6129 0.276853 -4.75033 255 0 0
-11.7633 0.852161 -4.23157 255 0 0
-10.5998 0.339401 -4.7474 255 0 0
-10.629 0.630794 -4.75841 255 0 0
-12.1283 0.417131 -4.08785 255 0 0
-10.7134 -0.54661 -4.97016 255 0 0
-10.7162 0.801853 -4.5941 255 0 0
-10.7371 0.675521 -4.69185 255 0 0
-12.5353 0.490652 -4.48179 255 0 0
-11.6397 -0.151798 -4.40362 255 0 0
-10.617 0.226601 -4.75107 255 0 0
-10.6789 0.0253165 -4.48414 255 0 0
-11.6434 0.400455 -4.20436 255 0 0
-11.4747 0.885971 -4.37639 255 0 0
-10.5552 0.814979 -5.12156 255 0 0
-10.6083 0.895028 -5.04312 255 0 0
-10.7453 0.932244 -4.89 255 0 0
-10.6471 -0.454673 -4.95063 255 0 0
-11.3758 0.82409 -4.35507 255 0 0
-10.9417 0.89703 -4.55379 255 0 0
-10.5537 0.0375345 -4.82786 255 0 0
-10.6511 0.214688 -4.47817 255 0 0
-11.7687 -0.237215 -4.22722 255 0 0
-11.085 -0.354936 -4.48292 255 0 0
-10.5721 -0.175492 -4.83317 255 0 0
-12.4453 0.575817 -4.03699 255 0 0
-10.9339 0.935551 -4.64906 255 0 0
-12.5158 0.400751 -4.04738 255 0 0
-11.5437 0.561535 -4.48673 255 0 0
-12.1235 -0.10061 -4.08586 255 0 0
-10.6686 0.582371 -4.67337 255 0 0
-11.1531 -0.0925567 -4.497 255 0 0
-11.4296 0.149057 -4.26134 255 0 0
-11.633 -0.0137911 -4.20109 255 0 0
-10.5477 0.839558 -5.11991 255 0 0
-11.0727 0.630751 -4.48292 255 0 0
-12.2788 0.131014 -4.0077 255 0 0
-11.508 0.286559 -4.47688 255 0 0
-10.6787 0.684565 -4.58311 255 0 0
-12.1536 0.735713 -4.0948 255 0 0
-10.6308 -0.365628 -4.94517 255 0 0
-11.7939 0.0699098 -4.23157 255 0 0
-10.9255 -0.557429 -4.64082 255 0 0
-10.7085 -0.444581 -4.87181 255 0 0
-10.5242 0.024953 -4.91392 255 0 0
-12.3393 0.629563 -4.44429 255 0 0
-11.4943 -0.449907 -4.3752 255 0 0
-11.8904 0.634927 -4.35565 255 0 0
-10.5636 0.175348 -4.8309 255 0 0
-14.3965 1.18027 -4.98262 255 0 0
-10.7084 -0.203142 -4.49143 255 0 0
-13.5157 -0.561125 -4.79317 255 0 0
-11.0391 0.0392611 -4.47141 255 0 0
-10.7638 0.702827 -4.69896 255 0 0
-10.7829 -0.550155 -4.89303 255 0 0
-11.5771 0.453149 -4.49289 255 0 0
-11.7002 -0.208083 -4.21416 255 0 0
-10.8093 0.834597 -4.52195 255 0 0
-11.6938 0.652242 -4.31702 255 0 0
-10.6691 0.164441 -4.48215 255 0 0
-12.0682 0.300508 -4.07693 255 0 0
-12.2776 0.21835 -4.0077 255 0 0
-10.621 -0.403116 -4.94282 255 0 0
-10.6014 0.566101 -4.75033 255 0 0
-10.7011 0.775208 -4.58998 255 0 0
-10.7387 0.650061 -4.69185 255 0 0
-11.7696 0.237231 -4.12619 255 0 0
-11.7802 0.461098 -4.12931 255 0 0
-10.637 -0.492149 -4.94829 255 0 0
-12.133 -0.244557 -4.08785 255 0 0
-14.5037 1.15444 -4.87837 255 0 0
-10.856 -0.424922 -4.52725 255 0 0
-11.0698 -0.643768 -5.07016 255 0 0
-10.855 -0.450661 -4.52725 255 0 0
-11.0484 -0.222695 -4.47397 255 0 0
-11.6522 0.0138138 -4.40599 255 0 0
-10.5521 0.11259 -4.54739 255 0 0
-11.7733 0.321099 -4.12723 255 0 0
-10.8455 0.966852 -4.62845 255 0 0
-10.5933 0.0753453 -4.65063 255 0 0
-10.499 -0.112024 -5.00128 255 0 0
-10.9812 0.28647 -4.45926 255 0 0
-11.6083 0.12386 -4.49782 255 0 0
-11.0707 -0.433327 -4.48037 255 0 0
-10.5876 -0.301323 -4.93267 255 0 0
-10.6777 -0.253227 -4.5783 255 0 0
-10.5328 -0.362258 -5.01255 255 0 0
-11.9327 0.750745 -4.15949 255 0 0
-11.5252 0.588029 -4.48304 255 0 0
-10.7468 -0.497228 -4.78704 255 0 0
-10.5597 0.175274 -4.54945 255 0 0
-10.5866 -0.489817 -5.12487 255 0 0
-12.0266 0.928583 -4.38633 255 0 0
-11.8735 0.323832 -4.55571 255 0 0
-10.8726 -0.580581 -5.11232 255 0 0
-10.5302 0.775388 -5.01818 255 0 0
-11.0032 0.404558 -4.46502 255 0 0
-10.6824 0.977851 -5.16296 255 0 0
-10.5904 0.439678 -4.74593 255 0 0
-11.2636 -0.41413 -4.42515 255 0 0
-10.6686 0.531655 -4.4848 255 0 0
-10.7809 0.793841 -4.51465 255 0 0
-11.573 0.192109 -4.49043 255 0 0
-11.5493 -0.232792 -4.4855 255 0 0
-11.5789 -0.178464 -4.49166 255 0 0
-13.4548 -0.750463 -4.78251 255 0 0
-10.6232 0.31494 -4.75327 255 0 0
-12.4976 -0.192623 -4.04361 255 0 0
-12.5048 -0.0444737 -4.04455 255 0 0
-12.4953 0.815886 -4.47724 255 0 0
-10.5703 0.0877205 -4.83241 255 0 0
-11.5812 0.563355 -4.39415 255 0 0
-10.665 0.734468 -4.76942 255 0 0
-10.656 0.493031 -4.66911 255 0 0
-12.4163 0.368098 -4.67272 255 0 0
-10.5448 0.212545 -4.54601 255 0 0
-12.1352 -0.0719329 -4.08785 255 0 0
-11.1421 -0.013209 -4.49444 255 0 0
-10.9555 -0.532922 -4.74444 255 0 0
-10.6068 0.377394 -4.65561 255 0 0
-10.6679 0.77281 -4.77089 255 0 0
-11.2692 -0.320719 -4.32784 255 0 0
-13.5315 -0.593924 -4.79672 255 0 0
-10.893 -0.400505 -4.72738 255 0 0
-10.8564 -0.450718 -4.62296 255 0 0
-10.5543 0.475786 -4.8309 255 0 0
-10.5189 0.736945 -5.01416 255 0 0
-10.9417 -0.610292 -5.03422 255 0 0
-11.6135 0.482154 -4.40007 255 0 0
-10.6341 -0.151302 -4.56731 255 0 0
-11.4349 0.801123 -4.36691 255 0 0
-10.6508 -0.341034 -4.76061 255 0 0
-11.0364 -0.248633 -4.47141 255 0 0
-11.8457 -0.168522 -4.13972 255 0 0
-10.5551 -0.438212 -5.11494 255 0 0
-11.9329 0.793366 -4.16001 255 0 0
-11.2397 -0.43994 -4.42022 255 0 0
-12.0494 0.35722 -4.07395 255 0 0
-10.9021 0.971898 -4.8355 255 0 0
-10.5446 -0.462822 -5.20774 255 0 0
-11.1109 -0.593303 -4.88249 255 0 0
-10.6567 0.594392 -4.76502 255 0 0
-14.4494 1.1846 -4.86815 255 0 0
-10.5128 0.286719 -4.91183 255 0 0
-10.8253 0.939188 -4.81494 255 0 0
-10.5207 -0.124732 -4.91314 255 0 0
-10.5503 -0.212655 -4.92173 255 0 0
-10.5004 0.161841 -4.90767 255 0 0
-10.5188 0.336809 -4.91392 255 0 0
-10.8471 0.863392 -4.53123 255 0 0
-11.2341 -0.493086 -4.51746 255 0 0
-12.4732 0.532634 -4.46986 255 0 0
-11.0021 0.247861 -4.46374 255 0 0
-12.2376 0.682572 -4.1087 255 0 0
-12.4705 0.369705 -4.03983 255 0 0
-11.0351 -0.300965 -4.47141 255 0 0
-12.1254 0.618652 -4.08884 255 0 0
-11.5335 -0.150412 -4.48181 255 0 0
-11.0925 -0.460523 -4.48548 255 0 0
-11.571 0.535365 -4.39178 255 0 0
-11.7915 0.685737 -4.23484 255 0 0
-10.7187 -0.25419 -4.49409 255 0 0
-10.5794 -0.0752565 -4.74079 255 0 0
-10.7904 0.807407 -4.8032 255 0 0
-10.5345 0.738041 -5.20944 255 0 0
-11.6722 -0.401444 -4.2098 255 0 0
-10.5681 -0.501526 -5.2154 255 0 0
-13.5196 1.20525 -4.80264 255 0 0
-10.5532 -0.388013 -5.20944 255 0 0
-11.6961 -0.374505 -4.21416 255 0 0
-10.6588 -0.0631812 -4.47949 255 0 0
-10.6427 -0.302894 -4.85287 255 0 0
-10.9766 0.494824 -4.4599 255 0 0
-11.9617 -0.38301 -4.16157 255 0 0
-10.5855 -0.213365 -4.83696 255 0 0
-11.771 0.153509 -4.12619 255 0 0
-11.5793 0.151009 -4.49166 255 0 0
-12.5327 -0.163443 -4.04927 255 0 0
-11.6862 0.318724 -4.21198 255 0 0
-10.5122 0.124629 -4.91079 255 0 0
-11.3009 -0.321623 -4.43254 255 0 0
-11.8043 0.434012 -4.13347 255 0 0
-13.8742 1.17057 -4.75451 255 0 0
-10.6028 0.41501 -4.74887 255 0 0
-12.1208 0.273063 -4.08586 255 0 0
-11.2721 0.83001 -4.43192 255 0 0
-10.5423 0.312542 -4.54601 255 0 0
-11.0986 0.936395 -4.59093 255 0 0
-11.0591 0.564247 -4.47909 255 0 0
-11.7744 0.530783 -4.12879 255 0 0
-11.6502 -0.0552459 -4.20436 255 0 0
-10.6073 0.478179 -4.56319 255 0 0
-10.6607 -0.151663 -4.66769 255 0 0
-12.0371 0.0713514 -4.07097 255 0 0
-12.3675 0.190618 -4.55399 255 0 0
-13.5234 0.850817 -4.68065 255 0 0
-13.3051 0.236625 -4.51787 255 0 0
-12.0825 -0.157571 -4.07891 255 0 0
-11.7832 0.377294 -4.12931 255 0 0
-10.5978 -0.0879485 -4.55838 255 0 0
-11.1517 0.198328 -4.497 255 0 0
-11.0254 0.746167 -4.47397 255 0 0
-11.0505 0.0655027 -4.47397 255 0 0
-12.5266 -0.163363 -4.47838 255 0 0
-12.6253 0.434226 -4.60846 255 0 0
-11.7439 0.710912 -4.22613 255 0 0
-10.75 -0.356969 -4.50205 255 0 0
-10.6298 0.833421 -4.9522 255 0 0
-12.0904 0.501952 -4.08189 255 0 0
-11.7364 0.738393 -4.22504 255 0 0
-12.5076 0.846479 -4.69735 255 0 0
-10.6643 -0.265548 -4.76355 255 0 0
-10.6771 -0.189887 -4.67195 255 0 0
-11.6676 0.013832 -4.20762 255 0 0
-12.342 0.160956 -4.0181 255 0 0
-10.9873 0.717417 -4.46502 255 0 0
-12.4528 0.0442888 -4.03605 255 0 0
-11.0277 -0.0392205 -4.46885 255 0 0
-11.592 -0.508796 -4.49659 255 0 0
-11.1269 1.04515 -4.99457 255 0 0
-12.5212 -0.133601 -4.47724 255 0 0
-12.5916 0.762229 -4.0625 255 0 0
-12.6286 0.614308 -4.06723 255 0 0
-12.4928 0.548335 -4.04455 255 0 0
-12.4017 0.514877 -4.02943 255 0 0
-12.404 0.456062 -4.02943 255 0 0
-12.4686 0.428836 -4.03983 255 0 0
-12.4713 0.340136 -4.03983 255 0 0
-12.3797 0.308264 -4.02471 255 0 0
-12.3342 0.277869 -4.01715 255 0 0
-12.3416 0.190219 -4.0181 255 0 0
-12.3688 0.0879638 -4.02235 255 0 0
-12.3371 -0.0731293 -4.01715 255 0 0
-12.4695 -0.133049 -4.03888 255 0 0
-12.5299 -0.312004 -4.04927 255 0 0
-11.7495 0.34833 -4.12307 255 0 0
-12.6143 0.793627 -4.71952 255 0 0
-10.6754 0.126577 -4.48347 255 0 0
-10.6276 0.0252051 -4.65916 255 0 0
-12.0084 0.0427084 -4.06601 255 0 0
-10.6684 0.531629 -4.67266 255 0 0
-11.1963 0.438244 -4.50851 255 0 0
-14.4394 1.21826 -4.99209 255 0 0
-12.2344 0.784282 -4.10919 255 0 0
-12.2014 0.709575 -4.10274 255 0 0
-12.2507 0.65417 -4.11068 255 0 0
-12.1096 0.58906 -4.08586 255 0 0
-12.0475 0.557413 -4.07494 255 0 0
-12.1122 0.531629 -4.08586 255 0 0
-12.0281 0.470802 -4.07097 255 0 0
-12.0869 0.444402 -4.0809 255 0 0
-12.1062 0.387635 -4.08388 255 0 0
-12.1367 0.331009 -4.08884 255 0 0
-11.9714 0.2413 -4.06005 255 0 0
-11.9431 0.212402 -4.05509 255 0 0
-12.0302 0.185418 -4.06998 255 0 0
-12.1402 0.158324 -4.08884 255 0 0
-12.0597 0.128677 -4.07494 255 0 0
-12.1235 0.10061 -4.08586 255 0 0
-12.0604 0.0142977 -4.07494 255 0 0
-12.0084 -0.0427084 -4.06601 255 0 0
-12.1001 -0.129108 -4.08189 255 0 0
-12.1225 -0.186841 -4.08586 255 0 0
-12.1566 -0.216199 -4.09182 255 0 0
-12.2535 -0.276053 -4.1087 255 0 0
-12.6829 -0.406102 -4.18316 255 0 0
-12.2413 -0.304818 -4.10671 255 0 0
-12.2694 -0.334628 -4.11167 255 0 0
-10.8996 -0.504299 -4.63395 255 0 0
-12.2512 -0.363205 -4.1087 255 0 0
-10.575 0.917475 -5.12984 255 0 0
-12.5391 -0.0445956 -4.48065 255 0 0
-10.5744 0.376247 -4.55426 255 0 0
-10.5105 -0.0872242 -5.0045 255 0 0
-11.0696 -0.5911 -4.97032 255 0 0
-12.65 0.405047 -4.72321 255 0 0
-12.088 0.846879 -4.18863 255 0 0
-11.8425 0.716879 -4.14284 255 0 0
-11.8795 0.676716 -4.14909 255 0 0
-11.8588 0.63324 -4.14492 255 0 0
-11.8207 0.589059 -4.13764 255 0 0
-11.8597 0.492374 -4.14388 255 0 0
-11.742 0.403844 -4.12203 255 0 0
-11.783 0.279413 -4.12879 255 0 0
-11.7413 0.208813 -4.12099 255 0 0
-11.7994 0.181861 -4.13139 255 0 0
-11.7425 0.125292 -4.12099 255 0 0
-11.7715 0.097689 -4.12619 255 0 0
-11.8121 0.0700173 -4.13347 255 0 0
-11.7921 0.0279695 -4.12983 255 0 0
-11.8123 -0.0140035 -4.13347 255 0 0
-11.7776 -0.0418876 -4.12723 255 0 0
-11.8351 -0.0701539 -4.13764 255 0 0
-11.7831 -0.0977846 -4.12827 255 0 0
-11.8623 -0.210964 -4.14284 255 0 0
-11.8214 -0.238276 -4.13556 255 0 0
-11.7978 -0.265785 -4.13139 255 0 0
-11.8086 -0.294044 -4.13347 255 0 0
-11.9346 -0.325498 -4.15637 255 0 0
-11.9338 -0.353794 -4.15637 255 0 0
-12.3697 -0.425433 -4.23547 255 0 0
-11.3698 -0.404525 -4.34915 255 0 0
-10.7029 0.749834 -4.58998 255 0 0
-12.1541 -0.446875 -4.30124 255 0 0
-10.767 -0.242563 -4.69469 255 0 0
-10.5788 0.842033 -5.03347 255 0 0
-10.5757 0.33863 -4.55426 255 0 0
-11.6677 0.817433 -4.21307 255 0 0
-11.7795 0.643028 -4.23212 255 0 0
-12.0144 0.612987 -4.2762 255 0 0
-12.4712 0.577014 -4.3622 255 0 0
-12.4272 0.530719 -4.35349 255 0 0
-11.9633 0.468265 -4.26532 255 0 0
-11.9472 0.439265 -4.26205 255 0 0
-11.5236 0.368981 -4.1815 255 0 0
-11.6128 0.261619 -4.19783 255 0 0
-11.7112 0.236055 -4.21633 255 0 0
-13.3747 0.206142 -4.53093 255 0 0
-13.3234 0.173754 -4.52113 255 0 0
-11.6672 0.0968228 -4.20762 255 0 0
-11.782 -0.125713 -4.2294 255 0 0
-11.7816 -0.153648 -4.2294 255 0 0
-11.6662 -0.179809 -4.20762 255 0 0
-11.7221 -0.264081 -4.21851 255 0 0
-11.7502 -0.29259 -4.22395 255 0 0
-11.7142 -0.347283 -4.21742 255 0 0
-10.6346 -0.542588 -5.13978 255 0 0
-10.7178 -0.29231 -4.49409 255 0 0
-14.1201 -0.653304 -4.91868 255 0 0
-13.5098 -0.689282 -4.79317 255 0 0
-11.4464 0.176422 -4.26475 255 0 0
-12.4275 0.338939 -4.56702 255 0 0
-11.0327 -0.641611 -5.15899 255 0 0
-11.1533 -0.0661123 -4.497 255 0 0
-10.7493 -0.420747 -4.59685 255 0 0
-11.623 -0.110243 -4.40007 255 0 0
-10.7037 0.622474 -4.49409 255 0 0
-13.6396 1.21594 -4.70906 255 0 0
-14.3005 1.2407 -4.83974 255 0 0
-11.6413 0.843321 -4.30906 255 0 0
-11.6605 0.816922 -4.31247 255 0 0
-12.4418 0.590435 -4.46417 255 0 0
-12.5422 0.461141 -4.48292 255 0 0
-12.6695 0.435746 -4.50792 255 0 0
-12.8542 0.411587 -4.54429 255 0 0
-12.4987 -0.0740874 -4.4727 255 0 0
-12.4985 -0.103722 -4.4727 255 0 0
-12.4917 -0.192532 -4.47156 255 0 0
-12.5142 -0.222558 -4.47611 255 0 0
-11.6142 -0.371881 -4.29884 255 0 0
-11.5558 -0.397443 -4.28747 255 0 0
-11.6697 -0.429061 -4.3102 255 0 0
-12.3344 -0.482789 -4.44202 255 0 0
-13.5543 -0.594923 -4.68406 255 0 0
-13.6168 -0.727119 -4.69769 255 0 0
-13.5061 -0.753325 -4.6761 255 0 0
-10.8712 -0.373895 -4.7217 255 0 0
-10.5273 -0.324589 -5.20093 255 0 0
-10.531 -0.412201 -5.01255 255 0 0
-14.1851 1.23068 -4.93999 255 0 0
-14.3993 1.14613 -4.98262 255 0 0
-11.4596 0.857478 -4.37283 255 0 0
-12.2607 0.829765 -4.53742 255 0 0
-12.6174 0.823857 -4.61083 255 0 0
-13.6494 0.85875 -4.82396 255 0 0
-11.3047 0.684323 -4.3385 255 0 0
-11.5352 0.670834 -4.38586 255 0 0
-11.4774 0.626519 -4.37343 255 0 0
-11.5913 0.591397 -4.39651 255 0 0
-11.6204 0.454841 -4.40125 255 0 0
-11.7074 0.430448 -4.41901 255 0 0
-12.6664 0.405574 -4.61675 255 0 0
-12.3652 0.307902 -4.55399 255 0 0
-12.4576 0.28065 -4.57294 255 0 0
-12.3952 0.249841 -4.55991 255 0 0
-12.4186 0.220859 -4.56465 255 0 0
-11.4907 0.149853 -4.37283 255 0 0
-11.3706 0.121324 -4.34797 255 0 0
-11.6579 -0.0138206 -4.40717 255 0 0
-11.6566 -0.17966 -4.40717 255 0 0
-11.7218 -0.222363 -4.42079 255 0 0
-11.339 -0.282351 -4.34205 255 0 0
-11.3195 -0.362448 -4.3385 255 0 0
-13.8746 -0.740881 -4.86895 255 0 0
-10.7135 0.64854 -4.49674 255 0 0
-10.9725 1.03065 -5.05141 255 0 0
-11.1142 1.01738 -4.8913 255 0 0
-10.6196 0.781972 -4.94829 255 0 0
-11.2777 0.870759 -4.43377 255 0 0
-11.255 0.788519 -4.42761 255 0 0
-11.3763 0.688659 -4.45225 255 0 0
-11.3244 0.645112 -4.44055 255 0 0
-11.3295 0.604975 -4.44116 255 0 0
-11.5679 0.535221 -4.49166 255 0 0
-10.8124 0.886428 -4.61883 255 0 0
-11.6354 0.427802 -4.50521 255 0 0
-12.5918 0.433072 -4.7109 255 0 0
-11.543 0.260046 -4.48427 255 0 0
-11.555 0.232907 -4.48673 255 0 0
-11.5627 0.095956 -4.48797 255 0 0
-11.3568 0.0673188 -4.44363 255 0 0
-11.6032 0.0137557 -4.49659 255 0 0
-11.5746 -0.0137217 -4.49043 255 0 0
-11.5683 -0.109704 -4.4892 255 0 0
-11.5727 -0.205815 -4.49043 255 0 0
-11.5144 -0.259401 -4.47811 255 0 0
-11.3077 -0.281572 -4.43377 255 0 0
-11.3112 -0.362179 -4.435 255 0 0
-11.2588 -0.387227 -4.42392 255 0 0
-10.6905 -0.469226 -4.86727 255 0 0
-10.5868 -0.0251014 -4.55563 255 0 0
-11.287 0.925345 -4.53537 255 0 0
-11.1354 0.886339 -4.50083 255 0 0
-11.1261 0.859055 -4.49827 255 0 0
-11.0597 0.827556 -4.48292 255 0 0
-11.0683 0.788629 -4.4842 255 0 0
-11.0354 0.681159 -4.47525 255 0 0
-11.0178 0.588334 -4.47013 255 0 0
-11.049 0.537469 -4.47653 255 0 0
-10.9669 0.455309 -4.45734 255 0 0
-10.9642 0.377093 -4.45606 255 0 0
-11.045 0.353656 -4.47397 255 0 0
-10.9601 0.324928 -4.45478 255 0 0
-11.4268 -0.555847 -4.66124 255 0 0
-10.9799 0.221314 -4.45862 255 0 0
-11.1008 0.171094 -4.48548 255 0 0
-11.067 0.131206 -4.47781 255 0 0
-11.0903 0.0920352 -4.48292 255 0 0
-11.1421 0.013209 -4.49444 255 0 0
-11.09 -0.11833 -4.48292 255 0 0
-11.0952 -0.157845 -4.4842 255 0 0
-11.0889 -0.19721 -4.48292 255 0 0
-11.0986 -0.276365 -4.48548 255 0 0
-11.1258 -0.329838 -4.49188 255 0 0
-11.0441 -0.379843 -4.47397 255 0 0
-11.1231 -0.408967 -4.49188 255 0 0
-11.5697 -0.535302 -4.59294 255 0 0
-10.561 -0.237924 -4.92485 255 0 0
-10.5725 0.0250643 -4.55219 255 0 0
-11.2725 0.977988 -4.63206 255 0 0
-10.7277 0.738811 -4.50138 255 0 0
-10.7311 0.687912 -4.50138 255 0 0
-10.6973 0.583932 -4.4921 255 0 0
-10.6653 0.480781 -4.48347 255 0 0
-10.6589 0.42986 -4.48148 255 0 0
-10.6421 0.340757 -4.47684 255 0 0
-10.66 0.316031 -4.48082 255 0 0
-10.6668 0.278278 -4.48215 255 0 0
-10.6677 0.240327 -4.48215 255 0 0
-10.6459 0.189332 -4.47684 255 0 0
-10.6445 0.0757124 -4.47618 255 0 0
-10.6675 -0.025276 -4.48148 255 0 0
-10.6785 -0.101268 -4.48414 255 0 0
-10.6693 -0.1518 -4.48215 255 0 0
-10.7569 -0.318904 -4.50337 255 0 0
-10.8285 -0.398134 -4.52062 255 0 0
-10.945 -0.480398 -4.54848 255 0 0
-11.0692 -0.512146 -4.57767 255 0 0
-11.5451 -0.589041 -4.6891 255 0 0
-11.6291 -0.620974 -4.709 255 0 0
-10.6276 -0.0252118 -4.65916 255 0 0
-10.587 0.514996 -4.74593 255 0 0
-10.8828 0.996195 -4.63807 255 0 0
-10.6649 0.721765 -4.58036 255 0 0
-10.6563 0.632391 -4.57693 255 0 0
-10.6449 0.581087 -4.57349 255 0 0
-10.6192 0.529192 -4.56662 255 0 0
-10.5839 0.426838 -4.557 255 0 0
-10.5494 0.262688 -4.54739 255 0 0
-10.5727 0.238187 -4.55288 255 0 0
-10.5518 0.137609 -4.54739 255 0 0
-10.5524 0.0750608 -4.54739 255 0 0
-10.6151 -0.062922 -4.5625 255 0 0
-10.6204 -0.113319 -4.56387 255 0 0
-10.6477 -0.189364 -4.57074 255 0 0
-10.6586 -0.214839 -4.57349 255 0 0
-10.6878 -0.304169 -4.58105 255 0 0
-10.7175 -0.355889 -4.58861 255 0 0
-10.7219 -0.394213 -4.58998 255 0 0
-10.9064 -0.478704 -4.63532 255 0 0
-10.9495 -0.532629 -4.64631 255 0 0
-10.7649 0.844005 -4.79732 255 0 0
-10.5653 0.338296 -4.83241 255 0 0
-10.9535 0.976479 -4.75154 255 0 0
-10.6721 0.620641 -4.6748 255 0 0
-10.5157 -0.0249296 -4.91157 255 0 0
-10.9653 0.938246 -4.75368 255 0 0
-10.9838 0.887384 -4.75723 255 0 0
-10.9284 0.830765 -4.74231 255 0 0
-10.7264 0.75148 -4.69043 255 0 0
-10.7508 0.727579 -4.69611 255 0 0
-10.6515 0.467515 -4.66769 255 0 0
-10.6361 0.428949 -4.66343 255 0 0
-10.5872 0.276184 -4.64992 255 0 0
-10.577 0.225741 -4.64708 255 0 0
-10.5779 0.175582 -4.64708 255 0 0
-10.59 0.125548 -4.64992 255 0 0
-10.6416 -0.0757055 -4.66272 255 0 0
-10.6441 -0.113572 -4.66343 255 0 0
-10.7221 -0.216118 -4.68332 255 0 0
-10.7493 -0.267666 -4.69043 255 0 0
-10.7341 -0.30548 -4.68688 255 0 0
-10.7131 -0.343028 -4.6819 255 0 0
-10.9715 -0.429441 -4.74728 255 0 0
-10.9818 -0.455925 -4.75012 255 0 0
-10.9579 -0.480965 -4.74444 255 0 0
-10.9397 -0.506157 -4.74017 255 0 0
-10.9202 -0.55716 -4.73591 255 0 0
-11.3613 -0.606675 -4.84677 255 0 0
-10.5016 0.560768 -5.00611 255 0 0
-10.7805 0.896684 -4.80246 255 0 0
-10.691 0.685357 -4.7753 255 0 0
-10.5914 0.540386 -4.7474 255 0 0
-10.5882 0.489893 -4.74593 255 0 0
-10.595 0.465035 -4.7474 255 0 0
-10.5872 0.3767 -4.74446 255 0 0
-10.6151 0.176189 -4.75033 255 0 0
-10.6158 0.125864 -4.75033 255 0 0
-10.5879 0.0753271 -4.74299 255 0 0
-10.5825 0.0250846 -4.74152 255 0 0
-10.5797 -0.0250879 -4.74079 255 0 0
-10.621 -0.163699 -4.7518 255 0 0
-10.6288 -0.201629 -4.754 255 0 0
-10.6309 -0.239497 -4.75474 255 0 0
-10.6717 -0.303706 -4.76575 255 0 0
-10.7576 -0.369987 -4.78851 255 0 0
-10.7618 -0.408466 -4.78998 255 0 0
-10.7315 -0.458258 -4.78264 255 0 0
-10.8418 -0.527389 -4.81201 255 0 0
-10.8292 -0.552516 -4.80907 255 0 0
-10.7632 0.98525 -4.89606 255 0 0
-10.7119 0.890965 -4.88015 255 0 0
-10.6934 0.838404 -4.87409 255 0 0
-10.6597 0.797622 -4.86424 255 0 0
-10.6503 0.771528 -4.8612 255 0 0
-10.6521 0.746274 -4.8612 255 0 0
-10.6365 0.681851 -4.8559 255 0 0
-10.6142 0.629907 -4.84908 255 0 0
-10.5938 0.590887 -4.84302 255 0 0
-10.55 0.563355 -4.8309 255 0 0
-10.5565 0.425732 -4.8309 255 0 0
-10.5612 0.375766 -4.83165 255 0 0
-10.5624 0.237954 -4.8309 255 0 0
-10.5924 0.138139 -4.83847 255 0 0
-10.5422 0.0624902 -4.82483 255 0 0
-10.5452 -0.0249995 -4.82559 255 0 0
-10.5366 -0.0624567 -4.82332 255 0 0
-10.5558 -0.125149 -4.82862 255 0 0
-10.6189 -0.239227 -4.84605 255 0 0
-10.6412 -0.353365 -4.85287 255 0 0
-10.6587 -0.417199 -4.85817 255 0 0
-10.7503 -0.522938 -4.88394 255 0 0
-11.2248 -0.65278 -5.01275 255 0 0
-10.8232 0.990738 -5.00922 255 0 0
-10.658 0.937413 -4.96235 255 0 0
-10.6342 0.88453 -4.95454 255 0 0
-10.5922 0.729469 -4.9397 255 0 0
-10.5956 0.679226 -4.9397 255 0 0
-10.5621 0.626811 -4.92954 255 0 0
-10.5424 0.575488 -4.92329 255 0 0
-10.5218 0.536834 -4.91704 255 0 0
-10.5269 0.424542 -4.91704 255 0 0
-10.5232 0.374418 -4.91548 255 0 0
-10.5134 0.224383 -4.91157 255 0 0
-10.5113 0.186938 -4.91079 255 0 0
-10.5183 0.0748117 -4.91235 255 0 0
-10.5341 -0.174851 -4.91704 255 0 0
-10.6112 -0.264228 -4.93892 255 0 0
-10.5865 -0.338976 -4.93267 255 0 0
-10.6809 -0.519562 -4.96079 255 0 0
-10.8812 -0.581037 -5.01704 255 0 0
-10.9749 1.03087 -5.15094 255 0 0
-10.7979 0.988424 -5.09945 255 0 0
-10.6656 0.950822 -5.06083 255 0 0
-10.6118 0.920665 -5.04473 255 0 0
-10.5655 0.866193 -5.03025 255 0 0
-10.5358 0.813481 -5.02059 255 0 0
-10.499 0.698036 -5.00772 255 0 0
-10.5198 0.636812 -5.01255 255 0 0
-10.5107 0.59876 -5.00933 255 0 0
-10.5128 0.486389 -5.00826 255 0 0
-10.5131 0.436468 -5.00772 255 0 0
-10.5085 0.41132 -5.00611 255 0 0
-10.498 -0.186701 -5.00128 255 0 0
-10.5525 -0.438103 -5.01898 255 0 0
-10.5683 -0.463862 -5.02381 255 0 0
-10.5891 -0.502513 -5.03025 255 0 0
-10.7728 -0.549636 -5.08336 255 0 0
-10.7416 1.00895 -5.18118 255 0 0
-10.6176 0.946535 -5.14309 255 0 0
-10.5642 0.878691 -5.1257 255 0 0
-10.5301 0.775385 -5.11328 255 0 0
-10.5048 0.735954 -5.105 255 0 0
-10.521 -0.374364 -5.10417 255 0 0
-10.5449 -0.412745 -5.11163 255 0 0
-10.5765 -0.464222 -5.12156 255 0 0
-10.6078 -0.516008 -5.1315 255 0 0
-10.7286 -0.572893 -5.16793 255 0 0
-10.7777 -0.601144 -5.18283 255 0 0
-10.5439 0.763826 -5.21284 255 0 0
-10.5373 -0.362413 -5.20433 255 0 0
-10.5634 -0.538956 -5.21455 255 0 0
