ply
format ascii 1.0
comment Created by Open3D
element vertex 1493
property double x
property double y
property double z
property uchar red
property uchar green
property uchar blue
end_header
5.619 3.53796 -4.26169 255 0 0
6.58994 3.53182 -4.34033 255 0 0
7.13535 3.41984 -4.47676 255 0 0
6.58727 4.53977 -4.43134 255 0 0
5.83761 4.42372 -4.09366 255 0 0
6.57407 4.3491 -4.39559 255 0 0
5.21863 3.5511 -4.26781 255 0 0
7.04504 3.37656 -5.02874 255 0 0
6.62315 4.02903 -4.49755 255 0 0
6.40315 3.44149 -5.24379 255 0 0
5.75932 3.48486 -4.35548 255 0 0
6.12684 4.57466 -4.11708 255 0 0
6.4967 4.92317 -4.47731 255 0 0
4.72645 4.64314 -4.44274 255 0 0
7.7711 3.52266 -4.36238 255 0 0
5.37912 4.4931 -4.32246 255 0 0
6.58071 3.40727 -4.52411 255 0 0
5.91971 4.93278 -4.13349 255 0 0
5.62479 3.51373 -4.32067 255 0 0
6.83284 3.38512 -5.103 255 0 0
6.33055 3.74889 -3.906 255 0 0
6.13871 3.51835 -4.34456 255 0 0
4.86284 3.53306 -4.33029 255 0 0
6.65364 4.56229 -4.30608 255 0 0
7.47983 3.83913 -4.47903 255 0 0
6.59832 4.18742 -3.88649 255 0 0
4.73362 3.48223 -4.62223 255 0 0
7.46295 4.5157 -4.65098 255 0 0
5.35926 4.58549 -4.33719 255 0 0
7.45462 3.35791 -4.70923 255 0 0
5.18605 3.85309 -4.26072 255 0 0
6.94235 3.38827 -4.99488 255 0 0
5.36523 4.61268 -4.34456 255 0 0
5.07355 3.568 -4.28677 255 0 0
6.13632 4.15075 -3.91921 255 0 0
6.48569 3.84082 -3.886 255 0 0
7.54443 3.35542 -4.88923 255 0 0
6.66625 3.68541 -3.9059 255 0 0
6.4667 4.90044 -4.53973 255 0 0
5.10137 4.8019 -4.38629 255 0 0
7.47556 3.69251 -4.38332 255 0 0
5.16419 4.3136 -4.2919 255 0 0
6.65949 4.49699 -4.22489 255 0 0
6.39065 3.6226 -3.90306 255 0 0
5.94474 3.65507 -5.18379 255 0 0
8.34256 3.56912 -4.51237 255 0 0
7.99889 3.58029 -4.42644 255 0 0
6.58558 4.48125 -4.49337 255 0 0
7.5621 3.64645 -4.10061 255 0 0
6.26299 4.36024 -4.52874 255 0 0
6.32113 4.55831 -3.94996 255 0 0
7.75613 3.49373 -4.4316 255 0 0
5.99906 4.65904 -4.03527 255 0 0
4.74451 3.6488 -4.32041 255 0 0
6.18277 4.13252 -3.92656 255 0 0
6.57457 4.78862 -3.96344 255 0 0
6.66438 3.65349 -3.90163 255 0 0
5.98243 3.73714 -3.95303 255 0 0
5.38426 3.44386 -4.41694 255 0 0
5.13501 4.89132 -4.41556 255 0 0
6.96824 3.59745 -5.34416 255 0 0
5.78691 3.427 -4.54328 255 0 0
4.96618 4.09849 -4.31334 255 0 0
4.73768 3.84428 -4.30718 255 0 0
7.14792 3.36356 -5.06261 255 0 0
6.4503 3.49645 -4.2966 255 0 0
4.76493 3.81047 -4.30718 255 0 0
7.00011 3.49906 -5.33727 255 0 0
7.02908 3.38943 -4.58583 255 0 0
6.64544 4.02103 -4.43128 255 0 0
4.98634 4.24597 -4.29166 255 0 0
4.64746 3.71653 -4.30701 255 0 0
5.00642 4.22228 -4.29166 255 0 0
5.83601 4.3791 -4.08561 255 0 0
6.38077 3.98594 -3.88245 255 0 0
6.43117 4.52275 -4.46102 255 0 0
5.82764 4.86777 -4.23891 255 0 0
4.97267 3.99598 -4.2919 255 0 0
7.00839 3.48245 -5.33727 255 0 0
5.12622 4.84826 -4.40328 255 0 0
6.07957 3.41774 -4.70386 255 0 0
7.43174 4.15473 -4.5105 255 0 0
7.01998 3.44679 -5.33497 255 0 0
4.66675 4.08978 -4.34653 255 0 0
5.06896 3.70122 -4.25494 255 0 0
5.3263 4.94264 -4.4078 255 0 0
5.13045 3.65366 -4.26286 255 0 0
4.99668 4.59286 -4.37482 255 0 0
4.68246 3.53959 -4.44564 255 0 0
7.59947 3.34759 -4.6753 255 0 0
6.0307 3.43744 -4.42897 255 0 0
7.95578 3.3369 -5.0188 255 0 0
7.29101 4.55459 -4.76956 255 0 0
5.45499 3.49824 -4.32819 255 0 0
7.51967 3.69214 -4.39459 255 0 0
6.63624 3.51623 -4.35082 255 0 0
7.30967 3.43967 -4.45518 255 0 0
8.175 3.52039 -4.54425 255 0 0
6.13857 4.93288 -4.53705 255 0 0
6.38333 3.73943 -4.04833 255 0 0
4.65138 3.47299 -4.41862 255 0 0
5.07025 4.15414 -4.29359 255 0 0
5.27176 3.46961 -4.4467 255 0 0
5.23958 3.44843 -4.92494 255 0 0
4.89551 3.84873 -4.29589 255 0 0
5.31018 3.51297 -4.65282 255 0 0
7.57165 3.65105 -4.17765 255 0 0
7.23277 3.36168 -4.71667 255 0 0
7.96941 3.47675 -4.64247 255 0 0
7.13978 3.65389 -4.00681 255 0 0
8.1542 3.44289 -4.60986 255 0 0
4.95743 4.24167 -4.34403 255 0 0
5.26724 3.59332 -4.59466 255 0 0
7.52417 3.89576 -4.42195 255 0 0
7.39173 4.64191 -4.73213 255 0 0
4.69259 3.88205 -4.30303 255 0 0
5.86395 3.83947 -4.06669 255 0 0
7.36902 4.60333 -4.79919 255 0 0
5.64038 3.57011 -4.21195 255 0 0
6.0688 4.11909 -3.90012 255 0 0
6.07465 4.01871 -3.88691 255 0 0
6.33771 3.81433 -3.91628 255 0 0
7.43098 3.62676 -4.21562 255 0 0
6.43564 3.78031 -3.86752 255 0 0
5.93335 4.81444 -4.46164 255 0 0
6.42373 4.64387 -4.48113 255 0 0
6.14319 3.81735 -3.87369 255 0 0
8.04563 3.32982 -4.96588 255 0 0
4.85757 4.33914 -4.34007 255 0 0
5.60703 4.22809 -4.39196 255 0 0
7.12939 3.38583 -4.6153 255 0 0
6.3379 4.59328 -3.95849 255 0 0
5.44459 3.6766 -4.17696 255 0 0
5.98074 3.89571 -3.91252 255 0 0
6.38276 4.50005 -4.37345 255 0 0
6.37879 4.55407 -4.38197 255 0 0
5.58851 4.4474 -4.36666 255 0 0
6.34945 3.96642 -3.87321 255 0 0
6.36722 3.68955 -4.43849 255 0 0
5.3131 4.50253 -4.30773 255 0 0
5.66639 3.59601 -4.1007 255 0 0
6.70936 3.99479 -4.23205 255 0 0
6.59724 3.84376 -4.45984 255 0 0
5.3823 3.49682 -4.99299 255 0 0
4.97527 4.40204 -4.32454 255 0 0
6.14474 4.38697 -3.95592 255 0 0
6.94273 4.42912 -3.91567 255 0 0
6.23461 3.71212 -5.23783 255 0 0
7.57884 3.5444 -4.31655 255 0 0
6.35575 4.38022 -4.48677 255 0 0
6.2955 4.29481 -3.90685 255 0 0
5.92552 4.90202 -4.19826 255 0 0
7.32039 3.50853 -4.4671 255 0 0
5.35257 4.17734 -4.31267 255 0 0
7.04097 4.03548 -3.88781 255 0 0
5.30214 3.53484 -4.65507 255 0 0
5.68448 3.43958 -4.57581 255 0 0
6.23871 4.94073 -4.06165 255 0 0
6.5204 3.57456 -4.19255 255 0 0
6.13862 3.67471 -5.19249 255 0 0
7.08467 3.37492 -5.34646 255 0 0
6.33548 4.03116 -3.87889 255 0 0
5.47437 3.5937 -4.10972 255 0 0
5.87758 3.42446 -4.63718 255 0 0
5.90661 4.43208 -4.37904 255 0 0
6.56876 3.66208 -3.88174 255 0 0
5.3261 3.46929 -4.34349 255 0 0
7.19466 3.36474 -4.70535 255 0 0
7.95273 3.40235 -4.62885 255 0 0
8.13922 3.34597 -4.8351 255 0 0
6.03113 3.66889 -3.95459 255 0 0
6.61332 4.46581 -3.92634 255 0 0
5.1739 3.48489 -4.35895 255 0 0
7.27179 3.65643 -3.96481 255 0 0
5.66796 3.59701 -5.13033 255 0 0
5.9228 3.43202 -4.52375 255 0 0
5.75889 3.42888 -5.12538 255 0 0
4.83694 4.36213 -4.34007 255 0 0
6.4219 3.40266 -4.54307 255 0 0
7.01715 4.11073 -3.89179 255 0 0
5.88483 3.79362 -4.00139 255 0 0
6.23621 4.02012 -3.92215 255 0 0
6.99393 3.759 -3.91672 255 0 0
5.82794 3.48873 -4.37675 255 0 0
6.36348 3.4299 -4.52953 255 0 0
6.85439 3.67355 -4.08377 255 0 0
7.3931 3.37246 -4.69265 255 0 0
6.42095 3.63978 -3.97769 255 0 0
7.51023 4.84141 -4.6347 255 0 0
5.45323 4.87123 -4.3557 255 0 0
7.31827 3.35932 -4.81768 255 0 0
6.23188 3.65071 -3.93525 255 0 0
6.341 4.64155 -4.53166 255 0 0
6.58747 3.63167 -4.01557 255 0 0
5.66844 4.89679 -4.3447 255 0 0
5.4489 3.73622 -4.25037 255 0 0
6.3879 3.49208 -5.24856 255 0 0
7.63177 3.54713 -4.25502 255 0 0
6.59104 3.61329 -4.08115 255 0 0
6.59803 4.87791 -4.41942 255 0 0
4.70672 3.47967 -4.72945 255 0 0
5.01204 3.83566 -4.26748 255 0 0
7.49048 3.9348 -4.26714 255 0 0
8.08386 3.34564 -5.06135 255 0 0
6.17566 3.44291 -4.40832 255 0 0
6.73028 3.38415 -5.06548 255 0 0
5.98627 3.65132 -4.00434 255 0 0
6.29409 4.35977 -4.1886 255 0 0
5.54049 3.57163 -4.18433 255 0 0
6.88314 3.78404 -3.89611 255 0 0
5.01099 5.01693 -4.48118 255 0 0
4.73763 5.00924 -4.54198 255 0 0
6.58551 4.40171 -3.91214 255 0 0
7.35969 3.35722 -5.05898 255 0 0
6.08799 4.45635 -4.08896 255 0 0
6.59907 4.07897 -4.49934 255 0 0
6.64721 4.02211 -3.8755 255 0 0
6.07042 4.84269 -4.08074 255 0 0
7.85195 3.33723 -4.8271 255 0 0
5.68858 4.96148 -4.22567 255 0 0
6.13865 3.41275 -4.7229 255 0 0
6.66192 3.84977 -4.26872 255 0 0
4.91133 3.83299 -4.2969 255 0 0
7.77702 3.5699 -4.2929 255 0 0
7.82022 3.3786 -4.66654 255 0 0
6.3315 4.27551 -3.91158 255 0 0
4.97422 4.14491 -4.32621 255 0 0
4.74715 3.59737 -4.30912 255 0 0
6.35503 3.62235 -5.19146 255 0 0
6.26251 3.49134 -4.37587 255 0 0
5.17042 3.65447 -4.27474 255 0 0
5.53027 3.43646 -4.90538 255 0 0
7.31412 3.35741 -4.74122 255 0 0
5.674 3.6577 -4.05166 255 0 0
6.61993 3.90973 -4.4769 255 0 0
6.6195 3.59493 -4.1532 255 0 0
5.13749 3.57667 -4.249 255 0 0
7.29092 3.38871 -5.04034 255 0 0
8.36377 3.50803 -4.59253 255 0 0
7.46322 3.49034 -4.42935 255 0 0
6.98303 3.55283 -5.3411 255 0 0
6.11409 3.42762 -4.51825 255 0 0
7.03191 3.37027 -5.09789 255 0 0
6.66645 3.67521 -3.97208 255 0 0
5.33797 4.67801 -4.35193 255 0 0
6.54074 3.54548 -4.26108 255 0 0
4.80815 4.74585 -4.42718 255 0 0
6.55188 3.70375 -3.88316 255 0 0
6.37035 4.53665 -4.30598 255 0 0
5.68975 3.61082 -5.07443 255 0 0
5.23357 3.75518 -4.25395 255 0 0
5.80449 4.89535 -4.23891 255 0 0
8.23083 3.61405 -4.48894 255 0 0
6.1632 4.83355 -4.16864 255 0 0
7.69271 3.42138 -4.86771 255 0 0
5.21064 3.48275 -4.42977 255 0 0
6.91124 3.68295 -5.33957 255 0 0
7.36587 3.46611 -5.31266 255 0 0
5.09 3.47241 -4.56725 255 0 0
4.97907 4.44768 -4.33614 255 0 0
5.18304 4.48819 -4.33532 255 0 0
5.99609 4.20616 -3.96253 255 0 0
6.54002 3.64606 -3.93977 255 0 0
5.5276 3.43482 -4.33809 255 0 0
7.29122 3.64456 -4.47731 255 0 0
7.58406 3.59078 -4.32332 255 0 0
6.66299 4.59197 -4.24051 255 0 0
6.6884 4.00382 -4.44003 255 0 0
7.17777 3.6519 -5.35543 255 0 0
7.78031 3.66113 -4.22758 255 0 0
7.58677 3.39582 -4.60182 255 0 0
7.46623 4.27922 -4.38269 255 0 0
6.76944 4.50146 -4.32378 255 0 0
6.06943 4.44276 -3.94858 255 0 0
5.67464 3.44282 -4.38462 255 0 0
6.99099 4.29835 -3.90904 255 0 0
6.03709 3.48868 -4.37497 255 0 0
6.98256 3.59437 -5.27211 255 0 0
6.78336 3.66658 -3.92935 255 0 0
5.08017 3.96476 -4.25492 255 0 0
4.74784 4.98441 -4.53793 255 0 0
6.27141 4.52246 -4.63361 255 0 0
4.72573 3.49373 -4.33477 255 0 0
6.34028 3.44653 -4.45803 255 0 0
5.61322 4.94281 -4.40957 255 0 0
6.19787 4.38068 -3.9662 255 0 0
6.05208 3.9116 -3.99521 255 0 0
6.81505 3.38638 -4.59207 255 0 0
6.57127 3.60245 -4.008 255 0 0
4.88867 3.64117 -4.30511 255 0 0
7.12911 3.91924 -3.89246 255 0 0
5.33855 3.4774 -4.90673 255 0 0
6.02799 4.65864 -4.04134 255 0 0
6.32183 4.47953 -4.56741 255 0 0
7.26128 4.37018 -4.49891 255 0 0
6.2074 3.5773 -4.37403 255 0 0
8.09007 3.34821 -4.82074 255 0 0
7.03747 3.37293 -4.65815 255 0 0
5.73453 3.67751 -4.07039 255 0 0
6.16301 3.68931 -3.92465 255 0 0
7.25542 3.62667 -4.02955 255 0 0
5.13398 4.96044 -4.4316 255 0 0
6.47129 4.78422 -4.59271 255 0 0
4.68369 3.53183 -4.33044 255 0 0
7.69517 3.37885 -4.63068 255 0 0
7.36921 4.09689 -4.56244 255 0 0
5.27465 3.50746 -4.33538 255 0 0
6.63026 3.41299 -4.47103 255 0 0
5.9216 3.69915 -5.18541 255 0 0
5.76041 3.42978 -4.59909 255 0 0
4.94061 3.51844 -4.35145 255 0 0
7.54672 3.95293 -4.20702 255 0 0
5.79887 4.50357 -4.43297 255 0 0
7.13226 3.43918 -4.47851 255 0 0
7.05246 3.75821 -3.92909 255 0 0
6.21653 4.59587 -4.14052 255 0 0
5.87793 3.74004 -3.99147 255 0 0
6.28986 4.44571 -4.62354 255 0 0
6.00493 4.57297 -4.50111 255 0 0
5.23383 3.62535 -4.22784 255 0 0
6.60221 3.4184 -4.3952 255 0 0
6.96102 4.46404 -3.92363 255 0 0
6.71007 3.97369 -4.37005 255 0 0
6.43295 3.39872 -4.96065 255 0 0
6.31549 4.14582 -3.89026 255 0 0
5.41923 3.49347 -5.0066 255 0 0
7.57305 3.5417 -4.38976 255 0 0
4.72447 4.3015 -4.35564 255 0 0
5.97744 4.57447 -4.35607 255 0 0
5.08065 3.48962 -4.38955 255 0 0
5.98975 4.25492 -4.03427 255 0 0
6.66976 3.43335 -4.41675 255 0 0
7.47323 3.93704 -4.49063 255 0 0
7.24465 3.59984 -4.45858 255 0 0
5.47058 3.4475 -4.44525 255 0 0
4.91698 4.2885 -4.34403 255 0 0
5.6236 3.43927 -4.18433 255 0 0
7.52226 3.80472 -4.40961 255 0 0
5.57916 3.43943 -4.4164 255 0 0
6.77584 3.65216 -3.9941 255 0 0
5.26512 3.54633 -4.28068 255 0 0
6.00841 3.53896 -5.18136 255 0 0
7.7162 3.45376 -4.56925 255 0 0
6.10151 4.58964 -4.11396 255 0 0
7.63027 3.48065 -4.54882 255 0 0
6.61725 3.3865 -4.60108 255 0 0
5.6136 3.63763 -4.03293 255 0 0
6.04962 3.66052 -4.08491 255 0 0
6.62397 3.38993 -5.02796 255 0 0
7.60509 3.51283 -4.39459 255 0 0
4.68436 3.96018 -4.3196 255 0 0
4.7339 4.1985 -4.33285 255 0 0
6.67467 3.38597 -5.04562 255 0 0
7.53142 3.58774 -4.23532 255 0 0
7.6585 3.36275 -4.54201 255 0 0
4.85256 3.46443 -4.54257 255 0 0
5.32058 4.74517 -4.36237 255 0 0
5.68094 4.90757 -4.41854 255 0 0
5.44763 3.6039 -4.10433 255 0 0
6.7129 3.91114 -4.22079 255 0 0
6.60681 4.86022 -3.97993 255 0 0
5.47894 3.44071 -4.69561 255 0 0
6.97369 4.39092 -3.917 255 0 0
6.31432 4.44057 -3.93148 255 0 0
6.81419 3.38595 -4.52137 255 0 0
5.59127 3.56695 -4.13665 255 0 0
7.12512 3.37348 -5.05626 255 0 0
7.45146 3.94817 -4.25956 255 0 0
7.68231 3.73816 -4.36551 255 0 0
6.20266 4.79364 -4.03081 255 0 0
6.60092 3.80409 -4.45445 255 0 0
6.32257 4.50265 -3.94214 255 0 0
6.04285 4.01831 -4.00927 255 0 0
7.39956 3.35424 -4.84282 255 0 0
5.52076 3.58677 -4.18157 255 0 0
7.81064 3.49603 -4.44609 255 0 0
5.99866 4.35829 -3.98678 255 0 0
6.73613 3.63075 -4.05043 255 0 0
6.92078 3.65648 -3.95849 255 0 0
7.41155 3.5091 -5.33694 255 0 0
6.71352 3.89022 -4.35813 255 0 0
7.84536 3.33443 -4.90358 255 0 0
7.42263 3.38593 -4.55372 255 0 0
6.32658 3.666 -3.89425 255 0 0
5.03277 3.61113 -4.28373 255 0 0
4.98362 4.36747 -4.31873 255 0 0
5.3465 4.85628 -4.39337 255 0 0
6.39791 4.52207 -4.31012 255 0 0
8.26635 3.42116 -4.80034 255 0 0
5.96612 4.88814 -4.2047 255 0 0
7.35441 3.43945 -5.30384 255 0 0
4.79837 3.95046 -4.2915 255 0 0
5.82202 3.43847 -4.81721 255 0 0
4.74067 3.69979 -4.33135 255 0 0
5.76115 4.45242 -4.41271 255 0 0
4.93225 3.62835 -4.31546 255 0 0
6.37411 3.53377 -5.25214 255 0 0
6.52572 3.63808 -4.00193 255 0 0
6.9649 3.37886 -4.49395 255 0 0
6.4494 4.46735 -4.45577 255 0 0
5.17222 3.55552 -4.25494 255 0 0
5.64359 3.43314 -4.68809 255 0 0
6.59115 4.42812 -4.4855 255 0 0
5.00888 3.52252 -4.67165 255 0 0
7.3596 4.71965 -4.89709 255 0 0
5.35116 4.94215 -4.34672 255 0 0
5.35906 3.44569 -4.90673 255 0 0
7.31202 4.07645 -4.39298 255 0 0
6.38956 4.47088 -4.37005 255 0 0
8.20422 3.37269 -5.10389 255 0 0
6.57564 3.40464 -5.0852 255 0 0
5.93588 3.42083 -4.92155 255 0 0
6.65264 3.77112 -4.32408 255 0 0
5.8633 4.64342 -4.40957 255 0 0
5.47456 3.49249 -4.39412 255 0 0
4.82 3.55462 -4.32182 255 0 0
7.28566 3.36528 -5.11129 255 0 0
5.96916 4.89062 -4.13661 255 0 0
6.55884 3.49516 -4.32633 255 0 0
6.17444 4.45253 -3.97208 255 0 0
6.59515 4.87578 -4.49264 255 0 0
4.87176 4.28991 -4.33215 255 0 0
6.33925 4.61723 -4.59872 255 0 0
4.89009 3.47375 -4.7366 255 0 0
7.10964 4.03017 -3.90108 255 0 0
5.24848 3.50805 -4.56891 255 0 0
4.97667 3.49104 -4.35675 255 0 0
4.8581 3.84736 -4.28475 255 0 0
6.55462 4.89406 -4.33826 255 0 0
6.31917 4.20205 -3.89879 255 0 0
7.00142 3.52048 -5.34186 255 0 0
5.17597 4.6346 -4.36647 255 0 0
6.54635 3.58878 -4.33683 255 0 0
5.27292 3.49734 -4.36266 255 0 0
6.34991 3.92496 -3.9339 255 0 0
6.72938 3.88875 -3.87619 255 0 0
5.1721 3.60077 -4.5645 255 0 0
5.25789 3.7163 -4.25298 255 0 0
7.32065 3.40252 -4.5269 255 0 0
6.94296 4.61685 -3.93955 255 0 0
6.93656 3.65431 -5.34339 255 0 0
6.01565 4.18804 -3.96405 255 0 0
7.56285 3.48244 -4.45502 255 0 0
6.36887 4.87402 -4.58373 255 0 0
5.16213 4.40624 -4.31172 255 0 0
7.27418 3.61452 -4.03239 255 0 0
5.98087 4.03873 -3.93374 255 0 0
6.04425 3.44521 -5.17407 255 0 0
6.3914 3.89845 -3.87321 255 0 0
5.91476 4.84606 -4.46343 255 0 0
5.94687 3.65638 -3.99549 255 0 0
6.36607 4.54501 -4.51999 255 0 0
5.33687 3.58546 -4.18995 255 0 0
5.29085 3.59107 -4.23751 255 0 0
7.3276 3.68449 -4.49264 255 0 0
6.54411 3.74041 -3.886 255 0 0
7.04669 4.15051 -3.90241 255 0 0
5.93697 4.59955 -4.35082 255 0 0
5.07203 3.59395 -4.29184 255 0 0
7.37903 3.38721 -4.54147 255 0 0
6.83424 3.38581 -4.45715 255 0 0
6.28131 3.69969 -5.25294 255 0 0
5.45499 3.46184 -4.38197 255 0 0
7.58775 3.35316 -4.90277 255 0 0
5.91744 4.24591 -4.08185 255 0 0
7.39661 3.37407 -4.84475 255 0 0
7.13003 3.74547 -3.9442 255 0 0
5.53131 3.60296 -4.24848 255 0 0
6.60861 3.95606 -4.48139 255 0 0
5.96306 3.45535 -4.41156 255 0 0
7.759 3.45086 -4.50387 255 0 0
6.18144 4.74221 -4.01833 255 0 0
4.90406 3.71628 -4.26854 255 0 0
7.64851 3.53289 -4.3327 255 0 0
6.67136 3.96147 -4.42866 255 0 0
7.42383 3.75496 -4.52839 255 0 0
7.47117 3.62446 -4.15122 255 0 0
7.49229 3.59092 -4.22622 255 0 0
6.56938 3.42118 -4.38622 255 0 0
6.37416 3.51407 -4.34493 255 0 0
6.84477 3.50293 -4.40679 255 0 0
7.27341 4.70097 -4.94983 255 0 0
7.49942 3.90552 -4.26563 255 0 0
6.39477 4.8221 -4.00397 255 0 0
6.62715 4.69591 -3.96069 255 0 0
5.47696 3.60465 -4.17266 255 0 0
5.54096 4.90255 -4.31584 255 0 0
6.00026 4.14573 -3.9542 255 0 0
6.27594 4.43586 -3.92295 255 0 0
6.64125 4.45036 -4.42964 255 0 0
4.68568 3.48133 -4.72202 255 0 0
6.72387 3.48139 -4.37006 255 0 0
5.0853 3.50468 -4.33548 255 0 0
4.92527 5.60668 -5.33009 255 0 0
6.54642 4.72077 -3.94832 255 0 0
7.06781 3.36689 -5.03509 255 0 0
5.29161 3.57329 -4.17485 255 0 0
7.06627 4.18464 -3.91036 255 0 0
7.32083 3.59451 -4.18531 255 0 0
6.68947 4.84808 -4.43598 255 0 0
4.93316 3.59309 -4.30787 255 0 0
6.20955 4.56798 -3.99704 255 0 0
7.50949 3.54458 -4.37367 255 0 0
7.52132 3.36653 -4.88343 255 0 0
5.92635 4.9027 -4.12958 255 0 0
5.14546 4.31871 -4.28812 255 0 0
5.19492 3.46335 -4.36102 255 0 0
6.61186 3.72731 -4.03376 255 0 0
5.60171 3.55495 -4.2598 255 0 0
6.41853 4.46852 -4.37686 255 0 0
6.91378 3.39465 -4.48139 255 0 0
6.54602 4.3978 -4.54064 255 0 0
7.45123 3.74665 -4.45916 255 0 0
6.04246 4.42302 -4.00648 255 0 0
6.2928 4.39208 -3.92011 255 0 0
7.96933 3.49923 -4.48793 255 0 0
6.03561 3.41187 -4.55616 255 0 0
7.72315 3.51195 -4.42517 255 0 0
6.92535 4.58149 -3.93159 255 0 0
7.46575 3.69869 -4.45668 255 0 0
6.18008 4.68324 -4.00879 255 0 0
4.7761 3.51348 -4.47041 255 0 0
5.3194 4.44325 -4.29668 255 0 0
6.54759 4.86468 -4.47902 255 0 0
4.76032 3.62515 -4.31971 255 0 0
4.88461 4.48985 -4.38363 255 0 0
7.10428 4.0049 -3.8971 255 0 0
6.61635 3.66807 -4.23063 255 0 0
5.64831 3.59393 -4.03463 255 0 0
4.83243 3.46739 -4.36287 255 0 0
6.16188 4.33337 -3.95152 255 0 0
6.61342 3.40434 -4.53355 255 0 0
5.92214 4.16478 -4.06952 255 0 0
7.85661 3.53899 -4.38582 255 0 0
5.15944 3.46626 -4.58977 255 0 0
6.42288 3.82422 -3.87037 255 0 0
5.37452 3.55552 -4.25492 255 0 0
5.08803 4.75535 -4.37213 255 0 0
6.03704 4.71153 -4.05194 255 0 0
4.69601 3.50633 -4.32828 255 0 0
4.81173 3.57498 -4.32394 255 0 0
6.04247 4.75045 -4.05952 255 0 0
5.74864 4.46456 -4.14618 255 0 0
6.69047 3.99431 -3.881 255 0 0
6.95541 3.62221 -5.34416 255 0 0
6.36571 4.82392 -4.64661 255 0 0
6.27865 3.75854 -3.89572 255 0 0
6.89352 3.3847 -5.12507 255 0 0
5.77866 3.75434 -4.03191 255 0 0
5.78872 3.64482 -4.01701 255 0 0
6.65514 4.54015 -4.30286 255 0 0
7.51839 3.89276 -4.34415 255 0 0
5.33068 3.49031 -4.71713 255 0 0
5.58591 3.63852 -4.0867 255 0 0
7.49034 3.64475 -4.08427 255 0 0
4.84261 3.61577 -4.34299 255 0 0
7.6748 3.52297 -4.4139 255 0 0
5.28523 4.95139 -4.39981 255 0 0
6.07009 4.66823 -4.12021 255 0 0
5.81818 4.94242 -4.18217 255 0 0
5.65169 3.44726 -4.44071 255 0 0
6.61506 4.72275 -3.96206 255 0 0
7.72804 3.34966 -4.94725 255 0 0
8.16546 3.60847 -4.47175 255 0 0
8.00736 3.56131 -4.42644 255 0 0
6.64056 3.38849 -4.74858 255 0 0
6.33307 3.69992 -3.90012 255 0 0
6.55134 4.91585 -4.48923 255 0 0
6.51668 4.88984 -4.55022 255 0 0
6.86778 3.3923 -4.60906 255 0 0
7.48616 4.26709 -4.38582 255 0 0
5.69633 3.51165 -5.12043 255 0 0
6.01846 3.70041 -3.95615 255 0 0
6.67904 3.84911 -4.34281 255 0 0
8.01889 3.49833 -4.5008 255 0 0
5.55574 4.86886 -4.31234 255 0 0
6.58221 4.34326 -3.90367 255 0 0
5.3681 3.50572 -4.30345 255 0 0
6.36815 4.75483 -4.56039 255 0 0
5.16008 3.59242 -4.2589 255 0 0
5.90828 4.54379 -4.4698 255 0 0
6.54241 3.68816 -3.94564 255 0 0
6.95322 4.41264 -3.91567 255 0 0
6.67901 3.57956 -4.16607 255 0 0
4.84035 3.49049 -4.4284 255 0 0
6.3302 3.59827 -5.24916 255 0 0
6.39705 3.83974 -3.86681 255 0 0
5.98128 4.8651 -4.20389 255 0 0
7.73706 3.52936 -4.35457 255 0 0
6.59879 4.54771 -3.93458 255 0 0
4.84378 3.88296 -4.2888 255 0 0
7.97411 3.36685 -4.70939 255 0 0
7.43428 4.63183 -4.74175 255 0 0
6.47766 4.32962 -4.51011 255 0 0
6.53385 4.91483 -4.70923 255 0 0
6.12284 3.70484 -3.91757 255 0 0
6.65903 4.46228 -4.21942 255 0 0
6.28374 4.07189 -3.93977 255 0 0
6.39761 4.52186 -4.45227 255 0 0
6.58499 3.75343 -4.44188 255 0 0
5.49662 3.44273 -4.51443 255 0 0
7.39567 3.5662 -4.27332 255 0 0
6.34132 3.65449 -4.02646 255 0 0
4.71237 3.49249 -4.38684 255 0 0
5.37649 4.35204 -4.35609 255 0 0
6.92367 3.37916 -4.69584 255 0 0
6.42074 4.63014 -4.4058 255 0 0
6.63633 4.60849 -3.95039 255 0 0
7.61094 3.42833 -4.5369 255 0 0
7.97131 3.34342 -4.78483 255 0 0
4.77943 4.05026 -4.30973 255 0 0
5.77835 3.45905 -4.80595 255 0 0
6.73307 4.66384 -4.48923 255 0 0
5.1378 4.4811 -4.32211 255 0 0
6.37804 4.31794 -4.48139 255 0 0
7.02053 4.33948 -4.58345 255 0 0
5.99182 4.76837 -4.46702 255 0 0
5.3124 3.56902 -4.23944 255 0 0
6.73786 3.67302 -3.92011 255 0 0
6.51192 4.74299 -4.44837 255 0 0
7.44004 4.47777 -4.63906 255 0 0
7.92723 3.39144 -4.6989 255 0 0
5.32195 3.52076 -4.29256 255 0 0
6.64267 4.54319 -4.44581 255 0 0
6.19336 4.2683 -3.94858 255 0 0
6.23971 4.69362 -4.02274 255 0 0
6.66799 3.73815 -4.3928 255 0 0
6.92155 3.77316 -3.90298 255 0 0
6.55341 3.55234 -5.17879 255 0 0
6.2891 3.44776 -4.44293 255 0 0
6.12447 3.99967 -3.89498 255 0 0
8.27941 3.38067 -4.96339 255 0 0
4.76113 4.29376 -4.36374 255 0 0
6.12741 4.50756 -4.10614 255 0 0
6.02924 4.8804 -4.07847 255 0 0
6.41651 3.65739 -3.91334 255 0 0
7.55079 3.5095 -4.38011 255 0 0
7.16359 3.3917 -4.69968 255 0 0
5.99095 4.40717 -3.99284 255 0 0
6.64047 3.76422 -4.3893 255 0 0
6.29196 4.50334 -4.6355 255 0 0
4.92822 3.49207 -4.51658 255 0 0
4.67387 3.98945 -4.32375 255 0 0
4.80654 4.5893 -4.38759 255 0 0
6.33034 4.40712 -4.48498 255 0 0
6.31489 3.64922 -5.25453 255 0 0
5.3612 3.44708 -4.84413 255 0 0
7.19094 3.46747 -4.42623 255 0 0
6.66293 3.93511 -4.21194 255 0 0
6.18746 3.79418 -3.8803 255 0 0
6.07446 3.42436 -5.18136 255 0 0
7.41722 3.35165 -4.77237 255 0 0
5.53809 4.93524 -4.32196 255 0 0
7.35813 4.8178 -4.5933 255 0 0
8.1915 3.41296 -4.69695 255 0 0
6.05712 3.96595 -4.00459 255 0 0
6.70424 3.9488 -3.87825 255 0 0
8.21232 3.49039 -4.55069 255 0 0
6.28873 3.46698 -4.37955 255 0 0
6.37205 4.75774 -3.98975 255 0 0
5.62226 3.54932 -4.14204 255 0 0
4.80173 4.3927 -4.33809 255 0 0
6.00353 3.85001 -3.91101 255 0 0
6.10053 4.54377 -3.97061 255 0 0
6.99916 3.66612 -3.97696 255 0 0
7.4872 3.84292 -4.25502 255 0 0
7.22916 3.8965 -3.91036 255 0 0
7.16475 3.88373 -3.89577 255 0 0
7.27069 3.96349 -3.92628 255 0 0
7.09268 3.93215 -3.88649 255 0 0
7.11821 3.96839 -3.89577 255 0 0
7.13365 3.9992 -3.90241 255 0 0
7.07529 4.0329 -3.89445 255 0 0
7.06944 4.09646 -3.90064 255 0 0
7.02685 4.19514 -3.90373 255 0 0
7.03374 4.24461 -3.91103 255 0 0
7.01597 4.27939 -3.91169 255 0 0
6.98182 4.33847 -3.91213 255 0 0
6.96 4.48671 -3.92628 255 0 0
6.93203 4.50368 -3.92297 255 0 0
6.92252 4.54432 -3.92628 255 0 0
6.87437 4.60659 -3.92496 255 0 0
6.87213 4.64058 -3.92894 255 0 0
6.84224 4.64405 -3.92363 255 0 0
6.8689 4.68597 -3.93424 255 0 0
6.42817 3.40594 -5.24618 255 0 0
7.61175 3.38537 -4.5318 255 0 0
6.19187 3.43274 -4.47731 255 0 0
5.98301 4.23944 -3.96481 255 0 0
8.26336 3.37412 -5.12323 255 0 0
6.58742 3.64182 -4.15159 255 0 0
4.82551 3.70198 -4.29993 255 0 0
6.61684 4.94052 -4.50966 255 0 0
6.23675 3.45762 -4.36298 255 0 0
6.04033 3.81325 -3.91404 255 0 0
6.46939 3.43765 -4.36019 255 0 0
7.3624 3.35846 -4.75632 255 0 0
6.58989 4.44999 -4.489 255 0 0
6.64868 3.89487 -4.27203 255 0 0
6.68129 4.04271 -3.88512 255 0 0
4.97936 3.94341 -4.282 255 0 0
7.26889 3.68742 -3.96756 255 0 0
7.2456 3.70806 -3.96481 255 0 0
7.4713 3.66839 -4.45419 255 0 0
7.22731 3.73119 -3.96344 255 0 0
7.17361 3.73585 -3.95245 255 0 0
7.07644 3.74947 -3.93321 255 0 0
6.93048 3.75674 -3.90298 255 0 0
6.83279 3.79866 -3.88718 255 0 0
6.7969 3.81041 -3.881 255 0 0
6.78204 3.84447 -3.88191 255 0 0
6.78514 3.88886 -3.88787 255 0 0
6.7379 3.9364 -3.88375 255 0 0
6.71934 3.97918 -3.88512 255 0 0
6.67177 4.08031 -3.88787 255 0 0
6.63296 4.09993 -3.88237 255 0 0
6.63277 4.1434 -3.88787 255 0 0
6.65185 4.17728 -3.89611 255 0 0
6.61305 4.17481 -3.88787 255 0 0
6.62197 4.22448 -3.89611 255 0 0
6.59731 4.24186 -3.89336 255 0 0
6.59588 4.29643 -3.90023 255 0 0
6.60545 4.30263 -3.90298 255 0 0
6.58892 4.49498 -3.92542 255 0 0
6.62605 4.64809 -3.95382 255 0 0
6.57871 4.74407 -3.95794 255 0 0
6.54023 4.78739 -3.95657 255 0 0
5.15722 4.68435 -4.37308 255 0 0
8.30356 3.50595 -4.57644 255 0 0
7.47332 3.84699 -4.40264 255 0 0
7.038 3.43496 -5.18687 255 0 0
6.64348 3.69343 -4.10458 255 0 0
6.57112 3.55187 -4.20248 255 0 0
6.63883 3.86799 -4.40504 255 0 0
5.95968 4.17009 -4.07917 255 0 0
7.50323 3.37981 -4.87956 255 0 0
6.67522 3.80486 -4.40504 255 0 0
7.39189 3.5428 -4.34309 255 0 0
6.4444 3.40479 -4.48258 255 0 0
5.16582 3.95335 -4.27619 255 0 0
5.48995 3.44762 -4.39007 255 0 0
7.4289 3.64757 -4.07076 255 0 0
7.3744 3.64254 -4.05797 255 0 0
7.2265 3.63366 -4.02386 255 0 0
7.19253 3.63796 -4.01676 255 0 0
7.09935 3.63321 -3.99544 255 0 0
7.00962 3.63989 -3.97625 255 0 0
6.86763 3.65971 -3.94712 255 0 0
6.83891 3.66525 -3.94143 255 0 0
6.57493 3.68598 -3.886 255 0 0
6.47467 3.74154 -3.87108 255 0 0
6.47849 3.77457 -3.87605 255 0 0
6.40524 3.87569 -3.87321 255 0 0
6.38252 3.93467 -3.87605 255 0 0
6.32097 3.99042 -3.87037 255 0 0
6.29718 4.04889 -3.87321 255 0 0
6.33519 4.10523 -3.88884 255 0 0
6.32701 4.53978 -4.36664 255 0 0
6.31592 4.11403 -3.886 255 0 0
6.30862 4.23831 -3.90163 255 0 0
6.28553 4.3428 -3.91158 255 0 0
6.30423 4.52344 -3.94143 255 0 0
6.34353 4.64341 -3.96701 255 0 0
6.33059 4.6802 -3.96986 255 0 0
6.35595 4.72229 -3.98123 255 0 0
6.41527 4.81375 -4.00681 255 0 0
6.30635 4.77893 -3.9798 255 0 0
6.38087 4.85926 -4.00681 255 0 0
6.31069 4.82949 -3.98833 255 0 0
6.39827 4.92063 -4.0196 255 0 0
5.4671 3.57963 -4.22582 255 0 0
6.02877 3.9474 -3.99521 255 0 0
5.50499 3.47529 -4.4002 255 0 0
6.55805 3.67651 -4.42213 255 0 0
6.78994 3.53604 -4.3963 255 0 0
5.77447 3.69347 -4.02115 255 0 0
6.19993 3.66167 -3.99365 255 0 0
6.58246 3.62891 -4.08115 255 0 0
5.80314 4.37597 -4.07756 255 0 0
4.69365 4.40764 -4.37387 255 0 0
7.59911 3.61998 -4.18059 255 0 0
7.61606 3.65024 -4.18793 255 0 0
7.41162 3.6173 -4.13654 255 0 0
7.39438 3.65241 -4.13654 255 0 0
7.42034 3.86434 -4.16737 255 0 0
6.64398 3.62185 -3.96033 255 0 0
6.61047 3.7059 -3.96327 255 0 0
6.49634 3.72333 -3.93977 255 0 0
6.3991 3.68778 -3.91334 255 0 0
6.27689 3.71717 -3.88984 255 0 0
6.285 3.80294 -3.90306 255 0 0
6.29534 3.82962 -3.90893 255 0 0
6.26392 3.91298 -3.91334 255 0 0
6.36023 3.99414 -3.94564 255 0 0
6.22133 3.92752 -3.906 255 0 0
6.18329 3.92403 -3.89719 255 0 0
6.09751 3.88991 -3.87369 255 0 0
6.26958 4.02063 -3.92949 255 0 0
6.03208 3.97002 -3.87076 255 0 0
6.21615 4.13354 -3.9339 255 0 0
6.11932 4.19591 -3.92215 255 0 0
6.0664 4.2127 -3.91334 255 0 0
6.23715 4.36424 -3.97208 255 0 0
6.02111 4.27719 -3.91334 255 0 0
6.24024 4.47753 -3.9897 255 0 0
6.12415 4.44949 -3.96106 255 0 0
6.1121 4.51867 -3.96914 255 0 0
6.12386 4.66354 -3.9941 255 0 0
6.26738 4.86743 -4.05578 255 0 0
6.17859 4.83381 -4.03228 255 0 0
6.2237 4.90487 -4.05284 255 0 0
6.53527 4.8917 -4.407 255 0 0
6.29412 3.65717 -4.01552 255 0 0
7.51949 3.58205 -4.30613 255 0 0
5.30194 5.00258 -4.41547 255 0 0
4.86079 3.47031 -4.48843 255 0 0
5.96684 4.41128 -3.98829 255 0 0
6.05308 3.46928 -5.04395 255 0 0
4.90772 3.79286 -4.28677 255 0 0
6.99912 3.45717 -4.44352 255 0 0
7.04432 3.39677 -5.33497 255 0 0
7.68125 3.39448 -4.55223 255 0 0
5.04586 3.45986 -4.66931 255 0 0
7.84207 3.57727 -4.30957 255 0 0
7.53134 3.55489 -4.23153 255 0 0
7.38187 3.55954 -4.19591 255 0 0
7.38867 3.58444 -4.20046 255 0 0
7.34271 3.62689 -4.1944 255 0 0
7.50983 3.79848 -4.25502 255 0 0
7.49472 3.79081 -4.25047 255 0 0
7.50865 3.88773 -4.26563 255 0 0
6.67778 3.61976 -4.03527 255 0 0
6.64435 3.62205 -4.0277 255 0 0
6.6382 3.68019 -4.03376 255 0 0
6.56147 3.67843 -4.01557 255 0 0
6.45161 3.6774 -3.98981 255 0 0
6.42815 3.68425 -3.98526 255 0 0
6.32441 3.65474 -3.95723 255 0 0
6.26007 3.64731 -3.94132 255 0 0
6.18205 3.66099 -3.92515 255 0 0
6.07222 3.74339 -3.91138 255 0 0
6.06343 3.79776 -3.91707 255 0 0
6.03865 3.84231 -3.91783 255 0 0
6.01355 3.88669 -3.91858 255 0 0
6.02353 3.94396 -3.92919 255 0 0
6.00471 3.95201 -3.92616 255 0 0
5.99531 3.98669 -3.92919 255 0 0
6.01305 4.10212 -3.95041 255 0 0
5.98465 4.10357 -3.94435 255 0 0
5.97996 4.29077 -3.97213 255 0 0
6.04263 4.4895 -4.01709 255 0 0
5.97758 4.46321 -3.9989 255 0 0
5.982 4.49975 -4.00572 255 0 0
5.99978 4.54661 -4.01709 255 0 0
6.02177 4.59709 -4.02997 255 0 0
6.71662 4.48934 -4.3093 255 0 0
5.99867 4.6133 -4.0277 255 0 0
6.03441 4.77893 -4.06255 255 0 0
6.05317 4.86425 -4.08074 255 0 0
5.98773 4.88216 -4.07013 255 0 0
7.38873 3.84788 -4.5318 255 0 0
4.98162 4.53563 -4.35741 255 0 0
4.84058 4.93913 -4.48459 255 0 0
4.95403 4.77523 -4.40769 255 0 0
7.44465 3.63343 -4.4426 255 0 0
6.33671 3.4058 -4.99737 255 0 0
8.29101 3.59367 -4.50196 255 0 0
7.67738 3.52416 -4.33895 255 0 0
7.44991 3.5706 -4.28739 255 0 0
7.56767 3.71571 -4.33426 255 0 0
7.7258 3.81611 -4.38582 255 0 0
7.62577 3.78922 -4.35769 255 0 0
7.53095 3.7644 -4.33113 255 0 0
7.51752 3.79115 -4.33113 255 0 0
7.51201 3.83318 -4.33504 255 0 0
7.51319 3.93536 -4.34832 255 0 0
7.48666 3.95546 -4.34441 255 0 0
6.76788 3.60655 -4.12333 255 0 0
6.68542 3.5932 -4.10146 255 0 0
6.60811 3.58199 -4.08115 255 0 0
6.62437 3.61116 -4.08896 255 0 0
7.45967 4.19361 -4.36941 255 0 0
7.45208 4.22429 -4.37176 255 0 0
6.15293 3.66349 -3.98271 255 0 0
6.14423 3.67807 -3.98271 255 0 0
6.08038 3.66927 -3.96631 255 0 0
5.98648 3.71997 -3.95146 255 0 0
6.04072 3.8035 -3.97646 255 0 0
6.06052 3.84612 -3.9874 255 0 0
6.03492 3.86003 -3.98349 255 0 0
6.06648 4.01331 -4.01396 255 0 0
6.66911 4.53811 -4.23348 255 0 0
6.66894 4.64286 -4.24989 255 0 0
6.62555 4.63601 -4.23895 255 0 0
6.37913 4.48615 -4.15927 255 0 0
6.12424 4.32864 -4.07646 255 0 0
6.12661 4.37403 -4.08427 255 0 0
6.14832 4.41157 -4.09521 255 0 0
6.13189 4.44397 -4.09677 255 0 0
6.11049 4.53993 -4.10771 255 0 0
6.11113 4.64241 -4.12489 255 0 0
6.10803 4.67441 -4.12958 255 0 0
6.02775 4.65846 -4.10927 255 0 0
6.088 4.72812 -4.13427 255 0 0
6.21023 4.84669 -4.18114 255 0 0
6.13047 4.84319 -4.16317 255 0 0
6.07215 4.84404 -4.15067 255 0 0
6.02054 4.84978 -4.14052 255 0 0
5.99011 4.8605 -4.13583 255 0 0
5.97572 4.896 -4.13896 255 0 0
5.70706 3.58396 -4.10944 255 0 0
6.6412 3.39875 -4.5411 255 0 0
6.78676 3.49357 -4.3893 255 0 0
5.03346 4.16404 -4.28586 255 0 0
5.38957 3.55631 -4.19939 255 0 0
4.95012 4.19497 -4.33116 255 0 0
8.13156 3.47885 -4.52816 255 0 0
8.07365 3.49946 -4.51528 255 0 0
7.88221 3.49444 -4.46459 255 0 0
7.54767 3.59548 -4.38976 255 0 0
7.53888 3.64628 -4.39378 255 0 0
7.46769 3.64467 -4.37528 255 0 0
7.51024 3.74294 -4.39861 255 0 0
7.52251 3.84978 -4.41551 255 0 0
7.53053 3.94445 -4.42999 255 0 0
7.52668 3.98803 -4.43482 255 0 0
6.95577 3.70668 -4.25297 255 0 0
6.59407 3.59464 -4.14676 255 0 0
7.46433 4.19623 -4.44769 255 0 0
6.92042 3.92291 -4.27389 255 0 0
6.73502 3.83894 -4.21596 255 0 0
6.6777 3.84835 -4.20309 255 0 0
6.68417 3.91567 -4.21435 255 0 0
6.91242 4.13792 -4.30286 255 0 0
6.03966 3.64471 -4.01641 255 0 0
5.9075 3.66119 -3.98664 255 0 0
5.8849 3.69563 -3.98637 255 0 0
5.87796 3.83869 -4.00676 255 0 0
5.88319 3.88202 -4.0148 255 0 0
6.66726 4.50222 -4.29964 255 0 0
6.64281 4.57805 -4.30608 255 0 0
6.26525 4.36181 -4.18217 255 0 0
5.88007 4.15606 -4.05825 255 0 0
5.84725 4.15369 -4.05021 255 0 0
5.91244 4.28494 -4.08722 255 0 0
5.82035 4.23929 -4.05825 255 0 0
5.96929 4.36946 -4.11458 255 0 0
5.8546 4.30687 -4.07756 255 0 0
5.88965 4.35421 -4.09366 255 0 0
5.91094 4.39166 -4.10492 255 0 0
6.05134 4.74582 -4.19826 255 0 0
5.90875 4.7713 -4.1709 255 0 0
5.88932 4.84859 -4.18056 255 0 0
5.86479 4.88702 -4.18217 255 0 0
5.83725 4.91114 -4.18056 255 0 0
5.88185 5.03262 -4.21274 255 0 0
5.12601 3.49697 -4.34653 255 0 0
7.34175 3.37009 -5.05483 255 0 0
5.12725 3.88541 -4.25105 255 0 0
7.86303 3.47482 -4.92812 255 0 0
5.13754 4.72233 -4.37685 255 0 0
8.23375 3.44201 -4.63139 255 0 0
8.08398 3.43585 -4.58999 255 0 0
8.01902 3.43071 -4.57177 255 0 0
7.97067 3.4436 -4.56018 255 0 0
7.9172 3.45397 -4.54693 255 0 0
7.83033 3.44927 -4.52292 255 0 0
7.72363 3.46806 -4.49642 255 0 0
7.65753 3.47118 -4.47903 255 0 0
7.63395 3.48233 -4.47407 255 0 0
7.51222 3.49157 -4.4426 255 0 0
7.42029 3.50246 -4.41942 255 0 0
7.36722 3.50952 -4.40617 255 0 0
7.45004 3.57067 -4.43598 255 0 0
7.45246 3.60448 -4.44095 255 0 0
7.45507 3.72647 -4.45751 255 0 0
7.46289 3.78584 -4.46744 255 0 0
7.47188 3.89117 -4.484 255 0 0
7.36462 3.90216 -4.45751 255 0 0
6.66714 3.56302 -4.22898 255 0 0
6.57457 3.60423 -4.21076 255 0 0
6.74665 3.8033 -4.28363 255 0 0
6.67324 3.80371 -4.26486 255 0 0
6.6579 3.8791 -4.27203 255 0 0
6.67105 3.93992 -4.28445 255 0 0
6.68837 3.98229 -4.29522 255 0 0
6.65481 3.98372 -4.28694 255 0 0
5.98815 3.64274 -4.06669 255 0 0
5.93925 3.64199 -4.05427 255 0 0
5.87132 3.62914 -4.03522 255 0 0
5.87701 3.65194 -4.04019 255 0 0
5.83499 3.64504 -4.0286 255 0 0
5.80891 3.68645 -4.0286 255 0 0
5.80615 3.74289 -4.03688 255 0 0
7.44052 4.89698 -4.62642 255 0 0
7.279 4.81545 -4.57343 255 0 0
6.71571 4.46573 -4.37802 255 0 0
6.67579 4.485 -4.37139 255 0 0
6.66767 4.53713 -4.37802 255 0 0
6.67466 4.5767 -4.3863 255 0 0
6.48738 4.48228 -4.32503 255 0 0
6.41467 4.48845 -4.30847 255 0 0
6.37612 4.58649 -4.31592 255 0 0
6.63317 4.85539 -4.42383 255 0 0
6.61349 4.91364 -4.42935 255 0 0
5.74457 4.39625 -4.13293 255 0 0
5.86051 4.80161 -4.23395 255 0 0
5.86652 4.85319 -4.24499 255 0 0
5.83329 4.89602 -4.24554 255 0 0
5.75707 4.89051 -4.22732 255 0 0
5.76099 4.92921 -4.2356 255 0 0
5.72373 4.92089 -4.22567 255 0 0
5.70831 4.94306 -4.22649 255 0 0
6.80835 3.66968 -5.29822 255 0 0
4.736 3.88965 -4.31753 255 0 0
7.89056 3.33157 -4.83815 255 0 0
4.91638 4.24713 -4.33413 255 0 0
4.68415 3.75801 -4.32817 255 0 0
8.0786 3.39971 -4.66375 255 0 0
7.92469 3.36814 -4.61693 255 0 0
7.85941 3.4066 -4.60331 255 0 0
7.58748 3.43942 -4.5318 255 0 0
7.47789 3.44334 -4.502 255 0 0
7.3259 3.40497 -4.45518 255 0 0
7.38885 3.45556 -4.47902 255 0 0
7.26605 3.44021 -4.44326 255 0 0
7.23764 3.44779 -4.43645 255 0 0
7.15749 3.47229 -4.41772 255 0 0
7.1291 3.47942 -4.41091 255 0 0
7.0815 3.48741 -4.39899 255 0 0
7.45485 3.79287 -4.54201 255 0 0
7.43087 3.80288 -4.5369 255 0 0
7.39693 3.80767 -4.52839 255 0 0
7.42271 3.84323 -4.54031 255 0 0
7.40936 3.88098 -4.54201 255 0 0
7.46457 3.93248 -4.56415 255 0 0
6.60534 3.51994 -4.2747 255 0 0
6.83171 3.82993 -4.38026 255 0 0
6.71037 3.78284 -4.3411 255 0 0
6.69722 3.8174 -4.34281 255 0 0
6.63468 3.80262 -4.32408 255 0 0
6.60747 3.84972 -4.32408 255 0 0
6.64666 3.89369 -4.3411 255 0 0
6.68085 3.93503 -4.35643 255 0 0
6.63096 3.95874 -4.34706 255 0 0
7.47075 4.5568 -4.65949 255 0 0
7.48314 4.60094 -4.66971 255 0 0
7.43885 4.59805 -4.65779 255 0 0
5.75397 3.59442 -4.06187 255 0 0
5.69324 3.57528 -4.04314 255 0 0
5.74633 3.62765 -4.06528 255 0 0
5.6519 3.68151 -4.04995 255 0 0
6.61244 4.35198 -4.4058 255 0 0
6.62905 4.4081 -4.41942 255 0 0
6.63399 4.49123 -4.43475 255 0 0
6.31649 4.48702 -4.35472 255 0 0
6.58212 4.77028 -4.4705 255 0 0
6.57751 4.81467 -4.47731 255 0 0
6.65182 4.89333 -4.50966 255 0 0
6.52177 4.91787 -4.48242 255 0 0
5.68825 4.89039 -4.27981 255 0 0
5.59906 4.8137 -4.24405 255 0 0
5.64015 4.90748 -4.27215 255 0 0
5.62056 4.92567 -4.2713 255 0 0
5.55841 4.89455 -4.25086 255 0 0
5.58097 3.54181 -4.31293 255 0 0
5.52421 4.8994 -4.24405 255 0 0
6.08312 3.48649 -4.38818 255 0 0
5.87735 3.43367 -4.50958 255 0 0
4.9771 4.66271 -4.38642 255 0 0
5.68361 4.98091 -4.4347 255 0 0
7.29524 3.36971 -4.81188 255 0 0
8.09315 3.37198 -4.74437 255 0 0
8.07483 3.38684 -4.74087 255 0 0
7.90954 3.3617 -4.69015 255 0 0
7.72841 3.39344 -4.64205 255 0 0
7.54343 3.37643 -4.58695 255 0 0
7.47644 3.38909 -4.56946 255 0 0
7.28084 3.42611 -4.51874 255 0 0
7.22823 3.43279 -4.50474 255 0 0
7.08386 3.43657 -4.46451 255 0 0
7.02643 3.43961 -4.44877 255 0 0
6.97088 3.46381 -4.43653 255 0 0
6.98265 3.49032 -4.44352 255 0 0
6.90446 3.47173 -4.41904 255 0 0
6.86964 3.48488 -4.41117 255 0 0
6.96469 3.64806 -4.46102 255 0 0
7.02523 3.70103 -4.4855 255 0 0
6.54711 3.52887 -4.32808 255 0 0
6.48888 3.57732 -4.31934 255 0 0
6.5879 3.6523 -4.35782 255 0 0
6.67196 3.71961 -4.39105 255 0 0
6.64194 3.80678 -4.3963 255 0 0
6.66678 3.84205 -4.40854 255 0 0
6.6875 3.91762 -4.42603 255 0 0
6.71227 4.08324 -4.45927 255 0 0
6.6692 4.07874 -4.44702 255 0 0
5.61679 3.6114 -4.0902 255 0 0
6.56283 4.31933 -4.45927 255 0 0
6.57485 4.37206 -4.47151 255 0 0
6.57376 4.39385 -4.47501 255 0 0
6.51199 4.46515 -4.47151 255 0 0
6.41899 4.49147 -4.45227 255 0 0
6.39143 4.54025 -4.45402 255 0 0
6.43522 4.59436 -4.47501 255 0 0
6.46363 4.70782 -4.50299 255 0 0
6.48401 4.74624 -4.51524 255 0 0
6.57053 4.84553 -4.55547 255 0 0
6.56408 4.90113 -4.56421 255 0 0
6.5662 5.0004 -4.58345 255 0 0
5.98665 4.67221 -4.37706 255 0 0
5.72132 4.94246 -4.36656 255 0 0
5.49763 4.93438 -4.31234 255 0 0
5.51558 4.99791 -4.32983 255 0 0
7.36257 3.35854 -4.98354 255 0 0
5.21389 3.45816 -4.42553 255 0 0
6.68291 3.39015 -4.55243 255 0 0
6.34516 3.54728 -5.24379 255 0 0
5.3658 4.67995 -4.3593 255 0 0
6.56863 3.65183 -4.42124 255 0 0
5.11909 3.5459 -4.29589 255 0 0
8.22969 3.36037 -4.86383 255 0 0
7.89148 3.33196 -4.75969 255 0 0
7.03613 3.37229 -4.5137 255 0 0
6.99298 3.37202 -4.50114 255 0 0
6.94185 3.38803 -4.48857 255 0 0
6.78976 3.39391 -4.44548 255 0 0
6.73711 3.40761 -4.43231 255 0 0
6.67292 3.41499 -4.41495 255 0 0
6.53003 3.43025 -4.37635 255 0 0
6.42357 3.45245 -4.34942 255 0 0
6.36305 3.45893 -4.33326 255 0 0
6.33849 3.47484 -4.32877 255 0 0
6.59786 3.71942 -4.44009 255 0 0
6.56963 3.72406 -4.43291 255 0 0
6.60992 3.78843 -4.45445 255 0 0
6.59881 3.92897 -4.4742 255 0 0
6.61353 3.98034 -4.48677 255 0 0
6.63269 4.01332 -4.49755 255 0 0
6.60407 4.03891 -4.49395 255 0 0
6.57074 4.03996 -4.48498 255 0 0
5.6165 3.52709 -4.13665 255 0 0
5.65147 3.58653 -4.1564 255 0 0
5.53168 3.55665 -4.11869 255 0 0
5.48202 3.56161 -4.10613 255 0 0
5.58294 3.71248 -4.15999 255 0 0
6.35804 4.33747 -4.47959 255 0 0
6.33854 4.34623 -4.476 255 0 0
6.35909 4.40479 -4.49216 255 0 0
6.32374 4.43601 -4.48857 255 0 0
6.33524 4.47777 -4.49934 255 0 0
6.34568 4.53043 -4.51191 255 0 0
6.36388 4.60062 -4.52986 255 0 0
6.361 4.63307 -4.53525 255 0 0
6.35242 4.67309 -4.54064 255 0 0
6.55387 4.86935 -4.63041 255 0 0
5.99844 4.52324 -4.42034 255 0 0
6.28174 4.85472 -4.55769 255 0 0
6.26963 4.89306 -4.56218 255 0 0
6.04881 4.88439 -4.50473 255 0 0
6.11197 4.98346 -4.54064 255 0 0
5.70716 4.95391 -4.4347 255 0 0
5.6786 4.95277 -4.42752 255 0 0
5.50549 4.87117 -4.36827 255 0 0
5.47726 4.86939 -4.36109 255 0 0
5.40434 4.85064 -4.33954 255 0 0
5.4408 4.9184 -4.36288 255 0 0
5.39442 4.91147 -4.35031 255 0 0
5.38513 4.93816 -4.35391 255 0 0
5.73755 3.44388 -5.12043 255 0 0
5.00496 3.66358 -4.28677 255 0 0
5.45126 4.21292 -4.34665 255 0 0
8.1737 3.36014 -4.9284 255 0 0
8.09894 3.35188 -4.90446 255 0 0
8.02543 3.35493 -4.88236 255 0 0
7.39601 3.35263 -4.69081 255 0 0
7.31941 3.35984 -4.66871 255 0 0
7.30134 3.37252 -4.66503 255 0 0
7.24796 3.36874 -4.64845 255 0 0
7.04712 3.37756 -4.58952 255 0 0
6.96949 3.39132 -4.56834 255 0 0
6.92996 3.40259 -4.55821 255 0 0
6.87204 3.3944 -4.53979 255 0 0
6.77157 3.40488 -4.51155 255 0 0
6.72728 3.4227 -4.50111 255 0 0
6.58114 3.4273 -4.45875 255 0 0
6.52868 3.41968 -4.44217 255 0 0
6.48613 3.41702 -4.42928 255 0 0
6.47801 3.43239 -4.42928 255 0 0
6.43635 3.43968 -4.41823 255 0 0
6.3833 3.45033 -4.40442 255 0 0
6.34902 3.46106 -4.39613 255 0 0
6.3408 3.4761 -4.39613 255 0 0
6.24452 3.50075 -4.37219 255 0 0
6.17949 3.50289 -4.35377 255 0 0
5.64327 3.49745 -4.19998 255 0 0
6.49581 4.05784 -4.53795 255 0 0
5.83191 3.66236 -4.28194 255 0 0
5.61168 3.58934 -4.20735 255 0 0
5.42895 3.61008 -4.16039 255 0 0
5.43886 3.6353 -4.16775 255 0 0
5.39332 3.62338 -4.15302 255 0 0
6.34643 4.30753 -4.54163 255 0 0
6.32305 4.34664 -4.54255 255 0 0
6.29362 4.40375 -4.54531 255 0 0
6.33317 4.45383 -4.56557 255 0 0
6.33752 4.52461 -4.58031 255 0 0
6.35839 4.5623 -4.5932 255 0 0
6.37365 4.60767 -4.60609 255 0 0
6.32473 4.65272 -4.60179 255 0 0
5.94272 4.41528 -4.45323 255 0 0
5.89215 4.39943 -4.43665 255 0 0
5.95876 4.56017 -4.48638 255 0 0
5.58161 4.42034 -4.3593 255 0 0
5.44299 4.45952 -4.33167 255 0 0
5.39378 4.44062 -4.31509 255 0 0
5.51171 4.55969 -4.37035 255 0 0
5.36625 4.52575 -4.32614 255 0 0
5.41244 4.6088 -4.35561 255 0 0
5.30381 4.58178 -4.32246 255 0 0
5.31392 4.61256 -4.33167 255 0 0
5.37692 4.73473 -4.37403 255 0 0
5.28794 4.70109 -4.34456 255 0 0
5.41122 4.88003 -4.41455 255 0 0
5.33979 4.89661 -4.40074 255 0 0
6.13213 3.43774 -4.45991 255 0 0
5.09822 3.46033 -4.56725 255 0 0
8.2358 3.36286 -5.03006 255 0 0
8.14578 3.34866 -4.99986 255 0 0
7.92406 3.39008 -4.93567 255 0 0
7.93127 3.41543 -4.94133 255 0 0
7.93191 3.46036 -4.94763 255 0 0
7.28601 3.36544 -4.73367 255 0 0
7.15155 3.36527 -4.69213 255 0 0
6.99147 3.39175 -4.64682 255 0 0
6.74444 3.39127 -4.57131 255 0 0
6.52837 3.39982 -4.50712 255 0 0
6.49084 3.39986 -4.49579 255 0 0
6.38173 3.4105 -4.46464 255 0 0
6.36225 3.42923 -4.46181 255 0 0
6.2178 3.42787 -4.41839 255 0 0
6.14156 3.46219 -4.4014 255 0 0
6.09958 3.45761 -4.38818 255 0 0
6.11063 3.48304 -4.39573 255 0 0
5.53927 3.4512 -4.22299 255 0 0
5.61663 3.58313 -4.26924 255 0 0
5.53347 3.54856 -4.23904 255 0 0
5.35381 3.56011 -4.18995 255 0 0
5.32692 3.56048 -4.1824 255 0 0
5.33156 3.62794 -4.19656 255 0 0
6.31339 4.36207 -4.61378 255 0 0
6.28127 4.38403 -4.60906 255 0 0
6.29657 4.56333 -4.64871 255 0 0
6.27187 4.59095 -4.64745 255 0 0
5.43135 4.30134 -4.35986 255 0 0
5.36835 4.2826 -4.3391 255 0 0
5.22468 4.30142 -4.30511 255 0 0
5.12325 4.25883 -4.26924 255 0 0
5.14698 4.3513 -4.29567 255 0 0
5.16114 4.43721 -4.31833 255 0 0
5.17179 4.54325 -4.34476 255 0 0
5.22203 4.62037 -4.37497 255 0 0
5.21106 4.63274 -4.37497 255 0 0
5.21502 4.70309 -4.39196 255 0 0
5.17326 4.73259 -4.38818 255 0 0
5.1589 4.76459 -4.39196 255 0 0
5.14759 4.7768 -4.39196 255 0 0
5.19559 4.98436 -4.45237 255 0 0
5.00725 4.64658 -4.39029 255 0 0
6.21777 3.40865 -4.48118 255 0 0
4.7106 4.8065 -4.48122 255 0 0
8.05039 3.35417 -5.05168 255 0 0
7.91729 3.34286 -5.0072 255 0 0
7.95004 3.37892 -5.02267 255 0 0
7.78164 3.351 -4.96465 255 0 0
7.66435 3.34366 -4.92598 255 0 0
7.18607 3.38151 -4.779 255 0 0
6.51944 3.3952 -4.57207 255 0 0
6.48374 3.41576 -4.56434 255 0 0
6.37647 3.41741 -4.53146 255 0 0
6.30674 3.41864 -4.51019 255 0 0
5.88938 3.45007 -4.38835 255 0 0
5.85393 3.46669 -4.38062 255 0 0
5.53243 3.56644 -4.30326 255 0 0
5.44136 3.54437 -4.27232 255 0 0
5.24185 3.59424 -4.22397 255 0 0
5.25281 3.67548 -4.24331 255 0 0
5.18656 3.7965 -4.24911 255 0 0
5.15446 3.86769 -4.25492 255 0 0
5.10766 3.94738 -4.25878 255 0 0
5.10038 4.01959 -4.27232 255 0 0
5.12883 4.08159 -4.29359 255 0 0
5.07816 4.10059 -4.28392 255 0 0
5.0179 4.19141 -4.28779 255 0 0
4.98317 4.30482 -4.30423 255 0 0
4.97434 4.48604 -4.34387 255 0 0
4.99785 4.7494 -4.41253 255 0 0
4.96698 4.83336 -4.4251 255 0 0
4.9716 4.88397 -4.43864 255 0 0
4.96408 4.92306 -4.44637 255 0 0
5.37136 3.48066 -4.85606 255 0 0
5.9787 3.59826 -5.11375 255 0 0
6.55464 3.39377 -4.86154 255 0 0
4.7165 3.50423 -4.6807 255 0 0
6.07714 3.42587 -4.50637 255 0 0
6.04503 3.42669 -4.49647 255 0 0
5.87851 3.43432 -4.44599 255 0 0
5.81232 3.43276 -4.4252 255 0 0
5.80482 3.45622 -4.42718 255 0 0
5.74052 3.44565 -4.4054 255 0 0
5.61598 3.44376 -4.3668 255 0 0
5.57792 3.44778 -4.35591 255 0 0
5.52477 3.48777 -4.34733 255 0 0
5.50043 3.509 -4.34403 255 0 0
5.43789 3.51461 -4.32621 255 0 0
5.33166 3.5393 -4.29916 255 0 0
5.09343 3.58197 -4.23712 255 0 0
5.08623 3.65864 -4.25098 255 0 0
5.03807 3.74317 -4.25494 255 0 0
5.02745 3.79107 -4.2622 255 0 0
5.00107 3.865 -4.27078 255 0 0
4.9928 3.89659 -4.2754 255 0 0
4.96404 4.04751 -4.30114 255 0 0
4.96639 4.18854 -4.33413 255 0 0
4.93309 4.26153 -4.34205 255 0 0
4.86373 4.32395 -4.33809 255 0 0
4.90878 4.40586 -4.36977 255 0 0
4.81025 4.35878 -4.33215 255 0 0
4.90584 4.46663 -4.38363 255 0 0
4.82537 4.45655 -4.35987 255 0 0
4.87405 4.53372 -4.39155 255 0 0
4.78148 4.47946 -4.35393 255 0 0
4.82301 4.53988 -4.37967 255 0 0
4.78286 4.53424 -4.36779 255 0 0
4.81155 4.61594 -4.3955 255 0 0
4.82043 4.64645 -4.4054 255 0 0
4.83351 4.69237 -4.42025 255 0 0
4.79546 4.69981 -4.41233 255 0 0
4.82642 4.79787 -4.445 255 0 0
4.84826 4.85401 -4.4648 255 0 0
4.82713 4.87888 -4.46579 255 0 0
4.79806 4.84953 -4.45094 255 0 0
4.77114 4.89142 -4.4549 255 0 0
6.7016 3.38965 -4.76884 255 0 0
6.21118 3.42422 -4.6149 255 0 0
6.09966 3.41005 -4.57642 255 0 0
5.76841 3.43454 -4.47514 255 0 0
5.73165 3.44957 -4.46637 255 0 0
5.53482 3.4484 -4.40425 255 0 0
5.42926 3.48174 -4.37792 255 0 0
5.3702 3.46186 -4.35564 255 0 0
5.37672 3.50227 -4.36577 255 0 0
5.33713 3.51263 -4.35564 255 0 0
5.2196 3.51566 -4.32019 255 0 0
5.17752 3.51415 -4.30703 255 0 0
5.18766 3.54806 -4.31715 255 0 0
5.15751 3.57248 -4.3131 255 0 0
5.0955 3.5654 -4.29285 255 0 0
4.99745 3.6038 -4.27158 255 0 0
4.9717 3.63923 -4.27158 255 0 0
4.9655 3.6801 -4.27867 255 0 0
4.95018 3.70526 -4.27968 255 0 0
4.78233 4.14119 -4.33235 255 0 0
4.92587 3.74201 -4.2807 255 0 0
4.94331 3.76451 -4.29082 255 0 0
4.89492 3.76446 -4.27665 255 0 0
4.87268 3.78426 -4.27462 255 0 0
4.87377 3.90698 -4.30298 255 0 0
4.86335 3.94622 -4.30905 255 0 0
4.82843 3.93691 -4.2969 255 0 0
4.8178 4.01457 -4.31209 255 0 0
4.77614 4.00873 -4.29893 255 0 0
4.77479 4.09524 -4.31918 255 0 0
4.73988 4.14394 -4.32121 255 0 0
4.72031 4.25697 -4.34349 255 0 0
4.69399 4.29415 -4.34551 255 0 0
4.71211 4.33129 -4.35969 255 0 0
4.69667 4.34802 -4.35969 255 0 0
4.71735 4.39841 -4.37792 255 0 0
4.68205 4.44926 -4.3813 255 0 0
4.69094 4.54315 -4.40763 255 0 0
4.71368 4.7417 -4.46502 255 0 0
4.71406 4.92551 -4.51363 255 0 0
5.9912 3.55759 -5.17893 255 0 0
5.83684 3.42858 -4.55985 255 0 0
5.67917 3.43636 -4.51014 255 0 0
5.63826 3.42989 -4.49564 255 0 0
5.33463 3.45685 -4.40383 255 0 0
5.27666 3.46388 -4.38691 255 0 0
5.11616 3.47251 -4.33824 255 0 0
5.03868 3.50788 -4.32167 255 0 0
5.02348 3.53277 -4.32236 255 0 0
4.97419 3.54238 -4.30925 255 0 0
4.98382 3.57601 -4.3196 255 0 0
4.95311 3.5718 -4.30925 255 0 0
4.83646 3.65602 -4.29268 255 0 0
4.85819 3.71792 -4.31339 255 0 0
4.78424 3.67935 -4.28232 255 0 0
4.78028 3.75356 -4.29837 255 0 0
4.80976 3.75372 -4.30718 255 0 0
4.74351 3.79338 -4.29682 255 0 0
4.72035 3.94288 -4.32582 255 0 0
4.66332 4.04786 -4.33514 255 0 0
5.7246 3.48241 -5.12455 255 0 0
7.2331 3.36184 -5.09224 255 0 0
5.73412 3.44181 -4.59274 255 0 0
5.6326 3.4356 -4.55782 255 0 0
5.59942 3.44275 -4.54829 255 0 0
5.54305 3.43531 -4.52818 255 0 0
5.43003 3.44597 -4.49326 255 0 0
5.36818 3.45154 -4.47421 255 0 0
5.30825 3.44871 -4.45411 255 0 0
5.16611 3.47074 -4.41283 255 0 0
5.12249 3.4768 -4.40013 255 0 0
5.06616 3.49147 -4.38532 255 0 0
4.93693 3.54237 -4.35569 255 0 0
4.88048 3.54588 -4.33876 255 0 0
4.7861 3.60014 -4.32182 255 0 0
4.6998 3.6679 -4.31124 255 0 0
4.68867 3.70416 -4.31653 255 0 0
7.15288 3.40741 -5.14761 255 0 0
4.81565 3.48137 -4.36071 255 0 0
4.77298 3.49376 -4.3499 255 0 0
4.71232 3.58863 -4.35314 255 0 0
5.65093 3.4376 -4.95151 255 0 0
5.75514 3.48233 -5.00161 255 0 0
7.35749 3.39848 -5.29795 255 0 0
6.76255 3.3803 -5.07652 255 0 0
6.58296 3.39852 -5.01472 255 0 0
6.51791 3.39437 -4.99045 255 0 0
6.48102 3.39472 -4.9772 255 0 0
6.38492 3.40248 -4.9441 255 0 0
6.01225 3.42697 -4.8161 255 0 0
5.23583 3.45189 -4.55199 255 0 0
5.26971 3.54942 -4.58547 255 0 0
5.25164 3.61929 -4.5954 255 0 0
5.22521 3.61938 -4.58657 255 0 0
4.96358 3.4731 -4.46519 255 0 0
4.93315 3.46926 -4.45415 255 0 0
4.86421 3.47275 -4.43208 255 0 0
4.77432 3.48607 -4.4056 255 0 0
4.73414 3.5086 -4.39787 255 0 0
4.6939 3.53081 -4.39015 255 0 0
4.66415 3.54319 -4.38353 255 0 0
7.1306 3.64921 -5.33742 255 0 0
6.27063 3.40868 -4.97373 255 0 0
6.07376 3.42397 -4.90504 255 0 0
5.70993 3.4365 -4.77668 255 0 0
5.30044 3.48849 -4.64381 255 0 0
4.96434 3.47363 -4.52446 255 0 0
4.6561 3.49374 -4.42537 255 0 0
6.87875 3.6866 -5.32808 255 0 0
6.33689 3.45444 -5.07773 255 0 0
5.5288 3.45374 -4.77991 255 0 0
5.31186 3.46002 -4.70335 255 0 0
5.2954 3.48517 -4.70335 255 0 0
4.83171 3.48425 -4.54027 255 0 0
4.7929 3.47357 -4.5242 255 0 0
6.72704 3.38252 -5.28512 255 0 0
6.70136 3.40951 -5.28044 255 0 0
6.69943 3.44862 -5.28746 255 0 0
6.66362 3.49037 -5.282 255 0 0
6.63179 3.55425 -5.28278 255 0 0
6.6205 3.60905 -5.2898 255 0 0
6.60251 3.61958 -5.28512 255 0 0
6.60801 3.64299 -5.29214 255 0 0
6.58597 3.67167 -5.2898 255 0 0
6.55914 3.69759 -5.28512 255 0 0
5.33102 3.45454 -4.77155 255 0 0
4.94354 3.49412 -4.64121 255 0 0
6.29725 3.66898 -5.25214 255 0 0
4.91396 5.54061 -5.30464 255 0 0
6.08256 3.40995 -5.18136 255 0 0
6.02006 3.49791 -5.1765 255 0 0
5.97609 3.5967 -5.18217 255 0 0
5.96201 3.62684 -5.18379 255 0 0
5.88749 3.71676 -5.1765 255 0 0
5.35125 3.46763 -4.90916 255 0 0
4.84759 3.47826 -4.72202 255 0 0
4.75467 5.31006 -5.25184 255 0 0
4.73104 5.34711 -5.25731 255 0 0
7.4893 4.8531 -4.63139 255 0 0
5.6844 3.55098 -5.12538 255 0 0
5.60172 3.59233 -5.10311 255 0 0
5.40313 3.53774 -5.01155 255 0 0
7.50859 4.7901 -4.54586 255 0 0
7.54121 4.84876 -4.56276 255 0 0
7.47739 4.56081 -4.58253 255 0 0
7.27705 4.6424 -4.86025 255 0 0
7.29881 4.65628 -4.94889 255 0 0
7.30642 4.68554 -4.95644 255 0 0
7.19395 4.68596 -4.92434 255 0 0
7.09924 4.62427 -4.96465 255 0 0
