ply
format ascii 1.0
comment Created by Open3D
element vertex 427
property double x
property double y
property double z
property uchar red
property uchar green
property uchar blue
end_header
-20.6147 -6.42896 -3.88922 0 0 255
-19.7683 -6.63103 -5.05419 0 0 255
-20.3818 -6.56907 -4.05298 0 0 255
-20.3037 -6.27918 -4.93283 0 0 255
-20.1573 -6.73494 -3.85937 0 0 255
-19.1328 -7.23615 -4.4771 0 0 255
-19.5476 -6.66029 -5.20048 0 0 255
-19.224 -7.0113 -4.99734 0 0 255
-19.5436 -7.76468 -4.0161 0 0 255
-19.3661 -6.90747 -5.01176 0 0 255
-19 -7.28912 -5.15385 0 0 255
-20.4252 -6.31676 -4.58903 0 0 255
-21.4238 -6.01816 -3.94689 0 0 255
-19.1299 -7.18328 -4.64702 0 0 255
-20.2384 -6.84215 -3.69029 0 0 255
-21.0545 -6.67582 -3.74756 0 0 255
-21.0887 -5.60159 -5.38162 0 0 255
-18.9145 -7.30778 -5.31531 0 0 255
-19.9039 -8.57121 -4.80724 0 0 255
-21.4313 -5.74704 -4.31346 0 0 255
-21.0284 -6.23117 -3.91882 0 0 255
-20.1119 -6.90582 -3.68244 0 0 255
-19.1484 -7.713 -4.84878 0 0 255
-21.2448 -5.96786 -4.11556 0 0 255
-21.991 -5.28647 -4.92985 0 0 255
-19.6263 -7.15804 -3.65289 0 0 255
-19.8136 -8.58804 -4.98005 0 0 255
-21.3139 -7.6022 -4.93136 255 0 0
-19.9589 -7.60274 -3.68983 0 0 255
-20.0204 -6.82139 -3.85044 0 0 255
-18.9924 -7.23457 -4.97697 0 0 255
-21.0137 -6.11856 -4.09824 0 0 255
-19.0777 -7.52725 -5.00412 0 0 255
-21.1996 -5.90098 -4.47943 0 0 255
-19.4003 -7.44268 -3.99207 0 0 255
-19.6499 -7.96921 -4.03286 0 0 255
-19.0889 -7.74169 -5.19241 0 0 255
-19.5888 -7.83645 -3.84585 0 0 255
-19.7785 -8.5172 -5.15433 0 0 255
-19.9007 -8.29154 -3.88616 0 0 255
-20.3118 -6.38739 -4.57847 0 0 255
-19.779 -8.131 -4.05018 0 0 255
-20.3318 -6.60619 -3.87034 0 0 255
-21.5448 -5.77749 -4.13847 0 0 255
-19.5143 -7.80667 -4.19141 0 0 255
-19.4463 -7.56629 -4.00045 0 0 255
-19.481 -8.22531 -5.09747 0 0 255
-19.8029 -7.11621 -3.66489 0 0 255
-19.7016 -7.02712 -3.83003 0 0 255
-19.6957 -8.04222 -4.03957 0 0 255
-19.3692 -8.01625 -4.8928 0 0 255
-19.957 -6.37996 -5.24711 0 0 255
-20.4492 -6.05953 -5.30539 0 0 255
-19.5163 -6.64962 -5.37105 0 0 255
-20.2393 -6.68242 -3.86473 0 0 255
-19.9503 -8.53516 -4.62774 0 0 255
-19.0856 -7.84593 -5.37389 0 0 255
-21.7198 -5.49443 -4.33593 0 0 255
-19.2475 -7.54155 -4.67786 0 0 255
-19.7269 -8.05497 -3.86422 0 0 255
-19.9329 -8.47185 -4.25821 0 0 255
-19.2002 -6.89965 -5.16192 0 0 255
-19.1277 -7.33809 -4.30833 0 0 255
-19.3416 -8.1125 -4.8944 0 0 255
-21.1972 -5.73817 -5.03048 0 0 255
-20.9215 -6.41595 -3.7314 0 0 255
-19.3757 -6.75593 -5.35499 0 0 255
-19.3959 -6.76297 -5.18344 0 0 255
-20.5974 -5.9444 -5.32243 0 0 255
-21.143 -5.93928 -4.28978 0 0 255
-20.3388 -6.23725 -5.11614 0 0 255
-19.6921 -6.65747 -5.04486 0 0 255
-19.5141 -8.07624 -4.73579 0 0 255
-21.8775 -5.20433 -5.10332 0 0 255
-20.5564 -6.30397 -4.24181 0 0 255
-20.4237 -6.15746 -5.12463 0 0 255
-20.5281 -6.4554 -4.06304 0 0 255
-21.5758 -5.95062 -3.95812 0 0 255
-21.238 -6.07477 -3.9326 0 0 255
-19.4207 -6.87506 -5.0177 0 0 255
-22.313 -5.02922 -5.35036 0 0 255
-21.4385 -5.85808 -4.13065 0 0 255
-20.8273 -6.33307 -3.90453 0 0 255
-19.4771 -7.63152 -4.00548 0 0 255
-19.9027 -7.6354 -3.6866 0 0 255
-21.2664 -5.86527 -4.3001 0 0 255
-21.503 -5.82094 -4.13568 0 0 255
-19.3766 -8.18126 -5.25966 0 0 255
-20.3979 -6.20249 -5.12293 0 0 255
-19.0048 -7.18776 -4.80395 0 0 255
-19.1144 -7.54173 -4.48837 0 0 255
-19.9134 -7.0495 -3.67136 0 0 255
-21.6709 -5.31834 -5.07931 0 0 255
-19.6629 -7.06592 -3.82798 0 0 255
-19.6805 -7.23072 -3.65889 0 0 255
-19.563 -7.82615 -4.02001 0 0 255
-19.8612 -6.92521 -3.84023 0 0 255
-20.3851 -6.25143 -4.94243 0 0 255
-21.9037 -5.37547 -4.92158 0 0 255
-19.6017 -6.6269 -5.20675 0 0 255
-20.0002 -8.38872 -4.07924 0 0 255
-19.3747 -7.2752 -3.81063 0 0 255
-21.1969 -6.00868 -4.11221 0 0 255
-18.9823 -7.23073 -4.80315 0 0 255
-20.4142 -6.28683 -4.767 0 0 255
-21.0498 -5.80554 -5.19846 0 0 255
-21.9688 -5.17105 -5.11453 0 0 255
-20.8784 -5.75827 -5.35651 0 0 255
-22.1026 -5.09205 -5.32236 0 0 255
-19.977 -8.32334 -4.07477 0 0 255
-19.4434 -7.19598 -3.9876 0 0 255
-20.9236 -7.575 -4.32014 255 0 0
-21.3027 -5.82097 -4.30253 0 0 255
-20.6633 -6.3904 -3.89228 0 0 255
-20.9633 -6.26597 -3.91423 0 0 255
-19.6421 -8.45845 -4.95124 0 0 255
-19.6444 -7.96696 -4.21024 0 0 255
-21.6834 -5.26695 -5.07931 0 0 255
-19.6988 -6.5558 -5.21751 0 0 255
-20.3487 -6.82571 -3.69814 0 0 255
-21.1342 -5.88278 -4.65661 0 0 255
-21.3206 -5.93467 -4.12171 0 0 255
-21.2656 -5.75669 -4.85388 0 0 255
-21.0208 -7.44153 -4.325 255 0 0
-20.3926 -6.4128 -4.40863 0 0 255
-19.5078 -6.80197 -5.02619 0 0 255
-19.7636 -6.99646 -4.00995 0 0 255
-19.7093 -7.45421 -3.6672 0 0 255
-21.8291 -5.19282 -5.28672 0 0 255
-19.02 -7.03926 -5.14308 0 0 255
-19.2781 -6.82459 -5.34365 0 0 255
-19.4933 -7.16192 -3.99095 0 0 255
-19.8736 -6.92953 -4.01777 0 0 255
-21.4289 -5.80088 -4.31468 0 0 255
-20.0569 -6.99343 -3.6806 0 0 255
-19.6132 -7.10061 -3.82492 0 0 255
-19.4247 -7.24147 -3.81369 0 0 255
-20.479 -6.28025 -4.59396 0 0 255
-20.8692 -6.23783 -4.08818 0 0 255
-18.9104 -7.46122 -5.32381 0 0 255
-18.9962 -7.65168 -5.34838 0 0 255
-18.8855 -7.29661 -5.1377 0 0 255
-19.4955 -7.69209 -3.8336 0 0 255
-20.5438 -6.46032 -3.88412 0 0 255
-19.3295 -7.28438 -3.98034 0 0 255
-20.4473 -6.53669 -4.05801 0 0 255
-19.6069 -8.38824 -5.12378 0 0 255
-19.7087 -8.1021 -4.22177 0 0 255
-19.9766 -6.85937 -3.84789 0 0 255
-19.4984 -7.96166 -4.72826 0 0 255
-19.4245 -6.72131 -5.36066 0 0 255
-19.1938 -7.94365 -5.21931 0 0 255
-19.5867 -7.249 -3.65242 0 0 255
-19.0635 -7.23581 -4.64138 0 0 255
-21.2528 -5.86153 -4.48402 0 0 255
-19.056 -7.78099 -5.36538 0 0 255
-20.3107 -6.59936 -4.04739 0 0 255
-21.5597 -5.67202 -4.32439 0 0 255
-21.246 -5.80548 -4.66716 0 0 255
-19.1097 -7.38322 -4.65379 0 0 255
-21.1485 -5.83276 -4.84185 0 0 255
-19.0119 -7.34542 -4.98545 0 0 255
-19.0341 -7.61454 -5.17716 0 0 255
-19.2607 -7.86458 -5.0474 0 0 255
-19.4075 -8.08605 -5.07965 0 0 255
-19.7499 -7.36271 -3.66766 0 0 255
-20.0372 -6.4056 -5.08135 0 0 255
-19.3731 -8.01786 -5.07117 0 0 255
-18.9589 -7.27335 -4.97442 0 0 255
-19.9196 -6.52452 -5.07032 0 0 255
-21.2348 -6.12834 -3.93362 0 0 255
-21.1857 -5.68117 -5.21289 0 0 255
-19.2256 -7.79711 -5.03892 0 0 255
-20.7167 -6.29942 -4.07589 0 0 255
-21.1271 -6.20595 -3.92648 0 0 255
-21.7492 -5.55676 -4.52926 0 0 255
-21.1066 -6.09135 -4.10606 0 0 255
-19.9269 -8.52515 -4.44207 0 0 255
-19.3935 -7.22985 -3.98425 0 0 255
-21.2919 -5.92668 -3.93362 0 0 255
-20.5545 -6.41018 -4.06415 0 0 255
-20.2852 -6.379 -4.75459 0 0 255
-19.6205 -7.05068 -3.99878 0 0 255
-20.461 -6.43431 -4.23635 0 0 255
-19.0102 -7.13831 -4.97442 0 0 255
-19.1476 -6.93204 -5.32948 0 0 255
-20.9176 -6.79656 -3.74017 0 0 255
-20.6504 -5.90669 -5.32871 0 0 255
-18.9782 -7.59217 -4.82076 0 0 255
-21.7349 -5.55312 -4.33896 0 0 255
-20.1779 -6.34527 -5.09832 0 0 255
-18.8951 -7.35186 -5.14219 0 0 255
-19.2628 -7.18112 -4.14344 0 0 255
-21.6702 -5.20936 -5.26465 0 0 255
-20.832 -6.28057 -4.08595 0 0 255
-20.3658 -6.35133 -4.5834 0 0 255
-19.4376 -7.61605 -3.82645 0 0 255
-19.8782 -8.22691 -4.06248 0 0 255
-19.7027 -7.99063 -3.86013 0 0 255
-19.082 -7.32055 -4.47499 0 0 255
-20.988 -6.16508 -4.09712 0 0 255
-19.1514 -7.29515 -4.13676 0 0 255
-19.1178 -7.28236 -4.30505 0 0 255
-20.4276 -6.21152 -4.94643 0 0 255
-20.9702 -6.37651 -3.73417 0 0 255
-20.9286 -6.47243 -3.73324 0 0 255
-20.9132 -6.52204 -3.73324 0 0 255
-21.048 -6.61888 -3.74571 0 0 255
-20.7662 -6.63863 -3.72493 0 0 255
-21.1115 -6.80424 -3.75495 0 0 255
-21.0069 -6.88065 -3.74895 0 0 255
-20.6136 -6.806 -3.71754 0 0 255
-20.4202 -6.79587 -3.70276 0 0 255
-20.1614 -6.86941 -3.68521 0 0 255
-20.0403 -6.9344 -3.67782 0 0 255
-19.9191 -6.9984 -3.67044 0 0 255
-19.8802 -7.09081 -3.66997 0 0 255
-19.7695 -7.15719 -3.66351 0 0 255
-20.1077 -7.76882 -3.70553 255 0 0
-20.4211 -7.94559 -3.73371 255 0 0
-20.3859 -7.98759 -3.73232 255 0 0
-19.8941 -6.88382 -3.84176 0 0 255
-19.1795 -7.25384 -4.13798 0 0 255
-19.1623 -7.2473 -4.30833 0 0 255
-19.86 -6.5572 -5.06353 0 0 255
-21.2034 -6.17378 -3.93209 0 0 255
-19.703 -7.02764 -4.00548 0 0 255
-21.2972 -6.03712 -3.93668 0 0 255
-20.8925 -6.29882 -3.90913 0 0 255
-20.7398 -6.3602 -3.8979 0 0 255
-20.495 -6.49843 -3.88106 0 0 255
-20.4573 -6.5399 -3.87902 0 0 255
-20.3807 -6.5687 -3.8734 0 0 255
-20.2828 -6.64349 -3.86728 0 0 255
-20.1028 -6.79632 -3.85656 0 0 255
-19.8062 -6.95875 -3.83666 0 0 255
-19.7512 -6.99206 -3.83309 0 0 255
-19.5579 -7.1331 -3.82135 0 0 255
-19.4972 -7.16336 -3.81727 0 0 255
-19.4583 -7.20147 -3.81523 0 0 255
-19.352 -7.31906 -3.81012 0 0 255
-19.3346 -7.36492 -3.81012 0 0 255
-19.3606 -7.42746 -3.81421 0 0 255
-19.381 -7.48806 -3.81778 0 0 255
-19.4013 -7.54879 -3.82135 0 0 255
-19.5314 -7.75983 -3.8387 0 0 255
-19.6351 -7.90902 -3.85197 0 0 255
-19.8049 -8.14164 -3.8734 0 0 255
-19.8071 -8.19749 -3.87544 0 0 255
-18.9686 -7.22551 -5.14577 0 0 255
-19.0155 -7.7119 -5.35499 0 0 255
-21.6115 -5.68564 -4.14238 0 0 255
-21.6599 -5.75332 -4.14853 0 0 255
-21.3796 -5.89649 -4.12618 0 0 255
-21.1658 -6.05411 -4.11053 0 0 255
-20.9118 -6.19661 -4.09098 0 0 255
-20.6905 -6.3451 -4.07477 0 0 255
-20.6253 -6.37864 -4.06974 0 0 255
-20.5072 -6.50229 -4.06248 0 0 255
-20.2563 -6.6348 -4.04348 0 0 255
-20.1741 -6.66088 -4.03677 0 0 255
-20.1748 -6.71422 -4.03845 0 0 255
-20.1257 -6.75091 -4.0351 0 0 255
-20.0544 -6.77994 -4.02951 0 0 255
-19.9941 -6.81243 -4.02504 0 0 255
-19.9338 -6.84468 -4.02057 0 0 255
-19.9341 -6.89764 -4.02225 0 0 255
-19.8076 -6.95924 -4.01275 0 0 255
-19.6476 -7.11306 -4.00325 0 0 255
-19.5595 -7.13366 -3.99598 0 0 255
-19.3743 -7.38006 -3.9876 0 0 255
-19.4152 -7.50126 -3.99542 0 0 255
-19.5457 -7.7119 -4.01442 0 0 255
-19.5823 -7.88776 -4.02392 0 0 255
-19.8621 -8.38624 -4.06695 0 0 255
-21.8629 -5.42045 -4.7277 0 0 255
-19.8025 -8.19558 -4.23452 0 0 255
-18.918 -7.1037 -5.30397 0 0 255
-21.1052 -5.767 -5.01927 0 0 255
-21.0116 -5.68793 -5.37355 0 0 255
-21.6484 -5.58572 -4.33107 0 0 255
-21.6294 -5.63557 -4.33046 0 0 255
-21.4955 -5.70967 -4.31893 0 0 255
-21.1851 -5.89694 -4.29282 0 0 255
-20.6493 -6.27893 -4.25031 0 0 255
-20.508 -6.34237 -4.23817 0 0 255
-20.4596 -6.38057 -4.23452 0 0 255
-21.047 -7.507 -4.32986 255 0 0
-19.2076 -7.21244 -4.13919 0 0 255
-19.3339 -7.46984 -4.16105 0 0 255
-19.459 -7.6777 -4.18109 0 0 255
-19.5544 -7.76898 -4.19384 0 0 255
-19.5552 -7.87685 -4.19809 0 0 255
-19.822 -8.59172 -5.16451 0 0 255
-19.6686 -8.03113 -4.21509 0 0 255
-19.9496 -8.31194 -4.25335 0 0 255
-19.9782 -8.37949 -4.25881 0 0 255
-19.9797 -8.4359 -4.26124 0 0 255
-19.0868 -7.11548 -4.98376 0 0 255
-20.1573 -6.39134 -5.09747 0 0 255
-19.2238 -6.85669 -5.33704 0 0 255
-21.0691 -5.81086 -5.01607 0 0 255
-19.4588 -6.83668 -5.0211 0 0 255
-21.8769 -5.47901 -4.54106 0 0 255
-21.7905 -5.51231 -4.53254 0 0 255
-21.2667 -5.81113 -4.48402 0 0 255
-21.1688 -5.94651 -4.47747 0 0 255
-20.5434 -6.3 -4.42109 0 0 255
-20.5006 -6.34009 -4.41781 0 0 255
-20.43 -6.37136 -4.41125 0 0 255
-19.2124 -7.18827 -4.31128 0 0 255
-19.9256 -8.46877 -4.43944 0 0 255
-19.0598 -7.15695 -4.80956 0 0 255
-21.8983 -5.37414 -4.73052 0 0 255
-21.9627 -5.50052 -4.74178 0 0 255
-21.3046 -5.76724 -4.6728 0 0 255
-21.1649 -5.8373 -4.65872 0 0 255
-19.1941 -7.1555 -4.48062 0 0 255
-19.1716 -7.19894 -4.47992 0 0 255
-19.0993 -7.27529 -4.47499 0 0 255
-19.1559 -7.61064 -4.49611 0 0 255
-19.8606 -8.55255 -4.61859 0 0 255
-18.9932 -7.18337 -4.97442 0 0 255
-19.5894 -8.32587 -5.11784 0 0 255
-21.922 -5.32489 -4.92233 0 0 255
-21.1847 -5.78873 -4.84486 0 0 255
-21.2353 -5.91092 -4.85539 0 0 255
-20.5281 -6.24208 -4.77941 0 0 255
-20.3501 -6.34645 -4.76136 0 0 255
-19.0404 -7.30461 -4.64176 0 0 255
-19.2655 -7.65417 -4.68539 0 0 255
-19.5225 -8.02553 -4.73428 0 0 255
-19.732 -8.44177 -4.78017 0 0 255
-19.3063 -7.93666 -5.05759 0 0 255
-20.2239 -6.35973 -4.92562 0 0 255
-20.2721 -6.32213 -4.93042 0 0 255
-21.7805 -5.23586 -5.09131 0 0 255
-20.1811 -6.3989 -4.92162 0 0 255
-18.9489 -7.26949 -4.80075 0 0 255
-18.9532 -7.32276 -4.80395 0 0 255
-19.4346 -8.20571 -4.91121 0 0 255
-19.2171 -7.74068 -5.03467 0 0 255
-19.1244 -7.59813 -5.01431 0 0 255
-20.5714 -6.14884 -5.145 0 0 255
-19.6188 -6.58089 -5.38333 0 0 255
-22.1654 -5.05121 -5.33 0 0 255
-22.0453 -5.13393 -5.31557 0 0 255
-21.83 -5.1384 -5.28502 0 0 255
-21.6578 -5.26072 -5.26465 0 0 255
-21.6565 -5.31482 -5.26635 0 0 255
-21.133 -5.72079 -5.20694 0 0 255
-21.0914 -5.76324 -5.2027 0 0 255
-20.2852 -6.27348 -5.1102 0 0 255
-20.2427 -6.31293 -5.10596 0 0 255
-19.9834 -6.44065 -5.07541 0 0 255
-19.935 -6.47727 -5.07032 0 0 255
-19.8059 -6.59146 -5.05759 0 0 255
-19.6489 -6.6948 -5.04061 0 0 255
-19.622 -6.73761 -5.03892 0 0 255
-19.5622 -6.76896 -5.03213 0 0 255
-19.317 -6.94161 -5.00667 0 0 255
-19.2732 -6.97753 -5.00243 0 0 255
-19.1747 -7.04487 -4.99224 0 0 255
-19.1253 -7.07825 -4.98715 0 0 255
-18.9998 -7.39258 -4.9863 0 0 255
-19.0685 -7.47143 -4.99988 0 0 255
-19.1494 -7.66067 -5.0211 0 0 255
-19.4577 -8.16117 -5.09068 0 0 255
-19.1403 -6.9294 -5.15474 0 0 255
-18.9261 -7.41563 -5.15026 0 0 255
-19.4677 -6.68462 -5.36538 0 0 255
-21.0586 -5.64708 -5.37893 0 0 255
-20.9255 -5.7179 -5.36189 0 0 255
-20.8368 -5.8 -5.35203 0 0 255
-20.7729 -5.8353 -5.34395 0 0 255
-20.7033 -5.86876 -5.33499 0 0 255
-20.5499 -5.98352 -5.31705 0 0 255
-20.4968 -6.02081 -5.31078 0 0 255
-20.3904 -6.09474 -5.29822 0 0 255
-20.3427 -6.13305 -5.29284 0 0 255
-20.2617 -6.16106 -5.28208 0 0 255
-20.2138 -6.19891 -5.2767 0 0 255
-20.1493 -6.23143 -5.26863 0 0 255
-20.1124 -6.2723 -5.26504 0 0 255
-20.0422 -6.30261 -5.25607 0 0 255
-19.9941 -6.33962 -5.25069 0 0 255
-19.8978 -6.41306 -5.23993 0 0 255
-19.844 -6.4477 -5.23366 0 0 255
-19.7902 -6.48213 -5.22738 0 0 255
-19.7418 -6.51815 -5.222 0 0 255
-19.6338 -6.58593 -5.20944 0 0 255
-19.4935 -6.69347 -5.1942 0 0 255
-19.4447 -6.72832 -5.18882 0 0 255
-19.3525 -6.79935 -5.17895 0 0 255
-19.3145 -6.83749 -5.17537 0 0 255
-19.2656 -6.87161 -5.16999 0 0 255
-19.1075 -6.96882 -5.15205 0 0 255
-19.0583 -7.00213 -5.14667 0 0 255
-18.9761 -7.07423 -5.1386 0 0 255
-18.9268 -7.107 -5.13322 0 0 255
-18.9099 -7.15186 -5.13322 0 0 255
-18.9677 -7.48385 -5.16012 0 0 255
-18.9876 -7.54375 -5.1664 0 0 255
-19.0696 -7.68127 -5.18613 0 0 255
-19.1187 -7.80661 -5.20048 0 0 255
-19.1697 -7.88052 -5.21213 0 0 255
-19.255 -8.02252 -5.23276 0 0 255
-19.3106 -8.09948 -5.24531 0 0 255
-19.4158 -8.25207 -5.26953 0 0 255
-19.4866 -8.33677 -5.28477 0 0 255
-19.5677 -8.42644 -5.30181 0 0 255
-19.691 -8.53494 -5.32602 0 0 255
-19.7397 -8.61168 -5.33768 0 0 255
-19.5594 -6.61258 -5.37578 0 0 255
-19.3215 -6.78844 -5.34838 0 0 255
-19.1748 -6.89053 -5.33137 0 0 255
-19.0822 -6.9596 -5.32098 0 0 255
-19.044 -6.99685 -5.3172 0 0 255
-18.9948 -7.02995 -5.31153 0 0 255
-18.9348 -7.05882 -5.30397 0 0 255
-18.8092 -7.11378 -5.28791 0 0 255
-18.8355 -7.17481 -5.29547 0 0 255
-18.8778 -7.24222 -5.30586 0 0 255
-18.854 -7.33585 -5.30775 0 0 255
-18.8742 -7.39529 -5.31436 0 0 255
-18.9463 -7.52738 -5.33326 0 0 255
-18.9499 -7.58086 -5.33704 0 0 255
