ply
format ascii 1.0
comment Created by Open3D
element vertex 185
property double x
property double y
property double z
property uchar red
property uchar green
property uchar blue
end_header
28.7586 -5.98229 -3.5884 255 0 0
27.918 -6.29257 -4.74364 255 0 0
29.2534 -6.5207 -3.37097 255 0 0
28.7317 -6.97898 -3.59884 255 0 0
29.8732 -5.69862 -3.89813 255 0 0
28.1042 -5.84617 -4.75202 255 0 0
27.8912 -6.56507 -4.74699 255 0 0
28.7408 -6.76506 -3.59662 255 0 0
28.1383 -6.97631 -4.53631 255 0 0
28.4877 -6.56306 -3.58081 255 0 0
28.2607 -5.80886 -4.76599 255 0 0
28.8385 -5.78522 -4.32716 255 0 0
28.7709 -6.9163 -3.6001 255 0 0
28.0245 -6.8776 -4.52458 255 0 0
30.0886 -5.59196 -4.42137 255 0 0
28.1957 -6.28495 -4.28559 255 0 0
28.6359 -5.81524 -4.31192 255 0 0
28.6543 -6.81645 -4.33039 255 0 0
28.5 -5.92851 -4.05989 255 0 0
28.0712 -6.11761 -4.27312 255 0 0
28.2176 -6.50085 -3.80731 255 0 0
28.1947 -6.28471 -3.80293 255 0 0
29.2392 -6.66325 -3.37178 255 0 0
28.6016 -5.94964 -3.82336 255 0 0
28.0877 -7.0345 -4.53325 255 0 0
30.5342 -5.3011 -4.71136 255 0 0
28.5157 -6.64077 -4.31653 255 0 0
28.3706 -6.82007 -3.82117 255 0 0
28.0067 -6.80287 -4.52152 255 0 0
28.1159 -6.75885 -4.2879 255 0 0
28.372 -6.96289 -3.82336 255 0 0
29.7096 -5.88673 -3.38542 255 0 0
28.6174 -6.80768 -4.57357 255 0 0
29.4662 -5.91113 -3.37472 255 0 0
29.9669 -5.79016 -3.39613 255 0 0
28.211 -6.21818 -4.04419 255 0 0
28.9767 -7.03848 -3.36402 255 0 0
29.1417 -5.84605 -3.85509 255 0 0
29.9932 -5.57424 -4.669 255 0 0
28.2196 -7.06754 -3.8157 255 0 0
28.1452 -6.83651 -4.2916 255 0 0
28.4641 -6.98549 -4.07394 255 0 0
27.999 -5.89358 -4.74308 255 0 0
28.4111 -6.90112 -3.82482 255 0 0
28.2533 -6.57966 -3.81059 255 0 0
27.8188 -6.61769 -4.7414 255 0 0
30.417 -5.653 -3.93096 255 0 0
27.9684 -6.79356 -4.75928 255 0 0
30.5051 -5.59457 -3.9357 255 0 0
29.7506 -5.74837 -3.8912 255 0 0
28.8357 -5.78466 -4.57306 255 0 0
29.0397 -5.82558 -4.09585 255 0 0
27.9358 -6.92611 -4.75928 255 0 0
28.5017 -5.99938 -3.81789 255 0 0
30.7911 -5.34571 -4.47263 255 0 0
29.2476 -6.30137 -3.36857 255 0 0
27.903 -6.35875 -4.74364 255 0 0
29.2373 -6.95514 -3.37472 255 0 0
29.9318 -5.63629 -4.40982 255 0 0
29.1979 -6.58104 -3.3691 255 0 0
29.282 -5.87418 -3.61496 255 0 0
28.6571 -5.89032 -4.07022 255 0 0
30.5991 -5.53685 -4.20041 255 0 0
27.7931 -6.47248 -4.73581 255 0 0
27.8532 -6.2086 -4.73581 255 0 0
28.6571 -6.31651 -3.58682 255 0 0
29.488 -5.84282 -3.87625 255 0 0
29.4843 -5.76946 -4.37703 255 0 0
28.3557 -6.95888 -4.31007 255 0 0
27.9874 -7.07995 -4.76767 255 0 0
29.3944 -6.77195 -3.3798 255 0 0
28.2687 -6.72472 -4.05617 255 0 0
27.9978 -6.03211 -4.5057 255 0 0
28.7929 -6.48975 -4.58224 255 0 0
28.6185 -7.02339 -3.59346 255 0 0
28.5126 -6.07232 -3.57639 255 0 0
28.203 -5.93652 -4.52152 255 0 0
28.2868 -6.79992 -4.05865 255 0 0
28.4859 -7.06248 -3.83175 255 0 0
29.2174 -6.43999 -3.36857 255 0 0
28.2095 -6.21785 -3.80293 255 0 0
28.7215 -7.12092 -3.35358 255 0 0
28.8179 -7.07231 -3.35733 255 0 0
29.0729 -6.9889 -3.36776 255 0 0
29.3391 -6.9059 -3.37873 255 0 0
29.3782 -6.84163 -3.3798 255 0 0
29.244 -6.37319 -3.3691 255 0 0
28.8334 -6.14063 -3.3485 255 0 0
28.762 -6.05418 -3.34449 255 0 0
28.8622 -6.00383 -3.3485 255 0 0
29.1857 -5.99898 -3.36295 255 0 0
29.3431 -5.95886 -3.36964 255 0 0
29.8727 -5.84547 -3.39238 255 0 0
30.1127 -5.7443 -3.40228 255 0 0
30.5858 -5.53445 -4.45924 255 0 0
28.3627 -7.17488 -4.07022 255 0 0
28.6813 -7.11093 -3.59789 255 0 0
28.736 -6.83589 -3.59725 255 0 0
28.6941 -6.68231 -3.59314 255 0 0
28.6571 -6.53058 -3.58935 255 0 0
28.6382 -6.4549 -3.58745 255 0 0
28.682 -6.39334 -3.58903 255 0 0
28.6777 -6.24979 -3.58714 255 0 0
28.6639 -6.17562 -3.58556 255 0 0
28.5841 -6.01674 -3.57955 255 0 0
28.8872 -5.93763 -3.59473 255 0 0
29.0846 -5.90636 -3.60484 255 0 0
29.4621 -5.83769 -3.62413 255 0 0
29.6538 -5.80263 -3.63393 255 0 0
29.8454 -5.76669 -3.64373 255 0 0
30.1059 -5.74302 -3.65733 255 0 0
30.2516 -5.6965 -3.6646 255 0 0
27.9137 -6.99091 -4.75872 255 0 0
29.531 -5.63334 -4.63021 255 0 0
29.1394 -5.77374 -4.10205 255 0 0
28.2714 -7.0805 -4.30591 255 0 0
28.2844 -6.72844 -3.8146 255 0 0
28.2263 -6.64396 -3.80986 255 0 0
28.1988 -6.42613 -3.80512 255 0 0
28.2082 -6.35797 -3.80476 255 0 0
28.1899 -6.14348 -3.80074 255 0 0
28.233 -6.08278 -3.80257 255 0 0
28.2873 -6.02434 -3.80512 255 0 0
28.8275 -5.92534 -3.83685 255 0 0
28.9846 -5.88605 -3.84597 255 0 0
29.5993 -5.79196 -3.88245 255 0 0
30.1796 -5.68293 -3.91673 255 0 0
30.658 -5.47248 -4.72462 255 0 0
28.3796 -7.10761 -4.07022 255 0 0
28.3567 -7.03047 -4.06733 255 0 0
28.316 -6.878 -4.06196 255 0 0
28.2846 -6.65768 -4.05617 255 0 0
28.1012 -6.54423 -4.04171 255 0 0
28.35 -6.53134 -4.05865 255 0 0
28.223 -6.43166 -4.04832 255 0 0
28.2496 -6.3673 -4.04915 255 0 0
28.2599 -6.15873 -4.04667 255 0 0
28.2973 -6.09663 -4.04832 255 0 0
28.2203 -6.01006 -4.04171 255 0 0
28.4345 -5.98524 -4.05617 255 0 0
28.8942 -5.86769 -4.08634 255 0 0
29.4224 -5.75735 -4.12147 255 0 0
29.5851 -5.71638 -4.13222 255 0 0
29.7879 -5.68234 -4.14586 255 0 0
30.0366 -5.65601 -4.1628 255 0 0
30.2222 -5.61679 -4.1752 255 0 0
30.4652 -5.58726 -4.19174 255 0 0
28.6533 -6.74447 -4.329 255 0 0
28.3732 -7.24916 -4.317 255 0 0
28.3054 -7.16039 -4.31007 255 0 0
28.3221 -7.02187 -4.30868 255 0 0
28.1295 -6.34023 -4.28143 255 0 0
28.1649 -6.20802 -4.2819 255 0 0
28.2397 -6.08423 -4.28559 255 0 0
28.1684 -5.99902 -4.27866 255 0 0
28.2397 -5.94424 -4.28328 255 0 0
28.3109 -5.88915 -4.2879 255 0 0
28.4391 -5.84552 -4.29714 255 0 0
29.1556 -5.77695 -4.35163 255 0 0
29.5437 -5.7084 -4.38073 255 0 0
29.7693 -5.6788 -4.39782 255 0 0
30.5151 -5.59642 -4.45462 255 0 0
30.7425 -5.48755 -4.47078 255 0 0
28.2688 -7.22248 -4.55265 255 0 0
28.6523 -6.52949 -4.57102 255 0 0
28.6032 -6.37578 -4.56387 255 0 0
28.6695 -6.31924 -4.56847 255 0 0
28.0919 -5.98272 -4.51284 255 0 0
28.2056 -5.86726 -4.52049 255 0 0
28.4651 -5.85087 -4.54244 255 0 0
28.6047 -5.8089 -4.55367 255 0 0
29.0038 -5.74688 -4.58684 255 0 0
29.1433 -5.70274 -4.59806 255 0 0
29.3285 -5.66682 -4.61337 255 0 0
29.8366 -5.61835 -4.65624 255 0 0
30.1039 -5.521 -4.67767 255 0 0
30.467 -5.51296 -4.7088 255 0 0
28.0101 -7.15638 -4.77158 255 0 0
27.9182 -6.85152 -4.75593 255 0 0
27.905 -6.70816 -4.75146 255 0 0
27.922 -6.43274 -4.74699 255 0 0
28.0159 -6.17517 -4.75034 255 0 0
27.9051 -6.08142 -4.73805 255 0 0
27.9195 -6.01524 -4.73805 255 0 0
27.9679 -5.95631 -4.7414 255 0 0
