ply
format ascii 1.0
comment Created by Open3D
element vertex 354
property double x
property double y
property double z
property uchar red
property uchar green
property uchar blue
end_header
5.14255 7.4054 -4.17641 255 0 0
4.16069 6.80322 -4.27953 255 0 0
4.21727 6.80473 -4.28838 255 0 0
4.61013 7.36048 -4.17309 255 0 0
4.66241 6.93985 -4.16591 255 0 0
4.45354 7.58171 -4.2001 255 0 0
4.21071 7.65925 -4.26429 255 0 0
3.91495 7.80898 -4.41863 255 0 0
7.23621 6.87643 -5.3078 255 0 0
4.59996 6.89981 -4.14829 255 0 0
4.22082 6.84669 -4.22697 255 0 0
4.14169 6.75413 -5.37861 255 0 0
5.02736 6.90237 -4.21216 255 0 0
4.04599 7.00147 -4.23895 255 0 0
5.06356 6.83219 -4.35457 255 0 0
4.73992 7.07335 -4.13046 255 0 0
4.17342 6.78778 -4.86273 255 0 0
4.52455 6.82169 -4.33987 255 0 0
3.86573 6.65308 -4.40854 255 0 0
4.58824 7.22991 -4.14254 255 0 0
4.9387 7.04035 -4.15178 255 0 0
4.49926 7.95913 -4.36855 255 0 0
4.05295 6.82543 -4.26907 255 0 0
6.8115 6.852 -5.02423 255 0 0
4.38927 7.72177 -4.301 255 0 0
3.78181 6.74584 -4.28031 255 0 0
4.52904 6.82845 -5.41399 255 0 0
4.31875 8.03536 -4.28253 255 0 0
4.81686 7.09682 -4.14609 255 0 0
5.45178 7.42938 -4.2245 255 0 0
4.5315 6.903 -4.21258 255 0 0
4.38747 6.8238 -4.31895 255 0 0
4.81475 7.50789 -4.15305 255 0 0
6.929 6.93722 -5.33968 255 0 0
3.76324 6.76908 -4.28363 255 0 0
4.01001 7.70006 -4.32624 255 0 0
4.25573 6.97717 -4.18985 255 0 0
5.06162 7.03665 -4.16883 255 0 0
4.11819 6.80601 -4.27389 255 0 0
4.62027 7.18587 -4.13756 255 0 0
4.70074 7.70676 -4.17916 255 0 0
4.66672 6.92852 -4.23835 255 0 0
3.80575 6.69524 -4.34054 255 0 0
4.7806 7.53305 -4.15374 255 0 0
4.61528 6.85216 -4.43598 255 0 0
4.63076 7.23987 -4.15035 255 0 0
4.98035 7.01094 -4.15178 255 0 0
5.11959 7.01149 -4.32624 255 0 0
6.95056 6.8605 -5.32646 255 0 0
3.82595 7.67683 -4.37488 255 0 0
4.9352 7.46 -4.15923 255 0 0
3.96004 6.66897 -4.42778 255 0 0
4.12554 7.40009 -4.27017 255 0 0
4.56366 6.93404 -4.15049 255 0 0
3.94622 7.68848 -4.31564 255 0 0
4.47531 7.49617 -4.18446 255 0 0
4.89458 7.4561 -4.15305 255 0 0
7.22271 6.96203 -5.23191 255 0 0
7.26865 6.84195 -5.40009 255 0 0
4.16031 6.69513 -4.39559 255 0 0
3.9357 7.44925 -4.3327 255 0 0
4.05885 6.74399 -4.32089 255 0 0
4.42819 6.83355 -4.25457 255 0 0
5.21542 6.93344 -4.32473 255 0 0
4.5765 6.86462 -4.43267 255 0 0
4.36394 8.16581 -4.31664 255 0 0
4.67591 7.74846 -4.18465 255 0 0
4.68348 6.81306 -5.52561 255 0 0
3.97918 6.82963 -4.25941 255 0 0
4.26718 6.9403 -4.18303 255 0 0
4.30717 7.7909 -4.38535 255 0 0
4.12389 7.87309 -4.46081 255 0 0
3.94798 6.75769 -4.37856 255 0 0
4.60451 6.8537 -5.52101 255 0 0
4.54825 7.33881 -4.1603 255 0 0
6.83281 6.93894 -5.31702 255 0 0
4.01533 6.74386 -4.31426 255 0 0
3.76978 6.70576 -4.40796 255 0 0
4.11717 7.883 -4.30394 255 0 0
5.09571 6.90974 -4.45413 255 0 0
4.44366 6.73433 -5.44062 255 0 0
6.88127 6.92218 -5.32458 255 0 0
3.91371 6.79114 -5.41976 255 0 0
4.47255 7.3719 -4.15746 255 0 0
4.00808 7.1694 -5.50264 255 0 0
3.88406 8.07933 -4.40202 255 0 0
3.9364 7.28252 -4.29207 255 0 0
3.96395 7.86014 -4.43738 255 0 0
3.75848 6.87521 -5.41858 255 0 0
5.1127 6.8644 -4.52375 255 0 0
3.93473 7.8022 -4.3414 255 0 0
5.2252 7.01545 -4.18873 255 0 0
5.19164 7.005 -4.18162 255 0 0
4.06961 6.67203 -4.37516 255 0 0
4.02131 7.90382 -4.45535 255 0 0
4.38304 6.92469 -4.19591 255 0 0
4.74267 6.69317 -4.56771 255 0 0
5.42072 7.4239 -4.219 255 0 0
4.40853 6.6811 -4.95113 255 0 0
3.93513 6.80963 -4.24815 255 0 0
4.38665 6.68235 -4.94708 255 0 0
4.68049 6.68911 -4.55547 255 0 0
4.38143 7.62361 -4.2001 255 0 0
3.86028 6.77245 -4.29853 255 0 0
4.58449 7.43661 -4.18589 255 0 0
5.17497 6.93084 -4.2408 255 0 0
4.75223 6.91308 -4.17325 255 0 0
5.31127 7.38372 -4.19564 255 0 0
3.96567 7.21352 -5.42975 255 0 0
4.49871 6.92441 -4.21258 255 0 0
3.90953 6.72846 -5.39517 255 0 0
4.11165 7.52124 -4.37332 255 0 0
3.89948 7.68693 -4.30957 255 0 0
4.7093 6.95609 -4.17619 255 0 0
3.94598 7.73308 -4.32624 255 0 0
4.27277 6.80389 -4.88648 255 0 0
6.89181 6.83485 -5.03823 255 0 0
4.53135 6.79689 -4.33505 255 0 0
4.61852 6.68456 -4.54322 255 0 0
4.4192 7.99354 -4.28537 255 0 0
4.23753 6.65981 -4.39899 255 0 0
5.12125 6.97896 -4.39676 255 0 0
3.8559 6.82105 -5.41858 255 0 0
4.02289 6.92354 -4.21708 255 0 0
4.73773 7.60422 -4.00578 255 0 0
4.75279 7.58824 -4.08283 255 0 0
4.75464 7.13183 -4.14467 255 0 0
4.32277 6.84739 -4.24208 255 0 0
4.89342 6.70174 -4.59745 255 0 0
4.23037 6.97273 -4.18531 255 0 0
4.94749 7.4211 -4.15305 255 0 0
3.91337 7.23991 -5.50953 255 0 0
4.62913 7.90207 -4.21076 255 0 0
4.38966 7.80841 -4.24131 255 0 0
3.94704 7.38571 -4.31863 255 0 0
4.43395 7.50755 -4.18162 255 0 0
3.94697 6.71933 -4.36835 255 0 0
3.87154 6.82981 -4.24412 255 0 0
3.77903 6.85474 -5.41507 255 0 0
4.51949 7.38986 -4.16741 255 0 0
4.69243 7.6117 -4.15855 255 0 0
4.74045 7.64894 -4.17229 255 0 0
4.52288 6.99787 -4.15856 255 0 0
4.77629 6.9481 -4.18426 255 0 0
4.3591 6.70952 -4.87461 255 0 0
4.4342 6.86066 -4.33505 255 0 0
4.23178 7.03134 -4.19895 255 0 0
3.8119 6.8375 -4.23769 255 0 0
4.20094 6.68957 -4.40069 255 0 0
4.94841 6.98352 -4.2173 255 0 0
6.53072 6.79134 -5.47371 255 0 0
4.50267 6.85909 -4.27176 255 0 0
3.9385 7.62885 -4.30048 255 0 0
4.62496 7.15581 -4.13188 255 0 0
4.42701 7.63993 -4.20934 255 0 0
3.78352 6.86289 -4.2401 255 0 0
5.07047 7.01381 -4.5519 255 0 0
4.67934 7.59047 -3.8412 255 0 0
4.22882 6.80536 -4.87857 255 0 0
4.59731 7.30147 -4.15888 255 0 0
4.0901 6.74152 -4.32503 255 0 0
4.32134 7.77295 -4.30394 255 0 0
6.78452 6.92265 -5.48239 255 0 0
4.13016 6.99317 -4.17621 255 0 0
4.71944 7.57487 -4.15442 255 0 0
4.75544 7.67313 -3.94234 255 0 0
4.72406 7.23367 -4.16172 255 0 0
4.67655 7.70815 -4.17641 255 0 0
5.07661 6.83282 -4.43321 255 0 0
4.35514 6.73835 -4.88252 255 0 0
4.8285 7.66865 -4.10803 255 0 0
4.73081 7.15106 -4.14538 255 0 0
4.48022 6.8603 -4.26864 255 0 0
4.26328 6.73548 -4.35042 255 0 0
5.51406 7.44003 -4.23549 255 0 0
5.37968 7.4045 -4.20938 255 0 0
5.2805 7.37778 -4.19015 255 0 0
5.2828 7.41809 -4.19839 255 0 0
5.21091 7.4097 -4.18671 255 0 0
5.17638 7.41652 -4.18328 255 0 0
5.14115 7.44098 -4.18328 255 0 0
5.07603 7.40288 -4.16679 255 0 0
5.02325 7.4388 -4.16679 255 0 0
4.87777 7.50786 -4.16129 255 0 0
4.8167 7.45248 -4.14206 255 0 0
4.73711 7.52351 -4.14618 255 0 0
4.6952 7.65677 -4.16816 255 0 0
4.65954 7.80475 -4.19427 255 0 0
4.65264 7.83535 -4.19977 255 0 0
4.63405 7.84636 -4.19977 255 0 0
4.6153 7.9431 -4.21763 255 0 0
4.62493 8.00331 -4.23137 255 0 0
4.61235 8.06962 -4.24373 255 0 0
4.66352 8.20424 -4.27808 255 0 0
4.56654 6.92056 -4.22168 255 0 0
3.91985 8.05573 -4.4005 255 0 0
5.17185 6.90956 -4.31261 255 0 0
4.32051 6.82591 -4.90232 255 0 0
4.75465 6.9166 -4.24896 255 0 0
5.1852 7.04859 -4.18944 255 0 0
5.11828 7.04472 -4.17878 255 0 0
5.03169 7.03015 -4.16315 255 0 0
4.92592 6.98684 -4.13898 255 0 0
4.88948 7.00546 -4.13756 255 0 0
4.86616 7.02513 -4.13827 255 0 0
4.87171 7.08688 -4.15178 255 0 0
4.82282 7.05152 -4.13756 255 0 0
4.76937 7.08094 -4.13614 255 0 0
4.66658 7.14567 -4.13543 255 0 0
4.54761 7.29908 -4.15178 255 0 0
4.49028 7.44084 -4.17452 255 0 0
4.43456 7.42791 -4.16457 255 0 0
4.37538 7.48926 -4.17025 255 0 0
4.33798 7.58959 -4.18731 255 0 0
4.42663 7.78751 -4.24131 255 0 0
4.38579 7.75842 -4.22994 255 0 0
4.40716 7.88325 -4.25979 255 0 0
4.42158 7.95325 -4.27685 255 0 0
4.42486 8.04879 -4.29816 255 0 0
4.37397 8.04639 -4.29153 255 0 0
5.1788 7.128 -4.5185 255 0 0
4.36624 6.68576 -4.4995 255 0 0
5.1136 6.93401 -4.23198 255 0 0
5.09007 6.9021 -4.22171 255 0 0
4.96597 6.90364 -4.20311 255 0 0
4.89919 6.87943 -4.18793 255 0 0
4.91224 6.96744 -4.20849 255 0 0
4.84688 6.90946 -4.18646 255 0 0
4.83048 6.92093 -4.18646 255 0 0
4.79143 6.89978 -4.17619 255 0 0
4.71621 6.93085 -4.17178 255 0 0
4.61492 6.95793 -4.16297 255 0 0
4.51371 6.92949 -4.14241 255 0 0
4.46949 6.95136 -4.14094 255 0 0
4.41926 7.86108 -4.33624 255 0 0
4.3204 7.72805 -4.29366 255 0 0
4.20175 7.99867 -4.34065 255 0 0
4.16377 8.0185 -4.34065 255 0 0
4.13435 8.00821 -4.33477 255 0 0
4.0817 7.95243 -4.31568 255 0 0
4.11178 8.05802 -4.34358 255 0 0
4.92022 6.7721 -4.62019 255 0 0
5.15905 6.94379 -4.31791 255 0 0
5.90413 8.12634 -4.69147 255 0 0
5.87188 8.1427 -4.68996 255 0 0
4.79997 6.94719 -4.26259 255 0 0
4.72228 6.90451 -4.24138 255 0 0
4.65725 6.91447 -4.2338 255 0 0
4.61149 6.93488 -4.23153 255 0 0
4.46079 6.90181 -4.20198 255 0 0
4.45053 6.92188 -4.20501 255 0 0
4.41981 6.92812 -4.20198 255 0 0
4.34852 6.90635 -4.18682 255 0 0
4.309 6.9344 -4.18758 255 0 0
4.16257 7.125 -4.21107 255 0 0
4.1217 7.31147 -4.24896 255 0 0
4.2539 7.78146 -4.37625 255 0 0
4.23544 7.79153 -4.37625 255 0 0
4.25729 7.87618 -4.39899 255 0 0
4.13307 7.7118 -4.34443 255 0 0
4.0897 7.69649 -4.33534 255 0 0
4.16391 7.88119 -4.38838 255 0 0
3.90526 7.83596 -4.34595 255 0 0
3.8942 7.8604 -4.35049 255 0 0
3.91053 7.94065 -4.37171 255 0 0
3.92402 8.01594 -4.39141 255 0 0
3.87365 8.009 -4.38383 255 0 0
5.08084 6.88959 -4.37019 255 0 0
4.56043 6.85812 -4.28035 255 0 0
4.54378 6.88607 -4.28426 255 0 0
4.37442 6.83908 -4.2478 255 0 0
4.27081 6.83671 -4.23192 255 0 0
4.16452 6.84589 -4.21864 255 0 0
4.11893 6.84379 -4.21161 255 0 0
4.09022 6.85114 -4.20926 255 0 0
4.06629 6.88502 -4.21395 255 0 0
4.01652 6.87501 -4.20458 255 0 0
3.95114 6.91279 -4.20458 255 0 0
4.21279 7.62019 -4.41082 255 0 0
4.08869 7.4373 -4.34988 255 0 0
4.12075 7.58055 -4.38894 255 0 0
4.0839 7.88755 -4.45925 255 0 0
4.02491 7.84179 -4.4405 255 0 0
3.73258 7.53418 -4.32801 255 0 0
4.80037 6.70695 -4.5817 255 0 0
4.35004 6.80099 -4.30769 255 0 0
4.31376 6.7974 -4.30125 255 0 0
4.26503 6.79154 -4.2924 255 0 0
4.22616 6.81911 -4.29321 255 0 0
4.07576 6.80855 -4.26826 255 0 0
4.02437 6.83252 -4.26665 255 0 0
3.92629 6.85044 -4.257 255 0 0
3.87896 6.89997 -4.26263 255 0 0
3.76305 6.903 -4.24734 255 0 0
4.57892 6.67789 -4.53448 255 0 0
3.95656 6.68114 -4.35983 255 0 0
3.97056 7.18203 -5.49958 255 0 0
4.53336 6.7651 -4.4012 255 0 0
4.23328 6.75881 -4.35152 255 0 0
4.17556 6.73741 -4.33717 255 0 0
4.12138 6.7389 -4.32917 255 0 0
3.97478 6.74829 -4.30929 255 0 0
3.92105 6.74827 -4.30129 255 0 0
3.88714 6.76355 -4.30019 255 0 0
3.81959 6.75681 -4.28859 255 0 0
4.52542 6.73593 -4.46625 255 0 0
4.2835 6.69694 -4.41602 255 0 0
4.14236 6.71942 -4.39899 255 0 0
4.10299 6.69102 -4.38537 255 0 0
4.03143 6.69843 -4.37601 255 0 0
4.00328 6.70551 -4.37345 255 0 0
3.86637 6.69063 -4.34848 255 0 0
3.79959 6.7588 -4.35643 255 0 0
7.01616 6.85988 -5.07146 255 0 0
6.98753 6.897 -5.07321 255 0 0
4.94836 6.70994 -4.60969 255 0 0
4.49708 6.78027 -4.54672 255 0 0
4.45945 6.75826 -4.53448 255 0 0
3.93204 6.67578 -4.42516 255 0 0
3.88255 6.68205 -4.41904 255 0 0
3.82579 6.6568 -4.40329 255 0 0
3.80761 6.68007 -4.40679 255 0 0
6.81685 6.9063 -5.48635 255 0 0
7.26333 6.96804 -5.24268 255 0 0
6.93986 6.89885 -5.33307 255 0 0
6.77755 6.91553 -5.29814 255 0 0
3.76915 7.27965 -5.49575 255 0 0
6.64881 6.81643 -5.42102 255 0 0
4.35196 6.78626 -4.89638 255 0 0
4.32485 6.79705 -4.8944 255 0 0
4.10333 6.72732 -4.83105 255 0 0
4.38683 6.73473 -4.96328 255 0 0
4.33006 6.69954 -4.941 255 0 0
4.21623 6.66116 -5.05626 255 0 0
4.65921 6.82967 -5.52561 255 0 0
4.6349 6.8462 -5.52561 255 0 0
4.58608 6.879 -5.52561 255 0 0
4.56381 6.88087 -5.52101 255 0 0
4.0297 7.08921 -5.47737 255 0 0
4.03223 7.15275 -5.50149 255 0 0
3.92878 7.20702 -5.50034 255 0 0
3.86545 7.23304 -5.49728 255 0 0
3.82334 7.25742 -5.49805 255 0 0
3.79253 7.26143 -5.49345 255 0 0
3.8209 6.83456 -5.41624 255 0 0
3.89028 6.65893 -5.36473 255 0 0
3.88014 6.80729 -5.41858 255 0 0
5.31629 7.0501 -4.20934 255 0 0
5.25203 7.01668 -4.19299 255 0 0
5.17915 6.88522 -4.23198 255 0 0
5.12296 6.84424 -4.36707 255 0 0
5.1202 6.87447 -4.37332 255 0 0
5.10087 6.81473 -4.43321 255 0 0
5.13654 6.93065 -4.54362 255 0 0
