ply
format ascii 1.0
comment Created by Open3D
element vertex 1032
property double x
property double y
property double z
property uchar red
property uchar green
property uchar blue
end_header
-12.0378 8.5084 -4.41019 0 0 255
-12.2374 8.7806 -4.33422 0 0 255
-11.7719 9.09774 -4.68714 0 0 255
-12.2625 9.29245 -4.38444 0 0 255
-10.8683 7.87658 -5.35842 0 0 255
-12.4927 8.0533 -5.06905 0 0 255
-11.3893 8.37839 -5.04222 0 0 255
-12.4276 7.88681 -5.29522 0 0 255
-10.2212 9.17395 -5.31545 0 0 255
-10.1162 8.6556 -5.56741 0 0 255
-10.4775 8.01834 -5.18492 0 0 255
-14.2784 7.9602 -5.23405 0 0 255
-10.2018 8.19801 -5.50679 0 0 255
-10.0992 8.31456 -5.27314 0 0 255
-13.4383 8.08781 -4.83284 0 0 255
-12.8236 8.05306 -4.86512 0 0 255
-11.7003 9.35664 -4.83464 0 0 255
-11.7542 7.85642 -5.5375 0 0 255
-16.0566 8.85198 -5.31157 255 0 0
-12.848 7.94153 -5.11878 0 0 255
-11.2356 7.98136 -5.08543 0 0 255
-11.118 7.89782 -5.29209 0 0 255
-10.6373 7.90324 -5.31578 0 0 255
-11.9351 8.26715 -4.49787 0 0 255
-13.1163 8.15043 -4.78913 0 0 255
-10.3885 7.9502 -5.27314 0 0 255
-13.2813 8.34049 -4.29722 0 0 255
-11.5968 9.36441 -4.94883 0 0 255
-11.4928 9.32553 -5.05603 0 0 255
-11.6572 9.14229 -4.80307 0 0 255
-10.261 8.22558 -5.17461 0 0 255
-12.0982 9.34995 -4.49994 0 0 255
-12.0627 8.48316 -4.41113 0 0 255
-10.517 8.43087 -5.13552 0 0 255
-11.6532 8.11287 -4.80906 0 0 255
-11.6168 8.46119 -4.71925 0 0 255
-10.2039 9.37922 -5.34568 0 0 255
-12.7979 8.20721 -4.48577 0 0 255
-13.2072 8.03427 -4.92499 0 0 255
-14.3374 7.94861 -5.24314 0 0 255
-13.3554 8.12441 -4.68948 0 0 255
-12.6399 8.06362 -4.83682 0 0 255
-13.4592 7.9275 -5.22535 0 0 255
-12.353 8.32035 -4.30822 0 0 255
-10.4949 8.59862 -5.15608 0 0 255
-13.2517 8.47603 -4.1708 0 0 255
-12.1088 8.17675 -4.51376 0 0 255
-12.0196 8.7764 -4.43334 0 0 255
-11.8668 8.90435 -4.55248 0 0 255
-15.902 7.9959 -5.21478 0 0 255
-12.245 9.325 -4.38534 0 0 255
-12.0828 8.45454 -4.41113 0 0 255
-10.0368 8.67048 -5.31862 0 0 255
-10.0295 8.33727 -5.49467 0 0 255
-13.355 8.08087 -4.81931 0 0 255
-10.7933 8.07889 -5.13618 0 0 255
-12.6137 7.92124 -5.2048 0 0 255
-10.0858 9.0957 -5.39821 0 0 255
-11.5196 7.85871 -5.48917 0 0 255
-14.6087 7.96369 -5.14815 0 0 255
-12.2428 9.14122 -5.02269 0 0 255
-12.533 7.87058 -5.44264 0 0 255
-10.5416 7.87098 -5.40818 0 0 255
-12.1403 9.47476 -4.5179 0 0 255
-11.4074 7.86167 -5.46643 0 0 255
-12.6684 8.77509 -4.25734 0 0 255
-14.0817 7.93831 -5.33783 0 0 255
-12.0436 9.12659 -4.47066 0 0 255
-11.4442 9.01912 -5.00867 0 0 255
-13.0309 8.35661 -4.26752 0 0 255
-10.1335 8.06435 -5.58576 0 0 255
-11.3372 8.38155 -5.03359 0 0 255
-12.0542 8.97815 -4.84389 0 0 255
-12.9173 8.24058 -4.37458 0 0 255
-11.5519 9.1262 -4.91246 0 0 255
-12.8733 8.25556 -4.37009 0 0 255
-13.5424 8.32643 -4.32862 0 0 255
-10.0061 9.24129 -5.52859 0 0 255
-12.7107 8.51753 -4.24121 0 0 255
-14.5545 7.97895 -5.14053 0 0 255
-11.6976 8.30955 -4.7149 0 0 255
-12.2943 9.13432 -4.37368 0 0 255
-15.2072 7.91957 -5.392 0 0 255
-10.6032 7.95619 -5.20003 0 0 255
-14.6972 7.87685 -5.58784 0 0 255
-16.0159 9.22993 -5.49758 255 0 0
-12.8097 7.95986 -5.11405 0 0 255
-13.2459 8.01485 -4.92935 0 0 255
-12.6915 8.68022 -4.25224 0 0 255
-11.3944 8.78445 -4.97078 0 0 255
-11.9642 9.3373 -4.61105 0 0 255
-10.5025 8.48076 -5.14016 0 0 255
-12.5895 9.2154 -4.28534 0 0 255
-15.48 8.06162 -5.15234 0 0 255
-15.9761 9.05619 -5.47472 255 0 0
-15.9645 9.09975 -5.4769 255 0 0
-12.7771 7.85591 -5.48907 0 0 255
-11.6331 8.81552 -4.76171 0 0 255
-11.2344 7.90067 -5.31545 0 0 255
-12.8542 7.86132 -5.37325 0 0 255
-13.7612 7.88715 -5.27508 0 0 255
-11.3094 7.87349 -5.44796 0 0 255
-13.2793 7.86401 -5.45512 0 0 255
-11.8283 8.40242 -4.62053 0 0 255
-14.5896 7.90847 -5.42664 0 0 255
-12.6837 9.0554 -4.28279 0 0 255
-12.871 8.21103 -4.49617 0 0 255
-16.0458 9.0957 -5.33134 255 0 0
-11.8939 8.23864 -4.61325 0 0 255
-10.1932 8.19113 -5.38762 0 0 255
-13.7933 7.88383 -5.55681 0 0 255
-13.1623 8.5292 -4.1644 0 0 255
-13.0336 8.18495 -4.77976 0 0 255
-11.6355 8.9923 -4.78239 0 0 255
-15.9945 9.47191 -5.51718 255 0 0
-11.6273 8.25961 -4.82156 0 0 255
-11.4494 7.85066 -5.47354 0 0 255
-12.3329 8.37075 -4.31001 0 0 255
-13.8552 7.9847 -5.1636 0 0 255
-12.2447 8.91852 -4.34767 0 0 255
-11.2918 7.98109 -5.09566 0 0 255
-11.8771 7.8979 -5.31793 0 0 255
-11.7898 9.5665 -4.87274 0 0 255
-13.299 9.5185 -5.37691 255 0 0
-12.0377 7.84104 -5.46796 0 0 255
-12.1214 7.97773 -5.12227 0 0 255
-11.8051 7.931 -5.18392 0 0 255
-10.1299 8.70906 -5.57954 0 0 255
-11.7976 7.86521 -4.80508 0 0 255
-12.2302 8.42871 -4.30194 0 0 255
-10.047 8.76278 -5.33568 0 0 255
-11.7817 7.95591 -4.81247 0 0 255
-11.5245 9.21604 -4.91928 0 0 255
-12.5278 8.28781 -4.32795 0 0 255
-10.6234 7.89289 -5.5462 0 0 255
-11.6398 8.33099 -4.83178 0 0 255
-14.8085 7.93649 -5.32382 0 0 255
-14.406 7.89756 -5.53488 0 0 255
-11.998 8.22678 -4.50284 0 0 255
-12.6764 8.21439 -4.46971 0 0 255
-12.6899 8.56917 -4.24291 0 0 255
-12.3701 8.09944 -4.79763 0 0 255
-10.1577 8.02475 -5.5842 0 0 255
-10.2937 7.9164 -5.47952 0 0 255
-11.6803 9.75644 -5.14247 0 0 255
-10.4544 7.86391 -5.50528 0 0 255
-10.0058 8.2775 -5.36413 0 0 255
-10.2938 7.91648 -5.36413 0 0 255
-15.9879 7.99167 -5.22831 0 0 255
-11.406 9.43584 -5.18509 0 0 255
-11.9875 9.67989 -4.78288 0 0 255
-14.1008 7.90506 -5.47823 0 0 255
-13.1432 8.12401 -5.05678 0 0 255
-11.386 8.33445 -5.03606 0 0 255
-12.0337 9.02959 -4.84662 0 0 255
-12.2268 8.5553 -4.3127 0 0 255
-12.6443 8.19353 -4.59219 0 0 255
-14.1843 7.9519 -5.21701 0 0 255
-9.99527 8.71769 -5.55377 0 0 255
-11.778 7.91279 -5.30069 0 0 255
-10.6082 8.21848 -5.12159 0 0 255
-16.1133 9.33702 -5.36361 255 0 0
-12.3694 8.05712 -4.92042 0 0 255
-11.9356 8.22573 -4.4939 0 0 255
-10.2074 8.04444 -5.25182 0 0 255
-11.9348 9.04417 -4.5763 0 0 255
-13.2428 8.09901 -4.8037 0 0 255
-11.8363 9.01378 -4.68714 0 0 255
-10.0433 8.59325 -5.30725 0 0 255
-12.6386 8.02071 -4.96133 0 0 255
-16.1558 9.67121 -5.23949 255 0 0
-11.5526 7.88119 -5.3759 0 0 255
-12.2772 9.16691 -4.37458 0 0 255
-12.9254 7.94709 -5.13299 0 0 255
-13.2504 7.88939 -5.31811 0 0 255
-11.1072 7.92984 -5.17466 0 0 255
-11.7239 8.16208 -4.70292 0 0 255
-11.1697 8.01457 -5.07775 0 0 255
-11.8588 8.5303 -4.51326 0 0 255
-12.2578 8.31978 -4.80307 0 0 255
-15.1619 7.94171 -5.2385 0 0 255
-11.7224 7.91584 -5.04345 0 0 255
-11.2575 8.36402 -5.01758 0 0 255
-13.1673 7.92468 -5.17325 0 0 255
-13.2672 9.47199 -5.22496 255 0 0
-10.5128 7.9274 -5.29446 0 0 255
-13.1492 8.21412 -4.5349 0 0 255
-10.0231 8.29184 -5.48558 0 0 255
-11.561 9.75025 -5.25406 0 0 255
-11.3232 7.88308 -5.33056 0 0 255
-12.0996 7.8814 -5.35906 0 0 255
-12.2084 7.9111 -5.25684 0 0 255
-11.7609 7.82059 -4.91631 0 0 255
-11.5975 8.91909 -4.76824 0 0 255
-12.1146 8.22255 -4.64447 0 0 255
-15.2615 7.90189 -5.54859 0 0 255
-10.0171 9.12028 -5.5095 0 0 255
-12.0134 7.90664 -5.21974 0 0 255
-12.2327 7.88574 -5.38559 0 0 255
-11.2987 7.90589 -5.20782 0 0 255
-12.2402 9.02675 -4.87764 0 0 255
-12.0233 8.84477 -4.44042 0 0 255
-10.208 8.04488 -5.48255 0 0 255
-12.2688 9.38917 -4.3943 0 0 255
-10.5172 9.43965 -5.28742 0 0 255
-11.3839 7.88538 -5.34293 0 0 255
-12.2424 9.05076 -5.14365 0 0 255
-12.0865 9.71259 -4.66764 0 0 255
-10.2382 7.9513 -5.35826 0 0 255
-12.6094 7.87692 -5.32847 0 0 255
-12.1135 7.84962 -5.48445 0 0 255
-14.7533 7.90691 -5.45624 0 0 255
-11.3216 9.18657 -5.13705 0 0 255
-15.8161 7.99977 -5.20125 0 0 255
-12.273 8.24534 -4.67049 0 0 255
-11.4675 8.02397 -5.01142 0 0 255
-11.362 9.35419 -5.16661 0 0 255
-13.2076 8.33793 -4.28789 0 0 255
-14.5903 7.95365 -5.28746 0 0 255
-14.5691 7.89735 -5.56567 0 0 255
-15.4022 7.92846 -5.27769 0 0 255
-11.9114 9.1605 -4.58524 0 0 255
-13.4832 8.33414 -4.32183 0 0 255
-10.4499 7.87993 -5.39056 0 0 255
-14.9019 7.94113 -5.19496 0 0 255
-10.5519 9.11544 -5.24364 0 0 255
-12.6653 8.72859 -4.25309 0 0 255
-12.2471 8.52629 -4.3127 0 0 255
-13.4579 8.1868 -4.57553 0 0 255
-12.2608 7.90381 -5.26579 0 0 255
-14.9932 7.94417 -5.35678 0 0 255
-13.3008 8.17789 -4.55285 0 0 255
-13.1784 8.18902 -4.53679 0 0 255
-12.0421 9.08062 -4.46593 0 0 255
-15.5949 8.02768 -5.16795 0 0 255
-11.6515 8.23533 -4.82269 0 0 255
-10.5127 8.99486 -5.21843 0 0 255
-11.5698 9.29731 -4.93633 0 0 255
-10.9062 9.10988 -5.18137 0 0 255
-13.5668 8.03424 -5.11928 0 0 255
-11.5154 8.09824 -4.90684 0 0 255
-14.9868 7.94079 -5.20911 0 0 255
-12.3129 8.27218 -4.42531 0 0 255
-13.1764 8.23113 -4.40776 0 0 255
-11.4578 8.68268 -4.96841 0 0 255
-10.3888 8.06823 -5.1753 0 0 255
-13.3256 8.32432 -4.30146 0 0 255
-12.3307 9.07092 -5.02837 0 0 255
-10.4877 8.63435 -5.16006 0 0 255
-13.3825 8.01105 -4.95112 0 0 255
-12.672 8.91163 -4.26922 0 0 255
-13.3856 8.01292 -5.08633 0 0 255
-11.0884 9.48742 -5.26707 0 0 255
-12.211 8.71794 -4.32525 0 0 255
-13.2187 8.65507 -4.18041 0 0 255
-10.1883 8.06862 -5.25182 0 0 255
-11.6121 8.45774 -4.84201 0 0 255
-14.7426 7.94619 -5.16883 0 0 255
-11.638 8.18449 -4.69204 0 0 255
-11.7541 8.60387 -4.63094 0 0 255
-12.5965 8.07803 -4.83138 0 0 255
-10.0916 8.18854 -5.59826 0 0 255
-12.5629 8.14079 -4.70379 0 0 255
-12.3168 7.93995 -5.15307 0 0 255
-12.6035 8.25225 -4.4631 0 0 255
-11.4801 8.15506 -5.0299 0 0 255
-12.6019 9.1787 -4.28364 0 0 255
-12.8051 8.42769 -4.24546 0 0 255
-10.0515 8.21544 -5.59435 0 0 255
-14.3427 8.04066 -5.11114 0 0 255
-10.6095 7.92164 -5.31294 0 0 255
-12.2112 8.58759 -4.3136 0 0 255
-11.6625 8.88142 -4.77368 0 0 255
-10.0618 8.24379 -5.25467 0 0 255
-12.3613 7.88592 -5.4108 0 0 255
-12.24 8.82651 -4.33871 0 0 255
-12.0475 7.8882 -5.34977 0 0 255
-10.622 7.93103 -5.20003 0 0 255
-11.5486 8.92516 -4.88746 0 0 255
-11.947 7.90358 -5.20695 0 0 255
-16.1321 9.65704 -5.39587 255 0 0
-12.4735 8.08289 -5.06905 0 0 255
-12.8197 8.26412 -4.36381 0 0 255
-11.4371 8.92594 -4.99564 0 0 255
-11.4864 7.99676 -5.01142 0 0 255
-10.164 8.57204 -5.20965 0 0 255
-12.336 9.2564 -5.0511 0 0 255
-11.5497 8.83888 -4.87724 0 0 255
-13.1242 7.85645 -5.42441 0 0 255
-11.5462 8.24326 -4.92934 0 0 255
-10.1427 8.1902 -5.49316 0 0 255
-10.2488 8.03774 -5.25893 0 0 255
-11.7384 8.00794 -4.93407 0 0 255
-10.0126 8.42411 -5.38983 0 0 255
-10.1573 8.6284 -5.21721 0 0 255
-12.1275 8.40043 -4.41208 0 0 255
-13.2724 8.16045 -4.68055 0 0 255
-11.1831 7.90429 -5.30583 0 0 255
-12.9146 8.06756 -5.01246 0 0 255
-13.2964 8.43818 -4.1732 0 0 255
-11.4495 7.89067 -5.35667 0 0 255
-14.8869 7.88788 -5.47874 0 0 255
-10.0774 8.83151 -5.47132 0 0 255
-12.5598 8.26622 -4.45837 0 0 255
-10.0877 8.67272 -5.44636 0 0 255
-12.417 9.08916 -5.04428 0 0 255
-11.815 8.52005 -4.63094 0 0 255
-11.3968 9.94008 -4.47255 255 0 0
-16.0937 9.02232 -5.33238 255 0 0
-12.0837 9.29305 -4.49239 0 0 255
-12.5758 7.85595 -5.44927 0 0 255
-11.4466 10.0314 -4.10036 255 0 0
-10.6117 9.25535 -5.27548 0 0 255
-12.1262 9.41759 -4.51034 0 0 255
-13.2878 7.99725 -5.06814 0 0 255
-11.8012 8.81148 -4.66008 0 0 255
-11.5598 9.19942 -4.92269 0 0 255
-13.9139 7.97467 -5.17269 0 0 255
-12.1779 8.26557 -4.40641 0 0 255
-12.6342 8.08109 -4.96701 0 0 255
-10.159 8.69223 -5.22751 0 0 255
-11.8582 7.84481 -5.43224 0 0 255
-11.7621 7.98331 -4.93526 0 0 255
-11.3921 9.98362 -4.60609 255 0 0
-13.4249 7.86449 -5.48326 0 0 255
-10.0629 8.38518 -5.27741 0 0 255
-14.3321 7.90129 -5.52133 0 0 255
-13.4609 8.18862 -4.44183 0 0 255
-14.6231 7.8818 -5.5743 0 0 255
-11.9968 9.45465 -4.62793 0 0 255
-11.4129 8.86362 -4.9838 0 0 255
-13.3726 8.22205 -4.43286 0 0 255
-13.0638 8.24718 -4.3943 0 0 255
-11.3651 9.91241 -4.20896 255 0 0
-12.4972 8.01437 -5.0655 0 0 255
-10.841 8.71169 -5.11357 0 0 255
-10.1454 8.93367 -5.26324 0 0 255
-12.0782 9.2433 -4.48672 0 0 255
-12.0703 8.19248 -4.50979 0 0 255
-11.6581 9.18771 -4.80852 0 0 255
-11.9647 9.38344 -4.61601 0 0 255
-12.3172 8.1066 -4.79001 0 0 255
-12.7222 8.28692 -4.35305 0 0 255
-10.1411 8.30873 -5.51286 0 0 255
-15.9995 9.3727 -5.50847 255 0 0
-10.1736 8.09629 -5.25325 0 0 255
-11.5412 8.74585 -4.86474 0 0 255
-14.0172 7.90193 -5.46221 0 0 255
-12.0202 8.97501 -4.4527 0 0 255
-11.646 9.44979 -4.96701 0 0 255
-10.9368 8.2065 -5.06112 0 0 255
-10.7028 7.93216 -5.21583 0 0 255
-10.8384 8.0327 -5.13817 0 0 255
-12.9085 8.36475 -4.25309 0 0 255
-12.1344 8.27814 -4.40169 0 0 255
-12.0023 8.87325 -4.44042 0 0 255
-16.0573 8.80281 -5.30741 255 0 0
-12.7801 8.15304 -4.60807 0 0 255
-15.9572 9.50098 -5.51391 255 0 0
-13.528 8.05463 -5.11473 0 0 255
-12.7612 8.26932 -4.35664 0 0 255
-10.0505 8.43564 -5.51589 0 0 255
-12.2722 9.02792 -4.36112 0 0 255
-12.2994 9.36645 -5.1922 0 0 255
-12.4412 7.93687 -5.17524 0 0 255
-13.6738 7.88016 -5.3957 0 0 255
-13.8447 7.89141 -5.29047 0 0 255
-12.5955 9.12839 -4.27855 0 0 255
-12.8444 8.41 -4.24885 0 0 255
-12.2547 7.94111 -5.14198 0 0 255
-12.5658 7.93279 -5.19741 0 0 255
-10.1256 9.26306 -5.43374 0 0 255
-12.2752 9.25638 -4.38265 0 0 255
-13.105 7.88719 -5.29101 0 0 255
-11.2519 7.91297 -5.19986 0 0 255
-12.0267 9.02429 -4.45837 0 0 255
-12.7981 8.03706 -4.98974 0 0 255
-10.0668 8.24792 -5.37147 0 0 255
-12.274 9.20989 -4.37816 0 0 255
-10.353 7.92306 -5.37735 0 0 255
-14.1605 7.93855 -5.35204 0 0 255
-11.3249 9.10051 -5.12597 0 0 255
-14.4952 7.99121 -5.13182 0 0 255
-12.0169 9.06156 -4.8477 0 0 255
-13.6204 7.89247 -5.38708 0 0 255
-11.7364 7.88483 -5.04222 0 0 255
-10.4935 8.68101 -5.16802 0 0 255
-12.255 8.27548 -4.41775 0 0 255
-13.043 8.19082 -4.64977 0 0 255
-13.0037 7.86832 -5.40267 0 0 255
-10.1246 8.17558 -5.25609 0 0 255
-10.1027 8.21743 -5.37367 0 0 255
-11.2579 9.77206 -5.33743 255 0 0
-11.5379 8.87324 -4.87951 0 0 255
-12.0557 9.59408 -4.65076 0 0 255
-10.2588 8.02594 -5.49012 0 0 255
-10.021 8.33019 -5.37588 0 0 255
-10.265 7.97206 -5.48255 0 0 255
-14.674 7.90922 -5.44203 0 0 255
-12.5861 8.28353 -4.33512 0 0 255
-11.4249 8.96011 -4.99801 0 0 255
-12.2292 8.47087 -4.30553 0 0 255
-13.9677 7.96157 -5.18064 0 0 255
-15.6395 8.00381 -5.17315 0 0 255
-12.2343 8.26152 -4.66632 0 0 255
-12.0106 9.51173 -4.63587 0 0 255
-13.1605 8.22119 -4.80266 0 0 255
-10.1151 8.61325 -5.55984 0 0 255
-10.4965 7.99348 -5.18492 0 0 255
-12.1809 9.09499 -5.13891 0 0 255
-12.7468 8.1318 -4.73085 0 0 255
-10.9599 7.90346 -5.26186 0 0 255
-10.8861 8.91913 -5.15067 0 0 255
-13.2666 8.20028 -4.55002 0 0 255
-11.7847 8.66927 -4.64239 0 0 255
-9.98883 8.46492 -5.50831 0 0 255
-12.5932 7.99189 -5.07971 0 0 255
-13.134 8.33508 -4.27855 0 0 255
-13.4822 8.15786 -4.57647 0 0 255
-12.029 8.16447 -4.8761 0 0 255
-11.9148 7.84171 -5.44323 0 0 255
-15.9869 9.31446 -5.50085 255 0 0
-10.0298 8.25735 -5.3656 0 0 255
-13.1098 8.67285 -4.1692 0 0 255
-13.1546 8.65769 -4.1732 0 0 255
-13.2975 8.66169 -4.19001 0 0 255
-13.2458 8.53883 -4.17481 0 0 255
-13.2919 8.39114 -4.1692 0 0 255
-13.3314 8.37194 -4.1724 0 0 255
-16.0838 9.42206 -5.36673 255 0 0
-10.4665 8.78476 -5.17863 0 0 255
-11.8893 9.50778 -4.74958 0 0 255
-10.189 8.12831 -5.37661 0 0 255
-10.5602 7.84597 -5.40818 0 0 255
-12.3603 8.13491 -4.67257 0 0 255
-12.1148 8.30688 -4.40169 0 0 255
-12.011 8.70477 -4.42531 0 0 255
-11.4971 9.28385 -5.05129 0 0 255
-12.6547 9.12561 -4.28534 0 0 255
-13.164 8.0938 -4.9239 0 0 255
-12.6387 9.06856 -4.27855 0 0 255
-12.6957 9.01859 -4.2811 0 0 255
-12.6839 8.96506 -4.27516 0 0 255
-12.6788 8.8716 -4.26667 0 0 255
-12.6761 8.82496 -4.26243 0 0 255
-12.6791 8.60574 -4.24461 0 0 255
-12.7602 8.48511 -4.24461 0 0 255
-12.7899 8.46122 -4.2463 0 0 255
-12.874 8.38584 -4.25055 0 0 255
-12.9624 8.35609 -4.25903 0 0 255
-13.3945 8.32328 -4.30995 0 0 255
-12.8953 8.18359 -4.49711 0 0 255
-12.2577 9.10712 -5.15312 0 0 255
-11.1585 7.92661 -5.18394 0 0 255
-10.1231 8.0954 -5.58888 0 0 255
-12.1474 8.37166 -4.41208 0 0 255
-13.042 8.06146 -4.90105 0 0 255
-12.3277 8.23975 -4.42436 0 0 255
-11.978 9.71918 -4.78601 0 0 255
-12.1731 9.3618 -4.37996 0 0 255
-12.2601 9.06387 -4.36292 0 0 255
-12.2562 8.97146 -4.35395 0 0 255
-12.2377 8.86909 -4.34229 0 0 255
-12.2128 8.67556 -4.32167 0 0 255
-12.2286 8.64324 -4.32077 0 0 255
-12.2501 8.39969 -4.30194 0 0 255
-12.2987 8.39019 -4.30732 0 0 255
-12.4114 8.29568 -4.3136 0 0 255
-12.4696 8.29186 -4.32077 0 0 255
-12.6541 8.28536 -4.34409 0 0 255
-12.9905 8.24403 -4.38444 0 0 255
-13.1226 8.2408 -4.40148 0 0 255
-13.2647 8.24262 -4.42031 0 0 255
-13.3088 8.22636 -4.42479 0 0 255
-13.4168 8.20542 -4.43735 0 0 255
-11.475 7.94847 -5.12508 0 0 255
-15.9624 8.99851 -5.4671 255 0 0
-10.8307 8.41141 -5.07008 0 0 255
-12.2417 7.85047 -5.51056 0 0 255
-12.1815 9.60018 -4.53585 0 0 255
-12.1497 9.52848 -4.52451 0 0 255
-12.0633 9.18663 -4.47916 0 0 255
-12.0183 8.92925 -4.44798 0 0 255
-12.0129 8.66274 -4.42153 0 0 255
-12.024 8.6275 -4.41964 0 0 255
-12.0428 8.5763 -4.41727 0 0 255
-12.0933 8.41926 -4.40924 0 0 255
-12.3953 8.2425 -4.43381 0 0 255
-12.4871 8.26091 -4.44798 0 0 255
-12.6763 8.25703 -4.47349 0 0 255
-12.7445 8.21562 -4.47916 0 0 255
-12.9977 8.20543 -4.51317 0 0 255
-13.0905 8.22069 -4.52734 0 0 255
-13.3645 8.17346 -4.56136 0 0 255
-13.6592 7.91494 -5.25969 0 0 255
-11.8949 8.75038 -4.54056 0 0 255
-14.1695 7.89948 -5.49054 0 0 255
-10.1408 8.22848 -5.49922 0 0 255
-11.2718 7.88707 -5.32094 0 0 255
-11.7869 8.5637 -4.63146 0 0 255
-12.0825 9.66228 -4.66168 0 0 255
-11.9134 9.25227 -4.59517 0 0 255
-11.949 9.23459 -4.59814 0 0 255
-11.9056 9.11119 -4.57928 0 0 255
-11.9134 9.07245 -4.5763 0 0 255
-11.9148 8.98458 -4.56737 0 0 255
-11.8833 8.87274 -4.55148 0 0 255
-11.9274 8.86175 -4.55645 0 0 255
-11.8324 8.74768 -4.53163 0 0 255
-11.8318 8.6608 -4.52269 0 0 255
-11.9083 8.67349 -4.53461 0 0 255
-11.8821 8.61137 -4.52468 0 0 255
-11.9038 8.47733 -4.51425 0 0 255
-11.9457 8.44326 -4.51673 0 0 255
-11.994 8.43483 -4.52269 0 0 255
-11.9099 8.33358 -4.50085 0 0 255
-11.9581 8.3251 -4.50681 0 0 255
-12.0174 8.19831 -4.50284 0 0 255
-12.2 8.19629 -4.52865 0 0 255
-12.3105 8.22827 -4.54751 0 0 255
-12.3636 8.22142 -4.55446 0 0 255
-12.4844 8.21663 -4.57134 0 0 255
-12.5618 8.22494 -4.58325 0 0 255
-12.6151 8.21718 -4.5902 0 0 255
-12.6927 8.18228 -4.59814 0 0 255
-12.7655 8.18643 -4.60906 0 0 255
-12.8919 8.18146 -4.62693 0 0 255
-12.9406 8.16935 -4.63289 0 0 255
-13.0428 8.14764 -4.6458 0 0 255
-13.1503 8.17152 -4.66367 0 0 255
-13.204 8.16155 -4.67062 0 0 255
-13.2868 8.12594 -4.67955 0 0 255
-13.4536 8.14052 -4.70537 0 0 255
-12.946 7.87537 -5.39243 0 0 255
-14.2935 8.05769 -5.10461 0 0 255
-16.0128 9.17762 -5.49214 255 0 0
-12.5097 8.14854 -4.6965 0 0 255
-13.402 9.47261 -5.38875 255 0 0
-11.8198 8.06349 -4.83065 0 0 255
-11.6766 9.56679 -4.98633 0 0 255
-11.82 9.68429 -4.89125 0 0 255
-11.3773 9.92306 -4.72668 255 0 0
-11.9251 9.58286 -4.76311 0 0 255
-11.8893 9.46162 -4.74438 0 0 255
-11.871 9.40121 -4.73501 0 0 255
-11.8073 9.30527 -4.71524 0 0 255
-11.8202 9.27014 -4.71316 0 0 255
-11.7872 9.17672 -4.69807 0 0 255
-11.7569 9.0417 -4.67881 0 0 255
-11.7875 9.0208 -4.68089 0 0 255
-11.8025 8.94393 -4.67465 0 0 255
-11.7928 8.87072 -4.66528 0 0 255
-11.8927 8.81405 -4.67361 0 0 255
-11.779 8.4517 -4.61845 0 0 255
-11.8552 8.46392 -4.63094 0 0 255
-11.8482 8.37435 -4.62053 0 0 255
-11.8543 8.31561 -4.61533 0 0 255
-11.8744 8.26682 -4.61325 0 0 255
-11.9089 8.18649 -4.61012 0 0 255
-11.9522 8.15383 -4.61325 0 0 255
-12.3404 8.24824 -4.68089 0 0 255
-12.4655 8.28915 -4.70379 0 0 255
-12.4082 8.2087 -4.68714 0 0 255
-12.3891 8.11189 -4.67465 0 0 255
-12.6403 8.14845 -4.71628 0 0 255
-12.8195 8.13552 -4.7423 0 0 255
-12.8583 8.1174 -4.74646 0 0 255
-13.1258 8.11324 -4.78705 0 0 255
-13.2776 8.16359 -4.81515 0 0 255
-13.3063 8.09454 -4.81306 0 0 255
-16.0613 9.35779 -5.35736 255 0 0
-16.0605 9.25563 -5.34799 255 0 0
-16.1024 9.22899 -5.35216 255 0 0
-16.0542 9.15084 -5.33759 255 0 0
-16.0321 9.03782 -5.32406 255 0 0
-16.0552 8.92582 -5.31781 255 0 0
-16.0528 8.75092 -5.3022 255 0 0
-16.0634 8.70734 -5.30012 255 0 0
-16.013 8.63096 -5.28555 255 0 0
-16.0233 8.58752 -5.28347 255 0 0
-15.9978 8.52512 -5.2741 255 0 0
-15.8347 8.39004 -5.23664 255 0 0
-15.5181 8.17522 -5.16795 0 0 255
-15.4353 8.08493 -5.14714 0 0 255
-15.5298 8.04079 -5.15858 0 0 255
-15.7406 8.00851 -5.18981 0 0 255
-13.0427 8.1476 -4.90975 0 0 255
-11.2996 8.94865 -5.10134 0 0 255
-12.1805 7.89301 -5.3763 0 0 255
-10.9043 7.90271 -5.25087 0 0 255
-12.1349 8.83854 -5.09984 0 0 255
-10.1125 9.25113 -5.55062 0 0 255
-12.3748 8.18657 -4.80743 0 0 255
-10.856 8.36935 -5.0688 0 0 255
-13.3191 8.01605 -4.94132 0 0 255
-11.834 9.64896 -4.88907 0 0 255
-11.7453 9.4843 -4.85641 0 0 255
-11.7319 9.4276 -4.8477 0 0 255
-11.6774 9.29305 -4.82376 0 0 255
-11.6634 9.23676 -4.81505 0 0 255
-11.6607 9.10047 -4.79872 0 0 255
-11.6277 9.03045 -4.78566 0 0 255
-11.646 8.91255 -4.77477 0 0 255
-11.8985 8.7096 -4.79001 0 0 255
-11.6608 8.42993 -4.72252 0 0 255
-11.6861 8.38506 -4.72143 0 0 255
-11.7481 8.38741 -4.73123 0 0 255
-11.7172 8.2818 -4.7149 0 0 255
-11.6951 8.18326 -4.70075 0 0 255
-11.7576 8.12359 -4.70401 0 0 255
-11.8671 8.13705 -4.72252 0 0 255
-12.1145 8.26452 -4.77477 0 0 255
-12.2775 8.29069 -4.80307 0 0 255
-12.2828 8.25193 -4.79981 0 0 255
-12.3408 8.22734 -4.80634 0 0 255
-12.4568 8.11405 -4.81287 0 0 255
-12.5194 8.11265 -4.82267 0 0 255
-12.5773 8.10788 -4.83138 0 0 255
-12.7027 8.06137 -4.84662 0 0 255
-12.7704 8.06194 -4.8575 0 0 255
-12.9203 8.02859 -4.87818 0 0 255
-13.1832 8.06256 -4.9239 0 0 255
-15.9971 9.42229 -5.51282 255 0 0
-15.994 9.26788 -5.49758 255 0 0
-14.0902 8.03137 -5.06869 0 0 255
-14.2093 8.05468 -5.09046 0 0 255
-14.3768 8.01504 -5.11441 0 0 255
-14.4712 8.02277 -5.13073 0 0 255
-14.7034 7.97016 -5.16448 0 0 255
-14.8526 7.96014 -5.18843 0 0 255
-15.0972 7.95351 -5.22871 0 0 255
-15.2419 7.93763 -5.25157 0 0 255
-15.3373 7.94115 -5.26789 0 0 255
-15.5131 7.9391 -5.29729 0 0 255
-15.6601 7.96752 -5.3245 0 0 255
-15.857 7.97329 -5.35825 0 0 255
-15.9428 7.96911 -5.3724 0 0 255
-10.582 9.1853 -5.25956 0 0 255
-12.1704 7.84555 -5.49544 0 0 255
-10.669 8.20504 -5.13088 0 0 255
-10.2926 9.55122 -5.51333 0 0 255
-11.7002 7.92104 -5.28676 0 0 255
-10.0347 8.463 -5.28451 0 0 255
-11.8109 9.91313 -5.18391 0 0 255
-10.5959 9.41999 -5.29803 0 0 255
-11.7319 9.75242 -5.01815 0 0 255
-11.7904 9.75387 -5.02724 0 0 255
-11.6893 9.62366 -4.99542 0 0 255
-11.6547 9.50278 -4.97496 0 0 255
-11.5752 9.07797 -4.91019 0 0 255
-11.5349 8.98029 -4.89201 0 0 255
-11.5021 8.75927 -4.86019 0 0 255
-12.3782 9.33404 -5.06701 0 0 255
-12.3336 9.16355 -5.03974 0 0 255
-12.3877 9.15818 -5.04769 0 0 255
-11.5717 8.38636 -4.82724 0 0 255
-11.6008 8.36562 -4.82951 0 0 255
-11.7086 8.23412 -4.83178 0 0 255
-11.6904 8.17999 -4.82269 0 0 255
-11.6771 8.08848 -4.81019 0 0 255
-11.7389 8.09011 -4.82042 0 0 255
-11.7343 8.04601 -4.81474 0 0 255
-11.7481 7.89272 -4.79997 0 0 255
-12.4511 8.06837 -4.93519 0 0 255
-12.504 8.06061 -4.94315 0 0 255
-12.7207 8.03059 -4.9761 0 0 255
-13.041 8.10361 -5.03746 0 0 255
-13.2359 8.13795 -5.07383 0 0 255
-13.2012 8.07358 -5.06133 0 0 255
-13.2274 8.02509 -5.06076 0 0 255
-13.6473 8.01647 -5.13121 0 0 255
-13.708 7.98669 -5.1386 0 0 255
-13.7915 7.9916 -5.15337 0 0 255
-14.0515 7.96525 -5.19542 0 0 255
-14.1104 7.95448 -5.20451 0 0 255
-14.4116 7.94509 -5.25564 0 0 255
-14.516 7.95784 -5.27496 0 0 255
-14.6445 7.93819 -5.29541 0 0 255
-14.7239 7.93615 -5.30905 0 0 255
-14.9135 7.94728 -5.34314 0 0 255
-15.0526 7.93001 -5.36587 0 0 255
-15.1579 7.93961 -5.38519 0 0 255
-15.3127 7.92839 -5.41132 0 0 255
-15.4183 7.93675 -5.43064 0 0 255
-15.5086 7.93681 -5.44655 0 0 255
-15.6144 7.94429 -5.46587 0 0 255
-15.6896 7.93577 -5.47837 0 0 255
-15.7648 7.92693 -5.49087 0 0 255
-15.9069 7.95116 -5.51814 0 0 255
-16.044 7.97221 -5.54427 0 0 255
-12.069 9.10086 -5.12115 0 0 255
-10.9284 9.17245 -5.19416 0 0 255
-11.6304 7.93427 -5.15194 0 0 255
-11.2805 8.59053 -5.05084 0 0 255
-10.2247 9.22103 -5.32369 0 0 255
-10.8484 8.8026 -5.12764 0 0 255
-11.3892 8.71601 -4.96131 0 0 255
-10.1157 9.07935 -5.40106 0 0 255
-11.3443 9.29458 -5.15553 0 0 255
-11.6505 9.68473 -5.12826 0 0 255
-11.5762 9.57666 -5.10221 0 0 255
-11.5812 9.53461 -5.09747 0 0 255
-11.5549 9.46715 -5.08445 0 0 255
-11.5018 9.37812 -5.06432 0 0 255
-11.4788 9.22423 -5.04064 0 0 255
-11.451 9.13505 -5.02465 0 0 255
-11.4408 9.06047 -5.0134 0 0 255
-12.2556 9.19612 -5.16378 0 0 255
-12.2037 8.97754 -5.12826 0 0 255
-12.3314 9.02648 -5.15549 0 0 255
-11.5522 8.37229 -4.94591 0 0 255
-11.7348 8.46226 -4.98736 0 0 255
-11.5872 8.31407 -4.94473 0 0 255
-11.5473 8.18225 -4.92223 0 0 255
-11.5721 8.09722 -4.91631 0 0 255
-11.5772 8.05993 -4.91276 0 0 255
-11.6387 8.06184 -4.92342 0 0 255
-11.6578 8.03423 -4.92342 0 0 255
-11.7808 8.07791 -4.94947 0 0 255
-11.7239 7.91689 -4.92105 0 0 255
-11.7449 7.87034 -4.91927 0 0 255
-12.4015 8.07802 -5.05603 0 0 255
-12.5694 8.01864 -5.07853 0 0 255
-12.6507 7.96537 -5.08682 0 0 255
-12.7373 7.95679 -5.10102 0 0 255
-13.0029 7.95232 -5.1472 0 0 255
-13.0659 7.94829 -5.15786 0 0 255
-13.1386 7.94994 -5.17088 0 0 255
-13.2647 7.94057 -5.1922 0 0 255
-13.3279 7.9355 -5.20285 0 0 255
-13.3812 7.92433 -5.21114 0 0 255
-13.5522 7.93904 -5.24311 0 0 255
-13.6007 7.92421 -5.25021 0 0 255
-13.7027 7.89685 -5.26561 0 0 255
-13.9681 7.91795 -5.31534 0 0 255
-14.2444 7.94125 -5.36744 0 0 255
-14.2783 7.9158 -5.37099 0 0 255
-14.3623 7.91791 -5.38638 0 0 255
-14.4162 7.90313 -5.39467 0 0 255
-14.5104 7.9101 -5.41243 0 0 255
-14.8479 7.91236 -5.474 0 0 255
-14.9817 7.89265 -5.4965 0 0 255
-15.0664 7.89169 -5.51189 0 0 255
-15.1563 7.89303 -5.52847 0 0 255
-15.3822 7.91818 -5.57228 0 0 255
-15.4571 7.91042 -5.5853 0 0 255
-13.3669 7.8731 -5.47302 0 0 255
-11.9044 7.91606 -5.20055 0 0 255
-11.2744 8.41809 -5.02744 0 0 255
-10.0707 8.33124 -5.2703 0 0 255
-10.8208 7.92071 -5.23713 0 0 255
-10.6319 9.3621 -5.29538 0 0 255
-10.0608 8.60824 -5.43021 0 0 255
-11.549 9.69337 -5.24421 0 0 255
-11.4841 9.59257 -5.21958 0 0 255
-11.41 9.48481 -5.19248 0 0 255
-11.3264 9.2351 -5.14444 0 0 255
-11.2765 9.10576 -5.11858 0 0 255
-11.3106 9.04503 -5.11612 0 0 255
-11.3052 8.99681 -5.10873 0 0 255
-11.2713 8.88286 -5.08779 0 0 255
-11.2833 8.84905 -5.08532 0 0 255
-11.2727 8.79761 -5.0767 0 0 255
-11.3025 8.77788 -5.07917 0 0 255
-11.3087 8.7184 -5.07239 0 0 255
-11.3056 8.65204 -5.06315 0 0 255
-11.3282 8.5845 -5.05823 0 0 255
-11.3166 8.5335 -5.04961 0 0 255
-11.3093 8.48603 -5.04222 0 0 255
-11.3363 8.25688 -5.01758 0 0 255
-11.4022 8.26357 -5.0299 0 0 255
-11.3336 8.1729 -5.0065 0 0 255
-11.4087 8.18605 -5.02128 0 0 255
-11.4514 8.17561 -5.02744 0 0 255
-11.4552 8.07625 -5.01573 0 0 255
-11.5571 8.00536 -5.02497 0 0 255
-11.6232 8.01042 -5.03729 0 0 255
-11.6422 7.98283 -5.03729 0 0 255
-11.7036 7.9639 -5.04591 0 0 255
-11.7408 7.84744 -5.03852 0 0 255
-11.8404 7.87346 -5.05946 0 0 255
-11.859 7.84537 -5.05946 0 0 255
-12.1403 7.94896 -5.12227 0 0 255
-12.1927 7.94203 -5.1309 0 0 255
-12.379 7.93853 -5.16415 0 0 255
-12.5035 7.93495 -5.18632 0 0 255
-12.7004 7.93377 -5.22204 0 0 255
-12.7581 7.9278 -5.23189 0 0 255
-12.8255 7.92763 -5.24421 0 0 255
-12.8784 7.91818 -5.25283 0 0 255
-12.9558 7.92347 -5.26761 0 0 255
-12.999 7.9076 -5.27377 0 0 255
-13.0618 7.90343 -5.28485 0 0 255
-13.1875 7.89432 -5.30702 0 0 255
-13.3184 7.88712 -5.33043 0 0 255
-13.4505 7.92234 -5.35875 0 0 255
-13.4742 7.89332 -5.35999 0 0 255
-13.5522 7.89593 -5.37477 0 0 255
-13.7471 7.87903 -5.40925 0 0 255
-13.8453 7.89177 -5.42896 0 0 255
-13.8839 7.87021 -5.43389 0 0 255
-14.2533 7.90194 -5.50655 0 0 255
-14.485 7.89625 -5.54966 0 0 255
-11.3549 7.90514 -5.21843 0 0 255
-12.285 7.87826 -5.39488 0 0 255
-13.3844 9.36527 -4.95044 255 0 0
-10.8259 8.65741 -5.10334 0 0 255
-10.8514 8.7625 -5.12252 0 0 255
-11.5409 7.95366 -5.13787 0 0 255
-11.0485 9.49879 -5.26196 0 0 255
-11.0586 9.41665 -5.25172 0 0 255
-11.094 9.40149 -5.25556 0 0 255
-10.959 9.24254 -5.20951 0 0 255
-10.9014 9.06208 -5.17369 0 0 255
-10.8833 9.00343 -5.16218 0 0 255
-10.887 8.96308 -5.15706 0 0 255
-10.8762 8.86802 -5.14171 0 0 255
-10.833 8.62105 -5.0995 0 0 255
-10.8489 8.59179 -5.09822 0 0 255
-10.8547 8.53373 -5.09118 0 0 255
-10.8422 8.46167 -5.07903 0 0 255
-10.8978 8.31951 -5.06944 0 0 255
-10.8977 8.25827 -5.06112 0 0 255
-10.9082 8.22552 -5.05856 0 0 255
-10.9654 8.18738 -5.06368 0 0 255
-10.9893 8.16476 -5.06496 0 0 255
-11.0408 8.16246 -5.07391 0 0 255
-11.0832 8.15319 -5.08031 0 0 255
-11.1052 8.10865 -5.07839 0 0 255
-11.1527 8.0626 -5.08095 0 0 255
-11.2213 8.0113 -5.08671 0 0 255
-11.3387 7.97401 -5.10334 0 0 255
-11.3857 7.96676 -5.11101 0 0 255
-11.4139 7.94627 -5.11357 0 0 255
-11.6115 7.96182 -5.15194 0 0 255
-11.6964 7.93876 -5.16474 0 0 255
-11.7484 7.93339 -5.17369 0 0 255
-11.8476 7.91886 -5.19032 0 0 255
-12.0704 7.90318 -5.22998 0 0 255
-12.137 7.90572 -5.24277 0 0 255
-12.3083 7.89322 -5.27347 0 0 255
-12.3463 7.87631 -5.27859 0 0 255
-12.4967 7.86843 -5.30609 0 0 255
-12.6911 7.88621 -5.3451 0 0 255
-12.7341 7.87112 -5.3515 0 0 255
-12.7917 7.86484 -5.36173 0 0 255
-13.0762 7.86987 -5.41674 0 0 255
-13.2017 7.86039 -5.43976 0 0 255
-13.5423 7.89016 -5.50884 0 0 255
-13.6835 7.88577 -5.5357 0 0 255
-13.8784 7.86714 -5.57152 0 0 255
-13.9568 7.86788 -5.58687 0 0 255
-14.0203 7.85992 -5.59839 0 0 255
-11.566 7.93061 -5.26221 0 0 255
-10.5098 9.38809 -5.27813 0 0 255
-10.6011 9.37972 -5.29273 0 0 255
-10.6283 9.31431 -5.28742 0 0 255
-10.5259 9.0495 -5.22905 0 0 255
-10.5079 8.94772 -5.21047 0 0 255
-10.4939 8.87164 -5.19654 0 0 255
-10.4916 8.76357 -5.17996 0 0 255
-10.4905 8.72045 -5.17333 0 0 255
-10.4976 8.5593 -5.15078 0 0 255
-10.5001 8.52001 -5.14547 0 0 255
-10.5457 8.37203 -5.1322 0 0 255
-10.5441 8.30976 -5.12292 0 0 255
-10.5548 8.2777 -5.12026 0 0 255
-10.5744 8.25265 -5.12026 0 0 255
-10.7117 8.17743 -5.13486 0 0 255
-10.7595 8.13341 -5.13751 0 0 255
-10.8692 7.9958 -5.13884 0 0 255
-10.9019 7.98011 -5.14282 0 0 255
-10.9347 7.96432 -5.1468 0 0 255
-10.9812 7.95845 -5.15476 0 0 255
-11.0232 7.94907 -5.16139 0 0 255
-11.0605 7.93621 -5.1667 0 0 255
-11.2145 7.92646 -5.19455 0 0 255
-11.4439 7.92691 -5.23833 0 0 255
-11.613 7.92245 -5.27017 0 0 255
-11.8157 7.89752 -5.30599 0 0 255
-11.9386 7.89804 -5.32987 0 0 255
-11.9954 7.89479 -5.34049 0 0 255
-12.4137 7.87798 -5.42008 0 0 255
-12.4613 7.86679 -5.42804 0 0 255
-12.6622 7.86825 -5.46784 0 0 255
-12.7294 7.8682 -5.48111 0 0 255
-12.8444 7.85535 -5.50234 0 0 255
-12.9117 7.85452 -5.5156 0 0 255
-12.984 7.85636 -5.5302 0 0 255
-13.0465 7.85202 -5.54213 0 0 255
-13.114 7.85035 -5.5554 0 0 255
-13.1767 7.8455 -5.56734 0 0 255
-13.2542 7.8491 -5.58326 0 0 255
-10.3673 7.89505 -5.37588 0 0 255
-10.2597 9.38573 -5.35667 0 0 255
-10.2651 9.34605 -5.35117 0 0 255
-10.2492 9.28729 -5.33881 0 0 255
-10.1919 9.10419 -5.29896 0 0 255
-10.1795 9.04975 -5.28797 0 0 255
-10.154 8.9841 -5.27285 0 0 255
-10.1449 8.86943 -5.25293 0 0 255
-10.1309 8.77279 -5.23507 0 0 255
-10.134 8.71258 -5.22614 0 0 255
-10.1581 8.52596 -5.20141 0 0 255
-10.1621 8.46792 -5.19316 0 0 255
-10.201 8.43898 -5.19591 0 0 255
-10.1946 8.39306 -5.18767 0 0 255
-10.1935 8.33153 -5.17805 0 0 255
-10.2098 8.28447 -5.17393 0 0 255
-10.2339 8.26382 -5.1753 0 0 255
-10.3102 8.20499 -5.1808 0 0 255
-10.3207 8.17346 -5.17805 0 0 255
-10.343 8.13142 -5.17599 0 0 255
-10.3696 8.09284 -5.1753 0 0 255
-10.4259 8.0575 -5.1808 0 0 255
-10.454 8.03969 -5.18355 0 0 255
-10.543 7.96981 -5.19042 0 0 255
-10.7515 7.90924 -5.22202 0 0 255
-10.8763 7.92184 -5.24812 0 0 255
-11.0203 7.90732 -5.27423 0 0 255
-11.0529 7.89109 -5.27835 0 0 255
-11.4963 7.88281 -5.36491 0 0 255
-11.6089 7.87935 -5.3869 0 0 255
-11.6559 7.87092 -5.39514 0 0 255
-11.6981 7.85913 -5.40201 0 0 255
-11.7546 7.85667 -5.413 0 0 255
-11.8206 7.8603 -5.42674 0 0 255
-11.9667 7.83526 -5.45285 0 0 255
-12.289 7.83979 -5.5188 0 0 255
-12.3508 7.83808 -5.53117 0 0 255
-12.4271 7.84523 -5.54765 0 0 255
-12.4794 7.83693 -5.55727 0 0 255
-12.527 7.82542 -5.56552 0 0 255
-12.6083 7.83475 -5.58338 0 0 255
-11.6274 7.85168 -5.51049 0 0 255
-10.2533 9.5601 -5.50765 0 0 255
-10.2401 9.45742 -5.48775 0 0 255
-10.112 9.29473 -5.43659 0 0 255
-10.0954 9.16971 -5.41243 0 0 255
-10.0631 8.96773 -5.37263 0 0 255
-10.078 8.91683 -5.36695 0 0 255
-10.082 8.8779 -5.36126 0 0 255
-10.0689 8.82402 -5.34989 0 0 255
-10.0789 8.66517 -5.32573 0 0 255
-10.042 8.551 -5.30015 0 0 255
-10.0449 8.51247 -5.29446 0 0 255
-10.0547 8.43918 -5.28451 0 0 255
-10.0857 8.2235 -5.25609 0 0 255
-10.1052 8.19957 -5.25609 0 0 255
-10.1447 8.13241 -5.25325 0 0 255
-10.2953 8.01518 -5.26462 0 0 255
-10.3467 7.97667 -5.26888 0 0 255
-10.4416 7.93209 -5.28096 0 0 255
-10.5634 7.92632 -5.30441 0 0 255
-10.6834 7.89825 -5.32431 0 0 255
-10.7504 7.88875 -5.33639 0 0 255
-10.8174 7.87892 -5.34847 0 0 255
-10.9145 7.87072 -5.36695 0 0 255
-10.9609 7.86469 -5.37547 0 0 255
-11.0165 7.86508 -5.38684 0 0 255
-11.0675 7.86197 -5.39679 0 0 255
-11.1325 7.86849 -5.411 0 0 255
-11.1743 7.85841 -5.41811 0 0 255
-11.2302 7.85795 -5.42948 0 0 255
-11.3514 7.86282 -5.45506 0 0 255
-11.5805 7.86008 -5.50196 0 0 255
-11.6837 7.84943 -5.52186 0 0 255
-11.7823 7.83482 -5.54034 0 0 255
-11.8813 7.86014 -5.5645 0 0 255
-11.9993 7.85661 -5.58866 0 0 255
-11.3087 7.83329 -5.56383 0 0 255
-10.0558 8.27883 -5.49012 0 0 255
-10.0585 8.68921 -5.44342 0 0 255
-10.0382 9.31511 -5.54768 0 0 255
-10.053 9.24056 -5.5374 0 0 255
-10.0093 9.06986 -5.49922 0 0 255
-10.0899 9.07779 -5.51611 0 0 255
-10.1031 9.02487 -5.5095 0 0 255
-10.1245 9.00089 -5.5095 0 0 255
-10.1076 8.94305 -5.49629 0 0 255
-10.0905 8.88535 -5.48307 0 0 255
-10.0514 8.76661 -5.45517 0 0 255
-10.0593 8.73161 -5.45077 0 0 255
-10.0726 8.57702 -5.42727 0 0 255
-10.0669 8.53112 -5.41846 0 0 255
-10.1752 8.49927 -5.43461 0 0 255
-10.1208 8.17254 -5.37 0 0 255
-10.1846 8.06563 -5.3656 0 0 255
-10.168 8.0134 -5.35385 0 0 255
-10.192 7.97369 -5.35238 0 0 255
-10.2884 7.95126 -5.36853 0 0 255
-10.4221 7.89784 -5.38762 0 0 255
-10.4957 7.87554 -5.39937 0 0 255
-10.6244 7.8546 -5.42287 0 0 255
-10.8177 7.83997 -5.46104 0 0 255
-11.3949 7.83314 -5.58219 0 0 255
-9.97977 8.87222 -5.57802 0 0 255
-9.96266 8.8148 -5.56438 0 0 255
-9.9708 8.77994 -5.55984 0 0 255
-9.96607 8.73391 -5.55074 0 0 255
-10.0159 8.69397 -5.55377 0 0 255
-10.0707 8.69978 -5.5659 0 0 255
-10.0132 8.44486 -5.50983 0 0 255
-10.1616 8.48793 -5.54771 0 0 255
-10.1213 8.2525 -5.49922 0 0 255
-10.1947 8.15261 -5.4977 0 0 255
-10.2228 8.13546 -5.50073 0 0 255
-10.2244 8.09715 -5.49467 0 0 255
-10.3196 7.97537 -5.49467 0 0 255
-10.3259 7.90229 -5.48406 0 0 255
-10.3536 7.88463 -5.48709 0 0 255
-10.3993 7.88056 -5.49619 0 0 255
-10.514 7.85038 -5.51589 0 0 255
-10.0048 8.27668 -5.59513 0 0 255
-9.97212 8.28956 -5.59045 0 0 255
-10.0331 8.26011 -5.59826 0 0 255
-10.0899 8.12782 -5.58732 0 0 255
-10.1728 7.97814 -5.57951 0 0 255
-10.2095 7.96788 -5.58576 0 0 255
-10.2462 7.9575 -5.59201 0 0 255
-10.2606 7.92973 -5.59045 0 0 255
-10.2257 7.8641 -5.5717 0 0 255
-10.2757 7.86384 -5.58263 0 0 255
-13.3574 9.39366 -4.9494 255 0 0
-13.4018 9.33021 -4.9494 255 0 0
-13.3362 9.56903 -5.1057 255 0 0
-13.401 9.56747 -5.11549 255 0 0
-13.4487 9.41026 -5.1057 255 0 0
-15.9084 8.91844 -5.45077 255 0 0
-13.4034 9.61727 -5.2636 255 0 0
-13.3468 9.48111 -5.38046 255 0 0
-13.3588 9.39462 -5.37217 255 0 0
