ply
format ascii 1.0
comment Created by Open3D
element vertex 205
property double x
property double y
property double z
property uchar red
property uchar green
property uchar blue
end_header
-21.4547 5.80788 -5.0673 255 0 0
-23.888 5.80242 -4.97689 255 0 0
-22.7242 6.90986 -4.27705 255 0 0
-21.8362 6.86675 -4.96521 255 0 0
-21.8879 6.20456 -4.56335 255 0 0
-21.8741 6.76484 -4.96596 255 0 0
-22.0079 7.09316 -4.60531 255 0 0
-21.0706 5.75755 -5.3852 255 0 0
-22.6829 6.42992 -4.26029 255 0 0
-23.58 5.96499 -4.33181 255 0 0
-23.5447 5.77821 -5.14047 255 0 0
-23.5209 5.71327 -5.34025 255 0 0
-22.0978 6.43421 -4.39969 255 0 0
-21.9146 7.06309 -4.78824 255 0 0
-22.7283 6.44278 -4.06682 255 0 0
-22.7749 6.33948 -4.26643 255 0 0
-22.7966 5.65196 -5.44032 255 0 0
-22.8973 6.31507 -4.07804 255 0 0
-21.5107 7.04568 -5.31557 255 0 0
-22.3084 5.92559 -4.60072 255 0 0
-21.9324 6.61232 -4.58105 255 0 0
-23.3455 5.96462 -4.31002 255 0 0
-21.996 6.80253 -4.59416 255 0 0
-23.5518 5.8985 -4.53145 255 0 0
-21.3758 6.0594 -5.25447 255 0 0
-21.2952 6.25532 -5.25107 255 0 0
-22.0497 6.30693 -4.39118 255 0 0
-22.086 6.09133 -4.38876 255 0 0
-21.0291 5.90728 -5.3852 255 0 0
-22.75 6.10067 -4.06069 255 0 0
-23.0192 6.88048 -4.30331 255 0 0
-22.7979 6.34588 -4.07039 255 0 0
-22.0049 5.95681 -4.56859 255 0 0
-21.4323 5.8564 -5.25447 255 0 0
-22.4631 5.90969 -4.61711 255 0 0
-22.8139 6.52552 -4.076 255 0 0
-21.6952 6.20554 -4.92308 255 0 0
-22.2682 7.06066 -5.02614 255 0 0
-23.6314 5.79947 -4.94662 255 0 0
-23.7297 5.94305 -4.34522 255 0 0
-23.1276 5.73402 -5.28822 255 0 0
-22.6855 6.95689 -4.27482 255 0 0
-21.8905 5.98158 -4.93963 255 0 0
-21.8978 7.11503 -4.78824 255 0 0
-21.7614 6.61711 -4.9464 255 0 0
-23.8164 5.72528 -5.38027 255 0 0
-23.3079 5.89616 -4.70889 255 0 0
-23.8067 5.78268 -5.17357 255 0 0
-23.185 5.92362 -4.49502 255 0 0
-21.5659 5.50993 -5.26041 255 0 0
-21.1542 6.54222 -5.24344 255 0 0
-21.9147 6.04408 -4.56138 255 0 0
-21.9103 6.37961 -4.57122 255 0 0
-22.5807 6.05526 -4.24129 255 0 0
-22.1712 5.77672 -5.16175 255 0 0
-21.5766 6.0059 -4.90127 255 0 0
-21.4921 6.98322 -5.11853 255 0 0
-21.5815 7.18237 -5.33169 255 0 0
-22.0967 6.94865 -4.6099 255 0 0
-22.3494 7.14477 -5.43692 255 0 0
-22.3276 5.70454 -5.18016 255 0 0
-21.0765 5.86672 -5.39059 255 0 0
-21.8867 6.54197 -4.57384 255 0 0
-22.8957 6.78448 -4.28934 255 0 0
-22.8797 6.0193 -4.26811 255 0 0
-21.8204 6.91868 -4.77205 255 0 0
-21.5461 5.61386 -5.45067 255 0 0
-22.1495 6.50628 -4.40697 255 0 0
-21.9842 6.74183 -4.59088 255 0 0
-22.0892 6.03588 -4.38754 255 0 0
-22.6777 5.90868 -4.4434 255 0 0
-22.3296 6.15852 -5.00056 255 0 0
-21.8832 6.59751 -4.76783 255 0 0
-21.9194 6.15737 -4.56532 255 0 0
-21.9166 6.6643 -4.58105 255 0 0
-23.7026 5.87658 -4.7515 255 0 0
-22.1787 6.80148 -5.00508 255 0 0
-22.9059 5.91019 -4.46648 255 0 0
-23.0401 5.88659 -4.67939 255 0 0
-21.9534 7.01819 -4.79105 255 0 0
-22.0191 5.96066 -4.37843 255 0 0
-22.485 5.80159 -5.00808 255 0 0
-22.8124 6.29166 -4.26867 255 0 0
-23.3065 6.07253 -4.10713 255 0 0
-23.3168 5.78092 -5.11189 255 0 0
-22.534 5.92836 -4.42944 255 0 0
-21.6548 6.52862 -4.92985 255 0 0
-22.1564 6.5654 -4.4094 255 0 0
-22.3443 7.08479 -4.44401 255 0 0
-22.7591 6.56827 -4.07243 255 0 0
-22.6914 6.54873 -4.2642 255 0 0
-22.7552 6.68418 -4.2737 255 0 0
-21.7636 6.73067 -4.75867 255 0 0
-21.5655 7.12028 -5.3266 255 0 0
-20.9866 6.05671 -5.3852 255 0 0
-21.8197 6.80475 -4.76783 255 0 0
-22.6396 6.47567 -4.25749 255 0 0
-21.0732 6.02762 -5.39686 255 0 0
-22.4053 6.92912 -4.44523 255 0 0
-22.2811 6.71746 -4.4264 255 0 0
-22.052 6.87719 -4.60268 255 0 0
-21.91 5.81976 -4.93662 255 0 0
-21.2228 5.96169 -5.22901 255 0 0
-23.1055 5.9617 -4.28767 255 0 0
-22.7828 6.39991 -4.07039 255 0 0
-22.794 6.22847 -4.06733 255 0 0
-22.7355 6.15459 -4.06069 255 0 0
-23.3208 6.01725 -4.10713 255 0 0
-22.7709 6.63021 -4.2737 255 0 0
-22.7598 6.21912 -4.26196 255 0 0
-22.6788 6.13925 -4.25246 255 0 0
-22.657 6.01817 -4.24744 255 0 0
-23.9332 5.75336 -5.18861 255 0 0
-22.3718 7.09351 -5.43777 255 0 0
-21.6591 5.91837 -5.09852 255 0 0
-21.0999 6.14366 -5.40583 255 0 0
-21.8073 6.68757 -4.76219 255 0 0
-22.3147 7.19202 -5.23539 255 0 0
-22.3999 7.04402 -4.44826 255 0 0
-22.4444 6.99956 -4.4513 255 0 0
-22.3381 6.85036 -4.43612 255 0 0
-22.2651 6.77027 -4.4264 255 0 0
-22.2523 6.65127 -4.42154 255 0 0
-22.1074 6.38018 -4.39908 255 0 0
-21.9973 6.23557 -4.3839 255 0 0
-22.0625 6.19757 -4.38936 255 0 0
-22.0379 6.13431 -4.38511 255 0 0
-22.1344 5.93559 -4.38936 255 0 0
-22.2892 5.92047 -4.40454 255 0 0
-23.3402 5.90433 -4.5102 255 0 0
-23.8032 5.9015 -4.55695 255 0 0
-22.8402 5.89323 -4.65775 255 0 0
-21.8143 7.08788 -4.97123 255 0 0
-22.1602 5.83001 -4.77486 255 0 0
-21.5315 7.22246 -5.3266 255 0 0
-23.3467 5.78834 -4.91283 255 0 0
-22.1466 7.07994 -4.61973 255 0 0
-22.0968 7.0063 -4.61186 255 0 0
-21.9244 6.49667 -4.57646 255 0 0
-21.8728 6.42499 -4.56859 255 0 0
-21.903 6.32119 -4.56859 255 0 0
-21.9179 6.26924 -4.56859 255 0 0
-21.962 6.11318 -4.56859 255 0 0
-21.9233 5.99057 -4.56073 255 0 0
-22.0583 5.91517 -4.57318 255 0 0
-22.6741 5.90776 -4.64005 255 0 0
-23.4967 5.8847 -4.72921 255 0 0
-23.903 5.86613 -4.77314 255 0 0
-21.5059 5.60337 -5.25532 255 0 0
-21.3064 5.76772 -5.23325 255 0 0
-21.7203 6.83031 -4.75727 255 0 0
-21.773 6.62062 -4.75586 255 0 0
-21.8654 6.53561 -4.7636 255 0 0
-21.7402 6.2184 -4.73826 255 0 0
-21.739 6.05113 -4.73263 255 0 0
-21.7731 5.94951 -4.73333 255 0 0
-21.6637 5.86445 -4.71785 255 0 0
-21.7842 5.84168 -4.73122 255 0 0
-22.0227 5.8497 -4.75938 255 0 0
-22.3371 5.81995 -4.79528 255 0 0
-22.7673 5.87444 -4.84737 255 0 0
-22.9133 5.79635 -4.86215 255 0 0
-23.1243 5.79143 -4.88679 255 0 0
-21.289 6.08935 -5.24344 255 0 0
-23.2732 6.77645 -5.34505 255 0 0
-22.3877 5.66338 -5.38261 255 0 0
-21.7864 7.13597 -4.96972 255 0 0
-21.82 7.03258 -4.96972 255 0 0
-22.3841 7.15588 -5.04419 255 0 0
-21.6806 6.76136 -4.94189 255 0 0
-21.6855 6.42586 -4.92985 255 0 0
-23.6336 6.88139 -5.18861 255 0 0
-21.6411 5.85835 -4.90428 255 0 0
-21.7672 5.8371 -4.91932 255 0 0
-22.0529 5.80178 -4.95393 255 0 0
-22.2577 5.79925 -4.9795 255 0 0
-22.735 5.80863 -5.03968 255 0 0
-22.8275 5.77465 -5.05021 255 0 0
-23.0439 5.77129 -5.07729 255 0 0
-21.625 5.96419 -5.28587 255 0 0
-21.0954 5.7106 -5.387 255 0 0
-21.4863 7.09415 -5.12253 255 0 0
-21.5413 5.77653 -5.07771 255 0 0
-22.0452 5.79976 -5.14574 255 0 0
-22.6447 5.7284 -5.22339 255 0 0
-23.0408 5.77052 -5.27782 255 0 0
-22.3379 7.19952 -5.43777 255 0 0
-21.3827 6.72414 -5.28332 255 0 0
-21.1774 6.60443 -5.24938 255 0 0
-21.2971 6.53111 -5.26295 255 0 0
-21.3845 6.50251 -5.27399 255 0 0
-21.2764 6.35955 -5.25277 255 0 0
-21.2803 6.30579 -5.25107 255 0 0
-21.4825 5.97971 -5.26635 255 0 0
-21.3983 5.73819 -5.24513 255 0 0
-21.5686 5.72909 -5.26889 255 0 0
-21.4813 5.6514 -5.25362 255 0 0
-21.5135 5.55092 -5.25447 255 0 0
-22.6595 5.67503 -5.42165 255 0 0
-21.1001 6.52548 -5.42287 255 0 0
-21.0131 6.17247 -5.39417 255 0 0
-21.1015 5.8198 -5.39238 255 0 0
-21.2989 5.71153 -5.41749 255 0 0
-21.3235 5.66398 -5.41928 255 0 0
-21.3929 5.62813 -5.42825 255 0 0
