ply
format ascii 1.0
comment Created by Open3D
element vertex 840
property double x
property double y
property double z
property uchar red
property uchar green
property uchar blue
end_header
4.09517 2.35355 -3.87646 255 0 0
6.00533 2.55238 -4.16223 255 0 0
5.21494 2.46908 -4.01898 255 0 0
4.95901 2.33353 -4.2835 255 0 0
5.70001 2.4867 -4.11821 255 0 0
4.80647 2.54672 -3.75241 255 0 0
4.83076 2.45059 -3.9461 255 0 0
3.58564 3.55601 -3.95778 255 0 0
3.85525 2.45303 -3.77153 255 0 0
4.30076 2.33126 -3.99069 255 0 0
6.05517 2.72754 -4.96344 255 0 0
6.37437 2.39357 -4.38255 255 0 0
4.87823 2.35229 -4.25647 255 0 0
4.33398 2.51137 -3.7996 255 0 0
4.14202 2.43965 -3.7723 255 0 0
5.14875 2.75943 -3.93569 255 0 0
3.61977 2.54562 -3.67343 255 0 0
4.46064 2.34327 -4.02599 255 0 0
4.84792 2.3094 -4.28992 255 0 0
5.4991 2.46139 -4.05214 255 0 0
5.41914 2.59729 -3.77192 255 0 0
4.44389 2.51906 -3.83523 255 0 0
6.75442 2.40012 -4.50826 255 0 0
3.91593 2.42049 -3.8289 255 0 0
5.05368 2.33432 -4.59582 255 0 0
4.11837 2.25774 -4.00282 255 0 0
3.62227 3.49153 -3.80752 255 0 0
3.90296 2.29885 -3.93162 255 0 0
5.31188 2.48422 -3.99739 255 0 0
5.69952 2.65726 -3.79755 255 0 0
5.00102 2.57434 -3.70943 255 0 0
5.3465 2.39308 -4.10448 255 0 0
6.36058 2.73905 -5.22931 255 0 0
5.17449 2.61724 -3.65754 255 0 0
3.79713 2.4991 -3.71899 255 0 0
5.58337 2.3887 -4.77063 255 0 0
5.29498 2.61542 -3.68812 255 0 0
4.74264 2.30072 -4.32589 255 0 0
3.69942 2.49176 -3.7292 255 0 0
4.05303 2.2975 -3.98674 255 0 0
3.71409 2.3365 -3.98727 255 0 0
5.52012 2.4551 -4.0578 255 0 0
5.00225 2.53013 -3.78028 255 0 0
5.79578 2.40671 -4.19593 255 0 0
6.57553 2.43359 -4.38818 255 0 0
4.8411 2.29209 -4.2317 255 0 0
3.6386 2.41955 -3.73594 255 0 0
3.96492 2.36073 -3.83322 255 0 0
4.27759 2.28603 -4.06828 255 0 0
3.85586 2.30199 -4.04881 255 0 0
3.70931 3.40953 -3.71609 255 0 0
3.6466 2.35482 -3.83689 255 0 0
3.69936 2.48533 -3.77053 255 0 0
4.62254 2.35185 -4.01069 255 0 0
4.68517 2.46824 -3.90255 255 0 0
5.12401 2.33739 -4.34655 255 0 0
5.1229 2.71438 -3.97473 255 0 0
4.13351 2.48777 -3.73328 255 0 0
4.67887 2.3111 -4.07319 255 0 0
5.68394 2.55221 -4.06461 255 0 0
4.34905 2.34412 -4.30382 255 0 0
5.98819 2.55346 -3.97844 255 0 0
4.96672 2.49739 -3.89355 255 0 0
4.39095 2.4004 -4.33352 255 0 0
4.83454 2.31711 -4.07842 255 0 0
3.62729 3.41435 -3.7897 255 0 0
5.25347 2.61043 -3.67686 255 0 0
4.40321 2.52367 -3.82336 255 0 0
6.21218 2.40014 -4.33034 255 0 0
6.07209 2.37916 -4.28199 255 0 0
5.02403 2.5262 -3.81166 255 0 0
4.25653 2.29426 -4.10969 255 0 0
4.56962 2.28415 -4.33073 255 0 0
5.96349 2.55131 -4.14933 255 0 0
4.19513 2.2869 -3.99074 255 0 0
4.94846 2.35729 -4.12499 255 0 0
3.74383 2.30186 -4.00506 255 0 0
5.22138 2.42682 -4.6849 255 0 0
3.95469 2.29158 -4.08526 255 0 0
5.1178 2.51283 -3.8368 255 0 0
5.1373 2.32875 -4.46091 255 0 0
3.58818 2.9684 -3.80539 255 0 0
4.21663 2.39024 -3.8329 255 0 0
4.97888 2.5779 -3.80628 255 0 0
5.89729 2.60612 -3.90109 255 0 0
3.9211 2.44945 -3.66102 255 0 0
5.62901 2.37669 -4.78764 255 0 0
3.70123 3.43462 -3.71987 255 0 0
4.70787 2.32543 -4.34307 255 0 0
4.48403 2.30372 -4.29995 255 0 0
3.8082 2.39153 -3.87364 255 0 0
4.95291 2.40279 -3.97778 255 0 0
3.63134 3.61845 -3.98741 255 0 0
5.036 2.50235 -3.96773 255 0 0
4.27308 2.46256 -3.77188 255 0 0
6.74958 2.42548 -4.44293 255 0 0
3.58805 2.81396 -3.68115 255 0 0
6.40518 3.25882 -5.20681 255 0 0
4.7942 2.32574 -4.16835 255 0 0
4.8973 2.34719 -4.1575 255 0 0
4.19598 2.336 -3.94264 255 0 0
5.54849 2.65929 -3.98224 255 0 0
4.46545 2.39322 -3.96413 255 0 0
6.04939 2.50364 -4.98693 255 0 0
4.3139 2.25959 -4.02902 255 0 0
5.07089 2.7177 -3.95963 255 0 0
5.29958 2.58651 -3.7388 255 0 0
4.05071 3.75893 -4.08971 255 0 0
4.14637 2.28589 -3.97273 255 0 0
4.47057 2.4854 -3.78982 255 0 0
4.63774 2.33886 -4.16414 255 0 0
7.00256 2.44165 -4.526 255 0 0
5.85343 2.39009 -4.21237 255 0 0
3.75215 3.39999 -3.67784 255 0 0
3.74405 2.46411 -3.73766 255 0 0
4.93671 2.49698 -3.93582 255 0 0
4.46656 2.32608 -4.14752 255 0 0
4.3214 2.2897 -4.08551 255 0 0
6.37012 2.40923 -4.19411 255 0 0
3.58944 2.52425 -3.68024 255 0 0
4.64472 2.54629 -3.7552 255 0 0
4.45122 2.26469 -4.22854 255 0 0
4.49265 2.40779 -3.83127 255 0 0
5.84291 2.56555 -4.05585 255 0 0
3.68806 2.34047 -3.86271 255 0 0
3.63874 2.30921 -3.96617 255 0 0
3.61319 3.65195 -3.99165 255 0 0
4.43235 2.49866 -3.73308 255 0 0
4.05432 2.49276 -3.79976 255 0 0
4.88762 2.33541 -3.99713 255 0 0
5.0357 2.33084 -4.24014 255 0 0
3.98655 2.3418 -3.88144 255 0 0
5.24161 2.45135 -3.97096 255 0 0
4.52999 2.33868 -4.07455 255 0 0
5.9913 2.42983 -4.02373 255 0 0
4.49641 2.28768 -4.15135 255 0 0
5.84875 2.60126 -3.82974 255 0 0
3.59719 3.67913 -3.68134 255 0 0
6.09155 2.42017 -4.29359 255 0 0
4.65375 2.32621 -4.3216 255 0 0
5.14322 2.38308 -4.14356 255 0 0
5.64435 2.65603 -4.84597 255 0 0
4.96033 2.52371 -3.94743 255 0 0
5.72794 2.41847 -4.17563 255 0 0
3.5858 3.59856 -3.68337 255 0 0
7.02549 2.50583 -4.47164 255 0 0
4.0531 2.29121 -4.12415 255 0 0
3.93965 2.49363 -3.77425 255 0 0
4.95423 2.3241 -4.22683 255 0 0
5.13235 2.34119 -4.13321 255 0 0
3.84001 2.4051 -3.83282 255 0 0
5.77882 2.61955 -3.81364 255 0 0
4.48874 2.60105 -3.76707 255 0 0
4.20169 2.4347 -3.88265 255 0 0
4.45435 2.59524 -3.66084 255 0 0
5.71957 2.52758 -4.01455 255 0 0
4.61615 2.29375 -4.30012 255 0 0
4.78834 2.44338 -3.98194 255 0 0
4.32047 2.53098 -3.7521 255 0 0
4.58408 2.38268 -3.93731 255 0 0
5.14755 2.59597 -3.69988 255 0 0
3.86464 2.46545 -3.73349 255 0 0
3.69161 2.49284 -3.68447 255 0 0
4.64933 2.37938 -4.12531 255 0 0
3.8953 2.45046 -3.69668 255 0 0
6.52451 2.3796 -4.36553 255 0 0
5.62729 2.63986 -3.6655 255 0 0
5.95482 2.59786 -3.85709 255 0 0
3.65964 3.48596 -3.76854 255 0 0
4.58803 2.51521 -3.78217 255 0 0
3.79701 3.53192 -3.71836 255 0 0
4.673 2.53305 -3.81049 255 0 0
3.71483 3.46368 -3.77725 255 0 0
3.74599 2.34009 -3.92705 255 0 0
6.88284 2.41823 -4.55273 255 0 0
5.03133 2.45559 -3.95903 255 0 0
4.4952 2.39546 -3.97471 255 0 0
3.79411 3.63986 -3.98823 255 0 0
3.90944 2.34028 -3.98793 255 0 0
4.80569 2.28932 -4.16614 255 0 0
6.72614 2.50748 -4.31261 255 0 0
5.92094 2.43405 -4.18051 255 0 0
5.821 2.45776 -4.1522 255 0 0
4.30025 2.46466 -4.31124 255 0 0
5.04579 2.46264 -3.91243 255 0 0
5.23625 2.39608 -4.06885 255 0 0
5.77737 2.93941 -5.02268 255 0 0
3.88914 2.49083 -3.67009 255 0 0
4.63888 2.2982 -4.18229 255 0 0
5.11784 2.33457 -4.51009 255 0 0
4.21083 2.41341 -3.88159 255 0 0
3.66864 3.38823 -3.70099 255 0 0
4.91847 2.32872 -4.37428 255 0 0
4.98681 2.43386 -3.99361 255 0 0
5.21992 2.53232 -3.86912 255 0 0
3.68863 2.42768 -3.83986 255 0 0
3.94329 2.34152 -3.9108 255 0 0
3.65658 3.42561 -3.70665 255 0 0
6.15383 2.42804 -4.31487 255 0 0
6.04234 2.43386 -4.15854 255 0 0
4.27581 2.31775 -4.07402 255 0 0
5.76448 2.5966 -3.80721 255 0 0
3.773 3.53468 -4.00435 255 0 0
5.7416 2.66861 -3.75304 255 0 0
4.39154 2.49627 -3.76758 255 0 0
3.868 2.48052 -3.73763 255 0 0
5.72252 2.87742 -4.9868 255 0 0
5.10672 2.61345 -3.95397 255 0 0
4.62482 2.43648 -3.92725 255 0 0
6.65354 2.47142 -4.35193 255 0 0
5.67423 2.60465 -3.78468 255 0 0
4.35836 2.42978 -3.9345 255 0 0
3.65901 2.56027 -3.73131 255 0 0
3.59019 3.26877 -3.65379 255 0 0
3.79339 3.45378 -3.69995 255 0 0
4.10379 2.42369 -3.84772 255 0 0
4.38863 2.43756 -4.34094 255 0 0
5.13423 2.44579 -3.98997 255 0 0
4.99305 2.44424 -3.89355 255 0 0
6.00541 2.27129 -4.00974 255 0 0
4.98946 2.33343 -4.37594 255 0 0
4.50165 2.55181 -3.71468 255 0 0
4.87189 2.44247 -3.95798 255 0 0
5.167 2.40154 -4.04707 255 0 0
4.82009 2.56859 -3.75959 255 0 0
5.00565 2.45776 -3.9513 255 0 0
4.12892 2.53866 -3.69602 255 0 0
4.2078 2.54608 -3.67519 255 0 0
6.00489 2.68778 -5.00151 255 0 0
4.61269 2.43006 -3.92219 255 0 0
5.52618 2.53669 -4.01489 255 0 0
3.82413 2.3763 -3.87589 255 0 0
4.20363 2.49839 -3.72631 255 0 0
4.15275 2.34104 -3.98624 255 0 0
4.48657 2.53626 -3.68401 255 0 0
4.53823 2.38396 -3.93853 255 0 0
4.42965 2.28022 -4.12455 255 0 0
3.63821 2.33314 -3.97185 255 0 0
4.72557 2.53262 -3.72727 255 0 0
3.74243 2.48433 -3.68447 255 0 0
4.30396 2.33301 -4.23352 255 0 0
3.93209 3.64021 -4.07737 255 0 0
3.86639 2.25268 -4.04152 255 0 0
3.63964 2.49562 -3.72142 255 0 0
3.96244 2.27104 -3.99261 255 0 0
5.15908 2.33862 -4.36006 255 0 0
5.12031 2.57461 -3.74178 255 0 0
3.66905 3.6734 -4.01281 255 0 0
4.62649 2.57926 -3.7552 255 0 0
4.80733 2.37455 -4.02758 255 0 0
4.90849 2.28847 -4.25647 255 0 0
4.21525 2.45594 -3.79863 255 0 0
3.84309 2.342 -3.87514 255 0 0
6.12821 2.36769 -4.17696 255 0 0
4.97724 3.86547 -4.14653 255 0 0
3.9433 2.26007 -4.02812 255 0 0
5.80057 2.4491 -4.14464 255 0 0
4.99836 2.48367 -3.90111 255 0 0
3.87549 2.44661 -3.77682 255 0 0
3.75027 2.44281 -3.7781 255 0 0
3.84636 2.34608 -3.96569 255 0 0
5.34958 2.45563 -4.00494 255 0 0
4.61168 2.57818 -3.70214 255 0 0
3.57457 2.81711 -3.72106 255 0 0
4.32446 2.34412 -3.90699 255 0 0
4.85859 2.35703 -4.04208 255 0 0
3.8816 2.29869 -4.013 255 0 0
4.39922 2.29985 -4.1169 255 0 0
5.72855 2.62958 -3.74523 255 0 0
4.94339 2.53726 -3.79012 255 0 0
6.01939 2.35851 -4.08278 255 0 0
6.16527 2.39883 -4.31487 255 0 0
4.03385 2.28663 -4.02305 255 0 0
5.02224 2.66104 -3.67587 255 0 0
4.21187 2.28311 -4.04301 255 0 0
5.91148 2.54566 -4.13276 255 0 0
3.94687 2.39242 -3.87813 255 0 0
4.74898 2.30384 -4.25088 255 0 0
4.9946 2.60107 -3.9181 255 0 0
4.26861 2.3665 -3.89217 255 0 0
5.07458 2.59701 -3.68084 255 0 0
3.59685 2.50404 -3.67817 255 0 0
4.35747 2.36201 -4.31124 255 0 0
5.11423 2.33293 -4.23316 255 0 0
6.67073 2.50485 -4.36114 255 0 0
4.035 2.43499 -3.78216 255 0 0
5.90542 2.67694 -3.79522 255 0 0
5.39953 2.37086 -4.69043 255 0 0
5.30212 2.47197 -4.04702 255 0 0
5.82255 2.68947 -3.71854 255 0 0
4.23901 2.42287 -3.84636 255 0 0
4.97146 2.55912 -3.85281 255 0 0
6.09911 2.48196 -4.12139 255 0 0
5.04939 2.32507 -4.31615 255 0 0
4.93462 2.56983 -3.8436 255 0 0
4.82307 2.31161 -4.4401 255 0 0
4.9882 2.53789 -3.70092 255 0 0
4.43884 2.54409 -3.64827 255 0 0
5.39048 2.35166 -4.68314 255 0 0
3.58646 2.44256 -3.7798 255 0 0
5.6332 2.47346 -4.09556 255 0 0
5.13194 2.55763 -3.74263 255 0 0
3.59222 2.35204 -3.91597 255 0 0
5.06817 2.50339 -3.71794 255 0 0
4.72351 2.31923 -4.24399 255 0 0
3.79071 2.29774 -3.97801 255 0 0
4.68271 2.313 -4.12531 255 0 0
5.61987 2.4043 -4.13888 255 0 0
6.76207 2.46624 -4.38508 255 0 0
5.20172 2.50827 -3.91359 255 0 0
4.71032 2.32664 -4.18891 255 0 0
3.9483 3.69889 -4.09747 255 0 0
5.75881 2.62696 -4.15597 255 0 0
5.93532 2.58936 -3.90937 255 0 0
4.41955 2.40924 -3.95143 255 0 0
3.83759 2.30346 -3.93075 255 0 0
6.88582 2.48364 -4.4256 255 0 0
5.59742 2.65018 -3.65944 255 0 0
5.85882 2.42477 -4.15975 255 0 0
5.64725 2.69014 -3.73194 255 0 0
5.89496 2.57174 -4.07201 255 0 0
4.1102 2.30422 -4.05583 255 0 0
4.42731 2.34582 -4.08758 255 0 0
3.5878 3.64352 -3.69442 255 0 0
3.7368 2.35286 -3.83986 255 0 0
4.88566 2.48572 -3.86712 255 0 0
4.49801 2.34243 -4.03099 255 0 0
5.0345 2.31099 -4.20073 255 0 0
5.76557 2.9334 -5.0165 255 0 0
3.62898 2.4757 -3.78765 255 0 0
4.1184 2.53216 -3.78243 255 0 0
6.08998 2.41955 -4.17144 255 0 0
5.13482 2.5061 -3.89333 255 0 0
5.3551 2.44283 -4.05959 255 0 0
6.4679 2.73089 -5.27385 255 0 0
3.68822 2.38374 -3.82973 255 0 0
3.82301 3.08706 -3.95212 255 0 0
6.30788 2.42853 -4.30228 255 0 0
5.09893 2.50356 -3.88228 255 0 0
4.34123 2.50183 -3.70665 255 0 0
4.13957 2.29497 -4.07677 255 0 0
3.58798 3.67843 -3.65545 255 0 0
5.43775 2.41847 -4.13814 255 0 0
4.99301 2.63799 -3.87123 255 0 0
4.62847 2.49473 -3.74231 255 0 0
5.10153 2.55004 -3.94264 255 0 0
6.32004 2.37317 -4.29945 255 0 0
4.96044 2.34859 -4.02346 255 0 0
5.81002 2.73399 -4.99422 255 0 0
5.74383 2.66965 -4.88972 255 0 0
3.89697 2.29532 -4.06339 255 0 0
3.93602 2.47177 -3.71356 255 0 0
4.15119 2.3014 -4.16547 255 0 0
5.9909 2.58826 -3.92427 255 0 0
3.80239 2.48964 -3.762 255 0 0
5.48915 2.44133 -4.10214 255 0 0
4.69624 2.38234 -3.99134 255 0 0
5.63833 2.44389 -4.86555 255 0 0
3.5883 3.39373 -3.82091 255 0 0
4.9482 2.39325 -4.0265 255 0 0
4.68267 2.35456 -3.98202 255 0 0
3.61725 2.38069 -3.84664 255 0 0
5.57155 2.46217 -4.07479 255 0 0
6.61016 2.39309 -4.45991 255 0 0
3.84525 2.47881 -3.77364 255 0 0
6.62915 2.39997 -4.4014 255 0 0
5.11683 2.34878 -4.12906 255 0 0
5.99793 2.49343 -4.1524 255 0 0
4.77781 2.40949 -3.97282 255 0 0
5.91067 2.46266 -4.92131 255 0 0
5.70155 2.45525 -4.11444 255 0 0
6.85556 2.40864 -4.47502 255 0 0
3.74192 2.32519 -4.00992 255 0 0
3.80182 2.40005 -3.82958 255 0 0
6.04543 2.48523 -4.16591 255 0 0
3.57345 3.42817 -3.73277 255 0 0
4.81444 2.27946 -4.27155 255 0 0
6.47114 2.39498 -4.41446 255 0 0
5.64995 2.44893 -4.09745 255 0 0
5.37651 2.59256 -3.92298 255 0 0
3.62526 3.51104 -3.67232 255 0 0
5.47905 2.61005 -3.73479 255 0 0
5.03128 2.51492 -3.86386 255 0 0
6.03409 2.40563 -4.21261 255 0 0
4.03561 2.33848 -3.898 255 0 0
4.2491 2.36887 -3.93267 255 0 0
4.25611 2.52046 -3.73083 255 0 0
3.66831 3.35583 -3.69344 255 0 0
3.63731 2.43426 -3.78103 255 0 0
5.07666 2.35956 -4.06397 255 0 0
3.78701 2.3346 -3.98517 255 0 0
4.4448 2.35061 -3.98139 255 0 0
4.58245 2.33145 -4.09221 255 0 0
4.70635 2.33857 -4.13856 255 0 0
6.31414 2.39662 -4.36321 255 0 0
4.60217 2.38748 -4.00999 255 0 0
3.64611 3.4158 -3.74824 255 0 0
3.98784 2.46493 -3.77284 255 0 0
3.84469 3.43436 -3.66084 255 0 0
5.86107 2.775 -5.02392 255 0 0
5.46459 2.4149 -4.09054 255 0 0
4.20496 2.35734 -3.86889 255 0 0
4.60157 2.54399 -3.74231 255 0 0
5.39211 2.67932 -3.6671 255 0 0
3.64157 2.99806 -3.82867 255 0 0
4.08829 2.3406 -3.93525 255 0 0
5.56439 2.66691 -3.65338 255 0 0
3.59475 3.68537 -3.99588 255 0 0
5.68014 2.44603 -4.16402 255 0 0
4.41733 2.4764 -3.8194 255 0 0
4.71583 2.31546 -4.18891 255 0 0
4.35421 2.3336 -4.0583 255 0 0
3.65912 2.40825 -3.74027 255 0 0
4.63452 2.35104 -4.06454 255 0 0
5.83231 2.66049 -3.77491 255 0 0
5.79914 2.67865 -3.76866 255 0 0
5.66054 2.65546 -3.73116 255 0 0
5.49581 2.63406 -3.68742 255 0 0
5.49555 2.68214 -3.69314 255 0 0
5.44398 2.68902 -3.68117 255 0 0
5.34031 2.66939 -3.65304 255 0 0
5.34909 2.68965 -3.65773 255 0 0
3.61444 2.36658 -3.97104 255 0 0
5.88579 2.60104 -3.83939 255 0 0
5.79118 2.59212 -3.81364 255 0 0
5.57739 2.6326 -3.76295 255 0 0
5.44125 2.62378 -3.72674 255 0 0
5.38827 2.62979 -3.71387 255 0 0
5.3517 2.62768 -3.70421 255 0 0
5.20698 2.60275 -3.66398 255 0 0
7.09428 2.51143 -4.49374 255 0 0
3.66905 2.45236 -3.75324 255 0 0
3.83015 2.48195 -3.7259 255 0 0
6.05193 2.72608 -5.02825 255 0 0
5.04937 2.38338 -4.11146 255 0 0
3.70113 3.04709 -3.90456 255 0 0
4.57985 2.30967 -4.13712 255 0 0
4.17463 2.53277 -3.70859 255 0 0
6.06299 2.57689 -3.94249 255 0 0
5.75978 2.61092 -3.86466 255 0 0
5.69225 2.5966 -3.84478 255 0 0
5.78816 2.65695 -3.8779 255 0 0
5.53911 2.60651 -3.80504 255 0 0
5.47598 2.60859 -3.78848 255 0 0
5.39779 2.60282 -3.76695 255 0 0
5.26711 2.60166 -3.73218 255 0 0
5.23965 2.61907 -3.72721 255 0 0
5.03229 2.60555 -3.6709 255 0 0
5.02583 2.67823 -3.67918 255 0 0
4.39468 2.40921 -3.94297 255 0 0
4.12848 2.39229 -3.84984 255 0 0
4.59821 2.33945 -4.00011 255 0 0
6.88966 2.5313 -4.36468 255 0 0
5.62826 2.56741 -4.04988 255 0 0
3.99144 2.29181 -4.0233 255 0 0
5.84479 2.53338 -4.05226 255 0 0
5.77408 2.56805 -3.92056 255 0 0
4.86374 2.40959 -4.00118 255 0 0
4.69776 2.34821 -4.03609 255 0 0
3.62333 3.74121 -3.6779 255 0 0
6.08575 2.55256 -4.06571 255 0 0
4.99038 2.539 -3.75262 255 0 0
4.2806 2.4669 -4.30382 255 0 0
6.48583 2.7566 -5.28622 255 0 0
4.29564 2.3351 -3.9424 255 0 0
3.75619 2.45939 -3.67653 255 0 0
6.10776 2.46021 -4.24281 255 0 0
7.04386 2.53123 -4.41136 255 0 0
6.99067 2.53085 -4.3952 255 0 0
6.96371 2.53978 -4.38802 255 0 0
6.80001 2.51667 -4.33595 255 0 0
6.22377 2.37076 -4.14563 255 0 0
6.18929 2.38287 -4.13665 255 0 0
6.10287 2.37455 -4.10972 255 0 0
5.96194 2.35233 -4.06483 255 0 0
6.08583 2.4179 -4.10972 255 0 0
6.00219 2.40941 -4.08368 255 0 0
6.13921 2.52378 -4.13844 255 0 0
6.02507 2.49357 -4.10074 255 0 0
6.00885 2.50356 -4.09715 255 0 0
5.99348 2.53058 -4.09595 255 0 0
6.01046 2.5714 -4.10613 255 0 0
5.92756 2.55258 -4.07919 255 0 0
5.86124 2.60682 -4.06662 255 0 0
5.42 2.56617 -3.93196 255 0 0
5.68057 2.70605 -4.02712 255 0 0
5.1588 2.5178 -3.84937 255 0 0
5.09635 2.52482 -3.83231 255 0 0
5.01121 2.49748 -3.82954 255 0 0
4.91265 2.49945 -3.77575 255 0 0
4.96287 2.58454 -3.80269 255 0 0
4.82837 2.52907 -3.756 255 0 0
4.98014 2.62364 -3.81346 255 0 0
4.70123 2.54839 -3.72279 255 0 0
4.7723 2.58688 -3.74882 255 0 0
4.58893 2.51571 -3.68598 255 0 0
4.61107 2.55636 -3.69855 255 0 0
4.55879 2.56993 -3.68598 255 0 0
3.596 3.64322 -3.64917 255 0 0
4.58024 2.28947 -4.03427 255 0 0
5.6815 2.41475 -4.16016 255 0 0
4.75177 2.33311 -4.36216 255 0 0
6.77707 2.48993 -4.39245 255 0 0
6.10851 2.31028 -4.16407 255 0 0
6.04588 2.30299 -4.14381 255 0 0
6.07672 2.33126 -4.1567 255 0 0
6.09104 2.38656 -4.16775 255 0 0
5.97553 2.523 -4.14933 255 0 0
5.84933 2.53535 -4.1125 255 0 0
5.77708 2.52032 -4.08856 255 0 0
5.7202 2.51166 -4.07014 255 0 0
5.85149 2.58588 -4.11987 255 0 0
5.77932 2.57038 -4.09592 255 0 0
5.72039 2.59307 -4.08119 255 0 0
5.43044 2.53183 -3.98542 255 0 0
5.56605 2.63532 -4.04067 255 0 0
5.45943 2.60071 -4.00384 255 0 0
5.31792 2.54878 -3.95411 255 0 0
4.94324 2.50027 -3.83562 255 0 0
4.68491 2.55389 -3.76809 255 0 0
4.49915 2.57865 -3.71836 255 0 0
4.52191 2.60596 -3.72941 255 0 0
4.39728 2.555 -3.68521 255 0 0
4.29106 2.52744 -3.65022 255 0 0
4.29264 2.52838 -3.68149 255 0 0
3.87561 3.44549 -3.71836 255 0 0
3.78488 3.4052 -3.68705 255 0 0
3.74418 3.42524 -3.68153 255 0 0
3.77697 3.47173 -3.69995 255 0 0
3.83406 3.54101 -3.72941 255 0 0
3.67797 3.52844 -3.68889 255 0 0
3.60957 3.47929 -3.66127 255 0 0
3.62843 3.54761 -3.68153 255 0 0
3.65229 3.57093 -3.69258 255 0 0
3.58996 3.56028 -3.67539 255 0 0
3.56516 3.6034 -3.67969 255 0 0
3.60152 3.69232 -3.70915 255 0 0
3.58673 3.72986 -3.71468 255 0 0
3.599 3.78734 -3.73126 255 0 0
3.61504 3.51779 -3.90746 255 0 0
4.23077 2.52581 -3.67833 255 0 0
5.1414 2.38968 -4.0903 255 0 0
4.87896 2.35264 -4.04829 255 0 0
7.11832 2.4631 -4.56564 255 0 0
6.7819 2.40084 -4.45048 255 0 0
6.73965 2.40388 -4.43727 255 0 0
6.57088 2.41417 -4.38441 255 0 0
6.55935 2.4453 -4.38441 255 0 0
6.36105 2.4058 -4.31644 255 0 0
6.20881 2.41577 -4.26924 255 0 0
6.13054 2.41045 -4.24376 255 0 0
5.97351 2.42261 -4.19562 255 0 0
5.91643 2.41581 -4.17674 255 0 0
5.8684 2.44505 -4.16541 255 0 0
5.73793 2.45481 -4.12576 255 0 0
5.66507 2.55182 -4.11633 255 0 0
5.20988 2.46669 -3.96341 255 0 0
5.15899 2.45758 -3.94642 255 0 0
5.14272 2.4723 -3.94358 255 0 0
5.04491 2.47704 -3.91432 255 0 0
5.01025 2.53417 -3.91243 255 0 0
5.11529 2.63316 -3.95963 255 0 0
4.90723 2.5408 -3.88223 255 0 0
5.06698 2.65405 -3.9483 255 0 0
4.98221 2.62472 -3.9181 255 0 0
5.06264 2.69785 -3.95397 255 0 0
4.90342 2.64293 -3.89733 255 0 0
4.53558 2.47249 -3.75951 255 0 0
4.45585 2.45651 -3.73308 255 0 0
4.60513 2.55306 -3.7935 255 0 0
4.48476 2.50721 -3.75007 255 0 0
4.49089 2.55276 -3.75951 255 0 0
4.44813 2.54941 -3.7463 255 0 0
4.3772 2.5503 -3.72553 255 0 0
4.20157 2.48817 -3.66323 255 0 0
3.62668 3.2863 -3.66701 255 0 0
3.62416 3.37913 -3.68777 255 0 0
3.58591 3.38344 -3.67928 255 0 0
3.57113 3.83919 -3.78594 255 0 0
4.34743 2.29693 -4.24324 255 0 0
4.83926 2.33351 -4.23846 255 0 0
7.17691 2.46434 -4.65523 255 0 0
7.01436 2.42713 -4.59721 255 0 0
6.91987 2.41282 -4.56434 255 0 0
6.64182 2.38676 -4.46958 255 0 0
6.54735 2.38793 -4.43864 255 0 0
6.44266 2.38442 -4.40383 255 0 0
6.2385 2.39332 -4.33807 255 0 0
6.01396 2.40587 -4.26652 255 0 0
5.94672 2.39534 -4.24331 255 0 0
5.88469 2.38659 -4.22204 255 0 0
5.89886 2.42497 -4.23171 255 0 0
5.73366 2.40488 -4.17563 255 0 0
5.59755 2.44198 -4.13695 255 0 0
5.5469 2.4199 -4.11761 255 0 0
5.43758 2.44158 -4.0857 255 0 0
5.41044 2.46805 -4.08087 255 0 0
5.32843 2.46123 -4.05379 255 0 0
5.19577 2.44495 -4.00931 255 0 0
5.14247 2.47969 -3.99771 255 0 0
5.10266 2.4605 -3.98224 255 0 0
4.97718 2.50264 -3.94936 255 0 0
4.90899 2.52697 -3.93196 255 0 0
4.76951 2.48385 -3.88168 255 0 0
4.58457 2.51332 -3.82946 255 0 0
4.52406 2.48712 -3.83064 255 0 0
4.38376 2.55412 -3.77531 255 0 0
4.25255 2.50475 -3.72696 255 0 0
4.16231 2.50507 -3.69989 255 0 0
4.14079 2.5358 -3.73306 255 0 0
4.07931 2.53486 -3.68055 255 0 0
4.02066 2.53825 -3.66379 255 0 0
3.71043 3.49262 -3.78305 255 0 0
3.65797 3.45963 -3.76177 255 0 0
4.1411 2.28299 -4.1336 255 0 0
5.35086 2.41028 -4.10844 255 0 0
5.08906 2.39474 -4.02067 255 0 0
5.07434 2.41726 -4.01935 255 0 0
5.04375 2.41738 -4.00945 255 0 0
4.99333 2.40779 -3.99163 255 0 0
4.94063 2.44037 -3.97976 255 0 0
4.80731 2.46022 -3.94016 255 0 0
4.19823 2.34485 -3.9879 255 0 0
4.52379 2.46606 -3.85107 255 0 0
4.43675 2.45284 -3.82138 255 0 0
4.45945 2.51393 -3.83919 255 0 0
4.23583 2.48816 -3.76495 255 0 0
4.18413 2.45111 -3.74219 255 0 0
4.05563 2.44087 -3.70061 255 0 0
3.9936 2.4685 -3.68675 255 0 0
3.94265 2.48249 -3.67388 255 0 0
3.57111 3.39356 -3.7699 255 0 0
4.38991 2.39982 -3.89193 255 0 0
5.09524 2.39764 -4.07612 255 0 0
4.89485 2.39616 -4.00928 255 0 0
4.7495 2.37407 -3.98271 255 0 0
4.66198 2.40682 -3.93434 255 0 0
4.63506 2.46999 -3.93636 255 0 0
4.50813 2.41609 -3.88573 255 0 0
4.59618 2.48434 -3.92624 255 0 0
4.46189 2.43232 -3.87357 255 0 0
4.41275 2.41912 -3.85534 255 0 0
4.21416 2.4687 -3.80066 255 0 0
4.16577 2.50716 -3.79255 255 0 0
4.09595 2.49164 -3.76757 255 0 0
3.85256 2.48352 -3.68993 255 0 0
3.7965 2.48579 -3.67305 255 0 0
3.6868 2.79385 -3.70546 255 0 0
3.68467 3.43556 -3.85737 255 0 0
4.78198 2.27799 -4.20693 255 0 0
3.95564 2.29218 -4.04005 255 0 0
5.02349 2.33484 -4.20073 255 0 0
5.01565 2.34568 -4.09386 255 0 0
4.9494 2.35774 -4.07315 255 0 0
4.89619 2.35377 -4.08015 255 0 0
4.86775 2.37575 -4.04829 255 0 0
4.75886 2.33659 -4.0048 255 0 0
4.75767 2.35705 -4.03308 255 0 0
4.63167 2.37034 -3.96752 255 0 0
4.60169 2.36878 -3.95717 255 0 0
4.48734 2.39811 -3.92403 255 0 0
4.33445 2.40971 -3.87536 255 0 0
4.31391 2.41842 -3.87018 255 0 0
4.32724 2.4394 -3.87846 255 0 0
4.26022 2.44175 -3.88021 255 0 0
4.1943 2.44372 -3.83566 255 0 0
4.14383 2.45395 -3.82116 255 0 0
4.14564 2.5219 -3.83497 255 0 0
4.10694 2.51172 -3.82047 255 0 0
3.94994 2.4588 -3.78896 255 0 0
3.91572 2.4461 -3.74592 255 0 0
3.6417 2.50125 -3.67067 255 0 0
3.63296 2.84918 -3.74592 255 0 0
3.63831 2.89541 -3.75834 255 0 0
3.59252 2.88688 -3.74281 255 0 0
3.89728 3.6424 -4.01723 255 0 0
3.82048 3.5962 -3.98409 255 0 0
3.74605 3.55137 -3.95199 255 0 0
3.64032 3.47578 -3.90332 255 0 0
3.59997 3.47826 -3.89296 255 0 0
4.84446 2.32186 -4.34384 255 0 0
3.68246 2.38004 -3.913 255 0 0
5.08941 2.36548 -4.17578 255 0 0
4.99477 2.33591 -4.13769 255 0 0
5.04356 2.37332 -4.16097 255 0 0
5.00337 2.36892 -4.14615 255 0 0
4.82563 2.34811 -4.08054 255 0 0
4.81235 2.36285 -4.07842 255 0 0
4.77176 2.37107 -4.06572 255 0 0
4.72144 2.37405 -4.04879 255 0 0
4.55645 2.37289 -3.99165 255 0 0
4.49202 2.36648 -3.96836 255 0 0
4.38767 2.36494 -3.93238 255 0 0
4.30261 2.37868 -3.92955 255 0 0
4.23931 2.39647 -3.88794 255 0 0
4.14065 2.42564 -3.86042 255 0 0
4.04068 2.41234 -3.82444 255 0 0
4.04089 2.43851 -3.82973 255 0 0
3.99297 2.44202 -3.81456 255 0 0
3.99374 2.46858 -3.82021 255 0 0
3.79355 2.45823 -3.75248 255 0 0
3.74754 2.4984 -3.74613 255 0 0
3.72216 2.52636 -3.74401 255 0 0
3.59864 2.48642 -3.71661 255 0 0
3.69248 2.99616 -3.84349 255 0 0
4.54756 2.29339 -4.27268 255 0 0
5.84089 2.59777 -4.91645 255 0 0
4.9505 2.3367 -4.17479 255 0 0
4.86165 2.35851 -4.14669 255 0 0
4.83087 2.37195 -4.13804 255 0 0
4.68312 2.32703 -4.07751 255 0 0
4.63098 2.36999 -4.0667 255 0 0
4.40774 2.36229 -3.98671 255 0 0
4.34219 2.38044 -3.96726 255 0 0
4.12006 2.34844 -3.88403 255 0 0
4.09479 2.39224 -3.88403 255 0 0
4.03505 2.40246 -3.86565 255 0 0
3.94698 2.40106 -3.83539 255 0 0
3.83232 2.40032 -3.79647 255 0 0
3.84705 2.4457 -3.82564 255 0 0
3.61388 2.44662 -3.73378 255 0 0
3.57482 2.90068 -3.8289 255 0 0
4.89868 3.78587 -4.10877 255 0 0
4.91589 2.34178 -4.2158 255 0 0
4.85519 2.35538 -4.19594 255 0 0
4.73199 2.3234 -4.14518 255 0 0
4.65193 2.33222 -4.11759 255 0 0
4.55893 2.3059 -4.07897 255 0 0
4.39527 2.31552 -4.02159 255 0 0
4.39061 2.33975 -4.02453 255 0 0
4.34368 2.35454 -4.01055 255 0 0
4.25161 2.33079 -3.97303 255 0 0
4.1642 2.35401 -3.94655 255 0 0
4.0666 2.38226 -3.91786 255 0 0
3.95446 2.34814 -3.87151 255 0 0
3.99829 2.3806 -3.89358 255 0 0
3.89129 2.37983 -3.87093 255 0 0
3.84852 2.36623 -3.83841 255 0 0
3.74916 2.39806 -3.83258 255 0 0
3.75553 2.42727 -3.81965 255 0 0
3.69007 2.40362 -3.79206 255 0 0
3.64047 2.40011 -3.7744 255 0 0
3.58674 2.4844 -3.77551 255 0 0
4.75045 2.3185 -4.20243 255 0 0
4.47948 2.29245 -4.09658 255 0 0
4.57495 2.35501 -4.14388 255 0 0
4.3932 2.2945 -4.06506 255 0 0
4.50141 2.34423 -4.1146 255 0 0
4.28988 2.29912 -4.0279 255 0 0
4.26231 2.31043 -4.02002 255 0 0
4.24103 2.33806 -4.01776 255 0 0
4.10017 2.32422 -3.96372 255 0 0
4.02926 2.32842 -3.93895 255 0 0
3.94401 2.2979 -3.92411 255 0 0
3.9963 2.34742 -3.93106 255 0 0
3.90155 2.34812 -3.89728 255 0 0
3.64009 2.38335 -3.81284 255 0 0
3.61299 2.36563 -3.79932 255 0 0
4.35636 2.46262 -4.33352 255 0 0
5.07236 2.29931 -4.3749 255 0 0
5.12433 2.36695 -4.40706 255 0 0
4.87449 2.26559 -4.29222 255 0 0
4.71507 2.2874 -4.2348 255 0 0
4.65458 2.31284 -4.21642 255 0 0
4.57409 2.29318 -4.18197 255 0 0
4.13248 2.2953 -4.01584 255 0 0
4.11632 2.29484 -4.00971 255 0 0
4.12415 2.32492 -4.0189 255 0 0
4.0121 2.2932 -3.97067 255 0 0
4.03849 2.33375 -3.98904 255 0 0
3.95586 2.33633 -3.95918 255 0 0
3.8939 2.32464 -3.93392 255 0 0
3.80171 2.30034 -3.89487 255 0 0
3.82798 2.3349 -3.9121 255 0 0
3.81737 2.34707 -3.91095 255 0 0
3.7339 2.30798 -3.8719 255 0 0
3.73891 2.33561 -3.87994 255 0 0
3.66175 2.31166 -3.84664 255 0 0
3.6699 2.32899 -3.85353 255 0 0
3.59397 2.35723 -3.83286 255 0 0
5.08294 2.31865 -4.4375 255 0 0
4.84995 2.31037 -4.34384 255 0 0
4.67978 2.30466 -4.27593 255 0 0
4.58789 2.32054 -4.24315 255 0 0
4.55367 2.31681 -4.2291 255 0 0
4.43004 2.33383 -4.18462 255 0 0
4.20519 2.25374 -4.08159 255 0 0
3.89905 2.28411 -3.97154 255 0 0
3.63789 2.34509 -3.88842 255 0 0
3.68519 2.35096 -3.92887 255 0 0
6.25526 2.7113 -5.04217 255 0 0
6.27332 2.73681 -5.0541 255 0 0
5.16719 2.3423 -4.53157 255 0 0
5.17061 2.37347 -4.53872 255 0 0
4.97079 2.29603 -4.44328 255 0 0
4.78875 2.28121 -4.36693 255 0 0
4.47916 2.29229 -4.24524 255 0 0
4.43428 2.30924 -4.23093 255 0 0
4.17976 2.25288 -4.11878 255 0 0
4.19683 2.29427 -4.13429 255 0 0
4.03719 2.257 -4.06391 255 0 0
3.9779 2.24247 -4.03766 255 0 0
3.99835 2.28846 -4.09026 255 0 0
3.86632 2.26493 -3.99948 255 0 0
3.85294 2.31888 -4.00664 255 0 0
3.72849 2.25604 -3.94461 255 0 0
3.74122 2.33707 -3.98305 255 0 0
3.67788 2.29752 -3.93506 255 0 0
3.64588 2.33805 -3.93268 255 0 0
5.76235 2.41691 -4.85083 255 0 0
5.66665 2.42431 -4.81195 255 0 0
5.5329 2.39819 -4.75119 255 0 0
5.48159 2.42242 -4.73417 255 0 0
6.00179 2.72062 -5.00638 255 0 0
5.19562 2.37005 -4.60536 255 0 0
5.13189 2.3557 -4.5762 255 0 0
5.9049 2.7275 -4.96749 255 0 0
4.74906 2.31782 -4.41093 255 0 0
5.98235 2.97261 -5.04769 255 0 0
4.54775 2.32739 -4.33073 255 0 0
4.45076 2.31785 -4.28941 255 0 0
4.3839 2.29626 -4.25782 255 0 0
4.35806 2.32238 -4.25296 255 0 0
4.2373 2.28825 -4.19706 255 0 0
4.12001 2.25864 -4.14359 255 0 0
4.04801 2.25676 -4.11443 255 0 0
3.98224 2.23249 -4.08283 255 0 0
3.85581 2.33308 -4.0561 255 0 0
3.77289 2.29516 -4.01478 255 0 0
3.64235 2.37254 -3.98319 255 0 0
6.55755 2.75045 -5.31592 255 0 0
6.4744 2.76988 -5.28375 255 0 0
5.69631 2.664 -4.93236 255 0 0
4.29182 2.29364 -4.26918 255 0 0
4.42187 2.46519 -4.36074 255 0 0
4.37985 2.4965 -4.35084 255 0 0
5.01689 3.82054 -4.20657 255 0 0
4.94312 3.76436 -4.11633 255 0 0
6.28406 3.17846 -5.14239 255 0 0
5.8466 3.18717 -5.03797 255 0 0
