ply
format ascii 1.0
comment Created by Open3D
element vertex 732
property double x
property double y
property double z
property uchar red
property uchar green
property uchar blue
end_header
5.77171 10.0427 -5.10368 255 0 0
6.63397 10.9345 -5.08737 255 0 0
4.71037 10.3912 -4.65395 255 0 0
4.34899 10.7601 -4.69972 255 0 0
7.04173 11.1837 -5.65919 255 0 0
5.51073 10.4905 -4.34429 255 0 0
6.71639 10.8372 -5.07775 255 0 0
4.9285 9.06648 -5.13623 255 0 0
6.68277 10.898 -5.08599 255 0 0
4.37845 10.439 -5.03321 255 0 0
5.31516 9.94573 -4.42638 255 0 0
4.46597 10.6124 -4.88088 255 0 0
6.58807 10.801 -5.50295 255 0 0
4.89367 9.0535 -5.12771 255 0 0
6.3194 10.5282 -5.39983 255 0 0
6.08588 10.5314 -4.93623 255 0 0
6.48755 11.0444 -5.20492 255 0 0
6.24669 10.8097 -4.79505 255 0 0
5.26351 9.71016 -4.66624 255 0 0
4.28861 10.6835 -4.98234 255 0 0
5.56375 9.84222 -5.02942 255 0 0
5.48669 9.98025 -4.6493 255 0 0
4.5518 8.66506 -5.42492 255 0 0
6.86093 11.0704 -5.60607 255 0 0
4.97902 10.1103 -4.72051 255 0 0
5.64024 9.81391 -5.64667 255 0 0
4.62122 10.3905 -4.84535 255 0 0
4.66738 10.6641 -4.40362 255 0 0
5.00007 10.2448 -4.35389 255 0 0
6.67574 10.8289 -5.07088 255 0 0
5.06858 9.45734 -5.55552 255 0 0
4.285 10.6745 -4.87804 255 0 0
4.26733 10.7408 -4.99409 255 0 0
5.66003 9.90262 -5.26037 255 0 0
4.37186 10.6707 -4.68247 255 0 0
5.4606 9.65973 -5.77956 255 0 0
5.06634 10.1356 -4.43808 255 0 0
5.01453 10.5588 -4.31247 255 0 0
6.69948 10.9253 -5.32008 255 0 0
4.7722 10.3315 -4.64731 255 0 0
4.96513 10.2039 -4.54049 255 0 0
5.20503 9.31043 -5.73241 255 0 0
4.84008 10.0071 -4.78139 255 0 0
4.67134 10.5368 -4.68114 255 0 0
4.84327 9.77609 -4.92334 255 0 0
4.55995 10.5546 -4.77547 255 0 0
5.24802 9.70907 -4.76149 255 0 0
5.17669 9.91163 -4.50339 255 0 0
4.84196 10.3214 -4.75211 255 0 0
4.81329 9.16283 -4.77331 255 0 0
4.61132 8.7531 -5.09682 255 0 0
6.55141 10.9737 -4.97301 255 0 0
5.12292 9.31856 -5.32858 255 0 0
5.26149 10.1325 -4.35744 255 0 0
4.68719 8.82093 -5.03577 255 0 0
4.67221 10.307 -4.93168 255 0 0
4.38666 10.7068 -4.89509 255 0 0
4.59279 10.6306 -4.49166 255 0 0
4.86444 10.1495 -4.61813 255 0 0
6.71329 10.7751 -5.1765 255 0 0
4.89997 10.0096 -4.7885 255 0 0
4.54605 10.3868 -4.737 255 0 0
4.58004 10.4645 -4.85814 255 0 0
5.47787 9.6903 -5.28219 255 0 0
4.83043 10.4903 -4.38467 255 0 0
6.82586 11.0138 -5.35679 255 0 0
4.87305 10.1366 -4.71501 255 0 0
6.54651 11.0845 -4.88203 255 0 0
4.61391 10.508 -4.56927 255 0 0
5.56718 9.74016 -5.61435 255 0 0
5.35707 9.58239 -5.13807 255 0 0
5.13597 10.0652 -4.43131 255 0 0
5.58646 9.82792 -5.23141 255 0 0
5.52006 9.7111 -5.4965 255 0 0
5.972 10.5644 -4.61113 255 0 0
4.56631 10.535 -4.57055 255 0 0
5.48891 10.1547 -4.38349 255 0 0
5.25785 9.69977 -4.85826 255 0 0
4.83511 9.0993 -4.85298 255 0 0
4.8604 9.04314 -5.02717 255 0 0
5.1095 10.0722 -4.43008 255 0 0
5.15301 9.32087 -5.43121 255 0 0
4.78381 10.2607 -4.73288 255 0 0
5.04431 9.17556 -5.1822 255 0 0
5.0249 10.1427 -4.53409 255 0 0
4.7298 10.4671 -4.77272 255 0 0
5.82346 10.4749 -4.47466 255 0 0
4.5322 10.559 -4.57247 255 0 0
4.87659 10.237 -4.53857 255 0 0
5.25473 9.86076 -4.50147 255 0 0
6.72063 10.8441 -5.19213 255 0 0
4.81069 10.3825 -4.4621 255 0 0
4.54638 10.455 -4.75211 255 0 0
7.01343 11.2568 -5.55377 255 0 0
5.61229 10.5017 -4.35565 255 0 0
5.4136 9.62982 -5.25735 255 0 0
4.6739 8.7458 -5.656 255 0 0
5.03364 10.1001 -4.52642 255 0 0
6.91401 11.0972 -5.62013 255 0 0
4.74965 9.094 -4.74906 255 0 0
4.71575 10.4031 -4.55712 255 0 0
5.0612 9.39003 -5.43659 255 0 0
5.0599 9.97443 -4.6999 255 0 0
5.076 9.33784 -5.32683 255 0 0
4.62081 10.7655 -4.41901 255 0 0
4.61341 10.6092 -4.4892 255 0 0
4.79832 9.62791 -4.88242 255 0 0
4.73785 10.419 -4.86382 255 0 0
5.4087 9.94986 -4.53537 255 0 0
4.47567 8.77115 -4.72643 255 0 0
5.10291 9.85563 -4.87515 255 0 0
5.95222 10.4714 -4.69655 255 0 0
6.60922 10.9521 -5.20066 255 0 0
5.32879 10.6291 -4.35224 255 0 0
5.74656 9.94426 -5.38652 255 0 0
4.90382 10.2628 -4.44732 255 0 0
4.81748 10.5278 -4.39059 255 0 0
4.41446 10.4208 -5.03245 255 0 0
4.80982 9.00015 -5.00895 255 0 0
4.95113 10.2367 -4.34797 255 0 0
5.70857 10.0427 -4.99262 255 0 0
4.59339 10.4276 -4.85103 255 0 0
5.81791 10.2918 -4.75013 255 0 0
5.7768 10.1628 -4.92494 255 0 0
4.92479 10.3067 -4.35863 255 0 0
5.03662 10.1664 -4.44116 255 0 0
4.65213 10.561 -4.48304 255 0 0
6.63647 10.8225 -5.1765 255 0 0
5.12283 9.37095 -5.05278 255 0 0
4.86491 9.10323 -5.32527 255 0 0
6.57182 10.8902 -5.29511 255 0 0
6.56265 10.8169 -5.3901 255 0 0
4.56113 10.2554 -5.00745 255 0 0
4.5765 8.78786 -5.65296 255 0 0
5.95721 10.4226 -4.79258 255 0 0
4.75617 10.5588 -4.39119 255 0 0
4.26797 10.7424 -4.89225 255 0 0
4.70883 8.81118 -5.5893 255 0 0
6.23066 10.4364 -5.47441 255 0 0
5.17921 9.36826 -5.15634 255 0 0
4.55307 10.4704 -4.65594 255 0 0
4.52481 8.68857 -5.2461 255 0 0
5.33434 9.59506 -5.13807 255 0 0
4.7589 10.3349 -4.74661 255 0 0
4.51203 10.5812 -4.67584 255 0 0
5.25621 9.75183 -4.577 255 0 0
5.66046 10.2963 -4.42612 255 0 0
4.90154 10.4484 -4.18368 255 0 0
5.75769 10.299 -4.64154 255 0 0
4.82483 10.1593 -4.81408 255 0 0
4.41555 10.5979 -4.97427 255 0 0
4.507 8.88452 -5.76728 255 0 0
4.46277 10.4657 -4.84677 255 0 0
4.53893 8.79188 -5.6479 255 0 0
6.72701 10.7971 -5.07088 255 0 0
4.51408 10.7983 -4.41664 255 0 0
5.99957 10.3821 -5.00026 255 0 0
4.72249 8.93844 -4.9808 255 0 0
4.95169 10.3001 -4.35981 255 0 0
6.96427 11.1191 -5.63263 255 0 0
5.07784 10.0098 -4.80839 255 0 0
4.71544 10.2406 -4.92067 255 0 0
5.19032 9.88057 -4.59624 255 0 0
5.2139 10.4618 -4.31247 255 0 0
5.92007 10.3576 -4.87989 255 0 0
6.96286 11.1756 -5.41112 255 0 0
6.59376 10.9853 -5.09286 255 0 0
4.71532 10.7044 -4.72094 255 0 0
5.87578 10.0575 -5.7526 255 0 0
4.31599 10.7518 -4.79677 255 0 0
5.0094 9.11207 -5.7358 255 0 0
6.08271 10.2437 -5.72913 255 0 0
3.86331 10.2515 -4.93546 255 0 0
4.9204 10.204 -4.43747 255 0 0
6.02523 10.5416 -4.7183 255 0 0
5.60302 10.2493 -4.41191 255 0 0
5.21006 10.0044 -4.427 255 0 0
3.82314 10.2183 -4.92334 255 0 0
4.70528 10.6474 -4.40362 255 0 0
6.45555 10.7551 -5.24959 255 0 0
6.04262 10.2313 -5.61126 255 0 0
4.64116 9.25753 -4.77482 255 0 0
5.90984 10.283 -4.96757 255 0 0
4.88581 10.2251 -4.73562 255 0 0
5.5712 10.4846 -4.34883 255 0 0
5.43056 9.82291 -4.80839 255 0 0
5.62817 10.1236 -4.69441 255 0 0
4.84751 8.96811 -5.66255 255 0 0
4.54412 10.7981 -4.41901 255 0 0
4.5766 10.6625 -4.49659 255 0 0
5.19749 9.78127 -4.77144 255 0 0
5.47805 9.6906 -5.38311 255 0 0
5.21984 9.73957 -4.86267 255 0 0
5.15347 9.26974 -5.31983 255 0 0
3.6077 10.0022 -4.84908 255 0 0
5.35512 9.5789 -5.23583 255 0 0
5.37208 10.6523 -4.3602 255 0 0
4.87247 10.1353 -4.91333 255 0 0
4.4178 10.7465 -4.60125 255 0 0
4.68892 10.1197 -4.9885 255 0 0
5.18168 9.32047 -5.6323 255 0 0
4.6259 10.5693 -4.6838 255 0 0
4.88327 9.13757 -4.86861 255 0 0
5.50992 9.80115 -5.01275 255 0 0
4.84834 10.0851 -4.79987 255 0 0
4.92599 10.1848 -4.53281 255 0 0
4.8291 9.08799 -4.94174 255 0 0
5.44772 10.6139 -4.3602 255 0 0
4.71769 10.0876 -4.98396 255 0 0
4.41974 10.6079 -4.77409 255 0 0
6.26382 10.8394 -4.69365 255 0 0
4.67405 10.4094 -4.55456 255 0 0
4.89914 9.21981 -4.79756 255 0 0
5.90414 10.106 -5.45111 255 0 0
4.79952 10.1996 -4.82047 255 0 0
5.03377 9.92292 -4.88249 255 0 0
4.45883 10.5604 -4.66655 255 0 0
5.82896 10.0319 -5.52613 255 0 0
5.17161 9.95938 -4.51235 255 0 0
5.90748 10.2227 -5.0587 255 0 0
4.59179 10.2262 -5.00366 255 0 0
4.96251 10.0168 -4.79702 255 0 0
4.65487 8.91252 -4.87415 255 0 0
5.14543 9.79511 -4.86634 255 0 0
4.68817 10.5074 -4.47565 255 0 0
5.12415 9.95437 -4.70265 255 0 0
4.78119 10.2551 -4.63206 255 0 0
6.15495 10.7685 -4.5611 255 0 0
4.49952 10.6568 -4.58974 255 0 0
4.48704 8.74217 -4.9864 255 0 0
4.62324 10.2962 -4.82403 255 0 0
4.45377 10.3425 -5.0173 255 0 0
4.85113 10.2775 -4.54433 255 0 0
5.77071 9.93162 -5.70053 255 0 0
5.06025 9.91677 -4.68753 255 0 0
5.11208 9.93089 -4.59823 255 0 0
4.4318 10.8905 -4.52984 255 0 0
5.68834 10.1749 -4.71166 255 0 0
4.94942 10.1106 -4.91626 255 0 0
4.61297 8.88356 -4.86128 255 0 0
4.87921 10.088 -4.90305 255 0 0
6.68945 10.9089 -5.65786 255 0 0
4.62364 8.70133 -5.17445 255 0 0
6.57937 11.0205 -5.09836 255 0 0
5.29479 9.63118 -4.84725 255 0 0
4.9157 9.04293 -5.50581 255 0 0
4.81276 10.2592 -4.63604 255 0 0
5.80217 10.0405 -5.21078 255 0 0
4.52015 8.83241 -5.65803 255 0 0
5.19599 9.89136 -4.69715 255 0 0
4.55915 10.4844 -4.96178 255 0 0
4.71238 10.2981 -4.93389 255 0 0
5.41595 9.634 -5.76445 255 0 0
4.3616 10.718 -4.69176 255 0 0
5.18173 9.47869 -4.89455 255 0 0
5.99283 10.4274 -4.90325 255 0 0
5.43031 10.0463 -4.45717 255 0 0
5.85215 10.1826 -5.04255 255 0 0
6.28247 10.4667 -5.71001 255 0 0
4.41416 10.6656 -4.68512 255 0 0
5.18486 9.81359 -4.67929 255 0 0
5.4738 9.79118 -4.90599 255 0 0
6.69998 11.0433 -5.23193 255 0 0
5.10885 9.34539 -5.33383 255 0 0
5.32491 9.79571 -4.59359 255 0 0
5.17758 9.41798 -5.07209 255 0 0
4.91654 9.09582 -5.0487 255 0 0
5.36874 10.5832 -4.3477 255 0 0
5.17227 9.76171 -4.86193 255 0 0
4.9135 10.0978 -4.80981 255 0 0
5.6339 10.0217 -4.87661 255 0 0
5.17892 9.85886 -4.49316 255 0 0
5.51377 9.70004 -5.5946 255 0 0
4.62708 10.572 -4.48304 255 0 0
4.60049 10.4438 -4.75486 255 0 0
4.95983 10.1015 -4.51938 255 0 0
4.77382 10.303 -4.74112 255 0 0
5.54377 9.75281 -5.10609 255 0 0
5.26213 9.65293 -4.75083 255 0 0
5.1225 9.80791 -4.7686 255 0 0
5.23745 10.1449 -4.35744 255 0 0
4.65977 9.02596 -4.72178 255 0 0
6.53637 10.7162 -5.70116 255 0 0
4.65758 10.3727 -4.94563 255 0 0
4.5958 8.79942 -5.01704 255 0 0
5.42989 10.1604 -4.37875 255 0 0
6.42199 10.9924 -4.73923 255 0 0
5.51602 9.97749 -4.75211 255 0 0
5.15614 9.27453 -5.41864 255 0 0
6.06423 10.6684 -4.53386 255 0 0
5.3386 9.60273 -5.04204 255 0 0
5.39904 10.5807 -4.34997 255 0 0
5.43476 9.8858 -4.72326 255 0 0
5.41253 9.60122 -5.65221 255 0 0
5.2223 9.71648 -4.76007 255 0 0
5.29192 9.51877 -5.30989 255 0 0
5.80833 10.0512 -5.31831 255 0 0
4.81759 10.2065 -4.62542 255 0 0
6.73278 10.7495 -5.17366 255 0 0
4.65585 10.3689 -4.644 255 0 0
4.35232 10.5872 -4.96546 255 0 0
4.75986 10.4019 -4.56096 255 0 0
4.39131 10.7182 -4.79608 255 0 0
4.68628 10.3056 -4.73288 255 0 0
6.20565 10.4507 -5.25674 255 0 0
4.87971 10.4019 -4.07519 255 0 0
4.51387 10.5855 -4.57631 255 0 0
4.51734 10.4901 -4.95885 255 0 0
4.36159 10.718 -4.79333 255 0 0
5.69219 9.9043 -5.36831 255 0 0
4.94766 9.2055 -4.89361 255 0 0
5.64104 10.0903 -4.79058 255 0 0
5.37269 9.55706 -5.33203 255 0 0
5.89315 10.1423 -5.14308 255 0 0
4.97061 10.0033 -4.69646 255 0 0
4.53908 8.84355 -5.759 255 0 0
5.704 10.1464 -4.80982 255 0 0
4.61327 10.8186 -4.42848 255 0 0
4.97751 10.1986 -4.44178 255 0 0
4.90771 10.3339 -4.36218 255 0 0
4.49112 10.6018 -4.88088 255 0 0
4.51006 10.5419 -4.76791 255 0 0
5.56779 10.5384 -4.35793 255 0 0
5.50712 10.5443 -4.35338 255 0 0
5.45563 10.5063 -4.34202 255 0 0
5.45442 10.5652 -4.35224 255 0 0
5.13706 10.5572 -4.3227 255 0 0
4.91457 10.444 -4.28349 255 0 0
4.50447 10.5635 -4.975 255 0 0
5.13959 10.0723 -4.53153 255 0 0
5.86766 10.3226 -4.76207 255 0 0
5.22679 9.75258 -4.67105 255 0 0
7.01628 11.1433 -5.76408 255 0 0
5.91823 10.5862 -4.50426 255 0 0
6.20618 10.7986 -4.57175 255 0 0
5.98812 10.5929 -4.51255 255 0 0
5.70982 10.3281 -4.43677 255 0 0
5.52667 10.1669 -4.38941 255 0 0
5.37349 10.1125 -4.36455 255 0 0
5.35754 10.1404 -4.3681 255 0 0
5.30681 10.1023 -4.35626 255 0 0
5.26426 10.0793 -4.34797 255 0 0
5.16552 10.1528 -4.35211 255 0 0
5.13067 10.1736 -4.35271 255 0 0
5.10397 10.1807 -4.35152 255 0 0
5.06645 10.1962 -4.35093 255 0 0
4.88809 10.3558 -4.36455 255 0 0
4.87083 10.383 -4.3681 255 0 0
4.85047 10.4684 -4.38231 255 0 0
4.65352 10.7014 -4.40954 255 0 0
4.65088 10.765 -4.42138 255 0 0
4.96549 10.0527 -4.60818 255 0 0
4.96879 9.08918 -5.14815 255 0 0
5.94681 10.1791 -5.3698 255 0 0
4.44199 10.5554 -4.76448 255 0 0
4.62214 10.3594 -4.73837 255 0 0
3.56872 9.9681 -4.83696 255 0 0
4.4511 10.8641 -4.52615 255 0 0
6.35565 10.9383 -4.72198 255 0 0
6.21243 10.8095 -4.68257 255 0 0
6.11293 10.695 -4.65055 255 0 0
6.0621 10.6647 -4.63946 255 0 0
5.88242 10.4638 -4.5828 255 0 0
5.84642 10.4577 -4.57788 255 0 0
5.76042 10.3615 -4.55078 255 0 0
5.7026 10.315 -4.536 255 0 0
5.61361 10.2398 -4.5126 255 0 0
5.48965 10.0988 -4.47319 255 0 0
5.34956 9.95327 -4.43131 255 0 0
5.27439 9.95445 -4.42392 255 0 0
5.25227 9.99849 -4.43008 255 0 0
5.17314 10.0203 -4.42638 255 0 0
5.1572 10.0479 -4.43008 255 0 0
5.09334 10.0996 -4.43377 255 0 0
5.0125 10.1783 -4.44116 255 0 0
4.87219 10.2905 -4.44978 255 0 0
4.84529 10.3285 -4.45471 255 0 0
4.81111 10.3192 -4.44978 255 0 0
4.77493 10.4022 -4.46272 255 0 0
4.75094 10.4478 -4.46949 255 0 0
4.71964 10.4776 -4.47257 255 0 0
4.6702 10.5342 -4.47934 255 0 0
4.55095 10.7077 -4.50336 255 0 0
4.51174 10.7212 -4.50275 255 0 0
4.49073 10.7424 -4.50521 255 0 0
4.46783 10.7953 -4.51383 255 0 0
5.86456 10.3172 -4.86478 255 0 0
4.66635 10.3267 -4.8354 255 0 0
4.2727 10.5713 -5.05518 255 0 0
4.92078 10.1128 -4.61614 255 0 0
4.39067 10.6446 -4.77959 255 0 0
4.57683 10.39 -4.94123 255 0 0
6.45224 10.692 -5.34615 255 0 0
4.76809 9.02474 -4.9176 255 0 0
6.45944 10.9966 -4.85517 255 0 0
6.41029 10.9724 -4.84494 255 0 0
6.30388 10.8492 -4.80912 255 0 0
6.24097 10.8592 -4.804 255 0 0
5.87676 10.3959 -4.67352 255 0 0
5.8185 10.3501 -4.65817 255 0 0
5.68328 10.2227 -4.61852 255 0 0
5.62033 10.1662 -4.60061 255 0 0
5.51272 10.0558 -4.56735 255 0 0
5.3389 9.8772 -4.51362 255 0 0
5.29383 9.84957 -4.50339 255 0 0
5.23698 9.91223 -4.50979 255 0 0
5.13749 9.9513 -4.50723 255 0 0
5.12693 9.98887 -4.51362 255 0 0
5.08985 10.0335 -4.51874 255 0 0
5.09692 10.1067 -4.53409 255 0 0
5.03453 10.0422 -4.5149 255 0 0
4.91669 10.2273 -4.54049 255 0 0
4.82423 10.3154 -4.54944 255 0 0
4.77884 10.346 -4.55136 255 0 0
4.65324 10.4625 -4.56351 255 0 0
4.45224 10.6859 -4.59166 255 0 0
4.36681 10.7674 -4.60125 255 0 0
3.89563 10.2635 -4.94152 255 0 0
5.61895 9.77687 -5.52973 255 0 0
4.5434 9.00915 -4.7036 255 0 0
4.52069 8.73112 -4.9881 255 0 0
7.41202 11.7101 -5.59026 255 0 0
6.51373 10.9695 -4.9677 255 0 0
6.02738 10.4875 -4.81381 255 0 0
5.75437 10.236 -4.73156 255 0 0
5.53241 10.0071 -4.65992 255 0 0
5.39462 9.86813 -4.61614 255 0 0
5.21527 9.78671 -4.57966 255 0 0
5.19508 9.83294 -4.58695 255 0 0
5.15368 9.86757 -4.58961 255 0 0
5.1145 9.8494 -4.58165 255 0 0
5.05845 9.94232 -4.59491 255 0 0
5.03076 9.97553 -4.59889 255 0 0
5.01567 10.0342 -4.60951 255 0 0
4.94725 10.1062 -4.61747 255 0 0
4.87693 10.0833 -4.60553 255 0 0
4.8271 10.1641 -4.61747 255 0 0
4.73186 10.3407 -4.64532 255 0 0
4.67075 10.4684 -4.66655 255 0 0
4.53954 10.5073 -4.66257 255 0 0
4.50337 10.4919 -4.65594 255 0 0
4.44545 10.6341 -4.68114 255 0 0
4.30435 10.7227 -4.68778 255 0 0
4.56003 8.96268 -4.6945 255 0 0
4.61512 8.9917 -4.70814 255 0 0
4.46798 10.582 -4.97573 255 0 0
4.53713 10.5018 -4.8624 255 0 0
6.63024 10.8701 -5.07363 255 0 0
5.76445 10.1972 -4.82768 255 0 0
5.59497 10.0639 -4.77959 255 0 0
5.34851 9.78379 -4.69166 255 0 0
5.18408 9.75603 -4.66692 255 0 0
5.15815 9.90472 -4.69578 255 0 0
5.01317 9.94066 -4.68753 255 0 0
5.04061 10.0543 -4.71501 255 0 0
4.93251 10.0761 -4.70814 255 0 0
4.936 10.144 -4.72326 255 0 0
4.87972 10.0891 -4.7054 255 0 0
4.83958 10.1904 -4.72326 255 0 0
4.82269 10.2173 -4.72738 255 0 0
4.76044 10.4031 -4.76173 255 0 0
4.64435 10.3433 -4.737 255 0 0
4.65062 10.4901 -4.76997 255 0 0
4.45812 10.5239 -4.75898 255 0 0
4.30224 10.7175 -4.78783 255 0 0
4.23251 10.6901 -4.77547 255 0 0
6.93904 11.0788 -5.73672 255 0 0
6.68562 10.6181 -5.13955 255 0 0
6.66808 10.8164 -5.17934 255 0 0
6.64925 10.9013 -5.19497 255 0 0
6.57154 10.9483 -5.19497 255 0 0
6.51522 11.0017 -5.19924 255 0 0
6.37538 10.9126 -5.16229 255 0 0
6.06697 10.4415 -5.02158 255 0 0
5.87698 10.2822 -4.96331 255 0 0
5.72753 10.1319 -4.91215 255 0 0
5.57963 9.98049 -4.86098 255 0 0
5.49523 9.88447 -4.82971 255 0 0
5.33611 9.70634 -4.77144 255 0 0
5.20192 9.73385 -4.76149 255 0 0
5.17163 9.78854 -4.77002 255 0 0
5.07074 9.822 -4.76576 255 0 0
5.09153 9.91991 -4.78992 255 0 0
5.08865 9.97243 -4.80129 255 0 0
5.02085 9.95587 -4.78992 255 0 0
5.02268 10.0185 -4.80413 255 0 0
5.01665 10.066 -4.81408 255 0 0
4.94879 10.0489 -4.80271 255 0 0
4.84155 10.1325 -4.80981 255 0 0
4.81965 10.3375 -4.85387 255 0 0
4.82378 10.4108 -4.87093 255 0 0
4.7777 10.3758 -4.85814 255 0 0
4.74127 10.3612 -4.85103 255 0 0
4.53257 10.4233 -4.84392 255 0 0
4.48981 10.4603 -4.84819 255 0 0
4.3976 10.5548 -4.86098 255 0 0
4.41203 10.6964 -4.89509 255 0 0
4.36982 10.7382 -4.90078 255 0 0
4.29539 10.6274 -4.86809 255 0 0
4.86525 9.00092 -5.48505 255 0 0
6.39643 10.5995 -5.53878 255 0 0
5.00439 9.31106 -4.83241 255 0 0
7.29061 11.579 -5.54474 255 0 0
7.14579 11.4089 -5.48748 255 0 0
6.74321 10.9383 -5.32889 255 0 0
6.68241 10.9557 -5.32448 255 0 0
6.63878 10.9424 -5.31567 255 0 0
6.41259 10.7411 -5.24078 255 0 0
6.33502 10.6686 -5.21435 255 0 0
6.327 10.7129 -5.22316 255 0 0
6.23555 10.6154 -5.18939 255 0 0
6.09027 10.4246 -5.12772 255 0 0
6.00004 10.3263 -5.09394 255 0 0
5.76893 10.0931 -5.01171 255 0 0
5.63732 9.97235 -4.96766 255 0 0
5.53033 9.83746 -4.92361 255 0 0
5.3762 9.67037 -4.86634 255 0 0
5.35326 9.68309 -4.86634 255 0 0
5.27465 9.64868 -4.84872 255 0 0
5.12744 9.81733 -4.86928 255 0 0
5.0523 9.84347 -4.86634 255 0 0
5.08047 9.9564 -4.89571 255 0 0
5.01789 9.95001 -4.8869 255 0 0
5.01461 10.0024 -4.89864 255 0 0
4.9727 10.0075 -4.89497 255 0 0
4.93081 10.0124 -4.8913 255 0 0
4.90312 10.0765 -4.90305 255 0 0
4.81624 10.1413 -4.90843 255 0 0
4.77365 10.2073 -4.9192 255 0 0
4.74209 10.2345 -4.92214 255 0 0
4.64914 10.42 -4.95591 255 0 0
4.62442 10.431 -4.95591 255 0 0
4.584 10.4735 -4.96178 255 0 0
4.33495 10.6525 -4.97941 255 0 0
4.32454 10.6996 -4.98968 255 0 0
4.20628 10.6979 -4.97794 255 0 0
4.50362 8.87784 -5.67018 255 0 0
4.56295 8.81276 -5.75279 255 0 0
6.41432 10.6292 -5.43733 255 0 0
7.43563 11.686 -5.71138 255 0 0
7.32623 11.5746 -5.67047 255 0 0
7.20836 11.4484 -5.625 255 0 0
7.11215 11.3552 -5.59015 255 0 0
6.91521 11.158 -5.5174 255 0 0
6.82938 11.0781 -5.48709 255 0 0
6.74987 11.0075 -5.45982 255 0 0
6.66485 10.9269 -5.42951 255 0 0
6.39485 10.6539 -5.32948 255 0 0
6.2884 10.5331 -5.28705 255 0 0
6.15497 10.4216 -5.2431 255 0 0
6.09873 10.3825 -5.22643 255 0 0
6.03986 10.3383 -5.20825 255 0 0
5.82381 10.0779 -5.11883 255 0 0
5.70017 9.97286 -5.07792 255 0 0
5.62341 9.89292 -5.04912 255 0 0
5.44526 9.74014 -4.99002 255 0 0
5.36444 9.64921 -4.95819 255 0 0
5.32239 9.62726 -4.94759 255 0 0
5.27775 9.6002 -4.93546 255 0 0
5.10251 9.3866 -4.86272 255 0 0
5.08024 9.39867 -4.86272 255 0 0
4.94765 9.25805 -4.81271 255 0 0
4.86406 9.2064 -4.78998 255 0 0
4.71505 9.08014 -4.74148 255 0 0
4.85006 9.84843 -4.94152 255 0 0
4.84908 9.90562 -4.95516 255 0 0
4.82738 9.95079 -4.9635 255 0 0
4.7677 10.039 -4.9779 255 0 0
4.74871 10.0606 -4.98093 255 0 0
4.65997 10.1518 -4.99305 255 0 0
4.61646 10.184 -4.99608 255 0 0
4.52153 10.2976 -5.01351 255 0 0
4.49279 10.3318 -5.01881 255 0 0
4.43028 10.3895 -5.02639 255 0 0
4.30278 10.5377 -5.04988 255 0 0
4.1412 10.5324 -5.03245 255 0 0
4.09153 10.4789 -5.01427 255 0 0
4.04623 10.4359 -4.99911 255 0 0
3.99709 10.3821 -4.98093 255 0 0
3.95631 10.3493 -4.9688 255 0 0
3.77527 10.1637 -4.90515 255 0 0
3.71178 10.1027 -4.88394 255 0 0
3.65265 10.0521 -4.86575 255 0 0
3.54508 9.97653 -4.83696 255 0 0
3.49884 9.9209 -4.81877 255 0 0
3.45476 9.87045 -4.8021 255 0 0
7.34914 11.4899 -5.77637 255 0 0
7.24009 11.3787 -5.73419 255 0 0
7.12858 11.2623 -5.69044 255 0 0
6.77247 10.9858 -5.57326 255 0 0
6.66086 10.8623 -5.52795 255 0 0
6.50683 10.7249 -5.47326 255 0 0
6.17004 10.3349 -5.33265 255 0 0
6.11959 10.3058 -5.31858 255 0 0
6.0607 10.262 -5.29983 255 0 0
5.99062 10.1985 -5.27484 255 0 0
5.92088 10.1347 -5.24984 255 0 0
5.86281 10.0901 -5.23109 255 0 0
5.70805 9.9319 -5.17172 255 0 0
5.63128 9.85232 -5.14203 255 0 0
5.51229 9.75119 -5.10141 255 0 0
5.45321 9.70028 -5.0811 255 0 0
5.37512 9.61467 -5.04985 255 0 0
5.27486 9.54128 -5.0186 255 0 0
5.18698 9.43508 -4.9811 255 0 0
5.14023 9.40279 -4.96704 255 0 0
5.06941 9.32571 -4.93892 255 0 0
5.00436 9.25828 -4.91392 255 0 0
4.78979 9.06583 -4.83892 255 0 0
4.72367 8.99223 -4.81236 255 0 0
4.66838 8.93838 -4.79205 255 0 0
4.61596 8.88933 -4.7733 255 0 0
4.57675 8.86515 -4.76236 255 0 0
4.51192 8.79063 -4.7358 255 0 0
4.977 9.1042 -5.53413 255 0 0
5.74556 9.94253 -5.59445 255 0 0
6.85916 11.0092 -5.70775 255 0 0
6.85973 11.0685 -5.72223 255 0 0
6.77438 10.9889 -5.69005 255 0 0
6.55803 10.7517 -5.59993 255 0 0
6.51207 10.7336 -5.58866 255 0 0
6.33072 10.5471 -5.51625 255 0 0
6.16278 10.3785 -5.45027 255 0 0
6.0809 10.2962 -5.41808 255 0 0
6.0194 10.2474 -5.39716 255 0 0
5.84346 10.0568 -5.32475 255 0 0
5.7396 9.9868 -5.29256 255 0 0
5.52435 9.77252 -5.20888 255 0 0
5.46806 9.7267 -5.18957 255 0 0
5.23803 9.47466 -5.09462 255 0 0
5.06833 9.32372 -5.03347 255 0 0
5.00873 9.26637 -5.01094 255 0 0
4.94144 9.19392 -4.98358 255 0 0
4.87717 9.12616 -4.95783 255 0 0
4.71264 8.97123 -4.89668 255 0 0
4.55573 8.82443 -4.83875 255 0 0
4.50138 8.7701 -4.81783 255 0 0
5.18537 9.3271 -5.53618 255 0 0
5.9363 10.106 -5.77594 255 0 0
4.55558 8.72241 -5.0802 255 0 0
6.71974 10.9002 -5.77568 255 0 0
6.64103 10.83 -5.74587 255 0 0
6.45851 10.6453 -5.67135 255 0 0
6.38102 10.574 -5.64155 255 0 0
6.31257 10.5169 -5.61671 255 0 0
6.19837 10.3823 -5.56537 255 0 0
6.12499 10.3149 -5.53722 255 0 0
6.06053 10.2617 -5.51403 255 0 0
5.99351 10.2034 -5.48919 255 0 0
5.8322 10.0374 -5.42295 255 0 0
5.61295 9.82024 -5.33519 255 0 0
5.55079 9.76517 -5.312 255 0 0
5.28328 9.50322 -5.20602 255 0 0
5.10016 9.27716 -5.12156 255 0 0
5.02966 9.20053 -5.09175 255 0 0
4.98101 9.16308 -5.07519 255 0 0
4.75421 8.94705 -4.98743 255 0 0
4.6621 8.87503 -4.95596 255 0 0
4.62025 8.84623 -4.94271 255 0 0
4.56561 8.79237 -4.92119 255 0 0
4.49838 8.71334 -4.89138 255 0 0
6.342 10.5093 -5.73044 255 0 0
6.22317 10.4239 -5.68958 255 0 0
6.10691 10.2844 -5.63509 255 0 0
5.98146 10.1829 -5.58912 255 0 0
5.87817 10.0616 -5.54145 255 0 0
5.75751 9.9632 -5.49718 255 0 0
5.65292 9.83597 -5.44781 255 0 0
5.5851 9.77152 -5.42056 255 0 0
5.55638 9.77499 -5.41716 255 0 0
5.34182 9.5551 -5.32692 255 0 0
5.12839 9.27634 -5.22136 255 0 0
4.76875 8.87262 -5.06131 255 0 0
4.76618 8.91849 -5.07323 255 0 0
4.64271 8.78743 -5.02045 255 0 0
4.64531 8.84305 -5.03577 255 0 0
4.76448 8.86467 -5.15017 255 0 0
6.14995 10.3012 -5.75537 255 0 0
5.91237 10.0652 -5.65392 255 0 0
5.81123 10.0014 -5.62068 255 0 0
5.57634 9.7562 -5.51749 255 0 0
5.36441 9.54233 -5.42653 255 0 0
5.1423 9.30149 -5.32683 255 0 0
4.67519 8.79834 -5.11869 255 0 0
5.71648 9.8922 -5.68078 255 0 0
5.45236 9.64516 -5.56946 255 0 0
5.33935 9.49774 -5.51021 255 0 0
5.18355 9.27201 -5.42223 255 0 0
5.1123 9.35171 -5.4336 255 0 0
4.56669 8.66839 -5.1565 255 0 0
4.54099 8.69447 -5.16009 255 0 0
5.72322 9.90387 -5.79034 255 0 0
5.65541 9.84031 -5.76088 255 0 0
5.58517 9.77165 -5.72957 255 0 0
5.52628 9.72205 -5.70562 255 0 0
5.21289 9.32449 -5.53986 255 0 0
5.16694 9.39866 -5.55398 255 0 0
5.11469 9.43564 -5.55644 255 0 0
4.67369 8.79552 -5.30044 255 0 0
4.61907 8.74269 -5.27649 255 0 0
4.58799 8.73394 -5.26913 255 0 0
5.27949 9.44362 -5.68516 255 0 0
5.18102 9.37154 -5.6474 255 0 0
5.16146 9.38865 -5.64929 255 0 0
4.80978 8.94897 -5.4605 255 0 0
4.76881 8.94888 -5.4539 255 0 0
4.61396 8.73302 -5.36422 255 0 0
4.56746 8.69486 -5.34534 255 0 0
4.51341 8.6918 -5.3359 255 0 0
5.15878 9.27927 -5.715 255 0 0
4.99756 9.09054 -5.62991 255 0 0
4.88049 8.97817 -5.57576 255 0 0
4.7646 8.86491 -5.52161 255 0 0
4.67583 8.79955 -5.4868 255 0 0
5.05766 9.1484 -5.7556 255 0 0
4.95983 9.09837 -5.72293 255 0 0
4.7845 8.90192 -5.63087 255 0 0
4.66983 8.78826 -5.57544 255 0 0
4.62066 8.74571 -5.55366 255 0 0
4.55891 8.67859 -5.52199 255 0 0
4.87728 9.02319 -5.78158 255 0 0
4.76224 8.86051 -5.70866 255 0 0
4.61526 8.73547 -5.6425 255 0 0
4.5914 9.10433 -5.7593 255 0 0
4.5895 9.15448 -5.7755 255 0 0
4.48936 9.00799 -5.71069 255 0 0
4.66455 8.7532 -5.75072 255 0 0
4.61275 8.75586 -5.74243 255 0 0
4.58919 8.78677 -5.74864 255 0 0
4.52059 8.85917 -5.76107 255 0 0
5.5766 11.8145 -5.26888 255 0 0
4.33484 10.5093 -5.04609 255 0 0
