ply
format ascii 1.0
comment Created by Open3D
element vertex 1069
property double x
property double y
property double z
property uchar red
property uchar green
property uchar blue
end_header
17.0222 -10.1351 -3.56745 255 0 0
14.6065 -10.1689 -4.60697 255 0 0
14.5971 -10.2655 -4.01069 255 0 0
17.947 -9.94975 -5.00582 255 0 0
12.5063 -10.0988 -5.04147 255 0 0
14.4638 -11.1781 -4.36795 255 0 0
12.4707 -10.1681 -5.32244 255 0 0
16.9822 -10.0569 -4.05783 255 0 0
14.7595 -9.96671 -4.30703 255 0 0
14.5535 -10.132 -3.40304 255 0 0
16.9685 -9.88639 -5.04355 255 0 0
14.0349 -11.1692 -3.26925 255 0 0
14.4885 -10.0867 -4.73596 255 0 0
15.9391 -10.1684 -3.33786 255 0 0
12.5232 -11.6212 -5.08573 255 0 0
14.5674 -10.0905 -3.55037 255 0 0
15.7761 -9.8551 -5.04132 255 0 0
17.8699 -10.018 -4.65379 255 0 0
12.4126 -10.5189 -5.07848 255 0 0
13.9803 -10.132 -3.51056 255 0 0
15.4911 -10.0383 -3.76967 255 0 0
14.9001 -9.85725 -5.07369 255 0 0
12.4077 -10.2151 -5.17951 255 0 0
12.5944 -9.82912 -5.29876 255 0 0
13.9658 -10.8994 -3.40165 255 0 0
17.7898 -9.91778 -5.15654 255 0 0
16.2406 -10.0918 -3.67284 255 0 0
14.668 -9.90496 -4.59254 255 0 0
14.435 -9.9988 -4.27468 255 0 0
17.0198 -9.91628 -4.88532 255 0 0
16.4147 -9.93221 -4.4853 255 0 0
17.2109 -10.1373 -3.58038 255 0 0
17.6895 -10.1386 -3.61317 255 0 0
14.5822 -9.89742 -4.58151 255 0 0
16.1161 -10.0145 -4.13787 255 0 0
15.9077 -10.0954 -3.64835 255 0 0
14.0517 -10.7009 -3.24982 255 0 0
13.4277 -9.97643 -4.30848 255 0 0
14.5924 -10.1078 -4.60018 255 0 0
13.0263 -11.307 -4.82023 255 0 0
14.8181 -10.0063 -4.01462 255 0 0
13.5122 -9.89082 -4.59517 255 0 0
13.5777 -9.84021 -4.59876 255 0 0
15.6899 -10.1671 -3.32298 255 0 0
14.4472 -10.1601 -4.43735 255 0 0
14.8305 -9.8618 -4.76018 255 0 0
15.4888 -10.089 -3.61722 255 0 0
16.4961 -10.0886 -3.69173 255 0 0
15.9305 -10.0041 -4.11952 255 0 0
17.3477 -10.1073 -3.75654 255 0 0
14.9373 -10.0868 -3.5769 255 0 0
14.369 -9.85258 -4.84858 255 0 0
14.0537 -10.6499 -3.24776 255 0 0
14.6681 -9.85443 -4.8892 255 0 0
14.0962 -11.4935 -3.28702 255 0 0
13.4287 -9.97714 -4.16711 255 0 0
12.8892 -10.3074 -4.83939 255 0 0
17.7062 -10.0369 -4.29325 255 0 0
12.8165 -11.0717 -4.91385 255 0 0
14.5048 -10.3555 -4.00807 255 0 0
15.3073 -10.0745 -3.75682 255 0 0
16.042 -10.0742 -3.81605 255 0 0
17.8045 -9.98138 -4.81676 255 0 0
17.8917 -10.1982 -3.28536 255 0 0
12.728 -9.93338 -4.9161 255 0 0
14.164 -10.0616 -4.25061 255 0 0
15.9189 -9.89192 -4.74529 255 0 0
15.6514 -10.0371 -3.78253 255 0 0
13.1766 -9.98516 -4.70308 255 0 0
17.7151 -9.98654 -4.80636 255 0 0
14.0565 -9.83555 -4.95158 255 0 0
13.1159 -11.6603 -4.86936 255 0 0
16.9515 -9.98447 -4.54848 255 0 0
14.7298 -9.84531 -4.89676 255 0 0
14.4721 -11.3499 -4.22721 255 0 0
18.0132 -10.0984 -3.97978 255 0 0
12.3619 -10.476 -5.20564 255 0 0
13.7187 -9.99206 -4.3421 255 0 0
13.5946 -9.95112 -4.46779 255 0 0
14.4737 -10.0256 -3.98381 255 0 0
14.4661 -11.1799 -4.523 255 0 0
14.8173 -10.16 -3.27131 255 0 0
13.1311 -9.80447 -5.24201 255 0 0
14.4098 -10.1337 -3.3938 255 0 0
15.2749 -9.84684 -4.9714 255 0 0
13.9816 -9.83264 -5.23415 255 0 0
12.569 -10.398 -4.94628 255 0 0
16.1419 -9.97753 -4.45822 255 0 0
16.375 -10.1216 -3.52311 255 0 0
13.4569 -9.89943 -4.73142 255 0 0
17.9211 -10.0468 -4.31488 255 0 0
16.0609 -10.1925 -3.18724 255 0 0
14.0885 -10.4673 -3.24197 255 0 0
14.6156 -10.3303 -4.16738 255 0 0
16.5649 -9.96952 -4.34125 255 0 0
12.3507 -10.8756 -5.25564 255 0 0
14.5663 -9.93717 -4.43335 255 0 0
16.2292 -9.87265 -4.94401 255 0 0
16.72 -10.117 -3.5462 255 0 0
16.4537 -10.1164 -3.52819 255 0 0
14.4247 -9.84057 -5.0042 255 0 0
12.3786 -10.6423 -5.22951 255 0 0
13.1546 -11.0942 -4.66691 255 0 0
15.6116 -9.95943 -4.3988 255 0 0
14.6627 -10.3116 -3.86899 255 0 0
15.1446 -9.96741 -4.19554 255 0 0
14.0367 -10.7685 -3.25189 255 0 0
12.4522 -11.6103 -5.36814 255 0 0
15.9335 -10.1117 -3.49309 255 0 0
13.6401 -9.83618 -5.1819 255 0 0
12.8075 -10.9583 -4.89995 255 0 0
17.1506 -9.88382 -5.06776 255 0 0
13.9919 -11.5751 -3.43675 255 0 0
17.301 -9.91597 -4.92096 255 0 0
17.806 -10.0378 -4.30308 255 0 0
17.5632 -10.0662 -4.11065 255 0 0
12.5371 -10.6245 -4.96813 255 0 0
16.3454 -9.83744 -5.28218 255 0 0
16.1639 -10.0441 -3.82444 255 0 0
17.7813 -10.1912 -3.27916 255 0 0
14.328 -9.82444 -5.13777 255 0 0
17.8857 -9.91575 -5.34365 255 0 0
14.7981 -10.0439 -3.86474 255 0 0
13.373 -9.88665 -4.71914 255 0 0
12.5295 -10.6691 -4.97229 255 0 0
16.5135 -10.0456 -4.01532 255 0 0
15.1848 -9.89099 -4.65449 255 0 0
12.5312 -10.7735 -4.98478 255 0 0
12.5238 -10.9754 -5.00768 255 0 0
17.2866 -10.1818 -3.25217 255 0 0
13.0184 -11.1924 -4.80701 255 0 0
15.1933 -9.84532 -4.96006 255 0 0
14.878 -9.89341 -4.61715 255 0 0
17.8778 -10.0783 -4.1398 255 0 0
15.9892 -10.041 -3.96857 255 0 0
12.9877 -11.0593 -4.78905 255 0 0
17.1855 -10.0675 -4.07665 255 0 0
15.3566 -9.84803 -4.98274 255 0 0
14.6324 -9.83045 -5.33539 255 0 0
14.895 -10.0069 -4.02183 255 0 0
16.4815 -9.97266 -4.3328 255 0 0
17.4916 -10.1912 -3.4325 255 0 0
16.6261 -10.1141 -3.53974 255 0 0
14.6332 -10.4997 -3.72665 255 0 0
12.8497 -11.6437 -4.98335 255 0 0
16.8883 -10.0554 -4.04933 255 0 0
16.6136 -9.83854 -5.32189 255 0 0
14.5228 -10.1106 -3.69647 255 0 0
14.0312 -10.9237 -3.25829 255 0 0
13.9166 -11.075 -3.40719 255 0 0
13.7639 -9.82659 -5.05451 255 0 0
15.65 -10.194 -3.16572 255 0 0
12.8047 -10.7473 -4.87613 255 0 0
16.3755 -10.0149 -4.16278 255 0 0
14.5825 -9.84723 -4.727 255 0 0
12.3601 -10.5756 -5.21814 255 0 0
17.5135 -10.0929 -3.93787 255 0 0
17.1976 -10.1844 -3.41432 255 0 0
13.1 -10.2738 -4.72197 255 0 0
12.8933 -9.86709 -5.07195 255 0 0
14.3914 -9.86792 -5.30164 255 0 0
14.5549 -9.98003 -4.13711 255 0 0
13.8849 -10.0628 -4.07657 255 0 0
17.2122 -9.91935 -4.90993 255 0 0
12.9319 -10.142 -4.82748 255 0 0
13.8544 -9.84171 -4.92378 255 0 0
14.4496 -9.85756 -4.85991 255 0 0
15.049 -10.1622 -3.28495 255 0 0
14.0291 -9.866 -4.80417 255 0 0
15.5124 -9.99997 -4.07953 255 0 0
16.6071 -10.0486 -4.02382 255 0 0
16.1671 -10.0994 -3.66774 255 0 0
16.1884 -10.0063 -4.30464 255 0 0
12.4421 -10.194 -5.32126 255 0 0
17.0746 -10.1115 -3.73613 255 0 0
15.0172 -10.0374 -3.73168 255 0 0
15.5407 -9.86245 -4.85254 255 0 0
15.2363 -9.97606 -4.20539 255 0 0
13.8608 -10.0956 -3.64395 255 0 0
13.6828 -9.71982 -4.45846 255 0 0
15.127 -9.85335 -4.79784 255 0 0
12.6196 -10.1903 -4.92963 255 0 0
13.145 -11.575 -4.86369 255 0 0
12.6751 -9.84389 -5.17496 255 0 0
17.9681 -10.0172 -4.49118 255 0 0
16.0232 -10.0095 -4.12869 255 0 0
13.956 -9.81462 -5.08157 255 0 0
13.4914 -9.97415 -4.45761 255 0 0
16.3661 -10.1698 -3.36348 255 0 0
17.657 -10.12 -3.78052 255 0 0
15.59 -9.99771 -4.08674 255 0 0
14.5883 -10.1563 -4.00282 255 0 0
13.6341 -9.98002 -4.33169 255 0 0
12.4002 -10.2089 -5.31652 255 0 0
15.5169 -10.0029 -4.23566 255 0 0
15.2396 -10.0818 -3.75179 255 0 0
14.6062 -10.1174 -3.40581 255 0 0
16.2403 -9.93224 -4.62706 255 0 0
14.4036 -9.82616 -5.14922 255 0 0
15.5145 -10.1583 -3.31223 255 0 0
14.2021 -10.2927 -3.24114 255 0 0
16.1008 -10.1644 -3.34736 255 0 0
16.6558 -10.0781 -3.86634 255 0 0
16.2816 -10.1709 -3.19819 255 0 0
12.3576 -10.6754 -5.23064 255 0 0
16.6316 -10.1715 -3.21679 255 0 0
16.1005 -10.0047 -4.29549 255 0 0
17.6134 -9.92922 -4.96169 255 0 0
13.97 -10.0741 -3.65121 255 0 0
14.9834 -9.86135 -4.7799 255 0 0
18.0363 -10.0552 -4.32668 255 0 0
16.2249 -9.97573 -4.46725 255 0 0
17.1025 -10.1829 -3.24232 255 0 0
15.4416 -10.1629 -3.3081 255 0 0
17.4636 -10.0642 -4.10155 255 0 0
14.0917 -11.4343 -3.28413 255 0 0
13.2838 -10.4689 -4.62118 255 0 0
14.5341 -11.2324 -4.2244 255 0 0
16.4125 -10.0911 -3.6856 255 0 0
13.6221 -11.7677 -4.33185 255 0 0
12.8275 -10.6118 -4.86421 255 0 0
17.7814 -9.91311 -5.32854 255 0 0
12.4106 -10.6188 -5.09046 255 0 0
14.1267 -10.3664 -3.2399 255 0 0
12.9866 -10.6917 -4.75032 255 0 0
13.8654 -10.0487 -3.9294 255 0 0
17.1031 -10.1833 -3.40853 255 0 0
15.3024 -9.96759 -4.3657 255 0 0
13.9034 -10.0762 -4.22428 255 0 0
12.8955 -10.2624 -4.83542 255 0 0
14.9498 -9.89007 -4.62564 255 0 0
15.3897 -10.0765 -3.76353 255 0 0
16.4808 -9.86575 -5.14052 255 0 0
16.4411 -9.9482 -4.65187 255 0 0
13.9892 -10.6009 -3.38872 255 0 0
15.9919 -9.9373 -4.59824 255 0 0
16.9045 -10.1739 -3.39613 255 0 0
12.8071 -10.9055 -4.894 255 0 0
15.8894 -10.1897 -3.17812 255 0 0
14.4809 -9.82864 -5.31144 255 0 0
15.2037 -9.85207 -4.8077 255 0 0
14.592 -9.85361 -4.87881 255 0 0
15.3942 -9.82076 -5.29804 255 0 0
15.4978 -10.0426 -3.92546 255 0 0
15.3573 -10.0034 -4.21947 255 0 0
14.3272 -10.2288 -3.24569 255 0 0
13.0154 -10.5099 -4.7352 255 0 0
13.7326 -9.80421 -4.32849 255 0 0
15.8988 -9.82724 -5.21566 255 0 0
17.2039 -10.0235 -4.24342 255 0 0
14.4856 -10.1871 -3.25313 255 0 0
14.4243 -11.5912 -4.7105 255 0 0
14.7271 -9.99577 -4.15541 255 0 0
14.472 -10.1263 -3.39749 255 0 0
14.9498 -10.0437 -3.72665 255 0 0
16.8192 -9.9603 -4.69749 255 0 0
12.9305 -10.1904 -4.83244 255 0 0
16.7156 -10.1685 -3.22116 255 0 0
15.8706 -9.80982 -5.36985 255 0 0
15.5924 -9.84343 -5.01486 255 0 0
14.6648 -10.2095 -4.16386 255 0 0
17.5814 -10.1877 -3.43787 255 0 0
12.8626 -10.3865 -4.84436 255 0 0
13.6984 -9.82896 -5.04515 255 0 0
13.254 -9.84737 -5.1242 255 0 0
17.3373 -9.99142 -4.59211 255 0 0
16.9355 -10.0292 -4.38348 255 0 0
15.9615 -9.9709 -4.43791 255 0 0
17.359 -10.0589 -4.09183 255 0 0
17.3869 -9.96519 -4.76553 255 0 0
14.1806 -10.1241 -3.37856 255 0 0
13.9455 -10.8305 -3.39703 255 0 0
12.7899 -11.1552 -4.91981 255 0 0
14.8727 -9.83912 -4.91566 255 0 0
15.4346 -10.0017 -4.22721 255 0 0
12.8529 -11.372 -4.95257 255 0 0
12.5532 -10.4351 -4.94836 255 0 0
14.0078 -11.7006 -3.59681 255 0 0
15.9908 -10.095 -3.65447 255 0 0
16.1915 -9.90237 -4.78009 255 0 0
13.7254 -9.79907 -5.33632 255 0 0
16.7446 -10.0777 -3.87361 255 0 0
17.8222 -9.93586 -4.98885 255 0 0
15.5391 -9.96507 -4.39127 255 0 0
13.4 -9.90662 -4.58262 255 0 0
16.4139 -10.0384 -3.84455 255 0 0
15.4685 -9.86815 -4.84357 255 0 0
14.177 -9.82009 -5.11487 255 0 0
16.7543 -9.97562 -4.52592 255 0 0
16.5926 -9.93269 -4.66868 255 0 0
14.4457 -10.0062 -4.72341 255 0 0
17.0058 -10.0164 -4.22375 255 0 0
16.1 -10.1106 -3.50418 255 0 0
12.3634 -10.9913 -5.27269 255 0 0
13.1355 -10.1765 -4.71678 255 0 0
14.4472 -11.2752 -4.37397 255 0 0
14.7094 -9.93291 -4.44936 255 0 0
16.4539 -10.0093 -4.17 255 0 0
15.6669 -9.89047 -4.7139 255 0 0
16.5757 -9.86926 -4.98974 255 0 0
13.7894 -10.0937 -3.92546 255 0 0
13.191 -9.84914 -4.97334 255 0 0
17.4772 -9.9071 -5.11349 255 0 0
15.2665 -9.89277 -4.66468 255 0 0
16.3933 -9.97243 -4.32365 255 0 0
15.4398 -10.0051 -4.07297 255 0 0
17.0553 -9.99122 -4.56052 255 0 0
18.0177 -10.2135 -3.46557 255 0 0
15.2079 -10.0091 -4.05133 255 0 0
17.6248 -10.0461 -4.45669 255 0 0
14.5882 -10.2076 -4.15612 255 0 0
13.0223 -10.9827 -4.78528 255 0 0
15.1307 -10.0098 -4.04412 255 0 0
17.8047 -10.1486 -3.62148 255 0 0
17.8722 -10.1311 -3.79736 255 0 0
17.23 -10.0935 -3.9144 255 0 0
14.6382 -10.3463 -3.86899 255 0 0
17.3004 -10.1348 -3.58638 255 0 0
14.8896 -10.1577 -3.27545 255 0 0
15.2184 -10.1719 -3.29529 255 0 0
13.6474 -9.74338 -4.59876 255 0 0
14.583 -10.3593 -3.71491 255 0 0
12.528 -10.9267 -5.00248 255 0 0
15.5846 -9.99428 -4.24199 255 0 0
13.0778 -11.4062 -4.83724 255 0 0
16.5435 -10.1716 -3.37423 255 0 0
17.4641 -9.8997 -5.28224 255 0 0
16.3389 -10.0993 -3.6805 255 0 0
13.8921 -10.068 -3.78883 255 0 0
15.8477 -10.0046 -4.11165 255 0 0
13.7804 -10.037 -3.92087 255 0 0
15.2488 -9.82999 -5.12135 255 0 0
15.4661 -9.81511 -5.30845 255 0 0
17.5996 -10.1426 -3.60716 255 0 0
13.9619 -10.6849 -3.39103 255 0 0
12.5669 -10.3462 -4.94003 255 0 0
14.7257 -10.0972 -3.5621 255 0 0
17.2597 -10.056 -4.08272 255 0 0
15.0472 -10.3176 -3.13873 255 0 0
17.9984 -9.97823 -4.66583 255 0 0
16.0442 -9.9698 -4.44694 255 0 0
16.2824 -10.0111 -4.15361 255 0 0
14.5857 -10.1544 -4.45256 255 0 0
12.4488 -11.4427 -5.19931 255 0 0
15.7341 -10.0376 -3.78923 255 0 0
14.5386 -10.1217 -3.54986 255 0 0
15.8259 -10.202 -3.17521 255 0 0
17.9201 -10.1582 -3.62979 255 0 0
13.9178 -10.0867 -3.64786 255 0 0
15.9504 -9.85918 -5.06588 255 0 0
14.5208 -9.85578 -4.71982 255 0 0
16.2078 -9.8596 -5.10178 255 0 0
16.8231 -10.0166 -4.20605 255 0 0
16.5637 -9.86212 -5.15186 255 0 0
12.578 -10.3054 -4.93691 255 0 0
15.0013 -9.92417 -4.48218 255 0 0
15.2171 -10.2757 -3.14603 255 0 0
17.8891 -9.91766 -5.16999 255 0 0
16.6358 -10.0122 -4.1877 255 0 0
17.0494 -9.87946 -5.22177 255 0 0
16.1893 -10.0068 -4.14443 255 0 0
16.0894 -9.9451 -4.61025 255 0 0
14.5621 -9.83342 -5.02306 255 0 0
14.0922 -9.81088 -5.10134 255 0 0
15.6169 -10.1724 -3.31884 255 0 0
16.5292 -9.94808 -4.66228 255 0 0
16.7447 -9.86265 -5.17737 255 0 0
14.4873 -10.343 -3.70653 255 0 0
14.5791 -11.2121 -4.22721 255 0 0
12.4751 -10.3702 -5.34967 255 0 0
15.6725 -9.99827 -4.0946 255 0 0
13.6912 -10.0718 -4.05827 255 0 0
15.1177 -9.89841 -4.64685 255 0 0
13.7236 -9.89642 -4.76638 255 0 0
12.4325 -10.0392 -5.16133 255 0 0
13.0711 -9.808 -5.23292 255 0 0
15.7345 -9.93313 -4.56782 255 0 0
16.8529 -9.98025 -4.5372 255 0 0
13.7813 -9.78978 -5.34428 255 0 0
15.3844 -9.96917 -4.37472 255 0 0
12.3985 -10.6594 -5.09372 255 0 0
12.3545 -10.7754 -5.24314 255 0 0
15.3722 -10.0131 -4.06707 255 0 0
13.4613 -10.0014 -4.03082 255 0 0
13.9848 -10.5195 -3.38456 255 0 0
14.8064 -9.89646 -4.60867 255 0 0
13.9822 -11.5671 -3.58762 255 0 0
13.9945 -10.1676 -3.36863 255 0 0
12.3851 -11.2763 -5.3136 255 0 0
12.4265 -10.0832 -5.16587 255 0 0
15.7345 -9.82914 -5.19184 255 0 0
14.5832 -10.4638 -3.87141 255 0 0
12.4037 -10.7151 -5.10134 255 0 0
14.4773 -11.5774 -4.24481 255 0 0
15.136 -10.1688 -3.29033 255 0 0
17.1588 -10.1066 -3.74225 255 0 0
13.8536 -10.1407 -3.79005 255 0 0
13.9537 -9.86254 -4.79378 255 0 0
13.6343 -9.88123 -4.89698 255 0 0
15.303 -9.81369 -5.28347 255 0 0
16.2197 -9.86685 -5.26629 255 0 0
13.2606 -9.80355 -5.26246 255 0 0
17.5661 -9.90258 -5.12515 255 0 0
14.0185 -10.1091 -3.51209 255 0 0
15.2184 -10.1197 -3.44599 255 0 0
15.8554 -10.115 -3.48801 255 0 0
14.8973 -9.85534 -4.76825 255 0 0
12.9963 -11.0135 -4.78528 255 0 0
13.7025 -9.98026 -4.48307 255 0 0
12.8393 -10.5704 -4.86123 255 0 0
14.3762 -10.2124 -3.83863 255 0 0
17.5622 -10.121 -3.77338 255 0 0
16.2228 -10.1877 -3.19563 255 0 0
16.5283 -9.89418 -4.82167 255 0 0
15.8695 -9.86121 -4.89558 255 0 0
15.1103 -10.3083 -3.14165 255 0 0
15.1637 -10.2921 -3.14384 255 0 0
15.256 -10.2494 -3.14712 255 0 0
15.2997 -10.2262 -3.14858 255 0 0
15.3628 -10.2158 -3.1515 255 0 0
15.4406 -10.2148 -3.15551 255 0 0
15.4892 -10.1942 -3.15733 255 0 0
15.5671 -10.1927 -3.16135 255 0 0
15.7379 -10.1982 -3.17047 255 0 0
15.9726 -10.1897 -3.1825 255 0 0
16.1245 -10.1794 -3.19016 255 0 0
16.3702 -10.1724 -3.20293 255 0 0
16.4589 -10.1735 -3.20767 255 0 0
16.5328 -10.165 -3.21132 255 0 0
16.7997 -10.1652 -3.22554 255 0 0
16.9088 -10.1765 -3.23174 255 0 0
16.9981 -10.1754 -3.23648 255 0 0
17.197 -10.1841 -3.24743 255 0 0
17.3964 -10.191 -3.25837 255 0 0
17.4963 -10.1939 -3.26384 255 0 0
17.5912 -10.1934 -3.26895 255 0 0
17.6963 -10.1983 -3.27478 255 0 0
18.0073 -10.2076 -3.29193 255 0 0
17.7017 -10.2014 -3.44573 255 0 0
12.9572 -9.77066 -5.35086 255 0 0
15.2465 -9.93119 -4.51099 255 0 0
15.8461 -10.162 -3.33207 255 0 0
12.5487 -11.1561 -5.03266 255 0 0
12.8868 -9.81372 -5.20451 255 0 0
15.0193 -10.0904 -3.58303 255 0 0
14.1233 -11.4045 -3.28454 255 0 0
14.1139 -11.3417 -3.28123 255 0 0
14.0677 -11.2498 -3.27462 255 0 0
14.0156 -11.0996 -3.26511 255 0 0
14.0281 -11.0555 -3.26387 255 0 0
14.0037 -10.9826 -3.25933 255 0 0
14.0214 -10.8362 -3.25396 255 0 0
14.065 -10.606 -3.24652 255 0 0
14.0667 -10.5551 -3.24445 255 0 0
14.087 -10.5182 -3.24404 255 0 0
14.1085 -10.4304 -3.24156 255 0 0
14.1588 -10.3126 -3.23949 255 0 0
14.2407 -10.2693 -3.24238 255 0 0
14.2792 -10.2457 -3.24362 255 0 0
14.3753 -10.2117 -3.24776 255 0 0
14.4328 -10.2012 -3.25065 255 0 0
14.5432 -10.1762 -3.25602 255 0 0
14.6057 -10.1683 -3.25933 255 0 0
14.6778 -10.1669 -3.26346 255 0 0
14.7355 -10.1553 -3.26635 255 0 0
14.9765 -10.165 -3.28082 255 0 0
15.2911 -10.1681 -3.29942 255 0 0
15.3736 -10.1705 -3.30438 255 0 0
15.768 -10.1647 -3.32752 255 0 0
16.0125 -10.1619 -3.34199 255 0 0
16.1891 -10.1666 -3.35273 255 0 0
16.2875 -10.1746 -3.35893 255 0 0
16.4498 -10.1679 -3.36844 255 0 0
16.6324 -10.172 -3.3796 255 0 0
16.7064 -10.1629 -3.38373 255 0 0
16.8104 -10.1716 -3.39034 255 0 0
17.0088 -10.1818 -3.40274 255 0 0
12.9533 -9.86437 -5.08066 255 0 0
17.2921 -10.1851 -3.4201 255 0 0
17.3968 -10.1913 -3.42672 255 0 0
17.817 -10.2117 -3.45317 255 0 0
17.9224 -10.2157 -3.45978 255 0 0
16.1822 -9.94945 -4.62145 255 0 0
14.7001 -10.0796 -3.70877 255 0 0
12.4141 -10.1711 -5.17496 255 0 0
13.7952 -10.0478 -4.06672 255 0 0
13.5251 -9.80207 -5.30451 255 0 0
16.3721 -9.90646 -4.803 255 0 0
13.7142 -9.84027 -4.75977 255 0 0
16.3417 -10.0475 -4.00014 255 0 0
13.8785 -9.85879 -4.78339 255 0 0
13.9248 -9.84214 -4.93371 255 0 0
15.8436 -9.84512 -5.04982 255 0 0
15.3381 -9.93917 -4.5222 255 0 0
15.4715 -9.97357 -4.3845 255 0 0
15.261 -10.096 -3.60089 255 0 0
13.7198 -10.0427 -4.05897 255 0 0
14.5107 -10.0512 -3.84045 255 0 0
14.0578 -11.7423 -3.44922 255 0 0
13.9644 -11.6082 -3.43675 255 0 0
13.9832 -11.5122 -3.43305 255 0 0
13.9653 -11.442 -3.42844 255 0 0
13.9562 -11.3794 -3.42474 255 0 0
13.956 -11.3242 -3.42197 255 0 0
13.9601 -11.2727 -3.41966 255 0 0
13.9458 -11.2067 -3.41551 255 0 0
13.945 -11.1517 -3.41273 255 0 0
13.9428 -11.042 -3.40719 255 0 0
13.969 -11.0089 -3.40719 255 0 0
13.9307 -10.9253 -3.40073 255 0 0
13.9573 -10.7867 -3.39565 255 0 0
13.9202 -11.6836 -3.74229 255 0 0
13.9365 -10.718 -3.39103 255 0 0
13.9454 -10.6199 -3.38687 255 0 0
13.9847 -10.4418 -3.38087 255 0 0
14.0094 -10.4086 -3.38087 255 0 0
13.9965 -10.3476 -3.37717 255 0 0
14.0116 -10.3075 -3.37625 255 0 0
13.9983 -10.2466 -3.37256 255 0 0
14.0519 -10.1331 -3.37071 255 0 0
14.1186 -10.1304 -3.37486 255 0 0
14.2521 -10.1242 -3.38318 255 0 0
14.3237 -10.1241 -3.3878 255 0 0
14.6831 -10.1192 -3.41089 255 0 0
14.7552 -10.1173 -3.41551 255 0 0
14.8273 -10.1152 -3.42012 255 0 0
14.9044 -10.1161 -3.4252 255 0 0
15.0009 -10.1297 -3.43213 255 0 0
15.0636 -10.1202 -3.43583 255 0 0
15.1361 -10.1169 -3.44044 255 0 0
15.291 -10.1158 -3.4506 255 0 0
15.3881 -10.1277 -3.45753 255 0 0
15.4463 -10.1136 -3.46076 255 0 0
15.5289 -10.1151 -3.46631 255 0 0
15.6165 -10.1196 -3.47231 255 0 0
15.6895 -10.1141 -3.47693 255 0 0
15.7724 -10.1147 -3.48247 255 0 0
16.0167 -10.1113 -3.49863 255 0 0
16.1932 -10.1157 -3.51064 255 0 0
16.2915 -10.1235 -3.51757 255 0 0
16.5424 -10.117 -3.5342 255 0 0
16.8039 -10.1134 -3.55175 255 0 0
16.913 -10.1245 -3.5596 255 0 0
17.1115 -10.1334 -3.57345 255 0 0
17.3849 -10.129 -3.59192 255 0 0
17.4998 -10.1404 -3.60024 255 0 0
18.0255 -10.1616 -3.63718 255 0 0
15.6482 -10.035 -3.93821 255 0 0
15.9863 -9.88136 -4.91262 255 0 0
13.3124 -9.89076 -4.71158 255 0 0
15.0455 -9.85115 -4.78708 255 0 0
13.2603 -11.7325 -4.89487 255 0 0
12.6862 -9.80435 -5.3106 255 0 0
13.2797 -9.91538 -4.70969 255 0 0
16.1465 -9.87488 -4.93325 255 0 0
16.7057 -10.0543 -4.03293 255 0 0
13.9219 -11.685 -3.59017 255 0 0
14.0041 -11.6412 -3.59323 255 0 0
13.9265 -10.6055 -3.53148 255 0 0
13.994 -10.1926 -3.51464 255 0 0
14.1135 -10.1268 -3.51975 255 0 0
14.1897 -10.1306 -3.52536 255 0 0
14.2565 -10.1273 -3.52995 255 0 0
14.3758 -10.1608 -3.54016 255 0 0
14.4666 -10.1737 -3.54731 255 0 0
14.4859 -10.136 -3.54679 255 0 0
14.6441 -10.0923 -3.55598 255 0 0
14.793 -10.0918 -3.5667 255 0 0
14.8699 -10.0927 -3.57231 255 0 0
15.0917 -10.0872 -3.58813 255 0 0
15.169 -10.0869 -3.59374 255 0 0
15.3385 -10.095 -3.6065 255 0 0
15.416 -10.0938 -3.61212 255 0 0
15.5616 -10.084 -3.62232 255 0 0
15.6443 -10.085 -3.62845 255 0 0
15.732 -10.0888 -3.63508 255 0 0
15.81 -10.086 -3.64069 255 0 0
12.3873 -11.1713 -5.29996 255 0 0
16.0839 -10.1005 -3.66162 255 0 0
16.5947 -10.095 -3.69938 255 0 0
16.6835 -10.0949 -3.70602 255 0 0
16.7773 -10.0974 -3.71316 255 0 0
16.8763 -10.1025 -3.72082 255 0 0
16.9704 -10.1043 -3.72796 255 0 0
17.2582 -10.1101 -3.7499 255 0 0
17.4473 -10.11 -3.76419 255 0 0
17.7569 -10.1214 -3.78818 255 0 0
17.9724 -10.1316 -3.80502 255 0 0
18.0778 -10.1346 -3.81318 255 0 0
15.6804 -9.84712 -4.86958 255 0 0
17.204 -9.96901 -4.74392 255 0 0
13.4554 -9.80029 -5.29314 255 0 0
16.9163 -9.90975 -4.87174 255 0 0
15.7323 -9.93178 -4.41008 255 0 0
12.4618 -11.5642 -5.21673 255 0 0
16.7158 -9.95267 -4.68469 255 0 0
13.794 -9.99695 -4.3509 255 0 0
15.374 -9.85923 -5.1422 255 0 0
17.1051 -9.96597 -4.73191 255 0 0
17.152 -9.99331 -4.4039 255 0 0
17.558 -9.89799 -5.29547 255 0 0
13.7328 -9.85365 -4.33249 255 0 0
17.2666 -9.8962 -5.2539 255 0 0
14.6177 -10.28 -3.71324 255 0 0
14.5943 -10.2118 -3.70765 255 0 0
14.5611 -10.0861 -3.69815 255 0 0
14.7769 -10.0808 -3.71491 255 0 0
14.8442 -10.0752 -3.71994 255 0 0
15.1477 -10.0728 -3.74397 255 0 0
15.5785 -10.0426 -3.77694 255 0 0
15.812 -10.0346 -3.79538 255 0 0
15.9589 -10.0748 -3.80935 255 0 0
16.3066 -10.0793 -3.83785 255 0 0
16.5671 -10.0782 -3.85908 255 0 0
16.8623 -10.0399 -3.88143 255 0 0
17.0365 -10.089 -3.89819 255 0 0
17.3143 -10.0879 -3.9211 255 0 0
17.4088 -10.0877 -3.92893 255 0 0
17.6472 -10.0589 -3.94737 255 0 0
17.7572 -10.0658 -3.95687 255 0 0
17.8419 -10.0581 -3.96357 255 0 0
14.512 -11.2704 -4.2251 255 0 0
15.7774 -9.85589 -4.88303 255 0 0
17.3481 -9.88834 -5.09466 255 0 0
13.6461 -9.7914 -5.32269 255 0 0
12.7826 -9.87886 -5.05671 255 0 0
13.1152 -10.2356 -4.72008 255 0 0
15.8559 -9.95732 -4.26734 255 0 0
14.2572 -9.82569 -5.12736 255 0 0
14.6638 -9.80119 -5.18564 255 0 0
17.9481 -9.89477 -5.17626 255 0 0
14.4443 -9.9042 -4.56539 255 0 0
14.6161 -9.97113 -4.29198 255 0 0
14.5537 -10.2866 -4.00807 255 0 0
13.8398 -11.7284 -3.89145 255 0 0
13.8446 -10.0838 -3.7858 255 0 0
14.5489 -10.4915 -3.8702 255 0 0
14.4942 -10.348 -3.85684 255 0 0
14.6489 -10.2501 -3.86413 255 0 0
14.5633 -10.1388 -3.85016 255 0 0
14.5728 -10.0432 -3.8453 255 0 0
14.6494 -10.0448 -3.85198 255 0 0
14.7213 -10.0429 -3.85806 255 0 0
14.8701 -10.0414 -3.87081 255 0 0
14.9471 -10.0419 -3.87749 255 0 0
15.0192 -10.0388 -3.88356 255 0 0
15.0963 -10.0386 -3.89024 255 0 0
15.1735 -10.0381 -3.89692 255 0 0
15.2605 -10.0437 -3.90481 255 0 0
15.333 -10.0394 -3.91088 255 0 0
15.4202 -10.0444 -3.91878 255 0 0
15.5803 -10.0437 -3.93274 255 0 0
15.7308 -10.0355 -3.94549 255 0 0
15.8332 -10.0481 -3.95521 255 0 0
15.9309 -10.0571 -3.96432 255 0 0
16.0871 -10.0494 -3.97768 255 0 0
16.185 -10.0573 -3.98678 255 0 0
16.2782 -10.0618 -3.99528 255 0 0
16.4301 -10.0483 -4.00804 255 0 0
16.8044 -10.0595 -4.04204 255 0 0
17.0863 -10.0639 -4.06754 255 0 0
17.6831 -10.0793 -4.12219 255 0 0
17.7779 -10.0776 -4.13069 255 0 0
18.0134 -10.0985 -4.15316 255 0 0
18.0984 -10.0898 -4.16045 255 0 0
17.7398 -10.0005 -4.638 255 0 0
16.3732 -9.85414 -5.12446 255 0 0
14.5399 -9.86871 -4.87314 255 0 0
14.9064 -9.81068 -5.22311 255 0 0
13.6727 -10.0083 -4.19495 255 0 0
13.7907 -11.743 -4.04085 255 0 0
13.791 -9.77207 -4.33249 255 0 0
15.3818 -9.8642 -4.83191 255 0 0
12.3965 -11.3405 -5.32382 255 0 0
14.5123 -11.2707 -4.07035 255 0 0
14.5169 -10.4685 -4.01659 255 0 0
14.57 -10.4544 -4.02052 255 0 0
14.2589 -10.1291 -3.9707 255 0 0
14.6024 -10.2175 -4.00807 255 0 0
14.5309 -10.0143 -3.9884 255 0 0
14.5882 -10.0029 -3.99299 255 0 0
14.6744 -10.0109 -4.00151 255 0 0
14.7462 -10.0088 -4.00807 255 0 0
14.9573 -9.99738 -4.02708 255 0 0
15.0488 -10.007 -4.03626 255 0 0
15.2997 -10.0176 -4.06051 255 0 0
15.7649 -10.0047 -4.10378 255 0 0
16.5374 -10.0064 -4.17786 255 0 0
16.7344 -10.0176 -4.19753 255 0 0
16.9119 -10.0152 -4.21458 255 0 0
17.1048 -10.0202 -4.23359 255 0 0
17.3031 -10.0265 -4.25326 255 0 0
17.4025 -10.029 -4.26309 255 0 0
17.5019 -10.0311 -4.27292 255 0 0
17.6015 -10.0328 -4.28276 255 0 0
16.8478 -9.86965 -5.19248 255 0 0
16.9227 -9.96749 -4.7103 255 0 0
13.2371 -9.98172 -4.71064 255 0 0
13.0178 -10.4609 -4.73048 255 0 0
16.0014 -9.8907 -4.75548 255 0 0
15.8315 -9.88973 -4.73426 255 0 0
14.5431 -11.1845 -4.5318 255 0 0
13.7435 -11.8158 -4.19483 255 0 0
14.5638 -11.5901 -4.25396 255 0 0
14.5456 -11.4633 -4.2427 255 0 0
14.7626 -11.2976 -4.25115 255 0 0
13.471 -9.95909 -4.02871 255 0 0
14.5449 -10.2288 -4.1533 255 0 0
14.4785 -9.97823 -4.12937 255 0 0
14.6169 -9.9717 -4.14274 255 0 0
14.8086 -9.99986 -4.16386 255 0 0
14.8708 -9.99066 -4.16949 255 0 0
14.9573 -9.99736 -4.17864 255 0 0
15.0627 -9.96481 -4.18709 255 0 0
15.6956 -9.96076 -4.25115 255 0 0
15.788 -9.96696 -4.261 255 0 0
16.0126 -10.0028 -4.28634 255 0 0
16.2814 -10.0105 -4.3145 255 0 0
16.7281 -10.0138 -4.36096 255 0 0
16.8117 -10.0098 -4.3694 255 0 0
17.0393 -10.0362 -4.39475 255 0 0
17.2411 -9.9905 -4.41305 255 0 0
17.3251 -9.98442 -4.42149 255 0 0
17.5152 -10.0387 -4.44472 255 0 0
17.7244 -10.0473 -4.46725 255 0 0
17.8393 -10.0566 -4.47992 255 0 0
18.0578 -10.0112 -4.50033 255 0 0
14.4368 -11.6012 -4.55582 255 0 0
13.0756 -10.3048 -4.72197 255 0 0
13.2473 -9.89121 -4.84436 255 0 0
13.01 -9.95637 -4.81854 255 0 0
13.3471 -11.475 -4.72789 255 0 0
14.7907 -9.93682 -4.45896 255 0 0
14.4755 -11.6323 -4.40557 255 0 0
14.4804 -11.5798 -4.4018 255 0 0
14.5032 -11.5418 -4.40105 255 0 0
14.425 -11.313 -4.37472 255 0 0
14.5317 -11.1757 -4.37472 255 0 0
13.4336 -9.93146 -4.16411 255 0 0
13.5787 -9.98905 -4.18366 255 0 0
13.748 -10.0134 -4.20322 255 0 0
14.5725 -10.2482 -4.30778 255 0 0
14.554 -10.1837 -4.30101 255 0 0
14.5924 -10.1591 -4.30326 255 0 0
14.4966 -9.94009 -4.27694 255 0 0
14.6877 -9.96906 -4.2995 255 0 0
14.8313 -9.96407 -4.31455 255 0 0
14.9079 -9.96437 -4.32282 255 0 0
15.0083 -9.9288 -4.3311 255 0 0
15.0852 -9.92831 -4.33937 255 0 0
15.2301 -9.97203 -4.35818 255 0 0
15.8738 -9.96857 -4.42813 255 0 0
16.3129 -9.97662 -4.47703 255 0 0
16.5725 -9.97411 -4.50561 255 0 0
16.6708 -9.97953 -4.51689 255 0 0
17.1829 -9.95681 -4.57256 255 0 0
17.4365 -9.9936 -4.6034 255 0 0
17.5409 -9.99824 -4.61543 255 0 0
17.6504 -10.0053 -4.62822 255 0 0
13.0968 -11.699 -4.87125 255 0 0
14.6779 -9.86103 -4.74045 255 0 0
12.6183 -11.5435 -5.08886 255 0 0
13.6316 -11.8324 -4.49098 255 0 0
14.4762 -11.2426 -4.5294 255 0 0
13.4607 -9.95146 -4.31008 255 0 0
13.559 -9.97451 -4.32289 255 0 0
13.653 -9.84547 -4.32289 255 0 0
16.4331 -9.83718 -5.29509 255 0 0
14.5806 -10.2023 -4.45576 255 0 0
14.4714 -10.024 -4.42935 255 0 0
14.4331 -9.94689 -4.41894 255 0 0
14.4949 -9.93888 -4.42534 255 0 0
14.6282 -9.92867 -4.43975 255 0 0
14.8721 -9.9404 -4.46857 255 0 0
14.9391 -9.93402 -4.47577 255 0 0
15.0878 -9.93003 -4.49258 255 0 0
15.1598 -9.926 -4.50059 255 0 0
15.4153 -9.93734 -4.531 255 0 0
15.4974 -9.93834 -4.54061 255 0 0
15.5649 -9.92964 -4.54781 255 0 0
15.6472 -9.93001 -4.55742 255 0 0
15.812 -9.92973 -4.57663 255 0 0
15.8896 -9.92602 -4.58543 255 0 0
16.3332 -9.93591 -4.63826 255 0 0
16.9913 -9.95373 -4.71751 255 0 0
17.3029 -9.97163 -4.75593 255 0 0
17.4911 -9.9699 -4.77834 255 0 0
17.6055 -9.97988 -4.79275 255 0 0
17.9142 -9.98715 -4.83037 255 0 0
18.019 -9.98965 -4.84318 255 0 0
13.2033 -11.189 -4.68216 255 0 0
15.4352 -9.89845 -4.68589 255 0 0
16.4728 -9.86098 -4.97539 255 0 0
15.3048 -9.86615 -4.82205 255 0 0
12.8149 -11.2843 -4.93768 255 0 0
14.4303 -9.945 -4.56708 255 0 0
13.522 -11.7936 -4.62818 255 0 0
14.4123 -11.1383 -4.66807 255 0 0
13.481 -10.0657 -4.4644 255 0 0
13.4863 -10.0199 -4.46101 255 0 0
13.529 -9.95243 -4.46016 255 0 0
13.7824 -9.98854 -4.49325 255 0 0
13.7261 -9.89822 -4.47883 255 0 0
13.6319 -9.78121 -4.45761 255 0 0
13.6598 -9.75223 -4.45846 255 0 0
13.9605 -9.76839 -4.4958 255 0 0
14.5252 -9.90911 -4.57557 255 0 0
14.7251 -9.89277 -4.59848 255 0 0
15.0361 -9.896 -4.63667 255 0 0
15.3484 -9.89421 -4.67486 255 0 0
15.5075 -9.89299 -4.69438 255 0 0
15.5945 -9.89655 -4.70541 255 0 0
15.7541 -9.89335 -4.72493 255 0 0
16.1087 -9.90432 -4.7699 255 0 0
16.2694 -9.89707 -4.78942 255 0 0
16.4452 -9.89749 -4.81149 255 0 0
16.6263 -9.89942 -4.8344 255 0 0
16.7146 -9.89835 -4.84543 255 0 0
16.8179 -9.90573 -4.85901 255 0 0
17.1085 -9.91366 -4.89635 255 0 0
17.4 -9.91795 -4.93369 255 0 0
17.494 -9.91667 -4.94557 255 0 0
17.7278 -9.93842 -4.97697 255 0 0
18.0619 -9.95752 -5.0211 255 0 0
16.8751 -9.88565 -5.03099 255 0 0
13.374 -9.96112 -4.58441 255 0 0
16.3219 -9.87608 -4.95656 255 0 0
13.3451 -9.86601 -4.85528 255 0 0
16.1203 -9.8588 -5.0895 255 0 0
12.9932 -10.6198 -4.7437 255 0 0
16.0491 -9.86768 -4.9198 255 0 0
13.377 -11.7231 -4.75659 255 0 0
13.238 -11.3267 -4.70009 255 0 0
13.2858 -10.6245 -4.63642 255 0 0
13.32 -10.6002 -4.63822 255 0 0
13.2045 -10.4572 -4.61042 255 0 0
13.2038 -10.3552 -4.60055 255 0 0
13.2466 -10.3381 -4.60414 255 0 0
13.2162 -10.2641 -4.59338 255 0 0
13.4608 -9.90225 -4.58979 255 0 0
13.5637 -9.87919 -4.60055 255 0 0
13.6855 -9.86891 -4.6149 255 0 0
13.6101 -9.76559 -4.59607 255 0 0
14.3716 -9.87939 -4.70278 255 0 0
14.4449 -9.85431 -4.70996 255 0 0
14.7445 -9.85514 -4.74852 255 0 0
15.613 -9.85647 -4.86151 255 0 0
16.3949 -9.86719 -4.96553 255 0 0
16.6887 -9.883 -5.00588 255 0 0
16.7719 -9.87865 -5.01664 255 0 0
17.057 -9.88384 -5.0552 255 0 0
17.2392 -9.88053 -5.07942 255 0 0
17.6754 -9.909 -5.14039 255 0 0
13.0355 -11.261 -4.81645 255 0 0
12.6305 -9.90563 -5.03712 255 0 0
12.4769 -10.124 -5.3177 255 0 0
12.4359 -10.4377 -5.07195 255 0 0
13.0724 -11.4562 -4.84196 255 0 0
12.9702 -11.0976 -4.79094 255 0 0
12.9727 -10.8621 -4.76638 255 0 0
12.9885 -10.771 -4.75882 255 0 0
13.0219 -10.5662 -4.74181 255 0 0
13.0742 -10.4553 -4.73709 255 0 0
13.0492 -10.3847 -4.7267 255 0 0
13.0511 -10.3358 -4.72197 255 0 0
13.1648 -10.1244 -4.71536 255 0 0
13.1318 -10.0249 -4.70119 255 0 0
13.2423 -9.93643 -4.70686 255 0 0
13.5037 -9.88456 -4.73615 255 0 0
13.5738 -9.88654 -4.74559 255 0 0
13.5785 -9.84076 -4.74181 255 0 0
13.8174 -9.8648 -4.77583 255 0 0
14.1045 -9.86915 -4.81456 255 0 0
14.1563 -9.85549 -4.82023 255 0 0
14.2271 -9.8548 -4.82968 255 0 0
14.3028 -9.85711 -4.84007 255 0 0
14.8157 -9.85196 -4.90904 255 0 0
14.9588 -9.84513 -4.92794 255 0 0
15.0304 -9.84129 -4.93739 255 0 0
15.1215 -9.84978 -4.95062 255 0 0
15.4286 -9.84267 -4.99219 255 0 0
15.5055 -9.84012 -5.00258 255 0 0
15.6744 -9.84331 -5.0262 255 0 0
16.0181 -9.84857 -5.07438 255 0 0
16.2904 -9.85704 -5.11312 255 0 0
16.6666 -9.86993 -5.16697 255 0 0
16.9461 -9.87332 -5.20666 255 0 0
17.1529 -9.88518 -5.23689 255 0 0
17.3552 -9.89243 -5.26618 255 0 0
17.6621 -9.90155 -5.31058 255 0 0
17.9952 -9.92074 -5.35971 255 0 0
13.203 -9.85811 -5.11767 255 0 0
12.4376 -11.5417 -5.35678 255 0 0
12.4204 -10.1271 -5.17042 255 0 0
12.4867 -9.88877 -5.1511 255 0 0
12.9416 -11.6712 -4.99824 255 0 0
12.9177 -11.5942 -4.98633 255 0 0
12.915 -11.5367 -4.97938 255 0 0
12.8906 -11.46 -4.96746 255 0 0
12.8121 -11.015 -4.9069 255 0 0
12.8021 -10.849 -4.88705 255 0 0
12.8145 -10.8074 -4.88407 255 0 0
12.8289 -10.6644 -4.87017 255 0 0
12.8554 -10.5326 -4.85925 255 0 0
12.8356 -10.4656 -4.84932 255 0 0
12.9108 -10.2247 -4.83344 255 0 0
12.9525 -10.0593 -4.82152 255 0 0
12.9955 -9.99423 -4.82053 255 0 0
13.0289 -9.922 -4.81755 255 0 0
13.08 -9.912 -4.82351 255 0 0
13.1357 -9.90527 -4.83046 255 0 0
13.4103 -9.86512 -4.86421 255 0 0
13.4709 -9.86056 -4.87216 255 0 0
13.5362 -9.85917 -4.88109 255 0 0
13.7607 -9.87365 -4.91385 255 0 0
13.9812 -9.83233 -4.94066 255 0 0
14.1697 -9.86483 -4.97044 255 0 0
14.3161 -9.8663 -4.99129 255 0 0
14.4862 -9.83227 -5.01214 255 0 0
14.6285 -9.82783 -5.032 255 0 0
14.7525 -9.86045 -5.05284 255 0 0
15.0046 -9.82441 -5.08561 255 0 0
15.0811 -9.82345 -5.09653 255 0 0
15.1624 -9.82533 -5.10844 255 0 0
15.5229 -9.85115 -5.16304 255 0 0
15.6477 -9.82653 -5.17893 255 0 0
15.8166 -9.82836 -5.20375 255 0 0
16.0449 -9.86507 -5.24048 255 0 0
16.5257 -9.83952 -5.30899 255 0 0
12.7503 -9.80571 -5.32126 255 0 0
16.7811 -9.88405 -5.35068 255 0 0
12.6356 -10.1291 -4.92494 255 0 0
15.7213 -9.82086 -5.34799 255 0 0
12.6812 -9.96968 -4.91349 255 0 0
12.5786 -9.8649 -5.16246 255 0 0
12.4012 -10.2591 -5.18405 255 0 0
12.6227 -11.6579 -5.10343 255 0 0
12.6461 -11.6241 -5.10238 255 0 0
12.5818 -11.4553 -5.07324 255 0 0
12.5662 -11.3868 -5.06284 255 0 0
12.5589 -11.3261 -5.05451 255 0 0
12.5514 -11.2655 -5.04619 255 0 0
12.548 -11.2088 -5.0389 255 0 0
12.5449 -11.0996 -5.02537 255 0 0
12.5323 -11.0355 -5.016 255 0 0
12.5235 -10.8706 -4.99519 255 0 0
12.5187 -10.8145 -4.98791 255 0 0
12.5304 -10.7213 -4.97854 255 0 0
12.5359 -10.5724 -4.96189 255 0 0
12.5433 -10.5279 -4.95772 255 0 0
12.5505 -10.4833 -4.95356 255 0 0
12.5935 -10.2682 -4.93483 255 0 0
12.5954 -10.2202 -4.92963 255 0 0
12.6602 -10.0752 -4.92234 255 0 0
12.666 -10.0308 -4.91818 255 0 0
12.7651 -9.91378 -4.91922 255 0 0
12.8068 -9.89758 -4.92338 255 0 0
12.8531 -9.88475 -4.92858 255 0 0
12.9271 -9.86868 -4.93743 255 0 0
13.0058 -9.85572 -4.94732 255 0 0
13.0613 -9.84914 -4.9546 255 0 0
13.1215 -9.84581 -4.96293 255 0 0
13.2467 -9.84189 -4.98062 255 0 0
13.3163 -9.84471 -4.99103 255 0 0
13.3814 -9.84384 -5.00039 255 0 0
13.4372 -9.83591 -5.00768 255 0 0
13.5024 -9.83456 -5.01705 255 0 0
13.5677 -9.83295 -5.02641 255 0 0
13.6424 -9.83782 -5.03786 255 0 0
13.8294 -9.82396 -5.06388 255 0 0
13.9139 -9.83438 -5.07741 255 0 0
14.0264 -9.81454 -5.09198 255 0 0
14.4745 -9.82434 -5.15962 255 0 0
14.5264 -9.80935 -5.16587 255 0 0
14.6023 -9.81022 -5.17732 255 0 0
14.7542 -9.81106 -5.20021 255 0 0
14.8351 -9.8142 -5.2127 255 0 0
14.9875 -9.81318 -5.2356 255 0 0
15.0687 -9.81536 -5.24809 255 0 0
15.1306 -9.80467 -5.25641 255 0 0
15.2167 -9.80936 -5.26994 255 0 0
15.5478 -9.81532 -5.32094 255 0 0
15.6247 -9.81214 -5.33238 255 0 0
15.7886 -9.81092 -5.35736 255 0 0
14.6891 -9.81811 -5.34301 255 0 0
12.4891 -11.6447 -5.23088 255 0 0
12.4554 -11.5034 -5.20802 255 0 0
12.4461 -11.386 -5.19169 255 0 0
12.4221 -11.3099 -5.17863 255 0 0
12.4286 -11.2085 -5.16666 255 0 0
12.4251 -11.1521 -5.15904 255 0 0
12.4043 -11.0805 -5.14706 255 0 0
12.422 -11.0434 -5.14489 255 0 0
12.4093 -10.9796 -5.13509 255 0 0
12.4008 -10.9197 -5.12638 255 0 0
12.4308 -10.8419 -5.12094 255 0 0
12.413 -10.7747 -5.11005 255 0 0
12.4139 -10.5707 -5.08501 255 0 0
12.4375 -10.364 -5.06324 255 0 0
12.4422 -10.2682 -5.05236 255 0 0
12.4564 -10.2057 -5.04691 255 0 0
12.4627 -10.1616 -5.04256 255 0 0
12.5122 -10.0547 -5.03712 255 0 0
12.5136 -10.007 -5.03167 255 0 0
12.5283 -9.97014 -5.0295 255 0 0
12.5727 -9.93264 -5.03167 255 0 0
12.6956 -9.85974 -5.04147 255 0 0
12.8379 -9.87308 -5.06433 255 0 0
13.0041 -9.85448 -5.08719 255 0 0
13.0642 -9.85133 -5.0959 255 0 0
13.1335 -9.85486 -5.10679 255 0 0
13.3282 -9.85354 -5.13618 255 0 0
13.3747 -9.83895 -5.14162 255 0 0
13.4584 -9.85139 -5.15577 255 0 0
13.5235 -9.84994 -5.16557 255 0 0
13.5795 -9.84148 -5.17319 255 0 0
13.7709 -9.83156 -5.20149 255 0 0
13.8504 -9.83886 -5.21455 255 0 0
13.9066 -9.82924 -5.22217 255 0 0
14.0473 -9.82915 -5.24395 255 0 0
14.1131 -9.8254 -5.25374 255 0 0
14.1978 -9.8345 -5.26789 255 0 0
14.429 -9.8435 -5.30491 255 0 0
14.5661 -9.83614 -5.32559 255 0 0
14.7931 -9.78643 -5.35607 255 0 0
12.4143 -11.4654 -5.34314 255 0 0
12.4203 -11.4165 -5.33746 255 0 0
12.3778 -11.216 -5.30451 255 0 0
12.3752 -11.1073 -5.28973 255 0 0
12.3758 -11.055 -5.28291 255 0 0
12.3593 -10.9353 -5.26473 255 0 0
12.3462 -10.8198 -5.24769 255 0 0
12.354 -10.7235 -5.23632 255 0 0
12.3764 -10.5388 -5.21587 255 0 0
12.3648 -10.4281 -5.19996 255 0 0
12.3719 -10.384 -5.19542 255 0 0
12.3866 -10.3216 -5.18973 255 0 0
12.4518 -10.0061 -5.16019 255 0 0
12.4576 -9.96222 -5.15564 255 0 0
12.4856 -9.93623 -5.15678 255 0 0
12.5326 -9.87692 -5.15678 255 0 0
12.6201 -9.84918 -5.16701 255 0 0
12.7257 -9.83489 -5.18178 255 0 0
12.7763 -9.8257 -5.1886 255 0 0
12.8406 -9.82679 -5.19882 255 0 0
12.9466 -9.81089 -5.2136 255 0 0
13.0065 -9.80784 -5.22269 255 0 0
13.2004 -9.80756 -5.25337 255 0 0
13.3347 -9.80953 -5.27496 255 0 0
13.3857 -9.79824 -5.28178 255 0 0
13.5902 -9.80021 -5.31473 255 0 0
13.8702 -9.8035 -5.36019 255 0 0
13.9216 -9.79041 -5.367 255 0 0
13.9824 -9.78372 -5.3761 255 0 0
12.5431 -9.88518 -5.29758 255 0 0
12.4418 -10.5437 -5.36744 255 0 0
12.4873 -10.4809 -5.36625 255 0 0
12.4857 -10.4292 -5.35915 255 0 0
12.492 -10.0872 -5.31534 255 0 0
12.5248 -10.0648 -5.3177 255 0 0
12.4635 -9.96699 -5.29521 255 0 0
12.4602 -9.91598 -5.2881 255 0 0
12.5286 -9.92201 -5.29994 255 0 0
12.5575 -9.84834 -5.29521 255 0 0
12.6312 -9.80978 -5.30231 255 0 0
12.8054 -9.79984 -5.32955 255 0 0
12.8767 -9.78197 -5.33902 255 0 0
13.0216 -9.77088 -5.36151 255 0 0
13.0953 -9.77772 -5.37454 255 0 0
