ply
format ascii 1.0
comment Created by Open3D
element vertex 1039
property double x
property double y
property double z
property uchar red
property uchar green
property uchar blue
end_header
7.15142 -0.381875 -4.30722 255 0 0
9.58647 0.580314 -3.57026 255 0 0
7.59596 1.11554 -4.26375 255 0 0
7.44872 0.477507 -4.20083 255 0 0
7.08383 0.277269 -4.21905 255 0 0
10.2445 0.644532 -3.59082 255 0 0
8.45322 0.391111 -3.89449 255 0 0
10.1222 -0.120015 -4.44365 255 0 0
10.1805 0.579943 -4.37204 255 0 0
9.27087 0.0769183 -3.67452 255 0 0
7.14351 -0.423921 -4.37127 255 0 0
9.23532 0.361486 -3.66931 255 0 0
7.09294 1.14497 -4.51406 255 0 0
9.53893 0.600139 -3.5627 255 0 0
8.75032 -0.0726166 -3.80686 255 0 0
10.1685 0.627639 -4.28081 255 0 0
7.44254 0.56577 -4.20083 255 0 0
7.08705 0.134441 -4.21876 255 0 0
9.29922 -0.121274 -3.67972 255 0 0
9.60713 0.12529 -3.653 255 0 0
9.93941 0.507119 -3.5424 255 0 0
10.0886 1.02006 -4.35877 255 0 0
9.20048 0.930265 -4.3138 255 0 0
10.185 0.495441 -4.37204 255 0 0
9.26413 0.958897 -4.08509 255 0 0
9.6872 0.540319 -3.58632 255 0 0
7.70135 -0.0639115 -4.20148 255 0 0
8.6684 0.576335 -3.79383 255 0 0
8.33363 -0.28662 -4.0864 255 0 0
7.68653 0.722008 -4.20684 255 0 0
8.98212 0.779277 -4.17641 255 0 0
9.09412 0.0862517 -4.43687 255 0 0
10.1297 0.951477 -4.36673 255 0 0
8.75206 0.363355 -3.73293 255 0 0
8.71621 0.0103331 -3.79975 255 0 0
7.98933 0.961209 -4.22801 255 0 0
10.2111 0.642427 -4.38 255 0 0
9.11114 0.943061 -4.37295 255 0 0
9.90294 0.176119 -3.61939 255 0 0
9.08516 0.918605 -4.36561 255 0 0
8.42458 1.40095 -4.28836 255 0 0
8.55295 -0.111542 -3.91496 255 0 0
9.30251 -0.176472 -4.32801 255 0 0
9.46252 0.617859 -3.55042 255 0 0
8.31139 0.780687 -4.23683 255 0 0
8.66704 0.462807 -3.9431 255 0 0
7.06934 1.15837 -4.57368 255 0 0
9.13946 -0.0108349 -4.28679 255 0 0
10.755 -0.267808 -4.69185 255 0 0
8.51066 1.0137 -3.9188 255 0 0
7.01452 -0.491432 -4.72608 255 0 0
9.13338 0.129931 -4.36634 255 0 0
8.9201 0.720654 -3.69327 255 0 0
9.15231 0.141063 -4.12926 255 0 0
8.05152 1.06567 -4.17621 255 0 0
8.38087 -0.318081 -4.02458 255 0 0
7.42278 0.334617 -4.19089 255 0 0
7.6259 -0.352833 -4.18217 255 0 0
9.96189 0.200795 -3.54419 255 0 0
7.13628 -0.482961 -4.56972 255 0 0
8.62728 0.429925 -3.85858 255 0 0
10.2726 1.01407 -4.40122 255 0 0
9.85726 0.222069 -3.52805 255 0 0
7.09549 0.530937 -4.22722 255 0 0
8.28473 1.3273 -4.2482 255 0 0
7.697 0.824366 -4.21274 255 0 0
10.1305 0.15614 -3.5702 255 0 0
7.31731 0.130135 -4.22419 255 0 0
7.48179 0.720672 -4.21628 255 0 0
7.36041 1.04532 -4.25938 255 0 0
8.58694 0.132349 -3.92264 255 0 0
7.12592 1.02926 -4.45237 255 0 0
7.09795 0.888132 -4.37035 255 0 0
9.14137 0.130065 -4.2875 255 0 0
7.48876 -0.0887806 -4.20828 255 0 0
7.98171 0.82613 -4.22176 255 0 0
9.58852 0.512012 -3.65201 255 0 0
9.25204 1.00201 -4.24648 255 0 0
8.76934 0.82373 -3.8187 255 0 0
7.16409 -0.339988 -4.245 255 0 0
8.75855 0.134994 -3.73293 255 0 0
8.55289 0.517746 -4.29594 255 0 0
9.08658 0.918749 -3.64954 255 0 0
9.10216 0.0323721 -4.03776 255 0 0
9.39344 -0.0556806 -4.02116 255 0 0
8.31601 0.661925 -4.23532 255 0 0
7.10705 0.10954 -4.22488 255 0 0
8.74838 0.769452 -3.81337 255 0 0
7.9772 -0.179714 -4.20926 255 0 0
7.17184 0.966544 -4.39797 255 0 0
7.06791 -0.427853 -4.74513 255 0 0
8.7768 -0.0208167 -3.73634 255 0 0
8.76031 0.6764 -3.73824 255 0 0
8.05696 -0.468555 -4.37967 255 0 0
8.76072 0.426157 -3.73521 255 0 0
7.31878 -0.512748 -4.43112 255 0 0
8.65619 0.215546 -3.78791 255 0 0
10.2993 0.0610504 -3.5962 255 0 0
8.92722 0.753193 -4.16267 255 0 0
8.80583 -0.533058 -4.52172 255 0 0
8.78144 0.877374 -3.82225 255 0 0
9.09044 -0.0754525 -4.43586 255 0 0
9.12483 0.0648996 -4.04288 255 0 0
8.92821 0.625503 -4.31862 255 0 0
7.12127 0.97694 -4.24995 255 0 0
9.28912 0.939228 -4.09021 255 0 0
7.14194 -0.33894 -4.43538 255 0 0
7.33624 1.18425 -4.46243 255 0 0
7.67077 0.573983 -4.1988 255 0 0
7.53192 -0.402193 -4.22401 255 0 0
8.18525 1.17236 -4.21562 255 0 0
9.08243 0.0646182 -4.27258 255 0 0
7.83503 1.05592 -4.18895 255 0 0
9.21774 0.492213 -3.66723 255 0 0
10.0497 0.476919 -4.60643 255 0 0
8.42942 0.731325 -4.26714 255 0 0
7.12593 -0.270461 -4.36298 255 0 0
8.60864 -0.112268 -3.85243 255 0 0
8.6553 0.97893 -3.79857 255 0 0
9.21745 0.568946 -4.22931 255 0 0
8.86439 0.420671 -3.67912 255 0 0
7.35216 -0.480063 -4.37366 255 0 0
8.34974 1.36817 -4.26714 255 0 0
7.23776 1.11558 -4.35929 255 0 0
8.67586 0.195454 -3.86721 255 0 0
8.87016 0.273476 -3.67912 255 0 0
9.84802 0.783867 -3.69966 255 0 0
8.12479 -0.366257 -4.17924 255 0 0
10.0221 0.475608 -4.68844 255 0 0
9.29372 0.895193 -3.60634 255 0 0
7.12091 -0.490413 -4.49762 255 0 0
8.31535 -0.444027 -4.08356 255 0 0
8.6809 1.02354 -3.88075 255 0 0
8.48296 0.979795 -3.98643 255 0 0
7.66064 0.372649 -4.19236 255 0 0
9.99596 0.533769 -3.55137 255 0 0
9.25916 0.472412 -3.67452 255 0 0
9.03037 0.934701 -3.71777 255 0 0
8.92417 0.720966 -4.16129 255 0 0
7.1638 -0.297417 -4.37587 255 0 0
7.71694 -0.155545 -4.2063 255 0 0
9.61476 0.125389 -3.57215 255 0 0
8.75688 0.218053 -3.73293 255 0 0
7.20908 1.14619 -4.48635 255 0 0
8.35684 0.965246 -4.10487 255 0 0
7.34193 0.672069 -4.24065 255 0 0
7.4324 0.229163 -4.19255 255 0 0
8.94488 -0.15908 -3.69273 255 0 0
9.24209 0.570464 -3.67244 255 0 0
7.50438 0.812736 -4.22567 255 0 0
8.76683 0.614197 -3.73862 255 0 0
7.90471 0.534967 -4.19364 255 0 0
7.19647 1.19673 -4.55273 255 0 0
10.2717 0.989396 -4.31023 255 0 0
9.33167 0.965887 -4.18233 255 0 0
7.66437 0.959005 -4.20791 255 0 0
8.87135 0.231431 -3.67912 255 0 0
8.90596 0.0316744 -3.68511 255 0 0
8.5969 -0.132502 -3.84996 255 0 0
9.0881 0.853644 -4.28395 255 0 0
9.21249 -0.14199 -3.66411 255 0 0
9.51951 0.916941 -3.56365 255 0 0
9.95859 0.271605 -3.62884 255 0 0
9.57352 0.227015 -3.64754 255 0 0
9.09723 -0.0647034 -4.3568 255 0 0
8.805 0.848118 -3.74998 255 0 0
7.84705 -0.437682 -4.24654 255 0 0
9.52445 0.644585 -3.56081 255 0 0
9.05395 0.807142 -4.19427 255 0 0
9.43371 -0.1454 -3.62322 255 0 0
8.79555 0.826165 -3.74771 255 0 0
7.41154 -0.41339 -4.25597 255 0 0
8.96748 -0.180752 -3.69708 255 0 0
10.0545 0.321941 -4.51704 255 0 0
8.78417 -0.0729066 -3.73786 255 0 0
7.50629 0.794941 -4.22567 255 0 0
9.11906 -0.129734 -4.44369 255 0 0
9.37202 -0.233371 -3.69325 255 0 0
9.2149 0.667548 -3.98791 255 0 0
7.68601 0.676013 -4.2055 255 0 0
9.19395 0.907588 -3.58946 255 0 0
7.53744 1.0887 -4.24554 255 0 0
8.75174 0.488142 -3.73407 255 0 0
8.57214 -0.274477 -3.92008 255 0 0
8.75782 0.176526 -3.73293 255 0 0
9.11444 -0.0216038 -4.3612 255 0 0
9.23281 0.131373 -3.66775 255 0 0
8.30181 -0.482794 -4.08071 255 0 0
10.1242 0.384257 -4.44571 255 0 0
8.8654 0.917625 -3.9177 255 0 0
9.72341 0.669624 -3.67683 255 0 0
9.58919 0.786149 -3.57309 255 0 0
8.27067 -0.559734 -4.2952 255 0 0
9.07947 0.129171 -4.43309 255 0 0
7.41879 0.378514 -4.19034 255 0 0
9.083 0.896636 -3.6485 255 0 0
9.11998 0.878457 -4.29248 255 0 0
7.2026 1.0665 -4.41271 255 0 0
9.35322 0.789134 -3.69533 255 0 0
7.48037 -0.221746 -4.20662 255 0 0
9.22275 0.602204 -3.66931 255 0 0
8.09329 1.05168 -4.18682 255 0 0
8.57793 0.78521 -4.30806 255 0 0
9.11134 0.0540084 -4.44142 255 0 0
7.04154 0.974512 -4.29016 255 0 0
9.04998 0.118024 -4.10538 255 0 0
8.75311 0.114152 -3.7318 255 0 0
8.02852 0.91768 -4.23739 255 0 0
7.14926 1.06726 -4.32877 255 0 0
8.61386 -0.214492 -3.92903 255 0 0
8.86193 0.747684 -4.30394 255 0 0
8.26197 -0.519799 -4.29207 255 0 0
9.82778 0.24472 -3.52357 255 0 0
8.87916 0.569195 -3.68348 255 0 0
7.67585 0.629293 -4.20148 255 0 0
8.2116 -0.321416 -4.20198 255 0 0
7.10188 0.0757768 -4.22313 255 0 0
8.32563 1.3845 -4.18646 255 0 0
7.42248 0.272911 -4.19006 255 0 0
9.10981 -0.291692 -4.3612 255 0 0
8.60719 -0.193906 -3.85243 255 0 0
7.63234 -0.334998 -4.18378 255 0 0
8.87536 -0.263122 -4.14343 255 0 0
9.6213 0.0342185 -3.57309 255 0 0
9.52635 -0.124236 -3.6391 255 0 0
7.92801 -0.310316 -4.19677 255 0 0
9.96959 0.342887 -3.54599 255 0 0
8.54623 -0.172261 -3.91368 255 0 0
10.1217 0.444261 -4.44571 255 0 0
9.14243 1.02304 -4.38323 255 0 0
7.11631 -0.227861 -4.3593 255 0 0
9.15722 0.13028 -4.21076 255 0 0
8.87227 0.473779 -3.68112 255 0 0
7.68586 0.767925 -4.20791 255 0 0
10.1297 0.516826 -4.44846 255 0 0
9.20187 -0.229134 -4.1412 255 0 0
7.80082 1.12674 -4.25297 255 0 0
7.04957 1.1037 -4.76629 255 0 0
10.3166 -0.0733837 -3.59889 255 0 0
7.64919 -0.517674 -4.3998 255 0 0
7.96322 -0.406292 -4.2077 255 0 0
7.57233 -0.494439 -4.37531 255 0 0
8.23125 1.17895 -4.15416 255 0 0
9.61009 0.742003 -3.57593 255 0 0
8.92612 -0.0211742 -3.68892 255 0 0
10.1213 0.30006 -4.44434 255 0 0
7.3501 -0.0435685 -4.23384 255 0 0
9.91473 0.505859 -3.62317 255 0 0
7.03325 1.04994 -4.42216 255 0 0
9.96234 0.177175 -3.54419 255 0 0
8.60173 0.479775 -3.85366 255 0 0
8.8594 0.93824 -3.76248 255 0 0
9.53435 0.0791231 -3.55892 255 0 0
8.29773 1.23871 -4.09919 255 0 0
7.98163 -0.227176 -4.21083 255 0 0
8.76665 0.729183 -3.74032 255 0 0
9.54093 0.260214 -3.64208 255 0 0
9.29425 -0.0110184 -3.67868 255 0 0
10.1568 0.542359 -4.45533 255 0 0
7.3537 0.725927 -4.24576 255 0 0
10.0233 0.22581 -3.63923 255 0 0
9.0676 0.786693 -3.95835 255 0 0
8.8984 0.665833 -3.68838 255 0 0
10.2106 0.43604 -4.37734 255 0 0
8.25054 1.27169 -4.23683 255 0 0
8.76513 0.322297 -3.73521 255 0 0
8.95777 0.713006 -4.24842 255 0 0
10.1707 0.265333 -4.45602 255 0 0
10.2066 0.520751 -4.37734 255 0 0
10.0729 0.466049 -3.64868 255 0 0
7.62824 1.01885 -4.19987 255 0 0
9.27816 0.716375 -3.68076 255 0 0
9.69563 0.126457 -3.58538 255 0 0
7.04116 -0.510077 -4.66961 255 0 0
9.14676 -0.0108436 -4.20801 255 0 0
8.33586 -0.613813 -4.09137 255 0 0
7.45604 -0.344974 -4.20083 255 0 0
7.11562 1.02779 -4.3162 255 0 0
9.0211 0.503166 -4.34065 255 0 0
9.54019 0.668378 -3.56365 255 0 0
7.4102 1.21422 -4.48822 255 0 0
8.32964 -0.524066 -4.08829 255 0 0
8.88785 0.126448 -3.68184 255 0 0
9.78073 -0.0811677 -3.68279 255 0 0
8.9797 0.564955 -4.25126 255 0 0
8.99032 0.544226 -4.33331 255 0 0
7.42176 0.982315 -4.20745 255 0 0
7.34522 1.14998 -4.3952 255 0 0
8.69225 -0.133972 -3.79502 255 0 0
8.88997 0.622824 -3.6862 255 0 0
9.39573 0.613498 -4.19029 255 0 0
8.22416 -0.419605 -4.20652 255 0 0
8.68007 0.360367 -3.79383 255 0 0
9.94637 0.294873 -3.62695 255 0 0
8.47302 -0.170785 -3.97139 255 0 0
9.27304 0.627571 -3.67868 255 0 0
9.00779 0.674018 -3.94357 255 0 0
9.36702 -0.0666325 -4.17901 255 0 0
8.46824 -0.674041 -4.27623 255 0 0
9.31868 0.853017 -3.69013 255 0 0
7.94808 0.765577 -4.21083 255 0 0
9.24209 0.427602 -3.67105 255 0 0
8.6019 -0.173383 -3.85119 255 0 0
9.3341 0.809814 -3.69221 255 0 0
8.33451 1.00274 -4.17472 255 0 0
7.34998 -0.0609955 -4.23384 255 0 0
7.07686 -0.243396 -4.3464 255 0 0
7.93372 -0.0752461 -4.19677 255 0 0
8.73339 -0.020707 -3.80331 255 0 0
9.51983 0.882808 -3.56317 255 0 0
9.86339 0.808629 -3.70264 255 0 0
8.02245 0.696017 -4.22958 255 0 0
9.49657 0.710592 -3.55703 255 0 0
8.7171 0.134355 -3.87583 255 0 0
7.50776 -0.133522 -4.21407 255 0 0
7.40179 0.96182 -4.20083 255 0 0
8.42648 0.983397 -4.04794 255 0 0
9.62908 0.194087 -3.65697 255 0 0
8.97889 0.800451 -4.25553 255 0 0
9.2578 0.186603 -3.67244 255 0 0
9.49745 -0.461995 -4.37918 255 0 0
8.82288 -0.177833 -3.74581 255 0 0
7.3335 0.618743 -4.23668 255 0 0
8.31994 -0.464058 -4.08498 255 0 0
9.89889 -0.457999 -4.39212 255 0 0
8.77972 0.594184 -3.74089 255 0 0
8.98369 0.768704 -4.09742 255 0 0
7.33198 1.00583 -4.24916 255 0 0
10.2987 0.782892 -3.60069 255 0 0
9.03715 0.913751 -4.43384 255 0 0
7.33467 0.882429 -4.24519 255 0 0
10.1825 0.616394 -3.58096 255 0 0
9.59874 0.855709 -3.65797 255 0 0
8.6392 0.3792 -3.86064 255 0 0
8.67602 0.0308566 -3.79147 255 0 0
8.75368 0.321849 -3.73293 255 0 0
10.3284 0.0367333 -3.60069 255 0 0
10.0412 1.06339 -4.43747 255 0 0
9.52306 -0.0338691 -3.55703 255 0 0
9.4095 -0.100399 -4.18896 255 0 0
10.2995 -0.0122101 -3.5962 255 0 0
8.56274 0.33516 -3.8438 255 0 0
7.65888 0.472741 -4.19343 255 0 0
9.13683 0.967621 -4.05695 255 0 0
7.97764 -0.264905 -4.21005 255 0 0
10.2658 0.121704 -4.20899 255 0 0
7.17634 -0.374688 -4.24937 255 0 0
10.2203 0.472872 -4.38 255 0 0
9.63139 0.571567 -3.65995 255 0 0
10.1424 0.132271 -3.57199 255 0 0
7.42772 1.19901 -4.42393 255 0 0
9.62989 0.148424 -3.65697 255 0 0
10.1776 0.664551 -4.28337 255 0 0
8.84247 -0.241164 -3.74998 255 0 0
9.77524 -0.034766 -3.68179 255 0 0
10.6288 0.378163 -3.73891 255 0 0
7.31154 0.932478 -4.24008 255 0 0
9.23628 0.933885 -4.24098 255 0 0
9.56146 0.476478 -3.64705 255 0 0
9.60061 0.64974 -4.07043 255 0 0
7.49541 -0.471571 -4.35082 255 0 0
9.22717 -0.47078 -4.39351 255 0 0
7.85989 1.0403 -4.1952 255 0 0
8.98334 0.693611 -3.93864 255 0 0
9.08193 0.0753821 -4.19244 255 0 0
7.14706 1.02366 -4.39245 255 0 0
9.67176 0.620011 -3.6674 255 0 0
7.10296 0.684173 -4.23363 255 0 0
9.17615 -0.0652882 -4.29603 255 0 0
8.27978 0.688683 -4.22622 255 0 0
8.70783 0.382203 -3.79975 255 0 0
9.47111 -0.0112281 -3.54853 255 0 0
9.65988 -0.0114519 -3.66194 255 0 0
9.14845 0.990792 -4.30243 255 0 0
9.92446 1.07484 -4.6748 255 0 0
7.92801 0.479926 -4.19911 255 0 0
9.06769 -0.182771 -3.63809 255 0 0
9.39908 0.0668572 -4.0224 255 0 0
7.66264 0.281734 -4.19182 255 0 0
7.36011 -0.139624 -4.23724 255 0 0
7.18797 -0.375268 -4.38508 255 0 0
7.8824 0.608607 -4.18895 255 0 0
8.42647 -0.229819 -4.03489 255 0 0
9.19864 0.250878 -3.66203 255 0 0
10.0177 0.380219 -4.68617 255 0 0
9.15271 0.162776 -4.37148 255 0 0
11.1293 0.171534 -4.49188 255 0 0
8.9938 0.952474 -3.71124 255 0 0
9.95053 0.484034 -3.62884 255 0 0
9.90462 0.293636 -4.6551 255 0 0
7.43591 0.167497 -4.1931 255 0 0
9.62523 0.0228216 -3.65598 255 0 0
7.40525 1.08753 -4.2747 255 0 0
9.7577 0.521046 -3.59766 255 0 0
8.66121 0.969196 -3.87521 255 0 0
8.9539 0.712698 -4.0109 255 0 0
10.0591 0.489317 -4.51988 255 0 0
8.98421 0.876138 -3.70797 255 0 0
9.59621 0.695171 -3.57309 255 0 0
7.4691 0.0885509 -4.20248 255 0 0
8.58471 -0.254505 -4.14893 255 0 0
10.2879 0.0121964 -3.59441 255 0 0
10.2355 0.0849419 -3.58634 255 0 0
10.1948 0.108778 -3.58006 255 0 0
7.66085 0.32715 -4.19182 255 0 0
9.78347 0.278432 -3.51684 255 0 0
9.72748 0.31147 -3.50832 255 0 0
9.72011 0.357382 -3.50743 255 0 0
9.59782 0.375675 -3.48859 255 0 0
9.7236 0.415218 -3.50832 255 0 0
9.75675 0.451422 -3.5137 255 0 0
9.81922 0.477647 -3.52357 255 0 0
10.0698 0.561657 -3.56302 255 0 0
10.2071 0.593594 -3.58454 255 0 0
10.297 0.684606 -3.59934 255 0 0
10.311 0.734667 -3.60203 255 0 0
10.3247 0.821811 -3.60517 255 0 0
10.3054 0.84487 -3.60248 255 0 0
9.7326 0.821143 -3.5137 255 0 0
9.08828 -0.0323228 -4.274 255 0 0
8.75691 0.384357 -3.73407 255 0 0
10.3555 0.97269 -4.23794 255 0 0
8.27863 -0.314221 -4.0729 255 0 0
8.33584 -0.574086 -4.09066 255 0 0
8.82541 0.871208 -4.37625 255 0 0
8.72744 0.798896 -3.88568 255 0 0
10.2929 -0.134232 -3.59531 255 0 0
10.3105 -0.110013 -3.598 255 0 0
10.311 -0.0366715 -3.598 255 0 0
9.52889 0.0112966 -3.55798 255 0 0
9.66742 0.0573046 -3.58065 255 0 0
9.84472 0.198434 -3.60994 255 0 0
10.0574 0.250437 -3.6449 255 0 0
10.0149 0.320675 -3.63829 255 0 0
9.97199 0.390321 -3.63167 255 0 0
10.0162 0.439631 -3.63923 255 0 0
9.60513 0.558589 -3.57309 255 0 0
9.72351 0.773957 -3.59482 255 0 0
9.52009 0.825955 -3.56239 255 0 0
9.5922 0.284374 -3.65102 255 0 0
8.22819 1.17851 -4.30145 255 0 0
8.73222 0.935237 -3.81337 255 0 0
8.97229 0.767708 -4.01602 255 0 0
7.3015 0.37253 -4.22192 255 0 0
9.252 0.626147 -4.15712 255 0 0
8.26994 -0.530151 -4.14682 255 0 0
8.78254 0.0208099 -3.73748 255 0 0
9.51584 -0.169234 -3.55609 255 0 0
9.51844 -0.124138 -3.5564 255 0 0
9.52865 -0.0677788 -3.55798 255 0 0
9.66541 0.0687516 -3.66293 255 0 0
9.65934 0.103065 -3.66194 255 0 0
9.60643 0.170845 -3.653 255 0 0
9.60303 0.307485 -3.653 255 0 0
9.65418 0.332039 -3.66194 255 0 0
9.6995 0.356624 -3.66988 255 0 0
9.60591 0.387397 -3.654 255 0 0
9.62754 0.422571 -3.65797 255 0 0
9.60345 0.44433 -3.654 255 0 0
9.63337 0.537316 -3.65995 255 0 0
9.66342 0.700039 -3.6669 255 0 0
9.67324 0.723811 -3.66889 255 0 0
9.71177 0.749854 -3.67584 255 0 0
9.81544 0.828132 -3.6947 255 0 0
9.74446 0.845417 -3.68279 255 0 0
9.476 0.867418 -3.63712 255 0 0
9.37051 0.88017 -3.61925 255 0 0
9.30602 0.651972 -3.68492 255 0 0
8.71548 -0.113661 -3.79975 255 0 0
9.26517 -0.20873 -4.40085 255 0 0
7.22276 1.16593 -4.49202 255 0 0
8.78459 0.720186 -4.28338 255 0 0
8.21033 1.13624 -4.22092 255 0 0
7.30079 0.259763 -4.22022 255 0 0
8.27854 1.3565 -4.17325 255 0 0
8.8875 0.527438 -3.68457 255 0 0
9.30599 -0.187575 -3.60138 255 0 0
7.10834 0.889432 -4.24237 255 0 0
10.1955 0.617181 -4.37602 255 0 0
9.55936 -0.215357 -3.64506 255 0 0
9.26602 -0.164791 -3.59443 255 0 0
9.63626 -0.102819 -3.65797 255 0 0
9.8386 -0.0583193 -3.69272 255 0 0
9.27982 0.022006 -3.67608 255 0 0
9.21213 0.163833 -3.66411 255 0 0
9.21125 0.207515 -3.66411 255 0 0
9.25681 0.230502 -3.67244 255 0 0
9.21496 0.284124 -3.66515 255 0 0
9.20238 0.3165 -3.66307 255 0 0
9.18838 0.38147 -3.66099 255 0 0
9.2268 0.536587 -3.66931 255 0 0
9.2987 0.673618 -3.68388 255 0 0
9.33388 0.742943 -3.69117 255 0 0
9.35506 0.766955 -3.69533 255 0 0
9.35511 0.83399 -3.69637 255 0 0
9.15393 0.881727 -3.66099 255 0 0
9.22767 0.955122 -3.67556 255 0 0
8.67429 0.174828 -3.79147 255 0 0
7.05341 1.15576 -4.63516 255 0 0
8.69105 0.0721112 -3.79462 255 0 0
9.10843 -0.161989 -3.64538 255 0 0
7.12874 -0.380664 -4.4316 255 0 0
7.15656 1.03368 -4.26336 255 0 0
8.33237 -0.613566 -4.16444 255 0 0
8.8338 0.776985 -4.29733 255 0 0
9.28037 -0.209072 -3.6766 255 0 0
9.32273 -0.0773441 -3.68388 255 0 0
9.323 -0.0331576 -3.68388 255 0 0
8.90026 0.0105513 -3.68402 255 0 0
8.90569 0.073906 -3.68511 255 0 0
8.89996 0.0738584 -3.68402 255 0 0
8.87927 0.178964 -3.68039 255 0 0
8.87508 0.326294 -3.68039 255 0 0
8.87779 0.379101 -3.6813 255 0 0
8.90827 0.687815 -3.69055 255 0 0
8.93664 0.764679 -3.69708 255 0 0
8.9568 0.798481 -3.70144 255 0 0
8.97108 0.831924 -3.7047 255 0 0
8.98105 0.908078 -3.70797 255 0 0
8.93432 0.967601 -3.70035 255 0 0
7.01074 0.843474 -4.40517 255 0 0
8.98953 -0.223846 -3.70144 255 0 0
9.37624 -0.0666879 -4.09916 255 0 0
9.07865 -0.226045 -3.71831 255 0 0
9.00276 -0.138758 -3.70362 255 0 0
8.97429 -0.117037 -3.69817 255 0 0
8.9383 -0.0742039 -3.69128 255 0 0
8.76311 0.0727136 -3.73369 255 0 0
8.75205 0.176409 -3.7318 255 0 0
8.7506 0.238659 -3.7318 255 0 0
8.7382 0.269431 -3.72952 255 0 0
8.74636 0.425465 -3.73237 255 0 0
8.75567 0.519604 -3.73521 255 0 0
8.75378 0.550741 -3.73521 255 0 0
8.7917 0.773262 -3.746 255 0 0
8.8144 0.870121 -3.75225 255 0 0
8.82946 0.892751 -3.75566 255 0 0
8.8343 0.956769 -3.75793 255 0 0
7.91895 0.573653 -4.19833 255 0 0
10.1887 0.957024 -4.29104 255 0 0
8.89354 -0.263661 -3.76021 255 0 0
8.92915 -0.222343 -3.76702 255 0 0
8.80752 -0.125308 -3.74259 255 0 0
8.67233 0.123385 -3.79087 255 0 0
8.65138 0.17438 -3.78673 255 0 0
8.63846 0.2356 -3.78436 255 0 0
8.6506 0.276993 -3.78712 255 0 0
8.66983 0.329058 -3.79147 255 0 0
8.66345 0.411135 -3.79087 255 0 0
8.63617 0.440626 -3.78555 255 0 0
8.65801 0.462324 -3.79028 255 0 0
8.64544 0.482213 -3.78791 255 0 0
8.66083 0.513983 -3.79147 255 0 0
8.65323 0.544415 -3.79028 255 0 0
8.67774 0.607956 -3.7962 255 0 0
8.64768 0.626457 -3.79028 255 0 0
8.71972 0.662866 -3.80567 255 0 0
8.70589 0.692957 -3.80331 255 0 0
8.72908 0.726057 -3.80863 255 0 0
8.75224 0.822096 -3.81515 255 0 0
8.75546 0.906246 -3.81752 255 0 0
8.77159 0.971024 -3.82225 255 0 0
8.67574 1.00208 -3.80331 255 0 0
7.31995 0.182272 -4.22532 255 0 0
8.53372 -0.252994 -3.98598 255 0 0
7.31271 0.373102 -4.22532 255 0 0
9.24913 0.935184 -4.00023 255 0 0
10.0442 0.333531 -4.60349 255 0 0
8.4932 -0.271949 -3.9767 255 0 0
8.22895 1.02965 -4.07503 255 0 0
8.08453 1.03105 -4.18379 255 0 0
8.84358 -0.283168 -3.82699 255 0 0
8.66654 -0.256931 -3.79028 255 0 0
8.77344 -0.228883 -3.81219 255 0 0
8.78853 -0.197992 -3.81515 255 0 0
8.71751 -0.165385 -3.80035 255 0 0
8.76463 -0.0727422 -3.80982 255 0 0
9.37637 0.0333474 -4.01747 255 0 0
8.72688 0.217306 -3.87829 255 0 0
8.67484 0.236592 -3.86721 255 0 0
10.1562 0.301094 -4.18621 255 0 0
10.2069 0.326823 -4.19729 255 0 0
8.74159 0.300651 -3.88199 255 0 0
8.51203 0.312964 -3.83272 255 0 0
8.63142 0.460905 -3.85982 255 0 0
8.62914 0.50183 -3.85982 255 0 0
10.2299 0.63144 -4.2053 255 0 0
10.2133 0.666884 -4.20222 255 0 0
9.25643 0.648498 -3.99653 255 0 0
8.99222 0.726484 -3.94111 255 0 0
8.96106 0.756048 -3.93495 255 0 0
8.82054 0.786334 -3.90539 255 0 0
10.205 0.982971 -4.20591 255 0 0
10.2141 1.00829 -4.20838 255 0 0
8.69701 0.93147 -3.88199 255 0 0
8.60369 0.993758 -3.86351 255 0 0
9.22891 0.635549 -4.07102 255 0 0
7.38407 -0.534918 -4.45323 255 0 0
10.0943 0.899886 -4.35744 255 0 0
8.27444 1.17515 -4.09114 255 0 0
7.30542 0.285946 -4.22192 255 0 0
8.62145 -0.29652 -3.85612 255 0 0
8.67107 -0.267372 -3.86659 255 0 0
8.61189 -0.234876 -3.85366 255 0 0
8.6067 -0.214314 -3.85243 255 0 0
9.36445 -0.0999183 -4.01501 255 0 0
9.41045 -0.0780949 -4.02486 255 0 0
9.39071 -0.0222689 -4.02055 255 0 0
9.13078 0.0108246 -4.04416 255 0 0
9.33595 0.0996143 -4.09021 255 0 0
10.2555 0.133746 -4.29616 255 0 0
10.2012 0.278222 -4.28465 255 0 0
10.183 0.313985 -4.28081 255 0 0
8.57147 0.294801 -3.92008 255 0 0
8.46225 0.311134 -3.89577 255 0 0
8.55855 0.334996 -3.91752 255 0 0
8.50065 0.352918 -3.90473 255 0 0
8.48266 0.37232 -3.90089 255 0 0
8.55499 0.41615 -3.91752 255 0 0
8.60534 0.439053 -3.92903 255 0 0
8.529 0.475718 -3.9124 255 0 0
10.222 0.594463 -4.29232 255 0 0
9.02713 0.653946 -4.02625 255 0 0
8.97347 0.682141 -4.01474 255 0 0
8.95788 0.734393 -4.01218 255 0 0
10.6541 0.949795 -4.39466 255 0 0
10.2706 0.940156 -4.30895 255 0 0
10.2182 1.0087 -4.29872 255 0 0
8.61189 0.932681 -3.93926 255 0 0
8.58464 0.970938 -3.93415 255 0 0
9.12682 -0.173146 -4.44597 255 0 0
7.47587 0.881444 -4.21959 255 0 0
7.21433 -0.539821 -4.53146 255 0 0
7.07868 -0.512795 -4.75148 255 0 0
7.4701 0.674875 -4.21159 255 0 0
10.0829 0.418609 -4.43609 255 0 0
7.34816 -0.174258 -4.23384 255 0 0
7.92452 0.131553 -4.19442 255 0 0
8.57646 -0.315333 -3.92136 255 0 0
8.51787 -0.272732 -3.90792 255 0 0
8.60191 -0.234603 -3.92647 255 0 0
8.58334 -0.173043 -3.922 255 0 0
8.58123 -0.132261 -3.92136 255 0 0
9.38737 -0.100163 -4.10172 255 0 0
9.15358 -0.032555 -4.04928 255 0 0
9.08507 -0.0107704 -4.03393 255 0 0
9.07067 0.0214898 -4.11002 255 0 0
9.03625 0.0642797 -4.10206 255 0 0
9.06734 0.0967482 -4.10936 255 0 0
10.2753 0.18274 -4.39061 255 0 0
10.2746 0.219263 -4.39061 255 0 0
10.2566 0.255398 -4.38663 255 0 0
10.2332 0.279094 -4.38132 255 0 0
10.2179 0.315043 -4.37801 255 0 0
10.2205 0.375782 -4.37911 255 0 0
9.09688 0.63732 -4.1213 255 0 0
8.97146 0.671293 -4.09278 255 0 0
8.95158 0.669812 -4.08813 255 0 0
8.93892 0.722168 -4.08614 255 0 0
10.1887 0.932655 -4.38 255 0 0
10.1671 0.979319 -4.37602 255 0 0
9.22727 0.977199 -4.15845 255 0 0
9.19657 0.996004 -4.15181 255 0 0
8.53665 0.945016 -3.99792 255 0 0
8.43266 1.02469 -3.97603 255 0 0
7.09481 0.86213 -4.23713 255 0 0
8.25815 -0.440972 -4.14241 255 0 0
8.20062 -0.486662 -4.20122 255 0 0
9.10579 0.0323851 -4.4399 255 0 0
7.30359 0.329244 -4.22192 255 0 0
7.17129 1.08794 -4.4035 255 0 0
8.47965 -0.331908 -3.97404 255 0 0
8.43482 -0.310125 -3.96343 255 0 0
8.44693 -0.290517 -3.96608 255 0 0
8.65972 -0.23618 -4.01517 255 0 0
10.1261 -0.228124 -4.35612 255 0 0
8.43918 -0.150086 -3.96343 255 0 0
8.48528 -0.120727 -3.97404 255 0 0
9.13626 -0.0216487 -4.12528 255 0 0
9.08128 0.0215285 -4.19221 255 0 0
10.0786 0.179243 -4.43334 255 0 0
10.1579 0.204745 -4.45258 255 0 0
10.1687 0.229085 -4.45533 255 0 0
10.1259 0.336243 -4.44571 255 0 0
8.29155 0.344236 -4.00328 255 0 0
10.1286 0.480657 -4.44777 255 0 0
9.99639 0.557564 -4.41686 255 0 0
9.22226 0.536323 -4.22999 255 0 0
9.0535 0.591152 -4.19015 255 0 0
9.04281 0.622763 -4.18809 255 0 0
9.06609 0.656768 -4.19427 255 0 0
9.04181 0.676563 -4.18877 255 0 0
8.92668 0.689236 -4.16129 255 0 0
9.10302 0.833276 -4.20664 255 0 0
9.19169 0.863374 -4.22862 255 0 0
9.20661 0.886802 -4.23274 255 0 0
9.17616 0.905833 -4.22587 255 0 0
10.1172 1.0472 -4.45533 255 0 0
9.17609 1.0158 -4.22862 255 0 0
9.13973 1.03372 -4.22038 255 0 0
8.36804 1.01684 -4.03489 255 0 0
8.32484 1.04165 -4.02527 255 0 0
8.36187 1.06642 -4.03489 255 0 0
7.02214 -0.283209 -4.26413 255 0 0
9.00389 1.06162 -4.4293 255 0 0
9.83635 0.268271 -4.54916 255 0 0
6.99522 0.858438 -4.33535 255 0 0
9.14938 0.162717 -4.28964 255 0 0
7.67391 -0.282149 -4.19504 255 0 0
7.11727 -0.227901 -4.22896 255 0 0
8.77972 0.636022 -4.28044 255 0 0
9.92838 -0.435775 -4.39899 255 0 0
8.34273 -0.346361 -4.01565 255 0 0
8.40186 -0.288967 -4.02939 255 0 0
8.44804 -0.270503 -4.04038 255 0 0
8.35302 -0.207997 -4.01702 255 0 0
10.1263 -0.216116 -4.44502 255 0 0
10.0445 -0.178636 -4.4251 255 0 0
10.1359 -0.156223 -4.44708 255 0 0
9.74977 -0.0809108 -4.35365 255 0 0
9.30029 -0.0551284 -4.24511 255 0 0
9.12395 -0.0324496 -4.20251 255 0 0
9.1281 0.0108214 -4.28395 255 0 0
9.09397 0.032343 -4.27542 255 0 0
9.12758 0.097391 -4.28395 255 0 0
9.23983 0.186241 -4.31238 255 0 0
9.36998 0.211091 -4.34507 255 0 0
10.0748 0.274752 -4.52177 255 0 0
10.0537 0.34578 -4.51704 255 0 0
10.0496 0.381422 -4.51633 255 0 0
10.0562 0.42944 -4.51846 255 0 0
10.0489 0.46494 -4.51704 255 0 0
10.0863 0.514613 -4.52699 255 0 0
9.38738 0.501272 -4.35217 255 0 0
9.12528 0.508977 -4.28679 255 0 0
9.06103 0.537719 -4.27116 255 0 0
8.95 0.584394 -4.24416 255 0 0
8.93011 0.6256 -4.23989 255 0 0
8.96874 0.681778 -4.25055 255 0 0
8.95039 0.733779 -4.247 255 0 0
8.93357 0.764399 -4.24345 255 0 0
9.00525 0.824326 -4.26263 255 0 0
9.12352 0.900636 -4.2939 255 0 0
10.0684 1.04214 -4.53267 255 0 0
9.93029 1.05165 -4.49856 255 0 0
9.11946 1.02047 -4.29603 255 0 0
8.30375 0.979071 -4.09208 255 0 0
8.31833 1.00079 -4.09635 255 0 0
8.27647 1.01567 -4.0864 255 0 0
8.23775 1.05059 -4.07787 255 0 0
8.31188 1.22068 -4.10203 255 0 0
8.28204 1.26647 -4.09635 255 0 0
8.31115 1.30121 -4.10487 255 0 0
8.24634 1.3111 -4.08924 255 0 0
7.66587 0.172687 -4.19182 255 0 0
7.07632 1.07353 -4.77476 255 0 0
8.02821 0.869468 -4.23583 255 0 0
7.9251 0.432614 -4.19755 255 0 0
7.31358 0.425332 -4.22646 255 0 0
9.62335 -0.44525 -4.41044 255 0 0
8.23974 -0.361658 -4.06366 255 0 0
8.2349 -0.341885 -4.06224 255 0 0
8.97014 -0.28722 -4.24558 255 0 0
8.28435 -0.225943 -4.07361 255 0 0
10.0401 -0.226187 -4.51277 255 0 0
9.27469 -0.142949 -4.3209 255 0 0
9.20684 -0.120069 -4.30385 255 0 0
9.25822 -0.0987849 -4.31664 255 0 0
9.13142 0.0324762 -4.36561 255 0 0
9.14541 0.0650561 -4.36928 255 0 0
9.16497 0.0977899 -4.37442 255 0 0
9.14024 0.216757 -4.36855 255 0 0
10.0453 0.297807 -4.60349 255 0 0
10.0429 0.369252 -4.60349 255 0 0
10.0519 0.429258 -4.60643 255 0 0
10.0423 0.51237 -4.60496 255 0 0
9.11283 0.486611 -4.36414 255 0 0
8.9855 0.576005 -4.33257 255 0 0
8.96926 0.607012 -4.3289 255 0 0
8.78223 0.67811 -4.28191 255 0 0
8.97676 0.832474 -4.33551 255 0 0
8.98578 0.887038 -4.33918 255 0 0
9.94311 1.05301 -4.59028 255 0 0
9.09369 1.05036 -4.37148 255 0 0
8.23244 1.02016 -4.14902 255 0 0
8.16973 1.04192 -4.1336 255 0 0
8.13351 1.0569 -4.12479 255 0 0
8.17594 1.08214 -4.13654 255 0 0
8.29715 1.15829 -4.17031 255 0 0
8.23534 1.22939 -4.1571 255 0 0
8.24921 1.25147 -4.1615 255 0 0
8.25742 1.27275 -4.16444 255 0 0
8.26372 1.32392 -4.16811 255 0 0
7.69405 -0.0273686 -4.19933 255 0 0
7.66677 0.127251 -4.19182 255 0 0
8.22103 1.22728 -4.22723 255 0 0
7.26144 -0.353226 -4.40902 255 0 0
7.09943 1.18059 -4.65339 255 0 0
8.37535 -0.646668 -4.17619 255 0 0
8.30623 -0.581928 -4.1571 255 0 0
8.27931 -0.560319 -4.14975 255 0 0
8.25972 -0.480346 -4.14339 255 0 0
9.25657 -0.450277 -4.40085 255 0 0
8.20445 -0.379601 -4.12773 255 0 0
8.13738 -0.357165 -4.11011 255 0 0
8.12121 -0.337165 -4.1057 255 0 0
8.24093 -0.322564 -4.13654 255 0 0
8.21404 -0.282508 -4.1292 255 0 0
9.25997 -0.186647 -4.39938 255 0 0
9.11355 -0.129659 -4.3612 255 0 0
9.11962 -0.0973061 -4.36267 255 0 0
9.08887 0.0107749 -4.43536 255 0 0
9.12117 0.173025 -4.44445 255 0 0
9.1407 0.227629 -4.45001 255 0 0
10.0166 0.332614 -4.68541 255 0 0
10.0186 0.427836 -4.68693 255 0 0
10.0091 0.510673 -4.68541 255 0 0
8.42535 0.469915 -4.26108 255 0 0
8.93547 0.562172 -4.39899 255 0 0
8.8156 0.575618 -4.36716 255 0 0
8.26617 0.569274 -4.22016 255 0 0
8.45025 0.612155 -4.27017 255 0 0
8.26266 0.618262 -4.22016 255 0 0
8.3965 0.648301 -4.25653 255 0 0
8.24176 0.734737 -4.21713 255 0 0
8.29262 0.798764 -4.23229 255 0 0
9.09121 0.940998 -4.449 255 0 0
8.12719 0.860697 -4.18985 255 0 0
8.08577 0.875701 -4.17924 255 0 0
8.19048 0.906694 -4.20804 255 0 0
8.45244 0.955986 -4.27926 255 0 0
9.02885 1.04287 -4.43536 255 0 0
8.31066 0.99987 -4.24289 255 0 0
8.16953 1.01238 -4.20576 255 0 0
8.10502 1.09231 -4.19137 255 0 0
8.26985 1.29475 -4.24289 255 0 0
8.59788 -0.47956 -4.38426 255 0 0
7.11715 0.025308 -4.2278 255 0 0
8.3747 -0.636645 -4.25047 255 0 0
8.30359 -0.60153 -4.23077 255 0 0
8.28028 -0.570242 -4.22395 255 0 0
8.25686 -0.539135 -4.21713 255 0 0
8.22425 -0.517426 -4.20804 255 0 0
8.36325 -0.466473 -4.24441 255 0 0
8.94605 -0.477705 -4.4005 255 0 0
8.06695 -0.39241 -4.16409 255 0 0
8.15995 -0.338773 -4.18834 255 0 0
9.04883 -0.332701 -4.42627 255 0 0
9.58733 -0.306983 -4.57023 255 0 0
9.25003 -0.230333 -4.47931 255 0 0
9.16008 -0.206362 -4.45506 255 0 0
9.07754 -0.021523 -4.43233 255 0 0
7.95094 0.0282778 -4.20145 255 0 0
7.97895 0.0662152 -4.20926 255 0 0
7.92234 0.0845311 -4.19364 255 0 0
7.92076 0.178469 -4.19364 255 0 0
7.91112 0.225153 -4.1913 255 0 0
7.91809 0.272329 -4.19364 255 0 0
7.92723 0.329111 -4.19677 255 0 0
7.91952 0.375834 -4.1952 255 0 0
7.8947 0.515488 -4.19052 255 0 0
7.90755 0.648284 -4.19677 255 0 0
7.92286 0.668454 -4.20145 255 0 0
7.97127 0.729657 -4.2163 255 0 0
7.94805 0.822673 -4.21239 255 0 0
7.93545 0.983351 -4.21395 255 0 0
7.90952 1.00873 -4.2077 255 0 0
7.93612 1.10789 -4.21864 255 0 0
8.20162 1.20449 -4.2952 255 0 0
8.26276 1.25352 -4.31395 255 0 0
8.22631 1.26795 -4.30457 255 0 0
7.13004 -0.363782 -4.30004 255 0 0
7.14123 1.1007 -4.39429 255 0 0
10.4356 -0.259854 -4.51991 255 0 0
7.46762 0.638959 -4.20993 255 0 0
7.15183 0.989758 -4.39245 255 0 0
8.39586 -0.548211 -4.32957 255 0 0
8.42653 -0.510097 -4.33738 255 0 0
8.94036 -0.519929 -4.47956 255 0 0
8.13129 -0.434198 -4.25457 255 0 0
7.84342 -0.372226 -4.17411 255 0 0
7.84752 -0.344443 -4.17489 255 0 0
7.89342 -0.327708 -4.18739 255 0 0
7.91744 -0.291103 -4.19364 255 0 0
7.93726 -0.197644 -4.19833 255 0 0
7.95504 -0.160344 -4.20301 255 0 0
7.94722 -0.122496 -4.20067 255 0 0
8.00085 -0.123315 -4.21551 255 0 0
7.94252 -0.0188285 -4.19911 255 0 0
7.69029 0.0273508 -4.19826 255 0 0
7.67292 0.0909673 -4.19343 255 0 0
7.66821 0.227325 -4.19289 255 0 0
7.66154 0.427334 -4.19343 255 0 0
7.66905 0.519013 -4.19719 255 0 0
7.71109 0.798147 -4.21596 255 0 0
7.69756 0.870608 -4.21435 255 0 0
7.68745 0.924881 -4.21328 255 0 0
7.65091 0.97575 -4.2047 255 0 0
7.6374 0.992437 -4.20148 255 0 0
7.64131 1.04827 -4.2047 255 0 0
7.67225 1.07105 -4.21435 255 0 0
7.73101 1.09795 -4.23205 255 0 0
7.09454 -0.530857 -4.69033 255 0 0
8.36869 -0.486683 -4.3962 255 0 0
7.65788 -0.390712 -4.19182 255 0 0
7.66442 -0.309089 -4.19263 255 0 0
7.70197 -0.22834 -4.20255 255 0 0
7.70507 -0.182723 -4.20309 255 0 0
7.70603 -0.137048 -4.20309 255 0 0
7.70096 -0.100431 -4.20148 255 0 0
7.46957 0.0265658 -4.20248 255 0 0
7.45752 0.114941 -4.19917 255 0 0
7.44072 0.423867 -4.19751 255 0 0
7.44794 0.530667 -4.20165 255 0 0
7.45728 0.593573 -4.20579 255 0 0
7.45026 0.610794 -4.20414 255 0 0
7.48951 0.766242 -4.21987 255 0 0
7.49027 0.838171 -4.22235 255 0 0
7.46419 0.915988 -4.21739 255 0 0
7.4358 0.939357 -4.20993 255 0 0
7.44111 1.02081 -4.21463 255 0 0
7.47327 1.06134 -4.22567 255 0 0
7.36081 -0.0959946 -4.23724 255 0 0
7.09316 0.57305 -4.22751 255 0 0
8.13992 -0.492747 -4.40451 255 0 0
7.60945 -0.424429 -4.24719 255 0 0
7.48 -0.372764 -4.20828 255 0 0
7.43758 -0.317632 -4.19503 255 0 0
7.43652 -0.273398 -4.1942 255 0 0
7.4958 -0.168869 -4.21076 255 0 0
7.48359 -0.035491 -4.20662 255 0 0
7.33896 0.0261013 -4.23043 255 0 0
7.3329 0.0869361 -4.22873 255 0 0
7.31314 0.225479 -4.22362 255 0 0
7.3141 0.477586 -4.22759 255 0 0
7.30431 0.511734 -4.22532 255 0 0
7.322 0.539158 -4.23128 255 0 0
7.32494 0.574318 -4.23299 255 0 0
7.36204 0.726757 -4.24831 255 0 0
7.37062 0.780573 -4.25257 255 0 0
7.35392 0.778805 -4.24746 255 0 0
7.36117 0.832562 -4.25143 255 0 0
7.31885 0.977531 -4.24405 255 0 0
7.34622 1.02554 -4.25427 255 0 0
7.37454 1.06517 -4.26449 255 0 0
7.45252 1.11253 -4.29002 255 0 0
7.84009 -0.474597 -4.38707 255 0 0
7.6007 -0.44202 -4.31386 255 0 0
7.36306 -0.375671 -4.24065 255 0 0
7.33941 -0.322154 -4.2327 255 0 0
7.32254 -0.27793 -4.22703 255 0 0
7.33018 -0.2173 -4.22873 255 0 0
7.35581 -0.0174407 -4.23554 255 0 0
7.11308 0.0758963 -4.22663 255 0 0
7.08706 0.176473 -4.21905 255 0 0
7.08376 0.226819 -4.21847 255 0 0
7.08168 0.327658 -4.21905 255 0 0
7.08103 0.37812 -4.21964 255 0 0
7.0763 0.428357 -4.21905 255 0 0
7.08422 0.479434 -4.22255 255 0 0
7.105 0.599451 -4.23188 255 0 0
7.10004 0.624468 -4.23101 255 0 0
7.10812 0.659161 -4.2345 255 0 0
7.12 0.719912 -4.24004 255 0 0
7.12396 0.771541 -4.24296 255 0 0
7.12015 0.82239 -4.24354 255 0 0
7.11327 0.924342 -4.24529 255 0 0
7.14239 1.01435 -4.25812 255 0 0
7.18047 1.06325 -4.27211 255 0 0
7.27057 1.103 -4.30185 255 0 0
7.4778 1.15258 -4.36831 255 0 0
7.61859 1.19278 -4.41379 255 0 0
7.07082 -0.318771 -4.28029 255 0 0
7.35148 -0.445019 -4.30534 255 0 0
7.22191 -0.411418 -4.26424 255 0 0
7.13455 -0.313149 -4.23538 255 0 0
7.13036 -0.279108 -4.23363 255 0 0
7.11313 -0.177105 -4.22722 255 0 0
7.12724 -0.126754 -4.2313 255 0 0
7.12796 -0.0760507 -4.2313 255 0 0
7.12646 -0.0253278 -4.23071 255 0 0
7.17426 1.08839 -4.33775 255 0 0
7.38651 1.1744 -4.40957 255 0 0
7.4375 -0.538789 -4.40238 255 0 0
7.44988 -0.521932 -4.40597 255 0 0
7.40105 -0.50088 -4.38982 255 0 0
7.29209 -0.45878 -4.35391 255 0 0
7.25978 -0.439468 -4.34313 255 0 0
7.17735 -0.4174 -4.3162 255 0 0
7.15606 -0.39914 -4.30902 255 0 0
7.13645 -0.347146 -4.30184 255 0 0
7.12855 0.926341 -4.38201 255 0 0
7.24293 1.13397 -4.42928 255 0 0
7.29511 1.15987 -4.4477 255 0 0
7.0847 0.877951 -4.4316 255 0 0
7.27896 -0.483966 -4.41731 255 0 0
7.17247 -0.451253 -4.3814 255 0 0
7.1755 -0.400224 -4.3814 255 0 0
7.21228 -0.333696 -4.39245 255 0 0
7.17418 -0.314889 -4.37955 255 0 0
7.03349 -0.208517 -4.33167 255 0 0
7.10903 0.906643 -4.44104 255 0 0
7.05904 0.92579 -4.425 255 0 0
7.16832 0.96607 -4.4637 255 0 0
7.02323 0.963477 -4.41461 255 0 0
7.12523 0.994687 -4.45048 255 0 0
7.1009 1.00846 -4.44293 255 0 0
7.14539 1.04937 -4.45992 255 0 0
7.06362 1.0716 -4.43349 255 0 0
6.99532 1.07822 -4.41084 255 0 0
7.00917 1.09737 -4.4165 255 0 0
7.25826 1.18932 -4.50523 255 0 0
7.29034 -0.545508 -4.49013 255 0 0
7.22035 -0.514474 -4.46559 255 0 0
7.18343 -0.486153 -4.45237 255 0 0
7.06289 -0.461174 -4.41084 255 0 0
7.06273 -0.41914 -4.40989 255 0 0
7.05034 -0.393244 -4.40517 255 0 0
7.17391 -0.36602 -4.44671 255 0 0
7.09881 -0.31158 -4.42028 255 0 0
7.13275 -0.296127 -4.4316 255 0 0
7.04514 -0.267394 -4.4014 255 0 0
7.09275 -0.227116 -4.41713 255 0 0
7.05313 -0.192363 -4.40328 255 0 0
7.14475 1.17072 -4.5334 255 0 0
7.1715 -0.519519 -4.51599 255 0 0
7.16688 -0.519185 -4.5816 255 0 0
7.1516 -0.501035 -4.57566 255 0 0
7.09044 -0.513647 -4.62098 255 0 0
7.05327 -0.494147 -4.6068 255 0 0
7.00325 1.04546 -4.74513 255 0 0
7.01979 1.08199 -4.75359 255 0 0
7.02801 1.16871 -4.76206 255 0 0
7.04337 -0.426374 -4.7356 255 0 0
7.05351 -0.39342 -4.73878 255 0 0
10.6907 0.953054 -4.30937 255 0 0
10.5858 0.969007 -4.2872 255 0 0
10.6437 -0.164049 -4.38315 255 0 0
10.2753 -0.18274 -4.39061 255 0 0
