ply
format ascii 1.0
comment Created by Open3D
element vertex 491
property double x
property double y
property double z
property uchar red
property uchar green
property uchar blue
end_header
-18.0144 20.7039 -2.79854 255 0 0
-20.7578 19.8196 -3.07389 255 0 0
-19.0494 19.4372 -1.43444 255 0 0
-19.0073 19.4865 -2.56568 255 0 0
-19.1572 19.4547 -2.79445 255 0 0
-19.3442 19.0936 -1.88705 255 0 0
-19.4925 19.1489 -1.65934 255 0 0
-19.1859 19.2086 -2.33847 255 0 0
-17.5096 21.1145 -1.65802 255 0 0
-19.6245 18.7375 -2.11275 255 0 0
-18.2457 20.28 -2.11336 255 0 0
-18.2839 20.3225 -3.02288 255 0 0
-20.6374 19.9871 -3.07498 255 0 0
-18.0543 20.5522 -1.43152 255 0 0
-17.7188 21.1617 -3.03273 255 0 0
-20.8728 19.7411 -3.07498 255 0 0
-17.7258 20.8667 -1.88622 255 0 0
-19.6944 18.7152 -1.8871 255 0 0
-18.2552 20.3876 -3.02397 255 0 0
-18.0623 20.6599 -3.02682 255 0 0
-17.9759 20.6596 -1.43091 255 0 0
-19.9809 18.7188 -1.43104 255 0 0
-19.1787 19.2928 -2.11305 255 0 0
-17.8987 20.6697 -1.65912 255 0 0
-18.5839 19.9788 -2.56702 255 0 0
-18.5087 20.0882 -2.56763 255 0 0
-19.5745 18.7787 -1.66182 255 0 0
-18.3252 20.2716 -2.56787 255 0 0
-17.0944 22.065 -1.88401 255 0 0
-19.6225 18.8247 -1.43493 255 0 0
-17.1495 21.7077 -3.03514 255 0 0
-17.7866 20.838 -1.88615 255 0 0
-20.7567 20.1027 -2.60047 255 0 0
-17.9399 20.6183 -1.65926 255 0 0
-18.1923 20.4145 -2.56823 255 0 0
-17.3923 21.5909 -2.11521 255 0 0
-18.4677 20.0437 -2.33979 255 0 0
-19.3324 19.2637 -1.43286 255 0 0
-18.2327 20.2655 -1.66014 255 0 0
-19.3224 19.3453 -1.65912 255 0 0
-17.4868 21.189 -1.88583 255 0 0
-17.1497 21.6025 -2.34388 255 0 0
-18.2601 20.296 -2.34037 255 0 0
-18.3803 20.1396 -2.33993 255 0 0
-19.3574 19.1974 -2.79326 255 0 0
-19.0123 19.3994 -1.88712 255 0 0
-17.8081 20.7632 -1.65897 255 0 0
-17.2748 21.445 -1.88557 255 0 0
-18.2693 20.3062 -1.43237 255 0 0
-18.1975 20.3232 -2.11336 255 0 0
-17.1936 21.5526 -1.65627 255 0 0
-18.6812 19.7991 -1.88688 255 0 0
-18.9691 19.4473 -1.66131 255 0 0
-18.8559 19.6084 -1.88695 255 0 0
-17.8007 20.9549 -3.02879 255 0 0
-18.3095 20.2542 -1.43262 255 0 0
-17.1251 21.6769 -2.57407 255 0 0
-19.5215 18.8169 -1.66196 255 0 0
-18.8708 19.6239 -2.33942 255 0 0
-18.068 20.4697 -1.88654 255 0 0
-18.0758 20.4785 -2.11351 255 0 0
-18.5951 19.896 -1.88683 255 0 0
-17.1582 21.6132 -2.11468 255 0 0
-19.0305 19.6031 -2.79496 255 0 0
-18.6289 19.8377 -1.66072 255 0 0
-17.1469 21.7044 -1.4252 255 0 0
-19.5736 18.8671 -1.43505 255 0 0
-18.7959 19.639 -1.66109 255 0 0
-17.7549 20.901 -2.34191 255 0 0
-17.1131 21.9813 -2.34731 255 0 0
-19.72 18.7395 -1.43469 255 0 0
-19.4671 18.9434 -2.56446 255 0 0
-18.5446 20.1271 -2.79632 255 0 0
-18.9269 19.5891 -2.56604 255 0 0
-19.0069 19.3939 -1.66145 255 0 0
-18.4561 20.1266 -3.02178 255 0 0
-18.9977 19.4766 -2.3392 255 0 0
-17.3849 21.2702 -1.65751 255 0 0
-19.6655 18.7767 -2.33899 255 0 0
-17.0837 22.0512 -2.57967 255 0 0
-18.4082 20.0744 -1.66043 255 0 0
-19.3308 19.171 -2.33942 255 0 0
-18.0325 20.6258 -2.56933 255 0 0
-17.3455 21.325 -1.65729 255 0 0
-17.2959 21.5758 -2.34475 255 0 0
-18.7564 19.7847 -2.56653 255 0 0
-17.1061 21.9723 -3.04192 255 0 0
-18.5679 19.9617 -1.43347 255 0 0
-18.7168 19.7899 -1.43396 255 0 0
-18.4529 20.2192 -2.79649 255 0 0
-17.9745 20.6581 -2.34139 255 0 0
-18.4611 20.1321 -2.56763 255 0 0
-19.3196 19.16 -2.11307 255 0 0
-18.6784 19.8905 -2.56702 255 0 0
-17.352 21.5408 -2.5748 255 0 0
-18.6312 19.9347 -2.56702 255 0 0
-17.5907 21.0088 -1.65839 255 0 0
-19.6232 18.7362 -1.66174 255 0 0
-18.5285 20.0142 -1.43323 255 0 0
-17.4021 21.3946 -2.1146 255 0 0
-19.1903 19.3043 -3.0185 255 0 0
-19.4206 18.988 -1.66138 255 0 0
-17.1251 21.9967 -2.11584 255 0 0
-17.7217 20.9625 -1.42958 255 0 0
-18.3416 20.1932 -1.88664 255 0 0
-18.0094 20.5993 -1.4314 255 0 0
-17.6304 20.955 -1.8862 255 0 0
-18.5399 19.9315 -1.88688 255 0 0
-19.5674 18.7719 -2.11268 255 0 0
-17.8623 20.7268 -1.8863 255 0 0
-17.1875 21.545 -1.88547 255 0 0
-18.9487 19.5188 -1.88695 255 0 0
-19.4797 18.9556 -1.43517 255 0 0
-18.9611 19.5315 -1.43432 255 0 0
-19.303 19.1435 -1.88703 255 0 0
-19.172 19.4698 -2.34066 255 0 0
-17.1051 21.8638 -2.11536 255 0 0
-17.537 21.1475 -2.11417 255 0 0
-19.2783 19.2099 -2.1131 255 0 0
-17.9307 20.7066 -2.56921 255 0 0
-19.7429 18.6724 -2.11292 255 0 0
-17.1072 21.9737 -2.5787 255 0 0
-18.2236 20.3523 -2.34059 255 0 0
-18.3896 20.1498 -1.4331 255 0 0
-17.2166 21.4767 -2.11438 255 0 0
-17.3507 21.5392 -2.34482 255 0 0
-18.2054 20.3319 -1.88659 255 0 0
-17.2095 21.5725 -2.57347 255 0 0
-19.0032 19.4823 -1.43444 255 0 0
-17.1791 21.6395 -3.03382 255 0 0
-19.7514 18.6805 -1.88703 255 0 0
-18.1282 20.4399 -1.88647 255 0 0
-18.4873 19.9697 -1.66072 255 0 0
-18.0861 20.4902 -2.34074 255 0 0
-18.7144 20.1191 -3.02813 255 0 0
-17.76 20.907 -2.57006 255 0 0
-17.4427 21.238 -1.65736 255 0 0
-18.6986 19.9119 -2.79479 255 0 0
-17.9114 20.6844 -1.8863 255 0 0
-17.6171 21.1418 -2.11436 255 0 0
-18.3606 20.118 -1.66043 255 0 0
-17.774 20.8232 -1.65868 255 0 0
-17.3631 21.5546 -2.80535 255 0 0
-17.2377 21.6078 -3.03426 255 0 0
-19.4439 19.1011 -2.56641 255 0 0
-17.1729 21.6317 -2.80365 255 0 0
-18.5778 19.8776 -1.6608 255 0 0
-18.2001 20.4232 -1.43152 255 0 0
-18.3685 20.3195 -2.79701 255 0 0
-18.7106 19.7364 -1.66094 255 0 0
-19.187 19.3011 -1.8869 255 0 0
-19.4546 19.0212 -3.01806 255 0 0
-18.3404 20.1918 -2.34008 255 0 0
-18.3338 20.1846 -2.11331 255 0 0
-19.4556 19.0222 -2.56544 255 0 0
-19.5914 18.7949 -2.33847 255 0 0
-17.8573 20.7209 -1.65897 255 0 0
-17.1311 21.6845 -1.65547 255 0 0
-17.9718 20.7541 -3.02725 255 0 0
-17.7981 20.8515 -1.43031 255 0 0
-19.5467 19.0208 -1.88666 255 0 0
-17.7053 20.943 -2.34191 255 0 0
-18.7968 19.8273 -2.79496 255 0 0
-17.8207 20.778 -1.88625 255 0 0
-18.2807 20.2222 -1.66014 255 0 0
-17.4527 21.4567 -2.34482 255 0 0
-17.8095 20.8648 -2.57006 255 0 0
-17.5595 21.1746 -1.42836 255 0 0
-17.5909 21.1105 -1.42897 255 0 0
-17.7334 20.8756 -2.11383 255 0 0
-18.9374 19.6931 -2.79496 255 0 0
-19.4109 19.1594 -2.11334 255 0 0
-19.5425 18.8372 -2.3384 255 0 0
-18.8338 19.6786 -1.43396 255 0 0
-18.4556 20.2222 -3.02441 255 0 0
-17.3911 21.3811 -1.42726 255 0 0
-17.859 20.8225 -1.42994 255 0 0
-17.9307 20.7066 -1.43079 255 0 0
-19.4012 18.969 -1.43615 255 0 0
-19.3102 19.2416 -2.33986 255 0 0
-17.6808 21.2183 -1.88523 255 0 0
-19.4344 19.0919 -3.01937 255 0 0
-18.0221 20.5154 -1.65955 255 0 0
-19.6803 18.7018 -1.66153 255 0 0
-17.2826 21.5591 -1.4258 255 0 0
-17.5484 21.0594 -1.65824 255 0 0
-17.1125 21.7667 -3.03601 255 0 0
-17.2736 21.4435 -1.65671 255 0 0
-19.4194 18.897 -1.66218 255 0 0
-18.7776 19.7132 -2.33942 255 0 0
-19.8299 18.6658 -1.43408 255 0 0
-19.1665 19.2805 -1.43505 255 0 0
-17.607 21.0282 -1.88603 255 0 0
-17.1411 22.1253 -2.81438 255 0 0
-19.3467 19.4617 -1.65788 255 0 0
-18.0466 20.5434 -2.56823 255 0 0
-18.5346 19.9258 -1.66072 255 0 0
-18.8861 19.5468 -2.11295 255 0 0
-19.7671 18.6953 -2.3392 255 0 0
-18.2289 20.3582 -1.43213 255 0 0
-17.6297 21.0552 -1.42933 255 0 0
-17.8968 20.7668 -1.43031 255 0 0
-17.7322 20.8742 -1.65853 255 0 0
-18.103 20.5093 -1.43152 255 0 0
-18.1661 20.4827 -3.02441 255 0 0
-18.7992 19.7359 -1.43359 255 0 0
-17.6367 20.9625 -1.65846 255 0 0
-17.3515 21.4359 -1.4269 255 0 0
-17.5204 21.2298 -1.42799 255 0 0
-18.473 20.0495 -1.43347 255 0 0
-17.8515 20.9139 -2.80007 255 0 0
-17.0927 21.9551 -1.88437 255 0 0
-18.4413 20.1105 -1.43298 255 0 0
-18.5124 19.9969 -1.88676 255 0 0
-18.1069 20.5137 -2.5686 255 0 0
-17.3661 22.3062 -1.41254 255 0 0
-17.2242 22.016 -1.41911 255 0 0
-17.1714 21.8417 -1.42264 255 0 0
-17.2238 21.6958 -1.42434 255 0 0
-17.2606 21.6366 -1.42483 255 0 0
-17.3263 21.5089 -1.42605 255 0 0
-17.4381 21.3353 -1.42739 255 0 0
-17.4663 21.2667 -1.42812 255 0 0
-17.672 21.0044 -1.42958 255 0 0
-17.7676 20.9159 -1.4297 255 0 0
-18.1594 20.4751 -1.43128 255 0 0
-18.3536 20.2064 -1.43274 255 0 0
-18.6072 19.909 -1.43371 255 0 0
-18.6503 19.8606 -1.43383 255 0 0
-18.8885 19.6423 -1.43371 255 0 0
-18.9188 19.5806 -1.4342 255 0 0
-19.0831 19.3795 -1.43481 255 0 0
-19.1331 19.3383 -1.43469 255 0 0
-19.2329 19.2557 -1.43444 255 0 0
-19.3531 19.1931 -1.43359 255 0 0
-19.3693 19.1184 -1.43444 255 0 0
-19.3687 19.0273 -1.43578 255 0 0
-19.5246 18.9094 -1.43517 255 0 0
-19.667 18.7781 -1.43493 255 0 0
-19.7686 18.6967 -1.43456 255 0 0
-19.216 19.3303 -2.56641 255 0 0
-19.7901 18.6283 -1.66116 255 0 0
-18.8424 19.5944 -1.66109 255 0 0
-19.1446 19.4419 -1.88661 255 0 0
-18.5484 20.0357 -2.56738 255 0 0
-19.2244 19.3387 -2.79343 255 0 0
-18.6718 19.7892 -1.6608 255 0 0
-17.5573 21.0701 -2.79803 255 0 0
-19.5454 18.9296 -2.11307 255 0 0
-18.3635 20.3138 -3.02463 255 0 0
-17.241 21.5072 -1.65634 255 0 0
-17.3668 21.6642 -2.8079 255 0 0
-17.9081 21.2851 -2.3468 255 0 0
-18.4518 20.0264 -1.6605 255 0 0
-19.1207 19.3259 -2.56495 255 0 0
-17.4261 22.3832 -1.64634 255 0 0
-17.2482 22.0467 -1.65101 255 0 0
-17.181 21.8539 -1.65342 255 0 0
-17.1461 21.5979 -1.6562 255 0 0
-17.306 21.3797 -1.65707 255 0 0
-17.4707 21.1695 -1.6578 255 0 0
-17.6751 20.9072 -1.65868 255 0 0
-17.9811 20.5669 -1.65941 255 0 0
-18.0706 20.4726 -1.65955 255 0 0
-18.1075 20.4166 -1.65977 255 0 0
-18.1558 20.3736 -1.65977 255 0 0
-18.1924 20.3174 -1.65999 255 0 0
-18.3207 20.1702 -1.66028 255 0 0
-18.7574 19.692 -1.66094 255 0 0
-18.8807 19.5412 -1.66123 255 0 0
-18.927 19.4964 -1.66123 255 0 0
-19.0405 19.3363 -1.66167 255 0 0
-19.1152 19.3202 -1.66116 255 0 0
-19.2977 19.2292 -1.66036 255 0 0
-19.3183 19.1587 -1.6608 255 0 0
-19.3887 19.1375 -1.66036 255 0 0
-19.4768 18.8631 -1.66196 255 0 0
-19.7416 18.6711 -1.66123 255 0 0
-19.9153 18.6574 -1.65977 255 0 0
-19.5397 18.8345 -1.88722 255 0 0
-18.3003 20.244 -2.34023 255 0 0
-18.1386 20.4516 -2.34081 255 0 0
-18.2937 20.2367 -1.88664 255 0 0
-18.461 20.0364 -2.11322 255 0 0
-18.1867 20.5059 -2.79752 255 0 0
-17.87 20.7357 -2.11375 255 0 0
-19.2816 19.2131 -3.0185 255 0 0
-18.123 21.5405 -3.05331 255 0 0
-18.1649 20.3838 -2.11346 255 0 0
-20.8133 19.7784 -3.07433 255 0 0
-19.4471 19.0139 -1.88698 255 0 0
-17.6801 20.9131 -2.1138 255 0 0
-17.5323 21.1419 -3.02769 255 0 0
-17.7748 21.0252 -2.80109 255 0 0
-17.0979 21.8546 -1.88469 255 0 0
-17.0845 21.7311 -1.88513 255 0 0
-17.1287 21.6814 -1.88518 255 0 0
-17.1582 21.6132 -1.88532 255 0 0
-17.2385 21.5041 -1.88547 255 0 0
-17.4214 21.5223 -1.88493 255 0 0
-17.4243 21.4219 -1.88525 255 0 0
-17.4528 21.3533 -1.8854 255 0 0
-17.4737 21.2757 -1.88559 255 0 0
-17.6753 21.3142 -1.88493 255 0 0
-17.6801 20.9131 -1.8862 255 0 0
-17.945 20.6242 -1.88639 255 0 0
-17.9939 20.5816 -1.88639 255 0 0
-18.0426 20.5388 -1.88639 255 0 0
-18.1727 20.3925 -1.88649 255 0 0
-18.2613 20.2974 -1.88654 255 0 0
-18.3816 20.141 -1.88669 255 0 0
-18.4174 20.0845 -1.88676 255 0 0
-18.4769 20.0536 -1.88669 255 0 0
-18.6462 19.8562 -1.88681 255 0 0
-18.7281 19.7548 -1.88688 255 0 0
-18.7587 19.6934 -1.88698 255 0 0
-18.8094 19.6531 -1.88695 255 0 0
-18.8902 19.551 -1.88703 255 0 0
-18.9786 19.457 -1.88705 255 0 0
-19.1618 19.3673 -1.88678 255 0 0
-19.212 19.2348 -1.88703 255 0 0
-19.3198 19.2512 -1.88666 255 0 0
-19.3769 19.0353 -1.88712 255 0 0
-19.4908 18.8767 -1.88725 255 0 0
-19.5843 18.7881 -1.88722 255 0 0
-19.6457 18.7578 -1.88712 255 0 0
-19.8213 18.6577 -1.88688 255 0 0
-19.9167 18.6587 -1.88659 255 0 0
-19.1231 19.5125 -2.56775 255 0 0
-18.8013 19.6446 -2.113 255 0 0
-18.243 20.4714 -2.79786 255 0 0
-18.3203 20.363 -2.79701 255 0 0
-18.1151 20.6214 -3.02704 255 0 0
-17.159 22.1483 -2.11643 255 0 0
-17.1062 21.7587 -2.11502 255 0 0
-17.1178 21.6676 -2.11475 255 0 0
-17.1875 21.545 -2.11453 255 0 0
-17.3808 21.4722 -2.1148 255 0 0
-17.4417 21.3397 -2.11453 255 0 0
-17.4737 21.2757 -2.11441 255 0 0
-17.5017 21.2071 -2.11426 255 0 0
-17.7574 21.2077 -2.11494 255 0 0
-17.6719 21.0043 -2.11407 255 0 0
-17.779 20.8291 -2.1138 255 0 0
-17.8207 20.778 -2.11375 255 0 0
-17.8961 20.6667 -2.11361 255 0 0
-17.9489 20.6286 -2.11363 255 0 0
-17.99 20.5772 -2.11358 255 0 0
-18.0349 20.5301 -2.11356 255 0 0
-18.1204 20.4312 -2.11348 255 0 0
-18.2937 20.2367 -2.11336 255 0 0
-18.3776 20.1367 -2.11329 255 0 0
-18.4214 20.0888 -2.11327 255 0 0
-18.5085 19.9926 -2.11322 255 0 0
-18.5478 19.9401 -2.11317 255 0 0
-18.5911 19.8918 -2.11314 255 0 0
-18.6261 19.8348 -2.11307 255 0 0
-18.6731 19.7906 -2.11307 255 0 0
-18.716 19.742 -2.11305 255 0 0
-18.7627 19.6976 -2.11305 255 0 0
-18.8397 19.5915 -2.11295 255 0 0
-18.9283 19.4978 -2.11292 255 0 0
-18.9745 19.4528 -2.11292 255 0 0
-19.0164 19.4036 -2.1129 255 0 0
-19.2391 19.5379 -2.11395 255 0 0
-19.1 19.3049 -2.11285 255 0 0
-19.2865 19.3094 -2.11341 255 0 0
-19.3936 19.0517 -2.11297 255 0 0
-19.4261 18.9934 -2.1129 255 0 0
-19.4921 18.9677 -2.11302 255 0 0
-19.5228 18.8182 -2.11268 255 0 0
-19.6859 18.7071 -2.11285 255 0 0
-19.7914 18.6296 -2.11295 255 0 0
-19.9039 18.6467 -2.11334 255 0 0
-17.116 21.8778 -2.80825 255 0 0
-19.6967 18.8064 -2.56592 255 0 0
-19.5946 18.8874 -2.56556 255 0 0
-17.4516 21.3518 -2.3438 255 0 0
-19.2909 19.2224 -2.56592 255 0 0
-17.1972 22.1977 -2.35008 255 0 0
-17.0822 21.8346 -2.34563 255 0 0
-17.1159 21.771 -2.34526 255 0 0
-17.1166 21.6661 -2.34424 255 0 0
-17.1827 21.5389 -2.34351 255 0 0
-17.3686 21.4571 -2.34417 255 0 0
-17.4799 21.2832 -2.34337 255 0 0
-17.5788 21.3004 -2.34431 255 0 0
-17.4984 21.101 -2.34176 255 0 0
-17.5484 21.0594 -2.34176 255 0 0
-17.6396 21.0671 -2.34256 255 0 0
-17.7968 20.8499 -2.34176 255 0 0
-17.8386 20.7987 -2.34161 255 0 0
-17.884 20.752 -2.34154 255 0 0
-17.937 20.7139 -2.34161 255 0 0
-18.0119 20.6022 -2.34118 255 0 0
-18.0491 20.5462 -2.34096 255 0 0
-18.1753 20.3955 -2.34059 255 0 0
-18.428 20.096 -2.33993 255 0 0
-18.5151 19.9998 -2.33979 255 0 0
-18.5625 19.9559 -2.33979 255 0 0
-18.6098 19.9118 -2.33979 255 0 0
-18.6329 19.842 -2.33935 255 0 0
-18.6799 19.7978 -2.33935 255 0 0
-18.7308 19.7577 -2.33942 255 0 0
-18.8243 19.6686 -2.33942 255 0 0
-18.9173 19.5791 -2.33942 255 0 0
-18.9637 19.5342 -2.33942 255 0 0
-19.0438 19.4315 -2.3392 255 0 0
-19.144 19.3493 -2.33935 255 0 0
-19.2187 19.333 -2.33986 255 0 0
-19.3845 19.1334 -2.33957 255 0 0
-19.4424 19.0997 -2.33979 255 0 0
-19.4248 18.9921 -2.33869 255 0 0
-19.4488 18.9256 -2.33833 255 0 0
-19.7628 19.1401 -2.343 255 0 0
-19.71 18.73 -2.33899 255 0 0
-19.8071 18.6443 -2.33913 255 0 0
-19.8897 18.6334 -2.33979 255 0 0
-17.718 20.958 -2.5703 255 0 0
-17.4609 21.7815 -3.04455 255 0 0
-18.0248 20.7159 -3.02747 255 0 0
-17.0943 21.85 -2.57651 255 0 0
-17.0954 21.745 -2.5748 255 0 0
-17.1656 21.6224 -2.57371 255 0 0
-17.3704 21.6687 -2.57711 255 0 0
-17.4178 21.5178 -2.57529 255 0 0
-17.4096 21.4038 -2.57334 255 0 0
-17.4455 21.3443 -2.57286 255 0 0
-17.4775 21.2803 -2.57225 255 0 0
-17.5279 21.2388 -2.57225 255 0 0
-17.5184 21.1251 -2.5703 255 0 0
-17.5497 21.061 -2.56969 255 0 0
-17.6672 21.1001 -2.57188 255 0 0
-17.981 21.3717 -2.5804 255 0 0
-17.8475 20.8092 -2.56969 255 0 0
-17.8854 20.7535 -2.56933 255 0 0
-17.972 20.6552 -2.56896 255 0 0
-18.1594 20.4751 -2.56872 255 0 0
-18.2406 20.3713 -2.56823 255 0 0
-18.285 20.3237 -2.56811 255 0 0
-18.3851 20.2411 -2.56823 255 0 0
-18.4133 20.1758 -2.56763 255 0 0
-18.7215 19.8419 -2.5669 255 0 0
-18.7952 19.7317 -2.56629 255 0 0
-18.8419 19.6871 -2.56629 255 0 0
-18.8885 19.6423 -2.56629 255 0 0
-18.9692 19.5399 -2.56592 255 0 0
-19.0954 19.392 -2.56556 255 0 0
-19.2494 19.2722 -2.56604 255 0 0
-19.3364 19.1766 -2.56592 255 0 0
-19.386 19.1348 -2.56604 255 0 0
-19.6182 18.8206 -2.56495 255 0 0
-18.4431 20.3049 -3.02638 255 0 0
-20.5983 20.0442 -3.07542 255 0 0
-17.8972 20.8671 -2.7999 255 0 0
-17.1506 21.7091 -2.80501 255 0 0
-17.4245 21.4221 -2.80348 255 0 0
-17.4924 21.2985 -2.80194 255 0 0
-17.5019 21.2073 -2.80007 255 0 0
-17.641 21.0688 -2.79956 255 0 0
-17.9768 20.7599 -2.79905 255 0 0
-18.1085 20.6139 -2.79837 255 0 0
-18.5883 20.0788 -2.79615 255 0 0
-18.6793 19.9862 -2.79598 255 0 0
-18.8704 19.7168 -2.79411 255 0 0
-19.0729 19.5537 -2.79479 255 0 0
-19.2785 19.3014 -2.79377 255 0 0
-19.432 19.1802 -2.79445 255 0 0
-19.4767 19.0428 -2.79258 255 0 0
-17.1149 21.8763 -3.0393 255 0 0
-17.3473 21.535 -3.0347 255 0 0
-17.4056 21.5029 -3.03514 255 0 0
-17.4787 21.4888 -3.03645 255 0 0
-17.4519 21.3521 -3.03185 255 0 0
-17.495 21.3017 -3.03141 255 0 0
-17.5787 21.0958 -3.02747 255 0 0
-17.751 20.997 -3.02879 255 0 0
-17.8427 20.9037 -3.02835 255 0 0
-17.9187 20.7922 -3.02704 255 0 0
-18.1446 20.5564 -3.02594 255 0 0
-18.5196 20.1 -3.02266 255 0 0
-18.6388 20.1334 -3.0266 255 0 0
-18.7245 19.845 -3.02091 255 0 0
-19.1773 19.3831 -3.02025 255 0 0
-19.2525 19.2753 -3.01937 255 0 0
-19.352 19.1921 -3.01981 255 0 0
-19.3558 19.105 -3.01762 255 0 0
-20.7403 19.8971 -3.07542 255 0 0
-20.9409 19.7116 -3.07608 255 0 0
-20.9705 19.6459 -3.0752 255 0 0
-21.017 19.5961 -3.0752 255 0 0
