ply
format ascii 1.0
comment Created by Open3D
element vertex 1268
property double x
property double y
property double z
property uchar red
property uchar green
property uchar blue
end_header
-15.5735 6.61901 -3.33884 0 0 255
-14.197 5.87565 -3.99035 0 0 255
-12.6366 7.00569 -3.9939 0 0 255
-15.4264 5.66774 -3.71354 0 0 255
-12.5088 6.70398 -4.56329 0 0 255
-16.4691 6.90767 -3.11466 255 0 0
-12.6239 5.68642 -3.09546 0 0 255
-15.2443 7.35083 -3.0563 0 0 255
-14.113 5.45268 -4.99315 0 0 255
-15.5194 5.494 -4.69174 0 0 255
-14.9838 7.35703 -2.90265 0 0 255
-12.5843 5.66858 -3.3232 0 0 255
-14.556 5.86318 -3.76812 0 0 255
-15.433 6.3872 -3.74147 0 0 255
-13.5886 7.15876 -3.98959 0 0 255
-15.4591 7.00763 -2.91782 0 0 255
-12.5067 6.47556 -4.18267 0 0 255
-14.6481 6.30788 -3.79697 0 0 255
-12.5036 5.56104 -4.1208 0 0 255
-15.4795 7.28409 -2.92509 0 0 255
-12.4715 6.45733 -4.77838 0 0 255
-16.5991 5.43693 -4.26265 0 0 255
-14.8048 5.5192 -4.18041 0 0 255
-15.7163 7.25944 -3.22502 0 0 255
-13.816 7.32046 -3.10641 0 0 255
-15.3951 7.37858 -3.63668 0 0 255
-13.7661 5.46928 -4.29566 0 0 255
-15.4066 6.63454 -2.90707 0 0 255
-12.5387 6.95139 -4.34405 0 0 255
-12.3796 5.93332 -4.83461 0 0 255
-16.0715 6.42935 -3.08037 0 0 255
-13.7382 5.49592 -4.04193 0 0 255
-12.5936 7.41763 -3.89331 0 0 255
-12.6037 6.6781 -4.08931 0 0 255
-13.6212 5.44915 -4.77586 0 0 255
-12.4856 6.31521 -4.64741 0 0 255
-14.3932 5.48266 -4.78184 0 0 255
-14.4111 6.53259 -3.91608 0 0 255
-12.6612 7.33665 -2.91332 0 0 255
-13.5864 6.87197 -3.97229 0 0 255
-13.549 7.09688 -3.98132 0 0 255
-14.4275 6.62268 -3.92241 0 0 255
-15.554 5.88264 -3.87367 0 0 255
-12.5408 5.66687 -4.25004 0 0 255
-12.5451 5.57951 -4.24485 0 0 255
-12.8947 5.51664 -3.93547 0 0 255
-12.6092 7.38661 -3.03408 0 0 255
-15.6006 5.94256 -3.32083 0 0 255
-12.4149 5.71665 -4.82218 0 0 255
-13.2638 7.23054 -2.94286 0 0 255
-12.8082 7.38131 -3.04606 0 0 255
-12.4747 5.47747 -4.34399 0 0 255
-12.7612 5.42376 -4.74315 0 0 255
-12.5173 5.56712 -4.71019 0 0 255
-13.7783 5.4741 -4.67777 0 0 255
-14.4614 7.35766 -3.14815 0 0 255
-15.595 6.06783 -3.60427 0 0 255
-15.8023 5.46796 -5.02017 0 0 255
-12.6439 6.32012 -3.95068 0 0 255
-14.2403 5.46311 -4.75478 0 0 255
-14.7171 7.35645 -3.16427 0 0 255
-12.6025 6.75421 -4.0944 0 0 255
-13.5261 5.44832 -4.50879 0 0 255
-16.9544 5.50883 -4.91471 0 0 255
-13.1778 5.41727 -5.06562 0 0 255
-12.5989 7.42076 -3.64749 0 0 255
-15.6321 6.81967 -3.20684 0 0 255
-12.5359 6.37799 -4.29965 0 0 255
-12.4904 6.05941 -4.62672 0 0 255
-14.5315 5.49592 -4.40776 0 0 255
-15.2592 5.48343 -4.92858 0 0 255
-12.5119 6.51589 -4.18626 0 0 255
-15.591 7.15678 -3.35732 0 0 255
-15.813 5.59792 -4.31488 0 0 255
-14.3469 6.21854 -3.89355 0 0 255
-12.4225 5.77379 -5.18659 0 0 255
-15.5539 7.31913 -3.50393 0 0 255
-16.4731 6.008 -2.94817 0 0 255
-12.5347 5.93471 -4.26752 0 0 255
-15.4032 5.67994 -3.43631 0 0 255
-15.5435 5.46106 -4.83443 0 0 255
-12.539 5.71982 -4.25335 0 0 255
-15.6575 6.56724 -3.20147 0 0 255
-14.0972 5.87356 -3.97831 0 0 255
-12.5517 6.49887 -4.55288 0 0 255
-15.305 5.87156 -4.12349 0 0 255
-12.6539 7.17301 -2.90785 0 0 255
-13.2517 5.52126 -3.9811 0 0 255
-12.5944 6.52097 -4.07743 0 0 255
-15.5071 7.25223 -3.21139 0 0 255
-15.1833 7.32137 -2.9115 0 0 255
-12.4638 5.50799 -4.11183 0 0 255
-14.4467 6.92402 -3.94001 0 0 255
-15.6382 5.53603 -4.57096 0 0 255
-13.0249 5.68228 -3.00556 0 0 255
-16.5908 5.60899 -4.26866 0 0 255
-12.4288 5.61627 -5.17267 0 0 255
-15.4804 6.36388 -3.74512 0 0 255
-12.4982 5.45249 -4.34597 0 0 255
-16.2499 6.72529 -3.53863 0 0 255
-16.577 5.38618 -4.40533 0 0 255
-12.5665 7.36159 -4.2571 0 0 255
-12.6278 6.96171 -3.9899 0 0 255
-12.5194 6.76709 -4.20554 0 0 255
-16.5133 5.3655 -4.54332 0 0 255
-12.6877 7.23193 -2.9115 0 0 255
-15.6082 5.9879 -3.32268 0 0 255
-16.7876 5.49865 -4.88826 0 0 255
-17.5737 5.52634 -5.01203 0 0 255
-12.5322 7.14333 -4.23558 0 0 255
-16.1647 5.46492 -4.93569 0 0 255
-12.5322 6.71654 -4.44625 0 0 255
-12.515 6.70728 -4.6866 0 0 255
-12.5569 6.46381 -4.5508 0 0 255
-15.931 6.6376 -3.65456 0 0 255
-13.5651 5.46403 -4.64135 0 0 255
-15.4831 7.33068 -3.21221 0 0 255
-14.1059 5.52695 -4.21915 0 0 255
-14.3374 6.25486 -3.89426 0 0 255
-12.8407 5.78405 -3.94348 0 0 255
-12.3711 6.07419 -5.08543 0 0 255
-15.6399 6.47282 -3.19775 0 0 255
-12.4267 5.474 -4.80383 0 0 255
-15.3211 7.38782 -3.34577 0 0 255
-12.6404 7.44522 -3.28347 0 0 255
-12.617 7.11262 -4.12156 0 0 255
-12.5413 6.56905 -4.31476 0 0 255
-12.5236 6.86561 -4.45717 0 0 255
-15.6799 6.18664 -3.61601 0 0 255
-15.7835 5.46144 -5.16012 0 0 255
-12.6456 5.66016 -3.32823 0 0 255
-12.5382 5.90005 -4.26563 0 0 255
-12.5525 6.99798 -4.34972 0 0 255
-12.6985 7.35829 -3.40702 0 0 255
-16.6538 5.49858 -4.86747 0 0 255
-15.5404 5.8354 -3.59142 0 0 255
-12.6016 6.22447 -4.05876 0 0 255
-16.5315 5.32811 -4.54417 0 0 255
-12.5329 6.67867 -4.44327 0 0 255
-16.0494 6.15716 -3.50393 0 0 255
-12.875 5.40017 -5.00403 0 0 255
-12.544 6.47604 -4.30815 0 0 255
-12.5487 6.7637 -4.57474 0 0 255
-12.5371 5.71895 -4.7261 0 0 255
-13.221 7.24792 -2.94104 0 0 255
-15.1762 5.45361 -5.05127 0 0 255
-12.4961 5.97096 -4.14635 0 0 255
-12.5383 6.02769 -4.27461 0 0 255
-12.5976 5.9645 -3.92347 0 0 255
-13.6515 5.46125 -4.52964 0 0 255
-13.5231 5.48442 -4.26159 0 0 255
-14.631 5.53355 -4.29128 0 0 255
-15.4733 7.23644 -3.06615 0 0 255
-13.7875 6.60811 -3.98057 0 0 255
-12.6047 5.39254 -4.94984 0 0 255
-12.5022 5.59597 -3.42815 0 0 255
-16.6084 5.70284 -3.97856 0 0 255
-12.542 7.42737 -4.01151 0 0 255
-14.4591 5.3903 -5.18628 0 0 255
-12.8968 7.23009 -2.9228 0 0 255
-12.6 7.0245 -4.11307 0 0 255
-12.3681 6.2742 -4.86362 0 0 255
-16.2395 5.53314 -4.65884 0 0 255
-12.903 5.48403 -4.17281 0 0 255
-15.3781 6.27924 -2.89822 0 0 255
-12.5376 5.43432 -4.35094 0 0 255
-15.4783 7.28355 -3.92743 0 0 255
-15.2975 5.45626 -5.07304 0 0 255
-17.4281 5.48056 -5.14319 0 0 255
-14.3295 7.33339 -3.13906 0 0 255
-12.5279 6.07763 -4.39561 0 0 255
-16.51 5.80066 -2.94628 0 0 255
-12.5251 5.87576 -4.38023 0 0 255
-12.6301 5.47442 -4.13335 0 0 255
-15.4861 7.24242 -2.92446 0 0 255
-12.4999 6.28525 -4.16832 0 0 255
-15.3787 5.69163 -3.02347 0 0 255
-12.6026 6.077 -4.04942 0 0 255
-15.4469 5.55089 -3.84941 0 0 255
-15.5873 5.89523 -3.31852 0 0 255
-12.6046 7.30385 -4.38184 0 0 255
-12.6039 6.81276 -4.09864 0 0 255
-14.6646 5.86654 -4.04601 0 0 255
-15.9896 5.83166 -3.20436 0 0 255
-12.3851 5.97211 -4.95846 0 0 255
-12.609 6.91242 -4.10628 0 0 255
-14.6694 5.4687 -4.82763 0 0 255
-12.5189 5.71066 -4.48524 0 0 255
-12.4987 6.11846 -4.15667 0 0 255
-14.0029 5.87328 -3.96703 0 0 255
-13.4603 5.53341 -4.13174 0 0 255
-12.5419 7.07027 -4.47702 0 0 255
-12.4296 5.42255 -4.91782 0 0 255
-12.5415 6.53129 -4.31193 0 0 255
-15.4118 7.47669 -3.93005 0 0 255
-12.4953 5.91606 -4.61584 0 0 255
-15.4686 7.18957 -3.77851 0 0 255
-12.757 5.85588 -3.93707 0 0 255
-13.7857 5.40149 -5.05721 0 0 255
-12.5086 6.12332 -4.51542 0 0 255
-12.558 5.47858 -4.24012 0 0 255
-12.5441 6.2331 -4.2902 0 0 255
-13.5664 5.46456 -4.39129 0 0 255
-16.1049 6.84488 -3.53097 0 0 255
-13.9221 5.45497 -4.8292 0 0 255
-12.5134 6.21786 -4.52374 0 0 255
-15.4596 5.55544 -4.128 0 0 255
-15.4585 6.74398 -3.75847 0 0 255
-15.5959 7.11428 -3.64339 0 0 255
-16.5623 5.38141 -4.25588 0 0 255
-12.7602 5.67518 -3.80906 0 0 255
-14.5431 7.31261 -3.15187 0 0 255
-15.4288 7.34979 -3.20932 0 0 255
-14.4893 6.90224 -3.94353 0 0 255
-14.3767 6.03004 -3.88792 0 0 255
-15.5912 6.10896 -3.18493 0 0 255
-13.4012 5.47204 -4.36673 0 0 255
-12.5084 6.03154 -4.50813 0 0 255
-12.6293 5.72488 -3.32935 0 0 255
-12.6082 5.75141 -4.02991 0 0 255
-12.4937 5.87907 -4.61257 0 0 255
-17.0995 5.51116 -4.93739 0 0 255
-12.5166 6.978 -4.58827 0 0 255
-12.6587 5.66601 -3.09731 0 0 255
-12.4273 5.66889 -4.8204 0 0 255
-15.5922 6.28055 -3.18948 0 0 255
-13.4945 5.47282 -4.3809 0 0 255
-12.5271 5.53597 -4.00614 0 0 255
-12.6776 5.45935 -4.37477 0 0 255
-12.5236 6.98189 -4.22213 0 0 255
-12.7059 5.47154 -4.26185 0 0 255
-15.0894 5.46287 -4.76096 0 0 255
-15.5796 6.06184 -3.32268 0 0 255
-14.6475 5.8597 -3.91045 0 0 255
-13.0644 5.44323 -4.67789 0 0 255
-14.4418 5.857 -3.88722 0 0 255
-13.2203 5.47144 -4.33933 0 0 255
-12.6206 5.75707 -2.98159 0 0 255
-14.1359 5.46155 -4.73709 0 0 255
-12.5329 5.57408 -4.35987 0 0 255
-15.3963 7.37916 -3.49372 0 0 255
-15.0675 7.35383 -3.04645 0 0 255
-14.389 5.95513 -3.88581 0 0 255
-13.068 7.32606 -3.06012 0 0 255
-12.6089 5.96985 -4.04348 0 0 255
-12.6078 6.71862 -3.97149 0 0 255
-15.5617 5.82237 -3.3146 0 0 255
-15.0172 7.32927 -3.18245 0 0 255
-15.7044 6.49951 -3.62942 0 0 255
-15.5074 5.6558 -3.58248 0 0 255
-12.6134 5.46718 -4.24768 0 0 255
-15.5263 5.78815 -3.17253 0 0 255
-12.5276 5.82266 -4.37675 0 0 255
-12.5477 5.61632 -4.24768 0 0 255
-15.2458 5.89038 -3.84155 0 0 255
-14.1846 5.40319 -5.13418 0 0 255
-15.8773 5.53611 -4.60594 0 0 255
-12.5121 6.85926 -4.21137 0 0 255
-15.5893 6.36546 -3.19155 0 0 255
-12.7021 6.53859 -3.97149 0 0 255
-12.5153 7.17303 -4.23558 0 0 255
-12.9681 5.47543 -4.30154 0 0 255
-16.6241 5.57636 -4.41974 0 0 255
-16.4133 5.89818 -2.94311 0 0 255
-13.1059 5.46054 -4.32138 0 0 255
-15.6719 7.32931 -3.36886 0 0 255
-14.4225 5.88902 -3.88651 0 0 255
-15.5706 7.10276 -3.49729 0 0 255
-12.5355 5.46875 -4.70565 0 0 255
-12.3801 6.15163 -4.97447 0 0 255
-13.4458 5.49022 -4.25083 0 0 255
-12.5439 6.76113 -4.32988 0 0 255
-14.9525 5.5339 -4.33541 0 0 255
-12.5182 6.01803 -4.38966 0 0 255
-14.4381 6.71062 -3.92804 0 0 255
-12.8292 5.52461 -4.04603 0 0 255
-13.109 5.46181 -4.44327 0 0 255
-12.4095 6.3508 -4.87842 0 0 255
-16.2043 6.77404 -3.53659 0 0 255
-13.3584 5.45455 -4.73014 0 0 255
-16.2375 6.3178 -3.52434 0 0 255
-16.4746 6.77257 -3.11174 255 0 0
-13.606 6.28469 -3.94145 0 0 255
-12.5159 6.66963 -4.19792 0 0 255
-16.5256 5.41283 -4.39973 0 0 255
-15.4992 5.56968 -3.71718 0 0 255
-13.0048 7.33121 -3.0564 0 0 255
-13.2915 5.50091 -3.9851 0 0 255
-16.3199 5.47429 -4.96151 0 0 255
-15.7827 6.3573 -3.48862 0 0 255
-15.57 5.7205 -3.17377 0 0 255
-16.2183 6.22193 -2.93932 0 0 255
-15.2438 5.51873 -4.23724 0 0 255
-14.6671 5.86755 -3.77992 0 0 255
-12.5292 6.48717 -4.42738 0 0 255
-13.6821 5.39839 -5.03709 0 0 255
-15.5738 6.88235 -3.34715 0 0 255
-15.059 7.3497 -2.90612 0 0 255
-15.3438 7.39878 -3.77608 0 0 255
-12.5678 7.06524 -4.35728 0 0 255
-12.6047 5.87665 -4.03712 0 0 255
-12.4293 5.8668 -5.19721 0 0 255
-16.4203 6.70478 -3.107 255 0 0
-13.1641 5.52145 -4.09101 0 0 255
-16.7561 5.48833 -5.1846 0 0 255
-14.3069 7.36467 -3.13864 0 0 255
-12.8111 5.80729 -3.94108 0 0 255
-14.5086 5.96436 -3.76747 0 0 255
-14.9661 7.34832 -3.04062 0 0 255
-16.8595 5.47798 -5.04987 0 0 255
-12.3618 6.01516 -5.07775 0 0 255
-12.6449 5.44526 -4.60495 0 0 255
-14.2396 5.46285 -4.62396 0 0 255
-13.6503 6.42334 -3.95424 0 0 255
-16.3368 5.78336 -3.37117 0 0 255
-14.0742 7.28712 -2.98919 0 0 255
-15.7403 5.48834 -5.0108 0 0 255
-15.4534 7.18249 -3.0636 0 0 255
-14.9942 7.27407 -4.01815 255 0 0
-14.7677 5.46551 -4.57458 0 0 255
-15.2902 7.32831 -2.91687 0 0 255
-16.4368 5.47021 -4.98037 0 0 255
-16.3487 5.70046 -3.80523 0 0 255
-12.6239 6.21688 -3.94188 0 0 255
-12.4833 5.98302 -4.7386 0 0 255
-15.6423 6.91261 -3.21015 0 0 255
-12.5186 5.56771 -3.65915 0 0 255
-13.5434 5.87029 -3.91212 0 0 255
-12.6159 5.50385 -3.89945 0 0 255
-12.7408 5.66652 -3.92427 0 0 255
-13.9425 5.46295 -4.5763 0 0 255
-15.7527 5.49264 -4.72764 0 0 255
-13.7425 5.45991 -4.41775 0 0 255
-12.4913 6.58068 -4.79315 0 0 255
-15.3025 7.42365 -3.20353 0 0 255
-15.3895 6.54082 -2.90423 0 0 255
-15.7259 5.94765 -3.04937 0 0 255
-15.9744 6.17186 -2.92604 0 0 255
-15.7326 6.16436 -2.91371 0 0 255
-12.4897 5.96791 -4.6191 0 0 255
-15.6321 6.77562 -3.2056 0 0 255
-17.0044 5.52507 -4.77094 0 0 255
-12.6136 7.07135 -4.11816 0 0 255
-12.5309 5.7881 -4.37477 0 0 255
-12.5163 6.63181 -4.19523 0 0 255
-12.5224 5.92891 -4.3837 0 0 255
-15.405 6.6772 -3.75058 0 0 255
-16.3002 5.81393 -3.22461 0 0 255
-15.6555 5.58397 -4.4347 0 0 255
-12.648 7.26905 -4.13683 0 0 255
-12.6687 7.22114 -4.13598 0 0 255
-13.3364 5.48248 -4.23468 0 0 255
-14.3334 5.45988 -4.63885 0 0 255
-12.5118 6.27266 -4.52791 0 0 255
-15.7043 6.23931 -3.47841 0 0 255
-12.5074 6.17797 -4.51958 0 0 255
-13.6551 5.50031 -4.03153 0 0 255
-12.4966 6.52676 -4.66755 0 0 255
-12.4997 5.82773 -4.13739 0 0 255
-17.1082 5.78391 -3.27793 255 0 0
-15.5893 6.93344 -3.4927 0 0 255
-15.0849 5.5017 -4.48846 0 0 255
-13.5617 6.18636 -3.93092 0 0 255
-12.5518 6.7654 -4.4532 0 0 255
-14.3048 5.52682 -4.2463 0 0 255
-12.6362 7.32217 -3.1555 0 0 255
-12.5742 7.48676 -4.01952 0 0 255
-12.4724 6.12393 -4.74883 0 0 255
-14.2677 5.51245 -4.11077 0 0 255
-17.3843 5.5121 -4.98179 0 0 255
-13.4597 5.45869 -4.49886 0 0 255
-15.4267 7.34883 -3.06651 0 0 255
-12.5168 5.76358 -4.48888 0 0 255
-12.5252 7.02175 -4.59347 0 0 255
-12.5094 6.42064 -4.66047 0 0 255
-13.2325 5.47647 -4.21944 0 0 255
-12.5027 5.48976 -4.23257 0 0 255
-13.6367 5.53049 -4.1555 0 0 255
-14.4762 5.47501 -4.79537 0 0 255
-12.5398 5.40001 -5.17598 0 0 255
-14.8535 5.86058 -3.93368 0 0 255
-12.4095 5.71417 -5.05856 0 0 255
-12.6033 6.31853 -4.06512 0 0 255
-12.5446 6.72318 -4.32705 0 0 255
-16.6187 5.6184 -4.56963 0 0 255
-15.1375 7.34359 -3.0501 0 0 255
-15.4366 7.39849 -3.92874 0 0 255
-12.4969 6.3955 -4.77724 0 0 255
-12.9201 5.7463 -3.0006 0 0 255
-14.4 6.48646 -3.91256 0 0 255
-15.4561 7.2731 -3.06615 0 0 255
-16.5977 5.48007 -5.00718 0 0 255
-12.5424 5.54271 -3.66055 0 0 255
-12.6152 6.87696 -4.10458 0 0 255
-14.018 7.30024 -3.11839 0 0 255
-15.6052 6.72006 -3.20229 0 0 255
-15.3104 5.70766 -3.01983 0 0 255
-15.8417 6.86647 -3.51056 0 0 255
-15.4025 7.3373 -2.92256 0 0 255
-12.7826 5.46867 -4.27319 0 0 255
-12.6083 6.11662 -3.93387 0 0 255
-16.7857 5.54215 -4.73955 0 0 255
-14.8473 7.3776 -3.03478 0 0 255
-12.707 5.4007 -4.97078 0 0 255
-15.2966 5.53785 -4.38293 0 0 255
-15.2825 7.41394 -3.34392 0 0 255
-14.1405 5.46332 -4.60807 0 0 255
-15.5982 6.21857 -3.18824 0 0 255
-15.5731 6.83793 -3.20353 0 0 255
-13.5408 7.17464 -3.98508 0 0 255
-12.5035 6.02918 -4.15129 0 0 255
-12.3663 5.92696 -5.07008 0 0 255
-14.7592 5.54209 -4.04225 0 0 255
-13.3879 5.46659 -4.48794 0 0 255
-15.596 7.02519 -3.06761 0 0 255
-12.6092 6.3777 -4.06979 0 0 255
-15.0002 5.47083 -4.88383 0 0 255
-13.902 6.78497 -4.00389 0 0 255
-12.4934 6.17103 -4.63652 0 0 255
-16.5728 5.6467 -4.12022 0 0 255
-13.6234 6.37128 -3.94822 0 0 255
-16.2406 5.79266 -3.36424 0 0 255
-13.1393 5.47445 -4.20599 0 0 255
-12.9328 5.3884 -5.13659 0 0 255
-13.2967 5.46617 -4.5966 0 0 255
-12.3815 5.77261 -4.93937 0 0 255
-15.7235 6.90399 -3.5024 0 0 255
-14.8156 7.01463 -3.98506 255 0 0
-15.1822 5.86581 -3.97098 0 0 255
-12.8704 5.47015 -4.52583 0 0 255
-12.6571 7.33431 -4.14277 0 0 255
-12.6246 7.43591 -4.14617 0 0 255
-15.613 6.41839 -3.33561 0 0 255
-12.7779 5.46665 -4.51022 0 0 255
-12.6543 7.27263 -2.91095 0 0 255
-13.8609 5.46891 -4.6913 0 0 255
-16.9513 5.73084 -3.71547 255 0 0
-12.5175 7.27325 -4.24365 0 0 255
-15.6461 6.25919 -3.47433 0 0 255
-14.5929 7.33766 -3.01946 0 0 255
-14.4806 5.87272 -4.0242 0 0 255
-15.6111 7.21086 -3.36055 0 0 255
-12.9629 5.47324 -4.54144 0 0 255
-12.6023 6.26207 -4.0613 0 0 255
-12.6328 6.27722 -3.94668 0 0 255
-12.558 5.58525 -3.43301 0 0 255
-15.9228 7.08177 -3.08767 0 0 255
-14.1764 5.47719 -4.48483 0 0 255
-12.5009 6.62361 -4.6768 0 0 255
-15.6926 5.47169 -4.85925 0 0 255
-15.6035 6.19927 -3.75058 0 0 255
-15.1162 5.51312 -4.22043 0 0 255
-14.9686 5.49953 -4.47142 0 0 255
-12.5009 6.3602 -4.17371 0 0 255
-12.5252 5.73149 -4.3698 0 0 255
-13.5722 5.50433 -4.02112 0 0 255
-12.5135 7.05425 -4.59451 0 0 255
-12.602 5.93007 -4.04009 0 0 255
-15.1691 5.53241 -4.36511 0 0 255
-12.5335 7.0264 -4.47206 0 0 255
-14.5506 5.50316 -4.14679 0 0 255
-12.5464 6.42086 -4.30437 0 0 255
-16.1621 6.91448 -3.6853 0 0 255
-15.5794 6.84072 -3.34623 0 0 255
-12.571 7.44451 -3.89256 0 0 255
-17.2446 5.4678 -5.11241 0 0 255
-12.7334 5.48336 -4.1486 0 0 255
-13.103 5.53237 -4.08337 0 0 255
-15.5836 6.97521 -3.35085 0 0 255
-15.5872 7.24469 -3.64786 0 0 255
-15.2809 5.65545 -4.1107 0 0 255
-15.854 6.16857 -3.06177 0 0 255
-15.8237 7.26357 -3.23205 0 0 255
-15.3772 6.44968 -2.9017 0 0 255
-15.3632 6.31568 -2.89822 0 0 255
-15.4565 6.22591 -2.90106 0 0 255
-15.5255 6.21096 -2.90423 0 0 255
-15.5837 6.1914 -2.90676 0 0 255
-15.6799 6.18662 -2.9115 0 0 255
-15.8725 6.1758 -2.92098 0 0 255
-16.3696 6.23549 -2.94722 0 0 255
-16.4828 6.10025 -2.95039 0 0 255
-16.5192 6.06922 -2.95165 0 0 255
-16.4488 5.95499 -2.94596 0 0 255
-16.2676 5.80229 -2.93395 0 0 255
-12.3081 6.42832 -4.86717 0 0 255
-16.3805 5.79882 -2.93964 0 0 255
-16.6342 5.8 -2.9526 0 0 255
-12.9518 7.34186 -3.0535 0 0 255
-12.6371 6.81136 -3.9811 0 0 255
-12.5057 6.28817 -4.6485 0 0 255
-14.7532 5.86144 -3.92241 0 0 255
-12.58 7.17058 -4.61533 0 0 255
-13.8436 5.4621 -4.56042 0 0 255
-16.4449 5.73399 -3.66965 0 0 255
-12.5121 7.0144 -4.22303 0 0 255
-16.1986 7.02118 -3.69256 0 0 255
-14.8597 5.863 -4.06933 0 0 255
-15.5735 6.92638 -3.34854 0 0 255
-14.5806 5.87309 -4.03623 0 0 255
-12.5057 5.81248 -4.60931 0 0 255
-14.6361 5.45628 -4.95547 0 0 255
-15.5899 6.6697 -3.34161 0 0 255
-15.4249 5.70875 -3.16386 0 0 255
-12.634 5.65494 -3.211 0 0 255
-12.6277 6.76768 -3.9771 0 0 255
-15.5909 6.23711 -3.60986 0 0 255
-13.2072 5.46602 -4.45915 0 0 255
-12.601 7.38184 -2.9115 0 0 255
-12.7473 7.18604 -2.91332 0 0 255
-12.8901 7.14619 -2.91989 0 0 255
-13.127 7.23693 -2.93557 0 0 255
-13.5243 7.28956 -2.95891 0 0 255
-13.6858 7.33477 -2.96913 0 0 255
-12.547 5.86786 -4.26469 0 0 255
-13.803 7.31357 -2.97496 0 0 255
-13.9082 7.32712 -2.98116 0 0 255
-13.9618 7.31311 -2.98372 0 0 255
-13.8081 7.19091 -2.97168 0 0 255
-14.2681 7.34467 -3.00159 0 0 255
-14.4972 7.33268 -3.01399 0 0 255
-14.6887 7.34224 -3.02493 0 0 255
-15.3039 7.33487 -3.05922 0 0 255
-15.4547 7.31723 -3.06724 0 0 255
-16.3968 7.10707 -3.11539 255 0 0
-16.4404 7.07973 -3.11721 255 0 0
-16.5055 7.06142 -3.1205 255 0 0
-16.5173 6.97398 -3.11904 255 0 0
-16.4963 6.82726 -3.11429 255 0 0
-16.3062 6.61311 -3.09825 255 0 0
-15.8531 6.29845 -3.06469 0 0 255
-15.7903 6.18696 -3.05849 0 0 255
-15.7922 6.10148 -3.05666 0 0 255
-15.6921 6.02006 -3.04901 0 0 255
-15.7554 6.00156 -3.05229 0 0 255
-15.3625 5.7686 -3.0242 0 0 255
-16.1766 5.94335 -3.07563 0 0 255
-12.8835 7.38407 -3.17489 0 0 255
-12.534 5.39751 -4.93629 0 0 255
-15.7928 5.46466 -4.87513 0 0 255
-14.1066 5.48871 -4.34588 0 0 255
-12.6408 7.44547 -3.40646 0 0 255
-16.4251 5.6399 -3.81069 0 0 255
-15.585 5.68409 -3.45136 0 0 255
-12.5044 6.06621 -4.51022 0 0 255
-14.8738 5.46471 -4.72621 0 0 255
-15.4658 5.64062 -4.13251 0 0 255
-15.3489 5.47461 -4.80365 0 0 255
-15.6201 6.50807 -3.33884 0 0 255
-16.1426 6.81575 -3.53302 0 0 255
-15.4942 6.52037 -3.75271 0 0 255
-16.242 6.99428 -3.69536 0 0 255
-13.0516 5.47426 -4.19343 0 0 255
-14.812 5.4819 -4.85261 0 0 255
-12.4269 5.66872 -5.17731 0 0 255
-13.82 5.87374 -3.94521 0 0 255
-14.3802 5.99146 -3.88651 0 0 255
-12.6368 7.36257 -3.03491 0 0 255
-12.6491 7.32966 -3.03449 0 0 255
-12.8712 7.37706 -3.04978 0 0 255
-12.9141 7.36098 -3.05185 0 0 255
-14.7675 5.86713 -3.79041 0 0 255
-13.1363 7.3235 -3.06425 0 0 255
-13.2099 7.32348 -3.0688 0 0 255
-13.2937 7.3288 -3.07417 0 0 255
-13.393 7.34218 -3.08078 0 0 255
-13.4873 7.35234 -3.08698 0 0 255
-13.5663 7.35374 -3.09194 0 0 255
-13.5785 7.31878 -3.09153 0 0 255
-13.6628 7.32243 -3.0969 0 0 255
-13.7471 7.32573 -3.10227 0 0 255
-13.9625 7.35574 -3.11674 0 0 255
-14.0265 7.347 -3.12046 0 0 255
-14.0923 7.29652 -3.12294 0 0 255
-14.5153 7.3418 -3.15104 0 0 255
-14.7554 7.33194 -3.16592 0 0 255
-14.9142 7.36677 -3.17708 0 0 255
-14.9893 7.3597 -3.18163 0 0 255
-15.299 7.3772 -3.20188 0 0 255
-15.327 7.34596 -3.20271 0 0 255
-15.4317 7.26162 -3.20684 0 0 255
-15.6831 7.28929 -3.22378 0 0 255
-12.6076 5.71508 -2.97952 0 0 255
-12.6904 5.71635 -2.9849 0 0 255
-12.6932 5.68147 -2.98407 0 0 255
-12.9672 5.71208 -3.00267 0 0 255
-15.6424 6.67025 -3.20333 0 0 255
-15.6311 6.5998 -3.20064 0 0 255
-15.6514 6.52111 -3.19981 0 0 255
-15.6174 6.42017 -3.19485 0 0 255
-15.6043 6.32848 -3.19155 0 0 255
-15.5984 6.15448 -3.18659 0 0 255
-15.5948 6.06774 -3.18411 0 0 255
-15.5982 6.02653 -3.18328 0 0 255
-15.607 5.98744 -3.18287 0 0 255
-15.59 5.91739 -3.17997 0 0 255
-15.6 5.8578 -3.17915 0 0 255
-16.0967 5.82754 -3.21139 0 0 255
-16.2369 5.83478 -3.22089 0 0 255
-12.5091 6.42048 -4.17909 0 0 255
-12.364 6.07068 -4.84409 0 0 255
-15.4787 7.32861 -3.35501 0 0 255
-13.4773 5.46586 -4.62678 0 0 255
-14.037 5.46162 -4.72044 0 0 255
-16.6118 5.48474 -4.41414 0 0 255
-13.9745 5.51374 -4.07315 0 0 255
-15.4313 7.44098 -3.49882 0 0 255
-12.6603 6.40357 -3.95788 0 0 255
-12.531 6.62057 -4.4383 0 0 255
-12.5279 6.16963 -4.40256 0 0 255
-15.4513 7.13703 -2.92035 0 0 255
-14.2725 5.39794 -5.15075 0 0 255
-12.5739 5.45006 -4.59298 0 0 255
-13.8241 6.666 -3.98809 0 0 255
-12.5122 7.0731 -4.22751 0 0 255
-13.1199 5.4299 -4.80906 0 0 255
-14.6172 5.48876 -4.55285 0 0 255
-15.3992 5.82408 -3.71658 0 0 255
-12.7021 7.44102 -3.16473 0 0 255
-12.6339 7.36093 -3.15688 0 0 255
-12.8406 7.40003 -3.17258 0 0 255
-12.8807 7.34194 -3.17305 0 0 255
-15.2124 7.42455 -3.3393 0 0 255
-15.4596 7.4095 -3.35639 0 0 255
-15.435 7.35274 -3.3527 0 0 255
-15.631 7.26507 -3.36378 0 0 255
-12.6128 5.75349 -3.09684 0 0 255
-12.6157 5.71875 -3.09592 0 0 255
-13.014 5.71429 -3.12455 0 0 255
-15.5715 6.77131 -3.34346 0 0 255
-15.5848 6.71126 -3.34254 0 0 255
-15.5999 6.58661 -3.33977 0 0 255
-15.5831 6.53606 -3.33699 0 0 255
-15.6301 6.46879 -3.33838 0 0 255
-15.612 6.37474 -3.33422 0 0 255
-15.6271 6.3377 -3.33422 0 0 255
-15.5879 6.27882 -3.32961 0 0 255
-15.5648 6.22667 -3.32637 0 0 255
-15.6012 6.19837 -3.32822 0 0 255
-15.605 6.15708 -3.3273 0 0 255
-15.6087 6.1158 -3.32637 0 0 255
-15.6158 6.0333 -3.32453 0 0 255
-15.4153 5.70519 -3.30051 0 0 255
-15.4124 5.66259 -3.29912 0 0 255
-15.5793 5.68203 -3.31206 0 0 255
-15.966 5.78019 -3.34346 0 0 255
-16.117 5.79167 -3.35501 0 0 255
-13.5377 5.52776 -4.14192 0 0 255
-12.5452 7.11137 -4.48099 0 0 255
-12.5302 5.6085 -4.36186 0 0 255
-13.6016 6.32182 -3.94296 0 0 255
-12.3772 5.82425 -5.0624 0 0 255
-14.8791 5.46664 -4.86302 0 0 255
-15.4325 5.46324 -4.81656 0 0 255
-16.5557 5.42269 -4.10966 0 0 255
-12.6039 7.36342 -3.27709 0 0 255
-12.8293 7.43408 -3.29725 0 0 255
-12.8621 7.41238 -3.29878 0 0 255
-12.9555 7.42537 -3.30643 0 0 255
-15.27 7.45267 -3.48658 0 0 255
-15.4927 7.38027 -3.50138 0 0 255
-15.5343 7.26494 -3.50036 0 0 255
-15.5409 7.22317 -3.49933 0 0 255
-15.5791 7.19608 -3.50138 0 0 255
-15.5909 7.15669 -3.50087 0 0 255
-12.6571 5.77372 -3.21712 0 0 255
-12.5698 5.69793 -3.20743 0 0 255
-12.5833 5.66811 -3.20743 0 0 255
-12.6473 5.62497 -3.211 0 0 255
-15.6804 6.92946 -3.49984 0 0 255
-15.8468 6.91334 -3.5126 0 0 255
-16.024 6.90041 -3.52638 0 0 255
-16.1905 6.92663 -3.54067 0 0 255
-16.2658 6.68674 -3.53863 0 0 255
-14.2865 5.48082 -4.50183 0 0 255
-15.6973 6.3662 -3.48198 0 0 255
-15.4233 6.77216 -2.91087 0 0 255
-15.8764 6.26414 -3.49321 0 0 255
-16.1845 6.34139 -3.52077 0 0 255
-16.1382 6.23514 -3.51362 0 0 255
-15.6443 5.95921 -3.46463 0 0 255
-15.582 5.89321 -3.45749 0 0 255
-15.5085 5.82344 -3.44932 0 0 255
-15.5114 5.78258 -3.4483 0 0 255
-16.3173 5.82 -3.51566 0 0 255
-16.3915 5.80271 -3.52128 0 0 255
-16.4107 5.76577 -3.52179 0 0 255
-14.4742 5.91014 -3.76156 0 0 255
-12.521 6.52062 -4.54976 0 0 255
-12.5691 7.44338 -3.76896 0 0 255
-12.4306 5.74174 -4.94615 0 0 255
-15.6186 6.11967 -3.60819 0 0 255
-17.7523 5.53627 -5.04037 0 0 255
-12.5283 6.3368 -4.41547 0 0 255
-14.4138 5.92541 -3.88722 0 0 255
-17.2446 5.51283 -4.96006 0 0 255
-16.6127 5.39779 -4.11529 0 0 255
-15.9943 5.5344 -4.62297 0 0 255
-13.9966 5.48415 -4.32974 0 0 255
-12.4922 5.66274 -4.59516 0 0 255
-15.3928 7.42244 -3.92546 0 0 255
-12.5273 7.33866 -3.51377 0 0 255
-16.1674 7.12178 -3.69368 0 0 255
-12.4141 5.66288 -5.05473 0 0 255
-12.6094 7.36664 -3.40004 0 0 255
-12.9129 7.44166 -3.42881 0 0 255
-15.4386 7.48966 -3.64506 0 0 255
-15.4195 7.43531 -3.64115 0 0 255
-15.4809 7.37464 -3.64395 0 0 255
-15.5316 7.30859 -3.64562 0 0 255
-15.533 7.26434 -3.64395 0 0 255
-15.5302 7.17349 -3.64004 0 0 255
-15.6108 7.16583 -3.64674 0 0 255
-12.6803 5.63964 -3.33047 0 0 255
-16.1339 7.03859 -3.68753 0 0 255
-16.2106 6.88982 -3.68865 0 0 255
-16.1893 6.8355 -3.68474 0 0 255
-16.141 6.77004 -3.67803 0 0 255
-15.7134 6.41615 -3.62718 0 0 255
-15.4639 6.27154 -3.5998 0 0 255
-15.5653 6.2697 -3.60874 0 0 255
-15.6436 6.21519 -3.61377 0 0 255
-15.6637 6.05184 -3.60986 0 0 255
-15.5529 5.96667 -3.59701 0 0 255
-15.6149 5.92682 -3.6012 0 0 255
-15.5159 5.78428 -3.58751 0 0 255
-15.5132 5.74141 -3.58583 0 0 255
-15.3845 5.65235 -3.57131 0 0 255
-16.3982 5.76137 -3.6663 0 0 255
-14.5755 5.47308 -4.81202 0 0 255
-12.5402 6.08359 -4.27886 0 0 255
-14.6362 5.41684 -5.08746 0 0 255
-12.5342 6.52752 -4.43135 0 0 255
-12.6146 6.15667 -3.93707 0 0 255
-15.4546 5.63654 -3.9921 0 0 255
-16.8813 5.52935 -4.753 0 0 255
-12.5575 7.43656 -3.52166 0 0 255
-12.5049 7.36539 -3.51316 0 0 255
-15.4138 7.38755 -3.78215 0 0 255
-15.4449 7.2678 -3.77973 0 0 255
-15.499 7.24843 -3.78398 0 0 255
-15.4549 7.09427 -3.77305 0 0 255
-15.5626 7.05457 -3.78155 0 0 255
-12.558 5.6567 -3.43605 0 0 255
-16.1295 7.12793 -3.83863 0 0 255
-15.4315 6.64526 -3.75179 0 0 255
-15.4122 6.57206 -3.74694 0 0 255
-15.42 6.29634 -3.73661 0 0 255
-15.4996 6.28602 -3.7439 0 0 255
-15.4389 6.21879 -3.7354 0 0 255
-15.6374 6.25572 -3.75604 0 0 255
-15.508 6.07634 -3.73661 0 0 255
-15.5766 6.06067 -3.74269 0 0 255
-15.4986 5.98804 -3.73236 0 0 255
-15.4203 5.91582 -3.72204 0 0 255
-15.4452 5.88338 -3.72326 0 0 255
-15.4675 5.80803 -3.72265 0 0 255
-15.4129 5.7043 -3.71354 0 0 255
-15.314 5.58525 -3.69957 0 0 255
-15.36 5.56082 -3.70322 0 0 255
-16.4612 5.69596 -3.81616 0 0 255
-13.5871 6.83191 -3.97004 0 0 255
-13.9379 6.8435 -4.01141 0 0 255
-15.4942 5.52644 -4.54944 0 0 255
-13.9704 5.47387 -4.71003 0 0 255
-12.7383 5.4497 -4.3837 0 0 255
-15.4682 5.8502 -4.00266 0 0 255
-16.605 5.65767 -4.27242 0 0 255
-15.4904 5.77475 -4.00196 0 0 255
-15.3717 5.52388 -3.97802 0 0 255
-12.6038 5.87623 -3.91906 0 0 255
-14.0739 5.51445 -4.08596 0 0 255
-12.7224 6.62554 -3.9795 0 0 255
-14.9789 5.46304 -4.74309 0 0 255
-12.6961 5.46731 -4.49669 0 0 255
-12.5813 7.37028 -3.6429 0 0 255
-12.649 7.36972 -3.64946 0 0 255
-13.446 5.45314 -4.74538 0 0 255
-15.4804 7.37439 -3.93202 0 0 255
-15.5008 7.2493 -3.92808 0 0 255
-15.5714 7.21491 -3.93366 0 0 255
-15.3828 7.06118 -3.90711 0 0 255
-15.4736 7.0585 -3.91628 0 0 255
-12.5972 5.63847 -3.55505 0 0 255
-12.5573 5.58494 -3.5485 0 0 255
-12.6184 5.57632 -3.5544 0 0 255
-15.226 6.64251 -3.8717 0 0 255
-14.7505 6.3935 -3.81139 0 0 255
-14.5814 6.19738 -3.78517 0 0 255
-14.5444 6.12068 -3.77795 0 0 255
-14.5338 6.05547 -3.77402 0 0 255
-14.5213 6.00987 -3.77074 0 0 255
-14.8572 5.862 -3.79959 0 0 255
-14.9577 5.86072 -3.81008 0 0 255
-15.0529 5.85689 -3.81991 0 0 255
-15.3769 5.85737 -3.854 0 0 255
-15.4891 5.77427 -3.86253 0 0 255
-15.4754 5.72743 -3.85925 0 0 255
-15.4617 5.68069 -3.85597 0 0 255
-15.3439 5.59616 -3.84024 0 0 255
-14.5257 5.85097 -3.89637 0 0 255
-15.4806 5.48023 -4.96605 0 0 255
-14.9648 5.86351 -3.94635 0 0 255
-12.5341 6.41454 -4.42242 0 0 255
-12.98 5.48043 -4.18357 0 0 255
-12.5033 5.7215 -4.60169 0 0 255
-16.865 5.61271 -4.60357 0 0 255
-17.1491 5.48231 -5.09752 0 0 255
-13.3221 5.40291 -4.96841 0 0 255
-13.5929 6.79448 -3.96853 0 0 255
-12.4967 6.47037 -4.66265 0 0 255
-12.8753 5.47225 -4.28736 0 0 255
-12.5512 6.88074 -4.34027 0 0 255
-12.6046 6.46953 -4.07531 0 0 255
-12.5316 7.3811 -3.76122 0 0 255
-12.6142 7.38957 -3.77037 0 0 255
-14.4248 7.16763 -3.95057 0 0 255
-14.4313 7.12826 -3.94916 0 0 255
-14.4435 7.0705 -3.9474 0 0 255
-14.9433 7.20568 -4.009 255 0 0
-14.4903 6.81861 -3.93931 0 0 255
-14.438 6.75222 -3.93016 0 0 255
-14.4329 6.66661 -3.92523 0 0 255
-14.4273 6.58121 -3.9203 0 0 255
-12.6062 5.6425 -3.67252 0 0 255
-14.3704 6.30987 -3.90059 0 0 255
-14.3822 6.17321 -3.89531 0 0 255
-14.364 6.10497 -3.89003 0 0 255
-14.3302 6.05054 -3.8837 0 0 255
-15.0654 5.86174 -3.95761 0 0 255
-15.2667 5.85686 -3.98014 0 0 255
-15.3946 5.8641 -3.99492 0 0 255
-15.4385 5.79716 -3.99703 0 0 255
-15.4331 5.71178 -3.99281 0 0 255
-15.4303 5.66916 -3.99069 0 0 255
-15.3258 5.54843 -3.9738 0 0 255
-16.4329 5.64256 -4.10403 0 0 255
-16.5148 5.32273 -4.10121 0 0 255
-13.3582 5.45447 -4.85451 0 0 255
-12.5533 6.95948 -4.59243 0 0 255
-12.5151 6.33012 -4.53311 0 0 255
-16.5234 5.54256 -4.70099 0 0 255
-12.6038 6.11445 -4.05197 0 0 255
-13.2841 5.53479 -4.10798 0 0 255
-13.3668 5.53208 -4.11901 0 0 255
-12.5105 5.51092 -4.46911 0 0 255
-12.4989 6.22914 -4.16429 0 0 255
-13.5365 6.0589 -3.92114 0 0 255
-12.5283 7.45944 -3.8888 0 0 255
-13.5349 7.04864 -3.97681 0 0 255
-13.5412 7.01119 -3.9753 0 0 255
-13.532 6.96578 -3.97154 0 0 255
-13.5485 6.93367 -3.97154 0 0 255
-13.539 6.88836 -3.96778 0 0 255
-14.0197 6.96637 -4.02796 0 0 255
-13.9894 6.90996 -4.02119 0 0 255
-13.8553 6.72157 -3.99486 0 0 255
-13.756 6.55293 -3.9738 0 0 255
-13.7242 6.49793 -3.96703 0 0 255
-13.5945 6.2403 -3.93769 0 0 255
-12.3758 5.96764 -4.83698 0 0 255
-13.5439 6.12015 -3.92528 0 0 255
-12.5453 5.54398 -3.77672 0 0 255
-12.904 5.66597 -3.82561 0 0 255
-13.5614 5.91631 -3.91663 0 0 255
-13.6479 5.8772 -3.9249 0 0 255
-13.7206 5.86995 -3.93318 0 0 255
-13.9087 5.87258 -3.95574 0 0 255
-14.2807 5.87067 -4.00012 0 0 255
-14.3644 5.86533 -4.0099 0 0 255
-14.781 5.87249 -4.0603 0 0 255
-14.9925 5.87436 -4.08588 0 0 255
-15.093 5.87248 -4.09791 0 0 255
-15.1773 5.86389 -4.10769 0 0 255
-15.1127 5.75671 -4.0949 0 0 255
-15.1369 5.64298 -4.09265 0 0 255
-15.3761 5.64924 -4.12198 0 0 255
-15.2989 5.53871 -4.10769 0 0 255
-15.7243 5.6085 -4.1626 0 0 255
-16.7417 5.6158 -4.28747 0 0 255
-16.575 5.34212 -4.25588 0 0 255
-16.6097 5.30988 -4.25888 0 0 255
-14.3824 5.43953 -5.04201 0 0 255
-12.3702 5.7852 -5.05728 0 0 255
-12.5198 5.56826 -4.47483 0 0 255
-12.6096 7.42705 -4.01952 0 0 255
-12.6117 7.10964 -3.99791 0 0 255
-12.6555 7.0554 -3.99951 0 0 255
-12.629 6.92338 -3.9875 0 0 255
-12.6403 6.89064 -3.9867 0 0 255
-12.6209 6.8413 -3.9811 0 0 255
-12.6494 6.70229 -3.97549 0 0 255
-12.7678 6.72635 -3.9915 0 0 255
-12.7427 6.67453 -3.9851 0 0 255
-12.7124 6.58202 -3.97549 0 0 255
-12.6918 6.49524 -3.96749 0 0 255
-12.671 6.44672 -3.96189 0 0 255
-12.6599 6.36572 -3.95548 0 0 255
-12.6071 6.07915 -3.93147 0 0 255
-12.6051 6.02303 -3.92787 0 0 255
-12.5907 5.92474 -3.92026 0 0 255
-12.7063 5.86908 -3.93147 0 0 255
-12.7709 5.82561 -3.93707 0 0 255
-12.7855 5.72278 -3.93307 0 0 255
-12.5326 5.52063 -3.88985 0 0 255
-12.7992 5.54774 -3.92507 0 0 255
-12.8283 5.52426 -3.92747 0 0 255
-12.9932 5.52235 -3.94828 0 0 255
-13.1197 5.5211 -3.96429 0 0 255
-13.3635 5.49364 -3.9939 0 0 255
-13.4947 5.51018 -4.01151 0 0 255
-13.8536 5.50402 -4.05714 0 0 255
-14.1518 5.5063 -4.09556 0 0 255
-14.3728 5.51392 -4.12438 0 0 255
-14.4725 5.51287 -4.13718 0 0 255
-14.6777 5.51146 -4.1636 0 0 255
-14.9104 5.5183 -4.19402 0 0 255
-14.9779 5.50294 -4.20202 0 0 255
-15.3114 5.50219 -4.24524 0 0 255
-15.6358 5.57694 -4.29087 0 0 255
-16.5889 5.60833 -4.41654 0 0 255
-16.5988 5.52411 -4.41414 0 0 255
-16.5345 5.32907 -4.39733 0 0 255
-16.4532 5.25983 -4.38372 0 0 255
-12.5114 5.67145 -4.48108 0 0 255
-14.088 5.48146 -4.4716 0 0 255
-12.5065 6.36305 -4.65503 0 0 255
-14.8616 5.46023 -4.99575 0 0 255
-12.4174 5.41723 -5.03298 0 0 255
-12.5618 7.23932 -4.37051 0 0 255
-14.4327 5.45855 -4.65473 0 0 255
-12.5157 5.61984 -4.47795 0 0 255
-12.6372 7.40303 -4.14532 0 0 255
-12.6497 7.37013 -4.14447 0 0 255
-12.6354 7.16251 -4.1275 0 0 255
-12.6097 6.97124 -4.11052 0 0 255
-12.6134 6.72158 -4.09355 0 0 255
-12.6068 6.62245 -4.08591 0 0 255
-12.6046 6.56419 -4.08167 0 0 255
-12.6095 6.41546 -4.07234 0 0 255
-12.6106 6.17326 -4.05664 0 0 255
-15.4071 6.72155 -2.90897 0 0 255
-12.6059 6.0234 -4.04645 0 0 255
-12.6176 5.82814 -4.03585 0 0 255
-12.6103 5.78854 -4.03245 0 0 255
-12.6271 5.72389 -4.03075 0 0 255
-12.6089 5.67966 -4.02566 0 0 255
-12.6079 5.62534 -4.02227 0 0 255
-12.6039 5.5342 -4.01633 0 0 255
-12.6701 5.52746 -4.02481 0 0 255
-12.7629 5.53197 -4.03754 0 0 255
-12.9274 5.53063 -4.05961 0 0 255
-13.0205 5.53396 -4.07234 0 0 255
-13.7143 5.52411 -4.16568 0 0 255
-13.808 5.52386 -4.17841 0 0 255
-13.9126 5.52747 -4.19284 0 0 255
-14.0173 5.53062 -4.20727 0 0 255
-14.2107 5.52921 -4.23357 0 0 255
-14.4261 5.53439 -4.26328 0 0 255
-14.5096 5.52698 -4.27431 0 0 255
-14.7471 5.53754 -4.3074 0 0 255
-14.8416 5.53291 -4.32013 0 0 255
-15.0635 5.5344 -4.35068 0 0 255
-15.435 5.54663 -4.40245 0 0 255
-16.6045 5.56977 -4.56539 0 0 255
-16.9718 5.60359 -4.618 0 0 255
-16.5226 5.41185 -4.54672 0 0 255
-15.9917 5.49107 -4.76449 0 0 255
-12.5318 7.10379 -4.6018 0 0 255
-12.5183 7.21424 -4.23917 0 0 255
-12.5154 6.91912 -4.2163 0 0 255
-12.5232 6.8268 -4.21047 0 0 255
-12.5153 6.70749 -4.20061 0 0 255
-12.504 6.56842 -4.18895 0 0 255
-12.5005 6.32271 -4.17102 0 0 255
-12.508 6.17824 -4.16205 0 0 255
-12.4891 6.05881 -4.15129 0 0 255
-12.5042 5.92028 -4.14411 0 0 255
-12.5077 5.88569 -4.14232 0 0 255
-12.4968 5.77231 -4.13335 0 0 255
-12.4988 5.7194 -4.13021 0 0 255
-12.5006 5.66656 -4.12707 0 0 255
-12.518 5.62088 -4.12663 0 0 255
-12.4927 5.4854 -4.11452 0 0 255
-12.5428 5.47196 -4.1208 0 0 255
-12.8102 5.48047 -4.15936 0 0 255
-13.6219 5.48693 -4.27593 0 0 255
-13.7155 5.48686 -4.28939 0 0 255
-13.9028 5.48546 -4.31629 0 0 255
-14.2168 5.49279 -4.36202 0 0 255
-14.3216 5.4943 -4.37727 0 0 255
-14.3995 5.48504 -4.38803 0 0 255
-14.6312 5.49399 -4.4221 0 0 255
-14.7363 5.49365 -4.43735 0 0 255
-14.8198 5.4848 -4.44901 0 0 255
-15.1958 5.50137 -4.5046 0 0 255
-15.3286 5.50837 -4.52433 0 0 255
-15.7604 5.5373 -4.5889 0 0 255
-16.1442 5.54344 -4.64539 0 0 255
-16.6408 5.53808 -4.71803 0 0 255
-17.2488 5.55929 -4.8086 0 0 255
-17.4272 5.57123 -4.8355 0 0 255
-17.7129 5.57011 -4.87765 0 0 255
-14.6952 5.47831 -4.56419 0 0 255
-12.5523 7.17453 -4.36389 0 0 255
-12.5426 7.10989 -4.35728 0 0 255
-12.54 6.91327 -4.34122 0 0 255
-12.5477 6.82089 -4.33508 0 0 255
-12.5506 6.66904 -4.32374 0 0 255
-12.5461 6.60954 -4.31854 0 0 255
-12.5406 6.34303 -4.29776 0 0 255
-12.535 6.3029 -4.29398 0 0 255
-12.5344 6.26541 -4.29114 0 0 255
-12.5381 6.1931 -4.28642 0 0 255
-12.532 6.15317 -4.28264 0 0 255
-12.5361 6.11837 -4.28075 0 0 255
-16.4784 5.48403 -5.13673 0 0 255
-12.5362 5.97187 -4.27036 0 0 255
-12.5399 5.82835 -4.26091 0 0 255
-12.5421 5.77527 -4.2576 0 0 255
-12.5319 5.53807 -4.24012 0 0 255
-13.0503 5.47372 -4.31382 0 0 255
-13.3188 5.47523 -4.35445 0 0 255
-13.6705 5.46887 -4.40735 0 0 255
-13.8629 5.46973 -4.43664 0 0 255
-13.9673 5.47268 -4.4527 0 0 255
-14.402 5.48602 -4.51979 0 0 255
-14.4907 5.48047 -4.53301 0 0 255
-14.8566 5.45838 -4.58781 0 0 255
-14.9781 5.46274 -4.60671 0 0 255
-15.1322 5.47836 -4.63127 0 0 255
-15.2431 5.47764 -4.64828 0 0 255
-15.403 5.4939 -4.67379 0 0 255
-15.6415 5.4955 -4.71064 0 0 255
-15.8858 5.49685 -4.74843 0 0 255
-16.125 5.49414 -4.78528 0 0 255
-16.2475 5.4929 -4.80417 0 0 255
-16.381 5.4948 -4.82496 0 0 255
-16.5091 5.49426 -4.8448 0 0 255
-17.9475 5.5505 -5.07155 0 0 255
-12.5198 6.27669 -4.40951 0 0 255
-12.5379 5.64767 -4.36583 0 0 255
-12.5094 5.86838 -4.49565 0 0 255
-15.9955 7.11409 -3.82527 0 0 255
-12.4788 5.87207 -4.72838 0 0 255
-12.5313 6.9473 -4.46511 0 0 255
-12.5289 6.56258 -4.43334 0 0 255
-12.5394 6.4548 -4.42639 0 0 255
-12.5287 6.37434 -4.41845 0 0 255
-12.5317 6.22698 -4.40753 0 0 255
-12.529 6.11491 -4.39859 0 0 255
-12.5292 5.96851 -4.38767 0 0 255
-12.535 5.68215 -4.36782 0 0 255
-12.5303 5.53735 -4.35689 0 0 255
-12.8043 5.44206 -4.39363 0 0 255
-12.8916 5.44311 -4.40753 0 0 255
-12.9683 5.43931 -4.41944 0 0 255
-13.2842 5.46102 -4.47107 0 0 255
-13.7287 5.45443 -4.54155 0 0 255
-14.0468 5.46545 -4.59318 0 0 255
-14.5482 5.46285 -4.6736 0 0 255
-14.6693 5.46866 -4.69345 0 0 255
-14.7796 5.46991 -4.71132 0 0 255
-15.2218 5.47001 -4.7828 0 0 255
-15.9312 5.4703 -4.89797 0 0 255
-16.037 5.46415 -4.91485 0 0 255
-16.7368 5.48201 -5.03001 0 0 255
-17.0207 5.48578 -5.07667 0 0 255
-17.6063 5.49076 -5.17297 0 0 255
-12.4233 5.47249 -4.9209 0 0 255
-12.4962 6.58323 -4.67244 0 0 255
-12.5145 6.66889 -4.56121 0 0 255
-12.5201 6.6338 -4.55913 0 0 255
-12.513 6.57315 -4.55288 0 0 255
-12.5465 6.4209 -4.5456 0 0 255
-12.5155 6.36762 -4.53623 0 0 255
-12.5089 5.97708 -4.50397 0 0 255
-12.5145 5.92516 -4.50085 0 0 255
-12.5145 5.81656 -4.49252 0 0 255
-12.5538 5.47676 -4.47379 0 0 255
-12.6144 5.46761 -4.48316 0 0 255
-13.0503 5.47369 -4.55601 0 0 255
-13.127 5.46933 -4.5685 0 0 255
-13.2411 5.48005 -4.58827 0 0 255
-13.3843 5.46512 -4.61117 0 0 255
-13.6636 5.46609 -4.658 0 0 255
-15.1053 5.4686 -4.90153 0 0 255
-15.3427 5.4724 -4.94211 0 0 255
-15.6077 5.48362 -4.98791 0 0 255
-15.9406 5.47352 -5.0441 0 0 255
-16.068 5.47473 -5.06596 0 0 255
-16.2229 5.4846 -5.09302 0 0 255
-16.3615 5.48827 -5.11695 0 0 255
-16.6172 5.48649 -5.16067 0 0 255
-12.5357 5.53974 -4.71133 0 0 255
-12.5054 6.66406 -4.68115 0 0 255
-12.4945 6.22698 -4.64142 0 0 255
-12.4972 6.1177 -4.63271 0 0 255
-12.4943 6.02478 -4.62455 0 0 255
-12.4711 5.83237 -4.60495 0 0 255
-12.509 5.77799 -4.60713 0 0 255
-12.5056 5.6331 -4.59516 0 0 255
-12.4966 5.5757 -4.58917 0 0 255
-12.5085 5.52773 -4.58754 0 0 255
-12.5005 5.4888 -4.58318 0 0 255
-12.5029 5.45455 -4.581 0 0 255
-12.7265 5.44468 -4.6191 0 0 255
-12.8135 5.446 -4.63434 0 0 255
-12.9059 5.44917 -4.65067 0 0 255
-13.009 5.45638 -4.66918 0 0 255
-13.1729 5.45184 -4.69748 0 0 255
-13.2763 5.45777 -4.71599 0 0 255
-13.5282 5.44919 -4.75953 0 0 255
-13.7464 5.46145 -4.79872 0 0 255
-13.8235 5.45418 -4.81178 0 0 255
-14.0262 5.45741 -4.8477 0 0 255
-14.1249 5.45731 -4.86512 0 0 255
-14.2184 5.45472 -4.88145 0 0 255
-14.3227 5.4558 -4.89996 0 0 255
-14.3948 5.44422 -4.91193 0 0 255
-14.5423 5.46063 -4.93915 0 0 255
-14.7353 5.45352 -4.97289 0 0 255
-14.9448 5.4506 -5.0099 0 0 255
-15.055 5.45041 -5.0295 0 0 255
-15.4242 5.4603 -5.0959 0 0 255
-15.5349 5.45804 -5.11549 0 0 255
-15.6347 5.4515 -5.13291 0 0 255
-15.8726 5.45016 -5.17537 0 0 255
-14.9316 5.44578 -5.14428 0 0 255
-15.4393 6.82289 -2.91276 0 0 255
-12.4346 6.62633 -4.78747 0 0 255
-12.4909 6.61835 -4.79656 0 0 255
-12.4764 6.53505 -4.78633 0 0 255
-12.4868 6.42774 -4.77838 0 0 255
-12.4711 6.34501 -4.76815 0 0 255
-12.4805 6.27548 -4.7636 0 0 255
-12.4696 6.23303 -4.75792 0 0 255
-12.4836 6.1662 -4.75451 0 0 255
-12.4662 6.08426 -4.74428 0 0 255
-12.4743 6.0151 -4.73974 0 0 255
-12.4715 5.94106 -4.73292 0 0 255
-12.4771 5.83516 -4.72497 0 0 255
-12.5046 5.77593 -4.72497 0 0 255
-12.514 5.67261 -4.71815 0 0 255
-12.5302 5.60851 -4.71588 0 0 255
-12.533 5.50308 -4.70792 0 0 255
-12.5484 5.43901 -4.70565 0 0 255
-12.6351 5.44105 -4.72156 0 0 255
-12.9222 5.45605 -4.77497 0 0 255
-13.0275 5.42785 -4.79201 0 0 255
-13.2071 5.42935 -4.82497 0 0 255
-13.4799 5.4297 -4.87496 0 0 255
-13.5727 5.42972 -4.89201 0 0 255
-13.6496 5.42298 -4.90565 0 0 255
-13.8548 5.46649 -4.94656 0 0 255
-13.9608 5.43198 -4.9636 0 0 255
-14.2406 5.42455 -5.01474 0 0 255
-14.4114 5.41147 -5.04542 0 0 255
-14.5318 5.41742 -5.06814 0 0 255
-14.7622 5.42372 -5.11133 0 0 255
-15.0869 5.42153 -5.17155 0 0 255
-14.3228 5.3782 -5.15904 0 0 255
-12.4251 5.42059 -4.79909 0 0 255
-12.3827 6.22631 -4.86185 0 0 255
-12.3666 6.18155 -4.85474 0 0 255
-12.368 6.12735 -4.85001 0 0 255
-12.3751 6.02167 -4.84172 0 0 255
-12.3721 5.87573 -4.8281 0 0 255
-12.3592 5.81582 -4.8204 0 0 255
-12.3642 5.76456 -4.81685 0 0 255
-12.4251 5.63231 -4.81685 0 0 255
-12.4162 5.57518 -4.81034 0 0 255
-12.4176 5.52281 -4.8062 0 0 255
-12.4484 5.39568 -4.80146 0 0 255
-12.5349 5.3979 -4.81804 0 0 255
-12.5951 5.38846 -4.82869 0 0 255
-12.6818 5.38999 -4.84527 0 0 255
-12.7579 5.38667 -4.85948 0 0 255
-12.8499 5.38967 -4.87724 0 0 255
-12.9315 5.38786 -4.89263 0 0 255
-13.0555 5.40324 -4.9175 0 0 255
-13.1584 5.40933 -4.93763 0 0 255
-13.2403 5.4063 -4.95302 0 0 255
-13.404 5.39916 -4.9838 0 0 255
-13.4913 5.39718 -5.00038 0 0 255
-13.584 5.39694 -5.01814 0 0 255
-13.8893 5.40414 -5.07734 0 0 255
-13.993 5.40633 -5.09747 0 0 255
-14.0754 5.39984 -5.11286 0 0 255
-16.1335 7.03844 -3.09861 0 0 255
-12.3859 6.1912 -4.9794 0 0 255
-12.3792 6.11465 -4.97078 0 0 255
-12.3732 6.07519 -4.96585 0 0 255
-12.3741 6.02113 -4.96093 0 0 255
-12.3734 5.93036 -4.9523 0 0 255
-12.3771 5.89608 -4.94984 0 0 255
-12.3859 5.86427 -4.94861 0 0 255
-12.379 5.82513 -4.94368 0 0 255
-12.4389 5.70986 -4.94491 0 0 255
-12.4212 5.6661 -4.93752 0 0 255
-12.4308 5.61717 -4.93506 0 0 255
-12.4246 5.56123 -4.9289 0 0 255
-12.4221 5.52478 -4.92521 0 0 255
-12.4686 5.40444 -4.92398 0 0 255
-12.783 5.39728 -4.98556 0 0 255
-12.9511 5.39604 -5.01881 0 0 255
-13.0697 5.4091 -5.04345 0 0 255
-13.2489 5.40982 -5.07917 0 0 255
-13.3306 5.40636 -5.09518 0 0 255
-13.423 5.40682 -5.11365 0 0 255
-12.3673 6.12703 -5.0899 0 0 255
-12.3625 5.96122 -5.07263 0 0 255
-12.3667 5.87313 -5.06496 0 0 255
-12.3632 5.74622 -5.05217 0 0 255
-12.4015 5.62164 -5.04833 0 0 255
-12.4214 5.5775 -5.04833 0 0 255
-12.4203 5.524 -5.04321 0 0 255
-12.4137 5.46827 -5.03682 0 0 255
-12.4616 5.40141 -5.04065 0 0 255
-12.5269 5.39445 -5.05345 0 0 255
-12.6185 5.39844 -5.07263 0 0 255
-12.7048 5.3998 -5.09054 0 0 255
-12.7702 5.39189 -5.10334 0 0 255
-12.8568 5.39253 -5.12124 0 0 255
-13.0617 5.4058 -5.16474 0 0 255
-13.159 5.40957 -5.1852 0 0 255
-12.4463 5.50025 -5.16537 0 0 255
-15.592 7.11252 -3.35593 0 0 255
-16.126 7.17212 -3.692 0 0 255
-12.4243 5.81048 -5.19057 0 0 255
-12.4258 5.73954 -5.18394 0 0 255
-12.4238 5.70293 -5.17996 0 0 255
-12.4305 5.56387 -5.16802 0 0 255
-12.4228 5.52511 -5.16272 0 0 255
-12.4437 5.46385 -5.16139 0 0 255
-12.4304 5.42293 -5.15476 0 0 255
-12.459 5.40024 -5.15874 0 0 255
-12.6155 5.39718 -5.1919 0 0 255
-15.4416 7.08818 -2.91877 0 0 255
-12.3895 6.41485 -4.88079 0 0 255
-15.4343 7.17364 -2.92035 0 0 255
-12.5629 6.92593 -4.46809 0 0 255
-15.8217 7.12685 -3.22792 0 0 255
-12.54 6.99104 -4.47007 0 0 255
-15.4277 6.94935 -2.91498 0 0 255
-15.4334 6.90797 -2.91434 0 0 255
-15.4123 6.68035 -2.90834 0 0 255
-15.1343 7.34204 -2.9096 0 0 255
-15.4569 7.31827 -2.92478 0 0 255
-15.4008 6.58879 -2.90581 0 0 255
-12.6515 7.41137 -2.91514 0 0 255
-14.4051 7.37206 -3.00998 0 0 255
-15.4979 7.114 -3.06432 0 0 255
-15.4569 7.00665 -3.05922 0 0 255
-15.2928 6.75817 -3.04353 0 0 255
-15.6626 7.01057 -3.21428 0 0 255
-15.6472 6.95917 -3.2118 0 0 255
-15.5196 6.94655 -3.4876 0 0 255
-14.288 6.39531 -3.89566 0 0 255
-12.6185 7.07404 -3.99631 0 0 255
-12.6468 7.48944 -4.15296 0 0 255
-12.5474 7.17168 -4.48645 0 0 255
-12.5297 6.83037 -4.45518 0 0 255
-12.5611 6.80889 -4.45816 0 0 255
-12.5189 6.94042 -4.70837 0 0 255
-12.5243 6.75058 -4.69204 0 0 255
-12.4098 6.38808 -4.88197 0 0 255
-12.361 6.21541 -4.97694 0 0 255
