ply
format ascii 1.0
comment Created by Open3D
element vertex 817
property double x
property double y
property double z
property uchar red
property uchar green
property uchar blue
end_header
6.61842 1.26253 -3.86553 255 0 0
6.12176 0.370578 -3.80835 255 0 0
5.69011 -0.6299 -3.89701 255 0 0
7.68987 -0.447206 -3.25942 255 0 0
6.79383 0.882819 -3.53376 255 0 0
6.11099 0.581307 -3.81001 255 0 0
6.74489 0.860202 -3.52225 255 0 0
6.10336 0.852033 -3.87288 255 0 0
7.33768 -0.54905 -4.10331 255 0 0
6.13791 0.998273 -3.88991 255 0 0
5.95723 0.143614 -3.81102 255 0 0
6.66696 -0.451199 -3.61307 255 0 0
6.75171 0.168123 -3.51201 255 0 0
6.49298 -0.710978 -3.8085 255 0 0
7.65284 0.920726 -3.72564 255 0 0
5.68709 1.02907 -3.86194 255 0 0
6.24905 0.932875 -3.863 255 0 0
7.12776 -0.245147 -3.91101 255 0 0
8.32417 0.286295 -4.30613 255 0 0
8.54799 0.946271 -4.00058 255 0 0
6.1059 0.398668 -3.80421 255 0 0
6.64636 -0.38652 -3.37468 255 0 0
7.12785 0.448446 -3.8502 255 0 0
8.31471 0.226771 -4.30301 255 0 0
5.8527 -0.676008 -3.95227 255 0 0
7.23822 -0.472623 -3.81494 255 0 0
7.15093 0.843159 -3.99365 255 0 0
6.73765 -0.279724 -3.33407 255 0 0
7.1441 -0.160972 -3.66228 255 0 0
7.62118 -0.316405 -3.24714 255 0 0
7.1392 0.619387 -3.72986 255 0 0
7.55542 0.628433 -3.23958 255 0 0
9.55693 0.794915 -3.24227 255 0 0
7.20927 0.487921 -3.74429 255 0 0
8.21295 0.0681571 -4.12773 255 0 0
6.6755 -0.515434 -3.55748 255 0 0
9.55155 -0.351184 -3.23814 255 0 0
7.18343 -0.0425805 -3.98896 255 0 0
6.73824 0.135809 -3.33332 255 0 0
6.83124 0.608992 -3.3568 255 0 0
5.70775 0.907488 -3.86194 255 0 0
7.36312 -0.472016 -4.04287 255 0 0
6.03551 0.33664 -3.83713 255 0 0
7.52006 0.760357 -3.2358 255 0 0
6.90075 -0.409514 -3.3676 255 0 0
8.29398 0.226205 -4.22319 255 0 0
6.51558 -0.815263 -3.75946 255 0 0
8.52766 0.41482 -4.06099 255 0 0
8.29581 0.206572 -4.37206 255 0 0
6.17037 0.936091 -3.89672 255 0 0
8.48119 -0.452882 -3.24408 255 0 0
6.78867 -0.297968 -3.4031 255 0 0
6.82214 -0.153692 -3.34998 255 0 0
6.56241 -0.805324 -3.77158 255 0 0
8.32436 0.128302 -4.23077 255 0 0
6.8428 -0.235346 -3.35453 255 0 0
7.12339 0.566997 -3.66228 255 0 0
8.06611 -0.430718 -3.25185 255 0 0
6.01669 0.264084 -3.83032 255 0 0
5.20528 1.00576 -4.0048 255 0 0
7.22348 0.488863 -3.74772 255 0 0
6.84644 0.840179 -3.48416 255 0 0
7.23465 0.722829 -3.8192 255 0 0
8.35672 -0.485987 -3.87403 255 0 0
6.47316 0.91931 -3.75188 255 0 0
6.87983 -0.138672 -3.42086 255 0 0
8.50258 0.131049 -4.05275 255 0 0
6.45056 -0.498053 -3.61881 255 0 0
6.75155 0.285616 -3.51287 255 0 0
6.81076 0.121126 -3.28887 255 0 0
6.3323 -0.549382 -3.81686 255 0 0
7.23708 0.455319 -3.75047 255 0 0
6.61339 0.899266 -3.66997 255 0 0
6.2843 0.999154 -3.87625 255 0 0
6.1046 -0.0579114 -3.80007 255 0 0
7.56012 -0.385725 -3.23769 255 0 0
6.74516 -0.440428 -3.51329 255 0 0
6.05353 -0.337645 -3.8978 255 0 0
7.30368 -0.442125 -3.25886 255 0 0
6.0262 -0.00714411 -3.83145 255 0 0
6.27301 0.0669328 -3.84975 255 0 0
6.80891 -0.315051 -3.34847 255 0 0
7.14274 0.500415 -3.91858 255 0 0
6.19376 0.110153 -3.82657 255 0 0
6.05998 -0.612728 -3.90654 255 0 0
8.43941 0.350375 -4.03901 255 0 0
7.07544 0.749313 -3.90646 255 0 0
6.87584 0.481716 -3.42323 255 0 0
6.88215 0.737094 -3.3693 255 0 0
6.90132 0.913432 -3.43744 255 0 0
6.13344 -0.598127 -3.87288 255 0 0
6.12735 -0.370903 -3.81001 255 0 0
7.2251 0.575092 -3.81352 255 0 0
8.40609 0.329028 -4.03076 255 0 0
6.85229 0.27636 -3.29758 255 0 0
6.96806 -0.305841 -3.93115 255 0 0
8.19976 0.0388738 -4.3439 255 0 0
6.82828 0.641379 -3.3568 255 0 0
7.17255 -0.280746 -4.05182 255 0 0
6.06096 0.831468 -3.85926 255 0 0
6.49295 1.01655 -3.76097 255 0 0
6.68038 1.29077 -3.82311 255 0 0
8.39618 0.288772 -4.02802 255 0 0
7.19965 0.495822 -3.8057 255 0 0
5.9974 -0.256124 -3.82436 255 0 0
7.02427 -0.0582926 -3.88221 255 0 0
6.68219 1.32402 -3.94721 255 0 0
6.33911 1.03871 -3.83617 255 0 0
6.9034 -0.458997 -3.36873 255 0 0
6.01033 -0.106891 -3.82691 255 0 0
6.81603 -0.169725 -3.40783 255 0 0
6.78647 0.0402071 -3.40132 255 0 0
6.54123 1.15162 -3.83897 255 0 0
6.1002 0.238759 -3.80007 255 0 0
6.74919 0.00800121 -3.33521 255 0 0
6.58637 0.903546 -3.60483 255 0 0
6.52453 1.14071 -3.8933 255 0 0
6.55084 -0.867044 -3.8296 255 0 0
8.43681 0.91372 -3.97404 255 0 0
9.1142 -0.421694 -3.2591 255 0 0
6.79377 0.104711 -3.2856 255 0 0
6.53369 0.975366 -3.65292 255 0 0
6.19665 1.03802 -3.90949 255 0 0
6.60913 1.12322 -3.85616 255 0 0
6.56709 -0.49139 -3.58971 255 0 0
5.62435 -0.676675 -3.98224 255 0 0
8.43159 0.249966 -4.03626 255 0 0
8.27901 -0.481468 -4.00191 255 0 0
6.47531 -0.716824 -3.92096 255 0 0
6.69215 0.246052 -3.49922 255 0 0
7.1288 0.584444 -3.72665 255 0 0
7.30788 0.451062 -3.83199 255 0 0
5.97809 -0.461574 -3.87681 255 0 0
6.4736 -0.499832 -3.73976 255 0 0
6.65165 0.00788558 -3.4312 255 0 0
6.0566 0.634161 -3.85075 255 0 0
6.74874 0.0880532 -3.39363 255 0 0
7.53637 0.924846 -3.83291 255 0 0
5.9522 0.190587 -3.80989 255 0 0
7.40364 -0.412949 -3.27574 255 0 0
7.06914 -0.327073 -4.02285 255 0 0
6.89905 0.516229 -3.91553 255 0 0
7.60149 0.750387 -3.8439 255 0 0
6.80635 -0.41202 -3.64605 255 0 0
6.13364 0.517497 -3.81498 255 0 0
6.04921 0.503169 -3.84479 255 0 0
6.89543 0.871081 -3.37498 255 0 0
7.14323 0.636805 -3.92161 255 0 0
7.42568 -0.431842 -3.27971 255 0 0
6.89784 -0.0899569 -3.42441 255 0 0
5.19157 -0.655871 -4.02869 255 0 0
6.54843 -0.819353 -3.82725 255 0 0
6.7711 -0.12042 -3.33976 255 0 0
6.96361 0.222972 -3.31826 255 0 0
8.16647 0.455497 -3.97443 255 0 0
6.02987 -0.214551 -3.83372 255 0 0
8.58512 -0.152682 -3.8475 255 0 0
6.09648 0.282048 -3.79952 255 0 0
6.8785 0.334598 -3.30302 255 0 0
6.8371 0.365091 -3.35453 255 0 0
7.04093 0.864047 -3.34221 255 0 0
7.0063 -0.290877 -3.69276 255 0 0
6.7251 0.922578 -3.51969 255 0 0
6.57253 -0.885776 -3.89572 255 0 0
6.56622 -0.766316 -3.83038 255 0 0
7.07311 0.885024 -3.34874 255 0 0
7.14823 0.54338 -3.73055 255 0 0
6.09901 -0.267697 -3.80007 255 0 0
7.11279 0.68512 -3.78793 255 0 0
8.26007 0.146901 -4.28739 255 0 0
7.09871 0.581987 -3.90848 255 0 0
6.65277 -0.513666 -3.55217 255 0 0
6.02544 -0.178632 -3.83202 255 0 0
6.72126 0.231166 -3.50562 255 0 0
5.90876 -0.413963 -3.85407 255 0 0
7.1554 -0.0424143 -4.04538 255 0 0
8.37216 0.0893306 -4.09493 255 0 0
7.56913 0.602476 -3.24147 255 0 0
6.19263 -0.552048 -3.83319 255 0 0
8.2578 -0.421321 -3.28145 255 0 0
6.93094 0.817207 -3.38066 255 0 0
6.26816 -0.618773 -3.8572 255 0 0
7.26466 0.839095 -3.9595 255 0 0
6.83346 0.137738 -3.29322 255 0 0
6.77743 0.0883866 -3.39955 255 0 0
6.64009 0.0393598 -3.42873 255 0 0
7.54749 0.582748 -3.23769 255 0 0
7.04325 0.678422 -3.278 255 0 0
7.39504 0.978779 -4.13228 255 0 0
6.0296 0.812605 -3.84905 255 0 0
7.18393 0.623269 -3.61435 255 0 0
7.13579 0.499927 -3.85313 255 0 0
6.41454 1.01986 -3.79835 255 0 0
7.1711 0.570793 -3.61051 255 0 0
6.61827 -0.46367 -3.66002 255 0 0
6.18106 0.669419 -3.83319 255 0 0
8.4094 0.229353 -4.03076 255 0 0
8.38326 0.268429 -4.24744 255 0 0
6.04896 0.136274 -3.83883 255 0 0
7.1987 -0.128025 -3.92919 255 0 0
7.55157 0.673207 -3.23958 255 0 0
6.84589 0.0730454 -3.47307 255 0 0
6.35166 -0.520728 -3.82169 255 0 0
7.13967 -0.220154 -3.66162 255 0 0
7.05195 0.865399 -4.03089 255 0 0
6.12483 0.973799 -3.8848 255 0 0
6.77389 0.232976 -3.34089 255 0 0
7.31997 0.705076 -3.7752 255 0 0
8.42343 0.0898777 -4.03351 255 0 0
6.7294 0.890678 -3.51969 255 0 0
6.85022 0.512575 -3.29976 255 0 0
7.19474 0.882922 -3.30923 255 0 0
7.59731 -0.333461 -3.24336 255 0 0
8.35559 0.00990561 -4.09066 255 0 0
7.55687 -0.152319 -3.2358 255 0 0
7.16258 -0.382471 -3.23404 255 0 0
6.05229 -0.337576 -3.84224 255 0 0
7.25126 0.594498 -3.56545 255 0 0
7.11364 -0.447552 -3.28737 255 0 0
6.87566 -0.383501 -3.48169 255 0 0
6.15539 0.0218919 -3.81498 255 0 0
6.87875 0.171286 -3.30193 255 0 0
6.13296 1.33162e-05 -3.80835 255 0 0
8.23575 0.107405 -4.35436 255 0 0
7.21379 0.505392 -3.68218 255 0 0
5.94672 -0.345833 -3.86456 255 0 0
6.11263 0.333666 -3.80504 255 0 0
6.02695 0.465346 -3.83713 255 0 0
6.30999 -0.607793 -3.81203 255 0 0
6.03704 -0.308016 -3.83713 255 0 0
6.0508 0.73526 -3.85245 255 0 0
6.86086 0.908077 -3.48908 255 0 0
6.13827 -0.162585 -3.81056 255 0 0
6.35716 -0.536356 -3.70945 255 0 0
7.62797 0.725625 -3.25281 255 0 0
8.41077 0.991689 -3.97006 255 0 0
7.35922 0.991798 -4.12262 255 0 0
6.6933 0.902052 -3.51201 255 0 0
6.21632 -0.554173 -3.89672 255 0 0
7.12183 -0.380295 -3.91101 255 0 0
6.45392 -0.745452 -3.85709 255 0 0
6.83523 0.389375 -3.2954 255 0 0
7.36514 -0.48091 -3.97769 255 0 0
7.40295 0.483379 -3.59624 255 0 0
5.93823 -0.657369 -3.92478 255 0 0
6.95383 0.653172 -3.44217 255 0 0
7.27763 0.666182 -3.63609 255 0 0
9.21402 0.481068 -3.90513 255 0 0
8.40657 0.0498308 -4.10345 255 0 0
7.31497 0.77468 -3.84052 255 0 0
7.2069 -0.264978 -3.99678 255 0 0
7.15465 0.552417 -3.85901 255 0 0
9.22786 -0.0328192 -4.06591 255 0 0
6.60037 1.24291 -3.91986 255 0 0
6.54739 -0.76407 -3.76628 255 0 0
7.0106 0.641739 -3.82377 255 0 0
6.43734 0.945376 -3.80147 255 0 0
6.1086 0.478935 -3.8067 255 0 0
6.58315 0.343704 -3.70776 255 0 0
6.75197 -0.200171 -3.33635 255 0 0
6.18702 -0.625573 -3.88991 255 0 0
6.44186 0.938229 -3.7443 255 0 0
7.50758 0.723147 -3.68854 255 0 0
7.6351 0.826894 -3.25564 255 0 0
6.13706 0.437286 -3.81415 255 0 0
7.73707 -0.431547 -3.26698 255 0 0
7.16475 0.331497 -4.05021 255 0 0
6.10299 -0.151969 -3.80007 255 0 0
7.43845 0.984519 -4.0775 255 0 0
8.23689 0.244194 -4.20804 255 0 0
5.98141 -0.148942 -3.8184 255 0 0
6.96459 0.189948 -3.31826 255 0 0
5.9706 -0.290435 -3.8167 255 0 0
6.79132 0.394946 -3.34582 255 0 0
6.10686 0.544415 -3.8078 255 0 0
6.1362 -0.313071 -3.81166 255 0 0
7.31622 0.880227 -3.2678 255 0 0
6.62963 -0.829534 -3.84991 255 0 0
6.70671 0.920055 -3.57472 255 0 0
6.00636 -0.377888 -3.8838 255 0 0
6.88083 0.0244719 -3.30193 255 0 0
6.89409 0.188025 -3.54399 255 0 0
7.10936 -0.126436 -4.0325 255 0 0
8.25501 0.137012 -4.35999 255 0 0
9.53944 0.759305 -3.23964 255 0 0
6.81484 0.77077 -3.41612 255 0 0
6.13419 -0.458997 -3.86948 255 0 0
6.80724 0.250284 -3.28887 255 0 0
7.67154 -0.354945 -3.25564 255 0 0
7.29656 -0.476432 -3.32067 255 0 0
7.18081 0.349304 -4.05503 255 0 0
6.58707 1.18386 -3.85303 255 0 0
6.38164 0.929481 -3.84342 255 0 0
5.40757 1.1115 -4.08764 255 0 0
5.38591 1.05391 -3.92035 255 0 0
6.72015 -0.422796 -3.62544 255 0 0
7.1416 0.619596 -3.79362 255 0 0
6.89121 0.482774 -3.36665 255 0 0
9.07842 -0.441611 -3.2543 255 0 0
9.09379 0.50722 -4.03904 255 0 0
7.20164 -0.556045 -4.06469 255 0 0
7.20648 0.341986 -3.99756 255 0 0
8.47066 -0.432182 -3.24238 255 0 0
7.18135 0.520233 -3.7381 255 0 0
7.96529 0.881766 -3.24199 255 0 0
7.42462 0.946891 -3.8068 255 0 0
7.15193 0.594852 -3.60667 255 0 0
5.60199 -0.339115 -3.80807 255 0 0
7.41571 0.874365 -3.28468 255 0 0
7.13395 -0.304659 -3.91328 255 0 0
6.80467 0.851435 -3.47554 255 0 0
7.10268 0.531466 -3.90848 255 0 0
8.18781 0.242739 -4.34148 255 0 0
6.14107 -0.058234 -3.81084 255 0 0
8.12861 -0.453386 -3.26172 255 0 0
7.97156 -0.349887 -3.23661 255 0 0
7.58768 0.658297 -3.24525 255 0 0
7.67711 0.757852 -3.26131 255 0 0
7.58627 0.794304 -3.24714 255 0 0
7.7882 0.862161 -3.28115 255 0 0
7.68277 0.868935 -3.26414 255 0 0
7.64051 0.882507 -3.25753 255 0 0
8.28749 0.186704 -4.2952 255 0 0
7.24024 0.6714 -3.75528 255 0 0
6.49589 -0.672326 -3.86675 255 0 0
6.90789 0.155624 -3.30738 255 0 0
8.201 0.165302 -4.3447 255 0 0
7.04132 -0.150265 -4.01319 255 0 0
7.76377 -0.469977 -3.2717 255 0 0
7.68611 -0.282597 -3.25753 255 0 0
7.5787 -0.206697 -3.23958 255 0 0
7.5572 -0.134401 -3.2358 255 0 0
7.51522 0.868035 -3.30155 255 0 0
7.42932 0.662309 -3.60486 255 0 0
6.12822 0.356388 -3.81001 255 0 0
7.15049 0.791558 -3.92768 255 0 0
6.13388 -0.240091 -3.81001 255 0 0
8.43009 0.973707 -3.97404 255 0 0
7.50902 0.732285 -3.62334 255 0 0
7.389 -0.464876 -3.27376 255 0 0
6.99684 0.648849 -3.26916 255 0 0
7.25974 0.873432 -3.32067 255 0 0
7.10114 0.888532 -3.29257 255 0 0
6.52545 1.08514 -3.89089 255 0 0
6.10977 -0.0941687 -3.80173 255 0 0
7.15426 -0.314014 -4.04699 255 0 0
6.54245 -0.489546 -3.75794 255 0 0
7.14344 -0.432425 -3.29257 255 0 0
6.94392 0.0576258 -3.31391 255 0 0
6.88049 0.0734145 -3.30193 255 0 0
6.85728 0.089428 -3.29758 255 0 0
7.00437 0.207654 -3.32588 255 0 0
6.91131 0.237702 -3.30846 255 0 0
6.903 0.302986 -3.30738 255 0 0
6.81448 0.347682 -3.29105 255 0 0
6.68064 0.372623 -3.26601 255 0 0
6.9911 0.891602 -3.3335 255 0 0
6.51425 1.123 -3.94911 255 0 0
6.1298 0.196261 -3.80835 255 0 0
8.3812 -0.487411 -4.10061 255 0 0
6.81463 -0.218202 -3.34885 255 0 0
7.28859 0.675917 -3.70275 255 0 0
7.56902 0.765308 -3.63688 255 0 0
8.51379 0.922057 -3.84257 255 0 0
5.13468 0.408702 -3.80239 255 0 0
6.98108 -0.455832 -3.3237 255 0 0
6.83473 -0.0405136 -3.29322 255 0 0
6.75486 0.0320252 -3.33635 255 0 0
6.7145 0.0557219 -3.32839 255 0 0
6.79476 0.0724999 -3.3443 255 0 0
6.75712 0.0961305 -3.33692 255 0 0
6.7471 0.168008 -3.33521 255 0 0
6.76391 0.184475 -3.33862 255 0 0
6.78642 0.201193 -3.34317 255 0 0
6.75669 0.232384 -3.33748 255 0 0
6.78675 0.2737 -3.34373 255 0 0
6.75095 0.304328 -3.33692 255 0 0
6.83262 0.340493 -3.35339 255 0 0
6.84428 0.438766 -3.3568 255 0 0
6.83921 0.511752 -3.3568 255 0 0
6.87234 0.530619 -3.36362 255 0 0
7.10325 0.45535 -3.90722 255 0 0
6.84751 0.553193 -3.35907 255 0 0
6.79971 0.573694 -3.34998 255 0 0
6.89561 0.598254 -3.3693 255 0 0
6.81682 0.640303 -3.35453 255 0 0
6.82924 0.690521 -3.35794 255 0 0
6.88069 0.69571 -3.36817 255 0 0
6.88244 0.786687 -3.37044 255 0 0
6.89948 0.838394 -3.37498 255 0 0
6.94925 0.903016 -3.38635 255 0 0
6.93001 0.917229 -3.38294 255 0 0
6.50913 1.11417 -3.88767 255 0 0
6.66247 1.33654 -3.94239 255 0 0
5.53361 1.15109 -4.13735 255 0 0
7.22113 0.574776 -3.87663 255 0 0
5.46747 -0.723652 -4.08557 255 0 0
6.47695 -0.717012 -3.86273 255 0 0
6.65681 -0.482234 -3.66997 255 0 0
8.47752 -0.493012 -3.97537 255 0 0
6.8448 -0.430638 -3.3568 255 0 0
6.83622 -0.381301 -3.35453 255 0 0
6.80885 -0.355487 -3.34885 255 0 0
6.76729 -0.256849 -3.33976 255 0 0
6.78166 -0.163533 -3.34203 255 0 0
6.83454 -0.10534 -3.35226 255 0 0
6.73139 -0.0877862 -3.3318 255 0 0
6.75463 -0.0640632 -3.33635 255 0 0
6.80077 -0.0403123 -3.34544 255 0 0
6.78364 -0.0160909 -3.34203 255 0 0
6.8811 0.0407885 -3.42086 255 0 0
6.833 0.332385 -3.41257 255 0 0
6.88531 0.375855 -3.42382 255 0 0
6.85048 0.430995 -3.41731 255 0 0
6.87805 0.449105 -3.42323 255 0 0
6.92273 0.468509 -3.4327 255 0 0
6.78889 0.491802 -3.40547 255 0 0
6.88938 0.531893 -3.42678 255 0 0
6.84107 0.560851 -3.41731 255 0 0
6.91972 0.583819 -3.43388 255 0 0
6.84048 0.601646 -3.4179 255 0 0
6.92681 0.634069 -3.43625 255 0 0
6.91642 0.68276 -3.43507 255 0 0
6.92619 0.700311 -3.43744 255 0 0
6.90369 0.722839 -3.43329 255 0 0
6.78421 0.734741 -3.40902 255 0 0
6.86224 0.759657 -3.42559 255 0 0
6.84528 0.807106 -3.42323 255 0 0
6.8452 0.831802 -3.42382 255 0 0
5.99624 -0.213407 -3.82351 255 0 0
6.46188 -0.684335 -3.91599 255 0 0
6.72201 -0.422913 -3.56676 255 0 0
5.46128 -0.643923 -3.92422 255 0 0
6.73753 -0.447959 -3.57074 255 0 0
6.79345 -0.467875 -3.40606 255 0 0
6.83047 -0.38098 -3.41257 255 0 0
6.88289 -0.367536 -3.42323 255 0 0
6.64894 -0.339235 -3.37468 255 0 0
6.84412 -0.276041 -3.41435 255 0 0
6.80266 -0.233965 -3.40547 255 0 0
6.84904 -0.219304 -3.41494 255 0 0
6.89277 -0.196164 -3.42382 255 0 0
6.86801 -0.154726 -3.41849 255 0 0
6.84027 -0.105428 -3.41257 255 0 0
6.9095 -0.0737242 -3.42678 255 0 0
8.25775 0.244812 -4.28739 255 0 0
6.84664 -0.0486945 -3.41375 255 0 0
6.93854 -0.0164378 -3.4327 255 0 0
6.8117 0.0565285 -3.46568 255 0 0
7.33325 0.496292 -3.58146 255 0 0
7.34347 0.514477 -3.58392 255 0 0
7.23818 0.541577 -3.56175 255 0 0
7.20966 0.53947 -3.55559 255 0 0
7.54091 0.699305 -3.62949 255 0 0
8.43762 0.934053 -3.82656 255 0 0
8.41831 0.952126 -3.82287 255 0 0
6.92994 0.817088 -3.5014 255 0 0
6.87115 0.826679 -3.48908 255 0 0
6.85374 0.874084 -3.48662 255 0 0
6.87571 0.926635 -3.49278 255 0 0
6.07385 0.353226 -3.84905 255 0 0
6.06082 0.28042 -3.84394 255 0 0
8.25125 0.185888 -4.35919 255 0 0
6.72476 -0.487156 -3.50945 255 0 0
7.11476 -0.194044 -3.65565 255 0 0
6.79295 -0.50829 -3.46568 255 0 0
6.84096 -0.479272 -3.47554 255 0 0
6.81923 -0.461505 -3.47061 255 0 0
6.85041 -0.422839 -3.47677 255 0 0
8.47771 -0.311702 -3.82533 255 0 0
8.55347 -0.273879 -3.84134 255 0 0
8.49771 -0.22168 -3.82902 255 0 0
8.53279 -0.19223 -3.83641 255 0 0
9.12506 0.0108178 -4.04288 255 0 0
9.18215 0.0326566 -4.05567 255 0 0
9.15919 0.054292 -4.05056 255 0 0
8.77051 0.0727841 -3.96357 255 0 0
6.78511 0.201154 -3.51969 255 0 0
6.77015 0.297155 -3.51713 255 0 0
6.73117 0.335434 -3.50881 255 0 0
7.24121 0.472818 -3.62458 255 0 0
7.30278 0.494229 -3.63865 255 0 0
7.18189 0.503157 -3.61179 255 0 0
7.16231 0.535927 -3.60795 255 0 0
7.19651 0.538487 -3.61563 255 0 0
7.27919 0.648925 -3.63609 255 0 0
7.29309 0.685039 -3.63993 255 0 0
7.46035 0.736455 -3.67831 255 0 0
7.53817 0.762189 -3.69622 255 0 0
8.44715 0.914839 -3.90217 255 0 0
8.57558 0.949325 -3.93159 255 0 0
8.40865 0.951033 -3.89449 255 0 0
8.43475 0.974245 -3.90089 255 0 0
7.06649 0.867183 -3.59388 255 0 0
6.82061 0.85343 -3.53888 255 0 0
6.79081 0.948001 -3.53504 255 0 0
6.66114 -0.530203 -3.61307 255 0 0
6.4745 -0.763389 -3.86353 255 0 0
8.35234 0.188145 -4.31317 255 0 0
7.31272 -0.503619 -4.09527 255 0 0
6.70528 -0.51772 -3.50562 255 0 0
6.84101 -0.462978 -3.53504 255 0 0
6.7804 -0.426587 -3.52097 255 0 0
6.83272 -0.413616 -3.53248 255 0 0
9.2731 -0.0989437 -4.07614 255 0 0
9.37616 -0.0778103 -4.09916 255 0 0
8.56598 0.010155 -3.99262 255 0 0
8.43467 0.0499974 -3.9621 255 0 0
8.41162 0.0797854 -3.9568 255 0 0
7.29119 0.458723 -3.69943 255 0 0
7.29463 0.493678 -3.70076 255 0 0
7.19991 0.538769 -3.67953 255 0 0
7.16581 0.53619 -3.67157 255 0 0
7.18385 0.59752 -3.67688 255 0 0
7.21009 0.625538 -3.68351 255 0 0
7.6523 0.737087 -3.78831 255 0 0
8.56839 0.969099 -4.00588 255 0 0
6.95482 0.870223 -3.63044 255 0 0
6.77882 0.897218 -3.59064 255 0 0
6.70534 0.887493 -3.5734 255 0 0
6.65932 0.929646 -3.56411 255 0 0
6.73951 0.973443 -3.58401 255 0 0
8.24911 0.264133 -4.35919 255 0 0
8.30595 0.295544 -4.22698 255 0 0
6.6722 -0.483349 -3.55615 255 0 0
6.6335 -0.464738 -3.54686 255 0 0
6.8027 -0.411799 -3.58534 255 0 0
7.19411 -0.315777 -3.67511 255 0 0
7.15218 -0.27147 -3.66494 255 0 0
7.1132 -0.244646 -3.65565 255 0 0
7.1619 -0.127371 -3.66626 255 0 0
8.45762 -0.0100266 -3.96741 255 0 0
8.43529 0.0100001 -4.03626 255 0 0
8.43514 0.0500002 -4.03626 255 0 0
8.41793 0.0698582 -4.03214 255 0 0
8.55978 0.111631 -4.06649 255 0 0
8.39981 0.149386 -4.02802 255 0 0
8.42198 0.179745 -4.03351 255 0 0
8.39854 0.20913 -4.02802 255 0 0
8.32857 0.266678 -4.01153 255 0 0
8.46372 0.311188 -4.0445 255 0 0
8.39785 0.388549 -4.02939 255 0 0
7.25676 0.646926 -3.75871 255 0 0
7.72427 0.781005 -3.87413 255 0 0
8.41236 0.931257 -4.04313 255 0 0
8.39987 0.990404 -4.04176 255 0 0
8.30708 0.999439 -4.01977 255 0 0
7.50027 0.938472 -3.82466 255 0 0
6.88614 0.894814 -3.67627 255 0 0
6.69109 0.893659 -3.62956 255 0 0
6.62931 0.925456 -3.61582 255 0 0
6.71162 0.953176 -3.63643 255 0 0
6.67554 0.964205 -3.62818 255 0 0
6.58877 0.967624 -3.60757 255 0 0
7.11435 0.430664 -4.03733 255 0 0
6.01117 -0.0356318 -3.82691 255 0 0
6.58045 -0.539484 -3.59383 255 0 0
6.58293 -0.508273 -3.59383 255 0 0
6.59718 -0.470066 -3.59658 255 0 0
7.11103 -0.464318 -3.72024 255 0 0
7.0617 -0.326729 -3.7065 255 0 0
7.21598 -0.316723 -3.7436 255 0 0
7.04678 -0.275823 -3.70238 255 0 0
7.1498 -0.262879 -3.72711 255 0 0
7.05675 -0.125501 -3.70375 255 0 0
8.48082 -0.0100541 -4.04725 255 0 0
8.34963 0.0692914 -4.08924 255 0 0
7.26089 0.474103 -3.82062 255 0 0
7.19375 0.538258 -3.80499 255 0 0
7.18409 0.588972 -3.80357 255 0 0
6.99867 0.623918 -3.75809 255 0 0
7.08202 0.648277 -3.77941 255 0 0
7.18791 0.675159 -3.80641 255 0 0
7.62023 0.953482 -3.92153 255 0 0
7.5785 0.966517 -3.91158 255 0 0
7.5086 0.975699 -3.89453 255 0 0
6.60905 0.93063 -3.66997 255 0 0
6.05049 0.58281 -3.84734 255 0 0
6.55222 -0.54498 -3.6451 255 0 0
6.54802 -0.489963 -3.64297 255 0 0
6.75179 -0.424786 -3.69271 255 0 0
8.32151 -0.00986521 -4.08213 255 0 0
8.36046 0.0495575 -4.16591 255 0 0
6.53573 0.380087 -3.69601 255 0 0
6.60271 0.399693 -3.71364 255 0 0
7.18276 0.477567 -3.86488 255 0 0
7.20179 0.530284 -3.87076 255 0 0
7.1569 0.595279 -3.86048 255 0 0
6.40878 0.910167 -3.67693 255 0 0
8.26864 0.0490132 -4.21562 255 0 0
8.3194 0.0690406 -4.22925 255 0 0
8.35796 0.148642 -4.23986 255 0 0
8.32345 0.177642 -4.23077 255 0 0
8.24926 0.205413 -4.21107 255 0 0
8.26811 0.323628 -4.21713 255 0 0
6.59417 0.344262 -3.76931 255 0 0
6.55247 0.381041 -3.7587 255 0 0
7.18341 0.486151 -3.92919 255 0 0
7.05457 0.612045 -3.89737 255 0 0
7.05159 0.645491 -3.89737 255 0 0
6.97683 0.655333 -3.87767 255 0 0
6.99427 0.690463 -3.88322 255 0 0
6.9703 0.721471 -3.87767 255 0 0
7.44409 0.985249 -4.01204 255 0 0
6.53241 0.904021 -3.76704 255 0 0
6.41941 0.973873 -3.73976 255 0 0
6.42827 0.990813 -3.74279 255 0 0
6.58664 1.14352 -3.79128 255 0 0
6.48921 1.14246 -3.76552 255 0 0
6.64795 1.18667 -3.80947 255 0 0
6.60887 1.21206 -3.80038 255 0 0
6.58784 1.23242 -3.79583 255 0 0
6.52188 1.2762 -3.78068 255 0 0
6.54658 1.29715 -3.78825 255 0 0
6.6433 1.3327 -3.81553 255 0 0
5.84932 -0.381934 -3.83483 255 0 0
5.6267 -0.595887 -3.87491 255 0 0
6.57863 1.17429 -3.9102 255 0 0
6.59136 -0.904254 -3.7827 255 0 0
6.59576 -0.857081 -3.78219 255 0 0
6.64625 -0.863643 -3.79583 255 0 0
6.41514 -0.587232 -3.72612 255 0 0
6.39747 -0.562668 -3.72081 255 0 0
6.39224 -0.524054 -3.71854 255 0 0
6.43857 -0.512487 -3.73067 255 0 0
7.09641 -0.51408 -3.90646 255 0 0
7.34646 -0.505908 -3.97314 255 0 0
7.11994 -0.414062 -3.91101 255 0 0
7.05879 -0.393715 -3.89434 255 0 0
7.10576 -0.362543 -3.90646 255 0 0
7.19215 -0.332764 -3.92919 255 0 0
7.09858 -0.269436 -3.90343 255 0 0
7.1439 -0.2118 -3.91505 255 0 0
7.13014 -0.160644 -3.91101 255 0 0
7.09624 -0.159867 -3.90191 255 0 0
7.1144 -0.0927811 -3.90646 255 0 0
7.09198 -0.0756711 -3.9004 255 0 0
8.25182 -0.00978259 -4.21107 255 0 0
8.2443 0.0488689 -4.2827 255 0 0
8.28063 0.0883741 -4.29285 255 0 0
8.39017 0.129316 -4.32332 255 0 0
8.28467 0.284937 -4.2952 255 0 0
8.32272 0.325765 -4.30613 255 0 0
6.57337 0.397916 -3.82335 255 0 0
7.07364 0.445036 -3.9624 255 0 0
7.10635 0.464012 -3.97178 255 0 0
6.80518 0.737012 -3.89522 255 0 0
7.08931 0.835879 -3.97646 255 0 0
7.4803 1.02618 -4.09052 255 0 0
6.47744 0.904255 -3.81085 255 0 0
6.43058 0.913263 -3.79835 255 0 0
6.32121 0.958974 -3.77022 255 0 0
6.44482 1.00901 -3.80616 255 0 0
6.61568 1.08403 -3.85616 255 0 0
6.66875 1.10897 -3.87178 255 0 0
6.51614 1.13128 -3.83116 255 0 0
6.64798 1.22737 -3.87178 255 0 0
6.6713 1.25623 -3.87959 255 0 0
6.64157 1.29147 -3.87334 255 0 0
6.60927 1.30958 -3.86553 255 0 0
6.6836 1.34078 -3.88741 255 0 0
6.66382 1.35326 -3.88272 255 0 0
6.79878 1.39745 -3.92178 255 0 0
8.28078 0.324124 -4.36884 255 0 0
7.05414 -0.0250883 -4.01641 255 0 0
7.19687 -0.230441 -4.05825 255 0 0
6.5948 -0.920611 -3.84366 255 0 0
6.62147 -0.892371 -3.84991 255 0 0
6.5193 -0.847146 -3.82022 255 0 0
6.61108 -0.795391 -3.84366 255 0 0
6.61657 -0.748346 -3.84366 255 0 0
6.37816 -0.583846 -3.77335 255 0 0
6.35208 -0.558699 -3.76554 255 0 0
6.36653 -0.521947 -3.76866 255 0 0
6.40773 -0.502382 -3.7796 255 0 0
6.44887 -0.482544 -3.79054 255 0 0
7.42368 -0.537788 -4.06083 255 0 0
7.33044 -0.496102 -4.03427 255 0 0
7.13812 -0.406636 -3.97959 255 0 0
7.08881 -0.378532 -3.96553 255 0 0
7.14919 -0.29681 -3.98115 255 0 0
7.13859 -0.279417 -3.97803 255 0 0
7.23007 -0.248666 -4.00302 255 0 0
7.14655 -0.2119 -3.97959 255 0 0
7.15351 -0.161131 -3.98115 255 0 0
7.1084 -0.160141 -3.96865 255 0 0
7.14293 -0.127033 -3.97803 255 0 0
7.0755 -0.109053 -3.95928 255 0 0
7.16074 -0.0594251 -3.98271 255 0 0
8.3178 -0.00986081 -4.30301 255 0 0
8.19113 0.067976 -4.34148 255 0 0
8.29529 0.226241 -4.37206 255 0 0
8.29312 0.295098 -4.37206 255 0 0
6.49964 0.331618 -3.86031 255 0 0
7.05448 0.393474 -4.01963 255 0 0
7.08725 0.412161 -4.02929 255 0 0
7.02903 0.442229 -4.01319 255 0 0
6.33504 0.64054 -3.82008 255 0 0
7.02604 0.845314 -4.02285 255 0 0
7.30801 0.949635 -4.10653 255 0 0
6.43786 0.914297 -3.8587 255 0 0
6.33541 0.953439 -3.83135 255 0 0
6.3662 1.01218 -3.84261 255 0 0
6.36934 1.02816 -3.84422 255 0 0
6.50065 1.09686 -3.88445 255 0 0
6.55502 1.19416 -3.90457 255 0 0
6.57232 1.26989 -3.91342 255 0 0
6.65769 1.30277 -3.93917 255 0 0
6.05805 -0.424422 -3.84564 255 0 0
6.49139 -0.937606 -3.8748 255 0 0
6.57102 -0.917326 -3.89652 255 0 0
6.54595 -0.913819 -3.88928 255 0 0
6.49647 -0.859848 -3.87319 255 0 0
6.55432 -0.851697 -3.88928 255 0 0
6.49682 -0.812929 -3.87158 255 0 0
6.53594 -0.817811 -3.88284 255 0 0
6.52857 -0.785463 -3.87962 255 0 0
6.46858 -0.716078 -3.86031 255 0 0
6.40631 -0.663093 -3.841 255 0 0
6.33799 -0.61049 -3.82008 255 0 0
6.43054 -0.588641 -3.84583 255 0 0
6.29992 -0.531526 -3.80721 255 0 0
6.409 -0.510134 -3.83778 255 0 0
7.10784 -0.413367 -4.03519 255 0 0
7.08186 -0.294015 -4.02607 255 0 0
7.15632 -0.263118 -4.04699 255 0 0
7.06127 -0.24286 -4.01963 255 0 0
7.13011 -0.202922 -4.03894 255 0 0
7.07451 -0.176161 -4.02285 255 0 0
7.1215 -0.0590994 -4.03572 255 0 0
6.26203 0.0371188 -3.84644 255 0 0
6.27315 0.0520593 -3.84975 255 0 0
6.34012 0.0902144 -3.86962 255 0 0
6.14637 0.138441 -3.81277 255 0 0
6.1106 0.181137 -3.80256 255 0 0
6.1306 0.31279 -3.81001 255 0 0
6.06389 0.395944 -3.79179 255 0 0
6.09906 0.456369 -3.80338 255 0 0
6.12365 0.502035 -3.81166 255 0 0
6.12006 0.604147 -3.81332 255 0 0
6.11303 0.618091 -3.81166 255 0 0
6.13592 0.642463 -3.81912 255 0 0
6.19686 0.820192 -3.84313 255 0 0
6.26452 0.904837 -3.86631 255 0 0
6.35127 0.932745 -3.89281 255 0 0
6.15798 0.934211 -3.8365 255 0 0
6.2961 1.03166 -3.88122 255 0 0
6.47391 1.09235 -3.93586 255 0 0
6.52128 1.14811 -3.95242 255 0 0
6.64571 1.18626 -3.99051 255 0 0
6.50331 1.18474 -3.94911 255 0 0
6.50511 -0.845302 -3.93421 255 0 0
6.50807 -0.82216 -3.93421 255 0 0
6.45051 -0.76058 -3.91516 255 0 0
6.43233 -0.696631 -3.90771 255 0 0
6.18522 -0.507083 -3.82988 255 0 0
6.21556 -0.479908 -3.83816 255 0 0
6.24017 -0.452052 -3.84478 255 0 0
6.16049 -0.42427 -3.82077 255 0 0
6.12397 -0.203355 -3.8067 255 0 0
6.14309 -0.11653 -3.81166 255 0 0
6.09923 -0.0216921 -3.79842 255 0 0
5.98875 0.0355078 -3.8201 255 0 0
5.98534 0.0922708 -3.81925 255 0 0
5.96015 0.0918626 -3.81159 255 0 0
5.97413 0.20547 -3.8167 255 0 0
5.98707 0.234364 -3.82095 255 0 0
6.04027 0.236426 -3.83713 255 0 0
6.029 0.300437 -3.83457 255 0 0
5.99713 0.320238 -3.82521 255 0 0
6.03948 0.387159 -3.83926 255 0 0
6.05702 0.438788 -3.84564 255 0 0
6.07051 0.483191 -3.85075 255 0 0
6.05077 0.539392 -3.84621 255 0 0
5.99751 0.606411 -3.83202 255 0 0
6.07102 0.657501 -3.85586 255 0 0
6.04926 0.684191 -3.85018 255 0 0
6.01443 0.709144 -3.84053 255 0 0
6.07595 0.760253 -3.86096 255 0 0
6.10559 0.793373 -3.87118 255 0 0
6.12783 0.796276 -3.87799 255 0 0
6.14014 0.872015 -3.8848 255 0 0
6.20907 0.90435 -3.90693 255 0 0
6.13933 0.916495 -3.8865 255 0 0
6.0978 0.947289 -3.87544 255 0 0
6.10274 -0.565931 -3.86267 255 0 0
6.03901 -0.523937 -3.84224 255 0 0
6.1146 -0.493996 -3.86437 255 0 0
6.0392 -0.451903 -3.84053 255 0 0
6.0814 -0.411571 -3.85245 255 0 0
5.98823 -0.376748 -3.82351 255 0 0
6.02266 -0.36458 -3.83372 255 0 0
6.08503 -0.353877 -3.85245 255 0 0
6.05308 -0.323225 -3.84224 255 0 0
6.05456 -0.1364 -3.84053 255 0 0
6.03272 -0.107262 -3.83372 255 0 0
6.02197 -0.0785344 -3.83032 255 0 0
5.98293 -0.0638376 -3.8184 255 0 0
5.89559 -0.441144 -3.85057 255 0 0
5.8678 -0.355205 -3.84008 255 0 0
5.56787 0.496365 -3.80089 255 0 0
5.79719 -0.613942 -3.8781 255 0 0
5.42657 0.470802 -3.80493 255 0 0
5.50446 0.982552 -3.85281 255 0 0
5.31344 0.372255 -3.81426 255 0 0
5.6421 -0.665244 -3.93509 255 0 0
5.49244 -0.608019 -3.88223 255 0 0
5.36382 -0.503822 -3.83503 255 0 0
5.58431 -0.685293 -4.02133 255 0 0
5.28501 -0.635848 -3.91244 255 0 0
5.11724 1.02656 -4.02339 255 0 0
5.41862 -0.678005 -4.01333 255 0 0
5.29155 -0.674853 -4.01723 255 0 0
5.18435 1.05281 -4.05091 255 0 0
5.26482 1.09517 -4.08477 255 0 0
9.11492 0.508399 -3.88501 255 0 0
9.24461 0.0547984 -3.98914 255 0 0
