ply
format ascii 1.0
comment Created by Open3D
element vertex 208
property double x
property double y
property double z
property uchar red
property uchar green
property uchar blue
end_header
5.5015 -24.2741 -3.34591 255 0 0
4.33236 -24.1055 -4.34802 255 0 0
4.09443 -24.4426 -4.37596 255 0 0
4.58874 -24.8545 -3.99972 255 0 0
4.06062 -24.5986 -4.59946 255 0 0
6.51166 -24.3982 -3.36551 255 0 0
7.1153 -24.3295 -4.43016 255 0 0
5.16405 -24.3897 -4.18113 255 0 0
4.66483 -24.9354 -4.00711 255 0 0
4.74836 -23.5253 -4.5023 255 0 0
6.65168 -24.4568 -3.5819 255 0 0
5.21453 -24.3432 -4.17807 255 0 0
6.35967 -24.5277 -3.15907 255 0 0
5.7355 -24.2379 -3.34685 255 0 0
7.10939 -24.3092 -4.64075 255 0 0
6.55659 -24.5666 -3.16308 255 0 0
4.17315 -24.2075 -4.5612 255 0 0
4.52613 -23.575 -4.50291 255 0 0
4.17267 -24.2047 -4.35472 255 0 0
6.5847 -24.4392 -3.36867 255 0 0
5.69101 -24.0499 -3.5425 255 0 0
6.34536 -24.2359 -3.98217 255 0 0
5.53446 -24.691 -3.15746 255 0 0
4.62325 -23.4789 -4.49502 255 0 0
6.44931 -24.3966 -3.36456 255 0 0
4.12601 -24.2777 -4.36087 255 0 0
6.77632 -24.4565 -3.79579 255 0 0
5.6271 -24.2933 -3.34843 255 0 0
5.01041 -23.6641 -4.31896 255 0 0
6.31594 -24.359 -3.36077 255 0 0
5.61487 -23.9818 -3.74289 255 0 0
4.19744 -24.0082 -4.54116 255 0 0
6.9645 -24.4582 -3.79951 255 0 0
4.95542 -25.1658 -3.60086 255 0 0
7.03551 -24.2701 -4.63467 255 0 0
5.10284 -24.976 -3.37847 255 0 0
4.52248 -24.8252 -4.20767 255 0 0
5.84488 -24.1877 -3.34559 255 0 0
6.72913 -24.5119 -3.79869 255 0 0
4.04786 -24.5213 -4.38266 255 0 0
6.32029 -24.1401 -4.18317 255 0 0
5.97071 -24.2051 -3.34812 255 0 0
4.7334 -24.9742 -3.79869 255 0 0
5.14994 -24.9053 -4.01219 255 0 0
6.04223 -24.2476 -3.35128 255 0 0
4.41965 -23.6248 -4.50595 255 0 0
5.57359 -24.5922 -3.15345 255 0 0
6.97312 -24.2699 -4.63285 255 0 0
5.57732 -24.3408 -3.35033 255 0 0
4.43815 -24.0389 -4.34355 255 0 0
5.17804 -23.6253 -4.52173 255 0 0
6.05444 -24.5446 -3.15639 255 0 0
4.45947 -24.8128 -4.20562 255 0 0
5.37975 -24.8269 -3.16201 255 0 0
4.72619 -24.0017 -4.34522 255 0 0
5.82136 -25.132 -4.47319 255 0 0
4.4583 -23.5227 -4.49623 255 0 0
5.49457 -23.9797 -3.74082 255 0 0
6.70965 -24.441 -3.5819 255 0 0
6.283 -24.232 -3.77141 255 0 0
4.49728 -24.0397 -4.34466 255 0 0
6.25565 -24.1265 -3.97201 255 0 0
4.12648 -24.2805 -4.56788 255 0 0
5.2765 -24.9208 -3.16522 255 0 0
6.1423 -24.4025 -3.99094 255 0 0
5.75345 -24.0591 -3.54396 255 0 0
4.82014 -25.1063 -3.80902 255 0 0
7.13382 -24.3928 -4.22349 255 0 0
5.13368 -23.6913 -4.32399 255 0 0
4.34097 -23.8288 -4.52538 255 0 0
5.27335 -24.6178 -3.3614 255 0 0
6.72374 -24.4923 -3.37341 255 0 0
6.90555 -24.4714 -3.587 255 0 0
4.54558 -23.9832 -4.34019 255 0 0
5.41606 -24.7112 -3.15719 255 0 0
5.66455 -24.7215 -3.16014 255 0 0
5.70599 -24.6339 -3.15666 255 0 0
5.84159 -24.6863 -3.16041 255 0 0
7.03422 -24.4825 -4.01542 255 0 0
5.88514 -24.6098 -3.15746 255 0 0
6.01704 -24.6441 -3.16041 255 0 0
6.1211 -24.5642 -3.158 255 0 0
6.15363 -24.4475 -3.15318 255 0 0
6.48039 -24.5142 -3.15987 255 0 0
5.13718 -24.8436 -3.37183 255 0 0
5.17212 -24.7169 -3.36551 255 0 0
5.23313 -24.716 -3.36614 255 0 0
5.32428 -24.5709 -3.3595 255 0 0
5.45032 -24.3156 -3.34749 255 0 0
5.67668 -24.2458 -3.34654 255 0 0
5.77663 -24.156 -3.34306 255 0 0
5.90637 -24.1908 -3.34654 255 0 0
6.0997 -24.2333 -3.35128 255 0 0
6.17155 -24.2754 -3.35444 255 0 0
6.38108 -24.3723 -3.36235 255 0 0
6.65644 -24.4743 -3.37151 255 0 0
6.20877 -24.4218 -3.99372 255 0 0
4.68801 -23.5136 -4.49987 255 0 0
5.473 -24.1484 -3.54542 255 0 0
5.56503 -24.0254 -3.53922 255 0 0
5.62864 -24.0406 -3.54105 255 0 0
5.82421 -24.1022 -3.54761 255 0 0
5.88827 -24.1167 -3.54943 255 0 0
5.93423 -24.0573 -3.54652 255 0 0
6.02376 -24.1735 -3.55491 255 0 0
6.58912 -24.4556 -3.5808 255 0 0
6.77851 -24.4644 -3.58445 255 0 0
6.83964 -24.4595 -3.58518 255 0 0
7.0646 -24.3704 -4.21991 255 0 0
4.09295 -24.4338 -4.58306 255 0 0
4.88159 -24.7909 -3.78794 255 0 0
5.19809 -25.1381 -3.81646 255 0 0
5.55536 -23.9836 -3.74206 255 0 0
5.66365 -23.9343 -3.74041 255 0 0
6.86417 -24.5472 -3.80365 255 0 0
6.91125 -24.4915 -3.80075 255 0 0
4.57757 -23.5413 -4.50048 255 0 0
6.2159 -24.2093 -3.56001 255 0 0
5.41625 -23.898 -3.93876 255 0 0
4.52561 -24.8424 -3.99787 255 0 0
4.77531 -24.8728 -4.00388 255 0 0
5.18267 -24.7673 -4.00203 255 0 0
7.09712 -24.4826 -4.01681 255 0 0
4.65481 -23.9385 -4.33796 255 0 0
7.07382 -24.4022 -4.43575 255 0 0
5.14006 -23.7208 -4.12346 255 0 0
6.12666 -24.3403 -4.19593 255 0 0
6.38496 -24.1532 -4.18572 255 0 0
7.2329 -24.5157 -4.23624 255 0 0
7.41049 -24.4748 -4.66625 255 0 0
5.05253 -23.5869 -4.51505 255 0 0
4.22904 -24.189 -4.35416 255 0 0
4.28943 -24.1961 -4.35584 255 0 0
4.38532 -24.0723 -4.34578 255 0 0
4.60243 -23.9724 -4.34019 255 0 0
4.95548 -23.6816 -4.31952 255 0 0
5.07139 -23.6749 -4.3212 255 0 0
7.19276 -24.3796 -4.43686 255 0 0
7.31538 -24.5804 -4.45866 255 0 0
7.46917 -24.8811 -4.49051 255 0 0
7.49773 -24.7629 -4.48045 255 0 0
7.56153 -24.7618 -4.48213 255 0 0
7.92908 -25.3193 -4.54359 255 0 0
4.24825 -23.9638 -4.53752 255 0 0
4.28652 -23.8505 -4.52659 255 0 0
4.37419 -23.6925 -4.51202 255 0 0
4.99177 -23.576 -4.51263 255 0 0
5.11584 -23.609 -4.5187 255 0 0
6.30586 -24.5597 -3.15987 255 0 0
5.30784 -23.68 -4.53023 255 0 0
6.08444 -24.4171 -4.20154 255 0 0
4.8018 -23.5025 -4.50109 255 0 0
5.64815 -23.8688 -4.14592 255 0 0
6.24653 -24.3286 -3.35824 255 0 0
5.3417 -23.831 -3.93229 255 0 0
6.91078 -24.2696 -4.63103 255 0 0
5.04361 -24.988 -3.37847 255 0 0
5.36875 -24.4954 -3.35602 255 0 0
5.41922 -24.4483 -3.35413 255 0 0
5.43618 -24.2525 -3.55126 255 0 0
5.50544 -24.0271 -3.53849 255 0 0
6.28208 -24.2285 -3.5622 255 0 0
5.12912 -25.1046 -3.81315 255 0 0
5.38974 -24.0453 -3.74372 255 0 0
5.42995 -23.9584 -3.73834 255 0 0
5.88204 -24.5968 -3.78959 255 0 0
5.21738 -23.8048 -3.92814 255 0 0
5.28139 -23.8265 -3.93091 255 0 0
5.8682 -25.0637 -4.03667 255 0 0
5.66416 -23.9364 -3.94615 255 0 0
5.96254 -24.9334 -4.02835 255 0 0
6.10136 -24.485 -3.99649 255 0 0
6.24488 -24.3222 -3.98679 255 0 0
5.10979 -24.419 -4.18266 255 0 0
5.20878 -23.7655 -4.12857 255 0 0
5.27016 -23.7759 -4.13061 255 0 0
5.33545 -23.8031 -4.13418 255 0 0
5.39703 -23.8132 -4.13622 255 0 0
5.87078 -25.0748 -4.25308 255 0 0
6.24781 -24.3336 -4.19797 255 0 0
4.7546 -23.8476 -4.33125 255 0 0
4.79037 -23.7334 -4.3212 255 0 0
4.9005 -23.699 -4.32008 255 0 0
5.19358 -23.6962 -4.32567 255 0 0
5.2611 -23.735 -4.33069 255 0 0
5.93083 -24.8008 -4.44469 255 0 0
6.02795 -24.9453 -4.46033 255 0 0
6.02753 -24.4355 -4.41284 255 0 0
6.30662 -24.0879 -4.38713 255 0 0
4.8634 -23.5196 -4.50413 255 0 0
4.93585 -23.5878 -4.51263 255 0 0
5.24412 -23.6584 -4.52659 255 0 0
5.57334 -23.8044 -4.54906 255 0 0
6.00153 -24.0843 -4.58792 255 0 0
6.21798 -23.9812 -4.58306 255 0 0
6.35842 -24.0528 -4.59399 255 0 0
6.47544 -24.0337 -4.59521 255 0 0
6.64175 -24.1936 -4.61585 255 0 0
6.70065 -24.1834 -4.61646 255 0 0
6.76111 -24.1787 -4.61767 255 0 0
6.83582 -24.2242 -4.62435 255 0 0
7.19502 -24.3873 -4.65107 255 0 0
7.23953 -24.3255 -4.64621 255 0 0
7.33235 -24.4254 -4.65896 255 0 0
7.4685 -24.4572 -4.66625 255 0 0
7.55561 -24.534 -4.67657 255 0 0
7.62067 -24.5383 -4.679 255 0 0
7.68231 -24.5313 -4.68022 255 0 0
