ply
format ascii 1.0
comment Created by Open3D
element vertex 1026
property double x
property double y
property double z
property uchar red
property uchar green
property uchar blue
end_header
7.05388 0.578298 -3.77088 255 0 0
4.95543 -0.0058747 -3.82699 255 0 0
4.86734 0.579744 -3.85361 255 0 0
8.04047 -0.352912 -4.15651 255 0 0
6.38079 0.219456 -3.59749 255 0 0
6.9123 -0.401987 -3.91709 255 0 0
6.74217 -0.183882 -4.11119 255 0 0
6.15045 0.918155 -3.72179 255 0 0
5.20305 -0.607233 -3.9313 255 0 0
5.14178 0.74267 -3.81786 255 0 0
6.93878 0.39527 -3.98664 255 0 0
6.93952 0.901752 -4.06338 255 0 0
6.91004 0.972996 -4.05758 255 0 0
5.89359 0.694896 -3.85757 255 0 0
6.21023 1.13894 -3.91885 255 0 0
6.08904 0.901583 -3.81498 255 0 0
5.08758 -0.526597 -3.88573 255 0 0
6.87733 0.383614 -4.09337 255 0 0
6.74203 0.440224 -4.05336 255 0 0
5.47408 -0.632277 -3.97976 255 0 0
7.88849 0.0841699 -4.18427 255 0 0
5.34626 0.451066 -3.82748 255 0 0
5.26517 0.952725 -3.92234 255 0 0
6.29578 -0.306253 -3.97301 255 0 0
7.15146 -0.161111 -3.85313 255 0 0
4.9409 0.299095 -3.82496 255 0 0
6.47766 -0.484698 -3.6828 255 0 0
8.00782 0.541945 -4.00823 255 0 0
6.98846 0.531231 -3.94053 255 0 0
7.02682 -0.258357 -4.07331 255 0 0
6.82668 -0.186187 -4.07549 255 0 0
6.90004 -0.0245402 -3.84887 255 0 0
7.02405 0.324987 -4.07331 255 0 0
5.32331 -0.183086 -3.81426 255 0 0
5.6568 0.0201186 -3.82244 255 0 0
6.29312 0.231381 -3.6314 255 0 0
5.35399 -0.663473 -3.98903 255 0 0
6.94531 0.0164876 -3.861 255 0 0
4.76164 0.630231 -3.81633 255 0 0
5.68981 0.229476 -3.83456 255 0 0
8.85899 0.599549 -4.14343 255 0 0
4.88432 -0.0984501 -3.8474 255 0 0
8.09669 0.278458 -4.24312 255 0 0
6.99102 0.581475 -3.69345 255 0 0
8.93558 0.562179 -4.16129 255 0 0
5.43021 0.128775 -3.85013 255 0 0
8.02917 0.562517 -4.08514 255 0 0
5.49488 0.913762 -3.89733 255 0 0
7.51827 0.169375 -4.21739 255 0 0
4.90761 0.732621 -3.87639 255 0 0
6.11323 -0.00724728 -3.91354 255 0 0
5.25029 -0.694907 -4.00273 255 0 0
5.30558 -0.0314494 -3.85653 255 0 0
8.03676 0.429151 -4.15651 255 0 0
5.91242 0.725558 -3.86456 255 0 0
6.4705 0.06904 -4.02548 255 0 0
4.8634 0.0057656 -3.83911 255 0 0
6.87973 -0.252949 -4.15492 255 0 0
5.28298 0.0772711 -3.8488 255 0 0
5.29745 1.04965 -3.99105 255 0 0
7.01364 -0.224574 -3.81789 255 0 0
5.94998 0.11993 -3.86282 255 0 0
5.2998 0.688679 -3.87007 255 0 0
6.3561 0.286542 -3.64829 255 0 0
5.49311 0.4897 -3.87845 255 0 0
6.25043 0.872565 -3.80399 255 0 0
6.93952 0.58548 -3.86605 255 0 0
5.2825 -0.26324 -3.85073 255 0 0
7.95709 0.235899 -4.2755 255 0 0
5.02043 0.712995 -3.86952 255 0 0
5.8176 -0.352166 -3.82433 255 0 0
5.51472 0.0457652 -3.87845 255 0 0
5.33071 0.500712 -3.8237 255 0 0
6.13721 1.21604 -3.84478 255 0 0
6.40617 0.863356 -3.61738 255 0 0
4.95642 -0.572485 -3.88675 255 0 0
5.90716 0.924838 -3.87156 255 0 0
5.65017 0.625493 -3.83141 255 0 0
8.90641 0.475589 -4.15305 255 0 0
6.08051 -0.498498 -3.85415 255 0 0
5.61679 -0.166517 -3.86202 255 0 0
6.01116 0.535883 -3.88905 255 0 0
5.78759 0.460671 -3.81734 255 0 0
7.95408 0.937842 -4.07486 255 0 0
5.38994 0.935703 -3.86335 255 0 0
5.314 -0.170152 -3.8604 255 0 0
5.63497 0.800272 -3.88596 255 0 0
8.00249 -0.313231 -4.1459 255 0 0
5.58357 0.524463 -3.85834 255 0 0
6.86271 -0.0244075 -3.9617 255 0 0
5.43416 0.393662 -3.8558 255 0 0
5.34584 -0.0126849 -3.82087 255 0 0
6.97837 0.638789 -3.87767 255 0 0
6.22573 -0.540136 -3.78629 255 0 0
6.01363 0.235384 -3.8838 255 0 0
4.67903 0.596735 -3.82867 255 0 0
6.62347 -0.432482 -3.89733 255 0 0
5.57034 0.416807 -3.85097 255 0 0
5.86457 0.747932 -3.85057 255 0 0
6.86117 0.89157 -4.10274 255 0 0
6.5779 -0.335611 -3.70629 255 0 0
6.94473 0.635728 -3.80663 255 0 0
4.90677 -0.578543 -3.91545 255 0 0
6.2936 -0.410921 -3.74627 255 0 0
6.98991 0.157472 -4.12487 255 0 0
5.64938 0.580244 -3.82962 255 0 0
6.17419 -0.705729 -3.83236 255 0 0
5.70973 -0.536314 -3.84757 255 0 0
5.55057 0.977208 -3.86755 255 0 0
4.89124 -0.360178 -3.85465 255 0 0
5.66923 0.901362 -3.84937 255 0 0
6.43848 0.805616 -3.56635 255 0 0
5.59445 0.72694 -3.86939 255 0 0
5.2311 -0.711327 -4.04668 255 0 0
6.37748 -0.41642 -3.71248 255 0 0
5.98019 0.979886 -3.78682 255 0 0
5.05922 -0.0779768 -3.86547 255 0 0
5.99097 0.894348 -3.89605 255 0 0
6.07859 0.534635 -3.79924 255 0 0
5.36507 -0.0445233 -3.82748 255 0 0
6.97177 0.0413259 -3.80615 255 0 0
5.60527 -0.179479 -3.85834 255 0 0
5.68268 -0.31696 -3.88596 255 0 0
6.45332 0.760892 -3.91599 255 0 0
6.90715 0.566269 -3.98101 255 0 0
5.93039 0.337829 -3.85932 255 0 0
6.21895 -0.643701 -3.90012 255 0 0
4.98886 -0.528337 -3.8971 255 0 0
7.98572 0.0662714 -4.13984 255 0 0
5.16355 0.20211 -3.80819 255 0 0
6.53067 -0.441975 -3.58009 255 0 0
6.55464 -0.0233118 -4.05172 255 0 0
6.89571 -0.0245114 -3.90928 255 0 0
6.97255 0.629922 -3.69001 255 0 0
5.78792 -0.309066 -3.86732 255 0 0
4.66223 0.19356 -3.76456 255 0 0
5.80119 -0.447915 -3.87451 255 0 0
5.47697 0.645773 -3.87845 255 0 0
5.46734 0.188039 -3.86335 255 0 0
4.8866 -0.418051 -3.85465 255 0 0
5.09363 0.56387 -3.84117 255 0 0
6.13795 -0.65003 -3.81994 255 0 0
5.50243 0.0913269 -3.84899 255 0 0
5.54532 0.177559 -3.88978 255 0 0
6.37116 0.507122 -3.88453 255 0 0
5.2111 -0.0803176 -3.82366 255 0 0
5.99032 -0.448232 -3.88031 255 0 0
4.76305 -0.129905 -3.80183 255 0 0
4.93766 0.582185 -3.83306 255 0 0
5.129 0.965811 -3.92421 255 0 0
6.93447 0.634789 -3.92803 255 0 0
7.95428 0.103734 -4.27389 255 0 0
5.68411 0.0808548 -3.83141 255 0 0
6.88361 -0.0244951 -4.02971 255 0 0
6.45885 -0.375616 -3.61881 255 0 0
5.35936 0.813055 -3.84636 255 0 0
5.07682 0.51332 -3.83325 255 0 0
6.58339 -0.163941 -3.58971 255 0 0
7.01902 0.541944 -3.82377 255 0 0
5.03071 -0.468491 -3.86277 255 0 0
5.81536 0.587994 -3.82958 255 0 0
4.97733 0.0295036 -3.83509 255 0 0
4.70063 0.452776 -3.83079 255 0 0
7.97556 -0.321643 -4.21005 255 0 0
6.41796 -0.403784 -3.72309 255 0 0
6.90502 0.81415 -3.98744 255 0 0
6.18415 -0.447994 -3.82822 255 0 0
5.40407 -0.423698 -3.84636 255 0 0
6.93033 0.535101 -3.98691 255 0 0
7.05986 -0.276335 -4.08325 255 0 0
8.9059 0.17951 -4.1503 255 0 0
6.93425 0.139769 -4.10784 255 0 0
6.39956 0.265688 -3.6593 255 0 0
5.65157 -0.67995 -4.04509 255 0 0
5.23241 0.844637 -3.8546 255 0 0
6.02123 -0.407498 -3.88905 255 0 0
5.88646 1.02196 -3.92478 255 0 0
6.73613 0.584418 -3.93273 255 0 0
6.05642 0.619622 -3.7951 255 0 0
4.67996 0.778246 -3.83926 255 0 0
4.89266 0.789754 -3.85059 255 0 0
6.00048 1.01247 -3.90479 255 0 0
5.33542 0.227795 -3.81898 255 0 0
7.00941 -0.27436 -4.00515 255 0 0
6.23254 -0.630175 -4.01815 255 0 0
4.93505 -0.322236 -3.87018 255 0 0
4.72663 0.319884 -3.79148 255 0 0
4.99719 -0.148148 -3.84319 255 0 0
5.39707 -0.571546 -3.89908 255 0 0
5.63566 -0.56307 -3.87675 255 0 0
4.78208 0.386322 -3.81426 255 0 0
5.59586 1.01256 -3.93698 255 0 0
8.14486 0.289809 -4.18379 255 0 0
5.00408 0.416222 -3.85129 255 0 0
6.17278 -0.712979 -3.94502 255 0 0
7.94617 0.320448 -4.3449 255 0 0
4.97036 0.0294623 -3.78574 255 0 0
6.08496 1.1907 -3.82822 255 0 0
5.00292 0.077109 -3.79762 255 0 0
5.29037 0.364353 -3.85557 255 0 0
5.73722 -0.552622 -3.90991 255 0 0
8.19625 0.22354 -4.2702 255 0 0
6.88447 0.00816159 -3.90615 255 0 0
8.09655 0.278467 -4.31574 255 0 0
5.02191 0.652568 -3.8194 255 0 0
6.9584 0.553864 -3.93272 255 0 0
6.4719 -0.34559 -3.62165 255 0 0
4.9355 0.796708 -3.84319 255 0 0
8.03225 0.381171 -4.22645 255 0 0
9.05463 0.139557 -4.18603 255 0 0
5.24062 1.02548 -3.96877 255 0 0
5.23389 0.105496 -3.88077 255 0 0
5.62481 -0.467882 -3.87031 255 0 0
6.56841 -0.272698 -3.58696 255 0 0
5.42535 0.263911 -3.85013 255 0 0
5.69736 0.331349 -3.8386 255 0 0
4.83915 0.62882 -3.84533 255 0 0
4.98212 0.689477 -3.85433 255 0 0
5.24024 0.630409 -3.84687 255 0 0
5.33216 -0.360864 -3.87007 255 0 0
6.806 -0.1049 -4.06868 255 0 0
6.93701 0.643287 -3.74317 255 0 0
6.78169 -0.168869 -4.12343 255 0 0
4.83005 0.732754 -3.8474 255 0 0
6.08729 1.08659 -3.82326 255 0 0
6.41791 0.602833 -3.84261 255 0 0
5.29858 0.778147 -3.87394 255 0 0
4.75096 0.537342 -3.80805 255 0 0
4.93154 -0.280948 -3.84444 255 0 0
6.97251 0.554987 -3.81202 255 0 0
5.37953 0.666625 -3.84636 255 0 0
5.90138 1.06785 -3.98726 255 0 0
6.54549 -0.0387991 -3.58009 255 0 0
5.18615 0.5741 -3.85019 255 0 0
4.88185 -0.295521 -3.84947 255 0 0
7.09353 -0.395653 -3.96709 255 0 0
7.56697 0.928601 -3.97501 255 0 0
6.89815 -0.0245335 -3.78706 255 0 0
6.00635 0.896643 -3.84564 255 0 0
6.25948 0.934433 -3.69581 255 0 0
4.92654 0.480431 -3.82496 255 0 0
8.03691 0.200125 -4.29803 255 0 0
6.91187 -0.155714 -4.03854 255 0 0
4.8963 0.162579 -3.85258 255 0 0
4.84138 -0.32765 -3.83497 255 0 0
5.32995 0.284611 -3.81804 255 0 0
7.11047 -0.2108 -3.84286 255 0 0
5.27196 0.876692 -3.87007 255 0 0
5.00971 0.219886 -3.80158 255 0 0
5.28409 0.194282 -3.80105 255 0 0
7.07751 0.715611 -3.84286 255 0 0
6.37622 -0.385982 -3.76866 255 0 0
5.5806 0.657992 -3.86202 255 0 0
5.37883 0.576072 -3.84258 255 0 0
5.9431 0.544022 -3.86806 255 0 0
6.06015 1.14115 -3.81829 255 0 0
7.99372 0.41736 -4.2163 255 0 0
7.98426 0.350444 -4.35649 255 0 0
5.59572 -0.119386 -3.85465 255 0 0
5.53939 0.151078 -3.83624 255 0 0
5.59904 0.199222 -3.85649 255 0 0
5.22854 -0.478613 -3.8372 255 0 0
4.90359 0.58996 -3.82091 255 0 0
8.16845 0.261551 -4.18985 255 0 0
6.89638 0.0245139 -4.09593 255 0 0
6.16771 -0.461506 -3.87969 255 0 0
5.82644 0.145083 -3.82433 255 0 0
5.62903 -0.374213 -3.86939 255 0 0
6.32999 -0.473653 -3.70086 255 0 0
5.17956 0.467938 -3.81979 255 0 0
6.57968 0.0311877 -3.58834 255 0 0
5.94578 -0.48038 -3.86719 255 0 0
5.95074 0.687332 -3.87506 255 0 0
6.24063 0.886286 -3.74523 255 0 0
5.24584 -0.405036 -3.84106 255 0 0
4.84936 0.519368 -3.84429 255 0 0
6.5318 -0.348788 -3.69455 255 0 0
4.83823 0.177888 -3.83083 255 0 0
8.0177 0.466271 -4.15197 255 0 0
5.24302 0.138813 -3.83526 255 0 0
5.50639 0.137113 -3.82518 255 0 0
5.1321 -0.523016 -3.90193 255 0 0
6.09545 1.13287 -3.94065 255 0 0
5.89413 -0.53954 -3.90682 255 0 0
5.78614 -0.226519 -3.86553 255 0 0
5.5406 0.441012 -3.84176 255 0 0
5.54875 0.0329127 -3.83869 255 0 0
5.3262 0.347777 -3.81804 255 0 0
5.85955 0.396556 -3.83833 255 0 0
5.01607 0.663908 -3.86547 255 0 0
4.94958 -0.240768 -3.82699 255 0 0
6.98164 0.439234 -3.93688 255 0 0
5.42511 -0.109337 -3.84824 255 0 0
6.45002 0.838137 -3.685 255 0 0
7.113 0.770349 -3.91707 255 0 0
4.77958 0.736695 -3.82876 255 0 0
4.83193 0.273328 -3.83014 255 0 0
5.49417 0.175921 -3.8215 255 0 0
5.73674 -0.272239 -3.85027 255 0 0
5.50159 0.26762 -3.82518 255 0 0
7.89113 0.93042 -3.9181 255 0 0
4.98713 0.112352 -3.83914 255 0 0
5.67717 0.0291679 -3.82902 255 0 0
5.69144 0.134977 -3.83411 255 0 0
6.98651 0.933129 -4.0148 255 0 0
7.88699 0.346175 -4.18583 255 0 0
6.15335 0.88878 -3.83319 255 0 0
5.27802 0.0125274 -3.84687 255 0 0
6.44399 0.837359 -3.62591 255 0 0
6.97271 0.488502 -3.93532 255 0 0
6.50815 0.0771615 -3.57116 255 0 0
5.33961 0.940067 -3.89715 255 0 0
6.86252 -0.284908 -4.08741 255 0 0
6.90615 0.376985 -4.03937 255 0 0
5.2475 0.0373165 -3.83623 255 0 0
5.18585 -0.680104 -4.00268 255 0 0
7.00327 0.842575 -3.95303 255 0 0
5.57409 0.617058 -3.85834 255 0 0
6.95061 0.586425 -3.7453 255 0 0
5.23623 0.4668 -3.88869 255 0 0
6.29091 -0.291066 -3.97126 255 0 0
4.93592 0.605724 -3.88054 255 0 0
5.07576 -0.635105 -3.93438 255 0 0
6.15535 -0.46791 -3.76456 255 0 0
6.21058 0.897047 -3.73741 255 0 0
4.88535 0.400515 -3.85361 255 0 0
5.88805 0.532004 -3.85057 255 0 0
7.17542 0.127611 -4.18106 255 0 0
7.99311 0.331846 -4.28677 255 0 0
5.53552 -0.256116 -3.83624 255 0 0
5.2009 -0.364371 -3.92219 255 0 0
8.13513 0.241177 -4.18076 255 0 0
7.92937 0.0846061 -4.05431 255 0 0
5.58455 0.571352 -3.86018 255 0 0
8.02056 0.285373 -4.36643 255 0 0
6.9472 0.586137 -3.80615 255 0 0
6.18327 1.19472 -3.97126 255 0 0
5.34777 0.553529 -3.83125 255 0 0
6.91451 0.467953 -3.98101 255 0 0
7.95571 0.12262 -4.20301 255 0 0
5.20064 0.339578 -3.82366 255 0 0
6.12191 -0.472678 -3.86607 255 0 0
5.25814 -0.632615 -3.95257 255 0 0
5.47331 -0.175253 -3.86524 255 0 0
5.52731 0.98663 -3.91243 255 0 0
6.98793 0.373145 -4.00032 255 0 0
6.90089 0.871802 -4.05096 255 0 0
5.57931 -0.271401 -3.85097 255 0 0
7.97694 0.577867 -4.07193 255 0 0
6.9116 -0.122919 -3.91397 255 0 0
5.0937 -0.320468 -3.88168 255 0 0
6.49869 -0.0385217 -4.03423 255 0 0
6.29783 0.924911 -3.64903 255 0 0
6.9359 0.34561 -4.04765 255 0 0
6.14376 0.96188 -3.72179 255 0 0
5.25542 0.218187 -3.79161 255 0 0
6.95733 0.620232 -3.8716 255 0 0
6.17872 -0.139197 -3.93453 255 0 0
6.88416 -0.0652917 -3.90615 255 0 0
5.70051 -0.155472 -3.88965 255 0 0
4.8905 0.331052 -3.85361 255 0 0
6.94029 0.50277 -3.98905 255 0 0
5.24869 0.555854 -3.84687 255 0 0
5.46992 0.658095 -3.87656 255 0 0
5.3601 0.235265 -3.82748 255 0 0
6.45826 0.901577 -3.6316 255 0 0
8.14599 0.202842 -4.25614 255 0 0
6.40761 -0.387882 -3.72006 255 0 0
6.88934 0.746126 -3.91865 255 0 0
6.76664 -0.0721998 -4.11819 255 0 0
6.32607 0.616925 -3.81686 255 0 0
6.83692 -0.218915 -4.0789 255 0 0
5.62903 -0.414478 -3.87031 255 0 0
5.9858 0.505024 -3.88031 255 0 0
7.07887 0.521239 -3.90191 255 0 0
4.78203 0.312244 -3.81219 255 0 0
7.9934 0.493383 -4.1459 255 0 0
5.66007 -0.322431 -3.8786 255 0 0
6.07051 -0.483191 -3.85075 255 0 0
7.02579 0.0583052 -4.00837 255 0 0
4.87323 0.621502 -3.85775 255 0 0
6.14767 1.17273 -3.95902 255 0 0
5.32025 0.60173 -3.8237 255 0 0
6.07674 0.585312 -3.80007 255 0 0
6.36527 -0.506653 -3.71096 255 0 0
5.28569 0.731508 -3.86717 255 0 0
4.7962 -0.119429 -3.81426 255 0 0
5.03487 -0.173165 -3.85737 255 0 0
5.69902 -0.467222 -3.84219 255 0 0
5.99649 0.924262 -3.84394 255 0 0
5.38113 1.07949 -4.02346 255 0 0
5.41031 -0.482319 -3.85013 255 0 0
8.00395 0.991853 -4.16106 255 0 0
5.93352 0.585732 -3.86631 255 0 0
5.24206 0.782548 -3.8546 255 0 0
5.28884 -0.515791 -3.85944 255 0 0
6.27066 0.875388 -3.75304 255 0 0
5.31851 -0.525021 -3.87007 255 0 0
5.35397 -0.273165 -3.87587 255 0 0
6.89224 -0.466446 -4.03688 255 0 0
6.07127 1.08374 -3.93045 255 0 0
5.48917 0.872736 -3.84176 255 0 0
5.06395 0.0420244 -3.8194 255 0 0
5.49252 0.542198 -3.82887 255 0 0
6.97128 -0.239765 -4.05675 255 0 0
5.07813 0.968705 -3.90598 255 0 0
4.80496 0.188074 -3.8184 255 0 0
5.48928 0.806155 -3.88978 255 0 0
5.22274 -0.0185748 -3.82753 255 0 0
7.10452 -0.168471 -3.90419 255 0 0
6.93101 0.833882 -3.99549 255 0 0
5.24331 0.498775 -3.843 255 0 0
5.8749 0.805944 -3.91042 255 0 0
5.02119 0.0416695 -3.85129 255 0 0
6.85377 0.766951 -3.97135 255 0 0
6.2524 -0.0815395 -3.95727 255 0 0
5.13898 -0.562698 -3.90598 255 0 0
6.86044 0.941145 -3.9794 255 0 0
6.11273 0.957021 -3.76858 255 0 0
5.86351 0.663173 -3.84707 255 0 0
6.55738 -0.326767 -3.5849 255 0 0
5.61763 -0.0466192 -3.80987 255 0 0
6.90998 0.764942 -3.9249 255 0 0
5.81996 0.310777 -3.82433 255 0 0
7.15593 0.843734 -3.93071 255 0 0
4.78855 0.784562 -3.83497 255 0 0
5.66782 0.437617 -3.83141 255 0 0
8.03865 0.505749 -4.01534 255 0 0
7.9961 0.894791 -4.08441 255 0 0
6.49142 0.0307119 -3.56704 255 0 0
8.93433 0.180124 -4.15717 255 0 0
8.80519 0.44925 -4.12832 255 0 0
8.98482 0.501142 -4.17229 255 0 0
8.94951 0.520461 -4.16404 255 0 0
8.89144 0.53824 -4.1503 255 0 0
8.88879 0.580397 -4.1503 255 0 0
8.07967 0.566055 -3.95519 255 0 0
8.02721 0.581509 -3.94283 255 0 0
7.16874 0.536409 -3.73536 255 0 0
7.03125 0.542889 -3.70238 255 0 0
7.00065 0.665946 -3.69757 255 0 0
7.12569 0.703418 -3.72849 255 0 0
7.21939 0.738604 -3.75184 255 0 0
6.54583 0.79541 -3.59177 255 0 0
6.45815 0.831416 -3.57185 255 0 0
6.46644 0.855873 -3.5746 255 0 0
6.44716 0.89224 -3.57116 255 0 0
5.79376 0.822822 -3.88528 255 0 0
7.00685 0.859865 -3.95459 255 0 0
8.07125 -0.392619 -4.23739 255 0 0
8.06747 0.181747 -4.23426 255 0 0
4.96528 0.147203 -3.87846 255 0 0
6.10411 -0.464031 -3.80504 255 0 0
8.22614 0.224355 -4.20501 255 0 0
5.06667 0.658384 -3.8837 255 0 0
6.4749 -0.422781 -3.56635 255 0 0
6.52217 -0.36378 -3.57689 255 0 0
6.6637 -0.308314 -3.61032 255 0 0
7.8756 -0.345675 -3.90298 255 0 0
6.56335 -0.2569 -3.58559 255 0 0
6.60944 -0.243011 -3.59658 255 0 0
6.63137 -0.212311 -3.60162 255 0 0
6.5825 -0.117071 -3.58925 255 0 0
6.57747 -0.0701949 -3.58788 255 0 0
6.57119 -0.015577 -3.58628 255 0 0
8.03176 0.524437 -4.01391 255 0 0
7.05215 0.527685 -3.76946 255 0 0
7.07788 0.563374 -3.77656 255 0 0
7.00579 0.607813 -3.75951 255 0 0
7.02696 0.62644 -3.76519 255 0 0
6.96578 0.67096 -3.75098 255 0 0
7.80288 0.957552 -3.96701 255 0 0
6.53145 0.825101 -3.64723 255 0 0
6.41946 0.849655 -3.62023 255 0 0
6.52228 0.894754 -3.64723 255 0 0
6.28177 0.892128 -3.58754 255 0 0
6.09576 1.22286 -3.83319 255 0 0
7.98262 -0.388307 -3.9997 255 0 0
5.81054 -0.601428 -3.93569 255 0 0
6.33599 -0.4288 -3.58896 255 0 0
6.48062 -0.392302 -3.62449 255 0 0
6.59183 -0.336322 -3.65149 255 0 0
6.52033 -0.0850337 -3.6316 255 0 0
6.54917 -0.0388209 -3.6387 255 0 0
6.65717 -0.0236765 -3.66571 255 0 0
6.94353 0.0164767 -3.7988 255 0 0
7.77084 0.0644882 -4.01319 255 0 0
8.12724 0.125264 -4.1057 255 0 0
8.01358 0.142517 -4.07633 255 0 0
6.30711 0.142089 -3.63434 255 0 0
6.34761 0.183195 -3.64511 255 0 0
6.44235 0.175705 -3.66958 255 0 0
6.33407 0.330673 -3.64315 255 0 0
8.04544 0.487001 -4.08808 255 0 0
8.00586 0.484631 -4.0778 255 0 0
8.02546 0.533588 -4.08368 255 0 0
7.04855 0.527415 -3.83111 255 0 0
6.98692 0.681367 -3.81863 255 0 0
7.11526 0.736475 -3.85313 255 0 0
7.19805 0.762297 -3.87516 255 0 0
7.29202 0.789737 -3.90012 255 0 0
7.9788 0.921581 -4.08074 255 0 0
6.48095 0.842163 -3.69308 255 0 0
6.37016 0.858502 -3.66518 255 0 0
6.34741 0.878415 -3.66004 255 0 0
6.30216 0.895024 -3.64903 255 0 0
6.43349 0.976008 -3.68574 255 0 0
5.34108 0.374192 -3.8237 255 0 0
5.7059 -0.645348 -4.00931 255 0 0
6.49134 -0.362065 -3.68427 255 0 0
6.83424 0.0891274 -4.0772 255 0 0
5.72313 -0.0814232 -3.84398 255 0 0
6.33745 -0.459099 -3.64609 255 0 0
6.3858 -0.416945 -3.65784 255 0 0
6.42166 -0.388733 -3.66665 255 0 0
6.46217 -0.375809 -3.67693 255 0 0
7.96009 -0.387211 -4.06459 255 0 0
8.02946 -0.314278 -4.08172 255 0 0
7.08568 -0.184828 -3.83625 255 0 0
7.02715 -0.141642 -3.82083 255 0 0
6.97646 -0.124073 -3.80761 255 0 0
6.95406 -0.107182 -3.80174 255 0 0
6.89024 -0.0735455 -3.7851 255 0 0
7.12619 0.0422412 -3.90949 255 0 0
8.13824 0.0868348 -4.18076 255 0 0
8.07015 0.105245 -4.16257 255 0 0
8.00767 0.123421 -4.1459 255 0 0
8.08087 0.143714 -4.1656 255 0 0
8.15508 0.319204 -4.18682 255 0 0
8.10345 0.336427 -4.17318 255 0 0
8.00749 0.44663 -4.14893 255 0 0
7.82229 0.51076 -4.10044 255 0 0
7.05869 0.486117 -3.89585 255 0 0
6.98675 0.539453 -3.87767 255 0 0
6.96854 0.55467 -3.87312 255 0 0
6.98838 0.673133 -3.8812 255 0 0
7.00013 0.707787 -3.88524 255 0 0
7.05663 0.738866 -3.90116 255 0 0
7.10734 0.820924 -3.91707 255 0 0
6.52286 0.847609 -3.76249 255 0 0
6.37505 0.843777 -3.72309 255 0 0
6.35622 0.856624 -3.71854 255 0 0
6.29606 0.878921 -3.70339 255 0 0
6.26384 0.904739 -3.69581 255 0 0
6.28407 0.922876 -3.70187 255 0 0
8.30287 0.24615 -4.29988 255 0 0
5.01653 0.220185 -3.85129 255 0 0
4.97929 -0.301419 -3.83914 255 0 0
5.07919 -0.162634 -3.87357 255 0 0
5.92269 0.372611 -3.85757 255 0 0
5.10285 0.473194 -3.84117 255 0 0
8.05659 0.162391 -4.23114 255 0 0
5.28344 0.244453 -3.85073 255 0 0
6.33928 -0.436556 -3.70263 255 0 0
6.5779 -0.382539 -3.76552 255 0 0
7.16608 -0.399699 -3.92313 255 0 0
5.88673 0.482611 -3.84882 255 0 0
7.97562 -0.406924 -4.13984 255 0 0
8.01868 -0.332908 -4.15045 255 0 0
7.12343 -0.202732 -3.90949 255 0 0
6.93102 -0.1233 -3.85746 255 0 0
6.90533 -0.0736841 -3.85039 255 0 0
6.93113 -0.0246173 -3.85721 255 0 0
6.92108 0.0328235 -3.91631 255 0 0
6.98017 0.0579266 -3.93272 255 0 0
7.9729 0.103977 -4.2077 255 0 0
8.00053 0.142285 -4.21551 255 0 0
8.05731 0.324937 -4.2327 255 0 0
7.29636 0.406966 -4.02334 255 0 0
7.13201 0.414764 -3.97803 255 0 0
6.94257 0.585724 -3.92907 255 0 0
6.94663 0.685734 -3.93272 255 0 0
6.95929 0.728671 -3.9374 255 0 0
6.91843 0.790794 -3.92803 255 0 0
6.96041 0.820681 -3.94053 255 0 0
7.08878 0.886985 -3.97803 255 0 0
7.85354 1.00159 -4.19208 255 0 0
7.09908 0.939606 -3.98271 255 0 0
6.87872 0.927041 -3.92178 255 0 0
6.32303 0.86742 -3.7671 255 0 0
6.19169 0.90931 -3.73273 255 0 0
6.1583 0.941729 -3.72491 255 0 0
6.84061 0.00810959 -4.01701 255 0 0
5.20956 0.853627 -3.89661 255 0 0
5.87432 -0.425549 -3.84357 255 0 0
5.02127 -0.0297641 -3.85129 255 0 0
6.27152 -0.50668 -3.7421 255 0 0
6.19 -0.463173 -3.71866 255 0 0
6.19291 -0.478115 -3.74755 255 0 0
6.25406 -0.438154 -3.73585 255 0 0
4.80701 0.41705 -3.82462 255 0 0
7.70866 -0.411631 -4.13739 255 0 0
7.91814 -0.403991 -4.1952 255 0 0
7.09183 -0.142945 -3.96396 255 0 0
6.86132 -0.0894807 -3.8999 255 0 0
6.89654 0.0081759 -3.97135 255 0 0
6.90776 0.0245677 -3.97457 255 0 0
6.93584 0.0411129 -3.98262 255 0 0
7.95401 0.122594 -4.27389 255 0 0
7.9931 0.142153 -4.28516 255 0 0
7.95334 0.16031 -4.27389 255 0 0
8.10491 0.182591 -4.31734 255 0 0
7.85324 0.307389 -4.24654 255 0 0
8.18353 0.359191 -4.34148 255 0 0
7.00087 0.340551 -4.00354 255 0 0
6.9284 0.427652 -3.98423 255 0 0
6.50903 0.595826 -3.86836 255 0 0
6.37425 0.644504 -3.83135 255 0 0
6.74623 0.714448 -3.93917 255 0 0
6.89015 0.795838 -3.98262 255 0 0
6.96609 0.871632 -4.00676 255 0 0
6.16265 0.890123 -3.77985 255 0 0
6.09769 0.925112 -3.76295 255 0 0
6.15616 0.933935 -3.77985 255 0 0
5.5028 0.241528 -3.82518 255 0 0
6.13081 0.663977 -3.81829 255 0 0
4.994 0.879221 -3.86952 255 0 0
6.94628 0.936186 -4.06669 255 0 0
6.12161 -0.501868 -3.75571 255 0 0
6.21032 -0.44989 -3.77985 255 0 0
6.23384 -0.436738 -3.78629 255 0 0
6.26856 -0.424237 -3.79594 255 0 0
7.00093 -0.440461 -4.00515 255 0 0
7.06377 -0.427603 -4.02285 255 0 0
7.02188 -0.241505 -4.00837 255 0 0
7.06745 -0.226297 -4.02124 255 0 0
7.18614 -0.213043 -4.05503 255 0 0
7.07992 -0.184694 -4.02446 255 0 0
6.97923 -0.157231 -3.99549 255 0 0
6.93189 -0.131511 -3.98181 255 0 0
6.87884 -0.106022 -3.96652 255 0 0
6.86219 -0.0894919 -3.9617 255 0 0
6.8709 -0.0651693 -3.96411 255 0 0
6.87399 -0.0244476 -3.96491 255 0 0
6.87423 0.0326047 -4.02694 255 0 0
6.90777 0.0573258 -4.03688 255 0 0
6.96939 0.0743631 -4.0551 255 0 0
6.95235 0.0906677 -4.05013 255 0 0
6.93527 0.106892 -4.04516 255 0 0
6.89553 0.130791 -4.03357 255 0 0
7.9614 0.198245 -4.34821 255 0 0
7.94913 0.235654 -4.3449 255 0 0
6.8515 0.398451 -4.02363 255 0 0
6.84723 0.422639 -4.0228 255 0 0
6.8541 0.447541 -4.02529 255 0 0
6.84741 0.463412 -4.02363 255 0 0
6.81211 0.485367 -4.0137 255 0 0
6.81034 0.509591 -4.0137 255 0 0
6.57393 0.507579 -3.94414 255 0 0
6.11246 0.501117 -3.80835 255 0 0
6.16061 0.593404 -3.82491 255 0 0
6.07652 0.643524 -3.80173 255 0 0
6.09492 0.682029 -3.80835 255 0 0
6.19288 0.715301 -3.83816 255 0 0
6.87986 0.836016 -4.04351 255 0 0
6.03917 0.930841 -3.80173 255 0 0
6.00142 0.954179 -3.79179 255 0 0
6.04117 0.989892 -3.80504 255 0 0
6.01838 1.08902 -3.80338 255 0 0
6.09731 1.12572 -3.82822 255 0 0
6.07398 1.15867 -3.82326 255 0 0
6.16496 1.19119 -3.85141 255 0 0
6.1754 1.25407 -3.85803 255 0 0
6.16141 1.26645 -3.85472 255 0 0
5.15944 -0.67044 -4.01704 255 0 0
5.2844 -0.408 -3.8546 255 0 0
5.04192 -0.11956 -3.8594 255 0 0
6.08546 -0.644471 -4.02778 255 0 0
5.34842 0.733719 -3.83881 255 0 0
6.27864 -0.755394 -3.86466 255 0 0
6.15713 -0.681601 -3.82657 255 0 0
6.09724 -0.514433 -3.80421 255 0 0
7.06814 -0.444689 -4.08822 255 0 0
7.84037 -0.418664 -4.31509 255 0 0
7.0605 -0.326667 -4.08408 255 0 0
6.90447 -0.221078 -4.03688 255 0 0
6.94988 -0.206039 -4.05013 255 0 0
6.91969 -0.180518 -4.04102 255 0 0
6.93764 -0.131633 -4.04599 255 0 0
6.89596 -0.106286 -4.03357 255 0 0
6.88514 -0.0734864 -4.03026 255 0 0
6.85718 0.0243878 -4.08401 255 0 0
6.89333 0.0653753 -4.09507 255 0 0
6.92747 0.33698 -4.10784 255 0 0
6.93608 0.386871 -4.11125 255 0 0
6.83581 0.421927 -4.08145 255 0 0
6.93847 0.926723 -4.12742 255 0 0
6.70479 0.919792 -4.05677 255 0 0
5.95857 0.875074 -3.83032 255 0 0
6.02636 0.914243 -3.85245 255 0 0
6.12732 1.09373 -3.89161 255 0 0
6.09714 1.10327 -3.8831 255 0 0
5.95712 1.15103 -3.84394 255 0 0
6.04403 -0.574968 -3.90042 255 0 0
5.4937 0.397976 -3.82518 255 0 0
6.20469 -0.671978 -3.89672 255 0 0
6.93035 -0.271266 -4.10784 255 0 0
6.87499 -0.252775 -4.09082 255 0 0
6.90409 -0.221053 -4.09933 255 0 0
6.99586 -0.141011 -4.12657 255 0 0
6.88975 -0.122531 -4.09422 255 0 0
6.88475 -0.0816031 -4.09252 255 0 0
6.80657 -0.0564859 -4.06868 255 0 0
6.89072 -0.0408454 -4.09422 255 0 0
6.846 -0.0162453 -4.0806 255 0 0
6.035 0.00715453 -3.88905 255 0 0
5.99585 0.0213244 -3.87681 255 0 0
6.18013 0.043947 -3.93453 255 0 0
5.84452 0.0762201 -3.82958 255 0 0
5.91695 0.0911969 -3.85232 255 0 0
5.89437 0.104828 -3.84532 255 0 0
6.00554 0.135295 -3.88031 255 0 0
6.04393 0.164839 -3.89255 255 0 0
5.8811 0.18831 -3.84183 255 0 0
5.93697 0.190099 -3.85932 255 0 0
5.936 0.21825 -3.85932 255 0 0
5.87906 0.244079 -3.84183 255 0 0
5.94446 0.282099 -3.86282 255 0 0
6.05088 0.279961 -3.89605 255 0 0
5.87718 0.28589 -3.84183 255 0 0
5.90598 0.371573 -3.85232 255 0 0
5.92548 0.415135 -3.85932 255 0 0
5.88495 0.43334 -3.84707 255 0 0
5.82767 0.449959 -3.82958 255 0 0
6.0072 0.578627 -3.88905 255 0 0
5.88065 0.608685 -3.85057 255 0 0
5.93956 0.636154 -3.86981 255 0 0
5.82063 0.64435 -3.83308 255 0 0
5.98625 0.720215 -3.8873 255 0 0
5.91623 0.740269 -3.86631 255 0 0
5.91079 0.78233 -3.86631 255 0 0
5.92743 0.784531 -3.87156 255 0 0
5.9033 0.816968 -3.86544 255 0 0
6.67214 0.947568 -4.10944 255 0 0
6.84685 0.988948 -4.16541 255 0 0
6.03177 0.885824 -3.90829 255 0 0
5.96121 0.904359 -3.8873 255 0 0
5.97009 0.920193 -3.8908 255 0 0
5.93807 0.944106 -3.88206 255 0 0
5.94684 0.959963 -3.88555 255 0 0
5.87447 0.969727 -3.86369 255 0 0
6.02987 1.0395 -3.91529 255 0 0
6.04877 1.12416 -3.92578 255 0 0
6.04881 1.18363 -3.92928 255 0 0
5.69552 -0.060771 -3.835 255 0 0
4.97845 0.84001 -3.86142 255 0 0
6.24108 -0.705877 -3.96601 255 0 0
6.15267 -0.666364 -3.93715 255 0 0
6.10547 -0.661232 -3.92229 255 0 0
6.16412 -0.638026 -3.93978 255 0 0
6.16913 -0.616373 -3.94065 255 0 0
5.94652 -0.537217 -3.86894 255 0 0
5.99015 -0.519697 -3.88206 255 0 0
5.89114 -0.497037 -3.85057 255 0 0
5.96695 -0.460713 -3.87331 255 0 0
5.91991 -0.414744 -3.85757 255 0 0
5.85534 -0.37535 -3.83658 255 0 0
5.89094 -0.342589 -3.84707 255 0 0
5.85343 -0.312573 -3.83483 255 0 0
6.81634 -0.299182 -4.13568 255 0 0
6.83969 -0.275865 -4.14267 255 0 0
6.7996 -0.225793 -4.12956 255 0 0
6.75847 -0.200364 -4.11644 255 0 0
6.01702 -0.121281 -3.8838 255 0 0
6.27429 -0.111585 -3.96426 255 0 0
6.15162 -0.0948137 -3.92578 255 0 0
6.66621 -0.0553212 -4.0867 255 0 0
5.67992 0.181873 -3.83082 255 0 0
5.69155 0.283641 -3.8359 255 0 0
5.6805 0.377664 -3.83411 255 0 0
5.65772 0.423358 -3.82782 255 0 0
5.67509 0.485582 -3.835 255 0 0
5.66596 0.525427 -3.83321 255 0 0
5.65296 0.544506 -3.82962 255 0 0
5.66695 0.572989 -3.835 255 0 0
5.69181 0.677877 -3.84668 255 0 0
5.73888 0.683533 -3.86194 255 0 0
5.7394 0.725068 -3.86373 255 0 0
5.77547 0.75049 -3.8763 255 0 0
5.735 0.759063 -3.86373 255 0 0
5.81051 0.783079 -3.88887 255 0 0
5.69082 0.794443 -3.85116 255 0 0
5.68503 0.834901 -3.85116 255 0 0
5.82976 0.884418 -3.89964 255 0 0
5.61628 0.879297 -3.83141 255 0 0
5.80238 0.950766 -3.89426 255 0 0
6.08161 1.0707 -3.98942 255 0 0
4.98774 0.397006 -3.79762 255 0 0
5.34078 0.0696595 -3.8193 255 0 0
5.00359 -0.422154 -3.85129 255 0 0
5.86796 -0.579261 -3.89964 255 0 0
5.95215 -0.516401 -3.92478 255 0 0
5.79114 -0.350564 -3.86912 255 0 0
5.8309 -0.339097 -3.88169 255 0 0
5.81499 -0.32434 -3.8763 255 0 0
5.74768 -0.211366 -3.85296 255 0 0
5.77113 -0.177934 -3.86014 255 0 0
5.72159 -0.156047 -3.84398 255 0 0
5.72489 -0.135767 -3.84488 255 0 0
5.69482 -0.108026 -3.835 255 0 0
5.68465 -0.0202309 -3.83141 255 0 0
5.75712 -0.0204754 -3.85476 255 0 0
5.55752 0.0790671 -3.84176 255 0 0
5.60672 0.126311 -3.85834 255 0 0
5.55568 0.164706 -3.84176 255 0 0
5.54778 0.230325 -3.83992 255 0 0
5.56884 0.257658 -3.84729 255 0 0
5.65637 0.288593 -3.87675 255 0 0
5.58834 0.311698 -3.85465 255 0 0
5.53369 0.341581 -3.83716 255 0 0
5.54033 0.368328 -3.83992 255 0 0
5.48118 0.427581 -3.85566 255 0 0
5.57111 0.476695 -3.85281 255 0 0
5.50848 0.491071 -3.83255 255 0 0
5.51063 0.583594 -3.83624 255 0 0
5.62784 0.636519 -3.87675 255 0 0
5.64525 0.679189 -3.88412 255 0 0
5.51122 0.676324 -3.83992 255 0 0
5.56475 0.69629 -3.85834 255 0 0
5.5463 0.778743 -3.85588 255 0 0
5.53934 0.826936 -3.85588 255 0 0
5.55503 0.883219 -3.86386 255 0 0
5.5749 0.933862 -3.87307 255 0 0
5.62538 0.935464 -3.88965 255 0 0
5.63578 1.00599 -3.89701 255 0 0
5.5725 -0.523424 -3.85465 255 0 0
5.64568 -0.516796 -3.8786 255 0 0
5.71332 -0.509332 -3.9007 255 0 0
5.58829 -0.471486 -3.85834 255 0 0
5.55615 -0.45551 -3.84729 255 0 0
5.54163 -0.427874 -3.84176 255 0 0
5.56207 -0.376424 -3.84729 255 0 0
5.69051 -0.371565 -3.88965 255 0 0
5.62643 -0.327206 -3.86755 255 0 0
5.67857 -0.289726 -3.88412 255 0 0
5.55277 -0.243722 -3.84176 255 0 0
5.58163 -0.218474 -3.85097 255 0 0
5.52706 -0.190094 -3.83255 255 0 0
5.55129 -0.118471 -3.83992 255 0 0
5.54668 -0.0591873 -3.83808 255 0 0
5.57478 -0.0132179 -3.84729 255 0 0
5.39108 0.0191473 -3.83629 255 0 0
5.34501 0.126732 -3.84587 255 0 0
5.34697 0.133144 -3.82181 255 0 0
5.32412 0.157841 -3.81426 255 0 0
5.30847 0.270843 -3.81049 255 0 0
5.48975 0.306199 -3.87279 255 0 0
5.44081 0.335828 -3.85674 255 0 0
5.36407 0.363024 -3.83125 255 0 0
5.32072 0.42351 -3.81804 255 0 0
5.41361 0.443823 -3.85013 255 0 0
5.28334 0.470999 -3.80671 255 0 0
5.30192 0.510693 -3.81426 255 0 0
5.45173 0.544709 -3.86618 255 0 0
5.42083 0.600091 -3.85768 255 0 0
5.41792 0.62579 -3.85768 255 0 0
5.44311 0.694181 -3.86901 255 0 0
5.45244 0.708513 -3.87279 255 0 0
5.53507 0.799476 -3.90488 255 0 0
5.44898 0.813439 -3.87656 255 0 0
5.29231 0.815724 -3.84877 255 0 0
5.53301 0.886391 -3.90866 255 0 0
5.43008 0.863339 -3.87279 255 0 0
5.38424 0.869146 -3.85768 255 0 0
5.22489 0.881601 -3.80482 255 0 0
5.7897 1.06182 -4.00494 255 0 0
5.03664 -0.593855 -3.91781 255 0 0
4.87817 0.127264 -3.84533 255 0 0
5.07457 -0.270974 -3.87357 255 0 0
5.97723 -0.661686 -4.04836 255 0 0
5.69775 -0.617076 -3.95208 255 0 0
5.64959 -0.598311 -3.93509 255 0 0
5.32399 -0.512819 -3.82181 255 0 0
5.44474 -0.31664 -3.85768 255 0 0
5.34785 -0.260141 -3.8237 255 0 0
5.4044 -0.237209 -3.84258 255 0 0
5.49355 -0.228073 -3.87279 255 0 0
5.50515 -0.215481 -3.87656 255 0 0
5.44065 -0.154827 -3.85391 255 0 0
5.4423 -0.0774147 -3.85391 255 0 0
5.37604 -0.0573621 -3.83125 255 0 0
5.15601 0.0672411 -3.80432 255 0 0
5.23829 0.105585 -3.83333 255 0 0
5.23072 0.179901 -3.83139 255 0 0
5.25666 0.224475 -3.84106 255 0 0
5.27117 0.26894 -3.84687 255 0 0
5.32086 0.271475 -3.86427 255 0 0
5.14845 0.287163 -3.80432 255 0 0
5.20293 0.302577 -3.82366 255 0 0
5.22939 0.322782 -3.83333 255 0 0
5.23347 0.385352 -3.83623 255 0 0
5.28675 0.424987 -3.85589 255 0 0
5.35403 0.438939 -3.87974 255 0 0
5.28031 0.458113 -3.8546 255 0 0
5.20851 0.514162 -3.83139 255 0 0
5.28636 0.540823 -3.85944 255 0 0
5.23727 0.592335 -3.84429 255 0 0
5.19758 0.637842 -3.83236 255 0 0
5.37817 0.6859 -3.89715 255 0 0
5.35842 0.70922 -3.89134 255 0 0
5.25281 0.726939 -3.85557 255 0 0
5.21286 0.79083 -3.84493 255 0 0
5.19915 0.830835 -3.84235 255 0 0
5.22688 0.894667 -3.85557 255 0 0
5.3658 0.918466 -3.90488 255 0 0
5.21223 0.930388 -3.85267 255 0 0
5.29159 0.957505 -3.88168 255 0 0
5.33279 0.978024 -3.89715 255 0 0
5.40109 1.00379 -3.92229 255 0 0
5.62138 1.05853 -4.00158 255 0 0
5.51516 -0.610534 -3.94163 255 0 0
5.36375 -0.516648 -3.88554 255 0 0
5.31224 -0.473576 -3.8662 255 0 0
5.35794 -0.458449 -3.88168 255 0 0
5.39259 -0.4421 -3.89328 255 0 0
5.39654 -0.390937 -3.89328 255 0 0
5.277 -0.357144 -3.85073 255 0 0
5.35036 -0.336616 -3.87587 255 0 0
5.28291 -0.307196 -3.8517 255 0 0
5.37397 -0.312524 -3.88361 255 0 0
5.37669 -0.261544 -3.88361 255 0 0
5.18462 -0.227563 -3.81592 255 0 0
5.30896 -0.207793 -3.85911 255 0 0
5.36882 -0.184651 -3.87974 255 0 0
5.35858 -0.158862 -3.87587 255 0 0
5.25966 -0.137216 -3.84106 255 0 0
5.26565 -0.118627 -3.843 255 0 0
5.16645 -0.104137 -3.80819 255 0 0
5.32694 -0.0947367 -3.86427 255 0 0
5.29246 -0.0564617 -3.85202 255 0 0
5.21171 -0.00617852 -3.82366 255 0 0
5.06256 0.126062 -3.8194 255 0 0
4.9686 0.135511 -3.78574 255 0 0
5.18348 0.27679 -3.86493 255 0 0
5.11859 0.419637 -3.84513 255 0 0
5.02496 0.786718 -3.82731 255 0 0
5.23234 0.97885 -3.91244 255 0 0
5.4387 1.04416 -3.98965 255 0 0
4.9841 -0.20694 -3.83914 255 0 0
5.26749 -0.595763 -3.90453 255 0 0
5.07027 -0.222544 -3.82336 255 0 0
5.08176 0.0180735 -3.87357 255 0 0
5.02909 0.0715589 -3.85433 255 0 0
4.95465 0.0881159 -3.82699 255 0 0
5.01981 0.124997 -3.85129 255 0 0
4.92064 0.134203 -3.81483 255 0 0
5.09567 0.163161 -3.87965 255 0 0
4.97405 0.182882 -3.83509 255 0 0
4.98908 0.218993 -3.84117 255 0 0
4.91608 0.250823 -3.81483 255 0 0
5.03584 0.2749 -3.8594 255 0 0
4.94828 0.327029 -3.82834 255 0 0
4.90961 0.355663 -3.81483 255 0 0
4.97358 0.384014 -3.83914 255 0 0
4.95448 0.4476 -3.83408 255 0 0
5.07362 0.500846 -3.87965 255 0 0
4.89632 0.5068 -3.81483 255 0 0
4.98125 0.539477 -3.84724 255 0 0
4.94719 0.547659 -3.83509 255 0 0
4.98682 0.587981 -3.85129 255 0 0
5.01917 0.640114 -3.86547 255 0 0
5.03874 0.739987 -3.87762 255 0 0
4.96456 0.75316 -3.85129 255 0 0
5.03692 0.788591 -3.87965 255 0 0
5.04599 0.900713 -3.88978 255 0 0
5.04924 0.913653 -3.8918 255 0 0
4.99878 0.916768 -3.89772 255 0 0
5.09327 -0.576058 -3.88978 255 0 0
5.10441 -0.467249 -3.88978 255 0 0
5.04088 -0.43734 -3.86547 255 0 0
5.14146 -0.421512 -3.90193 255 0 0
5.09863 -0.405833 -3.88573 255 0 0
5.06761 -0.37919 -3.87357 255 0 0
5.08954 -0.380831 -3.88168 255 0 0
5.03771 -0.334937 -3.86142 255 0 0
5.04227 -0.257262 -3.86142 255 0 0
5.10823 -0.102963 -3.8837 255 0 0
4.93894 -0.0760853 -3.84444 255 0 0
4.9991 -0.0533403 -3.84319 255 0 0
4.98837 -0.0177413 -3.83914 255 0 0
4.89888 0.0348562 -3.85258 255 0 0
4.97814 0.0531165 -3.88261 255 0 0
4.79984 0.0740115 -3.8153 255 0 0
4.75331 0.0732618 -3.79769 255 0 0
4.69267 0.0945871 -3.77491 255 0 0
4.78552 0.10781 -3.81012 255 0 0
4.80376 0.216552 -3.8184 255 0 0
4.76225 0.27695 -3.80391 255 0 0
4.8242 0.337979 -3.82876 255 0 0
4.82712 0.372693 -3.83083 255 0 0
4.83277 0.436614 -3.83497 255 0 0
4.8589 0.479664 -3.84636 255 0 0
4.74777 0.463011 -3.80391 255 0 0
4.88287 0.540539 -3.85775 255 0 0
4.82309 0.580275 -3.83704 255 0 0
4.87922 0.673276 -3.86259 255 0 0
4.78306 0.690824 -3.84284 255 0 0
4.83094 0.779791 -3.85051 255 0 0
4.86926 0.833474 -3.86811 255 0 0
4.89965 0.850637 -3.88054 255 0 0
4.90633 0.875784 -3.88468 255 0 0
4.92682 0.935818 -3.89641 255 0 0
4.88705 0.920252 -3.88054 255 0 0
4.96638 0.971818 -3.91367 255 0 0
5.06132 1.02783 -3.95302 255 0 0
5.16616 1.06188 -3.99444 255 0 0
5.17203 -0.65961 -3.97166 255 0 0
5.00115 -0.613729 -3.90539 255 0 0
4.87209 -0.586169 -3.85568 255 0 0
4.89749 -0.506921 -3.8619 255 0 0
4.74287 -0.456844 -3.80183 255 0 0
4.85407 -0.444333 -3.84326 255 0 0
5.12997 -0.432818 -3.94681 255 0 0
4.97457 -0.38409 -3.88675 255 0 0
4.75317 -0.333003 -3.80183 255 0 0
4.79633 -0.256117 -3.81633 255 0 0
4.91179 -0.250604 -3.85982 255 0 0
4.79803 -0.221994 -3.81633 255 0 0
4.88609 -0.21446 -3.84947 255 0 0
4.80173 -0.176542 -3.81702 255 0 0
4.935 -0.152138 -3.86707 255 0 0
4.80993 0.648231 -3.88159 255 0 0
4.78771 0.726331 -3.87735 255 0 0
4.73749 0.764745 -3.86042 255 0 0
5.00938 -0.638866 -3.95778 255 0 0
4.96212 -0.620886 -3.93873 255 0 0
