ply
format ascii 1.0
comment Created by Open3D
element vertex 430
property double x
property double y
property double z
property uchar red
property uchar green
property uchar blue
end_header
-0.513372 -30.9286 -2.64281 255 0 0
-1.3235 -30.9924 -2.64463 255 0 0
3.16732 -30.9586 -2.6467 255 0 0
-1.39909 -31.036 -2.6456 255 0 0
1.17055 -30.8409 -1.87175 255 0 0
1.53695 -30.8424 -1.87167 255 0 0
1.24367 -30.8381 -1.87175 255 0 0
2.49805 -30.9205 -2.12891 255 0 0
0.146315 -30.8548 -2.38468 255 0 0
2.34635 -30.8656 -1.61408 255 0 0
-0.0732436 -30.8912 -2.89885 255 0 0
0.586771 -30.9309 -3.41512 255 0 0
-0.512701 -30.8882 -1.87162 255 0 0
0.219362 -30.8389 -1.87184 255 0 0
-0.4391 -30.8637 -1.61517 255 0 0
0.292481 -30.8383 -2.12816 255 0 0
-0.732483 -30.8874 -1.61481 255 0 0
2.51014 -31.0701 -2.38862 255 0 0
1.68339 -30.8385 -2.38504 255 0 0
2.20215 -30.9072 -2.6439 255 0 0
1.09978 -30.91 -3.1573 255 0 0
3.01976 -30.9659 -1.61211 255 0 0
2.42977 -30.9905 -2.12918 255 0 0
-1.47212 -31.0209 -2.64536 255 0 0
0.731423 -30.8428 -1.87179 255 0 0
-1.24863 -30.9609 -2.12876 255 0 0
-0.44053 -30.9643 -2.90106 255 0 0
-0.0731162 -30.8375 -1.61554 255 0 0
1.60905 -30.819 -1.61525 255 0 0
1.68383 -30.8465 -2.12838 255 0 0
-5.67034e-15 -30.8679 -2.89816 255 0 0
0.219264 -30.8251 -1.61569 255 0 0
0.366286 -30.8955 -2.64208 255 0 0
0.731562 -30.8486 -2.12823 255 0 0
0.584825 -30.8283 -1.87187 255 0 0
-0.880727 -30.9463 -3.1584 255 0 0
1.46206 -30.8088 -1.61547 255 0 0
1.83078 -30.8498 -2.12842 255 0 0
1.31987 -30.9073 -3.15752 255 0 0
2.42168 -30.8875 -3.15927 255 0 0
-0.585804 -30.8799 -2.89868 255 0 0
2.27668 -30.9188 -2.90208 255 0 0
-1.55269 -31.1582 -1.87036 255 0 0
-5.66516e-15 -30.8397 -1.87184 255 0 0
0.879821 -30.9145 -2.64269 255 0 0
-0.879443 -30.9012 -1.61459 255 0 0
-1.39722 -30.9945 -2.90276 255 0 0
0.29235 -30.8245 -1.61569 255 0 0
3.16537 -30.9396 -2.38775 255 0 0
0.220425 -30.9883 -3.41753 255 0 0
1.2441 -30.8487 -2.89833 255 0 0
-0.885333 -31.1082 -1.87068 255 0 0
1.46465 -30.8635 -1.8716 255 0 0
1.83651 -30.9463 -3.41806 255 0 0
-0.514317 -30.9855 -2.38636 255 0 0
-0.512374 -30.8685 -1.6151 255 0 0
0.804244 -30.8292 -1.87184 255 0 0
0.146376 -30.8676 -2.89816 255 0 0
0.365504 -30.8296 -1.61561 255 0 0
-1.10026 -30.9234 -1.61423 255 0 0
1.39015 -30.8377 -2.12828 255 0 0
-1.39965 -31.0482 -1.87085 255 0 0
-0.807894 -30.9691 -2.64378 255 0 0
2.20359 -30.9272 -3.16015 255 0 0
0.365781 -30.853 -2.38468 255 0 0
1.53637 -30.8307 -2.12828 255 0 0
0.804036 -30.8212 -1.61561 255 0 0
0.0733282 -30.9269 -2.64269 255 0 0
0.292748 -30.8665 -2.89816 255 0 0
-1.09992 -30.9138 -1.87145 255 0 0
0.365737 -30.8493 -1.87179 255 0 0
3.17729 -31.056 -1.61079 255 0 0
-0.806479 -30.9149 -2.38556 255 0 0
1.31774 -30.8573 -2.89868 255 0 0
-0.293333 -30.9282 -3.1573 255 0 0
0.808444 -30.9902 -3.41806 255 0 0
0.511985 -30.845 -2.38461 255 0 0
-1.3977 -31.0052 -1.61306 255 0 0
-0.146288 -30.8489 -1.61539 255 0 0
2.1285 -30.907 -2.12874 255 0 0
2.49727 -30.9108 -3.16037 255 0 0
-1.4726 -31.031 -2.38731 255 0 0
-5.66907e-15 -30.861 -2.38475 255 0 0
1.61027 -30.8424 -2.38504 255 0 0
-1.54559 -31.0157 -2.38716 255 0 0
-1.02678 -30.9211 -2.90021 255 0 0
0.586419 -30.9123 -3.15687 255 0 0
0.953017 -30.909 -3.15708 255 0 0
1.75856 -30.8705 -2.8997 255 0 0
0.730956 -30.8231 -1.61561 255 0 0
1.09801 -30.8601 -2.8985 255 0 0
0.512638 -30.8844 -3.15577 255 0 0
-0.66304 -31.0668 -2.12913 255 0 0
0.731813 -30.8592 -2.89816 255 0 0
-0.881986 -30.9905 -2.64427 255 0 0
3.16936 -30.9785 -3.16519 255 0 0
-0.219612 -30.8741 -1.8717 255 0 0
1.17396 -30.9307 -3.15818 255 0 0
-1.32194 -30.9557 -1.61371 255 0 0
3.09357 -30.9627 -3.16431 255 0 0
-0.660654 -30.9551 -2.64341 255 0 0
0.292683 -30.8596 -2.38475 255 0 0
0.950427 -30.8251 -2.12816 255 0 0
-1.56162 -31.3373 -1.60882 255 0 0
1.17025 -30.8329 -2.38468 255 0 0
1.02621 -30.9041 -2.64256 255 0 0
-0.585784 -30.8789 -2.38504 255 0 0
-0.442037 -31.0702 -2.64573 255 0 0
0.512003 -30.8461 -2.89765 255 0 0
0.293142 -30.908 -2.64232 255 0 0
0.584118 -30.7911 -1.61605 255 0 0
2.42235 -30.896 -2.90174 255 0 0
-0.736281 -31.0476 -1.87094 255 0 0
0.0730746 -30.8199 -1.61576 255 0 0
1.39303 -30.9015 -2.64281 255 0 0
1.17297 -30.9047 -2.64269 255 0 0
-0.586216 -30.9016 -3.41378 255 0 0
-1.62595 -31.1428 -2.12959 255 0 0
0.0731881 -30.8678 -2.89816 255 0 0
2.42594 -30.9417 -2.38694 255 0 0
0.877111 -30.8192 -1.61561 255 0 0
1.68212 -30.8151 -1.61525 255 0 0
2.28837 -31.0776 -2.12949 255 0 0
-0.588934 -31.0449 -2.12903 255 0 0
1.17621 -30.9902 -3.4186 255 0 0
1.39477 -30.9401 -3.41673 255 0 0
0.512215 -30.8589 -1.87175 255 0 0
3.09804 -31.0074 -1.87051 255 0 0
2.2716 -30.8499 -1.87145 255 0 0
-0.146399 -30.8724 -2.3849 255 0 0
-0.146628 -30.9208 -2.64256 255 0 0
-1.55179 -31.1401 -2.64792 255 0 0
2.42045 -30.8716 -1.61393 255 0 0
-0.512391 -30.8695 -2.89833 255 0 0
-0.879443 -30.9012 -2.38541 255 0 0
1.39116 -30.86 -2.89885 255 0 0
-1.24901 -30.9705 -1.61357 255 0 0
1.76059 -30.9062 -2.64329 255 0 0
0.365932 -30.8657 -2.89816 255 0 0
0.219472 -30.8544 -2.38468 255 0 0
0.0735032 -31.0007 -3.41806 255 0 0
0.659835 -30.9167 -3.15708 255 0 0
-1.54686 -31.0413 -2.12915 255 0 0
1.46725 -30.9182 -3.15818 255 0 0
-0.960532 -31.1528 -1.87048 255 0 0
0.950788 -30.8368 -1.87179 255 0 0
2.34985 -30.9116 -3.41806 255 0 0
-1.17299 -30.9053 -1.87148 255 0 0
0.804244 -30.8292 -2.12816 255 0 0
-0.585047 -30.84 -1.87182 255 0 0
-0.442239 -31.0844 -3.16321 255 0 0
-1.32198 -30.9567 -2.90157 255 0 0
0.732884 -30.9044 -3.41405 255 0 0
1.02445 -30.8509 -2.89816 255 0 0
1.0239 -30.8344 -1.87179 255 0 0
-0.219529 -30.8624 -2.12825 255 0 0
1.16936 -30.8095 -1.61561 255 0 0
-1.32244 -30.9674 -2.38643 255 0 0
-0.293137 -30.9075 -2.89936 255 0 0
2.19887 -30.861 -1.87143 255 0 0
-0.146325 -30.8569 -2.12823 255 0 0
0.657497 -30.8071 -1.61583 255 0 0
-1.17277 -30.8994 -2.1285 255 0 0
0.146177 -30.8255 -1.61569 255 0 0
-1.7252 -31.6044 -1.60539 255 0 0
-1.63652 -31.3452 -1.60868 255 0 0
-1.47788 -31.1421 -1.61131 255 0 0
-1.17513 -30.9617 -1.61371 255 0 0
-1.02558 -30.885 -1.61474 255 0 0
-0.952166 -30.8815 -1.61481 255 0 0
-0.805562 -30.8798 -1.61488 255 0 0
-0.659121 -30.8832 -1.61488 255 0 0
-0.586117 -30.8964 -1.61474 255 0 0
-0.36592 -30.8647 -1.61517 255 0 0
-0.292683 -30.8596 -1.61525 255 0 0
-0.21943 -30.8485 -1.61539 255 0 0
-5.66477e-15 -30.8376 -1.61554 255 0 0
0.4386 -30.8286 -1.61561 255 0 0
0.511499 -30.8158 -1.61576 255 0 0
0.950181 -30.8171 -1.61561 255 0 0
1.02325 -30.8147 -1.61561 255 0 0
1.09631 -30.8122 -1.61561 255 0 0
1.24288 -30.8184 -1.61547 255 0 0
1.31594 -30.8154 -1.61547 255 0 0
1.389 -30.8121 -1.61547 255 0 0
1.53568 -30.8169 -1.61532 255 0 0
1.75584 -30.8227 -1.6151 255 0 0
2.19955 -30.8706 -1.61415 255 0 0
2.27316 -30.8711 -1.61408 255 0 0
3.1019 -31.046 -1.61101 255 0 0
-0.659542 -30.9029 -1.87155 255 0 0
-0.95328 -30.9176 -2.90004 255 0 0
2.34563 -30.8561 -1.87141 255 0 0
0.731372 -30.8406 -2.38461 255 0 0
-0.0731629 -30.8572 -2.12823 255 0 0
1.24367 -30.8381 -2.12825 255 0 0
2.27612 -30.9113 -3.4178 255 0 0
-1.02597 -30.8967 -2.38541 255 0 0
-1.47215 -31.0214 -2.12906 255 0 0
-1.74543 -31.9749 -2.13307 255 0 0
-0.439213 -30.8717 -1.8717 255 0 0
-5.6806e-15 -30.9237 -3.15708 255 0 0
-1.02757 -30.9451 -2.64341 255 0 0
-0.0731579 -30.8551 -2.38468 255 0 0
0.659607 -30.906 -3.41405 255 0 0
1.16988 -30.8234 -2.12818 255 0 0
0.806062 -30.8989 -2.64232 255 0 0
-1.63725 -31.3591 -1.86951 255 0 0
-1.47576 -31.0975 -1.87063 255 0 0
-1.32403 -31.0047 -1.87104 255 0 0
-1.02876 -30.9807 -1.87119 255 0 0
-0.808214 -30.9814 -1.87121 255 0 0
-0.366084 -30.8785 -1.87167 255 0 0
-0.292981 -30.891 -1.87162 255 0 0
-0.146298 -30.8511 -1.87179 255 0 0
-0.0731907 -30.8689 -1.87172 255 0 0
0.0731629 -30.8572 -1.87177 255 0 0
0.14627 -30.8452 -1.87182 255 0 0
0.29287 -30.8793 -1.87167 255 0 0
0.439047 -30.86 -1.87175 255 0 0
0.658167 -30.8385 -1.87182 255 0 0
0.877838 -30.8448 -1.87177 255 0 0
1.09742 -30.8436 -1.87175 255 0 0
1.31753 -30.8526 -1.87167 255 0 0
1.38963 -30.826 -1.87177 255 0 0
1.61038 -30.8445 -1.87165 255 0 0
1.68383 -30.8465 -1.87162 255 0 0
1.75696 -30.8424 -1.87162 255 0 0
2.41878 -30.8504 -1.87141 255 0 0
1.53714 -30.8461 -2.38504 255 0 0
-0.438933 -30.852 -2.38468 255 0 0
-1.17251 -30.8925 -2.89953 255 0 0
1.09755 -30.8473 -2.38483 255 0 0
-1.09878 -30.8818 -3.41352 255 0 0
1.4674 -30.9215 -2.64329 255 0 0
0.511826 -30.8355 -2.12816 255 0 0
-0.365945 -30.8668 -2.12828 255 0 0
0.806435 -30.9132 -3.15708 255 0 0
2.26929 -30.8185 -2.38526 255 0 0
-1.39701 -30.9898 -2.12891 255 0 0
-1.32353 -30.993 -2.12891 255 0 0
-1.10179 -30.9665 -2.12876 255 0 0
1.54206 -30.9448 -3.41726 255 0 0
-1.03847 -31.2733 -2.13003 255 0 0
-0.956923 -31.0358 -2.12903 255 0 0
-0.881336 -30.9677 -2.12874 255 0 0
-0.80684 -30.9287 -2.12857 255 0 0
-0.734754 -30.9832 -2.12879 255 0 0
-0.513089 -30.9116 -2.12847 255 0 0
-0.438963 -30.8542 -2.12823 255 0 0
-0.292814 -30.8735 -2.1283 255 0 0
-5.66839e-15 -30.8573 -2.12823 255 0 0
0.0731352 -30.8455 -2.12818 255 0 0
0.14627 -30.8452 -2.12818 255 0 0
0.219362 -30.8389 -2.12816 255 0 0
0.365668 -30.8434 -2.12818 255 0 0
0.438713 -30.8366 -2.12816 255 0 0
0.584714 -30.8225 -2.12811 255 0 0
0.658042 -30.8327 -2.12816 255 0 0
0.877671 -30.8389 -2.12821 255 0 0
1.0239 -30.8344 -2.12821 255 0 0
1.09659 -30.8202 -2.12816 255 0 0
1.31653 -30.8292 -2.12823 255 0 0
1.46327 -30.8343 -2.12828 255 0 0
1.60947 -30.827 -2.12828 255 0 0
1.75696 -30.8424 -2.12838 255 0 0
2.21468 -31.083 -2.12949 255 0 0
2.36161 -31.0663 -2.12947 255 0 0
3.16678 -30.9533 -2.1293 255 0 0
2.27476 -30.8928 -3.15905 255 0 0
2.19955 -30.8706 -2.38585 255 0 0
0.439114 -30.8648 -2.89816 255 0 0
3.09094 -30.9363 -2.90464 255 0 0
1.24733 -30.9289 -3.41592 255 0 0
2.34413 -30.8364 -2.38556 255 0 0
0.219775 -30.8969 -2.64208 255 0 0
1.46516 -30.8741 -2.89936 255 0 0
0.880228 -30.9288 -3.15774 255 0 0
-0.220425 -30.9883 -3.41753 255 0 0
2.34933 -30.9048 -3.15971 255 0 0
0.21996 -30.923 -3.15708 255 0 0
-1.32336 -30.9891 -3.16059 255 0 0
1.24624 -30.9019 -2.64269 255 0 0
-1.6237 -31.0997 -2.38826 255 0 0
-1.39586 -30.9642 -2.38643 255 0 0
-1.24476 -30.8652 -2.38512 255 0 0
-1.17402 -30.9324 -2.38592 255 0 0
-1.10463 -31.0463 -2.38731 255 0 0
-0.951986 -30.8756 -2.38512 255 0 0
-0.732899 -30.905 -2.38541 255 0 0
-0.658122 -30.8364 -2.38453 255 0 0
-0.366059 -30.8764 -2.38497 255 0 0
-0.292961 -30.8889 -2.38512 255 0 0
-0.219597 -30.8719 -2.3849 255 0 0
0.0731579 -30.8551 -2.38468 255 0 0
0.146545 -30.9032 -2.6422 255 0 0
0.438933 -30.852 -2.38468 255 0 0
0.584895 -30.832 -2.38446 255 0 0
0.658372 -30.8481 -2.38468 255 0 0
0.804952 -30.8564 -2.38483 255 0 0
0.877611 -30.8368 -2.38461 255 0 0
0.950903 -30.8405 -2.38468 255 0 0
1.02422 -30.844 -2.38475 255 0 0
1.24406 -30.8476 -2.3849 255 0 0
1.31694 -30.8387 -2.38483 255 0 0
1.39164 -30.8706 -2.38526 255 0 0
1.46344 -30.838 -2.3849 255 0 0
1.75751 -30.852 -2.38526 255 0 0
3.08851 -30.912 -2.38731 255 0 0
-1.10187 -30.9685 -3.15949 255 0 0
0.804979 -30.8574 -2.89816 255 0 0
-0.806505 -30.9159 -2.89987 255 0 0
-0.587146 -30.9507 -2.64329 255 0 0
0.293333 -30.9282 -3.1573 255 0 0
0.366525 -30.9157 -3.15687 255 0 0
-1.24907 -30.9721 -2.64414 255 0 0
-1.18452 -31.2089 -2.64901 255 0 0
-1.10094 -30.9425 -2.64341 255 0 0
-0.955282 -30.9825 -2.64414 255 0 0
-0.733492 -30.93 -2.64293 255 0 0
-0.366425 -30.9073 -2.64232 255 0 0
-0.293531 -30.949 -2.64317 255 0 0
-0.220108 -30.9438 -2.64305 255 0 0
-0.0733282 -30.9269 -2.64269 255 0 0
-5.6812e-15 -30.927 -2.64269 255 0 0
0.438956 -30.8536 -2.64123 255 0 0
0.512789 -30.8935 -2.64208 255 0 0
0.586258 -30.9039 -2.64232 255 0 0
0.659905 -30.9199 -2.64269 255 0 0
0.732937 -30.9066 -2.64244 255 0 0
0.952937 -30.9064 -2.64256 255 0 0
1.09948 -30.9016 -2.64256 255 0 0
1.31951 -30.8988 -2.64269 255 0 0
1.54071 -30.9179 -2.64329 255 0 0
1.61371 -30.9083 -2.64317 255 0 0
1.68699 -30.9044 -2.64317 255 0 0
2.27586 -30.9077 -2.64402 255 0 0
2.35446 -30.9723 -2.64548 255 0 0
2.4256 -30.9374 -2.64487 255 0 0
2.49659 -30.9024 -2.64427 255 0 0
3.09216 -30.9485 -2.64633 255 0 0
1.53748 -30.853 -2.89885 255 0 0
-0.146534 -30.901 -3.41352 255 0 0
0.732998 -30.9092 -3.15687 255 0 0
-1.24976 -30.989 -2.90242 255 0 0
-1.1003 -30.9244 -2.90038 255 0 0
-0.880138 -30.9256 -2.90021 255 0 0
-0.733756 -30.9411 -2.90055 255 0 0
-0.663639 -31.0949 -2.90498 255 0 0
-0.366418 -30.9067 -2.89936 255 0 0
-0.219729 -30.8905 -2.89885 255 0 0
-0.146487 -30.891 -2.89885 255 0 0
0.219563 -30.8671 -2.89816 255 0 0
0.585471 -30.8623 -2.89816 255 0 0
0.658644 -30.8609 -2.89816 255 0 0
0.87814 -30.8554 -2.89816 255 0 0
0.951657 -30.8649 -2.8985 255 0 0
1.17095 -30.8515 -2.89833 255 0 0
1.61155 -30.8668 -2.89936 255 0 0
1.68505 -30.8688 -2.89953 255 0 0
2.34776 -30.8841 -2.90123 255 0 0
3.01587 -30.926 -2.90412 255 0 0
3.16368 -30.923 -2.90447 255 0 0
-1.24965 -30.9863 -3.16037 255 0 0
-1.18816 -31.3049 -3.17219 255 0 0
-1.0263 -30.9067 -3.15708 255 0 0
-0.953558 -30.9266 -3.15774 255 0 0
-0.807198 -30.9425 -3.15818 255 0 0
-0.733692 -30.9384 -3.15796 255 0 0
-0.660709 -30.9576 -3.15862 255 0 0
-0.586419 -30.9123 -3.15687 255 0 0
-0.512929 -30.9019 -3.15643 255 0 0
-0.366872 -30.945 -3.15796 255 0 0
-0.220126 -30.9464 -3.15796 255 0 0
-0.146752 -30.9468 -3.15796 255 0 0
-0.073376 -30.9471 -3.15796 255 0 0
0.0733483 -30.9353 -3.15752 255 0 0
0.146696 -30.9351 -3.15752 255 0 0
0.439659 -30.9031 -3.15643 255 0 0
1.02669 -30.9184 -3.15752 255 0 0
1.24658 -30.9103 -3.15752 255 0 0
1.39394 -30.9216 -3.15818 255 0 0
1.54026 -30.9088 -3.15796 255 0 0
1.61537 -30.9401 -3.15927 255 0 0
1.68777 -30.9187 -3.15862 255 0 0
1.76141 -30.9204 -3.15884 255 0 0
1.02808 -30.9603 -3.41699 255 0 0
0.147061 -31.0121 -3.4186 255 0 0
-1.17333 -30.9142 -3.41512 255 0 0
-1.0275 -30.9428 -3.41619 255 0 0
-0.954851 -30.9685 -3.41726 255 0 0
-0.880589 -30.9415 -3.41592 255 0 0
-0.808902 -31.0078 -3.41887 255 0 0
-0.733439 -30.9278 -3.41512 255 0 0
-0.660106 -30.9294 -3.41512 255 0 0
-0.0735032 -31.0007 -3.41806 255 0 0
-5.6926e-15 -30.9891 -3.41753 255 0 0
0.292955 -30.8883 -3.41298 255 0 0
0.366329 -30.8992 -3.41352 255 0 0
0.439424 -30.8865 -3.41298 255 0 0
0.512364 -30.8679 -3.41218 255 0 0
0.880256 -30.9298 -3.41539 255 0 0
0.955391 -30.9861 -3.41806 255 0 0
1.10211 -30.9753 -3.4178 255 0 0
1.32041 -30.92 -3.41566 255 0 0
1.46951 -30.9659 -3.41806 255 0 0
1.61634 -30.9586 -3.41806 255 0 0
1.69133 -30.9839 -3.4194 255 0 0
1.76479 -30.9798 -3.4194 255 0 0
1.83141 -30.8604 -2.89953 255 0 0
1.83031 -30.8419 -1.61481 255 0 0
2.20378 -30.93 -2.90225 255 0 0
2.94808 -30.9914 -2.90583 255 0 0
2.56505 -30.8386 -1.87141 255 0 0
1.83506 -30.922 -3.15905 255 0 0
3.02275 -30.9965 -2.64719 255 0 0
1.83065 -30.8477 -2.38526 255 0 0
2.20241 -30.9107 -3.41753 255 0 0
2.42862 -30.9759 -3.42128 255 0 0
1.83421 -30.9077 -2.64341 255 0 0
3.08873 -30.9141 -2.12911 255 0 0
1.83217 -30.8732 -1.87148 255 0 0
2.05197 -30.8631 -1.61437 255 0 0
2.49411 -30.8717 -1.61386 255 0 0
2.12529 -30.8603 -1.87145 255 0 0
2.49428 -30.8738 -1.87128 255 0 0
3.01372 -30.9039 -1.87097 255 0 0
3.01578 -30.9251 -2.38738 255 0 0
-1.46932 -30.9618 -2.90191 255 0 0
3.01788 -30.9466 -3.16343 255 0 0
