ply
format ascii 1.0
comment Created by Open3D
element vertex 375
property double x
property double y
property double z
property uchar red
property uchar green
property uchar blue
end_header
-7.47467 -6.18358 -4.25662 0 0 255
-7.82923 -7.29992 -4.30322 255 0 0
-7.93085 -6.12924 -4.15665 0 0 255
-6.70052 -6.55126 -4.93328 0 0 255
-7.20882 -6.2874 -4.39339 0 0 255
-6.83456 -7.3826 -4.87576 0 0 255
-6.69054 -7.15864 -4.97788 0 0 255
-6.69881 -6.73864 -4.54599 0 0 255
-6.80175 -5.93236 -4.66119 0 0 255
-8.56432 -6.11441 -4.08179 0 0 255
-6.71979 -5.95981 -4.97629 0 0 255
-6.79638 -7.20311 -4.65359 0 0 255
-8.5184 -6.55112 -4.5941 0 0 255
-6.86081 -5.89848 -4.66782 0 0 255
-6.75716 -6.31529 -4.56081 0 0 255
-6.75716 -6.24068 -4.54675 0 0 255
-6.66773 -6.36637 -4.47021 0 0 255
-8.48186 -7.11903 -4.47909 255 0 0
-6.81222 -7.35848 -4.77642 0 0 255
-7.59581 -7.04868 -4.41051 0 0 255
-6.76286 -7.13362 -4.63388 0 0 255
-7.80209 -5.94157 -5.06971 0 0 255
-7.42078 -5.87686 -4.96301 0 0 255
-7.44391 -7.2781 -4.3307 0 0 255
-8.49954 -6.20615 -4.54052 0 0 255
-6.71302 -6.91499 -4.8417 0 0 255
-6.73541 -5.91682 -5.05366 0 0 255
-6.70098 -6.55172 -4.51113 0 0 255
-9.49264 -6.08755 -4.42638 0 0 255
-9.52547 -5.90346 -4.60685 0 0 255
-6.79325 -6.27402 -4.47779 0 0 255
-6.71405 -5.89803 -5.1271 0 0 255
-6.69161 -6.63631 -4.69391 0 0 255
-6.7095 -6.1088 -4.75768 0 0 255
-8.49635 -6.29694 -4.55288 0 0 255
-7.68187 -6.05406 -4.27519 0 0 255
-6.83743 -7.35066 -4.68996 0 0 255
-8.66827 -6.12677 -4.09997 0 0 255
-7.53081 -7.05512 -4.49105 0 0 255
-6.76224 -5.8979 -4.89076 0 0 255
-8.50953 -6.25993 -4.55013 0 0 255
-10.5362 -5.90671 -5.12918 0 0 255
-6.76819 -7.15624 -4.72721 0 0 255
-6.71355 -6.91553 -4.75506 0 0 255
-6.67706 -6.06483 -4.90602 0 0 255
-8.4932 -6.21694 -4.63358 0 0 255
-6.71713 -6.93563 -4.6733 0 0 255
-8.61987 -6.09256 -4.27119 0 0 255
-6.70459 -6.49335 -4.58425 0 0 255
-6.70727 -6.65183 -4.61549 0 0 255
-8.57541 -6.40291 -4.39594 0 0 255
-9.5528 -5.9675 -4.62012 0 0 255
-6.79521 -6.06998 -4.44142 0 0 255
-8.64141 -6.40446 -4.3143 0 0 255
-9.50125 -5.85729 -4.79276 0 0 255
-7.73467 -7.10958 -4.07838 255 0 0
-6.67498 -7.21023 -5.16547 0 0 255
-8.45591 -6.37635 -4.46357 0 0 255
-8.48189 -6.27065 -4.63926 0 0 255
-7.72988 -6.00325 -4.97448 0 0 255
-9.00063 -5.89323 -4.69185 0 0 255
-6.73147 -6.07068 -4.75484 0 0 255
-6.70669 -6.46464 -4.49598 0 0 255
-6.69359 -6.99383 -4.94213 0 0 255
-8.49775 -6.50323 -4.58311 0 0 255
-8.46044 -6.41129 -4.5625 0 0 255
-6.75981 -6.03836 -4.59092 0 0 255
-7.84577 -5.88713 -5.16009 0 0 255
-8.5005 -6.26884 -4.45694 0 0 255
-6.81614 -7.3627 -4.68844 0 0 255
-6.67531 -6.97473 -4.84667 0 0 255
-9.66198 -5.87763 -4.82971 0 0 255
-6.69563 -7.26702 -5.18343 0 0 255
-6.67071 -5.93039 -5.12323 0 0 255
-7.61391 -6.96534 -4.49105 0 0 255
-8.60221 -6.11071 -4.08747 0 0 255
-6.75528 -6.16517 -4.61425 0 0 255
-8.45224 -6.35791 -4.64637 0 0 255
-6.74223 -6.00831 -4.74462 0 0 255
-9.45232 -5.93594 -4.79276 0 0 255
-6.68634 -6.82247 -4.55963 0 0 255
-8.47317 -6.45262 -4.66485 0 0 255
-8.58918 -6.22486 -4.46755 0 0 255
-6.71912 -6.82348 -4.73736 0 0 255
-7.67928 -6.02255 -4.96596 0 0 255
-6.76031 -7.37222 -4.94934 0 0 255
-6.82219 -5.89346 -4.98734 0 0 255
-7.64417 -6.79582 -4.46907 0 0 255
-6.71719 -6.50555 -4.75724 0 0 255
-6.94562 -5.88599 -5.0168 0 0 255
-7.74124 -5.92428 -4.96256 0 0 255
-9.10475 -5.89991 -4.71459 0 0 255
-6.70282 -6.83928 -4.65143 0 0 255
-9.6141 -5.87978 -4.81976 0 0 255
-6.73544 -7.00423 -4.69049 0 0 255
-6.67449 -6.84276 -4.81851 0 0 255
-6.74175 -6.05103 -4.67113 0 0 255
-6.70389 -6.00271 -4.98181 0 0 255
-6.6832 -5.91319 -5.0395 0 0 255
-6.70546 -6.17821 -4.77101 0 0 255
-8.49835 -5.91647 -4.59094 0 0 255
-6.67319 -6.31136 -4.46112 0 0 255
-6.6751 -6.00551 -5.05838 0 0 255
-7.76177 -7.27149 -4.28844 0 0 255
-6.74435 -6.50093 -4.59362 0 0 255
-6.80582 -5.89342 -4.65457 0 0 255
-8.61859 -6.43515 -4.3143 0 0 255
-6.66539 -6.99751 -4.93702 0 0 255
-8.56699 -6.25535 -4.46755 0 0 255
-6.70596 -6.22293 -4.61506 0 0 255
-8.73958 -6.11523 -4.1102 0 0 255
-6.70669 -6.01956 -4.90333 0 0 255
-6.73777 -6.31217 -4.80592 0 0 255
-6.99773 -6.0451 -4.47779 0 0 255
-6.67596 -6.49637 -4.49598 0 0 255
-8.17367 -6.25521 -4.57531 0 0 255
-6.7827 -5.95838 -4.66202 0 0 255
-8.64839 -5.93004 -4.71656 0 0 255
-8.56141 -6.34514 -4.38571 0 0 255
-8.13316 -6.22422 -4.02611 0 0 255
-8.6858 -6.10833 -4.28474 0 0 255
-8.49677 -6.35992 -4.46888 0 0 255
-6.66585 -6.50195 -4.74565 0 0 255
-9.60512 -6.0319 -4.53921 0 0 255
-6.90892 -5.9114 -4.68107 0 0 255
-7.40914 -5.89629 -4.62174 0 0 255
-8.61417 -6.02748 -4.35373 0 0 255
-6.74191 -6.62308 -4.53235 0 0 255
-8.62317 -6.00337 -4.53639 0 0 255
-8.72506 -6.13594 -4.1102 0 0 255
-6.68588 -6.23386 -5.19865 0 0 255
-6.78737 -7.29685 -4.75924 0 0 255
-6.7956 -5.95542 -4.58287 0 0 255
-8.02518 -6.23259 -4.0102 0 0 255
-7.5853 -6.64749 -4.43472 0 0 255
-8.81701 -5.93869 -4.65987 0 0 255
-8.53665 -6.03374 -4.15852 0 0 255
-6.79273 -5.92449 -4.57644 0 0 255
-8.77939 -5.95886 -4.6549 0 0 255
-8.05464 -6.19446 -4.0102 0 0 255
-6.67002 -6.10186 -5.07915 0 0 255
-9.4445 -6.08833 -4.41776 0 0 255
-9.50931 -5.90904 -4.80129 0 0 255
-6.74245 -6.4377 -4.58112 0 0 255
-8.5715 -6.05837 -4.34989 0 0 255
-6.79754 -6.05759 -4.52097 0 0 255
-7.81973 -6.10281 -4.22069 0 0 255
-8.85933 -5.92151 -4.66627 0 0 255
-6.70114 -6.07221 -4.99654 0 0 255
-7.61391 -6.64071 -4.43884 0 0 255
-6.853 -5.89176 -4.9947 0 0 255
-6.65953 -6.6045 -4.76552 0 0 255
-7.51421 -7.00619 -4.48006 0 0 255
-6.73194 -6.56641 -4.60378 0 0 255
-6.76767 -7.20684 -4.64904 0 0 255
-6.7904 -5.89417 -4.73271 0 0 255
-6.75829 -7.23113 -4.65207 0 0 255
-6.6568 -6.04642 -5.0631 0 0 255
-7.26197 -6.24337 -4.39623 0 0 255
-6.80927 -6.01036 -4.51472 0 0 255
-6.67429 -6.61913 -4.51871 0 0 255
-7.54749 -7.00384 -4.48556 0 0 255
-8.57581 -6.27742 -4.37931 0 0 255
-6.7748 -6.08069 -4.60218 0 0 255
-8.93483 -6.09536 -4.13975 0 0 255
-8.8493 -6.0678 -4.1227 0 0 255
-8.86799 -6.11159 -4.13066 0 0 255
-8.80154 -6.09662 -4.11816 0 0 255
-8.72577 -6.0748 -4.10338 0 0 255
-8.5638 -6.14474 -4.0852 0 0 255
-8.44205 -6.08775 -4.05907 0 0 255
-8.0672 -6.23462 -4.01702 0 0 255
-6.72027 -6.35588 -4.64403 0 0 255
-9.52897 -5.98407 -4.61747 0 0 255
-8.66257 -6.15359 -4.19404 0 0 255
-8.59195 -6.13413 -4.17983 0 0 255
-8.53079 -6.12105 -4.16799 0 0 255
-8.17266 -6.16276 -4.11353 0 0 255
-7.786 -6.1661 -4.05077 0 0 255
-8.50105 -6.31604 -4.46357 0 0 255
-6.74559 -6.36471 -4.56784 0 0 255
-8.5634 -6.08315 -4.26011 0 0 255
-8.53032 -6.09013 -4.25518 0 0 255
-8.61343 -6.33637 -4.30075 0 0 255
-8.57126 -6.43151 -4.30568 0 0 255
-7.88917 -6.12696 -4.14926 0 0 255
-8.95848 -5.95711 -4.69185 0 0 255
-8.95589 -5.90957 -4.68474 0 0 255
-6.74171 -6.10897 -4.60058 0 0 255
-9.56181 -6.03635 -4.53153 0 0 255
-8.59986 -6.04789 -4.35373 0 0 255
-8.50587 -6.04228 -4.33582 0 0 255
-8.61839 -6.27725 -4.38698 0 0 255
-8.60233 -6.3282 -4.39082 0 0 255
-8.52289 -6.41105 -4.38762 0 0 255
-8.51144 -6.44994 -4.39082 0 0 255
-7.78725 -6.10723 -4.21557 0 0 255
-8.49606 -6.99469 -4.46374 255 0 0
-8.51467 -7.04395 -4.47397 255 0 0
-8.47158 -7.0422 -4.46629 255 0 0
-8.42855 -7.04029 -4.45862 255 0 0
-8.53118 -7.29945 -4.51362 255 0 0
-6.66746 -6.77102 -4.80195 0 0 255
-6.69849 -6.15713 -4.68272 0 0 255
-6.66929 -7.20408 -4.89469 0 0 255
-6.76448 -6.55135 -4.52326 0 0 255
-6.76756 -6.01649 -4.67003 0 0 255
-9.53185 -5.86057 -4.60287 0 0 255
-8.60029 -6.00259 -4.4397 0 0 255
-8.52278 -6.00881 -4.42577 0 0 255
-8.46349 -6.4136 -4.47021 0 0 255
-7.77879 -6.04124 -4.29111 0 0 255
-7.61348 -6.32889 -4.30305 0 0 255
-7.63785 -6.37982 -4.31499 0 0 255
-7.63144 -6.40525 -4.31764 0 0 255
-7.6729 -6.47112 -4.33489 0 0 255
-8.55832 -7.28759 -4.61481 255 0 0
-7.72073 -6.96283 -4.41847 0 0 255
-7.64947 -6.94806 -4.40388 0 0 255
-7.65417 -7.00217 -4.41316 0 0 255
-7.61245 -7.01388 -4.40786 0 0 255
-7.59576 -7.08223 -4.41582 0 0 255
-6.70137 -7.03527 -4.86488 0 0 255
-6.74407 -6.08204 -4.67775 0 0 255
-9.55777 -5.93915 -4.71639 0 0 255
-9.51469 -5.9437 -4.70814 0 0 255
-9.5536 -5.99954 -4.72326 0 0 255
-8.53429 -5.97159 -4.51441 0 0 255
-8.50369 -5.99534 -4.51166 0 0 255
-8.57775 -6.18561 -4.55288 0 0 255
-8.49393 -6.15583 -4.53227 0 0 255
-8.45567 -6.31349 -4.54739 0 0 255
-8.49911 -6.39313 -4.56731 0 0 255
-8.4905 -6.46582 -4.57624 0 0 255
-7.80437 -6.04628 -4.38319 0 0 255
-7.6301 -6.04263 -4.34953 0 0 255
-7.60994 -6.41802 -4.40312 0 0 255
-7.55562 -6.40293 -4.39075 0 0 255
-7.92306 -6.77912 -4.51716 0 0 255
-7.66608 -6.60659 -4.44296 0 0 255
-7.59094 -6.58906 -4.42647 0 0 255
-7.59087 -6.68426 -4.44159 0 0 255
-7.64321 -6.76259 -4.46357 0 0 255
-7.52191 -6.71913 -4.43472 0 0 255
-7.64706 -6.94587 -4.4938 0 0 255
-7.58481 -6.97182 -4.48693 0 0 255
-7.53062 -6.95503 -4.47456 0 0 255
-6.70788 -6.45048 -4.74399 0 0 255
-6.68297 -6.94967 -4.93021 0 0 255
-8.69016 -5.92844 -4.63216 0 0 255
-6.66898 -6.93512 -4.75024 0 0 255
-6.71593 -5.98484 -5.06405 0 0 255
-9.75851 -5.90469 -4.85387 0 0 255
-9.4471 -5.90147 -4.78707 0 0 255
-9.19916 -5.8686 -4.73022 0 0 255
-9.1569 -5.90293 -4.72596 0 0 255
-9.06693 -5.90598 -4.70748 0 0 255
-8.60817 -5.91747 -4.61368 0 0 255
-8.56839 -5.93512 -4.608 0 0 255
-8.4843 -5.93661 -4.59094 0 0 255
-8.35864 -5.90792 -4.5611 0 0 255
-8.49743 -6.03628 -4.608 0 0 255
-8.58017 -6.12572 -4.63784 0 0 255
-8.54716 -6.1328 -4.63216 0 0 255
-8.49574 -6.12647 -4.62079 0 0 255
-8.49499 -6.1566 -4.62505 0 0 255
-8.45741 -6.16 -4.61795 0 0 255
-8.45556 -6.22023 -4.62647 0 0 255
-8.46409 -6.30417 -4.64069 0 0 255
-8.45223 -6.40507 -4.65348 0 0 255
-7.84363 -6.03218 -4.47582 0 0 255
-7.30265 -6.24829 -4.40476 0 0 255
-7.22995 -6.24572 -4.39055 0 0 255
-7.27947 -6.31869 -4.41186 0 0 255
-7.21952 -6.32694 -4.40192 0 0 255
-7.10219 -6.25394 -4.36781 0 0 255
-7.08422 -6.51169 -4.4076 0 0 255
-6.69661 -6.93088 -4.8417 0 0 255
-6.7079 -6.1219 -4.67775 0 0 255
-6.7311 -6.07035 -4.59092 0 0 255
-7.43343 -5.88688 -5.14204 0 0 255
-6.71018 -6.30131 -4.71419 0 0 255
-6.68195 -6.70577 -4.70598 0 0 255
-7.54214 -5.91499 -4.48308 0 0 255
-6.68571 -6.38352 -4.80932 0 0 255
-6.67953 -7.16388 -4.88807 0 0 255
-10.3592 -5.85601 -5.18855 0 0 255
-8.74153 -5.87281 -4.8218 0 0 255
-6.67303 -6.40173 -4.47779 0 0 255
-6.70265 -6.67885 -4.53538 0 0 255
-6.71066 -6.78265 -4.5566 0 0 255
-6.74521 -7.06453 -4.61721 0 0 255
-6.71495 -6.44195 -4.57643 0 0 255
-6.7443 -7.18195 -4.81622 0 0 255
-6.84546 -5.99912 -4.52019 0 0 255
-6.77756 -6.11227 -4.52696 0 0 255
-6.76382 -6.15827 -4.53269 0 0 255
-6.76267 -6.20135 -4.5405 0 0 255
-6.75889 -6.27204 -4.553 0 0 255
-6.70042 -6.36728 -4.55925 0 0 255
-6.70654 -6.58833 -4.60299 0 0 255
-6.67768 -6.70148 -4.6194 0 0 255
-6.71321 -6.80135 -4.64596 0 0 255
-6.71416 -6.88343 -4.66237 0 0 255
-6.77672 -7.09753 -4.71705 0 0 255
-6.7485 -7.18643 -4.72955 0 0 255
-6.78154 -7.256 -4.74986 0 0 255
-6.76026 -6.21392 -4.62471 0 0 255
-6.84927 -5.94528 -4.59253 0 0 255
-6.80681 -5.99384 -4.59253 0 0 255
-6.80356 -6.0485 -4.60218 0 0 255
-6.69942 -6.24649 -4.61828 0 0 255
-6.71203 -6.30305 -4.63196 0 0 255
-6.76231 -6.42609 -4.66656 0 0 255
-6.70227 -6.39934 -4.64885 0 0 255
-6.71643 -6.47403 -4.66656 0 0 255
-6.73746 -6.52518 -4.68104 0 0 255
-6.68969 -6.50973 -4.66816 0 0 255
-6.69463 -6.56107 -4.67943 0 0 255
-6.68729 -6.60065 -4.68587 0 0 255
-6.67193 -6.7435 -4.71161 0 0 255
-6.71869 -6.85548 -4.7438 0 0 255
-6.68755 -6.98752 -4.76472 0 0 255
-6.67873 -7.01151 -4.76794 0 0 255
-6.71757 -7.10271 -4.79449 0 0 255
-6.83105 -7.30898 -4.85967 0 0 255
-6.78652 -7.36566 -4.86289 0 0 255
-6.77957 -6.14327 -4.69763 0 0 255
-6.70539 -6.20762 -4.69431 0 0 255
-6.69971 -6.24675 -4.70094 0 0 255
-6.7047 -6.35622 -4.72412 0 0 255
-6.73486 -6.43046 -4.74565 0 0 255
-6.65696 -6.55516 -4.75476 0 0 255
-6.66381 -6.65592 -4.77711 0 0 255
-6.66918 -7.08508 -4.86902 0 0 255
-6.73971 -7.31487 -4.93278 0 0 255
-6.75156 -5.9027 -4.97168 0 0 255
-7.73564 -5.96375 -4.96852 0 0 255
-7.72887 -6.0319 -4.97959 0 0 255
-6.91424 -5.88762 -4.75995 0 0 255
-6.76517 -5.9146 -4.731 0 0 255
-6.75175 -5.95959 -4.73696 0 0 255
-6.725 -6.03599 -4.74633 0 0 255
-6.69781 -6.21537 -4.77697 0 0 255
-6.71174 -6.25797 -4.78889 0 0 255
-6.68199 -6.28973 -4.78889 0 0 255
-6.74032 -6.37485 -4.81954 0 0 255
-6.6927 -6.35994 -4.80592 0 0 255
-6.70376 -6.46181 -4.82976 0 0 255
-6.68853 -6.88976 -4.91829 0 0 255
-6.69943 -6.9338 -4.93021 0 0 255
-6.69118 -7.05801 -4.95575 0 0 255
-6.66289 -7.06163 -4.95064 0 0 255
-6.67298 -7.106 -4.96256 0 0 255
-6.70943 -7.31674 -5.01704 0 0 255
-7.82126 -5.89778 -5.06621 0 0 255
-7.78498 -5.89943 -5.05747 0 0 255
-7.76579 -5.94307 -5.06096 0 0 255
-7.65866 -5.88993 -5.02423 0 0 255
-7.39808 -5.88748 -4.95951 0 0 255
-6.78011 -5.91349 -4.81609 0 0 255
-6.79725 -5.90012 -4.89974 0 0 255
-6.71187 -5.91025 -4.88118 0 0 255
-6.68517 -5.94325 -4.88178 0 0 255
-6.71263 -5.99622 -4.89974 0 0 255
-6.66305 -6.18311 -4.92847 0 0 255
-6.75765 -5.95055 -4.98365 0 0 255
-6.67837 -6.0228 -4.97997 0 0 255
-6.64974 -6.0544 -4.97997 0 0 255
-6.66044 -6.16601 -5.0076 0 0 255
-6.75851 -5.89465 -5.05461 0 0 255
-6.75581 -5.89229 -5.13677 0 0 255
-6.65985 -5.9633 -5.12807 0 0 255
-6.69577 -6.12541 -5.17545 0 0 255
-6.69583 -6.19878 -5.19285 0 0 255
