ply
format ascii 1.0
comment Created by Open3D
element vertex 467
property double x
property double y
property double z
property uchar red
property uchar green
property uchar blue
end_header
13.6885 -7.63131 -5.23601 255 0 0
13.5551 -7.76902 -5.09087 255 0 0
11.3168 -8.70325 -5.07178 255 0 0
13.0396 -8.89562 -4.44632 255 0 0
13.8004 -7.95315 -5.1511 255 0 0
11.9453 -7.54104 -5.28609 255 0 0
12.3038 -8.69639 -4.59219 255 0 0
13.9305 -7.72302 -5.1511 255 0 0
12.821 -8.7465 -5.07042 255 0 0
11.4662 -7.74285 -4.97694 255 0 0
13.2504 -7.59439 -5.28609 255 0 0
12.3575 -7.92476 -4.52567 255 0 0
13.4771 -8.64276 -5.30586 255 0 0
11.6354 -7.61835 -5.11357 255 0 0
12.4639 -7.66334 -5.14814 255 0 0
11.3093 -7.59793 -5.16935 255 0 0
11.7442 -7.68962 -4.89855 255 0 0
14.2322 -7.75845 -5.20678 255 0 0
13.6737 -8.18539 -5.01535 255 0 0
11.6749 -7.76344 -4.895 255 0 0
13.8023 -7.78082 -4.99793 255 0 0
11.2242 -7.91337 -5.07455 255 0 0
12.5594 -8.30873 -4.46215 255 0 0
11.4246 -8.07496 -5.01019 255 0 0
11.5083 -7.7316 -4.9831 255 0 0
13.4108 -7.60204 -5.31688 255 0 0
10.9956 -7.77175 -5.1322 255 0 0
11.2961 -8.73006 -5.07178 255 0 0
11.7809 -7.555 -5.25558 255 0 0
12.409 -7.54871 -5.25172 255 0 0
12.3244 -8.66719 -4.59219 255 0 0
11.4106 -7.62675 -5.07263 255 0 0
11.0684 -8.76561 -5.1609 255 0 0
14.0114 -7.81132 -4.89736 255 0 0
11.0554 -8.41909 -5.11101 255 0 0
11.8929 -7.74674 -4.80792 255 0 0
11.1651 -8.01124 -5.07647 255 0 0
11.8242 -9.04891 -4.81722 255 0 0
12.7997 -9.13823 -5.11133 255 0 0
13.4592 -7.9275 -5.22535 255 0 0
13.5722 -8.61318 -5.04147 255 0 0
12.818 -7.88101 -5.10694 255 0 0
12.8773 -7.95962 -5.12589 255 0 0
13.0977 -8.79942 -4.44542 255 0 0
11.573 -7.67589 -4.98802 255 0 0
11.6876 -7.69223 -4.88908 255 0 0
12.8805 -8.02507 -5.13359 255 0 0
11.0359 -8.52896 -5.12252 255 0 0
11.7701 -9.05183 -4.93746 255 0 0
13.5522 -7.63982 -5.21232 255 0 0
11.2404 -7.82548 -5.06624 255 0 0
12.7629 -7.93082 -5.23312 255 0 0
11.4677 -7.58652 -5.19853 255 0 0
13.2153 -8.16855 -4.40776 255 0 0
10.8476 -8.1396 -5.15476 255 0 0
12.1961 -7.5786 -5.21463 255 0 0
13.7264 -8.75673 -5.08066 255 0 0
11.0514 -8.66719 -5.14427 255 0 0
10.8439 -7.58766 -5.31152 255 0 0
10.8733 -8.86563 -5.26354 255 0 0
13.4099 -7.89845 -4.67757 255 0 0
11.7347 -7.56466 -5.00403 255 0 0
13.7685 -7.71877 -5.12269 255 0 0
12.5347 -9.03907 -4.79121 255 0 0
12.3748 -8.61524 -4.59417 255 0 0
12.5391 -9.01968 -4.52545 255 0 0
14.0041 -7.72047 -5.1636 255 0 0
12.3202 -8.02506 -4.52964 255 0 0
11.2076 -7.96151 -5.07775 255 0 0
13.6487 -8.39177 -4.48308 255 0 0
11.5143 -7.57812 -5.20649 255 0 0
12.8179 -8.74437 -4.93588 255 0 0
13.6402 -8.03411 -5.13178 255 0 0
11.3605 -7.59328 -5.17863 255 0 0
12.2865 -8.21224 -4.54255 255 0 0
12.8268 -9.02052 -5.10223 255 0 0
12.9597 -8.05311 -4.75583 255 0 0
12.889 -7.9247 -4.60311 255 0 0
12.8672 -9.04894 -4.84116 255 0 0
13.9818 -7.62191 -5.2881 255 0 0
10.9132 -7.67475 -5.22064 255 0 0
12.9346 -7.78465 -4.85641 255 0 0
10.8825 -7.55713 -5.31507 255 0 0
11.1748 -7.9781 -5.07391 255 0 0
14.0653 -7.62427 -5.3035 255 0 0
12.5664 -8.97167 -4.52451 255 0 0
11.1145 -7.62099 -5.13486 255 0 0
12.3206 -8.49103 -4.96019 255 0 0
13.9264 -7.93799 -4.62088 255 0 0
14.0284 -7.77729 -5.03494 255 0 0
13.7492 -8.72553 -5.22155 255 0 0
11.9153 -7.72116 -4.93171 255 0 0
11.7695 -7.62671 -5.01758 255 0 0
12.3225 -8.40644 -4.56637 255 0 0
11.4 -8.46985 -5.05576 255 0 0
13.5036 -7.7821 -4.94894 255 0 0
12.3001 -7.56258 -5.23253 255 0 0
11.014 -7.74566 -5.1322 255 0 0
10.8374 -8.17216 -5.15741 255 0 0
11.994 -7.8126 -4.70837 255 0 0
12.6517 -8.07118 -4.45365 255 0 0
11.7139 -9.00867 -5.05129 255 0 0
11.8371 -9.0588 -4.94883 255 0 0
12.9576 -8.00925 -5.0136 255 0 0
11.8937 -7.54795 -5.27681 255 0 0
11.2814 -7.7158 -5.05984 255 0 0
12.2814 -8.50702 -4.57035 255 0 0
11.3285 -9.05934 -5.12104 255 0 0
12.5573 -7.55755 -5.28114 255 0 0
10.9445 -7.89236 -5.13884 255 0 0
14.1478 -7.8874 -4.78677 255 0 0
12.3295 -7.98955 -4.52766 255 0 0
13.505 -8.25939 -5.13178 255 0 0
14.1551 -7.97969 -4.65678 255 0 0
11.0629 -8.63393 -5.14171 255 0 0
13.6989 -8.02498 -5.14087 255 0 0
12.3013 -8.13796 -4.53758 255 0 0
12.7819 -9.03433 -5.09655 255 0 0
12.7283 -7.70163 -4.94315 255 0 0
11.619 -9.11228 -5.04893 255 0 0
11.6847 -9.07466 -5.05485 255 0 0
13.3028 -8.71009 -4.46425 255 0 0
11.1646 -8.05106 -5.08159 255 0 0
11.1355 -8.11064 -5.08415 255 0 0
13.5906 -7.8752 -4.70239 255 0 0
11.7679 -7.56634 -5.13212 255 0 0
10.9206 -7.97391 -5.14547 255 0 0
12.8472 -7.7736 -4.84117 255 0 0
11.2682 -7.57028 -5.27698 255 0 0
10.9014 -8.01946 -5.14812 255 0 0
14.0954 -7.8144 -4.91089 255 0 0
12.8946 -8.01266 -5.00337 255 0 0
14.0306 -7.95339 -4.63694 255 0 0
12.6946 -8.79326 -5.18864 255 0 0
11.5133 -7.61669 -5.09054 255 0 0
12.8338 -8.71072 -4.93479 255 0 0
13.7576 -8.77664 -5.22837 255 0 0
13.1233 -8.77155 -4.44632 255 0 0
12.6134 -8.17353 -4.45743 255 0 0
12.9406 -8.08381 -4.75583 255 0 0
12.8428 -9.03173 -4.97071 255 0 0
11.1803 -7.58847 -5.26186 255 0 0
13.0576 -7.60776 -5.2516 255 0 0
11.4154 -8.4394 -5.05453 255 0 0
13.557 -7.94187 -4.56892 255 0 0
12.7839 -9.08125 -5.10223 255 0 0
12.1394 -8.45136 -4.79872 255 0 0
11.8201 -7.69931 -4.91276 255 0 0
13.7138 -7.7738 -4.98269 255 0 0
12.91 -8.10732 -5.01587 255 0 0
12.5249 -8.71971 -4.49522 255 0 0
12.5288 -8.41719 -4.46782 255 0 0
13.2848 -8.16804 -5.08519 255 0 0
11.9495 -9.05528 -4.83682 255 0 0
10.8219 -8.22101 -5.16139 255 0 0
12.7862 -8.94674 -4.41852 255 0 0
11.4714 -7.62815 -5.08415 255 0 0
12.5735 -8.93181 -4.52168 255 0 0
13.3999 -7.9354 -4.54624 255 0 0
11.085 -8.25628 -5.09438 255 0 0
11.1341 -7.59571 -5.25362 255 0 0
12.9162 -7.81538 -4.72668 255 0 0
11.3399 -8.98064 -5.11242 255 0 0
12.2529 -7.5737 -5.22486 255 0 0
10.8353 -8.74948 -5.23966 255 0 0
13.4685 -7.93294 -4.55569 255 0 0
12.8543 -8.07236 -5.13418 255 0 0
13.3135 -7.63052 -5.16851 255 0 0
13.5892 -8.22258 -4.46156 255 0 0
10.8491 -7.62968 -5.31862 255 0 0
12.2862 -8.25422 -4.54652 255 0 0
12.7946 -8.59579 -5.18272 255 0 0
11.0578 -8.71459 -5.15194 255 0 0
13.2227 -8.74753 -4.45708 255 0 0
11.2629 -7.60558 -5.16139 255 0 0
12.5867 -8.21992 -4.4579 255 0 0
12.7297 -9.04276 -5.22417 255 0 0
12.5448 -8.82222 -4.5075 255 0 0
13.4692 -7.63517 -5.19693 255 0 0
11.3703 -7.56089 -5.29621 255 0 0
12.3811 -7.89855 -4.52666 255 0 0
13.7023 -8.02696 -4.86822 255 0 0
11.9801 -9.03385 -4.839 255 0 0
11.7295 -7.6205 -5.13148 255 0 0
11.0413 -8.47053 -5.11549 255 0 0
13.3913 -7.633 -5.18272 255 0 0
13.8705 -7.86263 -4.74309 255 0 0
11.7168 -9.05512 -4.92951 255 0 0
13.12 -8.85959 -4.45349 255 0 0
12.178 -9.04791 -4.87057 255 0 0
11.415 -8.31417 -5.03852 255 0 0
13.359 -7.95402 -4.40955 255 0 0
12.7141 -7.90045 -4.57531 255 0 0
11.7262 -8.9739 -5.04893 255 0 0
12.5549 -8.26305 -4.45743 255 0 0
12.0728 -7.54171 -5.3113 255 0 0
11.6502 -7.70726 -4.88434 255 0 0
13.6308 -7.94171 -4.57931 255 0 0
11.0693 -8.30595 -5.09822 255 0 0
11.407 -7.58527 -5.18659 255 0 0
11.5656 -7.57267 -5.21578 255 0 0
11.0473 -8.57964 -5.13148 255 0 0
12.8322 -8.70963 -5.06814 255 0 0
12.1199 -8.43777 -4.92156 255 0 0
13.263 -7.9395 -4.52734 255 0 0
12.8169 -8.92301 -4.42031 255 0 0
12.8142 -8.87612 -4.41583 255 0 0
12.9115 -8.89825 -4.43017 255 0 0
12.9898 -8.90688 -4.44093 255 0 0
13.0606 -8.86468 -4.44632 255 0 0
13.1875 -8.76925 -4.45439 255 0 0
13.2676 -8.73206 -4.46156 255 0 0
13.2361 -8.62168 -4.44811 255 0 0
13.4362 -8.7067 -4.48129 255 0 0
13.4276 -8.656 -4.47591 255 0 0
13.2155 -8.34294 -4.4221 255 0 0
13.0976 -8.13878 -4.38982 255 0 0
13.7376 -8.40165 -4.49564 255 0 0
13.8119 -8.40213 -4.5055 255 0 0
13.1922 -7.9397 -4.38623 255 0 0
13.2607 -7.93812 -4.3952 255 0 0
13.4226 -7.94886 -4.41762 255 0 0
12.6633 -8.01531 -4.45034 255 0 0
12.3015 -8.47788 -4.57035 255 0 0
12.5116 -8.5354 -4.47632 255 0 0
13.6082 -8.05874 -5.26561 255 0 0
12.5333 -8.85861 -4.50939 255 0 0
12.5231 -8.76264 -4.499 255 0 0
12.5028 -8.66038 -4.48672 255 0 0
12.5138 -8.62415 -4.48483 255 0 0
12.5008 -8.57158 -4.47821 255 0 0
12.5155 -8.47304 -4.47113 255 0 0
12.5487 -8.38746 -4.46782 255 0 0
12.5445 -8.34169 -4.4631 255 0 0
12.6156 -8.11143 -4.45223 255 0 0
12.7088 -7.98098 -4.45365 255 0 0
12.762 -7.97226 -4.46026 255 0 0
12.8103 -7.96027 -4.46593 255 0 0
12.8685 -7.95418 -4.47349 255 0 0
12.9316 -7.95089 -4.48199 255 0 0
13.0096 -7.95639 -4.49333 255 0 0
13.063 -7.94654 -4.49994 255 0 0
13.1164 -7.93649 -4.50656 255 0 0
13.1797 -7.93218 -4.51506 255 0 0
13.3314 -7.93759 -4.53679 255 0 0
13.7045 -7.94123 -4.5897 255 0 0
13.7784 -7.94046 -4.60009 255 0 0
13.8523 -7.93937 -4.61049 255 0 0
13.6143 -7.84585 -4.83804 255 0 0
12.7917 -7.90669 -4.58722 255 0 0
12.2389 -9.00342 -4.61403 255 0 0
12.2882 -8.99482 -4.61999 255 0 0
12.3468 -8.99284 -4.62793 255 0 0
12.354 -8.95338 -4.62495 255 0 0
12.3331 -8.89369 -4.61601 255 0 0
12.3542 -8.86442 -4.61601 255 0 0
12.3376 -8.80828 -4.60807 255 0 0
12.3584 -8.779 -4.60807 255 0 0
12.3071 -8.61148 -4.58424 255 0 0
12.3311 -8.45521 -4.57233 255 0 0
12.3138 -8.35775 -4.56042 255 0 0
12.2953 -8.3027 -4.55248 255 0 0
12.3012 -8.17989 -4.54155 255 0 0
12.3157 -8.1056 -4.53659 255 0 0
12.3301 -8.07321 -4.5356 255 0 0
12.3532 -7.96342 -4.52865 255 0 0
12.4242 -7.88463 -4.53163 255 0 0
12.4819 -7.87979 -4.53957 255 0 0
12.5396 -7.87472 -4.54751 255 0 0
12.6317 -7.89083 -4.5624 255 0 0
13.4778 -7.87399 -4.68551 255 0 0
13.6342 -7.85736 -4.70735 255 0 0
13.7129 -7.85944 -4.71926 255 0 0
13.9544 -7.86656 -4.756 255 0 0
14.0486 -7.87577 -4.77089 255 0 0
11.3545 -7.62829 -5.0624 255 0 0
11.945 -7.74039 -4.81587 255 0 0
10.9311 -7.62937 -5.2179 255 0 0
11.0892 -8.86796 -5.17881 255 0 0
11.5076 -7.69157 -4.97817 255 0 0
12.0614 -9.0504 -4.72356 255 0 0
12.0921 -9.02867 -4.72564 255 0 0
12.1227 -9.00685 -4.72773 255 0 0
12.1718 -8.99863 -4.73397 255 0 0
12.1931 -8.96975 -4.73397 255 0 0
12.3167 -9.01569 -4.75687 255 0 0
12.3566 -9.00003 -4.76103 255 0 0
12.3453 -8.94703 -4.75374 255 0 0
12.794 -9.04284 -4.82972 255 0 0
12.8886 -9.0184 -4.84116 255 0 0
12.1781 -8.4355 -4.67569 255 0 0
12.9213 -8.85992 -4.82972 255 0 0
12.8661 -8.7773 -4.81306 255 0 0
12.8535 -8.72412 -4.80578 255 0 0
12.8773 -8.67351 -4.80422 255 0 0
13.7892 -8.98195 -4.97229 255 0 0
12.1373 -7.86504 -4.61221 255 0 0
12.1802 -7.85185 -4.61741 255 0 0
12.2182 -7.8354 -4.62157 255 0 0
12.2707 -7.8281 -4.62886 255 0 0
12.3281 -7.82368 -4.63718 255 0 0
12.3759 -7.81288 -4.64343 255 0 0
12.8872 -8.09302 -4.74854 255 0 0
12.8495 -7.85851 -4.72044 255 0 0
13.7484 -8.14176 -4.88592 255 0 0
13.7378 -8.09159 -4.87967 255 0 0
13.6964 -7.80689 -4.84741 255 0 0
13.8487 -7.80693 -4.87134 255 0 0
13.9325 -7.81071 -4.88487 255 0 0
12.8352 -8.10282 -5.13418 255 0 0
12.0421 -9.01359 -4.84607 255 0 0
12.0391 -7.56038 -5.18265 255 0 0
11.6971 -9.03992 -5.05248 255 0 0
11.8685 -9.03828 -4.82267 255 0 0
12.78 -9.05572 -4.96364 255 0 0
12.7133 -8.89571 -4.93588 255 0 0
12.15 -8.416 -4.79654 255 0 0
12.8635 -8.82029 -4.95112 255 0 0
12.879 -8.67465 -4.93806 255 0 0
11.9273 -7.8095 -4.69748 255 0 0
12.0773 -7.80578 -4.72089 255 0 0
12.1897 -7.81715 -4.73994 255 0 0
12.9115 -8.15101 -4.88907 255 0 0
12.8723 -8.08365 -4.87601 255 0 0
12.8839 -8.02716 -4.8722 255 0 0
12.9637 -8.01306 -4.88363 255 0 0
12.8945 -7.92806 -4.86403 255 0 0
12.8435 -7.81301 -4.84444 255 0 0
13.7228 -8.17061 -5.02188 255 0 0
13.7319 -8.11003 -5.01752 255 0 0
13.7061 -8.02917 -5.00555 255 0 0
13.891 -7.78746 -5.01317 255 0 0
13.9697 -7.78812 -5.02623 255 0 0
14.1627 -7.80789 -5.05998 255 0 0
12.8031 -8.95856 -5.22653 255 0 0
11.6636 -7.55806 -5.23303 255 0 0
11.8403 -9.01679 -4.94428 255 0 0
11.8891 -9.00951 -4.9511 255 0 0
11.9379 -9.00204 -4.95792 255 0 0
12.1109 -9.08748 -4.99542 255 0 0
12.8576 -8.99667 -5.10451 255 0 0
12.1068 -8.38612 -4.9136 255 0 0
12.9092 -8.85159 -5.09655 255 0 0
12.8338 -8.66632 -5.0636 255 0 0
12.874 -8.62701 -5.06587 255 0 0
11.7745 -7.74937 -4.7886 255 0 0
11.8505 -7.75919 -4.80224 255 0 0
12.0647 -7.7774 -4.83974 255 0 0
13.7706 -8.83094 -5.23632 255 0 0
12.9102 -8.15017 -5.02042 255 0 0
12.9 -8.05843 -5.00905 255 0 0
13.6859 -8.14866 -5.1511 255 0 0
13.6607 -8.08985 -5.14087 255 0 0
13.7576 -8.01561 -5.14996 255 0 0
13.7219 -7.95129 -5.13746 255 0 0
13.6951 -7.72036 -5.11019 255 0 0
13.857 -7.72526 -5.1386 255 0 0
14.0627 -7.70933 -5.17269 255 0 0
12.7209 -7.61501 -5.19002 255 0 0
11.5207 -9.07946 -5.0288 255 0 0
11.6315 -9.07765 -5.04656 255 0 0
11.8706 -9.03987 -5.0809 255 0 0
12.6989 -9.06625 -5.2218 255 0 0
12.7558 -9.01586 -5.22535 255 0 0
12.8006 -9.00208 -5.23127 255 0 0
12.7302 -8.86265 -5.20285 255 0 0
12.7768 -8.80543 -5.20404 255 0 0
12.7835 -8.76539 -5.20048 255 0 0
12.7947 -8.72859 -5.19812 255 0 0
12.7727 -8.66925 -5.18746 255 0 0
12.8027 -8.64535 -5.18983 255 0 0
12.8007 -8.55587 -5.17917 255 0 0
12.6951 -8.09882 -5.10931 255 0 0
12.8789 -8.17317 -5.14957 255 0 0
12.8758 -7.87453 -5.11642 255 0 0
13.1415 -7.69847 -5.14483 255 0 0
13.1102 -7.63842 -5.13299 255 0 0
13.1729 -7.63319 -5.14365 255 0 0
13.2258 -7.62197 -5.15194 255 0 0
13.6153 -7.6329 -5.22298 255 0 0
13.7667 -7.6322 -5.25021 255 0 0
13.84 -7.62999 -5.26324 255 0 0
13.9083 -7.62472 -5.27508 255 0 0
13.1877 -7.60006 -5.275 255 0 0
11.3033 -9.12734 -5.12597 255 0 0
11.3383 -9.11127 -5.12966 255 0 0
11.3545 -9.03601 -5.12227 255 0 0
11.3297 -8.92892 -5.1038 255 0 0
11.3374 -8.89144 -5.1001 255 0 0
11.3116 -8.78491 -5.08163 255 0 0
11.3283 -8.66944 -5.06931 255 0 0
11.3488 -8.64255 -5.06931 255 0 0
11.3693 -8.61562 -5.06931 255 0 0
11.408 -8.60242 -5.07424 255 0 0
11.412 -8.52083 -5.06439 255 0 0
11.3969 -8.36319 -5.0416 255 0 0
11.4115 -8.27029 -5.03236 255 0 0
11.4413 -8.20941 -5.0299 255 0 0
11.4188 -8.15232 -5.01881 255 0 0
11.4288 -8.1186 -5.01635 255 0 0
11.4344 -8.04126 -5.00773 255 0 0
11.6576 -7.67247 -5.0028 255 0 0
11.7668 -7.70438 -5.0262 255 0 0
12.6989 -7.84937 -5.21219 255 0 0
12.5686 -7.6458 -5.16538 255 0 0
12.6112 -7.63079 -5.17154 255 0 0
12.6636 -7.62153 -5.18016 255 0 0
12.7832 -7.61118 -5.2011 255 0 0
12.8603 -7.61585 -5.21588 255 0 0
12.9227 -7.61149 -5.22697 255 0 0
12.9951 -7.61265 -5.24051 255 0 0
13.1152 -7.59973 -5.26145 255 0 0
13.333 -7.5998 -5.3021 255 0 0
11.0584 -9.06036 -5.20055 255 0 0
11.0622 -9.01967 -5.19544 255 0 0
11.1057 -9.01142 -5.20183 255 0 0
11.1093 -8.9707 -5.19672 255 0 0
11.1127 -8.93002 -5.1916 255 0 0
11.0834 -8.8203 -5.17113 255 0 0
11.0389 -8.36525 -5.10078 255 0 0
11.0678 -8.34593 -5.10334 255 0 0
11.1189 -8.22021 -5.09566 255 0 0
11.1296 -8.16709 -5.09054 255 0 0
11.1409 -8.07415 -5.08031 255 0 0
11.2406 -7.86521 -5.07136 255 0 0
11.2542 -7.79555 -5.06496 255 0 0
11.2586 -7.75912 -5.06112 255 0 0
11.2899 -7.6628 -5.05473 255 0 0
11.3127 -7.6392 -5.05601 255 0 0
11.5934 -7.63021 -5.10717 255 0 0
12.1297 -7.57723 -5.20183 255 0 0
12.3813 -7.57215 -5.24916 255 0 0
12.4904 -7.55772 -5.26835 255 0 0
12.6193 -7.55417 -5.29266 255 0 0
12.6666 -7.54177 -5.30033 255 0 0
12.7287 -7.53792 -5.31184 255 0 0
10.8767 -7.72642 -5.22064 255 0 0
10.8632 -9.03033 -5.28609 255 0 0
10.8751 -8.95334 -5.27681 255 0 0
10.8699 -8.90584 -5.26885 255 0 0
10.8632 -8.81467 -5.25425 255 0 0
10.8294 -8.70233 -5.2317 255 0 0
10.8232 -8.65525 -5.22374 255 0 0
10.8578 -8.10703 -5.1521 255 0 0
10.8751 -8.05987 -5.14879 255 0 0
10.935 -7.92498 -5.14149 255 0 0
10.9679 -7.86971 -5.14016 255 0 0
10.9795 -7.81909 -5.13552 255 0 0
11.023 -7.71298 -5.12955 255 0 0
11.0316 -7.66072 -5.12424 255 0 0
11.0682 -7.62791 -5.1269 255 0 0
11.1792 -7.60707 -5.14547 255 0 0
11.6218 -7.57013 -5.22639 255 0 0
11.7246 -7.55819 -5.24497 255 0 0
12.0114 -7.54302 -5.29936 255 0 0
10.8214 -7.80359 -5.22064 255 0 0
10.8214 -7.76463 -5.21515 255 0 0
10.8345 -7.6579 -5.20278 255 0 0
10.9862 -7.6099 -5.22614 255 0 0
11.0324 -7.60321 -5.23438 255 0 0
11.0926 -7.606 -5.24675 255 0 0
11.2219 -7.57787 -5.26873 255 0 0
11.3192 -7.56569 -5.28659 255 0 0
13.7903 -7.86043 -5.00337 255 0 0
13.7816 -7.85549 -4.72919 255 0 0
13.775 -7.80849 -4.8599 255 0 0
13.6018 -7.71032 -5.09314 255 0 0
