ply
format ascii 1.0
comment Created by Open3D
element vertex 571
property double x
property double y
property double z
property uchar red
property uchar green
property uchar blue
end_header
-13.7317 -2.55204 -4.28359 255 0 0
-16.7608 -2.78721 -4.05757 255 0 0
-15.3432 -1.91982 -4.26497 255 0 0
-14.4426 -2.5427 -3.4059 255 0 0
-14.2123 -1.98404 -3.9803 255 0 0
-14.0899 -3.1407 -3.86999 255 0 0
-13.922 -2.43402 -3.59242 255 0 0
-13.4239 -2.77582 -4.35838 255 0 0
-14.0126 -2.98426 -3.9771 255 0 0
-13.5411 -2.2353 -4.59679 255 0 0
-13.6326 -2.4001 -4.6191 255 0 0
-15.0088 -3.23364 -3.98884 255 0 0
-13.9417 -2.52272 -3.59636 255 0 0
-14.0135 -2.91506 -3.61275 255 0 0
-14.0706 -2.08345 -3.7225 255 0 0
-13.885 -2.51248 -3.82787 255 0 0
-13.4986 -2.17899 -5.06112 255 0 0
-13.7903 -2.49534 -4.17191 255 0 0
-14.0045 -3.19145 -3.73939 255 0 0
-13.5605 -2.58681 -4.25713 255 0 0
-15.0732 -3.21014 -3.99636 255 0 0
-15.0933 -2.84213 -4.2497 255 0 0
-13.8527 -2.47272 -3.94188 255 0 0
-13.8878 -2.44502 -4.06555 255 0 0
-15.2194 -1.97768 -3.98809 255 0 0
-13.491 -2.40815 -4.59298 255 0 0
-14.6315 -2.97128 -4.06034 255 0 0
-14.971 -2.85587 -4.36202 255 0 0
-15.1839 -2.2299 -3.34266 255 0 0
-13.8026 -2.02704 -4.16205 255 0 0
-15.7028 -2.04048 -3.651 255 0 0
-13.5146 -2.61128 -4.25052 255 0 0
-15.0235 -2.90281 -4.11157 255 0 0
-15.3218 -1.99097 -3.87103 255 0 0
-15.6638 -1.92223 -4.58025 255 0 0
-13.853 -2.54061 -4.063 255 0 0
-15.0584 -2.87255 -3.98583 255 0 0
-14.3597 -1.93525 -4.12241 255 0 0
-13.9641 -2.57811 -3.59996 255 0 0
-13.9863 -2.63367 -3.60357 255 0 0
-16.1899 -1.92835 -4.66576 255 0 0
-13.5674 -2.22313 -4.48316 255 0 0
-14.373 -2.98985 -4.15041 255 0 0
-13.978 -2.05281 -3.83013 255 0 0
-13.9743 -2.66573 -3.60291 255 0 0
-14.4429 -2.93299 -3.90911 255 0 0
-16.0441 -1.93029 -4.23004 255 0 0
-14.1961 -2.36072 -4.10798 255 0 0
-14.1455 -2.9425 -4.23917 255 0 0
-13.6178 -1.90105 -4.95846 255 0 0
-13.6099 -2.06472 -4.48628 255 0 0
-15.3683 -1.95998 -4.13798 255 0 0
-14.6783 -2.29806 -3.42434 255 0 0
-16.1113 -1.66762 -4.64828 255 0 0
-16.3236 -1.84623 -4.96709 255 0 0
-16.0112 -1.96486 -4.08964 255 0 0
-13.5232 -2.13365 -5.06496 255 0 0
-13.3886 -2.7189 -4.46755 255 0 0
-14.7978 -2.89562 -3.31919 255 0 0
-14.854 -2.7242 -3.32123 255 0 0
-14.7933 -2.53217 -3.31307 255 0 0
-15.1601 -3.30387 -4.14119 255 0 0
-13.9484 -3.21347 -3.8542 255 0 0
-13.9673 -2.01742 -3.94748 255 0 0
-14.1354 -1.80274 -4.94236 255 0 0
-15.7357 -1.96893 -4.05428 255 0 0
-14.3393 -2.84123 -3.40143 255 0 0
-13.9046 -3.20339 -3.96909 255 0 0
-14.5212 -2.27347 -4.15296 255 0 0
-13.9367 -2.33457 -3.8305 255 0 0
-14.5351 -2.45251 -3.41317 255 0 0
-14.5581 -2.42091 -3.41485 255 0 0
-13.9716 -2.59663 -3.96109 255 0 0
-14.021 -2.17812 -3.71828 255 0 0
-13.7489 -2.05247 -4.39164 255 0 0
-14.407 -2.64221 -3.40423 255 0 0
-14.4747 -2.86805 -4.03633 255 0 0
-15.2303 -3.28135 -4.14999 255 0 0
-14.6154 -2.35928 -3.41932 255 0 0
-14.5701 -1.99878 -3.78092 255 0 0
-15.1833 -2.19306 -3.34215 255 0 0
-16.0988 -1.82081 -4.51088 255 0 0
-14.7824 -1.92089 -4.18351 255 0 0
-13.5471 -2.31885 -4.95723 255 0 0
-14.1034 -1.83266 -4.69095 255 0 0
-15.1931 -1.93764 -4.37368 255 0 0
-13.5984 -1.96413 -4.83698 255 0 0
-13.9099 -2.44892 -3.94908 255 0 0
-13.6927 -1.97775 -4.49877 255 0 0
-13.8306 -2.33364 -4.05452 255 0 0
-14.3771 -2.8487 -4.27145 255 0 0
-13.8429 -1.8322 -4.76247 255 0 0
-14.5883 -1.93085 -4.1555 255 0 0
-14.0853 -2.00038 -3.84291 255 0 0
-14.9449 -2.99807 -4.23273 255 0 0
-13.8537 -3.08804 -4.19971 255 0 0
-14.2414 -2.057 -3.62127 255 0 0
-14.0905 -2.75722 -3.73869 255 0 0
-14.2664 -2.93239 -4.00991 255 0 0
-13.4988 -2.80798 -4.2543 255 0 0
-13.8636 -1.96889 -4.17012 255 0 0
-13.4868 -2.7222 -4.24957 255 0 0
-13.537 -1.98803 -4.82514 255 0 0
-13.409 -2.68995 -4.35292 255 0 0
-14.0323 -3.02324 -3.61734 255 0 0
-14.1538 -2.18158 -4.21944 255 0 0
-14.2758 -2.37398 -3.99711 255 0 0
-14.3672 -1.7977 -4.98972 255 0 0
-13.7269 -2.08247 -4.38866 255 0 0
-14.3029 -2.93989 -3.76825 255 0 0
-14.4295 -1.97951 -4.00991 255 0 0
-13.7502 -3.18498 -4.30768 255 0 0
-14.4983 -2.16434 -3.40535 255 0 0
-13.599 -1.98068 -4.71872 255 0 0
-15.0986 -2.36387 -3.33705 255 0 0
-13.4688 -2.27261 -4.8204 255 0 0
-14.1745 -3.12429 -3.7577 255 0 0
-14.4814 -2.79808 -3.91061 255 0 0
-14.724 -2.26947 -3.42826 255 0 0
-13.7324 -2.46803 -4.28122 255 0 0
-14.4798 -2.12649 -3.52591 255 0 0
-14.8758 -1.9689 -4.07075 255 0 0
-13.5569 -2.32055 -4.4842 255 0 0
-14.2338 -1.98705 -3.86172 255 0 0
-13.5545 -1.92499 -5.06496 255 0 0
-14.0009 -2.94708 -3.61209 255 0 0
-13.927 -2.34991 -3.94908 255 0 0
-13.5402 -2.18571 -4.95107 255 0 0
-14.0838 -3.1744 -3.50527 255 0 0
-13.4971 -2.6411 -4.24863 255 0 0
-14.3018 -1.82396 -4.72796 255 0 0
-13.7803 -1.95706 -4.39462 255 0 0
-13.7821 -3.00355 -4.30626 255 0 0
-14.5523 -3.06315 -3.92641 255 0 0
-13.5854 -2.15997 -4.60278 255 0 0
-15.6846 -1.92478 -4.44901 255 0 0
-16.1297 -1.8243 -4.79273 255 0 0
-13.9341 -3.08862 -4.09058 255 0 0
-13.9665 -2.68142 -3.4828 255 0 0
-14.0639 -1.99734 -3.96029 255 0 0
-13.8586 -3.36628 -4.33177 255 0 0
-15.0763 -1.88642 -4.61403 255 0 0
-13.9211 -1.97706 -4.05961 255 0 0
-14.007 -2.63757 -3.72602 255 0 0
-13.9096 -2.51692 -3.95068 255 0 0
-13.9884 -2.42855 -3.83915 255 0 0
-13.9797 -2.15474 -3.59373 255 0 0
-13.8589 -2.50775 -4.063 255 0 0
-13.976 -2.63173 -3.4828 255 0 0
-13.8985 -2.37901 -3.94588 255 0 0
-13.5216 -1.95303 -5.05856 255 0 0
-15.7232 -1.96737 -3.91889 255 0 0
-15.5131 -2.05326 -3.63157 255 0 0
-15.3004 -2.06203 -3.60971 255 0 0
-13.7211 -2.58373 -4.16384 255 0 0
-13.6075 -1.93253 -4.95723 255 0 0
-13.9457 -3.28258 -3.9771 255 0 0
-14.0243 -3.07377 -3.61766 255 0 0
-13.597 -2.12877 -4.72269 255 0 0
-14.4417 -2.36638 -4.01952 255 0 0
-14.4355 -3.00283 -4.03473 255 0 0
-14.2324 -2.02126 -3.7408 255 0 0
-13.7935 -3.31585 -4.31949 255 0 0
-13.8327 -3.16953 -4.0787 255 0 0
-14.4359 -2.3303 -4.14192 255 0 0
-14.3529 -3.09232 -3.40758 255 0 0
-13.8935 -2.00675 -4.05621 255 0 0
-15.474 -2.04808 -3.49643 255 0 0
-13.5197 -2.51264 -4.36583 255 0 0
-13.8953 -2.07432 -4.05791 255 0 0
-14.4805 -2.83353 -3.91136 255 0 0
-14.8635 -1.96728 -3.9422 255 0 0
-14.0685 -3.13593 -3.50284 255 0 0
-13.676 -1.90917 -4.73178 255 0 0
-13.7946 -2.5299 -4.29303 255 0 0
-13.7219 -2.11501 -4.38866 255 0 0
-14.0223 -2.29765 -3.84066 255 0 0
-14.0578 -2.37199 -3.48644 255 0 0
-13.9107 -1.87474 -4.53519 255 0 0
-14.2412 -2.40293 -4.23827 255 0 0
-15.2456 -2.12829 -3.34675 255 0 0
-13.8643 -2.407 -3.94188 255 0 0
-13.5943 -2.12835 -4.48524 255 0 0
-14.2968 -2.16893 -3.5077 255 0 0
-14.4922 -2.23374 -4.14786 255 0 0
-14.7989 -1.78049 -4.94883 255 0 0
-14.0451 -2.99118 -3.61799 255 0 0
-13.7336 -2.41788 -4.16115 255 0 0
-15.0871 -1.92411 -4.48672 255 0 0
-14.084 -2.96457 -3.74291 255 0 0
-13.7803 -2.09057 -4.27886 255 0 0
-13.8078 -2.46471 -4.05452 255 0 0
-14.0205 -1.92339 -4.31382 255 0 0
-13.6621 -2.47213 -4.38866 255 0 0
-14.0116 -2.02381 -3.83389 255 0 0
-13.7559 -2.52281 -4.16743 255 0 0
-14.0051 -3.01738 -3.49373 255 0 0
-13.491 -2.54041 -4.36186 255 0 0
-14.2983 -2.86834 -3.39808 255 0 0
-13.98 -2.39297 -3.71757 255 0 0
-15.0903 -2.14311 -3.33348 255 0 0
-13.6334 -2.36691 -4.73747 255 0 0
-13.7112 -1.94725 -4.73974 255 0 0
-13.9569 -2.49133 -3.71687 255 0 0
-15.6549 -1.95882 -4.17721 255 0 0
-14.3617 -3.02303 -3.40702 255 0 0
-14.3868 -2.25243 -4.3809 255 0 0
-13.954 -2.86818 -4.20778 255 0 0
-15.0116 -1.98687 -3.83372 255 0 0
-14.3384 -2.03632 -3.63176 255 0 0
-14.4246 -2.36359 -4.14107 255 0 0
-14.3716 -3.06071 -3.4087 255 0 0
-14.0303 -2.60753 -3.72813 255 0 0
-14.806 -2.06693 -3.5587 255 0 0
-13.7665 -2.32283 -4.28264 255 0 0
-14.3931 -2.32339 -4.38373 255 0 0
-13.7527 -3.08267 -4.30437 255 0 0
-13.9237 -2.93084 -4.08422 255 0 0
-14.3716 -2.25004 -4.25441 255 0 0
-13.9965 -2.70438 -3.60619 255 0 0
-14.2937 -2.93799 -3.8903 255 0 0
-14.0177 -3.15951 -3.7401 255 0 0
-13.9627 -3.07761 -3.97309 255 0 0
-13.861 -2.91763 -4.19523 255 0 0
-13.7676 -3.27511 -4.31382 255 0 0
-13.9683 -2.32283 -3.71476 255 0 0
-13.4918 -2.32585 -4.82692 255 0 0
-14.4169 -2.11725 -3.39696 255 0 0
-14.2514 -2.19662 -3.9899 255 0 0
-14.3767 -2.72487 -3.40283 255 0 0
-15.0283 -1.91662 -4.21915 255 0 0
-14.4017 -2.60597 -3.40311 255 0 0
-14.0129 -2.74202 -3.60881 255 0 0
-16.1762 -1.90729 -4.52433 255 0 0
-13.5628 -2.42097 -4.48836 255 0 0
-14.7558 -1.91743 -4.43286 255 0 0
-14.1856 -2.84573 -3.75206 255 0 0
-13.4281 -2.82651 -4.36087 255 0 0
-13.973 -3.18426 -3.85645 255 0 0
-13.605 -2.09699 -4.48628 255 0 0
-13.9718 -3.32369 -3.9819 255 0 0
-13.4046 -2.62301 -4.34995 255 0 0
-13.8752 -1.90345 -4.40951 255 0 0
-14.0135 -2.12596 -3.59701 255 0 0
-16.2583 -1.7608 -4.67379 255 0 0
-13.8774 -3.28387 -4.08888 255 0 0
-14.6498 -2.3292 -3.42211 255 0 0
-14.6454 -2.07992 -3.54231 255 0 0
-15.0783 -3.21123 -4.25818 255 0 0
-14.118 -3.18211 -4.11986 255 0 0
-13.7641 -3.23981 -4.31193 255 0 0
-14.4931 -2.33953 -4.02592 255 0 0
-13.9769 -2.39244 -3.83689 255 0 0
-14.0683 -1.89598 -4.44228 255 0 0
-13.5147 -2.84474 -4.25808 255 0 0
-14.3647 -2.35377 -4.37996 255 0 0
-14.5712 -2.85127 -4.30104 255 0 0
-14.0261 -2.883 -3.6134 255 0 0
-13.9739 -2.11994 -3.83088 255 0 0
-15.1819 -2.32161 -3.34369 255 0 0
-14.9893 -2.38318 -3.32787 255 0 0
-14.2045 -3.16624 -4.00831 255 0 0
-14.838 -2.6486 -3.31868 255 0 0
-14.8303 -2.75621 -3.3197 255 0 0
-14.8171 -2.82651 -3.3197 255 0 0
-14.8103 -2.86163 -3.3197 255 0 0
-14.8137 -2.93523 -3.32123 255 0 0
-14.8054 -3.0066 -3.32174 255 0 0
-14.9911 -3.00732 -4.10997 255 0 0
-14.0863 -2.32528 -3.48857 255 0 0
-13.4738 -2.22419 -5.05728 255 0 0
-14.3125 -3.11914 -3.77389 255 0 0
-14.5925 -2.3911 -3.41764 255 0 0
-15.1267 -3.33417 -4.40058 255 0 0
-14.0989 -3.21296 -3.5077 255 0 0
-14.0006 -2.77411 -3.60816 255 0 0
-14.9662 -2.37951 -4.34857 255 0 0
-15.4229 -2.07854 -3.49196 255 0 0
-15.3429 -2.1048 -3.48469 255 0 0
-15.1275 -2.13008 -3.46458 255 0 0
-14.8891 -2.15056 -3.44223 255 0 0
-14.6833 -2.22756 -3.42379 255 0 0
-14.512 -2.48402 -3.41149 255 0 0
-14.4888 -2.51543 -3.40982 255 0 0
-14.2803 -2.2184 -3.50679 255 0 0
-14.4423 -2.57796 -3.40646 255 0 0
-14.3892 -2.67424 -3.40311 255 0 0
-14.3322 -2.78685 -3.39976 255 0 0
-14.3337 -2.92852 -3.40255 255 0 0
-14.3289 -2.98066 -3.40311 255 0 0
-14.1861 -3.09159 -3.39194 255 0 0
-14.1294 -3.13193 -3.38746 255 0 0
-14.0326 -3.16286 -4.2293 255 0 0
-14.4784 -2.28435 -4.02272 255 0 0
-16.1373 -1.72837 -4.79224 255 0 0
-14.0063 -2.43165 -3.48219 255 0 0
-13.9728 -2.78582 -3.48553 255 0 0
-14.4934 -1.9183 -4.39035 255 0 0
-13.5688 -2.9234 -4.26941 255 0 0
-13.8003 -3.00753 -4.18895 255 0 0
-13.5395 -1.98841 -5.06368 255 0 0
-15.007 -2.05873 -3.57935 255 0 0
-14.5597 -2.10298 -3.53381 255 0 0
-14.2385 -2.12557 -3.50102 255 0 0
-14.1777 -2.27135 -3.49707 255 0 0
-14.0292 -2.40139 -3.48402 255 0 0
-13.9918 -2.48043 -3.48159 255 0 0
-13.9829 -2.53018 -3.48159 255 0 0
-13.9824 -2.58148 -3.4825 255 0 0
-13.9569 -2.73108 -3.4828 255 0 0
-13.9714 -2.83724 -3.48644 255 0 0
-13.9589 -2.86918 -3.48584 255 0 0
-13.9771 -2.92478 -3.48887 255 0 0
-13.9951 -2.98053 -3.49191 255 0 0
-14.0227 -3.07342 -3.49677 255 0 0
-14.0086 -2.36368 -3.72039 255 0 0
-13.3912 -2.58743 -4.46338 255 0 0
-14.8672 -1.9319 -4.32346 255 0 0
-15.664 -1.92225 -4.31165 255 0 0
-14.2999 -1.92718 -4.35917 255 0 0
-14.4156 -2.01243 -3.76262 255 0 0
-15.168 -1.971 -4.11077 255 0 0
-14.4686 -1.98486 -3.89181 255 0 0
-15.7742 -2.01175 -3.79172 255 0 0
-15.4578 -2.00865 -3.75632 255 0 0
-15.1473 -2.00484 -3.72157 255 0 0
-14.9637 -2.01665 -3.70125 255 0 0
-14.7745 -2.02682 -3.68027 255 0 0
-14.5333 -2.02886 -3.65339 255 0 0
-14.1213 -2.07385 -3.60816 255 0 0
-14.0703 -2.10046 -3.60291 255 0 0
-13.9228 -2.17978 -3.58783 255 0 0
-13.9121 -2.22883 -3.58751 255 0 0
-13.907 -2.27876 -3.58783 255 0 0
-13.9217 -2.33206 -3.59046 255 0 0
-13.9133 -2.38155 -3.59046 255 0 0
-13.9361 -2.48761 -3.59505 255 0 0
-14.002 -2.82619 -3.60947 255 0 0
-13.9763 -3.11538 -3.6134 255 0 0
-14.0597 -3.16898 -3.62389 255 0 0
-14.0408 -3.19972 -3.62258 255 0 0
-14.0105 -3.22778 -3.61996 255 0 0
-13.8922 -2.5478 -3.94908 255 0 0
-13.5426 -2.02168 -4.5908 255 0 0
-14.0649 -3.13512 -3.74502 255 0 0
-14.0723 -2.16901 -4.32799 255 0 0
-13.6946 -2.17733 -4.38569 255 0 0
-13.9337 -1.8442 -4.65938 255 0 0
-14.0049 -2.12464 -4.07488 255 0 0
-13.7834 -1.99085 -4.27697 255 0 0
-15.6205 -1.99215 -3.90693 255 0 0
-14.7303 -1.98519 -3.79993 255 0 0
-14.1125 -2.03838 -3.72672 255 0 0
-14.0229 -2.12738 -3.71757 255 0 0
-13.9787 -2.22251 -3.71405 255 0 0
-13.9765 -2.27313 -3.71476 255 0 0
-14.0259 -2.43506 -3.72391 255 0 0
-13.98 -2.46125 -3.71898 255 0 0
-13.991 -2.53166 -3.7218 255 0 0
-14.0079 -2.56902 -3.72461 255 0 0
-13.9778 -2.66641 -3.7232 255 0 0
-13.9943 -2.70396 -3.72602 255 0 0
-14.1296 -2.79966 -3.74432 255 0 0
-14.2813 -2.90018 -3.76473 255 0 0
-15.1438 -3.15018 -3.87314 255 0 0
-15.2367 -3.24496 -3.88651 255 0 0
-14.0471 -3.02643 -3.7401 255 0 0
-14.0422 -3.23509 -3.74502 255 0 0
-13.8072 -2.02772 -4.2817 255 0 0
-15.3681 -1.95995 -4.00689 255 0 0
-14.6919 -1.98003 -3.92039 255 0 0
-14.0018 -2.09023 -3.83389 255 0 0
-14.1525 -2.18137 -3.85495 255 0 0
-14.1245 -2.22853 -3.85232 255 0 0
-14.1595 -2.28568 -3.85796 255 0 0
-13.9425 -2.47169 -3.83426 255 0 0
-13.9731 -2.57976 -3.84066 255 0 0
-13.9924 -2.63482 -3.84442 255 0 0
-14.4737 -2.86785 -3.91136 255 0 0
-14.4839 -2.90559 -3.91362 255 0 0
-14.4231 -3.00026 -3.90835 255 0 0
-14.0933 -3.07138 -3.86849 255 0 0
-14.3525 -3.16353 -3.90384 255 0 0
-13.9578 -3.14601 -3.85344 255 0 0
-13.9973 -3.2597 -3.86172 255 0 0
-14.7077 -1.94665 -4.29925 255 0 0
-14.7271 -1.80728 -4.80743 255 0 0
-14.2609 -2.93126 -4.13259 255 0 0
-16.1431 -1.98104 -4.24444 255 0 0
-14.6181 -1.97008 -4.03553 255 0 0
-13.9395 -2.04716 -3.94428 255 0 0
-14.0436 -2.09647 -3.95949 255 0 0
-13.9411 -2.11497 -3.94588 255 0 0
-13.9711 -2.63082 -3.96189 255 0 0
-15.1272 -2.88566 -4.12518 255 0 0
-14.5156 -2.8404 -4.04113 255 0 0
-14.5135 -3.05497 -4.04673 255 0 0
-14.1064 -3.1795 -3.99551 255 0 0
-13.9405 -3.17685 -3.97309 255 0 0
-13.9083 -3.23898 -3.97069 255 0 0
-13.4768 -2.22469 -4.8204 255 0 0
-13.972 -3.01025 -4.09355 255 0 0
-16.1677 -1.90629 -4.38463 255 0 0
-13.5695 -2.07506 -4.59733 255 0 0
-14.1312 -1.93858 -4.08931 255 0 0
-14.3785 -2.28606 -4.13259 255 0 0
-13.8707 -2.37425 -4.0613 255 0 0
-13.8193 -2.3992 -4.05452 255 0 0
-13.8925 -2.58191 -4.06979 255 0 0
-14.4426 -2.79057 -4.15465 255 0 0
-14.4643 -2.83037 -4.1589 255 0 0
-14.3644 -2.91704 -4.14702 255 0 0
-13.8749 -3.23121 -4.08676 255 0 0
-15.8765 -1.94832 -4.88904 255 0 0
-13.5848 -2.12686 -4.60169 255 0 0
-16.1655 -1.86717 -4.79968 255 0 0
-16.2051 -1.75504 -4.52613 255 0 0
-16.1257 -1.94011 -4.51716 255 0 0
-15.3814 -1.9246 -4.40237 255 0 0
-14.422 -1.94365 -4.25531 255 0 0
-14.211 -1.94953 -4.22303 255 0 0
-13.9771 -1.95121 -4.18716 255 0 0
-13.8188 -1.99597 -4.16384 255 0 0
-13.7695 -2.07223 -4.15801 255 0 0
-13.9666 -2.25454 -4.19254 255 0 0
-14.281 -2.34004 -4.24275 255 0 0
-14.3724 -2.39003 -4.258 255 0 0
-13.7764 -2.37492 -4.16653 255 0 0
-13.7563 -2.45552 -4.16563 255 0 0
-13.7613 -2.55754 -4.16922 255 0 0
-14.9131 -2.88148 -4.35395 255 0 0
-14.3816 -2.88506 -4.27324 255 0 0
-14.5108 -2.94679 -4.29477 255 0 0
-13.8314 -2.94567 -4.19164 255 0 0
-13.7848 -2.96992 -4.18536 255 0 0
-14.1943 -3.2347 -4.25621 255 0 0
-13.837 -3.1878 -4.20061 255 0 0
-13.7918 -3.22907 -4.19523 255 0 0
-13.7914 -3.28079 -4.19702 255 0 0
-13.7668 -3.30942 -4.19433 255 0 0
-13.4116 -2.42682 -4.57883 255 0 0
-13.4838 -2.12745 -4.81863 255 0 0
-16.1705 -1.71251 -4.65867 255 0 0
-16.1967 -1.79299 -4.66434 255 0 0
-16.1579 -1.82749 -4.65867 255 0 0
-16.2799 -1.88038 -4.67946 255 0 0
-15.4069 -1.9278 -4.53868 255 0 0
-13.8785 -1.93745 -4.29114 255 0 0
-13.8281 -1.96385 -4.28359 255 0 0
-13.8138 -2.06216 -4.28359 255 0 0
-14.3757 -2.28562 -4.37996 255 0 0
-13.7891 -2.29303 -4.28547 255 0 0
-13.7781 -2.37522 -4.28595 255 0 0
-13.7838 -2.42671 -4.28831 255 0 0
-13.6234 -2.56534 -4.26658 255 0 0
-13.4964 -2.67422 -4.24957 255 0 0
-13.4941 -2.77364 -4.25241 255 0 0
-13.5418 -2.88399 -4.26374 255 0 0
-13.7693 -3.03497 -4.30532 255 0 0
-13.7699 -3.13797 -4.3091 255 0 0
-13.4901 -2.03018 -4.81685 255 0 0
-16.0831 -1.66471 -4.78181 255 0 0
-16.1684 -1.78986 -4.79869 255 0 0
-16.1209 -1.90076 -4.79273 255 0 0
-15.87 -1.90934 -4.75004 255 0 0
-15.3213 -1.88019 -4.65573 255 0 0
-14.7913 -1.88639 -4.56538 255 0 0
-14.5407 -1.88948 -4.52269 255 0 0
-14.3302 -1.89669 -4.48695 255 0 0
-13.8134 -1.92837 -4.39959 255 0 0
-13.747 -1.9856 -4.38966 255 0 0
-13.7651 -2.02154 -4.39363 255 0 0
-13.6997 -2.14486 -4.38569 255 0 0
-13.6811 -2.22509 -4.38469 255 0 0
-13.6731 -2.27374 -4.38469 255 0 0
-13.6763 -2.32429 -4.38668 255 0 0
-13.6679 -2.37291 -4.38668 255 0 0
-13.6623 -2.40531 -4.38668 255 0 0
-13.6565 -2.4377 -4.38668 255 0 0
-13.6562 -2.50451 -4.38866 255 0 0
-13.4337 -2.57911 -4.35342 255 0 0
-13.4041 -2.65591 -4.35094 255 0 0
-13.4139 -2.72403 -4.35491 255 0 0
-15.9586 -1.84328 -4.90153 255 0 0
-15.5651 -1.83523 -4.83076 255 0 0
-15.2975 -1.84047 -4.78288 255 0 0
-14.6025 -1.82714 -4.658 255 0 0
-14.268 -1.85404 -4.59868 255 0 0
-14.0865 -1.86443 -4.56641 255 0 0
-13.7292 -1.88344 -4.50293 255 0 0
-13.7224 -1.93225 -4.50293 255 0 0
-13.6309 -2.00184 -4.48836 255 0 0
-13.5895 -2.17713 -4.48576 255 0 0
-13.5624 -2.2884 -4.4842 255 0 0
-13.5628 -2.35466 -4.48628 255 0 0
-13.4379 -2.43157 -4.46651 255 0 0
-13.3925 -2.45615 -4.45922 255 0 0
-15.3469 -1.80951 -4.9239 255 0 0
-15.0398 -1.80947 -4.86621 255 0 0
-14.5858 -1.82505 -4.7813 255 0 0
-13.7959 -1.87592 -4.63434 255 0 0
-13.7384 -1.93448 -4.62509 255 0 0
-13.6432 -1.9706 -4.60822 255 0 0
-13.5702 -1.99291 -4.59516 255 0 0
-13.5518 -2.18759 -4.59733 255 0 0
-13.5359 -2.28393 -4.59733 255 0 0
-13.5588 -2.32087 -4.60278 255 0 0
-13.5533 -2.35301 -4.60278 255 0 0
-13.3549 -2.44927 -4.56903 255 0 0
-13.4297 -2.39722 -4.69883 255 0 0
-14.6237 -1.79458 -4.91474 255 0 0
-14.3287 -1.79288 -4.85678 255 0 0
-14.1762 -1.80795 -4.82724 255 0 0
-13.9612 -1.81417 -4.78519 255 0 0
-13.7816 -1.85734 -4.7511 255 0 0
-13.6918 -1.8783 -4.73406 255 0 0
-13.5947 -2.02946 -4.71929 255 0 0
-13.5789 -2.0765 -4.71758 255 0 0
-13.5723 -2.17439 -4.71929 255 0 0
-13.5645 -2.22265 -4.71929 255 0 0
-13.5593 -2.27135 -4.71985 255 0 0
-13.571 -2.32295 -4.72383 255 0 0
-13.4806 -2.37334 -4.70792 255 0 0
-13.5479 -2.13754 -4.95107 255 0 0
-14.0401 -1.82443 -4.92342 255 0 0
-13.8993 -1.83965 -4.895 255 0 0
-13.7414 -1.85193 -4.86303 255 0 0
-13.6859 -1.87749 -4.85237 255 0 0
-13.5792 -1.89566 -4.83106 255 0 0
-13.603 -1.93188 -4.83698 255 0 0
-13.4885 -2.07903 -4.81804 255 0 0
-13.4847 -2.17675 -4.8204 255 0 0
-13.5483 -2.38526 -4.84053 255 0 0
-13.5979 -2.36076 -4.96955 255 0 0
-13.5356 -2.28387 -4.95354 255 0 0
-13.9587 -1.81386 -5.02867 255 0 0
-13.8068 -1.82742 -4.99664 255 0 0
-13.7117 -1.84792 -4.97694 255 0 0
-13.6619 -1.8742 -4.96708 255 0 0
-13.5892 -1.97926 -4.95477 255 0 0
-13.5538 -2.02335 -4.94861 255 0 0
-13.5522 -2.07241 -4.94984 255 0 0
-13.5436 -2.23572 -4.95354 255 0 0
-13.6414 -1.83845 -5.08159 255 0 0
-13.5867 -1.88028 -5.07072 255 0 0
-13.4783 -2.01207 -5.05089 255 0 0
-14.0652 -1.79379 -5.05084 255 0 0
-15.9098 -1.79943 -5.0295 255 0 0
-13.4766 -2.90352 -4.37179 255 0 0
-16.8516 -2.84338 -4.06953 255 0 0
-13.4979 -2.94161 -4.37675 255 0 0
-13.4552 -2.86555 -4.36682 255 0 0
-13.6929 -3.03518 -4.41299 255 0 0
-13.713 -3.09084 -4.41845 255 0 0
-13.7 -3.12206 -4.41746 255 0 0
-13.7169 -3.17727 -4.42242 255 0 0
-13.6775 -3.21943 -4.41746 255 0 0
-13.7136 -3.27946 -4.42589 255 0 0
-13.8673 -3.3684 -4.45518 255 0 0
-13.4522 -2.66546 -4.47691 255 0 0
-13.4063 -2.68941 -4.46963 255 0 0
-13.4381 -2.77876 -4.47847 255 0 0
-15.574 -1.79886 -4.96636 255 0 0
-13.428 -2.52854 -4.58536 255 0 0
-13.3598 -2.54851 -4.57338 255 0 0
-13.424 -2.42905 -4.69883 255 0 0
-13.4182 -2.46087 -4.69883 255 0 0
-13.458 -2.40226 -4.82277 255 0 0
-13.5299 -2.05259 -5.06368 255 0 0
-13.5363 -2.08641 -5.06624 255 0 0
-13.5222 -2.28161 -5.07008 255 0 0
