ply
format ascii 1.0
comment Created by Open3D
element vertex 435
property double x
property double y
property double z
property uchar red
property uchar green
property uchar blue
end_header
2.38779 -4.22401 -3.9745 255 0 0
2.07399 -4.14914 -4.06987 255 0 0
2.2972 -4.58215 -3.88978 255 0 0
2.36378 -4.2997 -3.8322 255 0 0
2.40096 -4.12089 -3.71348 255 0 0
1.82505 -3.95109 -3.98562 255 0 0
2.64491 -3.90679 -3.8743 255 0 0
2.34101 -4.2583 -3.93051 255 0 0
2.58186 -3.92289 -3.68725 255 0 0
2.36175 -4.32024 -3.8619 255 0 0
2.03557 -4.13338 -4.05595 255 0 0
2.05985 -4.03677 -4.11328 255 0 0
0.682893 -3.7485 -3.77674 255 0 0
2.41814 -3.96455 -3.98031 255 0 0
1.3831 -3.49332 -3.75199 255 0 0
2.29196 -4.51806 -4.01266 255 0 0
2.33708 -4.47478 -4.20257 255 0 0
2.14472 -4.10642 -4.1603 255 0 0
2.44192 -3.96113 -3.89358 255 0 0
1.4457 -3.57687 -3.79901 255 0 0
0.729408 -3.79922 -3.80396 255 0 0
1.90465 -4.26882 -4.03944 255 0 0
2.41553 -4.06795 -3.92521 255 0 0
2.48286 -3.84816 -3.99808 255 0 0
2.61626 -3.94454 -3.83502 255 0 0
1.95533 -3.97045 -4.06379 255 0 0
1.29736 -3.46758 -3.68911 255 0 0
2.42641 -4.1196 -3.85354 255 0 0
2.18309 -4.22865 -4.12356 255 0 0
2.3534 -4.26884 -3.70569 255 0 0
2.45462 -3.87801 -3.73556 255 0 0
2.4329 -4.15305 -4.24443 255 0 0
2.55038 -3.90524 -3.71964 255 0 0
2.66947 -3.86362 -3.86565 255 0 0
2.13228 -4.43541 -4.14715 255 0 0
1.14483 -3.53769 -3.6964 255 0 0
0.987099 -3.54621 -3.67939 255 0 0
2.50006 -3.87821 -4.15163 255 0 0
0.71653 -3.70833 -3.72314 255 0 0
2.529 -3.85248 -3.99543 255 0 0
2.51127 -3.84535 -3.82458 255 0 0
2.39261 -4.16315 -4.14264 255 0 0
2.41942 -4.06349 -3.78837 255 0 0
2.43145 -3.97224 -4.07822 255 0 0
1.83467 -3.94729 -4.02976 255 0 0
2.58704 -3.90718 -3.93722 255 0 0
2.61811 -3.7702 -3.69229 255 0 0
0.639711 -3.7373 -3.76808 255 0 0
2.09399 -4.38234 -4.11905 255 0 0
2.32372 -4.34815 -3.95861 255 0 0
2.10412 -4.09949 -4.10228 255 0 0
2.30266 -4.53916 -4.17049 255 0 0
2.41398 -4.06529 -3.69863 255 0 0
1.94088 -4.07429 -4.0138 255 0 0
2.6255 -3.86822 -3.99363 255 0 0
2.55231 -3.9082 -3.80963 255 0 0
2.304 -4.54181 -3.87762 255 0 0
2.32356 -4.42329 -4.13068 255 0 0
2.57251 -3.90867 -3.83648 255 0 0
1.88457 -4.08001 -4.00545 255 0 0
2.43287 -3.96751 -4.03055 255 0 0
2.29852 -4.531 -3.82534 255 0 0
0.683847 -3.82234 -3.68135 255 0 0
2.32169 -4.45817 -3.7941 255 0 0
1.80405 -3.94243 -4.02172 255 0 0
2.44667 -3.91321 -4.02884 255 0 0
2.11541 -4.07382 -4.1405 255 0 0
1.43366 -3.52302 -3.73529 255 0 0
2.38875 -4.27287 -3.89781 255 0 0
2.4465 -3.82494 -3.93621 255 0 0
2.59562 -3.87343 -4.08061 255 0 0
2.38575 -4.17405 -3.99144 255 0 0
2.40764 -4.09877 -4.12117 255 0 0
2.30079 -4.53547 -3.68521 255 0 0
2.31512 -4.52381 -3.87357 255 0 0
2.59013 -3.91525 -3.73078 255 0 0
2.45416 -3.83691 -3.80944 255 0 0
1.58645 -3.83319 -3.93449 255 0 0
2.43673 -4.00565 -3.90793 255 0 0
2.31423 -4.46967 -4.14637 255 0 0
1.72076 -4.06204 -3.92471 255 0 0
0.642533 -3.72726 -3.72557 255 0 0
2.329 -4.42091 -4.08195 255 0 0
0.860266 -3.59735 -3.72477 255 0 0
2.44275 -3.973 -3.77478 255 0 0
2.64319 -3.77754 -3.7874 255 0 0
2.61016 -3.91516 -4.0997 255 0 0
2.42605 -4.01308 -4.09254 255 0 0
2.58983 -3.89466 -4.04061 255 0 0
2.35605 -4.32201 -3.81483 255 0 0
1.56874 -3.77778 -3.8253 255 0 0
2.38458 -4.26542 -4.22947 255 0 0
2.53203 -3.85709 -4.08188 255 0 0
2.36093 -4.27058 -4.08091 255 0 0
2.00217 -4.24177 -4.04647 255 0 0
2.51557 -3.88201 -3.70546 255 0 0
2.29657 -4.56735 -3.78885 255 0 0
2.39058 -4.21722 -4.21164 255 0 0
2.30095 -4.57606 -3.84018 255 0 0
1.36584 -3.48586 -3.74581 255 0 0
1.72193 -3.9216 -3.95402 255 0 0
2.37353 -4.21043 -4.08493 255 0 0
2.33154 -4.32566 -4.19275 255 0 0
0.978211 -3.54128 -3.67615 255 0 0
2.39437 -4.16616 -3.95538 255 0 0
2.32627 -4.46686 -3.97653 255 0 0
2.40692 -4.09754 -3.75204 255 0 0
2.62557 -3.87821 -4.04335 255 0 0
0.830365 -3.60434 -3.72477 255 0 0
2.45444 -3.91873 -4.10957 255 0 0
2.46419 -3.83254 -3.98793 255 0 0
2.34159 -4.40673 -3.83982 255 0 0
1.89504 -4.08992 -4.01141 255 0 0
2.33221 -4.31474 -3.94852 255 0 0
2.63092 -3.90601 -3.93164 255 0 0
2.3675 -4.36765 -3.92603 255 0 0
0.671944 -3.84334 -3.70227 255 0 0
2.40304 -4.09095 -3.70457 255 0 0
2.43841 -3.95541 -3.7278 255 0 0
2.35322 -4.36596 -4.01828 255 0 0
1.9272 -3.96058 -4.05389 255 0 0
2.58816 -3.87225 -3.98617 255 0 0
2.18952 -4.52696 -4.19398 255 0 0
2.40129 -4.11028 -4.07691 255 0 0
0.681776 -3.71755 -3.72435 255 0 0
2.53423 -3.85052 -4.03402 255 0 0
2.33399 -4.36741 -3.73277 255 0 0
2.43629 -3.82894 -3.80296 255 0 0
1.77706 -4.00837 -3.95654 255 0 0
1.86885 -4.22893 -4.0172 255 0 0
2.36586 -4.31572 -3.79131 255 0 0
1.19481 -3.5341 -3.6834 255 0 0
2.31699 -4.56748 -4.08412 255 0 0
1.2831 -3.52374 -3.74331 255 0 0
2.36155 -4.2597 -3.68158 255 0 0
2.29819 -4.57057 -3.74252 255 0 0
2.4351 -4.02445 -4.14602 255 0 0
2.22609 -4.09512 -4.17349 255 0 0
2.60925 -3.9138 -4.14602 255 0 0
1.31953 -3.5141 -3.67499 255 0 0
2.40167 -4.13336 -3.78511 255 0 0
2.34531 -4.37608 -3.78376 255 0 0
2.41067 -4.10954 -3.79037 255 0 0
1.84598 -4.05949 -3.98994 255 0 0
2.30362 -4.58139 -4.2373 255 0 0
2.42287 -4.015 -3.68477 255 0 0
0.74862 -3.62042 -3.68668 255 0 0
2.09121 -4.06244 -4.1306 255 0 0
2.48074 -3.85828 -3.91117 255 0 0
2.3025 -4.47295 -3.9986 255 0 0
2.38309 -4.21573 -4.13681 255 0 0
2.13462 -4.12272 -4.11807 255 0 0
1.81654 -4.02 -3.96847 255 0 0
2.24975 -4.09228 -4.17762 255 0 0
2.60853 -3.89269 -3.90682 255 0 0
2.65745 -3.78832 -4.15782 255 0 0
2.44084 -3.91766 -3.92318 255 0 0
2.29234 -4.5725 -4.18121 255 0 0
2.3515 -4.32583 -3.8619 255 0 0
2.04906 -4.31458 -4.08393 255 0 0
2.38272 -4.32202 -3.91333 255 0 0
2.34767 -4.21108 -3.91537 255 0 0
2.32273 -4.47311 -3.89004 255 0 0
2.53086 -3.89547 -3.78617 255 0 0
1.17871 -3.553 -3.68913 255 0 0
2.44402 -3.86637 -3.93932 255 0 0
2.45044 -3.92269 -3.74902 255 0 0
1.4824 -3.6182 -3.7839 255 0 0
2.34451 -4.41223 -4.17993 255 0 0
2.37384 -4.30592 -4.24324 255 0 0
2.29334 -4.57449 -3.69565 255 0 0
2.30648 -4.5201 -3.68153 255 0 0
2.33186 -4.41999 -3.6906 255 0 0
2.45923 -3.94714 -4.12172 255 0 0
2.30691 -4.54754 -3.73686 255 0 0
2.30509 -4.51737 -3.72742 255 0 0
2.31326 -4.50696 -3.72553 255 0 0
2.32179 -4.46612 -3.73318 255 0 0
2.3467 -4.36627 -3.6884 255 0 0
2.35908 -4.31542 -3.67519 255 0 0
2.28675 -4.5613 -4.02707 255 0 0
2.61996 -3.86992 -4.08538 255 0 0
2.40909 -4.15749 -4.1922 255 0 0
2.40696 -4.16517 -3.95758 255 0 0
2.30441 -4.52932 -3.77821 255 0 0
2.31168 -4.50388 -3.77144 255 0 0
2.32739 -4.41784 -3.74727 255 0 0
2.34564 -4.31509 -3.71858 255 0 0
2.36887 -4.21384 -3.69151 255 0 0
2.37868 -4.1617 -3.67733 255 0 0
2.44958 -4.01608 -3.82374 255 0 0
2.3121 -4.51789 -3.82336 255 0 0
2.33614 -4.40907 -3.79267 255 0 0
2.36455 -4.26516 -3.75208 255 0 0
2.37362 -4.22225 -3.74021 255 0 0
2.39192 -4.16959 -3.72701 255 0 0
2.4294 -3.97236 -3.67289 255 0 0
2.4448 -3.91988 -3.69454 255 0 0
2.6274 -3.92077 -3.69566 255 0 0
2.38494 -4.06017 -3.8707 255 0 0
2.31835 -4.57015 -3.98671 255 0 0
0.626546 -3.76779 -3.74258 255 0 0
2.33041 -4.26292 -4.2165 255 0 0
2.36388 -4.32417 -4.0054 255 0 0
1.41763 -4.31079 -3.67305 255 0 0
2.32969 -4.4606 -3.85534 255 0 0
2.34856 -4.35731 -3.82496 255 0 0
2.37422 -4.25867 -3.79762 255 0 0
2.37822 -4.20706 -3.78175 255 0 0
2.39531 -4.16781 -3.7723 255 0 0
2.41026 -4.07005 -3.74394 255 0 0
2.42632 -4.02074 -3.73138 255 0 0
2.45049 -3.8715 -3.68925 255 0 0
2.47771 -3.87371 -3.69533 255 0 0
2.62407 -3.90585 -3.73483 255 0 0
2.66104 -3.93062 -3.75002 255 0 0
2.63635 -3.87434 -3.72774 255 0 0
2.37647 -4.27464 -4.18241 255 0 0
0.766194 -3.59768 -3.67817 255 0 0
2.47826 -3.83439 -3.94693 255 0 0
2.30042 -4.57502 -3.93645 255 0 0
2.30677 -4.54727 -3.92817 255 0 0
2.31419 -4.52198 -3.92092 255 0 0
2.32865 -4.47155 -3.93048 255 0 0
2.33671 -4.42281 -3.89158 255 0 0
2.34823 -4.36909 -3.8757 255 0 0
2.37022 -4.26344 -3.84464 255 0 0
2.38251 -4.21469 -3.83083 255 0 0
2.39334 -4.1644 -3.81633 255 0 0
2.42506 -4.0186 -3.77491 255 0 0
2.45709 -3.90236 -3.74384 255 0 0
2.48086 -3.87861 -3.74108 255 0 0
2.51968 -3.88837 -3.75213 255 0 0
2.58816 -3.91225 -3.77388 255 0 0
2.63229 -3.90804 -3.78181 255 0 0
2.622 -3.77574 -3.73832 255 0 0
2.3316 -4.51636 -3.97048 255 0 0
2.35168 -4.42572 -3.94297 255 0 0
2.3961 -4.22698 -3.8837 255 0 0
2.40932 -4.20373 -3.87841 255 0 0
2.41691 -4.171 -3.86889 255 0 0
2.43876 -4.06304 -3.83714 255 0 0
2.45239 -3.97808 -3.81174 255 0 0
2.46256 -3.9525 -3.80539 255 0 0
2.47743 -3.9141 -3.79587 255 0 0
2.48257 -3.89148 -3.78952 255 0 0
2.63275 -3.91874 -3.83026 255 0 0
2.40226 -4.17989 -4.19949 255 0 0
2.41389 -4.10946 -4.17438 255 0 0
2.404 -4.12612 -3.94324 255 0 0
0.732581 -3.66806 -3.67976 255 0 0
2.52943 -3.8832 -3.88586 255 0 0
2.29524 -4.49807 -4.00617 255 0 0
2.31803 -4.41273 -3.98023 255 0 0
2.32872 -4.38248 -3.97158 255 0 0
2.35464 -4.18847 -3.90889 255 0 0
2.35878 -4.16114 -3.90024 255 0 0
2.37267 -4.11714 -3.88781 255 0 0
2.39424 -4.01039 -3.85556 255 0 0
2.40294 -3.9607 -3.84043 255 0 0
2.41487 -3.91726 -3.82818 255 0 0
2.43162 -3.87212 -3.81647 255 0 0
2.46914 -3.84023 -3.81377 255 0 0
2.49166 -3.84512 -3.82025 255 0 0
2.57682 -3.86511 -3.84547 255 0 0
2.61132 -3.87694 -3.857 255 0 0
2.59341 -3.89004 -3.94795 255 0 0
2.30182 -4.59134 -4.09 255 0 0
2.3246 -4.51589 -4.06683 255 0 0
2.33333 -4.46758 -4.05101 255 0 0
2.34553 -4.41415 -4.03409 255 0 0
2.37524 -4.27249 -3.98922 255 0 0
2.4118 -4.10586 -3.93772 255 0 0
2.42532 -4.01903 -3.93293 255 0 0
2.45387 -3.92818 -3.88475 255 0 0
2.45917 -3.90566 -3.87813 255 0 0
2.47753 -3.87342 -3.87107 255 0 0
2.58188 -3.90606 -3.90535 255 0 0
0.926741 -3.57421 -3.7218 255 0 0
2.30167 -4.55059 -4.12473 255 0 0
2.31667 -4.51362 -4.11385 255 0 0
2.32301 -4.46066 -4.09546 255 0 0
2.33848 -4.36087 -4.08105 255 0 0
2.34902 -4.3213 -4.04929 255 0 0
2.36169 -4.2959 -4.04254 255 0 0
2.35618 -4.26191 -4.02902 255 0 0
2.37153 -4.26576 -4.03353 255 0 0
2.37096 -4.21168 -4.02555 255 0 0
2.38863 -4.11097 -3.98098 255 0 0
2.40254 -4.06254 -3.97801 255 0 0
2.41677 -4.03362 -3.97448 255 0 0
2.42893 -3.96103 -3.93594 255 0 0
2.44866 -3.85848 -3.90404 255 0 0
2.52317 -3.86356 -3.93387 255 0 0
2.61787 -3.88667 -3.95246 255 0 0
2.6392 -3.89835 -3.96147 255 0 0
2.64515 -3.80908 -3.93219 255 0 0
1.93249 -4.47296 -4.07785 255 0 0
2.30117 -4.50969 -4.159 255 0 0
2.30448 -4.48985 -4.15211 255 0 0
2.33794 -4.38725 -4.11996 255 0 0
2.34592 -4.30341 -4.0901 255 0 0
2.35576 -4.26115 -4.07632 255 0 0
2.36977 -4.15754 -4.04072 255 0 0
2.38644 -4.11844 -4.02981 255 0 0
2.39862 -4.07235 -4.01545 255 0 0
2.40201 -4.02338 -3.99823 255 0 0
2.43421 -3.907 -3.96301 255 0 0
2.52123 -3.84069 -3.95918 255 0 0
1.2804 -3.50924 -3.6835 255 0 0
2.50859 -3.84125 -4.0472 255 0 0
2.16282 -4.14108 -4.13144 255 0 0
1.20417 -3.57577 -3.75942 255 0 0
0.68493 -3.75974 -3.67684 255 0 0
1.51545 -3.60113 -3.70461 255 0 0
1.78799 -4.17924 -3.98325 255 0 0
1.82198 -4.2172 -4.00432 255 0 0
1.84555 -4.23037 -4.01369 255 0 0
1.92928 -4.26952 -4.04413 255 0 0
1.94058 -4.24081 -4.03476 255 0 0
1.97642 -4.25233 -4.04588 255 0 0
2.31438 -4.54888 -4.22676 255 0 0
2.3224 -4.51162 -4.21388 255 0 0
2.35535 -4.36991 -4.16588 255 0 0
2.36146 -4.31978 -4.14793 255 0 0
2.37389 -4.27003 -4.13154 255 0 0
2.39339 -4.16448 -4.09564 255 0 0
2.41166 -4.06141 -4.08426 255 0 0
2.41542 -4.04585 -4.05583 255 0 0
2.42149 -4.02344 -4.04881 255 0 0
2.45311 -3.87568 -4.0012 255 0 0
2.59022 -3.86537 -4.03008 255 0 0
2.65706 -3.88492 -4.05349 255 0 0
2.00492 -3.99914 -4.08606 255 0 0
2.66464 -3.90595 -4.20484 255 0 0
0.687284 -4.10289 -3.85632 255 0 0
0.652694 -3.81318 -3.72628 255 0 0
0.683522 -3.72714 -3.69089 255 0 0
1.03412 -3.56735 -3.68056 255 0 0
1.08053 -3.5604 -3.68059 255 0 0
1.12685 -3.55391 -3.67855 255 0 0
1.2131 -3.5466 -3.6726 255 0 0
1.23566 -3.53038 -3.68777 255 0 0
1.68964 -4.01507 -3.94381 255 0 0
1.73006 -4.00441 -3.94651 255 0 0
1.80481 -4.01942 -3.96608 255 0 0
1.88758 -4.09926 -4.0138 255 0 0
1.91242 -4.0641 -4.00426 255 0 0
1.97983 -4.06076 -4.04598 255 0 0
1.99316 -4.10849 -4.03766 255 0 0
2.1116 -4.18711 -4.09254 255 0 0
2.15055 -4.23931 -4.12117 255 0 0
2.17275 -4.25801 -4.1331 255 0 0
2.16838 -4.20015 -4.10924 255 0 0
2.23059 -4.23403 -4.13549 255 0 0
2.27832 -4.2632 -4.15696 255 0 0
2.36222 -4.34554 -4.20707 255 0 0
2.36736 -4.31836 -4.19752 255 0 0
2.38783 -4.21635 -4.17833 255 0 0
2.39976 -4.11886 -4.12714 255 0 0
2.40103 -4.06542 -4.10685 255 0 0
2.44542 -3.93537 -4.06749 255 0 0
2.45194 -3.88397 -4.04959 255 0 0
2.47613 -3.85109 -4.04303 255 0 0
2.46385 -3.83201 -4.03289 255 0 0
2.58313 -3.8946 -4.08538 255 0 0
2.4567 -4.07099 -4.21721 255 0 0
1.17877 -3.57024 -3.75323 255 0 0
0.743998 -3.67138 -3.73417 255 0 0
0.789748 -3.58303 -3.67392 255 0 0
0.935559 -3.5458 -3.67307 255 0 0
1.58848 -3.85105 -3.90055 255 0 0
1.63686 -3.91555 -3.9362 255 0 0
1.68135 -3.91713 -3.94479 255 0 0
1.74009 -3.92497 -3.98038 255 0 0
1.77758 -3.93374 -3.96941 255 0 0
1.87125 -3.97659 -4.00506 255 0 0
1.88747 -3.9646 -4.03864 255 0 0
1.9342 -4.02332 -4.03666 255 0 0
1.98161 -4.0358 -4.05124 255 0 0
2.02812 -4.05737 -4.06947 255 0 0
2.07342 -4.08724 -4.09093 255 0 0
2.19493 -4.16635 -4.14845 255 0 0
2.23015 -4.16119 -4.15392 255 0 0
2.26178 -4.16078 -4.1606 255 0 0
2.43665 -4.05951 -4.18396 255 0 0
2.41942 -4.05254 -4.15331 255 0 0
2.44605 -3.96783 -4.12658 255 0 0
2.47856 -3.90558 -4.13369 255 0 0
2.46445 -3.89354 -4.10228 255 0 0
2.4817 -3.85976 -4.09353 255 0 0
2.5322 -3.8774 -4.13612 255 0 0
2.57851 -3.88091 -4.12577 255 0 0
2.62808 -3.88189 -4.13873 255 0 0
2.6705 -3.90458 -4.15817 255 0 0
0.62018 -3.81319 -3.80148 255 0 0
0.633956 -3.74812 -3.77261 255 0 0
0.68098 -3.73809 -3.77179 255 0 0
0.734689 -3.76213 -3.78746 255 0 0
0.73899 -3.72974 -3.77303 255 0 0
0.780856 -3.62444 -3.7289 255 0 0
0.884053 -3.58391 -3.72131 255 0 0
0.976565 -3.57393 -3.72766 255 0 0
1.03175 -3.57496 -3.73508 255 0 0
1.08018 -3.56747 -3.73813 255 0 0
1.13291 -3.57298 -3.74787 255 0 0
1.23146 -3.55071 -3.75249 255 0 0
1.22111 -3.57002 -3.75942 255 0 0
1.27177 -3.55229 -3.75942 255 0 0
1.30544 -3.4891 -3.73715 255 0 0
1.32719 -3.47178 -3.73319 255 0 0
1.41424 -3.53518 -3.7755 255 0 0
1.54619 -3.79954 -3.91284 255 0 0
1.62631 -3.83904 -3.94418 255 0 0
1.65146 -3.84755 -3.95243 255 0 0
1.67675 -3.86843 -3.96604 255 0 0
1.70432 -3.89405 -3.98213 255 0 0
1.77792 -3.94699 -4.01863 255 0 0
1.97889 -3.98247 -4.07369 255 0 0
2.03352 -4.02038 -4.10091 255 0 0
2.18285 -4.1079 -4.1692 255 0 0
2.39547 -4.30883 -4.29887 255 0 0
2.41473 -4.27167 -4.28815 255 0 0
2.42478 -4.21911 -4.26918 255 0 0
2.43412 -4.18921 -4.25928 255 0 0
2.44752 -4.12183 -4.23536 255 0 0
2.45523 -4.09046 -4.22463 255 0 0
2.4606 -4.01271 -4.19494 255 0 0
2.47694 -3.96514 -4.18009 255 0 0
2.4852 -3.91606 -4.16277 255 0 0
2.54358 -3.88474 -4.16525 255 0 0
2.57954 -3.89919 -4.18009 255 0 0
2.59338 -3.89 -4.18009 255 0 0
2.61163 -3.88736 -4.1838 255 0 0
2.63884 -3.89782 -4.19494 255 0 0
