ply
format ascii 1.0
comment Created by Open3D
element vertex 1067
property double x
property double y
property double z
property uchar red
property uchar green
property uchar blue
end_header
3.07874 -2.78978 -3.85394 255 0 0
6.08554 -2.15433 -3.78741 255 0 0
3.07219 -2.35111 -3.80396 255 0 0
5.57351 -3.10723 -4.29256 255 0 0
3.20287 -3.07996 -3.89487 255 0 0
3.07236 -2.52335 -3.81387 255 0 0
4.67223 -2.51116 -3.98069 255 0 0
6.00726 -1.99923 -4.03969 255 0 0
4.67748 -2.3035 -3.97166 255 0 0
3.48461 -2.1198 -3.77954 255 0 0
3.50119 -2.30431 -3.82871 255 0 0
3.22238 -2.67867 -3.82824 255 0 0
4.87401 -2.9729 -3.99771 255 0 0
4.67888 -2.55061 -4.01516 255 0 0
5.67925 -2.98332 -4.24476 255 0 0
3.52337 -2.96438 -3.87372 255 0 0
5.85042 -2.602 -4.12171 255 0 0
5.67844 -2.9401 -4.23751 255 0 0
3.52874 -1.92671 -3.77688 255 0 0
4.69238 -2.44368 -3.95054 255 0 0
6.12363 -2.02988 -4.01936 255 0 0
3.59198 -2.50071 -3.78103 255 0 0
3.23972 -2.17658 -3.78066 255 0 0
4.73636 -3.2725 -4.23187 255 0 0
6.24302 -1.93073 -4.22582 255 0 0
3.30754 -3.3272 -3.95471 255 0 0
3.98616 -3.20323 -3.83721 255 0 0
6.07099 -2.03644 -3.9461 255 0 0
3.43143 -2.34093 -3.81232 255 0 0
3.13062 -2.93289 -3.87164 255 0 0
3.83211 -3.22568 -3.83727 255 0 0
4.83686 -2.89545 -3.97257 255 0 0
4.14812 -2.06119 -3.97526 255 0 0
4.59569 -3.10335 -3.78653 255 0 0
4.58699 -2.98785 -4.17479 255 0 0
4.77124 -3.24664 -3.85924 255 0 0
4.07351 -1.85818 -3.99789 255 0 0
2.91644 -2.77802 -3.8782 255 0 0
4.80179 -2.05431 -3.82753 255 0 0
3.30209 -2.27573 -3.78951 255 0 0
4.58521 -3.19218 -3.90299 255 0 0
3.07145 -2.94658 -3.89927 255 0 0
3.33038 -2.23172 -3.78892 255 0 0
2.93414 -2.69701 -3.8584 255 0 0
5.64895 -2.48038 -4.04435 255 0 0
3.14166 -2.76644 -3.82637 255 0 0
5.92379 -2.0027 -4.01455 255 0 0
4.58939 -2.30765 -4.04076 255 0 0
3.01884 -2.46144 -3.81633 255 0 0
4.86085 -2.97279 -4.04707 255 0 0
3.61398 -2.90415 -3.84187 255 0 0
4.91487 -2.84797 -3.88228 255 0 0
5.66762 -3.1685 -4.21166 255 0 0
5.52853 -2.08346 -4.06733 255 0 0
5.6591 -3.02432 -4.24525 255 0 0
5.33721 -2.04755 -3.78935 255 0 0
3.41577 -2.58209 -3.82597 255 0 0
3.95982 -3.22868 -3.8837 255 0 0
3.71178 -2.12155 -3.78131 255 0 0
3.67404 -1.91703 -3.78077 255 0 0
4.03009 -2.66612 -3.9197 255 0 0
4.22485 -3.22528 -4.00998 255 0 0
4.83037 -3.02542 -4.20965 255 0 0
4.78602 -2.713 -4.1856 255 0 0
4.72599 -3.19134 -4.10245 255 0 0
4.17465 -2.37954 -3.95538 255 0 0
3.71879 -3.31399 -3.88364 255 0 0
4.84419 -2.7157 -4.10007 255 0 0
4.74025 -2.21004 -3.92826 255 0 0
4.69168 -3.20067 -4.1477 255 0 0
2.96117 -3.14584 -3.97104 255 0 0
3.74313 -1.91565 -3.83456 255 0 0
3.19275 -3.12904 -3.90635 255 0 0
4.31295 -2.13036 -3.91105 255 0 0
5.43884 -2.11618 -3.93385 255 0 0
4.57989 -3.25339 -3.80987 255 0 0
3.02634 -2.58113 -3.81468 255 0 0
4.75536 -2.75554 -4.18344 255 0 0
3.29461 -2.77861 -3.83791 255 0 0
5.64981 -2.52885 -4.16596 255 0 0
4.79071 -2.25434 -3.85267 255 0 0
4.712 -2.41145 -3.80294 255 0 0
4.28769 -2.44397 -3.91333 255 0 0
5.6828 -2.01173 -3.94214 255 0 0
2.87445 -2.91911 -3.91036 255 0 0
4.4531 -2.21273 -4.07181 255 0 0
4.18173 -2.95566 -3.93645 255 0 0
5.7414 -2.00191 -3.95889 255 0 0
2.87334 -2.95977 -3.92356 255 0 0
3.50154 -2.46247 -3.78356 255 0 0
4.75927 -2.60909 -4.05243 255 0 0
5.36059 -2.05652 -3.90254 255 0 0
5.57494 -3.06485 -4.34551 255 0 0
5.48034 -2.17734 -4.06346 255 0 0
3.06906 -2.31429 -3.79241 255 0 0
4.82859 -3.07238 -4.11005 255 0 0
6.17761 -1.91051 -4.26265 255 0 0
5.73022 -3.26621 -4.24659 255 0 0
3.67977 -1.91077 -3.8295 255 0 0
4.85966 -3.02776 -4.00351 255 0 0
4.65158 -2.48588 -3.99444 255 0 0
3.78111 -2.11973 -3.80608 255 0 0
3.20995 -2.72023 -3.83573 255 0 0
3.93209 -1.82189 -3.89076 255 0 0
3.02465 -2.36052 -3.78911 255 0 0
3.73594 -2.6806 -3.82674 255 0 0
5.68314 -1.9665 -4.04836 255 0 0
3.02793 -2.42143 -3.80792 255 0 0
4.82343 -2.98144 -4.19836 255 0 0
4.67944 -2.74125 -4.12847 255 0 0
3.7002 -3.16597 -3.88794 255 0 0
4.68073 -2.4659 -3.95054 255 0 0
3.57918 -2.36783 -3.78806 255 0 0
3.03091 -3.21996 -3.97324 255 0 0
3.6838 -2.16976 -3.78131 255 0 0
3.86955 -3.24 -3.9085 255 0 0
3.83948 -1.86828 -3.77906 255 0 0
4.83685 -3.11804 -4.06753 255 0 0
4.79662 -3.25562 -3.92096 255 0 0
2.9194 -2.72852 -3.86335 255 0 0
3.47976 -2.96306 -3.87459 255 0 0
3.6514 -2.52924 -3.80751 255 0 0
5.68185 -2.03416 -3.88905 255 0 0
4.78354 -3.11588 -4.05103 255 0 0
4.61689 -2.99176 -4.1856 255 0 0
2.99537 -2.64393 -3.82278 255 0 0
3.3439 -3.07369 -3.89241 255 0 0
4.74654 -2.98077 -4.22668 255 0 0
6.11806 -2.10076 -3.84905 255 0 0
6.01324 -1.96171 -4.09592 255 0 0
4.54995 -2.99455 -3.80493 255 0 0
4.09515 -3.16488 -3.95717 255 0 0
3.88019 -1.83149 -3.87203 255 0 0
3.43011 -2.28089 -3.78908 255 0 0
4.67519 -2.22712 -3.81206 255 0 0
4.85399 -2.98443 -3.99384 255 0 0
3.04688 -2.33177 -3.78911 255 0 0
4.8171 -2.19739 -3.85267 255 0 0
3.61704 -2.3196 -3.79032 255 0 0
3.23473 -2.62474 -3.81747 255 0 0
5.41026 -1.97321 -4.01511 255 0 0
5.67663 -3.21785 -4.16223 255 0 0
3.00846 -3.32798 -4.00187 255 0 0
3.60026 -2.67491 -3.82517 255 0 0
3.49084 -3.28591 -3.90456 255 0 0
4.81339 -3.20898 -4.13284 255 0 0
4.89514 -3.2384 -3.9449 255 0 0
3.68102 -1.86184 -3.92356 255 0 0
3.58118 -2.75413 -3.83841 255 0 0
4.45606 -3.21337 -4.02549 255 0 0
4.2181 -1.82831 -4.09741 255 0 0
3.90931 -2.1673 -3.86238 255 0 0
4.71922 -2.2207 -3.77651 255 0 0
4.80691 -3.32963 -3.99172 255 0 0
3.8688 -3.31022 -3.82929 255 0 0
3.97413 -1.95129 -3.88798 255 0 0
4.17776 -2.46071 -3.97303 255 0 0
3.55759 -3.27007 -3.9197 255 0 0
3.06892 -3.11659 -3.95176 255 0 0
5.73261 -3.02874 -4.14841 255 0 0
4.49433 -3.2248 -4.09179 255 0 0
4.37986 -2.21532 -3.99731 255 0 0
5.8816 -2.06645 -3.83816 255 0 0
4.11919 -2.03465 -3.95918 255 0 0
5.77963 -1.97688 -4.02409 255 0 0
3.11571 -3.12683 -3.92588 255 0 0
3.14311 -3.28409 -3.93851 255 0 0
3.18685 -2.0812 -3.77488 255 0 0
4.78864 -2.89752 -3.85465 255 0 0
3.13731 -2.62692 -3.8259 255 0 0
2.95849 -2.57422 -3.8287 255 0 0
5.621 -2.07274 -4.09634 255 0 0
3.4814 -2.17859 -3.77827 255 0 0
3.67533 -1.8864 -3.88476 255 0 0
3.09273 -2.43144 -3.79483 255 0 0
4.64758 -2.54786 -4.10561 255 0 0
5.42967 -1.94388 -4.01801 255 0 0
3.98284 -3.2255 -3.78377 255 0 0
5.47997 -2.06515 -3.83308 255 0 0
3.51776 -2.48637 -3.79482 255 0 0
5.87155 -2.00056 -3.9984 255 0 0
2.8889 -2.89232 -3.90624 255 0 0
5.26387 -2.90197 -4.33029 255 0 0
4.81345 -3.10295 -4.22023 255 0 0
3.31624 -2.51923 -3.817 255 0 0
4.30058 -2.51933 -4.02821 255 0 0
4.81851 -3.22894 -3.97568 255 0 0
3.41233 -2.07953 -3.78315 255 0 0
5.71923 -1.96381 -4.05969 255 0 0
4.83838 -3.10281 -4.01125 255 0 0
5.5575 -2.16235 -4.08667 255 0 0
3.59809 -3.18353 -3.86254 255 0 0
5.88093 -2.11333 -3.78629 255 0 0
3.05051 -2.89883 -3.8778 255 0 0
2.99817 -2.67822 -3.83412 255 0 0
4.87915 -2.82727 -3.97321 255 0 0
5.86369 -2.03675 -3.8865 255 0 0
4.84461 -2.83803 -3.91243 255 0 0
3.1459 -2.34891 -3.79119 255 0 0
5.79315 -1.89751 -4.13308 255 0 0
4.51794 -2.23161 -3.95355 255 0 0
5.83969 -1.89743 -4.14855 255 0 0
4.73506 -3.26329 -4.17463 255 0 0
5.66572 -2.17357 -4.12341 255 0 0
2.9031 -2.6876 -3.84479 255 0 0
3.68418 -2.53904 -3.82075 255 0 0
5.48721 -1.9792 -3.93293 255 0 0
4.64562 -2.56833 -4.10886 255 0 0
3.04636 -2.92252 -3.88376 255 0 0
4.74818 -3.66956 -4.15595 255 0 0
2.99004 -2.43796 -3.79901 255 0 0
4.59641 -2.25683 -4.03427 255 0 0
4.60229 -2.53724 -4.13856 255 0 0
3.19367 -2.72277 -3.83105 255 0 0
3.41494 -3.16896 -3.89579 255 0 0
3.16873 -3.32665 -3.95918 255 0 0
3.26925 -2.17395 -3.79119 255 0 0
4.73686 -3.27282 -4.12271 255 0 0
3.13593 -2.70903 -3.84916 255 0 0
3.53067 -3.12387 -3.87286 255 0 0
6.18627 -2.15703 -3.81397 255 0 0
5.71661 -2.0696 -3.90305 255 0 0
5.81461 -2.02744 -3.92753 255 0 0
4.33727 -2.44506 -3.93027 255 0 0
4.80682 -3.19638 -4.18291 255 0 0
5.79048 -2.55892 -4.09777 255 0 0
4.45828 -2.1759 -3.82901 255 0 0
3.3842 -2.47105 -3.78692 255 0 0
3.31805 -3.17564 -3.91361 255 0 0
3.00801 -2.72569 -3.85195 255 0 0
2.97299 -2.94842 -3.91028 255 0 0
4.76733 -3.27717 -4.0243 255 0 0
5.88099 -1.89545 -4.16209 255 0 0
3.36596 -3.30663 -3.92007 255 0 0
3.77336 -1.92204 -3.81416 255 0 0
4.76717 -2.67997 -4.17263 255 0 0
3.33448 -2.42263 -3.79827 255 0 0
6.19886 -1.9655 -4.15486 255 0 0
4.8278 -2.82052 -4.06144 255 0 0
5.72529 -1.98108 -4.00752 255 0 0
5.87514 -1.87818 -4.21601 255 0 0
4.79725 -3.25605 -4.24774 255 0 0
5.59789 -3.05159 -4.29058 255 0 0
4.87211 -3.22313 -4.04412 255 0 0
4.23828 -3.08697 -3.78594 255 0 0
3.12133 -3.0736 -3.91125 255 0 0
3.67742 -2.27311 -3.7802 255 0 0
3.0453 -3.0345 -3.91836 255 0 0
3.53122 -1.91411 -3.8325 255 0 0
3.28889 -3.26173 -3.92994 255 0 0
3.53255 -3.01526 -3.84511 255 0 0
5.46984 -2.09844 -3.9955 255 0 0
3.46642 -2.88156 -3.87814 255 0 0
4.02641 -1.83092 -4.06255 255 0 0
3.94206 -3.23761 -3.78498 255 0 0
3.47264 -2.71017 -3.83536 255 0 0
5.59554 -2.0709 -3.81329 255 0 0
2.93935 -3.1005 -3.94916 255 0 0
4.81152 -2.26413 -3.91046 255 0 0
6.19101 -1.91465 -4.32819 255 0 0
3.0503 -3.1124 -3.94461 255 0 0
4.79546 -2.9328 -4.23316 255 0 0
4.83332 -3.23052 -4.08864 255 0 0
4.74522 -3.32031 -4.08072 255 0 0
4.79973 -2.87322 -4.22235 255 0 0
4.8664 -3.03198 -4.05994 255 0 0
3.76216 -2.93615 -3.89592 255 0 0
5.5456 -3.06587 -4.39623 255 0 0
3.72805 -2.53035 -3.78999 255 0 0
3.66778 -2.97611 -3.87646 255 0 0
5.92698 -2.02728 -3.96077 255 0 0
4.82478 -3.0619 -4.05301 255 0 0
2.94607 -3.16725 -3.97347 255 0 0
4.68091 -3.49504 -4.04412 255 0 0
4.81444 -3.01281 -4.1477 255 0 0
4.83026 -3.22851 -4.22463 255 0 0
4.73963 -1.98134 -3.79755 255 0 0
5.93061 -1.93473 -4.12482 255 0 0
4.86233 -2.21805 -3.87007 255 0 0
3.1204 -2.66348 -3.83067 255 0 0
4.3272 -3.17536 -4.02965 255 0 0
4.77758 -3.23442 -4.0728 255 0 0
4.46129 -3.2494 -3.82887 255 0 0
4.45641 -3.36045 -3.90111 255 0 0
3.90049 -3.43464 -3.91611 255 0 0
4.87254 -2.85439 -3.87123 255 0 0
3.96907 -1.96049 -3.78718 255 0 0
4.6393 -2.82221 -3.7994 255 0 0
3.32576 -2.27272 -3.79747 255 0 0
4.81398 -3.13571 -4.17256 255 0 0
5.53177 -2.16746 -4.07893 255 0 0
3.06158 -3.13876 -3.95654 255 0 0
3.04012 -2.98653 -3.90166 255 0 0
5.63239 -2.48905 -4.09745 255 0 0
3.6956 -2.29643 -3.81284 255 0 0
4.31822 -2.84204 -4.05373 255 0 0
4.06635 -1.85492 -4.03909 255 0 0
3.0856 -2.46754 -3.80253 255 0 0
3.74589 -1.90583 -3.87541 255 0 0
4.79609 -3.56336 -4.03515 255 0 0
5.65091 -2.15254 -4.05969 255 0 0
2.97824 -2.72195 -3.84077 255 0 0
5.70342 -3.03931 -4.20128 255 0 0
5.47872 -2.07209 -3.88707 255 0 0
5.69434 -1.9855 -3.99831 255 0 0
4.79637 -2.98832 -4.24505 255 0 0
4.23639 -3.21032 -3.81049 255 0 0
2.88626 -2.8624 -3.89552 255 0 0
3.25904 -2.44545 -3.81815 255 0 0
3.64863 -2.88249 -3.84728 255 0 0
4.81958 -2.86962 -4.06802 255 0 0
4.67884 -2.22883 -3.86196 255 0 0
4.8231 -3.06082 -4.21459 255 0 0
3.34793 -3.02649 -3.88039 255 0 0
3.74435 -2.57397 -3.80512 255 0 0
5.49767 -2.00509 -3.88528 255 0 0
4.70847 -2.8796 -3.82887 255 0 0
4.68548 -3.49845 -3.99172 255 0 0
3.62239 -1.91931 -3.82928 255 0 0
3.924 -1.85785 -3.98076 255 0 0
3.15799 -2.59993 -3.8253 255 0 0
3.83735 -3.0687 -3.90487 255 0 0
2.90737 -2.85612 -3.90047 255 0 0
3.94117 -3.30792 -3.80045 255 0 0
3.61226 -1.88119 -3.87859 255 0 0
3.07926 -2.28216 -3.78726 255 0 0
4.84263 -3.52716 -4.09634 255 0 0
6.02092 -1.8777 -4.32526 255 0 0
4.72254 -3.6141 -4.08087 255 0 0
4.57686 -2.18028 -3.82138 255 0 0
3.41413 -2.53033 -3.81218 255 0 0
3.58055 -1.9226 -3.82701 255 0 0
3.51326 -2.50824 -3.79857 255 0 0
4.80617 -3.26211 -3.97851 255 0 0
4.68599 -3.06819 -3.80448 255 0 0
4.13217 -1.83194 -4.06217 255 0 0
3.0653 -3.15752 -3.96369 255 0 0
5.7519 -1.89911 -4.11954 255 0 0
3.73556 -2.72758 -3.83755 255 0 0
5.53037 -3.06601 -4.33133 255 0 0
4.82884 -2.72217 -4.04371 255 0 0
5.58342 -2.11169 -4.03326 255 0 0
3.2898 -2.07685 -3.77498 255 0 0
5.60869 -2.07577 -4.03703 255 0 0
3.72765 -1.83575 -3.93758 255 0 0
4.11472 -2.21782 -3.857 255 0 0
5.65245 -2.90967 -4.16541 255 0 0
3.1325 -2.17532 -3.77839 255 0 0
5.92361 -2.06544 -3.84975 255 0 0
3.4271 -2.43445 -3.79266 255 0 0
5.50859 -2.02388 -3.89067 255 0 0
5.68529 -2.56092 -4.12388 255 0 0
3.36513 -3.06385 -3.89616 255 0 0
3.43991 -2.2214 -3.78656 255 0 0
3.79684 -1.88664 -3.84978 255 0 0
3.36068 -2.21756 -3.79667 255 0 0
3.65787 -3.05538 -3.84772 255 0 0
4.94231 -2.87955 -3.9483 255 0 0
3.66394 -3.02376 -3.88727 255 0 0
5.80365 -2.5977 -4.10697 255 0 0
5.63371 -3.10586 -4.25105 255 0 0
3.48837 -2.22541 -3.80529 255 0 0
5.2607 -2.0182 -3.81525 255 0 0
2.90196 -2.7316 -3.8584 255 0 0
4.71518 -2.54147 -3.97485 255 0 0
3.43797 -2.36936 -3.82168 255 0 0
3.43913 -1.90663 -3.83365 255 0 0
3.17835 -2.56651 -3.82292 255 0 0
3.73655 -2.16518 -3.79932 255 0 0
5.82659 -2.07041 -3.82326 255 0 0
4.11909 -2.39991 -3.93993 255 0 0
4.87103 -2.23596 -3.82559 255 0 0
3.64519 -2.94348 -3.86133 255 0 0
4.78246 -3.18018 -4.22658 255 0 0
4.70542 -3.17746 -4.20118 255 0 0
5.67969 -3.13121 -4.17899 255 0 0
3.40215 -1.8967 -3.81633 255 0 0
4.77095 -3.25475 -3.96718 255 0 0
3.64198 -2.63946 -3.83031 255 0 0
2.95698 -3.17894 -3.98076 255 0 0
3.74422 -1.9274 -3.77516 255 0 0
5.68724 -2.97896 -4.18681 255 0 0
3.13884 -2.41987 -3.8082 255 0 0
3.7244 -3.21736 -3.90804 255 0 0
3.3116 -3.31553 -3.95246 255 0 0
3.11156 -3.17495 -3.93954 255 0 0
3.37634 -3.0232 -3.88828 255 0 0
3.14392 -2.57279 -3.81278 255 0 0
3.41381 -2.69041 -3.85353 255 0 0
3.59872 -1.91226 -3.85924 255 0 0
3.40252 -3.14245 -3.88475 255 0 0
3.73413 -2.82971 -3.86133 255 0 0
3.51446 -2.92148 -3.85974 255 0 0
4.81931 -2.90049 -3.86386 255 0 0
3.79312 -1.82076 -3.78392 255 0 0
3.48754 -2.6821 -3.8331 255 0 0
4.83716 -2.05589 -3.83913 255 0 0
3.39214 -2.11905 -3.78474 255 0 0
4.78335 -3.44938 -4.00872 255 0 0
6.04485 -2.02767 -3.99575 255 0 0
3.64166 -3.37935 -3.92603 255 0 0
4.73691 -3.56315 -4.0741 255 0 0
3.18764 -2.53061 -3.81616 255 0 0
4.8132 -2.9176 -4.23604 255 0 0
3.54776 -3.09429 -3.91565 255 0 0
3.34139 -2.38555 -3.79124 255 0 0
3.38132 -2.43835 -3.77773 255 0 0
2.95074 -3.24861 -4.04647 255 0 0
3.42328 -3.19184 -3.90462 255 0 0
3.56823 -1.87981 -3.88067 255 0 0
3.20786 -2.50353 -3.81576 255 0 0
3.56699 -3.0962 -3.87646 255 0 0
3.09267 -2.23765 -3.78004 255 0 0
4.67954 -2.27017 -3.96683 255 0 0
4.80013 -2.81197 -4.15673 255 0 0
3.90116 -3.19628 -3.8594 255 0 0
3.17725 -3.21898 -3.92875 255 0 0
3.63508 -2.78189 -3.86268 255 0 0
3.39412 -3.18728 -3.89468 255 0 0
4.04115 -2.3289 -3.898 255 0 0
3.47524 -3.31817 -3.90889 255 0 0
5.40014 -2.02775 -3.85835 255 0 0
4.88273 -2.87592 -3.98288 255 0 0
4.16033 -1.82086 -4.0719 255 0 0
4.6093 -2.24285 -4.03644 255 0 0
5.76806 -2.04193 -3.91529 255 0 0
4.83083 -3.17944 -4.07775 255 0 0
3.6326 -3.27601 -3.8964 255 0 0
5.6606 -2.07973 -3.99831 255 0 0
3.37734 -3.22469 -3.9002 255 0 0
3.47908 -3.29044 -3.9024 255 0 0
3.87775 -1.88688 -3.92432 255 0 0
5.58282 -2.07369 -4.02854 255 0 0
5.49756 -2.04205 -3.8357 255 0 0
4.07027 -1.82187 -4.07946 255 0 0
3.77821 -1.87363 -3.92405 255 0 0
4.79181 -2.8071 -4.10007 255 0 0
3.5092 -2.25042 -3.77773 255 0 0
3.78754 -1.7768 -3.78405 255 0 0
4.34729 -3.22194 -4.04622 255 0 0
3.34384 -3.10298 -3.90066 255 0 0
3.21807 -3.01959 -3.88185 255 0 0
3.92317 -3.47948 -3.93333 255 0 0
4.84677 -2.23875 -3.86814 255 0 0
4.04616 -3.16551 -3.99165 255 0 0
6.13085 -1.91198 -4.24718 255 0 0
2.95726 -3.27135 -4.05636 255 0 0
4.64354 -2.17836 -3.98847 255 0 0
5.66475 -3.24671 -4.22394 255 0 0
3.88191 -3.22696 -3.82938 255 0 0
3.0622 -2.98691 -3.90881 255 0 0
3.60283 -2.74369 -3.84282 255 0 0
5.60323 -2.08887 -4.09247 255 0 0
4.81505 -3.24317 -4.19534 255 0 0
2.96996 -2.86963 -3.88415 255 0 0
6.24062 -1.96246 -4.16775 255 0 0
5.78392 -1.96304 -4.08046 255 0 0
3.6618 -2.62743 -3.83399 255 0 0
4.86579 -3.26898 -4.16119 255 0 0
4.85595 -3.51926 -4.0427 255 0 0
3.78198 -3.23593 -3.83509 255 0 0
5.71828 -3.0734 -4.15118 255 0 0
4.86489 -2.83443 -3.8657 255 0 0
3.8288 -1.84625 -3.98213 255 0 0
3.27445 -2.51206 -3.80061 255 0 0
4.07484 -1.82969 -4.03787 255 0 0
4.24995 -2.09924 -3.97498 255 0 0
4.48663 -2.18316 -4.03041 255 0 0
3.53458 -2.43594 -3.83056 255 0 0
4.03 -1.83829 -4.02086 255 0 0
2.96776 -2.97127 -3.91595 255 0 0
3.2232 -2.0616 -3.78416 255 0 0
3.45127 -2.45166 -3.80529 255 0 0
4.24346 -2.43881 -3.89746 255 0 0
3.65119 -2.82177 -3.83322 255 0 0
5.64151 -3.19795 -4.20883 255 0 0
4.07543 -3.20399 -3.81399 255 0 0
6.20736 -2.14789 -3.81866 255 0 0
5.89664 -1.97795 -4.06093 255 0 0
3.61126 -2.35839 -3.79707 255 0 0
4.85771 -2.97087 -4.20753 255 0 0
2.89177 -2.76545 -3.86582 255 0 0
4.26864 -1.8322 -4.11929 255 0 0
4.77497 -3.27412 -4.08006 255 0 0
4.86713 -3.17033 -4.03252 255 0 0
5.71132 -2.57265 -4.07566 255 0 0
3.53609 -3.07918 -3.86277 255 0 0
4.04194 -3.21662 -3.80754 255 0 0
3.11161 -2.7531 -3.85394 255 0 0
4.67196 -2.48256 -3.97555 255 0 0
4.7775 -3.24265 -4.12878 255 0 0
3.73539 -2.62031 -3.81269 255 0 0
5.58557 -1.92532 -4.06733 255 0 0
4.51016 -3.20386 -4.03966 255 0 0
3.63432 -2.28229 -3.78806 255 0 0
4.63815 -3.10011 -3.7973 255 0 0
4.79465 -2.78591 -4.09696 255 0 0
3.02487 -2.62312 -3.82667 255 0 0
5.24726 -2.79623 -4.13616 255 0 0
2.94455 -2.52546 -3.80891 255 0 0
4.85648 -2.25722 -3.87394 255 0 0
5.71067 -1.90052 -4.10601 255 0 0
5.66659 -3.08033 -4.25685 255 0 0
3.73095 -1.86495 -3.93099 255 0 0
4.70432 -3.01684 -4.22019 255 0 0
4.61273 -2.46511 -4.02763 255 0 0
4.84806 -3.07667 -4.06291 255 0 0
6.13855 -2.15673 -3.80147 255 0 0
5.65163 -2.49756 -4.16209 255 0 0
3.66811 -2.34007 -3.81284 255 0 0
3.37611 -2.17259 -3.7915 255 0 0
3.91538 -1.87657 -3.93745 255 0 0
4.81267 -2.81932 -4.21587 255 0 0
4.86442 -3.1304 -4.02414 255 0 0
3.08537 -3.23141 -3.9493 255 0 0
4.83223 -2.84619 -3.85834 255 0 0
3.07266 -3.19528 -3.93408 255 0 0
5.64011 -2.10261 -4.05025 255 0 0
5.97049 -2.1136 -3.81043 255 0 0
3.40123 -2.06353 -3.7752 255 0 0
5.83885 -2.11385 -3.77502 255 0 0
5.93365 -2.1164 -3.80077 255 0 0
6.04424 -2.1075 -3.82974 255 0 0
6.10242 -2.11158 -3.84583 255 0 0
3.42517 -2.63412 -3.84262 255 0 0
4.8148 -2.84361 -4.11457 255 0 0
5.64591 -3.09515 -4.25298 255 0 0
4.82168 -2.83997 -4.16943 255 0 0
5.63948 -1.97387 -4.03515 255 0 0
5.67484 -2.07731 -3.78186 255 0 0
5.72444 -2.07243 -3.7951 255 0 0
5.78747 -2.07974 -3.81332 255 0 0
5.97095 -2.06608 -3.863 255 0 0
6.01832 -2.06651 -3.87625 255 0 0
6.07637 -2.07035 -3.89281 255 0 0
6.12382 -2.07033 -3.90606 255 0 0
6.10195 -2.01468 -4.07022 255 0 0
5.71693 -2.08506 -3.90479 255 0 0
4.95652 -2.01016 -3.82181 255 0 0
4.86925 -2.88356 -3.92754 255 0 0
3.59695 -2.33084 -3.78581 255 0 0
3.83638 -1.87611 -3.93409 255 0 0
5.80354 -1.99276 -3.97685 255 0 0
5.51187 -2.05481 -3.78775 255 0 0
5.69928 -2.04805 -3.84053 255 0 0
5.74106 -2.04771 -3.85245 255 0 0
5.80927 -2.05652 -3.87288 255 0 0
5.81941 -2.0446 -3.87459 255 0 0
5.96628 -2.04864 -3.91715 255 0 0
6.02415 -2.05256 -3.93418 255 0 0
6.00777 -2.03109 -3.92737 255 0 0
5.48729 -1.97187 -3.98606 255 0 0
5.68233 -3.12095 -4.2082 255 0 0
4.5687 -2.2837 -4.12811 255 0 0
3.5394 -3.17679 -3.88943 255 0 0
3.038 -3.28162 -3.99551 255 0 0
3.62769 -2.72881 -3.84724 255 0 0
3.37932 -2.98046 -3.87739 255 0 0
3.28641 -2.83224 -3.85008 255 0 0
5.34797 -2.06624 -3.7946 255 0 0
5.59658 -2.05621 -3.86631 255 0 0
5.75179 -2.02084 -3.90829 255 0 0
5.86693 -2.03009 -3.94327 255 0 0
5.99768 -2.02768 -3.98176 255 0 0
4.03146 -3.27121 -3.91408 255 0 0
5.71158 -2.55649 -4.13143 255 0 0
3.20026 -2.22799 -3.77904 255 0 0
5.70908 -3.18281 -4.16591 255 0 0
4.45856 -2.22864 -3.98023 255 0 0
4.78935 -3.18477 -3.85296 255 0 0
4.70393 -3.1119 -3.81705 255 0 0
4.70664 -3.09768 -3.81525 255 0 0
5.17971 -2.07213 -3.7973 255 0 0
5.17356 -2.0271 -3.79012 255 0 0
5.32348 -2.05678 -3.8386 255 0 0
5.43213 -2.06921 -3.87271 255 0 0
5.58249 -2.08113 -3.91939 255 0 0
5.67626 -2.10077 -3.94992 255 0 0
5.63865 -2.04137 -3.93196 255 0 0
5.58579 -2.00727 -3.91221 255 0 0
5.80406 -2.00834 -3.97864 255 0 0
5.9708 -2.00283 -4.02892 255 0 0
6.13849 -2.01062 -4.08099 255 0 0
6.14854 -1.99778 -4.08278 255 0 0
3.5061 -3.11699 -3.90903 255 0 0
3.6273 -3.05917 -3.88511 255 0 0
5.81188 -1.94952 -4.08801 255 0 0
3.8239 -3.1028 -3.9091 255 0 0
3.70994 -3.20489 -3.90064 255 0 0
5.51261 -2.49888 -4.06158 255 0 0
5.62679 -3.10204 -4.3084 255 0 0
4.82624 -2.9281 -4.18848 255 0 0
4.32492 -3.18161 -3.77914 255 0 0
4.36524 -3.21124 -3.79572 255 0 0
4.85984 -3.50454 -3.98542 255 0 0
4.8275 -3.46385 -3.96884 255 0 0
4.79498 -3.42333 -3.95227 255 0 0
4.8008 -3.30858 -3.93201 255 0 0
4.8178 -3.30348 -3.93569 255 0 0
4.82419 -3.27435 -3.93201 255 0 0
4.8258 -3.22553 -3.92341 255 0 0
4.84096 -2.88234 -3.86693 255 0 0
5.7389 -3.22624 -4.18157 255 0 0
5.70203 -3.16118 -4.16039 255 0 0
5.72435 -3.12054 -4.16039 255 0 0
5.7283 -2.98316 -4.14013 255 0 0
4.87721 -2.23177 -3.7773 255 0 0
5.46222 -2.47604 -3.98726 255 0 0
4.97553 -2.01787 -3.77914 255 0 0
5.01639 -2.02061 -3.79203 255 0 0
5.17598 -2.07064 -3.84729 255 0 0
5.34617 -2.12403 -3.90622 255 0 0
5.28398 -2.08483 -3.88228 255 0 0
5.31996 -2.08446 -3.89333 255 0 0
5.56309 -2.14935 -3.97621 255 0 0
5.38623 -2.05172 -3.90991 255 0 0
5.46386 -2.06647 -3.93569 255 0 0
5.7029 -2.14144 -4.01857 255 0 0
5.35382 -1.99588 -3.89333 255 0 0
5.57225 -2.06228 -3.96884 255 0 0
5.64985 -2.06059 -3.99279 255 0 0
5.62772 -2.00728 -3.97989 255 0 0
5.6639 -2.00506 -3.99094 255 0 0
5.6529 -1.9861 -3.98542 255 0 0
3.48503 -2.53204 -3.79482 255 0 0
5.84454 -1.97591 -4.04435 255 0 0
5.94877 -1.97976 -4.07751 255 0 0
5.96929 -1.97088 -4.08303 255 0 0
6.11541 -1.971 -4.12908 255 0 0
6.09889 -1.94972 -4.12171 255 0 0
6.21342 -1.93773 -4.1567 255 0 0
4.86876 -2.77517 -4.01341 255 0 0
4.27282 -2.3821 -3.99069 255 0 0
3.50289 -2.80123 -3.82517 255 0 0
4.72644 -3.20799 -4.16013 255 0 0
4.13718 -3.18952 -3.77934 255 0 0
4.1683 -3.18995 -3.78783 255 0 0
4.63727 -3.47961 -3.97473 255 0 0
4.8011 -3.30879 -3.98606 255 0 0
4.74494 -3.25352 -3.95963 255 0 0
4.70766 -3.13045 -3.92565 255 0 0
5.69749 -3.07965 -4.206 255 0 0
5.71086 -3.06068 -4.20694 255 0 0
5.70572 -3.02319 -4.19939 255 0 0
4.64854 -2.36508 -3.77651 255 0 0
4.6772 -2.21448 -3.78661 255 0 0
4.84999 -2.2682 -3.8237 255 0 0
5.6738 -2.49129 -4.11066 255 0 0
5.02942 -2.19414 -3.86901 255 0 0
4.82858 -2.08611 -3.79161 255 0 0
4.86985 -1.99519 -3.79255 255 0 0
5.66587 -2.26662 -4.07857 255 0 0
5.63524 -2.23113 -4.06441 255 0 0
5.59929 -2.18626 -4.04742 255 0 0
5.61996 -2.17133 -4.05214 255 0 0
5.52475 -2.01496 -4.00305 255 0 0
5.5285 -1.97189 -3.99928 255 0 0
5.58018 -1.97543 -4.01627 255 0 0
5.86908 -1.95324 -4.10689 255 0 0
5.87369 -1.93932 -4.10689 255 0 0
5.99812 -1.9332 -4.14653 255 0 0
6.01853 -1.92403 -4.1522 255 0 0
6.09704 -1.93321 -4.17863 255 0 0
6.16735 -1.93138 -4.20128 255 0 0
3.04559 -3.17466 -3.9631 255 0 0
3.26043 -2.38067 -3.80144 255 0 0
3.48253 -1.94151 -3.77917 255 0 0
3.42436 -1.93041 -3.78026 255 0 0
4.00277 -2.31944 -3.88255 255 0 0
3.92423 -3.26208 -3.78563 255 0 0
4.08679 -3.18949 -3.81399 255 0 0
4.29077 -3.33234 -3.90101 255 0 0
4.6834 -3.61061 -4.06926 255 0 0
4.77057 -3.62402 -4.09634 255 0 0
4.5072 -3.16971 -3.92809 255 0 0
4.77734 -3.34279 -4.04025 255 0 0
4.74443 -3.30303 -4.02285 255 0 0
4.7871 -3.24088 -4.02285 255 0 0
4.8394 -3.22907 -4.03574 255 0 0
5.01218 -3.28176 -4.09634 255 0 0
4.87123 -3.07518 -4.01576 255 0 0
4.8798 -3.01627 -4.00738 255 0 0
4.84672 -2.93266 -3.98224 255 0 0
4.87242 -2.91673 -3.98707 255 0 0
4.91582 -2.80972 -3.98127 255 0 0
5.40418 -3.06341 -4.17369 255 0 0
5.58956 -3.15101 -4.24525 255 0 0
5.60184 -3.14045 -4.24718 255 0 0
5.6264 -3.12508 -4.27205 255 0 0
5.65319 -3.04705 -4.24718 255 0 0
4.63999 -2.22386 -3.80045 255 0 0
4.83109 -2.25936 -3.8662 255 0 0
4.94337 -2.22673 -3.89715 255 0 0
5.63026 -2.47748 -4.15242 255 0 0
5.61347 -2.43312 -4.14082 255 0 0
4.9238 -2.12033 -3.87587 255 0 0
4.82166 -2.03581 -3.83139 255 0 0
4.77962 -1.97151 -3.80915 255 0 0
4.87315 -1.97639 -3.8401 255 0 0
4.78867 -1.94209 -3.80819 255 0 0
4.91585 -1.96657 -3.85267 255 0 0
5.43408 -2.14406 -4.04412 255 0 0
5.53157 -2.12212 -4.07313 255 0 0
5.35257 -1.9378 -3.99191 255 0 0
5.49125 -1.94394 -4.03832 255 0 0
5.5216 -1.93261 -4.04702 255 0 0
5.64174 -1.91479 -4.08473 255 0 0
5.69567 -1.91054 -4.10214 255 0 0
5.91705 -1.89159 -4.17369 255 0 0
5.98474 -1.8976 -4.1969 255 0 0
6.02086 -1.89336 -4.2085 255 0 0
2.97867 -2.77728 -3.85802 255 0 0
4.06415 -2.40678 -3.87646 255 0 0
3.60651 -3.04164 -3.8743 255 0 0
3.83542 -3.27642 -3.82806 255 0 0
3.87119 -3.26484 -3.8194 255 0 0
3.93342 -3.22271 -3.82692 255 0 0
3.95283 -3.1919 -3.82534 255 0 0
3.99968 -3.19075 -3.8382 255 0 0
4.67854 -3.63349 -4.12824 255 0 0
4.77509 -3.316 -4.08864 255 0 0
4.85622 -3.24586 -4.09854 255 0 0
4.82901 -3.02062 -4.08654 255 0 0
4.84321 -2.98571 -4.0441 255 0 0
2.98686 -2.82223 -3.87479 255 0 0
4.84186 -2.92975 -4.03321 255 0 0
4.90318 -2.96682 -4.05895 255 0 0
4.84469 -2.8768 -4.0243 255 0 0
4.86219 -2.82521 -4.02034 255 0 0
4.84081 -2.81271 -4.01143 255 0 0
4.84004 -2.75881 -4.00153 255 0 0
4.84827 -2.73312 -3.99955 255 0 0
4.87705 -2.72657 -4.03358 255 0 0
5.63901 -3.07398 -4.30741 255 0 0
5.64625 -3.04331 -4.30444 255 0 0
5.60002 -3.00128 -4.28266 255 0 0
4.83999 -2.56448 -3.96788 255 0 0
4.76318 -2.50933 -3.93422 255 0 0
4.76524 -2.48162 -3.93026 255 0 0
4.63099 -2.23307 -3.84711 255 0 0
5.74468 -1.88163 -4.17179 255 0 0
5.77009 -1.87482 -4.17971 255 0 0
6.00314 -1.88778 -4.26088 255 0 0
6.04442 -1.88503 -4.27474 255 0 0
4.66728 -2.53711 -4.16173 255 0 0
2.98808 -2.47793 -3.81014 255 0 0
4.45242 -2.91526 -4.11426 255 0 0
3.92505 -3.51453 -3.94244 255 0 0
3.83838 -3.36382 -3.88168 255 0 0
3.77823 -3.27954 -3.84454 255 0 0
3.82789 -3.26737 -3.87933 255 0 0
3.8741 -3.22044 -3.85737 255 0 0
3.91054 -3.21949 -3.8675 255 0 0
4.73376 -3.69441 -4.21386 255 0 0
4.6861 -3.63936 -4.18752 255 0 0
4.75992 -3.67864 -4.21791 255 0 0
4.46298 -3.25063 -4.03561 255 0 0
4.56125 -3.20772 -4.05587 255 0 0
4.56884 -3.1969 -4.05587 255 0 0
4.54034 -3.16094 -4.03966 255 0 0
4.73646 -3.23945 -4.11562 255 0 0
4.82625 -3.18462 -4.13182 255 0 0
4.76631 -3.12078 -4.10043 255 0 0
4.7912 -3.11278 -4.1065 255 0 0
4.81148 -3.10168 -4.11056 255 0 0
4.83287 -2.97145 -4.09165 255 0 0
4.82881 -2.92184 -4.08085 255 0 0
4.81799 -2.769 -4.04878 255 0 0
4.79763 -2.72711 -4.0346 255 0 0
4.87362 -2.73221 -4.05992 255 0 0
5.57734 -3.03182 -4.34045 255 0 0
4.69844 -2.27247 -3.92421 255 0 0
4.68098 -2.22305 -3.91054 255 0 0
5.93784 -1.86725 -4.29487 255 0 0
3.57346 -3.30032 -3.88582 255 0 0
3.6242 -3.28405 -3.84947 255 0 0
3.7356 -3.36089 -3.90021 255 0 0
3.72169 -3.26937 -3.87329 255 0 0
3.76349 -3.25895 -3.88261 255 0 0
3.78514 -3.24641 -3.88571 255 0 0
3.81473 -3.23279 -3.89089 255 0 0
3.81156 -3.16845 -3.87432 255 0 0
3.93827 -3.08111 -3.89089 255 0 0
4.11791 -3.19809 -3.97166 255 0 0
4.25025 -3.26868 -4.02758 255 0 0
4.26411 -3.2234 -4.02137 255 0 0
4.36755 -3.27723 -4.06486 255 0 0
4.42259 -3.22121 -4.069 255 0 0
4.42004 -3.18739 -4.06072 255 0 0
4.34596 -3.10275 -4.0193 255 0 0
4.62199 -3.23409 -4.13321 255 0 0
4.78241 -3.16383 -4.16842 255 0 0
4.79523 -3.13432 -4.16634 255 0 0
4.77243 -3.09253 -4.17755 255 0 0
4.82963 -3.08107 -4.16634 255 0 0
4.82361 -3.02917 -4.15392 255 0 0
4.82526 -2.97468 -4.14356 255 0 0
4.81472 -2.92893 -4.13114 255 0 0
4.79135 -2.9147 -4.12078 255 0 0
4.80042 -2.88912 -4.11871 255 0 0
4.81771 -2.87625 -4.12182 255 0 0
4.78095 -2.72512 -4.08102 255 0 0
5.47248 -3.0509 -4.36931 255 0 0
4.65121 -2.52124 -4.00066 255 0 0
4.68403 -2.23134 -3.962 255 0 0
4.73898 -3.02324 -4.23316 255 0 0
2.88844 -2.83751 -3.88809 255 0 0
3.99508 -1.85685 -4.00992 255 0 0
3.59422 -3.27767 -3.88582 255 0 0
3.61323 -3.30545 -3.89852 255 0 0
3.5938 -3.21025 -3.86818 255 0 0
3.63095 -3.18199 -3.87171 255 0 0
3.7368 -3.18196 -3.90275 255 0 0
3.75266 -3.18015 -3.90699 255 0 0
3.7894 -3.19588 -3.9218 255 0 0
3.83042 -3.21497 -3.93873 255 0 0
3.91053 -3.08188 -3.93027 255 0 0
4.37007 -3.19885 -4.09959 255 0 0
4.72479 -3.23151 -4.21917 255 0 0
4.8353 -3.24849 -4.25833 255 0 0
4.75356 -3.14474 -4.20965 255 0 0
4.76015 -3.12481 -4.20753 255 0 0
4.77767 -3.07988 -4.22182 255 0 0
4.86001 -2.92498 -4.19907 255 0 0
4.84254 -2.88328 -4.18495 255 0 0
4.56306 -2.64411 -4.04456 255 0 0
4.26497 -2.41764 -3.90064 255 0 0
4.24587 -2.37367 -3.88582 255 0 0
4.13492 -2.29238 -3.83291 255 0 0
4.63942 -2.52199 -4.0472 255 0 0
4.59735 -2.43592 -4.01704 255 0 0
4.64621 -2.26762 -4.00435 255 0 0
4.64131 -2.26523 -4.00223 255 0 0
4.64023 -2.21723 -3.99376 255 0 0
4.65869 -2.16529 -3.99165 255 0 0
3.53001 -3.27262 -3.91235 255 0 0
3.56684 -3.23978 -3.91429 255 0 0
3.52354 -3.03294 -3.88057 255 0 0
3.57078 -2.98264 -3.84836 255 0 0
3.70338 -3.07852 -3.91321 255 0 0
3.64032 -2.97536 -3.86781 255 0 0
3.70436 -2.94797 -3.88078 255 0 0
3.7107 -2.89597 -3.86997 255 0 0
3.77566 -2.88004 -3.88655 255 0 0
3.7148 -2.80122 -3.84836 255 0 0
3.61904 -2.70219 -3.79431 255 0 0
3.80889 -2.8299 -3.88511 255 0 0
3.77621 -2.79175 -3.86565 255 0 0
3.74775 -2.75699 -3.84836 255 0 0
3.68174 -2.62856 -3.79719 255 0 0
3.7293 -2.57664 -3.8008 255 0 0
3.8399 -2.64636 -3.85268 255 0 0
3.76561 -2.54282 -3.80512 255 0 0
3.86197 -2.59458 -3.84836 255 0 0
3.76405 -2.51587 -3.79863 255 0 0
3.97844 -2.64554 -3.89808 255 0 0
4.78188 -3.02674 -4.24829 255 0 0
4.81854 -2.9784 -4.25046 255 0 0
4.61483 -2.74769 -4.13372 255 0 0
3.32438 -2.09868 -3.79362 255 0 0
4.80054 -2.79694 -4.20722 255 0 0
4.74161 -2.71763 -4.17119 255 0 0
4.67211 -2.6047 -4.12507 255 0 0
4.64465 -2.52482 -4.10021 255 0 0
4.59536 -2.20917 -4.02563 255 0 0
4.6081 -2.19516 -4.02779 255 0 0
4.5887 -2.17258 -4.01698 255 0 0
3.32714 -3.29964 -3.90682 255 0 0
3.31951 -3.2765 -3.898 255 0 0
3.36992 -3.2793 -3.91344 255 0 0
3.42709 -3.12769 -3.88806 255 0 0
3.47981 -3.13822 -3.90682 255 0 0
3.4768 -3.11316 -3.8991 255 0 0
3.48825 -3.07168 -3.89137 255 0 0
3.42696 -2.96044 -3.84282 255 0 0
3.52264 -2.89314 -3.85496 255 0 0
3.5182 -2.8686 -3.84724 255 0 0
3.51347 -2.83711 -3.83767 255 0 0
3.46284 -2.75577 -3.80089 255 0 0
3.53413 -2.76827 -3.82682 255 0 0
3.47549 -2.76132 -3.83505 255 0 0
3.5182 -2.71235 -3.82927 255 0 0
3.52281 -2.67396 -3.82833 255 0 0
3.58045 -2.64699 -3.81192 255 0 0
3.6586 -2.67806 -3.84503 255 0 0
3.5974 -2.56832 -3.79868 255 0 0
3.63747 -2.57748 -3.81413 255 0 0
3.67325 -2.58323 -3.82737 255 0 0
3.56452 -2.42761 -3.78285 255 0 0
3.84992 -2.27992 -3.82075 255 0 0
4.12665 -2.36516 -3.93551 255 0 0
4.03874 -2.2894 -3.88917 255 0 0
4.11502 -2.31977 -3.92227 255 0 0
4.17728 -2.34183 -3.94876 255 0 0
4.39704 -2.4377 -4.04586 255 0 0
4.66536 -2.55761 -4.16504 255 0 0
4.54797 -2.27334 -4.06904 255 0 0
4.56496 -2.28183 -4.07676 255 0 0
4.17195 -2.01172 -3.88475 255 0 0
3.26503 -3.32361 -3.9412 255 0 0
3.24262 -3.2774 -3.92093 255 0 0
3.30042 -3.22692 -3.92318 255 0 0
3.3157 -3.21123 -3.92318 255 0 0
3.36138 -3.17912 -3.92769 255 0 0
3.35011 -3.13851 -3.91267 255 0 0
3.35061 -2.95043 -3.86013 255 0 0
3.43143 -2.97494 -3.89222 255 0 0
3.46405 -2.92855 -3.88997 255 0 0
3.47292 -2.84539 -3.87064 255 0 0
3.43698 -2.77537 -3.84061 255 0 0
3.43743 -2.71563 -3.82522 255 0 0
3.49556 -2.6359 -3.8241 255 0 0
3.52595 -2.62838 -3.83235 255 0 0
3.47084 -2.57874 -3.80158 255 0 0
3.52223 -2.56964 -3.81659 255 0 0
3.48987 -2.42966 -3.78552 255 0 0
3.52693 -2.43071 -3.78469 255 0 0
3.57369 -2.46289 -3.80833 255 0 0
3.54937 -2.37847 -3.78018 255 0 0
3.71213 -2.33117 -3.82635 255 0 0
3.76339 -2.28936 -3.83536 255 0 0
3.7332 -2.23478 -3.81284 255 0 0
3.80394 -2.1563 -3.82184 255 0 0
3.72926 -2.09067 -3.78131 255 0 0
3.82985 -1.95424 -3.79144 255 0 0
4.5147 -2.27681 -4.10672 255 0 0
3.925 -1.92717 -3.82184 255 0 0
3.05744 -2.96111 -3.89927 255 0 0
3.16888 -3.26424 -3.94004 255 0 0
3.18949 -3.17066 -3.91784 255 0 0
3.19982 -3.10637 -3.90176 255 0 0
3.21159 -3.05917 -3.89142 255 0 0
3.1956 -2.99374 -3.86731 255 0 0
3.2225 -2.97267 -3.86961 255 0 0
3.24084 -2.93667 -3.86501 255 0 0
3.23756 -2.89201 -3.85123 255 0 0
3.26567 -2.91714 -3.86731 255 0 0
3.27544 -2.89805 -3.86501 255 0 0
3.26618 -2.86237 -3.852 255 0 0
3.31795 -2.72501 -3.83094 255 0 0
3.34125 -2.68066 -3.82673 255 0 0
3.37924 -2.67619 -3.83822 255 0 0
3.38831 -2.64437 -3.83286 255 0 0
3.44973 -2.65303 -3.85582 255 0 0
3.40339 -2.55376 -3.81448 255 0 0
3.41042 -2.47164 -3.79611 255 0 0
3.4586 -2.46923 -3.81218 255 0 0
3.47845 -2.43802 -3.81142 255 0 0
3.4515 -2.36663 -3.78462 255 0 0
3.5016 -2.3888 -3.80759 255 0 0
3.4716 -2.35629 -3.78922 255 0 0
3.47839 -2.32496 -3.78416 255 0 0
3.56558 -2.18066 -3.78233 255 0 0
3.64144 -1.91837 -3.78219 255 0 0
3.87343 -1.93616 -3.84664 255 0 0
3.82363 -1.86056 -3.81333 255 0 0
3.82858 -1.76844 -3.7984 255 0 0
3.14017 -3.36785 -4.009 255 0 0
3.12641 -3.32929 -3.99261 255 0 0
3.11219 -3.29844 -3.97856 255 0 0
3.10154 -3.27158 -3.96686 255 0 0
3.11014 -3.21132 -3.95047 255 0 0
3.12006 -3.02178 -3.89505 255 0 0
3.12041 -2.97234 -3.88022 255 0 0
3.13301 -2.89354 -3.86071 255 0 0
3.12963 -2.85624 -3.84861 255 0 0
3.13988 -2.82493 -3.84276 255 0 0
3.15659 -2.80627 -3.84276 255 0 0
3.17202 -2.76922 -3.83714 255 0 0
3.23574 -2.58759 -3.80764 255 0 0
3.27718 -2.58021 -3.81981 255 0 0
3.2701 -2.53964 -3.80646 255 0 0
3.28662 -2.47834 -3.79593 255 0 0
3.30886 -2.46653 -3.80061 255 0 0
3.29554 -2.4485 -3.79124 255 0 0
3.35705 -2.37278 -3.79359 255 0 0
3.32977 -2.32207 -3.78447 255 0 0
3.35988 -2.33126 -3.78422 255 0 0
3.41921 -2.32073 -3.80295 255 0 0
3.40247 -2.2976 -3.79124 255 0 0
3.47246 -2.25017 -3.80529 255 0 0
3.50796 -2.21457 -3.80998 255 0 0
3.52232 -2.06713 -3.78188 255 0 0
3.4745 -1.98317 -3.7752 255 0 0
3.7812 -1.91252 -3.86969 255 0 0
3.83076 -1.91483 -3.86851 255 0 0
3.83211 -1.87589 -3.86857 255 0 0
4.0434 -1.85605 -3.9411 255 0 0
4.06194 -1.84129 -3.94578 255 0 0
4.12012 -1.8559 -3.97154 255 0 0
2.87188 -3.11696 -3.97635 255 0 0
3.04582 -3.33737 -4.01619 255 0 0
3.04421 -3.06959 -3.9291 255 0 0
3.05586 -3.01627 -3.91597 255 0 0
3.07055 -2.88343 -3.87959 255 0 0
3.0806 -2.82897 -3.86634 255 0 0
3.08528 -2.76257 -3.84797 255 0 0
3.09663 -2.72356 -3.84022 255 0 0
3.0972 -2.68841 -3.83008 255 0 0
3.2186 -2.46922 -3.81019 255 0 0
3.24268 -2.41819 -3.80502 255 0 0
3.27534 -2.37373 -3.80502 255 0 0
3.28999 -2.34886 -3.80383 255 0 0
3.28799 -2.32397 -3.79667 255 0 0
3.3165 -2.32061 -3.80622 255 0 0
3.35137 -2.183 -3.78474 255 0 0
3.63266 -1.88628 -3.8265 255 0 0
3.65568 -1.87086 -3.83246 255 0 0
3.77385 -1.89196 -3.88376 255 0 0
3.97561 -1.8679 -3.97101 255 0 0
4.022 -1.86356 -3.97801 255 0 0
4.12918 -1.85407 -4.01976 255 0 0
4.1333 -1.83831 -4.01857 255 0 0
2.97719 -3.31441 -4.0326 255 0 0
2.92458 -3.2662 -4.0002 255 0 0
2.98593 -3.27177 -4.02086 255 0 0
2.95227 -3.21953 -3.99291 255 0 0
2.94842 -3.07341 -3.94309 255 0 0
2.95767 -3.08302 -3.94916 255 0 0
2.95352 -3.03518 -3.93215 255 0 0
2.96058 -3.02085 -3.92972 255 0 0
2.95258 -2.99135 -3.91757 255 0 0
2.96666 -2.91437 -3.89731 255 0 0
3.06569 -2.57313 -3.82602 255 0 0
3.09324 -2.47365 -3.80698 255 0 0
3.11439 -2.41087 -3.79686 255 0 0
3.13403 -2.36912 -3.7924 255 0 0
3.17525 -2.32886 -3.79653 255 0 0
3.12388 -2.27535 -3.78908 255 0 0
3.1838 -2.27531 -3.78535 255 0 0
3.21194 -2.25312 -3.78997 255 0 0
3.2292 -2.21419 -3.78633 255 0 0
3.27952 -2.13894 -3.78633 255 0 0
3.37385 -1.97108 -3.78268 255 0 0
3.32701 -1.92438 -3.77923 255 0 0
3.47498 -1.91754 -3.82406 255 0 0
3.61493 -1.90441 -3.8641 255 0 0
3.67569 -1.90315 -3.8884 255 0 0
3.71986 -1.88704 -3.90298 255 0 0
3.85269 -1.84652 -3.94916 255 0 0
4.01398 -1.85408 -4.01721 255 0 0
2.94451 -3.30419 -4.06379 255 0 0
2.92433 -3.25815 -4.04152 255 0 0
2.89404 -3.17105 -4.00192 255 0 0
2.88343 -3.07419 -3.96542 255 0 0
2.90621 -3.08013 -3.9747 255 0 0
2.884 -3.01338 -3.94501 255 0 0
2.90711 -2.8222 -3.88933 255 0 0
2.9092 -2.66139 -3.8386 255 0 0
2.92589 -2.63241 -3.8353 255 0 0
2.93735 -2.57423 -3.82128 255 0 0
2.97162 -2.51823 -3.81633 255 0 0
3.00791 -2.52461 -3.83118 255 0 0
3.1279 -2.22192 -3.78911 255 0 0
3.17643 -2.16143 -3.79159 255 0 0
3.17571 -2.1226 -3.78119 255 0 0
3.28214 -1.93317 -3.77624 255 0 0
3.31036 -1.89731 -3.77921 255 0 0
3.3793 -1.91027 -3.81014 255 0 0
3.47115 -1.8869 -3.84231 255 0 0
3.51735 -1.88508 -3.86087 255 0 0
3.63529 -1.86587 -3.90542 255 0 0
3.79242 -1.8361 -3.96481 255 0 0
3.89589 -1.83701 -4.00852 255 0 0
3.86102 -1.82805 -3.99203 255 0 0
3.96971 -1.83362 -4.03904 255 0 0
5.6968 -2.9325 -4.1824 255 0 0
