ply
format ascii 1.0
comment Created by Open3D
element vertex 352
property double x
property double y
property double z
property uchar red
property uchar green
property uchar blue
end_header
17.6542 3.71608 -5.25849 0 255 0
16.7692 3.84241 -3.21738 0 255 0
17.5329 3.64714 -4.31981 0 255 0
17.7919 3.74505 -3.8957 0 255 0
16.7045 3.53685 -3.63696 0 255 0
16.6818 4.72879 -4.2461 255 0 0
18.0107 3.59088 -3.91483 0 255 0
18.337 3.45293 -4.25959 0 255 0
18.0385 3.52977 -4.071 0 255 0
18.0226 3.83826 -4.23144 0 255 0
16.7377 3.399 -3.35131 0 255 0
16.8151 3.39396 -3.21386 0 255 0
16.7535 2.37932 -3.48045 0 255 0
16.7206 2.63814 -3.48096 0 255 0
16.9944 4.55724 -4.57727 255 0 0
16.8223 3.54097 -4.66422 0 255 0
16.7161 3.10668 -4.20247 0 255 0
16.7291 3.06809 -4.20322 0 255 0
16.7751 3.61419 -3.21428 0 255 0
16.75 2.78542 -3.34346 0 255 0
16.8085 2.83612 -3.7773 0 255 0
17.754 3.69315 -4.81039 0 255 0
16.7137 3.18831 -3.34623 0 255 0
17.1508 4.5556 -4.59933 255 0 0
17.4406 2.47689 -3.24652 0 255 0
16.7118 3.60054 -4.2145 0 255 0
16.7353 3.43985 -3.35177 0 255 0
16.8213 3.33301 -3.21345 0 255 0
16.7074 3.59961 -3.49525 0 255 0
17.9849 3.07848 -5.13922 255 0 0
18.0463 3.75394 -4.23214 0 255 0
16.6638 3.79745 -3.35223 0 255 0
16.6534 3.6293 -3.34854 0 255 0
17.9674 3.64872 -4.06576 0 255 0
16.7598 3.48634 -3.64115 0 255 0
17.7687 3.12828 -3.88113 0 255 0
17.9265 3.64043 -3.90724 0 255 0
17.9359 3.68663 -4.06314 0 255 0
16.6214 5.8398 -5.031 255 0 0
16.9119 3.64367 -5.27334 0 255 0
18.0927 3.27384 -4.07166 0 255 0
16.7718 3.7385 -3.21593 0 255 0
16.7101 4.2693 -3.65345 255 0 0
18.0582 3.13511 -4.0651 0 255 0
18.0644 3.57932 -4.07494 0 255 0
16.6767 4.38737 -3.79794 255 0 0
16.8686 3.05234 -3.21304 0 255 0
16.7227 2.86244 -4.77394 0 255 0
16.789 3.4924 -3.21345 0 255 0
16.7615 2.78732 -3.48658 0 255 0
16.7298 2.90449 -3.34346 0 255 0
18.0159 3.61413 -4.07035 0 255 0
16.7646 2.29984 -3.48045 0 255 0
17.5808 1.81972 -3.39842 0 255 0
16.7154 3.14757 -3.48811 0 255 0
18.0223 3.6154 -4.53661 0 255 0
16.7432 2.98868 -3.63054 0 255 0
16.736 3.06934 -3.34623 0 255 0
17.2519 2.59631 -3.23453 0 255 0
16.9984 5.25697 -4.75748 255 0 0
17.9698 3.64922 -4.84178 0 255 0
16.9439 2.85896 -3.21593 0 255 0
16.8815 1.66648 -5.06388 0 255 0
17.5183 3.6008 -4.6197 0 255 0
17.3535 2.54853 -3.24114 0 255 0
16.7806 2.18054 -3.48045 0 255 0
18.2823 3.62249 -4.73002 0 255 0
16.8228 1.70096 -3.90514 0 255 0
16.7836 3.5744 -3.21428 0 255 0
16.9926 1.67744 -4.64629 0 255 0
16.7153 3.6013 -4.79567 0 255 0
17.0207 2.78897 -3.22048 0 255 0
16.669 5.63541 -4.87692 255 0 0
16.7373 3.0286 -3.48811 0 255 0
16.765 5.80107 -4.90054 255 0 0
16.7366 3.09 -3.63165 0 255 0
16.87 3.01131 -3.21263 0 255 0
17.0384 5.22513 -4.76197 255 0 0
16.7754 3.90667 -3.21882 0 255 0
18.0182 3.74811 -4.07362 0 255 0
18.0775 3.22684 -4.06904 0 255 0
16.7822 2.54598 -3.343 0 255 0
16.7857 1.65701 -4.90194 0 255 0
18.304 3.49167 -4.41384 0 255 0
16.6724 3.59205 -4.06531 0 255 0
16.8172 3.95847 -3.22254 0 255 0
17.8184 1.67368 -4.77363 255 0 0
16.8086 3.45493 -3.21428 0 255 0
17.0118 1.72007 -3.78276 0 255 0
16.706 2.33216 -3.61713 0 255 0
16.553 5.90407 -5.17419 255 0 0
17.3884 2.51156 -3.24321 0 255 0
16.8406 3.58654 -4.52211 0 255 0
16.7914 3.78468 -3.218 0 255 0
17.4583 1.72341 -4.12444 255 0 0
16.8114 2.42822 -3.34392 0 255 0
16.7384 3.27535 -3.49219 0 255 0
17.6558 1.70064 -4.44776 255 0 0
16.7377 1.73246 -3.89596 0 255 0
17.0411 5.31448 -4.76645 255 0 0
16.7946 3.03895 -5.08261 0 255 0
17.3628 3.61177 -4.8996 0 255 0
17.5648 1.86017 -3.39749 0 255 0
16.834 3.54342 -4.81267 0 255 0
16.7392 2.43804 -3.47994 0 255 0
17.5077 3.64191 -4.46777 0 255 0
17.3304 1.71078 -4.25588 255 0 0
17.0573 5.58698 -4.7817 255 0 0
17.8927 1.68065 -4.93833 255 0 0
17.6541 2.29405 -3.25974 0 255 0
17.7511 2.17838 -3.26553 0 255 0
18.0598 3.0913 -4.06445 0 255 0
18.1035 3.49794 -4.23284 0 255 0
16.6665 3.54946 -3.77669 0 255 0
16.7617 2.95099 -3.63165 0 255 0
18.1365 3.10443 -4.85164 255 0 0
18.0961 3.4965 -4.38751 0 255 0
16.914 2.89518 -3.21428 0 255 0
17.9577 3.69113 -3.91149 0 255 0
16.7698 2.23982 -3.4802 0 255 0
18.0679 3.18095 -4.06707 0 255 0
16.74 2.94717 -3.48709 0 255 0
17.8771 1.72196 -4.63073 255 0 0
16.6848 3.59473 -3.35039 0 255 0
16.8 3.28741 -3.64115 0 255 0
16.8379 3.33629 -3.64562 0 255 0
16.6575 3.6923 -3.34993 0 255 0
16.704 3.14543 -3.34485 0 255 0
16.7342 2.25525 -3.6188 0 255 0
16.7732 5.75943 -4.8996 255 0 0
16.6792 2.97725 -4.3381 0 255 0
16.7867 1.97926 -3.62048 0 255 0
17.5722 3.56848 -4.62649 0 255 0
18.0712 3.35854 -4.071 0 255 0
16.7819 3.40798 -3.64171 0 255 0
18.0608 3.44528 -4.07166 0 255 0
17.5983 3.61725 -4.32734 0 255 0
16.7474 3.58744 -4.65436 0 255 0
17.2975 5.12562 -4.64261 255 0 0
18.8667 3.73829 -4.98077 255 0 0
18.0352 3.61799 -4.85075 0 255 0
17.8017 3.57115 -5.27931 0 255 0
16.7233 2.78097 -3.76758 0 255 0
17.1204 1.77207 -3.65009 0 255 0
16.8583 1.70455 -4.19495 0 255 0
16.9093 2.31968 -3.35039 0 255 0
17.0082 1.67897 -4.50344 255 0 0
16.749 2.09572 -3.61824 0 255 0
17.1676 2.6461 -3.22916 0 255 0
16.7524 3.19569 -3.63501 0 255 0
17.8465 1.71901 -5.08461 255 0 0
16.8197 3.62379 -5.10759 0 255 0
17.8759 3.19087 -3.89327 0 255 0
18.0562 3.31148 -4.06838 0 255 0
16.7631 2.70596 -3.34346 0 255 0
16.7129 3.51794 -3.49423 0 255 0
17.7285 2.21828 -3.26429 0 255 0
17.6305 2.24849 -3.25767 0 255 0
17.6138 2.3313 -3.25726 0 255 0
17.5533 2.38684 -3.25354 0 255 0
17.4811 2.44038 -3.249 0 255 0
17.1555 2.6859 -3.22874 0 255 0
17.0798 2.71556 -3.22378 0 255 0
17.0445 2.75139 -3.22172 0 255 0
16.9909 2.82548 -3.21882 0 255 0
16.8956 2.93328 -3.21345 0 255 0
16.8886 2.97333 -3.21345 0 255 0
16.8555 3.09128 -3.21263 0 255 0
16.8539 3.1323 -3.21304 0 255 0
16.8292 3.16901 -3.2118 0 255 0
16.8217 3.2089 -3.2118 0 255 0
16.8083 3.24767 -3.21139 0 255 0
16.8234 3.292 -3.21304 0 255 0
16.7921 3.5346 -3.21428 0 255 0
16.7779 3.65644 -3.2151 0 255 0
16.7806 3.69872 -3.21593 0 255 0
16.733 3.56363 -3.49678 0 255 0
16.7145 3.02446 -3.34392 0 255 0
16.7387 2.98788 -3.4876 0 255 0
17.411 3.57874 -4.90621 0 255 0
18.0896 3.62891 -4.23425 0 255 0
17.5545 1.90118 -3.39703 0 255 0
17.5558 1.94344 -3.39749 0 255 0
17.5453 1.9844 -3.39703 0 255 0
17.5174 2.02332 -3.39519 0 255 0
17.4545 2.05801 -3.39057 0 255 0
17.3627 2.08893 -3.38364 0 255 0
17.2534 2.1173 -3.37533 0 255 0
17.1846 2.15023 -3.37025 0 255 0
17.1042 2.18137 -3.36424 0 255 0
17.0353 2.21364 -3.35916 0 255 0
16.9837 2.2479 -3.35547 0 255 0
16.9494 2.28426 -3.35316 0 255 0
16.8575 2.35331 -3.34669 0 255 0
16.8403 2.39163 -3.34577 0 255 0
16.7998 2.48756 -3.34369 0 255 0
16.7761 2.58577 -3.343 0 255 0
16.761 2.6445 -3.34254 0 255 0
16.7681 2.74759 -3.34438 0 255 0
16.74 2.84497 -3.34346 0 255 0
16.7344 2.94618 -3.34438 0 255 0
16.7273 2.98585 -3.34438 0 255 0
16.7114 3.10582 -3.34485 0 255 0
16.7176 3.23014 -3.34715 0 255 0
16.7174 3.29184 -3.34808 0 255 0
16.7171 3.35357 -3.349 0 255 0
16.7328 3.48071 -3.35223 0 255 0
16.7346 3.54323 -3.35339 0 255 0
16.6499 3.7528 -3.35039 0 255 0
16.6547 3.83695 -3.35223 0 255 0
16.5837 5.56279 -4.85991 255 0 0
17.5845 1.77797 -3.54628 0 255 0
17.3771 1.79864 -3.52842 0 255 0
17.1814 1.81957 -3.51158 0 255 0
17.0146 1.84271 -3.49729 0 255 0
16.9007 1.89119 -3.48785 0 255 0
16.8389 1.94495 -3.483 0 255 0
16.8284 1.98419 -3.48249 0 255 0
16.8068 2.04226 -3.48122 0 255 0
16.7907 2.10094 -3.48045 0 255 0
16.7857 2.14075 -3.48045 0 255 0
16.7476 2.33797 -3.47943 0 255 0
16.7362 2.49842 -3.48045 0 255 0
16.7302 2.5381 -3.48045 0 255 0
16.7126 2.57598 -3.47943 0 255 0
16.7399 2.70223 -3.48351 0 255 0
16.7565 2.74568 -3.48556 0 255 0
16.7376 2.82414 -3.48505 0 255 0
16.7475 2.88712 -3.48683 0 255 0
16.7322 3.08917 -3.48862 0 255 0
16.7193 3.18938 -3.48913 0 255 0
16.7174 3.23012 -3.48964 0 255 0
16.7477 3.31843 -3.49372 0 255 0
16.7226 3.35469 -3.49219 0 255 0
16.7146 3.39433 -3.49219 0 255 0
16.7065 3.43395 -3.49219 0 255 0
16.7155 3.47711 -3.49372 0 255 0
16.7475 3.03044 -3.63165 0 255 0
16.7549 2.88839 -3.62998 0 255 0
17.4203 1.76137 -3.67859 0 255 0
16.8901 1.78872 -3.6283 0 255 0
16.8083 1.84052 -3.62104 0 255 0
16.7958 1.89964 -3.62048 0 255 0
16.7913 1.93946 -3.62048 0 255 0
16.7819 2.01906 -3.62048 0 255 0
16.7713 2.05813 -3.61992 0 255 0
16.744 2.13543 -3.61824 0 255 0
16.7421 2.19572 -3.6188 0 255 0
16.7288 2.29492 -3.6188 0 255 0
16.6947 2.45178 -3.61768 0 255 0
16.7372 2.78329 -3.62662 0 255 0
16.7421 2.8249 -3.62774 0 255 0
16.737 3.15165 -3.63277 0 255 0
16.7677 3.23982 -3.63724 0 255 0
17.6243 3.53556 -3.72329 255 0 0
16.8765 3.46888 -3.65177 0 255 0
16.7061 3.59932 -3.63836 0 255 0
16.8918 4.35842 -3.67245 255 0 0
18.0142 3.43639 -3.9121 0 255 0
17.4505 1.72264 -3.8283 0 255 0
16.7991 1.73882 -3.7609 0 255 0
16.7486 1.77374 -3.75604 0 255 0
16.9338 2.89856 -3.79126 0 255 0
17.69 3.0712 -3.87202 0 255 0
17.9313 3.24465 -3.89995 0 255 0
17.9637 3.29451 -3.9042 0 255 0
18.0074 3.34667 -3.90967 0 255 0
18.0108 3.39151 -3.91088 0 255 0
18.0174 3.4813 -3.91331 0 255 0
18.032 3.52848 -3.91574 0 255 0
17.9546 3.73488 -3.9121 0 255 0
16.7394 4.44633 -3.80584 255 0 0
17.333 3.60556 -5.04589 0 255 0
17.4504 1.68086 -3.97529 255 0 0
17.151 1.69308 -3.94185 0 255 0
18.0743 3.00563 -4.06445 0 255 0
18.0671 3.04848 -4.06445 0 255 0
18.0575 3.4003 -4.07035 0 255 0
18.1326 3.50355 -4.08084 0 255 0
16.68 4.47292 -3.94579 255 0 0
17.5299 3.6899 -4.32057 0 255 0
17.0956 1.72855 -4.0808 0 255 0
16.785 1.73736 -4.04349 0 255 0
16.7462 1.77348 -4.03926 0 255 0
16.8625 3.05124 -4.07516 0 255 0
16.798 3.08072 -4.06813 0 255 0
17.2421 3.20445 -4.12374 255 0 0
18.1865 3.55872 -4.24411 0 255 0
18.1495 3.59618 -4.24059 0 255 0
17.9898 3.65328 -4.22299 0 255 0
17.9185 3.68305 -4.21525 0 255 0
17.0429 5.53759 -4.77721 255 0 0
17.7482 3.77983 -4.35065 0 255 0
16.7387 1.73256 -4.1799 0 255 0
18.1666 3.10958 -4.38751 255 0 0
16.8878 2.97318 -4.22127 0 255 0
16.8006 2.99893 -4.21074 0 255 0
16.7535 3.03152 -4.20548 0 255 0
16.7486 3.15383 -4.20773 0 255 0
18.1106 3.63313 -4.39278 0 255 0
18.028 3.66103 -4.383 0 255 0
16.6497 4.33809 -4.2288 255 0 0
17.0268 4.4795 -4.2807 255 0 0
18.8423 3.68705 -4.81234 255 0 0
16.7227 2.33449 -4.33009 0 255 0
18.0649 3.57942 -4.54141 0 255 0
17.5532 3.56462 -4.47177 0 255 0
17.4763 3.67863 -4.46457 0 255 0
16.8662 3.59199 -4.37972 0 255 0
16.7516 1.65365 -4.75221 0 255 0
16.7408 3.56527 -4.7985 0 255 0
18.1032 3.63164 -4.70456 0 255 0
17.5891 3.65884 -4.63158 0 255 0
16.9908 3.57643 -4.54332 0 255 0
16.8151 3.6228 -4.51956 0 255 0
17.3526 4.74162 -4.63497 255 0 0
16.9066 5.58206 -4.75928 255 0 0
17.7395 1.70871 -4.76197 255 0 0
17.6211 3.62192 -4.78797 0 255 0
17.1849 5.18102 -4.7817 255 0 0
17.1504 5.21502 -4.77811 255 0 0
17.0285 5.35487 -4.76645 255 0 0
17.0267 5.39873 -4.76825 255 0 0
16.9974 5.4338 -4.76556 255 0 0
17.0725 5.50249 -4.7799 255 0 0
17.4342 1.6793 -4.86369 255 0 0
18.0822 3.58284 -5.01392 0 255 0
18.014 3.6582 -5.00541 0 255 0
16.7212 5.69728 -4.88826 255 0 0
17.8505 1.67669 -5.08461 255 0 0
17.9211 3.55093 -5.14319 0 255 0
17.9749 3.6059 -5.15411 0 255 0
17.9776 3.6508 -5.15609 0 255 0
17.5619 3.60977 -5.08461 0 255 0
17.0082 3.58009 -4.9903 0 255 0
16.7118 3.5591 -4.93967 0 255 0
16.7468 1.65318 -5.18407 0 255 0
17.7899 1.67101 -5.22727 255 0 0
17.6655 1.70158 -5.20542 255 0 0
17.2499 3.07912 -5.16483 255 0 0
17.9626 3.64775 -5.31053 0 255 0
17.9652 3.69265 -5.31261 0 255 0
17.8379 3.71059 -5.29075 0 255 0
17.2396 3.67151 -5.18356 0 255 0
17.041 3.41856 -5.28858 0 255 0
17.2528 3.50361 -5.33103 0 255 0
17.2557 3.54682 -5.33321 0 255 0
16.5731 5.95558 -5.33212 255 0 0
16.5805 6.00269 -5.33647 255 0 0
16.6569 3.87908 -3.35316 0 255 0
16.6418 3.91719 -3.49576 0 255 0
16.7102 3.93327 -3.35824 0 255 0
