ply
format ascii 1.0
comment Created by Open3D
element vertex 193
property double x
property double y
property double z
property uchar red
property uchar green
property uchar blue
end_header
-43.7783 -41.9985 -2.2521 255 0 0
-38.6003 -43.5227 -2.72527 255 0 0
-38.5047 -43.6229 -2.72542 255 0 0
-39.1425 -41.881 -2.71469 255 0 0
-39.9722 -41.7652 -1.27925 255 0 0
-38.5836 -43.0906 -2.72111 255 0 0
-39.2803 -41.8293 -0.807572 255 0 0
-38.5549 -42.8536 -3.67729 255 0 0
-38.8941 -41.8136 -3.18671 255 0 0
-43.6461 -42.0709 -2.75578 255 0 0
-40.7781 -41.8062 -2.24269 255 0 0
-43.2256 -42.0627 -3.75495 255 0 0
-38.6688 -43.5999 -0.788959 255 0 0
-40.3488 -41.7604 -1.27604 255 0 0
-39.9199 -41.9089 -3.6841 255 0 0
-40.8121 -41.841 -1.2713 255 0 0
-38.4604 -43.5727 -3.69108 255 0 0
-40.0317 -41.8273 -2.24059 255 0 0
-39.7052 -41.882 -2.7195 255 0 0
-38.534 -44.2871 -3.21992 255 0 0
-38.6669 -43.3901 -0.792244 255 0 0
-38.6608 -42.9713 -3.20119 255 0 0
-38.672 -43.1893 -0.795285 255 0 0
-44.095 -42.102 -2.76009 255 0 0
-41.3418 -41.7853 -0.778497 255 0 0
-39.7883 -41.7708 -1.28079 255 0 0
-43.8073 -42.0263 -3.26153 255 0 0
-38.7073 -43.4354 -1.27466 255 0 0
-40.4002 -41.8136 -0.791757 255 0 0
-39.1252 -41.8626 -1.76189 255 0 0
-38.9261 -41.848 -1.7625 255 0 0
-39.3178 -41.8692 -2.71607 255 0 0
-38.5988 -43.5211 -3.20885 255 0 0
-38.8397 -41.7551 -1.28904 255 0 0
-43.4057 -42.0381 -3.25569 255 0 0
-41.2319 -41.8723 -2.73264 255 0 0
-43.5859 -42.0128 -2.25157 255 0 0
-38.9419 -41.865 -3.66366 255 0 0
-38.55 -44.0939 -3.7042 255 0 0
-40.6218 -41.8439 -1.75765 255 0 0
-39.8314 -41.8161 -2.23999 255 0 0
-38.6608 -42.9713 -0.798813 255 0 0
-38.5225 -44.2738 -0.780443 255 0 0
-40.786 -41.8143 -0.786161 255 0 0
-38.6335 -42.941 -1.75996 255 0 0
-38.6492 -42.9584 -2.24013 255 0 0
-43.8917 -41.9079 -1.24341 255 0 0
-39.5255 -41.8909 -2.71804 255 0 0
-43.6293 -42.0546 -1.24451 255 0 0
-39.0731 -41.8068 -0.810856 255 0 0
-43.018 -42.0598 -2.25001 255 0 0
-44.4489 -42.0388 -3.78015 255 0 0
-40.1916 -41.7955 -2.24096 255 0 0
-38.7107 -42.6186 -1.76074 255 0 0
-39.0425 -41.7741 -1.28714 255 0 0
-43.7166 -42.1388 -1.74768 255 0 0
-38.62 -44.1739 -2.24383 255 0 0
-40.7986 -41.8272 -1.75719 255 0 0
-41.0042 -41.839 -1.75656 255 0 0
-38.4901 -44.0254 -2.72907 255 0 0
-38.6123 -43.3289 -3.20605 255 0 0
-43.222 -42.0592 -3.25325 255 0 0
-41.1567 -41.7959 -2.24376 255 0 0
-39.6677 -41.8424 -1.7604 255 0 0
-43.4411 -42.0724 -2.75396 255 0 0
-40.0438 -41.84 -1.75933 255 0 0
-40.2119 -41.8166 -1.75892 255 0 0
-38.7295 -43.8775 -1.27035 255 0 0
-40.5374 -41.757 -1.27444 255 0 0
-43.3436 -42.1776 -0.743218 255 0 0
-41.181 -41.8206 -0.780322 255 0 0
-40.9793 -41.8136 -0.783363 255 0 0
-40.593 -41.8143 -0.788959 255 0 0
-40.1914 -41.7953 -0.795042 255 0 0
-40.0476 -41.844 -0.79638 255 0 0
-39.8312 -41.8159 -0.799908 255 0 0
-39.6393 -41.8125 -0.802706 255 0 0
-39.4517 -41.8127 -0.805382 255 0 0
-38.8901 -41.8093 -0.813411 255 0 0
-38.6762 -42.7839 -0.801489 255 0 0
-38.6699 -43.81 -0.785674 255 0 0
-38.6625 -44.0115 -0.782633 255 0 0
-38.5965 -44.1471 -0.781417 255 0 0
-42.809 -42.0545 -3.24705 255 0 0
-38.6535 -43.5827 -1.75792 255 0 0
-44.3135 -42.1102 -2.76213 255 0 0
-38.7248 -43.0425 -1.27816 255 0 0
-40.9714 -41.8056 -2.24325 255 0 0
-41.2981 -41.7411 -1.26794 255 0 0
-41.0178 -41.8529 -1.2694 255 0 0
-40.1442 -41.7462 -1.27794 255 0 0
-39.4772 -41.8398 -1.28283 255 0 0
-39.2938 -41.8436 -1.28436 255 0 0
-38.693 -43.2127 -1.27685 255 0 0
-38.7246 -43.6629 -1.27239 255 0 0
-38.6404 -44.1973 -1.26809 255 0 0
-38.5125 -44.2623 -1.26852 255 0 0
-43.8514 -42.0686 -2.75761 255 0 0
-38.6554 -43.3772 -2.24145 255 0 0
-38.6821 -44.0338 -2.24356 255 0 0
-38.6701 -44.2312 -1.75585 255 0 0
-39.6516 -41.8254 -2.2395 255 0 0
-39.8395 -41.8245 -1.75996 255 0 0
-38.6593 -43.3816 -1.75853 255 0 0
-43.2279 -42.065 -2.75199 255 0 0
-43.7614 -41.9823 -1.74799 255 0 0
-41.1855 -41.8251 -1.75607 255 0 0
-40.4208 -41.8349 -1.75826 255 0 0
-39.5001 -41.8639 -1.76082 255 0 0
-39.3085 -41.8593 -1.76138 255 0 0
-38.641 -42.745 -1.76055 255 0 0
-38.6253 -43.1372 -1.75938 255 0 0
-38.6818 -43.8234 -1.75709 255 0 0
-38.6628 -44.0118 -1.75656 255 0 0
-39.8731 -41.8598 -2.72075 255 0 0
-42.9965 -42.0388 -3.2496 255 0 0
-38.6527 -43.1677 -2.24079 255 0 0
-38.5118 -43.84 -3.21262 255 0 0
-43.0127 -42.0546 -3.75035 255 0 0
-43.2435 -42.0802 -2.25074 255 0 0
-40.3842 -41.797 -2.24152 255 0 0
-39.4197 -41.7788 -2.2387 255 0 0
-39.2804 -41.8294 -2.23845 255 0 0
-39.0932 -41.8283 -2.23792 255 0 0
-38.8942 -41.8137 -2.23731 255 0 0
-38.6724 -42.7798 -2.23965 255 0 0
-38.634 -43.5608 -2.24196 255 0 0
-38.643 -43.7796 -2.24266 255 0 0
-43.4219 -42.0538 -3.75886 255 0 0
-44.7239 -42.0985 -3.27637 255 0 0
-44.5238 -42.1096 -2.76403 255 0 0
-43.0318 -42.0733 -2.75031 255 0 0
-38.9035 -41.8237 -2.71213 255 0 0
-38.5799 -42.8814 -2.71914 255 0 0
-38.5709 -43.2825 -2.72279 255 0 0
-38.5133 -43.8416 -2.72753 255 0 0
-38.5278 -44.2799 -2.73177 255 0 0
-41.2057 -41.8457 -3.22041 255 0 0
-44.4922 -42.0797 -3.2726 255 0 0
-44.3031 -42.1004 -3.27004 255 0 0
-44.0423 -42.0517 -3.26542 255 0 0
-43.6148 -42.0407 -3.25885 255 0 0
-39.8716 -41.8583 -3.20131 255 0 0
-39.6554 -41.8295 -3.19778 255 0 0
-39.4879 -41.851 -3.19571 255 0 0
-39.3244 -41.8762 -3.19377 255 0 0
-39.0651 -41.7983 -3.1889 255 0 0
-38.6056 -43.1151 -3.20265 255 0 0
-38.5188 -43.6388 -3.20958 255 0 0
-38.5002 -44.0369 -3.21554 255 0 0
-44.7019 -42.0777 -3.78628 255 0 0
-44.3237 -42.1199 -3.77913 255 0 0
-44.3295 -42.3259 -3.78339 255 0 0
-43.9207 -42.1351 -3.77095 255 0 0
-43.5805 -42.0076 -3.76125 255 0 0
-39.6593 -41.8336 -3.67729 255 0 0
-39.4837 -41.8466 -3.67405 255 0 0
-39.3002 -41.8505 -3.67048 255 0 0
-39.109 -41.8452 -3.66656 255 0 0
-38.5504 -42.6448 -3.67269 255 0 0
-38.5117 -43.0103 -3.67984 255 0 0
-38.5459 -43.2544 -3.6858 255 0 0
-38.5132 -43.4245 -3.68887 255 0 0
-38.5386 -43.8705 -3.69909 255 0 0
-38.4223 -44.1587 -3.70317 255 0 0
-42.7467 -42.1929 -3.24814 255 0 0
-40.0476 -41.844 -3.20362 255 0 0
-38.6871 -42.5926 -2.23911 255 0 0
-41.3916 -41.8356 -1.75544 255 0 0
-38.6396 -42.5403 -3.67218 255 0 0
-38.7511 -41.8585 -3.18537 255 0 0
-38.4995 -42.5885 -3.19304 255 0 0
-40.0815 -41.8794 -2.72272 255 0 0
-42.8263 -42.0714 -1.75052 255 0 0
-41.3991 -41.8432 -3.71271 255 0 0
-40.4424 -41.8572 -2.72564 255 0 0
-38.7303 -42.6401 -0.802949 255 0 0
-41.4919 -41.7386 -1.26626 255 0 0
-38.6148 -42.716 -1.2821 255 0 0
-42.7929 -42.0386 -2.24928 255 0 0
-41.3751 -41.8189 -2.24446 255 0 0
-40.5892 -41.8103 -2.24215 255 0 0
-42.8233 -42.0685 -2.74841 255 0 0
-41.4093 -41.8535 -2.73403 255 0 0
-41.0383 -41.8738 -2.73096 255 0 0
-40.8775 -41.9081 -2.72987 255 0 0
-40.2659 -41.8728 -2.72425 255 0 0
-38.7525 -41.86 -2.71118 255 0 0
-38.5821 -42.477 -2.71542 255 0 0
-38.5009 -42.5901 -2.71578 255 0 0
-38.6043 -42.5014 -3.19316 255 0 0
-42.8169 -42.0622 -3.74643 255 0 0
-41.2095 -41.8495 -3.70896 255 0 0
