ply
format ascii 1.0
comment Created by Open3D
element vertex 298
property double x
property double y
property double z
property uchar red
property uchar green
property uchar blue
end_header
12.368 9.55843 -4.55569 255 0 0
13.0201 8.48096 -4.54057 0 0 255
12.4676 8.22678 -4.95508 0 0 255
12.109 8.07279 -5.25812 0 0 255
12.4809 9.22708 -4.53774 0 0 255
12.439 8.7919 -4.4905 0 0 255
12.2415 8.4794 -4.43475 0 0 255
12.1805 8.05806 -5.26963 0 0 255
13.4472 8.48923 -4.60009 0 0 255
12.5039 8.31467 -4.71211 0 0 255
13.488 8.60468 -4.47949 0 0 255
12.9363 8.51402 -4.53207 0 0 255
12.7652 8.05864 -5.37964 0 0 255
12.93 8.37867 -4.65076 0 0 255
12.5627 8.2255 -4.84117 0 0 255
14.821 8.35508 -5.51307 0 0 255
13.2525 8.41027 -4.7004 0 0 255
12.8726 8.25506 -4.89342 0 0 255
14.4615 8.19767 -5.57676 0 0 255
13.3704 8.39643 -4.71629 0 0 255
13.3045 8.48763 -4.58025 0 0 255
13.1032 8.49092 -4.55285 0 0 255
13.4687 8.36939 -4.86406 0 0 255
13.2503 8.49732 -4.57364 0 0 255
14.7594 8.18255 -5.3386 0 0 255
13.6005 8.2294 -5.42034 0 0 255
13.6021 8.58696 -4.49295 0 0 255
13.1988 8.28865 -4.94894 0 0 255
13.3362 8.06946 -5.48965 0 0 255
13.9417 8.48111 -4.66812 0 0 255
13.8401 8.19607 -5.32126 0 0 255
14.4731 8.43246 -5.02537 0 0 255
13.414 8.29136 -4.98378 0 0 255
12.6826 8.13321 -5.24175 0 0 255
12.7375 8.55741 -4.37816 0 0 255
14.1303 8.5043 -4.69646 0 0 255
14.2869 8.36941 -5.13291 0 0 255
13.4826 8.24566 -4.99031 0 0 255
13.3841 8.36086 -5.2585 0 0 255
14.3297 8.48602 -4.72292 0 0 255
14.7698 8.18828 -5.48702 0 0 255
12.3454 8.25156 -4.8096 0 0 255
13.3887 8.63092 -4.46873 0 0 255
12.9969 8.0762 -5.42569 0 0 255
13.3637 8.48083 -4.58781 0 0 255
12.3992 8.80799 -4.48672 0 0 255
12.3906 9.52908 -4.55569 255 0 0
13.5903 8.48966 -4.61993 0 0 255
13.7312 8.08769 -5.56768 0 0 255
13.5066 8.08537 -5.52419 0 0 255
12.7026 8.06133 -5.36813 0 0 255
12.4107 8.21032 -5.07261 0 0 255
14.4095 8.48722 -4.73426 0 0 255
12.6963 9.47977 -4.59065 255 0 0
12.5812 8.32315 -4.7246 0 0 255
13.3575 8.38836 -5.12042 0 0 255
13.7479 8.27416 -5.03603 0 0 255
14.5179 8.41256 -5.03057 0 0 255
13.0597 8.0724 -5.43721 0 0 255
12.1235 8.27066 -4.90337 0 0 255
13.5326 8.3647 -4.87343 0 0 255
13.5072 8.12924 -5.39201 0 0 255
13.3758 8.224 -5.37846 0 0 255
13.1818 8.36543 -5.0886 0 0 255
12.6558 9.54335 -4.59159 255 0 0
12.3064 8.22553 -4.92837 0 0 255
13.1709 8.66844 -4.44362 0 0 255
12.7853 8.24192 -4.87818 0 0 255
12.2998 7.97033 -5.53804 0 0 255
13.1905 8.06702 -5.46151 0 0 255
13.4724 8.63976 -4.48039 0 0 255
12.5966 8.20511 -4.84444 0 0 255
13.7434 8.495 -4.64167 0 0 255
12.6806 8.17447 -5.11523 0 0 255
12.2312 8.38668 -4.55148 0 0 255
12.7947 8.50807 -4.51223 0 0 255
12.4361 8.74577 -4.48577 0 0 255
12.3585 8.34536 -4.69338 0 0 255
14.695 8.3761 -5.2004 0 0 255
13.0441 8.62941 -4.4239 0 0 255
13.7849 8.07532 -5.57664 0 0 255
13.449 8.4014 -4.7282 0 0 255
12.4237 8.69307 -4.47916 0 0 255
14.2847 8.50519 -4.71819 0 0 255
13.7098 8.38461 -4.90257 0 0 255
12.1811 7.97567 -5.38692 0 0 255
12.852 8.37151 -4.63885 0 0 255
14.0508 8.50188 -4.68513 0 0 255
12.863 8.5096 -4.52168 0 0 255
13.5163 8.48805 -4.60954 0 0 255
14.4643 8.47333 -4.88407 0 0 255
12.7313 8.50948 -4.50372 0 0 255
13.3667 8.4384 -5.12723 0 0 255
12.7669 8.12339 -5.25591 0 0 255
13.6979 8.24404 -5.30113 0 0 255
12.4189 9.13583 -4.52073 0 0 255
12.3714 8.87679 -4.48955 0 0 255
13.8218 8.27404 -5.048 0 0 255
12.4947 8.61103 -4.48105 0 0 255
12.6956 8.57299 -4.50467 0 0 255
14.0441 8.31687 -5.08828 0 0 255
12.6513 8.58685 -4.49994 0 0 255
12.1617 8.29671 -4.65904 0 0 255
12.4887 9.53403 -4.56892 255 0 0
13.6116 8.36899 -4.74905 0 0 255
13.2522 8.36607 -5.23601 0 0 255
12.7214 7.98887 -5.49438 0 0 255
13.1767 8.49427 -4.56325 0 0 255
13.4898 8.38252 -5.14201 0 0 255
13.2525 8.27867 -4.95656 0 0 255
12.7048 9.4393 -4.58781 255 0 0
12.0924 8.16571 -5.13952 0 0 255
12.3619 8.95909 -4.49617 0 0 255
12.7077 8.23467 -4.86512 0 0 255
13.444 8.17833 -5.38585 0 0 255
12.2163 8.20725 -5.16661 0 0 255
13.0819 8.34563 -4.80266 0 0 255
12.2598 8.1524 -5.16785 0 0 255
12.7398 8.55898 -4.50939 0 0 255
13.9522 8.44224 -4.80564 0 0 255
12.6729 8.21206 -4.98746 0 0 255
12.9261 8.20318 -4.89669 0 0 255
14.1951 8.49749 -4.70497 0 0 255
13.5181 8.57888 -4.48129 0 0 255
13.3099 8.62488 -4.45797 0 0 255
13.2555 8.63431 -4.4517 0 0 255
13.1575 8.615 -4.43735 0 0 255
12.961 8.61866 -4.41224 0 0 255
12.8347 8.57863 -4.39251 0 0 255
12.6692 8.5552 -4.3692 0 0 255
12.6202 8.56572 -4.36381 0 0 255
13.9068 8.5051 -4.66529 0 0 255
13.8029 8.4866 -4.64922 0 0 255
13.6545 8.48486 -4.62844 0 0 255
12.9661 8.48965 -4.53396 0 0 255
12.604 8.62035 -4.49664 0 0 255
12.1645 8.46879 -4.42342 0 0 255
12.4112 8.86086 -4.49333 0 0 255
12.3784 8.92638 -4.49522 0 0 255
12.3874 9.0224 -4.50561 0 0 255
12.3939 9.07222 -4.51128 0 0 255
12.7153 9.54106 -4.59915 255 0 0
12.5871 9.53843 -4.58214 255 0 0
12.6863 8.39267 -4.61701 0 0 255
13.9681 8.18266 -5.48315 0 0 255
13.2768 8.33768 -5.23719 0 0 255
12.1762 7.97245 -5.5133 0 0 255
13.3894 8.18868 -5.24074 0 0 255
14.5792 8.44805 -4.89896 0 0 255
14.5092 8.45354 -4.88903 0 0 255
14.3447 8.44903 -4.86421 0 0 255
14.2998 8.46832 -4.85925 0 0 255
14.2251 8.46973 -4.84833 0 0 255
14.1456 8.46786 -4.83641 0 0 255
14.0958 8.48352 -4.83046 0 0 255
13.8434 8.42131 -4.78777 0 0 255
13.8234 8.45411 -4.78777 0 0 255
13.5918 8.40124 -4.74905 0 0 255
13.4885 8.38167 -4.73217 0 0 255
13.287 8.38807 -4.70338 0 0 255
13.1058 8.38271 -4.67657 0 0 255
13.042 8.4074 -4.66963 0 0 255
12.837 8.40512 -4.63984 0 0 255
12.7544 8.39429 -4.62693 0 0 255
12.6279 8.39716 -4.60906 0 0 255
12.5456 8.38539 -4.59616 0 0 255
12.473 8.37972 -4.58524 0 0 255
12.4483 8.40604 -4.58424 0 0 255
12.2967 8.36746 -4.55893 0 0 255
12.1542 8.37636 -4.53957 0 0 255
12.1011 8.38216 -4.53262 0 0 255
12.2901 8.25682 -5.05721 0 0 255
14.7426 8.40325 -5.06492 0 0 255
14.6577 8.40093 -5.05139 0 0 255
14.6027 8.41552 -5.0441 0 0 255
14.3287 8.39394 -4.99935 0 0 255
14.3584 8.45713 -5.00976 0 0 255
14.3235 8.48234 -5.00664 0 0 255
14.2291 8.47206 -4.99103 0 0 255
14.1249 8.45546 -4.97334 0 0 255
13.9271 8.38196 -4.93587 0 0 255
13.8184 8.36127 -4.91714 0 0 255
13.7542 8.36706 -4.90777 0 0 255
13.6212 8.37484 -4.888 0 0 255
13.3609 8.34635 -4.84533 0 0 255
13.2971 8.35043 -4.83596 0 0 255
13.2578 8.36963 -4.8318 0 0 255
13.1941 8.37325 -4.82243 0 0 255
13.0427 8.36418 -4.79849 0 0 255
12.8873 8.30767 -4.76935 0 0 255
12.8433 8.32253 -4.76415 0 0 255
12.7705 8.31837 -4.7527 0 0 255
12.6736 8.29812 -4.73605 0 0 255
12.6298 8.31231 -4.73085 0 0 255
12.4985 8.3539 -4.71524 0 0 255
12.4021 8.3321 -4.69859 0 0 255
12.248 8.31316 -4.67361 0 0 255
12.1087 8.30271 -4.65175 0 0 255
14.866 8.42697 -5.38064 0 0 255
14.7198 8.34407 -5.20149 0 0 255
13.9254 8.29128 -5.06651 0 0 255
13.6741 8.27397 -5.02405 0 0 255
13.6741 8.31833 -5.02841 0 0 255
13.4287 8.25652 -4.98269 0 0 255
13.3503 8.29581 -4.97398 0 0 255
13.0672 8.24928 -4.9239 0 0 255
12.9309 8.24927 -4.90213 0 0 255
12.5431 8.25526 -4.84117 0 0 255
12.4611 8.24371 -4.82702 0 0 255
12.4416 8.27324 -4.82702 0 0 255
12.235 8.21985 -4.78892 0 0 255
12.2155 8.24883 -4.78892 0 0 255
12.1436 8.24223 -4.77695 0 0 255
12.3193 7.98295 -5.41478 0 0 255
14.7678 8.0959 -5.33178 0 0 255
14.7385 8.12535 -5.3295 0 0 255
14.8955 8.30423 -5.37382 0 0 255
14.8106 8.30301 -5.35905 0 0 255
14.7659 8.324 -5.35337 0 0 255
13.8438 8.2427 -5.18746 0 0 255
13.8095 8.26665 -5.18405 0 0 255
13.7357 8.26678 -5.17155 0 0 255
13.662 8.26662 -5.15905 0 0 255
13.5589 8.24824 -5.13973 0 0 255
13.4903 8.25039 -5.12837 0 0 255
13.4609 8.27634 -5.1261 0 0 255
13.4071 8.28709 -5.11814 0 0 255
13.4212 8.38405 -5.13064 0 0 255
12.8859 8.22057 -5.02383 0 0 255
12.8325 8.22939 -5.01587 0 0 255
12.7164 8.19755 -4.99315 0 0 255
12.6052 8.21073 -4.9761 0 0 255
12.6001 8.25004 -4.97951 0 0 255
12.4072 8.2504 -4.94769 0 0 255
12.244 8.22586 -4.91815 0 0 255
12.1388 8.197 -4.89769 0 0 255
14.7682 8.0961 -5.47755 0 0 255
14.8845 8.20584 -5.50952 0 0 255
14.8054 8.25399 -5.50005 0 0 255
14.7958 8.29468 -5.50242 0 0 255
14.7613 8.36758 -5.5036 0 0 255
13.8453 8.2658 -5.32955 0 0 255
13.6538 8.26165 -5.29521 0 0 255
13.3941 8.14797 -5.23719 0 0 255
13.3944 8.23542 -5.24666 0 0 255
13.3797 8.27017 -5.24785 0 0 255
13.3162 8.27463 -5.23719 0 0 255
12.9563 8.22233 -5.16851 0 0 255
12.7966 8.16359 -5.13418 0 0 255
12.7289 8.16295 -5.12234 0 0 255
12.5361 8.12343 -5.08445 0 0 255
12.5166 8.19535 -5.08918 0 0 255
12.4397 8.18718 -5.07498 0 0 255
12.4628 8.28735 -5.09037 0 0 255
12.2953 8.21809 -5.05366 0 0 255
12.2182 8.25063 -5.04419 0 0 255
14.3824 8.19792 -5.56198 0 0 255
14.3281 8.21207 -5.55336 0 0 255
14.264 8.22029 -5.54227 0 0 255
14.1454 8.19669 -5.51764 0 0 255
13.9924 8.1524 -5.48438 0 0 255
13.8056 8.13151 -5.44743 0 0 255
13.737 8.13505 -5.43512 0 0 255
13.7177 8.1676 -5.43512 0 0 255
13.6394 8.16482 -5.42034 0 0 255
13.4246 8.21018 -5.38585 0 0 255
13.2443 8.18646 -5.35013 0 0 255
13.1568 8.17555 -5.33289 0 0 255
13.0645 8.16123 -5.31441 0 0 255
13.0694 8.2074 -5.32057 0 0 255
12.9773 8.19253 -5.3021 0 0 255
12.6344 8.14465 -5.23436 0 0 255
12.5622 8.14034 -5.22081 0 0 255
12.4805 8.12949 -5.2048 0 0 255
12.4085 8.12456 -5.19125 0 0 255
12.4131 8.1697 -5.19741 0 0 255
12.3364 8.1612 -5.18263 0 0 255
12.3119 8.22916 -5.18632 0 0 255
13.6432 8.07946 -5.54978 0 0 255
13.5601 8.07378 -5.53315 0 0 255
13.4189 8.07612 -5.50628 0 0 255
13.2535 8.06245 -5.47302 0 0 255
13.1324 8.07433 -5.45128 0 0 255
12.8905 8.05251 -5.40267 0 0 255
12.8181 8.04962 -5.3886 0 0 255
12.6016 8.03918 -5.34638 0 0 255
12.5681 8.05978 -5.34255 0 0 255
12.4961 8.0555 -5.32847 0 0 255
12.4674 8.07889 -5.32592 0 0 255
12.362 8.07319 -5.30545 0 0 255
12.2664 8.07313 -5.28754 0 0 255
12.6063 8.00021 -5.47315 0 0 255
12.5248 7.9902 -5.4559 0 0 255
12.453 7.98601 -5.44131 0 0 255
12.3957 7.9908 -5.4307 0 0 255
12.243 7.97478 -5.39886 0 0 255
12.1336 7.98572 -5.37896 0 0 255
12.3761 7.97816 -5.55452 0 0 255
