ply
format ascii 1.0
comment Created by Open3D
element vertex 850
property double x
property double y
property double z
property uchar red
property uchar green
property uchar blue
end_header
-5.1697 -1.5586 -4.24972 255 0 0
-4.0116 -1.77659 -3.59003 255 0 0
-3.191 -2.12196 -3.63418 255 0 0
-4.05369 -1.59941 -3.90129 255 0 0
-4.22468 -3.13882 -3.94041 255 0 0
-4.80672 -1.58071 -4.3595 255 0 0
-3.95469 -1.68083 -3.70712 255 0 0
-5.08995 -1.7208 -3.98092 255 0 0
-4.15351 -1.5653 -3.59469 255 0 0
-4.14878 -1.73434 -3.65786 255 0 0
-3.18319 -2.11681 -3.44561 255 0 0
-3.18578 -2.71276 -3.5823 255 0 0
-3.81253 -1.96255 -3.70351 255 0 0
-4.03539 -1.59772 -3.80833 255 0 0
-4.23178 -1.70457 -3.72521 255 0 0
-3.20252 -2.02529 -3.54194 255 0 0
-3.28801 -2.02877 -3.53489 255 0 0
-3.95342 -1.60335 -3.84026 255 0 0
-5.13652 -1.71622 -4.30944 255 0 0
-4.13988 -1.66187 -3.64469 255 0 0
-5.06616 -1.65273 -4.01516 255 0 0
-4.10634 -1.76137 -3.55515 255 0 0
-4.38764 -1.54156 -4.12172 255 0 0
-4.85524 -1.5458 -4.32465 255 0 0
-4.28699 -1.57506 -3.90291 255 0 0
-3.22642 -1.64153 -3.61533 255 0 0
-3.19698 -2.02128 -3.59181 255 0 0
-4.05939 -1.74809 -3.67136 255 0 0
-3.2975 -1.59971 -3.6721 255 0 0
-2.99107 -1.66756 -3.54173 255 0 0
-2.84622 -1.6855 -3.54248 255 0 0
-3.09812 -1.6984 -3.54149 255 0 0
-3.94995 -1.58558 -3.89927 255 0 0
-3.31064 -1.62552 -3.71982 255 0 0
-3.14945 -2.7733 -3.6269 255 0 0
-3.2527 -1.97867 -3.54929 255 0 0
-3.96445 -1.86553 -3.65686 255 0 0
-2.98987 -1.72305 -3.50558 255 0 0
-3.10854 -2.72422 -3.84439 255 0 0
-4.24263 -1.69725 -3.77153 255 0 0
-2.83212 -1.69537 -3.53918 255 0 0
-3.66319 -1.80941 -3.54502 255 0 0
-4.06386 -1.87322 -3.77774 255 0 0
-3.06365 -1.64194 -3.62084 255 0 0
-3.8073 -1.5969 -3.92521 255 0 0
-3.62458 -1.84411 -3.46106 255 0 0
-3.3887 -1.80581 -3.56254 255 0 0
-3.01615 -2.64325 -3.59326 255 0 0
-4.90016 -1.60501 -4.14838 255 0 0
-4.02834 -1.89559 -3.47525 255 0 0
-3.20044 -1.66672 -3.58967 255 0 0
-3.35185 -1.66054 -3.63202 255 0 0
-3.47506 -1.58519 -3.74258 255 0 0
-3.04338 -1.67308 -3.54972 255 0 0
-3.24718 -2.13714 -3.73464 255 0 0
-3.93993 -1.77473 -3.63408 255 0 0
-3.24705 -1.74023 -3.46355 255 0 0
-4.14246 -1.80134 -3.68675 255 0 0
-4.07649 -1.51422 -3.54198 255 0 0
-4.15553 -1.57165 -4.02693 255 0 0
-4.18169 -1.55329 -3.68689 255 0 0
-4.48392 -1.64742 -3.85196 255 0 0
-4.16737 -1.64427 -3.60954 255 0 0
-4.07506 -1.48624 -3.64029 255 0 0
-4.14346 -1.48896 -3.58183 255 0 0
-3.16196 -2.86519 -3.90404 255 0 0
-3.15914 -2.05779 -3.60777 255 0 0
-4.76203 -1.56603 -4.23689 255 0 0
-3.20101 -2.06997 -3.54383 255 0 0
-3.18568 -2.17329 -3.64452 255 0 0
-4.90688 -1.64595 -3.95717 255 0 0
-4.78208 -1.57262 -4.19632 255 0 0
-3.93182 -1.70421 -3.70243 255 0 0
-2.24891 -2.96779 -3.69883 255 0 0
-4.78691 -1.65002 -3.91471 255 0 0
-3.57674 -1.73517 -3.61771 255 0 0
-1.59339 -3.12263 -3.44366 255 0 0
-1.68657 -3.00011 -3.46766 255 0 0
-2.36993 -3.02926 -3.75473 255 0 0
-3.2998 -1.86023 -3.59066 255 0 0
-4.97795 -1.6044 -4.02763 255 0 0
-3.71469 -1.59443 -3.80383 255 0 0
-3.99869 -1.60515 -3.83745 255 0 0
-3.99035 -1.8489 -3.66307 255 0 0
-3.28379 -1.74491 -3.54936 255 0 0
-3.99904 -1.57785 -3.93977 255 0 0
-3.23307 -1.77739 -3.46571 255 0 0
-3.13978 -1.61151 -3.61012 255 0 0
-3.18802 -2.1583 -3.71793 255 0 0
-4.08659 -1.75983 -3.72496 255 0 0
-2.32675 -2.98864 -3.728 255 0 0
-3.14882 -1.75546 -3.50206 255 0 0
-3.01752 -1.78215 -3.529 255 0 0
-4.20363 -1.74557 -3.63528 255 0 0
-3.45266 -1.67496 -3.5989 255 0 0
-4.06272 -1.83583 -3.64368 255 0 0
-3.19114 -2.25551 -3.62817 255 0 0
-3.24552 -2.06506 -3.58403 255 0 0
-3.04268 -2.718 -3.73984 255 0 0
-3.33722 -2.35876 -3.62353 255 0 0
-4.31187 -1.63078 -3.87593 255 0 0
-5.02586 -1.48927 -4.39149 255 0 0
-4.11268 -1.87607 -3.75248 255 0 0
-4.27277 -1.63919 -3.81809 255 0 0
-3.26697 -2.13908 -3.47668 255 0 0
-5.05297 -1.5627 -4.25547 255 0 0
-2.7324 -1.68893 -3.46552 255 0 0
-3.54118 -1.7596 -3.49532 255 0 0
-4.15514 -1.70236 -3.74084 255 0 0
-3.14368 -2.82158 -3.88495 255 0 0
-3.20775 -2.27294 -3.79362 255 0 0
-3.41701 -2.07865 -3.58894 255 0 0
-3.20035 -2.05233 -3.51039 255 0 0
-1.48582 -3.03522 -3.50796 255 0 0
-4.20217 -1.59497 -3.93879 255 0 0
-4.02982 -1.84981 -3.51031 255 0 0
-3.44229 -1.64983 -3.6466 255 0 0
-1.81284 -2.9251 -3.57002 255 0 0
-2.81042 -1.70053 -3.53176 255 0 0
-3.13643 -2.70297 -3.56573 255 0 0
-5.03118 -1.56904 -4.29935 255 0 0
-3.0492 -2.89759 -3.67109 255 0 0
-4.20527 -1.64771 -3.79431 255 0 0
-3.99747 -1.66182 -3.74771 255 0 0
-3.56297 -1.62784 -3.69938 255 0 0
-4.55702 -1.54063 -4.00425 255 0 0
-4.10609 -1.72794 -3.72708 255 0 0
-4.14913 -1.71141 -3.69725 255 0 0
-3.42578 -1.80477 -3.46425 255 0 0
-3.96496 -1.90033 -3.74675 255 0 0
-3.19509 -1.60655 -3.63159 255 0 0
-4.54513 -1.61307 -3.90055 255 0 0
-4.74223 -1.65352 -3.89918 255 0 0
-3.84425 -1.591 -3.94006 255 0 0
-3.51277 -1.59235 -3.75959 255 0 0
-4.1016 -1.82417 -3.74031 255 0 0
-2.95394 -1.66527 -3.53343 255 0 0
-4.02392 -1.85867 -3.55098 255 0 0
-4.70857 -1.56702 -4.01938 255 0 0
-4.64092 -1.58126 -3.9478 255 0 0
-1.5493 -2.77128 -3.4485 255 0 0
-3.96793 -2.86137 -3.94348 255 0 0
-3.95224 -1.80287 -3.52004 255 0 0
-5.08501 -1.57264 -4.24368 255 0 0
-4.09664 -1.65576 -3.7554 255 0 0
-3.9451 -1.90233 -3.45131 255 0 0
-4.00393 -1.80356 -3.74459 255 0 0
-3.09413 -2.00501 -3.60861 255 0 0
-2.21208 -2.93109 -3.67534 255 0 0
-3.11015 -1.66211 -3.57358 255 0 0
-5.63872 -2.19395 -4.17377 255 0 0
-3.20293 -1.81559 -3.44502 255 0 0
-3.23968 -1.79606 -3.50736 255 0 0
-4.10417 -1.86043 -3.53486 255 0 0
-3.96938 -1.84491 -3.53164 255 0 0
-4.08527 -3.00528 -4.01482 255 0 0
-1.81538 -2.89841 -3.5603 255 0 0
-4.35583 -1.55363 -4.08669 255 0 0
-3.10861 -1.96246 -3.60393 255 0 0
-4.13931 -1.82338 -3.75354 255 0 0
-4.54685 -1.57934 -3.95869 255 0 0
-4.30538 -1.58182 -4.13885 255 0 0
-4.74154 -1.60927 -4.18462 255 0 0
-4.2576 -1.59873 -4.1207 255 0 0
-4.10824 -1.57608 -4.00749 255 0 0
-4.1569 -1.58344 -3.85337 255 0 0
-4.05488 -1.75754 -3.58776 255 0 0
-4.09676 -1.79883 -3.48262 255 0 0
-4.43966 -1.64908 -3.83608 255 0 0
-4.10005 -1.92934 -3.75671 255 0 0
-3.78932 -1.61584 -3.73651 255 0 0
-3.29022 -1.76333 -3.48301 255 0 0
-5.06736 -1.56715 -4.15842 255 0 0
-3.1866 -1.93849 -3.62734 255 0 0
-4.28669 -1.73851 -3.70546 255 0 0
-3.68795 -1.86536 -3.48482 255 0 0
-4.09917 -1.7595 -3.68689 255 0 0
-5.13714 -1.70963 -3.99612 255 0 0
-3.28028 -2.83372 -3.68052 255 0 0
-3.04841 -2.71659 -3.65169 255 0 0
-3.76099 -3.18721 -3.91122 255 0 0
-5.06321 -1.59221 -4.21143 255 0 0
-3.36464 -1.76238 -3.50895 255 0 0
-3.91929 -1.88988 -3.68687 255 0 0
-4.08635 -1.48486 -3.56203 255 0 0
-3.00709 -1.63461 -3.56152 255 0 0
-2.98983 -2.09203 -3.66481 255 0 0
-5.33671 -1.70607 -4.11871 255 0 0
-1.54548 -3.31486 -3.63204 255 0 0
-5.01704 -1.63013 -4.19792 255 0 0
-1.50791 -3.21437 -3.58432 255 0 0
-4.33811 -1.57635 -3.99101 255 0 0
-3.05718 -2.07501 -3.64874 255 0 0
-4.14513 -1.59586 -4.07121 255 0 0
-3.04795 -2.65201 -3.68335 255 0 0
-3.2628 -2.29458 -3.66195 255 0 0
-4.30028 -1.63416 -3.84235 255 0 0
-3.60873 -1.83605 -3.49278 255 0 0
-2.85179 -1.66606 -3.50683 255 0 0
-4.11114 -1.72434 -3.68585 255 0 0
-4.86776 -1.56888 -4.08117 255 0 0
-3.32517 -1.94793 -3.60565 255 0 0
-2.79274 -1.76304 -3.47376 255 0 0
-5.20276 -1.63609 -4.1144 255 0 0
-3.09744 -2.71448 -3.55745 255 0 0
-4.20153 -1.58905 -3.95983 255 0 0
-3.04412 -1.62911 -3.58388 255 0 0
-4.44194 -1.56655 -4.00856 255 0 0
-2.8974 -1.67438 -3.50985 255 0 0
-5.045 -2.05999 -3.90682 255 0 0
-3.65826 -1.64784 -3.67171 255 0 0
-4.30045 -3.02431 -4.03821 255 0 0
-4.71088 -1.58021 -4.24205 255 0 0
-3.29815 -1.80295 -3.45722 255 0 0
-4.10775 -1.81529 -3.69828 255 0 0
-2.39009 -3.04015 -3.64911 255 0 0
-4.25349 -3.11868 -3.84558 255 0 0
-3.80038 -1.60814 -3.7868 255 0 0
-2.77995 -1.7366 -3.46263 255 0 0
-3.87187 -1.84444 -3.5007 255 0 0
-3.59537 -1.58376 -3.7924 255 0 0
-4.05668 -1.94429 -3.74401 255 0 0
-3.63387 -1.69946 -3.44126 255 0 0
-2.67253 -1.8512 -3.4507 255 0 0
-3.11209 -2.79324 -3.90785 255 0 0
-3.10388 -2.78588 -3.86109 255 0 0
-3.45347 -1.61509 -3.70123 255 0 0
-4.16753 -1.77128 -3.54241 255 0 0
-3.29503 -1.66989 -3.58735 255 0 0
-3.96068 -1.84087 -3.48766 255 0 0
-3.20538 -1.77453 -3.44674 255 0 0
-3.35737 -2.88644 -3.7165 255 0 0
-2.66074 -1.71969 -3.47732 255 0 0
-4.4088 -1.66145 -3.82656 255 0 0
-4.24749 -1.58917 -3.93392 255 0 0
-3.16166 -2.14592 -3.66715 255 0 0
-4.30233 -1.67982 -3.79058 255 0 0
-3.11315 -2.76765 -3.61491 255 0 0
-5.17943 -1.56153 -4.36023 255 0 0
-4.73911 -1.57094 -3.98347 255 0 0
-3.39111 -1.72197 -3.58464 255 0 0
-3.25208 -2.25264 -3.57164 255 0 0
-4.12371 -1.64968 -3.59568 255 0 0
-3.88663 -1.77294 -3.61544 255 0 0
-5.56024 -2.14825 -4.19765 255 0 0
-3.60856 -1.64091 -3.69045 255 0 0
-4.3405 -1.62398 -3.88586 255 0 0
-3.94879 -1.57426 -3.93944 255 0 0
-4.55328 -1.59367 -3.9397 255 0 0
-3.39301 -2.43457 -3.69937 255 0 0
-3.17089 -2.94248 -3.93029 255 0 0
-3.25027 -1.61346 -3.6434 255 0 0
-3.24933 -2.11654 -3.45421 255 0 0
-4.02427 -1.56579 -3.59203 255 0 0
-3.65379 -1.61465 -3.74285 255 0 0
-3.25821 -1.67328 -3.5908 255 0 0
-3.43954 -1.59865 -3.73043 255 0 0
-4.17079 -3.03782 -4.20035 255 0 0
-4.35564 -1.63554 -3.84836 255 0 0
-2.36566 -3.0238 -3.71316 255 0 0
-4.65271 -1.5976 -4.19514 255 0 0
-3.24167 -2.11523 -3.60018 255 0 0
-3.1211 -2.12922 -3.64841 255 0 0
-3.20364 -2.22069 -3.64043 255 0 0
-3.24884 -2.01879 -3.44644 255 0 0
-4.13424 -1.62365 -3.5542 255 0 0
-4.85692 -1.64842 -3.93956 255 0 0
-2.70404 -1.68914 -3.45458 255 0 0
-5.11481 -1.56191 -4.3333 255 0 0
-4.02736 -1.79119 -3.75107 255 0 0
-3.67089 -1.81321 -3.47096 255 0 0
-4.13709 -2.98335 -4.17508 255 0 0
-3.07956 -2.69882 -3.63992 255 0 0
-4.23257 -1.6816 -3.67913 255 0 0
-5.012 -1.51105 -4.33591 255 0 0
-4.45212 -1.61777 -3.88186 255 0 0
-3.15819 -2.82788 -3.64348 255 0 0
-4.84219 -1.53533 -4.26672 255 0 0
-4.75676 -1.58931 -4.18813 255 0 0
-4.26086 -1.77526 -3.59373 255 0 0
-3.2358 -2.21873 -3.55867 255 0 0
-3.59536 -1.81853 -3.52362 255 0 0
-4.96274 -1.65161 -3.97788 255 0 0
-4.1152 -1.9484 -3.76518 255 0 0
-3.70259 -1.61948 -3.73925 255 0 0
-3.10418 -1.63064 -3.63507 255 0 0
-3.10356 -2.68106 -3.83008 255 0 0
-3.16489 -2.11 -3.64085 255 0 0
-4.66684 -1.55313 -4.04929 255 0 0
-3.30859 -1.91194 -3.59214 255 0 0
-4.15096 -1.64915 -3.78521 255 0 0
-3.80815 -1.57603 -3.8803 255 0 0
-3.23404 -2.01494 -3.66246 255 0 0
-3.28614 -2.21905 -3.49946 255 0 0
-3.70579 -1.7761 -3.554 255 0 0
-4.54279 -1.57191 -4.14503 255 0 0
-4.1288 -2.99228 -3.97683 255 0 0
-4.95371 -1.57069 -4.06454 255 0 0
-3.23049 -2.15371 -3.54246 255 0 0
-3.1445 -3.05991 -3.78544 255 0 0
-4.24663 -1.66008 -3.79679 255 0 0
-4.25146 -1.56201 -3.71278 255 0 0
-2.75398 -1.74773 -3.45547 255 0 0
-3.21031 -2.7866 -3.93944 255 0 0
-3.2067 -2.16985 -3.54563 255 0 0
-3.10942 -2.63505 -3.6192 255 0 0
-3.08323 -2.68913 -3.54709 255 0 0
-5.13975 -1.66329 -4.3037 255 0 0
-4.68589 -1.5842 -3.9651 255 0 0
-3.04782 -2.77488 -3.6773 255 0 0
-4.39069 -1.76857 -3.70061 255 0 0
-4.15164 -1.61531 -3.68461 255 0 0
-3.81444 -3.217 -3.9345 255 0 0
-4.15063 -1.74669 -3.59677 255 0 0
-3.69397 -1.60109 -3.87737 255 0 0
-3.08088 -2.96969 -3.7413 255 0 0
-4.0925 -1.81632 -3.65077 255 0 0
-3.10381 -2.77252 -3.73402 255 0 0
-3.15648 -2.77507 -3.88946 255 0 0
-2.28189 -2.95264 -3.70248 255 0 0
-3.73727 -1.62514 -3.69799 255 0 0
-3.09164 -2.924 -3.69054 255 0 0
-3.29033 -1.96437 -3.59665 255 0 0
-4.08682 -1.59756 -3.88559 255 0 0
-1.53151 -3.24463 -3.60102 255 0 0
-3.1334 -1.71055 -3.53992 255 0 0
-4.01059 -1.5989 -3.88373 255 0 0
-3.12485 -2.69946 -3.7205 255 0 0
-3.68614 -1.70264 -3.65229 255 0 0
-1.78939 -2.94936 -3.44855 255 0 0
-3.98437 -1.67117 -3.71649 255 0 0
-3.80365 -1.59006 -3.83962 255 0 0
-4.49816 -1.6104 -3.89808 255 0 0
-4.12413 -1.5934 -3.84211 255 0 0
-4.3201 -1.75206 -3.67487 255 0 0
-4.17522 -1.64736 -3.65482 255 0 0
-4.26026 -1.56524 -4.07068 255 0 0
-4.12412 -1.7413 -3.56645 255 0 0
-2.40535 -3.07453 -3.64551 255 0 0
-4.69943 -1.57635 -4.21184 255 0 0
-2.75604 -1.70803 -3.51196 255 0 0
-3.74619 -3.12913 -3.93915 255 0 0
-2.44279 -3.16861 -3.74559 255 0 0
-3.85161 -1.594 -3.94377 255 0 0
-4.00787 -1.81389 -3.45775 255 0 0
-4.4333 -1.61096 -3.82867 255 0 0
-5.57045 -2.13703 -4.19968 255 0 0
-2.70608 -1.71282 -3.4934 255 0 0
-4.75862 -1.57116 -4.03924 255 0 0
-3.49895 -1.66424 -3.60493 255 0 0
-3.43984 -1.70927 -3.6004 255 0 0
-3.85595 -1.78108 -3.64665 255 0 0
-3.06686 -2.66208 -3.7318 255 0 0
-2.23457 -3.1065 -3.59439 255 0 0
-4.14098 -1.58113 -3.99267 255 0 0
-3.99423 -1.59785 -4.00605 255 0 0
-4.23788 -3.07134 -3.83139 255 0 0
-4.40847 -1.61967 -3.89981 255 0 0
-3.23672 -1.90643 -3.56512 255 0 0
-3.15398 -1.75344 -3.53886 255 0 0
-3.25737 -2.2166 -3.73851 255 0 0
-1.90408 -3.04003 -3.52968 255 0 0
-1.50554 -3.06627 -3.49036 255 0 0
-3.731 -2.75833 -4.11686 255 0 0
-4.95352 -1.51264 -4.41518 255 0 0
-3.97505 -1.77922 -3.52391 255 0 0
-4.3077 -1.55951 -4.09012 255 0 0
-3.24872 -2.01871 -3.59364 255 0 0
-4.18459 -3.0176 -4.00011 255 0 0
-1.80293 -2.86848 -3.54572 255 0 0
-3.81276 -1.7721 -3.51055 255 0 0
-4.59899 -1.63421 -3.89217 255 0 0
-4.64791 -1.6268 -3.9091 255 0 0
-4.36309 -3.11498 -3.87587 255 0 0
-4.04673 -1.78832 -3.46604 255 0 0
-2.83116 -1.74534 -3.4841 255 0 0
-3.26105 -1.88275 -3.44785 255 0 0
-3.13741 -2.59549 -3.73639 255 0 0
-3.15127 -2.95925 -3.88608 255 0 0
-3.72466 -2.74 -4.10957 255 0 0
-3.34768 -1.61913 -3.73405 255 0 0
-3.5976 -1.73477 -3.47253 255 0 0
-5.07181 -1.55536 -4.21031 255 0 0
-3.19638 -1.76221 -3.48529 255 0 0
-3.64475 -1.6055 -3.85716 255 0 0
-3.49927 -1.62139 -3.69535 255 0 0
-4.91279 -1.57055 -4.09883 255 0 0
-4.17276 -1.68079 -3.74401 255 0 0
-3.58489 -1.66103 -3.64619 255 0 0
-4.11815 -1.80822 -3.59483 255 0 0
-3.27386 -2.18822 -3.4891 255 0 0
-3.25759 -2.15783 -3.44063 255 0 0
-2.96457 -2.72498 -3.67772 255 0 0
-3.29461 -1.95811 -3.55959 255 0 0
-4.09993 -3.04613 -4.12811 255 0 0
-3.65944 -1.59645 -3.78156 255 0 0
-4.31078 -3.12416 -4.32276 255 0 0
-3.19842 -2.71046 -3.91271 255 0 0
-3.48504 -1.60475 -3.78911 255 0 0
-4.06147 -1.65276 -3.78434 255 0 0
-4.20108 -1.58888 -3.87139 255 0 0
-4.24961 -1.73521 -3.64914 255 0 0
-3.21639 -2.25626 -3.56083 255 0 0
-3.40479 -1.61535 -3.69417 255 0 0
-4.87676 -1.55903 -4.23379 255 0 0
-3.24619 -2.07093 -3.44389 255 0 0
-3.0558 -2.71673 -3.70361 255 0 0
-3.08407 -2.70924 -3.71037 255 0 0
-3.11672 -2.66672 -3.87139 255 0 0
-2.92362 -1.67565 -3.57135 255 0 0
-3.44762 -1.58751 -3.73164 255 0 0
-2.60131 -1.81101 -3.44607 255 0 0
-4.05332 -1.91318 -3.73766 255 0 0
-3.38473 -1.66688 -3.60892 255 0 0
-3.24387 -2.05322 -3.52516 255 0 0
-3.98262 -1.59871 -3.78806 255 0 0
-2.07863 -2.9042 -3.66538 255 0 0
-4.2524 -1.591 -3.98091 255 0 0
-4.45893 -1.60829 -3.92889 255 0 0
-4.86924 -1.73675 -3.90598 255 0 0
-4.06672 -1.51606 -3.60013 255 0 0
-1.54594 -2.82792 -3.47038 255 0 0
-4.45506 -1.55931 -4.05935 255 0 0
-4.79971 -1.55321 -4.30157 255 0 0
-4.65586 -1.58633 -4.24405 255 0 0
-3.69626 -1.63343 -3.68372 255 0 0
-3.26723 -1.93485 -3.61925 255 0 0
-4.69983 -1.5765 -3.9933 255 0 0
-3.91279 -1.79609 -3.5065 255 0 0
-4.14646 -1.80308 -3.49827 255 0 0
-4.02216 -1.78888 -3.45867 255 0 0
-3.96277 -1.81904 -3.44486 255 0 0
-1.49237 -3.08555 -3.52944 255 0 0
-3.90626 -1.6657 -3.72806 255 0 0
-3.29406 -1.63191 -3.64039 255 0 0
-4.37956 -1.82473 -3.61603 255 0 0
-4.19724 -1.77217 -3.55185 255 0 0
-4.08572 -1.76518 -3.51598 255 0 0
-4.12882 -1.81879 -3.53674 255 0 0
-4.03966 -1.77376 -3.50276 255 0 0
-4.01517 -1.77437 -3.49521 255 0 0
-4.09037 -1.81151 -3.55145 255 0 0
-4.06309 -1.83021 -3.51786 255 0 0
-3.91821 -1.78734 -3.46689 255 0 0
-3.98516 -1.84077 -3.49521 255 0 0
-3.93686 -1.85255 -3.48199 255 0 0
-3.83227 -1.81444 -3.44424 255 0 0
-3.14794 -1.65359 -3.5867 255 0 0
-4.1015 -1.5679 -3.53648 255 0 0
-4.14678 -1.59649 -3.89487 255 0 0
-3.26326 -1.77891 -3.47652 255 0 0
-3.15896 -1.96296 -3.62266 255 0 0
-4.12307 -1.75238 -3.60954 255 0 0
-4.75102 -1.61247 -3.94508 255 0 0
-4.19972 -3.08948 -4.22331 255 0 0
-4.53801 -1.5462 -3.9975 255 0 0
-4.23855 -1.6088 -3.69294 255 0 0
-4.1843 -1.55989 -3.56258 255 0 0
-4.14728 -1.57978 -3.55291 255 0 0
-4.56178 -1.82493 -3.71923 255 0 0
-4.98807 -2.0092 -3.88168 255 0 0
-4.30913 -1.77145 -3.63027 255 0 0
-4.20886 -1.7536 -3.59546 255 0 0
-4.1623 -1.8749 -3.59739 255 0 0
-3.94643 -1.78893 -3.51617 255 0 0
-4.3136 -3.07965 -3.8546 255 0 0
-4.21882 -3.08814 -3.82946 255 0 0
-4.23224 -3.14444 -3.84493 255 0 0
-3.27904 -2.18046 -3.4891 255 0 0
-4.64971 -1.57196 -3.99731 255 0 0
-4.95397 -1.50638 -4.36233 255 0 0
-4.44723 -1.57435 -4.19989 255 0 0
-3.15606 -2.24196 -3.72748 255 0 0
-4.08508 -1.58945 -3.82635 255 0 0
-4.13432 -1.53011 -3.5838 255 0 0
-4.10046 -1.57309 -3.57787 255 0 0
-5.5925 -2.16072 -4.15397 255 0 0
-4.11353 -1.62303 -3.58875 255 0 0
-4.21491 -1.73271 -3.63726 255 0 0
-4.15071 -1.76023 -3.63389 255 0 0
-4.19787 -1.84323 -3.64716 255 0 0
-3.70352 -1.79668 -3.47888 255 0 0
-3.67459 -1.89154 -3.48482 255 0 0
-3.68966 -1.91038 -3.49274 255 0 0
-3.89484 -1.60652 -3.75541 255 0 0
-4.20834 -1.64315 -3.83841 255 0 0
-3.1973 -2.86975 -3.9601 255 0 0
-4.43875 -1.55361 -4.0985 255 0 0
-3.97989 -1.79273 -3.65065 255 0 0
-4.60697 -1.58799 -3.93591 255 0 0
-5.22838 -1.74001 -4.03156 255 0 0
-5.03962 -1.72377 -3.96371 255 0 0
-4.99766 -1.73592 -3.95054 255 0 0
-4.9448 -1.73731 -3.93231 255 0 0
-4.93031 -1.74537 -3.92826 255 0 0
-4.04043 -1.46818 -3.58494 255 0 0
-4.08217 -1.52182 -3.60621 255 0 0
-5.50858 -2.08338 -4.17132 255 0 0
-4.11773 -1.61341 -3.63052 255 0 0
-4.22709 -1.73187 -3.68419 255 0 0
-4.1926 -1.7178 -3.69183 255 0 0
-4.09956 -1.73093 -3.64064 255 0 0
-4.08418 -1.75302 -3.63862 255 0 0
-3.96869 -1.81037 -3.60824 255 0 0
-3.29849 -2.01421 -3.44056 255 0 0
-3.24561 -2.2029 -3.4462 255 0 0
-3.29484 -2.24774 -3.4705 255 0 0
-4.15259 -3.07001 -3.90396 255 0 0
-3.24051 -2.15484 -3.62142 255 0 0
-2.80552 -1.6794 -3.49176 255 0 0
-3.0395 -1.64757 -3.61218 255 0 0
-5.30419 -1.68182 -4.10421 255 0 0
-5.14499 -1.65823 -4.04415 255 0 0
-4.98224 -1.64499 -3.98409 255 0 0
-4.70729 -1.65387 -3.88675 255 0 0
-4.33163 -1.53343 -3.73763 255 0 0
-4.26075 -1.59991 -3.72106 255 0 0
-4.1354 -1.57526 -3.67343 255 0 0
-4.13607 -1.64893 -3.68378 255 0 0
-4.17263 -1.76178 -3.71278 255 0 0
-4.03331 -1.72554 -3.65893 255 0 0
-3.93717 -1.80728 -3.63822 255 0 0
-3.84484 -1.79812 -3.60508 255 0 0
-3.50544 -1.79397 -3.4891 255 0 0
-3.55475 -1.82985 -3.51188 255 0 0
-3.4445 -2.06195 -3.5181 255 0 0
-3.32698 -2.00233 -3.46839 255 0 0
-3.22192 -2.08782 -3.45182 255 0 0
-3.15191 -2.72936 -3.59655 255 0 0
-4.60047 -1.57355 -3.97855 255 0 0
-4.25092 -1.57707 -4.0383 255 0 0
-3.75054 -1.60981 -3.78071 255 0 0
-4.20553 -1.58486 -4.00545 255 0 0
-5.33171 -1.66276 -4.1652 255 0 0
-5.09479 -1.61542 -4.07207 255 0 0
-5.03374 -1.60921 -4.04879 255 0 0
-4.93779 -1.60438 -4.01281 255 0 0
-4.89765 -1.60419 -3.998 255 0 0
-4.84269 -1.60526 -3.97789 255 0 0
-4.79295 -1.60774 -3.9599 255 0 0
-4.69428 -1.61808 -3.92498 255 0 0
-4.35242 -1.66383 -3.80645 255 0 0
-4.04432 -1.85065 -3.74554 255 0 0
-4.15371 -1.93058 -3.77576 255 0 0
-3.36885 -1.8158 -3.48368 255 0 0
-3.30527 -1.86328 -3.47098 255 0 0
-4.20503 -2.97961 -3.998 255 0 0
-4.15978 -2.97728 -3.98318 255 0 0
-3.72749 -3.12106 -3.88476 255 0 0
-3.76589 -3.20674 -3.91757 255 0 0
-3.1542 -2.84457 -3.64665 255 0 0
-3.0871 -2.81966 -3.63423 255 0 0
-3.08012 -2.80437 -3.61491 255 0 0
-3.22653 -2.95169 -3.69533 255 0 0
-2.93577 -2.71138 -3.54929 255 0 0
-5.15002 -1.59937 -4.14236 255 0 0
-5.00933 -1.57526 -4.08616 255 0 0
-4.90332 -1.56752 -4.04508 255 0 0
-4.86333 -1.56745 -4.02995 255 0 0
-4.82855 -1.56889 -4.01698 255 0 0
-4.78345 -1.56679 -3.99968 255 0 0
-4.38949 -1.63045 -3.86025 255 0 0
-4.04481 -1.66276 -3.73738 255 0 0
-3.90936 -1.69448 -3.69271 255 0 0
-3.99387 -1.75929 -3.73378 255 0 0
-4.0524 -1.91282 -3.78026 255 0 0
-3.70054 -1.88276 -3.64947 255 0 0
-3.21984 -1.84543 -3.47436 255 0 0
-3.9213 -2.28467 -3.80296 255 0 0
-3.32368 -2.04353 -3.55003 255 0 0
-3.24501 -2.02001 -3.54311 255 0 0
-3.19816 -2.0084 -3.5003 255 0 0
-3.20385 -2.10676 -3.5418 255 0 0
-3.18595 -2.10768 -3.5176 255 0 0
-3.19838 -2.21547 -3.5457 255 0 0
-4.08107 -2.91368 -3.99212 255 0 0
-4.08084 -3.02446 -4.04241 255 0 0
-4.07687 -3.04403 -4.0213 255 0 0
-4.04788 -3.03736 -4.01049 255 0 0
-3.64811 -3.07672 -3.89592 255 0 0
-3.09276 -2.64622 -3.61704 255 0 0
-3.09881 -2.66416 -3.64324 255 0 0
-3.1013 -2.77691 -3.65379 255 0 0
-3.07268 -2.78429 -3.64731 255 0 0
-3.05101 -2.79996 -3.64515 255 0 0
-3.04574 -2.86354 -3.66082 255 0 0
-3.08647 -2.96099 -3.69919 255 0 0
-5.14365 -1.57739 -4.18932 255 0 0
-5.00482 -1.56731 -4.13414 255 0 0
-4.95269 -1.57037 -4.11428 255 0 0
-4.80801 -1.5685 -4.058 255 0 0
-4.49206 -1.59621 -3.93993 255 0 0
-4.25405 -1.63778 -3.85496 255 0 0
-4.16715 -1.64418 -3.82296 255 0 0
-4.10449 -1.64763 -3.79979 255 0 0
-4.02296 -1.6538 -3.76999 255 0 0
-3.94911 -1.66188 -3.74351 255 0 0
-3.85825 -1.67775 -3.71206 255 0 0
-3.7954 -1.68263 -3.68944 255 0 0
-3.75028 -1.68394 -3.67288 255 0 0
-3.72944 -1.69057 -3.66626 255 0 0
-3.70075 -1.68815 -3.65523 255 0 0
-3.64365 -1.71461 -3.63868 255 0 0
-3.59215 -1.69034 -3.6155 255 0 0
-3.61387 -1.72681 -3.62985 255 0 0
-3.54824 -1.73175 -3.60668 255 0 0
-3.237 -1.84508 -3.51619 255 0 0
-3.27594 -1.94 -3.54929 255 0 0
-3.19798 -2.16836 -3.58729 255 0 0
-3.23024 -2.20368 -3.59123 255 0 0
-3.21043 -2.21815 -3.58792 255 0 0
-3.20891 -2.25668 -3.59638 255 0 0
-3.23819 -2.30608 -3.61771 255 0 0
-4.10239 -3.06304 -4.08338 255 0 0
-3.15443 -2.65396 -3.68751 255 0 0
-3.11201 -2.66589 -3.69734 255 0 0
-3.17419 -2.75524 -3.7104 255 0 0
-3.09995 -2.82242 -3.70599 255 0 0
-3.05818 -2.86164 -3.70433 255 0 0
-3.06747 -2.92883 -3.72585 255 0 0
-3.12058 -3.02226 -3.76778 255 0 0
-2.46879 -3.17109 -3.63537 255 0 0
-4.30521 -1.58754 -4.00198 255 0 0
-4.09987 -1.59521 -4.05142 255 0 0
-2.60185 -1.72565 -3.45587 255 0 0
-5.0124 -1.53714 -4.18441 255 0 0
-5.08305 -1.62499 -4.22344 255 0 0
-4.72697 -1.56071 -4.07406 255 0 0
-4.59653 -1.54185 -4.02002 255 0 0
-4.51388 -1.54993 -3.98849 255 0 0
-4.43956 -1.55387 -3.95978 255 0 0
-4.38319 -1.56339 -3.93895 255 0 0
-4.34431 -1.57567 -3.93672 255 0 0
-4.25603 -1.58087 -3.89165 255 0 0
-4.25544 -1.59792 -3.89391 255 0 0
-4.15818 -1.59523 -3.85562 255 0 0
-4.05111 -1.5873 -3.81284 255 0 0
-3.93639 -1.60368 -3.78483 255 0 0
-3.84121 -1.61112 -3.73552 255 0 0
-3.78658 -1.61998 -3.716 255 0 0
-3.62713 -1.65976 -3.66195 255 0 0
-3.54262 -1.65337 -3.65435 255 0 0
-3.3424 -1.69058 -3.56061 255 0 0
-3.47446 -1.78852 -3.62817 255 0 0
-3.39402 -1.76753 -3.59439 255 0 0
-3.37006 -1.75505 -3.58313 255 0 0
-3.24001 -1.73396 -3.5401 255 0 0
-3.24152 -1.77205 -3.53922 255 0 0
-3.4748 -1.96973 -3.66421 255 0 0
-3.35046 -1.91502 -3.60791 255 0 0
-3.26697 -1.9173 -3.59064 255 0 0
-3.23702 -1.96919 -3.5935 255 0 0
-3.21622 -1.96961 -3.58984 255 0 0
-3.18452 -2.05288 -3.57863 255 0 0
-3.19837 -2.11321 -3.59721 255 0 0
-3.24937 -2.19983 -3.63493 255 0 0
-3.26571 -2.26208 -3.6552 255 0 0
-4.09199 -2.9656 -4.10559 255 0 0
-4.11116 -2.99438 -4.1191 255 0 0
-4.13894 -3.02966 -4.13712 255 0 0
-4.15422 -3.06362 -4.15063 255 0 0
-3.15984 -2.60775 -3.70699 255 0 0
-3.10899 -2.58442 -3.68447 255 0 0
-3.1091 -2.60957 -3.69123 255 0 0
-3.10935 -2.81755 -3.74828 255 0 0
-3.0428 -2.78361 -3.71825 255 0 0
-2.98192 -2.754 -3.69123 255 0 0
-2.43857 -3.10181 -3.64394 255 0 0
-2.42383 -3.11334 -3.64394 255 0 0
-2.21452 -2.85844 -3.50657 255 0 0
-1.62627 -3.09585 -3.45702 255 0 0
-1.54403 -3.06154 -3.4453 255 0 0
-1.56493 -3.10311 -3.44802 255 0 0
-4.69862 -1.60714 -4.19123 255 0 0
-5.19945 -1.58102 -4.31748 255 0 0
-5.13732 -1.60884 -4.29566 255 0 0
-5.11874 -1.62302 -4.28992 255 0 0
-5.11353 -1.74229 -4.3037 255 0 0
-4.56941 -1.569 -4.06024 255 0 0
-4.5002 -1.56313 -4.03153 255 0 0
-4.39137 -1.57216 -3.98904 255 0 0
-4.2954 -1.58393 -3.95229 255 0 0
-4.18263 -1.59325 -3.90865 255 0 0
-4.04381 -1.60105 -3.85468 255 0 0
-3.89615 -1.60707 -3.79726 255 0 0
-3.84433 -1.60885 -3.79081 255 0 0
-3.75962 -1.61898 -3.74558 255 0 0
-3.65263 -1.63489 -3.70653 255 0 0
-3.55965 -1.64422 -3.67208 255 0 0
-3.49359 -1.65407 -3.64835 255 0 0
-3.41211 -1.65729 -3.64002 255 0 0
-3.34027 -1.66964 -3.59246 255 0 0
-3.23646 -1.68545 -3.55609 255 0 0
-3.20979 -1.7129 -3.5515 255 0 0
-3.29909 -1.89085 -3.62155 255 0 0
-3.29713 -1.9158 -3.62614 255 0 0
-3.26263 -1.94784 -3.6204 255 0 0
-3.16987 -2.00114 -3.59858 255 0 0
-3.20994 -2.05493 -3.65036 255 0 0
-4.14612 -3.08045 -4.20264 255 0 0
-3.11061 -2.61081 -3.7318 255 0 0
-3.10822 -2.65945 -3.74443 255 0 0
-2.99655 -2.61979 -3.69734 255 0 0
-3.16124 -2.82385 -3.80759 255 0 0
-2.99656 -2.78072 -3.74328 255 0 0
-2.35249 -3.0217 -3.63303 255 0 0
-2.4039 -3.11813 -3.67897 255 0 0
-2.44568 -3.18792 -3.71342 255 0 0
-2.40123 -3.16086 -3.69275 255 0 0
-2.32792 -3.09476 -3.65141 255 0 0
-1.8174 -2.94805 -3.47685 255 0 0
-1.76846 -2.94629 -3.46537 255 0 0
-1.70972 -2.91851 -3.4424 255 0 0
-1.65054 -2.95238 -3.4424 255 0 0
-1.54452 -3.00921 -3.4424 255 0 0
-1.57643 -3.12592 -3.49293 255 0 0
-1.55198 -3.11407 -3.48374 255 0 0
-1.56611 -3.16118 -3.50441 255 0 0
-5.13743 -1.58882 -4.34618 255 0 0
-4.93529 -1.55198 -4.2572 255 0 0
-4.87021 -1.54422 -4.2291 255 0 0
-4.82778 -1.56232 -4.21388 255 0 0
-4.51891 -1.56365 -4.08627 255 0 0
-4.40278 -1.57035 -4.03944 255 0 0
-4.35056 -1.57115 -4.0487 255 0 0
-4.14947 -1.59752 -3.93993 255 0 0
-4.12125 -1.60353 -3.92939 255 0 0
-3.97252 -1.60013 -3.86851 255 0 0
-3.90337 -1.59922 -3.84042 255 0 0
-3.86105 -1.60332 -3.82403 255 0 0
-3.60278 -1.60849 -3.74489 255 0 0
-3.473 -1.64434 -3.67651 255 0 0
-3.32276 -1.67077 -3.62266 255 0 0
-3.16181 -1.68972 -3.56412 255 0 0
-3.0488 -1.71866 -3.52699 255 0 0
-2.96256 -1.71668 -3.49387 255 0 0
-3.03521 -1.77323 -3.53368 255 0 0
-3.02039 -1.79836 -3.53368 255 0 0
-2.96335 -1.77872 -3.50792 255 0 0
-3.03507 -1.83647 -3.54773 255 0 0
-3.15223 -1.93298 -3.61329 255 0 0
-3.21802 -2.01025 -3.65544 255 0 0
-3.2712 -2.08686 -3.6929 255 0 0
-3.2748 -2.11107 -3.69993 255 0 0
-3.29003 -2.17277 -3.72022 255 0 0
-3.2444 -2.15742 -3.69993 255 0 0
-3.25146 -2.25221 -3.72568 255 0 0
-3.22187 -2.9898 -3.91769 255 0 0
-3.14412 -2.93155 -3.87554 255 0 0
-2.45924 -3.21348 -3.76549 255 0 0
-2.41636 -3.16522 -3.73739 255 0 0
-1.52632 -3.13676 -3.52197 255 0 0
-4.94779 -1.5109 -4.30847 255 0 0
-4.89365 -1.52612 -4.2874 255 0 0
-4.80601 -1.54895 -4.2532 255 0 0
-4.41556 -1.56314 -4.09015 255 0 0
-4.30323 -1.57522 -4.04482 255 0 0
-4.10495 -1.58599 -3.96369 255 0 0
-4.04948 -1.5811 -3.93983 255 0 0
-3.9804 -1.58141 -3.9112 255 0 0
-3.89026 -1.58131 -3.88784 255 0 0
-3.84328 -1.58525 -3.85513 255 0 0
-3.7616 -1.59348 -3.82292 255 0 0
-3.56196 -1.60956 -3.74418 255 0 0
-3.34998 -1.62515 -3.66146 255 0 0
-3.08107 -1.6654 -3.56284 255 0 0
-2.93924 -1.68923 -3.51274 255 0 0
-2.89312 -1.6994 -3.49723 255 0 0
-2.84821 -1.70957 -3.48231 255 0 0
-2.80125 -1.71013 -3.48629 255 0 0
-2.78488 -1.74887 -3.4674 255 0 0
-2.72729 -1.73988 -3.44354 255 0 0
-2.87631 -1.85419 -3.52705 255 0 0
-2.93921 -1.90462 -3.56284 255 0 0
-3.10046 -2.01957 -3.65112 255 0 0
-3.18514 -2.08549 -3.69885 255 0 0
-3.13954 -2.07697 -3.67976 255 0 0
-3.19219 -2.12817 -3.71197 255 0 0
-3.11786 -2.13786 -3.68692 255 0 0
-3.14361 -2.16649 -3.70362 255 0 0
-3.25743 -2.30237 -3.77997 255 0 0
-3.06511 -2.72494 -3.83008 255 0 0
-3.10715 -2.86966 -3.88734 255 0 0
-1.49599 -3.10555 -3.53819 255 0 0
-1.53461 -3.23133 -3.59625 255 0 0
-4.98149 -1.48898 -4.37205 255 0 0
-4.89737 -1.5273 -4.34045 255 0 0
-4.74826 -1.56772 -4.28131 255 0 0
-4.61137 -1.59564 -4.22622 255 0 0
-4.43655 -1.54694 -4.14359 255 0 0
-4.37895 -1.55018 -4.11929 255 0 0
-4.19852 -1.57085 -4.04516 255 0 0
-4.05791 -1.57333 -3.98562 255 0 0
-4.01757 -1.57416 -3.9686 255 0 0
-3.89736 -1.58059 -3.9399 255 0 0
-3.85668 -1.57477 -3.90055 255 0 0
-3.75373 -1.57966 -3.85802 255 0 0
-3.69614 -1.58126 -3.83412 255 0 0
-3.63704 -1.58156 -3.80942 255 0 0
-3.55134 -1.58451 -3.77417 255 0 0
-3.5311 -1.59058 -3.76688 255 0 0
-3.35534 -1.58374 -3.69276 255 0 0
-3.31842 -1.58079 -3.67696 255 0 0
-3.29117 -1.5822 -3.66602 255 0 0
-3.09249 -1.61981 -3.59271 255 0 0
-2.89811 -1.67013 -3.5453 255 0 0
-2.75553 -1.68521 -3.47362 255 0 0
-2.69208 -1.6965 -3.45174 255 0 0
-2.65081 -1.71328 -3.44 255 0 0
-2.64045 -1.7558 -3.44668 255 0 0
-3.15916 -2.22169 -3.76202 255 0 0
-3.13561 -2.64449 -3.87139 255 0 0
-3.15694 -2.70982 -3.89812 255 0 0
-3.11293 -2.72806 -3.8884 255 0 0
-3.18836 -2.82777 -3.9443 255 0 0
-3.16251 -2.87252 -3.94916 255 0 0
-2.17942 -2.93338 -3.66724 255 0 0
-1.75558 -2.84777 -3.52628 255 0 0
-3.25464 -1.622 -3.6957 255 0 0
-5.03361 -1.50456 -4.44982 255 0 0
-4.8992 -1.50876 -4.39043 255 0 0
-4.9619 -1.52165 -4.42013 255 0 0
-4.89799 -1.56579 -4.39785 255 0 0
-4.87274 -1.55774 -4.38548 255 0 0
-4.75323 -1.58188 -4.33599 255 0 0
-4.71928 -1.58302 -4.32114 255 0 0
-4.75749 -1.62725 -4.34465 255 0 0
-4.8479 -1.65818 -4.38919 255 0 0
-4.63003 -1.6144 -4.2865 255 0 0
-4.54107 -1.59547 -4.24443 255 0 0
-4.4085 -1.57241 -4.18257 255 0 0
-4.36045 -1.57277 -4.16153 255 0 0
-4.28126 -1.59604 -4.1306 255 0 0
-4.22898 -1.59943 -4.10833 255 0 0
-4.20534 -1.6019 -4.09843 255 0 0
-4.05713 -1.5952 -4.03286 255 0 0
-3.93907 -1.59752 -3.98213 255 0 0
-3.78883 -1.59973 -3.91779 255 0 0
-3.74651 -1.59756 -3.89923 255 0 0
-3.5959 -1.60439 -3.83613 255 0 0
-3.56114 -1.60411 -3.82128 255 0 0
-3.53609 -1.60797 -3.81138 255 0 0
-3.46296 -1.61452 -3.78169 255 0 0
-3.40378 -1.61153 -3.75612 255 0 0
-3.20046 -1.62832 -3.67446 255 0 0
-3.15697 -1.62982 -3.65672 255 0 0
-3.07222 -1.63716 -3.62332 255 0 0
-2.99905 -1.65336 -3.59692 255 0 0
-2.94563 -1.66052 -3.57679 255 0 0
-1.99564 -2.77433 -3.59362 255 0 0
