ply
format ascii 1.0
comment Created by Open3D
element vertex 519
property double x
property double y
property double z
property uchar red
property uchar green
property uchar blue
end_header
10.2726 0.54854 -4.84829 255 0 0
8.88313 -0.855644 -4.63139 255 0 0
10.3357 -0.724109 -4.22932 255 0 0
8.62171 0.542432 -4.62544 255 0 0
9.85152 -0.257011 -4.29244 255 0 0
8.74138 -0.59159 -4.58336 255 0 0
9.94344 0.448255 -4.84518 255 0 0
9.94198 0.0589321 -4.22581 255 0 0
11.4497 -0.74761 -4.87093 255 0 0
8.30213 0.700453 -4.7608 255 0 0
8.72201 0.0310201 -4.57177 255 0 0
10.0116 -0.415649 -4.33091 255 0 0
8.80608 0.449295 -4.59992 255 0 0
9.78842 0.429632 -4.27917 255 0 0
9.19686 0.578617 -4.55143 255 0 0
11.4513 0.0135756 -4.86524 255 0 0
10.0344 -0.0832727 -4.15911 255 0 0
9.90792 -0.646942 -4.30968 255 0 0
8.81135 0.554363 -4.60323 255 0 0
8.69814 0.350788 -4.5668 255 0 0
9.03573 -0.0535602 -4.58287 255 0 0
8.48619 -0.634988 -4.58628 255 0 0
8.99929 1.66857e-05 -4.57241 255 0 0
8.81357 -0.933386 -4.69355 255 0 0
9.80423 0.313928 -4.28182 255 0 0
8.48551 0.473293 -4.58288 255 0 0
9.01564 0.245887 -4.57805 255 0 0
9.57145 -0.784695 -4.57327 255 0 0
9.45958 -0.990466 -4.63346 255 0 0
8.51458 -0.454666 -4.59139 255 0 0
9.83897 0.455227 -4.46445 255 0 0
11.4786 0.394787 -4.87377 255 0 0
8.40257 -0.930173 -4.80132 255 0 0
9.97887 -0.592205 -4.23796 255 0 0
10.0537 0.274199 -4.42785 255 0 0
8.71691 0.299803 -4.57177 255 0 0
9.92871 0.200126 -4.22325 255 0 0
8.99079 -0.0319761 -4.57 255 0 0
9.63826 -1.0901 -4.59903 255 0 0
10.0529 -0.728258 -4.25651 255 0 0
10.2226 0.472978 -4.29104 255 0 0
9.85067 -0.0350342 -4.20534 255 0 0
10.0569 0.310084 -4.69602 255 0 0
8.70735 -0.506378 -4.57177 255 0 0
10.1394 -0.44504 -4.18374 255 0 0
9.90524 -0.764791 -4.31101 255 0 0
9.39099 -0.837188 -4.52629 255 0 0
10.1491 0.0360958 -4.18374 255 0 0
9.90781 0.0352375 -4.21813 255 0 0
9.90306 -0.7174 -4.30968 255 0 0
10.5079 -0.586092 -4.54052 255 0 0
10.3127 0.134491 -4.48968 255 0 0
9.38109 0.802677 -4.6069 255 0 0
10.6319 0.390904 -4.662 255 0 0
8.49884 0.352825 -4.58515 255 0 0
8.61928 -0.850859 -4.63225 255 0 0
8.48967 -0.544247 -4.58543 255 0 0
9.45863 -0.640131 -4.62487 255 0 0
8.74891 0.467178 -4.58336 255 0 0
9.64194 0.469023 -4.33029 255 0 0
9.835 0.408315 -4.28978 255 0 0
8.50452 0.302586 -4.58628 255 0 0
8.49262 0.0906159 -4.58117 255 0 0
9.56076 -1.12728 -4.66549 255 0 0
8.40086 -0.209188 -4.55393 255 0 0
10.0275 -0.559299 -4.33622 255 0 0
11.4683 0.0407873 -4.86951 255 0 0
9.4931 -1.07369 -4.64518 255 0 0
10.3027 0.158793 -4.57815 255 0 0
9.9477 -0.342134 -4.22836 255 0 0
10.3432 -0.773938 -4.59521 255 0 0
8.39856 0.688538 -4.7148 255 0 0
9.35917 0.767292 -4.68426 255 0 0
9.3329 0.742865 -4.67621 255 0 0
10.4761 -0.808869 -4.90923 255 0 0
8.48437 0.493411 -4.58288 255 0 0
10.3663 0.356532 -4.23178 255 0 0
11.3685 -0.769385 -4.85103 255 0 0
10.2232 0.0969599 -4.19976 255 0 0
10.0496 0.369498 -4.25139 255 0 0
9.62588 -0.835129 -4.41755 255 0 0
9.96971 -0.817345 -4.32693 255 0 0
9.95489 -0.448757 -4.23092 255 0 0
10.2731 0.207067 -4.21084 255 0 0
8.72034 -0.569398 -4.57674 255 0 0
10.1003 0.491322 -4.79986 255 0 0
9.95907 -1.00697 -4.86128 255 0 0
9.18988 -0.81926 -4.55456 255 0 0
9.65445 0.0114454 -4.5869 255 0 0
9.86696 0.52688 -4.38525 255 0 0
10.1082 0.143813 -4.61891 255 0 0
10.0985 0.179597 -4.34948 255 0 0
9.63605 -0.744007 -4.33304 255 0 0
11.4852 0.0680797 -4.87377 255 0 0
9.87905 0.292878 -4.29907 255 0 0
9.03847 0.0642887 -4.58368 255 0 0
8.77917 -0.615062 -4.59495 255 0 0
10.1252 -0.372276 -4.18005 255 0 0
10.1009 -0.407347 -4.17512 255 0 0
9.48002 -1.03807 -4.64049 255 0 0
8.49246 0.241691 -4.58202 255 0 0
9.46564 0.685712 -4.54296 255 0 0
10.033 -0.643153 -4.25075 255 0 0
9.30157 0.55201 -4.49673 255 0 0
8.27111 -0.895774 -4.83372 255 0 0
11.1361 0.435884 -4.7885 255 0 0
8.37363 -0.92697 -4.86959 255 0 0
10.5005 -0.535745 -4.81726 255 0 0
8.76305 -0.749805 -4.5933 255 0 0
8.46112 -0.140453 -4.57181 255 0 0
10.6032 -0.995958 -4.85363 255 0 0
10.1834 -0.060363 -4.19113 255 0 0
10.0484 0.0833893 -4.33754 255 0 0
9.07859 -0.744289 -4.60379 255 0 0
8.3716 -0.906658 -4.79027 255 0 0
8.99442 -0.191969 -4.57161 255 0 0
10.5838 -0.552561 -4.55838 255 0 0
11.3293 -0.739751 -4.94123 255 0 0
10.026 0.511537 -4.68996 255 0 0
9.99104 0.225083 -4.23732 255 0 0
10.5587 -0.614045 -4.64637 255 0 0
9.39283 0.803695 -4.69472 255 0 0
9.98986 0.272458 -4.23732 255 0 0
9.86153 -0.737899 -4.3004 255 0 0
9.28175 -0.805273 -4.57956 255 0 0
8.51462 0.759062 -4.83263 255 0 0
8.41099 -0.910923 -4.72557 255 0 0
8.7305 -0.383198 -4.57674 255 0 0
8.46116 -0.401538 -4.57436 255 0 0
11.4405 0.0406886 -4.76173 255 0 0
9.95884 0.366159 -4.75924 255 0 0
9.82436 -0.198023 -4.2858 255 0 0
9.06178 -0.742911 -4.59897 255 0 0
10.4184 -0.680276 -4.79756 255 0 0
9.5389 -1.0102 -4.57023 255 0 0
9.40972 -0.951422 -4.61862 255 0 0
8.72294 -0.52804 -4.57674 255 0 0
9.69989 0.448792 -4.34403 255 0 0
8.6376 -0.317581 -4.54859 255 0 0
10.6207 -0.592387 -4.19641 255 0 0
8.83481 -0.829852 -4.61648 255 0 0
9.97093 0.319265 -4.5844 255 0 0
8.89195 0.61237 -4.62807 255 0 0
9.9048 0.246637 -4.21813 255 0 0
8.66257 -0.0924227 -4.55438 255 0 0
10.435 -0.309359 -4.89048 255 0 0
8.75435 0.655054 -4.66801 255 0 0
10.1066 0.203713 -4.44021 255 0 0
8.67269 -0.277696 -4.55852 255 0 0
9.35086 0.721988 -4.59675 255 0 0
8.63147 0.112566 -4.54527 255 0 0
10.2084 -0.557252 -4.19976 255 0 0
8.31047 -0.850237 -4.76817 255 0 0
8.99385 -0.672975 -4.57805 255 0 0
10.5842 -0.56518 -4.65206 255 0 0
8.73517 0.404156 -4.57839 255 0 0
8.67049 -0.339378 -4.55852 255 0 0
10.1075 -0.179757 -4.17512 255 0 0
9.12315 -0.878762 -4.61989 255 0 0
8.80946 0.491361 -4.60158 255 0 0
8.99351 -0.597936 -4.57644 255 0 0
11.4576 -0.0135831 -4.76585 255 0 0
8.26669 -0.579158 -4.59395 255 0 0
8.83116 -0.808391 -4.61483 255 0 0
8.46294 -0.190657 -4.57266 255 0 0
9.4408 0.864195 -4.62487 255 0 0
8.67713 -0.0102868 -4.55852 255 0 0
9.9034 -0.788275 -4.31101 255 0 0
10.3485 0.134958 -4.58952 255 0 0
8.57108 -0.825586 -4.61693 255 0 0
10.1368 0.444922 -4.71875 255 0 0
10.5051 -0.436135 -4.81726 255 0 0
10.3908 0.308049 -4.23671 255 0 0
10.002 -0.605465 -4.33091 255 0 0
9.90182 0.0821726 -4.21685 255 0 0
9.86182 -0.0818407 -4.2079 255 0 0
8.98368 -0.479715 -4.57161 255 0 0
10.2549 -0.645182 -4.21084 255 0 0
9.8056 0.267432 -4.28182 255 0 0
9.96429 0.484704 -4.85162 255 0 0
8.48184 0.030166 -4.57777 255 0 0
9.95475 -0.531569 -4.31897 255 0 0
10.1728 0.180918 -4.6358 255 0 0
9.01624 -0.502895 -4.58126 255 0 0
9.89017 -0.105528 -4.21429 255 0 0
9.0075 -0.910753 -4.66947 255 0 0
9.76755 0.382319 -4.27386 255 0 0
8.42226 0.730705 -4.80132 255 0 0
9.86907 0.105303 -4.73268 255 0 0
10.0931 0.407037 -4.70663 255 0 0
8.72201 -0.0310201 -4.57177 255 0 0
8.68716 -0.144208 -4.56183 255 0 0
11.6511 0.0690633 -4.71033 255 0 0
10.017 0.320741 -4.24371 255 0 0
8.44806 -0.0600991 -4.56755 255 0 0
9.95551 -0.496097 -4.23156 255 0 0
10.2003 -0.690325 -4.19976 255 0 0
10.1568 -0.144518 -4.18559 255 0 0
9.00814 0.545304 -4.57965 255 0 0
9.36975 0.835295 -4.60456 255 0 0
9.01938 -0.545984 -4.58287 255 0 0
11.3359 -0.201603 -4.83682 255 0 0
10.1774 0.22928 -4.36806 255 0 0
9.01702 -0.803849 -4.5877 255 0 0
10.0518 0.166836 -4.69375 255 0 0
9.35778 0.666738 -4.59753 255 0 0
8.73507 0.258963 -4.57674 255 0 0
9.03572 -0.783927 -4.59253 255 0 0
10.593 -0.502708 -4.65348 255 0 0
8.61206 -0.808929 -4.62885 255 0 0
9.07685 0.527866 -4.59897 255 0 0
10.0248 0.213952 -4.59762 255 0 0
9.18983 0.600054 -4.54987 255 0 0
9.88873 0.410546 -4.82909 255 0 0
10.1295 -0.228201 -4.18005 255 0 0
10.0219 0.0356434 -4.77486 255 0 0
8.49138 -0.171155 -4.58117 255 0 0
8.32794 0.662874 -4.69146 255 0 0
8.45779 -0.351121 -4.57266 255 0 0
8.99325 -0.085305 -4.5708 255 0 0
9.67605 -0.0344132 -4.33579 255 0 0
8.45317 -0.11024 -4.56925 255 0 0
10.1826 0.205243 -4.5483 255 0 0
10.1565 -0.28904 -4.18621 255 0 0
8.93697 -0.882221 -4.64795 255 0 0
9.05249 0.601881 -4.59333 255 0 0
10.7021 -0.673318 -4.21417 255 0 0
10.6292 -0.643437 -4.19878 255 0 0
10.1463 3.39324e-06 -4.18313 255 0 0
10.0803 0.0597523 -4.16896 255 0 0
10.3143 0.134513 -4.21946 255 0 0
10.2568 0.158085 -4.20715 255 0 0
10.2449 0.1822 -4.20468 255 0 0
10.3126 0.232327 -4.21946 255 0 0
10.3807 0.258487 -4.23424 255 0 0
10.3343 0.281851 -4.22439 255 0 0
10.4129 0.333418 -4.24163 255 0 0
10.3655 0.381109 -4.23178 255 0 0
9.25169 0.659205 -4.65127 255 0 0
10.5425 -0.487776 -4.82786 255 0 0
8.66005 0.318406 -4.55521 255 0 0
9.0911 0.571964 -4.60379 255 0 0
8.94596 -0.445813 -4.56034 255 0 0
10.5471 -0.487989 -4.54876 255 0 0
8.4375 -0.954296 -4.89225 255 0 0
10.5966 -0.767639 -4.28597 255 0 0
10.3047 -0.672851 -4.22193 255 0 0
10.2335 -0.619482 -4.20591 255 0 0
10.1778 -0.591893 -4.1936 255 0 0
10.2275 -0.521817 -4.20345 255 0 0
10.1544 -0.49395 -4.18744 255 0 0
10.1841 -0.471196 -4.1936 255 0 0
10.115 -0.335883 -4.17759 255 0 0
10.106 -0.251648 -4.17512 255 0 0
10.1643 -0.204876 -4.18744 255 0 0
10.1315 -0.108102 -4.18005 255 0 0
10.1491 -0.0360958 -4.18374 255 0 0
9.86787 0.0116984 -4.20918 255 0 0
9.94159 0.106076 -4.22581 255 0 0
9.94131 0.129648 -4.22581 255 0 0
9.90936 0.164492 -4.21877 255 0 0
9.95492 0.295127 -4.22964 255 0 0
9.99909 0.343901 -4.23988 255 0 0
10.0659 0.393995 -4.25523 255 0 0
9.97356 0.414068 -4.23476 255 0 0
10.1552 0.445732 -4.27569 255 0 0
8.88561 0.263426 -4.54103 255 0 0
10.4923 -0.560275 -4.90923 255 0 0
10.2659 -0.792635 -4.30512 255 0 0
10.1879 -0.762324 -4.28721 255 0 0
10.0127 -0.689558 -4.24691 255 0 0
9.9039 -0.552406 -4.22069 255 0 0
9.9223 -0.529836 -4.22453 255 0 0
9.9512 -0.401323 -4.22964 255 0 0
9.95828 -0.366139 -4.23092 255 0 0
9.95489 -0.295126 -4.22964 255 0 0
9.93779 -0.294619 -4.22581 255 0 0
9.94506 -0.23585 -4.22708 255 0 0
9.9375 -0.188522 -4.22517 255 0 0
9.9524 -0.153394 -4.22836 255 0 0
9.86132 -0.128605 -4.2079 255 0 0
9.9077 -0.0587289 -4.21813 255 0 0
9.94215 -0.0117865 -4.22581 255 0 0
9.97407 0.106423 -4.3203 255 0 0
10.2304 0.133418 -4.38 255 0 0
10.1274 0.156092 -4.35612 255 0 0
10.1836 0.205264 -4.36938 255 0 0
10.1369 0.252416 -4.35877 255 0 0
9.79734 0.348598 -4.2805 255 0 0
9.83865 0.455212 -4.29111 255 0 0
8.47975 0.191035 -4.57777 255 0 0
9.92142 -0.388341 -4.30968 255 0 0
9.92749 -0.695512 -4.31499 255 0 0
9.98032 -0.675438 -4.32693 255 0 0
9.94926 -0.625955 -4.31897 255 0 0
9.97489 -0.580093 -4.32428 255 0 0
9.96738 -0.508545 -4.32162 255 0 0
9.97995 -0.485465 -4.32428 255 0 0
9.99246 -0.462329 -4.32693 255 0 0
9.92516 -0.435634 -4.31101 255 0 0
9.82542 -0.361254 -4.28713 255 0 0
9.80106 -0.220803 -4.2805 255 0 0
11.4064 0.0135224 -4.75348 255 0 0
11.3778 0.0674429 -4.74661 255 0 0
10.1189 0.15596 -4.44296 255 0 0
10.0388 0.178535 -4.42373 255 0 0
10.0435 0.226265 -4.4251 255 0 0
10.06 0.250503 -4.42922 255 0 0
10.0872 0.299048 -4.43609 255 0 0
10.0637 0.322235 -4.4306 255 0 0
11.2622 0.414081 -4.72051 255 0 0
10.391 0.406722 -4.51029 255 0 0
9.82702 0.407984 -4.37426 255 0 0
9.77484 0.429036 -4.3619 255 0 0
9.70902 0.495364 -4.34678 255 0 0
10.0499 0.0953167 -4.69299 255 0 0
10.6221 -0.592462 -4.8506 255 0 0
9.02992 -0.848179 -4.59253 255 0 0
9.8423 -0.806901 -4.38388 255 0 0
9.75341 -0.776336 -4.3619 255 0 0
9.75698 -0.730077 -4.3619 255 0 0
9.78707 -0.708997 -4.36877 255 0 0
10.5743 -0.514377 -4.55563 255 0 0
10.4743 -0.459735 -4.5309 255 0 0
11.4168 0.0947453 -4.85672 255 0 0
10.2966 0.18312 -4.57673 255 0 0
10.1871 0.253658 -4.54973 255 0 0
10.2451 0.315909 -4.56465 255 0 0
10.7491 0.446264 -4.69185 255 0 0
10.4813 0.460043 -4.62505 255 0 0
9.59957 0.466962 -4.40476 255 0 0
9.60068 0.501238 -4.40547 255 0 0
10.5909 -0.414545 -4.83999 255 0 0
8.75247 0.550679 -4.58585 255 0 0
8.69575 0.257784 -4.56515 255 0 0
8.42886 0.209885 -4.56244 255 0 0
10.3165 0.477319 -4.76725 255 0 0
8.68089 -0.360401 -4.56183 255 0 0
9.47527 0.708997 -4.54599 255 0 0
9.69743 -0.864507 -4.43603 255 0 0
9.62784 -0.812304 -4.41755 255 0 0
9.67503 -0.793187 -4.42892 255 0 0
9.65989 -0.768893 -4.42466 255 0 0
9.71832 -0.75036 -4.43887 255 0 0
11.4741 -0.721887 -4.87661 255 0 0
10.5715 -0.589641 -4.64921 255 0 0
10.5458 -0.538057 -4.64211 255 0 0
10.5267 -0.462035 -4.63642 255 0 0
11.3063 -0.442549 -4.83113 255 0 0
11.425 -0.284493 -4.85956 255 0 0
11.4257 -0.257403 -4.85956 255 0 0
11.3354 -0.22848 -4.83682 255 0 0
11.3988 -0.175688 -4.85245 255 0 0
11.5299 -0.150364 -4.88514 255 0 0
11.445 -0.122118 -4.86382 255 0 0
11.3998 -0.0946039 -4.85245 255 0 0
11.4797 -0.0136093 -4.87235 255 0 0
11.2174 0.0132983 -4.90599 255 0 0
11.2116 0.0398746 -4.90452 255 0 0
9.98428 0.248617 -4.58734 255 0 0
10.046 0.273989 -4.60349 255 0 0
11.287 0.468598 -4.92654 255 0 0
9.03524 0.107118 -4.58287 255 0 0
10.6065 -0.56637 -4.84605 255 0 0
9.35142 -0.811317 -4.43169 255 0 0
11.2936 -0.764314 -4.93242 255 0 0
10.2087 0.0363075 -4.73542 255 0 0
10.1746 0.0603111 -4.72633 255 0 0
10.0721 0.131354 -4.69905 255 0 0
10.0763 0.215053 -4.70057 255 0 0
10.0667 0.262608 -4.69829 255 0 0
10.1034 0.359489 -4.7089 255 0 0
10.2306 0.497657 -4.74451 255 0 0
9.44305 0.504245 -4.53386 255 0 0
9.30066 0.518758 -4.49598 255 0 0
9.34311 0.654571 -4.50962 255 0 0
9.4614 0.741807 -4.54296 255 0 0
9.41361 0.771755 -4.53083 255 0 0
9.53563 -0.0339138 -4.55508 255 0 0
10.5135 -0.586408 -4.91548 255 0 0
9.4284 -0.863061 -4.53689 255 0 0
9.47482 -0.799393 -4.63268 255 0 0
9.48464 -1.03858 -4.5566 255 0 0
9.49627 -0.982924 -4.55811 255 0 0
9.48 -0.947172 -4.55281 255 0 0
9.32533 -0.809053 -4.5081 255 0 0
9.4343 -0.795975 -4.53689 255 0 0
10.3457 -0.823479 -4.78088 255 0 0
10.5337 -0.650187 -4.82786 255 0 0
10.4851 -0.609765 -4.81423 255 0 0
10.4565 -0.508648 -4.80513 255 0 0
10.6001 -0.465258 -4.84302 255 0 0
9.61486 -0.0113985 -4.5763 255 0 0
9.36176 3.747e-16 -4.59206 255 0 0
10.0162 0.0593719 -4.7733 255 0 0
9.97087 0.0827456 -4.7608 255 0 0
9.99177 0.391095 -4.76861 255 0 0
10.0359 0.416657 -4.78111 255 0 0
10.0067 0.439214 -4.7733 255 0 0
10.0395 0.464504 -4.78267 255 0 0
10.2457 0.522745 -4.84048 255 0 0
9.40921 0.524813 -4.60924 255 0 0
9.27837 0.539586 -4.57331 255 0 0
9.2658 0.560902 -4.57018 255 0 0
9.28973 0.6287 -4.578 255 0 0
9.31316 0.696867 -4.58581 255 0 0
9.33979 0.754561 -4.5944 255 0 0
9.52426 -0.940195 -4.64987 255 0 0
9.28703 -0.872329 -4.58268 255 0 0
9.27783 -0.849278 -4.57956 255 0 0
9.89054 -0.692923 -4.74518 255 0 0
10.4423 -0.644538 -4.89673 255 0 0
10.4655 -0.533959 -4.90142 255 0 0
10.4955 -0.498085 -4.90923 255 0 0
10.5034 -0.448544 -4.91079 255 0 0
10.4485 -0.408972 -4.89517 255 0 0
10.4004 -0.333017 -4.88111 255 0 0
11.2098 -0.25254 -5.10453 255 0 0
11.1948 -0.145995 -5.09984 255 0 0
11.1274 -0.118729 -5.0811 255 0 0
9.38992 -0.0333956 -4.59987 255 0 0
9.00205 0.0320161 -4.57322 255 0 0
9.0123 0.138905 -4.57644 255 0 0
9.0232 0.160473 -4.57965 255 0 0
9.00731 0.202925 -4.57536 255 0 0
8.92435 0.285754 -4.5523 255 0 0
8.86738 0.304978 -4.5362 255 0 0
9.00125 0.341631 -4.57483 255 0 0
9.97435 0.508901 -4.85484 255 0 0
9.63019 0.514237 -4.75667 255 0 0
9.22984 0.514809 -4.64242 255 0 0
9.31302 0.707967 -4.66977 255 0 0
8.32299 -0.841542 -4.69505 255 0 0
9.48521 -0.93634 -4.72449 255 0 0
9.00387 -0.8242 -4.58448 255 0 0
8.99785 -0.694731 -4.57965 255 0 0
9.04596 -0.65531 -4.59253 255 0 0
8.98571 -0.629532 -4.57483 255 0 0
9.07424 -0.570903 -4.59897 255 0 0
8.98692 -0.522637 -4.57322 255 0 0
8.93718 -0.392256 -4.55713 255 0 0
8.88096 -0.389802 -4.54103 255 0 0
8.91124 -0.338221 -4.54908 255 0 0
8.96866 -0.308461 -4.56517 255 0 0
8.91309 -0.285394 -4.54908 255 0 0
8.99311 -0.245313 -4.57161 255 0 0
9.04378 -0.246655 -4.58609 255 0 0
9.00649 -0.149489 -4.57483 255 0 0
8.72206 0.0103401 -4.57177 255 0 0
8.71629 0.0516667 -4.57011 255 0 0
8.65437 0.0718203 -4.5519 255 0 0
8.67664 0.0925794 -4.55852 255 0 0
8.65925 0.133463 -4.55355 255 0 0
8.75999 0.155792 -4.58336 255 0 0
8.69221 0.175203 -4.56349 255 0 0
8.69995 0.206339 -4.56597 255 0 0
8.76342 0.509639 -4.58833 255 0 0
8.96254 0.649266 -4.6496 255 0 0
8.26433 -0.954561 -5.14596 255 0 0
9.11145 -0.943093 -4.70094 255 0 0
8.81627 -0.785953 -4.60986 255 0 0
8.73571 -0.705764 -4.58419 255 0 0
8.71858 -0.673169 -4.57839 255 0 0
8.74331 -0.643819 -4.58502 255 0 0
8.74409 -0.550131 -4.58336 255 0 0
8.72535 -0.48667 -4.57674 255 0 0
8.68267 -0.443003 -4.56349 255 0 0
8.6903 -0.40208 -4.56515 255 0 0
8.72813 -0.300189 -4.57508 255 0 0
8.72385 -0.25863 -4.57343 255 0 0
8.65706 -0.236108 -4.55355 255 0 0
8.64871 -0.194815 -4.55079 255 0 0
8.7328 -0.0931786 -4.57508 255 0 0
8.65451 -0.0513005 -4.5519 255 0 0
8.43707 0.0100022 -4.56415 255 0 0
8.49855 0.0503761 -4.58288 255 0 0
8.4592 0.0702006 -4.57096 255 0 0
8.46997 0.11046 -4.57436 255 0 0
8.48089 0.130714 -4.57777 255 0 0
8.50277 0.161288 -4.58458 255 0 0
8.47755 0.271448 -4.57777 255 0 0
8.49474 0.403132 -4.58458 255 0 0
8.56599 0.437046 -4.60671 255 0 0
8.45305 0.45138 -4.57266 255 0 0
8.58942 0.519958 -4.61522 255 0 0
8.60922 0.562143 -4.62204 255 0 0
8.63438 0.604931 -4.63055 255 0 0
8.60646 0.602962 -4.62204 255 0 0
8.71367 0.672789 -4.65609 255 0 0
8.69979 -0.890041 -4.65779 255 0 0
8.56374 -0.783911 -4.61352 255 0 0
8.57674 -0.764599 -4.61693 255 0 0
8.56736 -0.743293 -4.61352 255 0 0
8.50769 -0.717797 -4.59479 255 0 0
8.53811 -0.689776 -4.60331 255 0 0
8.53493 -0.658989 -4.6016 255 0 0
8.50212 -0.595674 -4.59025 255 0 0
8.54774 -0.497122 -4.60217 255 0 0
8.46528 -0.431907 -4.57606 255 0 0
8.45133 -0.300723 -4.57011 255 0 0
8.44706 -0.260451 -4.5684 255 0 0
8.40034 -0.229106 -4.55393 255 0 0
8.52623 -0.0909746 -4.59139 255 0 0
8.49305 -0.0302058 -4.58117 255 0 0
8.37545 -0.00992915 -4.54542 255 0 0
8.26236 -0.637944 -4.59395 255 0 0
8.26623 -0.500393 -4.5922 255 0 0
8.55056 -0.967083 -4.77226 255 0 0
8.48636 -0.939448 -4.75071 255 0 0
8.33553 -0.882761 -4.70044 255 0 0
8.30989 -0.860126 -4.69146 255 0 0
8.29264 -0.808703 -4.68428 255 0 0
8.5108 -0.962586 -4.83815 255 0 0
8.33504 -0.882708 -4.77737 255 0 0
8.32147 0.72196 -4.84505 255 0 0
8.39703 0.748579 -4.87148 255 0 0
8.34193 -0.943487 -4.93758 255 0 0
8.27274 -0.9158 -4.91244 255 0 0
8.34798 -0.964222 -5.01913 255 0 0
