ply
format ascii 1.0
comment Created by Open3D
element vertex 148
property double x
property double y
property double z
property uchar red
property uchar green
property uchar blue
end_header
-14.6519 -14.739 -4.86799 255 0 0
-15.7816 -14.1647 -4.92642 255 0 0
-15.0552 -14.7198 -4.72751 255 0 0
-14.6653 -14.9638 -5.24711 255 0 0
-14.7029 -14.5814 -4.85758 255 0 0
-15.501 -14.1806 -4.89921 255 0 0
-15.4408 -15.0969 -4.61507 255 0 0
-14.9673 -14.4271 -4.86879 255 0 0
-15.3607 -14.5278 -4.73879 255 0 0
-14.7984 -15.0997 -4.91762 255 0 0
-15.7835 -14.099 -5.10002 255 0 0
-14.9722 -15.1328 -4.7576 255 0 0
-14.7789 -15.4418 -5.31257 255 0 0
-15.9878 -14.6957 -5.36548 255 0 0
-14.9892 -15.222 -4.76738 255 0 0
-15.685 -14.2808 -4.74782 255 0 0
-14.7201 -15.0198 -5.0805 255 0 0
-15.7636 -13.8809 -5.25518 255 0 0
-14.883 -14.4141 -4.85918 255 0 0
-15.5556 -14.8525 -4.60451 255 0 0
-14.7254 -15.1684 -5.09662 255 0 0
-15.0475 -14.2993 -5.04061 255 0 0
-14.511 -14.1878 -5.31814 255 0 0
-14.9561 -15.553 -4.97765 255 0 0
-14.5233 -14.4033 -5.16999 255 0 0
-14.6747 -15.1162 -5.26504 255 0 0
-15.7834 -13.832 -5.25249 255 0 0
-15.0247 -15.8484 -5.01367 255 0 0
-14.636 -14.4122 -5.00879 255 0 0
-15.1088 -15.1267 -4.58903 255 0 0
-15.3612 -14.1871 -4.8856 255 0 0
-15.0884 -15.7651 -4.8268 255 0 0
-15.6812 -14.4139 -4.7591 255 0 0
-14.9622 -15.7077 -4.99366 255 0 0
-14.9677 -14.1561 -5.0177 255 0 0
-14.895 -15.7864 -5.36368 255 0 0
-15.4574 -14.829 -4.59396 255 0 0
-15.0327 -16.0082 -5.03048 255 0 0
-14.9957 -15.0849 -4.75534 255 0 0
-14.9937 -15.299 -4.7749 255 0 0
-16.2382 -14.2306 -3.70831 255 0 0
-15.9031 -14.5484 -5.34037 255 0 0
-15.5976 -14.682 -5.31974 255 0 0
-15.5404 -14.421 -4.74632 255 0 0
-15.5818 -14.1868 -4.90801 255 0 0
-15.8065 -14.1195 -4.92482 255 0 0
-15.0313 -14.3519 -4.86799 255 0 0
-14.9882 -13.7769 -5.32854 255 0 0
-14.8398 -15.2863 -4.94003 255 0 0
-14.7772 -15.0067 -4.90641 255 0 0
-14.9166 -15.6598 -5.16791 255 0 0
-15.7664 -14.3549 -5.3045 255 0 0
-14.7371 -15.1086 -5.09153 255 0 0
-15.4078 -14.5033 -4.74105 255 0 0
-14.83 -15.569 -5.3323 255 0 0
-14.4567 -14.2019 -5.31342 255 0 0
-15.1879 -14.2624 -4.87519 255 0 0
-15.2449 -15.0474 -4.59396 255 0 0
-15.7307 -14.1866 -4.92322 255 0 0
-14.5543 -14.2978 -5.16192 255 0 0
-15.0621 -15.589 -4.808 255 0 0
-14.8841 -15.4048 -4.95604 255 0 0
-16.1737 -14.242 -3.70507 255 0 0
-16.2492 -14.377 -3.71662 255 0 0
-15.0895 -15.6917 -4.82003 255 0 0
-15.6584 -14.1888 -4.91602 255 0 0
-15.9059 -14.551 -5.15772 255 0 0
-14.7372 -14.9661 -5.25518 255 0 0
-15.1386 -14.5922 -4.72375 255 0 0
-15.2925 -14.5322 -4.73278 255 0 0
-15.0056 -14.3956 -4.86959 255 0 0
-15.1067 -14.7003 -4.73052 255 0 0
-15.4181 -14.8616 -4.59325 255 0 0
-14.987 -15.8086 -5.19082 255 0 0
-14.559 -14.5762 -5.0177 255 0 0
-15.5368 -14.0786 -5.07117 255 0 0
-15.5908 -14.8156 -4.60451 255 0 0
-15.4538 -14.9669 -4.60522 255 0 0
-15.4182 -15.0035 -4.60522 255 0 0
-15.3635 -15.0927 -4.60803 255 0 0
-15.4321 -15.3045 -4.63197 255 0 0
-15.6172 -14.4235 -4.75384 255 0 0
-15.7834 -14.302 -4.7591 255 0 0
-15.6854 -14.3493 -4.75384 255 0 0
-15.4784 -14.4662 -4.74444 255 0 0
-15.2202 -14.5323 -4.72601 255 0 0
-15.2025 -14.5844 -4.72902 255 0 0
-15.1248 -14.6483 -4.72751 255 0 0
-15.0203 -14.7555 -4.72751 255 0 0
-15.0059 -14.8115 -4.73127 255 0 0
-14.9872 -14.8634 -4.73428 255 0 0
-14.9807 -14.9275 -4.73955 255 0 0
-14.9822 -15 -4.74632 255 0 0
-15.0223 -15.401 -4.78694 255 0 0
-15.0666 -15.5199 -4.80198 255 0 0
-15.866 -13.971 -5.09662 255 0 0
-15.4033 -14.1585 -4.8872 255 0 0
-15.3573 -14.2511 -4.8912 255 0 0
-15.2937 -14.2598 -4.8856 255 0 0
-15.1666 -14.3443 -4.8808 255 0 0
-15.0653 -14.3163 -4.86799 255 0 0
-14.8322 -14.4332 -4.85598 255 0 0
-14.8311 -14.5007 -4.86239 255 0 0
-14.7884 -14.5277 -4.86079 255 0 0
-14.7044 -14.5139 -4.85118 255 0 0
-14.6683 -14.6162 -4.85758 255 0 0
-14.6582 -14.6755 -4.86239 255 0 0
-14.6822 -14.8397 -4.8808 255 0 0
-14.7869 -15.1597 -4.92242 255 0 0
-14.9794 -15.6512 -4.98966 255 0 0
-15.0587 -15.9599 -5.02808 255 0 0
-15.8155 -13.9933 -5.09323 255 0 0
-15.726 -13.9807 -5.0822 255 0 0
-15.6853 -14.0783 -5.08729 255 0 0
-15.639 -14.1038 -5.08474 255 0 0
-15.482 -14.0959 -5.06692 255 0 0
-15.8415 -14.5612 -5.15178 255 0 0
-14.9633 -14.287 -5.03043 255 0 0
-15.9829 -15.3331 -5.24428 255 0 0
-14.8446 -14.3769 -5.02704 255 0 0
-14.6279 -14.507 -5.0177 255 0 0
-14.5483 -14.4967 -5.00837 255 0 0
-14.6836 -14.7709 -5.0508 255 0 0
-14.6241 -14.781 -5.04571 255 0 0
-14.7069 -14.9354 -5.07032 255 0 0
-14.7699 -15.2866 -5.1136 255 0 0
-14.7818 -15.3717 -5.12378 255 0 0
-14.8134 -15.4779 -5.13821 255 0 0
-14.9733 -15.8694 -5.19591 255 0 0
-15.0943 -16.0738 -5.22986 255 0 0
-14.3349 -14.284 -5.30869 255 0 0
-15.6838 -13.91 -5.2489 255 0 0
-15.8328 -14.143 -5.29015 255 0 0
-15.6108 -14.0784 -5.25787 255 0 0
-15.6493 -14.6608 -5.32333 255 0 0
-15.6132 -14.7666 -5.3305 255 0 0
-14.777 -14.0423 -5.15923 255 0 0
-14.5863 -14.3973 -5.17626 255 0 0
-14.4604 -14.4091 -5.16371 255 0 0
-14.598 -14.6153 -5.20137 255 0 0
-14.9223 -15.011 -5.28029 255 0 0
-14.654 -15.0234 -5.25249 255 0 0
-14.6992 -15.2134 -5.27849 255 0 0
-14.7473 -15.3358 -5.29732 255 0 0
-14.8369 -15.6503 -5.34216 255 0 0
-14.557 -14.1654 -5.32098 255 0 0
-14.3778 -14.1915 -5.30303 255 0 0
-14.3646 -14.2459 -5.30775 255 0 0
