ply
format ascii 1.0
comment Created by Open3D
element vertex 363
property double x
property double y
property double z
property uchar red
property uchar green
property uchar blue
end_header
-8.45596 -8.11218 -5.66791 255 255 0
-8.63316 -10.5625 -5.65531 255 255 0
-8.08888 -8.23404 -5.93153 255 255 0
-9.62939 -9.87216 -5.57264 255 255 0
-8.54841 -11.4206 -5.9498 255 255 0
-8.31755 -8.44673 -5.60274 255 255 0
-8.08016 -8.28386 -5.83455 255 255 0
-8.22428 -9.14125 -5.96148 255 255 0
-8.17628 -9.62506 -5.4967 255 255 0
-8.14042 -9.67547 -5.84281 255 255 0
-8.08394 -8.62902 -5.70114 255 255 0
-8.35431 -8.89644 -5.59849 255 255 0
-8.40886 -11.2899 -5.772 255 255 0
-8.09633 -8.30044 -5.94947 255 255 0
-8.27255 -8.20418 -5.64692 255 255 0
-8.33455 -11.5289 -5.93887 255 255 0
-8.41344 -11.296 -5.8998 255 255 0
-8.25655 -10.7097 -5.86546 255 255 0
-8.90928 -10.4377 -5.3127 255 255 0
-8.06857 -9.72971 -5.95651 255 255 0
-8.22312 -9.01024 -5.81833 255 255 0
-8.19876 -10.4287 -5.91147 255 255 0
-8.27287 -8.24349 -5.65567 255 255 0
-8.32206 -11.4543 -5.92012 255 255 0
-8.19225 -10.3193 -5.88498 255 255 0
-8.10674 -9.68194 -5.60959 255 255 0
-9.01723 -8.69178 -5.69288 255 255 0
-8.14118 -9.44673 -5.79003 255 255 0
-8.10294 -8.79443 -5.74312 255 255 0
-8.25423 -10.9733 -5.925 255 255 0
-8.19531 -9.32914 -5.66142 255 255 0
-8.07276 -8.31564 -5.94758 255 255 0
-9.44063 -8.11644 -5.89704 255 255 0
-8.98852 -8.70532 -5.68957 255 255 0
-8.09693 -8.42005 -5.76338 255 255 0
-8.06578 -9.22571 -5.83583 255 255 0
-8.6026 -11.4364 -5.9623 255 255 0
-8.82221 -8.66671 -5.64651 255 255 0
-9.24574 -9.98713 -5.40532 255 255 0
-9.23488 -8.28873 -5.7713 255 255 0
-8.32344 -10.233 -5.77051 255 255 0
-9.35793 -8.08401 -5.87081 255 255 0
-8.17847 -8.34498 -5.65741 255 255 0
-8.17946 -8.62789 -5.93953 255 255 0
-8.21211 -9.57485 -5.71938 255 255 0
-8.52428 -8.78074 -5.60843 255 255 0
-8.7697 -10.4737 -5.29759 255 255 0
-8.59354 -11.3123 -5.55455 255 255 0
-8.56444 -10.3777 -5.84615 255 255 0
-9.2605 -10.4414 -5.36903 255 255 0
-8.10316 -8.11278 -5.79955 255 255 0
-8.59965 -11.2648 -5.54602 255 255 0
-8.30608 -8.97212 -5.60511 255 255 0
-8.14064 -9.49152 -5.80025 255 255 0
-9.03174 -10.43 -5.33056 255 255 0
-8.38656 -9.82529 -5.34651 255 255 0
-9.0594 -10.3871 -5.32713 255 255 0
-8.62062 -11.1273 -5.39789 255 255 0
-8.06876 -9.14128 -5.81658 255 255 0
-8.67188 -10.5843 -5.30308 255 255 0
-8.64034 -10.7784 -5.33468 255 255 0
-9.11481 -8.74425 -5.72435 255 255 0
-8.19139 -9.28021 -5.64983 255 255 0
-8.07141 -8.37363 -5.85388 255 255 0
-9.01808 -9.15815 -5.67396 255 0 0
-8.17544 -9.00075 -5.80609 255 255 0
-8.69224 -10.5325 -5.78106 255 255 0
-8.63262 -10.017 -5.30867 255 255 0
-9.1332 -8.276 -5.74576 255 255 0
-8.23168 -9.50608 -5.70779 255 255 0
-8.57396 -10.0448 -5.30441 255 255 0
-8.41639 -11.6421 -5.84929 255 255 0
-8.66155 -10.4953 -5.64622 255 255 0
-8.22137 -8.67209 -5.63169 255 255 0
-8.65167 -10.9512 -5.36903 255 255 0
-9.35893 -10.0137 -5.42948 255 255 0
-8.63606 -10.8255 -5.34293 255 255 0
-8.12563 -9.63466 -5.48967 255 255 0
-9.64948 -9.70685 -5.66743 255 255 0
-8.13577 -9.81075 -5.87346 255 255 0
-9.5957 -10.4643 -5.93105 255 0 0
-9.34826 -10.4902 -5.89043 255 0 0
-8.98841 -10.4298 -5.32369 255 255 0
-8.64222 -10.8861 -5.35529 255 255 0
-9.18677 -10.309 -5.33331 255 255 0
-8.18597 -8.39235 -5.66966 255 255 0
-8.0958 -8.06706 -5.89283 255 255 0
-9.00016 -10.0036 -5.36695 255 255 0
-8.62693 -8.71947 -5.61671 255 255 0
-8.18184 -10.0104 -5.81211 255 255 0
-8.12035 -8.9828 -5.79035 255 255 0
-8.07272 -9.38978 -5.87606 255 255 0
-8.33466 -9.53327 -5.50607 255 255 0
-8.07681 -9.32722 -5.86206 255 255 0
-8.18021 -10.1058 -5.83364 255 255 0
-9.47358 -10.5802 -5.80534 255 0 0
-8.44083 -11.4457 -5.68424 255 255 0
-8.55747 -10.0738 -5.30725 255 255 0
-8.2009 -9.84171 -5.77734 255 255 0
-8.08519 -9.67951 -5.94777 255 255 0
-8.21388 -9.66933 -5.74091 255 255 0
-9.32775 -8.82198 -5.78562 255 255 0
-8.16635 -8.88438 -5.66744 255 255 0
-8.47279 -8.40277 -5.62658 255 255 0
-8.1854 -8.67526 -5.62488 255 255 0
-8.14917 -9.3211 -5.76279 255 255 0
-8.76208 -10.5406 -5.67274 255 255 0
-8.40767 -9.73262 -5.44618 255 255 0
-8.24972 -11.1312 -5.96041 255 255 0
-8.68736 -8.29471 -5.65042 255 255 0
-8.71784 -10.4873 -5.29209 255 255 0
-8.25216 -9.34906 -5.56453 255 255 0
-8.14982 -8.92991 -5.67425 255 255 0
-8.13326 -8.33831 -5.7526 255 255 0
-8.16108 -9.15797 -5.9519 255 255 0
-8.62202 -11.1837 -5.40888 255 255 0
-8.59522 -11.2038 -5.53323 255 255 0
-8.22783 -9.23288 -5.64651 255 255 0
-8.5637 -10.5284 -5.75762 255 255 0
-8.63764 -10.6709 -5.31407 255 255 0
-8.61864 -10.9627 -5.36629 255 255 0
-9.16251 -8.0297 -5.92497 255 255 0
-8.41351 -8.83272 -5.59683 255 255 0
-8.17507 -8.83061 -5.65723 255 255 0
-8.1035 -8.15168 -5.80876 255 255 0
-9.40807 -8.36396 -5.82579 255 255 0
-8.14175 -9.88936 -5.89304 255 255 0
-8.97529 -10.0716 -5.37547 255 255 0
-8.1806 -9.96056 -5.80052 255 255 0
-8.58974 -10.3582 -5.36695 255 255 0
-9.1944 -8.29184 -5.76279 255 255 0
-9.71908 -9.59315 -5.78106 255 255 0
-8.61818 -8.05463 -5.6924 255 255 0
-9.47339 -10.5296 -5.92168 255 0 0
-8.37692 -8.22926 -5.78313 255 255 0
-8.18089 -10.1558 -5.84523 255 255 0
-8.07648 -9.10642 -5.92138 255 255 0
-8.17253 -10.5489 -5.93466 255 255 0
-8.15489 -9.04255 -5.70065 255 255 0
-8.51632 -8.32662 -5.61977 255 255 0
-8.54129 -10.6032 -5.40674 255 255 0
-8.13421 -9.39352 -5.77641 255 255 0
-8.13766 -9.21935 -5.73725 255 255 0
-8.56099 -8.05843 -5.68015 255 255 0
-8.28219 -10.3819 -5.79626 255 255 0
-8.24989 -10.4937 -5.81557 255 255 0
-8.24288 -10.9043 -5.9073 255 255 0
-8.8353 -10.4259 -5.29896 255 255 0
-8.27827 -9.42358 -5.58545 255 255 0
-8.17559 -9.90648 -5.78727 255 255 0
-8.1339 -9.7613 -5.86154 255 255 0
-8.18512 -8.73703 -5.6385 255 255 0
-9.11927 -8.7071 -5.71772 255 255 0
-8.56778 -8.29783 -5.62488 255 255 0
-8.25255 -11.08 -5.94914 255 255 0
-8.26004 -10.6358 -5.84937 255 255 0
-8.42403 -11.5947 -5.8402 255 255 0
-8.24206 -9.03098 -5.60511 255 255 0
-8.40403 -10.2326 -5.785 255 255 0
-8.35226 -8.8521 -5.58855 255 255 0
-8.13993 -9.53636 -5.81046 255 255 0
-8.415 -8.13054 -5.66266 255 255 0
-8.40493 -9.84681 -5.46891 255 255 0
-8.07556 -9.46094 -5.89355 255 255 0
-8.06181 -9.17718 -5.82358 255 255 0
-8.35463 -8.98175 -5.9519 255 255 0
-9.19444 -10.0267 -5.4039 255 255 0
-8.2585 -10.8712 -5.90247 255 255 0
-8.66613 -11.5209 -5.60714 255 255 0
-8.11228 -8.1993 -5.9287 255 255 0
-9.2091 -8.75122 -5.74587 255 255 0
-8.7951 -8.27879 -5.67085 255 255 0
-8.05418 -8.95218 -5.76936 255 255 0
-9.15285 -10.3695 -5.33881 255 255 0
-9.16205 -10.4296 -5.35117 255 255 0
-8.90807 -10.3863 -5.30308 255 255 0
-8.77252 -10.4268 -5.28934 255 255 0
-8.69498 -10.5358 -5.29759 255 255 0
-8.66651 -10.6548 -5.31545 255 255 0
-8.64802 -10.7357 -5.32781 255 255 0
-8.66628 -11.0773 -5.39514 255 255 0
-8.626 -11.0798 -5.38964 255 255 0
-8.93566 -8.69528 -5.67632 255 255 0
-8.17079 -8.27806 -5.74722 255 255 0
-8.8172 -10.0371 -5.34278 255 255 0
-9.56732 -9.99645 -5.46217 255 255 0
-9.59406 -10.12 -5.48917 255 255 0
-9.4332 -10.0453 -5.44796 255 255 0
-9.29261 -9.99013 -5.41385 255 255 0
-9.13235 -10.0065 -5.38969 255 255 0
-9.10478 -10.0239 -5.38826 255 255 0
-8.95368 -9.99955 -5.35842 255 255 0
-8.86353 -10.0417 -5.35131 255 255 0
-8.69494 -9.99307 -5.31436 255 255 0
-8.72327 -10.0738 -5.33426 255 255 0
-8.64952 -10.0848 -5.32431 255 255 0
-8.54823 -10.1114 -5.31294 255 255 0
-8.58645 -10.2796 -5.35131 255 255 0
-8.54854 -10.5608 -5.39963 255 255 0
-8.59409 -11.3689 -5.56592 255 255 0
-8.34673 -11.6036 -5.95761 255 255 0
-8.05552 -9.21398 -5.94293 255 255 0
-8.43924 -8.17335 -5.78492 255 255 0
-8.22342 -8.19423 -5.74003 255 255 0
-8.08813 -8.23327 -5.82442 255 255 0
-9.64939 -9.9397 -5.5888 255 255 0
-8.42562 -9.91859 -5.37147 255 255 0
-8.42404 -9.96451 -5.38028 255 255 0
-8.4273 -11.3146 -5.65488 255 255 0
-8.47132 -11.4302 -5.68571 255 255 0
-8.39143 -9.78393 -5.45375 255 255 0
-8.27321 -10.2954 -5.77534 255 255 0
-8.05271 -8.43393 -5.86401 255 255 0
-8.26163 -8.98803 -5.93305 255 255 0
-9.70742 -9.67296 -5.67198 255 255 0
-9.70045 -9.71195 -5.67804 255 255 0
-8.83038 -10.5462 -5.68562 255 255 0
-8.69766 -10.5901 -5.67198 255 255 0
-8.46265 -11.4753 -5.8205 255 255 0
-8.41534 -11.468 -5.8114 255 255 0
-8.42815 -11.5427 -5.82959 255 255 0
-8.35837 -10.2263 -5.77534 255 255 0
-8.09158 -8.57582 -5.69065 255 255 0
-9.68355 -10.4601 -5.94668 255 0 0
-9.39569 -10.4932 -5.8998 255 0 0
-9.17145 -10.3905 -5.83731 255 0 0
-8.32685 -9.57003 -5.51232 255 255 0
-8.29243 -9.62223 -5.51701 255 255 0
-8.2255 -9.59047 -5.49826 255 255 0
-8.07379 -9.68917 -5.49201 255 255 0
-8.058 -9.71697 -5.49514 255 255 0
-8.62792 -10.5561 -5.77481 255 255 0
-8.40319 -10.585 -5.742 255 255 0
-8.59566 -11.3709 -5.94668 255 255 0
-8.41337 -11.4085 -5.9248 255 255 0
-8.42903 -8.3991 -5.61637 255 255 0
-8.34152 -8.23344 -5.77594 255 255 0
-8.76107 -8.68867 -5.63823 255 255 0
-9.9267 -9.56843 -5.94109 255 255 0
-9.66538 -9.36086 -5.84615 255 255 0
-9.00809 -9.10472 -5.66108 255 0 0
-8.953 -9.13527 -5.65625 255 0 0
-8.88807 -9.11214 -5.63855 255 0 0
-8.9684 -9.23822 -5.68039 255 0 0
-8.88779 -9.19872 -5.65625 255 0 0
-8.22948 -9.27892 -5.54521 255 255 0
-8.27429 -9.48691 -5.59832 255 255 0
-8.23842 -9.53669 -5.60234 255 255 0
-8.19163 -9.55097 -5.59671 255 255 0
-8.15943 -9.58218 -5.59752 255 255 0
-8.12349 -9.609 -5.59671 255 255 0
-8.1188 -9.64977 -5.60476 255 255 0
-8.1162 -9.74006 -5.62407 255 255 0
-8.66449 -10.4483 -5.87994 255 255 0
-8.32395 -10.2834 -5.78178 255 255 0
-8.24355 -10.3839 -5.78982 255 255 0
-8.23985 -10.4299 -5.79948 255 255 0
-8.24927 -10.5443 -5.82684 255 255 0
-8.26883 -10.7784 -5.88316 255 255 0
-8.26375 -10.8248 -5.89282 255 255 0
-8.26193 -11.0379 -5.94109 255 255 0
-8.56189 -8.73621 -5.60677 255 255 0
-9.25451 -8.26681 -5.7713 255 255 0
-8.89092 -8.69288 -5.66639 255 255 0
-8.83761 -8.72311 -5.66142 255 255 0
-8.7039 -8.71422 -5.63161 255 255 0
-8.50979 -8.72432 -5.59352 255 255 0
-8.44751 -8.78463 -5.59352 255 255 0
-8.32936 -8.91212 -5.59683 255 255 0
-8.26344 -9.01141 -5.60511 255 255 0
-8.22874 -9.08103 -5.61339 255 255 0
-8.21893 -9.1353 -5.62333 255 255 0
-8.21598 -9.17569 -5.63161 255 255 0
-8.19904 -9.37814 -5.67301 255 255 0
-8.18784 -9.41027 -5.67798 255 255 0
-8.18963 -9.73395 -5.75084 255 255 0
-8.18816 -9.77918 -5.76078 255 255 0
-8.19894 -10.2277 -5.86511 255 255 0
-8.16302 -10.4851 -5.9181 255 255 0
-8.19893 -10.6349 -5.9595 255 255 0
-8.12533 -8.48979 -5.6784 255 255 0
-9.06799 -8.25615 -5.72704 255 255 0
-9.02411 -8.27508 -5.72108 255 255 0
-8.98022 -8.29383 -5.71512 255 255 0
-8.86451 -8.24559 -5.67936 255 255 0
-8.85559 -8.29621 -5.68788 255 255 0
-8.72253 -8.24957 -5.64872 255 255 0
-8.70701 -8.27409 -5.65042 255 255 0
-8.62146 -8.29061 -5.63509 255 255 0
-8.5521 -8.32203 -5.62658 255 255 0
-8.4627 -8.33326 -5.60956 255 255 0
-8.43285 -8.44285 -5.62658 255 255 0
-8.37712 -8.44692 -5.61551 255 255 0
-8.2975 -8.46643 -5.60274 255 255 0
-8.28131 -8.49009 -5.60445 255 255 0
-8.26664 -8.53559 -5.61126 255 255 0
-8.23384 -8.58277 -5.61466 255 255 0
-8.21099 -8.62012 -5.61807 255 255 0
-8.17309 -8.78659 -5.64701 255 255 0
-8.13992 -8.96165 -5.67936 255 255 0
-8.15445 -9.10697 -5.71512 255 255 0
-8.14029 -9.13465 -5.71852 255 255 0
-8.14091 -9.17907 -5.72874 255 255 0
-8.14536 -9.27229 -5.75087 255 255 0
-8.1344 -9.34885 -5.7662 255 255 0
-8.13543 -9.57698 -5.81898 255 255 0
-8.14164 -9.63047 -5.8326 255 255 0
-8.13544 -9.71622 -5.85133 255 255 0
-8.15087 -9.97248 -5.91432 255 255 0
-8.13427 -10.0005 -5.91773 255 255 0
-8.12816 -10.0415 -5.92624 255 255 0
-8.1465 -10.1131 -5.94667 255 255 0
-8.14002 -10.1542 -5.95519 255 255 0
-8.06824 -8.31098 -5.83823 255 255 0
-8.51345 -8.05183 -5.66791 255 255 0
-8.51713 -8.11287 -5.6819 255 255 0
-8.37401 -8.14874 -5.65741 255 255 0
-8.34668 -8.16076 -5.65392 255 255 0
-8.32556 -8.19823 -5.65741 255 255 0
-8.2375 -8.24727 -5.64867 255 255 0
-8.21204 -8.28049 -5.65042 255 255 0
-8.20607 -8.33353 -5.66091 255 255 0
-8.16578 -8.43145 -5.67403 255 255 0
-8.12994 -8.45439 -5.67141 255 255 0
-8.11241 -8.53685 -5.68628 255 255 0
-8.06844 -8.67408 -5.70814 255 255 0
-8.07822 -8.72599 -5.72213 255 255 0
-8.20292 -8.94541 -5.79909 255 255 0
-8.05902 -9.0004 -5.7816 255 255 0
-8.05625 -9.04034 -5.79035 255 255 0
-8.06075 -9.08868 -5.80259 255 255 0
-8.09156 -9.29961 -5.85856 255 255 0
-8.07977 -9.53437 -5.91191 255 255 0
-8.08361 -9.60794 -5.93028 255 255 0
-8.5153 -8.05358 -5.77594 255 255 0
-8.50426 -8.08143 -5.77953 255 255 0
-8.47145 -8.10775 -5.77774 255 255 0
-8.45459 -8.14945 -5.78313 255 255 0
-8.3759 -8.15058 -5.76517 255 255 0
-8.37648 -8.1899 -5.77415 255 255 0
-8.2547 -8.18648 -5.74542 255 255 0
-8.19216 -8.20187 -5.73465 255 255 0
-8.18447 -8.23313 -5.74003 255 255 0
-8.18032 -8.34686 -5.76517 255 255 0
-8.11712 -8.38119 -5.75889 255 255 0
-8.10006 -8.46339 -5.77415 255 255 0
-8.08766 -8.49064 -5.77774 255 255 0
-8.06697 -8.52947 -5.78223 255 255 0
-8.07284 -8.5967 -5.79929 255 255 0
-8.39493 -8.98228 -5.96088 255 255 0
-8.27652 -8.94019 -5.92497 255 255 0
-8.26532 -9.05647 -5.95011 255 255 0
-8.26256 -9.09667 -5.95909 255 255 0
-8.05486 -9.12554 -5.92138 255 255 0
-8.0516 -9.16555 -5.93036 255 255 0
-8.07023 -9.2751 -5.96088 255 255 0
-8.1221 -8.07411 -5.79495 255 255 0
-8.09978 -8.18667 -5.81613 255 255 0
-8.06096 -8.62494 -5.9119 255 255 0
-8.04049 -8.64403 -5.9119 255 255 0
-7.99354 -8.63452 -5.89901 255 255 0
-8.11008 -8.13899 -5.9136 255 255 0
-8.07613 -8.35867 -5.95891 255 255 0
