ply
format ascii 1.0
comment Created by Open3D
element vertex 1108
property double x
property double y
property double z
property uchar red
property uchar green
property uchar blue
end_header
-3.20143 8.22809 -5.08939 255 0 0
-3.18927 9.32411 -4.99491 255 0 0
-3.93696 8.18937 -4.59736 255 0 0
-4.68907 8.07006 -4.83657 255 0 0
-4.61529 9.20591 -4.21577 255 0 0
-3.15742 9.02094 -4.90467 255 0 0
-4.63714 8.29463 -4.63112 255 0 0
-4.87413 8.1642 -4.63268 255 0 0
-3.91263 8.08959 -4.731 255 0 0
-4.20068 8.08957 -4.68769 255 0 0
-4.35131 8.05012 -5.11691 255 0 0
-6.01086 9.54648 -4.72326 255 0 0
-4.87912 8.04203 -5.37944 255 0 0
-4.29717 8.06385 -4.77697 255 0 0
-3.1441 9.26372 -5.33213 255 0 0
-7.1776 8.20981 -5.11715 255 0 0
-3.11183 8.53221 -5.00944 255 0 0
-5.28008 8.00192 -4.82679 255 0 0
-3.36162 8.12244 -4.99419 255 0 0
-4.59881 8.09041 -4.66012 255 0 0
-5.79719 8.03908 -4.83311 255 0 0
-5.10028 9.12305 -4.80059 255 0 0
-3.91278 8.2389 -4.68935 255 0 0
-3.60265 8.23135 -4.56839 255 0 0
-4.36736 8.41057 -4.2877 255 0 0
-7.15073 8.58142 -4.99305 255 0 0
-6.89394 8.1155 -4.94829 255 0 0
-3.18689 8.93493 -4.71161 255 0 0
-5.0078 8.25413 -4.5869 255 0 0
-3.90108 8.23943 -4.52409 255 0 0
-5.59105 8.09214 -4.7233 255 0 0
-5.89766 7.99718 -4.84036 255 0 0
-3.16961 8.53314 -4.84932 255 0 0
-3.15517 8.55636 -4.85457 255 0 0
-5.76264 8.29835 -4.43884 255 0 0
-4.20697 8.46651 -4.2822 255 0 0
-7.22744 7.99506 -5.17787 255 0 0
-4.69704 9.23195 -4.2287 255 0 0
-3.69053 8.32445 -4.4399 255 0 0
-3.87764 8.26583 -5.19479 255 0 0
-4.31937 8.12872 -4.71419 255 0 0
-3.09534 8.91126 -5.21319 255 0 0
-3.15702 8.88445 -4.86551 255 0 0
-5.88779 8.14438 -4.60349 255 0 0
-4.24876 8.37545 -4.26709 255 0 0
-7.20095 8.00383 -5.17455 255 0 0
-7.17621 8.32701 -5.0436 255 0 0
-4.7154 8.15986 -4.69391 255 0 0
-3.17842 8.8779 -4.78043 255 0 0
-6.75542 8.3862 -4.88545 255 0 0
-5.729 8.08514 -4.74361 255 0 0
-4.05051 8.55507 -4.28495 255 0 0
-3.2422 8.36215 -4.80734 255 0 0
-4.40363 8.05536 -5.29827 255 0 0
-7.10573 8.03105 -5.35657 255 0 0
-4.71632 8.53098 -4.18231 255 0 0
-4.53704 9.21283 -4.20961 255 0 0
-4.26769 8.07762 -5.19672 255 0 0
-5.20318 8.05045 -4.91318 255 0 0
-7.01276 8.49746 -4.95213 255 0 0
-6.73461 8.04319 -4.90454 255 0 0
-4.17198 8.4211 -4.43463 255 0 0
-5.22808 9.14689 -4.54326 255 0 0
-4.38769 8.02621 -5.37243 255 0 0
-4.12044 8.26774 -4.55768 255 0 0
-3.17747 8.37139 -4.96708 255 0 0
-6.7408 8.08948 -4.91548 255 0 0
-4.39666 8.13402 -5.2354 255 0 0
-5.98508 7.97632 -5.03066 255 0 0
-5.0556 8.02932 -4.97001 255 0 0
-3.62795 8.18329 -4.55873 255 0 0
-3.12262 8.92152 -5.04517 255 0 0
-5.56632 8.34932 -4.42235 255 0 0
-3.84912 8.25588 -4.60379 255 0 0
-3.11848 8.90969 -5.30308 255 0 0
-5.92663 8.11676 -4.78267 255 0 0
-4.93989 8.78717 -4.16896 255 0 0
-5.20044 8.39115 -4.29642 255 0 0
-6.22672 8.19667 -4.75815 255 0 0
-4.75114 8.49854 -4.17975 255 0 0
-5.22984 8.17649 -4.68737 255 0 0
-3.7594 8.11363 -5.12903 255 0 0
-7.13437 7.96773 -5.44557 255 0 0
-4.83684 8.01514 -5.18865 255 0 0
-5.27205 9.07341 -4.16681 255 0 0
-6.72432 8.0309 -5.08844 255 0 0
-6.46004 8.09782 -4.96105 255 0 0
-3.99528 8.16151 -4.76165 255 0 0
-6.671 8.00571 -4.97875 255 0 0
-6.73078 8 -5.46435 255 0 0
-4.74808 8.1272 -4.60612 255 0 0
-3.40941 8.10171 -4.75137 255 0 0
-3.10224 8.76325 -4.9949 255 0 0
-4.07581 8.17818 -5.02785 255 0 0
-4.14137 8.16375 -4.61667 255 0 0
-3.43637 8.38738 -4.59092 255 0 0
-6.08234 8.00662 -4.87415 255 0 0
-6.99722 8.21732 -5.2801 255 0 0
-4.3996 8.47269 -4.2208 255 0 0
-4.14419 8.46572 -4.27533 255 0 0
-3.22395 8.80716 -4.59675 255 0 0
-6.14641 8.05125 -4.80455 255 0 0
-3.132 9.08626 -5.2736 255 0 0
-4.00804 8.31195 -4.39057 255 0 0
-5.52953 8.04381 -4.87813 255 0 0
-3.2735 8.68642 -4.57018 255 0 0
-3.28994 8.13979 -4.99042 255 0 0
-4.88005 8.39876 -4.17464 255 0 0
-3.18518 8.3321 -5.1213 255 0 0
-7.07304 7.97501 -5.14309 255 0 0
-4.42916 8.05661 -4.71087 255 0 0
-4.59045 8.03132 -5.15089 255 0 0
-3.99124 8.30228 -5.13767 255 0 0
-4.07597 9.49614 -4.40388 255 0 0
-4.62664 9.28343 -4.23178 255 0 0
-3.38869 8.07923 -4.82253 255 0 0
-3.17945 8.31711 -4.9505 255 0 0
-4.98868 8.00701 -5.38934 255 0 0
-5.48507 8.01981 -4.86488 255 0 0
-5.15247 8.40247 -4.20662 255 0 0
-5.13468 8.4182 -4.29376 255 0 0
-4.76701 8.40952 -4.24866 255 0 0
-5.35229 8.06967 -4.76794 255 0 0
-3.19067 9.04709 -4.74219 255 0 0
-4.18731 8.76328 -4.25927 255 0 0
-4.22773 8.23694 -4.48082 255 0 0
-5.90628 8.04876 -5.03407 255 0 0
-3.12087 8.52555 -5.09236 255 0 0
-3.6045 8.37035 -4.52331 255 0 0
-5.15953 8.54987 -4.32295 255 0 0
-6.503 8.31218 -4.82786 255 0 0
-4.02678 8.47894 -4.43169 255 0 0
-4.61064 8.62744 -4.18999 255 0 0
-4.21115 8.27697 -5.16316 255 0 0
-4.92737 8.16515 -4.64049 255 0 0
-3.44952 8.06302 -5.15078 255 0 0
-6.05482 7.99002 -4.95596 255 0 0
-5.441 8.07809 -4.78403 255 0 0
-3.46167 8.06493 -5.07102 255 0 0
-3.87153 8.10242 -4.81084 255 0 0
-6.56022 8.02634 -4.87017 255 0 0
-5.17313 8.71189 -4.18005 255 0 0
-7.10415 8.08703 -5.07692 255 0 0
-3.26042 8.58994 -4.62632 255 0 0
-5.09525 8.07108 -4.81437 255 0 0
-5.79 8.2957 -4.53125 255 0 0
-4.39277 8.03549 -5.20446 255 0 0
-4.25665 9.33139 -4.29616 255 0 0
-3.09587 8.67977 -5.05364 255 0 0
-6.26029 8.00193 -4.99571 255 0 0
-5.47293 8.08405 -4.70299 255 0 0
-5.23628 8.40441 -4.21685 255 0 0
-4.08625 9.33629 -4.37071 255 0 0
-3.84766 8.05244 -4.71227 255 0 0
-5.95308 8.153 -4.61524 255 0 0
-5.04785 8.43245 -4.20022 255 0 0
-5.11184 9.0679 -4.78922 255 0 0
-5.00784 8.38817 -4.27254 255 0 0
-4.09768 8.17346 -5.0297 255 0 0
-4.16134 8.30044 -5.33589 255 0 0
-6.21043 8.01625 -4.80767 255 0 0
-3.25564 8.1381 -4.90446 255 0 0
-5.25928 8.03238 -4.83093 255 0 0
-5.9054 8.00768 -5.02385 255 0 0
-3.09936 8.68949 -5.14239 255 0 0
-4.73362 8.10246 -4.85189 255 0 0
-5.4202 8.43 -4.24371 255 0 0
-3.50256 8.0546 -4.99168 255 0 0
-5.58789 8.38167 -4.25523 255 0 0
-6.54653 8.30675 -4.83393 255 0 0
-4.21662 8.26347 -4.56862 255 0 0
-5.43606 8.49889 -4.34683 255 0 0
-5.15569 9.02023 -4.78392 255 0 0
-5.3669 8.0502 -4.94043 255 0 0
-3.26471 8.47981 -4.59736 255 0 0
-4.30687 8.05902 -4.69431 255 0 0
-4.75947 8.14671 -4.61237 255 0 0
-3.43918 8.56746 -4.55612 255 0 0
-7.16807 7.96728 -5.25711 255 0 0
-3.42777 8.4808 -4.53269 255 0 0
-3.95881 8.25988 -4.4543 255 0 0
-5.08585 8.20626 -4.5869 255 0 0
-5.0025 8.42453 -4.27917 255 0 0
-5.13071 8.10593 -4.74219 255 0 0
-4.37427 8.0926 -4.62954 255 0 0
-5.96904 8.13429 -4.61377 255 0 0
-4.25709 8.19822 -4.55768 255 0 0
-3.2607 8.32194 -4.79772 255 0 0
-3.53493 8.39998 -4.52331 255 0 0
-3.93617 9.41583 -4.46357 255 0 0
-4.97549 8.02818 -5.3933 255 0 0
-3.52243 8.53967 -4.55768 255 0 0
-5.63921 7.99856 -5.51605 255 0 0
-5.30754 8.00221 -4.91829 255 0 0
-3.89376 8.4036 -4.39938 255 0 0
-6.4348 7.98818 -4.93208 255 0 0
-4.37906 8.14758 -4.64403 255 0 0
-3.50491 8.21939 -4.6347 255 0 0
-3.1464 8.5953 -4.86506 255 0 0
-4.87024 8.11391 -4.62018 255 0 0
-4.80589 8.02825 -5.36163 255 0 0
-5.33554 8.34174 -4.21685 255 0 0
-3.19129 8.9809 -4.63893 255 0 0
-3.44071 9.03264 -4.58994 255 0 0
-7.03667 8.1651 -5.27584 255 0 0
-4.29772 9.21808 -4.27697 255 0 0
-4.23287 8.29531 -4.4126 255 0 0
-4.14587 8.26957 -5.15089 255 0 0
-4.55056 8.37123 -4.30007 255 0 0
-6.14388 8.0282 -5.07238 255 0 0
-6.51289 7.96844 -5.12771 255 0 0
-3.55498 8.22846 -4.64298 255 0 0
-4.26851 8.61596 -4.23672 255 0 0
-3.6591 9.17819 -4.64752 255 0 0
-3.2647 8.54011 -4.61345 255 0 0
-3.45465 8.87879 -4.55281 255 0 0
-5.00324 8.42579 -4.19383 255 0 0
-5.87909 8.0117 -4.75142 255 0 0
-4.09344 9.03028 -4.30637 255 0 0
-5.66519 8.24115 -4.41411 255 0 0
-4.04074 8.10782 -4.75314 255 0 0
-3.36024 8.09198 -4.74262 255 0 0
-4.16113 8.65567 -4.23407 255 0 0
-5.79985 8.08313 -4.75455 255 0 0
-6.36083 8.05148 -5.02551 255 0 0
-3.61401 8.31091 -4.50925 255 0 0
-6.0831 8.00762 -5.0562 255 0 0
-5.8417 8.04041 -5.02045 255 0 0
-3.98245 8.08668 -4.73952 255 0 0
-4.45284 8.35595 -4.28564 255 0 0
-5.40254 8.12447 -4.70143 255 0 0
-5.35687 9.07024 -4.1751 255 0 0
-4.51065 8.02363 -4.79741 255 0 0
-3.37124 8.34094 -4.57161 255 0 0
-4.76568 8.47729 -4.1772 255 0 0
-3.91737 8.14861 -4.83008 255 0 0
-4.52582 8.51725 -4.15929 255 0 0
-4.88442 8.11572 -4.70759 255 0 0
-3.12924 8.80627 -5.27021 255 0 0
-3.39892 8.07682 -4.98475 255 0 0
-5.23901 8.127 -4.67721 255 0 0
-4.78069 9.15342 -4.22193 255 0 0
-6.09447 7.98322 -4.87093 255 0 0
-5.93409 8.27026 -4.54688 255 0 0
-4.19954 8.18202 -5.0475 255 0 0
-4.27309 8.22903 -4.65046 255 0 0
-4.91066 8.78387 -4.16527 255 0 0
-3.13639 8.50545 -5.00391 255 0 0
-5.02229 8.83542 -4.81392 255 0 0
-5.0141 8.30888 -4.34266 255 0 0
-5.62604 8.26792 -4.41411 255 0 0
-6.47948 8.00472 -4.85142 255 0 0
-5.87189 8.76258 -4.82635 255 0 0
-5.41838 8.69669 -4.20468 255 0 0
-6.03032 7.97733 -5.03918 255 0 0
-3.97808 8.12636 -4.66782 255 0 0
-3.2956 8.32381 -4.72079 255 0 0
-4.30991 8.42162 -4.36709 255 0 0
-3.49048 8.15876 -4.69695 255 0 0
-6.88429 7.95009 -5.00611 255 0 0
-5.00427 8.03202 -4.79036 255 0 0
-3.98181 8.75637 -4.32205 255 0 0
-5.53988 8.05887 -4.70768 255 0 0
-3.85289 8.08802 -5.13484 255 0 0
-4.94771 8.37744 -4.26325 255 0 0
-3.38081 8.42206 -4.59414 255 0 0
-5.16149 8.64553 -4.1665 255 0 0
-5.10203 8.92637 -4.84673 255 0 0
-5.05748 8.20385 -4.58236 255 0 0
-3.169 9.05401 -4.82845 255 0 0
-3.45066 8.17264 -4.6961 255 0 0
-5.62314 8.22167 -4.40449 255 0 0
-5.14706 8.06813 -4.82183 255 0 0
-5.33801 8.17377 -4.70299 255 0 0
-6.81542 8.1006 -4.9311 255 0 0
-3.19241 8.20487 -4.91735 255 0 0
-4.87089 8.42893 -4.26458 255 0 0
-3.13438 9.02366 -5.07749 255 0 0
-3.34026 8.37843 -4.65954 255 0 0
-5.49461 7.99301 -5.39398 255 0 0
-3.8906 9.06425 -4.38113 255 0 0
-4.3575 8.15377 -5.149 255 0 0
-4.10386 8.51065 -4.28083 255 0 0
-5.23526 8.07907 -4.75185 255 0 0
-3.94329 8.0553 -4.80734 255 0 0
-3.50372 8.43749 -4.52956 255 0 0
-4.53405 8.02068 -5.31015 255 0 0
-6.33808 8.02268 -5.10728 255 0 0
-4.68353 8.01673 -5.42307 255 0 0
-3.12087 8.78272 -4.91754 255 0 0
-3.2338 8.1114 -5.05555 255 0 0
-3.17148 9.13047 -4.84998 255 0 0
-6.05004 9.60871 -4.84108 255 0 0
-3.13457 8.95565 -4.97001 255 0 0
-5.24709 8.37744 -4.21301 255 0 0
-3.68175 8.25179 -4.58287 255 0 0
-5.55221 8.37109 -4.24883 255 0 0
-4.59716 8.48086 -4.24402 255 0 0
-3.10622 8.48556 -5.16191 255 0 0
-5.89287 8.07052 -4.85645 255 0 0
-5.27629 8.07926 -4.75828 255 0 0
-3.48042 8.38139 -4.59414 255 0 0
-3.4507 8.25445 -4.63801 255 0 0
-3.97068 8.06279 -4.97813 255 0 0
-4.23544 8.10946 -4.69763 255 0 0
-4.12327 8.42295 -4.34649 255 0 0
-3.74209 8.12672 -4.71908 255 0 0
-4.24682 8.08448 -4.69266 255 0 0
-4.88985 8.01679 -4.76883 255 0 0
-7.10501 8.28404 -5.02172 255 0 0
-5.84766 8.25261 -4.44159 255 0 0
-5.46022 8.02426 -4.77438 255 0 0
-4.52043 8.41061 -4.38912 255 0 0
-5.86721 8.23872 -4.44159 255 0 0
-4.8499 8.92193 -4.18498 255 0 0
-3.65393 8.29491 -4.59092 255 0 0
-3.90857 8.98828 -4.36602 255 0 0
-5.93687 8.21227 -4.53551 255 0 0
-4.2997 8.25632 -5.17071 255 0 0
-5.6316 7.98776 -4.79369 255 0 0
-4.23306 8.39377 -4.35217 255 0 0
-3.6925 9.19851 -4.48008 255 0 0
-5.84504 8.45975 -4.39194 255 0 0
-3.32366 8.16744 -4.76012 255 0 0
-3.3851 9.38501 -4.67329 255 0 0
-5.055 8.99195 -4.85611 255 0 0
-5.01159 8.72008 -4.16404 255 0 0
-3.14193 8.33729 -4.95234 255 0 0
-5.36726 8.00953 -4.93021 255 0 0
-6.88013 7.98345 -5.01255 255 0 0
-6.6112 8.32772 -4.84908 255 0 0
-3.14227 9.40463 -5.2857 255 0 0
-3.2437 8.42529 -4.66202 255 0 0
-5.17482 8.00657 -5.24717 255 0 0
-6.81014 8.39285 -4.89606 255 0 0
-5.19671 8.65781 -4.17266 255 0 0
-5.40501 8.02466 -4.94043 255 0 0
-5.94885 9.49786 -4.80413 255 0 0
-3.24271 8.42266 -4.74292 255 0 0
-3.30386 8.43206 -4.6703 255 0 0
-3.75911 8.16369 -5.22898 255 0 0
-5.88819 8.26818 -4.53978 255 0 0
-5.19834 8.25603 -4.61418 255 0 0
-4.06436 8.17947 -5.28145 255 0 0
-6.66897 7.9648 -5.44225 255 0 0
-3.18625 8.27603 -5.02062 255 0 0
-4.63628 8.02295 -4.81613 255 0 0
-3.21013 9.17153 -4.77759 255 0 0
-4.86272 8.50767 -4.19383 255 0 0
-3.67035 8.1225 -4.70887 255 0 0
-3.77112 8.08857 -4.71227 255 0 0
-3.45297 8.07108 -4.74787 255 0 0
-5.20403 8.1788 -4.59751 255 0 0
-6.65914 8.3474 -4.8612 255 0 0
-4.7944 8.45779 -4.17656 255 0 0
-4.02633 8.32467 -4.47779 255 0 0
-3.16554 8.43027 -4.81871 255 0 0
-6.00273 7.98009 -4.94437 255 0 0
-3.6415 8.18761 -4.72334 255 0 0
-5.50008 8.62149 -4.20037 255 0 0
-6.50296 8.0728 -4.87017 255 0 0
-3.83837 8.38812 -4.47173 255 0 0
-4.89769 8.90887 -4.18744 255 0 0
-4.20806 8.39363 -4.34933 255 0 0
-3.28258 8.12159 -5.06522 255 0 0
-4.32517 8.23362 -5.16788 255 0 0
-3.5433 8.47602 -4.54362 255 0 0
-5.88534 8.02022 -4.84357 255 0 0
-5.57321 8.40275 -4.3455 255 0 0
-4.9515 8.11787 -4.71805 255 0 0
-3.74756 8.31967 -4.52644 255 0 0
-5.0937 8.71881 -4.17266 255 0 0
-3.69568 8.17856 -4.64629 255 0 0
-4.36108 8.11412 -5.13767 255 0 0
-5.10145 8.66116 -4.16281 255 0 0
-7.11808 7.98757 -5.15468 255 0 0
-5.89825 8.19973 -4.61671 255 0 0
-3.78517 8.99461 -4.44171 255 0 0
-4.20189 8.04521 -5.0076 255 0 0
-7.05096 8.1231 -5.26903 255 0 0
-6.41794 8.00603 -5.02551 255 0 0
-5.04534 8.11936 -4.64674 255 0 0
-7.31435 8.05274 -5.20767 255 0 0
-3.73103 8.20489 -4.57644 255 0 0
-3.87818 9.03531 -4.46019 255 0 0
-6.05994 8.13618 -4.8999 255 0 0
-3.10787 8.61642 -5.03522 255 0 0
-3.79684 8.37595 -4.46415 255 0 0
-4.3395 8.21354 -5.1641 255 0 0
-3.68478 8.10317 -4.78635 255 0 0
-4.05024 8.68726 -4.31381 255 0 0
-5.09123 8.2586 -4.4275 255 0 0
-4.51701 8.40424 -4.21947 255 0 0
-4.45721 8.29298 -4.43903 255 0 0
-3.19058 8.37599 -4.80559 255 0 0
-7.23686 8.0822 -5.10106 255 0 0
-3.08716 8.8202 -5.18298 255 0 0
-5.18729 8.10996 -4.75185 255 0 0
-3.35767 8.69053 -4.57956 255 0 0
-6.30172 8.01566 -5.09877 255 0 0
-7.2144 8.33131 -5.05141 255 0 0
-3.24099 8.18581 -4.91735 255 0 0
-3.13991 8.45318 -4.90512 255 0 0
-4.78457 8.01419 -5.17921 255 0 0
-4.03667 8.14798 -5.01312 255 0 0
-3.21659 8.12418 -5.05748 255 0 0
-3.3042 8.09211 -4.9772 255 0 0
-3.16844 9.26322 -5.06446 255 0 0
-3.39587 8.51793 -4.53894 255 0 0
-3.30591 8.34977 -4.64795 255 0 0
-3.63502 8.0954 -4.69695 255 0 0
-4.09923 8.27425 -5.14523 255 0 0
-5.01485 8.11316 -4.89871 255 0 0
-6.02887 9.37665 -4.98699 255 0 0
-4.35567 8.33965 -4.27121 255 0 0
-3.195 8.63279 -4.71419 255 0 0
-3.22233 8.55064 -4.69431 255 0 0
-3.8381 8.13134 -4.65126 255 0 0
-3.29349 8.09331 -5.05748 255 0 0
-4.04876 8.22136 -4.53737 255 0 0
-4.61243 8.06976 -4.74068 255 0 0
-3.5588 8.18395 -4.63139 255 0 0
-3.16057 8.96173 -4.80195 255 0 0
-4.85126 8.01755 -4.93328 255 0 0
-5.78976 8.3374 -4.53978 255 0 0
-5.59907 8.33405 -4.33555 255 0 0
-4.85004 8.08026 -4.77877 255 0 0
-3.4635 8.17597 -4.61814 255 0 0
-3.88828 8.71467 -4.3877 255 0 0
-3.66372 8.21138 -4.65126 255 0 0
-5.06559 8.04519 -4.88935 255 0 0
-4.17675 8.5322 -4.2932 255 0 0
-4.60455 8.1454 -4.6746 255 0 0
-7.33885 8.15709 -5.13646 255 0 0
-5.69739 8.04053 -4.99491 255 0 0
-4.95899 8.46515 -4.19638 255 0 0
-3.35663 8.56681 -4.54753 255 0 0
-5.12686 9.06937 -4.69894 255 0 0
-5.99015 8.04248 -5.04769 255 0 0
-3.90314 8.11902 -4.65623 255 0 0
-5.47925 8.0522 -4.78403 255 0 0
-4.2902 8.58286 -4.23208 255 0 0
-5.22225 8.03809 -4.91318 255 0 0
-4.90514 8.41894 -4.26657 255 0 0
-5.1992 8.38916 -4.38251 255 0 0
-6.38156 8.27759 -4.80059 255 0 0
-6.14765 8.01342 -4.88702 255 0 0
-4.14404 8.91607 -4.28713 255 0 0
-3.90083 8.16372 -4.66782 255 0 0
-5.33648 8.02518 -4.8417 255 0 0
-4.93882 8.01137 -5.20564 255 0 0
-4.45059 8.11835 -4.64644 255 0 0
-5.04855 8.3213 -4.34953 255 0 0
-3.86701 8.14251 -4.73952 255 0 0
-4.44825 8.04609 -4.71087 255 0 0
-5.24926 8.3809 -4.3004 255 0 0
-3.13721 8.50766 -4.92128 255 0 0
-5.12771 8.18684 -4.58842 255 0 0
-4.67817 8.05132 -4.74565 255 0 0
-3.32938 8.12624 -4.90998 255 0 0
-5.70569 8.21634 -4.32693 255 0 0
-5.35875 7.99682 -4.83839 255 0 0
-6.96549 8.00543 -5.32158 255 0 0
-5.78872 8.21063 -4.4251 255 0 0
-3.09703 8.46047 -5.06877 255 0 0
-6.23761 8.13068 -4.83736 255 0 0
-5.66437 8.07484 -4.81944 255 0 0
-4.12619 8.13383 -4.77187 255 0 0
-4.86295 8.46143 -4.18487 255 0 0
-3.41185 8.10749 -4.99608 255 0 0
-4.09752 9.12543 -4.32693 255 0 0
-5.86756 8.07601 -4.76392 255 0 0
-4.28959 8.11908 -4.70756 255 0 0
-6.91917 7.99037 -5.11659 255 0 0
-6.57562 8.08423 -4.97875 255 0 0
-4.93535 8.73059 -4.15788 255 0 0
-6.7892 8.03071 -5.48461 255 0 0
-3.22157 8.19347 -4.91735 255 0 0
-6.07888 9.60394 -4.84392 255 0 0
-3.94129 8.19837 -4.51862 255 0 0
-3.32734 8.12128 -5.07102 255 0 0
-3.83933 8.33789 -4.45961 255 0 0
-5.17617 9.20747 -4.18102 255 0 0
-3.69863 8.45066 -4.47173 255 0 0
-6.63375 8.15569 -4.91079 255 0 0
-4.20819 8.24694 -4.48082 255 0 0
-3.93443 8.98942 -4.36877 255 0 0
-3.22725 8.75184 -4.58268 255 0 0
-6.58173 8.0138 -4.96427 255 0 0
-4.30468 9.29045 -4.29232 255 0 0
-4.34598 8.06312 -4.78378 255 0 0
-4.07122 8.26694 -4.55143 255 0 0
-3.33796 8.25861 -4.70717 255 0 0
-3.19322 8.72322 -4.73903 255 0 0
-3.25488 9.37057 -4.83553 255 0 0
-5.10222 9.229 -4.17747 255 0 0
-4.09317 8.46287 -4.35217 255 0 0
-3.70659 8.07477 -4.7811 255 0 0
-6.1359 9.61817 -4.85458 255 0 0
-3.18596 8.76771 -4.75062 255 0 0
-4.27094 8.41917 -4.36212 255 0 0
-5.74476 8.27261 -4.43128 255 0 0
-3.54816 8.05482 -4.99797 255 0 0
-5.15038 8.44394 -4.21429 255 0 0
-6.29942 7.97375 -4.90473 255 0 0
-3.78454 9.36352 -4.52699 255 0 0
-4.21532 8.55954 -4.21947 255 0 0
-4.11125 8.95634 -4.29244 255 0 0
-7.10157 7.96904 -5.05117 255 0 0
-6.46083 7.96235 -5.4926 255 0 0
-5.815 8.28957 -4.44434 255 0 0
-5.52206 7.99228 -4.95234 255 0 0
-3.60359 8.31383 -4.59012 255 0 0
-3.85336 8.26498 -5.19092 255 0 0
-3.27279 8.26613 -4.78285 255 0 0
-7.11939 7.98904 -5.34957 255 0 0
-4.32431 9.16142 -4.26802 255 0 0
-4.99122 8.13951 -4.64362 255 0 0
-4.34192 8.07847 -4.70425 255 0 0
-4.39137 8.81137 -4.20406 255 0 0
-6.33093 8.25232 -4.78695 255 0 0
-4.10043 9.24903 -4.35346 255 0 0
-4.38858 8.25896 -4.42288 255 0 0
-4.39584 8.87296 -4.21685 255 0 0
-3.22816 8.56609 -4.78208 255 0 0
-5.32047 8.67645 -4.1899 255 0 0
-4.56167 8.63405 -4.18615 255 0 0
-3.7778 8.15334 -4.6496 255 0 0
-5.06651 9.21595 -4.17155 255 0 0
-5.17443 9.10306 -4.16207 255 0 0
-5.21307 9.12063 -4.16918 255 0 0
-5.21468 9.07345 -4.16089 255 0 0
-5.26752 9.01632 -4.15615 255 0 0
-3.42621 8.08792 -5.15573 255 0 0
-7.01054 8.53591 -4.95971 255 0 0
-4.41276 8.02677 -4.78378 255 0 0
-3.49939 8.09979 -4.76186 255 0 0
-5.10598 8.08804 -4.6483 255 0 0
-4.15053 8.03956 -4.74973 255 0 0
-3.18957 9.39771 -5.10644 255 0 0
-5.05635 8.07291 -4.72288 255 0 0
-4.04253 8.30785 -4.39351 255 0 0
-3.12459 8.41194 -5.05649 255 0 0
-3.85308 8.29 -4.53112 255 0 0
-5.76779 8.09912 -4.75299 255 0 0
-3.9413 8.24843 -4.53112 255 0 0
-4.6603 9.24094 -4.22685 255 0 0
-4.71807 9.19228 -4.22316 255 0 0
-4.75599 9.18561 -4.22562 255 0 0
-4.80504 9.14712 -4.22316 255 0 0
-4.80001 9.05916 -4.20591 255 0 0
-4.81062 9.00165 -4.19606 255 0 0
-4.84821 9.02047 -4.20345 255 0 0
-4.87172 8.81207 -4.1665 255 0 0
-4.91485 8.84052 -4.17635 255 0 0
-4.95887 8.72384 -4.15911 255 0 0
-5.01079 8.76672 -4.17266 255 0 0
-5.03225 8.70817 -4.16404 255 0 0
-5.0989 8.7754 -4.18374 255 0 0
-5.23201 8.66997 -4.17882 255 0 0
-5.29405 8.70264 -4.19175 255 0 0
-5.35305 8.6833 -4.19483 255 0 0
-5.40981 8.72898 -4.20961 255 0 0
-5.46937 8.73233 -4.217 255 0 0
-5.49616 8.72903 -4.21946 255 0 0
-5.48929 8.67244 -4.20838 255 0 0
-5.52916 8.59947 -4.19976 255 0 0
-5.08317 8.11572 -4.65143 255 0 0
-3.13658 9.09956 -5.10083 255 0 0
-3.21198 8.16907 -4.82792 255 0 0
-3.17615 8.30849 -4.86562 255 0 0
-3.89523 8.27779 -4.61506 255 0 0
-5.23517 8.0163 -4.90978 255 0 0
-4.28742 9.31101 -4.29488 255 0 0
-4.32684 9.22338 -4.28081 255 0 0
-4.3117 9.07888 -4.25011 255 0 0
-4.35293 9.10988 -4.26034 255 0 0
-4.33985 9.02744 -4.24243 255 0 0
-4.34201 8.95025 -4.22708 255 0 0
-4.39893 8.98608 -4.23988 255 0 0
-4.37479 8.88335 -4.21685 255 0 0
-4.4225 8.82136 -4.20918 255 0 0
-4.4434 8.81085 -4.20918 255 0 0
-4.41775 8.70857 -4.18615 255 0 0
-4.46695 8.75406 -4.20022 255 0 0
-4.49291 8.75361 -4.20278 255 0 0
-4.49531 8.70739 -4.19383 255 0 0
-4.50214 8.62012 -4.1772 255 0 0
-4.60064 8.53553 -4.1708 255 0 0
-4.65337 8.53619 -4.17656 255 0 0
-4.6713 8.49707 -4.1708 255 0 0
-4.69489 8.44486 -4.16312 255 0 0
-4.86584 8.4202 -4.1772 255 0 0
-5.01231 8.48683 -4.20662 255 0 0
-5.09369 8.4182 -4.20278 255 0 0
-5.20635 8.42297 -4.21685 255 0 0
-5.30431 8.4022 -4.22453 255 0 0
-5.35562 8.41704 -4.23348 255 0 0
-5.44083 8.39627 -4.23988 255 0 0
-5.49362 8.36865 -4.24116 255 0 0
-5.63637 8.41112 -4.26674 255 0 0
-5.6563 8.39773 -4.26674 255 0 0
-5.64736 8.34171 -4.25523 255 0 0
-4.20127 8.04402 -5.43177 255 0 0
-4.37762 8.47943 -4.3877 255 0 0
-4.44454 8.17618 -4.66012 255 0 0
-6.58638 7.98081 -4.95783 255 0 0
-3.55067 8.27229 -4.57322 255 0 0
-3.20339 8.14721 -5.06328 255 0 0
-5.09821 9.22175 -4.72978 255 0 0
-6.42195 8.28927 -4.80968 255 0 0
-3.69208 8.22249 -4.57644 255 0 0
-3.18198 9.1607 -4.94724 255 0 0
-5.31764 8.05885 -4.75989 255 0 0
-5.01849 8.05486 -4.88424 255 0 0
-5.69535 8.03765 -4.90463 255 0 0
-6.79036 7.99357 -4.99806 255 0 0
-5.02735 8.33083 -4.4346 255 0 0
-4.08702 9.42925 -4.39061 255 0 0
-4.08998 9.28482 -4.3601 255 0 0
-4.10143 9.19241 -4.34152 255 0 0
-4.15636 8.85997 -4.27652 255 0 0
-4.16762 8.82946 -4.27121 255 0 0
-4.1812 8.8041 -4.26723 255 0 0
-4.2093 8.67673 -4.24335 255 0 0
-4.22259 8.62586 -4.23407 255 0 0
-4.29631 8.51918 -4.21947 255 0 0
-4.34745 8.57 -4.23539 255 0 0
-4.34543 8.49102 -4.21881 255 0 0
-4.38386 8.44234 -4.21284 255 0 0
-4.45301 8.47699 -4.22743 255 0 0
-4.4938 8.48126 -4.23274 255 0 0
-4.54545 8.50546 -4.24335 255 0 0
-4.62865 8.46698 -4.24468 255 0 0
-4.64634 8.42798 -4.23871 255 0 0
-4.66659 8.39396 -4.23407 255 0 0
-4.7215 8.42209 -4.24601 255 0 0
-4.81105 8.41727 -4.25529 255 0 0
-4.82815 8.4009 -4.25397 255 0 0
-4.97405 8.46783 -4.28448 255 0 0
-5.04239 8.40072 -4.27917 255 0 0
-5.11175 8.42547 -4.29244 255 0 0
-5.19339 8.4692 -4.31101 255 0 0
-5.16257 8.37433 -4.28846 255 0 0
-5.15398 8.27231 -4.26723 255 0 0
-5.34904 8.47309 -4.33091 255 0 0
-5.39446 8.47808 -4.33754 255 0 0
-5.49012 8.53875 -4.36142 255 0 0
-5.4763 8.47302 -4.34683 255 0 0
-5.46593 8.39136 -4.32958 255 0 0
-5.49574 8.37187 -4.32958 255 0 0
-5.49359 8.3255 -4.3203 255 0 0
-5.55515 8.33257 -4.32958 255 0 0
-5.66544 8.36841 -4.35081 255 0 0
-5.69677 8.35055 -4.35147 255 0 0
-5.77974 8.40779 -4.37336 255 0 0
-4.48395 8.24868 -4.51568 255 0 0
-4.25924 8.27415 -5.16977 255 0 0
-4.03995 8.77358 -4.33167 255 0 0
-3.25582 8.13857 -4.9857 255 0 0
-3.09 8.37964 -5.12517 255 0 0
-4.08728 8.55393 -4.37207 255 0 0
-5.16662 8.03561 -4.81686 255 0 0
-3.89446 9.25433 -4.42373 255 0 0
-3.92972 9.27651 -4.43197 255 0 0
-3.92491 9.20434 -4.41548 255 0 0
-3.93239 9.10202 -4.3935 255 0 0
-3.90755 8.87068 -4.33991 255 0 0
-3.91934 8.84057 -4.33442 255 0 0
-3.96349 8.88324 -4.34816 255 0 0
-3.94363 8.7549 -4.31793 255 0 0
-3.99308 8.72621 -4.31655 255 0 0
-3.99852 8.62971 -4.29594 255 0 0
-4.05874 8.65187 -4.30694 255 0 0
-4.10546 8.59197 -4.29869 255 0 0
-4.26258 8.50238 -4.29594 255 0 0
-4.29447 8.41606 -4.28083 255 0 0
-4.3213 8.37033 -4.27396 255 0 0
-4.39193 8.33669 -4.27465 255 0 0
-4.5086 8.36481 -4.29388 255 0 0
-4.51579 8.26053 -4.27259 255 0 0
-4.63134 8.42437 -4.32068 255 0 0
-5.19019 9.03084 -4.51441 255 0 0
-5.04752 8.27529 -4.33991 255 0 0
-5.09181 8.28153 -4.34678 255 0 0
-5.18597 8.32367 -4.36739 255 0 0
-5.98216 9.55105 -4.72051 255 0 0
-5.70991 8.85749 -4.54395 255 0 0
-5.69952 8.7727 -4.5254 255 0 0
-5.62453 8.372 -4.43472 255 0 0
-5.6479 8.34251 -4.43197 255 0 0
-3.69662 8.31156 -4.51862 255 0 0
-3.2528 8.44889 -4.66947 255 0 0
-3.89264 8.66916 -4.37775 255 0 0
-4.47977 8.19464 -4.58581 255 0 0
-4.94252 8.10315 -4.62799 255 0 0
-5.64409 8.02571 -4.89303 255 0 0
-7.05625 7.99418 -5.04795 255 0 0
-6.22773 8.23849 -4.76725 255 0 0
-3.51765 8.41467 -4.60701 255 0 0
-4.65064 8.0478 -4.74068 255 0 0
-3.92212 9.07823 -4.4744 255 0 0
-3.9264 8.97107 -4.45024 255 0 0
-3.895 8.84218 -4.41755 255 0 0
-3.85149 8.68752 -4.37775 255 0 0
-3.91156 8.44202 -4.32801 255 0 0
-3.97237 8.52024 -4.35217 255 0 0
-3.97809 8.47994 -4.34364 255 0 0
-4.00607 8.43533 -4.33654 255 0 0
-4.06817 8.46231 -4.34933 255 0 0
-4.09827 8.37192 -4.33227 255 0 0
-4.16047 8.37293 -4.33938 255 0 0
-4.46835 8.36119 -4.37207 255 0 0
-5.19949 9.2233 -4.64921 255 0 0
-5.03897 8.21738 -4.41186 255 0 0
-5.88499 8.30529 -4.54688 255 0 0
-3.34896 8.22961 -4.61979 255 0 0
-5.08436 8.16058 -4.5763 255 0 0
-3.22361 8.74196 -4.66334 255 0 0
-3.17472 8.80174 -4.6746 255 0 0
-3.20232 8.49755 -4.59575 255 0 0
-3.14573 8.37741 -5.048 255 0 0
-3.57004 9.27287 -4.57412 255 0 0
-3.56449 9.12912 -4.53888 255 0 0
-4.18619 9.62672 -4.7195 255 0 0
-3.87038 8.45805 -4.40966 255 0 0
-3.95344 8.37569 -4.39938 255 0 0
-4.05972 8.29315 -4.39204 255 0 0
-4.0919 8.30892 -4.39938 255 0 0
-4.237 8.255 -4.40379 255 0 0
-4.48829 8.3985 -4.46693 255 0 0
-5.08426 9.14524 -4.71069 255 0 0
-5.09763 9.11831 -4.70628 255 0 0
-5.13868 9.14079 -4.71656 255 0 0
-4.98643 8.21892 -4.49042 255 0 0
-5.0061 8.12051 -4.47134 255 0 0
-5.09799 8.09665 -4.47868 255 0 0
-5.90862 8.29687 -4.63873 255 0 0
-5.98038 8.23129 -4.6358 255 0 0
-3.14905 9.42492 -5.20138 255 0 0
-3.30096 8.48388 -4.60218 255 0 0
-6.4827 8.04765 -5.04704 255 0 0
-5.61737 8.00784 -4.97278 255 0 0
-3.19364 8.8542 -4.60612 255 0 0
-5.39972 8.07866 -4.77759 255 0 0
-3.81646 8.1354 -4.731 255 0 0
-7.31915 7.94375 -5.38105 255 0 0
-6.30834 8.08307 -4.83892 255 0 0
-3.38609 9.31849 -4.65662 255 0 0
-3.40282 9.22803 -4.6354 255 0 0
-3.40891 9.11115 -4.60661 255 0 0
-3.39461 9.00778 -4.57933 255 0 0
-3.42608 8.89895 -4.55508 255 0 0
-3.68674 8.36941 -4.45051 255 0 0
-3.731 8.36216 -4.45354 255 0 0
-3.76008 8.37393 -4.45961 255 0 0
-3.84958 8.30824 -4.45354 255 0 0
-3.90253 8.3189 -4.46213 255 0 0
-3.94033 8.2969 -4.46112 255 0 0
-4.0906 8.40664 -4.50507 255 0 0
-4.08317 8.34104 -4.4884 255 0 0
-4.18539 8.49878 -4.53841 255 0 0
-4.16716 8.31206 -4.49143 255 0 0
-4.22444 8.32751 -4.50204 255 0 0
-4.42404 8.18466 -4.49295 255 0 0
-5.02146 8.23257 -4.58387 255 0 0
-5.00549 8.16279 -4.56569 255 0 0
-5.90081 8.12177 -4.68996 255 0 0
-5.93339 8.12602 -4.69602 255 0 0
-5.92253 8.0709 -4.68238 255 0 0
-6.13338 8.15379 -4.73391 255 0 0
-6.31478 8.2718 -4.78846 255 0 0
-6.43116 8.26063 -4.80513 255 0 0
-6.7249 8.38895 -4.88091 255 0 0
-6.90438 8.44741 -4.92334 255 0 0
-7.09065 8.55046 -4.97638 255 0 0
-7.14483 8.51261 -4.9779 255 0 0
-4.67034 8.03783 -5.33985 255 0 0
-3.22266 9.42173 -4.93609 255 0 0
-4.60681 8.05993 -4.65368 255 0 0
-3.21065 9.24325 -4.70924 255 0 0
-3.18223 9.09181 -4.66705 255 0 0
-3.17937 9.01505 -4.64674 255 0 0
-3.20512 8.88602 -4.61549 255 0 0
-3.2814 8.83409 -4.60924 255 0 0
-3.27662 8.75758 -4.58893 255 0 0
-3.29609 8.68391 -4.57175 255 0 0
-3.28846 8.60227 -4.54987 255 0 0
-3.39021 8.56269 -4.54987 255 0 0
-3.4585 8.49879 -4.5405 255 0 0
-3.44441 8.40702 -4.5155 255 0 0
-3.54492 8.3406 -4.50925 255 0 0
-3.65489 8.32383 -4.51706 255 0 0
-3.76312 8.27547 -4.51706 255 0 0
-3.79722 8.27229 -4.52019 255 0 0
-3.88493 8.28136 -4.53269 255 0 0
-4.00737 8.26045 -4.54206 255 0 0
-4.15028 8.22962 -4.55196 255 0 0
-4.30003 8.23312 -4.57175 255 0 0
-4.33465 8.15747 -4.55768 255 0 0
-4.37526 8.18699 -4.57018 255 0 0
-4.41068 8.20641 -4.57956 255 0 0
-4.43013 8.19593 -4.57956 255 0 0
-4.46572 8.21515 -4.58893 255 0 0
-4.56263 8.20696 -4.59987 255 0 0
-5.03466 8.90625 -4.83267 255 0 0
-5.07819 8.83596 -4.82173 255 0 0
-4.74055 8.20339 -4.62331 255 0 0
-4.85832 8.22609 -4.64518 255 0 0
-4.82306 8.12236 -4.61549 255 0 0
-4.92622 8.11967 -4.62956 255 0 0
-5.02827 8.15648 -4.65299 255 0 0
-5.18015 8.14126 -4.67174 255 0 0
-5.27864 8.12489 -4.68268 255 0 0
-5.33912 8.1123 -4.68893 255 0 0
-5.48479 8.18492 -4.72799 255 0 0
-5.6555 8.39655 -4.80298 255 0 0
-5.50478 8.08971 -4.70924 255 0 0
-5.53031 8.08595 -4.71236 255 0 0
-5.62631 8.10203 -4.73111 255 0 0
-5.64377 8.06578 -4.72564 255 0 0
-5.72607 8.12176 -4.75142 255 0 0
-5.86823 8.11734 -4.7733 255 0 0
-6.02243 8.04593 -4.78267 255 0 0
-6.09238 8.09928 -4.80611 255 0 0
-6.13198 8.11182 -4.81548 255 0 0
-6.13754 8.07928 -4.80923 255 0 0
-6.20519 8.04883 -4.81392 255 0 0
-6.351 8.07834 -4.84517 255 0 0
-6.40162 8.10311 -4.85923 255 0 0
-6.43134 8.10117 -4.86392 255 0 0
-6.47868 8.12119 -4.87642 255 0 0
-6.43439 8.02655 -4.84829 255 0 0
-6.61863 8.05873 -4.88736 255 0 0
-6.65927 8.06913 -4.89673 255 0 0
-6.70359 8.08372 -4.90767 255 0 0
-6.86011 8.11459 -4.94204 255 0 0
-6.99743 8.19785 -4.98423 255 0 0
-7.18598 8.25883 -5.0311 255 0 0
-7.22783 8.26726 -5.04047 255 0 0
-7.22134 8.22043 -5.02954 255 0 0
-7.26695 8.2329 -5.04047 255 0 0
-4.75715 8.07668 -4.76387 255 0 0
-3.2148 8.8471 -4.69069 255 0 0
-3.20287 8.74958 -4.66334 255 0 0
-3.21688 8.66041 -4.64081 255 0 0
-3.24333 8.66857 -4.64563 255 0 0
-3.29816 8.38826 -4.57644 255 0 0
-3.34567 8.42093 -4.59012 255 0 0
-3.4086 8.31964 -4.57 255 0 0
-3.49174 8.29733 -4.57322 255 0 0
-3.54434 8.36679 -4.59736 255 0 0
-3.54871 8.32211 -4.58609 255 0 0
-3.69997 8.18806 -4.56839 255 0 0
-3.77624 8.25233 -4.59414 255 0 0
-3.79376 8.21329 -4.58609 255 0 0
-3.91748 8.22365 -4.60379 255 0 0
-4.00037 8.22121 -4.61345 255 0 0
-3.96097 8.14024 -4.5877 255 0 0
-4.05425 8.23248 -4.62311 255 0 0
-4.08375 8.24302 -4.62954 255 0 0
-4.07817 8.18292 -4.61345 255 0 0
-4.08999 8.15813 -4.60862 255 0 0
-4.13468 8.19868 -4.62471 255 0 0
-4.14792 8.12884 -4.60862 255 0 0
-4.21346 8.20913 -4.63759 255 0 0
-4.21999 8.17411 -4.62954 255 0 0
-4.26131 8.15899 -4.63115 255 0 0
-4.29335 8.12624 -4.62713 255 0 0
-4.30522 8.14865 -4.63437 255 0 0
-4.38096 8.19766 -4.6569 255 0 0
-4.50258 8.14436 -4.66012 255 0 0
-4.50546 8.10414 -4.65046 255 0 0
-4.57137 8.17697 -4.67782 255 0 0
-4.56867 8.12685 -4.66495 255 0 0
-4.70131 8.13546 -4.68587 255 0 0
-4.74662 8.10261 -4.68426 255 0 0
-4.76967 8.07599 -4.68104 255 0 0
-4.84157 8.13153 -4.70518 255 0 0
-4.87675 8.03813 -4.68748 255 0 0
-4.94425 8.06291 -4.70357 255 0 0
-5.04838 8.16738 -4.7446 255 0 0
-5.04911 8.10399 -4.72932 255 0 0
-5.11148 8.11807 -4.74219 255 0 0
-5.14991 8.09374 -4.74219 255 0 0
-5.20042 8.08817 -4.74863 255 0 0
-5.28307 8.0479 -4.75185 255 0 0
-5.50143 8.00293 -4.77599 255 0 0
-5.57159 8.06397 -4.80173 255 0 0
-5.60996 8.07848 -4.81139 255 0 0
-5.58721 8.00515 -4.79047 255 0 0
-5.67981 8.01573 -4.80817 255 0 0
-5.73473 8.05268 -4.82587 255 0 0
-5.7538 8.03906 -4.82587 255 0 0
-5.834 8.02982 -4.83714 255 0 0
-5.9937 8.0872 -4.87737 255 0 0
-6.00837 8.02714 -4.8661 255 0 0
-6.04875 8.02144 -4.87174 255 0 0
-6.21398 8.0405 -4.90473 255 0 0
-6.27712 8.06277 -4.92082 255 0 0
-6.29093 8.00194 -4.90955 255 0 0
-6.45105 8.04734 -4.94818 255 0 0
-6.55644 8.0998 -4.97875 255 0 0
-6.62325 7.98683 -4.96588 255 0 0
-6.66828 7.96397 -4.9691 255 0 0
-6.78593 8.02685 -5.0045 255 0 0
-6.82757 7.99886 -5.00611 255 0 0
-6.88317 8.02538 -5.0222 255 0 0
-7.14616 8.05746 -5.07853 255 0 0
-7.46765 8.26078 -5.18313 255 0 0
-5.60589 8.03191 -4.88807 255 0 0
-3.1974 9.27601 -4.89303 255 0 0
-3.16676 8.91187 -4.78871 255 0 0
-3.17278 8.79638 -4.75724 255 0 0
-3.2178 8.60034 -4.70756 255 0 0
-3.23662 8.52723 -4.68935 255 0 0
-3.34756 8.33922 -4.6496 255 0 0
-3.35259 8.29481 -4.63801 255 0 0
-3.37698 8.24244 -4.62642 255 0 0
-3.41579 8.28113 -4.64132 255 0 0
-3.43769 8.22339 -4.62807 255 0 0
-3.55318 8.27815 -4.65623 255 0 0
-3.58789 8.17124 -4.63139 255 0 0
-3.64768 8.17546 -4.63967 255 0 0
-3.72901 8.20045 -4.65623 255 0 0
-3.7488 8.1667 -4.6496 255 0 0
-3.80559 8.1373 -4.64877 255 0 0
-3.93461 8.13502 -4.66451 255 0 0
-3.96863 8.15597 -4.67444 255 0 0
-4.04944 8.22271 -4.70259 255 0 0
-4.05366 8.15796 -4.68603 255 0 0
-4.10493 8.16372 -4.69431 255 0 0
-4.12377 8.12905 -4.68769 255 0 0
-4.16033 8.12932 -4.69266 255 0 0
-4.20982 8.15441 -4.70591 255 0 0
-4.37174 8.08791 -4.71087 255 0 0
-4.39627 8.08739 -4.71419 255 0 0
-4.43968 8.1213 -4.72909 255 0 0
-4.50555 8.08172 -4.72826 255 0 0
-4.56038 8.08961 -4.7382 255 0 0
-4.62381 8.13439 -4.7589 255 0 0
-4.64274 8.07828 -4.74731 255 0 0
-4.74825 8.12749 -4.77546 255 0 0
-4.82601 8.12732 -4.78705 255 0 0
-4.80784 8.05316 -4.76552 255 0 0
-4.94114 8.05784 -4.78705 255 0 0
-5.19822 8.02189 -4.81851 255 0 0
-5.42809 8.01783 -4.85495 255 0 0
-5.45656 8.01886 -4.85991 255 0 0
-5.60605 8.07285 -4.898 255 0 0
-5.77262 8.06536 -4.9245 255 0 0
-5.78448 8.00148 -4.91125 255 0 0
-5.90438 8.04617 -4.94271 255 0 0
-5.95344 8.07283 -4.95762 255 0 0
-6.10287 7.9746 -4.96093 255 0 0
-6.34847 7.99679 -5.01061 255 0 0
-6.46528 7.96784 -5.02551 255 0 0
-6.54091 7.96411 -5.03876 255 0 0
-6.58838 7.98323 -5.05201 255 0 0
-6.64054 7.96916 -5.05863 255 0 0
-6.76309 7.96146 -5.08016 255 0 0
-7.02066 7.95386 -5.12819 255 0 0
-7.137 7.97067 -5.15468 255 0 0
-6.24128 7.97763 -5.07834 255 0 0
-4.68319 8.01613 -5.16222 255 0 0
-3.27567 8.16012 -5.07682 255 0 0
-3.16755 9.1894 -4.95405 255 0 0
-3.14712 8.92361 -4.87573 255 0 0
-3.19318 8.91913 -4.87913 255 0 0
-3.13068 8.67966 -4.80422 255 0 0
-3.15891 8.69327 -4.81103 255 0 0
-3.18721 8.7068 -4.81784 255 0 0
-3.19725 8.60754 -4.79059 255 0 0
-3.23852 8.53222 -4.77357 255 0 0
-3.24073 8.47742 -4.75824 255 0 0
-3.26147 8.38235 -4.73356 255 0 0
-3.32672 8.2873 -4.71398 255 0 0
-3.35566 8.21815 -4.6978 255 0 0
-3.39822 8.18345 -4.69298 255 0 0
-3.51504 8.13601 -4.69355 255 0 0
-3.54621 8.12858 -4.69525 255 0 0
-3.58186 8.13131 -4.70036 255 0 0
-3.70736 8.12722 -4.71483 255 0 0
-3.78254 8.16357 -4.73441 255 0 0
-3.85247 8.16179 -4.74292 255 0 0
-3.92499 8.16448 -4.75314 255 0 0
-3.94406 8.10547 -4.73952 255 0 0
-4.03394 8.14248 -4.76165 255 0 0
-4.05571 8.06586 -4.74377 255 0 0
-4.14546 8.12402 -4.77187 255 0 0
-4.20573 8.0993 -4.77357 255 0 0
-4.2449 8.10414 -4.78038 255 0 0
-4.26846 8.07909 -4.77697 255 0 0
-4.37999 8.05745 -4.78719 255 0 0
-4.4372 8.02609 -4.78719 255 0 0
-4.47527 8.04983 -4.79911 255 0 0
-4.61445 8.02906 -4.81443 255 0 0
-4.81492 8.02176 -4.84338 255 0 0
-4.90315 8.06007 -4.86721 255 0 0
-4.94643 8.06647 -4.87573 255 0 0
-5.09117 8.02239 -4.88764 255 0 0
-5.30028 8.07412 -4.93532 255 0 0
-5.49358 8.03225 -4.95745 255 0 0
-5.66217 8.03113 -4.9864 255 0 0
-5.74197 8.02254 -4.99831 255 0 0
-6.38653 8.00567 -5.11239 255 0 0
-6.82757 8.11505 -5.22306 255 0 0
-6.96253 8.23574 -5.27754 255 0 0
-7.03917 8.20727 -5.28606 255 0 0
-7.05769 8.07266 -5.25882 255 0 0
-7.0234 7.97604 -5.22987 255 0 0
-7.11553 7.94669 -5.24179 255 0 0
-7.25457 8.02507 -5.28776 255 0 0
-3.96199 8.29172 -5.13012 255 0 0
-3.12589 8.73118 -5.24507 255 0 0
-3.15216 9.14474 -5.02773 255 0 0
-3.12791 8.86914 -4.94377 255 0 0
-3.11155 8.69112 -4.88955 255 0 0
-3.14921 8.73102 -4.90529 255 0 0
-3.15845 8.69202 -4.8948 255 0 0
-3.22638 8.38024 -4.81084 255 0 0
-3.29031 8.25316 -4.7811 255 0 0
-3.30815 8.2129 -4.77148 255 0 0
-3.33674 8.1168 -4.747 255 0 0
-3.40291 8.08623 -4.74612 255 0 0
-3.5275 8.11197 -4.76886 255 0 0
-3.54 8.08822 -4.76361 255 0 0
-3.61655 8.05429 -4.76361 255 0 0
-3.89775 8.05881 -4.80209 255 0 0
-4.48556 8.02349 -4.87731 255 0 0
-4.75889 8.01429 -4.91754 255 0 0
-5.17469 8.00637 -4.984 255 0 0
-5.28425 8.00824 -5.00324 255 0 0
-5.32484 8.02828 -5.01549 255 0 0
-5.4164 8.00056 -5.02423 255 0 0
-6.59896 7.95755 -5.23588 255 0 0
-6.70724 8.0492 -5.2796 255 0 0
-6.68326 7.98186 -5.25861 255 0 0
-7.0433 8.0562 -5.34957 255 0 0
-7.07713 8.05627 -5.35657 255 0 0
-3.10287 9.14225 -5.19914 255 0 0
-3.10109 8.59761 -5.11313 255 0 0
-3.83036 8.11494 -5.05649 255 0 0
-3.15603 8.43527 -4.90153 255 0 0
-3.10952 9.16183 -5.11699 255 0 0
-3.11254 8.62937 -4.9554 255 0 0
-3.12469 8.53601 -4.92847 255 0 0
-3.14851 8.35475 -4.8764 255 0 0
-3.20746 8.27255 -4.85844 255 0 0
-3.20274 8.20262 -4.8369 255 0 0
-3.22519 8.14589 -4.82253 255 0 0
-3.25275 8.15893 -4.82971 255 0 0
-3.28513 8.12791 -4.82433 255 0 0
-3.3173 8.09677 -4.81894 255 0 0
-3.34074 8.09918 -4.82253 255 0 0
-3.44308 8.07439 -4.82792 255 0 0
-3.50709 8.06503 -4.8333 255 0 0
-4.74981 8.04237 -5.35569 255 0 0
-3.09216 9.0402 -5.16599 255 0 0
-3.08642 8.95403 -5.13836 255 0 0
-3.07481 8.85218 -5.10521 255 0 0
-3.12701 8.93404 -5.13652 255 0 0
-3.10197 8.79556 -5.09047 255 0 0
-3.12752 8.41983 -4.97629 255 0 0
-3.13774 8.38636 -4.96708 255 0 0
-3.17919 8.25768 -4.93208 255 0 0
-3.2921 8.11742 -4.90261 255 0 0
-3.39983 8.07892 -4.90446 255 0 0
-3.48511 8.06673 -4.91182 255 0 0
-4.14805 8.20098 -5.04535 255 0 0
-4.19561 8.07981 -5.0168 255 0 0
-6.48902 7.95846 -5.40265 255 0 0
-3.13804 9.31842 -5.34912 255 0 0
-3.15888 9.23526 -5.32458 255 0 0
-3.09516 8.77626 -5.16977 255 0 0
-3.15877 8.32214 -5.03195 255 0 0
-3.19433 8.35604 -5.04706 255 0 0
-3.19385 8.23745 -5.0093 255 0 0
-3.20796 8.18732 -4.99514 255 0 0
-3.23808 8.17845 -4.99608 255 0 0
-3.46311 8.09476 -4.99891 255 0 0
-3.94945 8.31611 -5.13579 255 0 0
-4.01348 8.27307 -5.13201 255 0 0
-4.06245 8.27384 -5.13956 255 0 0
-4.35376 8.19344 -5.16033 255 0 0
-4.6586 8.01763 -5.15844 255 0 0
-4.09096 8.06439 -5.24878 255 0 0
-3.76518 8.07585 -5.20127 255 0 0
-3.35732 8.08498 -5.06328 255 0 0
-3.39135 8.05879 -5.05941 255 0 0
-3.85477 8.16665 -5.15998 255 0 0
-4.33869 8.16509 -5.2354 255 0 0
-4.38597 8.1837 -5.24894 255 0 0
-4.39482 8.08473 -5.21993 255 0 0
-4.341 8.07677 -5.29431 255 0 0
-4.39988 8.11699 -5.31708 255 0 0
-4.41475 8.03041 -5.29233 255 0 0
-5.2277 8.00486 -5.43488 255 0 0
-5.45299 8.0136 -5.48239 255 0 0
-3.11386 8.8293 -5.27601 255 0 0
-3.12274 8.99015 -5.33016 255 0 0
-3.11845 8.64576 -5.21606 255 0 0
-3.14835 8.47591 -5.16384 255 0 0
-3.16 8.41551 -5.14547 255 0 0
-3.16541 8.33963 -5.1213 255 0 0
-3.16124 8.21105 -5.07875 255 0 0
-3.42412 8.13666 -5.17157 255 0 0
-4.20327 8.14172 -5.46491 255 0 0
