ply
format ascii 1.0
comment Created by Open3D
element vertex 55
property double x
property double y
property double z
property uchar red
property uchar green
property uchar blue
end_header
37.5213 7.15756 -5.02221 255 0 0
37.9909 6.78141 -5.37631 255 0 0
37.2144 7.64923 -4.05443 255 0 0
37.7389 7.10639 -5.03837 255 0 0
37.4032 7.04318 -5.32987 255 0 0
37.7901 7.02329 -5.04114 255 0 0
37.5584 7.90575 -5.35794 255 0 0
37.6742 8.7736 -4.09173 255 0 0
37.5186 7.71176 -5.03052 255 0 0
37.617 7.82499 -5.36151 255 0 0
39.9983 6.16509 -3.85124 255 0 0
37.3793 7.5908 -5.33701 255 0 0
36.9136 8.04465 -3.72817 255 0 0
37.3007 7.20719 -5.32375 255 0 0
37.659 8.86424 -4.09205 255 0 0
37.2374 7.93043 -3.74154 255 0 0
40.593 6.45397 -4.22263 255 0 0
37.5954 7.72756 -5.35794 255 0 0
37.0423 7.33965 -3.72736 255 0 0
37.7468 8.7905 -3.77285 255 0 0
40.4517 6.3332 -3.87292 255 0 0
39.4376 8.00878 -3.84081 255 0 0
37.1553 7.6371 -3.73512 255 0 0
37.1658 7.73113 -3.73646 255 0 0
37.2103 7.83248 -3.7394 255 0 0
37.0984 7.99283 -3.73593 255 0 0
37.7447 8.69573 -3.77178 255 0 0
38.0478 6.97789 -5.06054 255 0 0
40.5042 6.63693 -4.21946 255 0 0
37.282 7.75531 -4.05917 255 0 0
39.2946 8.27121 -4.17141 255 0 0
36.9268 8.04753 -4.04368 255 0 0
36.9248 8.13884 -4.04463 255 0 0
36.9682 8.24036 -4.0481 255 0 0
37.4923 7.42881 -5.02406 255 0 0
38.1331 6.90013 -5.06608 255 0 0
37.6131 7.26755 -5.03098 255 0 0
37.4182 7.32196 -5.01667 255 0 0
37.818 7.58657 -5.05177 255 0 0
38.2985 6.64907 -5.40081 255 0 0
38.1218 6.71154 -5.38652 255 0 0
37.8312 6.8455 -5.36355 255 0 0
37.7116 6.91624 -5.35437 255 0 0
37.5747 6.98325 -5.34365 255 0 0
37.2088 7.09796 -5.31405 255 0 0
37.3579 7.31017 -5.33038 255 0 0
37.3462 7.39986 -5.33089 255 0 0
37.5402 7.53084 -5.34977 255 0 0
40.3132 7.29461 -3.87399 255 0 0
40.5713 6.54918 -3.87987 255 0 0
38.4464 6.58088 -5.41254 255 0 0
40.4481 6.43093 -3.87345 255 0 0
40.3878 7.40705 -3.87827 255 0 0
39.2079 8.25296 -3.83278 255 0 0
40.5807 6.74829 -4.22452 255 0 0
