ply
format ascii 1.0
comment Created by Open3D
element vertex 1276
property double x
property double y
property double z
property uchar red
property uchar green
property uchar blue
end_header
-4.74477 6.79812 -5.05646 255 0 0
-4.75931 7.13883 -4.29897 255 0 0
-4.61082 6.84554 -5.12111 255 0 0
-2.39776 6.62307 -4.53062 255 0 0
-2.03452 6.66246 -4.56832 255 0 0
-2.42905 8.02247 -4.70044 255 0 0
-4.08814 6.9976 -4.38961 255 0 0
-4.6479 7.04385 -4.41229 255 0 0
-3.64835 7.32047 -4.11892 255 0 0
-1.48362 6.54614 -5.06227 255 0 0
-2.10012 6.76234 -4.54399 255 0 0
-3.89167 7.15913 -4.25614 255 0 0
-3.1665 7.1884 -5.50506 255 0 0
-4.17192 7.02579 -4.26239 255 0 0
-2.64064 6.81064 -4.35331 255 0 0
-1.53457 7.993 -4.9241 255 0 0
-3.68069 6.84821 -4.50473 255 0 0
-4.88451 7.28912 -4.2731 255 0 0
-4.05737 7.02116 -5.538 255 0 0
-1.45641 6.57045 -4.93624 255 0 0
-2.34482 7.13023 -5.4244 255 0 0
-1.94828 6.84204 -4.55586 255 0 0
-2.68208 7.01604 -5.42683 255 0 0
-1.62904 6.60408 -4.70228 255 0 0
-2.3 8.07724 -4.7829 255 0 0
-4.9042 7.50951 -4.24416 255 0 0
-4.12754 7.06503 -4.26551 255 0 0
-1.46693 6.54444 -5.05984 255 0 0
-1.58865 7.04828 -5.36912 255 0 0
-4.84976 6.87882 -5.10304 255 0 0
-3.04586 7.26193 -4.18036 255 0 0
-4.83907 6.91574 -4.64205 255 0 0
-3.09833 7.17147 -5.48597 255 0 0
-1.72404 7.95624 -4.84862 255 0 0
-4.00434 7.00588 -4.23426 255 0 0
-2.1059 6.78092 -5.31097 255 0 0
-1.43092 6.6035 -4.94794 255 0 0
-3.45646 8.0004 -4.88788 255 0 0
-2.42674 6.67836 -5.10014 255 0 0
-2.13443 6.62247 -4.56528 255 0 0
-3.1953 6.68718 -4.59335 255 0 0
-2.57572 6.64319 -4.55982 255 0 0
-2.86795 7.34519 -4.32503 255 0 0
-2.3855 7.37163 -4.56741 255 0 0
-2.41692 7.12116 -4.4919 255 0 0
-4.13069 6.97515 -5.53683 255 0 0
-4.03733 7.06359 -5.54971 255 0 0
-4.94878 6.84548 -4.87715 255 0 0
-3.51351 6.80565 -4.53795 255 0 0
-3.13826 6.6897 -4.58561 255 0 0
-3.60159 6.93587 -4.37516 255 0 0
-1.44318 6.62233 -4.82397 255 0 0
-3.56306 6.94195 -4.23044 255 0 0
-2.69808 6.63015 -4.5717 255 0 0
-4.09479 7.08586 -4.19288 255 0 0
-3.67614 7.0183 -4.19364 255 0 0
-4.29876 7.02895 -4.35516 255 0 0
-1.54542 7.21455 -4.72023 255 0 0
-1.4506 7.01524 -4.70897 255 0 0
-1.48153 7.34007 -4.76074 255 0 0
-3.58722 6.77023 -4.53887 255 0 0
-4.87953 7.09825 -4.46218 255 0 0
-3.46607 7.08044 -4.1827 255 0 0
-1.45407 6.71038 -4.79403 255 0 0
-3.73706 7.19675 -5.538 255 0 0
-4.62747 6.81781 -4.73041 255 0 0
-2.55473 8.02419 -4.63593 255 0 0
-4.8802 6.81849 -5.17082 255 0 0
-1.3596 6.65459 -5.09873 255 0 0
-3.29912 7.23229 -4.12999 255 0 0
-3.64176 6.77578 -4.549 255 0 0
-4.6461 7.00492 -4.47848 255 0 0
-1.35701 6.68233 -4.90776 255 0 0
-1.33541 6.86765 -4.84699 255 0 0
-3.8345 6.82089 -4.52089 255 0 0
-1.92269 6.57428 -5.05649 255 0 0
-4.03102 7.67367 -4.16883 255 0 0
-3.13281 7.02147 -4.26707 255 0 0
-1.44753 6.75757 -4.74551 255 0 0
-2.94369 6.8582 -5.40496 255 0 0
-4.76542 7.11141 -4.37019 255 0 0
-3.10875 6.7513 -4.53166 255 0 0
-4.7281 6.86054 -4.68428 255 0 0
-1.85442 6.60144 -4.59299 255 0 0
-2.73796 6.77412 -4.35391 255 0 0
-4.04367 7.63167 -4.16101 255 0 0
-3.35212 7.70865 -4.17765 255 0 0
-3.5417 8.19772 -4.71398 255 0 0
-1.58185 6.54615 -4.80595 255 0 0
-1.44224 6.65576 -4.83748 255 0 0
-4.49203 7.13427 -4.33426 255 0 0
-1.90655 7.28197 -4.63396 255 0 0
-1.80282 6.98713 -4.59249 255 0 0
-3.87809 6.86029 -4.53884 255 0 0
-1.893 6.58857 -4.59229 255 0 0
-3.18971 7.38299 -4.155 255 0 0
-1.797 7.59404 -4.73065 255 0 0
-1.24524 6.83549 -4.96289 255 0 0
-3.15311 6.8906 -4.16607 255 0 0
-2.23612 6.66632 -4.52617 255 0 0
-4.7983 7.05149 -4.43804 255 0 0
-1.37886 6.8314 -4.83596 255 0 0
-2.39789 7.2916 -4.54347 255 0 0
-1.23612 6.92507 -4.93094 255 0 0
-1.8643 6.98524 -4.59744 255 0 0
-4.54032 7.4836 -4.19015 255 0 0
-4.69782 6.92147 -4.61844 255 0 0
-1.71867 7.18691 -4.65485 255 0 0
-3.84585 7.95152 -4.21005 255 0 0
-3.78235 6.91887 -4.32503 255 0 0
-4.64684 6.93445 -4.5369 255 0 0
-4.52301 7.25959 -4.21583 255 0 0
-1.90561 6.57368 -5.0541 255 0 0
-4.33732 7.4851 -4.16457 255 0 0
-2.80642 7.447 -4.34655 255 0 0
-4.03543 7.09928 -4.40783 255 0 0
-2.5044 6.94333 -4.44586 255 0 0
-2.20077 8.16817 -4.80316 255 0 0
-1.31518 7.73861 -5.50268 255 0 0
-3.70108 6.96514 -4.25458 255 0 0
-2.47191 7.76406 -4.62503 255 0 0
-4.35606 7.06607 -4.29832 255 0 0
-4.82468 6.94767 -5.03893 255 0 0
-4.27112 6.8553 -5.52395 255 0 0
-1.75386 6.63454 -4.59506 255 0 0
-2.4902 6.70405 -4.50245 255 0 0
-2.5555 7.0588 -4.41854 255 0 0
-2.52253 6.64589 -4.55389 255 0 0
-1.6116 7.43736 -4.73404 255 0 0
-2.98243 8.33046 -4.44988 255 0 0
-1.25829 6.90709 -5.13284 255 0 0
-3.16359 7.46798 -4.17318 255 0 0
-1.78966 7.10989 -4.63407 255 0 0
-3.43622 6.7341 -4.57508 255 0 0
-4.85109 6.9857 -4.66216 255 0 0
-2.85058 6.91087 -5.41063 255 0 0
-4.44308 7.16912 -4.185 255 0 0
-4.14686 6.78056 -4.63372 255 0 0
-2.85149 7.00713 -4.23063 255 0 0
-2.40967 6.88457 -4.48446 255 0 0
-3.00218 6.81536 -5.39767 255 0 0
-2.82114 6.83948 -4.31584 255 0 0
-1.76743 7.02174 -4.6014 255 0 0
-1.2118 7.56392 -5.49488 255 0 0
-2.20554 8.1093 -4.78474 255 0 0
-4.26692 6.99551 -4.41611 255 0 0
-1.53413 7.79099 -4.85283 255 0 0
-3.94583 7.17744 -4.12185 255 0 0
-2.0761 7.66931 -4.70629 255 0 0
-2.54783 6.7852 -4.40166 255 0 0
-3.68935 7.16704 -5.51693 255 0 0
-1.37081 6.70946 -4.85325 255 0 0
-2.60239 8.14046 -4.59735 255 0 0
-4.58712 6.93383 -4.52669 255 0 0
-4.48406 7.51083 -4.18873 255 0 0
-3.14509 7.57387 -4.19743 255 0 0
-1.20342 7.13224 -5.37283 255 0 0
-2.01944 6.84482 -5.04328 255 0 0
-3.7943 6.76812 -4.5711 255 0 0
-4.24408 7.52858 -4.16243 255 0 0
-2.78755 8.02518 -4.50498 255 0 0
-1.49788 7.07445 -5.37201 255 0 0
-3.38481 7.01954 -4.1577 255 0 0
-3.2363 6.98466 -4.55084 255 0 0
-1.62032 6.99523 -4.64731 255 0 0
-3.84367 7.03105 -4.21864 255 0 0
-1.2913 6.76937 -4.93877 255 0 0
-1.52079 6.93872 -4.68618 255 0 0
-2.24249 8.09339 -4.7829 255 0 0
-3.05334 6.84336 -4.55243 255 0 0
-1.63755 6.77662 -4.7028 255 0 0
-5.11282 6.86456 -5.15571 255 0 0
-3.44564 6.83238 -4.46523 255 0 0
-1.9486 6.60471 -4.60403 255 0 0
-2.50797 7.1113 -4.42932 255 0 0
-1.2952 6.96914 -4.88451 255 0 0
-2.25313 6.85143 -4.52373 255 0 0
-3.84166 6.75839 -4.57601 255 0 0
-4.34803 6.8514 -4.61425 255 0 0
-4.5892 6.9909 -4.46579 255 0 0
-3.69517 6.85564 -5.47524 255 0 0
-4.28056 6.76279 -5.41306 255 0 0
-3.1413 7.6672 -4.22016 255 0 0
-3.09969 7.17462 -4.16395 255 0 0
-1.88525 7.37881 -4.6649 255 0 0
-3.85265 7.29206 -4.13654 255 0 0
-3.69708 7.07868 -4.13984 255 0 0
-1.38421 6.65427 -4.83185 255 0 0
-1.27431 6.8117 -5.09228 255 0 0
-4.86237 7.52314 -4.24131 255 0 0
-4.19532 6.84159 -4.58552 255 0 0
-4.1426 7.09081 -4.20046 255 0 0
-4.68534 6.95618 -5.01319 255 0 0
-1.41357 6.59901 -4.87791 255 0 0
-4.22412 7.15228 -4.29988 255 0 0
-4.79706 7.01386 -4.50553 255 0 0
-1.37079 6.70939 -4.98775 255 0 0
-3.02697 6.8277 -5.40739 255 0 0
-1.54408 6.66611 -4.78446 255 0 0
-3.63888 6.88744 -4.43828 255 0 0
-1.39555 6.91412 -4.73454 255 0 0
-3.05559 7.9931 -4.2929 255 0 0
-3.29206 7.33161 -4.73744 255 0 0
-4.3372 7.11073 -4.30613 255 0 0
-2.88748 7.14405 -4.27203 255 0 0
-1.99371 7.19553 -4.61269 255 0 0
-4.43895 7.25819 -4.20408 255 0 0
-3.30089 6.70272 -4.54488 255 0 0
-1.83841 6.95435 -5.35427 255 0 0
-2.54548 6.65873 -5.32417 255 0 0
-4.09686 7.12846 -4.27645 255 0 0
-3.7004 6.80727 -4.56741 255 0 0
-3.45002 7.65911 -4.17619 255 0 0
-2.9307 6.96421 -4.22787 255 0 0
-3.90003 7.77921 -4.17736 255 0 0
-2.26598 6.67646 -4.86906 255 0 0
-1.23205 7.04701 -5.12121 255 0 0
-4.21801 7.14193 -5.53709 255 0 0
-2.59403 7.06042 -5.43169 255 0 0
-2.31239 7.703 -4.66503 255 0 0
-3.72882 7.078 -4.14363 255 0 0
-4.63352 7.15044 -4.28305 255 0 0
-3.17901 7.43067 -4.1656 255 0 0
-1.40796 6.64976 -4.89858 255 0 0
-2.09237 7.62179 -4.69213 255 0 0
-3.83993 6.92636 -4.55141 255 0 0
-1.40403 6.63122 -4.95731 255 0 0
-3.9589 6.77638 -4.60057 255 0 0
-4.89231 6.83541 -5.58456 255 0 0
-3.47244 6.92633 -4.56741 255 0 0
-3.33 6.88496 -4.53426 255 0 0
-2.51065 6.66216 -4.55784 255 0 0
-3.9147 7.12082 -4.24989 255 0 0
-1.54398 6.59452 -4.95497 255 0 0
-4.59905 7.04225 -4.40424 255 0 0
-4.46054 7.08426 -4.39298 255 0 0
-2.83956 7.99105 -4.50056 255 0 0
-3.94028 7.76738 -4.17925 255 0 0
-4.63707 6.81455 -5.11697 255 0 0
-1.94666 6.65622 -4.55684 255 0 0
-4.4079 7.00064 -4.43929 255 0 0
-2.35028 6.61411 -4.58789 255 0 0
-2.96701 7.98771 -4.35926 255 0 0
-4.12639 6.83785 -4.57296 255 0 0
-4.73862 7.07141 -4.43321 255 0 0
-2.42443 8.11116 -4.72737 255 0 0
-1.39931 6.76713 -4.94681 255 0 0
-3.36815 6.75824 -5.29449 255 0 0
-4.49018 6.76987 -5.14938 255 0 0
-2.71882 8.01068 -4.57096 255 0 0
-3.10478 7.00321 -4.25879 255 0 0
-3.80336 7.07644 -4.29642 255 0 0
-1.24142 6.90734 -4.99275 255 0 0
-3.93835 6.90939 -4.56218 255 0 0
-1.58069 6.82416 -4.6489 255 0 0
-3.61924 6.92963 -4.30515 255 0 0
-3.37879 7.82064 -4.20702 255 0 0
-4.80696 6.88724 -4.70582 255 0 0
-3.40954 7.00699 -4.58215 255 0 0
-4.2352 7.01816 -4.34309 255 0 0
-2.59208 6.7327 -4.39061 255 0 0
-3.91512 6.73807 -4.65437 255 0 0
-3.49065 7.62822 -4.17325 255 0 0
-2.44693 7.56137 -4.56039 255 0 0
-2.37564 6.73608 -4.90658 255 0 0
-3.29268 6.68598 -4.60785 255 0 0
-2.49093 6.70598 -4.43664 255 0 0
-3.79496 7.12146 -4.23426 255 0 0
-1.94552 6.89438 -4.57368 255 0 0
-4.64282 6.9641 -4.54371 255 0 0
-4.5404 6.95244 -4.5992 255 0 0
-1.75564 6.83779 -4.60275 255 0 0
-4.54793 6.87461 -4.65555 255 0 0
-2.84004 8.23925 -4.49115 255 0 0
-4.50012 7.12835 -4.25881 255 0 0
-3.55368 6.90352 -4.28942 255 0 0
-4.53458 6.97962 -4.45419 255 0 0
-1.69489 6.66678 -4.60127 255 0 0
-3.05811 7.12475 -5.45973 255 0 0
-3.13034 7.74493 -4.23835 255 0 0
-1.79715 6.96514 -5.35427 255 0 0
-2.89261 7.67571 -4.3447 255 0 0
-4.89627 7.5756 -4.25695 255 0 0
-4.76263 7.03488 -4.42838 255 0 0
-1.2272 7.01926 -5.03868 255 0 0
-2.21594 8.07189 -4.77369 255 0 0
-4.95853 7.51462 -4.25268 255 0 0
-2.70198 8.15111 -4.53203 255 0 0
-1.96499 6.60255 -4.93762 255 0 0
-1.46549 6.538 -4.85723 255 0 0
-2.96579 8.22251 -4.42019 255 0 0
-4.72351 7.08513 -4.35769 255 0 0
-2.80628 7.55499 -4.37636 255 0 0
-4.83103 7.17247 -4.31715 255 0 0
-4.68176 6.82787 -4.7433 255 0 0
-1.2229 7.19563 -5.18444 255 0 0
-3.85639 6.89806 -4.54602 255 0 0
-4.49364 6.84533 -5.41173 255 0 0
-4.28267 7.07782 -4.29051 255 0 0
-1.52773 6.63135 -4.96902 255 0 0
-1.26906 7.15859 -5.39016 255 0 0
-3.04585 6.98169 -4.17734 255 0 0
-4.17909 6.85151 -4.58552 255 0 0
-2.65359 7.97349 -4.55393 255 0 0
-1.62632 6.80074 -4.77794 255 0 0
-2.80202 6.93262 -5.41144 255 0 0
-4.08651 7.62493 -4.16457 255 0 0
-4.3467 7.0322 -4.43763 255 0 0
-4.86643 7.60832 -4.25979 255 0 0
-3.48143 6.78291 -4.45625 255 0 0
-3.1674 7.57683 -4.20046 255 0 0
-4.68387 7.1907 -4.22317 255 0 0
-2.3811 7.1547 -5.4402 255 0 0
-5.07759 6.98871 -4.78303 255 0 0
-4.62161 7.74122 -4.17641 255 0 0
-4.63502 7.20882 -4.22024 255 0 0
-4.37838 6.84529 -4.61784 255 0 0
-4.41193 6.79084 -4.68345 255 0 0
-2.96954 8.05296 -4.37644 255 0 0
-3.41866 7.15463 -4.12469 255 0 0
-4.24323 7.12666 -4.22243 255 0 0
-3.5986 7.39551 -4.13066 255 0 0
-2.22606 6.82358 -4.85144 255 0 0
-4.32442 6.79638 -5.51459 255 0 0
-2.28417 6.78285 -4.50439 255 0 0
-1.62124 6.64012 -4.64988 255 0 0
-3.48419 8.11742 -4.84587 255 0 0
-4.68831 6.96059 -4.55053 255 0 0
-1.69022 6.9946 -5.35551 255 0 0
-2.21211 6.83574 -4.51406 255 0 0
-2.29897 6.61855 -4.58317 255 0 0
-3.60134 8.28178 -4.74462 255 0 0
-2.45455 7.64674 -4.58732 255 0 0
-1.78093 7.68862 -4.76159 255 0 0
-1.9051 6.81289 -5.1567 255 0 0
-2.40083 6.7564 -5.27129 255 0 0
-2.20368 7.95332 -4.81107 255 0 0
-1.2439 7.5353 -5.48435 255 0 0
-2.05677 6.79295 -4.54993 255 0 0
-2.97537 7.21341 -4.23044 255 0 0
-1.64358 7.29202 -4.68554 255 0 0
-3.82607 7.81585 -4.17736 255 0 0
-4.87194 6.87561 -4.7148 255 0 0
-3.26363 7.08765 -4.23044 255 0 0
-1.79529 6.60083 -4.652 255 0 0
-2.96166 7.58518 -4.25457 255 0 0
-4.00272 6.79577 -4.61346 255 0 0
-1.64208 6.93936 -4.62908 255 0 0
-2.62565 7.0687 -4.42932 255 0 0
-4.60475 6.83654 -4.73133 255 0 0
-4.28651 7.1414 -4.30613 255 0 0
-2.51262 7.23367 -4.46702 255 0 0
-3.43654 7.10522 -4.11484 255 0 0
-3.24701 6.92154 -4.18538 255 0 0
-4.83952 7.02217 -4.51464 255 0 0
-3.87115 7.24371 -4.12773 255 0 0
-4.46666 6.94696 -4.5852 255 0 0
-2.39879 6.90597 -4.49013 255 0 0
-4.38968 7.1206 -4.24138 255 0 0
-1.60288 6.77368 -4.69856 255 0 0
-2.80273 6.70449 -5.2426 255 0 0
-2.20201 6.64285 -4.51429 255 0 0
-4.9071 6.96015 -4.66566 255 0 0
-1.40672 7.47048 -5.46815 255 0 0
-3.45601 6.93454 -4.56741 255 0 0
-3.13359 7.59699 -4.20198 255 0 0
-4.91652 7.15207 -4.403 255 0 0
-1.35032 6.81498 -4.82713 255 0 0
-1.31595 6.94318 -4.87568 255 0 0
-4.70295 7.10893 -4.36004 255 0 0
-3.69316 6.8714 -4.30019 255 0 0
-3.23777 7.1652 -4.3184 255 0 0
-2.03791 6.67356 -4.90729 255 0 0
-4.9109 7.07182 -4.53865 255 0 0
-4.04263 6.95753 -5.43144 255 0 0
-2.53286 7.12796 -4.50664 255 0 0
-1.43265 7.27562 -5.38308 255 0 0
-4.19504 6.78682 -4.64385 255 0 0
-4.10177 6.98286 -5.53332 255 0 0
-2.39244 7.21731 -4.51953 255 0 0
-1.39408 6.62295 -5.08779 255 0 0
-4.69906 7.01238 -4.48897 255 0 0
-2.76115 7.48785 -4.35318 255 0 0
-1.37768 6.74309 -4.80065 255 0 0
-3.424 7.20971 -4.64477 255 0 0
-1.39261 6.98487 -5.24941 255 0 0
-4.56954 6.99706 -4.46413 255 0 0
-3.34077 7.34666 -4.37967 255 0 0
-1.45414 7.07455 -5.36788 255 0 0
-3.99313 7.10306 -5.55517 255 0 0
-1.40925 7.06837 -4.72553 255 0 0
-1.69401 7.15879 -4.64297 255 0 0
-2.44015 7.18956 -4.51585 255 0 0
-2.09357 7.03459 -4.56821 255 0 0
-4.80647 7.11779 -4.37801 255 0 0
-3.92586 6.9834 -4.28999 255 0 0
-1.65366 7.81021 -5.24866 255 0 0
-2.33826 6.78356 -4.91982 255 0 0
-4.85743 6.97716 -4.58373 255 0 0
-3.24187 6.70275 -4.53607 255 0 0
-4.05924 7.10193 -4.33826 255 0 0
-2.87645 7.21505 -4.29025 255 0 0
-2.40297 6.71194 -4.97035 255 0 0
-3.45594 6.77273 -4.51953 255 0 0
-2.96405 7.75364 -4.29832 255 0 0
-2.68369 6.80179 -4.3557 255 0 0
-2.22013 7.59134 -4.69402 255 0 0
-4.46723 7.13233 -4.25502 255 0 0
-1.23905 7.13691 -5.37778 255 0 0
-2.08044 6.75546 -5.29612 255 0 0
-4.69007 7.05305 -4.42114 255 0 0
-3.60051 7.18178 -4.29642 255 0 0
-1.37513 6.65016 -5.03024 255 0 0
-1.44235 7.41782 -4.78605 255 0 0
-3.26137 6.82544 -4.50664 255 0 0
-3.17638 6.98517 -4.19343 255 0 0
-2.95671 7.87409 -4.32879 255 0 0
-3.13444 7.16159 -5.48836 255 0 0
-1.85568 6.69737 -4.56224 255 0 0
-2.74199 6.97376 -5.41873 255 0 0
-2.03654 6.81341 -4.55488 255 0 0
-2.38032 8.21129 -4.7543 255 0 0
-4.2372 6.85506 -4.5963 255 0 0
-3.62321 6.93724 -4.37856 255 0 0
-3.04272 6.69124 -4.57207 255 0 0
-2.48551 7.2666 -4.4742 255 0 0
-2.47333 7.06645 -4.48085 255 0 0
-3.49531 7.09752 -4.19052 255 0 0
-4.46543 6.80236 -4.69634 255 0 0
-4.20877 7.20408 -4.38493 255 0 0
-2.17074 6.65401 -4.58047 255 0 0
-4.28442 6.85853 -4.60528 255 0 0
-4.3895 7.0453 -4.44757 255 0 0
-2.42504 6.7233 -5.04787 255 0 0
-2.8717 7.96165 -4.49559 255 0 0
-1.27307 6.80507 -5.02053 255 0 0
-1.5911 6.5844 -4.75651 255 0 0
-2.93172 6.6984 -4.55854 255 0 0
-1.55235 7.12312 -4.68782 255 0 0
-4.05369 6.93862 -5.42684 255 0 0
-2.47529 7.01863 -4.46612 255 0 0
-3.59365 7.38529 -4.12773 255 0 0
-3.08519 7.0948 -4.14208 255 0 0
-2.33599 7.61743 -4.64016 255 0 0
-4.96194 7.36685 -4.301 255 0 0
-3.46494 8.12566 -4.84587 255 0 0
-3.29135 7.01607 -4.14573 255 0 0
-4.04394 6.8287 -4.5568 255 0 0
-3.326 7.22309 -4.13075 255 0 0
-4.78151 7.53445 -4.23279 255 0 0
-2.35333 7.21369 -4.58452 255 0 0
-4.77791 6.88031 -4.69864 255 0 0
-3.57797 7.01189 -4.17958 255 0 0
-2.68854 6.65186 -4.57764 255 0 0
-4.10943 7.11124 -4.12773 255 0 0
-2.46378 8.00021 -4.69685 255 0 0
-3.6571 6.98196 -4.25297 255 0 0
-1.25425 6.88495 -5.05331 255 0 0
-3.239 6.69682 -4.60302 255 0 0
-4.32681 7.11267 -4.23077 255 0 0
-2.63208 6.64789 -4.43538 255 0 0
-4.90957 6.99883 -4.5982 255 0 0
-4.8386 6.79435 -5.15425 255 0 0
-4.02707 7.00702 -4.38299 255 0 0
-2.14555 6.96688 -4.5508 255 0 0
-2.6494 7.03033 -5.42764 255 0 0
-1.46305 7.33817 -4.75871 255 0 0
-1.99553 6.64747 -4.55886 255 0 0
-3.19096 7.17464 -5.50387 255 0 0
-3.13105 6.97304 -4.25382 255 0 0
-1.59641 6.74633 -4.75416 255 0 0
-4.66476 7.4871 -4.2072 255 0 0
-4.96701 6.83651 -4.95692 255 0 0
-2.48476 7.96745 -4.68877 255 0 0
-1.39305 7.11901 -4.74314 255 0 0
-1.44127 6.57593 -5.004 255 0 0
-1.35541 6.71524 -5.12546 255 0 0
-4.74827 6.90731 -4.62368 255 0 0
-1.82105 6.63345 -4.60127 255 0 0
-1.84364 7.00781 -4.60338 255 0 0
-2.75283 6.7647 -4.42007 255 0 0
-2.35966 6.74169 -4.90658 255 0 0
-3.04486 6.93449 -4.23312 255 0 0
-1.43486 6.62185 -4.95614 255 0 0
-3.39932 7.61879 -4.76448 255 0 0
-3.63292 6.79793 -4.48318 255 0 0
-1.65901 6.59101 -4.70011 255 0 0
-4.54604 7.126 -4.26487 255 0 0
-1.95647 6.57392 -4.85775 255 0 0
-2.04427 6.69439 -5.26395 255 0 0
-3.79911 7.08868 -4.155 255 0 0
-4.25022 6.93112 -4.54497 255 0 0
-3.63455 7.12276 -5.48883 255 0 0
-2.69445 8.00117 -4.56585 255 0 0
-3.05535 6.78292 -5.39402 255 0 0
-1.40481 7.08992 -5.37036 255 0 0
-4.82983 6.86781 -4.70493 255 0 0
-2.8206 7.99776 -4.50056 255 0 0
-1.61074 7.02966 -5.36293 255 0 0
-2.37788 8.13074 -4.72917 255 0 0
-1.43027 7.44974 -5.46086 255 0 0
-4.19512 6.91462 -5.52864 255 0 0
-4.2526 7.48134 -4.1532 255 0 0
-1.68432 6.65819 -4.66258 255 0 0
-2.6249 6.86648 -4.36827 255 0 0
-2.50629 6.67453 -5.32458 255 0 0
-4.15196 7.06832 -5.49575 255 0 0
-1.49267 7.2621 -4.73339 255 0 0
-1.70527 6.64159 -4.65835 255 0 0
-2.86216 7.13003 -4.26541 255 0 0
-4.96373 7.07604 -4.54859 255 0 0
-4.18815 6.97753 -4.39955 255 0 0
-1.5742 6.7236 -4.74335 255 0 0
-3.74423 6.77266 -4.56434 255 0 0
-2.29141 8.12011 -4.79579 255 0 0
-4.22145 7.55106 -4.16457 255 0 0
-2.58805 6.75406 -4.39674 255 0 0
-4.03202 7.0543 -5.54503 255 0 0
-4.04427 7.11484 -4.19288 255 0 0
-2.1221 7.00871 -4.5624 255 0 0
-2.131 6.7209 -4.5331 255 0 0
-3.37142 7.85468 -4.21436 255 0 0
-4.26351 7.02735 -4.34953 255 0 0
-1.52768 7.25763 -4.73441 255 0 0
-1.87264 6.91774 -5.3419 255 0 0
-3.59503 6.92324 -4.30019 255 0 0
-4.73812 7.01656 -4.49642 255 0 0
-3.71934 7.24645 -4.11011 255 0 0
-4.59161 7.10421 -4.34207 255 0 0
-3.34524 7.00098 -4.14833 255 0 0
-4.0499 7.08559 -4.18682 255 0 0
-4.96772 7.15364 -4.48954 255 0 0
-2.72841 8.16599 -4.53865 255 0 0
-2.33754 7.52679 -4.61162 255 0 0
-2.40939 6.83179 -4.46747 255 0 0
-2.36213 6.69777 -4.95909 255 0 0
-1.29727 7.12116 -5.37531 255 0 0
-2.72769 6.93736 -4.33333 255 0 0
-2.25436 6.82782 -5.06624 255 0 0
-1.48009 6.60314 -4.81947 255 0 0
-3.63822 7.06779 -4.12999 255 0 0
-2.96178 7.08494 -4.19504 255 0 0
-1.22179 7.08734 -5.2092 255 0 0
-1.54197 6.80362 -4.77145 255 0 0
-1.25628 6.85002 -4.90166 255 0 0
-2.45125 7.48376 -4.53705 255 0 0
-3.46317 7.61584 -4.16737 255 0 0
-4.08809 7.03577 -4.25301 255 0 0
-3.23508 7.02563 -4.14156 255 0 0
-2.8566 7.97901 -4.49891 255 0 0
-3.0038 6.97537 -4.1709 255 0 0
-3.50001 8.15428 -4.77761 255 0 0
-3.08366 6.69681 -4.57981 255 0 0
-2.05097 7.68468 -4.70912 255 0 0
-1.60797 6.86783 -4.73454 255 0 0
-2.97558 7.02416 -4.18056 255 0 0
-3.24557 6.87602 -4.51953 255 0 0
-2.98512 7.09347 -4.19987 255 0 0
-1.90545 6.87697 -4.56378 255 0 0
-2.29492 6.76171 -4.49859 255 0 0
-2.98376 7.58864 -4.2577 255 0 0
-3.4272 7.8305 -4.21436 255 0 0
-3.92028 7.01234 -4.29642 255 0 0
-3.00193 7.4782 -4.23114 255 0 0
-3.95562 7.11511 -4.327 255 0 0
-4.74426 7.1714 -4.22758 255 0 0
-4.98697 7.07343 -4.5519 255 0 0
-2.64614 7.28215 -4.56741 255 0 0
-2.98001 6.76503 -4.44954 255 0 0
-4.18974 7.53623 -4.15746 255 0 0
-3.95413 6.84251 -4.54602 255 0 0
-3.1347 7.11623 -4.15302 255 0 0
-2.34799 6.70835 -4.48698 255 0 0
-2.59709 6.62833 -5.31963 255 0 0
-2.96792 7.99016 -4.43643 255 0 0
-2.40662 8.15715 -4.73994 255 0 0
-2.77525 6.77376 -4.29135 255 0 0
-1.32525 6.90276 -4.86023 255 0 0
-4.80234 6.95061 -4.56755 255 0 0
-2.89278 6.87405 -5.40253 255 0 0
-1.60873 6.62306 -4.70768 255 0 0
-3.29199 6.84775 -4.51769 255 0 0
-4.47402 7.14317 -4.18353 255 0 0
-1.40368 6.6296 -5.02388 255 0 0
-4.30631 7.2521 -4.185 255 0 0
-1.29805 7.52977 -5.48597 255 0 0
-3.27569 7.06967 -4.22723 255 0 0
-1.43767 7.39357 -4.77694 255 0 0
-1.98809 6.79789 -5.02031 255 0 0
-2.35644 7.28174 -4.5361 255 0 0
-3.79155 6.72577 -4.62983 255 0 0
-4.15416 6.84711 -4.58014 255 0 0
-1.83689 6.69115 -4.55819 255 0 0
-4.54799 6.80434 -4.71199 255 0 0
-3.79276 6.97717 -4.34159 255 0 0
-5.0303 6.85502 -5.05476 255 0 0
-4.26001 6.94708 -4.40286 255 0 0
-2.58921 7.93676 -4.61319 255 0 0
-3.95492 7.07431 -4.17167 255 0 0
-2.83944 6.90701 -4.26959 255 0 0
-4.60033 7.74726 -4.17503 255 0 0
-4.78163 6.81644 -4.99141 255 0 0
-2.37977 6.69714 -4.48698 255 0 0
-2.54588 8.12951 -4.66654 255 0 0
-2.41603 6.64889 -5.1567 255 0 0
-3.00524 6.9334 -4.22815 255 0 0
-4.9272 6.88415 -4.72737 255 0 0
-2.78657 6.8476 -4.31409 255 0 0
-2.20251 7.73487 -4.73933 255 0 0
-3.86028 7.14169 -4.32056 255 0 0
-3.74392 7.81146 -4.16741 255 0 0
-3.79262 7.79425 -4.16883 255 0 0
-3.86467 7.84752 -4.18873 255 0 0
-3.84796 7.76708 -4.16883 255 0 0
-3.89677 7.81894 -4.18589 255 0 0
-3.97622 7.74693 -4.17878 255 0 0
-3.99069 7.70751 -4.17167 255 0 0
-4.02334 7.70334 -4.17452 255 0 0
-4.1028 7.59036 -4.15888 255 0 0
-4.14286 7.57826 -4.16101 255 0 0
-1.54589 7.05325 -5.36706 255 0 0
-4.15782 7.60571 -4.16883 255 0 0
-4.16361 7.53123 -4.1532 255 0 0
-4.306 7.51299 -4.1667 255 0 0
-4.37538 7.48926 -4.17025 255 0 0
-4.44742 7.53036 -4.18825 255 0 0
-4.48731 7.45589 -4.17736 255 0 0
-4.54617 7.43347 -4.1802 255 0 0
-4.58151 7.43177 -4.18446 255 0 0
-4.62904 7.46917 -4.19868 255 0 0
-4.69456 7.49527 -4.21289 255 0 0
-4.7335 7.51777 -4.22284 255 0 0
-4.93135 7.51211 -4.24842 255 0 0
-4.95122 7.46497 -4.24131 255 0 0
-4.98466 7.47684 -4.24842 255 0 0
-3.95903 7.00348 -4.29964 255 0 0
-3.14697 6.68765 -4.5175 255 0 0
-2.82919 7.7859 -4.4426 255 0 0
-2.69102 7.68842 -4.47561 255 0 0
-4.95285 6.85111 -4.80132 255 0 0
-4.20038 7.03567 -4.41611 255 0 0
-4.81658 6.86627 -4.77922 255 0 0
-2.57294 7.02873 -4.41136 255 0 0
-3.41504 8.00864 -4.25548 255 0 0
-3.44744 7.77615 -4.2036 255 0 0
-3.55614 7.7229 -4.20262 255 0 0
-3.52917 7.61673 -4.17472 255 0 0
-3.5065 7.521 -4.14975 255 0 0
-3.48821 7.43569 -4.12773 255 0 0
-3.52918 7.45397 -4.13654 255 0 0
-3.58654 7.48316 -4.14975 255 0 0
-3.56601 7.24107 -4.09102 255 0 0
-3.81303 7.60569 -4.20408 255 0 0
-3.70215 7.25524 -4.11011 255 0 0
-3.77978 7.27903 -4.12479 255 0 0
-4.00445 7.12322 -4.11696 255 0 0
-4.11476 7.23885 -4.1571 255 0 0
-4.1516 7.26352 -4.16737 255 0 0
-4.21172 7.20914 -4.16297 255 0 0
-4.22306 7.18936 -4.16003 255 0 0
-4.52472 7.11116 -4.18353 255 0 0
-4.80748 7.21108 -4.2452 255 0 0
-1.90226 6.92929 -4.5816 255 0 0
-4.27893 7.20601 -5.57384 255 0 0
-1.49608 6.82601 -4.70915 255 0 0
-3.05268 8.04262 -4.30503 255 0 0
-3.08469 8.01222 -4.30048 255 0 0
-3.09777 7.96167 -4.28912 255 0 0
-3.1147 7.92165 -4.28078 255 0 0
-3.11682 7.87218 -4.26866 255 0 0
-3.1229 7.83324 -4.25956 255 0 0
-3.12883 7.79432 -4.25047 255 0 0
-3.14443 7.72701 -4.23532 255 0 0
-3.16342 7.51716 -4.18531 255 0 0
-3.19593 7.34947 -4.14742 255 0 0
-3.20427 7.32115 -4.14136 255 0 0
-3.23485 7.32005 -4.14439 255 0 0
-3.25335 7.26849 -4.13378 255 0 0
-3.26522 7.22595 -4.12469 255 0 0
-3.33616 7.17788 -4.1209 255 0 0
-3.35088 7.12104 -4.10877 255 0 0
-3.39198 7.14228 -4.11863 255 0 0
-3.44843 7.08688 -4.11181 255 0 0
-3.5029 7.09169 -4.11938 255 0 0
-3.54868 7.07838 -4.12166 255 0 0
-3.59955 7.07487 -4.12696 255 0 0
-3.69072 7.10751 -4.1459 255 0 0
-3.77919 7.11214 -4.15803 255 0 0
-3.82999 7.06561 -4.15348 255 0 0
-3.88906 7.07416 -4.16308 255 0 0
-3.95188 7.10839 -4.17924 255 0 0
-3.98831 7.0945 -4.18076 255 0 0
-4.01626 7.10471 -4.18682 255 0 0
-4.10327 7.10058 -4.19743 255 0 0
-4.18788 7.11014 -4.21107 255 0 0
-4.29304 7.1331 -4.23077 255 0 0
-4.34617 7.08759 -4.22774 255 0 0
-4.4423 7.16786 -4.25956 255 0 0
-4.42937 7.1093 -4.24441 255 0 0
-4.58512 7.1312 -4.27169 255 0 0
-4.65738 7.13156 -4.2823 255 0 0
-4.68669 7.13941 -4.28836 255 0 0
-4.73858 7.16278 -4.30124 255 0 0
-4.79826 7.16042 -4.30957 255 0 0
-2.37076 6.67178 -4.95008 255 0 0
-1.29128 6.76924 -4.87126 255 0 0
-4.49346 6.91633 -4.5817 255 0 0
-3.03229 6.79618 -5.39524 255 0 0
-1.87248 6.57585 -4.84874 255 0 0
-2.88483 7.60041 -4.32378 255 0 0
-4.09797 6.79076 -4.62819 255 0 0
-4.65384 6.80445 -5.19595 255 0 0
-1.73628 6.59968 -4.64565 255 0 0
-3.13431 6.93625 -4.17573 255 0 0
-2.96794 8.16772 -4.40613 255 0 0
-2.96596 8.10237 -4.38894 255 0 0
-2.95967 7.79758 -4.30926 255 0 0
-2.96012 7.68866 -4.28114 255 0 0
-2.96814 7.65532 -4.27332 255 0 0
-2.99302 7.5334 -4.24442 255 0 0
-3.01047 7.42302 -4.21786 255 0 0
-3.02295 7.37833 -4.2077 255 0 0
-3.03622 7.33624 -4.19833 255 0 0
-3.07719 7.26404 -4.18427 255 0 0
-3.08081 7.20116 -4.16864 255 0 0
-3.17073 7.10645 -4.15458 255 0 0
-3.1893 7.05788 -4.14442 255 0 0
-3.18115 7.03991 -4.13896 255 0 0
-3.34074 7.03438 -4.15614 255 0 0
-3.42211 7.03282 -4.16552 255 0 0
-3.47706 7.01842 -4.16864 255 0 0
-3.62036 7.05359 -4.1952 255 0 0
-3.63895 7.02813 -4.1913 255 0 0
-3.73799 7.07504 -4.21551 255 0 0
-3.79356 7.05821 -4.21864 255 0 0
-3.82102 7.06906 -4.22489 255 0 0
-3.88516 7.02756 -4.22333 255 0 0
-3.97036 7.14163 -4.26239 255 0 0
-3.96525 7.09279 -4.24989 255 0 0
-4.03893 7.16467 -4.27723 255 0 0
-4.07138 7.16252 -4.28114 255 0 0
-4.12787 7.14316 -4.28426 255 0 0
-4.20715 7.16227 -4.29988 255 0 0
-4.2551 7.12732 -4.29832 255 0 0
-4.34224 7.08119 -4.29988 255 0 0
-4.39361 7.08929 -4.30926 255 0 0
-4.44323 7.13154 -4.32645 255 0 0
-4.4751 7.1449 -4.33426 255 0 0
-4.49319 7.08012 -4.32176 255 0 0
-4.53658 7.09263 -4.33113 255 0 0
-4.56559 7.10084 -4.33738 255 0 0
-4.59922 7.07911 -4.33738 255 0 0
-4.63141 7.09181 -4.3452 255 0 0
-4.6637 7.10439 -4.35301 255 0 0
-4.85081 7.12865 -4.38738 255 0 0
-4.88681 7.14508 -4.39676 255 0 0
-2.89158 7.92827 -4.41229 255 0 0
-2.52977 7.22769 -4.46702 255 0 0
-4.50493 6.80961 -4.70555 255 0 0
-4.03093 6.86226 -4.56398 255 0 0
-3.89594 7.167 -5.55907 255 0 0
-1.47179 6.63987 -4.76754 255 0 0
-3.71525 6.95198 -4.39559 255 0 0
-4.965 6.83373 -4.87715 255 0 0
-2.84892 8.17062 -4.47344 255 0 0
-2.84801 8.07548 -4.44769 255 0 0
-2.85019 8.02097 -4.43321 255 0 0
-2.84263 7.93998 -4.41068 255 0 0
-2.94247 7.92152 -4.41551 255 0 0
-2.88646 7.49733 -4.29642 255 0 0
-2.88794 7.44847 -4.28355 255 0 0
-2.92198 7.48356 -4.29642 255 0 0
-2.92323 7.43469 -4.28355 255 0 0
-2.90769 7.34399 -4.2578 255 0 0
-2.89799 7.26909 -4.23688 255 0 0
-2.93409 7.30922 -4.25136 255 0 0
-2.94538 7.23786 -4.23366 255 0 0
-2.93692 7.16834 -4.21435 255 0 0
-2.96656 7.14394 -4.21113 255 0 0
-3.0948 6.98065 -4.1827 255 0 0
-3.35442 7.02019 -4.22401 255 0 0
-3.53387 7.00733 -4.24332 255 0 0
-3.56321 7.02404 -4.25136 255 0 0
-3.54659 6.95038 -4.23044 255 0 0
-3.61308 6.99852 -4.25136 255 0 0
-3.73408 7.02726 -4.2747 255 0 0
-3.859 7.05909 -4.29964 255 0 0
-3.89788 7.05056 -4.30286 255 0 0
-4.08729 7.11181 -4.3447 255 0 0
-4.09705 7.07042 -4.33585 255 0 0
-4.14885 7.06302 -4.34148 255 0 0
-4.17131 7.06286 -4.3447 255 0 0
-4.22899 7.06458 -4.35355 255 0 0
-4.35179 7.05915 -4.37045 255 0 0
-4.40904 7.07666 -4.38332 255 0 0
-4.4527 7.10913 -4.39781 255 0 0
-4.43216 7.0023 -4.36884 255 0 0
-4.50094 7.05531 -4.39218 255 0 0
-4.54573 7.03322 -4.39378 255 0 0
-4.64045 7.06897 -4.41712 255 0 0
-4.83408 7.06798 -4.44769 255 0 0
-4.89954 7.09129 -4.46379 255 0 0
-1.86033 7.39084 -4.66683 255 0 0
-4.25235 6.93459 -4.4722 255 0 0
-1.77382 6.64624 -4.60127 255 0 0
-3.68455 6.91422 -4.31012 255 0 0
-2.74485 8.11898 -4.52706 255 0 0
-2.75189 8.04541 -4.50719 255 0 0
-2.8071 7.66842 -4.40783 255 0 0
-2.79663 7.47467 -4.35318 255 0 0
-2.80613 7.39306 -4.33165 255 0 0
-2.83168 7.40737 -4.33827 255 0 0
-2.83309 7.35871 -4.32503 255 0 0
-2.82413 7.2839 -4.3035 255 0 0
-2.81343 7.15543 -4.26707 255 0 0
-2.83039 7.14874 -4.26707 255 0 0
-2.90216 7.08351 -4.25713 255 0 0
-2.89941 7.00567 -4.2356 255 0 0
-2.95686 6.91143 -4.21656 255 0 0
-3.66178 6.97075 -4.32171 255 0 0
-3.63369 6.87763 -4.29356 255 0 0
-3.72012 6.88238 -4.30681 255 0 0
-3.83392 6.97387 -4.34655 255 0 0
-3.88319 7.00439 -4.36146 255 0 0
-3.9766 7.1131 -4.40286 255 0 0
-3.89988 6.93719 -4.34655 255 0 0
-3.98818 7.05505 -4.38961 255 0 0
-3.9129 6.84589 -4.32503 255 0 0
-4.03805 6.98773 -4.37967 255 0 0
-4.10257 7.06069 -4.40783 255 0 0
-4.13032 7.03147 -4.40451 255 0 0
-4.12128 6.97813 -4.38961 255 0 0
-4.21236 7.0939 -4.43267 255 0 0
-4.28303 7.09741 -4.44426 255 0 0
-4.3115 7.10645 -4.45088 255 0 0
-4.37936 6.99204 -4.43267 255 0 0
-4.4395 7.0139 -4.44757 255 0 0
-4.49389 7.02588 -4.45916 255 0 0
-4.52106 6.99507 -4.45585 255 0 0
-4.76778 7.00664 -4.49891 255 0 0
-4.90515 7.02792 -4.52706 255 0 0
-2.73227 6.80645 -4.36288 255 0 0
-3.24522 7.15907 -5.50745 255 0 0
-2.5243 6.82067 -4.40994 255 0 0
-2.65323 6.77155 -4.40994 255 0 0
-2.65147 8.06271 -4.57947 255 0 0
-2.63575 8.11205 -4.59224 255 0 0
-2.72692 7.9724 -4.56074 255 0 0
-2.71843 7.88647 -4.5352 255 0 0
-2.68198 7.72124 -4.48412 255 0 0
-2.72862 7.13778 -4.32237 255 0 0
-2.81331 7.00833 -4.29513 255 0 0
-2.81942 6.97567 -4.28662 255 0 0
-2.80006 6.88075 -4.25767 255 0 0
-2.85537 6.87618 -4.26278 255 0 0
-2.89714 6.90731 -4.2764 255 0 0
-2.5973 6.69887 -4.51406 255 0 0
-2.92825 6.91244 -4.28151 255 0 0
-3.55358 8.11925 -4.69355 255 0 0
-3.52773 6.87312 -4.34791 255 0 0
-3.68915 7.02286 -4.41091 255 0 0
-4.3364 7.03417 -4.51137 255 0 0
-4.5752 7.04214 -4.55223 255 0 0
-4.54287 6.95622 -4.52499 255 0 0
-4.53475 6.90796 -4.51137 255 0 0
-4.70166 6.94481 -4.54882 255 0 0
-4.71811 6.93365 -4.54882 255 0 0
-4.74719 6.94094 -4.55563 255 0 0
-4.76998 6.9389 -4.55904 255 0 0
-4.94737 6.99962 -4.60501 255 0 0
-4.98848 7.0048 -4.61352 255 0 0
-5.11267 7.14329 -4.66971 255 0 0
-5.09039 7.04137 -4.79919 255 0 0
-3.7401 6.80322 -4.50114 255 0 0
-3.16992 7.01504 -4.55084 255 0 0
-2.75176 6.83155 -4.30534 255 0 0
-3.30301 7.12865 -5.50586 255 0 0
-1.41626 7.01669 -4.70689 255 0 0
-2.49696 8.17683 -4.67616 255 0 0
-2.50319 8.12817 -4.66216 255 0 0
-2.56007 8.17486 -4.6814 255 0 0
-2.5618 7.98087 -4.62368 255 0 0
-2.57211 7.94819 -4.61494 255 0 0
-2.68684 6.88135 -4.31234 255 0 0
-2.72653 6.86271 -4.31147 255 0 0
-3.57513 6.84518 -4.41729 255 0 0
-4.47496 7.01463 -4.60444 255 0 0
-4.45582 6.89411 -4.56946 255 0 0
-4.54154 6.9183 -4.59045 255 0 0
-4.57024 6.92617 -4.59745 255 0 0
-4.60518 6.94326 -4.60794 255 0 0
-4.58793 6.86411 -4.58433 255 0 0
-4.65445 6.91032 -4.60794 255 0 0
-4.79497 7.0108 -4.65867 255 0 0
-4.8091 6.9604 -4.64817 255 0 0
-4.95266 6.98953 -4.6814 255 0 0
-4.94005 6.9368 -4.66566 255 0 0
-5.00527 6.99323 -4.6919 255 0 0
-5.03489 6.99949 -4.6989 255 0 0
-3.49644 6.87225 -4.48408 255 0 0
-4.98321 6.82471 -4.95692 255 0 0
-1.395 6.82785 -4.76857 255 0 0
-1.32156 6.79644 -4.88477 255 0 0
-1.79386 6.62667 -4.59609 255 0 0
-2.43992 7.99004 -4.69146 255 0 0
-2.49713 7.90808 -4.67171 255 0 0
-2.44629 7.37977 -4.50473 255 0 0
-2.45142 7.33695 -4.49216 255 0 0
-2.47059 7.3364 -4.49395 255 0 0
-2.49514 7.35163 -4.50114 255 0 0
-2.54087 7.37133 -4.51191 255 0 0
-2.54535 7.1631 -4.44907 255 0 0
-2.57923 7.20427 -4.46523 255 0 0
-2.59231 6.87883 -4.36827 255 0 0
-2.60411 6.91014 -4.37904 255 0 0
-2.70168 6.77667 -4.35031 255 0 0
-3.5189 8.14495 -4.85844 255 0 0
-3.52985 6.81751 -4.47331 255 0 0
-3.5945 6.82302 -4.48453 255 0 0
-3.73667 6.913 -4.53166 255 0 0
-3.77434 6.94329 -4.54602 255 0 0
-3.9129 6.80837 -4.52986 255 0 0
-3.99246 6.85247 -4.555 255 0 0
-4.08773 6.82857 -4.56398 255 0 0
-4.30583 6.83853 -4.60348 255 0 0
-4.42987 6.87183 -4.634 255 0 0
-4.48879 6.87344 -4.64478 255 0 0
-4.50101 6.89212 -4.65196 255 0 0
-4.60062 6.88308 -4.66722 255 0 0
-4.63476 6.86349 -4.66812 255 0 0
-4.67981 6.85986 -4.6753 255 0 0
-4.92056 6.90944 -4.73276 255 0 0
-5.04765 7.01723 -4.78483 255 0 0
-2.62702 6.68133 -4.51212 255 0 0
-1.41261 6.59452 -5.07686 255 0 0
-4.39883 6.80595 -4.68529 255 0 0
-4.76212 6.82298 -4.75712 255 0 0
-1.4898 6.60972 -4.95614 255 0 0
-2.27664 8.14158 -4.80132 255 0 0
-2.3341 8.08769 -4.78935 255 0 0
-2.30435 7.8793 -4.72028 255 0 0
-2.30101 7.79918 -4.6945 255 0 0
-2.30839 7.75641 -4.6816 255 0 0
-2.3386 6.63107 -4.52617 255 0 0
-2.31132 7.63366 -4.64293 255 0 0
-2.36701 7.55836 -4.62451 255 0 0
-2.35312 7.45202 -4.58952 255 0 0
-2.35898 7.40935 -4.57662 255 0 0
-2.42539 7.25906 -4.5361 255 0 0
-2.49232 7.23048 -4.53426 255 0 0
-2.47298 7.11954 -4.49743 255 0 0
-2.52353 7.04867 -4.48085 255 0 0
-2.5373 6.93138 -4.44586 255 0 0
-2.69711 6.76516 -4.41332 255 0 0
-3.35242 6.7267 -4.55998 255 0 0
-2.73515 6.67586 -4.39061 255 0 0
-2.78899 6.67162 -4.39613 255 0 0
-3.44028 8.06783 -4.9063 255 0 0
-3.47255 8.0903 -4.91735 255 0 0
-3.08164 6.95103 -4.51953 255 0 0
-3.43211 7.50029 -4.73317 255 0 0
-3.20114 6.95193 -4.5361 255 0 0
-3.20118 6.86614 -4.51032 255 0 0
-3.2505 6.92898 -4.5361 255 0 0
-3.4066 6.95895 -4.56741 255 0 0
-3.49137 7.0473 -4.60609 255 0 0
-3.43935 6.79985 -4.52505 255 0 0
-3.50075 6.78094 -4.52874 255 0 0
-3.54993 6.77731 -4.53518 255 0 0
-3.61783 6.76969 -4.54347 255 0 0
-3.68713 6.78282 -4.55821 255 0 0
-3.88844 6.76581 -4.58583 255 0 0
-3.92919 6.78079 -4.59688 255 0 0
-4.03205 6.77194 -4.61162 255 0 0
-4.079 6.79569 -4.62635 255 0 0
-4.12847 6.80478 -4.6374 255 0 0
-4.22943 6.78838 -4.65029 255 0 0
-4.23961 6.76891 -4.64661 255 0 0
-4.29644 6.78785 -4.66196 255 0 0
-4.34309 6.77241 -4.66595 255 0 0
-4.4341 6.78966 -4.68713 255 0 0
-4.71707 6.8272 -4.74975 255 0 0
-4.75861 6.85251 -4.76448 255 0 0
-4.82644 6.84575 -4.77553 255 0 0
-4.85024 6.8107 -4.77062 255 0 0
-5.03445 6.91207 -4.83355 255 0 0
-1.49927 6.76382 -4.68586 255 0 0
-1.94437 7.96361 -4.79219 255 0 0
-1.95396 7.9213 -4.77897 255 0 0
-1.99196 7.91373 -4.7796 255 0 0
-2.04416 7.96147 -4.79974 255 0 0
-2.0519 7.91368 -4.78464 255 0 0
-2.05257 7.76454 -4.73555 255 0 0
-2.18073 7.79861 -4.75821 255 0 0
-2.18564 7.6071 -4.69591 255 0 0
-2.2083 7.61787 -4.70157 255 0 0
-2.22821 7.51962 -4.67137 255 0 0
-2.22786 7.4214 -4.63927 255 0 0
-2.24846 7.36305 -4.62228 255 0 0
-2.2468 7.26498 -4.59019 255 0 0
-2.24723 7.11675 -4.54204 255 0 0
-2.27313 7.19869 -4.57131 255 0 0
-2.29368 7.14561 -4.5562 255 0 0
-2.35657 7.16597 -4.56942 255 0 0
-2.34179 7.03658 -4.526 255 0 0
-2.37388 7.04922 -4.53355 255 0 0
-2.37811 7.00683 -4.52033 255 0 0
-2.35705 6.89104 -4.48069 255 0 0
-2.43275 6.82056 -4.46653 255 0 0
-2.44431 6.75162 -4.44576 255 0 0
-2.51944 6.68547 -4.43349 255 0 0
-2.55307 6.70235 -4.44293 255 0 0
-2.58485 6.71393 -4.45048 255 0 0
-2.63267 6.71913 -4.45803 255 0 0
-3.1304 6.73517 -4.52977 255 0 0
-3.18619 6.70896 -4.52977 255 0 0
-3.30824 6.71766 -4.55054 255 0 0
-3.40099 6.72401 -4.56659 255 0 0
-3.49838 6.71763 -4.5798 255 0 0
-3.55774 6.71462 -4.5883 255 0 0
-3.579 6.69704 -4.58641 255 0 0
-3.64773 6.71037 -4.60151 255 0 0
-3.68618 6.70512 -4.60623 255 0 0
-4.07222 6.74809 -4.68458 255 0 0
-4.79063 6.79495 -4.83184 255 0 0
-4.8646 6.83085 -4.85638 255 0 0
-4.88562 6.809 -4.85449 255 0 0
-2.25275 6.63745 -4.51825 255 0 0
-1.71148 8.08328 -4.89117 255 0 0
-1.72717 8.06298 -4.88536 255 0 0
-1.7462 7.87783 -4.82348 255 0 0
-1.76033 7.76705 -4.78674 255 0 0
-1.81612 7.51559 -4.70551 255 0 0
-1.8385 7.45324 -4.68617 255 0 0
-1.94106 7.27285 -4.63396 255 0 0
-1.96537 7.22623 -4.62042 255 0 0
-2.02631 7.18067 -4.61075 255 0 0
-2.0466 7.12318 -4.59335 255 0 0
-2.07553 7.06585 -4.57691 255 0 0
-2.18187 6.96717 -4.55467 255 0 0
-2.18973 6.87775 -4.52566 255 0 0
-2.26633 6.783 -4.50245 255 0 0
-2.31435 6.71418 -4.48505 255 0 0
-2.41901 6.70657 -4.49472 255 0 0
-2.44888 6.68984 -4.49278 255 0 0
-2.52391 6.69734 -4.50439 255 0 0
-2.55367 6.68013 -4.50245 255 0 0
-2.87362 6.65135 -4.53533 255 0 0
-2.99054 6.7026 -4.56821 255 0 0
-2.98379 6.68747 -4.5624 255 0 0
-3.35128 6.68465 -4.61655 255 0 0
-4.87644 6.81324 -4.93178 255 0 0
-2.22281 6.65274 -4.78659 255 0 0
-1.58743 7.45382 -4.738 255 0 0
-1.35232 6.78281 -4.74767 255 0 0
-1.52617 7.8487 -4.87263 255 0 0
-1.54182 7.73329 -4.83303 255 0 0
-1.54684 7.61705 -4.79245 255 0 0
-1.54992 7.49548 -4.74988 255 0 0
-1.5643 7.47561 -4.74394 255 0 0
-1.61154 7.35278 -4.70435 255 0 0
-1.62777 7.34356 -4.70237 255 0 0
-1.67565 7.27341 -4.68158 255 0 0
-1.69587 7.24326 -4.67267 255 0 0
-1.73959 7.19888 -4.66079 255 0 0
-1.73495 7.06956 -4.61526 255 0 0
-1.87225 6.94888 -4.58556 255 0 0
-1.90029 6.98696 -4.6014 255 0 0
-1.94401 6.95204 -4.59348 255 0 0
-1.9721 6.86389 -4.56576 255 0 0
-1.99998 6.83858 -4.55982 255 0 0
-2.05678 6.73535 -4.53013 255 0 0
-2.07072 6.66763 -4.50835 255 0 0
-2.15104 6.674 -4.51924 255 0 0
-2.18416 6.69513 -4.53013 255 0 0
-2.19142 6.66375 -4.52023 255 0 0
-2.27739 6.65816 -4.52815 255 0 0
-2.29385 6.62919 -4.52023 255 0 0
-2.34503 6.64923 -4.5331 255 0 0
-2.45199 6.62525 -4.53805 255 0 0
-2.48327 6.63713 -4.54597 255 0 0
-2.54615 6.63687 -4.55389 255 0 0
-2.60637 6.65194 -4.56675 255 0 0
-2.73791 6.63763 -4.57962 255 0 0
-2.74209 6.64785 -4.58358 255 0 0
-2.81282 6.68404 -4.60536 255 0 0
-2.81577 6.64691 -4.59348 255 0 0
-2.91425 6.6585 -4.6113 255 0 0
-3.56237 6.94062 -5.4812 255 0 0
-4.60748 6.87572 -4.97359 255 0 0
-4.73944 6.98278 -5.032 255 0 0
-4.79897 6.98104 -5.04355 255 0 0
-4.81276 6.89554 -5.02111 255 0 0
-5.3154 7.17198 -5.2072 255 0 0
-1.58854 7.08698 -4.67769 255 0 0
-1.61109 7.03119 -4.65946 255 0 0
-1.63063 6.96463 -4.63718 255 0 0
-1.67637 6.97353 -4.64427 255 0 0
-1.69962 6.92548 -4.62908 255 0 0
-1.73379 6.92267 -4.63111 255 0 0
-1.7462 6.86855 -4.61288 255 0 0
-1.78013 6.86551 -4.6149 255 0 0
-1.79614 6.82725 -4.60275 255 0 0
-1.8292 6.82132 -4.60376 255 0 0
-1.84265 6.77501 -4.58857 255 0 0
-1.8892 6.67464 -4.55751 255 0 0
-1.90779 6.69985 -4.56832 255 0 0
-2.0517 6.63419 -4.56021 255 0 0
-2.08514 6.65831 -4.57237 255 0 0
-2.10051 6.62466 -4.56224 255 0 0
-2.18663 6.62277 -4.57135 255 0 0
-2.23764 6.61874 -4.57591 255 0 0
-2.44816 6.63906 -4.60882 255 0 0
-2.49726 6.62662 -4.61085 255 0 0
-4.71297 6.78679 -5.04633 255 0 0
-4.81135 6.85882 -5.08886 255 0 0
-4.87259 6.85929 -5.10203 255 0 0
-1.23256 6.95269 -5.01112 255 0 0
-1.44508 6.98844 -4.69861 255 0 0
-1.4909 6.96012 -4.69171 255 0 0
-1.5413 6.87619 -4.66478 255 0 0
-1.57062 6.85458 -4.65926 255 0 0
-1.58926 6.75185 -4.62302 255 0 0
-1.60754 6.72219 -4.6137 255 0 0
-1.63337 6.72441 -4.6168 255 0 0
-1.65137 6.69464 -4.60748 255 0 0
-1.67122 6.70665 -4.6137 255 0 0
-1.6922 6.65618 -4.59713 255 0 0
-1.73438 6.65663 -4.60127 255 0 0
-1.82507 6.58689 -4.5847 255 0 0
-1.99819 6.59941 -4.60748 255 0 0
-1.99183 6.57846 -4.5992 255 0 0
-4.71608 6.96611 -5.18117 255 0 0
-1.20929 7.01484 -4.96584 255 0 0
-4.68674 6.85256 -5.45903 255 0 0
-1.37429 6.64613 -5.0963 255 0 0
-1.36486 6.93137 -4.73878 255 0 0
-1.40757 6.8894 -4.72608 255 0 0
-1.44164 6.84887 -4.71338 255 0 0
-1.45912 6.81168 -4.70068 255 0 0
-1.53616 6.77791 -4.69433 255 0 0
-1.5446 6.8152 -4.70915 255 0 0
-1.57197 6.78652 -4.70068 255 0 0
-1.66459 6.68004 -4.66893 255 0 0
-1.79241 6.59032 -4.64777 255 0 0
-1.82656 6.59227 -4.652 255 0 0
-4.46102 6.79565 -5.1515 255 0 0
-1.34465 6.82871 -4.76497 255 0 0
-1.43219 6.84425 -4.77794 255 0 0
-1.45631 6.8781 -4.79307 255 0 0
-1.46586 6.76475 -4.74984 255 0 0
-1.48772 6.78784 -4.76064 255 0 0
-1.49674 6.75241 -4.74767 255 0 0
-1.5442 6.76402 -4.75632 255 0 0
-2.03243 6.59956 -4.74335 255 0 0
-2.09083 6.67637 -4.77938 255 0 0
-2.16591 6.80295 -4.83631 255 0 0
-2.19511 6.81073 -4.84279 255 0 0
-2.23714 6.80278 -4.84496 255 0 0
-2.21901 6.69415 -4.80172 255 0 0
-2.22642 6.61135 -4.77145 255 0 0
-4.74578 6.83404 -5.30542 255 0 0
-1.38498 7.50164 -5.4803 255 0 0
-1.32514 6.72965 -4.85775 255 0 0
-1.49815 6.57412 -4.80933 255 0 0
-3.36054 7.07608 -5.49552 255 0 0
-1.40245 6.78229 -4.8183 255 0 0
-1.42519 6.8108 -4.83154 255 0 0
-1.61651 7.54641 -5.14052 255 0 0
-1.47114 6.71221 -4.79623 255 0 0
-1.50374 6.67163 -4.78299 255 0 0
-1.54987 6.54965 -4.73885 255 0 0
-1.57044 6.56706 -4.74768 255 0 0
-2.34984 6.61288 -4.85582 255 0 0
-2.43796 6.61139 -5.07438 255 0 0
-3.17775 6.71172 -5.38794 255 0 0
-1.21941 6.97468 -4.95008 255 0 0
-1.26523 6.76316 -4.86676 255 0 0
-1.34004 6.67984 -4.83861 255 0 0
-1.4017 6.62023 -4.81947 255 0 0
-1.44297 6.58369 -4.80821 255 0 0
-1.53279 6.54671 -4.80145 255 0 0
-2.04068 6.76873 -4.94558 255 0 0
-2.39871 6.65029 -4.94558 255 0 0
-2.40339 6.61411 -4.93206 255 0 0
-4.68313 7.02456 -5.51758 255 0 0
-4.7419 7.0763 -5.5491 255 0 0
-1.22202 6.98961 -5.16625 255 0 0
-3.7242 6.81251 -5.4645 255 0 0
-1.33204 6.72266 -4.99009 255 0 0
-1.32898 6.70718 -4.9158 255 0 0
-1.22703 7.11769 -5.08003 255 0 0
-1.26438 6.84841 -4.96978 255 0 0
-1.27467 6.81363 -4.956 255 0 0
-1.31077 6.74095 -4.92844 255 0 0
-1.48816 7.11174 -5.0984 255 0 0
-1.44021 6.57118 -4.86872 255 0 0
-2.25814 6.75847 -5.03868 255 0 0
-2.40183 6.70875 -5.03868 255 0 0
-2.4189 6.65678 -5.02031 255 0 0
-2.42912 6.63586 -5.01342 255 0 0
-3.95606 6.84585 -5.37172 255 0 0
-4.91942 6.80487 -5.58073 255 0 0
-1.23175 7.14511 -5.16336 255 0 0
-1.24437 6.97126 -5.0896 255 0 0
-1.26473 6.85029 -5.03926 255 0 0
-1.29993 6.77084 -5.00804 255 0 0
-1.38699 6.66769 -4.97136 255 0 0
-1.78876 6.57688 -4.9737 255 0 0
-3.4799 6.90032 -5.37175 255 0 0
-3.57395 7.04521 -5.44668 255 0 0
-3.7936 7.22169 -5.55907 255 0 0
-3.84139 7.20857 -5.56376 255 0 0
-3.86955 7.19959 -5.5661 255 0 0
-3.9501 7.12504 -5.55439 255 0 0
-4.09041 7.02059 -5.54503 255 0 0
-4.14308 6.93969 -5.52629 255 0 0
-4.2395 6.87699 -5.52473 255 0 0
-4.29309 6.81831 -5.51537 255 0 0
-4.32607 6.7635 -5.50288 255 0 0
-4.37265 6.76544 -5.51459 255 0 0
-3.78864 6.77687 -5.4645 255 0 0
-2.69933 6.98658 -5.41711 255 0 0
-1.23907 6.89427 -5.12568 255 0 0
-1.289 6.75722 -5.06961 255 0 0
-1.30742 6.72373 -5.05649 255 0 0
-1.34147 6.68702 -5.04337 255 0 0
-1.4638 6.60382 -5.01831 255 0 0
-1.50529 6.60545 -5.02309 255 0 0
-1.51913 6.55839 -5.004 255 0 0
-1.89946 6.73116 -5.12091 255 0 0
-2.36825 6.61496 -5.13523 255 0 0
-2.88292 6.85061 -5.31657 255 0 0
-2.95338 6.97177 -5.3786 255 0 0
-3.32922 7.09678 -5.4979 255 0 0
-3.38192 7.07775 -5.50029 255 0 0
-3.41079 7.052 -5.49552 255 0 0
-3.43869 7.02454 -5.48995 255 0 0
-3.49177 7.00629 -5.49313 255 0 0
-3.49639 6.97409 -5.4812 255 0 0
-3.54251 6.96277 -5.48597 255 0 0
-3.59278 6.91887 -5.47882 255 0 0
-3.63373 6.89747 -5.47882 255 0 0
-3.66699 6.86167 -5.47166 255 0 0
-3.73262 6.78961 -5.45734 255 0 0
-3.80495 6.73091 -5.45018 255 0 0
-1.34877 7.50461 -5.47868 255 0 0
-1.43573 7.38358 -5.43169 255 0 0
-1.43852 6.56345 -5.06551 255 0 0
-2.2073 6.76607 -5.24698 255 0 0
-2.37168 7.0427 -5.39037 255 0 0
-2.55092 7.07232 -5.43007 255 0 0
-2.61542 7.04117 -5.42683 255 0 0
-2.77175 6.95244 -5.41468 255 0 0
-2.98218 6.83575 -5.40253 255 0 0
-3.08748 6.76836 -5.39402 255 0 0
-3.10373 6.7404 -5.38551 255 0 0
-3.1379 6.73043 -5.38794 255 0 0
-3.2038 6.68455 -5.38187 255 0 0
-1.3479 7.11175 -5.37531 255 0 0
-1.37959 7.09487 -5.37036 255 0 0
-1.43212 7.09528 -5.37531 255 0 0
-1.64485 7.02538 -5.36458 255 0 0
-1.6921 7.00231 -5.35922 255 0 0
-1.72972 7.01226 -5.36788 255 0 0
-1.74821 6.98032 -5.35551 255 0 0
-1.7691 6.95864 -5.34809 255 0 0
-1.83501 6.94155 -5.34809 255 0 0
-2.01301 6.64843 -5.23921 255 0 0
-2.10611 6.72526 -5.28622 255 0 0
-2.34568 6.70175 -5.31097 255 0 0
-2.39462 6.73887 -5.33489 255 0 0
-2.43823 6.71004 -5.32912 255 0 0
-2.47921 6.69879 -5.33077 255 0 0
-2.57832 6.64989 -5.32582 255 0 0
-1.20353 7.08163 -4.99287 255 0 0
