ply
format ascii 1.0
comment Created by Open3D
element vertex 1173
property double x
property double y
property double z
property uchar red
property uchar green
property uchar blue
end_header
-3.91361 -24.8047 -2.31307 255 0 0
-0.574194 -22.0107 -2.82386 255 0 0
-1.46771 -22.0755 -3.19636 255 0 0
-2.39675 -22.3781 -2.28059 255 0 0
-4.66253 -23.1 -2.2938 255 0 0
-4.12299 -23.2572 -3.67139 255 0 0
0.369566 -22.2649 -3.0186 255 0 0
-4.23867 -22.9584 -2.87356 255 0 0
-3.0225 -22.6299 -2.47444 255 0 0
-0.0515299 -21.7332 -3.53789 255 0 0
-1.89064 -22.0961 -4.31225 255 0 0
-0.157614 -22.158 -2.82912 255 0 0
-5.02437 -23.1869 -3.67883 255 0 0
-0.257553 -21.7241 -3.71893 255 0 0
-4.83926 -23.1262 -3.47466 255 0 0
-2.56624 -22.4512 -2.84554 255 0 0
-5.22479 -23.3095 -2.29782 255 0 0
-1.35729 -21.9895 -3.9275 255 0 0
-3.81645 -22.7832 -3.24916 255 0 0
-4.10006 -22.813 -4.41669 255 0 0
0.154713 -21.7503 -3.53913 255 0 0
-2.38855 -22.3015 -3.39989 255 0 0
0.0513124 -21.6415 -4.07477 255 0 0
-0.463695 -21.7265 -3.71939 255 0 0
-1.20301 -22.0383 -2.6422 255 0 0
-1.57032 -22.0394 -4.30375 255 0 0
-1.30411 -21.9751 -4.29525 255 0 0
-4.53309 -23.0211 -3.26876 255 0 0
-1.20262 -22.0311 -2.4585 255 0 0
-3.23628 -22.5952 -3.2343 255 0 0
-0.103444 -21.8141 -3.1796 255 0 0
-1.96196 -22.3069 -2.65157 255 0 0
-3.59739 -22.8005 -2.47967 255 0 0
-1.25652 -22.0575 -2.45911 255 0 0
-3.12157 -22.556 -3.04161 255 0 0
-2.38972 -22.3125 -4.15132 255 0 0
-0.412955 -21.7684 -3.72262 255 0 0
-0.830631 -21.885 -3.73278 255 0 0
-3.98342e-15 -21.6848 -3.71569 255 0 0
-3.36899 -22.7525 -2.47797 255 0 0
-3.01407 -22.5667 -2.85189 255 0 0
-3.70462 -22.7779 -3.2479 255 0 0
-0.261117 -22.0247 -4.11165 255 0 0
-3.75671 -22.7576 -3.24726 255 0 0
-5.09238 -23.2344 -2.6921 255 0 0
-2.64928 -24.1941 -2.30344 255 0 0
-0.418617 -22.0669 -2.82583 255 0 0
-1.19771 -21.9411 -4.10662 255 0 0
0.102459 -21.6064 -4.07142 255 0 0
-3.1871 -22.6341 -2.28497 255 0 0
-4.83089 -23.0862 -4.45919 255 0 0
-1.14534 -21.9373 -3.92188 255 0 0
-0.257579 -21.7263 -3.35612 255 0 0
-3.7182 -22.8615 -2.28877 255 0 0
-2.4974 -22.3179 -3.96475 255 0 0
-4.62819 -23.504 -3.89535 255 0 0
-0.423941 -22.3475 -4.33046 255 0 0
-2.51174 -22.446 -2.65719 255 0 0
-2.11871 -22.2727 -3.02341 255 0 0
-3.2836 -22.5446 -4.3754 255 0 0
-3.06023 -22.5055 -4.36811 255 0 0
-1.6235 -22.0482 -4.11947 255 0 0
-1.46619 -22.0526 -3.56393 255 0 0
-3.64043 -22.7232 -3.24442 255 0 0
-5.15557 -23.2589 -2.29701 255 0 0
-2.6111 -22.3734 -3.03037 255 0 0
-1.51632 -22.0178 -3.74618 255 0 0
-0.363062 -21.873 -3.00067 255 0 0
-5.27562 -23.2775 -3.88842 255 0 0
-3.89294 -22.9063 -2.48283 255 0 0
-0.673684 -21.8495 -3.72955 255 0 0
-1.89321 -22.1261 -4.12897 255 0 0
-4.24709 -23.004 -2.48612 255 0 0
-3.69626 -22.7265 -3.43709 255 0 0
-4.01367e-15 -21.8494 -3.1815 255 0 0
0.0531071 -22.3984 -2.83809 255 0 0
-1.46232 -21.9943 -4.29828 255 0 0
-0.726133 -21.8673 -3.54823 255 0 0
-5.39388 -23.2865 -2.69551 255 0 0
-3.35007 -22.6247 -4.19267 255 0 0
-2.55234 -22.3297 -4.15468 255 0 0
-1.09392 -21.9519 -3.3718 255 0 0
-1.04949 -22.1152 -2.46009 255 0 0
-4.46691 -23.2665 -3.47867 255 0 0
-4.51983 -23.2443 -3.47794 255 0 0
-5.15381 -23.2509 -3.88426 255 0 0
-5.26939 -23.25 -4.0857 255 0 0
-0.0521734 -22.0046 -3.00656 255 0 0
-3.63531 -22.6912 -3.81822 255 0 0
-1.41016 -21.9977 -4.29828 255 0 0
-3.64101 -22.7268 -3.05285 255 0 0
-1.81646 -23.895 -2.29877 255 0 0
-3.8161 -22.7811 -3.05659 255 0 0
-0.102625 -21.6413 -4.07477 255 0 0
-0.107464 -22.662 -2.6594 255 0 0
-1.84171 -22.1422 -4.13009 255 0 0
-1.04375 -21.9942 -3.19067 255 0 0
-0.62108 -21.823 -3.18055 255 0 0
0.258829 -21.8317 -4.27642 255 0 0
-4.40298 -23.2308 -3.27856 255 0 0
-1.35585 -21.9662 -4.29464 255 0 0
0.259657 -21.9016 -3.36706 255 0 0
-1.74252 -22.225 -2.83415 255 0 0
-0.829645 -21.859 -4.09712 255 0 0
-3.07852 -22.64 -2.47481 255 0 0
-1.35788 -21.9989 -3.74387 255 0 0
-3.51806 -22.6464 -4.00507 255 0 0
-1.8339 -22.0483 -4.30678 255 0 0
-1.73391 -22.1152 -3.94077 255 0 0
-3.63758 -22.7054 -3.62717 255 0 0
-3.58347 -22.7123 -3.05178 255 0 0
-2.90254 -22.5459 -2.85057 255 0 0
-4.65397 -23.0576 -2.68444 255 0 0
-4.89892 -23.1375 -3.47612 255 0 0
-4.50188 -23.4486 -3.68957 255 0 0
-2.23662 -22.3857 -2.46751 255 0 0
-1.14776 -21.9837 -3.55773 255 0 0
-3.69984 -22.7486 -3.63089 255 0 0
-4.54501 -23.0816 -2.29329 255 0 0
-2.90544 -22.5685 -2.47286 255 0 0
-0.476204 -22.3126 -4.13959 255 0 0
-4.83683 -23.674 -3.70983 255 0 0
-2.5603 -22.3993 -3.21912 255 0 0
-4.50304 -23.158 -3.27572 255 0 0
-4.9604 -23.1568 -4.07192 255 0 0
-1.25435 -22.0194 -3.37655 255 0 0
-2.66995 -22.416 -3.2207 255 0 0
-4.19094e-15 -22.8144 -2.66383 255 0 0
-3.18075 -22.5891 -3.04348 255 0 0
-2.99915 -22.455 -4.36204 255 0 0
-2.11617 -22.246 -3.20837 255 0 0
-5.39977 -23.3119 -3.09459 255 0 0
-2.33619 -22.3122 -3.58749 255 0 0
-4.15099 -23.4152 -3.88149 255 0 0
-0.831813 -21.9161 -3.55195 255 0 0
-0.523531 -22.0763 -2.82627 255 0 0
-2.60839 -22.3503 -3.78035 255 0 0
-1.73069 -22.0742 -4.3086 255 0 0
-3.53173 -22.7343 -2.86086 255 0 0
-1.25106 -21.9615 -4.10886 255 0 0
-3.98489e-15 -21.6927 -3.35393 255 0 0
-3.57357 -22.6495 -4.19826 255 0 0
-0.602187 -23.0837 -2.28789 255 0 0
-5.27099 -23.257 -2.29731 255 0 0
-4.46472 -22.9609 -3.06997 255 0 0
-1.74757 -22.2895 -2.65055 255 0 0
0.0518468 -21.8669 -3.18245 255 0 0
-0.361469 -21.777 -3.5412 255 0 0
-0.516913 -21.7973 -3.54285 255 0 0
-3.13395 -22.6454 -2.66519 255 0 0
-3.78355 -24.7419 -2.31205 255 0 0
-0.417316 -21.9983 -3.92495 255 0 0
-2.66828 -22.402 -3.78497 255 0 0
-1.2024 -22.0271 -3.19288 255 0 0
-1.15466 -22.1158 -2.46021 255 0 0
-5.09673 -23.2543 -3.08897 255 0 0
-3.52332 -22.6802 -3.0499 255 0 0
-4.27541 -22.8538 -4.229 255 0 0
-3.29984 -22.6562 -2.47578 255 0 0
-4.11019 -22.8694 -2.67609 255 0 0
-4.51338 -23.5085 -3.89396 255 0 0
-0.157039 -22.0773 -4.30192 255 0 0
-2.62082 -22.4567 -2.84597 255 0 0
-0.696391 -22.5859 -2.46957 255 0 0
-0.488277 -22.8783 -2.47554 255 0 0
-2.9438 -22.4461 -4.17032 255 0 0
-1.31031 -22.0795 -3.19604 255 0 0
-2.77663 -22.4064 -3.78635 255 0 0
-1.6793 -22.0907 -3.38275 255 0 0
-0.986682 -21.8875 -4.10048 255 0 0
-4.54784 -23.096 -2.88079 255 0 0
-5.20914 -23.2396 -4.08366 255 0 0
-4.30396 -23.0064 -2.68103 255 0 0
-3.68936 -22.6841 -4.20329 255 0 0
-3.93105 -22.8031 -3.05847 255 0 0
-0.051406 -21.681 -3.3532 255 0 0
-5.19753 -23.1878 -4.27817 255 0 0
-3.78193 -22.9103 -2.2895 255 0 0
-2.68305 -22.526 -2.84882 255 0 0
-1.57369 -22.0867 -3.38202 255 0 0
-5.02052 -23.1691 -3.08442 255 0 0
-3.18512 -22.62 -2.85473 255 0 0
-1.8957 -22.1553 -3.38785 255 0 0
0.0521873 -22.0105 -3.00683 255 0 0
-4.04664 -22.8266 -3.25359 255 0 0
-0.527838 -22.2579 -4.32136 255 0 0
-4.17489 -22.9171 -2.6778 255 0 0
-1.03992 -21.9134 -4.28735 255 0 0
-4.36068 -23.0076 -2.68137 255 0 0
-3.63187 -22.6698 -4.20106 255 0 0
-3.29458 -22.62 -3.04562 255 0 0
-0.830943 -21.8932 -4.28432 255 0 0
-0.205787 -21.6976 -3.3543 255 0 0
-3.47347 -22.7142 -2.6686 255 0 0
-2.84469 -22.5181 -3.60609 255 0 0
-0.320136 -22.5019 -2.6548 255 0 0
-4.13693 -23.0182 -2.486 255 0 0
-4.22767 -23.2069 -4.06375 255 0 0
-2.60176 -22.2934 -4.34018 255 0 0
-1.5631 -21.9381 -2.45704 255 0 0
-4.45763 -23.5192 -3.89396 255 0 0
-0.475687 -22.2884 -2.64867 255 0 0
-4.87036 -23.0026 -4.25414 255 0 0
0.259652 -21.9011 -3.54988 255 0 0
-3.88321 -22.8491 -2.86721 255 0 0
-3.52229 -22.6736 -3.81545 255 0 0
0.482131 -22.5903 -3.03358 255 0 0
-4.05375 -23.1864 -3.6656 255 0 0
-0.993938 -22.0484 -2.82583 255 0 0
-2.51356 -22.4623 -2.4697 255 0 0
-1.14657 -21.9609 -3.37253 255 0 0
-1.25259 -21.9884 -2.82408 255 0 0
-2.22342 -22.2535 -4.14406 255 0 0
-0.213761 -22.5383 -2.65583 255 0 0
-0.257029 -21.6799 -3.89688 255 0 0
0.0514607 -21.704 -3.53583 255 0 0
-0.783618 -22.024 -4.11277 255 0 0
-0.0514425 -21.6964 -3.71662 255 0 0
-4.029 -23.3713 -3.87641 255 0 0
-0.989233 -21.9441 -3.18782 255 0 0
-0.673216 -21.8343 -3.36342 255 0 0
-0.412658 -21.7528 -3.53955 255 0 0
-5.22111 -23.293 -3.68916 255 0 0
-5.03902 -23.2545 -2.29665 255 0 0
-1.78733 -22.1232 -3.3853 255 0 0
-3.83818 -22.9129 -2.28964 255 0 0
-3.86404 -22.7363 -3.82469 255 0 0
-2.77117 -22.3623 -4.16027 255 0 0
-5.3484 -23.3417 -3.09539 255 0 0
-3.97219e-15 -21.6236 -4.25456 255 0 0
0.0510856 -21.5459 -4.42764 255 0 0
-1.79243 -22.1864 -3.20363 255 0 0
-1.41244 -22.0332 -3.378 255 0 0
-2.01376 -22.2902 -2.83744 255 0 0
-0.830057 -21.8698 -3.36597 255 0 0
-5.04224 -23.2693 -2.69278 255 0 0
-4.39912 -22.9134 -4.23682 255 0 0
-2.29446 -22.4269 -2.46848 255 0 0
-3.98748 -22.8073 -3.25201 255 0 0
-3.81557 -22.7779 -3.44147 255 0 0
-0.25989 -21.9213 -3.00281 255 0 0
-0.36807 -22.1748 -4.12618 255 0 0
-2.00855 -22.2325 -3.20711 255 0 0
-3.07342 -22.6026 -2.28439 255 0 0
-5.01135 -23.1268 -3.87225 255 0 0
-5.21515 -23.2664 -2.89217 255 0 0
-5.52168 -23.3343 -3.89719 255 0 0
-1.89596 -22.1583 -3.75957 255 0 0
-0.102705 -21.6583 -4.25821 255 0 0
-0.0510856 -21.5459 -4.42764 255 0 0
-3.06914 -22.5711 -3.61187 255 0 0
-2.22085 -22.2278 -3.76742 255 0 0
-5.19998 -23.1988 -3.88103 255 0 0
-0.932048 -21.8257 -4.09433 255 0 0
-0.834642 -21.9906 -2.82342 255 0 0
-3.11854 -22.5341 -3.99027 255 0 0
-3.87305 -22.7893 -3.05739 255 0 0
-0.685068 -22.2187 -4.31771 255 0 0
-4.45085 -22.8896 -4.43126 255 0 0
-0.623437 -21.9059 -3.91729 255 0 0
-1.67926 -22.0902 -3.93821 255 0 0
-0.702441 -22.7822 -2.28417 255 0 0
-4.29201 -22.9425 -2.87334 255 0 0
-4.49046 -23.3891 -4.08366 255 0 0
-2.00756 -23.4625 -2.29358 255 0 0
-3.80747 -22.7296 -4.20944 255 0 0
-0.619552 -21.7693 -3.72308 255 0 0
-1.80136 -22.2969 -2.65089 255 0 0
-4.19636 -23.3489 -4.07549 255 0 0
-3.42815 -22.7792 -2.4787 255 0 0
-3.76043 -22.7801 -3.63378 255 0 0
-3.64135 -22.7289 -2.8613 255 0 0
-4.42337 -23.0397 -2.29249 255 0 0
0.209523 -22.0915 -3.01057 255 0 0
-4.23243 -23.233 -3.47393 255 0 0
-3.46423 -22.6538 -3.0483 255 0 0
-2.95599 -22.539 -2.85057 255 0 0
-0.311865 -21.9206 -3.00281 255 0 0
-3.69864 -22.7412 -3.05392 255 0 0
-3.97549e-15 -21.6416 -4.07477 255 0 0
-3.92354 -22.7596 -3.44147 255 0 0
-1.31444 -22.1492 -2.64561 255 0 0
-3.9303 -22.7988 -3.63709 255 0 0
-3.94343 -22.875 -2.67541 255 0 0
-3.5127 -22.6119 -4.19379 255 0 0
-3.05622 -22.4761 -3.79467 255 0 0
-2.45401 -22.4108 -2.84357 255 0 0
-4.70119 -23.5797 -4.10356 255 0 0
-3.58464 -22.7197 -3.62758 255 0 0
-0.732294 -22.0528 -2.82561 255 0 0
-4.57737 -22.9586 -3.26592 255 0 0
-4.56815 -23.1991 -3.47576 255 0 0
-4.6422 -22.9993 -3.26876 255 0 0
-2.1807 -22.3618 -2.4669 255 0 0
0.214312 -22.5964 -2.84554 255 0 0
-3.35886 -22.6841 -2.66724 255 0 0
-1.40177 -21.8669 -2.45534 255 0 0
-4.76847 -23.6249 -3.90689 255 0 0
-3.40649 -22.6352 -3.23778 255 0 0
-2.67142 -22.4283 -3.40974 255 0 0
-4.43104 -23.3789 -3.68379 255 0 0
0.206844 -21.809 -4.27399 255 0 0
-0.621112 -21.8242 -3.36269 255 0 0
-0.527006 -22.2229 -2.6468 255 0 0
-1.09606 -21.995 -3.00736 255 0 0
-4.77254 -23.0802 -2.48977 255 0 0
-1.62942 -22.1286 -3.19984 255 0 0
-2.94211 -22.4332 -4.359 255 0 0
-2.33898 -22.3388 -3.02743 255 0 0
-5.26891 -23.2479 -3.48779 255 0 0
-5.09474 -23.2452 -2.89042 255 0 0
-2.17816 -22.3357 -2.27979 255 0 0
-1.45097 -21.8237 -2.81839 255 0 0
-1.09336 -21.9408 -4.10606 255 0 0
-1.40261 -21.8798 -2.63795 255 0 0
-4.03986 -22.7883 -4.41304 255 0 0
-2.2338 -22.3574 -2.84072 255 0 0
-4.59356 -23.0399 -2.68359 255 0 0
-1.73374 -22.113 -3.75495 255 0 0
-2.27563 -22.2428 -3.39551 255 0 0
-1.25221 -21.9818 -3.74202 255 0 0
-3.0268 -22.662 -2.28504 255 0 0
-0.154243 -21.6842 -3.71569 255 0 0
-3.82118 -22.8114 -3.63667 255 0 0
-4.33502 -22.8722 -4.23179 255 0 0
-0.800265 -22.4919 -2.28059 255 0 0
-4.97651 -23.232 -2.29621 255 0 0
-2.61814 -22.4338 -3.59823 255 0 0
0.208105 -21.942 -3.18656 255 0 0
-2.34284 -22.3756 -2.84181 255 0 0
-0.673038 -21.8285 -3.91066 255 0 0
-0.540855 -22.8069 -2.47408 255 0 0
-4.16177 -22.8451 -4.2262 255 0 0
-0.831568 -21.9096 -3.18561 255 0 0
0.259666 -21.9023 -4.09992 255 0 0
-3.99316 -22.8398 -3.06061 255 0 0
-0.569507 -21.831 -3.54533 255 0 0
-4.91351 -23.2064 -2.88757 255 0 0
-1.19926 -21.9695 -3.92495 255 0 0
-3.06356 -22.53 -4.17982 255 0 0
0.42413 -22.3575 -3.02288 255 0 0
-0.894049 -22.1689 -2.46106 255 0 0
-0.443136 -23.3593 -2.48551 255 0 0
-4.24265 -23.2891 -3.67511 255 0 0
-2.89407 -22.4801 -3.03679 255 0 0
-4.24196 -22.9763 -2.67984 255 0 0
-3.63162 -22.6682 -4.39361 255 0 0
-2.49912 -22.3333 -3.02796 255 0 0
-1.35698 -21.9844 -4.11165 255 0 0
0.102758 -21.6695 -3.89586 255 0 0
-0.778201 -21.8718 -3.36597 255 0 0
-2.50207 -22.3597 -3.40427 255 0 0
-2.6615 -22.345 -4.34625 255 0 0
-0.37203 -22.4133 -2.65225 255 0 0
-1.20087 -21.9989 -3.37509 255 0 0
-2.39344 -22.3473 -3.59038 255 0 0
-2.34702 -22.4156 -2.46836 255 0 0
-1.25463 -22.0242 -3.19288 255 0 0
0.155097 -21.8042 -4.09042 255 0 0
-4.25087 -23.0245 -2.2919 255 0 0
0.0513802 -21.6701 -4.25942 255 0 0
-3.5354 -22.758 -2.67013 255 0 0
-3.17522 -22.5497 -3.99231 255 0 0
-2.39133 -22.3276 -3.77666 255 0 0
-4.00387 -22.901 -4.42397 255 0 0
-4.98092 -23.2526 -2.69193 255 0 0
-4.78624 -23.1464 -2.29468 255 0 0
-0.934749 -21.8889 -3.91678 255 0 0
-0.554116 -23.3661 -2.29139 255 0 0
-2.40639 -22.4682 -2.46957 255 0 0
-4.01059 -22.9395 -2.48393 255 0 0
-0.724598 -21.821 -3.91015 255 0 0
-3.018 -22.5962 -2.66332 255 0 0
-2.54691 -22.2822 -4.33836 255 0 0
-4.28946 -22.9289 -3.06703 255 0 0
-4.05493 -22.8733 -2.67592 255 0 0
-5.02339 -23.1824 -3.28267 255 0 0
-3.75013 -22.7177 -3.43709 255 0 0
-4.51298 -22.919 -4.43551 255 0 0
-4.95161 -23.1158 -3.87041 255 0 0
-2.96137 -22.5801 -2.66264 255 0 0
-0.30934 -21.7431 -3.35721 255 0 0
-2.33256 -22.2775 -4.14741 255 0 0
-2.8561 -23.5042 -2.29519 255 0 0
-0.936591 -21.9321 -3.00415 255 0 0
-1.85276 -22.2751 -2.65038 255 0 0
-3.23057 -22.5554 -3.42214 255 0 0
-1.95028 -22.174 -3.38931 255 0 0
-3.17627 -22.5572 -3.42177 255 0 0
-2.73083 -22.4733 -3.60195 255 0 0
-0.205822 -21.7013 -3.71708 255 0 0
-1.14477 -21.9265 -4.10495 255 0 0
-3.96778 -24.7664 -2.31271 255 0 0
-3.87938 -22.8265 -2.67371 255 0 0
-3.52538 -22.6935 -3.6251 255 0 0
-5.35707 -23.3796 -4.09846 255 0 0
-3.52097 -22.6651 -3.24031 255 0 0
-3.5829 -22.7086 -3.24315 255 0 0
-1.44818 -21.7817 -2.45364 255 0 0
-2.78117 -22.443 -3.97853 255 0 0
-3.40991 -22.658 -3.62138 255 0 0
-0.567935 -21.7707 -3.72308 255 0 0
-1.20917 -22.1511 -2.27658 255 0 0
-1.62258 -22.0357 -4.30375 255 0 0
-3.29583 -22.6286 -3.42725 255 0 0
-1.25333 -22.0014 -3.55938 255 0 0
-4.76722 -23.0544 -4.05967 255 0 0
-4.41282 -23.2827 -3.47904 255 0 0
-1.03981 -21.9111 -3.73555 255 0 0
-3.771 -22.8441 -2.86634 255 0 0
-4.77495 -23.0918 -3.47174 255 0 0
-4.69988 -23.5731 -3.90181 255 0 0
-4.91535 -23.2151 -2.29585 255 0 0
-1.04391 -21.9975 -3.00736 255 0 0
-0.989522 -21.9505 -3.55484 255 0 0
-0.58061 -22.2566 -4.32136 255 0 0
-4.36601 -23.0358 -2.87728 255 0 0
-1.50353 -21.8321 -2.63675 255 0 0
-2.34551 -22.4012 -2.28081 255 0 0
-2.05475 -22.1575 -4.32014 255 0 0
-4.78318 -23.1316 -3.2773 255 0 0
-1.89961 -22.201 -3.2049 255 0 0
-3.99464 -22.8483 -2.6749 255 0 0
-1.96406 -23.6131 -2.29541 255 0 0
-4.38897 -23.4608 -3.88842 255 0 0
-4.60774 -23.111 -2.2938 255 0 0
-1.84118 -22.1358 -3.94332 255 0 0
-5.13749 -23.1773 -4.27593 255 0 0
-5.13806 -23.1799 -3.68007 255 0 0
-0.934899 -21.8924 -3.73371 255 0 0
0.102199 -21.5515 -4.4283 255 0 0
-0.727081 -21.8958 -3.18466 255 0 0
-2.12554 -22.3444 -2.83984 255 0 0
-5.14426 -23.2079 -3.08736 255 0 0
-3.71616 -24.6929 -2.31132 255 0 0
-5.07378 -23.1496 -4.27202 255 0 0
-3.23762 -22.6046 -3.04455 255 0 0
-0.893229 -22.1485 -2.27636 255 0 0
-4.48469 -23.0636 -2.29293 255 0 0
-1.73734 -22.159 -3.01673 255 0 0
-4.05789 -22.89 -2.86984 255 0 0
-3.1151 -22.5092 -3.7979 255 0 0
-1.49821 -21.7548 -2.45315 255 0 0
-4.09519e-15 -22.2932 -2.83415 255 0 0
-1.57158 -22.057 -3.56476 255 0 0
-5.15633 -23.2623 -2.69329 255 0 0
0.20728 -21.855 -3.54657 255 0 0
-5.39784 -23.3036 -4.29326 255 0 0
-2.12006 -22.2869 -3.58418 255 0 0
-2.72563 -22.4305 -3.03358 255 0 0
-0.314137 -22.0803 -2.82627 255 0 0
-4.22127 -22.8642 -3.06355 255 0 0
-5.40028 -23.3141 -2.49731 255 0 0
-0.653752 -22.971 -2.2865 255 0 0
-4.08943 -23.3904 -3.87872 255 0 0
-2.33123 -22.2648 -4.33411 255 0 0
0.259449 -21.884 -3.91474 255 0 0
-4.58439 -22.9939 -4.44462 255 0 0
-0.725565 -21.8502 -3.36451 255 0 0
-1.6757 -22.0434 -4.30496 255 0 0
-3.65287 -22.8008 -2.28789 255 0 0
-0.748774 -22.5491 -2.46884 255 0 0
-2.67687 -22.4741 -2.65855 255 0 0
-4.11545 -23.2147 -4.26029 255 0 0
-3.3492 -22.6189 -4.00047 255 0 0
-2.5841 -22.6075 -2.47286 255 0 0
-0.476554 -22.329 -4.32864 255 0 0
-2.96047 -22.5731 -2.4731 255 0 0
0.15608 -21.9424 -3.18656 255 0 0
-3.89936 -22.9441 -2.29015 255 0 0
-2.93377 -23.2232 -2.29183 255 0 0
0.102733 -21.6641 -4.25881 255 0 0
-0.885163 -21.9485 -3.18782 255 0 0
-1.62629 -22.0861 -3.75218 255 0 0
-4.30485 -23.0112 -2.48648 255 0 0
-3.06366 -22.5308 -3.22956 255 0 0
-1.96718 -23.6507 -2.49318 255 0 0
-4.33792 -22.8875 -4.42883 255 0 0
-1.20258 -22.0304 -3.00923 255 0 0
-4.64876 -23.0318 -3.07479 255 0 0
-3.77283 -22.8552 -2.48138 255 0 0
-1.26036 -22.1248 -2.27628 255 0 0
-1.46468 -22.0298 -3.378 255 0 0
-4.36 -23.0041 -2.2919 255 0 0
-1.52052 -22.0787 -3.38129 255 0 0
-4.28364 -22.8978 -4.42883 255 0 0
-3.13342 -22.6416 -2.28497 255 0 0
-4.03117 -23.3839 -4.076 255 0 0
-2.22803 -22.2997 -3.21185 255 0 0
-3.12105 -22.5522 -3.61105 255 0 0
-2.85412 -22.5927 -2.47322 255 0 0
-3.47157 -22.7018 -3.6251 255 0 0
-5.35227 -23.3586 -2.29877 255 0 0
-5.09665 -23.2539 -2.29679 255 0 0
-4.8531 -23.1923 -2.29541 255 0 0
-4.73135 -23.1577 -2.29468 255 0 0
-4.30545 -23.0143 -2.2919 255 0 0
-4.7178 -23.0914 -2.48977 255 0 0
-4.18997 -22.9999 -2.29147 255 0 0
-4.123 -22.9407 -2.29059 255 0 0
-4.07473 -22.985 -2.29103 255 0 0
-4.01618 -22.9715 -2.29074 255 0 0
-3.95375 -22.9348 -2.29015 255 0 0
-3.84579 -24.756 -2.31234 255 0 0
-3.6576 -24.7017 -2.31132 255 0 0
-3.59143 -24.6581 -2.31066 255 0 0
-3.52631 -24.6202 -2.31008 255 0 0
-2.89238 -23.3405 -2.29322 255 0 0
-2.77855 -23.8082 -2.29884 255 0 0
-2.29001 -22.3834 -2.28052 255 0 0
-2.2346 -22.3655 -2.28023 255 0 0
-2.12741 -22.3642 -2.28008 255 0 0
-1.70687 -23.9559 -2.29942 255 0 0
-1.49802 -21.752 -2.27183 255 0 0
-1.44372 -21.7146 -2.27132 255 0 0
-1.40197 -21.8699 -2.27322 255 0 0
-1.1536 -22.0954 -2.27585 255 0 0
-1.10324 -22.1391 -2.27636 255 0 0
-0.753347 -22.6868 -2.283 255 0 0
-3.75358 -22.7386 -4.01629 255 0 0
-2.01876 -23.5935 -2.49208 255 0 0
-2.11506 -22.2343 -3.95403 255 0 0
-3.35077 -22.6295 -3.04642 255 0 0
-0.52301 -22.0544 -3.93005 255 0 0
-2.17662 -22.32 -3.02582 255 0 0
-3.76563 -22.8116 -4.41061 255 0 0
-4.5325 -23.0181 -4.24911 255 0 0
-1.35469 -21.9474 -2.63982 255 0 0
-4.27244 -23.4527 -3.88611 255 0 0
-1.52088 -22.084 -3.56641 255 0 0
-0.796616 -22.3893 -2.46556 255 0 0
-1.57487 -22.1033 -3.19826 255 0 0
-3.46413 -22.6531 -4.38936 255 0 0
-0.884499 -21.932 -3.36998 255 0 0
-3.34896 -22.6172 -3.80898 255 0 0
-1.95072 -22.1791 -3.94791 255 0 0
-3.54332 -22.809 -2.47967 255 0 0
-4.96312 -23.1695 -3.08388 255 0 0
-5.3476 -23.3383 -2.49755 255 0 0
-5.29096 -23.3452 -2.49743 255 0 0
-5.21639 -23.272 -2.49561 255 0 0
-5.165 -23.3014 -2.49597 255 0 0
-5.09219 -23.2335 -2.49427 255 0 0
-5.03461 -23.2341 -2.49403 255 0 0
-4.9746 -23.2231 -2.49354 255 0 0
-4.90618 -23.1718 -2.4922 255 0 0
-4.85962 -23.2235 -2.49305 255 0 0
-4.66304 -23.1025 -2.48977 255 0 0
-4.61397 -23.1422 -2.49038 255 0 0
-4.54439 -23.0784 -2.4888 255 0 0
-4.48742 -23.0777 -2.48855 255 0 0
-4.4349 -23.0997 -2.4888 255 0 0
-4.37248 -23.0699 -2.48794 255 0 0
-4.1768 -22.9277 -2.48429 255 0 0
-4.0711 -22.9645 -2.48466 255 0 0
-3.9532 -22.9316 -2.48356 255 0 0
-3.83475 -22.8924 -2.48235 255 0 0
-3.71393 -22.8352 -2.48077 255 0 0
-3.65422 -22.8092 -2.48004 255 0 0
-3.48569 -22.7942 -2.47919 255 0 0
-3.24861 -22.6813 -2.47614 255 0 0
-3.18992 -22.6542 -2.47541 255 0 0
-3.13861 -22.6791 -2.47578 255 0 0
-2.79839 -22.582 -2.47286 255 0 0
-2.74484 -22.5886 -2.47286 255 0 0
-2.69335 -22.6124 -2.47322 255 0 0
-2.6343 -22.5723 -2.47225 255 0 0
-2.14375 -22.5359 -2.47043 255 0 0
-2.14004 -23.0772 -2.48162 255 0 0
-1.77761 -24.1412 -2.50303 255 0 0
-1.35389 -21.9344 -2.45668 255 0 0
-1.30188 -21.9375 -2.45668 255 0 0
-1.10134 -22.1009 -2.45984 255 0 0
-0.950106 -22.2486 -2.46276 255 0 0
-0.849033 -22.3698 -2.4652 255 0 0
-0.646001 -22.6987 -2.47189 255 0 0
-0.590959 -22.6533 -2.47091 255 0 0
-0.776956 -21.8368 -3.91168 255 0 0
-2.84913 -22.5532 -2.66145 255 0 0
-3.3974 -22.5749 -4.38025 255 0 0
-1.78476 -22.0914 -3.75356 255 0 0
-4.47755 -23.0269 -2.68256 255 0 0
-5.28064 -23.2996 -2.89392 255 0 0
-1.51486 -21.9966 -4.29889 255 0 0
-3.2412 -22.6296 -3.61766 255 0 0
-5.34324 -23.3192 -3.69288 255 0 0
-1.84317 -22.1597 -3.38785 255 0 0
-5.34911 -23.3448 -2.69687 255 0 0
-5.29116 -23.346 -2.69653 255 0 0
-5.23067 -23.3357 -2.69585 255 0 0
-4.91002 -23.1899 -2.68972 255 0 0
-4.85022 -23.1786 -2.68904 255 0 0
-4.79762 -23.2015 -2.68938 255 0 0
-4.73206 -23.1612 -2.68784 255 0 0
-4.53779 -23.0449 -2.68342 255 0 0
-4.41191 -22.98 -2.68086 255 0 0
-3.82718 -22.8472 -2.67405 255 0 0
-3.75489 -22.7465 -2.67081 255 0 0
-3.70846 -22.8016 -2.67218 255 0 0
-3.64328 -22.741 -2.67013 255 0 0
-3.58935 -22.7495 -2.67013 255 0 0
-3.41699 -22.705 -2.66809 255 0 0
-3.31688 -22.7731 -2.66962 255 0 0
-3.24793 -22.6766 -2.66656 255 0 0
-3.18763 -22.6379 -2.66519 255 0 0
-3.07315 -22.6006 -2.66366 255 0 0
-2.90334 -22.5522 -2.66162 255 0 0
-2.78917 -22.5076 -2.65991 255 0 0
-2.7358 -22.5142 -2.65991 255 0 0
-2.62222 -22.4687 -2.65821 255 0 0
-2.56761 -22.4633 -2.65787 255 0 0
-2.45596 -22.4286 -2.65651 255 0 0
0.155174 -21.815 -3.90862 255 0 0
-2.39904 -22.3995 -2.65549 255 0 0
-2.34531 -22.3993 -2.65532 255 0 0
-2.28803 -22.364 -2.65412 255 0 0
-2.23441 -22.3636 -2.65395 255 0 0
-2.17854 -22.3397 -2.6531 255 0 0
-2.12446 -22.3331 -2.65276 255 0 0
-2.07204 -22.3439 -2.65293 255 0 0
-2.01537 -22.308 -2.65174 255 0 0
-1.90807 -22.2998 -2.65123 255 0 0
-1.69782 -22.3344 -2.65174 255 0 0
-1.45215 -21.8414 -2.63692 255 0 0
-1.25426 -22.0178 -2.64169 255 0 0
-1.15289 -22.082 -2.64339 255 0 0
-1.09966 -22.0671 -2.64288 255 0 0
-1.04706 -22.0638 -2.64271 255 0 0
-0.998166 -22.1422 -2.64493 255 0 0
-0.945414 -22.1387 -2.64476 255 0 0
-0.894336 -22.176 -2.64578 255 0 0
-0.84464 -22.254 -2.64799 255 0 0
-0.79104 -22.2326 -2.64731 255 0 0
-0.73677 -22.1876 -2.64595 255 0 0
-0.684161 -22.1893 -2.64595 255 0 0
-0.631881 -22.2026 -2.64629 255 0 0
-0.580305 -22.2449 -2.64748 255 0 0
-0.423839 -22.3421 -2.65021 255 0 0
-0.26706 -22.526 -2.65549 255 0 0
-0.161071 -22.6441 -2.65889 255 0 0
-0.0540238 -22.7851 -2.66298 255 0 0
0.0542597 -22.8846 -2.66587 255 0 0
0.108353 -22.8492 -2.66485 255 0 0
-1.2002 -21.9868 -3.55814 255 0 0
-3.75523 -22.7486 -3.82422 255 0 0
-0.880269 -21.8272 -4.27764 255 0 0
-0.310072 -21.7946 -3.17866 255 0 0
-3.69751 -22.7342 -4.40151 255 0 0
-0.309344 -21.7434 -3.90249 255 0 0
-2.44616 -22.3391 -3.02796 255 0 0
-0.724325 -21.8128 -3.72678 255 0 0
-1.94762 -22.1438 -4.31771 255 0 0
-1.73578 -22.1391 -3.38603 255 0 0
-0.779618 -21.9116 -3.18561 255 0 0
-4.0422e-15 -22.0047 -3.00656 255 0 0
-2.27321 -22.2192 -4.14127 255 0 0
-4.04628 -22.8245 -3.06034 255 0 0
-3.46235 -22.6415 -3.81222 255 0 0
-4.12409 -22.9467 -4.23514 255 0 0
0.106214 -22.3982 -2.83809 255 0 0
-2.77459 -22.39 -4.35232 255 0 0
-5.39503 -23.2914 -2.89458 255 0 0
-5.33848 -23.2985 -2.89436 255 0 0
-5.15237 -23.2445 -2.89086 255 0 0
-5.04208 -23.2686 -2.89086 255 0 0
-4.96484 -23.1775 -2.88692 255 0 0
-4.8381 -23.1206 -2.88385 255 0 0
-4.78919 -23.1607 -2.88495 255 0 0
-4.72958 -23.149 -2.88407 255 0 0
-4.66889 -23.1315 -2.88297 255 0 0
-4.59572 -23.0507 -2.87947 255 0 0
-4.47967 -23.0378 -2.87816 255 0 0
-4.42503 -23.0483 -2.87816 255 0 0
-4.17583 -22.9223 -2.87181 255 0 0
-4.12251 -22.9379 -2.87203 255 0 0
-4.00361 -22.8996 -2.86984 255 0 0
-3.94036 -22.8571 -2.86787 255 0 0
-3.82129 -22.8121 -2.86546 255 0 0
-3.71213 -22.8241 -2.86524 255 0 0
-3.58744 -22.7375 -2.8613 255 0 0
-3.46809 -22.679 -2.85845 255 0 0
-3.41343 -22.6814 -2.85823 255 0 0
-3.3605 -22.6952 -2.85845 255 0 0
-3.30162 -22.6684 -2.85714 255 0 0
-3.23874 -22.6124 -2.85473 255 0 0
-3.13148 -22.6275 -2.85473 255 0 0
-3.06993 -22.5769 -2.85254 255 0 0
-2.84834 -22.547 -2.85035 255 0 0
-2.7848 -22.4724 -2.84729 255 0 0
-2.73857 -22.537 -2.84948 255 0 0
-2.51235 -22.4515 -2.84532 255 0 0
-2.40087 -22.4166 -2.84357 255 0 0
-2.29156 -22.3986 -2.84247 255 0 0
-2.17624 -22.316 -2.83897 255 0 0
-2.06769 -22.297 -2.83787 255 0 0
-1.95886 -22.2716 -2.83656 255 0 0
-1.90505 -22.2645 -2.83612 255 0 0
-1.85177 -22.2631 -2.8359 255 0 0
-1.79521 -22.2208 -2.83415 255 0 0
-1.68893 -22.2174 -2.83371 255 0 0
-1.6341 -22.1921 -2.83262 255 0 0
-1.58064 -22.1843 -2.83218 255 0 0
-1.51035 -21.9311 -2.82255 255 0 0
-1.40222 -21.8738 -2.82014 255 0 0
-1.35143 -21.8946 -2.8208 255 0 0
-1.30714 -22.0262 -2.82561 255 0 0
-1.2014 -22.0088 -2.82474 255 0 0
-1.15166 -22.0583 -2.82649 255 0 0
-1.09994 -22.0727 -2.82693 255 0 0
-2.72671 -22.4393 -3.41083 255 0 0
-1.04621 -22.046 -2.82583 255 0 0
-0.939411 -21.9981 -2.82386 255 0 0
-0.889137 -22.0471 -2.82561 255 0 0
-0.783748 -22.0276 -2.82474 255 0 0
-0.678562 -22.0077 -2.82386 255 0 0
-0.627046 -22.0327 -2.82474 255 0 0
-0.470936 -22.0658 -2.82583 255 0 0
-0.366295 -22.0678 -2.82583 255 0 0
-0.261368 -22.0459 -2.82496 255 0 0
-0.209817 -22.1225 -2.8278 255 0 0
-0.105021 -22.1466 -2.82868 255 0 0
-0.052677 -22.217 -2.83131 255 0 0
0.160735 -22.5969 -2.84554 255 0 0
0.269206 -22.707 -2.8497 255 0 0
0.32371 -22.7531 -2.85145 255 0 0
0.37921 -22.8459 -2.85495 255 0 0
-1.51888 -22.055 -3.93413 255 0 0
-4.82664 -23.0659 -4.06171 255 0 0
-4.28003 -23.1824 -3.27477 255 0 0
-2.44426 -22.3218 -3.77666 255 0 0
-0.516038 -21.7604 -3.72216 255 0 0
-1.41208 -22.0277 -4.11612 255 0 0
-3.81012 -22.7454 -3.82469 255 0 0
-4.93953 -23.0594 -4.26085 255 0 0
-0.727188 -21.8991 -3.00228 255 0 0
-5.08265 -23.19 -4.07702 255 0 0
-5.4559 -23.3028 -4.09386 255 0 0
-0.412776 -21.759 -3.35831 255 0 0
-1.41462 -22.0672 -3.19573 255 0 0
-2.22511 -22.2705 -3.95812 255 0 0
-0.414922 -21.8721 -3.00067 255 0 0
-2.00259 -22.1665 -3.76095 255 0 0
-0.734685 -22.1248 -4.12227 255 0 0
-5.09434 -23.2434 -3.68379 255 0 0
-3.57968 -22.6882 -3.8173 255 0 0
-2.55539 -22.3564 -3.78035 255 0 0
-5.33051 -23.2637 -3.29058 255 0 0
-3.75827 -22.767 -3.05552 255 0 0
-1.84312 -22.1591 -3.57344 255 0 0
-5.14014 -23.1893 -4.07804 255 0 0
-3.06808 -22.5633 -3.04161 255 0 0
-2.17289 -22.2818 -3.58418 255 0 0
-4.8464 -23.1603 -3.27951 255 0 0
-5.27752 -23.2859 -3.09218 255 0 0
-5.2159 -23.2698 -3.09084 255 0 0
-4.90091 -23.1469 -3.08228 255 0 0
-4.83163 -23.0897 -3.07907 255 0 0
-4.76858 -23.061 -3.07719 255 0 0
-4.71389 -23.0723 -3.07719 255 0 0
-4.59414 -23.0427 -3.07479 255 0 0
-4.51915 -22.9503 -3.06997 255 0 0
-4.40806 -22.96 -3.06943 255 0 0
-4.34163 -22.9071 -3.06649 255 0 0
-4.17124 -22.8971 -3.06462 255 0 0
-4.10866 -22.8609 -3.06248 255 0 0
-3.3992 -22.5868 -3.04482 255 0 0
-3.00838 -22.5241 -3.03947 255 0 0
-2.94356 -22.4442 -3.03545 255 0 0
-2.84003 -22.4811 -3.03653 255 0 0
-2.78384 -22.4646 -3.03545 255 0 0
-2.66967 -22.4137 -3.03251 255 0 0
-2.55804 -22.3796 -3.03037 255 0 0
-2.39194 -22.3332 -3.02743 255 0 0
-2.27887 -22.2745 -3.02422 255 0 0
-2.22721 -22.2915 -3.02475 255 0 0
-2.06103 -22.2252 -3.02101 255 0 0
-2.00465 -22.1893 -3.01913 255 0 0
-1.95305 -22.2056 -3.01967 255 0 0
-1.8984 -22.1869 -3.0186 255 0 0
-1.84579 -22.1913 -3.0186 255 0 0
-1.78799 -22.1315 -3.01566 255 0 0
-1.68036 -22.1047 -3.01405 255 0 0
-1.62795 -22.1086 -3.01405 255 0 0
-1.57261 -22.0716 -3.01218 255 0 0
-1.52148 -22.0928 -3.01298 255 0 0
-1.46716 -22.0671 -3.01164 255 0 0
-1.41446 -22.0647 -3.01137 255 0 0
-1.3607 -22.0446 -3.0103 255 0 0
-1.30981 -22.0712 -3.01137 255 0 0
-1.25315 -21.9983 -3.0079 255 0 0
-1.15004 -22.0274 -3.00897 255 0 0
-0.991487 -21.9941 -3.00709 255 0 0
-0.886237 -21.9751 -3.00602 255 0 0
-0.831469 -21.907 -3.00281 255 0 0
-0.780149 -21.9265 -3.00362 255 0 0
-0.674182 -21.8656 -3.00067 255 0 0
-0.622669 -21.8789 -3.00121 255 0 0
-0.570182 -21.8569 -3.00014 255 0 0
-0.51808 -21.8465 -2.9996 255 0 0
-0.46653 -21.8594 -3.00014 255 0 0
-0.207914 -21.9218 -3.00281 255 0 0
-0.156186 -21.9574 -3.00442 255 0 0
-0.104208 -21.9752 -3.00522 255 0 0
0.10443 -22.022 -3.00736 255 0 0
0.156644 -22.0217 -3.00736 255 0 0
0.262179 -22.1143 -3.01164 255 0 0
0.316275 -22.2306 -3.01699 255 0 0
0.103106 -21.7429 -3.72031 255 0 0
-3.98698e-15 -21.7041 -3.53583 255 0 0
-2.61214 -22.3824 -3.40645 255 0 0
-5.34229 -23.3151 -3.4929 255 0 0
-3.18107 -22.5913 -3.23367 255 0 0
-5.39121 -23.2749 -3.89027 255 0 0
0.260545 -21.9765 -3.18846 255 0 0
-1.09379 -21.9494 -3.73879 255 0 0
-2.00857 -22.2327 -3.57964 255 0 0
-1.0413 -21.9425 -3.92188 255 0 0
-2.16612 -22.2123 -4.13959 255 0 0
-4.3291 -23.4482 -3.88657 255 0 0
-4.88161 -23.6076 -4.31114 255 0 0
-3.57151 -22.6364 -4.38936 255 0 0
-5.40148 -23.3193 -3.29437 255 0 0
-5.27663 -23.2819 -3.29089 255 0 0
-5.22141 -23.2944 -3.29089 255 0 0
-5.15351 -23.2496 -3.28773 255 0 0
-5.08586 -23.2047 -3.28457 255 0 0
-4.96596 -23.1828 -3.28204 255 0 0
-4.90614 -23.1716 -3.28078 255 0 0
-4.72247 -23.1143 -3.27572 255 0 0
0.0513783 -21.6693 -3.35247 255 0 0
-4.46025 -23.2318 -3.2792 255 0 0
-4.34466 -23.2239 -3.27761 255 0 0
-4.18837 -22.9912 -3.2637 255 0 0
-4.10903 -22.8629 -3.25612 255 0 0
-3.93041 -22.7994 -3.25106 255 0 0
-3.87046 -22.7741 -3.24916 255 0 0
-3.46545 -22.6618 -3.23967 255 0 0
-3.35367 -22.649 -3.23809 255 0 0
-3.30585 -22.6974 -3.24031 255 0 0
-3.12348 -22.5698 -3.23209 255 0 0
-3.00946 -22.5322 -3.22924 255 0 0
-2.95222 -22.5103 -3.22766 255 0 0
-2.89063 -22.4534 -3.22418 255 0 0
-2.84178 -22.495 -3.22608 255 0 0
-2.78125 -22.4437 -3.22292 255 0 0
-2.72803 -22.4502 -3.22292 255 0 0
-2.6134 -22.3932 -3.21912 255 0 0
-2.50458 -22.3821 -3.21786 255 0 0
-2.44769 -22.3531 -3.21596 255 0 0
-2.39157 -22.3298 -3.21438 255 0 0
-2.33862 -22.3354 -3.21438 255 0 0
-2.2803 -22.2885 -3.21154 255 0 0
-2.17288 -22.2816 -3.21059 255 0 0
-2.0618 -22.2335 -3.20743 255 0 0
-1.95224 -22.1964 -3.2049 255 0 0
-1.84503 -22.1821 -3.20363 255 0 0
-1.73753 -22.1614 -3.20205 255 0 0
-1.6841 -22.1538 -3.20142 255 0 0
-4.82213 -23.6021 -3.90597 255 0 0
-1.52206 -22.1011 -3.19794 255 0 0
-1.36265 -22.0764 -3.19604 255 0 0
-1.14926 -22.0124 -3.19193 255 0 0
-1.09648 -22.0034 -3.1913 255 0 0
-0.936951 -21.9405 -3.18751 255 0 0
-0.674082 -21.8624 -3.18277 255 0 0
-0.570251 -21.8595 -3.18245 255 0 0
-0.517727 -21.8316 -3.18087 255 0 0
-0.465588 -21.8152 -3.17992 255 0 0
-0.414528 -21.8513 -3.18182 255 0 0
-0.362135 -21.8172 -3.17992 255 0 0
-0.258396 -21.7953 -3.17866 255 0 0
-0.206497 -21.7724 -3.17739 255 0 0
-0.154915 -21.7787 -3.17771 255 0 0
-0.0519022 -21.8903 -3.18371 255 0 0
0.103971 -21.9252 -3.18561 255 0 0
0.313233 -22.0167 -3.19067 255 0 0
-4.65152 -23.0455 -3.46737 255 0 0
-0.361184 -21.7599 -3.35831 255 0 0
-1.84245 -22.1511 -3.75864 255 0 0
-2.77775 -22.4154 -3.40974 255 0 0
-2.71954 -22.3804 -4.16138 255 0 0
-2.16758 -22.2272 -3.76696 255 0 0
-0.674283 -21.8689 -3.54823 255 0 0
-0.210544 -22.1991 -4.31468 255 0 0
-4.97458 -23.223 -3.48232 255 0 0
-3.4037 -22.6167 -4.19267 255 0 0
-4.90468 -23.1647 -3.67552 255 0 0
-2.45024 -22.3764 -3.59286 255 0 0
-0.528139 -22.2706 -4.13568 255 0 0
-5.21377 -23.2603 -3.48779 255 0 0
-5.14722 -23.2212 -3.48451 255 0 0
-5.0934 -23.2391 -3.48488 255 0 0
-5.01106 -23.1255 -3.47685 255 0 0
-4.70849 -23.0458 -3.4681 255 0 0
-4.62086 -23.1768 -3.47503 255 0 0
-4.35653 -23.2874 -3.47867 255 0 0
-4.29175 -23.2459 -3.47539 255 0 0
-4.1732 -23.22 -3.47247 255 0 0
-4.06101 -22.9076 -3.45205 255 0 0
-3.98051 -22.7675 -3.44256 255 0 0
-3.86076 -22.717 -3.43819 255 0 0
-3.63959 -22.7179 -3.436 255 0 0
-3.57843 -22.6803 -3.43308 255 0 0
-3.52285 -22.6772 -3.43235 255 0 0
-3.46466 -22.6566 -3.43053 255 0 0
-3.40571 -22.6301 -3.42834 255 0 0
-3.34947 -22.6207 -3.42725 255 0 0
-3.12037 -22.5473 -3.42068 255 0 0
-3.06611 -22.5488 -3.42032 255 0 0
-3.008 -22.5213 -3.41813 255 0 0
-2.95079 -22.4994 -3.4163 255 0 0
-2.89296 -22.4715 -3.41411 255 0 0
-2.83308 -22.4262 -3.41083 255 0 0
-2.55442 -22.3478 -3.4039 255 0 0
-2.44333 -22.3132 -3.40098 255 0 0
-2.33445 -22.2955 -3.39916 255 0 0
-2.22346 -22.254 -3.39588 255 0 0
-2.16786 -22.2301 -3.39405 255 0 0
-2.11459 -22.2294 -3.39369 255 0 0
-2.05918 -22.2052 -3.39187 255 0 0
-2.00442 -22.1868 -3.39041 255 0 0
-1.62691 -22.0946 -3.38275 255 0 0
-1.35875 -22.0132 -3.37655 255 0 0
-1.30517 -21.993 -3.37509 255 0 0
-1.04076 -21.931 -3.37035 255 0 0
-0.986649 -21.8867 -3.36743 255 0 0
-0.934503 -21.8832 -3.36706 255 0 0
-0.568755 -21.8022 -3.36123 255 0 0
-0.516922 -21.7976 -3.36086 255 0 0
-0.464739 -21.7754 -3.3594 255 0 0
-0.154425 -21.7097 -3.35503 255 0 0
-0.102839 -21.6867 -3.35357 255 0 0
0.103089 -21.7392 -3.35685 255 0 0
0.155256 -21.8266 -3.36232 255 0 0
0.207118 -21.8379 -3.36305 255 0 0
-0.621267 -21.8296 -3.54533 255 0 0
-3.06432 -22.5356 -3.98976 255 0 0
-3.17097 -22.5196 -4.37115 255 0 0
-4.18226 -23.2704 -3.67304 255 0 0
-2.9018 -22.5402 -3.60815 255 0 0
-5.27374 -23.2692 -3.68833 255 0 0
-2.83132 -22.4122 -4.35536 255 0 0
-2.49342 -22.2824 -4.33775 255 0 0
-4.45455 -22.9086 -4.23738 255 0 0
-0.776456 -21.8227 -3.7277 255 0 0
-4.96693 -23.1873 -3.678 255 0 0
-4.84257 -23.142 -3.67304 255 0 0
-4.76994 -23.0676 -3.66684 255 0 0
-4.80379 -23.7999 -3.71809 255 0 0
-4.70281 -23.5878 -3.70197 255 0 0
-4.63672 -23.5473 -3.69825 255 0 0
-4.56861 -23.4952 -3.69371 255 0 0
-4.36593 -23.3376 -3.68007 255 0 0
-4.3021 -23.302 -3.67676 255 0 0
-3.87624 -22.808 -3.63709 255 0 0
-3.3596 -22.6891 -3.62303 255 0 0
-3.30243 -22.6739 -3.62138 255 0 0
-3.18021 -22.5852 -3.61394 255 0 0
-3.01252 -22.5551 -3.61022 255 0 0
-2.95448 -22.5275 -3.60774 255 0 0
-0.154095 -21.6634 -3.89535 255 0 0
-2.78196 -22.4494 -3.60071 255 0 0
-2.67132 -22.4275 -3.59823 255 0 0
-2.56362 -22.4283 -3.59741 255 0 0
-2.50394 -22.3763 -3.59328 255 0 0
-2.28388 -22.3235 -3.5879 255 0 0
-2.2292 -22.3114 -3.58666 255 0 0
-2.06505 -22.2686 -3.58253 255 0 0
-1.95431 -22.2199 -3.5784 255 0 0
-1.90013 -22.207 -3.57716 255 0 0
-1.78963 -22.1518 -3.57261 255 0 0
-1.73665 -22.1501 -3.5722 255 0 0
-2.11124 -22.1942 -4.13736 255 0 0
-1.68235 -22.1309 -3.57054 255 0 0
-1.62988 -22.1348 -3.57054 255 0 0
-1.41166 -22.021 -3.56145 255 0 0
-1.35872 -22.0127 -3.56062 255 0 0
-1.30653 -22.0158 -3.56062 255 0 0
-1.09564 -21.9864 -3.55773 255 0 0
-1.04212 -21.9597 -3.55566 255 0 0
-0.937475 -21.9528 -3.55484 255 0 0
-0.883774 -21.9141 -3.55195 255 0 0
-0.77964 -21.9122 -3.55153 255 0 0
-0.465105 -21.7926 -3.54244 255 0 0
-0.309585 -21.7603 -3.53996 255 0 0
-0.258059 -21.7668 -3.54037 255 0 0
-0.206394 -21.7615 -3.53996 255 0 0
-0.154713 -21.7503 -3.53913 255 0 0
-0.103087 -21.7389 -3.53831 255 0 0
0.102949 -21.7097 -3.53624 255 0 0
-2.83364 -22.4306 -3.97802 255 0 0
-4.75363 -23.5513 -4.10203 255 0 0
-5.01024 -23.1217 -4.26811 255 0 0
-0.880766 -21.8395 -4.09545 255 0 0
-4.39217 -22.8772 -4.42883 255 0 0
-2.44765 -22.3528 -3.9673 255 0 0
-2.2725 -22.2123 -4.32803 255 0 0
-5.46101 -23.3246 -3.89535 255 0 0
-5.33992 -23.3047 -3.89165 255 0 0
-5.07742 -23.1662 -3.87641 255 0 0
-4.89196 -23.1046 -3.86856 255 0 0
-4.83477 -23.1047 -3.86764 255 0 0
-4.77879 -23.1104 -3.86717 255 0 0
-4.56465 -23.4748 -3.89211 255 0 0
-4.21166 -23.434 -3.8838 255 0 0
-3.69754 -22.7344 -3.82238 255 0 0
-3.41126 -22.667 -3.8136 255 0 0
-3.29448 -22.6193 -3.80852 255 0 0
-3.2276 -22.5346 -3.80113 255 0 0
-3.17579 -22.5538 -3.80206 255 0 0
-3.00987 -22.5353 -3.79882 255 0 0
-2.94733 -22.4729 -3.79328 255 0 0
-2.88956 -22.4451 -3.79051 255 0 0
-2.83634 -22.4519 -3.79051 255 0 0
-2.7228 -22.4072 -3.78589 255 0 0
-2.49913 -22.3334 -3.77804 255 0 0
-2.33352 -22.2867 -3.77296 255 0 0
-2.27949 -22.2806 -3.77204 255 0 0
-2.11653 -22.2497 -3.76834 255 0 0
-2.05838 -22.1966 -3.76372 255 0 0
-1.95259 -22.2003 -3.76326 255 0 0
-1.68086 -22.1113 -3.75449 255 0 0
-1.5706 -22.0433 -3.74848 255 0 0
-1.46489 -22.033 -3.7471 255 0 0
-1.4119 -22.0248 -3.74618 255 0 0
-1.30502 -21.9905 -3.74294 255 0 0
-1.19977 -21.9789 -3.74156 255 0 0
-1.14766 -21.9817 -3.74156 255 0 0
-2.0054 -22.1976 -3.94995 255 0 0
-0.987855 -21.9135 -3.73555 255 0 0
-0.882989 -21.8946 -3.73371 255 0 0
-0.360759 -21.7343 -3.71985 255 0 0
-0.309143 -21.7293 -3.71939 255 0 0
-0.102719 -21.6612 -3.71385 255 0 0
0.0513594 -21.6613 -3.71385 255 0 0
0.155987 -21.9294 -3.73509 255 0 0
0.20776 -21.9056 -3.73324 255 0 0
0.259352 -21.8758 -3.73093 255 0 0
0.538871 -22.7232 -3.79836 255 0 0
-1.09361 -21.9458 -3.92239 255 0 0
-2.10673 -22.1468 -4.31953 255 0 0
-5.39142 -23.2759 -4.09029 255 0 0
-5.0153 -23.145 -4.07192 255 0 0
-4.89703 -23.1286 -4.06835 255 0 0
-4.80712 -23.5286 -4.10101 255 0 0
-4.63851 -23.5565 -4.1005 255 0 0
-4.56372 -23.47 -4.09182 255 0 0
-4.39698 -23.1991 -4.0658 255 0 0
-4.3248 -23.1178 -4.05763 255 0 0
-4.26468 -23.0993 -4.05508 255 0 0
-4.14914 -23.4047 -4.07957 255 0 0
-4.09363 -23.4145 -4.07957 255 0 0
-3.96594 -23.3359 -4.0709 255 0 0
-3.81423 -22.7699 -4.01987 255 0 0
-3.69685 -22.7302 -4.01476 255 0 0
-3.63649 -22.6986 -4.01119 255 0 0
-3.58084 -22.6956 -4.01017 255 0 0
-3.40369 -22.6167 -4.00098 255 0 0
-3.2922 -22.6037 -3.99843 255 0 0
-3.23612 -22.5941 -3.9969 255 0 0
-3.00239 -22.4792 -3.98414 255 0 0
-2.94832 -22.4805 -3.98363 255 0 0
-2.89203 -22.4643 -3.98159 255 0 0
-2.72513 -22.4264 -3.97649 255 0 0
-2.66988 -22.4154 -3.97496 255 0 0
-2.61132 -22.3753 -3.97087 255 0 0
-2.55362 -22.3409 -3.9673 255 0 0
-2.38906 -22.3063 -3.96271 255 0 0
-2.33981 -22.3467 -3.96577 255 0 0
-2.27969 -22.2826 -3.95965 255 0 0
-2.16777 -22.2293 -3.95403 255 0 0
-2.06234 -22.2393 -3.95403 255 0 0
-1.89664 -22.1662 -3.94638 255 0 0
-1.78728 -22.1226 -3.94179 255 0 0
-1.62688 -22.0941 -3.93821 255 0 0
-1.57241 -22.0688 -3.93566 255 0 0
-1.4662 -22.0527 -3.93362 255 0 0
-1.41241 -22.0328 -3.93158 255 0 0
-1.3055 -21.9985 -3.92801 255 0 0
-1.25168 -21.9724 -3.92546 255 0 0
-0.988222 -21.9216 -3.91984 255 0 0
-0.880732 -21.8386 -3.91219 255 0 0
-0.830278 -21.8756 -3.91525 255 0 0
-0.574235 -22.0122 -3.92648 255 0 0
-0.469846 -22.0147 -3.92648 255 0 0
-0.361478 -21.7776 -3.90555 255 0 0
-0.20568 -21.6863 -3.89739 255 0 0
-0.102869 -21.6928 -3.8979 255 0 0
-0.0513654 -21.6639 -3.89535 255 0 0
-3.98067e-15 -21.6697 -3.89586 255 0 0
0.0513792 -21.6697 -3.89586 255 0 0
0.207063 -21.8321 -3.91015 255 0 0
-3.34302 -22.5771 -4.37965 255 0 0
-4.72233 -23.3963 -4.28823 255 0 0
-0.0512698 -21.6235 -4.25456 255 0 0
-0.631087 -22.1747 -4.12674 255 0 0
-5.27053 -23.255 -4.28599 255 0 0
-4.82655 -23.0654 -4.25917 255 0 0
-4.83613 -23.6706 -4.31617 255 0 0
-4.64747 -23.3102 -4.27873 255 0 0
-4.22016 -22.8581 -4.22844 255 0 0
-4.17383 -23.8732 -4.32343 255 0 0
-4.06771 -23.5958 -4.29549 255 0 0
-3.96487 -23.3296 -4.26867 255 0 0
-3.74503 -22.6868 -4.20441 255 0 0
-3.45732 -22.6086 -4.19267 255 0 0
-3.28465 -22.5519 -4.18485 255 0 0
-3.22869 -22.5423 -4.18318 255 0 0
-3.1728 -22.5326 -4.1815 255 0 0
-3.11697 -22.5227 -4.17982 255 0 0
-3.00319 -22.4852 -4.17479 255 0 0
-2.88834 -22.4356 -4.16865 255 0 0
-2.83294 -22.4251 -4.16697 255 0 0
-2.66785 -22.3983 -4.1625 255 0 0
-2.60528 -22.3236 -4.15468 255 0 0
-2.4968 -22.3125 -4.15244 255 0 0
-2.44262 -22.3068 -4.15132 255 0 0
-2.05323 -22.1411 -4.13177 255 0 0
-2.00283 -22.1691 -4.134 255 0 0
-1.94771 -22.1448 -4.13121 255 0 0
-1.78404 -22.0826 -4.12394 255 0 0
-1.73259 -22.0983 -4.12506 255 0 0
-1.67577 -22.0443 -4.11947 255 0 0
-1.56956 -22.0287 -4.11724 255 0 0
-1.51933 -22.0614 -4.12003 255 0 0
-1.46392 -22.0185 -4.11556 255 0 0
-1.30485 -21.9876 -4.11165 255 0 0
-1.04051 -21.9258 -4.10439 255 0 0
-0.683662 -22.1731 -4.12674 255 0 0
-0.579573 -22.2169 -4.13065 255 0 0
-0.422525 -22.2729 -4.13568 255 0 0
-0.31541 -22.1697 -4.12562 255 0 0
-0.205855 -21.7047 -4.08092 255 0 0
-0.153978 -21.6469 -4.07533 255 0 0
-0.051271 -21.624 -4.07309 255 0 0
0.207292 -21.8563 -4.09545 255 0 0
-3.51783 -22.6448 -4.38936 255 0 0
-0.985337 -21.8576 -4.28128 255 0 0
-1.78302 -22.07 -4.3086 255 0 0
-4.795 -23.1888 -4.46891 255 0 0
-4.22299 -22.8735 -4.42519 255 0 0
-4.15414 -22.8032 -4.41669 255 0 0
-3.22849 -22.5408 -4.37418 255 0 0
-3.11677 -22.5213 -4.37054 255 0 0
-2.88891 -22.4401 -4.359 255 0 0
-2.71869 -22.3733 -4.34989 255 0 0
-2.44122 -22.294 -4.33836 255 0 0
-2.38525 -22.2708 -4.33532 255 0 0
-2.22041 -22.2234 -4.32864 255 0 0
-2.16828 -22.2344 -4.32925 255 0 0
-2.00221 -22.1623 -4.32014 255 0 0
-1.24968 -21.9375 -4.291 255 0 0
-1.19798 -21.9462 -4.2916 255 0 0
-1.14564 -21.9431 -4.291 255 0 0
-1.09361 -21.9458 -4.291 255 0 0
-0.933509 -21.8599 -4.28128 255 0 0
-0.785866 -22.0872 -4.30435 255 0 0
-0.736394 -22.1763 -4.31346 255 0 0
-0.633379 -22.2552 -4.32136 255 0 0
-0.368441 -22.1971 -4.31468 255 0 0
-0.315313 -22.163 -4.31103 255 0 0
-0.26449 -22.3092 -4.32621 255 0 0
0.154927 -21.7803 -4.27096 255 0 0
0.312082 -21.9359 -4.28735 255 0 0
-1.0906 -21.8853 -4.46894 255 0 0
-1.03843 -21.882 -4.46829 255 0 0
-0.984711 -21.8438 -4.4637 255 0 0
-3.9622e-15 -21.5692 -4.43026 255 0 0
0.153711 -21.6094 -4.43485 255 0 0
-4.15158 -24.7838 -2.31329 255 0 0
-4.0928 -24.7935 -2.31329 255 0 0
-4.03401 -24.8032 -2.31329 255 0 0
-1.71163 -24.0227 -2.50047 255 0 0
