ply
format ascii 1.0
comment Created by Open3D
element vertex 548
property double x
property double y
property double z
property uchar red
property uchar green
property uchar blue
end_header
-2.34225 -2.9648 -3.76189 255 0 0
-2.71147 -2.3536 -3.63807 255 0 0
-1.46069 -2.93089 -3.39646 255 0 0
-2.64165 -2.30399 -3.59919 255 0 0
-0.265883 -3.49762 -3.56523 255 0 0
-2.30239 -3.12205 -3.80891 255 0 0
-2.58028 -3.15688 -3.73869 255 0 0
-2.3564 -3.07155 -3.72748 255 0 0
-2.10051 -1.93382 -3.32174 255 0 0
-0.315612 -3.49348 -3.56523 255 0 0
-2.13935 -1.96652 -3.32566 255 0 0
-2.3063 -2.39834 -3.55155 255 0 0
-1.39323 -3.0116 -3.47242 255 0 0
-2.35873 -2.67867 -3.62835 255 0 0
-1.44314 -2.87857 -3.4049 255 0 0
-0.522542 -2.9888 -3.36909 255 0 0
-2.3811 -3.25022 -3.77117 255 0 0
-2.68913 -2.22458 -3.62744 255 0 0
-2.36116 -2.98873 -3.73772 255 0 0
-2.8613 -2.54375 -3.70839 255 0 0
0.303686 -3.27501 -3.52264 255 0 0
-2.34157 -3.06537 -3.77929 255 0 0
-2.70075 -2.88971 -3.72568 255 0 0
0.46565 -3.11085 -3.41407 255 0 0
-2.47466 -2.68584 -3.62965 255 0 0
-2.38164 -3.30267 -3.73639 255 0 0
-0.12741 -3.46558 -3.61713 255 0 0
-1.39053 -3.01284 -3.52221 255 0 0
-3.18154 -2.15389 -3.79159 255 0 0
-3.34357 -2.48418 -3.85871 255 0 0
0.357144 -2.96888 -3.39442 255 0 0
-2.82683 -2.17399 -3.66291 255 0 0
0.336186 -3.07016 -3.4402 255 0 0
-3.07158 -2.72418 -3.79124 255 0 0
-2.47784 -3.25948 -3.73454 255 0 0
0.454903 -3.07197 -3.42201 255 0 0
-2.8615 -2.66804 -3.70695 255 0 0
-2.10844 -2.00361 -3.32699 255 0 0
-0.525426 -3.43599 -3.58582 255 0 0
-0.342541 -3.42839 -3.50324 255 0 0
-1.45525 -3.48115 -3.75942 255 0 0
0.414941 -3.16432 -3.39241 255 0 0
0.47145 -3.15823 -3.39319 255 0 0
-3.39045 -2.73777 -3.90129 255 0 0
-3.12905 -2.50836 -3.78951 255 0 0
0.515677 -2.99132 -3.41545 255 0 0
-1.39002 -3.22792 -3.62106 255 0 0
-2.58559 -3.19423 -3.75247 255 0 0
-2.62375 -2.63935 -3.66067 255 0 0
0.505116 -3.06752 -3.42874 255 0 0
-2.38495 -2.34291 -3.55898 255 0 0
-0.283167 -3.46381 -3.53695 255 0 0
-2.32846 -2.84881 -3.7157 255 0 0
-3.36102 -2.12181 -3.85345 255 0 0
-0.132837 -3.49992 -3.63321 255 0 0
-2.61575 -2.78549 -3.66715 255 0 0
-3.25711 -2.12162 -3.81262 255 0 0
-3.47357 -2.28024 -3.89569 255 0 0
-2.38425 -2.68829 -3.6034 255 0 0
-2.17111 -2.41892 -3.51567 255 0 0
-2.3415 -3.2228 -3.77758 255 0 0
0.321065 -3.21366 -3.44116 255 0 0
-2.37024 -3.02226 -3.7523 255 0 0
-1.62012 -3.01436 -3.52705 255 0 0
-1.443 -2.93015 -3.42503 255 0 0
-2.43642 -2.57407 -3.61701 255 0 0
-3.51878 -2.27427 -3.91149 255 0 0
-2.37008 -2.91033 -3.72184 255 0 0
-3.42985 -2.72286 -3.91066 255 0 0
0.489188 -3.19897 -3.41192 255 0 0
-2.74144 -2.35691 -3.64942 255 0 0
-1.47243 -3.38604 -3.61095 255 0 0
-1.69939 -3.31093 -3.66067 255 0 0
-2.42999 -3.27061 -3.73754 255 0 0
-1.36574 -3.0806 -3.57135 255 0 0
0.405245 -3.27018 -3.43768 255 0 0
-3.44005 -2.28747 -3.88476 255 0 0
-3.18645 -2.73948 -3.83339 255 0 0
-0.227949 -3.36735 -3.57382 255 0 0
-1.8289 -3.18226 -3.67453 255 0 0
-2.33714 -3.30665 -3.76666 255 0 0
-2.53554 -2.53854 -3.60102 255 0 0
-0.381503 -3.45881 -3.57014 255 0 0
-0.291798 -3.41037 -3.59609 255 0 0
-2.43271 -3.26617 -3.69686 255 0 0
-0.398189 -3.44736 -3.54853 255 0 0
-1.41578 -3.40941 -3.68425 255 0 0
-2.3671 -2.76661 -3.66116 255 0 0
-1.69818 -3.34758 -3.67499 255 0 0
-1.22932 -3.33374 -3.62106 255 0 0
-2.47577 -2.11832 -3.51938 255 0 0
-2.34081 -2.92235 -3.73334 255 0 0
-0.485683 -3.45776 -3.56808 255 0 0
-0.182606 -3.49756 -3.56284 255 0 0
-2.99057 -2.51408 -3.74338 255 0 0
-2.74969 -2.22037 -3.64806 255 0 0
-0.337422 -3.46015 -3.5341 255 0 0
-2.02229 -3.35117 -3.74657 255 0 0
-0.493658 -3.17776 -3.49959 255 0 0
-2.63175 -2.8293 -3.68588 255 0 0
0.325045 -3.15859 -3.44068 255 0 0
-0.544737 -3.40019 -3.5366 255 0 0
-0.497979 -2.9728 -3.40555 255 0 0
-3.50044 -2.48659 -3.91597 255 0 0
0.455267 -3.10014 -3.39821 255 0 0
-2.9842 -2.16271 -3.71859 255 0 0
0.477661 -2.98151 -3.40803 255 0 0
-2.1651 -2.4412 -3.42363 255 0 0
0.294509 -3.34848 -3.53357 255 0 0
-2.28499 -1.97392 -3.40803 255 0 0
-2.56036 -3.1175 -3.72031 255 0 0
-1.43171 -2.91308 -3.51361 255 0 0
-1.39311 -3.16936 -3.5334 255 0 0
-0.531806 -3.17473 -3.43638 255 0 0
-2.37577 -3.26449 -3.68222 255 0 0
-1.70699 -3.34526 -3.71342 255 0 0
-1.45496 -2.92521 -3.45786 255 0 0
0.370038 -2.98607 -3.40308 255 0 0
-2.53123 -3.17294 -3.73088 255 0 0
-2.4298 -3.04582 -3.69993 255 0 0
-3.32748 -2.4968 -3.85632 255 0 0
-2.35155 -3.15723 -3.79605 255 0 0
0.411332 -3.21528 -3.41426 255 0 0
-1.43874 -2.96582 -3.52053 255 0 0
-2.58989 -2.73183 -3.67976 255 0 0
-3.18878 -2.29948 -3.79362 255 0 0
-2.5448 -2.72287 -3.66305 255 0 0
-1.93773 -3.35318 -3.76688 255 0 0
-1.47271 -2.95498 -3.40795 255 0 0
-0.491308 -3.42989 -3.54614 255 0 0
-2.94141 -2.33508 -3.71342 255 0 0
-3.18678 -2.48709 -3.80383 255 0 0
-2.43741 -3.23227 -3.68673 255 0 0
0.404917 -3.00429 -3.4136 255 0 0
0.354461 -3.06892 -3.41975 255 0 0
-3.28936 -2.2958 -3.83007 255 0 0
-3.13755 -2.15868 -3.77591 255 0 0
-1.63242 -3.16199 -3.62349 255 0 0
-2.36251 -2.34298 -3.55155 255 0 0
-2.4425 -2.91714 -3.6851 255 0 0
-3.24417 -2.14619 -3.81386 255 0 0
-2.30317 -2.65974 -3.64064 255 0 0
-1.38539 -3.21501 -3.56913 255 0 0
-2.81538 -2.51491 -3.68453 255 0 0
-0.798555 -3.27066 -3.536 255 0 0
-2.42283 -2.77126 -3.67939 255 0 0
-3.13253 -2.48684 -3.78474 255 0 0
-0.24477 -3.43534 -3.60599 255 0 0
-1.77486 -3.22846 -3.64397 255 0 0
-2.13905 -1.96616 -3.35482 255 0 0
-2.38134 -2.96585 -3.69725 255 0 0
-0.426688 -3.28377 -3.54413 255 0 0
-2.49234 -3.21312 -3.73409 255 0 0
-0.160742 -3.38718 -3.58125 255 0 0
-2.43265 -3.18655 -3.7491 255 0 0
-2.20919 -2.49092 -3.38721 255 0 0
-2.89499 -2.33767 -3.69762 255 0 0
-3.07588 -2.50186 -3.76923 255 0 0
-0.721277 -3.36716 -3.5366 255 0 0
-3.18528 -3.01256 -3.86961 255 0 0
-2.522 -3.01204 -3.71398 255 0 0
-1.45932 -3.44489 -3.74457 255 0 0
-2.38825 -3.06267 -3.73304 255 0 0
-1.42171 -3.1216 -3.47965 255 0 0
-0.496417 -3.07524 -3.45257 255 0 0
-2.27194 -2.70036 -3.64559 255 0 0
-1.84195 -3.2584 -3.67021 255 0 0
-0.329627 -3.38026 -3.58372 255 0 0
-1.42746 -3.26147 -3.51819 255 0 0
-2.19456 -2.47142 -3.42566 255 0 0
-0.734335 -3.46825 -3.58193 255 0 0
-2.52784 -3.2789 -3.72501 255 0 0
-2.54145 -2.50851 -3.62916 255 0 0
-3.47937 -2.75548 -3.93642 255 0 0
-1.99924 -3.38511 -3.79362 255 0 0
-0.193126 -3.46256 -3.61713 255 0 0
-2.40968 -2.27902 -3.5466 255 0 0
-3.22621 -2.29754 -3.80698 255 0 0
-0.496115 -3.00539 -3.4204 255 0 0
-3.18509 -2.49793 -3.80622 255 0 0
0.366815 -3.11105 -3.42129 255 0 0
-1.67964 -3.19746 -3.6478 255 0 0
-2.79279 -2.361 -3.66845 255 0 0
-2.0296 -3.31859 -3.73583 255 0 0
-2.92881 -2.19765 -3.70745 255 0 0
-2.34873 -3.21666 -3.81711 255 0 0
-2.47291 -3.23929 -3.69799 255 0 0
-2.33974 -3.12073 -3.81881 255 0 0
-0.482466 -3.42616 -3.58546 255 0 0
-2.29258 -2.91611 -3.72972 255 0 0
-2.1895 -2.1509 -3.36957 255 0 0
-1.72394 -3.37847 -3.73043 255 0 0
-2.53998 -2.92618 -3.69056 255 0 0
-2.44593 -3.08099 -3.71632 255 0 0
-2.62143 -3.11577 -3.73639 255 0 0
-2.3401 -3.21285 -3.85345 255 0 0
-1.47914 -2.933 -3.53176 255 0 0
-2.51835 -3.21905 -3.7228 255 0 0
-1.43448 -2.95123 -3.47918 255 0 0
-1.39182 -2.95777 -3.52433 255 0 0
-2.37346 -3.17096 -3.78056 255 0 0
-2.6222 -2.23286 -3.60599 255 0 0
0.334483 -3.12303 -3.41724 255 0 0
-1.43784 -2.96921 -3.41986 255 0 0
-2.48637 -2.40222 -3.61218 255 0 0
0.422948 -3.08314 -3.38866 255 0 0
-0.283371 -3.40687 -3.49153 255 0 0
-2.65987 -2.25408 -3.62579 255 0 0
-1.42559 -3.37642 -3.6721 255 0 0
-1.38226 -3.05891 -3.5202 255 0 0
0.367309 -3.24765 -3.42597 255 0 0
-0.760865 -3.43257 -3.60405 255 0 0
-2.91364 -2.16475 -3.6926 255 0 0
-2.09501 -3.31566 -3.77627 255 0 0
-2.2481 -2.1061 -3.34402 255 0 0
-2.99212 -2.32658 -3.72921 255 0 0
-2.90333 -2.17854 -3.6926 255 0 0
-2.11623 -2.3861 -3.48721 255 0 0
-2.29913 -2.07343 -3.3815 255 0 0
-3.28293 -3.01044 -3.89946 255 0 0
-2.25172 -2.42074 -3.54165 255 0 0
-3.38142 -2.07903 -3.85098 255 0 0
-3.46842 -2.47624 -3.90166 255 0 0
-3.34783 -2.29555 -3.85195 255 0 0
-1.98802 -3.32393 -3.72827 255 0 0
-2.35223 -3.22148 -3.66195 255 0 0
-2.83773 -2.33626 -3.67696 255 0 0
-3.09871 -2.1573 -3.76065 255 0 0
-0.292267 -3.51382 -3.53836 255 0 0
0.321842 -3.22106 -3.50949 255 0 0
-2.43691 -2.8052 -3.68284 255 0 0
-1.39296 -3.06324 -3.49319 255 0 0
-0.412458 -3.32839 -3.56393 255 0 0
0.457965 -3.25238 -3.433 255 0 0
-3.33582 -2.71991 -3.87788 255 0 0
0.350715 -3.11192 -3.39741 255 0 0
-2.01638 -3.35939 -3.78754 255 0 0
-3.01174 -2.49153 -3.74418 255 0 0
0.410207 -3.07111 -3.41874 255 0 0
-3.11189 -2.72715 -3.80529 255 0 0
-2.6615 -2.87491 -3.70929 255 0 0
-1.40238 -3.26725 -3.65796 255 0 0
-2.63123 -3.06785 -3.72353 255 0 0
-0.241902 -3.47215 -3.53003 255 0 0
-2.18712 -1.96298 -3.37041 255 0 0
-2.23176 -1.95584 -3.38378 255 0 0
0.360091 -3.15033 -3.41491 255 0 0
-2.34638 -3.01386 -3.74258 255 0 0
-0.323994 -3.32237 -3.45641 255 0 0
-3.43694 -2.74844 -3.92003 255 0 0
-3.02326 -2.15842 -3.7322 255 0 0
-2.35139 -3.18056 -3.80455 255 0 0
-2.17064 -2.42998 -3.47024 255 0 0
-0.527529 -3.29278 -3.52142 255 0 0
-2.50282 -2.70351 -3.64397 255 0 0
-2.15743 -2.45591 -3.52433 255 0 0
-2.38495 -3.07088 -3.69641 255 0 0
-2.36437 -3.20607 -3.77758 255 0 0
-3.1913 -2.13304 -3.78994 255 0 0
-1.98489 -3.30686 -3.75959 255 0 0
-0.698955 -3.42099 -3.55807 255 0 0
-0.101561 -3.29391 -3.53671 255 0 0
-3.10004 -2.9459 -3.82367 255 0 0
-0.516036 -2.97241 -3.40679 255 0 0
-2.42759 -2.61399 -3.62754 255 0 0
-3.40862 -2.49508 -3.88495 255 0 0
-2.42754 -2.66629 -3.63602 255 0 0
-0.146942 -3.44093 -3.60599 255 0 0
-1.19293 -3.30733 -3.60405 255 0 0
-2.88777 -2.19913 -3.6926 255 0 0
-0.726307 -3.42025 -3.58644 255 0 0
-2.22573 -2.47979 -3.38834 255 0 0
0.378605 -3.21123 -3.41075 255 0 0
-2.27261 -2.63706 -3.62332 255 0 0
-1.24616 -3.36726 -3.63807 255 0 0
0.465952 -3.07152 -3.38628 255 0 0
-2.38173 -2.80376 -3.64158 255 0 0
-2.46856 -3.12468 -3.73739 255 0 0
-3.23239 -2.4981 -3.82292 255 0 0
-3.34121 -2.2832 -3.84628 255 0 0
-2.40738 -3.28064 -3.81576 255 0 0
-3.29216 -2.49476 -3.8432 255 0 0
-1.38443 -3.35638 -3.62011 255 0 0
0.310225 -3.18117 -3.45823 255 0 0
-2.43826 -2.45861 -3.61465 255 0 0
-1.40287 -3.00898 -3.43204 255 0 0
-0.380783 -3.35529 -3.57465 255 0 0
0.495071 -3.06698 -3.38628 255 0 0
-2.34184 -2.81943 -3.7091 255 0 0
-0.818326 -3.38646 -3.58947 255 0 0
-2.4441 -3.01361 -3.6929 255 0 0
-2.78706 -2.21616 -3.66043 255 0 0
-3.06242 -2.30928 -3.74987 255 0 0
-2.4645 -2.66212 -3.65509 255 0 0
-2.48372 -2.5706 -3.63078 255 0 0
-0.339594 -3.45916 -3.56992 255 0 0
-2.59161 -2.88057 -3.69056 255 0 0
0.362923 -3.01634 -3.41669 255 0 0
-0.516614 -3.08404 -3.42663 255 0 0
-2.11229 -3.37245 -3.81549 255 0 0
-1.71356 -3.29994 -3.6964 255 0 0
-2.50804 -2.73506 -3.6559 255 0 0
-2.1116 -3.33608 -3.84108 255 0 0
0.457912 -3.00606 -3.41793 255 0 0
-2.38578 -2.90488 -3.67737 255 0 0
-2.22948 -2.50181 -3.39622 255 0 0
-2.55878 -3.3028 -3.74077 255 0 0
-0.514906 -3.02974 -3.41751 255 0 0
-3.21983 -2.74176 -3.8451 255 0 0
-3.2467 -2.97018 -3.8765 255 0 0
-3.3215 -3.02413 -3.91554 255 0 0
-3.27293 -3.03718 -3.90406 255 0 0
-3.24045 -3.02857 -3.89142 255 0 0
-3.23555 -3.04561 -3.89487 255 0 0
-2.23301 -2.51179 -3.43321 255 0 0
-2.60663 -3.12816 -3.73639 255 0 0
-2.61296 -3.15092 -3.74558 255 0 0
-2.39553 -3.27262 -3.7295 255 0 0
-2.35028 -3.30857 -3.73065 255 0 0
-2.30903 -3.27508 -3.70883 255 0 0
-1.43753 -2.95429 -3.40106 255 0 0
-1.40951 -2.93196 -3.38727 255 0 0
-1.40021 -2.94834 -3.39187 255 0 0
-1.40137 -2.96594 -3.42036 255 0 0
-1.44181 -3.1508 -3.47762 255 0 0
-1.39767 -3.12762 -3.4862 255 0 0
-1.39781 -3.15289 -3.47073 255 0 0
-3.46926 -2.70754 -3.92003 255 0 0
-3.29249 -2.73035 -3.86617 255 0 0
-3.25451 -2.73817 -3.85564 255 0 0
-3.14181 -2.73367 -3.817 255 0 0
-3.04663 -2.72797 -3.78422 255 0 0
-3.0456 -2.75319 -3.79124 255 0 0
-2.99628 -2.74756 -3.77368 255 0 0
-2.9347 -2.72331 -3.74676 255 0 0
-2.64013 -2.86543 -3.69993 255 0 0
-2.59705 -2.83212 -3.67651 255 0 0
-2.67354 -2.92945 -3.73037 255 0 0
-2.64494 -2.91194 -3.71632 255 0 0
-2.53466 -2.83073 -3.65778 255 0 0
-2.2633 -2.57643 -3.49622 255 0 0
-2.53131 -2.95846 -3.69876 255 0 0
-2.50165 -2.952 -3.68822 255 0 0
-2.42894 -2.88696 -3.64607 255 0 0
-2.48306 -3.02337 -3.70695 255 0 0
-2.45952 -2.98024 -3.68588 255 0 0
-2.42972 -3.12099 -3.72568 255 0 0
-2.3799 -3.10977 -3.72786 255 0 0
-2.3912 -3.17888 -3.73552 255 0 0
-2.37302 -3.21786 -3.74441 255 0 0
-2.33118 -3.20859 -3.73037 255 0 0
-2.3859 -3.32792 -3.78656 255 0 0
-2.33788 -3.25011 -3.74676 255 0 0
-1.43063 -2.8368 -3.38617 255 0 0
-1.42088 -3.08574 -3.48217 255 0 0
-1.41805 -3.23997 -3.54305 255 0 0
-1.45375 -3.36489 -3.59924 255 0 0
-1.43683 -3.39923 -3.63455 255 0 0
-2.59019 -2.68717 -3.66544 255 0 0
-0.34193 -3.34215 -3.46578 255 0 0
-0.315669 -3.40403 -3.49153 255 0 0
-0.253018 -3.43615 -3.50324 255 0 0
-0.233199 -3.50749 -3.53368 255 0 0
0.45858 -3.21975 -3.41895 255 0 0
-0.731616 -3.37632 -3.61094 255 0 0
-3.66965 -2.5807 -4.00187 255 0 0
-3.44082 -2.43199 -3.88018 255 0 0
-3.41684 -2.47013 -3.88138 255 0 0
-3.37606 -2.48972 -3.87183 255 0 0
-3.23489 -2.48171 -3.81934 255 0 0
-3.03554 -2.51725 -3.75969 255 0 0
-2.93692 -2.52494 -3.72827 255 0 0
-2.89439 -2.53043 -3.71555 255 0 0
-2.90345 -2.54448 -3.72271 255 0 0
-2.70595 -2.42871 -3.62249 255 0 0
-2.17758 -1.96196 -3.32551 255 0 0
-2.11452 -2.02855 -3.30754 255 0 0
-2.6173 -2.60801 -3.64874 255 0 0
-2.62868 -2.6758 -3.67379 255 0 0
-2.5862 -2.63886 -3.64874 255 0 0
-2.53255 -2.64615 -3.63442 255 0 0
-2.53459 -2.79046 -3.68214 255 0 0
-2.18131 -2.44192 -3.47744 255 0 0
-2.44029 -2.77789 -3.64993 255 0 0
-2.45398 -2.8475 -3.67737 255 0 0
-2.47158 -2.88173 -3.69407 255 0 0
-2.38806 -2.81456 -3.67473 255 0 0
-2.39611 -2.88942 -3.67499 255 0 0
-2.44711 -2.9652 -3.71555 255 0 0
-2.36196 -2.88983 -3.66544 255 0 0
-2.36088 -2.95943 -3.6893 255 0 0
-2.35268 -3.10464 -3.73821 255 0 0
-2.33869 -3.25123 -3.78713 255 0 0
-2.04357 -3.26277 -3.71793 255 0 0
-2.06471 -3.33151 -3.74895 255 0 0
-1.94059 -3.3036 -3.73519 255 0 0
-1.9441 -3.36419 -3.73384 255 0 0
-1.88615 -3.26393 -3.68214 255 0 0
-1.961 -3.41211 -3.75611 255 0 0
-1.93964 -3.39354 -3.74418 255 0 0
-1.87353 -3.33267 -3.706 255 0 0
-1.88389 -3.36977 -3.72271 255 0 0
-1.84596 -3.32968 -3.69885 255 0 0
-1.713 -3.27981 -3.65112 255 0 0
-1.6294 -3.23095 -3.63276 255 0 0
-1.39886 -2.96001 -3.47404 255 0 0
-1.38438 -3.1094 -3.53009 255 0 0
-1.42663 -3.36772 -3.63204 255 0 0
-1.43545 -3.45679 -3.67021 255 0 0
-1.39701 -3.41899 -3.6776 255 0 0
-1.37649 -3.4135 -3.64238 255 0 0
-1.36051 -3.38921 -3.62965 255 0 0
-1.22284 -3.31617 -3.57716 255 0 0
-0.532865 -3.01438 -3.3904 255 0 0
-0.51783 -3.04695 -3.37912 255 0 0
-0.524392 -3.20035 -3.44712 255 0 0
-0.531961 -3.45689 -3.56773 255 0 0
-0.440352 -3.45646 -3.57414 255 0 0
-0.443786 -3.44718 -3.55091 255 0 0
-0.409809 -3.44061 -3.54614 255 0 0
-0.290448 -3.45864 -3.57573 255 0 0
-0.235134 -3.46879 -3.57036 255 0 0
-0.191273 -3.45428 -3.54375 255 0 0
-0.185016 -3.46516 -3.57735 255 0 0
-0.151835 -3.45893 -3.54495 255 0 0
0.306292 -3.26076 -3.46144 255 0 0
0.374105 -3.07868 -3.38389 255 0 0
0.401467 -3.148 -3.4161 255 0 0
0.40175 -3.10144 -3.41632 255 0 0
0.40009 -3.10777 -3.39821 255 0 0
0.494173 -3.1321 -3.41491 255 0 0
-3.22265 -2.12099 -3.79901 255 0 0
-3.56497 -2.28618 -3.93215 255 0 0
-3.49952 -2.2795 -3.90541 255 0 0
-3.45113 -2.29489 -3.89083 255 0 0
-3.39328 -2.28554 -3.86653 255 0 0
-3.2975 -2.2841 -3.83007 255 0 0
-3.2436 -2.28682 -3.81063 255 0 0
-3.13738 -2.3022 -3.77539 255 0 0
-3.08417 -2.31134 -3.75838 255 0 0
-3.03139 -2.32366 -3.74258 255 0 0
-2.91778 -2.3561 -3.71098 255 0 0
-2.87283 -2.34806 -3.69276 255 0 0
-2.8348 -2.3565 -3.68182 255 0 0
-2.48393 -2.17683 -3.50683 255 0 0
-2.27087 -1.99965 -3.38045 255 0 0
-2.21825 -1.96267 -3.35129 255 0 0
-2.1353 -1.93947 -3.31605 255 0 0
-2.1042 -1.96664 -3.31402 255 0 0
-2.17303 -2.07482 -3.37073 255 0 0
-2.34878 -2.25329 -3.48496 255 0 0
-2.40097 -2.31431 -3.52142 255 0 0
-2.55133 -2.47684 -3.62228 255 0 0
-2.56728 -2.51009 -3.63807 255 0 0
-2.50136 -2.52225 -3.62066 255 0 0
-2.4677 -2.61538 -3.6405 255 0 0
-2.32202 -2.56864 -3.57974 255 0 0
-2.2126 -2.4593 -3.50926 255 0 0
-2.1366 -2.40904 -3.49059 255 0 0
-2.36176 -2.75368 -3.65509 255 0 0
-2.34619 -2.81566 -3.6721 255 0 0
-2.36666 -2.88858 -3.70369 255 0 0
-2.37176 -2.98032 -3.73772 255 0 0
-2.37512 -3.06573 -3.76931 255 0 0
-2.34886 -3.12263 -3.78268 255 0 0
-2.09439 -3.3616 -3.80698 255 0 0
-2.0872 -3.40362 -3.82157 255 0 0
-2.03172 -3.32208 -3.7766 255 0 0
-1.96153 -3.33932 -3.76688 255 0 0
-1.89449 -3.24276 -3.71342 255 0 0
-1.45828 -2.76013 -3.4242 255 0 0
-1.73864 -3.32892 -3.71342 255 0 0
-1.53389 -3.06864 -3.56516 255 0 0
-1.49221 -2.9588 -3.53419 255 0 0
-1.37423 -3.12371 -3.57067 255 0 0
-1.38082 -3.17538 -3.57974 255 0 0
-1.35542 -3.37652 -3.65995 255 0 0
-1.272 -3.3633 -3.6405 255 0 0
-1.18075 -3.24941 -3.57731 255 0 0
-1.15635 -3.2299 -3.56516 255 0 0
-0.801621 -3.35212 -3.57245 255 0 0
-0.793376 -3.42517 -3.60405 255 0 0
-0.785723 -3.41057 -3.59676 255 0 0
-0.756146 -3.44998 -3.61134 255 0 0
-0.675281 -3.26568 -3.52142 255 0 0
-0.508432 -3.08 -3.4242 255 0 0
-0.50968 -3.13378 -3.4485 255 0 0
-0.531343 -3.36769 -3.55544 255 0 0
-0.415758 -3.42147 -3.57245 255 0 0
-0.389539 -3.41968 -3.58753 255 0 0
-0.174316 -3.41701 -3.57811 255 0 0
-0.14183 -3.46502 -3.58217 255 0 0
-0.135267 -3.42096 -3.58499 255 0 0
0.29429 -3.4394 -3.57488 255 0 0
0.313534 -3.21593 -3.48496 255 0 0
0.477379 -3.02566 -3.39747 255 0 0
-0.435254 -3.34957 -3.57506 255 0 0
-3.50055 -2.11812 -3.90789 255 0 0
-3.47033 -2.11674 -3.89552 255 0 0
-3.40783 -2.11201 -3.86953 255 0 0
-3.33288 -2.11064 -3.83959 255 0 0
-3.29109 -2.13263 -3.8287 255 0 0
-2.95122 -2.17642 -3.70992 255 0 0
-2.84723 -2.21122 -3.68106 255 0 0
-2.76918 -2.24697 -3.66291 255 0 0
-2.69448 -2.24793 -3.63631 255 0 0
-2.37014 -2.03769 -3.45752 255 0 0
-2.44249 -2.3599 -3.58372 255 0 0
-2.38843 -2.32417 -3.55403 255 0 0
-2.35695 -2.34858 -3.55155 255 0 0
-2.38887 -2.39171 -3.5763 255 0 0
-2.23209 -2.38825 -3.52433 255 0 0
-2.35845 -2.59653 -3.63569 255 0 0
-2.29308 -2.75187 -3.67033 255 0 0
-2.33632 -3.00092 -3.77344 255 0 0
-2.29917 -3.0117 -3.76684 255 0 0
-2.28666 -3.1007 -3.79653 255 0 0
-2.1195 -3.33107 -3.84108 255 0 0
-1.38542 -2.92796 -3.51047 255 0 0
-1.35316 -2.97573 -3.52433 255 0 0
-1.35781 -3.01439 -3.54165 255 0 0
-1.35791 -3.04343 -3.55403 255 0 0
-1.36072 -3.12917 -3.59115 255 0 0
-1.40504 -3.29497 -3.67033 255 0 0
-1.4276 -3.41505 -3.72601 255 0 0
-1.3871 -3.41451 -3.71859 255 0 0
-1.41034 -3.4423 -3.73467 255 0 0
-0.709001 -3.3486 -3.59609 255 0 0
-0.491877 -2.77461 -3.31399 255 0 0
-0.495401 -3.13989 -3.48226 255 0 0
-0.490841 -3.26139 -3.53794 255 0 0
-0.483955 -3.36698 -3.5862 255 0 0
-0.402005 -3.30829 -3.55403 255 0 0
-0.355333 -3.39367 -3.59115 255 0 0
-0.342916 -3.43227 -3.60847 255 0 0
-0.288719 -3.37463 -3.57939 255 0 0
-0.25945 -3.41299 -3.59609 255 0 0
-0.229182 -3.44707 -3.61094 255 0 0
-0.192143 -3.3731 -3.57547 255 0 0
0.240995 -3.07377 -3.43772 255 0 0
0.27264 -3.37469 -3.57877 255 0 0
0.296637 -3.37267 -3.57877 255 0 0
0.299858 -3.3191 -3.55403 255 0 0
0.333427 -3.11316 -3.45999 255 0 0
0.423585 -2.9575 -3.39318 255 0 0
0.460258 -2.96276 -3.39813 255 0 0
0.502307 -3.0205 -3.42782 255 0 0
0.541046 -3.09464 -3.46494 255 0 0
