ply
format ascii 1.0
comment Created by Open3D
element vertex 810
property double x
property double y
property double z
property uchar red
property uchar green
property uchar blue
end_header
-36.6147 -1.52012 -3.37121 255 0 0
-34.5491 -4.82308 -5.34433 255 0 0
-35.4281 -3.49732 -4.81669 255 0 0
-37.6758 0.133995 -2.46972 255 0 0
-35.9269 -2.77394 -4.24901 255 0 0
-35.4355 -3.75274 -2.74049 255 0 0
-36.3494 -6.39952 -3.6883 255 0 0
-36.6078 -1.51983 -4.8989 255 0 0
-36.0636 -3.64641 -2.45191 255 0 0
-36.7766 -1.26487 -3.3769 255 0 0
-34.4933 -5.06567 -4.46699 255 0 0
-36.0856 -2.52813 -3.9561 255 0 0
-36.0937 -6.26629 -3.67572 255 0 0
-36.1648 -2.44752 -2.45191 255 0 0
-35.8167 -3.02186 -2.74694 255 0 0
-36.7748 -1.35211 -3.98993 255 0 0
-36.1356 -6.36187 -4.59636 255 0 0
-35.9182 -6.14813 -3.6669 255 0 0
-35.6797 -3.18078 -3.34034 255 0 0
-35.9133 -2.77289 -3.34778 255 0 0
-36.8168 -1.17886 -5.2227 255 0 0
-34.6052 -4.83091 -4.76451 255 0 0
-36.4396 -1.85918 -4.58189 255 0 0
-35.9613 -6.24331 -4.88782 255 0 0
-35.6327 -5.8387 -3.35106 255 0 0
-35.9383 -3.03213 -2.44964 255 0 0
-36.6063 -1.60672 -4.28695 255 0 0
-34.5823 -4.91133 -4.18008 255 0 0
-36.217 -2.19238 -4.87073 255 0 0
-37.5118 -4.60336 -2.47118 255 0 0
-37.3506 -0.575678 -4.01996 255 0 0
-34.4537 -5.05986 -5.04664 255 0 0
-36.1526 -2.27453 -4.56329 255 0 0
-36.8681 -4.70193 -2.46337 255 0 0
-35.2123 -3.81355 -5.09869 255 0 0
-35.2793 -3.73619 -5.1038 255 0 0
-35.3308 -3.65696 -4.21692 255 0 0
-36.381 -3.76566 -2.456 255 0 0
-35.1428 -3.97471 -4.79822 255 0 0
-34.8033 -4.4386 -4.4827 255 0 0
-35.3911 -3.49367 -3.62676 255 0 0
-35.5943 -3.34337 -3.33771 255 0 0
-36.3336 -6.66352 -4.30555 255 0 0
-36.6014 -1.69346 -2.76142 255 0 0
-36.8248 -1.17912 -4.91506 255 0 0
-37.7623 0.134303 -3.09878 255 0 0
-37.0296 -0.746382 -3.69419 255 0 0
-36.9476 -1.18305 -3.07562 255 0 0
-36.6905 -6.28032 -3.08311 255 0 0
-35.5731 -3.2563 -4.52775 255 0 0
-35.0938 -3.96916 -3.61552 255 0 0
-36.1803 -2.19016 -5.17116 255 0 0
-37.5538 -0.0445203 -4.03071 255 0 0
-35.1184 -3.88765 -5.38736 255 0 0
-36.8681 -1.1805 -4.30227 255 0 0
-37.3115 -0.398112 -4.32889 255 0 0
-35.5766 -3.17158 -5.42424 255 0 0
-37.265 -0.662739 -3.08447 255 0 0
-35.6718 -3.26534 -2.74439 255 0 0
-35.891 -2.85679 -3.94693 255 0 0
-36.9018 -3.90802 -2.46264 255 0 0
-35.5542 -5.30762 -3.04598 255 0 0
-34.4169 -5.22129 -4.46327 255 0 0
-34.8162 -4.44025 -3.89793 255 0 0
-34.6136 -4.99953 -3.30859 255 0 0
-36.4707 -1.94748 -2.45534 255 0 0
-36.0715 -2.44121 -4.55833 255 0 0
-36.7 -1.34936 -5.21301 255 0 0
-36.9938 -0.833412 -3.38456 255 0 0
-36.5077 -1.68913 -3.36748 255 0 0
-35.7071 -3.18321 -3.04309 255 0 0
-35.2987 -3.56907 -5.40133 255 0 0
-35.5188 -3.33627 -4.52444 255 0 0
-37.0296 -0.834218 -4.31175 255 0 0
-36.3675 -2.11496 -2.45417 255 0 0
-36.2077 -2.27799 -4.26433 255 0 0
-37.547 -0.133537 -2.46811 255 0 0
-37.4512 -0.310797 -3.71318 255 0 0
-36.1729 -6.36843 -4.29242 255 0 0
-36.8625 -1.09284 -4.91783 255 0 0
-35.5004 -5.99001 -4.54759 255 0 0
-34.811 -4.43958 -4.19029 255 0 0
-35.9581 -2.86214 -2.44972 255 0 0
-36.848 -1.3548 -3.07289 255 0 0
-37.395 -0.221662 -5.27169 255 0 0
-36.9949 -0.833437 -4.001 255 0 0
-34.7948 -4.6053 -3.89793 255 0 0
-36.0077 -2.60848 -3.35084 255 0 0
-35.0763 -4.30449 -3.02827 255 0 0
-37.1586 -0.660846 -4.62983 255 0 0
-35.5268 -3.33702 -4.22713 255 0 0
-36.5622 -1.77853 -2.76069 255 0 0
-36.4464 -1.94618 -3.06199 255 0 0
-35.8157 -2.67995 -5.44324 255 0 0
-34.7584 -4.76831 -3.31275 255 0 0
-36.8147 -1.35358 -2.76555 255 0 0
-35.2687 -3.98895 -3.32807 255 0 0
-35.7802 -2.76262 -5.44044 255 0 0
-37.3883 -0.310276 -4.33364 255 0 0
-36.3206 -2.19866 -3.05876 255 0 0
-35.4712 -3.41667 -4.81947 255 0 0
-37.0995 -0.835793 -2.77115 255 0 0
-37.421 -0.39928 -3.0889 255 0 0
-34.9137 -4.36858 -4.7839 255 0 0
-35.3217 -3.74068 -3.92069 255 0 0
-35.6505 -2.92273 -5.42927 255 0 0
-35.3241 -3.65627 -4.80977 255 0 0
-35.6349 -3.34718 -2.74378 255 0 0
-36.1459 -2.27411 -5.16861 255 0 0
-37.1014 -0.923854 -3.07987 255 0 0
-37.3877 -0.398926 -2.77699 255 0 0
-35.5471 -3.50906 -3.03934 255 0 0
-34.4696 -5.14571 -4.46617 255 0 0
-35.151 -3.89125 -5.0941 255 0 0
-36.6617 -1.435 -5.20994 255 0 0
-35.6761 -3.26573 -3.04241 255 0 0
-37.6234 -0.0446028 -3.40777 255 0 0
-36.0742 -6.43927 -5.51309 255 0 0
-37.47 -0.310953 -3.40208 255 0 0
-35.863 -2.94015 -3.04701 255 0 0
-35.0291 -4.89008 -3.02913 255 0 0
-34.3666 -5.21366 -4.75019 255 0 0
-37.0336 -0.83431 -3.69445 255 0 0
-35.3023 -5.87055 -4.83147 255 0 0
-34.6601 -4.92238 -3.3099 255 0 0
-37.3889 -0.31028 -4.02186 255 0 0
-36.8861 -1.00601 -5.22832 255 0 0
-36.5197 -1.77647 -4.58726 255 0 0
-37.503 -0.133381 -4.65381 255 0 0
-34.6325 -4.83473 -4.47443 255 0 0
-36.9291 -1.00718 -4.92292 255 0 0
-36.7092 -1.3497 -3.37449 255 0 0
-35.3756 -5.19525 -3.04036 255 0 0
-35.978 -2.60633 -4.55255 255 0 0
-34.7081 -5.51832 -5.07471 255 0 0
-34.5722 -5.41269 -4.76866 255 0 0
-35.9426 -2.68944 -4.55048 255 0 0
-36.2538 -6.56007 -5.53208 255 0 0
-36.3308 -6.66299 -4.61372 255 0 0
-36.5806 -5.46085 -2.76859 255 0 0
-36.76 -1.35156 -4.60297 255 0 0
-37.1785 -0.396693 -5.56449 255 0 0
-36.5584 -1.60462 -3.36923 255 0 0
-35.1448 -4.14382 -3.32413 255 0 0
-35.9664 -2.69123 -3.34953 255 0 0
-34.4237 -5.22233 -3.88275 255 0 0
-36.8146 -1.17879 -3.37821 255 0 0
-36.4445 -1.77281 -4.88689 255 0 0
-35.5513 -3.42439 -3.33639 255 0 0
-35.0035 -4.21133 -4.78945 255 0 0
-35.7163 -3.0987 -3.34143 255 0 0
-35.6156 -3.17506 -4.53023 255 0 0
-36.8188 -1.26632 -3.99214 255 0 0
-37.4939 -0.222249 -2.46746 255 0 0
-37.1063 -0.659916 -4.93631 255 0 0
-35.0579 -4.97888 -3.03032 255 0 0
-34.4791 -5.39811 -5.05327 255 0 0
-36.5256 -6.60925 -3.08005 255 0 0
-34.9462 -4.54106 -3.02538 255 0 0
-34.4367 -5.1408 -4.17315 255 0 0
-34.965 -4.29083 -4.19868 255 0 0
-35.8336 -5.61018 -3.05535 255 0 0
-34.6215 -4.74952 -5.05736 255 0 0
-35.0498 -5.82855 -5.40636 255 0 0
-36.6967 -1.52352 -2.76324 255 0 0
-36.4683 -6.59889 -3.69526 255 0 0
-35.436 -5.89277 -3.9425 255 0 0
-35.1565 -3.80751 -5.39015 255 0 0
-34.7816 -4.51968 -5.06858 255 0 0
-36.1672 -2.36155 -3.95989 255 0 0
-36.2753 -2.28225 -2.45315 255 0 0
-35.9458 -6.59239 -5.50359 255 0 0
-35.3337 -3.8267 -3.32983 255 0 0
-35.6521 -3.09313 -4.5323 255 0 0
-34.9314 -5.55382 -3.61793 255 0 0
-35.5553 -4.10677 -2.74378 255 0 0
-35.7744 -3.10374 -2.74621 255 0 0
-35.5038 -3.5898 -3.03832 255 0 0
-34.827 -4.44162 -5.07165 255 0 0
-37.0849 -0.923444 -2.46249 255 0 0
-37.624 -0.0446035 -2.78185 255 0 0
-35.6319 -3.00627 -5.42815 255 0 0
-35.379 -3.40779 -5.40747 255 0 0
-34.5723 -5.07728 -3.5984 255 0 0
-35.2488 -5.09127 -3.03628 255 0 0
-36.4579 -6.59701 -3.38631 255 0 0
-35.1647 -3.97719 -4.50419 255 0 0
-34.4591 -5.14415 -3.88401 255 0 0
-35.4761 -3.24742 -5.4153 255 0 0
-36.0057 -2.78003 -2.45023 255 0 0
-36.9638 -1.09584 -2.76847 255 0 0
-35.8323 -5.95868 -3.35916 255 0 0
-37.1603 -0.572744 -4.94046 255 0 0
-35.767 -3.1031 -3.04462 255 0 0
-36.4392 -6.50444 -2.7692 255 0 0
-37.2009 -0.573371 -4.63273 255 0 0
-36.0537 -6.34744 -5.2028 255 0 0
-36.0756 -5.47293 -2.75825 255 0 0
-34.3698 -5.04753 -5.33036 255 0 0
-34.6511 -4.83732 -3.89192 255 0 0
-36.1656 -6.5441 -3.9874 255 0 0
-35.2897 -3.9066 -3.32851 255 0 0
-37.6823 0.134019 -2.78307 255 0 0
-34.97 -4.12321 -3.61071 255 0 0
-37.6759 -4.26121 -2.47271 255 0 0
-35.3837 -3.57767 -4.51659 255 0 0
-35.9741 -5.80709 -3.06029 255 0 0
-36.4519 -1.59994 -5.498 255 0 0
-36.1355 -2.53162 -2.45162 255 0 0
-37.575 -0.133637 -3.09333 255 0 0
-35.2908 -3.73742 -4.51122 255 0 0
-36.1831 -2.44876 -2.75363 255 0 0
-36.2105 -2.36438 -3.05586 255 0 0
-34.6945 -4.84337 -3.60241 255 0 0
-36.0052 -3.20979 -2.45067 255 0 0
-36.9496 -1.00774 -3.99878 255 0 0
-36.1534 -6.365 -4.90444 255 0 0
-36.6123 -1.69397 -2.45694 255 0 0
-36.4936 -1.86194 -2.75935 255 0 0
-36.274 -2.10952 -3.66208 255 0 0
-36.355 -2.11423 -3.05961 255 0 0
-36.608 -1.34598 -5.51197 255 0 0
-34.8013 -5.53314 -4.78806 255 0 0
-37.3814 -0.398858 -3.39879 255 0 0
-36.4839 -6.51241 -3.69526 255 0 0
-35.7644 -3.01745 -3.34296 255 0 0
-35.8658 -2.85479 -3.34625 255 0 0
-37.0152 -0.833895 -4.92938 255 0 0
-37.4545 -0.0444026 -5.59076 255 0 0
-35.8188 -2.85105 -4.54263 255 0 0
-35.2747 -3.73571 -4.80653 255 0 0
-37.2754 -0.48612 -4.32671 255 0 0
-35.9384 -2.77484 -3.94914 255 0 0
-36.4481 -1.85962 -4.27783 255 0 0
-34.3261 -5.37417 -5.33092 255 0 0
-37.2566 -0.57423 -2.77431 255 0 0
-37.1891 -0.749597 -2.77297 255 0 0
-37.2369 -0.662239 -2.46432 255 0 0
-36.4002 -6.3195 -3.38237 255 0 0
-35.4952 -4.01456 -2.74232 255 0 0
-35.1262 -4.0572 -4.50212 255 0 0
-35.9423 -2.68942 -3.6487 255 0 0
-35.1609 -3.97676 -4.20853 255 0 0
-36.9522 -1.00781 -4.61578 255 0 0
-35.1674 -5.76245 -4.22421 255 0 0
-34.9094 -4.284 -3.60883 255 0 0
-34.5474 -4.90638 -4.76081 255 0 0
-36.8048 -1.26584 -3.68455 255 0 0
-34.4973 -4.89927 -5.63292 255 0 0
-34.9634 -4.29063 -5.08185 255 0 0
-34.5978 -4.91354 -4.47278 255 0 0
-36.6404 -1.60822 -2.76215 255 0 0
-35.4464 -3.92395 -2.7411 255 0 0
-36.0231 -2.69546 -3.05109 255 0 0
-35.433 -3.66754 -3.33289 255 0 0
-36.0488 -3.55859 -2.45162 255 0 0
-35.0725 -4.30401 -3.32216 255 0 0
-36.3604 -1.94159 -3.36245 255 0 0
-36.5897 -1.77987 -3.06591 255 0 0
-37.1884 -0.749582 -2.46373 255 0 0
-36.0371 -2.52473 -3.35172 255 0 0
-34.9075 -4.53603 -3.31713 255 0 0
-34.4465 -5.30938 -4.17534 255 0 0
-35.4369 -3.66795 -3.03662 255 0 0
-35.5473 -5.99793 -4.85226 255 0 0
-37.0216 -0.921868 -4.31139 255 0 0
-37.3392 -0.486952 -2.46556 255 0 0
-35.1224 -4.05677 -4.2067 255 0 0
-37.7714 -4.0907 -2.47366 255 0 0
-35.3243 -5.8742 -4.53395 255 0 0
-34.7711 -5.44384 -3.60991 255 0 0
-36.4452 -1.77284 -3.36529 255 0 0
-34.9743 -4.46041 -3.02589 255 0 0
-36.7763 -1.43949 -2.76482 255 0 0
-34.8266 -4.60951 -3.60696 255 0 0
-35.6506 -6.18938 -5.46894 255 0 0
-35.0317 -5.48463 -3.32676 255 0 0
-36.3031 -2.02486 -3.36048 255 0 0
-37.1477 -0.748763 -3.39025 255 0 0
-36.174 -6.54564 -4.60132 255 0 0
-34.8288 -4.5258 -3.89919 255 0 0
-37.7383 -4.17767 -2.47337 255 0 0
-37.5499 0.0445157 -4.97095 255 0 0
-36.6429 -1.52129 -3.6776 255 0 0
-34.8481 -4.44431 -3.60696 255 0 0
-34.9127 -4.36845 -5.07828 255 0 0
-35.5719 -6.00208 -4.25157 255 0 0
-36.5655 -5.28146 -2.76774 255 0 0
-37.2768 -0.397743 -5.26149 255 0 0
-36.1363 -2.35953 -3.355 255 0 0
-34.9179 -4.6216 -3.02487 255 0 0
-36.2486 -6.64792 -5.22423 255 0 0
-35.6064 -6.0079 -3.95262 255 0 0
-35.7474 -2.93068 -5.13799 255 0 0
-34.4863 -5.31551 -3.88686 255 0 0
-36.3455 -6.66569 -3.99815 255 0 0
-34.6847 -4.67443 -5.06195 255 0 0
-37.2318 -0.308977 -5.56952 255 0 0
-36.1055 -2.52952 -3.05314 255 0 0
-35.6808 -4.29281 -2.74682 255 0 0
-36.486 -1.86155 -3.06301 255 0 0
-36.5161 -1.86309 -2.45585 255 0 0
-34.549 -5.15756 -3.30706 255 0 0
-36.3231 -2.11238 -3.96748 255 0 0
-34.9529 -4.28934 -4.78621 255 0 0
-36.197 -6.46119 -3.3758 255 0 0
-35.9465 -2.77546 -3.04905 255 0 0
-35.8445 -6.22303 -5.1829 255 0 0
-35.2068 -4.06652 -3.3261 255 0 0
-36.3254 -6.662 -4.92199 255 0 0
-36.2252 -2.2791 -3.96274 255 0 0
-34.8676 -4.61495 -3.31603 255 0 0
-36.4134 -2.03101 -2.45468 255 0 0
-36.1818 -2.27637 -3.65833 255 0 0
-36.7186 -1.43723 -4.29351 255 0 0
-36.1148 -2.44414 -4.25923 255 0 0
-34.6343 -4.83498 -4.18263 255 0 0
-35.5919 -3.42829 -2.74305 255 0 0
-36.0037 -2.60819 -4.25303 255 0 0
-35.2208 -5.59984 -3.33442 255 0 0
-37.6182 0.0445966 -4.03419 255 0 0
-36.9566 -0.920248 -3.38325 255 0 0
-36.4341 -1.8589 -3.66877 255 0 0
-35.7128 -3.0131 -4.83563 255 0 0
-35.0269 -5.73943 -5.10533 255 0 0
-35.4444 -3.49892 -4.52031 255 0 0
-36.4947 -6.06882 -3.07647 255 0 0
-36.1262 -2.01499 -5.16555 255 0 0
-35.4149 -3.83548 -2.74025 255 0 0
-34.7205 -4.51173 -5.35663 255 0 0
-35.8151 -3.02173 -3.04581 255 0 0
-35.4704 -3.58643 -2.74086 255 0 0
-37.3282 -0.486808 -2.77577 255 0 0
-37.547 0.133537 -5.28496 255 0 0
-34.8119 -4.52361 -4.19102 255 0 0
-36.1238 -2.35872 -4.56164 255 0 0
-37.0506 -0.922588 -2.77018 255 0 0
-37.4354 -0.310667 -2.77796 255 0 0
-36.066 -2.6127 -2.75144 255 0 0
-36.2415 -6.46915 -3.07119 255 0 0
-35.8412 -2.93837 -2.74731 255 0 0
-36.1236 -2.18673 -5.4695 255 0 0
-34.9253 -4.20192 -3.6091 255 0 0
-36.4589 -6.15174 -2.76835 255 0 0
-35.8212 -2.85124 -4.24281 255 0 0
-37.2058 -0.485212 -5.25536 255 0 0
-35.6275 -3.34648 -3.04122 255 0 0
-35.4911 -5.90193 -3.64576 255 0 0
-36.8373 -1.35441 -2.45957 255 0 0
-37.477 -0.222149 -2.77881 255 0 0
-37.3672 -0.487318 -3.08737 255 0 0
-36.1581 -2.44707 -3.0545 255 0 0
-35.4965 -3.50407 -3.33464 255 0 0
-35.9123 -2.85849 -2.74864 255 0 0
-36.7359 -1.52515 -3.06983 255 0 0
-36.8529 -1.26749 -2.76628 255 0 0
-37.5283 -0.133471 -3.71666 255 0 0
-34.3519 -5.12815 -5.3298 255 0 0
-35.1438 -3.89045 -3.6174 255 0 0
-35.7498 -5.42351 -3.05212 255 0 0
-36.3742 -2.11535 -2.75716 255 0 0
-35.6293 -3.17628 -3.93428 255 0 0
-35.4817 -3.41768 -4.52238 255 0 0
-37.2711 -0.662847 -3.70516 255 0 0
-36.7981 -1.26561 -4.60545 255 0 0
-37.5478 0.0445132 -5.5997 255 0 0
-36.048 -2.5255 -3.65298 255 0 0
-36.304 -2.19765 -2.45344 255 0 0
-34.9142 -4.36864 -4.19613 255 0 0
-35.0816 -4.13637 -4.49964 255 0 0
-37.5168 -4.5137 -2.47111 255 0 0
-36.2411 -2.28009 -2.7546 255 0 0
-36.0422 -2.6969 -2.75108 255 0 0
-37.4383 -0.22192 -4.64926 255 0 0
-37.4464 -0.310758 -2.46687 255 0 0
-35.8064 -2.93551 -3.34428 255 0 0
-35.3718 -3.74599 -3.33092 255 0 0
-36.6686 -1.52236 -3.98455 255 0 0
-37.1221 -0.836304 -2.46293 255 0 0
-35.6149 -3.175 -3.63559 255 0 0
-37.0366 -1.01011 -2.76993 255 0 0
-37.2606 -0.485927 -4.63686 255 0 0
-34.3476 -5.29413 -5.04052 255 0 0
-36.0585 -2.61216 -3.05195 255 0 0
-34.8106 -4.43953 -4.77652 255 0 0
-35.4088 -3.5802 -3.92448 255 0 0
-35.4618 -3.67052 -2.74086 255 0 0
-37.6585 0.0446444 -2.4695 255 0 0
-37.6116 -0.0445889 -2.46892 255 0 0
-37.387 -0.398918 -2.46614 255 0 0
-37.2852 -0.57467 -2.4649 255 0 0
-37.0241 -1.00977 -2.46176 255 0 0
-36.9807 -1.09634 -2.46125 255 0 0
-36.9311 -1.18252 -2.46067 255 0 0
-36.8814 -1.26847 -2.46008 255 0 0
-36.7814 -1.43969 -2.45892 255 0 0
-36.7135 -1.52422 -2.45811 255 0 0
-36.6747 -1.60972 -2.45767 255 0 0
-36.5614 -1.7785 -2.45636 255 0 0
-36.223 -2.3652 -2.45256 255 0 0
-36.0827 -2.61391 -2.45103 255 0 0
-36.0355 -2.6964 -2.45052 255 0 0
-35.9512 -2.94738 -2.44972 255 0 0
-35.9835 -3.12188 -2.4503 255 0 0
-36.0849 -3.30315 -2.45176 255 0 0
-36.1236 -3.39308 -2.45235 255 0 0
-36.1446 -3.48153 -2.45271 255 0 0
-37.6192 -4.34515 -2.47213 255 0 0
-37.5739 -4.43022 -2.47169 255 0 0
-37.0127 -4.63122 -2.46505 255 0 0
-35.7196 -4.81391 -2.44935 255 0 0
-35.7835 -4.90894 -2.4503 255 0 0
-35.8182 -2.851 -5.1436 255 0 0
-36.345 -6.48762 -4.92107 255 0 0
-36.757 -1.35145 -4.2957 255 0 0
-35.2313 -5.94461 -5.42536 255 0 0
-36.0722 -2.44126 -3.35281 255 0 0
-35.399 -3.74888 -3.03577 255 0 0
-35.0686 -3.96632 -5.38345 255 0 0
-36.4851 -1.77479 -3.67091 255 0 0
-34.8332 -4.52638 -4.48559 255 0 0
-36.7079 -1.34965 -4.90629 255 0 0
-35.4952 -3.41898 -3.92828 255 0 0
-36.0826 -6.52909 -4.90121 255 0 0
-37.243 -0.662348 -3.39376 255 0 0
-37.6864 0.0446775 -3.09656 255 0 0
-37.6591 0.0446452 -2.78258 255 0 0
-37.5243 -0.133456 -2.77979 255 0 0
-37.2201 -0.661939 -2.77358 255 0 0
-36.9085 -1.1818 -2.76738 255 0 0
-36.4364 -1.94565 -2.75825 255 0 0
-36.4025 -2.03041 -2.75765 255 0 0
-36.2931 -2.19699 -2.75558 255 0 0
-36.218 -2.36487 -2.75424 255 0 0
-36.1247 -2.53086 -2.75254 255 0 0
-35.9715 -2.77739 -2.74974 255 0 0
-35.7145 -3.18387 -2.74512 255 0 0
-35.5137 -3.50577 -2.74159 255 0 0
-35.6269 -4.20066 -2.74548 255 0 0
-35.7053 -4.38168 -2.74755 255 0 0
-35.9388 -4.49685 -2.75266 255 0 0
-35.9629 -4.58649 -2.75339 255 0 0
-35.8823 -4.66269 -2.75193 255 0 0
-35.7724 -4.7347 -2.74986 255 0 0
-35.7437 -4.81716 -2.7495 255 0 0
-35.68 -4.89473 -2.7484 255 0 0
-35.6509 -4.97689 -2.74804 255 0 0
-35.7723 -5.08034 -2.75083 255 0 0
-35.9352 -5.53883 -2.75558 255 0 0
-36.6173 -6.2678 -2.772 255 0 0
-36.3658 -6.31354 -2.76701 255 0 0
-36.3508 -6.39975 -2.76701 255 0 0
-34.8653 -5.37393 -3.31997 255 0 0
-35.9144 -2.68733 -4.84948 255 0 0
-36.7556 -1.26414 -5.2176 255 0 0
-37.5032 -0.0444603 -4.96725 255 0 0
-34.9799 -4.12438 -5.37674 255 0 0
-36.8806 -1.09337 -3.68776 255 0 0
-37.6396 -0.044622 -3.0952 255 0 0
-37.5395 -0.222519 -3.09231 255 0 0
-37.4628 -0.310894 -3.09009 255 0 0
-37.3075 -0.575013 -3.08566 255 0 0
-37.2165 -0.750149 -3.08311 255 0 0
-37.1561 -0.83707 -3.08141 255 0 0
-37.0581 -1.0107 -3.07868 255 0 0
-36.2172 -2.19239 -3.35763 255 0 0
-36.9971 -1.09683 -3.07698 255 0 0
-36.9038 -1.26924 -3.07443 255 0 0
-36.7979 -1.44033 -3.07153 255 0 0
-36.6971 -1.61071 -3.06881 255 0 0
-36.6347 -1.69501 -3.0671 255 0 0
-36.4183 -2.03129 -3.06131 255 0 0
-36.2569 -2.28109 -3.05705 255 0 0
-35.9165 -2.85883 -3.04837 255 0 0
-35.5787 -3.42702 -3.04002 255 0 0
-35.3377 -3.82713 -3.03423 255 0 0
-35.2994 -3.90768 -3.03338 255 0 0
-35.2493 -3.98676 -3.03219 255 0 0
-35.2049 -4.0663 -3.03117 255 0 0
-35.1603 -4.14565 -3.03015 255 0 0
-35.0981 -4.22271 -3.02861 255 0 0
-35.0196 -4.38183 -3.02691 255 0 0
-34.93 -4.7075 -3.02555 255 0 0
-34.9652 -4.79667 -3.02691 255 0 0
-35.9104 -5.53501 -3.05722 255 0 0
-35.9011 -5.70799 -3.05774 255 0 0
-36.4282 -6.14657 -3.07494 255 0 0
-36.274 -6.47493 -5.22372 255 0 0
-37.6104 -0.0445874 -3.72041 255 0 0
-36.905 -0.74387 -5.53879 255 0 0
-36.4238 -6.68006 -3.69392 255 0 0
-35.4532 -3.58469 -3.33333 255 0 0
-35.9741 -2.6918 -3.95073 255 0 0
-35.3975 -3.57906 -4.22056 255 0 0
-37.0054 -0.745894 -4.92846 255 0 0
-36.1768 -2.27605 -3.35632 255 0 0
-36.4342 -6.50354 -4.00131 255 0 0
-37.6585 0.0446444 -3.40908 255 0 0
-37.5588 -0.133579 -3.40536 255 0 0
-37.5233 -0.222423 -3.40405 255 0 0
-37.3335 -0.486878 -3.39704 255 0 0
-37.2971 -0.574854 -3.39573 255 0 0
-36.9134 -1.00675 -3.38171 255 0 0
-36.8524 -1.09254 -3.37952 255 0 0
-36.6591 -1.4349 -3.37274 255 0 0
-36.3999 -1.85716 -3.36376 255 0 0
-36.2631 -2.10889 -3.35916 255 0 0
-35.6488 -3.26323 -3.33946 255 0 0
-35.1174 -4.22504 -3.32348 255 0 0
-35.0273 -4.3828 -3.32085 255 0 0
-34.9588 -4.45843 -3.31866 255 0 0
-34.8044 -4.69057 -3.31406 255 0 0
-34.7122 -4.84585 -3.31144 255 0 0
-34.5843 -5.07903 -3.30793 255 0 0
-34.6003 -5.24912 -3.30946 255 0 0
-35.5021 -5.73088 -3.34559 255 0 0
-36.0316 -6.07964 -3.36726 255 0 0
-36.3574 -6.2233 -3.38018 255 0 0
-36.6098 -6.44535 -3.39091 255 0 0
-36.9726 -1.00837 -4.30847 255 0 0
-37.102 -0.74784 -4.00669 255 0 0
-35.2433 -3.73238 -3.62114 255 0 0
-36.5698 -1.4314 -5.50862 255 0 0
-35.08 -4.05187 -5.08951 255 0 0
-35.6004 -3.17371 -4.23078 255 0 0
-35.4521 -3.49968 -3.92638 255 0 0
-36.3887 -1.9431 -3.6669 255 0 0
-35.3535 -3.48995 -5.4058 255 0 0
-34.6597 -4.92233 -3.60134 255 0 0
-37.0149 -0.833888 -4.61991 255 0 0
-36.3487 -2.0274 -4.57611 255 0 0
-35.9567 -2.6905 -4.25047 255 0 0
-35.8859 -6.23022 -4.57735 255 0 0
-37.6162 0.0445943 -3.72067 255 0 0
-37.4752 -0.222138 -3.71425 255 0 0
-37.331 -0.575376 -3.70783 255 0 0
-36.9789 -0.920804 -3.69205 255 0 0
-36.9298 -1.0072 -3.68991 255 0 0
-36.8662 -1.18044 -3.68723 255 0 0
-36.7667 -1.35181 -3.68295 255 0 0
-36.6815 -1.43578 -3.6792 255 0 0
-36.5866 -1.60586 -3.67519 255 0 0
-36.5477 -1.69098 -3.67358 255 0 0
-36.3665 -2.0284 -3.66609 255 0 0
-36.2338 -2.1934 -3.66047 255 0 0
-36.1238 -2.35872 -3.65593 255 0 0
-36.0773 -2.4416 -3.65405 255 0 0
-35.9778 -2.60631 -3.65004 255 0 0
-35.8425 -2.76743 -3.64442 255 0 0
-35.7892 -2.84869 -3.64228 255 0 0
-35.7474 -2.93067 -3.64067 255 0 0
-35.7112 -3.01297 -3.63934 255 0 0
-35.6457 -3.09257 -3.63666 255 0 0
-35.5549 -3.25464 -3.63318 255 0 0
-35.5238 -3.33674 -3.63211 255 0 0
-35.4401 -3.41367 -3.62863 255 0 0
-35.3362 -3.57286 -3.62462 255 0 0
-35.2985 -3.65362 -3.62328 255 0 0
-35.2169 -3.81404 -3.62034 255 0 0
-35.0145 -4.04431 -3.61231 255 0 0
-34.9224 -4.36966 -3.60991 255 0 0
-34.878 -4.5322 -3.60883 255 0 0
-34.775 -4.68661 -3.60509 255 0 0
-34.729 -4.76427 -3.60348 255 0 0
-34.5958 -4.99697 -3.59894 255 0 0
-34.4965 -5.14974 -3.59546 255 0 0
-34.4785 -5.23064 -3.59519 255 0 0
-34.5469 -5.32485 -3.59894 255 0 0
-35.1664 -5.67671 -3.62944 255 0 0
-35.3029 -5.78466 -3.63639 255 0 0
-35.7365 -6.02986 -3.6578 255 0 0
-34.8245 -5.53682 -3.90678 255 0 0
-34.9311 -4.37076 -3.90362 255 0 0
-35.8953 -2.77151 -4.54759 255 0 0
-35.8714 -2.76966 -5.14768 255 0 0
-36.8172 -1.00413 -5.53097 255 0 0
-37.501 -0.133374 -4.02787 255 0 0
-37.4421 -0.221942 -4.02471 255 0 0
-37.0162 -0.921732 -4.00226 255 0 0
-36.8918 -1.18126 -3.99594 255 0 0
-36.7306 -1.4377 -3.98772 255 0 0
-36.624 -1.6075 -3.98234 255 0 0
-36.5734 -1.69217 -3.97981 255 0 0
-36.5051 -1.77576 -3.97633 255 0 0
-36.4482 -1.85962 -3.97349 255 0 0
-36.4086 -1.94417 -3.97159 255 0 0
-36.3689 -2.02853 -3.96969 255 0 0
-36.2713 -2.19567 -3.96495 255 0 0
-36.1265 -2.44493 -3.958 255 0 0
-36.0328 -2.6103 -3.95357 255 0 0
-35.8258 -2.9371 -3.94377 255 0 0
-35.7721 -3.01811 -3.94124 255 0 0
-35.695 -3.09685 -3.93745 255 0 0
-35.5867 -3.25755 -3.93239 255 0 0
-35.5498 -3.33919 -3.93081 255 0 0
-35.3595 -3.65993 -3.92227 255 0 0
-35.2604 -3.81875 -3.91784 255 0 0
-35.2222 -3.89913 -3.91626 255 0 0
-35.1838 -3.97935 -3.91468 255 0 0
-35.122 -4.05672 -3.91184 255 0 0
-35.0716 -4.13519 -3.90962 255 0 0
-35.0269 -4.21414 -3.90773 255 0 0
-34.9704 -4.29148 -3.9052 255 0 0
-34.7316 -4.68076 -3.89508 255 0 0
-34.6972 -4.75991 -3.89382 255 0 0
-34.6048 -4.91453 -3.89002 255 0 0
-34.5526 -4.99071 -3.88781 255 0 0
-34.5059 -5.06753 -3.88591 255 0 0
-34.6643 -5.42711 -3.89729 255 0 0
-35.0306 -5.65478 -3.91879 255 0 0
-35.196 -5.76713 -3.92859 255 0 0
-35.8572 -6.13768 -3.96717 255 0 0
-36.0038 -6.25069 -3.97602 255 0 0
-36.2019 -6.37354 -3.98772 255 0 0
-36.0024 -2.5223 -4.85549 255 0 0
-35.2412 -3.81668 -4.50832 255 0 0
-36.974 -0.74526 -5.23546 255 0 0
-37.5824 0.0445542 -4.34567 255 0 0
-37.5532 -0.0445196 -4.34385 255 0 0
-37.4829 -0.133309 -4.33947 255 0 0
-37.4532 -0.222008 -4.33765 255 0 0
-37.2215 -0.573688 -4.32342 255 0 0
-37.15 -0.660693 -4.31905 255 0 0
-37.1015 -0.747831 -4.31613 255 0 0
-36.9117 -1.0943 -4.30482 255 0 0
-36.8068 -1.26591 -4.29862 255 0 0
-36.6509 -1.52162 -4.2895 255 0 0
-36.5499 -1.69108 -4.28367 255 0 0
-36.4874 -1.7749 -4.28002 255 0 0
-36.391 -1.94323 -4.27455 255 0 0
-36.3338 -2.02657 -4.27126 255 0 0
-36.3056 -2.11136 -4.26981 255 0 0
-36.248 -2.19426 -4.26652 255 0 0
-36.1555 -2.36079 -4.26142 255 0 0
-36.0681 -2.5269 -4.25667 255 0 0
-35.7024 -3.01222 -4.23625 255 0 0
-35.6602 -3.09384 -4.23406 255 0 0
-35.5579 -3.25491 -4.22859 255 0 0
-35.4664 -3.41621 -4.22385 255 0 0
-35.4466 -3.49914 -4.22312 255 0 0
-35.2929 -3.73764 -4.21509 255 0 0
-35.2433 -3.81691 -4.21254 255 0 0
-35.2051 -3.89724 -4.21072 255 0 0
-35.0662 -4.13456 -4.20379 255 0 0
-35.0099 -4.2121 -4.20087 255 0 0
-34.7721 -4.6023 -4.1892 255 0 0
-34.7322 -4.68083 -4.18737 255 0 0
-34.6804 -4.75761 -4.18482 255 0 0
-34.5416 -4.98913 -4.17825 255 0 0
-34.495 -5.06592 -4.17607 255 0 0
-34.4013 -5.21892 -4.17169 255 0 0
-34.6244 -5.42087 -4.18737 255 0 0
-34.8308 -5.53781 -4.20123 255 0 0
-35.0483 -5.65764 -4.21582 255 0 0
-35.4131 -5.88896 -4.24063 255 0 0
-35.7592 -6.12091 -4.26433 255 0 0
-35.9806 -6.24666 -4.27929 255 0 0
-36.4051 -6.49834 -4.3081 255 0 0
-36.1366 -6.53885 -4.29205 255 0 0
-34.7361 -4.68136 -4.48022 255 0 0
-36.165 -6.72127 -5.5265 255 0 0
-34.4895 -4.9816 -4.75712 255 0 0
-34.3169 -5.20613 -5.61896 255 0 0
-34.9482 -5.64147 -4.50502 255 0 0
-37.5616 -0.0445296 -4.65794 255 0 0
-37.3735 -0.310153 -4.64471 255 0 0
-37.3259 -0.398266 -4.64141 255 0 0
-37.1102 -0.748006 -4.62653 255 0 0
-37.0245 -0.921939 -4.62074 255 0 0
-36.9263 -1.09473 -4.61413 255 0 0
-36.8536 -1.18004 -4.60917 255 0 0
-36.7158 -1.43712 -4.60008 255 0 0
-36.6598 -1.52199 -4.59636 255 0 0
-36.6152 -1.60711 -4.59346 255 0 0
-36.5413 -1.69068 -4.5885 255 0 0
-36.3884 -1.94308 -4.57858 255 0 0
-36.2622 -2.10883 -4.57032 255 0 0
-36.0132 -2.52306 -4.55461 255 0 0
-35.7537 -2.93119 -4.53849 255 0 0
-35.7234 -3.01399 -4.53684 255 0 0
-35.3461 -3.65854 -4.51452 255 0 0
-35.2147 -3.8983 -4.50708 255 0 0
-35.0137 -4.21256 -4.49551 255 0 0
-34.9747 -4.29201 -4.49344 255 0 0
-34.9122 -4.3684 -4.48973 255 0 0
-34.7703 -4.60206 -4.48187 255 0 0
-34.696 -4.75974 -4.47815 255 0 0
-34.5456 -4.98971 -4.46989 255 0 0
-34.3813 -5.29932 -4.46162 255 0 0
-34.5879 -5.41516 -4.47733 255 0 0
-34.7884 -5.53108 -4.49262 255 0 0
-35.1595 -5.76115 -4.52114 255 0 0
-35.6933 -6.10964 -4.56247 255 0 0
-36.3389 -6.48653 -4.61206 255 0 0
-35.3836 -3.57766 -5.11145 255 0 0
-35.4525 -3.41486 -5.11604 255 0 0
-35.7212 -2.84328 -5.43541 255 0 0
-36.5186 -1.68963 -4.89243 255 0 0
-34.885 -5.63127 -5.09155 255 0 0
-37.4388 -0.133152 -4.96217 255 0 0
-37.3858 -0.221608 -4.95801 255 0 0
-37.3385 -0.309863 -4.95432 255 0 0
-37.2676 -0.397644 -4.94878 255 0 0
-37.2141 -0.48532 -4.94462 255 0 0
-36.9664 -0.920493 -4.92569 255 0 0
-36.7752 -1.26482 -4.91137 255 0 0
-36.6755 -1.43554 -4.90398 255 0 0
-36.5575 -1.60458 -4.89521 255 0 0
-36.3936 -1.85684 -4.8832 255 0 0
-36.3657 -1.94187 -4.88135 255 0 0
-36.3086 -2.02517 -4.87719 255 0 0
-36.2745 -2.10955 -4.87488 255 0 0
-36.1651 -2.27531 -4.86703 255 0 0
-36.113 -2.35801 -4.86334 255 0 0
-36.0665 -2.44087 -4.86011 255 0 0
-35.9556 -2.6047 -4.85226 255 0 0
-35.873 -2.76978 -4.84671 255 0 0
-35.814 -2.85066 -4.84256 255 0 0
-35.7373 -2.92985 -4.83701 255 0 0
-35.6823 -3.09575 -4.83378 255 0 0
-35.6283 -3.1762 -4.83009 255 0 0
-35.6207 -3.26066 -4.83009 255 0 0
-35.5024 -3.33474 -4.82131 255 0 0
-35.3791 -3.5772 -4.81346 255 0 0
-35.2309 -3.81556 -4.80376 255 0 0
-35.1927 -3.89587 -4.80145 255 0 0
-35.1043 -4.05468 -4.79591 255 0 0
-35.054 -4.13311 -4.79268 255 0 0
-34.7428 -4.59843 -4.77282 255 0 0
-34.6682 -4.67221 -4.76774 255 0 0
-34.6223 -4.74964 -4.76497 255 0 0
-34.4487 -5.05912 -4.75481 255 0 0
-34.4019 -5.13561 -4.75204 255 0 0
-34.406 -5.30314 -4.75435 255 0 0
-34.9668 -5.64447 -4.80238 255 0 0
-35.1491 -5.75946 -4.81808 255 0 0
-35.7516 -6.11962 -4.8698 255 0 0
-37.0713 -0.571373 -5.55444 255 0 0
-35.6576 -3.09361 -5.13135 255 0 0
-37.4304 -0.133122 -5.27475 255 0 0
-37.5181 0.044478 -5.28241 255 0 0
-37.4831 -0.0444365 -5.27935 255 0 0
-37.3068 -0.3096 -5.26404 255 0 0
-37.1637 -0.572797 -5.25179 255 0 0
-37.1039 -0.659874 -5.24669 255 0 0
-37.0013 -0.83358 -5.23801 255 0 0
-36.9467 -0.920002 -5.23342 255 0 0
-36.8603 -1.09277 -5.22627 255 0 0
-36.6 -1.5195 -5.20484 255 0 0
-36.5555 -1.60449 -5.20127 255 0 0
-36.4933 -1.68846 -5.19616 255 0 0
-36.1737 -2.10369 -5.17014 255 0 0
-36.1055 -2.35752 -5.16555 255 0 0
-35.995 -2.43603 -5.15636 255 0 0
-36.0357 -2.52463 -5.16044 255 0 0
-35.9307 -2.6029 -5.15177 255 0 0
-35.8837 -2.68504 -5.14819 255 0 0
-35.6939 -3.0115 -5.1339 255 0 0
-35.5979 -3.17348 -5.12676 255 0 0
-35.6193 -3.26053 -5.12931 255 0 0
-35.5011 -3.33461 -5.11962 255 0 0
-35.4094 -3.49547 -5.11298 255 0 0
-35.3286 -3.65674 -5.10737 255 0 0
-35.1127 -3.97131 -5.09155 255 0 0
-35.0529 -4.13298 -5.08798 255 0 0
-35.0141 -4.2126 -5.08542 255 0 0
-34.7535 -4.59984 -5.06705 255 0 0
-34.5581 -4.82434 -5.05276 255 0 0
-34.5119 -4.90134 -5.0497 255 0 0
-34.3954 -5.13464 -5.04256 255 0 0
-34.3659 -5.21356 -5.04103 255 0 0
-35.2434 -5.86074 -5.12574 255 0 0
-35.4077 -5.97437 -5.14156 255 0 0
-35.6522 -6.10259 -5.16452 255 0 0
-36.1494 -6.54119 -5.21403 255 0 0
-36.8836 -0.91843 -5.53711 255 0 0
-37.3552 -0.132855 -5.58126 255 0 0
-37.2907 -0.221045 -5.57511 255 0 0
-37.1134 -0.484007 -5.55835 255 0 0
-37.0116 -0.658231 -5.54885 255 0 0
-36.9265 -0.831895 -5.54102 255 0 0
-36.7798 -1.09039 -5.52761 255 0 0
-36.7247 -1.17591 -5.52258 255 0 0
-36.6519 -1.26058 -5.51588 255 0 0
-36.5138 -1.51593 -5.50359 255 0 0
-36.4306 -1.68556 -5.49632 255 0 0
-35.8219 -2.59502 -5.44324 255 0 0
-35.6304 -3.09125 -5.42871 255 0 0
-35.4218 -3.32717 -5.41083 255 0 0
-35.2438 -3.64795 -5.39686 255 0 0
-35.2002 -3.72782 -5.39351 255 0 0
-35.0243 -4.04544 -5.38009 255 0 0
-34.9237 -4.20173 -5.37227 255 0 0
-34.8732 -4.27956 -5.36836 255 0 0
-34.8051 -4.35499 -5.36277 255 0 0
-34.7079 -4.42644 -5.35439 255 0 0
-34.6866 -4.59098 -5.35439 255 0 0
-34.5376 -4.90498 -5.34433 255 0 0
-34.6355 -5.00269 -5.35495 255 0 0
-34.3166 -5.20609 -5.32757 255 0 0
-34.2696 -5.28211 -5.32422 255 0 0
-34.4745 -5.48117 -5.34657 255 0 0
-34.7088 -5.60283 -5.37059 255 0 0
-34.8795 -5.71527 -5.38848 255 0 0
-35.4412 -6.06648 -5.44715 255 0 0
-35.8368 -6.30926 -5.4885 255 0 0
-34.3695 -5.13077 -5.62321 255 0 0
-34.2642 -5.28127 -5.61471 255 0 0
-34.2458 -5.36159 -5.6141 255 0 0
-34.371 -5.46472 -5.62867 255 0 0
