ply
format ascii 1.0
comment Created by Open3D
element vertex 627
property double x
property double y
property double z
property uchar red
property uchar green
property uchar blue
end_header
8.57269 3.20747 -4.86506 255 0 0
9.08188 3.11845 -4.91829 255 0 0
9.02096 3.46075 -4.41755 255 0 0
8.96886 4.24643 -4.48293 255 0 0
9.34362 3.63548 -4.33224 255 0 0
9.40636 4.29084 -4.67838 255 0 0
9.64434 4.04514 -4.25025 255 0 0
9.97564 3.11103 -5.27086 255 0 0
10.0469 3.90911 -4.22601 255 0 0
11.0425 3.07373 -5.27647 255 0 0
11.1258 3.06849 -5.299 255 0 0
9.30689 3.4194 -4.3935 255 0 0
10.0791 4.62661 -4.28995 255 0 0
9.71444 3.70042 -4.23671 255 0 0
9.33816 4.23301 -4.56536 255 0 0
10.0886 3.85666 -4.23016 255 0 0
8.88314 3.12101 -5.11994 255 0 0
10.261 3.09356 -5.25711 255 0 0
11.2194 3.18036 -4.91783 255 0 0
9.19903 3.33035 -4.53448 255 0 0
10.0496 3.96513 -4.23075 255 0 0
10.3009 3.42816 -4.43048 255 0 0
8.61246 3.25727 -4.71501 255 0 0
10.9185 3.40509 -4.46087 255 0 0
10.5235 3.1455 -4.94304 255 0 0
9.94996 3.41652 -4.72537 255 0 0
9.39929 4.34158 -4.31791 255 0 0
8.64589 4.58104 -4.62176 255 0 0
9.32368 4.01505 -4.36142 255 0 0
8.62215 3.88382 -4.53386 255 0 0
9.20286 4.70972 -4.58668 255 0 0
9.30567 3.12147 -4.98299 255 0 0
9.51531 4.12434 -4.32175 255 0 0
9.10193 3.31962 -4.596 255 0 0
10.2541 3.5618 -4.2414 255 0 0
10.75 3.15773 -5.00214 255 0 0
9.29882 4.37569 -4.39061 255 0 0
10.1016 3.09784 -5.21114 255 0 0
8.61224 3.17575 -4.95719 255 0 0
9.69972 3.64224 -4.22932 255 0 0
10.6265 3.48063 -4.3089 255 0 0
9.03304 3.34312 -4.58084 255 0 0
11.1771 3.11119 -5.21234 255 0 0
9.94038 3.22982 -4.80059 255 0 0
12.2753 3.26058 -5.17792 255 0 0
8.61438 3.14181 -5.29431 255 0 0
9.95877 3.20972 -4.80362 255 0 0
9.29229 3.38905 -4.56238 255 0 0
10.2952 3.07725 -5.26563 255 0 0
9.40548 3.10541 -5.01023 255 0 0
9.49006 3.87501 -4.29488 255 0 0
8.64119 3.26816 -4.64081 255 0 0
10.2768 3.31222 -4.60647 255 0 0
9.28698 3.53759 -4.39899 255 0 0
8.88726 4.28544 -4.46871 255 0 0
9.24189 4.29549 -4.37071 255 0 0
10.0507 3.53122 -4.29213 255 0 0
8.65843 3.30992 -4.64966 255 0 0
8.76315 3.49361 -4.5278 255 0 0
9.49873 4.25161 -4.696 255 0 0
8.51735 3.16374 -5.17932 255 0 0
8.56118 3.16848 -5.10936 255 0 0
8.85905 3.11255 -5.28568 255 0 0
8.61705 4.60512 -4.61797 255 0 0
10.0347 3.87702 -4.22128 255 0 0
10.0388 3.76958 -4.21417 255 0 0
8.60344 3.39455 -4.56081 255 0 0
11.3262 3.0949 -5.14611 255 0 0
11.2414 3.15782 -5.02493 255 0 0
10.9041 3.203 -4.94416 255 0 0
10.1981 3.58303 -4.23193 255 0 0
8.73271 3.13812 -4.98951 255 0 0
11.5598 3.09989 -4.99458 255 0 0
8.66096 3.75403 -4.52932 255 0 0
8.81887 3.55225 -4.5475 255 0 0
10.0699 4.32224 -4.26272 255 0 0
8.65449 3.65412 -4.51719 255 0 0
9.59916 3.70873 -4.30384 255 0 0
8.65465 3.11007 -5.21799 255 0 0
11.2502 3.1891 -5.02933 255 0 0
11.1609 3.19238 -5.00731 255 0 0
9.79068 3.23259 -4.7627 255 0 0
8.9231 3.33854 -4.55281 255 0 0
10.0947 3.17443 -4.83544 255 0 0
9.11682 3.15463 -4.93191 255 0 0
9.23669 3.24523 -4.62328 255 0 0
8.67452 3.39885 -4.57956 255 0 0
10.0514 3.10854 -5.19752 255 0 0
10.5105 3.14162 -5.03735 255 0 0
9.68994 3.50807 -4.39724 255 0 0
9.46553 4.02303 -4.30256 255 0 0
9.04219 3.46892 -4.42323 255 0 0
11.1087 3.32041 -4.69706 255 0 0
10.091 3.95384 -4.23785 255 0 0
9.37598 4.14342 -4.29488 255 0 0
9.63236 3.20567 -4.8108 255 0 0
8.60362 3.14944 -5.12068 255 0 0
10.2425 3.19426 -4.87484 255 0 0
11.1099 3.12089 -5.19515 255 0 0
10.1126 3.075 -5.11659 255 0 0
10.13 3.72181 -4.22838 255 0 0
10.9431 3.07402 -5.24911 255 0 0
10.6099 3.14395 -5.06391 255 0 0
10.5459 3.07064 -5.13968 255 0 0
10.5239 3.09134 -5.23417 255 0 0
10.6356 3.06943 -5.26398 255 0 0
8.66231 3.87723 -4.54296 255 0 0
10.3689 3.2877 -4.7217 255 0 0
9.5009 3.51627 -4.26802 255 0 0
10.6978 3.41991 -4.41653 255 0 0
9.20034 3.13476 -5.13136 255 0 0
8.62816 4.2491 -4.57705 255 0 0
8.97039 3.1278 -5.23584 255 0 0
9.30388 4.40505 -4.39459 255 0 0
9.6597 3.36814 -4.55967 255 0 0
11.8894 3.0677 -5.29008 255 0 0
11.1542 3.36285 -4.91499 255 0 0
11.3437 3.12859 -5.04842 255 0 0
10.9149 3.17809 -5.04609 255 0 0
9.34261 3.97079 -4.36142 255 0 0
9.80907 3.21289 -4.76573 255 0 0
9.33962 3.10825 -4.9915 255 0 0
8.65672 4.56053 -4.62176 255 0 0
9.34926 3.16078 -4.82104 255 0 0
8.55291 3.44512 -4.553 255 0 0
9.61482 4.60821 -4.38698 255 0 0
9.69817 3.95999 -4.25395 255 0 0
9.21721 4.63463 -4.3999 255 0 0
9.46302 4.20873 -4.40918 255 0 0
9.33449 4.58322 -4.51029 255 0 0
8.8856 3.24072 -4.70357 255 0 0
10.8809 3.1123 -5.03245 255 0 0
8.7564 3.56334 -4.53311 255 0 0
9.05718 4.13156 -4.40312 255 0 0
9.54442 4.4361 -4.35628 255 0 0
9.67209 3.19344 -4.82017 255 0 0
10.5801 3.49323 -4.30061 255 0 0
8.88972 3.1589 -4.86721 255 0 0
10.1949 3.44665 -4.31553 255 0 0
9.1516 3.4612 -4.3619 255 0 0
8.72622 3.74552 -4.54447 255 0 0
9.62181 3.44476 -4.37734 255 0 0
9.24326 3.67235 -4.48861 255 0 0
8.56915 3.40452 -4.553 255 0 0
8.88207 3.35926 -4.54447 255 0 0
9.74729 4.61499 -4.32046 255 0 0
9.49197 4.4941 -4.35117 255 0 0
8.8378 3.22329 -4.7738 255 0 0
9.46091 3.11128 -5.20856 255 0 0
9.28283 4.26111 -4.64608 255 0 0
9.51007 4.06861 -4.22562 255 0 0
10.834 3.40692 -4.44363 255 0 0
10.2819 3.39477 -4.42408 255 0 0
9.74956 4.39166 -4.30075 255 0 0
10.4192 3.52249 -4.27101 255 0 0
9.495 3.3613 -4.60937 255 0 0
8.61711 3.23572 -4.79741 255 0 0
9.66973 3.90831 -4.2441 255 0 0
9.45797 3.12274 -5.30044 255 0 0
9.50027 4.14461 -4.32047 255 0 0
9.02482 3.1228 -4.98925 255 0 0
9.28282 3.13831 -5.24702 255 0 0
8.62768 3.15825 -5.04443 255 0 0
9.3535 3.8711 -4.35479 255 0 0
8.70066 3.2201 -4.81954 255 0 0
11.1657 3.16513 -4.80157 255 0 0
8.82908 3.38716 -4.53386 255 0 0
8.83158 3.41217 -4.53689 255 0 0
8.73882 4.49842 -4.54622 255 0 0
8.75571 3.81978 -4.55963 255 0 0
8.71936 3.39259 -4.5905 255 0 0
9.32001 3.66453 -4.32958 255 0 0
9.73619 3.11252 -5.01392 255 0 0
9.32629 3.75664 -4.33887 255 0 0
10.0756 4.48117 -4.27693 255 0 0
9.20115 3.41774 -4.45592 255 0 0
9.28113 3.86695 -4.33887 255 0 0
12.0068 3.12839 -5.21435 255 0 0
8.63539 4.18925 -4.57175 255 0 0
8.76637 3.12677 -4.99849 255 0 0
8.85598 3.20615 -4.77711 255 0 0
9.31765 3.37329 -4.39212 255 0 0
10.058 3.66831 -4.21062 255 0 0
11.0197 3.36509 -4.5795 255 0 0
9.78342 3.64723 -4.24656 255 0 0
8.50898 3.21816 -4.84757 255 0 0
10.0934 3.17402 -4.92954 255 0 0
11.1971 3.21711 -4.91499 255 0 0
9.66584 3.09003 -5.17641 255 0 0
8.99979 4.28722 -4.4943 255 0 0
8.53082 3.22642 -4.77187 255 0 0
10.0881 4.008 -4.2414 255 0 0
9.75961 3.09451 -5.01889 255 0 0
9.53117 4.62382 -4.37163 255 0 0
9.21701 3.56108 -4.38525 255 0 0
10.0406 3.79743 -4.21654 255 0 0
10.4542 3.41046 -4.36603 255 0 0
10.0588 4.14906 -4.24673 255 0 0
9.15764 3.31536 -4.60964 255 0 0
9.6258 3.33075 -4.63873 255 0 0
9.55519 3.20517 -4.79049 255 0 0
9.66069 3.3942 -4.47182 255 0 0
9.1603 3.12111 -5.29626 255 0 0
10.4556 3.09822 -5.11715 255 0 0
10.031 3.20676 -4.8218 255 0 0
9.75137 3.0919 -5.10898 255 0 0
10.7399 3.23794 -4.90599 255 0 0
10.0283 4.48865 -4.26864 255 0 0
10.2527 3.3313 -4.60235 255 0 0
9.72155 3.80909 -4.24656 255 0 0
9.26072 3.16758 -4.79771 255 0 0
10.7421 3.21084 -4.90452 255 0 0
8.99363 3.1359 -5.06852 255 0 0
8.56195 4.04135 -4.53689 255 0 0
9.3612 3.82239 -4.35214 255 0 0
10.3286 3.51918 -4.73022 255 0 0
10.3657 3.17882 -4.90515 255 0 0
9.37602 4.57605 -4.51853 255 0 0
8.72353 3.1699 -4.90529 255 0 0
8.65125 3.13203 -5.1339 255 0 0
9.50561 3.26394 -4.69299 255 0 0
8.57325 4.62096 -4.60964 255 0 0
10.1964 3.2863 -4.68048 255 0 0
9.14379 3.11549 -4.84832 255 0 0
8.79334 3.23072 -4.67782 255 0 0
9.23415 3.12186 -5.14034 255 0 0
8.7971 3.18483 -4.84338 255 0 0
9.67164 3.42383 -4.38663 255 0 0
9.01184 3.50639 -4.50511 255 0 0
9.38216 4.06663 -4.37867 255 0 0
10.3613 3.24477 -4.81274 255 0 0
9.74003 3.34444 -4.57673 255 0 0
8.81363 3.1672 -4.93153 255 0 0
8.81961 3.12221 -5.18676 255 0 0
11.4569 3.10142 -5.07485 255 0 0
9.97441 4.23932 -4.23785 255 0 0
9.75884 3.48076 -4.22932 255 0 0
10.955 3.16161 -5.05518 255 0 0
9.62702 3.12801 -4.89346 255 0 0
9.2752 3.90324 -4.34086 255 0 0
9.22027 3.68855 -4.57266 255 0 0
9.04399 3.12943 -4.82183 255 0 0
10.3511 3.09398 -5.08818 255 0 0
9.29832 3.49152 -4.39762 255 0 0
9.45684 4.07239 -4.30512 255 0 0
11.5331 3.09274 -5.30608 255 0 0
9.10684 3.99869 -4.48861 255 0 0
9.57969 3.72733 -4.30128 255 0 0
8.59438 4.39832 -4.5869 255 0 0
9.39518 3.42658 -4.41411 255 0 0
11.9678 3.0577 -5.30978 255 0 0
9.33215 3.22914 -4.64601 255 0 0
10.2086 3.18368 -4.96079 255 0 0
9.54835 4.54854 -4.3678 255 0 0
8.71057 3.17689 -4.81784 255 0 0
9.50875 3.75175 -4.28849 255 0 0
9.61105 4.30189 -4.54189 255 0 0
9.27182 4.47088 -4.66663 255 0 0
9.98912 4.18975 -4.23667 255 0 0
11.1239 3.1248 -4.78921 255 0 0
9.40617 4.21018 -4.39724 255 0 0
11.0694 3.22309 -4.98675 255 0 0
9.24134 3.52021 -4.3004 255 0 0
8.59006 3.96779 -4.53538 255 0 0
9.66689 4.20364 -4.26811 255 0 0
8.80003 3.11527 -5.00747 255 0 0
9.38334 3.19711 -5.10294 255 0 0
9.61602 4.27678 -4.54052 255 0 0
10.8081 3.28648 -4.92654 255 0 0
10.1351 3.48009 -4.30568 255 0 0
9.69678 3.74645 -4.23671 255 0 0
8.96766 4.48255 -4.50851 255 0 0
8.71517 3.61901 -4.52856 255 0 0
9.97568 4.50775 -4.26035 255 0 0
10.06 4.44568 -4.27101 255 0 0
8.53664 3.27497 -4.69597 255 0 0
11.0374 3.39914 -4.99189 255 0 0
10.7874 3.50504 -4.34205 255 0 0
10.4031 3.46217 -4.2639 255 0 0
10.4764 3.51418 -4.28166 255 0 0
10.3686 3.54652 -4.26272 255 0 0
10.2112 3.61485 -4.23667 255 0 0
10.1432 3.61786 -4.22364 255 0 0
10.1238 3.63802 -4.22128 255 0 0
10.1637 3.67958 -4.23193 255 0 0
10.0737 3.74182 -4.21891 255 0 0
10.036 4.01487 -4.23193 255 0 0
10.0264 4.03866 -4.23193 255 0 0
9.97963 4.04733 -4.22364 255 0 0
10.0337 4.09699 -4.23785 255 0 0
9.99373 4.16385 -4.23548 255 0 0
10.0531 4.24465 -4.25324 255 0 0
10.0755 4.36717 -4.26745 255 0 0
10.0599 4.38875 -4.26627 255 0 0
10.018 4.39876 -4.25917 255 0 0
10.0222 4.57176 -4.27456 255 0 0
8.71822 3.10959 -5.15278 255 0 0
9.6464 3.96556 -4.2441 255 0 0
9.36799 4.11336 -4.38 255 0 0
11.1396 3.10075 -4.99556 255 0 0
9.35207 4.23932 -4.47869 255 0 0
8.70202 3.17377 -4.98413 255 0 0
8.68474 3.12088 -5.14334 255 0 0
10.1625 3.09018 -5.22817 255 0 0
10.7659 3.41357 -4.43008 255 0 0
10.5915 3.41366 -4.39436 255 0 0
10.4039 3.43507 -4.35741 255 0 0
10.3414 3.44165 -4.34509 255 0 0
10.2627 3.4425 -4.32908 255 0 0
10.1704 3.46528 -4.31184 255 0 0
10.0565 3.47977 -4.28967 255 0 0
9.90139 3.55809 -4.2638 255 0 0
9.78106 3.55419 -4.23917 255 0 0
9.73076 3.57513 -4.23055 255 0 0
9.79741 3.62601 -4.24779 255 0 0
9.72318 3.67738 -4.23671 255 0 0
9.67891 3.71319 -4.23055 255 0 0
9.68787 3.76943 -4.23671 255 0 0
9.71133 3.85829 -4.24841 255 0 0
9.67145 3.84247 -4.23917 255 0 0
9.7216 4.02344 -4.2638 255 0 0
9.70146 4.04208 -4.26134 255 0 0
9.69273 4.09249 -4.2638 255 0 0
9.62132 4.14322 -4.25395 255 0 0
9.64422 4.24831 -4.2675 255 0 0
9.68659 4.30816 -4.28105 255 0 0
9.69725 4.34047 -4.28597 255 0 0
9.71827 4.40532 -4.29583 255 0 0
9.66613 4.40934 -4.28597 255 0 0
9.71808 4.4609 -4.30075 255 0 0
9.74905 4.50313 -4.31061 255 0 0
9.71758 4.51659 -4.30568 255 0 0
9.74833 4.55901 -4.31553 255 0 0
9.70123 4.56505 -4.30691 255 0 0
9.32362 4.44149 -4.67544 255 0 0
9.36523 3.7208 -4.34418 255 0 0
9.44914 3.88446 -4.28721 255 0 0
10.4365 3.4184 -4.45862 255 0 0
10.0705 3.48464 -4.38571 255 0 0
9.85723 3.43702 -4.3371 255 0 0
9.80593 3.44523 -4.32686 255 0 0
9.75464 3.45322 -4.31663 255 0 0
9.63061 3.46079 -4.29104 255 0 0
9.77819 3.54002 -4.32814 255 0 0
9.60873 3.50446 -4.28977 255 0 0
9.42876 3.46418 -4.24883 255 0 0
9.47112 3.5308 -4.2629 255 0 0
9.43063 3.5412 -4.25523 255 0 0
9.47247 3.60825 -4.2693 255 0 0
9.50123 3.64503 -4.27825 255 0 0
9.51762 3.72919 -4.28849 255 0 0
9.45735 3.75741 -4.27825 255 0 0
9.51437 3.84551 -4.29744 255 0 0
9.40624 3.90598 -4.28017 255 0 0
9.43181 3.956 -4.28977 255 0 0
9.52951 4.07693 -4.32047 255 0 0
9.54273 4.19009 -4.33326 255 0 0
9.57005 4.28354 -4.34733 255 0 0
9.53382 4.29448 -4.34093 255 0 0
9.48216 4.32542 -4.33326 255 0 0
9.35244 4.29306 -4.30384 255 0 0
9.48212 4.43452 -4.34349 255 0 0
9.55755 4.60866 -4.37547 255 0 0
9.48424 4.62887 -4.36268 255 0 0
8.58462 4.36767 -4.58084 255 0 0
9.67842 3.1701 -4.91116 255 0 0
11.1679 3.28051 -4.80982 255 0 0
11.1493 3.30378 -4.70502 255 0 0
10.3109 3.35021 -4.52195 255 0 0
10.2867 3.36932 -4.51797 255 0 0
10.2136 3.37224 -4.50205 255 0 0
10.0894 3.38437 -4.47551 255 0 0
9.49408 3.46264 -4.35081 255 0 0
9.30383 3.41827 -4.3057 255 0 0
9.40267 3.47991 -4.33224 255 0 0
9.42111 3.51216 -4.33887 255 0 0
9.34335 3.50842 -4.32162 255 0 0
9.31367 3.5225 -4.31632 255 0 0
9.35222 3.61332 -4.33224 255 0 0
9.28929 3.74173 -4.32958 255 0 0
9.32046 3.83157 -4.34418 255 0 0
9.26501 3.96377 -4.34418 255 0 0
9.19999 4.01361 -4.33489 255 0 0
9.38951 4.1494 -4.38796 255 0 0
9.45882 4.2877 -4.41582 255 0 0
9.59387 4.40389 -4.45561 255 0 0
9.32971 4.30944 -4.39061 255 0 0
9.43832 4.41403 -4.42378 255 0 0
9.41698 4.48596 -4.42643 255 0 0
9.52975 4.56743 -4.45827 255 0 0
9.51889 4.59001 -4.45827 255 0 0
9.37942 4.56395 -4.42643 255 0 0
9.34266 4.58723 -4.42112 255 0 0
9.27484 4.60864 -4.40918 255 0 0
9.35571 4.67651 -4.43306 255 0 0
10.6823 3.13787 -5.08266 255 0 0
9.0728 3.33339 -4.58994 255 0 0
11.3877 3.1117 -5.26859 255 0 0
11.0617 3.05083 -4.76997 255 0 0
11.1806 3.11215 -4.80157 255 0 0
11.2233 3.25346 -4.82081 255 0 0
10.3714 3.31558 -4.62845 255 0 0
9.66871 3.37128 -4.47182 255 0 0
9.47025 3.40316 -4.42922 255 0 0
9.29342 3.43948 -4.39212 255 0 0
9.21591 3.43566 -4.37426 255 0 0
9.1404 3.5066 -4.36327 255 0 0
9.65199 4.25174 -4.54601 255 0 0
9.53336 4.29427 -4.52403 255 0 0
9.04337 4.22932 -4.40999 255 0 0
9.43294 4.57617 -4.5309 255 0 0
9.23685 4.56248 -4.48693 255 0 0
9.226 4.58437 -4.48693 255 0 0
9.09666 4.60107 -4.46082 255 0 0
8.61514 4.35752 -4.5869 255 0 0
8.63775 4.03963 -4.55508 255 0 0
10.3723 3.07352 -5.28776 255 0 0
9.39409 3.15113 -4.83231 255 0 0
11.0893 3.40071 -4.9022 255 0 0
10.2907 3.28979 -4.70322 255 0 0
9.33866 3.35587 -4.48293 255 0 0
9.28795 3.36254 -4.47156 255 0 0
9.2719 3.40654 -4.47156 255 0 0
9.14109 3.43247 -4.44313 255 0 0
9.15949 3.46418 -4.45024 255 0 0
9.02366 3.54801 -4.42608 255 0 0
9.26262 3.73099 -4.49856 255 0 0
10.329 4.27483 -4.79702 255 0 0
9.05671 3.79867 -4.45734 255 0 0
9.64286 4.26135 -4.63784 255 0 0
9.60699 4.30007 -4.63358 255 0 0
9.47765 4.26918 -4.60089 255 0 0
9.24571 4.24407 -4.54546 255 0 0
9.20984 4.25407 -4.53836 255 0 0
9.22548 4.28787 -4.54546 255 0 0
9.24616 4.35091 -4.55683 255 0 0
8.99446 4.38982 -4.50425 255 0 0
8.95317 4.42236 -4.49856 255 0 0
8.96809 4.45622 -4.50567 255 0 0
8.98145 4.55619 -4.51988 255 0 0
9.01396 4.66712 -4.53978 255 0 0
9.24976 3.2252 -4.80012 255 0 0
11.6997 3.078 -5.24159 255 0 0
9.87442 3.13092 -4.96105 255 0 0
12.0856 3.11832 -5.23344 255 0 0
11.0934 3.20155 -4.99115 255 0 0
10.9236 3.23689 -4.95151 255 0 0
10.3037 3.26704 -4.80026 255 0 0
10.242 3.2742 -4.78558 255 0 0
10.1753 3.33285 -4.77383 255 0 0
9.33751 3.33048 -4.56825 255 0 0
9.37227 3.36795 -4.58 255 0 0
9.03895 3.46768 -4.50805 255 0 0
8.88212 3.48019 -4.47134 255 0 0
8.94766 3.53036 -4.49189 255 0 0
9.27985 3.73793 -4.59175 255 0 0
10.4224 4.31348 -4.92214 255 0 0
9.59591 3.9981 -4.69307 255 0 0
9.5403 4.2974 -4.71069 255 0 0
9.0984 4.28138 -4.60496 255 0 0
9.22142 4.366 -4.64314 255 0 0
8.78192 4.59992 -4.56825 255 0 0
10.1674 3.11801 -5.03991 255 0 0
8.55152 3.21109 -4.94283 255 0 0
10.2711 3.16312 -4.97563 255 0 0
11.7945 3.07306 -5.26583 255 0 0
11.6213 3.08685 -5.22189 255 0 0
11.5374 3.09389 -5.20067 255 0 0
11.4209 3.09168 -5.17036 255 0 0
11.1444 3.07362 -5.09762 255 0 0
11.2079 3.11975 -5.11732 255 0 0
11.1188 3.12338 -5.09459 255 0 0
11.0189 3.12351 -5.06882 255 0 0
10.6557 3.1575 -4.9779 255 0 0
10.4511 3.15086 -4.92485 255 0 0
10.4327 3.17234 -4.92182 255 0 0
10.2825 3.18 -4.88394 255 0 0
10.0548 3.1881 -4.82635 255 0 0
9.71859 3.23437 -4.74451 255 0 0
9.61438 3.22503 -4.71724 255 0 0
9.62814 3.25506 -4.7233 255 0 0
9.54544 3.25234 -4.70208 255 0 0
9.40458 3.27919 -4.66874 255 0 0
9.26629 3.28034 -4.63388 255 0 0
9.23326 3.30564 -4.62782 255 0 0
8.80537 3.35414 -4.52477 255 0 0
8.82346 3.4331 -4.53689 255 0 0
8.75737 3.43131 -4.52022 255 0 0
8.73869 3.44791 -4.51719 255 0 0
8.69964 3.6489 -4.5278 255 0 0
8.70306 3.69896 -4.53386 255 0 0
8.76217 3.84735 -4.56417 255 0 0
8.61658 3.82003 -4.52553 255 0 0
8.62837 3.91126 -4.53841 255 0 0
8.6448 3.94345 -4.54599 255 0 0
8.60973 3.95213 -4.53841 255 0 0
8.58576 3.99053 -4.53689 255 0 0
8.63433 4.11313 -4.56266 255 0 0
8.65005 4.14581 -4.57023 255 0 0
8.60454 4.14911 -4.55963 255 0 0
8.58477 4.18987 -4.55963 255 0 0
8.61377 4.30565 -4.58034 255 0 0
8.61386 4.44702 -4.59751 255 0 0
8.64314 4.50114 -4.61115 255 0 0
8.63745 4.52425 -4.61267 255 0 0
8.61868 3.44789 -4.57018 255 0 0
11.4223 3.09206 -5.2764 255 0 0
11.2933 3.11468 -5.24359 255 0 0
10.9939 3.11644 -5.1639 255 0 0
10.9268 3.12543 -5.14672 255 0 0
10.8381 3.12786 -5.12328 255 0 0
10.7548 3.13146 -5.10141 255 0 0
10.4183 3.15445 -5.01391 255 0 0
9.99974 3.17065 -4.90454 255 0 0
9.82346 3.16611 -4.85767 255 0 0
9.84813 3.19985 -4.86704 255 0 0
9.78689 3.20563 -4.85142 255 0 0
9.4651 3.22496 -4.76861 255 0 0
9.46276 3.24923 -4.77017 255 0 0
9.33771 3.23106 -4.7358 255 0 0
9.28502 3.26221 -4.72486 255 0 0
9.19746 3.25597 -4.70143 255 0 0
9.1472 3.2626 -4.68893 255 0 0
9.12101 3.3021 -4.6858 255 0 0
9.03893 3.29665 -4.66393 255 0 0
8.95694 3.29082 -4.64206 255 0 0
8.94652 3.33523 -4.64362 255 0 0
8.90161 3.34255 -4.63268 255 0 0
8.84347 3.36865 -4.62018 255 0 0
8.7577 3.37168 -4.59831 255 0 0
10.7704 3.0945 -5.20325 255 0 0
8.68309 3.23703 -4.7324 255 0 0
10.8545 3.07692 -5.22497 255 0 0
10.5278 3.09246 -5.13646 255 0 0
10.2629 3.09414 -5.06404 255 0 0
10.2286 3.11027 -5.056 255 0 0
10.203 3.15541 -5.05278 255 0 0
9.98589 3.11423 -4.99002 255 0 0
9.957 3.13114 -4.98358 255 0 0
9.83479 3.14404 -4.9514 255 0 0
9.7255 3.13453 -4.92082 255 0 0
9.50944 3.15223 -4.86369 255 0 0
9.22013 3.19038 -4.78886 255 0 0
9.10398 3.19861 -4.75828 255 0 0
9.03799 3.19952 -4.74058 255 0 0
9.04629 3.22661 -4.74541 255 0 0
8.96444 3.2214 -4.72288 255 0 0
8.92502 3.23114 -4.71322 255 0 0
8.78178 3.26197 -4.67782 255 0 0
8.71743 3.27339 -4.66173 255 0 0
8.62426 3.34382 -4.64403 255 0 0
8.51774 3.3841 -4.61989 255 0 0
9.5076 3.11415 -5.31517 255 0 0
9.05016 3.13156 -5.17335 255 0 0
10.8175 3.06644 -5.31531 255 0 0
10.4035 3.08277 -5.19939 255 0 0
10.2993 3.07848 -5.16959 255 0 0
10.0657 3.11296 -5.10666 255 0 0
9.99194 3.14213 -5.08844 255 0 0
9.59847 3.11873 -4.97583 255 0 0
9.50358 3.1378 -4.95099 255 0 0
9.34483 3.13461 -4.90628 255 0 0
8.95487 3.14622 -4.79864 255 0 0
9.03507 3.22261 -4.82845 255 0 0
8.78269 3.2268 -4.7589 255 0 0
10.4602 3.0726 -5.3133 255 0 0
10.0173 3.12402 -5.18901 255 0 0
9.91366 3.11751 -5.15836 255 0 0
9.70666 3.10307 -5.09707 255 0 0
9.67795 3.11921 -5.09026 255 0 0
9.57462 3.11098 -5.05961 255 0 0
9.50865 3.11449 -5.04088 255 0 0
9.26109 3.13097 -4.97107 255 0 0
9.15289 3.11859 -4.93872 255 0 0
9.00351 3.13934 -4.89786 255 0 0
9.0489 3.17925 -4.91489 255 0 0
8.87316 3.18859 -4.86551 255 0 0
8.67672 3.18787 -4.80932 255 0 0
8.59327 3.20354 -4.78719 255 0 0
8.5219 3.25774 -4.77272 255 0 0
8.63956 3.10465 -5.29827 255 0 0
10.0667 3.1002 -5.2971 255 0 0
9.87762 3.10618 -5.24112 255 0 0
9.79565 3.10594 -5.21664 255 0 0
9.62658 3.10265 -5.16591 255 0 0
9.5129 3.09093 -5.13093 255 0 0
9.44713 3.09434 -5.11169 255 0 0
9.39201 3.10097 -5.09595 255 0 0
9.43392 3.15206 -5.11344 255 0 0
9.45442 3.19633 -5.12393 255 0 0
9.23832 3.17216 -5.05747 255 0 0
8.90131 3.10371 -4.95077 255 0 0
8.94665 3.14333 -4.96826 255 0 0
8.9023 3.15148 -4.95602 255 0 0
8.77901 3.13128 -4.91754 255 0 0
8.64926 3.17778 -4.8843 255 0 0
8.74127 3.23513 -4.91754 255 0 0
8.51834 3.2564 -4.85457 255 0 0
9.70406 3.10224 -5.28218 255 0 0
9.65955 3.11328 -5.26961 255 0 0
9.54613 3.10173 -5.2337 255 0 0
9.47624 3.15371 -5.21754 255 0 0
9.31022 3.123 -5.16368 255 0 0
9.12963 3.13484 -5.10981 255 0 0
9.0537 3.13279 -5.08647 255 0 0
8.88626 3.12211 -5.0344 255 0 0
8.68332 3.14364 -4.97515 255 0 0
8.59567 3.20444 -4.9554 255 0 0
9.32185 3.1269 -5.25807 255 0 0
9.12435 3.12093 -5.19545 255 0 0
8.95349 3.1219 -5.14204 255 0 0
8.75306 3.12202 -5.07942 255 0 0
8.75384 3.16917 -5.08495 255 0 0
8.5747 3.17348 -5.0297 255 0 0
8.52549 3.17827 -5.01496 255 0 0
9.22018 3.11714 -5.31514 255 0 0
9.09521 3.12302 -5.27549 255 0 0
9.00921 3.11739 -5.24717 255 0 0
8.87405 3.11782 -5.20375 255 0 0
8.54845 3.18683 -5.10747 255 0 0
8.52012 3.1993 -5.09992 255 0 0
8.80476 3.11695 -5.26827 255 0 0
8.75049 3.12111 -5.25087 255 0 0
8.65765 3.13435 -5.22186 255 0 0
8.62423 3.1454 -5.21219 255 0 0
8.56487 3.14678 -5.19285 255 0 0
8.51898 3.12991 -5.26066 255 0 0
