ply
format ascii 1.0
comment Created by Open3D
element vertex 74
property double x
property double y
property double z
property uchar red
property uchar green
property uchar blue
end_header
-32.2338 -48.3498 -2.72447 255 0 0
-33.675 -48.4929 -2.24534 255 0 0
-31.1762 -48.2364 -2.23867 255 0 0
-33.9651 -48.4189 -2.24578 255 0 0
-32.187 -48.2795 -3.68836 255 0 0
-31.7562 -48.3754 -3.20253 255 0 0
-30.8775 -48.2749 -3.66741 255 0 0
-32.973 -48.7044 -1.75559 255 0 0
-32.4156 -48.3735 -3.21007 255 0 0
-32.8409 -48.2624 -3.69858 255 0 0
-29.9032 -48.5067 -3.18416 255 0 0
-29.5991 -49.0488 -3.19048 255 0 0
-32.4135 -48.3705 -2.72593 255 0 0
-32.9534 -48.4277 -2.24342 255 0 0
-33.4634 -48.4329 -2.24463 255 0 0
-32.7115 -48.3181 -2.72746 255 0 0
-32.8675 -48.3015 -3.21408 255 0 0
-29.7606 -48.5325 -3.65651 255 0 0
-29.6001 -49.3144 -3.67354 255 0 0
-33.4296 -48.3839 -3.71118 255 0 0
-33.0943 -48.3877 -3.21822 255 0 0
-30.1711 -48.4257 -2.71133 255 0 0
-33.6113 -48.4011 -3.22454 255 0 0
-31.5753 -48.3494 -2.71994 255 0 0
-30.158 -48.6614 -2.71374 255 0 0
-31.3701 -48.5363 -1.75984 255 0 0
-33.8368 -48.4801 -2.24568 255 0 0
-31.998 -48.2435 -3.68444 255 0 0
-31.0776 -48.3348 -2.23879 255 0 0
-32.6154 -48.4231 -2.24261 255 0 0
-32.9149 -48.3711 -2.72943 255 0 0
-33.2797 -48.6587 -1.75503 255 0 0
-33.0884 -48.6261 -1.75559 255 0 0
-31.8849 -48.8234 -1.75768 255 0 0
-31.2281 -48.3166 -2.71724 255 0 0
-33.3021 -48.4445 -2.24429 255 0 0
-33.164 -48.4895 -2.24412 255 0 0
-32.8056 -48.4572 -2.24317 255 0 0
-30.9035 -49.8642 -2.24378 255 0 0
-29.7918 -48.8429 -3.1889 255 0 0
-29.5581 -49.2443 -3.19352 255 0 0
-29.9472 -48.3212 -3.65413 255 0 0
-33.7775 -48.3952 -2.73578 255 0 0
-33.6092 -48.3982 -2.73461 255 0 0
-33.2268 -48.3351 -2.73126 255 0 0
-33.0493 -48.3219 -2.72987 255 0 0
-32.5445 -48.3178 -2.72629 255 0 0
-31.8591 -48.2822 -2.72118 255 0 0
-31.4064 -48.3406 -2.7187 255 0 0
-31.0755 -48.3314 -2.71637 255 0 0
-30.0487 -48.7427 -2.71388 255 0 0
-33.7963 -48.4221 -3.2271 255 0 0
-33.35 -48.2687 -3.21919 255 0 0
-32.6185 -48.4276 -3.21335 255 0 0
-32.2261 -48.3382 -3.20727 255 0 0
-32.0402 -48.3072 -3.20459 255 0 0
-31.5389 -48.2937 -3.19863 255 0 0
-31.3925 -48.3192 -3.19742 255 0 0
-31.0807 -48.3395 -3.19425 255 0 0
-29.9627 -48.3461 -3.18197 255 0 0
-29.8249 -48.6374 -3.18562 255 0 0
-33.941 -48.3845 -3.71969 255 0 0
-33.6243 -48.4199 -3.71527 255 0 0
-33.1238 -48.4308 -3.70726 255 0 0
-32.5627 -48.3448 -3.69602 255 0 0
-32.4154 -48.3732 -3.69432 255 0 0
-31.7303 -48.336 -3.6824 255 0 0
-31.5132 -48.2543 -3.67695 255 0 0
-31.1887 -48.2557 -3.67184 255 0 0
-29.6789 -48.6579 -3.65839 255 0 0
-29.5537 -48.9735 -3.66435 255 0 0
-30.2133 -48.2382 -3.65617 255 0 0
-30.9218 -48.3441 -3.19255 255 0 0
-30.4648 -48.3843 -3.66366 255 0 0
