ply
format ascii 1.0
comment Created by Open3D
element vertex 189
property double x
property double y
property double z
property uchar red
property uchar green
property uchar blue
end_header
21.2752 16.523 -5.4895 255 0 0
20.3567 17.0038 -5.212 255 0 0
20.1654 17.5879 -5.46618 255 0 0
20.7912 17.2832 -3.91317 255 0 0
21.3754 16.6008 -5.27747 255 0 0
19.9398 17.6424 -5.44888 255 0 0
21.1958 16.623 -5.26198 255 0 0
21.345 16.74 -4.60059 255 0 0
20.3738 17.1827 -4.10871 255 0 0
20.4295 17.9037 -4.37658 255 0 0
20.2048 16.6343 -5.39021 255 0 0
20.3744 17.0185 -4.1004 255 0 0
19.1596 16.6308 -5.50114 255 0 0
22.1721 16.2297 -5.32744 255 0 0
21.3479 17.0718 -3.93425 255 0 0
21.496 16.5316 -5.51282 255 0 0
20.2758 17.769 -5.26479 255 0 0
20.1929 16.867 -5.40826 255 0 0
20.8538 16.8394 -4.12072 255 0 0
21.2349 17.1471 -3.93136 255 0 0
20.3846 17.3579 -4.34239 255 0 0
21.1694 16.765 -4.58885 255 0 0
19.9867 17.6839 -5.23171 255 0 0
20.5262 16.6554 -4.97834 255 0 0
20.8325 16.5788 -5.44888 255 0 0
21.0201 16.8096 -4.12949 255 0 0
20.3545 17.2492 -4.33423 255 0 0
20.3489 17.5787 -4.3526 255 0 0
19.0983 16.6571 -5.49714 255 0 0
20.401 16.6342 -4.96588 255 0 0
20.3928 17.7862 -4.3674 255 0 0
20.5252 16.8166 -4.32147 255 0 0
20.0316 17.8085 -5.24579 255 0 0
20.9309 16.5762 -5.45866 255 0 0
20.3059 18.2255 -5.30421 255 0 0
20.471 17.5997 -4.13596 255 0 0
19.9843 17.6818 -5.00653 255 0 0
20.259 16.6789 -4.9567 255 0 0
22.157 16.7905 -4.43221 255 0 0
20.4155 18.3239 -4.40006 255 0 0
20.0205 17.7986 -4.56818 255 0 0
22.3437 16.6008 -5.13633 255 0 0
20.2875 17.7792 -4.81259 255 0 0
20.3998 17.2876 -4.11564 255 0 0
20.387 17.9521 -4.37658 255 0 0
21.1398 17.2365 -3.93012 255 0 0
22.2628 16.3774 -5.11404 255 0 0
20.3377 17.7382 -4.58718 255 0 0
20.5039 16.8806 -4.10132 255 0 0
21.5262 16.7998 -4.16044 255 0 0
20.1793 16.7745 -5.39923 255 0 0
20.3508 16.8356 -4.31075 255 0 0
21.2722 16.683 -4.81866 255 0 0
20.2996 18.307 -5.07995 255 0 0
20.311 17.3785 -4.78708 255 0 0
23.1337 16.7657 -5.45978 255 0 0
20.3841 17.441 -4.12257 255 0 0
19.9914 17.8578 -5.02029 255 0 0
20.3921 17.4479 -4.348 255 0 0
20.4755 17.7731 -4.1452 255 0 0
19.998 17.6939 -4.78405 255 0 0
20.961 16.5193 -5.45715 255 0 0
20.1752 16.7711 -4.95605 255 0 0
20.2718 16.8514 -5.19229 255 0 0
20.505 16.8001 -4.54136 255 0 0
21.3668 16.6755 -4.82595 255 0 0
20.5018 16.6356 -5.19722 255 0 0
20.2463 16.7492 -4.96064 255 0 0
19.3438 16.6305 -5.52035 255 0 0
20.0634 17.6672 -5.23734 255 0 0
21.0843 16.9431 -3.914 255 0 0
20.824 17.5624 -3.92764 255 0 0
20.309 16.9639 -4.53689 255 0 0
21.3549 16.5848 -5.04652 255 0 0
20.1316 17.7272 -4.7968 255 0 0
20.3831 17.1081 -4.10548 255 0 0
21.689 17.093 -3.95409 255 0 0
21.1806 17.1864 -3.93012 255 0 0
21.0808 17.2718 -3.92846 255 0 0
20.9631 17.2586 -3.92144 255 0 0
20.6964 17.2875 -3.90821 255 0 0
20.4547 18.098 -4.1609 255 0 0
20.3467 17.0775 -4.32402 255 0 0
21.4154 16.5506 -5.50605 255 0 0
20.0833 18.0257 -4.58718 255 0 0
21.907 16.7652 -4.1826 255 0 0
21.8163 16.7779 -4.17752 255 0 0
21.7488 16.8082 -4.17475 255 0 0
21.6489 16.8132 -4.16875 255 0 0
21.4449 16.8184 -4.15628 255 0 0
21.3271 16.8078 -4.14843 255 0 0
21.2185 16.8039 -4.1415 255 0 0
21.1786 16.8542 -4.1415 255 0 0
20.9437 16.8301 -4.1258 255 0 0
20.7549 16.841 -4.11471 255 0 0
20.6742 16.8569 -4.11056 255 0 0
20.5665 16.8504 -4.10363 255 0 0
20.4324 16.9031 -4.09809 255 0 0
20.3922 16.9515 -4.09809 255 0 0
20.3765 17.351 -4.11749 255 0 0
20.5397 17.7435 -4.1475 255 0 0
20.4025 17.7947 -4.14196 255 0 0
20.4086 17.8853 -4.14704 255 0 0
20.3968 17.9607 -4.15028 255 0 0
22.2922 16.3177 -5.11273 255 0 0
22.3524 16.6896 -4.90853 255 0 0
20.331 17.2293 -4.77858 255 0 0
21.5674 16.5053 -5.51808 255 0 0
20.1793 17.0187 -5.41954 255 0 0
22.0754 16.8112 -4.42762 255 0 0
21.3934 16.778 -4.37862 255 0 0
21.2894 16.7781 -4.37148 255 0 0
21.2175 16.8032 -4.36791 255 0 0
20.4312 16.8207 -4.31534 255 0 0
20.3288 16.8988 -4.31279 255 0 0
20.32 16.9731 -4.31636 255 0 0
20.2749 17.0993 -4.32045 255 0 0
20.3419 17.4886 -4.34698 255 0 0
20.36 17.6728 -4.35872 255 0 0
20.4187 18.0661 -4.38526 255 0 0
20.2929 18.0408 -4.37556 255 0 0
20.3719 18.1977 -4.38985 255 0 0
20.0786 17.6805 -5.01439 255 0 0
22.1426 16.6971 -4.6587 255 0 0
22.0798 16.732 -4.65591 255 0 0
21.2915 16.7797 -4.59891 255 0 0
20.4066 16.8005 -4.53409 255 0 0
20.3308 16.8191 -4.52962 255 0 0
20.2685 16.8486 -4.52683 255 0 0
20.2689 17.4259 -4.56259 255 0 0
20.3131 17.8017 -4.58941 255 0 0
19.9826 17.8499 -4.56874 255 0 0
20.0189 18.0538 -4.58438 255 0 0
22.2056 16.6622 -4.89456 255 0 0
21.2098 16.7153 -4.81562 255 0 0
20.5097 16.7228 -4.75915 255 0 0
20.4024 16.716 -4.75004 255 0 0
20.3132 16.7236 -4.74336 255 0 0
20.3004 16.794 -4.74701 255 0 0
20.3546 16.9203 -4.75976 255 0 0
20.3866 17.7809 -4.82048 255 0 0
19.956 17.7412 -4.78405 255 0 0
19.9703 17.8389 -4.79194 255 0 0
19.993 17.9446 -4.80105 255 0 0
19.9936 18.0309 -4.80712 255 0 0
23.2252 16.7482 -5.46752 255 0 0
21.2604 16.5924 -5.03865 255 0 0
21.1936 16.6212 -5.03472 255 0 0
20.3165 16.6456 -4.95932 255 0 0
20.3236 17.3893 -5.01374 255 0 0
20.3595 17.7572 -5.0439 255 0 0
19.9684 17.7523 -5.01046 255 0 0
19.9403 17.8973 -5.01898 255 0 0
19.963 17.7475 -5.46016 255 0 0
22.2365 16.3581 -5.34293 255 0 0
22.3566 16.5282 -5.36686 255 0 0
22.2754 16.55 -5.36053 255 0 0
21.2948 16.6192 -5.27113 255 0 0
20.4172 16.6474 -5.19018 255 0 0
20.3057 16.6368 -5.17892 255 0 0
20.2528 16.6738 -5.1768 255 0 0
20.2177 16.7255 -5.17751 255 0 0
20.1959 17.0327 -5.19933 255 0 0
20.326 17.3913 -5.23945 255 0 0
20.3203 17.6383 -5.25846 255 0 0
20.011 17.8753 -5.24931 255 0 0
20.3102 18.3164 -5.31196 255 0 0
21.1856 16.5341 -5.48122 255 0 0
21.1052 16.552 -5.47445 255 0 0
20.707 16.5592 -5.43459 255 0 0
20.636 16.5828 -5.42932 255 0 0
20.4173 16.567 -5.406 255 0 0
20.3465 16.5897 -5.40074 255 0 0
20.2307 16.5753 -5.38795 255 0 0
20.1698 16.6859 -5.39096 255 0 0
20.1796 16.9372 -5.41277 255 0 0
20.1876 17.1078 -5.42782 255 0 0
20.178 17.182 -5.43308 255 0 0
20.2033 17.2864 -5.44437 255 0 0
20.1799 17.3494 -5.44737 255 0 0
20.2134 17.4617 -5.46016 255 0 0
20.1895 17.5248 -5.46317 255 0 0
20.1891 17.6931 -5.47746 255 0 0
20.0295 17.6373 -5.45715 255 0 0
19.9512 17.8218 -5.46543 255 0 0
19.9477 17.904 -5.4722 255 0 0
19.256 16.6346 -5.51155 255 0 0
19.0369 16.6833 -5.49314 255 0 0
18.6529 16.6621 -5.45151 255 0 0
