ply
format ascii 1.0
comment Created by Open3D
element vertex 696
property double x
property double y
property double z
property uchar red
property uchar green
property uchar blue
end_header
17.7544 13.8562 -3.97036 255 0 0
16.0573 14.3436 -4.60733 255 0 0
19.1994 12.9649 -4.41547 255 0 0
17.441 13.4131 -3.92495 255 0 0
18.0928 12.596 -5.41659 255 0 0
15.0087 12.9035 -5.40529 255 0 0
18.2201 13.2047 -3.78035 255 0 0
17.8428 13.9934 -4.93738 255 0 0
18.1728 13.3686 -3.78497 255 0 0
16.3097 14.225 -4.07477 255 0 0
18.489 13.0681 -4.74178 255 0 0
17.0842 13.0743 -4.24303 255 0 0
17.7322 13.2399 -4.86667 255 0 0
17.6315 12.842 -5.19506 255 0 0
15.6736 13.1552 -4.99734 255 0 0
16.2292 13.5561 -4.20477 255 0 0
15.8482 12.7974 -5.50457 255 0 0
18.0158 14.4773 -4.7988 255 0 0
17.7351 13.8411 -5.48654 255 0 0
17.9428 13.1339 -4.13177 255 0 0
18.1335 12.9462 -4.88623 255 0 0
15.0652 12.8283 -5.57383 255 0 0
15.822 13.8659 -4.72525 255 0 0
18.3399 14.0353 -3.63419 255 0 0
17.619 13.3517 -4.86366 255 0 0
15.7665 12.7933 -5.14667 255 0 0
18.9101 12.51 -5.12893 255 0 0
18.9359 12.984 -4.58695 255 0 0
16.1836 13.0682 -4.34373 255 0 0
18.3048 13.0031 -5.09852 255 0 0
17.7145 12.9669 -4.47353 255 0 0
15.5862 13.9893 -5.06777 255 0 0
18.0799 12.9728 -4.32014 255 0 0
19.0044 12.9648 -4.20553 255 0 0
17.7627 12.8091 -5.20779 255 0 0
16.8267 12.8773 -4.92402 255 0 0
19.6043 12.4413 -5.20418 255 0 0
15.9219 14.1548 -4.57988 255 0 0
16.1387 13.4805 -4.36929 255 0 0
16.1527 13.4273 -4.36667 255 0 0
16.0028 14.5009 -4.79747 255 0 0
18.2466 13.1581 -3.77989 255 0 0
16.8206 12.8726 -5.10256 255 0 0
18.1711 13.0382 -3.39588 255 0 0
16.8437 13.0174 -5.29912 255 0 0
16.3242 14.3059 -4.08092 255 0 0
15.3572 13.1399 -5.13232 255 0 0
19.1039 14.5483 -3.49874 255 0 0
18.5966 13.0124 -3.60609 255 0 0
16.0101 13.6329 -4.36929 255 0 0
17.1012 12.832 -5.31347 255 0 0
18.1255 13.5335 -3.97904 255 0 0
16.5333 12.7776 -5.4164 255 0 0
16.1792 13.5796 -4.20234 255 0 0
16.153 14.637 -4.63971 255 0 0
15.0801 13.5351 -5.14039 255 0 0
16.3143 13.11 -4.35815 255 0 0
17.6373 12.7187 -5.55529 255 0 0
18.2423 12.9587 -3.39661 255 0 0
17.6774 13.33 -5.05529 255 0 0
20.2958 12.4124 -5.0818 255 0 0
18.0702 12.5803 -5.03848 255 0 0
18.6557 12.9879 -4.17926 255 0 0
16.9922 12.8133 -5.29822 255 0 0
19.1585 12.9373 -3.63585 255 0 0
18.2426 13.2871 -3.597 255 0 0
19.2339 12.4636 -5.35715 255 0 0
17.4144 13.1317 -4.09098 255 0 0
16.1857 14.4583 -4.44534 255 0 0
16.8712 13.1026 -4.22724 255 0 0
16.7777 12.903 -4.92082 255 0 0
18.129 13.2044 -3.9622 255 0 0
15.2929 12.8357 -5.60609 255 0 0
15.5051 13.7844 -5.03892 255 0 0
17.7844 12.9533 -4.66435 255 0 0
17.1985 13.0973 -4.25396 255 0 0
16.7133 13.6274 -3.88667 255 0 0
17.0883 13.4672 -3.90351 255 0 0
18.6031 13.0169 -4.74952 255 0 0
18.9982 12.9606 -4.39786 255 0 0
17.007 13.0793 -4.23695 255 0 0
18.1329 13.3393 -3.405 255 0 0
17.779 12.8208 -5.02488 255 0 0
17.4787 12.7307 -5.53545 255 0 0
18.6615 12.861 -4.93587 255 0 0
15.7373 14.0577 -4.91201 255 0 0
20.1853 12.4107 -5.47087 255 0 0
18.2347 13.6825 -3.42287 255 0 0
16.5024 14.3931 -3.91576 255 0 0
17.8302 13.9153 -4.92985 255 0 0
15.753 15.1125 -5.19761 255 0 0
20.0984 12.4231 -5.06074 255 0 0
17.7475 13.7832 -4.53188 255 0 0
16.18 14.9433 -4.66716 255 0 0
16.9178 13.0107 -4.4047 255 0 0
17.665 12.995 -4.47091 255 0 0
15.7536 13.0955 -5.00073 255 0 0
18.196 13.2532 -3.405 255 0 0
16.2775 13.6621 -4.03733 255 0 0
17.281 13.0955 -4.07868 255 0 0
18.1716 14.1818 -3.82376 255 0 0
18.2122 13.5312 -3.79513 255 0 0
15.3588 12.891 -5.27846 255 0 0
15.3109 12.8508 -5.43904 255 0 0
18.2934 14.2769 -3.64204 255 0 0
18.2868 13.9946 -3.82191 255 0 0
18.1208 13.0674 -4.14183 255 0 0
15.6355 12.9348 -5.14488 255 0 0
16.3524 14.6071 -4.28614 255 0 0
16.3155 13.9598 -4.05857 255 0 0
18.4066 14.2951 -3.4546 255 0 0
16.5819 13.8507 -3.89024 255 0 0
18.6094 13.0213 -4.36811 255 0 0
18.2889 13.2546 -3.40974 255 0 0
15.9057 13.2859 -4.68463 255 0 0
18.2376 13.0205 -4.71362 255 0 0
17.7752 14.2839 -5.34018 255 0 0
15.8659 13.1889 -4.84718 255 0 0
16.5918 13.9931 -3.89892 255 0 0
15.5041 14.1834 -5.07795 255 0 0
18.2348 13.8183 -3.42797 255 0 0
18.1272 13.1374 -3.95863 255 0 0
18.2874 13.9265 -3.81868 255 0 0
18.2202 13.6043 -3.41922 255 0 0
15.7586 13.7443 -4.8856 255 0 0
17.5926 13.3974 -3.93464 255 0 0
16.6953 13.1575 -4.03789 255 0 0
17.84 14.1283 -4.94791 255 0 0
15.7836 12.9317 -4.98885 255 0 0
18.8428 12.986 -4.57843 255 0 0
18.262 13.703 -3.61559 255 0 0
16.6514 14.2473 -3.91729 255 0 0
18.0457 12.819 -4.68054 255 0 0
15.4248 12.8842 -5.28602 255 0 0
15.968 13.5971 -4.53975 255 0 0
17.6092 13.2132 -5.22477 255 0 0
17.6908 12.8852 -4.83508 255 0 0
16.2807 13.7307 -4.0418 255 0 0
18.9303 12.9802 -4.2005 255 0 0
17.7029 13.1528 -4.85689 255 0 0
19.2511 12.9334 -4.02905 255 0 0
18.2137 12.8735 -4.88924 255 0 0
19.781 12.4222 -5.22339 255 0 0
17.7352 13.7737 -5.28926 255 0 0
18.256 13.0991 -4.15412 255 0 0
18.3246 13.0827 -3.96985 255 0 0
18.1906 13.4483 -3.41193 255 0 0
17.9552 14.1504 -4.57581 255 0 0
18.5658 12.9253 -3.41193 255 0 0
15.8497 13.4963 -4.69667 255 0 0
18.7712 12.9366 -3.42287 255 0 0
16.2654 14.9509 -4.48927 255 0 0
16.3563 13.1437 -4.18777 255 0 0
16.4733 14.2308 -3.90453 255 0 0
17.7739 13.3368 -5.0665 255 0 0
15.9007 13.0277 -4.66282 255 0 0
18.024 14.5543 -5.19697 255 0 0
15.3321 12.8068 -5.60817 255 0 0
18.4428 13.0355 -4.35475 255 0 0
15.9653 14.8153 -5.00567 255 0 0
18.7589 12.9939 -3.61477 255 0 0
16.9079 12.876 -4.93283 255 0 0
15.0484 13.7338 -5.15743 255 0 0
15.9222 13.2997 -4.5123 255 0 0
18.8389 12.9832 -4.77064 255 0 0
16.931 15.3419 -3.99894 255 0 0
17.5052 13.3965 -3.92852 255 0 0
16.5967 13.7964 -3.8882 255 0 0
16.0554 14.0032 -4.57988 255 0 0
17.4921 13.1253 -4.09656 255 0 0
19.4446 12.4697 -4.99229 255 0 0
15.4737 12.8629 -5.46188 255 0 0
15.8265 13.5414 -4.69817 255 0 0
17.9224 14.1936 -4.76853 255 0 0
16.5342 14.0792 -3.89994 255 0 0
14.994 13.0775 -5.25295 255 0 0
19.7821 12.4229 -5.42165 255 0 0
18.2599 13.8373 -3.81268 255 0 0
18.2517 13.5605 -3.60898 255 0 0
19.1559 12.4777 -4.96145 255 0 0
16.0693 14.8411 -4.83357 255 0 0
18.2693 13.7764 -3.81037 255 0 0
15.7765 12.8635 -5.15474 255 0 0
18.6254 12.9668 -3.79559 255 0 0
16.1168 13.7898 -4.56861 255 0 0
18.3193 14.1578 -3.63833 255 0 0
18.3616 14.4003 -3.45642 255 0 0
15.7495 13.2827 -4.84318 255 0 0
19.1332 12.9202 -4.21335 255 0 0
15.9505 13.2592 -4.68689 255 0 0
16.9634 13.1743 -4.05913 255 0 0
16.9144 12.7546 -5.46364 255 0 0
17.9467 12.8128 -5.60536 255 0 0
16.8091 13.1827 -4.04795 255 0 0
16.218 13.4167 -4.54891 255 0 0
16.3781 14.983 -4.50107 255 0 0
16.9376 13.4791 -3.89382 255 0 0
15.7939 12.7535 -5.31909 255 0 0
18.6498 12.9838 -4.36932 255 0 0
18.7073 12.5039 -4.91481 255 0 0
17.2128 13.1082 -4.07421 255 0 0
16.8547 13.0259 -4.40011 255 0 0
15.8561 14.0293 -4.74255 255 0 0
19.0627 12.9385 -3.82284 255 0 0
18.3213 12.9496 -5.09612 255 0 0
18.9788 12.8815 -3.43162 255 0 0
18.1132 13.3248 -3.9673 255 0 0
16.8392 12.8236 -5.28029 255 0 0
16.281 14.3365 -4.26185 255 0 0
16.9064 12.8748 -5.11275 255 0 0
18.3504 14.4619 -3.45825 255 0 0
18.5638 12.9894 -3.41411 255 0 0
18.8762 13.009 -3.62221 255 0 0
18.379 14.4139 -3.65279 255 0 0
15.3172 13.1687 -5.13053 255 0 0
17.2989 13.4348 -3.91627 255 0 0
17.6731 13.001 -5.21373 255 0 0
19.2473 12.9309 -3.6408 255 0 0
15.0694 13.5902 -5.14488 255 0 0
15.0758 13.6608 -5.15295 255 0 0
16.6091 12.7733 -5.60484 255 0 0
18.4389 13.0327 -3.97547 255 0 0
15.6402 12.8142 -5.30586 255 0 0
18.4066 14.5771 -3.66147 255 0 0
18.8327 14.4124 -3.48013 255 0 0
17.8782 14.5067 -5.37243 255 0 0
16.4162 12.7493 -5.57605 255 0 0
18.187 12.534 -5.04809 255 0 0
19.7145 12.4457 -5.02012 255 0 0
16.8334 12.7563 -5.45325 255 0 0
17.7649 13.0685 -4.67068 255 0 0
15.7619 14.0126 -4.91041 255 0 0
15.7797 13.6315 -4.87759 255 0 0
16.8645 13.4864 -3.88922 255 0 0
17.9703 14.0934 -4.57318 255 0 0
16.0207 13.126 -4.50808 255 0 0
15.5187 13.4705 -5.01006 255 0 0
17.692 13.0797 -4.85012 255 0 0
17.6637 13.0588 -4.66012 255 0 0
16.2686 14.1214 -4.06527 255 0 0
16.9683 12.922 -4.76286 255 0 0
15.5111 13.3996 -5.00243 255 0 0
18.3155 13.0761 -3.59245 255 0 0
15.1793 12.8636 -5.42316 255 0 0
17.9209 14.0546 -4.75797 255 0 0
15.8569 13.118 -4.83997 255 0 0
17.6594 13.0556 -4.28978 255 0 0
18.249 13.0941 -4.90955 255 0 0
16.1453 13.0373 -4.513 255 0 0
18.2693 13.7085 -3.80714 255 0 0
19.1417 12.9259 -3.82746 255 0 0
19.0833 12.9525 -4.01782 255 0 0
16.6809 13.6669 -3.88667 255 0 0
19.1977 12.8976 -4.21726 255 0 0
17.6884 13.4042 -4.68758 255 0 0
18.6684 12.9312 -3.4174 255 0 0
17.8391 14.2658 -5.15215 255 0 0
17.6524 13.1152 -4.1083 255 0 0
16.0644 13.8111 -4.387 255 0 0
18.85 12.9251 -3.42652 255 0 0
16.1616 13.1139 -4.34504 255 0 0
16.2079 13.7352 -4.21509 255 0 0
16.9952 12.9425 -4.58692 255 0 0
16.4814 13.2764 -4.02895 255 0 0
18.5284 13.0302 -4.5522 255 0 0
16.8234 13.5191 -3.8882 255 0 0
16.2919 13.6085 -4.0351 255 0 0
19.5378 12.4641 -5.00207 255 0 0
15.7237 13.8457 -4.8912 255 0 0
15.7717 14.9165 -5.17979 255 0 0
17.8519 14.3455 -4.58039 255 0 0
18.0722 13.3607 -3.96628 255 0 0
18.2582 13.3648 -3.60113 255 0 0
18.0118 12.8593 -5.24174 255 0 0
15.9675 13.0193 -4.66884 255 0 0
18.2255 13.7433 -3.42469 255 0 0
18.2312 13.2788 -3.78451 255 0 0
15.147 13.4339 -5.1377 255 0 0
16.5467 13.2323 -4.03119 255 0 0
19.0798 12.9501 -4.79246 255 0 0
20.2723 12.3981 -4.87764 255 0 0
18.0332 13.0692 -4.13512 255 0 0
16.0271 13.9786 -4.39617 255 0 0
17.9348 12.5493 -5.57891 255 0 0
20.0671 12.4037 -5.45559 255 0 0
15.8749 14.1131 -4.75158 255 0 0
15.4147 13.1259 -5.1377 255 0 0
15.5111 14.0553 -5.06607 255 0 0
16.2784 12.7665 -5.55917 255 0 0
18.4405 14.2514 -3.4546 255 0 0
17.6926 12.9508 -4.6552 255 0 0
16.2792 13.7956 -4.04571 255 0 0
18.425 13.0229 -3.59658 255 0 0
16.2908 13.872 -4.0513 255 0 0
15.9554 14.1171 -4.57988 255 0 0
18.2386 13.0212 -4.33654 255 0 0
19.1609 12.8729 -3.44074 255 0 0
19.0674 12.8758 -3.436 255 0 0
18.9723 12.943 -3.43345 255 0 0
18.4565 12.9796 -3.40828 255 0 0
18.3207 12.9491 -3.40025 255 0 0
18.1829 12.9815 -3.39442 255 0 0
18.1828 13.112 -3.39916 255 0 0
18.1881 13.3135 -3.40682 255 0 0
18.2055 13.5262 -3.41557 255 0 0
18.414 14.1614 -3.44986 255 0 0
18.3635 14.3315 -3.45387 255 0 0
18.3527 14.5344 -3.46117 255 0 0
18.3593 14.6106 -3.46445 255 0 0
18.4652 12.9857 -4.16418 255 0 0
17.7413 13.2467 -4.68124 255 0 0
16.5043 13.8525 -3.88514 255 0 0
17.7979 14.3022 -4.95769 255 0 0
17.1891 13.4807 -3.91117 255 0 0
16.8148 12.9315 -4.74782 255 0 0
15.2815 13.2012 -5.12963 255 0 0
17.0269 13.159 -4.06304 255 0 0
19.0795 12.9499 -3.63171 255 0 0
18.9504 12.9939 -3.62593 255 0 0
18.6801 13.0049 -3.61063 255 0 0
18.5084 13.0161 -3.60113 255 0 0
18.2391 13.1526 -3.59121 255 0 0
18.2315 13.2129 -3.59328 255 0 0
18.2641 13.4357 -3.60443 255 0 0
18.318 13.8131 -3.62345 255 0 0
18.3178 13.8812 -3.62634 255 0 0
18.3127 13.9458 -3.62882 255 0 0
18.3999 14.5009 -3.65775 255 0 0
17.9328 12.8029 -5.4148 255 0 0
16.7093 13.5583 -3.88259 255 0 0
15.1875 12.8088 -5.5884 255 0 0
19.1128 12.9725 -4.60268 255 0 0
18.3559 13.0394 -4.15859 255 0 0
16.8567 15.3476 -4.56859 255 0 0
19.1768 12.9496 -4.02446 255 0 0
17.4949 12.8061 -5.3601 255 0 0
16.7596 13.5333 -3.88463 255 0 0
16.9126 15.3253 -4.37965 255 0 0
19.2256 12.9163 -3.83254 255 0 0
18.9742 12.9442 -3.8173 255 0 0
18.9001 12.9594 -3.81314 255 0 0
18.8116 12.9645 -3.8076 255 0 0
18.6993 12.9525 -3.79975 255 0 0
18.5898 13.0076 -3.79513 255 0 0
18.4921 13.0046 -3.78866 255 0 0
18.4183 13.0181 -3.78451 255 0 0
18.3445 13.0313 -3.78035 255 0 0
18.3041 13.068 -3.77943 255 0 0
18.273 13.1114 -3.77943 255 0 0
18.2327 13.3461 -3.78774 255 0 0
18.1175 13.3943 -3.78266 255 0 0
18.2316 13.6127 -3.80021 255 0 0
18.2998 14.0735 -3.82653 255 0 0
18.9255 12.9769 -4.00762 255 0 0
18.2664 14.1169 -3.82653 255 0 0
18.2605 14.1817 -3.8293 255 0 0
18.1517 14.2357 -3.82515 255 0 0
18.2234 14.3618 -3.83577 255 0 0
18.3723 14.5499 -3.85424 255 0 0
17.1362 12.7949 -5.31436 255 0 0
19.014 12.9714 -4.01374 255 0 0
18.8371 12.982 -4.19323 255 0 0
15.8591 14.8574 -5.18318 255 0 0
16.3436 13.3906 -4.0256 255 0 0
16.3383 14.387 -4.08706 255 0 0
18.8466 12.9886 -4.00251 255 0 0
18.7199 12.9668 -3.99231 255 0 0
18.6604 12.9912 -3.98925 255 0 0
18.62 13.0287 -3.98823 255 0 0
18.5365 13.0359 -3.98261 255 0 0
18.3841 13.0595 -3.97292 255 0 0
18.2841 13.1193 -3.96883 255 0 0
18.1867 13.1148 -3.96169 255 0 0
18.1353 13.2749 -3.96628 255 0 0
18.0685 13.4244 -3.96934 255 0 0
18.1213 13.5975 -3.9821 255 0 0
17.8375 13.4507 -3.95454 255 0 0
17.6522 13.3767 -3.9377 255 0 0
17.3307 13.3937 -3.91627 255 0 0
16.9923 13.457 -3.89637 255 0 0
16.662 13.7176 -3.8882 255 0 0
16.6429 13.7682 -3.88973 255 0 0
16.4919 13.9758 -3.89126 255 0 0
16.3876 14.089 -3.89075 255 0 0
16.4836 14.308 -3.90964 255 0 0
16.4243 14.3937 -3.91066 255 0 0
17.5863 13.0661 -4.28432 255 0 0
17.6201 12.962 -4.83357 255 0 0
16.4657 14.5686 -4.10774 255 0 0
17.5956 13.0084 -5.20525 255 0 0
16.3117 13.4292 -4.20295 255 0 0
17.9387 14.2758 -4.77627 255 0 0
15.6665 14.4691 -5.12378 255 0 0
18.9194 12.9727 -4.39179 255 0 0
18.7344 12.9769 -4.18485 255 0 0
18.5723 12.9954 -4.17312 255 0 0
18.2917 13.0592 -4.15468 255 0 0
18.0728 13.1634 -4.1435 255 0 0
17.7631 13.1323 -4.1178 255 0 0
17.5652 13.1152 -4.10159 255 0 0
17.0858 13.1399 -4.06639 255 0 0
16.877 13.1715 -4.05242 255 0 0
16.6458 13.1826 -4.03566 255 0 0
16.4295 13.3313 -4.02839 255 0 0
16.3889 13.3628 -4.02727 255 0 0
16.3613 13.47 -4.03174 255 0 0
16.3241 13.5698 -4.0351 255 0 0
16.2623 14.0485 -4.06024 255 0 0
16.7395 15.2408 -4.17032 255 0 0
17.8415 14.0608 -4.94264 255 0 0
16.2093 13.6705 -4.21084 255 0 0
17.8936 12.9681 -4.48992 255 0 0
16.0518 13.088 -4.50808 255 0 0
18.7163 12.9643 -4.56532 255 0 0
15.6229 13.3673 -5.01176 255 0 0
18.985 12.495 -4.94415 255 0 0
17.4086 12.8064 -5.34934 255 0 0
19.2542 12.9356 -4.41851 255 0 0
19.1011 12.9646 -4.40697 255 0 0
18.8214 12.9712 -4.38329 255 0 0
18.7236 12.9694 -4.37479 255 0 0
18.5213 13.0252 -4.36082 255 0 0
18.4024 13.0724 -4.35354 255 0 0
18.238 13.1519 -4.34443 255 0 0
18.2257 13.2087 -4.34686 255 0 0
17.8789 13.0222 -4.30618 255 0 0
17.7869 13.0198 -4.29828 255 0 0
17.7372 13.0482 -4.29585 255 0 0
17.5086 13.073 -4.27824 255 0 0
17.4356 13.083 -4.27278 255 0 0
17.3674 13.0962 -4.26792 255 0 0
17.2852 13.0987 -4.26124 255 0 0
16.9252 13.0804 -4.23027 255 0 0
16.8171 13.1247 -4.2242 255 0 0
16.7355 13.125 -4.21752 255 0 0
16.6677 13.1358 -4.21267 255 0 0
16.5818 13.1319 -4.20538 255 0 0
16.505 13.1349 -4.19931 255 0 0
16.4238 13.134 -4.19263 255 0 0
16.316 13.1751 -4.18656 255 0 0
16.3119 13.2358 -4.1902 255 0 0
16.303 13.2928 -4.19323 255 0 0
16.2895 13.3462 -4.19566 255 0 0
16.2484 13.4419 -4.1987 255 0 0
16.2747 13.5288 -4.20659 255 0 0
16.2152 13.8076 -4.22056 255 0 0
16.2411 13.9296 -4.23088 255 0 0
16.2752 14.0596 -4.24242 255 0 0
16.2506 14.1058 -4.24363 255 0 0
16.2435 14.1673 -4.24728 255 0 0
16.2755 14.2633 -4.25638 255 0 0
16.3517 14.4677 -4.27642 255 0 0
16.3217 14.5103 -4.27703 255 0 0
16.6093 15.1223 -4.342 255 0 0
16.423 15.024 -4.32075 255 0 0
17.9107 12.8514 -5.22901 255 0 0
15.6464 13.2593 -5.00412 255 0 0
17.9582 12.7569 -5.60158 255 0 0
16.16 13.3043 -4.53483 255 0 0
19.2062 12.9695 -4.61121 255 0 0
19.0051 12.9653 -4.59219 255 0 0
18.6521 12.9854 -4.56073 255 0 0
18.5926 13.0096 -4.55679 255 0 0
18.4594 13.0472 -4.54696 255 0 0
18.2292 12.9494 -4.51942 255 0 0
18.0375 12.8777 -4.49713 255 0 0
18.1865 13.0493 -4.52205 255 0 0
18.2452 13.157 -4.5345 255 0 0
17.797 12.9625 -4.48074 255 0 0
17.0951 13.0185 -4.42109 255 0 0
16.9948 13.006 -4.41125 255 0 0
17.9716 14.0257 -4.56859 255 0 0
17.958 14.2218 -4.58105 255 0 0
17.9789 14.3078 -4.58892 255 0 0
17.9904 14.3868 -4.59547 255 0 0
16.2117 13.2184 -4.35684 255 0 0
16.1308 13.2162 -4.34963 255 0 0
16.1533 13.2988 -4.35749 255 0 0
16.2293 13.4261 -4.37323 255 0 0
16.1156 13.5262 -4.37061 255 0 0
16.1101 13.5869 -4.37454 255 0 0
16.109 13.6514 -4.37913 255 0 0
16.0794 13.7579 -4.38437 255 0 0
16.0756 13.8872 -4.39355 255 0 0
16.1086 13.9825 -4.40339 255 0 0
16.1165 14.1239 -4.41453 255 0 0
16.1135 14.189 -4.41912 255 0 0
16.1539 14.2927 -4.43026 255 0 0
16.0895 14.3039 -4.42568 255 0 0
16.2597 14.5938 -4.46173 255 0 0
16.2164 14.6245 -4.46042 255 0 0
16.8284 15.249 -4.55876 255 0 0
17.946 13.9374 -4.75163 255 0 0
16.9018 12.8081 -5.28656 255 0 0
16.9954 12.7526 -5.47404 255 0 0
15.693 12.9198 -5.15026 255 0 0
19.9063 12.4352 -5.04043 255 0 0
17.9874 12.7136 -5.22646 255 0 0
16.0968 13.3808 -4.53483 255 0 0
20.1735 12.4035 -4.86778 255 0 0
20.0847 12.4146 -4.85933 255 0 0
18.9127 12.9681 -4.77698 255 0 0
18.6721 12.9994 -4.75515 255 0 0
18.5627 13.0543 -4.74812 255 0 0
18.2822 13.1179 -4.72489 255 0 0
17.8809 12.9589 -4.6742 255 0 0
17.6794 13.1353 -4.66716 255 0 0
17.6505 13.3097 -4.67702 255 0 0
16.9553 12.9757 -4.58551 255 0 0
16.8645 12.9698 -4.57636 255 0 0
17.703 13.6815 -4.7094 255 0 0
17.9149 14.1187 -4.76219 255 0 0
17.9547 14.3583 -4.78402 255 0 0
16.0465 13.4682 -4.53694 255 0 0
15.9292 13.4991 -4.52849 255 0 0
16.1017 13.8432 -4.57143 255 0 0
15.9545 13.7825 -4.55313 255 0 0
15.9481 13.8432 -4.55735 255 0 0
15.967 14.06 -4.57636 255 0 0
16.1703 14.5136 -4.63126 255 0 0
16.0798 14.5013 -4.62211 255 0 0
16.485 15.1528 -4.71151 255 0 0
15.955 12.8212 -5.52144 255 0 0
15.8949 14.3346 -4.77264 255 0 0
17.6274 12.9031 -4.82981 255 0 0
20.197 12.418 -5.07127 255 0 0
19.9899 12.4216 -5.0487 255 0 0
19.8275 12.4514 -5.03291 255 0 0
19.3271 12.4591 -4.97875 255 0 0
19.2391 12.467 -4.96972 255 0 0
19.068 12.4849 -4.95242 255 0 0
18.8972 12.5015 -4.93512 255 0 0
18.8046 12.5045 -4.92534 255 0 0
18.7236 12.7084 -4.93136 255 0 0
18.823 12.8411 -4.95167 255 0 0
18.7063 12.8266 -4.93813 255 0 0
18.6405 12.9118 -4.93738 255 0 0
18.4335 12.8332 -4.90955 255 0 0
18.3031 12.807 -4.89375 255 0 0
18.5054 13.014 -4.93061 255 0 0
17.9559 12.7552 -4.85313 255 0 0
18.1002 13.0525 -4.89074 255 0 0
17.7918 12.8943 -4.84636 255 0 0
17.7573 13.3902 -4.88096 255 0 0
16.9007 12.9339 -4.75685 255 0 0
16.7565 12.95 -4.74331 255 0 0
17.8081 13.8303 -4.92083 255 0 0
17.8337 14.1923 -4.95242 255 0 0
17.8136 14.2454 -4.95468 255 0 0
17.9492 14.4939 -4.98853 255 0 0
15.9443 12.9375 -4.65981 255 0 0
15.8787 13.0727 -4.66432 255 0 0
15.9193 13.1696 -4.67636 255 0 0
15.8119 13.2713 -4.6741 255 0 0
15.8336 13.3536 -4.68313 255 0 0
15.7591 13.5486 -4.69216 255 0 0
15.683 13.548 -4.68463 255 0 0
15.8701 13.7755 -4.72225 255 0 0
15.8856 14.258 -4.76512 255 0 0
16.0281 14.6628 -4.81401 255 0 0
16.6731 15.3256 -4.93362 255 0 0
17.7989 12.7712 -5.39507 255 0 0
16.0923 12.8065 -5.53832 255 0 0
15.7484 12.9655 -4.988 255 0 0
20.367 12.3897 -5.28982 255 0 0
20.017 12.4385 -5.2522 255 0 0
17.9961 12.6559 -5.03608 255 0 0
18.2052 13.0627 -5.09211 255 0 0
17.7016 12.8289 -5.01687 255 0 0
17.6967 12.9538 -5.02648 255 0 0
17.6286 12.9682 -5.02007 255 0 0
17.761 13.1307 -5.04809 255 0 0
17.7497 13.2529 -5.05689 255 0 0
17.7929 13.8185 -5.10892 255 0 0
17.8515 13.932 -5.12493 255 0 0
17.8549 14.0029 -5.13134 255 0 0
15.9939 12.7282 -4.82076 255 0 0
17.9129 14.5349 -5.18336 255 0 0
15.9093 12.9719 -4.83277 255 0 0
15.8476 13.0471 -4.83277 255 0 0
15.7722 13.1744 -4.83597 255 0 0
15.7091 13.3125 -4.84157 255 0 0
15.7384 13.4661 -4.85838 255 0 0
15.7064 13.5033 -4.85838 255 0 0
15.7041 13.7625 -4.8816 255 0 0
15.7557 14.1415 -4.92162 255 0 0
15.7523 14.206 -4.92722 255 0 0
15.826 14.3407 -4.94723 255 0 0
15.7748 14.3625 -4.94403 255 0 0
15.8477 14.4978 -4.96404 255 0 0
15.8432 14.5628 -4.96965 255 0 0
16.0217 14.7971 -5.00967 255 0 0
15.8474 15.0594 -5.01687 255 0 0
15.841 15.125 -5.02247 255 0 0
15.7221 13.0064 -4.98885 255 0 0
18.0475 12.6282 -5.22646 255 0 0
20.3677 12.3902 -5.49208 255 0 0
20.2839 12.4052 -5.48275 255 0 0
19.9786 12.4146 -5.44541 255 0 0
19.8901 12.4251 -5.43522 255 0 0
19.7036 12.4389 -5.41316 255 0 0
19.4098 12.4473 -5.37752 255 0 0
19.1412 12.4681 -5.34612 255 0 0
18.9705 12.4855 -5.3266 255 0 0
17.937 12.6143 -5.21204 255 0 0
18.0092 12.7931 -5.2358 255 0 0
17.6994 12.8273 -5.20185 255 0 0
17.6763 13.133 -5.22561 255 0 0
17.5569 13.109 -5.20949 255 0 0
16.9692 12.8592 -5.11869 255 0 0
16.7579 12.8877 -5.09662 255 0 0
16.819 12.9983 -5.1136 255 0 0
17.7573 13.8585 -5.29944 255 0 0
17.7609 13.9292 -5.30623 255 0 0
17.7324 13.9748 -5.30708 255 0 0
17.8224 14.3915 -5.35545 255 0 0
17.8168 14.5271 -5.36733 255 0 0
15.8737 13.2591 -5.02958 255 0 0
15.66 13.2073 -5.00073 255 0 0
15.6546 13.3302 -5.01176 255 0 0
15.5165 13.3401 -4.99734 255 0 0
15.5317 13.579 -5.02195 255 0 0
15.5442 13.6877 -5.03383 255 0 0
15.5985 13.8013 -5.0508 255 0 0
15.5631 13.9021 -5.05674 255 0 0
15.5272 14.003 -5.06268 255 0 0
15.5634 14.17 -5.08305 255 0 0
15.6368 14.3731 -5.11105 255 0 0
15.6831 14.5534 -5.13396 255 0 0
15.7799 14.7131 -5.16027 255 0 0
15.7901 14.8632 -5.17639 255 0 0
15.8161 15.0297 -5.19591 255 0 0
15.7804 15.0671 -5.19591 255 0 0
15.2319 13.2849 -5.13232 255 0 0
16.0214 12.8122 -5.52939 255 0 0
17.9965 12.5924 -5.40404 255 0 0
17.9476 12.6218 -5.40045 255 0 0
18.0074 12.7277 -5.41749 255 0 0
18.015 12.7972 -5.42466 255 0 0
17.7076 12.7693 -5.38341 255 0 0
17.6538 12.7943 -5.37893 255 0 0
17.5814 12.8055 -5.37086 255 0 0
17.3502 12.827 -5.34395 255 0 0
17.2548 12.8198 -5.3314 255 0 0
16.7674 12.8319 -5.27222 255 0 0
16.769 12.8963 -5.27849 255 0 0
17.7268 13.7671 -5.47847 255 0 0
17.7159 13.8939 -5.48923 255 0 0
15.8661 12.688 -5.14846 255 0 0
17.559 14.1102 -5.49102 255 0 0
17.575 14.1917 -5.50088 255 0 0
15.7504 12.9046 -5.15564 255 0 0
15.6271 12.9904 -5.14936 255 0 0
15.5696 13.0051 -5.14398 255 0 0
15.5454 13.079 -5.14846 255 0 0
15.4546 13.0968 -5.1395 255 0 0
15.2546 13.2412 -5.13053 255 0 0
15.2264 13.3439 -5.1377 255 0 0
15.1861 13.3723 -5.13591 255 0 0
15.1208 13.507 -5.14219 255 0 0
16.4619 12.7848 -5.4079 255 0 0
16.1634 12.8005 -5.54726 255 0 0
17.7749 14.423 -5.54752 255 0 0
17.9334 12.6117 -5.58458 255 0 0
17.7144 12.7105 -5.56474 255 0 0
17.5463 12.7164 -5.54301 255 0 0
17.3878 12.7277 -5.52316 255 0 0
17.2529 12.7551 -5.50805 255 0 0
17.1392 12.7339 -5.49104 255 0 0
17.0673 12.7434 -5.48254 255 0 0
16.7663 12.7682 -5.44569 255 0 0
16.6186 12.7806 -5.42774 255 0 0
16.3951 12.7954 -5.40034 255 0 0
16.3375 12.8128 -5.39467 255 0 0
15.8241 12.716 -5.31909 255 0 0
15.7501 12.78 -5.31625 255 0 0
15.7377 12.8319 -5.32003 255 0 0
15.6231 12.8623 -5.30869 255 0 0
15.4864 12.8735 -5.29263 255 0 0
15.3017 12.905 -5.27279 255 0 0
15.2446 12.9189 -5.26712 255 0 0
15.1963 12.94 -5.26334 255 0 0
15.1524 12.9647 -5.26051 255 0 0
15.0469 13.0297 -5.25437 255 0 0
16.5377 12.7809 -5.5959 255 0 0
15.7247 12.8213 -5.49067 255 0 0
15.6103 12.8517 -5.47875 255 0 0
15.5353 12.8519 -5.46882 255 0 0
15.3989 12.8626 -5.45195 255 0 0
15.0787 12.9016 -5.41422 255 0 0
15.1351 12.8261 -5.5832 255 0 0
15.0041 12.8378 -5.56655 255 0 0
17.8457 14.2018 -5.14734 255 0 0
17.8474 14.1342 -5.14174 255 0 0
17.8967 14.5218 -4.98552 255 0 0
17.493 13.989 -5.47129 255 0 0
