ply
format ascii 1.0
comment Created by Open3D
element vertex 577
property double x
property double y
property double z
property uchar red
property uchar green
property uchar blue
end_header
4.51403 -17.7556 -4.37322 255 0 0
5.72735 -16.6157 -4.42534 255 0 0
5.29828 -17.3503 -3.28371 255 0 0
4.54803 -16.117 -4.73803 255 0 0
4.98424 -17.5039 -3.28785 255 0 0
4.56547 -18.138 -4.42287 255 0 0
5.61597 -18.8702 -4.38419 255 0 0
5.80547 -17.6535 -3.9376 255 0 0
4.78469 -17.2685 -3.56772 255 0 0
4.5672 -16.3329 -4.62835 255 0 0
5.90556 -17.4 -3.30024 255 0 0
6.11266 -17.8709 -3.65243 255 0 0
5.89473 -19.98 -3.9971 255 0 0
5.71456 -17.6588 -4.24763 255 0 0
6.12707 -16.2585 -4.54502 255 0 0
4.70378 -16.6689 -4.39012 255 0 0
6.07159 -17.2159 -3.75012 255 0 0
4.60569 -16.4706 -4.50513 255 0 0
5.10221 -17.7582 -3.77135 255 0 0
6.27408 -16.8909 -4.33411 255 0 0
5.73248 -16.5034 -4.41094 255 0 0
4.58391 -16.2441 -4.6158 255 0 0
5.63271 -16.093 -4.4975 255 0 0
4.808 -18.5433 -3.19563 255 0 0
5.03688 -17.6887 -4.22721 255 0 0
6.17122 -17.9034 -3.81549 255 0 0
5.55266 -15.3945 -4.81557 255 0 0
6.21231 -17.8848 -3.97403 255 0 0
6.056 -17.4348 -3.30603 255 0 0
6.32724 -17.034 -4.0474 255 0 0
6.02902 -17.7638 -3.6412 255 0 0
5.92798 -17.331 -3.44922 255 0 0
5.29009 -15.8329 -4.5871 255 0 0
5.7966 -17.6266 -4.09067 255 0 0
5.38544 -15.3865 -4.80465 255 0 0
4.57473 -17.3054 -4.47017 255 0 0
4.66192 -15.8014 -4.69363 255 0 0
4.49331 -17.3296 -4.77452 255 0 0
5.88109 -17.6018 -3.77917 255 0 0
4.75459 -17.1599 -3.70709 255 0 0
5.01741 -16.5711 -4.38932 255 0 0
4.60936 -18.6863 -4.33069 255 0 0
4.66471 -19.1053 -4.21589 255 0 0
4.71521 -19.5128 -4.09305 255 0 0
4.81436 -19.3202 -3.40894 255 0 0
4.84556 -16.2112 -4.4784 255 0 0
4.50708 -16.8874 -4.26415 255 0 0
4.86002 -16.618 -4.38932 255 0 0
5.47325 -17.3331 -3.43814 255 0 0
4.77974 -18.256 -3.33538 255 0 0
5.9756 -15.6316 -4.73615 255 0 0
5.78635 -18.9486 -4.06572 255 0 0
5.02334 -17.8013 -4.23988 255 0 0
5.43304 -15.5225 -4.68891 255 0 0
5.30677 -15.3955 -4.80167 255 0 0
4.56708 -16.4831 -4.65077 255 0 0
4.83717 -19.2174 -3.23685 255 0 0
4.99036 -17.3689 -3.42982 255 0 0
4.52603 -18.3484 -4.76821 255 0 0
4.78952 -19.4166 -3.41514 255 0 0
5.69701 -15.5631 -4.70969 255 0 0
4.71062 -17.0012 -3.98774 255 0 0
4.63214 -16.415 -4.49834 255 0 0
6.05977 -16.6764 -4.44856 255 0 0
4.55452 -17.229 -4.61036 255 0 0
4.78164 -17.9161 -3.62232 255 0 0
5.40321 -16.1715 -4.4975 255 0 0
6.08334 -16.6184 -4.44215 255 0 0
6.11977 -17.0936 -3.74062 255 0 0
6.06267 -17.1906 -3.90056 255 0 0
5.80815 -19.8599 -4.15741 255 0 0
5.76571 -17.2564 -3.43952 255 0 0
5.04216 -15.581 -4.67757 255 0 0
4.96478 -17.7548 -3.76744 255 0 0
5.3701 -16.5944 -4.40693 255 0 0
5.7651 -17.3917 -3.29653 255 0 0
6.02718 -15.6551 -4.74276 255 0 0
4.49264 -16.8332 -4.84858 255 0 0
5.86199 -17.138 -4.19342 255 0 0
6.14062 -17.9526 -3.97828 255 0 0
5.3858 -17.3421 -3.43675 255 0 0
5.68438 -18.1514 -4.14312 255 0 0
5.05252 -18.577 -3.84567 255 0 0
5.71846 -17.3889 -3.4483 255 0 0
4.79784 -17.6406 -3.29363 255 0 0
5.55477 -18.8277 -4.37715 255 0 0
4.78496 -17.9285 -3.46815 255 0 0
4.79153 -17.9532 -3.78141 255 0 0
5.6478 -17.5948 -4.23777 255 0 0
5.09208 -17.4114 -3.58711 255 0 0
6.23648 -16.9124 -4.18287 255 0 0
4.55334 -18.2727 -4.43941 255 0 0
5.47722 -18.8945 -4.21654 255 0 0
5.69042 -18.9558 -3.73153 255 0 0
5.2277 -17.4144 -3.28661 255 0 0
6.21613 -16.4949 -4.43255 255 0 0
5.54689 -15.7877 -4.59338 255 0 0
5.79674 -18.9024 -4.22769 255 0 0
6.38737 -16.9492 -4.19342 255 0 0
4.50903 -16.8947 -4.70996 255 0 0
4.58858 -15.829 -4.83542 255 0 0
4.83116 -19.3876 -3.24706 255 0 0
4.46726 -17.9273 -4.8633 255 0 0
4.54262 -19.1968 -4.72231 255 0 0
4.61264 -19.4928 -4.42572 255 0 0
4.56017 -16.9251 -4.41894 255 0 0
6.20862 -17.8742 -4.13197 255 0 0
4.74246 -15.663 -4.81557 255 0 0
4.70761 -15.818 -4.69835 255 0 0
5.40632 -15.8059 -4.5889 255 0 0
6.00839 -17.703 -4.1064 255 0 0
4.80422 -16.8717 -4.27242 255 0 0
5.0377 -17.8522 -4.09001 255 0 0
4.73745 -18.8212 -3.53558 255 0 0
5.02363 -18.6452 -3.85126 255 0 0
5.5081 -19.001 -4.06268 255 0 0
5.68231 -16.6127 -4.42294 255 0 0
4.68459 -15.7407 -4.82549 255 0 0
6.23354 -15.8538 -4.78528 255 0 0
6.16609 -17.8885 -3.97282 255 0 0
6.21766 -16.6182 -4.44856 255 0 0
4.77955 -19.3762 -3.57899 255 0 0
5.18895 -15.842 -4.58352 255 0 0
4.48039 -16.9485 -4.27092 255 0 0
4.54033 -15.9449 -4.8523 255 0 0
4.46874 -17.7537 -4.68165 255 0 0
5.91806 -16.5302 -4.42294 255 0 0
4.45807 -17.0274 -4.13148 255 0 0
5.83828 -17.3368 -3.44737 255 0 0
4.65356 -19.2577 -4.23228 255 0 0
4.5899 -19.1935 -4.38982 255 0 0
5.83631 -17.6065 -3.93396 255 0 0
5.1459 -15.4014 -4.79372 255 0 0
4.52206 -18.9098 -4.84798 255 0 0
5.72453 -15.4114 -4.82847 255 0 0
5.0625 -18.6137 -3.68764 255 0 0
6.12392 -16.9782 -4.18568 255 0 0
5.26241 -16.6653 -4.41174 255 0 0
4.77636 -16.6241 -4.38692 255 0 0
4.54284 -18.6062 -4.64306 255 0 0
4.47862 -17.1059 -4.89109 255 0 0
5.83383 -17.599 -3.7775 255 0 0
4.76711 -17.3649 -3.42474 255 0 0
4.73095 -19.578 -3.76215 255 0 0
4.66912 -18.3657 -4.29479 255 0 0
6.14401 -16.7841 -4.3153 255 0 0
6.07246 -16.7113 -4.30326 255 0 0
4.93153 -15.4895 -4.7967 255 0 0
4.51167 -16.2831 -4.7626 255 0 0
4.41308 -17.0202 -4.27769 255 0 0
5.86168 -17.5437 -4.08411 255 0 0
5.42574 -15.3846 -4.80663 255 0 0
4.60973 -16.1887 -4.60863 255 0 0
4.82265 -17.5672 -3.28909 255 0 0
5.59073 -16.0954 -4.4958 255 0 0
4.68035 -18.7824 -3.85573 255 0 0
5.63551 -15.3951 -4.82053 255 0 0
5.75953 -17.7978 -4.10772 255 0 0
5.66748 -18.7181 -4.53344 255 0 0
5.73959 -17.4532 -4.37999 255 0 0
5.9966 -16.6253 -4.43895 255 0 0
5.23205 -15.5366 -4.6804 255 0 0
5.75618 -18.691 -4.53344 255 0 0
5.67158 -15.8417 -4.60773 255 0 0
4.47381 -17.5975 -4.81398 255 0 0
4.72278 -18.7629 -3.69275 255 0 0
4.49264 -16.0663 -4.87017 255 0 0
4.44901 -16.9928 -4.27543 255 0 0
4.7317 -17.8992 -3.61977 255 0 0
5.72859 -18.9199 -3.72949 255 0 0
5.25882 -17.3684 -3.28413 255 0 0
4.73498 -17.9116 -3.46584 255 0 0
5.31833 -16.5684 -4.40133 255 0 0
5.03858 -17.6947 -4.07297 255 0 0
5.94969 -17.6676 -4.1005 255 0 0
4.61479 -16.8101 -4.25813 255 0 0
5.46027 -15.3662 -4.80564 255 0 0
6.08786 -17.262 -3.6014 255 0 0
6.07044 -15.6566 -4.88903 255 0 0
4.79095 -17.7817 -3.30314 255 0 0
4.62414 -18.3711 -4.29408 255 0 0
4.61711 -18.5286 -4.31239 255 0 0
6.10266 -16.5495 -4.43415 255 0 0
4.7368 -15.7791 -4.69363 255 0 0
4.59989 -19.0356 -4.37152 255 0 0
4.79807 -15.7123 -4.68607 255 0 0
4.84682 -17.4125 -3.43005 255 0 0
5.75005 -18.8298 -4.38419 255 0 0
4.77972 -18.0809 -3.32339 255 0 0
6.41205 -17.0147 -4.04871 255 0 0
5.59962 -15.5247 -4.69835 255 0 0
6.1112 -17.1981 -3.59681 255 0 0
6.17513 -16.1535 -4.53314 255 0 0
4.68777 -17.9047 -3.61926 255 0 0
4.87122 -17.9104 -4.09133 255 0 0
5.80848 -17.2483 -4.20398 255 0 0
5.82874 -18.6124 -4.03354 255 0 0
4.58209 -17.0065 -4.13289 255 0 0
4.81877 -19.5352 -3.25582 255 0 0
4.81217 -18.9284 -3.21898 255 0 0
4.82797 -18.8037 -3.21168 255 0 0
4.81495 -18.3905 -3.18651 255 0 0
4.47868 -17.7932 -4.84357 255 0 0
4.55581 -15.8565 -4.8384 255 0 0
5.55717 -17.3125 -3.4386 255 0 0
4.73509 -17.0895 -3.84895 255 0 0
5.78908 -17.7453 -4.10313 255 0 0
4.63532 -19.798 -4.46232 255 0 0
5.4964 -15.8238 -4.59607 255 0 0
4.82868 -16.6573 -4.39333 255 0 0
4.979 -17.6442 -3.60395 255 0 0
4.62809 -16.8585 -4.41254 255 0 0
5.04476 -17.3258 -3.42774 255 0 0
6.1797 -17.7909 -4.28071 255 0 0
4.7846 -19.0085 -3.38704 255 0 0
4.78648 -18.8273 -3.37464 255 0 0
4.79547 -17.9679 -3.31595 255 0 0
4.85181 -17.5107 -3.28578 255 0 0
4.89017 -17.4879 -3.28495 255 0 0
4.93162 -17.4763 -3.28495 255 0 0
5.0096 -17.4359 -3.28371 255 0 0
5.05255 -17.4296 -3.28413 255 0 0
5.09714 -17.4287 -3.28495 255 0 0
5.13845 -17.4166 -3.28495 255 0 0
5.1764 -17.3932 -3.28413 255 0 0
5.35659 -17.3935 -3.28785 255 0 0
5.40301 -17.3975 -3.28909 255 0 0
5.44076 -17.3735 -3.28826 255 0 0
5.48545 -17.3717 -3.28909 255 0 0
5.52663 -17.3586 -3.28909 255 0 0
5.59281 -17.3528 -3.29012 255 0 0
5.6572 -17.3411 -3.29074 255 0 0
5.7129 -17.372 -3.29405 255 0 0
5.81372 -17.4001 -3.29818 255 0 0
5.85869 -17.3974 -3.299 255 0 0
5.96759 -17.4468 -3.30479 255 0 0
6.00133 -17.4105 -3.30314 255 0 0
6.10311 -17.437 -3.30727 255 0 0
4.73756 -17.2573 -3.56568 255 0 0
5.65549 -17.3359 -3.44275 255 0 0
6.10793 -15.8648 -4.63463 255 0 0
5.86221 -18.8761 -4.22703 255 0 0
6.18639 -16.8999 -4.02773 255 0 0
4.79894 -17.6447 -4.36871 255 0 0
4.55293 -17.0592 -4.43655 255 0 0
5.63139 -18.922 -4.22441 255 0 0
6.05844 -16.7967 -4.31304 255 0 0
6.04084 -15.9153 -4.63822 255 0 0
5.59143 -17.5622 -4.38751 255 0 0
5.4288 -16.5081 -4.39813 255 0 0
4.75852 -19.4895 -3.58731 255 0 0
4.76197 -19.1099 -3.55821 255 0 0
5.14165 -20.0254 -3.6358 255 0 0
4.85023 -18.0017 -3.47508 255 0 0
4.77801 -17.5677 -3.44044 255 0 0
4.92221 -17.4429 -3.43398 255 0 0
4.94117 -17.3526 -3.42751 255 0 0
5.12534 -17.3722 -3.43305 255 0 0
5.15653 -17.3264 -3.43028 255 0 0
5.1892 -17.2862 -3.42797 255 0 0
5.26908 -17.4023 -3.4386 255 0 0
5.29669 -17.3451 -3.4349 255 0 0
5.33264 -17.3158 -3.43352 255 0 0
5.4269 -17.3293 -3.43675 255 0 0
5.5161 -17.3256 -3.4386 255 0 0
5.62875 -17.3936 -3.44645 255 0 0
5.75233 -17.3532 -3.44645 255 0 0
5.88687 -17.345 -3.44922 255 0 0
5.99378 -17.3886 -3.45522 255 0 0
6.0235 -17.3413 -3.45245 255 0 0
6.05689 -17.3049 -3.4506 255 0 0
6.12702 -17.3731 -3.45753 255 0 0
6.11272 -17.0739 -3.89085 255 0 0
5.82729 -17.7199 -4.25889 255 0 0
4.39462 -17.1159 -4.13993 255 0 0
5.77084 -17.6894 -4.25326 255 0 0
5.56669 -15.5488 -4.70024 255 0 0
5.60681 -18.8394 -4.54623 255 0 0
5.11572 -17.8052 -4.2434 255 0 0
5.15503 -16.1915 -4.48901 255 0 0
5.91664 -15.8137 -4.6167 255 0 0
6.24713 -17.8484 -4.13066 255 0 0
5.12321 -15.5789 -4.68135 255 0 0
4.46529 -16.2655 -4.90194 255 0 0
5.78922 -17.6041 -3.6213 255 0 0
5.19703 -15.5544 -4.68135 255 0 0
5.59162 -16.5394 -4.40934 255 0 0
5.65481 -18.8372 -4.54773 255 0 0
4.73585 -19.3967 -3.74684 255 0 0
4.70639 -19.0796 -3.71928 255 0 0
5.05173 -18.7496 -3.69887 255 0 0
4.86646 -17.4032 -3.58099 255 0 0
5.00644 -17.5818 -3.59936 255 0 0
4.99657 -17.3905 -3.58303 255 0 0
5.04266 -17.3954 -3.58456 255 0 0
5.18291 -17.415 -3.58966 255 0 0
5.75639 -18.8505 -3.72439 255 0 0
5.36737 -17.1392 -3.57129 255 0 0
5.44839 -17.2543 -3.58303 255 0 0
5.46451 -17.1635 -3.57588 255 0 0
5.81993 -17.5571 -3.61824 255 0 0
5.84305 -17.4879 -3.61314 255 0 0
6.14741 -17.8343 -3.65039 255 0 0
6.03082 -17.3623 -3.60803 255 0 0
6.05077 -17.2874 -3.60242 255 0 0
5.18633 -16.1572 -4.48562 255 0 0
5.74111 -18.9613 -3.89931 255 0 0
5.70167 -18.6713 -4.52893 255 0 0
5.84494 -17.4936 -4.23355 255 0 0
4.96476 -16.5385 -4.38292 255 0 0
5.18648 -16.5615 -4.39493 255 0 0
4.55009 -18.8295 -4.50937 255 0 0
4.69858 -19.6479 -3.93675 255 0 0
4.70545 -19.4724 -3.92055 255 0 0
4.69907 -19.246 -3.89931 255 0 0
4.69583 -19.0368 -3.87975 255 0 0
4.68863 -17.908 -3.7747 255 0 0
4.70128 -17.7841 -3.76353 255 0 0
4.72469 -17.2104 -3.711 255 0 0
5.00687 -17.7429 -3.76744 255 0 0
5.05211 -17.7422 -3.76856 255 0 0
5.90883 -19.8542 -3.98592 255 0 0
5.69614 -18.9749 -3.89931 255 0 0
5.78776 -18.9532 -3.89987 255 0 0
5.82925 -18.9283 -3.89875 255 0 0
5.69729 -17.8947 -3.80041 255 0 0
5.73614 -17.87 -3.79929 255 0 0
5.80182 -17.9285 -3.80655 255 0 0
5.7937 -17.7595 -3.79091 255 0 0
6.00105 -15.9241 -4.63732 255 0 0
5.78116 -17.5796 -3.77414 255 0 0
6.07876 -17.9103 -3.81326 255 0 0
6.10611 -17.8518 -3.80879 255 0 0
6.20409 -17.8611 -3.8127 255 0 0
6.05964 -17.3128 -3.7585 255 0 0
6.08312 -17.1191 -3.74173 255 0 0
4.65423 -16.0555 -4.59069 255 0 0
4.48668 -16.9723 -4.87031 255 0 0
4.80479 -15.6018 -4.80862 255 0 0
4.9948 -17.7002 -3.91756 255 0 0
5.05569 -16.1439 -4.47798 255 0 0
4.42498 -17.0661 -4.135 255 0 0
4.70144 -19.6599 -4.10762 255 0 0
4.67083 -18.7442 -4.01411 255 0 0
4.67883 -17.8706 -3.92606 255 0 0
5.03005 -18.6691 -4.01593 255 0 0
5.06514 -18.6234 -4.01229 255 0 0
4.70072 -17.1231 -3.85138 255 0 0
5.0527 -17.7443 -3.92363 255 0 0
5.11888 -17.8162 -3.93274 255 0 0
5.86181 -19.8684 -4.15984 255 0 0
5.69308 -18.9647 -4.06451 255 0 0
5.73465 -18.94 -4.06329 255 0 0
5.83983 -18.9627 -4.06876 255 0 0
5.85356 -18.5375 -4.02686 255 0 0
5.72612 -17.9852 -3.96796 255 0 0
5.76875 -17.9716 -3.96796 255 0 0
5.797 -17.9136 -3.9631 255 0 0
5.82501 -17.8555 -3.95825 255 0 0
5.88912 -17.6258 -3.9376 255 0 0
5.92346 -17.5897 -3.93517 255 0 0
6.12292 -17.231 -3.90663 255 0 0
6.16701 -17.0977 -3.8951 255 0 0
6.1229 -17.1024 -4.04675 255 0 0
4.52076 -16.6218 -4.6696 255 0 0
4.68144 -19.7835 -4.29062 255 0 0
4.64984 -19.4441 -4.2526 255 0 0
4.65426 -18.8682 -4.18966 255 0 0
4.67788 -18.7725 -4.17983 255 0 0
4.67019 -17.8376 -4.07756 255 0 0
4.87362 -17.7529 -4.07428 255 0 0
5.1464 -17.912 -4.09985 255 0 0
4.52448 -18.531 -4.47101 255 0 0
5.53343 -18.9205 -4.22113 255 0 0
5.60133 -18.9855 -4.23031 255 0 0
5.68628 -18.942 -4.22834 255 0 0
5.72105 -18.8951 -4.22441 255 0 0
5.6906 -18.0214 -4.12935 255 0 0
4.66422 -16.9902 -4.13359 255 0 0
5.74137 -17.9595 -4.12443 255 0 0
5.84021 -17.6183 -4.09133 255 0 0
6.07859 -17.7713 -4.11624 255 0 0
6.15863 -17.8669 -4.12935 255 0 0
6.13184 -17.0002 -4.03626 255 0 0
6.15624 -16.9419 -4.03101 255 0 0
6.36149 -17.0026 -4.04543 255 0 0
5.00138 -15.455 -4.79472 255 0 0
4.83963 -15.9159 -4.57814 255 0 0
5.06019 -15.3872 -4.78677 255 0 0
4.59814 -18.8327 -4.34758 255 0 0
4.5014 -17.028 -4.13289 255 0 0
4.53576 -16.9948 -4.13007 255 0 0
4.84818 -17.8257 -4.23707 255 0 0
4.6719 -16.8614 -4.11881 255 0 0
4.83397 -17.287 -4.17371 255 0 0
5.16601 -17.821 -4.24692 255 0 0
5.40895 -18.4949 -4.3335 255 0 0
5.6607 -18.8568 -4.38419 255 0 0
5.7155 -18.8767 -4.38841 255 0 0
5.78784 -18.7938 -4.38137 255 0 0
5.80652 -18.6968 -4.37081 255 0 0
5.60937 -17.9119 -4.27297 255 0 0
5.64482 -17.8764 -4.27015 255 0 0
5.59902 -17.586 -4.23496 255 0 0
5.85831 -17.6729 -4.25467 255 0 0
5.81573 -17.1354 -4.19131 255 0 0
6.16023 -17.8715 -4.28916 255 0 0
6.25259 -17.864 -4.29197 255 0 0
6.14232 -16.9036 -4.17794 255 0 0
6.16639 -16.8453 -4.17231 255 0 0
6.29073 -16.9358 -4.18779 255 0 0
6.34309 -16.9535 -4.19202 255 0 0
6.43785 -16.9612 -4.19694 255 0 0
6.4905 -16.9785 -4.20117 255 0 0
5.93109 -16.0843 -4.51107 255 0 0
5.83892 -16.0686 -4.50429 255 0 0
4.57225 -19.5286 -4.59813 255 0 0
4.55569 -19.2521 -4.56278 255 0 0
4.5284 -18.9363 -4.52216 255 0 0
4.53086 -18.368 -4.4507 255 0 0
4.38427 -17.0756 -4.28371 255 0 0
4.56826 -16.9551 -4.27468 255 0 0
4.63913 -16.7431 -4.25061 255 0 0
4.91025 -17.5598 -4.36194 255 0 0
4.88879 -17.3245 -4.33185 255 0 0
4.82497 -16.7933 -4.2634 255 0 0
5.13315 -17.7076 -4.38826 255 0 0
5.18164 -17.7177 -4.39127 255 0 0
5.22199 -17.6998 -4.39052 255 0 0
5.59138 -17.8545 -4.42362 255 0 0
5.50781 -17.4425 -4.36946 255 0 0
5.66145 -17.6373 -4.39955 255 0 0
5.68001 -17.552 -4.38977 255 0 0
4.56259 -17.7701 -4.5318 255 0 0
5.67478 -17.395 -4.37021 255 0 0
5.85174 -17.5139 -4.39203 255 0 0
6.17173 -16.7368 -4.31079 255 0 0
6.34056 -16.9467 -4.34388 255 0 0
6.38482 -16.9425 -4.34539 255 0 0
4.50878 -15.9779 -4.85627 255 0 0
4.89941 -16.6064 -4.38932 255 0 0
4.89977 -15.5169 -4.93899 255 0 0
4.53543 -19.3713 -4.74552 255 0 0
4.53281 -18.9547 -4.68949 255 0 0
4.53823 -18.7804 -4.66628 255 0 0
4.55361 -18.4602 -4.62385 255 0 0
4.54267 -18.2299 -4.59264 255 0 0
4.53491 -18.0166 -4.56382 255 0 0
4.54474 -17.8765 -4.54541 255 0 0
4.57851 -17.6582 -4.51739 255 0 0
4.58657 -17.5182 -4.49898 255 0 0
4.59267 -16.8863 -4.41494 255 0 0
4.63242 -16.7189 -4.39413 255 0 0
4.66268 -16.6744 -4.38932 255 0 0
4.74964 -16.68 -4.39333 255 0 0
4.94374 -16.6114 -4.39173 255 0 0
5.06854 -16.598 -4.39493 255 0 0
5.09764 -16.5527 -4.39012 255 0 0
5.12827 -16.5129 -4.38612 255 0 0
5.29135 -16.6197 -4.40693 255 0 0
5.38964 -16.5209 -4.39813 255 0 0
5.45697 -16.4622 -4.39333 255 0 0
5.51069 -16.4932 -4.39973 255 0 0
5.77542 -16.5007 -4.41254 255 0 0
5.82996 -16.5307 -4.41894 255 0 0
5.87108 -16.5223 -4.41974 255 0 0
6.16612 -16.6003 -4.44375 255 0 0
5.51046 -15.5075 -4.69079 255 0 0
4.92586 -16.2687 -4.48986 255 0 0
5.13435 -15.8659 -4.58441 255 0 0
4.67992 -15.8624 -4.84535 255 0 0
4.46981 -19.2971 -4.90144 255 0 0
4.49189 -18.9825 -4.85731 255 0 0
4.5247 -18.7245 -4.82167 255 0 0
4.52099 -18.5167 -4.79197 255 0 0
4.51769 -18.1296 -4.73681 255 0 0
4.5111 -17.5696 -4.65704 255 0 0
4.51639 -17.4186 -4.63582 255 0 0
4.543 -17.3518 -4.62734 255 0 0
4.57444 -17.1398 -4.59848 255 0 0
4.57739 -16.989 -4.57727 255 0 0
4.55531 -16.7489 -4.54247 255 0 0
4.58209 -16.5373 -4.51362 255 0 0
4.65359 -16.3427 -4.48901 255 0 0
4.68273 -16.2982 -4.48392 255 0 0
4.75996 -16.2758 -4.48392 255 0 0
4.98963 -16.2705 -4.49283 255 0 0
5.22997 -16.1614 -4.48816 255 0 0
5.29191 -16.1564 -4.49028 255 0 0
5.33933 -16.1073 -4.48562 255 0 0
5.46121 -16.0908 -4.48901 255 0 0
5.49185 -16.0559 -4.48562 255 0 0
5.545 -16.0867 -4.4924 255 0 0
5.7206 -16.0988 -4.50259 255 0 0
5.8067 -16.0988 -4.50683 255 0 0
5.98736 -16.119 -4.51871 255 0 0
4.92359 -15.8538 -4.57276 255 0 0
5.59703 -15.403 -4.81954 255 0 0
4.46077 -18.0839 -4.88662 255 0 0
4.47091 -17.4131 -4.78618 255 0 0
4.49335 -17.1622 -4.74941 255 0 0
4.49558 -17.006 -4.7261 255 0 0
4.528 -16.8057 -4.6974 255 0 0
4.54331 -16.5497 -4.65974 255 0 0
4.63372 -16.1276 -4.60055 255 0 0
4.70069 -16.0027 -4.58486 255 0 0
4.76501 -16.0109 -4.5889 255 0 0
4.783 -15.933 -4.57814 255 0 0
4.89961 -15.9097 -4.57993 255 0 0
4.97327 -15.8807 -4.57903 255 0 0
5.02834 -15.9241 -4.588 255 0 0
5.05379 -15.8735 -4.58172 255 0 0
5.09672 -15.878 -4.58441 255 0 0
5.26164 -15.8729 -4.59159 255 0 0
5.34608 -15.8752 -4.59607 255 0 0
5.38371 -15.8625 -4.59607 255 0 0
5.46264 -15.8477 -4.59786 255 0 0
5.62431 -15.8279 -4.60324 255 0 0
5.6836 -15.7575 -4.59607 255 0 0
5.75454 -15.8364 -4.61132 255 0 0
5.78412 -15.801 -4.60773 255 0 0
5.82957 -15.809 -4.61132 255 0 0
5.8892 -15.8548 -4.62118 255 0 0
6.07856 -15.9009 -4.63822 255 0 0
6.23832 -15.8109 -4.92428 255 0 0
6.00634 -15.601 -4.87613 255 0 0
4.52692 -16.1889 -4.74843 255 0 0
5.65417 -15.5602 -4.70686 255 0 0
4.47866 -17.2731 -4.91755 255 0 0
4.49646 -16.6886 -4.8259 255 0 0
4.50113 -16.5497 -4.80417 255 0 0
4.51282 -16.4387 -4.78716 255 0 0
4.57832 -16.0783 -4.73331 255 0 0
4.59887 -16.0063 -4.72292 255 0 0
4.6159 -15.9232 -4.71064 255 0 0
4.63742 -15.8568 -4.70119 255 0 0
4.76917 -15.7513 -4.69079 255 0 0
4.83361 -15.6953 -4.68513 255 0 0
4.89283 -15.6891 -4.68702 255 0 0
4.94164 -15.6495 -4.68324 255 0 0
4.96997 -15.6102 -4.67851 255 0 0
4.9999 -15.5764 -4.67473 255 0 0
5.08626 -15.591 -4.68135 255 0 0
5.1674 -15.5886 -4.68513 255 0 0
5.30029 -15.5561 -4.68702 255 0 0
5.34996 -15.5208 -4.68418 255 0 0
5.39243 -15.5244 -4.68702 255 0 0
5.49097 -15.5695 -4.6993 255 0 0
5.7359 -15.5549 -4.71064 255 0 0
5.78282 -15.5684 -4.71536 255 0 0
5.84426 -15.5639 -4.71819 255 0 0
5.93032 -15.6241 -4.73237 255 0 0
6.081 -15.6839 -4.75032 255 0 0
6.18332 -15.8363 -4.77961 255 0 0
4.47366 -16.4487 -4.93272 255 0 0
4.47457 -16.1492 -4.88308 255 0 0
4.63257 -15.8402 -4.83939 255 0 0
4.70199 -15.6632 -4.81358 255 0 0
4.77958 -15.6517 -4.81557 255 0 0
4.83664 -15.5738 -4.80564 255 0 0
4.87182 -15.5568 -4.80465 255 0 0
4.89653 -15.5067 -4.7977 255 0 0
4.97001 -15.4833 -4.7977 255 0 0
5.03622 -15.4376 -4.79372 255 0 0
5.10755 -15.4081 -4.79273 255 0 0
5.1824 -15.3891 -4.79372 255 0 0
5.2464 -15.3979 -4.79869 255 0 0
5.34516 -15.3883 -4.80266 255 0 0
5.50642 -15.3804 -4.8106 255 0 0
5.67799 -15.3979 -4.82351 255 0 0
5.79249 -15.4261 -4.83493 255 0 0
5.92206 -15.6023 -4.87116 255 0 0
5.92813 -15.5074 -4.85627 255 0 0
6.09705 -15.6153 -4.88407 255 0 0
4.98341 -15.3994 -4.92338 255 0 0
5.00382 -15.3383 -4.91401 255 0 0
5.25135 -15.3528 -4.93067 255 0 0
