ply
format ascii 1.0
comment Created by Open3D
element vertex 987
property double x
property double y
property double z
property uchar red
property uchar green
property uchar blue
end_header
12.3609 -3.01799 -4.18911 255 0 0
12.4994 -2.56919 -4.41445 255 0 0
11.497 -2.64871 -4.33406 255 0 0
9.37359 -2.50172 -5.21479 255 0 0
11.4052 -2.77035 -4.73023 255 0 0
10.9659 -2.85716 -4.63604 255 0 0
9.93128 -3.07138 -4.78543 255 0 0
10.6934 -2.30389 -5.12681 255 0 0
11.7754 -3.39837 -4.21361 255 0 0
9.61123 -2.33458 -5.09595 255 0 0
11.4497 -3.34854 -4.25715 255 0 0
11.9334 -3.32169 -4.88147 255 0 0
11.0369 -3.24201 -4.77684 255 0 0
10.6109 -3.81306 -4.82118 255 0 0
10.9497 -3.8034 -4.6964 255 0 0
11.4665 -3.20638 -4.2528 255 0 0
11.2289 -2.78397 -4.4892 255 0 0
9.6921 -3.5479 -4.85767 255 0 0
11.1119 -3.05051 -4.47934 255 0 0
10.8056 -3.65313 -4.75348 255 0 0
11.4622 -2.2994 -5.13247 255 0 0
9.30914 -2.95169 -5.05688 255 0 0
12.7817 -3.55783 -4.9703 255 0 0
9.77503 -2.70843 -4.80845 255 0 0
11.634 -2.65123 -4.2577 255 0 0
11.2698 -3.45606 -4.84554 255 0 0
9.6666 -2.60449 -5.04258 255 0 0
11.2821 -2.59921 -4.39059 255 0 0
11.0541 -3.30409 -4.78509 255 0 0
11.9931 -2.2878 -5.16296 255 0 0
9.4047 -3.48067 -5.04769 255 0 0
11.3753 -2.90632 -4.3227 255 0 0
10.564 -3.40478 -4.77713 255 0 0
11.01 -2.84081 -4.5456 255 0 0
11.504 -2.30779 -5.03961 255 0 0
9.54969 -3.15303 -4.87469 255 0 0
12.1354 -2.5544 -4.45338 255 0 0
12.0171 -3.52994 -4.69489 255 0 0
10.2181 -2.92271 -4.75327 255 0 0
11.562 -2.70702 -4.24681 255 0 0
11.4739 -2.67205 -4.33065 255 0 0
9.69786 -3.15102 -4.8233 255 0 0
10.3492 -2.33266 -4.93735 255 0 0
11.9799 -3.61178 -4.91065 255 0 0
12.9074 -2.3672 -5.0526 255 0 0
10.197 -3.11388 -4.76208 255 0 0
11.0928 -3.86782 -4.63003 255 0 0
10.9834 -3.88821 -4.71033 255 0 0
9.98552 -3.83082 -4.86575 255 0 0
10.1949 -3.75938 -4.81494 255 0 0
9.5627 -3.61668 -4.92243 255 0 0
9.38871 -2.84272 -4.98129 255 0 0
11.6138 -2.79187 -4.46637 255 0 0
10.3716 -2.51929 -4.76502 255 0 0
11.594 -2.67106 -4.25117 255 0 0
12.3445 -3.06057 -4.18812 255 0 0
9.74821 -2.91376 -4.81705 255 0 0
10.9583 -2.95253 -4.64002 255 0 0
10.84 -2.66029 -4.6944 255 0 0
9.90195 -3.65138 -4.82786 255 0 0
9.91869 -2.38438 -4.91599 255 0 0
9.47928 -2.95624 -4.92781 255 0 0
9.64906 -2.71051 -5.04599 255 0 0
10.4112 -2.37259 -4.8612 255 0 0
10.5036 -2.35437 -5.07692 255 0 0
9.76208 -2.75474 -4.80845 255 0 0
12.4893 -2.62891 -4.30519 255 0 0
9.34147 -2.65999 -5.21848 255 0 0
11.1022 -2.30946 -5.03851 255 0 0
11.1547 -3.59517 -4.72625 255 0 0
9.74634 -2.85039 -4.81158 255 0 0
9.6817 -3.37581 -4.83892 255 0 0
9.96348 -2.96525 -4.78543 255 0 0
10.2176 -2.44342 -4.81498 255 0 0
12.4263 -2.43157 -4.8347 255 0 0
11.7791 -3.3541 -4.21205 255 0 0
11.4114 -2.97326 -4.33293 255 0 0
12.5854 -2.339 -5.09011 255 0 0
10.2446 -2.36017 -4.91079 255 0 0
9.49023 -3.35961 -5.05961 255 0 0
11.9151 -3.59224 -4.78609 255 0 0
10.9334 -2.38273 -4.79987 255 0 0
10.6647 -2.5637 -4.74444 255 0 0
11.3536 -2.50251 -4.50151 255 0 0
11.3599 -2.98862 -4.32384 255 0 0
11.7868 -2.45187 -4.69527 255 0 0
11.2389 -3.68123 -4.54462 255 0 0
11.3464 -2.87029 -4.41664 255 0 0
12.6321 -2.5341 -4.54883 255 0 0
9.4038 -2.55761 -5.05047 255 0 0
11.382 -2.65066 -4.41309 255 0 0
12.2393 -2.51572 -4.58004 255 0 0
9.92161 -3.15883 -4.78998 255 0 0
11.2187 -2.52863 -4.47442 255 0 0
12.0035 -3.43338 -4.79505 255 0 0
11.7784 -3.12859 -4.20112 255 0 0
12.8549 -3.44717 -4.86362 255 0 0
9.36133 -2.70168 -5.22861 255 0 0
11.9565 -2.6057 -4.31539 255 0 0
10.7275 -2.36452 -4.84578 255 0 0
10.961 -2.44325 -4.71089 255 0 0
10.9995 -3.40173 -4.57758 255 0 0
9.29471 -2.70634 -5.11879 255 0 0
11.8115 -3.56101 -4.22818 255 0 0
9.45773 -3.16001 -4.94023 255 0 0
11.2562 -2.62135 -4.48673 255 0 0
10.2293 -3.81343 -4.82816 255 0 0
12.3897 -2.33302 -5.0434 255 0 0
10.5875 -3.05555 -4.75723 255 0 0
9.45239 -2.45086 -5.05659 255 0 0
9.31173 -3.50917 -5.20587 255 0 0
12.3185 -3.20961 -4.19011 255 0 0
11.0268 -2.48538 -4.62941 255 0 0
11.4225 -2.48932 -4.61724 255 0 0
10.9166 -2.40621 -4.79702 255 0 0
9.81007 -2.37055 -4.97583 255 0 0
9.91541 -3.69643 -4.83544 255 0 0
9.68139 -3.7405 -5.06029 255 0 0
9.3665 -2.51173 -5.12418 255 0 0
11.4362 -3.15411 -4.24464 255 0 0
11.3683 -3.35402 -4.34486 255 0 0
11.5032 -2.67888 -4.74748 255 0 0
11.4931 -3.46502 -4.89775 255 0 0
11.4949 -2.30597 -4.93346 255 0 0
9.7348 -2.48717 -4.96259 255 0 0
11.0122 -2.98105 -4.45471 255 0 0
13.6089 -2.46252 -4.97571 255 0 0
11.7218 -3.35282 -4.9431 255 0 0
9.31711 -3.36062 -5.10032 255 0 0
11.4329 -3.35835 -4.46045 255 0 0
11.0494 -3.94106 -4.7289 255 0 0
11.2978 -3.71536 -4.45572 255 0 0
9.73779 -2.31648 -5.22472 255 0 0
9.99898 -2.32857 -5.02717 255 0 0
11.4511 -3.26071 -4.2528 255 0 0
10.7533 -2.88361 -4.68753 255 0 0
11.1704 -3.68812 -4.53107 255 0 0
11.3649 -3.64805 -4.4646 255 0 0
11.4809 -2.61634 -4.32952 255 0 0
11.8273 -2.96212 -4.20216 255 0 0
10.1954 -3.06062 -4.75768 255 0 0
9.54438 -3.54524 -4.91036 255 0 0
12.3013 -2.58932 -4.37853 255 0 0
12.2804 -2.43326 -4.80272 255 0 0
10.759 -3.46762 -4.72875 255 0 0
11.3028 -3.14617 -4.42256 255 0 0
10.3119 -2.59559 -4.75474 255 0 0
10.1876 -3.16388 -4.76355 255 0 0
9.30375 -3.04738 -5.06446 255 0 0
11.6468 -2.45156 -4.66457 255 0 0
11.3347 -3.44661 -4.44625 255 0 0
11.0999 -2.22672 -4.73288 255 0 0
10.9275 -3.66549 -4.68114 255 0 0
12.4643 -2.77835 -4.19705 255 0 0
13.1469 -2.44335 -4.87717 255 0 0
11.1194 -2.56171 -4.55456 255 0 0
9.70917 -2.30967 -5.12393 255 0 0
9.49967 -3.65736 -5.09366 255 0 0
12.5345 -2.70056 -4.20599 255 0 0
9.43526 -2.49424 -5.05484 255 0 0
11.1849 -3.51727 -4.62492 255 0 0
11.3503 -2.55829 -4.40244 255 0 0
11.4115 -2.68607 -4.52245 255 0 0
10.2378 -2.81053 -4.75033 255 0 0
11.154 -2.48628 -4.5584 255 0 0
9.46685 -3.46543 -4.97252 255 0 0
12.5386 -2.42269 -4.85901 255 0 0
11.348 -3.36264 -4.44388 255 0 0
9.6209 -2.65345 -4.94271 255 0 0
11.7034 -3.77202 -4.75283 255 0 0
9.29692 -3.45332 -5.1951 255 0 0
12.1605 -2.34964 -4.98981 255 0 0
11.4079 -3.61714 -4.47111 255 0 0
11.0788 -4.01089 -4.74084 255 0 0
9.72012 -3.00607 -4.81705 255 0 0
9.62279 -2.71544 -4.85806 255 0 0
12.856 -2.54731 -4.47977 255 0 0
11.1334 -2.78833 -4.46949 255 0 0
9.26474 -3.14444 -5.15201 255 0 0
11.4503 -2.86769 -4.3352 255 0 0
11.6095 -2.30033 -5.06604 255 0 0
9.36162 -2.54615 -5.21479 255 0 0
10.842 -2.30902 -5.16865 255 0 0
11.365 -2.61831 -4.71298 255 0 0
11.4291 -2.54759 -4.41783 255 0 0
11.4313 -2.77668 -4.32724 255 0 0
9.49858 -3.6053 -5.0877 255 0 0
9.47262 -2.84363 -4.91622 255 0 0
10.9286 -3.9565 -4.8057 255 0 0
11.2983 -3.80478 -4.46164 255 0 0
11.5245 -3.68421 -4.28927 255 0 0
11.0695 -3.8303 -4.62236 255 0 0
10.0306 -2.66433 -4.78088 255 0 0
11.4435 -3.62843 -4.37497 255 0 0
11.2882 -2.9126 -4.40717 255 0 0
12.5107 -2.74201 -4.20351 255 0 0
11.158 -3.50882 -4.82356 255 0 0
10.5391 -2.40172 -4.80026 255 0 0
12.2697 -3.2591 -4.18415 255 0 0
12.9723 -2.4746 -4.72686 255 0 0
10.1731 -2.47106 -4.80513 255 0 0
11.4302 -3.74388 -4.69271 255 0 0
12.2223 -3.55875 -4.19011 255 0 0
9.93876 -2.3394 -5.01061 255 0 0
9.61297 -2.33501 -5.18702 255 0 0
11.5833 -2.75551 -4.56187 255 0 0
9.57684 -2.73929 -5.02726 255 0 0
11.1076 -2.78186 -4.56351 255 0 0
11.0157 -2.95398 -4.55328 255 0 0
9.33427 -2.74188 -5.04522 255 0 0
11.7134 -3.75992 -4.22194 255 0 0
9.68642 -3.48084 -4.84986 255 0 0
12.4655 -2.90298 -4.20202 255 0 0
11.0496 -4.08945 -4.84417 255 0 0
10.8016 -2.8007 -4.69372 255 0 0
11.3237 -2.29956 -5.0961 255 0 0
9.44961 -2.77576 -4.99321 255 0 0
9.68507 -3.26152 -4.82955 255 0 0
11.8625 -2.32125 -5.02442 255 0 0
11.4685 -3.48729 -4.89363 255 0 0
11.275 -2.51324 -4.4855 255 0 0
12.289 -2.34426 -5.02004 255 0 0
11.2575 -3.83569 -4.45572 255 0 0
11.265 -2.59526 -4.79058 255 0 0
10.5806 -2.89115 -4.74444 255 0 0
11.1619 -2.96485 -4.38467 255 0 0
10.6221 -2.39417 -4.82082 255 0 0
10.2681 -2.67535 -4.74887 255 0 0
9.27587 -2.85664 -5.12687 255 0 0
9.31102 -3.45855 -5.10907 255 0 0
11.9328 -3.81474 -5.02416 255 0 0
12.1621 -2.46981 -4.67025 255 0 0
9.64324 -2.68423 -4.86128 255 0 0
9.47015 -3.4158 -5.05961 255 0 0
9.45788 -3.06066 -4.93112 255 0 0
12.0891 -2.42517 -4.8682 255 0 0
9.64933 -2.31962 -5.10644 255 0 0
9.71704 -3.67506 -4.87642 255 0 0
11.5527 -2.5464 -4.44269 255 0 0
9.99224 -3.8606 -4.8703 255 0 0
12.2792 -3.49651 -4.19656 255 0 0
10.7383 -2.47392 -4.75723 255 0 0
11.4686 -3.75646 -4.38747 255 0 0
10.6339 -3.84981 -4.82971 255 0 0
9.46194 -3.11162 -4.93692 255 0 0
9.6277 -2.5329 -5.02556 255 0 0
9.26816 -3.1947 -5.15829 255 0 0
10.9348 -2.65608 -4.71639 255 0 0
10.0681 -2.6105 -4.78695 255 0 0
11.8363 -2.5795 -4.39656 255 0 0
9.57373 -2.9608 -4.86449 255 0 0
12.103 -2.69781 -4.23963 255 0 0
11.7965 -3.51077 -4.22298 255 0 0
9.65381 -2.45427 -5.02726 255 0 0
10.2289 -2.40771 -4.81574 255 0 0
9.94316 -2.29073 -5.1939 255 0 0
9.81433 -2.40857 -4.88863 255 0 0
9.66533 -2.40851 -5.02726 255 0 0
9.30672 -3.10956 -5.07146 255 0 0
11.34 -2.41507 -4.69706 255 0 0
9.92209 -2.44749 -4.82955 255 0 0
11.7647 -2.41817 -4.79391 255 0 0
10.9557 -2.33323 -4.80271 255 0 0
9.68382 -3.1211 -4.81705 255 0 0
10.2836 -2.70546 -4.75474 255 0 0
10.2441 -2.85148 -4.75474 255 0 0
9.68839 -3.59873 -4.86158 255 0 0
12.047 -2.59552 -4.33172 255 0 0
11.1302 -4.11928 -4.76074 255 0 0
9.39954 -3.73444 -5.16591 255 0 0
10.991 -3.74486 -4.70104 255 0 0
12.7595 -3.32449 -5.0672 255 0 0
11.487 -2.96387 -4.24464 255 0 0
10.802 -2.85555 -4.69715 255 0 0
9.40569 -2.45065 -5.13136 255 0 0
9.31949 -2.9064 -5.05572 255 0 0
11.2988 -3.20286 -4.42493 255 0 0
11.5632 -2.72176 -4.65945 255 0 0
10.6326 -2.71656 -4.74586 255 0 0
10.167 -3.65356 -4.79879 255 0 0
10.9872 -3.86027 -4.709 255 0 0
12.5542 -2.33319 -5.19497 255 0 0
10.5375 -3.2042 -4.75581 255 0 0
9.54235 -2.70496 -4.9245 255 0 0
11.989 -3.46001 -4.90269 255 0 0
11.0001 -2.81046 -4.54177 255 0 0
12.375 -2.57421 -4.39159 255 0 0
12.7644 -3.2451 -4.94855 255 0 0
11.5947 -2.49808 -4.55201 255 0 0
11.9359 -3.70684 -4.90734 255 0 0
11.5199 -3.77325 -4.29362 255 0 0
11.0279 -2.43073 -4.72601 255 0 0
11.9567 -3.45069 -4.67764 255 0 0
11.4533 -3.30541 -4.25552 255 0 0
12.376 -2.63571 -4.28542 255 0 0
12.9385 -2.43638 -4.83283 255 0 0
9.6468 -3.85918 -5.0636 255 0 0
11.1334 -2.28841 -4.84392 255 0 0
9.9127 -3.25985 -4.79604 255 0 0
9.5449 -3.5841 -4.91438 255 0 0
12.3484 -3.09263 -4.19011 255 0 0
12.7226 -2.52088 -4.56588 255 0 0
9.47523 -2.79549 -4.91291 255 0 0
9.73691 -2.46313 -4.87093 255 0 0
9.61199 -2.50441 -5.01875 255 0 0
10.0834 -2.34824 -4.95944 255 0 0
9.40623 -3.76294 -5.17116 255 0 0
9.45682 -3.86144 -5.1974 255 0 0
9.75813 -2.29689 -5.13793 255 0 0
9.55206 -3.10365 -4.87093 255 0 0
9.71806 -3.10672 -4.82486 255 0 0
9.48626 -3.18205 -5.04088 255 0 0
11.504 -3.55775 -4.27838 255 0 0
9.74649 -3.91247 -5.00209 255 0 0
13.0852 -2.464 -4.74936 255 0 0
9.73428 -2.95995 -4.81705 255 0 0
10.945 -2.82403 -4.62941 255 0 0
11.4611 -3.72393 -4.38406 255 0 0
10.6164 -2.31365 -5.10589 255 0 0
12.1956 -2.41646 -4.89208 255 0 0
12.2982 -3.40754 -4.19557 255 0 0
10.9458 -2.76895 -4.5277 255 0 0
10.7819 -3.61664 -4.74524 255 0 0
9.64499 -2.6355 -4.85806 255 0 0
11.9768 -2.75925 -4.21985 255 0 0
9.94189 -3.74663 -4.84681 255 0 0
9.90799 -3.44155 -4.81044 255 0 0
9.73726 -2.43867 -4.86932 255 0 0
12.0394 -2.56402 -4.4352 255 0 0
11.5345 -2.4851 -4.64154 255 0 0
12.1487 -2.67778 -4.24691 255 0 0
9.46856 -3.42792 -4.96921 255 0 0
11.2 -2.27444 -4.85956 255 0 0
10.2152 -2.32792 -4.99485 255 0 0
11.0212 -2.34719 -4.9192 255 0 0
9.4442 -2.95757 -5.00768 255 0 0
10.5796 -3.91549 -4.82261 255 0 0
10.5641 -3.6554 -4.79702 255 0 0
10.2542 -3.89209 -4.84138 255 0 0
11.0849 -3.37064 -4.49289 255 0 0
9.5024 -2.35591 -5.06446 255 0 0
11.3546 -3.68933 -4.46519 255 0 0
9.59128 -2.85447 -4.86047 255 0 0
11.0457 -2.29771 -5.22497 255 0 0
11.7396 -3.53932 -4.63823 255 0 0
9.27552 -2.90477 -5.13136 255 0 0
9.81336 -2.60663 -4.81132 255 0 0
9.45009 -3.09531 -5.02215 255 0 0
10.7777 -3.78664 -4.75761 255 0 0
11.458 -3.54355 -4.3727 255 0 0
12.4883 -2.4437 -4.73799 255 0 0
10.6676 -2.29833 -5.21761 255 0 0
11.4822 -3.49144 -4.27076 255 0 0
12.2543 -3.69449 -4.20202 255 0 0
9.48858 -2.89754 -4.92533 255 0 0
9.56117 -3.59021 -5.10388 255 0 0
9.68489 -2.35248 -5.02896 255 0 0
13.0106 -2.38613 -4.96134 255 0 0
11.3707 -2.30911 -5.00584 255 0 0
10.732 -2.52612 -4.75865 255 0 0
10.2897 -2.39628 -4.8309 255 0 0
10.1283 -2.51111 -4.79604 255 0 0
9.66183 -2.32263 -5.20138 255 0 0
11.08 -4.04105 -4.7435 255 0 0
12.2251 -3.52816 -4.18911 255 0 0
11.5107 -2.8104 -4.24191 255 0 0
11.0933 -3.40194 -4.49659 255 0 0
11.0162 -2.99614 -4.55584 255 0 0
10.643 -2.65213 -4.74444 255 0 0
10.5905 -3.52455 -4.79276 255 0 0
9.6555 -3.94256 -5.07519 255 0 0
10.1606 -3.44851 -4.7797 255 0 0
9.60484 -3.75026 -4.94737 255 0 0
11.5701 -2.81041 -4.56187 255 0 0
11.4405 -3.39007 -4.2577 255 0 0
9.38215 -3.1224 -5.00513 255 0 0
9.36679 -3.69573 -5.15192 255 0 0
11.0498 -3.67739 -4.709 255 0 0
10.4834 -2.44138 -4.78851 255 0 0
9.41824 -2.52561 -5.05222 255 0 0
11.4124 -2.82948 -4.32611 255 0 0
12.3555 -2.53962 -4.49542 255 0 0
11.772 -2.53628 -4.4865 255 0 0
9.6963 -3.34228 -4.8397 255 0 0
11.4459 -3.30329 -4.35679 255 0 0
9.72506 -2.93198 -4.81236 255 0 0
12.7182 -3.57267 -4.95751 255 0 0
12.1625 -2.43989 -4.77714 255 0 0
9.52871 -3.29715 -4.8822 255 0 0
12.2519 -3.66212 -4.20003 255 0 0
12.2012 -3.59975 -4.18862 255 0 0
12.2777 -3.44892 -4.19408 255 0 0
12.2796 -3.35542 -4.19011 255 0 0
12.2748 -3.30722 -4.18713 255 0 0
12.2997 -3.23587 -4.18812 255 0 0
12.3187 -3.1629 -4.18812 255 0 0
12.3187 -3.11624 -4.18613 255 0 0
12.3604 -2.97134 -4.18713 255 0 0
12.4067 -2.95137 -4.19408 255 0 0
12.4193 -2.92327 -4.19507 255 0 0
12.4532 -2.85348 -4.19805 255 0 0
12.5027 -2.81804 -4.205 255 0 0
9.53973 -3.21257 -4.87737 255 0 0
9.26633 -3.09607 -5.14752 255 0 0
11.257 -3.19101 -4.51753 255 0 0
12.8582 -3.25272 -4.85377 255 0 0
11.4675 -3.06058 -4.24572 255 0 0
11.0602 -2.79788 -4.45471 255 0 0
11.8036 -3.74261 -4.23651 255 0 0
11.8416 -3.70835 -4.24119 255 0 0
11.8453 -3.64793 -4.23859 255 0 0
11.8306 -3.59739 -4.23338 255 0 0
11.7923 -3.46392 -4.21985 255 0 0
11.7784 -3.4295 -4.21569 255 0 0
11.7771 -3.30829 -4.20945 255 0 0
11.7749 -3.26254 -4.20685 255 0 0
11.7763 -3.20289 -4.20424 255 0 0
11.7709 -3.15651 -4.20112 255 0 0
11.7858 -3.10065 -4.20112 255 0 0
11.7967 -3.05872 -4.20112 255 0 0
11.8167 -3.00415 -4.20216 255 0 0
11.8455 -2.93684 -4.20424 255 0 0
11.8558 -2.89469 -4.20424 255 0 0
11.8946 -2.84447 -4.20893 255 0 0
11.9243 -2.80677 -4.21257 255 0 0
11.9534 -2.78372 -4.21673 255 0 0
12.0114 -2.73725 -4.22506 255 0 0
12.0347 -2.71256 -4.22818 255 0 0
12.2001 -2.65879 -4.25524 255 0 0
12.2627 -2.64199 -4.26565 255 0 0
12.5914 -2.61924 -4.32289 255 0 0
12.7218 -2.6149 -4.34578 255 0 0
9.53086 -3.47606 -4.8999 255 0 0
9.53156 -3.37424 -4.89024 255 0 0
9.79106 -3.88999 -4.91704 255 0 0
10.3461 -2.55209 -4.76061 255 0 0
13.1849 -2.38579 -4.99972 255 0 0
9.62643 -2.7288 -5.04088 255 0 0
10.0123 -2.33168 -5.12431 255 0 0
11.4597 -3.78364 -4.38747 255 0 0
9.56759 -2.8845 -4.85645 255 0 0
11.7262 -3.71808 -4.64685 255 0 0
9.5861 -2.93974 -4.8661 255 0 0
9.33152 -2.59746 -5.12059 255 0 0
9.67982 -2.57116 -4.86289 255 0 0
9.49251 -3.41116 -4.97418 255 0 0
10.8508 -2.3109 -5.07172 255 0 0
11.5616 -3.7566 -4.30015 255 0 0
11.5595 -3.72564 -4.29798 255 0 0
11.5058 -3.64818 -4.28382 255 0 0
11.4912 -3.59864 -4.27838 255 0 0
11.4849 -3.52203 -4.27294 255 0 0
11.4752 -3.44479 -4.26695 255 0 0
11.4584 -3.11642 -4.24681 255 0 0
11.4652 -3.00179 -4.24246 255 0 0
11.4661 -2.92951 -4.23919 255 0 0
11.473 -2.90232 -4.23919 255 0 0
11.4944 -2.86427 -4.24137 255 0 0
11.5407 -2.75981 -4.24518 255 0 0
11.6402 -2.62364 -4.2577 255 0 0
11.7419 -2.61731 -4.2762 255 0 0
11.8323 -2.60804 -4.29253 255 0 0
12.1094 -2.57894 -4.34261 255 0 0
12.7058 -2.56453 -4.45255 255 0 0
11.0788 -2.88658 -4.46333 255 0 0
10.531 -2.32121 -4.98579 255 0 0
10.2144 -2.32774 -5.1839 255 0 0
11.4198 -3.83064 -4.38293 255 0 0
9.31773 -3.07644 -5.07146 255 0 0
9.4403 -2.40001 -5.22769 255 0 0
11.1117 -2.51834 -4.55072 255 0 0
11.1119 -2.83901 -4.66788 255 0 0
9.49978 -2.75382 -5.00598 255 0 0
9.66517 -2.60411 -4.86128 255 0 0
11.2542 -2.31324 -4.97647 255 0 0
10.9201 -3.34883 -4.55712 255 0 0
11.4234 -3.80174 -4.38179 255 0 0
11.4262 -3.68265 -4.37497 255 0 0
11.4513 -3.6608 -4.37838 255 0 0
11.3918 -3.58233 -4.36247 255 0 0
11.4277 -3.56386 -4.36815 255 0 0
11.395 -3.49448 -4.35793 255 0 0
11.4019 -3.45228 -4.35679 255 0 0
11.37 -3.39853 -4.3477 255 0 0
11.416 -3.32399 -4.35224 255 0 0
11.3377 -3.24297 -4.33293 255 0 0
11.4228 -3.23801 -4.34883 255 0 0
11.447 -3.21557 -4.35224 255 0 0
11.4048 -3.17456 -4.34202 255 0 0
11.3791 -3.13835 -4.3352 255 0 0
11.4419 -3.1265 -4.34656 255 0 0
11.4271 -3.09336 -4.34202 255 0 0
11.3789 -3.05138 -4.33065 255 0 0
11.425 -3.03471 -4.33861 255 0 0
11.3684 -2.93328 -4.3227 255 0 0
11.3989 -2.88356 -4.32611 255 0 0
11.4247 -2.80378 -4.32724 255 0 0
11.4714 -2.75763 -4.33406 255 0 0
11.4891 -2.73308 -4.33634 255 0 0
11.5123 -2.70978 -4.33974 255 0 0
11.5431 -2.60174 -4.34088 255 0 0
11.6557 -2.59811 -4.36247 255 0 0
11.7235 -2.58407 -4.37497 255 0 0
11.921 -2.56837 -4.41247 255 0 0
12.237 -2.54551 -4.4727 255 0 0
12.4741 -2.53318 -4.51815 255 0 0
12.892 -2.5227 -4.59883 255 0 0
12.9995 -2.51174 -4.61929 255 0 0
12.7512 -3.38699 -4.95367 255 0 0
9.5214 -3.86149 -5.12261 255 0 0
9.91063 -3.56141 -4.8218 255 0 0
10.1397 -2.48843 -4.79756 255 0 0
9.79949 -2.33116 -5.06131 255 0 0
10.345 -2.3833 -4.84453 255 0 0
10.5342 -3.36762 -4.76718 255 0 0
9.26876 -2.99947 -5.13854 255 0 0
11.3274 -2.58137 -4.39888 255 0 0
11.1355 -2.87317 -4.47442 255 0 0
12.8316 -2.32186 -5.14782 255 0 0
9.31997 -2.61807 -5.11879 255 0 0
10.9977 -2.89331 -4.64532 255 0 0
11.3281 -3.77 -4.46519 255 0 0
11.3562 -3.57116 -4.45809 255 0 0
11.3318 -3.53398 -4.45098 255 0 0
11.3416 -3.4928 -4.45039 255 0 0
11.3277 -3.40051 -4.4421 255 0 0
12.1071 -3.52521 -4.60372 255 0 0
12.0272 -3.47106 -4.58478 255 0 0
11.418 -3.26591 -4.45217 255 0 0
11.345 -3.18691 -4.43322 255 0 0
11.2936 -3.11478 -4.41901 255 0 0
11.2401 -3.07137 -4.40599 255 0 0
11.2252 -3.03872 -4.40125 255 0 0
11.3432 -3.0418 -4.42493 255 0 0
11.2909 -2.97047 -4.41072 255 0 0
11.3368 -2.95381 -4.41901 255 0 0
11.2229 -2.86737 -4.39178 255 0 0
11.292 -2.82805 -4.40362 255 0 0
11.2263 -2.78333 -4.38823 255 0 0
11.283 -2.76901 -4.39888 255 0 0
11.5347 -2.8018 -4.45098 255 0 0
11.5646 -2.75105 -4.45453 255 0 0
11.426 -2.68946 -4.42375 255 0 0
11.6259 -2.53365 -4.4569 255 0 0
11.8453 -2.52269 -4.50071 255 0 0
11.9298 -2.51113 -4.51729 255 0 0
12.0256 -2.50153 -4.53623 255 0 0
12.2958 -2.49697 -4.5907 255 0 0
12.3691 -2.48134 -4.60491 255 0 0
12.5719 -2.49102 -4.64635 255 0 0
12.6565 -2.47662 -4.66293 255 0 0
12.7693 -2.46727 -4.68542 255 0 0
9.67814 -3.5038 -4.84986 255 0 0
12.2516 -2.39739 -4.90402 255 0 0
9.28465 -2.7992 -5.12418 255 0 0
10.9845 -4.03575 -4.82493 255 0 0
12.3805 -2.39214 -4.93321 255 0 0
9.41405 -2.99724 -5.00257 255 0 0
12.6061 -2.40474 -4.87308 255 0 0
11.1619 -3.84745 -4.54031 255 0 0
11.1891 -3.81236 -4.54339 255 0 0
11.1564 -3.75701 -4.53292 255 0 0
11.1942 -3.72544 -4.53846 255 0 0
11.498 -3.73594 -4.60128 255 0 0
11.7847 -3.79822 -4.66409 255 0 0
11.6465 -3.72321 -4.63084 255 0 0
11.0797 -3.4842 -4.49905 255 0 0
11.1481 -3.47666 -4.5126 255 0 0
11.0961 -3.43162 -4.49905 255 0 0
11.885 -3.55246 -4.66902 255 0 0
11.877 -3.51939 -4.66533 255 0 0
11.976 -3.48703 -4.6838 255 0 0
11.7557 -3.36251 -4.63084 255 0 0
11.2535 -3.16121 -4.51506 255 0 0
11.2389 -3.12838 -4.51014 255 0 0
11.1085 -2.96472 -4.4738 255 0 0
11.1715 -2.93905 -4.4855 255 0 0
11.0812 -2.83118 -4.46087 255 0 0
11.6246 -2.85284 -4.57541 255 0 0
11.6102 -2.79099 -4.56926 255 0 0
11.1843 -2.57666 -4.46949 255 0 0
11.1792 -2.54759 -4.46703 255 0 0
9.64645 -3.80608 -4.96427 255 0 0
11.5049 -2.50728 -4.53354 255 0 0
11.6566 -2.4825 -4.56433 255 0 0
11.8305 -2.49023 -4.60128 255 0 0
11.9036 -2.47616 -4.61606 255 0 0
11.9543 -2.45715 -4.62591 255 0 0
12.2577 -2.45898 -4.68996 255 0 0
12.3758 -2.45217 -4.71459 255 0 0
12.6346 -2.44124 -4.76879 255 0 0
12.7303 -2.42843 -4.78849 255 0 0
13.4229 -2.46173 -4.93629 255 0 0
11.3809 -2.2831 -5.2139 255 0 0
10.1922 -3.71727 -4.81054 255 0 0
9.66899 -2.60514 -4.95265 255 0 0
11.2347 -2.84203 -4.69574 255 0 0
10.0395 -2.36311 -4.94818 255 0 0
10.0478 -2.64342 -4.78392 255 0 0
11.1276 -2.45271 -4.65063 255 0 0
9.40837 -3.35576 -5.03577 255 0 0
10.1683 -3.50498 -4.78631 255 0 0
9.55766 -3.65369 -4.92484 255 0 0
11.0193 -3.18017 -4.7686 255 0 0
11.1105 -3.90358 -4.63643 255 0 0
11.0912 -3.79368 -4.62428 255 0 0
11.1019 -3.7533 -4.62364 255 0 0
11.1433 -3.73787 -4.63131 255 0 0
11.0426 -3.66045 -4.60445 255 0 0
11.7488 -3.81741 -4.76563 255 0 0
11.8593 -3.79124 -4.78737 255 0 0
11.7539 -3.72684 -4.76051 255 0 0
11.0077 -3.4329 -4.58142 255 0 0
11.0264 -3.35286 -4.58014 255 0 0
11.9032 -3.5425 -4.78034 255 0 0
11.9239 -3.50257 -4.78226 255 0 0
11.9816 -3.48867 -4.79377 255 0 0
11.9239 -3.44123 -4.77842 255 0 0
11.8851 -3.36907 -4.76563 255 0 0
11.0239 -3.09673 -4.56351 255 0 0
11.0073 -3.04989 -4.55712 255 0 0
11.0006 -2.92199 -4.54816 255 0 0
11.0468 -2.89225 -4.55648 255 0 0
12.6171 -3.12815 -4.91018 255 0 0
11.7033 -2.87215 -4.69783 255 0 0
11.5435 -2.80394 -4.65945 255 0 0
11.5334 -2.77255 -4.65562 255 0 0
11.5956 -2.75842 -4.66841 255 0 0
11.3971 -2.65416 -4.6198 255 0 0
11.2324 -2.47581 -4.57503 255 0 0
11.5907 -2.46846 -4.65306 255 0 0
11.8878 -2.44347 -4.71702 255 0 0
11.9831 -2.43347 -4.73748 255 0 0
12.7465 -2.40022 -4.90378 255 0 0
12.8645 -2.39087 -4.92936 255 0 0
13.4493 -2.40071 -5.05856 255 0 0
13.6575 -2.40448 -5.10461 255 0 0
10.1789 -3.60342 -4.79732 255 0 0
12.8236 -3.4388 -5.08842 255 0 0
10.4665 -2.35909 -4.87484 255 0 0
9.51494 -3.83263 -5.1175 255 0 0
9.54836 -3.26598 -4.88461 255 0 0
10.3402 -2.33062 -5.22136 255 0 0
10.9916 -2.31364 -5.00972 255 0 0
11.3903 -2.39758 -4.70768 255 0 0
11.2594 -4.19746 -4.79524 255 0 0
11.0918 -4.07518 -4.7488 255 0 0
11.0937 -3.98654 -4.74217 255 0 0
10.9551 -3.76164 -4.69441 255 0 0
10.9998 -3.71879 -4.70104 255 0 0
11.6758 -3.85502 -4.86024 255 0 0
11.7229 -3.83975 -4.86953 255 0 0
11.6018 -3.76965 -4.83769 255 0 0
11.4674 -3.66596 -4.80054 255 0 0
11.8947 -3.77149 -4.90269 255 0 0
12.2409 -3.84935 -4.98495 255 0 0
11.9408 -3.66186 -4.90535 255 0 0
12.004 -3.65013 -4.91861 255 0 0
11.9065 -3.55886 -4.89075 255 0 0
11.9531 -3.54196 -4.90004 255 0 0
12.0094 -3.51223 -4.91065 255 0 0
11.9149 -3.40805 -4.88279 255 0 0
11.9339 -3.3829 -4.88545 255 0 0
12.0517 -3.38545 -4.91198 255 0 0
12.1336 -3.34645 -4.9279 255 0 0
10.8652 -2.96892 -4.62012 255 0 0
10.9412 -2.9062 -4.63338 255 0 0
11.1363 -2.78906 -4.67053 255 0 0
11.1263 -2.75853 -4.66655 255 0 0
11.3377 -2.78243 -4.71564 255 0 0
11.6114 -2.79129 -4.77799 255 0 0
11.5514 -2.74791 -4.76207 255 0 0
11.569 -2.72313 -4.76472 255 0 0
11.0487 -2.51786 -4.63604 255 0 0
11.0494 -2.46295 -4.63338 255 0 0
11.3228 -2.46761 -4.69574 255 0 0
11.4239 -2.37637 -4.71431 255 0 0
11.8933 -2.41524 -4.82309 255 0 0
12.5093 -2.38629 -4.96239 255 0 0
12.599 -2.37245 -4.98229 255 0 0
12.7336 -2.36654 -5.0128 255 0 0
13.0533 -2.36198 -5.08577 255 0 0
13.261 -2.3671 -5.13353 255 0 0
13.5249 -2.38114 -5.19455 255 0 0
10.9512 -3.9941 -4.81394 255 0 0
10.5229 -2.31943 -5.08014 255 0 0
10.8522 -3.89977 -4.78371 255 0 0
10.8419 -3.85258 -4.77753 255 0 0
10.7759 -3.75732 -4.75486 255 0 0
10.8331 -3.74851 -4.76723 255 0 0
10.806 -3.69615 -4.75692 255 0 0
10.839 -3.60725 -4.75761 255 0 0
10.7719 -3.55655 -4.73837 255 0 0
11.0183 -3.60896 -4.79883 255 0 0
10.9239 -3.5494 -4.77272 255 0 0
11.4969 -3.64537 -4.91149 255 0 0
11.6173 -3.623 -4.9376 255 0 0
11.4627 -3.545 -4.89638 255 0 0
11.2693 -3.33932 -4.8373 255 0 0
10.8642 -3.16332 -4.7315 255 0 0
11.6914 -3.31416 -4.93348 255 0 0
11.5896 -3.25564 -4.906 255 0 0
10.879 -3.0282 -4.72601 255 0 0
10.8148 -2.98273 -4.70814 255 0 0
10.7889 -2.94808 -4.6999 255 0 0
10.8179 -2.92844 -4.7054 255 0 0
10.8915 -2.7827 -4.71364 255 0 0
10.8429 -2.74291 -4.6999 255 0 0
10.8636 -2.7071 -4.70265 255 0 0
10.8584 -2.59663 -4.69509 255 0 0
10.9977 -2.58867 -4.72738 255 0 0
11.4418 -2.66457 -4.83592 255 0 0
10.9104 -2.48634 -4.70127 255 0 0
10.9052 -2.45797 -4.69853 255 0 0
11.067 -2.41185 -4.73425 255 0 0
11.0003 -2.35637 -4.7157 255 0 0
11.017 -2.30535 -4.71707 255 0 0
11.0335 -2.26787 -4.71914 255 0 0
11.0444 -2.24284 -4.72051 255 0 0
11.9426 -2.36634 -4.93897 255 0 0
12.0599 -2.35988 -4.96645 255 0 0
12.6973 -2.32866 -5.11622 255 0 0
13.0668 -2.33244 -5.20416 255 0 0
9.90518 -3.30951 -4.79831 255 0 0
9.89774 -3.5303 -4.81574 255 0 0
9.5511 -3.44501 -4.90231 255 0 0
10.1836 -3.41596 -4.78264 255 0 0
12.76 -3.30847 -4.95111 255 0 0
9.3102 -3.50858 -5.11431 255 0 0
9.71885 -3.7021 -4.87954 255 0 0
12.1488 -2.28768 -5.2026 255 0 0
10.5995 -3.89431 -4.82545 255 0 0
10.6567 -3.88669 -4.83824 255 0 0
10.5735 -3.75723 -4.80768 255 0 0
10.552 -3.70736 -4.79844 255 0 0
10.5867 -3.60712 -4.79844 255 0 0
10.551 -3.55313 -4.78565 255 0 0
10.5557 -3.48518 -4.78139 255 0 0
10.5653 -3.44674 -4.78068 255 0 0
10.5205 -3.33577 -4.76149 255 0 0
10.5392 -3.31422 -4.76433 255 0 0
10.5091 -3.27739 -4.75439 255 0 0
10.5548 -3.26421 -4.76433 255 0 0
10.5245 -3.22751 -4.75439 255 0 0
10.5832 -3.19069 -4.76576 255 0 0
10.5853 -3.16396 -4.76433 255 0 0
10.5638 -3.11665 -4.75581 255 0 0
10.5475 -3.07112 -4.7487 255 0 0
10.6019 -3.0053 -4.75723 255 0 0
10.5887 -2.94739 -4.75012 255 0 0
10.6011 -2.92378 -4.75154 255 0 0
10.5963 -2.85499 -4.74586 255 0 0
10.5658 -2.79308 -4.73449 255 0 0
10.5976 -2.76122 -4.74017 255 0 0
10.5822 -2.73041 -4.73449 255 0 0
10.606 -2.68299 -4.73733 255 0 0
10.6582 -2.60231 -4.74515 255 0 0
10.6984 -2.54498 -4.75154 255 0 0
10.738 -2.50067 -4.75865 255 0 0
10.7886 -2.44513 -4.76789 255 0 0
10.8554 -2.41972 -4.78281 255 0 0
10.9279 -2.35441 -4.79702 255 0 0
11.0168 -2.31895 -4.81692 255 0 0
11.0612 -2.30092 -4.82687 255 0 0
11.7233 -2.32287 -4.99031 255 0 0
11.9628 -2.31144 -5.04859 255 0 0
12.1412 -2.31606 -5.09264 255 0 0
12.2583 -2.30829 -5.12107 255 0 0
12.677 -2.32493 -5.22482 255 0 0
9.59924 -2.65973 -5.02726 255 0 0
9.31419 -3.40956 -5.10469 255 0 0
10.252 -3.84963 -4.83697 255 0 0
10.1875 -3.57927 -4.79732 255 0 0
10.1745 -3.54764 -4.79145 255 0 0
10.154 -3.37928 -4.77236 255 0 0
10.1606 -3.34137 -4.77089 255 0 0
10.1562 -3.29996 -4.76649 255 0 0
10.1802 -3.28109 -4.77089 255 0 0
10.1556 -3.24659 -4.76208 255 0 0
10.1779 -3.21386 -4.76502 255 0 0
10.1935 -3.00742 -4.75327 255 0 0
10.215 -2.9743 -4.75621 255 0 0
10.2438 -2.95636 -4.76208 255 0 0
10.2359 -2.90157 -4.75621 255 0 0
10.2209 -2.87116 -4.75033 255 0 0
10.2743 -2.75517 -4.75572 255 0 0
10.2885 -2.64164 -4.7518 255 0 0
10.4051 -2.50132 -4.77236 255 0 0
10.389 -2.47139 -4.76649 255 0 0
10.4279 -2.45454 -4.7753 255 0 0
10.5278 -2.42543 -4.79879 255 0 0
10.6997 -2.38501 -4.83991 255 0 0
10.8161 -2.35718 -4.86781 255 0 0
10.8549 -2.33869 -4.87662 255 0 0
11.0323 -2.32222 -4.92067 255 0 0
11.1488 -2.31914 -4.95004 255 0 0
11.7262 -2.29457 -5.09541 255 0 0
11.8373 -2.28719 -5.12331 255 0 0
9.85224 -2.51718 -4.81548 255 0 0
9.37233 -2.60882 -5.04522 255 0 0
9.53296 -3.89253 -5.12942 255 0 0
9.97382 -3.90794 -4.8703 255 0 0
9.98833 -3.88633 -4.87181 255 0 0
9.96815 -3.79707 -4.85817 255 0 0
9.90587 -3.59953 -4.82408 255 0 0
9.90489 -3.4932 -4.81423 255 0 0
9.90145 -3.39986 -4.80513 255 0 0
9.90008 -3.3601 -4.80134 255 0 0
9.9119 -3.20759 -4.79149 255 0 0
9.922 -3.12014 -4.78695 255 0 0
9.94017 -3.09997 -4.78998 255 0 0
9.94935 -3.05114 -4.78846 255 0 0
9.94931 -3.01246 -4.78543 255 0 0
9.97363 -2.90401 -4.78341 255 0 0
9.97824 -2.8541 -4.78088 255 0 0
9.97954 -2.8289 -4.77937 255 0 0
10.0004 -2.79644 -4.7824 255 0 0
10.0054 -2.74675 -4.78013 255 0 0
10.0101 -2.69704 -4.77785 255 0 0
10.098 -2.55445 -4.79099 255 0 0
10.5273 -2.34657 -4.89 255 0 0
10.6267 -2.3423 -4.91576 255 0 0
10.6985 -2.33155 -4.93395 255 0 0
10.7759 -2.32166 -4.95365 255 0 0
10.9086 -2.3232 -4.9885 255 0 0
11.1797 -2.29793 -5.05822 255 0 0
11.5841 -2.2953 -5.1643 255 0 0
11.7116 -2.29172 -5.19764 255 0 0
11.8559 -2.29077 -5.23553 255 0 0
9.60741 -2.80975 -4.86128 255 0 0
9.64433 -2.50065 -4.93775 255 0 0
9.81076 -3.87091 -4.92017 255 0 0
9.75612 -3.80931 -4.89985 255 0 0
9.72668 -3.74476 -4.88579 255 0 0
9.69403 -3.6401 -4.86704 255 0 0
9.6787 -3.45218 -4.84517 255 0 0
9.69091 -3.41773 -4.84517 255 0 0
9.67876 -3.29776 -4.83111 255 0 0
9.70243 -3.20346 -4.82902 255 0 0
9.70214 -3.06364 -4.81705 255 0 0
9.72804 -2.88262 -4.80923 255 0 0
9.74348 -2.79946 -4.80689 255 0 0
9.76556 -2.66844 -4.80298 255 0 0
9.79364 -2.65118 -4.80923 255 0 0
9.82927 -2.56102 -4.81236 255 0 0
9.83531 -2.53771 -4.81236 255 0 0
9.89396 -2.49038 -4.82486 255 0 0
9.96912 -2.42152 -4.84048 255 0 0
9.99678 -2.40315 -4.84673 255 0 0
10.0628 -2.39381 -4.86392 255 0 0
10.1014 -2.3777 -4.87329 255 0 0
10.1345 -2.36014 -4.88111 255 0 0
10.2887 -2.34465 -4.92173 255 0 0
10.4429 -2.32776 -4.96235 255 0 0
10.6082 -2.31186 -5.0061 255 0 0
10.7295 -2.31166 -5.03891 255 0 0
10.9612 -2.30725 -5.10141 255 0 0
11.0606 -2.30079 -5.12797 255 0 0
11.1489 -2.2916 -5.1514 255 0 0
11.2262 -2.27976 -5.17172 255 0 0
9.45417 -3.52448 -5.06642 255 0 0
9.66356 -3.83933 -4.97232 255 0 0
9.58925 -3.7049 -4.93852 255 0 0
9.54901 -3.50836 -4.90795 255 0 0
9.55004 -3.40629 -4.89829 255 0 0
9.5488 -3.34218 -4.89185 255 0 0
9.54877 -3.0526 -4.86557 255 0 0
9.56582 -2.99567 -4.8653 255 0 0
9.58766 -2.91537 -4.86449 255 0 0
9.60168 -2.75872 -4.85564 255 0 0
9.62244 -2.65387 -4.85323 255 0 0
9.68589 -2.54821 -4.86289 255 0 0
9.70693 -2.50457 -4.86557 255 0 0
9.78127 -2.42506 -4.88059 255 0 0
9.86925 -2.39726 -4.90312 255 0 0
10.001 -2.37909 -4.93852 255 0 0
10.1274 -2.33317 -4.97071 255 0 0
10.9466 -2.30418 -5.19761 255 0 0
12.7467 -3.48303 -5.07383 255 0 0
12.7702 -3.35965 -4.95623 255 0 0
10.0592 -2.31746 -5.04373 255 0 0
9.46662 -2.40671 -5.05747 255 0 0
9.73248 -3.9471 -5.09672 255 0 0
9.72618 -3.91772 -5.09175 255 0 0
9.62983 -3.82593 -5.05532 255 0 0
9.72246 -3.83607 -5.08182 255 0 0
9.68969 -3.79661 -5.06857 255 0 0
9.70914 -3.7777 -5.07188 255 0 0
9.69201 -3.70504 -5.05946 255 0 0
9.68674 -3.6636 -5.05367 255 0 0
9.64282 -3.62088 -5.03711 255 0 0
9.47246 -3.5313 -4.9808 255 0 0
9.465 -3.50298 -4.97583 255 0 0
9.45959 -3.3614 -4.9601 255 0 0
9.46483 -3.31279 -4.95679 255 0 0
9.46184 -3.26147 -4.95099 255 0 0
9.46391 -3.21205 -4.94685 255 0 0
9.47049 -3.00285 -4.92947 255 0 0
9.48627 -2.93375 -4.92781 255 0 0
9.49378 -2.75209 -4.91456 255 0 0
9.60821 -2.69904 -4.94271 255 0 0
9.63622 -2.68227 -4.94934 255 0 0
9.63258 -2.63211 -4.94437 255 0 0
9.64594 -2.54994 -4.94189 255 0 0
9.74067 -2.46408 -4.96259 255 0 0
9.71379 -2.4328 -4.95265 255 0 0
9.74964 -2.40495 -4.96093 255 0 0
9.89494 -2.35386 -4.99902 255 0 0
10.2235 -2.3298 -5.09175 255 0 0
10.3331 -2.32901 -5.12322 255 0 0
10.5578 -2.35338 -5.18946 255 0 0
10.5551 -2.31343 -5.18615 255 0 0
9.50702 -2.36902 -5.1565 255 0 0
9.41608 -3.80581 -5.17903 255 0 0
9.62734 -3.95772 -5.16347 255 0 0
9.51549 -3.79357 -5.11324 255 0 0
9.48984 -3.74429 -5.10047 255 0 0
9.50048 -3.70951 -5.09962 255 0 0
9.40124 -3.4414 -5.04258 255 0 0
9.48232 -3.33153 -5.0545 255 0 0
9.47432 -3.30351 -5.04939 255 0 0
9.45952 -3.26066 -5.04088 255 0 0
9.39152 -3.19989 -5.01534 255 0 0
9.45215 -3.19556 -5.03237 255 0 0
9.41612 -3.10893 -5.01364 255 0 0
9.41039 -3.0453 -5.00598 255 0 0
9.45199 -2.92315 -5.00683 255 0 0
9.43211 -2.89252 -4.99831 255 0 0
9.40746 -2.79976 -4.98299 255 0 0
9.60324 -2.62409 -5.02556 255 0 0
9.65956 -2.56578 -5.03747 255 0 0
9.60163 -2.47742 -5.01364 255 0 0
9.67385 -2.3741 -5.02726 255 0 0
9.73402 -2.33998 -5.04258 255 0 0
9.84317 -2.3169 -5.07323 255 0 0
10.0997 -2.3268 -5.14985 255 0 0
9.36164 -3.65529 -5.1458 255 0 0
9.33976 -3.59579 -5.13268 255 0 0
9.31594 -3.54863 -5.12043 255 0 0
9.30135 -3.30517 -5.08982 255 0 0
9.30373 -3.25642 -5.08545 255 0 0
9.30323 -3.20678 -5.0802 255 0 0
9.29187 -3.15365 -5.07146 255 0 0
9.31984 -3.01599 -5.06621 255 0 0
9.33703 -2.8876 -5.05922 255 0 0
9.31784 -2.8454 -5.04959 255 0 0
9.32855 -2.80038 -5.04872 255 0 0
9.32775 -2.76401 -5.04522 255 0 0
9.33859 -2.70711 -5.04347 255 0 0
9.36164 -2.65373 -5.04581 255 0 0
9.38927 -2.58956 -5.04872 255 0 0
9.54581 -2.36669 -5.07846 255 0 0
9.7962 -2.28135 -5.14842 255 0 0
10.0739 -2.29571 -5.23413 255 0 0
9.34634 -3.59834 -5.22652 255 0 0
9.32784 -3.55316 -5.21575 255 0 0
9.29487 -3.40249 -5.18881 255 0 0
9.27945 -3.34703 -5.17804 255 0 0
9.28471 -3.29926 -5.17445 255 0 0
9.27658 -3.24691 -5.16637 255 0 0
9.26767 -3.04773 -5.14303 255 0 0
9.26961 -2.95124 -5.13405 255 0 0
9.27265 -2.81958 -5.12238 255 0 0
9.28058 -2.77398 -5.12059 255 0 0
9.29247 -2.75355 -5.12238 255 0 0
9.31059 -2.6512 -5.11879 255 0 0
9.35089 -2.55513 -5.12298 255 0 0
9.3832 -2.49238 -5.12777 255 0 0
9.44707 -2.40172 -5.14034 255 0 0
9.55869 -2.34584 -5.17086 255 0 0
9.35082 -2.60283 -5.21633 255 0 0
9.3905 -2.47049 -5.21756 255 0 0
9.40709 -2.45102 -5.22124 255 0 0
9.41287 -2.42871 -5.22124 255 0 0
13.2043 -3.24053 -4.80738 255 0 0
12.8066 -3.51572 -4.85747 255 0 0
12.924 -3.49858 -4.88087 255 0 0
12.8458 -3.34699 -4.85623 255 0 0
12.8715 -3.30485 -4.85931 255 0 0
12.8381 -3.21527 -4.84761 255 0 0
12.8617 -3.54726 -4.98693 255 0 0
12.848 -3.51073 -4.98181 255 0 0
12.8508 -3.47877 -4.98053 255 0 0
12.8149 -3.43645 -4.9703 255 0 0
12.7769 -3.45876 -5.07914 255 0 0
12.7987 -3.3996 -5.08046 255 0 0
12.724 -3.34748 -5.06056 255 0 0
