ply
format ascii 1.0
comment Created by Open3D
element vertex 910
property double x
property double y
property double z
property uchar red
property uchar green
property uchar blue
end_header
5.90958 11.9999 -4.3013 255 0 0
4.36605 10.2726 -4.30475 255 0 0
5.27266 10.2429 -4.37875 255 0 0
5.78697 10.7061 -4.0938 255 0 0
5.58449 10.6309 -3.55557 255 0 0
6.1754 10.513 -4.20216 255 0 0
3.51605 10.6918 -5.01578 255 0 0
4.72024 10.6812 -3.31577 255 0 0
5.62375 10.3455 -4.32952 255 0 0
3.01 10.2921 -4.21417 255 0 0
4.86173 10.7251 -3.22777 255 0 0
3.96936 12.1185 -4.41282 255 0 0
4.13067 11.4521 -3.88675 255 0 0
5.90564 12.1367 -4.32215 255 0 0
5.81619 10.4326 -3.9529 255 0 0
4.1878 11.8744 -3.41869 255 0 0
6.66732 10.2357 -4.62838 255 0 0
4.31734 10.7551 -3.20834 255 0 0
4.15822 10.8775 -4.10329 255 0 0
6.94803 10.4756 -5.14523 255 0 0
7.12368 10.5763 -4.5227 255 0 0
4.27477 10.6857 -3.29675 255 0 0
4.27544 10.4002 -4.03096 255 0 0
4.23339 11.9136 -3.31825 255 0 0
4.16446 10.6657 -3.58008 255 0 0
5.03727 10.3522 -4.07936 255 0 0
4.90441 10.7178 -3.82667 255 0 0
5.1923 10.8665 -3.56008 255 0 0
2.80798 10.2762 -4.29213 255 0 0
4.78078 10.2542 -4.33613 255 0 0
4.6934 10.2566 -4.32902 255 0 0
4.10392 11.463 -3.9907 255 0 0
6.10273 12.1728 -3.76393 255 0 0
5.84561 12.0134 -4.18438 255 0 0
2.46454 12.0627 -4.32954 255 0 0
4.20288 10.7641 -3.4969 255 0 0
4.10968 11.4791 -4.20216 255 0 0
5.54892 10.6243 -3.35051 255 0 0
4.00862 10.2666 -4.27574 255 0 0
3.31849 10.2963 -4.23371 255 0 0
4.8636 10.8315 -3.84012 255 0 0
2.68948 10.2724 -4.28474 255 0 0
5.01979 10.3474 -4.17606 255 0 0
3.4109 12.0873 -4.37635 255 0 0
5.15553 10.6593 -3.33412 255 0 0
3.55713 10.28 -4.24614 255 0 0
4.22721 11.0188 -3.23051 255 0 0
3.29092 10.5086 -4.95062 255 0 0
5.6925 10.2393 -4.41901 255 0 0
5.41356 10.6092 -3.44234 255 0 0
4.22343 10.5937 -3.47734 255 0 0
6.01093 10.2888 -4.46045 255 0 0
6.07349 10.3677 -4.27348 255 0 0
4.22912 11.5531 -4.11664 255 0 0
5.1757 10.6366 -3.33281 255 0 0
4.05319 10.7554 -4.27384 255 0 0
5.81492 10.5182 -4.27403 255 0 0
4.21123 10.6364 -3.38532 255 0 0
6.82175 10.4457 -4.46815 255 0 0
5.52009 10.6305 -4.26641 255 0 0
4.16146 10.5839 -3.66585 255 0 0
5.88256 10.3488 -3.94629 255 0 0
4.95508 10.661 -3.32462 255 0 0
5.59717 10.6551 -3.66092 255 0 0
4.34034 10.3826 -4.12925 255 0 0
5.76266 10.5414 -3.96424 255 0 0
4.35947 10.6765 -3.29938 255 0 0
4.91729 10.8136 -3.63931 255 0 0
5.85387 11.9582 -4.06341 255 0 0
2.76703 10.3185 -4.20588 255 0 0
3.60908 12.0745 -4.49315 255 0 0
4.41616 10.6348 -3.39447 255 0 0
5.61344 10.5641 -3.44867 255 0 0
6.85985 10.2369 -4.9747 255 0 0
4.98182 10.4261 -3.7908 255 0 0
4.46278 10.3297 -4.22611 255 0 0
3.07043 12.0773 -4.35785 255 0 0
4.1087 10.3774 -4.01587 255 0 0
7.00686 10.4563 -4.59899 255 0 0
5.10878 10.6592 -3.33183 255 0 0
4.21659 11.604 -3.28728 255 0 0
5.5264 10.6426 -3.35117 255 0 0
4.65672 10.6742 -3.31216 255 0 0
4.97059 10.6284 -3.42087 255 0 0
7.16494 10.5295 -4.62977 255 0 0
3.51438 10.2746 -4.33647 255 0 0
6.33753 10.5019 -5.17764 255 0 0
6.19324 10.3737 -4.286 255 0 0
5.81539 10.3445 -4.3477 255 0 0
4.00366 11.8889 -4.48179 255 0 0
5.01293 10.396 -4.08456 255 0 0
4.97035 10.4338 -3.8896 255 0 0
4.10964 11.2267 -4.26205 255 0 0
6.03434 10.4423 -4.07494 255 0 0
4.09677 11.2743 -4.26967 255 0 0
3.3127 10.2783 -4.32354 255 0 0
3.99121 11.6686 -4.43974 255 0 0
3.12333 10.2716 -4.30999 255 0 0
4.21027 11.5866 -3.59694 255 0 0
5.55653 10.6082 -4.26586 255 0 0
4.19003 11.1989 -3.44797 255 0 0
2.85897 12.0818 -4.34914 255 0 0
5.33897 10.9064 -3.4705 255 0 0
3.9833 11.556 -4.41815 255 0 0
4.34572 10.6069 -3.48486 255 0 0
2.41993 12.063 -4.32791 255 0 0
2.41547 12.0408 -4.42952 255 0 0
5.28999 10.6778 -3.44304 255 0 0
2.9463 10.3469 -4.78704 255 0 0
3.57023 12.1012 -4.38724 255 0 0
4.11037 11.1467 -4.2479 255 0 0
3.16208 12.0775 -4.3622 255 0 0
4.22107 10.2679 -4.29232 255 0 0
4.2388 10.5594 -3.66669 255 0 0
5.60696 10.9241 -4.21777 255 0 0
5.76832 10.5517 -4.17198 255 0 0
6.20677 10.2853 -5.21886 255 0 0
3.37672 10.4769 -4.85165 255 0 0
4.13104 12.0775 -4.19606 255 0 0
4.24075 10.6371 -3.38673 255 0 0
2.96257 12.0717 -4.35186 255 0 0
2.61169 12.0526 -4.43974 255 0 0
5.66776 10.5453 -3.65212 255 0 0
4.34096 10.5241 -3.66754 255 0 0
5.45547 10.6913 -3.25146 255 0 0
5.68658 10.3438 -4.3352 255 0 0
3.56835 10.7221 -5.02791 255 0 0
4.76877 10.7222 -3.22352 255 0 0
3.66893 10.2863 -4.25502 255 0 0
5.03654 10.3506 -4.27724 255 0 0
4.05014 10.9037 -4.30111 255 0 0
6.71146 10.4383 -4.34805 255 0 0
5.85901 10.2508 -4.43796 255 0 0
3.76567 12.0747 -4.50224 255 0 0
4.26841 10.4535 -3.84614 255 0 0
4.18153 11.5075 -3.89751 255 0 0
6.52923 10.4245 -4.32737 255 0 0
4.17763 11.2469 -3.4529 255 0 0
6.87931 10.5886 -5.15944 255 0 0
4.11181 10.3137 -4.19656 255 0 0
7.319 10.5663 -4.65405 255 0 0
4.41925 10.2623 -4.30712 255 0 0
4.1312 12.0779 -4.08707 255 0 0
4.2321 11.3936 -3.26724 255 0 0
5.71648 10.5161 -3.75325 255 0 0
2.5254 10.2903 -4.27981 255 0 0
4.27029 10.6379 -3.38814 255 0 0
7.12066 10.5179 -4.62267 255 0 0
4.10783 11.9172 -4.38506 255 0 0
4.26324 12.0883 -3.33646 255 0 0
5.65199 10.6671 -4.07693 255 0 0
5.90208 10.8575 -4.33825 255 0 0
6.01101 10.3452 -4.36702 255 0 0
4.20517 10.5479 -3.6633 255 0 0
4.89859 10.4422 -3.88582 255 0 0
3.31722 12.0835 -4.37091 255 0 0
2.90914 10.3092 -4.2118 255 0 0
5.66204 10.3573 -4.3352 255 0 0
3.19957 10.4777 -4.93546 255 0 0
4.31921 10.4013 -3.84142 255 0 0
4.81164 10.7158 -3.22474 255 0 0
3.56125 12.0707 -4.48974 255 0 0
5.81785 10.7025 -4.09579 255 0 0
4.16185 10.7341 -4.07936 255 0 0
4.21167 10.3848 -3.92801 255 0 0
6.3639 10.378 -4.30342 255 0 0
6.31488 12.4483 -3.22121 255 0 0
6.72948 10.8583 -4.30728 255 0 0
4.1762 11.4085 -3.4712 255 0 0
4.41434 10.5596 -3.77376 255 0 0
6.77352 10.5623 -5.02897 255 0 0
4.03329 11.0996 -4.33634 255 0 0
7.06021 10.5359 -4.50906 255 0 0
6.99721 10.3356 -5.23344 255 0 0
4.91012 10.7978 -3.83832 255 0 0
5.79982 10.3168 -4.13764 255 0 0
4.14396 10.3944 -4.02108 255 0 0
6.86561 10.5129 -5.03103 255 0 0
7.02565 10.5383 -4.50565 255 0 0
4.49571 10.683 -3.30593 255 0 0
4.89955 10.5743 -3.50968 255 0 0
4.55824 10.2488 -4.41345 255 0 0
4.09475 10.4872 -4.22725 255 0 0
4.17096 11.5638 -3.59243 255 0 0
4.46601 10.2702 -4.31245 255 0 0
6.93131 10.5044 -4.48974 255 0 0
4.21729 10.4342 -3.74417 255 0 0
4.52376 10.7142 -3.21259 255 0 0
3.36314 10.4773 -5.04672 255 0 0
6.75072 10.337 -4.54926 255 0 0
5.67672 10.869 -4.00487 255 0 0
4.13577 11.2981 -4.17302 255 0 0
3.66289 12.0975 -4.39159 255 0 0
5.73425 10.669 -4.08388 255 0 0
4.17893 12.0309 -3.5423 255 0 0
3.70927 12.0954 -4.39377 255 0 0
5.35469 10.3419 -4.30395 255 0 0
6.17133 12.3097 -3.90025 255 0 0
5.57872 10.6814 -3.76514 255 0 0
4.15846 11.5291 -3.69134 255 0 0
5.78097 10.3406 -4.13972 255 0 0
4.70616 10.718 -3.22049 255 0 0
4.03085 10.2517 -4.27456 255 0 0
6.95709 10.4354 -5.13812 255 0 0
6.16308 10.2954 -4.47762 255 0 0
4.18982 12.0622 -3.65411 255 0 0
3.43955 12.0792 -4.37635 255 0 0
6.15909 12.177 -3.76769 255 0 0
4.11538 12.1255 -4.20301 255 0 0
5.60738 10.6133 -3.4536 255 0 0
3.09467 10.3089 -4.22246 255 0 0
5.16342 10.7406 -3.74562 255 0 0
4.96819 10.5255 -3.70488 255 0 0
2.75774 10.2839 -4.2909 255 0 0
2.87273 10.5624 -5.22755 255 0 0
4.91914 10.3897 -4.07624 255 0 0
5.89424 10.4268 -3.85626 255 0 0
4.17802 10.5525 -3.66245 255 0 0
5.7204 10.6432 -4.18239 255 0 0
4.65872 10.7134 -3.21806 255 0 0
6.93101 10.5311 -5.15447 255 0 0
4.57097 10.7194 -3.21502 255 0 0
5.33863 10.7121 -3.44938 255 0 0
6.48251 10.4598 -4.97058 255 0 0
4.99313 10.5137 -3.70488 255 0 0
5.55554 10.6987 -3.25692 255 0 0
2.41502 10.3148 -4.2794 255 0 0
4.46283 10.7113 -3.20986 255 0 0
4.04749 12.1139 -4.41663 255 0 0
5.61632 10.8158 -3.99259 255 0 0
4.95188 10.5884 -3.5142 255 0 0
3.10608 10.4821 -4.9294 255 0 0
4.19026 10.6571 -3.38673 255 0 0
4.22068 11.7016 -3.297 255 0 0
4.9017 11.6478 -3.95849 255 0 0
3.37086 10.2913 -4.23608 255 0 0
4.23521 11.6553 -4.13352 255 0 0
4.31246 10.6334 -3.38954 255 0 0
5.11307 10.3515 -4.28406 255 0 0
6.26525 12.3505 -3.32767 255 0 0
4.36413 10.5448 -3.57487 255 0 0
4.97159 10.5327 -3.60729 255 0 0
5.87604 12.0035 -4.29931 255 0 0
2.91289 12.0543 -4.45338 255 0 0
3.43816 10.2902 -4.24022 255 0 0
4.10068 10.4293 -4.21702 255 0 0
2.65293 10.2819 -4.28474 255 0 0
6.88306 10.5396 -4.3818 255 0 0
4.19002 11.1988 -3.34723 255 0 0
6.59397 10.4177 -4.33281 255 0 0
5.26672 10.6308 -3.33674 255 0 0
5.91188 10.9372 -4.3524 255 0 0
2.77167 12.0963 -4.34805 255 0 0
4.18282 11.7712 -3.40755 255 0 0
4.27034 10.5655 -3.66924 255 0 0
4.17588 10.2616 -4.28758 255 0 0
5.66977 10.5791 -3.55482 255 0 0
3.02259 12.0687 -4.46133 255 0 0
5.53152 10.8403 -4.0938 255 0 0
4.13463 10.371 -4.30534 255 0 0
6.56619 10.4284 -4.33172 255 0 0
4.1466 10.7704 -3.98559 255 0 0
4.17952 10.6298 -3.4796 255 0 0
5.47386 10.6338 -3.44832 255 0 0
5.26183 10.7166 -3.24478 255 0 0
5.07369 10.3645 -4.28293 255 0 0
5.87405 10.6251 -4.1928 255 0 0
5.37407 10.7194 -3.25024 255 0 0
4.93153 10.6433 -3.42052 255 0 0
4.0942 10.8642 -4.19674 255 0 0
2.6713 12.0513 -4.44202 255 0 0
5.02062 10.7353 -3.23567 255 0 0
5.82903 10.2547 -4.43559 255 0 0
6.51473 10.624 -5.11823 255 0 0
5.82382 10.3023 -4.23919 255 0 0
3.40834 10.282 -4.23667 255 0 0
4.14599 10.4716 -3.84142 255 0 0
4.24409 11.594 -3.28728 255 0 0
4.0708 10.2817 -4.57236 255 0 0
6.86713 10.2478 -4.65424 255 0 0
5.63508 10.8519 -4.10373 255 0 0
4.56623 10.2668 -4.32014 255 0 0
5.96876 12.0479 -4.31321 255 0 0
5.81284 11.946 -4.05892 255 0 0
4.18885 11.5277 -3.48528 255 0 0
4.21591 11.1073 -3.2387 255 0 0
4.62451 10.704 -3.3138 255 0 0
4.95896 10.3466 -4.26986 255 0 0
5.77602 10.5658 -3.66172 255 0 0
5.81459 12.022 -4.18344 255 0 0
4.18503 10.7184 -3.97963 255 0 0
5.51479 10.7132 -3.25631 255 0 0
3.076 10.4717 -4.82743 255 0 0
6.02358 10.3668 -4.26858 255 0 0
5.84965 10.4055 -3.84998 255 0 0
4.23845 10.8552 -3.21502 255 0 0
4.844 10.7198 -3.82308 255 0 0
6.89381 10.3938 -4.57531 255 0 0
3.4919 10.4511 -4.85459 255 0 0
4.33628 10.7286 -3.20652 255 0 0
4.14118 10.6061 -4.05646 255 0 0
6.6898 10.459 -4.34914 255 0 0
5.40728 10.6906 -3.45079 255 0 0
4.24165 10.5665 -3.57127 255 0 0
4.90857 10.3357 -4.26361 255 0 0
4.21128 12.0319 -3.5437 255 0 0
6.20763 12.1653 -3.7692 255 0 0
4.06312 10.6287 -4.25111 255 0 0
2.76593 12.0712 -4.44997 255 0 0
5.00992 10.4213 -3.89055 255 0 0
6.25602 12.1887 -3.89065 255 0 0
5.18554 10.7214 -3.24174 255 0 0
5.57191 10.367 -4.32838 255 0 0
4.3683 10.7345 -3.20834 255 0 0
7.05406 10.4729 -4.60728 255 0 0
2.59788 10.321 -4.19759 255 0 0
3.36585 10.276 -4.32662 255 0 0
4.17451 10.8429 -3.80066 255 0 0
5.71353 10.5404 -3.65452 255 0 0
5.61386 10.5347 -3.64731 255 0 0
3.25353 10.5202 -4.95062 255 0 0
4.21322 10.8666 -3.41137 255 0 0
4.17263 10.4303 -3.74103 255 0 0
4.85871 11.6226 -4.05967 255 0 0
4.32229 10.3395 -4.21702 255 0 0
5.07854 10.251 -4.36218 255 0 0
4.26451 10.3736 -4.12217 255 0 0
6.56803 10.5978 -5.11965 255 0 0
3.43456 10.528 -4.96729 255 0 0
3.20569 10.2792 -4.31676 255 0 0
6.90129 10.5675 -5.15802 255 0 0
4.74681 10.2447 -4.33139 255 0 0
4.91154 10.3419 -4.16626 255 0 0
4.93921 10.5287 -3.60489 255 0 0
4.20915 10.3434 -4.11292 255 0 0
5.22247 10.6364 -3.3351 255 0 0
3.26793 10.4787 -4.84358 255 0 0
4.1952 11.3768 -3.46838 255 0 0
2.50749 12.0542 -4.43577 255 0 0
5.5297 10.5875 -3.54729 255 0 0
5.65813 10.8334 -4.10274 255 0 0
3.46255 10.282 -4.24022 255 0 0
6.89406 11.007 -4.34578 255 0 0
4.31008 10.5555 -3.67009 255 0 0
4.25976 10.2582 -4.2935 255 0 0
3.20946 12.0828 -4.36547 255 0 0
3.16719 12.0969 -4.47383 255 0 0
6.58644 10.4058 -4.43633 255 0 0
5.68137 10.5706 -3.85985 255 0 0
5.05711 10.6484 -3.32822 255 0 0
4.14178 12.1089 -4.31144 255 0 0
6.34228 10.7971 -4.15436 255 0 0
4.19039 11.9722 -3.42918 255 0 0
3.50949 10.5453 -5.07719 255 0 0
2.56613 10.298 -4.28351 255 0 0
4.19208 10.812 -3.30659 255 0 0
5.50993 10.6109 -3.5488 255 0 0
5.0093 10.6453 -3.3256 255 0 0
4.02057 12.1289 -4.41772 255 0 0
4.26483 10.7718 -3.20794 255 0 0
5.52176 10.2445 -4.40303 255 0 0
3.8602 12.075 -4.50792 255 0 0
4.30053 11.5359 -4.11813 255 0 0
5.6074 10.3739 -4.33293 255 0 0
4.30593 11.426 -4.10075 255 0 0
3.76302 10.2798 -4.26035 255 0 0
4.37307 10.6019 -3.48561 255 0 0
5.55995 10.7072 -3.66492 255 0 0
4.92226 10.7231 -3.2302 255 0 0
4.19361 10.8925 -3.31511 255 0 0
5.42747 10.699 -3.25085 255 0 0
5.40734 10.7222 -3.25206 255 0 0
5.32554 10.7176 -3.24781 255 0 0
5.22368 10.7352 -3.24478 255 0 0
5.14496 10.7022 -3.2381 255 0 0
5.10686 10.7204 -3.2381 255 0 0
5.05379 10.7069 -3.23445 255 0 0
4.96771 10.7214 -3.23202 255 0 0
4.6333 10.7244 -3.21806 255 0 0
4.40977 10.7269 -3.20925 255 0 0
4.23375 10.9195 -3.22109 255 0 0
4.2409 11.2535 -3.25388 255 0 0
4.23053 11.3071 -3.25874 255 0 0
4.23127 11.4746 -3.27514 255 0 0
4.2204 11.7884 -3.3055 255 0 0
6.6259 10.8341 -4.29375 255 0 0
3.41906 10.2735 -4.3297 255 0 0
6.47277 10.389 -4.42156 255 0 0
4.18517 11.6032 -3.49372 255 0 0
4.03196 11.0145 -4.32043 255 0 0
4.97328 10.2515 -4.35271 255 0 0
6.26782 10.7872 -4.14642 255 0 0
5.77883 10.3946 -4.14804 255 0 0
3.80554 10.2825 -4.2639 255 0 0
4.0966 10.2756 -4.47653 255 0 0
2.87245 10.3194 -4.2118 255 0 0
5.47519 10.6363 -3.34789 255 0 0
5.43469 10.6506 -3.34723 255 0 0
5.40942 10.6634 -3.34723 255 0 0
4.31619 10.6064 -3.48336 255 0 0
5.3684 10.645 -3.3433 255 0 0
5.33533 10.6421 -3.34133 255 0 0
5.32306 10.6808 -3.34461 255 0 0
4.91592 10.6759 -3.32429 255 0 0
4.88333 10.6717 -3.32232 255 0 0
4.82612 10.6466 -3.31708 255 0 0
4.77558 10.6694 -3.31708 255 0 0
4.56353 10.6669 -3.30724 255 0 0
4.53464 10.7045 -3.30986 255 0 0
4.46588 10.6829 -3.30462 255 0 0
4.41785 10.6745 -3.30167 255 0 0
4.31275 10.6704 -3.29675 255 0 0
4.21979 10.695 -3.29544 255 0 0
4.19865 10.7533 -3.30069 255 0 0
4.19478 10.9731 -3.32363 255 0 0
4.1832 11.0211 -3.32822 255 0 0
4.19604 11.1344 -3.34068 255 0 0
4.17966 11.2524 -3.35248 255 0 0
4.18116 11.3387 -3.36166 255 0 0
4.17626 11.4087 -3.36887 255 0 0
4.19093 11.5334 -3.38264 255 0 0
4.18331 11.598 -3.38919 255 0 0
4.19503 11.7175 -3.4023 255 0 0
4.20471 10.6199 -3.4796 255 0 0
6.10738 10.2852 -4.46993 255 0 0
2.5584 10.3191 -4.19523 255 0 0
3.57356 10.2881 -5.01547 255 0 0
4.30688 10.3716 -4.12489 255 0 0
2.81016 12.0669 -4.45111 255 0 0
2.66546 10.3304 -4.20292 255 0 0
5.59776 10.6562 -4.17406 255 0 0
5.65217 10.5763 -3.45219 255 0 0
5.56555 10.6255 -3.45254 255 0 0
5.51835 10.6271 -3.45008 255 0 0
5.3588 10.689 -3.44797 255 0 0
5.36482 10.8937 -3.4705 255 0 0
5.02477 10.5803 -3.4184 255 0 0
5.0096 10.6133 -3.42122 255 0 0
4.36504 10.6182 -3.39025 255 0 0
4.19669 10.7483 -3.39729 255 0 0
4.2146 10.9471 -3.42052 255 0 0
4.19146 11.8848 -3.5261 255 0 0
5.42793 10.3329 -4.30906 255 0 0
6.41767 10.3827 -4.41474 255 0 0
3.58735 10.5697 -5.09047 255 0 0
5.78181 10.6362 -4.18655 255 0 0
6.05384 10.3905 -4.17198 255 0 0
3.41748 10.4756 -4.85459 255 0 0
4.75447 10.3253 -4.24884 255 0 0
7.00267 10.6125 -4.40574 255 0 0
5.71013 10.564 -3.55557 255 0 0
5.61849 10.5736 -3.55106 255 0 0
5.58527 10.5715 -3.5488 255 0 0
5.51406 10.6807 -3.55707 255 0 0
5.5444 10.8022 -3.57287 255 0 0
5.00451 10.57 -3.51495 255 0 0
4.26758 10.5948 -3.4796 255 0 0
5.76989 10.4367 -3.84819 255 0 0
5.98597 10.2461 -4.55324 255 0 0
5.47313 10.2413 -4.3977 255 0 0
6.23262 10.3837 -4.29144 255 0 0
6.71 10.436 -4.45452 255 0 0
6.70964 10.5727 -5.02279 255 0 0
4.51829 10.2571 -4.4116 255 0 0
5.6971 10.8453 -4.00298 255 0 0
4.56753 10.3026 -4.22952 255 0 0
7.01486 10.2826 -4.67826 255 0 0
4.93074 10.4462 -3.88866 255 0 0
5.96361 12.0735 -4.43216 255 0 0
5.57189 10.6683 -3.66092 255 0 0
6.19546 12.1415 -3.88104 255 0 0
6.17978 12.182 -3.88504 255 0 0
6.16655 12.2277 -3.88985 255 0 0
5.31219 10.8517 -3.66732 255 0 0
5.26977 10.8626 -3.66612 255 0 0
5.15696 10.7271 -3.64251 255 0 0
5.01276 10.5228 -3.60849 255 0 0
4.89707 10.5036 -3.59929 255 0 0
4.30641 10.5466 -3.57207 255 0 0
4.26017 10.5403 -3.56887 255 0 0
4.21229 10.5658 -3.56967 255 0 0
4.18509 10.5703 -3.56887 255 0 0
4.177 10.6234 -3.57527 255 0 0
4.21564 12.0443 -3.76098 255 0 0
4.19087 12.0652 -3.76258 255 0 0
4.10869 10.7479 -4.17714 255 0 0
2.61468 12.0664 -4.33608 255 0 0
3.41959 10.5243 -5.06391 255 0 0
4.14019 10.5298 -3.84992 255 0 0
4.89031 10.891 -3.95196 255 0 0
6.78682 10.2325 -4.64192 255 0 0
3.48248 12.1207 -4.38615 255 0 0
6.48883 10.6953 -5.24078 255 0 0
3.51287 10.5138 -5.16865 255 0 0
5.41139 10.361 -4.31247 255 0 0
4.81482 10.2636 -4.34086 255 0 0
6.05502 10.3361 -4.36986 255 0 0
3.49369 10.2938 -4.33893 255 0 0
5.81637 10.5208 -3.76089 255 0 0
5.77057 10.5261 -3.75835 255 0 0
5.68602 10.5194 -3.75156 255 0 0
5.69398 10.5941 -3.76174 255 0 0
5.62789 10.5309 -3.74901 255 0 0
5.64284 10.6804 -3.76938 255 0 0
5.6175 10.6938 -3.76938 255 0 0
6.19869 12.2193 -4.00699 255 0 0
5.2802 10.8514 -3.76768 255 0 0
5.26202 10.8795 -3.77023 255 0 0
5.01804 10.5018 -3.70488 255 0 0
4.93829 10.5268 -3.70319 255 0 0
4.89129 10.4912 -3.69555 255 0 0
4.87207 10.8504 -3.74222 255 0 0
4.14689 10.6207 -3.67009 255 0 0
4.13599 11.5526 -3.79738 255 0 0
4.163 12.0773 -3.87121 255 0 0
3.46226 10.5282 -5.0686 255 0 0
5.46314 10.3403 -4.31361 255 0 0
2.77515 10.3981 -5.27073 255 0 0
6.8127 10.5133 -4.37037 255 0 0
4.30776 10.4436 -3.84709 255 0 0
4.3132 10.3868 -3.93496 255 0 0
2.60274 10.2888 -4.28351 255 0 0
4.71771 10.2455 -4.32902 255 0 0
6.56105 10.8432 -4.28906 255 0 0
3.07048 10.2726 -4.30691 255 0 0
5.80978 10.4212 -3.84908 255 0 0
5.73119 10.425 -3.8437 255 0 0
5.72178 10.4961 -3.85267 255 0 0
5.71192 10.5673 -3.86164 255 0 0
5.63993 10.5534 -3.85446 255 0 0
5.93078 12.0429 -4.08044 255 0 0
5.20253 10.7565 -3.85177 255 0 0
5.01405 10.4299 -3.79349 255 0 0
4.94716 10.4169 -3.78721 255 0 0
4.90392 10.4214 -3.78497 255 0 0
4.91338 10.6372 -3.8159 255 0 0
4.32365 10.447 -3.75224 255 0 0
4.26094 10.4352 -3.74686 255 0 0
4.16001 10.507 -3.75134 255 0 0
4.16896 10.603 -3.76569 255 0 0
4.1564 10.6824 -3.77645 255 0 0
4.15695 12.0135 -3.97014 255 0 0
5.81065 10.3361 -4.24355 255 0 0
6.43036 10.5424 -5.0898 255 0 0
6.47351 10.785 -4.27189 255 0 0
4.32014 10.4036 -4.03461 255 0 0
4.08859 10.9278 -4.20762 255 0 0
5.89782 10.4332 -3.95952 255 0 0
5.86457 10.432 -3.95668 255 0 0
5.77344 10.4431 -3.95102 255 0 0
5.79878 10.5479 -3.96802 255 0 0
5.95766 12.0614 -4.1995 255 0 0
5.90203 12.0566 -4.19477 255 0 0
4.9388 10.7929 -3.94062 255 0 0
4.8223 10.6047 -3.90472 255 0 0
4.90642 11.659 -4.06817 255 0 0
4.20907 10.4495 -3.84189 255 0 0
4.16011 10.4349 -3.83669 255 0 0
4.26971 11.4948 -4.00487 255 0 0
4.19579 11.6326 -4.02188 255 0 0
4.93312 11.5687 -4.37962 255 0 0
3.31645 12.0807 -4.47838 255 0 0
3.03556 10.2889 -4.97016 255 0 0
4.15148 10.3419 -4.10856 255 0 0
2.72232 12.078 -4.34261 255 0 0
3.81376 12.0777 -4.50565 255 0 0
6.32249 10.8221 -4.15635 255 0 0
5.95781 10.3665 -4.05707 255 0 0
5.82199 10.3276 -4.0397 255 0 0
5.80071 10.3759 -4.04516 255 0 0
5.79291 10.4199 -4.05111 255 0 0
5.75702 10.4134 -4.04714 255 0 0
5.74702 10.7538 -4.09778 255 0 0
5.65696 10.7689 -4.09281 255 0 0
5.60404 10.855 -4.10175 255 0 0
5.57566 10.8631 -4.10075 255 0 0
6.04651 12.0607 -4.32115 255 0 0
6.00761 12.0544 -4.31718 255 0 0
5.0065 10.3826 -3.98311 255 0 0
4.9683 10.3978 -3.98261 255 0 0
4.92141 10.3945 -3.97864 255 0 0
4.27075 10.3888 -3.93248 255 0 0
4.15703 10.3913 -3.92553 255 0 0
4.12322 10.4141 -3.92701 255 0 0
4.11752 10.4722 -3.93595 255 0 0
4.10793 11.4742 -4.09678 255 0 0
3.55507 10.5568 -5.08422 255 0 0
3.2596 10.2802 -4.32046 255 0 0
4.31064 10.2773 -4.3012 255 0 0
6.12935 10.3782 -4.28056 255 0 0
2.64272 12.0576 -4.44202 255 0 0
4.05625 10.6866 -4.26134 255 0 0
4.09749 10.7953 -4.18476 255 0 0
3.60711 10.2667 -4.3414 255 0 0
6.79482 10.9059 -4.3208 255 0 0
6.73698 10.9282 -4.31872 255 0 0
6.37408 10.6766 -4.24587 255 0 0
6.31933 10.6422 -4.23547 255 0 0
6.33217 10.7216 -4.24899 255 0 0
6.01109 10.402 -4.1699 255 0 0
5.97205 10.3913 -4.1647 255 0 0
5.84128 10.3332 -4.14388 255 0 0
5.80165 10.5532 -4.1751 255 0 0
5.64553 10.6244 -4.17302 255 0 0
5.61225 10.6225 -4.1699 255 0 0
2.49013 10.3048 -4.28105 255 0 0
5.58315 10.6899 -4.17823 255 0 0
5.66721 10.9773 -4.2313 255 0 0
5.5563 10.9209 -4.21309 255 0 0
5.53949 10.9843 -4.22194 255 0 0
6.0168 12.0728 -4.43632 255 0 0
5.95357 12.1619 -4.44569 255 0 0
4.966 10.3929 -4.0804 255 0 0
4.21418 10.391 -4.02524 255 0 0
4.17933 10.4113 -4.02628 255 0 0
4.1136 10.4622 -4.03044 255 0 0
4.15916 10.8031 -4.09081 255 0 0
4.30166 11.5808 -4.2313 255 0 0
4.14046 11.3945 -4.18967 255 0 0
4.11734 11.4151 -4.19176 255 0 0
4.04579 10.8134 -4.28406 255 0 0
5.01475 10.2441 -4.35507 255 0 0
6.72619 10.353 -4.54926 255 0 0
6.41087 10.5105 -5.18939 255 0 0
6.17844 10.2383 -4.57295 255 0 0
4.84159 10.2573 -4.34205 255 0 0
6.3153 10.3814 -4.40395 255 0 0
6.8326 10.5715 -5.14949 255 0 0
7.14866 10.7781 -4.44711 255 0 0
6.97749 10.6291 -4.40574 255 0 0
6.63718 10.4312 -4.33934 255 0 0
6.47407 10.3911 -4.31648 255 0 0
6.44941 10.4064 -4.31648 255 0 0
6.41264 10.4021 -4.31213 255 0 0
6.35426 10.4177 -4.30886 255 0 0
6.31163 10.4032 -4.30233 255 0 0
6.281 10.4083 -4.30015 255 0 0
6.16275 10.3785 -4.28382 255 0 0
5.80297 10.38 -4.25008 255 0 0
5.82028 10.4691 -4.26641 255 0 0
5.87589 10.6882 -4.30777 255 0 0
5.91676 10.8233 -4.3339 255 0 0
5.79332 10.7789 -4.31539 255 0 0
5.83012 10.9093 -4.34043 255 0 0
5.69895 10.725 -4.29798 255 0 0
5.5875 10.5757 -4.26314 255 0 0
5.48695 10.6282 -4.26314 255 0 0
5.51165 10.7384 -4.28382 255 0 0
5.60646 10.9872 -4.3339 255 0 0
5.76259 11.3596 -4.4101 255 0 0
5.51285 10.9315 -4.31648 255 0 0
5.46365 10.9304 -4.31213 255 0 0
5.39665 10.8931 -4.30015 255 0 0
5.07933 10.376 -4.18585 255 0 0
4.96446 10.3581 -4.17333 255 0 0
4.92384 10.4316 -4.18259 255 0 0
4.95774 10.5682 -4.20871 255 0 0
4.18677 10.3587 -4.11401 255 0 0
4.11842 10.3303 -4.10421 255 0 0
4.12145 10.4096 -4.11836 255 0 0
4.1136 10.4622 -4.12707 255 0 0
4.15156 10.6327 -4.15973 255 0 0
4.12512 10.6769 -4.16571 255 0 0
4.08671 11.0021 -4.22069 255 0 0
4.0993 11.3651 -4.286 255 0 0
4.10143 11.4561 -4.30233 255 0 0
4.11825 11.6333 -4.33499 255 0 0
4.09017 11.6859 -4.34261 255 0 0
4.10964 11.8314 -4.36982 255 0 0
4.141 12.1066 -4.42098 255 0 0
4.05866 11.9584 -4.38942 255 0 0
4.06702 12.077 -4.41119 255 0 0
3.90921 12.129 -4.41119 255 0 0
3.85381 12.1045 -4.40357 255 0 0
3.81073 12.1181 -4.40357 255 0 0
3.75738 12.0986 -4.39704 255 0 0
3.63089 12.0951 -4.38942 255 0 0
3.59727 12.0872 -4.38615 255 0 0
3.52235 12.0972 -4.38397 255 0 0
3.37913 12.0843 -4.37418 255 0 0
3.35662 12.1144 -4.37853 255 0 0
3.27122 12.0841 -4.36873 255 0 0
3.11625 12.0775 -4.36002 255 0 0
3.02535 12.0798 -4.35621 255 0 0
2.9073 12.094 -4.35349 255 0 0
2.81208 12.0751 -4.34587 255 0 0
2.66253 12.0795 -4.34043 255 0 0
2.58847 12.0838 -4.33825 255 0 0
2.55743 12.0787 -4.33608 255 0 0
2.51094 12.0708 -4.33281 255 0 0
2.46058 12.0434 -4.43179 255 0 0
3.95577 10.2748 -4.27337 255 0 0
5.66543 10.2478 -4.41783 255 0 0
5.91732 10.3528 -4.35906 255 0 0
6.56448 10.5362 -4.99668 255 0 0
2.87067 12.0674 -4.45395 255 0 0
7.24484 10.6469 -4.5477 255 0 0
7.18738 10.6165 -4.53633 255 0 0
6.97842 10.5214 -4.4977 255 0 0
6.88432 10.4872 -4.48179 255 0 0
6.76427 10.4386 -4.46077 255 0 0
6.65738 10.4083 -4.44429 255 0 0
6.62652 10.4144 -4.44202 255 0 0
6.54033 10.3874 -4.42838 255 0 0
6.50044 10.3785 -4.4227 255 0 0
6.37469 10.3956 -4.41247 255 0 0
6.25014 10.3571 -4.39315 255 0 0
6.21078 10.3473 -4.38747 255 0 0
6.15778 10.3421 -4.38122 255 0 0
6.11073 10.3467 -4.37724 255 0 0
5.96128 10.3441 -4.3619 255 0 0
5.85639 10.3313 -4.3494 255 0 0
5.76318 10.3375 -4.34145 255 0 0
5.72498 10.3555 -4.34088 255 0 0
5.51205 10.3436 -4.31872 255 0 0
5.30608 10.3379 -4.29884 255 0 0
5.28939 10.3658 -4.30224 255 0 0
5.24141 10.3322 -4.29202 255 0 0
5.21172 10.3344 -4.28974 255 0 0
5.18463 10.3416 -4.28861 255 0 0
5.16522 10.3641 -4.29088 255 0 0
5.00948 10.3574 -4.27611 255 0 0
4.862 10.3323 -4.25906 255 0 0
4.83251 10.3651 -4.26247 255 0 0
4.79101 10.3401 -4.25452 255 0 0
4.7058 10.316 -4.24315 255 0 0
4.65725 10.3065 -4.23747 255 0 0
4.6328 10.3175 -4.23747 255 0 0
4.59897 10.3075 -4.23293 255 0 0
4.55467 10.3397 -4.2352 255 0 0
4.50523 10.3269 -4.22895 255 0 0
4.42148 10.3349 -4.22384 255 0 0
4.3635 10.3346 -4.21929 255 0 0
4.29996 10.355 -4.21815 255 0 0
4.26883 10.3492 -4.21475 255 0 0
4.24428 10.3593 -4.21475 255 0 0
4.20888 10.3427 -4.20906 255 0 0
4.16135 10.331 -4.20338 255 0 0
4.08734 10.3234 -4.19656 255 0 0
4.08856 10.5451 -4.23747 255 0 0
4.08212 10.603 -4.2477 255 0 0
4.0362 10.9456 -4.30793 255 0 0
4.03425 11.1848 -4.35224 255 0 0
4.0174 11.2213 -4.35793 255 0 0
4.00813 11.3222 -4.37611 255 0 0
3.98492 11.3852 -4.38633 255 0 0
3.99184 11.4922 -4.40679 255 0 0
3.99676 11.776 -4.4602 255 0 0
4.00094 11.9746 -4.4977 255 0 0
4.00507 12.0822 -4.51815 255 0 0
3.97103 12.0753 -4.51474 255 0 0
3.92274 12.0729 -4.51133 255 0 0
3.70583 12.0842 -4.50054 255 0 0
3.66199 12.0946 -4.49997 255 0 0
3.51989 12.0888 -4.49088 255 0 0
3.47371 12.0902 -4.48861 255 0 0
3.44189 12.0874 -4.48633 255 0 0
3.41322 12.0955 -4.48633 255 0 0
3.36325 12.0827 -4.48122 255 0 0
3.27122 12.0841 -4.47667 255 0 0
3.21019 12.0856 -4.47383 255 0 0
3.11912 12.0887 -4.46986 255 0 0
3.06832 12.0691 -4.46361 255 0 0
2.96054 12.0634 -4.45736 255 0 0
2.72047 12.0698 -4.4477 255 0 0
2.56043 12.0225 -4.43179 255 0 0
6.61519 10.3154 -4.53031 255 0 0
6.82198 10.5277 -5.02828 255 0 0
3.50834 10.2968 -4.24614 255 0 0
7.26676 10.571 -4.64872 255 0 0
7.20607 10.5361 -4.63569 255 0 0
6.95024 10.4252 -4.58715 255 0 0
6.8502 10.3814 -4.5682 255 0 0
6.80039 10.3593 -4.55873 255 0 0
6.67361 10.3255 -4.5386 255 0 0
6.57229 10.3292 -4.52794 255 0 0
6.51257 10.3161 -4.51906 255 0 0
6.46213 10.3174 -4.51374 255 0 0
6.40733 10.284 -4.5019 255 0 0
6.36619 10.2994 -4.50012 255 0 0
6.31903 10.3049 -4.49598 255 0 0
6.2886 10.31 -4.49361 255 0 0
6.21627 10.2734 -4.4794 255 0 0
6.06059 10.2896 -4.46578 255 0 0
5.96923 10.2733 -4.45335 255 0 0
7.08064 10.2481 -4.78865 255 0 0
5.91835 10.2696 -4.44743 255 0 0
5.81034 10.2784 -4.43796 255 0 0
5.76066 10.2472 -4.4273 255 0 0
5.73635 10.2608 -4.4273 255 0 0
5.61655 10.2452 -4.4125 255 0 0
5.57597 10.2576 -4.41072 255 0 0
5.32491 10.2546 -4.38586 255 0 0
5.05169 10.2579 -4.36099 255 0 0
4.86835 10.251 -4.34323 255 0 0
4.6667 10.2625 -4.32784 255 0 0
4.63291 10.2526 -4.3231 255 0 0
4.60858 10.2636 -4.3231 255 0 0
4.50712 10.2647 -4.31482 255 0 0
4.06359 10.2635 -4.27929 255 0 0
3.91818 10.2861 -4.27278 255 0 0
3.85827 10.275 -4.26627 255 0 0
3.72643 10.2931 -4.26035 255 0 0
3.61154 10.2793 -4.24969 255 0 0
3.26531 10.2982 -4.23075 255 0 0
3.21132 10.2972 -4.2272 255 0 0
3.15825 10.2986 -4.22424 255 0 0
3.1191 10.3015 -4.22246 255 0 0
3.06531 10.2997 -4.21891 255 0 0
3.04088 10.307 -4.21891 255 0 0
2.98558 10.2992 -4.21417 255 0 0
2.96116 10.3063 -4.21417 255 0 0
2.93357 10.3022 -4.2118 255 0 0
2.82047 10.3219 -4.20944 255 0 0
2.71588 10.3232 -4.20411 255 0 0
2.50944 10.3311 -4.19523 255 0 0
2.45842 10.3345 -4.19345 255 0 0
2.41578 10.3181 -4.18812 255 0 0
3.66093 10.7446 -5.04155 255 0 0
2.90914 10.548 -5.02954 255 0 0
7.36277 10.6026 -4.77741 255 0 0
7.28229 10.5399 -4.75647 255 0 0
7.18919 10.4581 -4.7306 255 0 0
6.95416 10.272 -4.66902 255 0 0
6.91699 10.2694 -4.66409 255 0 0
6.71623 10.2311 -4.6333 255 0 0
6.35977 10.2346 -4.59266 255 0 0
6.26143 10.2381 -4.58219 255 0 0
6.21161 10.2383 -4.57665 255 0 0
6.12102 10.2527 -4.56926 255 0 0
4.60521 10.2561 -4.41899 255 0 0
4.10408 10.2943 -4.38451 255 0 0
4.0628 10.2615 -4.37465 255 0 0
3.71406 10.2589 -4.34756 255 0 0
3.55558 10.2756 -4.33955 255 0 0
3.46379 10.2857 -4.33524 255 0 0
3.16406 10.2741 -4.31307 255 0 0
3.01852 10.276 -4.30445 255 0 0
2.96658 10.2792 -4.30198 255 0 0
2.91156 10.2711 -4.29706 255 0 0
2.859 10.271 -4.29398 255 0 0
2.71822 10.2826 -4.28844 255 0 0
2.46303 10.2996 -4.27858 255 0 0
3.17799 10.496 -4.93849 255 0 0
7.14728 10.2923 -4.80528 255 0 0
2.89732 10.5539 -5.12841 255 0 0
3.321 10.4739 -4.84651 255 0 0
7.18092 10.2886 -4.91861 255 0 0
7.12073 10.254 -4.90402 255 0 0
2.96294 10.5476 -5.03344 255 0 0
7.14399 10.2356 -5.01317 255 0 0
6.91449 10.3715 -5.00905 255 0 0
6.91505 10.4258 -5.02004 255 0 0
6.88404 10.4327 -5.01729 255 0 0
6.87802 10.4776 -5.02554 255 0 0
6.64773 10.558 -5.0118 255 0 0
6.61059 10.5544 -5.0063 255 0 0
4.09133 10.2624 -4.66692 255 0 0
6.99381 10.3835 -5.13244 255 0 0
6.97549 10.4095 -5.13528 255 0 0
6.77987 10.5447 -5.1367 255 0 0
6.72399 10.54 -5.12818 255 0 0
6.66636 10.5597 -5.12462 255 0 0
6.61019 10.5816 -5.12178 255 0 0
6.5399 10.6085 -5.11823 255 0 0
6.99485 10.385 -5.24372 255 0 0
6.97652 10.411 -5.24666 255 0 0
6.90465 10.3568 -5.22463 255 0 0
6.29058 10.2585 -5.11744 255 0 0
3.48954 10.3622 -4.83256 255 0 0
3.45737 10.4715 -4.85679 255 0 0
3.2248 10.4713 -4.83844 255 0 0
3.19665 10.4681 -4.8355 255 0 0
3.15777 10.474 -4.83403 255 0 0
3.11564 10.4688 -4.82963 255 0 0
3.03794 10.4799 -4.82669 255 0 0
3.03016 10.3611 -4.98891 255 0 0
3.60104 10.6933 -5.02336 255 0 0
3.39566 10.4931 -4.95516 255 0 0
3.37422 10.5119 -4.95819 255 0 0
3.34243 10.4983 -4.95213 255 0 0
3.31412 10.4954 -4.9491 255 0 0
3.14497 10.4765 -4.93092 255 0 0
3.06561 10.4823 -4.92637 255 0 0
3.02361 10.4768 -4.92182 255 0 0
2.97389 10.491 -4.92182 255 0 0
2.91274 10.4641 -4.91046 255 0 0
3.62492 10.5569 -5.09047 255 0 0
3.31433 10.41 -5.02485 255 0 0
3.23866 10.2564 -4.97798 255 0 0
3.03701 10.4766 -5.02016 255 0 0
3.01291 10.5335 -5.03344 255 0 0
2.86568 10.5365 -5.02329 255 0 0
2.80252 10.4016 -4.98266 255 0 0
3.61509 10.4076 -5.14934 255 0 0
3.65645 10.6078 -5.20727 255 0 0
3.62218 10.5898 -5.19922 255 0 0
3.56016 10.5306 -5.1775 255 0 0
3.47376 10.4794 -5.15577 255 0 0
2.89892 10.273 -5.05117 255 0 0
2.93217 10.4859 -5.11232 255 0 0
2.91482 10.5199 -5.12037 255 0 0
2.86638 10.539 -5.12198 255 0 0
2.80183 10.399 -5.07853 255 0 0
2.7612 10.3458 -5.06083 255 0 0
3.64769 10.4217 -5.2557 255 0 0
2.84276 10.3552 -5.16627 255 0 0
2.86083 10.618 -5.24245 255 0 0
2.78496 10.4348 -5.18449 255 0 0
2.68284 10.3471 -5.2486 255 0 0
