ply
format ascii 1.0
comment Created by Open3D
element vertex 296
property double x
property double y
property double z
property uchar red
property uchar green
property uchar blue
end_header
13.2877 28.1511 -3.42395 255 0 0
13.0903 28.2518 -2.906 255 0 0
11.0818 28.9888 -5.23581 255 0 0
11.2206 28.5376 -4.68278 255 0 0
11.7977 28.0346 -3.39131 255 0 0
13.5606 28.3798 -2.91519 255 0 0
11.9451 29.5539 -3.72372 255 0 0
13.0075 28.7856 -5.2935 255 0 0
12.1383 29.6268 -3.73131 255 0 0
11.0421 29.0917 -3.16431 255 0 0
11.4644 29.3618 -3.17942 255 0 0
11.1215 29.0928 -3.1654 255 0 0
13.5067 27.9258 -2.64463 255 0 0
11.1112 28.8603 -5.48445 255 0 0
11.3428 28.6488 -3.66618 255 0 0
13.4734 28.1974 -3.68989 255 0 0
13.9455 27.8166 -3.68262 255 0 0
13.3953 28.5543 -2.39322 255 0 0
13.5642 27.876 -5.49297 255 0 0
11.3174 28.5845 -3.40629 255 0 0
10.9953 28.9684 -2.90157 255 0 0
13.4711 27.5185 -4.42414 255 0 0
11.3523 28.4751 -3.65764 255 0 0
12.2477 27.8041 -2.88403 255 0 0
12.7183 27.9689 -3.14964 255 0 0
11.3607 29.3011 -3.69938 255 0 0
13.5905 27.93 -2.90378 255 0 0
11.1265 29.1057 -3.94482 255 0 0
11.803 28.0471 -3.89922 255 0 0
13.1536 28.2129 -3.16475 255 0 0
12.7824 28.1098 -2.8985 255 0 0
11.0571 28.9243 -4.45 255 0 0
12.8649 28.1141 -3.67187 255 0 0
12.839 27.2006 -4.3798 255 0 0
12.9486 27.265 -4.38812 255 0 0
12.8582 27.9242 -3.66238 255 0 0
11.7635 28.1397 -3.9036 255 0 0
12.4772 27.9648 -2.89101 255 0 0
13.6395 28.2004 -2.13018 255 0 0
13.7393 28.0665 -2.64938 255 0 0
12.8162 28.1841 -3.93242 255 0 0
13.7849 27.8248 -3.67914 255 0 0
12.5698 27.6421 -4.14875 255 0 0
13.8026 27.6952 -4.18967 255 0 0
11.9522 29.5716 -3.459 255 0 0
13.2627 28.2717 -3.16847 255 0 0
13.4773 27.8651 -5.22731 255 0 0
11.3025 29.1509 -4.2124 255 0 0
11.3749 28.5319 -3.9171 255 0 0
12.0624 26.8638 -3.83795 255 0 0
13.4418 28.1313 -4.2062 255 0 0
11.8616 27.2774 -2.12361 255 0 0
13.798 27.8512 -3.163 255 0 0
13.5836 28.428 -2.65473 255 0 0
12.279 28.2373 -5.46937 255 0 0
12.4494 27.7257 -3.39024 255 0 0
13.0484 27.308 -4.39458 255 0 0
13.0947 28.0865 -3.41753 255 0 0
12.9819 27.8446 -4.17396 255 0 0
12.7571 28.054 -3.66649 255 0 0
12.5651 27.9832 -2.89254 255 0 0
13.6104 28.3112 -2.65278 255 0 0
11.3103 29.3776 -3.17788 255 0 0
13.5897 28.0975 -3.4277 255 0 0
11.2339 28.9739 -5.24006 255 0 0
11.1425 28.9416 -4.4537 255 0 0
11.4244 29.4652 -3.18248 255 0 0
12.5991 28.2379 -2.64256 255 0 0
11.3073 28.3623 -2.38067 255 0 0
11.417 29.037 -3.94737 255 0 0
11.2539 28.6222 -3.40683 255 0 0
13.9074 27.7404 -3.93679 255 0 0
11.2107 28.9143 -5.75543 255 0 0
13.6532 27.5589 -4.43338 255 0 0
12.9438 28.1102 -3.15796 255 0 0
11.2241 28.5463 -2.38242 255 0 0
11.3365 29.2387 -2.91247 255 0 0
11.1734 28.6165 -2.383 255 0 0
13.8561 27.8025 -3.67977 255 0 0
12.3565 28.0509 -2.63697 255 0 0
13.5053 27.7549 -5.73783 255 0 0
13.698 27.6494 -4.18347 255 0 0
13.3012 28.3537 -2.91128 255 0 0
12.8733 28.1324 -3.93096 255 0 0
12.6255 27.9403 -3.14723 255 0 0
13.794 28.0098 -3.16825 255 0 0
13.2497 28.0706 -3.67851 255 0 0
13.3335 27.5677 -4.16694 255 0 0
12.2509 29.7006 -3.73732 255 0 0
12.7738 28.2685 -2.64463 255 0 0
12.1147 29.7702 -3.20262 255 0 0
12.3087 28.3055 -5.2182 255 0 0
12.5257 27.8954 -3.14417 255 0 0
13.1985 28.1348 -3.42154 255 0 0
13.7829 27.8206 -3.42021 255 0 0
12.203 29.7847 -3.20438 255 0 0
12.5093 29.9239 -3.21357 255 0 0
11.8785 27.8564 -3.89011 255 0 0
13.7401 27.9004 -3.42261 255 0 0
12.1699 29.704 -3.46837 255 0 0
12.3554 27.0006 -4.34932 255 0 0
13.5389 27.4917 -4.4246 255 0 0
13.5962 28.2817 -3.17416 255 0 0
12.6568 28.0096 -3.66207 255 0 0
13.1484 28.0279 -3.67408 255 0 0
13.1821 28.6276 -2.39293 255 0 0
12.127 28.2534 -2.12777 255 0 0
12.3915 29.8407 -4.01667 255 0 0
11.4642 29.3612 -3.70443 255 0 0
13.5873 28.2632 -2.91247 255 0 0
12.6636 27.3309 -5.64773 255 0 0
13.0975 27.9195 -4.18223 255 0 0
11.4632 29.1544 -3.694 255 0 0
13.5082 28.0988 -2.38869 255 0 0
12.4237 27.8449 -3.14088 255 0 0
11.0744 28.9696 -4.19463 255 0 0
13.7975 27.6849 -4.70625 255 0 0
13.4764 28.5509 -2.1312 255 0 0
12.8961 28.5392 -2.39045 255 0 0
12.7726 27.3957 -5.6604 255 0 0
12.5465 27.7654 -3.39372 255 0 0
13.4483 27.9741 -2.12898 255 0 0
13.5081 28.2701 -2.1302 255 0 0
13.5189 28.466 -2.13095 255 0 0
13.4335 28.6358 -2.13144 255 0 0
13.3903 28.7206 -2.13168 255 0 0
13.1906 28.8258 -2.13173 255 0 0
13.0931 28.793 -2.13144 255 0 0
12.9886 28.7439 -2.13108 255 0 0
12.8581 28.6358 -2.13044 255 0 0
12.7663 28.6127 -2.1302 255 0 0
12.6533 28.5412 -2.12974 255 0 0
12.5526 28.4961 -2.1294 255 0 0
12.4498 28.4453 -2.12903 255 0 0
11.8257 27.7327 -2.12529 255 0 0
11.2728 28.4719 -3.91126 255 0 0
12.3417 29.9208 -2.94176 255 0 0
12.751 27.8651 -3.40174 255 0 0
12.3292 28.1698 -2.38337 255 0 0
12.4476 27.8985 -3.65195 255 0 0
13.7695 28.1282 -2.39045 255 0 0
13.5901 28.0983 -2.38913 255 0 0
13.4954 28.4164 -2.3922 255 0 0
13.4555 28.5066 -2.393 255 0 0
13.08 28.5842 -2.39191 255 0 0
12.7901 28.4843 -2.38928 255 0 0
12.6509 28.3541 -2.38709 255 0 0
12.5552 28.3198 -2.38621 255 0 0
12.0223 28.0093 -2.38001 255 0 0
11.4034 29.2055 -3.95685 255 0 0
12.0375 29.7826 -3.20197 255 0 0
13.7275 28.0424 -3.16825 255 0 0
13.0596 28.1856 -3.16234 255 0 0
11.003 28.9887 -3.41833 255 0 0
13.706 28.1674 -2.65096 255 0 0
13.5136 28.4548 -2.65461 255 0 0
13.2861 28.4971 -2.65339 255 0 0
13.1939 28.4754 -2.65217 255 0 0
13.0897 28.4269 -2.65035 255 0 0
13.0076 28.4259 -2.64962 255 0 0
12.9062 28.3821 -2.64792 255 0 0
12.6756 28.2293 -2.64305 255 0 0
12.468 28.1232 -2.63928 255 0 0
11.8381 27.2234 -2.61689 255 0 0
12.0847 27.9715 -2.6332 255 0 0
13.3275 28.0628 -4.19835 255 0 0
13.7745 27.9703 -2.90719 255 0 0
12.0416 29.5905 -3.72751 255 0 0
13.4855 27.7142 -3.92366 255 0 0
12.5859 27.3328 -5.13744 255 0 0
13.5547 28.0251 -4.7236 255 0 0
12.8929 28.1752 -2.90157 255 0 0
11.9127 27.3949 -2.86921 255 0 0
12.3038 29.8288 -2.93887 255 0 0
12.2352 29.8633 -2.93904 255 0 0
12.0013 29.6931 -2.93188 255 0 0
11.8677 29.564 -2.92694 255 0 0
11.6756 29.4893 -2.92286 255 0 0
11.4463 29.3154 -2.91571 255 0 0
12.2984 29.8159 -4.01303 255 0 0
13.6352 28.1915 -3.17175 255 0 0
12.9715 27.9954 -3.41138 255 0 0
11.3781 29.346 -3.43974 255 0 0
11.269 28.8613 -3.41726 255 0 0
13.6916 27.8019 -3.93424 255 0 0
13.5484 27.8434 -3.15862 255 0 0
13.3647 28.3142 -3.17153 255 0 0
12.8528 28.0876 -3.15577 255 0 0
12.3363 27.8261 -3.13891 255 0 0
12.4271 29.9264 -3.21248 255 0 0
12.3115 29.8476 -3.2081 255 0 0
11.908 29.6644 -3.19606 255 0 0
11.79 29.573 -3.19124 255 0 0
11.7004 29.5519 -3.18927 255 0 0
11.5854 29.4652 -3.18467 255 0 0
13.8787 27.6833 -4.19132 255 0 0
11.2675 28.8575 -4.19215 255 0 0
11.7834 27.6333 -3.62445 255 0 0
11.2291 29.1665 -3.95065 255 0 0
13.8488 27.7878 -3.42021 255 0 0
13.6765 27.9382 -3.42288 255 0 0
13.5539 27.8548 -3.41699 255 0 0
13.3694 28.1512 -3.42556 255 0 0
12.8635 27.9358 -3.40683 255 0 0
12.6607 27.842 -3.39907 255 0 0
12.3718 27.7284 -3.3889 255 0 0
12.2538 27.64 -3.38301 255 0 0
11.7876 28.1974 -3.398 255 0 0
12.3735 29.7973 -3.47586 255 0 0
12.2693 29.7454 -3.47184 255 0 0
12.0598 29.6353 -3.46355 255 0 0
11.6686 29.0679 -3.43278 255 0 0
11.3397 28.4435 -3.40067 255 0 0
11.2623 29.2528 -3.43385 255 0 0
11.1469 29.1592 -3.42796 255 0 0
12.7618 27.7149 -4.15908 255 0 0
13.7396 27.8993 -3.68167 255 0 0
13.5886 27.7585 -3.67124 255 0 0
12.7638 28.2464 -3.93461 255 0 0
13.5406 27.8275 -3.67345 255 0 0
13.3363 28.0814 -3.68104 255 0 0
13.03 27.9477 -3.66744 255 0 0
12.9022 27.8459 -3.65954 255 0 0
12.5473 27.9435 -3.65638 255 0 0
11.8683 28.0165 -3.64531 255 0 0
11.8314 28.1146 -3.64942 255 0 0
11.7782 28.1749 -3.65132 255 0 0
12.3908 29.8389 -3.74712 255 0 0
11.7487 29.2675 -3.70538 255 0 0
11.2576 29.2407 -3.69432 255 0 0
11.0755 28.9724 -3.67724 255 0 0
13.8442 27.7786 -3.93716 255 0 0
13.7368 27.7275 -3.93132 255 0 0
13.5383 27.6559 -3.92184 255 0 0
11.8466 27.9652 -3.89558 255 0 0
11.6743 28.1136 -3.89995 255 0 0
11.913 29.4746 -3.98421 255 0 0
11.8018 29.3997 -3.97728 255 0 0
11.294 29.1289 -3.94992 255 0 0
12.4248 27.4962 -4.13511 255 0 0
13.5834 27.5822 -4.17562 255 0 0
13.5103 27.5986 -4.17438 255 0 0
13.409 27.557 -4.16859 255 0 0
13.5186 28.1204 -4.20785 255 0 0
13.1961 27.957 -4.1876 255 0 0
12.8692 27.7746 -4.16611 255 0 0
12.6426 27.6282 -4.14999 255 0 0
12.0294 26.7903 -4.07808 255 0 0
11.1641 28.9978 -4.19876 255 0 0
13.6107 27.9716 -4.98224 255 0 0
13.8335 27.593 -4.44215 255 0 0
13.7472 27.5839 -4.43846 255 0 0
13.3598 27.4559 -4.41583 255 0 0
13.2693 27.4349 -4.41121 255 0 0
13.1587 27.3716 -4.4029 255 0 0
12.7324 27.1411 -4.37195 255 0 0
12.6359 27.1025 -4.36595 255 0 0
12.5225 27.0264 -4.35671 255 0 0
12.4413 27.0189 -4.35348 255 0 0
12.2333 26.9023 -4.33824 255 0 0
12.1311 26.8461 -4.33085 255 0 0
11.249 29.013 -4.46201 255 0 0
13.6298 27.8429 -5.75402 255 0 0
13.8788 27.6834 -4.70931 255 0 0
13.6326 27.682 -4.69962 255 0 0
13.5233 27.6252 -4.69094 255 0 0
13.4424 27.6257 -4.68788 255 0 0
12.8229 27.6746 -4.66849 255 0 0
12.6377 27.4453 -4.64348 255 0 0
12.5388 27.5739 -4.65012 255 0 0
11.2539 29.0256 -4.7236 255 0 0
11.1704 29.0141 -4.72003 255 0 0
13.5723 28.0615 -4.98839 255 0 0
12.7641 27.5477 -4.91071 255 0 0
12.5817 27.3238 -4.88389 255 0 0
12.5412 27.4066 -4.88948 255 0 0
11.2664 29.0578 -4.98783 255 0 0
11.1346 28.9213 -4.97106 255 0 0
13.6121 27.9745 -5.2437 255 0 0
12.6727 27.3505 -5.14291 255 0 0
12.5574 27.442 -5.14655 255 0 0
11.1609 28.9896 -5.23885 255 0 0
13.455 27.8191 -5.48183 255 0 0
12.6466 27.2941 -5.38939 255 0 0
12.5721 27.3029 -5.38677 255 0 0
13.0221 28.818 -5.56312 255 0 0
12.3459 28.2081 -5.46937 255 0 0
11.8751 27.4865 -5.37366 255 0 0
11.1865 28.6501 -5.46544 255 0 0
11.2048 28.899 -5.49232 255 0 0
13.4445 27.7973 -5.73924 255 0 0
12.5696 27.2975 -5.63928 255 0 0
11.1672 28.6007 -5.71812 255 0 0
11.0941 28.816 -5.73924 255 0 0
12.0726 29.4665 -3.98749 255 0 0
12.0225 29.5437 -3.99078 255 0 0
