ply
format ascii 1.0
comment Created by Open3D
element vertex 633
property double x
property double y
property double z
property uchar red
property uchar green
property uchar blue
end_header
13.6515 6.22733 -3.94371 255 0 0
15.7876 6.75426 -3.2151 255 0 0
13.7413 6.15059 -4.97837 255 0 0
13.6456 6.06894 -4.31449 255 0 0
13.6352 6.29815 -3.56599 255 0 0
13.0874 6.19639 -4.61533 255 0 0
13.709 6.01945 -4.44798 255 0 0
14.3852 6.23516 -4.03096 255 0 0
13.359 7.03779 -4.46877 255 0 0
13.8224 6.46433 -3.4629 255 0 0
15.8496 6.25357 -4.4958 255 0 0
12.9454 6.56702 -4.49738 255 0 0
13.6933 7.67662 -3.76878 255 0 0
13.7822 7.30254 -3.49531 255 0 0
13.7925 7.18278 -3.49084 255 0 0
13.5577 7.68534 -4.28279 255 0 0
14.5183 6.12994 -4.84637 255 0 0
13.0826 6.19414 -4.8636 255 0 0
15.2165 6.21326 -4.40754 255 0 0
13.1193 6.32612 -4.50581 255 0 0
15.6911 6.80117 -3.21015 255 0 0
12.9435 6.01595 -5.19544 255 0 0
13.6754 6.16003 -4.70899 255 0 0
15.5433 7.09029 -3.20891 255 0 0
14.2812 7.43732 -4.22203 255 0 0
13.582 6.15676 -4.69338 255 0 0
13.437 6.16801 -4.92496 255 0 0
16.099 6.22002 -4.52805 255 0 0
13.3858 6.22154 -4.53957 255 0 0
15.093 6.24648 -4.11596 255 0 0
13.8654 6.72648 -3.34828 255 0 0
14.9174 6.1324 -4.77486 255 0 0
15.9692 6.34456 -3.21593 255 0 0
15.8611 6.56439 -3.21469 255 0 0
16.2336 6.27203 -3.96086 255 0 0
15.0872 6.2441 -3.97732 255 0 0
14.3543 6.18137 -4.4221 255 0 0
14.11 6.11587 -4.90975 255 0 0
14.7071 6.20965 -4.47411 255 0 0
13.8995 6.94776 -3.35951 255 0 0
15.085 6.15954 -4.52523 255 0 0
14.2082 7.52823 -3.6765 255 0 0
13.7819 7.72627 -3.64735 255 0 0
14.2504 6.13663 -4.53679 255 0 0
13.2826 6.17357 -4.64551 255 0 0
15.875 6.43824 -3.21221 255 0 0
13.4135 6.17647 -4.41444 255 0 0
14.5521 6.18492 -4.04827 255 0 0
15.1615 6.23276 -4.12349 255 0 0
14.8072 7.40146 -3.30975 255 0 0
13.668 6.23485 -4.07315 255 0 0
14.5768 6.15464 -4.72224 255 0 0
15.4046 6.20498 -4.01111 255 0 0
14.1577 7.24544 -3.92593 255 0 0
14.065 6.29547 -3.60667 255 0 0
16.1648 6.15748 -5.12424 255 0 0
13.8264 6.38649 -3.46011 255 0 0
14.6723 6.27714 -3.52996 255 0 0
13.835 7.41476 -3.37328 255 0 0
14.9933 6.37243 -3.28896 255 0 0
16.1139 6.31373 -3.51413 255 0 0
15.7152 6.15753 -4.6158 255 0 0
16.1522 6.32875 -3.37256 255 0 0
13.5087 6.12355 -4.80634 255 0 0
12.9815 6.52742 -4.49986 255 0 0
15.7599 6.30472 -3.343 255 0 0
15.5454 6.13356 -4.73237 255 0 0
13.3113 6.14857 -5.02761 255 0 0
13.883 6.98069 -3.35951 255 0 0
15.4855 6.2803 -3.60204 255 0 0
13.3584 6.8764 -4.45648 255 0 0
15.0494 6.27026 -3.42636 255 0 0
13.3729 7.08568 -4.47444 255 0 0
13.3559 6.71565 -4.4442 255 0 0
13.1542 6.18988 -4.62574 255 0 0
15.23 6.21875 -4.13101 255 0 0
15.174 6.02862 -5.08937 255 0 0
13.599 7.70874 -4.1572 255 0 0
13.2414 6.15439 -4.7628 255 0 0
15.2345 6.22061 -4.27086 255 0 0
12.9515 6.11329 -5.20631 255 0 0
14.5426 7.66131 -3.30051 255 0 0
15.4459 7.13453 -3.20395 255 0 0
14.4962 6.28327 -3.91326 255 0 0
14.8048 6.92378 -3.29312 255 0 0
12.8571 6.19972 -4.82383 255 0 0
15.7715 6.79167 -3.2151 255 0 0
13.5062 6.27749 -4.30822 255 0 0
14.4825 6.15533 -4.70735 255 0 0
15.5828 6.14831 -4.88208 255 0 0
13.6205 6.0965 -4.56737 255 0 0
13.556 7.81229 -4.42479 255 0 0
13.7915 7.43357 -3.50202 255 0 0
13.5917 6.16114 -4.95224 255 0 0
12.934 6.23677 -4.59347 255 0 0
12.9293 6.65553 -4.50184 255 0 0
14.828 7.28051 -3.30698 255 0 0
16.2229 7.58701 -4.16879 255 0 0
14.2817 6.10999 -4.93915 255 0 0
14.3649 6.10537 -4.9533 255 0 0
13.7912 6.09459 -5.24421 255 0 0
13.9227 6.15269 -5.01133 255 0 0
14.3221 6.12729 -5.08178 255 0 0
15.7175 6.68025 -3.20849 255 0 0
14.5476 6.34656 -3.38859 255 0 0
13.9458 7.17879 -3.37226 255 0 0
15.5992 6.93781 -3.20808 255 0 0
12.8367 7.43833 -4.55248 255 0 0
14.1215 6.12088 -5.17799 255 0 0
15.8212 6.19907 -4.48901 255 0 0
13.4315 6.59486 -4.31898 255 0 0
15.5388 7.04377 -3.20725 255 0 0
14.7462 6.26741 -3.5361 255 0 0
13.5735 6.15292 -4.43664 255 0 0
14.7933 7.35075 -3.30698 255 0 0
15.0189 7.4185 -3.18535 255 0 0
13.6405 7.64699 -4.0257 255 0 0
14.6097 6.29134 -3.39166 255 0 0
13.4773 6.1093 -5.18386 255 0 0
13.8328 7.45584 -3.37482 255 0 0
15.2273 6.13357 -4.96501 255 0 0
16.1101 7.58084 -4.0061 255 0 0
15.9389 6.42022 -3.21593 255 0 0
15.3337 6.13423 -4.70024 255 0 0
14.7004 7.61135 -3.30975 255 0 0
15.3417 6.01117 -5.11767 255 0 0
15.1517 7.30617 -3.19031 255 0 0
13.7963 6.81458 -3.47519 255 0 0
15.8833 6.31044 -3.35223 255 0 0
13.0404 6.42202 -4.50085 255 0 0
15.046 6.35275 -3.2922 255 0 0
15.3774 7.77784 -3.79673 255 0 0
14.8797 6.28256 -3.41309 255 0 0
13.3922 7.59148 -4.51695 255 0 0
14.1008 6.15165 -4.64679 255 0 0
15.2516 6.26979 -3.44269 255 0 0
15.7528 6.00057 -5.18952 255 0 0
16.1902 6.25523 -4.24835 255 0 0
14.3244 6.12828 -5.21706 255 0 0
12.738 5.99405 -4.90684 255 0 0
13.2982 6.18082 -4.9011 255 0 0
13.1648 6.19489 -4.87837 255 0 0
12.8405 6.00513 -4.92697 255 0 0
14.761 6.43965 -3.27419 255 0 0
15.2533 7.31062 -3.19692 255 0 0
13.3501 6.24348 -4.5356 255 0 0
14.8159 7.31824 -3.30744 255 0 0
13.4374 6.16821 -4.67049 255 0 0
14.6202 7.61383 -3.3042 255 0 0
15.6365 5.99875 -5.16883 255 0 0
13.7799 6.12869 -5.11405 255 0 0
15.2391 6.22248 -3.85466 255 0 0
14.5887 6.20046 -3.9196 255 0 0
14.4083 6.28579 -3.50704 255 0 0
14.9292 7.50678 -3.18245 255 0 0
13.2977 6.14228 -4.7715 255 0 0
13.7995 7.48014 -3.50481 255 0 0
16.341 7.59508 -4.18216 255 0 0
15.1174 6.06849 -5.22269 255 0 0
15.1011 6.12438 -5.22382 255 0 0
14.8308 7.19483 -3.3042 255 0 0
13.5739 6.23083 -4.18775 255 0 0
14.2481 6.25614 -3.62246 255 0 0
12.867 6.09208 -5.06315 255 0 0
13.4004 7.42913 -4.37458 255 0 0
12.8114 6.2715 -4.5763 255 0 0
13.4572 6.17725 -4.54751 255 0 0
15.4172 7.21016 -3.20436 255 0 0
15.394 6.24318 -3.8717 255 0 0
14.8523 6.27097 -3.5456 255 0 0
13.4478 7.02359 -4.35126 255 0 0
12.7315 7.45828 -4.53858 255 0 0
15.6526 6.60889 -3.20229 255 0 0
15.6067 6.11501 -5.02745 255 0 0
14.7591 6.19043 -4.48039 255 0 0
15.3027 6.29081 -3.72508 255 0 0
14.2703 7.34582 -4.07911 255 0 0
12.8439 6.00674 -5.05084 255 0 0
14.5508 6.18435 -4.31589 255 0 0
15.5837 6.19139 -4.59876 255 0 0
13.0057 6.1955 -4.84997 255 0 0
15.7045 6.28257 -3.6216 255 0 0
15.1554 7.41897 -3.19403 255 0 0
13.3775 6.56831 -4.43664 255 0 0
14.9753 6.2811 -3.42074 255 0 0
15.2603 6.14688 -4.83046 255 0 0
13.7996 7.56511 -3.50872 255 0 0
14.8095 6.9688 -3.29497 255 0 0
13.4045 6.23022 -4.4168 255 0 0
14.6944 6.57718 -3.4085 255 0 0
13.0362 6.21006 -4.60804 255 0 0
15.9336 6.15612 -4.79283 255 0 0
14.5044 6.12409 -5.11473 255 0 0
13.607 7.50151 -3.62003 255 0 0
13.8774 6.17206 -4.61304 255 0 0
13.5116 6.1635 -4.42814 255 0 0
13.4314 6.12691 -4.79328 255 0 0
14.7951 6.62227 -3.2825 255 0 0
13.7033 6.27056 -3.82492 255 0 0
15.3485 6.30964 -3.31298 255 0 0
15.3663 6.18955 -4.56738 255 0 0
13.8855 6.65509 -3.60546 255 0 0
13.5415 7.76122 -4.55191 255 0 0
15.3627 6.27293 -3.59086 255 0 0
16.1871 6.2982 -3.66518 255 0 0
14.9093 6.42037 -3.28435 255 0 0
15.5784 6.31796 -3.33007 255 0 0
14.8193 7.01639 -3.29728 255 0 0
14.4075 6.12346 -5.23245 255 0 0
13.6335 6.18008 -4.57531 255 0 0
14.7168 6.13172 -4.60671 255 0 0
14.3936 6.15787 -4.69345 255 0 0
13.4854 7.64434 -4.40237 255 0 0
14.4221 7.7294 -4.25805 255 0 0
15.4044 7.07108 -3.1994 255 0 0
13.965 7.23061 -3.37584 255 0 0
13.452 7.12757 -4.35933 255 0 0
15.3828 7.28319 -3.20436 255 0 0
13.3724 6.82358 -4.45459 255 0 0
13.8556 6.12306 -4.86621 255 0 0
15.7914 6.10116 -5.05763 255 0 0
13.8127 6.74141 -3.47352 255 0 0
13.4155 7.52088 -4.38354 255 0 0
12.8792 7.34112 -4.55049 255 0 0
13.8735 6.66955 -3.34675 255 0 0
12.9568 7.34471 -4.5624 255 0 0
13.6547 6.18973 -4.32346 255 0 0
13.9161 7.12179 -3.36767 255 0 0
13.3866 6.37695 -4.42436 255 0 0
14.4642 6.1071 -4.97071 255 0 0
15.2634 6.317 -3.30698 255 0 0
13.6638 6.15484 -4.96474 255 0 0
15.3866 7.32969 -3.20601 255 0 0
16.1745 6.24918 -4.0998 255 0 0
14.7 6.62158 -3.41054 255 0 0
15.2431 7.70994 -4.35731 255 0 0
13.3558 6.97552 -4.46357 255 0 0
15.0374 6.22347 -3.83368 255 0 0
15.477 6.14902 -4.86521 255 0 0
15.0987 6.33287 -3.29543 255 0 0
14.6142 6.12968 -5.13519 255 0 0
13.3663 7.1228 -4.47632 255 0 0
15.8833 6.6177 -3.21758 255 0 0
13.7934 6.97668 -3.4819 255 0 0
14.4442 6.13905 -4.56608 255 0 0
13.5323 6.13422 -5.06787 255 0 0
12.9799 6.22102 -4.59972 255 0 0
14.7215 6.67328 -3.41411 255 0 0
15.5927 7.0237 -3.21015 255 0 0
13.8344 6.31076 -3.58542 255 0 0
14.1669 6.14052 -4.52451 255 0 0
13.3144 6.26529 -4.53163 255 0 0
13.263 6.27956 -4.52468 255 0 0
12.8629 6.12749 -5.06562 255 0 0
13.8023 6.2566 -3.83513 255 0 0
13.4588 7.21315 -4.3665 255 0 0
15.028 6.13628 -5.21132 255 0 0
15.1239 6.09191 -5.08501 255 0 0
14.7954 6.12333 -4.61805 255 0 0
15.4 7.2467 -3.20436 255 0 0
14.6728 6.27733 -3.39625 255 0 0
16.0029 6.40193 -3.21965 255 0 0
15.8488 6.47144 -3.21139 255 0 0
15.7254 6.46459 -3.20312 255 0 0
15.749 6.60565 -3.20849 255 0 0
15.5892 6.80099 -3.20353 255 0 0
15.7093 6.91995 -3.21469 255 0 0
15.5294 6.95092 -3.20395 255 0 0
15.4289 7.17113 -3.20395 255 0 0
15.2447 7.39561 -3.19899 255 0 0
15.1945 6.33072 -3.30236 255 0 0
14.8113 6.67172 -3.28527 255 0 0
15.6691 6.31154 -3.33653 255 0 0
13.3645 7.22389 -4.48388 255 0 0
14.6726 6.52573 -3.40492 255 0 0
16.0177 6.31989 -3.3624 255 0 0
15.4715 6.31737 -3.32222 255 0 0
14.9459 6.39418 -3.28619 255 0 0
14.8297 6.42784 -3.2788 255 0 0
14.9381 6.55911 -3.29081 255 0 0
14.837 6.55676 -3.28342 255 0 0
14.7948 6.58006 -3.28111 255 0 0
14.8327 6.72369 -3.2885 255 0 0
14.8326 6.7661 -3.28989 255 0 0
14.8164 6.82249 -3.29058 255 0 0
14.8159 6.8862 -3.29266 255 0 0
14.908 7.10171 -3.30651 255 0 0
14.8169 7.12306 -3.30074 255 0 0
14.8242 7.2351 -3.30513 255 0 0
14.7531 7.41819 -3.30651 255 0 0
14.7511 7.46105 -3.3079 255 0 0
14.7281 7.49336 -3.30744 255 0 0
14.6947 7.52028 -3.30605 255 0 0
14.682 7.55778 -3.30651 255 0 0
14.5814 7.63764 -3.30236 255 0 0
13.375 6.13954 -4.78457 255 0 0
13.367 6.62225 -4.43901 255 0 0
12.7635 6.72406 -4.48199 255 0 0
14.36 7.30606 -4.36002 255 0 0
14.4317 6.13375 -5.10223 255 0 0
14.5485 6.18339 -4.4499 255 0 0
13.7988 7.39535 -3.5009 255 0 0
15.0953 6.28939 -3.70504 255 0 0
16.2158 6.30934 -3.5223 255 0 0
15.8344 6.291 -3.49066 255 0 0
15.7165 6.28736 -3.48096 255 0 0
15.5676 6.31359 -3.46974 255 0 0
15.3798 6.27992 -3.45341 255 0 0
15.1666 6.27694 -3.43605 255 0 0
14.7682 6.27675 -3.4039 255 0 0
14.5752 6.39979 -3.39268 255 0 0
14.6134 6.45791 -3.39778 255 0 0
13.9475 6.40233 -3.34266 255 0 0
13.9852 6.45984 -3.34777 255 0 0
13.9434 6.48069 -3.34522 255 0 0
13.9097 6.52528 -3.3442 255 0 0
13.8917 6.57721 -3.34471 255 0 0
13.8813 6.61264 -3.34522 255 0 0
13.8599 6.76446 -3.3493 255 0 0
13.8648 6.80758 -3.35134 255 0 0
13.8692 6.8711 -3.35415 255 0 0
13.9184 7.03992 -3.36461 255 0 0
13.9121 7.07819 -3.36563 255 0 0
13.9789 7.27986 -3.3789 255 0 0
13.9409 7.30216 -3.37686 255 0 0
13.8607 7.32306 -3.3715 255 0 0
13.832 7.37096 -3.37124 255 0 0
13.8459 7.5053 -3.37788 255 0 0
13.8549 7.57409 -3.38145 255 0 0
13.8636 7.64302 -3.38502 255 0 0
13.8608 7.68436 -3.38655 255 0 0
14.4873 6.27942 -3.51375 255 0 0
16.1103 6.26833 -4.23933 255 0 0
13.7976 7.01994 -3.48413 255 0 0
13.0047 6.4812 -4.49986 255 0 0
14.215 6.1214 -5.19575 255 0 0
14.937 6.26505 -3.55287 255 0 0
13.3773 6.48966 -4.43097 255 0 0
13.155 6.30497 -4.50979 255 0 0
15.0721 6.11262 -5.07739 255 0 0
13.3748 7.16812 -4.48105 255 0 0
14.7136 6.13036 -5.15337 255 0 0
16.1504 6.32805 -3.66295 255 0 0
13.0646 6.03458 -5.09641 255 0 0
16.0324 6.32568 -3.65233 255 0 0
15.8548 6.29912 -3.63557 255 0 0
15.6031 6.28494 -3.61266 255 0 0
15.2561 6.27167 -3.58136 255 0 0
15.1443 6.2677 -3.57131 255 0 0
15.0379 6.26548 -3.56181 255 0 0
14.5825 6.27964 -3.52213 255 0 0
14.3506 6.30119 -3.50257 255 0 0
14.2877 6.31399 -3.49755 255 0 0
14.2194 6.32416 -3.49196 255 0 0
14.2682 6.38643 -3.49866 255 0 0
14.3198 6.47075 -3.50649 255 0 0
13.8512 6.31843 -3.45955 255 0 0
13.8097 6.3391 -3.45675 255 0 0
13.8165 6.42171 -3.46067 255 0 0
13.8151 6.52091 -3.46458 255 0 0
13.8076 6.57752 -3.46625 255 0 0
13.8025 6.61528 -3.46737 255 0 0
13.7998 6.67448 -3.46961 255 0 0
13.8019 6.77671 -3.47408 255 0 0
13.798 6.8766 -3.47799 255 0 0
13.7891 6.93348 -3.47966 255 0 0
13.7965 7.0606 -3.48581 255 0 0
13.7946 7.12165 -3.48833 255 0 0
13.7909 7.22358 -3.49252 255 0 0
13.7943 7.26712 -3.49475 255 0 0
13.7854 7.34616 -3.49755 255 0 0
13.8073 7.52679 -3.5076 255 0 0
13.8123 7.61469 -3.51207 255 0 0
13.713 6.13792 -5.10221 255 0 0
13.8146 7.65872 -3.51431 255 0 0
13.7811 7.68294 -3.51263 255 0 0
13.3899 6.61387 -4.31449 255 0 0
13.7035 6.0947 -5.22697 255 0 0
15.0334 6.13846 -4.79372 255 0 0
15.7312 7.63161 -3.97004 255 0 0
14.059 6.13342 -4.7704 255 0 0
13.7362 6.86615 -4.37996 255 0 0
16.1845 6.29719 -3.81069 255 0 0
16.1478 6.32704 -3.80826 255 0 0
15.3984 6.28753 -3.73419 255 0 0
14.7298 6.3017 -3.67043 255 0 0
14.6024 6.28823 -3.65768 255 0 0
14.5073 6.2881 -3.64857 255 0 0
14.391 6.27823 -3.63703 255 0 0
14.1895 6.15032 -4.66069 255 0 0
14.1592 6.27726 -3.61487 255 0 0
13.9969 6.30488 -3.6006 255 0 0
13.9183 6.3092 -3.59331 255 0 0
13.7718 6.32168 -3.57995 255 0 0
13.805 6.41637 -3.58724 255 0 0
13.8214 6.46389 -3.59088 255 0 0
13.7428 6.46688 -3.5836 255 0 0
13.738 6.50443 -3.58481 255 0 0
13.7541 6.55202 -3.58846 255 0 0
13.8907 6.69811 -3.60789 255 0 0
14.4269 7.60039 -3.70018 255 0 0
13.7914 7.66729 -3.64523 255 0 0
14.3469 6.21857 -4.29043 255 0 0
13.4003 6.11273 -5.16908 255 0 0
14.6735 6.11367 -5.00773 255 0 0
14.2305 7.36806 -4.34729 255 0 0
14.2524 7.27258 -4.07271 255 0 0
12.9228 6.19367 -5.20823 255 0 0
13.3848 6.18253 -4.53659 255 0 0
13.5538 6.26057 -4.1869 255 0 0
14.4221 6.17008 -4.43107 255 0 0
14.187 7.30293 -3.93227 255 0 0
13.8466 6.15834 -4.73709 255 0 0
16.1374 6.27885 -3.95103 255 0 0
15.2512 6.26965 -3.85794 255 0 0
14.5934 6.24338 -3.78844 255 0 0
14.4931 6.24115 -3.77795 255 0 0
14.4729 6.27318 -3.7773 255 0 0
13.8316 6.26988 -3.71108 255 0 0
13.7373 6.26644 -3.70125 255 0 0
13.7012 6.28928 -3.69863 255 0 0
16.2493 7.59931 -4.02118 255 0 0
14.424 7.68643 -3.84155 255 0 0
13.7928 7.68947 -3.77927 255 0 0
12.9499 6.05631 -5.20055 255 0 0
15.2257 6.00741 -5.09699 255 0 0
14.4667 7.7092 -4.12349 255 0 0
16.1217 6.27276 -4.09487 255 0 0
15.3467 6.22401 -4.00548 255 0 0
15.2566 6.22962 -3.99562 255 0 0
14.5686 6.23275 -3.91889 255 0 0
14.4737 6.23279 -3.90834 255 0 0
15.6845 7.60898 -4.11106 255 0 0
15.609 7.6181 -4.10332 255 0 0
14.2574 7.38198 -3.94424 255 0 0
14.5126 7.73364 -3.9914 255 0 0
13.7054 7.68338 -3.9027 255 0 0
13.6162 7.67589 -3.89285 255 0 0
14.8117 6.13008 -4.89528 255 0 0
12.8011 6.21013 -4.81474 255 0 0
13.5955 6.12407 -4.31091 255 0 0
13.3584 7.24104 -4.35485 255 0 0
15.3533 6.18432 -4.42451 255 0 0
14.9883 6.12006 -5.06324 255 0 0
15.7951 6.14568 -4.7711 255 0 0
15.6514 6.13252 -4.74843 255 0 0
12.722 6.74079 -4.47702 255 0 0
15.3455 6.18117 -4.14304 255 0 0
14.4586 6.2263 -4.03924 255 0 0
13.6166 6.28956 -3.94296 255 0 0
16.2061 7.57911 -4.31756 255 0 0
15.6055 7.57064 -4.24685 255 0 0
15.6762 7.65092 -4.25964 255 0 0
14.2096 7.4 -4.07535 255 0 0
13.6172 7.67646 -4.02495 255 0 0
13.4408 6.75833 -4.33153 255 0 0
14.239 7.3297 -4.21002 255 0 0
14.8024 6.1262 -5.16928 255 0 0
14.0281 6.15954 -4.63587 255 0 0
13.9244 6.15344 -4.74958 255 0 0
15.1174 6.131 -4.80663 255 0 0
16.1343 6.23365 -4.38692 255 0 0
15.3768 6.1938 -4.28767 255 0 0
15.303 6.20627 -4.27886 255 0 0
15.0977 6.24842 -4.25485 255 0 0
14.5786 6.1962 -4.18601 255 0 0
14.5159 6.21022 -4.17881 255 0 0
14.4212 6.2102 -4.1668 255 0 0
14.3586 6.22362 -4.1596 255 0 0
13.6986 6.20961 -4.07555 255 0 0
13.5899 6.2382 -4.06354 255 0 0
13.612 6.28743 -4.06915 255 0 0
16.0935 7.52646 -4.45176 255 0 0
15.6873 7.61033 -4.40613 255 0 0
15.5337 7.58136 -4.38532 255 0 0
14.252 7.27243 -4.20802 255 0 0
14.1958 7.3501 -4.20602 255 0 0
14.4767 7.62662 -4.25805 255 0 0
13.5667 7.64799 -4.14919 255 0 0
13.4284 6.87222 -4.33781 255 0 0
13.4356 6.40033 -4.30642 255 0 0
13.9448 6.16246 -4.62296 255 0 0
14.8441 6.14348 -4.76394 255 0 0
13.099 6.35469 -4.50482 255 0 0
13.3742 6.6456 -4.31449 255 0 0
16.0194 6.23296 -4.51786 255 0 0
15.2688 6.1924 -4.41348 255 0 0
15.037 6.22331 -4.38378 255 0 0
14.4988 6.20288 -4.30995 255 0 0
14.4042 6.20287 -4.29722 255 0 0
13.6624 6.23229 -4.19963 255 0 0
14.2498 7.29258 -4.34474 255 0 0
14.2325 7.32634 -4.34474 255 0 0
14.4289 7.60141 -4.38887 255 0 0
13.5345 7.7146 -4.28195 255 0 0
12.9288 6.19652 -4.83633 255 0 0
12.9081 6.22429 -5.20823 255 0 0
15.8269 6.15804 -4.92179 255 0 0
15.9871 6.17678 -4.65615 255 0 0
15.8538 6.16851 -4.63642 255 0 0
15.483 6.19394 -4.58441 255 0 0
15.2658 6.19117 -4.55303 255 0 0
14.974 6.15569 -4.50909 255 0 0
14.8845 6.1602 -4.49653 255 0 0
13.7075 6.05761 -4.32256 255 0 0
13.5889 6.08236 -4.30732 255 0 0
13.5347 6.17406 -4.30553 255 0 0
13.478 6.18682 -4.29835 255 0 0
13.4808 6.3046 -4.30642 255 0 0
13.5159 6.37967 -4.31629 255 0 0
13.4675 6.4744 -4.31584 255 0 0
13.4627 6.57061 -4.32167 255 0 0
13.3937 6.77451 -4.32615 255 0 0
13.4841 6.94112 -4.35036 255 0 0
13.4676 6.97307 -4.35036 255 0 0
13.4125 7.06599 -4.34947 255 0 0
13.3959 7.22033 -4.35843 255 0 0
13.4732 7.3447 -4.37816 255 0 0
13.4406 7.36828 -4.37547 255 0 0
13.4636 7.42247 -4.38265 255 0 0
13.6448 7.82041 -4.43735 255 0 0
14.7336 6.13871 -4.74607 255 0 0
12.897 6.06886 -5.06685 255 0 0
14.7333 6.13859 -4.88279 255 0 0
16.0822 6.16973 -4.96349 255 0 0
13.5775 6.11597 -4.43475 255 0 0
13.3892 7.6318 -4.51979 255 0 0
16.0992 6.17627 -4.81929 255 0 0
15.4449 6.13626 -4.71725 255 0 0
15.2334 6.13603 -4.68513 255 0 0
15.1224 6.13304 -4.66812 255 0 0
15.0008 6.12518 -4.64922 255 0 0
14.9114 6.12998 -4.636 255 0 0
14.4241 6.13054 -4.83076 255 0 0
14.617 6.13084 -4.59159 255 0 0
14.5385 6.1385 -4.58025 255 0 0
14.3499 6.13919 -4.55191 255 0 0
13.898 6.06318 -4.47916 255 0 0
13.6366 6.02625 -4.43759 255 0 0
13.5958 6.04682 -4.43286 255 0 0
13.5815 6.07904 -4.43286 255 0 0
13.4107 6.27178 -4.42058 255 0 0
13.3935 6.3219 -4.42153 255 0 0
13.387 6.41617 -4.4272 255 0 0
13.3874 6.45542 -4.43003 255 0 0
13.3826 6.5315 -4.43475 255 0 0
13.3614 6.6788 -4.44231 255 0 0
13.3863 6.77077 -4.4527 255 0 0
13.3574 6.91602 -4.45932 255 0 0
13.359 7.28243 -4.48766 255 0 0
13.3229 7.32433 -4.48577 255 0 0
13.3473 7.39969 -4.49522 255 0 0
13.3701 7.45382 -4.50278 255 0 0
13.3737 7.51832 -4.50845 255 0 0
14.2782 6.14862 -4.67459 255 0 0
12.8467 6.1947 -4.69857 255 0 0
13.3548 6.16864 -4.65696 255 0 0
12.745 6.22031 -4.80565 255 0 0
16.2963 6.20759 -5.00023 255 0 0
15.9599 6.16625 -4.94364 255 0 0
15.7048 6.15345 -4.90194 255 0 0
15.382 6.15355 -4.85031 255 0 0
14.6552 6.14684 -4.73416 255 0 0
13.7007 6.17144 -4.58524 255 0 0
13.5348 6.17407 -4.55942 255 0 0
13.196 6.28617 -4.51475 255 0 0
13.0632 6.3756 -4.50085 255 0 0
12.9245 6.61434 -4.49787 255 0 0
12.9391 6.69943 -4.50681 255 0 0
12.8976 6.71676 -4.50184 255 0 0
12.8356 6.72323 -4.49291 255 0 0
12.7681 7.19779 -4.5217 255 0 0
12.8167 7.34581 -4.54155 255 0 0
12.8293 7.39347 -4.54751 255 0 0
12.8439 7.48327 -4.55744 255 0 0
15.3595 6.14454 -4.98791 255 0 0
14.5847 6.11729 -4.99249 255 0 0
15.9995 6.138 -5.0951 255 0 0
15.6695 6.09679 -5.03682 255 0 0
15.5278 6.12662 -5.01496 255 0 0
15.4544 6.14001 -5.00352 255 0 0
15.1166 6.13068 -4.94628 255 0 0
15.006 6.1273 -4.92754 255 0 0
14.9062 6.12781 -4.91089 255 0 0
14.6443 6.1423 -4.86822 255 0 0
14.3407 6.13525 -4.81723 255 0 0
14.2626 6.14189 -4.80474 255 0 0
14.1476 6.13215 -4.78497 255 0 0
14.0075 6.15052 -4.76311 255 0 0
13.7373 6.14878 -4.71836 255 0 0
13.5097 6.16264 -4.68193 255 0 0
13.221 6.18308 -4.63614 255 0 0
12.888 6.25232 -4.58723 255 0 0
12.7502 6.29791 -4.5685 255 0 0
15.531 6.00055 -5.15033 255 0 0
15.4149 5.99772 -5.12965 255 0 0
15.149 6.06031 -5.08719 255 0 0
14.8567 6.10746 -5.03929 255 0 0
14.7571 6.10746 -5.02188 255 0 0
14.1984 6.11426 -4.92499 255 0 0
14.0269 6.1194 -4.8956 255 0 0
13.9333 6.11795 -4.87927 255 0 0
13.7727 6.1255 -4.85206 255 0 0
13.6794 6.12288 -4.83573 255 0 0
13.6072 6.12931 -4.82376 255 0 0
13.1642 6.15652 -4.74973 255 0 0
13.0871 6.15832 -4.73667 255 0 0
13.0309 6.16964 -4.72796 255 0 0
12.9695 6.17825 -4.71816 255 0 0
12.8977 6.18163 -4.70619 255 0 0
12.7647 6.1925 -4.68442 255 0 0
15.187 6.03378 -5.23292 255 0 0
14.9178 6.13259 -5.19087 255 0 0
14.2336 6.12942 -5.06587 255 0 0
14.1453 6.13117 -5.04996 255 0 0
14.0465 6.12794 -5.03178 255 0 0
13.9898 6.14275 -5.02269 255 0 0
13.8241 6.14834 -4.99315 255 0 0
13.5039 6.15997 -4.93633 255 0 0
13.365 6.17336 -4.91246 255 0 0
13.2211 6.18313 -4.88746 255 0 0
14.0334 6.12224 -5.16141 255 0 0
13.9506 6.12553 -5.14602 255 0 0
13.8626 6.12614 -5.12944 255 0 0
13.6252 6.13745 -5.08563 255 0 0
13.4499 6.13535 -5.05248 255 0 0
13.378 6.14091 -5.03945 255 0 0
13.2343 6.15111 -5.0134 255 0 0
13.6368 6.10379 -5.21465 255 0 0
13.5544 6.10554 -5.19864 255 0 0
12.8218 5.95938 -5.04222 255 0 0
12.7864 6.12828 -5.05084 255 0 0
12.9375 6.16301 -5.20823 255 0 0
