ply
format ascii 1.0
comment Created by Open3D
element vertex 107
property double x
property double y
property double z
property uchar red
property uchar green
property uchar blue
end_header
-28.6708 26.6056 -4.44124 255 0 0
-28.1455 27.1297 -3.46272 255 0 0
-27.666 27.1784 -4.74432 255 0 0
-28.1603 27.2731 -3.14067 255 0 0
-28.7463 27.0588 -3.47717 255 0 0
-29.4125 27.0354 -3.82743 255 0 0
-29.3219 26.8242 -4.14896 255 0 0
-28.3492 26.9396 -3.7889 255 0 0
-29.1894 26.8303 -4.1439 255 0 0
-27.7665 27.148 -3.77633 255 0 0
-27.8738 27.3825 -3.13693 255 0 0
-28.1467 26.7472 -4.09964 255 0 0
-28.9034 27.2067 -3.15498 255 0 0
-28.428 26.3803 -4.74432 255 0 0
-28.9945 26.6513 -4.45801 255 0 0
-29.3999 26.3878 -5.12566 255 0 0
-28.7364 26.9213 -3.80121 255 0 0
-28.7751 27.2148 -3.15242 255 0 0
-27.8556 27.2351 -3.45769 255 0 0
-27.8517 27.1025 -3.77766 255 0 0
-27.6839 27.0673 -4.09363 255 0 0
-28.2586 27.2387 -3.14203 255 0 0
-27.6535 26.2785 -5.33752 255 0 0
-27.6065 26.7367 -5.04068 255 0 0
-29.4467 26.5561 -4.8059 255 0 0
-28.0494 27.2949 -3.1388 255 0 0
-28.5102 27.2216 -3.14697 255 0 0
-29.2237 26.99 -3.81967 255 0 0
-28.0178 27.0066 -3.78007 255 0 0
-27.947 27.3245 -3.13727 255 0 0
-27.6496 27.0337 -4.41351 255 0 0
-28.0025 26.4842 -4.72737 255 0 0
-29.0267 26.9359 -3.81138 255 0 0
-29.3532 27.3687 -3.16775 255 0 0
-28.1248 26.4738 -4.73316 255 0 0
-27.7657 26.8909 -4.09015 255 0 0
-28.0578 26.7897 -4.09774 255 0 0
-27.7697 26.7674 -4.40731 255 0 0
-27.6697 27.182 -4.09742 255 0 0
-28.6086 26.9292 -3.7972 255 0 0
-28.2695 26.7367 -4.10406 255 0 0
-28.6129 27.1902 -3.14851 255 0 0
-28.3839 26.7176 -4.10786 255 0 0
-28.7875 26.7139 -4.12367 255 0 0
-27.6643 26.9201 -5.05407 255 0 0
-27.6466 26.9029 -4.40768 255 0 0
-28.226 26.9502 -3.78516 255 0 0
-27.6698 26.798 -4.72572 255 0 0
-29.1525 26.6692 -4.46604 255 0 0
-28.3239 26.5348 -4.74639 255 0 0
-27.6809 26.8088 -4.40513 255 0 0
-27.9327 27.0527 -3.77874 255 0 0
-28.3907 27.2365 -3.14476 255 0 0
-29.1558 27.3142 -3.16247 255 0 0
-28.0306 27.1475 -3.46009 255 0 0
-27.6571 27.1696 -5.06747 255 0 0
-27.7659 27.2765 -3.45637 255 0 0
-27.9327 27.1812 -3.45834 255 0 0
-28.2477 27.0993 -3.46469 255 0 0
-28.3839 27.101 -3.46841 255 0 0
-28.4989 27.082 -3.47104 255 0 0
-28.6311 27.0786 -3.47454 255 0 0
-28.9043 27.0786 -3.48199 255 0 0
-29.0883 27.1217 -3.48812 255 0 0
-29.3241 27.2119 -3.49688 255 0 0
-27.9639 26.7 -4.41315 255 0 0
-27.7605 27.2711 -3.78007 255 0 0
-28.124 26.9806 -3.78275 255 0 0
-28.4555 26.9125 -3.79158 255 0 0
-28.8772 26.9248 -3.80603 255 0 0
-27.6122 26.3642 -5.34008 255 0 0
-27.7103 26.9648 -4.09079 255 0 0
-27.8589 26.8534 -4.09237 255 0 0
-27.9436 26.8075 -4.09395 255 0 0
-28.5069 26.7062 -4.11228 255 0 0
-28.6428 26.7063 -4.11766 255 0 0
-28.9496 26.7368 -4.13094 255 0 0
-27.9143 26.5264 -4.72489 255 0 0
-27.7207 26.5937 -4.71828 255 0 0
-27.8555 26.5965 -4.72531 255 0 0
-27.6438 27.1565 -4.41862 255 0 0
-27.8584 26.7258 -4.4095 255 0 0
-28.0483 26.6538 -4.41497 255 0 0
-28.1666 26.6394 -4.41972 255 0 0
-28.2723 26.6126 -4.42336 255 0 0
-28.3993 26.6054 -4.42883 255 0 0
-28.5264 26.5978 -4.43431 255 0 0
-28.8411 26.6367 -4.45035 255 0 0
-29.328 26.7023 -4.47552 255 0 0
-27.6594 27.0433 -4.73729 255 0 0
-27.6648 26.9206 -4.73151 255 0 0
-27.6786 26.6797 -4.72035 255 0 0
-28.3141 26.3998 -4.73936 255 0 0
-27.7261 27.3669 -3.45769 255 0 0
-27.6797 27.0632 -5.06285 255 0 0
-27.6698 26.6711 -5.04068 255 0 0
-27.6445 26.5206 -5.03098 255 0 0
-27.682 26.4308 -5.02821 255 0 0
-27.6001 26.478 -5.3462 255 0 0
-29.4159 26.2765 -5.45082 255 0 0
-27.6311 26.1329 -5.64608 255 0 0
-27.5827 26.336 -5.65613 255 0 0
-27.6155 26.2425 -5.65222 255 0 0
-27.7831 27.4232 -3.78569 255 0 0
-27.7921 27.432 -3.13624 255 0 0
-27.6676 27.3091 -4.10217 255 0 0
-27.6376 27.2795 -4.42373 255 0 0
