ply
format ascii 1.0
comment Created by Open3D
element vertex 197
property double x
property double y
property double z
property uchar red
property uchar green
property uchar blue
end_header
20.3799 -6.99786 -4.24667 255 0 0
18.602 -7.49289 -4.42853 255 0 0
20.6234 -7.30085 -4.46501 255 0 0
20.7322 -7.2289 -4.10495 255 0 0
20.1734 -6.18651 -4.55524 255 0 0
17.6329 -6.19518 -4.89648 255 0 0
18.5892 -6.33375 -4.54397 255 0 0
19.4462 -6.06455 -4.98376 255 0 0
19.6444 -6.17749 -4.14709 255 0 0
20.6264 -6.27198 -3.88616 255 0 0
17.6096 -6.18698 -5.05171 255 0 0
18.5325 -7.51604 -4.59061 255 0 0
17.4656 -6.41694 -5.04226 255 0 0
17.2646 -6.62335 -5.02336 255 0 0
17.5949 -6.22872 -5.05171 255 0 0
20.4384 -7.07216 -4.43682 255 0 0
19.8252 -7.5518 -3.85605 255 0 0
19.7719 -7.53152 -4.02839 255 0 0
19.7104 -7.56165 -4.20113 255 0 0
19.4593 -6.63021 -4.14344 255 0 0
19.3359 -6.486 -3.61363 255 0 0
20.5934 -7.2353 -4.27581 255 0 0
19.7213 -6.56329 -3.99263 255 0 0
17.6766 -7.71164 -4.98884 255 0 0
19.7108 -7.66923 -4.38306 255 0 0
20.7471 -7.34463 -4.10997 255 0 0
17.367 -7.33275 -4.92159 255 0 0
19.6517 -6.74779 -4.3411 255 0 0
19.7611 -6.26571 -3.81369 255 0 0
20.7871 -7.19282 -3.92444 255 0 0
18.7392 -5.99064 -4.54848 255 0 0
17.3019 -6.59062 -5.02714 255 0 0
19.8105 -7.27848 -4.20052 255 0 0
19.8205 -7.33554 -4.20356 255 0 0
20.1435 -6.12513 -4.54961 255 0 0
17.6733 -6.16234 -5.06021 255 0 0
18.7791 -6.00341 -4.72071 255 0 0
17.281 -6.96078 -5.04604 255 0 0
19.7251 -7.62099 -4.02727 255 0 0
18.3956 -7.00727 -4.54999 255 0 0
19.4944 -6.64218 -4.494 255 0 0
18.7415 -6.04039 -4.55074 255 0 0
19.4716 -6.58291 -4.48907 255 0 0
17.2866 -6.67884 -5.02998 255 0 0
19.6478 -6.38395 -4.50174 255 0 0
19.2663 -7.54893 -3.63718 255 0 0
19.4619 -6.52827 -4.31291 255 0 0
19.7255 -7.56744 -3.8484 255 0 0
19.8423 -7.39713 -4.56439 255 0 0
19.2349 -6.65573 -3.6104 255 0 0
19.919 -7.37199 -4.03621 255 0 0
19.3877 -6.45225 -3.78767 255 0 0
19.7214 -7.56585 -4.02504 255 0 0
20.7528 -7.29131 -3.92444 255 0 0
19.7103 -7.45458 -4.72977 255 0 0
19.61 -6.16669 -4.31619 255 0 0
17.58 -6.22345 -4.8902 255 0 0
19.8 -7.64993 -3.85707 255 0 0
19.7361 -7.57151 -4.38175 255 0 0
19.9392 -7.92185 -4.59818 255 0 0
19.8445 -6.34398 -3.47424 255 0 0
17.2924 -6.7755 -5.03659 255 0 0
19.3559 -6.95559 -4.66432 255 0 0
18.5945 -7.69565 -4.43698 255 0 0
19.5172 -6.444 -3.45441 255 0 0
20.032 -6.35163 -3.48706 255 0 0
20.5454 -6.35394 -3.52177 255 0 0
17.3312 -6.36757 -4.86151 255 0 0
20.446 -7.07479 -4.62 255 0 0
20.5585 -6.19813 -4.05857 255 0 0
19.3712 -7.53709 -3.64457 255 0 0
19.291 -7.45327 -3.63626 255 0 0
19.2323 -7.37824 -3.62979 255 0 0
19.3152 -7.35755 -3.63534 255 0 0
19.2125 -7.26631 -3.62518 255 0 0
19.1805 -7.20227 -3.62102 255 0 0
19.1481 -6.72752 -3.60578 255 0 0
19.2044 -6.49257 -3.60393 255 0 0
20.6481 -6.33209 -3.70877 255 0 0
20.691 -6.29161 -3.71108 255 0 0
17.303 -6.87449 -5.04415 255 0 0
18.7648 -6.04792 -4.72071 255 0 0
21.492 -6.09232 -4.89375 255 0 0
20.5644 -7.1704 -4.45387 255 0 0
19.1916 -7.5722 -3.80502 255 0 0
19.2801 -7.55434 -3.81165 255 0 0
19.3958 -7.54668 -3.82084 255 0 0
19.874 -7.35534 -3.85401 255 0 0
21.13 -7.53661 -3.96271 255 0 0
21.0709 -7.45924 -3.95556 255 0 0
20.759 -7.23825 -3.92341 255 0 0
19.4011 -6.55906 -3.79175 255 0 0
19.7152 -6.61322 -3.81931 255 0 0
20.792 -6.26852 -3.89994 255 0 0
17.497 -7.48557 -4.94939 255 0 0
18.6739 -7.62497 -4.44261 255 0 0
19.8083 -7.43802 -4.56228 255 0 0
19.0732 -7.55161 -3.96665 255 0 0
19.222 -7.53158 -3.97922 255 0 0
19.8551 -7.50936 -4.0351 255 0 0
19.8379 -7.28856 -4.02616 255 0 0
20.7315 -7.28383 -4.10662 255 0 0
20.7382 -7.17591 -4.10383 255 0 0
20.7938 -7.13997 -4.10774 255 0 0
19.4691 -6.58207 -3.97028 255 0 0
19.5952 -6.57296 -3.98145 255 0 0
20.488 -6.2299 -4.05298 255 0 0
20.2263 -7.32257 -4.42371 255 0 0
20.757 -6.20429 -4.25881 255 0 0
17.2815 -6.724 -5.03187 255 0 0
20.7791 -6.05023 -4.80348 255 0 0
18.7287 -7.54393 -4.10519 255 0 0
18.9466 -7.57954 -4.12766 255 0 0
19.089 -7.58405 -4.14162 255 0 0
19.7304 -7.62305 -4.20538 255 0 0
19.946 -7.59782 -4.22542 255 0 0
20.6612 -7.8142 -4.30314 255 0 0
19.8958 -7.4171 -4.21388 255 0 0
19.8441 -7.23748 -4.20234 255 0 0
19.8284 -7.17851 -4.1987 255 0 0
20.5085 -7.36978 -4.27217 255 0 0
20.5533 -7.33092 -4.27521 255 0 0
20.6256 -7.3016 -4.28128 255 0 0
20.5665 -7.17112 -4.27096 255 0 0
20.4348 -7.07092 -4.25456 255 0 0
19.4607 -6.55352 -4.14101 255 0 0
20.3818 -6.19761 -4.22117 255 0 0
20.5749 -6.20306 -4.2406 255 0 0
20.8889 -6.18981 -4.27156 255 0 0
18.5932 -6.28594 -4.54247 255 0 0
19.7852 -7.48291 -4.56158 255 0 0
17.3417 -7.27364 -4.91441 255 0 0
19.8553 -7.29493 -4.56158 255 0 0
18.7367 -5.94092 -4.54623 255 0 0
18.6703 -7.57193 -4.4398 255 0 0
18.7532 -7.60553 -4.28013 255 0 0
18.8467 -7.59148 -4.28931 255 0 0
19.6855 -7.6057 -4.37782 255 0 0
19.9529 -7.49229 -4.40142 255 0 0
19.927 -7.42871 -4.39617 255 0 0
19.879 -7.3572 -4.38831 255 0 0
19.9237 -7.32008 -4.39158 255 0 0
20.4275 -7.45026 -4.44993 255 0 0
20.4188 -7.33756 -4.44469 255 0 0
20.5622 -7.33409 -4.45977 255 0 0
20.5803 -7.23071 -4.4578 255 0 0
19.4803 -6.63738 -4.31881 255 0 0
19.463 -6.57999 -4.31488 255 0 0
19.6848 -6.44763 -4.33389 255 0 0
20.4951 -6.179 -4.41191 255 0 0
20.6435 -6.17038 -4.42764 255 0 0
19.8772 -7.35652 -4.74556 255 0 0
19.4982 -6.54042 -4.49048 255 0 0
18.5927 -7.43797 -4.42501 255 0 0
19.661 -7.59622 -4.55242 255 0 0
19.7557 -7.55218 -4.56122 255 0 0
19.8507 -7.23987 -4.55876 255 0 0
19.8405 -7.18289 -4.55524 255 0 0
19.8301 -7.126 -4.55172 255 0 0
20.4547 -7.29572 -4.62986 255 0 0
20.5486 -7.27436 -4.63971 255 0 0
20.5884 -7.17875 -4.64041 255 0 0
21.226 -6.07133 -4.6735 255 0 0
18.4394 -7.52923 -4.58008 255 0 0
18.4925 -7.39788 -4.58008 255 0 0
18.4236 -7.3197 -4.56804 255 0 0
18.3761 -7.25043 -4.55902 255 0 0
18.3839 -7.10279 -4.553 255 0 0
18.4386 -7.07374 -4.55826 255 0 0
18.4885 -6.94241 -4.55826 255 0 0
19.7454 -7.36103 -4.72977 255 0 0
19.8619 -7.29735 -4.74105 255 0 0
19.8082 -7.22437 -4.73127 255 0 0
19.8034 -7.16948 -4.72826 255 0 0
19.7224 -7.03452 -4.71247 255 0 0
18.6774 -6.06866 -4.54397 255 0 0
17.5161 -6.24762 -4.88213 255 0 0
18.7101 -6.1038 -4.71591 255 0 0
17.6524 -7.6513 -4.98167 255 0 0
17.6386 -7.59569 -4.97629 255 0 0
17.4721 -7.42596 -4.94221 255 0 0
17.4734 -6.46688 -4.88751 255 0 0
17.4386 -6.36016 -4.87675 255 0 0
17.421 -6.30698 -4.87137 255 0 0
17.4523 -6.27152 -4.87406 255 0 0
17.6202 -6.14383 -4.892 255 0 0
17.7387 -6.13798 -4.90903 255 0 0
17.346 -7.25128 -5.07391 255 0 0
17.3423 -7.1774 -5.06872 255 0 0
17.2376 -6.99088 -5.04132 255 0 0
17.3677 -6.85253 -5.05265 255 0 0
17.36 -6.51866 -5.03187 255 0 0
17.3862 -6.48152 -5.03376 255 0 0
17.3961 -6.43827 -5.03281 255 0 0
17.5513 -6.40125 -5.05454 255 0 0
17.561 -6.35765 -5.0536 255 0 0
17.5216 -6.29645 -5.04415 255 0 0
