ply
format ascii 1.0
comment Created by Open3D
element vertex 709
property double x
property double y
property double z
property uchar red
property uchar green
property uchar blue
end_header
13.668 -3.3887 -5.0299 255 0 0
13.6424 -2.83787 -4.87724 255 0 0
15.803 -2.32082 -4.88487 255 0 0
15.5419 -2.88846 -4.4499 255 0 0
13.5849 -2.8259 -4.98556 255 0 0
15.2429 -3.43567 -4.55474 255 0 0
12.3742 -3.79476 -5.6997 255 0 0
13.5888 -2.87716 -4.98864 255 0 0
13.7359 -3.85855 -5.19416 255 0 0
15.2154 -3.4674 -4.41852 255 0 0
13.2824 -2.53376 -5.14547 255 0 0
12.5557 -2.53426 -5.20492 255 0 0
13.9412 -2.69369 -4.6866 255 0 0
13.5168 -3.86626 -5.02497 255 0 0
15.5955 -2.89843 -4.32353 255 0 0
13.3197 -3.80988 -5.3443 255 0 0
14.819 -2.6452 -4.46121 255 0 0
14.1135 -2.41582 -4.58619 255 0 0
12.233 -2.45403 -5.45451 255 0 0
12.2304 -3.68729 -5.65143 255 0 0
14.0453 -2.57589 -4.82497 255 0 0
12.3128 -3.30181 -5.30246 255 0 0
15.9892 -2.30945 -5.05671 255 0 0
14.5987 -3.43626 -4.58027 255 0 0
13.2477 -3.41819 -5.18261 255 0 0
15.8552 -2.25173 -5.16814 255 0 0
14.6536 -2.15203 -5.44529 255 0 0
12.2687 -3.13456 -5.28043 255 0 0
15.2617 -2.13054 -5.58459 255 0 0
12.3191 -3.42907 -5.31274 255 0 0
15.5743 -2.43834 -4.57742 255 0 0
13.3109 -3.60331 -5.20782 255 0 0
13.636 -2.13488 -5.57558 255 0 0
13.4764 -3.07109 -5.09438 255 0 0
13.8157 -2.73747 -4.78633 255 0 0
12.576 -2.15263 -5.53264 255 0 0
13.6795 -2.24148 -5.10334 255 0 0
12.303 -2.55925 -5.25547 255 0 0
16.2085 -2.41965 -4.67946 255 0 0
14.7558 -2.34606 -4.82702 255 0 0
13.0108 -2.38616 -5.19316 255 0 0
13.5701 -3.70803 -5.14939 255 0 0
12.2176 -3.1524 -5.49358 255 0 0
12.965 -2.18759 -5.64044 255 0 0
13.9791 -2.15466 -5.41438 255 0 0
13.2955 -2.14622 -5.48894 255 0 0
13.1953 -2.25864 -5.23164 255 0 0
12.8921 -2.77761 -5.18355 255 0 0
13.6879 -3.29046 -4.90684 255 0 0
14.3449 -3.03728 -4.52269 255 0 0
14.9571 -2.5602 -4.48105 255 0 0
14.7486 -3.54546 -4.4801 255 0 0
12.349 -2.44686 -5.26134 255 0 0
16.0815 -2.12848 -5.63164 255 0 0
13.6774 -3.0828 -4.895 255 0 0
15.7322 -3.07847 -4.34814 255 0 0
13.9261 -2.1127 -5.649 255 0 0
13.9559 -3.63622 -5.2287 255 0 0
15.6934 -2.30472 -5.00119 255 0 0
14.4146 -3.2849 -4.54354 255 0 0
13.9263 -3.6638 -4.84883 255 0 0
13.4299 -2.84352 -5.07327 255 0 0
15.0807 -3.28655 -4.52356 255 0 0
14.4578 -3.65737 -5.33871 255 0 0
12.5567 -3.23988 -5.24472 255 0 0
12.9497 -2.15345 -5.40084 255 0 0
15.885 -2.21755 -5.31178 255 0 0
15.957 -2.4208 -4.63883 255 0 0
14.4749 -2.26623 -5.02524 255 0 0
12.3054 -2.40791 -5.4717 255 0 0
14.3357 -2.91123 -4.51673 255 0 0
14.4899 -3.26593 -4.55545 255 0 0
15.3302 -2.40013 -4.66963 255 0 0
14.8752 -3.05752 -4.48294 255 0 0
13.9543 -3.38953 -4.71708 255 0 0
13.4741 -3.00342 -5.09054 255 0 0
13.6196 -2.53121 -4.98063 255 0 0
12.2603 -3.2566 -5.2863 255 0 0
12.5159 -3.70874 -5.38175 255 0 0
12.3921 -3.70401 -5.58107 255 0 0
12.5219 -2.85359 -5.21345 255 0 0
13.8902 -2.8894 -4.68442 255 0 0
13.4868 -3.27598 -5.10717 255 0 0
12.1754 -2.59299 -5.33555 255 0 0
13.6427 -2.46863 -4.9831 255 0 0
13.7487 -3.89734 -5.19928 255 0 0
12.5093 -3.19604 -5.23051 255 0 0
14.3094 -2.58926 -4.50184 255 0 0
12.9555 -3.1144 -5.21652 255 0 0
12.8744 -2.80574 -5.1808 255 0 0
13.9592 -3.4609 -5.21974 255 0 0
13.7403 -2.96033 -4.78065 255 0 0
13.23 -2.98196 -5.15476 255 0 0
13.6543 -2.40391 -4.9831 255 0 0
14.8164 -2.21182 -5.22327 255 0 0
13.4076 -2.19694 -5.27972 255 0 0
12.3154 -2.25861 -5.57901 255 0 0
13.6726 -2.77657 -4.88079 255 0 0
13.4365 -2.96163 -5.08031 255 0 0
15.6337 -2.75241 -4.32523 255 0 0
13.2083 -3.74414 -5.31407 255 0 0
12.5096 -2.72624 -5.2035 255 0 0
13.5672 -2.99045 -4.98925 255 0 0
15.5952 -2.66944 -4.31759 255 0 0
12.5606 -2.24208 -5.30539 255 0 0
13.4877 -2.53979 -5.07263 255 0 0
13.8988 -2.51496 -4.79428 255 0 0
12.953 -3.24404 -5.22339 255 0 0
12.2662 -3.63474 -5.42799 255 0 0
13.9667 -2.49307 -4.68442 255 0 0
15.7351 -2.38713 -4.73813 255 0 0
15.1535 -2.40929 -4.63984 255 0 0
14.8427 -3.01419 -4.47632 255 0 0
12.586 -3.50335 -5.26888 255 0 0
15.5011 -2.31405 -4.83076 255 0 0
14.4498 -2.49101 -4.52269 255 0 0
14.4736 -2.16066 -5.40416 255 0 0
15.5587 -2.77725 -4.31504 255 0 0
13.6724 -2.9457 -4.8879 255 0 0
14.2765 -2.96977 -4.50879 255 0 0
15.0681 -2.57921 -4.3692 255 0 0
12.2001 -2.97876 -5.47717 255 0 0
13.9098 -2.3131 -4.91158 255 0 0
16.137 -2.29176 -5.08393 255 0 0
13.3156 -2.57282 -5.15476 255 0 0
13.2953 -2.73279 -5.15741 255 0 0
12.6105 -2.18932 -5.42951 255 0 0
15.2617 -2.24133 -5.18509 255 0 0
15.4116 -3.01573 -4.43376 255 0 0
14.0198 -3.3351 -4.60284 255 0 0
14.2748 -2.61798 -4.49688 255 0 0
14.3954 -2.53439 -4.51475 255 0 0
12.1714 -2.71305 -5.56453 255 0 0
14.2837 -3.54134 -4.91133 255 0 0
14.8824 -2.25777 -5.10813 255 0 0
12.5133 -3.13392 -5.22766 255 0 0
14.0454 -2.30144 -4.93881 255 0 0
15.1915 -2.08404 -5.70154 255 0 0
15.3361 -2.3266 -4.80162 255 0 0
15.3713 -2.55614 -4.41493 255 0 0
13.5839 -2.49126 -5.09182 255 0 0
12.7929 -2.14295 -5.70775 255 0 0
12.1991 -2.88672 -5.47092 255 0 0
14.5136 -3.34368 -4.5624 255 0 0
15.528 -2.96213 -4.4499 255 0 0
13.7753 -2.93373 -4.78633 255 0 0
13.5278 -2.28256 -5.07136 255 0 0
14.3943 -3.13698 -4.53461 255 0 0
12.8053 -2.19189 -5.3656 255 0 0
15.3446 -3.42038 -4.43645 255 0 0
15.229 -2.1628 -5.4436 255 0 0
12.3382 -3.40287 -5.31567 255 0 0
13.8799 -2.64774 -4.79542 255 0 0
15.1997 -2.56466 -4.38892 255 0 0
15.9322 -2.49438 -4.49922 255 0 0
12.3515 -2.20475 -5.69951 255 0 0
14.1394 -2.31685 -5.08286 255 0 0
13.6267 -2.10033 -5.08671 255 0 0
15.6526 -2.22296 -5.26442 255 0 0
12.1923 -2.77848 -5.46233 255 0 0
15.0718 -3.47229 -4.39699 255 0 0
15.9291 -2.37793 -4.77089 255 0 0
13.6691 -3.13208 -4.89559 255 0 0
13.3333 -3.54162 -5.20915 255 0 0
14.0278 -2.60707 -4.69966 255 0 0
13.4403 -2.2678 -5.17067 255 0 0
13.3901 -2.39015 -5.16404 255 0 0
14.8622 -3.0916 -4.48199 255 0 0
12.4301 -2.32537 -5.27602 255 0 0
12.5444 -3.17334 -5.23761 255 0 0
15.6228 -2.94183 -4.32862 255 0 0
14.4 -3.1919 -4.53758 255 0 0
13.7441 -2.85902 -4.77724 255 0 0
12.3332 -2.38301 -5.47795 255 0 0
14.2844 -2.34061 -4.8636 255 0 0
12.3088 -3.64737 -5.55451 255 0 0
13.2787 -2.89385 -5.16139 255 0 0
13.7 -3.36217 -4.91276 255 0 0
14.868 -2.18351 -5.36429 255 0 0
13.6001 -2.19538 -5.08415 255 0 0
12.312 -3.61658 -5.55295 255 0 0
13.7855 -2.32604 -4.88671 255 0 0
14.6159 -3.51354 -4.58623 255 0 0
13.6174 -3.6863 -5.15834 255 0 0
15.3459 -2.43988 -4.54057 255 0 0
14.385 -3.71162 -5.32592 255 0 0
15.9115 -2.5685 -4.36087 255 0 0
13.9961 -3.25943 -4.59555 255 0 0
12.2835 -2.31302 -5.34919 255 0 0
15.4726 -3.29519 -4.4517 255 0 0
13.915 -2.82579 -4.6866 255 0 0
14.0627 -2.54462 -4.70401 255 0 0
13.1418 -2.12139 -5.68575 255 0 0
13.3928 -2.43979 -5.1667 255 0 0
12.4755 -3.58439 -5.36266 255 0 0
12.1905 -3.05308 -5.47951 255 0 0
15.083 -3.51255 -4.53207 255 0 0
13.7849 -2.52812 -4.89382 255 0 0
14.8593 -2.87109 -4.47444 255 0 0
14.9303 -2.62857 -4.34947 255 0 0
12.4159 -2.21625 -5.49201 255 0 0
12.9471 -2.95048 -5.20553 255 0 0
15.634 -3.09775 -4.33456 255 0 0
12.9682 -3.34605 -5.23301 255 0 0
14.3416 -2.70059 -4.51078 255 0 0
14.0216 -2.64033 -4.69966 255 0 0
12.3389 -2.27805 -5.36207 255 0 0
15.3817 -3.04776 -4.43017 255 0 0
13.7601 -2.69257 -4.77383 255 0 0
15.6138 -2.86354 -4.32523 255 0 0
15.4531 -2.11992 -5.62837 255 0 0
16.1563 -2.25543 -5.22723 255 0 0
13.7891 -3.31479 -4.80565 255 0 0
13.9916 -2.78955 -4.57682 255 0 0
13.7191 -3.33238 -4.91513 255 0 0
14.5674 -3.39248 -4.57332 255 0 0
13.5804 -2.79138 -4.9831 255 0 0
12.9593 -2.53586 -5.18767 255 0 0
12.3444 -2.35482 -5.47951 255 0 0
12.2687 -3.04176 -5.27456 255 0 0
13.4236 -3.29433 -5.09438 255 0 0
14.7087 -2.1245 -5.5875 255 0 0
13.8605 -3.0551 -4.68551 255 0 0
13.9974 -2.87709 -4.58098 255 0 0
13.5856 -3.18082 -5.00219 255 0 0
13.7291 -2.35001 -4.87605 255 0 0
13.4969 -3.89521 -4.29681 255 0 0
15.106 -2.47524 -4.50278 255 0 0
13.662 -2.13895 -5.70532 255 0 0
13.028 -2.19823 -5.30583 255 0 0
14.0262 -2.64119 -4.57786 255 0 0
15.4585 -2.98686 -4.44004 255 0 0
12.3432 -2.47613 -5.26134 255 0 0
14.9284 -3.51388 -4.5075 255 0 0
13.9358 -2.43646 -4.6768 255 0 0
15.6281 -2.25729 -5.12383 255 0 0
14.0433 -3.69458 -4.74756 255 0 0
13.5565 -3.03869 -4.98925 255 0 0
13.6681 -2.91089 -4.88553 255 0 0
12.2557 -2.3379 -5.34312 255 0 0
13.8439 -2.13382 -5.50481 255 0 0
15.2039 -3.50272 -4.55096 255 0 0
15.3182 -2.32389 -4.93153 255 0 0
13.6939 -3.24044 -4.90566 255 0 0
13.6655 -2.07316 -5.09438 255 0 0
12.6066 -2.48237 -5.21487 255 0 0
13.2804 -3.04301 -5.16935 255 0 0
14.7028 -3.57134 -4.60311 255 0 0
12.3937 -2.42519 -5.27162 255 0 0
13.7754 -3.62409 -4.94118 255 0 0
13.1226 -2.27824 -5.21515 255 0 0
12.5427 -3.10971 -5.23335 255 0 0
15.5615 -2.62571 -4.31165 255 0 0
13.2882 -2.6821 -5.15343 255 0 0
15.3954 -3.24062 -4.43824 255 0 0
15.7317 -2.53947 -4.46963 255 0 0
13.8665 -3.16 -4.69095 255 0 0
15.422 -3.16991 -4.44004 255 0 0
14.8343 -2.73878 -4.4664 255 0 0
13.9878 -2.97898 -4.58307 255 0 0
13.8651 -2.47494 -4.78633 255 0 0
13.8942 -2.10786 -5.02374 255 0 0
13.8787 -3.68648 -4.84087 255 0 0
14.5571 -2.34987 -4.79001 255 0 0
12.8851 -3.71864 -5.35558 255 0 0
13.8758 -3.19674 -4.69422 255 0 0
13.4761 -3.88919 -4.05452 255 0 0
15.6361 -3.17531 -4.33711 255 0 0
15.6436 -3.13823 -4.33711 255 0 0
13.8849 -2.24136 -5.0262 255 0 0
15.6599 -3.02578 -4.33626 255 0 0
15.6442 -2.9843 -4.33286 255 0 0
15.6718 -2.83579 -4.33286 255 0 0
15.6174 -2.71137 -4.32183 255 0 0
15.6134 -2.59641 -4.31844 255 0 0
15.6824 -2.56969 -4.32777 255 0 0
13.2204 -3.67994 -5.3127 255 0 0
15.0764 -2.21412 -5.2787 255 0 0
13.818 -3.11451 -4.80224 255 0 0
12.2058 -3.24212 -5.4967 255 0 0
15.5943 -2.55524 -4.44901 255 0 0
14.1995 -2.36128 -4.84769 255 0 0
14.8865 -2.91298 -4.4801 255 0 0
15.2913 -3.44658 -4.42928 255 0 0
15.494 -3.41513 -4.45887 255 0 0
15.5755 -3.3944 -4.47053 255 0 0
15.5213 -3.34406 -4.46066 255 0 0
15.3917 -3.20175 -4.43645 255 0 0
15.5088 -3.14946 -4.45259 255 0 0
15.4992 -3.10926 -4.4499 255 0 0
15.4838 -2.91567 -4.44183 255 0 0
15.5601 -2.85369 -4.4517 255 0 0
15.47 -2.79927 -4.43645 255 0 0
15.5279 -2.77174 -4.44452 255 0 0
14.9422 -2.59415 -4.35036 255 0 0
15.7834 -2.50943 -4.4768 255 0 0
15.8866 -2.44866 -4.49115 255 0 0
13.8624 -2.67846 -4.79315 255 0 0
12.3373 -2.23241 -5.58384 255 0 0
13.036 -2.3429 -5.19729 255 0 0
14.9228 -2.84668 -4.48388 255 0 0
13.3862 -3.82889 -4.87487 255 0 0
13.6582 -2.67264 -4.87369 255 0 0
14.7458 -3.50781 -4.47821 255 0 0
15.246 -3.47437 -4.55663 255 0 0
15.2341 -3.39575 -4.55191 255 0 0
15.1744 -3.34469 -4.54057 255 0 0
14.9528 -3.22158 -4.50089 255 0 0
14.9491 -3.18371 -4.499 255 0 0
14.9566 -3.14826 -4.499 255 0 0
14.9008 -2.98922 -4.48483 255 0 0
14.9192 -2.95613 -4.48672 255 0 0
14.9068 -2.80701 -4.4801 255 0 0
14.8639 -2.68959 -4.46971 255 0 0
14.7114 -2.59002 -4.44231 255 0 0
14.82 -2.57293 -4.45932 255 0 0
15.0087 -2.53243 -4.48861 255 0 0
15.0203 -2.49778 -4.48955 255 0 0
15.2146 -2.45599 -4.51979 255 0 0
15.8085 -2.43662 -4.61521 255 0 0
14.0164 -3.29921 -4.60076 255 0 0
14.3142 -3.58496 -4.91928 255 0 0
12.5262 -2.88582 -5.21629 255 0 0
13.7219 -2.3153 -4.99418 255 0 0
14.7167 -3.6117 -4.60708 255 0 0
14.6635 -3.48823 -4.59318 255 0 0
14.3171 -3.08461 -4.51971 255 0 0
14.3062 -2.94056 -4.51276 255 0 0
14.3086 -2.87042 -4.51078 255 0 0
14.2871 -2.83088 -4.50581 255 0 0
14.348 -2.78996 -4.51475 255 0 0
14.2842 -2.72485 -4.50184 255 0 0
14.2118 -2.64127 -4.48695 255 0 0
14.3496 -2.56141 -4.5078 255 0 0
14.5553 -2.45593 -4.53957 255 0 0
14.6806 -2.44129 -4.56042 255 0 0
14.7889 -2.42327 -4.57829 255 0 0
15.0225 -2.42498 -4.618 255 0 0
15.5241 -2.39279 -4.70239 255 0 0
12.1994 -2.4774 -5.33555 255 0 0
16.1745 -2.37537 -4.81259 255 0 0
12.906 -2.68467 -5.18217 255 0 0
13.8575 -2.84835 -4.6768 255 0 0
13.4253 -3.84006 -4.76247 255 0 0
12.8608 -2.23278 -5.26604 255 0 0
13.9113 -2.75641 -4.68333 255 0 0
12.6658 -2.16801 -5.44314 255 0 0
13.5063 -3.86325 -4.53727 255 0 0
14.1188 -3.60726 -4.63198 255 0 0
14.1608 -3.58225 -4.63822 255 0 0
14.1525 -3.54446 -4.6351 255 0 0
14.0994 -3.49564 -4.62365 255 0 0
14.0796 -3.45534 -4.61845 255 0 0
14.0598 -3.41515 -4.61325 255 0 0
14.0286 -3.37237 -4.60596 255 0 0
12.8284 -3.66933 -5.33852 255 0 0
14.0263 -3.23141 -4.59972 255 0 0
14.0293 -3.17959 -4.59816 255 0 0
14.0152 -3.12404 -4.59347 255 0 0
13.9888 -3.08336 -4.58723 255 0 0
13.9827 -3.02993 -4.58411 255 0 0
13.9723 -2.94106 -4.5789 255 0 0
14.0074 -2.91379 -4.58411 255 0 0
14.0098 -2.84504 -4.58203 255 0 0
14.0071 -2.74089 -4.57786 255 0 0
14.0224 -2.69215 -4.5789 255 0 0
14.0383 -2.59182 -4.57838 255 0 0
14.0049 -2.53417 -4.57058 255 0 0
14.0337 -2.48788 -4.57422 255 0 0
14.0453 -2.43843 -4.57474 255 0 0
14.2385 -2.40248 -4.60804 255 0 0
14.392 -2.39329 -4.6351 255 0 0
14.5739 -2.38804 -4.66736 255 0 0
14.6933 -2.37185 -4.68818 255 0 0
14.9037 -2.36957 -4.72564 255 0 0
15.0801 -2.36097 -4.75687 255 0 0
15.2109 -2.34452 -4.77976 255 0 0
16.0879 -2.32371 -4.93587 255 0 0
15.1005 -2.29086 -5.02155 255 0 0
13.9015 -2.21023 -5.02867 255 0 0
12.9496 -3.01571 -5.20965 255 0 0
13.637 -2.60139 -4.86658 255 0 0
14.5163 -3.63558 -5.35022 255 0 0
14.0353 -3.65692 -4.74429 255 0 0
14.0009 -3.59481 -4.73504 255 0 0
14.0052 -3.54288 -4.7334 255 0 0
13.9857 -3.50268 -4.72796 255 0 0
13.9506 -3.44122 -4.71871 255 0 0
13.9232 -3.34702 -4.70946 255 0 0
13.921 -3.29417 -4.70673 255 0 0
13.9018 -3.23746 -4.70075 255 0 0
13.8459 -3.12079 -4.68551 255 0 0
13.8813 -3.09421 -4.69095 255 0 0
13.879 -3.02467 -4.68768 255 0 0
13.903 -2.99539 -4.69095 255 0 0
13.8798 -2.93878 -4.68442 255 0 0
13.8539 -2.77921 -4.67353 255 0 0
13.9008 -2.72011 -4.68006 255 0 0
13.9418 -2.65955 -4.68551 255 0 0
14.1075 -2.5873 -4.71381 255 0 0
14.0295 -2.40143 -4.69313 255 0 0
14.1429 -2.38635 -4.71381 255 0 0
14.3301 -2.38301 -4.74864 255 0 0
14.5345 -2.38159 -4.78674 255 0 0
14.9091 -2.33421 -4.85532 255 0 0
15.0909 -2.32602 -4.88907 255 0 0
15.3635 -2.29351 -4.93915 255 0 0
13.3414 -3.57765 -5.21313 255 0 0
12.4878 -2.19854 -5.51076 255 0 0
13.5411 -2.23531 -5.19256 255 0 0
13.6704 -2.04075 -5.09438 255 0 0
12.6217 -3.48105 -5.27599 255 0 0
13.1868 -2.16076 -5.69981 255 0 0
13.8794 -3.61628 -4.83747 255 0 0
13.9533 -3.58262 -4.84997 255 0 0
14.0941 -3.56536 -4.8761 255 0 0
13.833 -3.37743 -4.81701 255 0 0
13.8137 -3.28608 -4.80906 255 0 0
13.8169 -3.23497 -4.80735 255 0 0
13.8423 -3.18903 -4.81019 255 0 0
13.9506 -3.17917 -4.83065 255 0 0
13.7469 -3.06424 -4.78633 255 0 0
13.7485 -3.0304 -4.78519 255 0 0
13.7725 -3.00147 -4.7886 255 0 0
13.7766 -2.89988 -4.78519 255 0 0
13.7734 -2.83105 -4.78178 255 0 0
13.7237 -2.78695 -4.77042 255 0 0
13.781 -2.76457 -4.78065 255 0 0
14.095 -2.65415 -4.83747 255 0 0
14.1917 -2.63752 -4.85565 255 0 0
13.8653 -2.44106 -4.78519 255 0 0
13.8258 -2.38345 -4.77553 255 0 0
13.9559 -2.3548 -4.79997 255 0 0
14.4146 -2.32687 -4.8886 255 0 0
14.5222 -2.30892 -4.90906 255 0 0
14.6639 -2.2958 -4.93633 255 0 0
14.8396 -2.28728 -4.97042 255 0 0
15.2593 -2.27795 -5.05224 255 0 0
15.3669 -2.25678 -5.07269 255 0 0
12.9855 -2.42926 -5.18904 255 0 0
14.3922 -3.56825 -5.44927 255 0 0
13.7178 -2.41509 -4.87605 255 0 0
13.7968 -3.69977 -4.94947 255 0 0
13.8222 -3.67146 -4.95302 255 0 0
13.8616 -3.61166 -4.95775 255 0 0
13.8868 -3.58308 -4.96131 255 0 0
13.9175 -3.55582 -4.96604 255 0 0
14.5096 -3.67048 -5.09037 255 0 0
14.5071 -3.63328 -5.088 255 0 0
13.8868 -3.44294 -4.9542 255 0 0
13.6942 -3.18912 -4.90329 255 0 0
13.6511 -3.04288 -4.8879 255 0 0
13.6562 -2.99308 -4.88671 255 0 0
13.6301 -2.86902 -4.87605 255 0 0
13.6548 -2.80667 -4.87842 255 0 0
13.651 -2.7385 -4.87487 255 0 0
13.6687 -2.70836 -4.87724 255 0 0
13.642 -2.63589 -4.86895 255 0 0
13.7276 -2.58497 -4.88434 255 0 0
13.7506 -2.55555 -4.8879 255 0 0
13.7795 -2.49338 -4.89145 255 0 0
13.7064 -2.4466 -4.87487 255 0 0
13.7009 -2.37863 -4.87132 255 0 0
14.3055 -2.30926 -4.99209 255 0 0
14.4129 -2.29154 -5.0134 255 0 0
14.7523 -2.27383 -5.08208 255 0 0
15.0579 -2.24788 -5.14365 255 0 0
15.3805 -2.22153 -5.20877 255 0 0
15.9867 -2.19313 -5.33191 255 0 0
16.2647 -2.19198 -5.38875 255 0 0
12.5249 -2.9168 -5.21771 255 0 0
13.7274 -3.75102 -5.06192 255 0 0
13.4926 -2.59042 -5.07583 255 0 0
13.8446 -2.16754 -5.38277 255 0 0
13.3406 -2.21845 -5.26461 255 0 0
15.4098 -2.18848 -5.3489 255 0 0
13.7639 -3.72594 -5.06808 255 0 0
13.7881 -3.6799 -5.07054 255 0 0
13.8066 -3.63231 -5.07178 255 0 0
14.5809 -3.72531 -5.23805 255 0 0
14.5231 -3.67388 -5.22327 255 0 0
14.5151 -3.63526 -5.21958 255 0 0
13.6315 -3.34537 -5.02005 255 0 0
13.6016 -3.28679 -5.01081 255 0 0
13.5881 -3.23242 -5.00527 255 0 0
13.5773 -3.12798 -4.99788 255 0 0
13.5847 -3.09578 -4.99788 255 0 0
13.5722 -2.94096 -4.98802 255 0 0
13.579 -2.74079 -4.98063 255 0 0
13.5718 -2.68915 -4.97694 255 0 0
13.5953 -2.64359 -4.98002 255 0 0
13.6274 -2.58283 -4.98433 255 0 0
13.6763 -2.5082 -4.99172 255 0 0
13.6317 -2.43326 -4.9794 255 0 0
13.6318 -2.36663 -4.97694 255 0 0
13.6486 -2.33624 -4.9794 255 0 0
13.9306 -2.31656 -5.03852 255 0 0
14.0198 -2.19497 -5.0533 255 0 0
13.8496 -2.13469 -5.01512 255 0 0
15.2686 -2.20537 -5.31934 255 0 0
15.568 -2.1733 -5.38216 255 0 0
15.9134 -2.18307 -5.45606 255 0 0
16.1284 -2.17362 -5.50163 255 0 0
13.5856 -2.19304 -5.20119 255 0 0
13.8618 -4.00051 -5.22998 255 0 0
13.6021 -3.89064 -5.1673 255 0 0
13.6569 -3.80145 -5.17369 255 0 0
13.6924 -3.67176 -5.17369 255 0 0
13.701 -3.63929 -5.17369 255 0 0
13.5881 -3.57481 -5.14555 255 0 0
13.4835 -3.24132 -5.10461 255 0 0
13.4689 -3.20405 -5.0995 255 0 0
13.6273 -3.93284 -5.29936 255 0 0
13.5349 -3.13511 -5.11037 255 0 0
13.4613 -3.03411 -5.08926 255 0 0
13.4267 -2.92611 -5.07647 255 0 0
13.4259 -2.79282 -5.07008 255 0 0
13.4358 -2.74504 -5.07008 255 0 0
13.4654 -2.68466 -5.07391 255 0 0
13.5836 -2.52451 -5.0931 255 0 0
13.5392 -2.44989 -5.08031 255 0 0
13.5112 -2.41176 -5.07263 255 0 0
13.5562 -2.33697 -5.07967 255 0 0
13.7417 -2.28516 -5.11869 255 0 0
13.6166 -2.16493 -5.08671 255 0 0
15.0428 -2.17276 -5.40267 255 0 0
15.3812 -2.14722 -5.47686 255 0 0
15.7423 -2.12158 -5.55617 255 0 0
12.1907 -2.4305 -5.55326 255 0 0
12.4261 -2.52344 -5.28484 255 0 0
13.7439 -4.00181 -5.32987 255 0 0
13.5324 -3.87072 -5.27415 255 0 0
13.6184 -3.8604 -5.29273 255 0 0
13.4628 -3.78183 -5.25293 255 0 0
13.4388 -3.74072 -5.24497 255 0 0
13.4398 -3.67244 -5.24099 255 0 0
13.3252 -3.50564 -5.20517 255 0 0
13.2948 -3.46397 -5.19588 255 0 0
13.3854 -3.3861 -5.2118 255 0 0
13.4092 -3.2908 -5.2118 255 0 0
14.3591 -3.48784 -5.43733 255 0 0
14.2231 -3.41913 -5.40284 255 0 0
13.3157 -3.16762 -5.18394 255 0 0
13.2862 -3.0941 -5.17333 255 0 0
13.2293 -2.93242 -5.1521 255 0 0
13.2186 -2.84794 -5.14547 255 0 0
13.2644 -2.82491 -5.15476 255 0 0
13.2944 -2.76546 -5.15874 255 0 0
13.2529 -2.62596 -5.14282 255 0 0
13.3388 -2.51176 -5.15741 255 0 0
13.3504 -2.48117 -5.15874 255 0 0
13.3901 -2.34105 -5.16205 255 0 0
13.6133 -2.16441 -5.20649 255 0 0
13.9109 -2.14413 -5.27415 255 0 0
14.2486 -2.16161 -5.35243 255 0 0
14.8901 -2.15071 -5.49968 255 0 0
15.0872 -2.14266 -5.54479 255 0 0
13.7754 -2.12326 -5.61082 255 0 0
13.2774 -3.72975 -5.32919 255 0 0
13.1193 -3.61832 -5.28522 255 0 0
13.1169 -3.5842 -5.28247 255 0 0
13.0649 -3.53673 -5.26736 255 0 0
13.0568 -3.50132 -5.26324 255 0 0
12.9976 -3.43594 -5.24538 255 0 0
13.0428 -3.39831 -5.25362 255 0 0
12.9595 -3.31106 -5.22889 255 0 0
12.9011 -3.26358 -5.2124 255 0 0
12.9883 -3.22017 -5.23026 255 0 0
12.9737 -3.18394 -5.22477 255 0 0
12.8928 -3.13167 -5.20278 255 0 0
12.9241 -3.07445 -5.2069 255 0 0
12.9646 -3.05163 -5.21515 255 0 0
12.9678 -2.98756 -5.2124 255 0 0
12.9103 -2.89383 -5.19385 255 0 0
12.8955 -2.84238 -5.18767 255 0 0
12.9655 -2.76126 -5.20003 255 0 0
12.933 -2.7223 -5.19042 255 0 0
12.8932 -2.6342 -5.17668 255 0 0
12.9248 -2.59281 -5.18217 255 0 0
12.9197 -2.55994 -5.17942 255 0 0
12.887 -2.49001 -5.16843 255 0 0
12.8929 -2.45945 -5.16843 255 0 0
13.162 -2.31724 -5.22614 255 0 0
13.296 -2.24345 -5.25499 255 0 0
13.5757 -2.19145 -5.31957 255 0 0
13.727 -2.18249 -5.35529 255 0 0
14.1418 -2.14541 -5.45285 255 0 0
14.3889 -2.14801 -5.51193 255 0 0
14.5685 -2.13952 -5.55452 255 0 0
14.9279 -2.12004 -5.63971 255 0 0
15.0907 -2.10667 -5.67818 255 0 0
12.5184 -2.99363 -5.22056 255 0 0
12.7383 -2.28937 -5.23832 255 0 0
12.8163 -3.73171 -5.33994 255 0 0
12.7551 -3.61567 -5.3172 255 0 0
12.7417 -3.57927 -5.31152 255 0 0
12.6011 -3.42719 -5.26746 255 0 0
12.5473 -3.36471 -5.2504 255 0 0
12.5663 -3.33786 -5.25325 255 0 0
12.5451 -3.28452 -5.24472 255 0 0
12.539 -3.07726 -5.23051 255 0 0
12.5463 -3.04752 -5.23051 255 0 0
12.501 -2.81764 -5.20634 255 0 0
12.5774 -2.7879 -5.2234 255 0 0
12.5414 -2.6865 -5.20919 255 0 0
12.5064 -2.63251 -5.19782 255 0 0
12.5268 -2.59032 -5.20066 255 0 0
12.6768 -2.43381 -5.22979 255 0 0
12.6658 -2.38502 -5.22482 255 0 0
12.6658 -2.35395 -5.2234 255 0 0
12.8278 -2.3526 -5.26319 255 0 0
12.7771 -2.24948 -5.24614 255 0 0
12.8884 -2.20611 -5.27172 255 0 0
13.0948 -2.17758 -5.32147 255 0 0
13.1897 -2.16123 -5.34421 255 0 0
13.4078 -2.16434 -5.39821 255 0 0
13.5532 -2.15485 -5.43374 255 0 0
13.6761 -2.14116 -5.46359 255 0 0
14.0118 -2.1257 -5.54602 255 0 0
14.1741 -2.11595 -5.58582 255 0 0
14.3252 -2.1038 -5.62277 255 0 0
14.5663 -2.10393 -5.68246 255 0 0
12.4908 -3.73353 -5.37735 255 0 0
12.5301 -3.68065 -5.38322 255 0 0
12.4626 -3.62875 -5.36266 255 0 0
12.4063 -3.51682 -5.34063 255 0 0
12.3601 -3.47207 -5.32595 255 0 0
12.29 -3.34261 -5.29952 255 0 0
12.2954 -3.23473 -5.29365 255 0 0
12.2849 -3.18529 -5.28777 255 0 0
12.2871 -3.10824 -5.28337 255 0 0
12.2889 -3.07772 -5.2819 255 0 0
12.2519 -2.99138 -5.26721 255 0 0
12.2824 -2.93718 -5.27162 255 0 0
12.2707 -2.88831 -5.26575 255 0 0
12.2837 -2.84529 -5.26648 255 0 0
12.2777 -2.78263 -5.26134 255 0 0
12.2599 -2.73277 -5.254 255 0 0
12.2529 -2.68551 -5.24959 255 0 0
12.2821 -2.63093 -5.254 255 0 0
12.2581 -2.58024 -5.24519 255 0 0
12.3368 -2.53578 -5.26281 255 0 0
12.3772 -2.3915 -5.26575 255 0 0
12.3717 -2.36002 -5.26281 255 0 0
12.4885 -2.29037 -5.28924 255 0 0
12.5218 -2.2658 -5.29658 255 0 0
12.6831 -2.23293 -5.33623 255 0 0
12.733 -2.21061 -5.34798 255 0 0
12.844 -2.16718 -5.37441 255 0 0
13.1506 -2.15482 -5.45223 255 0 0
13.4517 -2.13872 -5.52859 255 0 0
12.323 -3.73117 -5.44996 255 0 0
12.2955 -3.67515 -5.4386 255 0 0
12.264 -3.60246 -5.42496 255 0 0
12.2562 -3.56863 -5.42041 255 0 0
12.2266 -3.52858 -5.4098 255 0 0
12.2202 -2.57227 -5.34615 255 0 0
12.1931 -2.53637 -5.33706 255 0 0
12.1714 -2.50176 -5.32948 255 0 0
12.2108 -2.44958 -5.33706 255 0 0
12.2221 -2.42172 -5.33858 255 0 0
12.239 -2.37987 -5.34085 255 0 0
12.422 -2.24775 -5.38253 255 0 0
12.5108 -2.2332 -5.40526 255 0 0
12.5662 -2.21235 -5.4189 255 0 0
12.7155 -2.1455 -5.45527 255 0 0
12.8489 -2.13668 -5.49012 255 0 0
13.0381 -2.13639 -5.54013 255 0 0
13.3446 -2.15414 -5.62197 255 0 0
13.4726 -2.14203 -5.65531 255 0 0
12.2024 -2.93337 -5.47483 255 0 0
12.4877 -3.79721 -5.61388 255 0 0
12.313 -3.71221 -5.56076 255 0 0
12.3368 -3.59211 -5.55763 255 0 0
12.2748 -3.54251 -5.53732 255 0 0
12.2331 -3.48339 -5.5217 255 0 0
12.2097 -3.3363 -5.50451 255 0 0
12.2175 -3.30734 -5.50451 255 0 0
12.1977 -3.11644 -5.48576 255 0 0
12.201 -2.84138 -5.46858 255 0 0
12.1966 -2.73386 -5.46076 255 0 0
12.2008 -2.68925 -5.4592 255 0 0
12.1851 -2.65551 -5.45295 255 0 0
12.1816 -2.56412 -5.4467 255 0 0
12.2207 -2.54213 -5.45608 255 0 0
12.1604 -2.49951 -5.43733 255 0 0
12.1995 -2.47741 -5.4467 255 0 0
12.3107 -2.43928 -5.47483 255 0 0
12.2806 -2.2974 -5.4592 255 0 0
12.3331 -2.26187 -5.4717 255 0 0
12.3939 -2.24267 -5.48733 255 0 0
12.5319 -2.17569 -5.5217 255 0 0
13.1872 -2.19295 -5.70138 255 0 0
12.2323 -3.71955 -5.65465 255 0 0
12.2822 -3.67118 -5.6643 255 0 0
12.2909 -3.64205 -5.6643 255 0 0
12.2185 -3.58909 -5.64016 255 0 0
12.2269 -3.56011 -5.64016 255 0 0
12.157 -2.4838 -5.54682 255 0 0
12.2048 -2.38823 -5.55487 255 0 0
12.2188 -2.34588 -5.55648 255 0 0
12.2353 -2.28892 -5.55809 255 0 0
12.3923 -2.19686 -5.59752 255 0 0
12.4139 -2.1552 -5.60154 255 0 0
12.7131 -2.1761 -5.68683 255 0 0
12.1948 -2.28136 -5.65811 255 0 0
12.2801 -2.25216 -5.68129 255 0 0
12.302 -2.22603 -5.68626 255 0 0
12.3844 -2.18033 -5.70779 255 0 0
