ply
format ascii 1.0
comment Created by Open3D
element vertex 288
property double x
property double y
property double z
property uchar red
property uchar green
property uchar blue
end_header
-13.2954 9.44462 -5.50902 255 0 0
-12.0108 9.84064 -5.74826 255 0 0
-12.1908 9.60753 -5.74688 255 0 0
-12.1762 9.83223 -5.50372 255 0 0
-12.2848 9.96816 -5.68011 255 0 0
-12.5307 10.3413 -5.21417 255 0 0
-13.8865 9.18669 -5.72758 255 0 0
-12.5508 9.51098 -5.52547 255 0 0
-11.6342 10.4423 -5.49989 255 0 0
-12.1091 10.066 -5.2514 255 0 0
-13.2211 8.79159 -5.69337 255 0 0
-12.3139 9.65732 -5.64031 255 0 0
-12.4357 9.75279 -5.26324 255 0 0
-13.6096 9.33188 -5.69432 255 0 0
-12.8637 9.55739 -5.72786 255 0 0
-11.1586 10.6038 -5.85159 255 0 0
-12.9856 9.17825 -5.56001 255 0 0
-12.6806 9.19003 -5.64296 255 0 0
-12.7995 9.36908 -5.41295 255 0 0
-11.7003 9.9153 -5.83738 255 0 0
-13.2752 8.78224 -5.70266 255 0 0
-12.3676 9.79447 -5.39447 255 0 0
-12.8656 9.60618 -5.31534 255 0 0
-13.4512 10.2941 -5.6445 255 0 0
-12.0389 9.86365 -5.62041 255 0 0
-12.0395 10.0081 -5.505 255 0 0
-13.9062 9.34259 -5.75061 255 0 0
-11.6794 10.3832 -5.49861 255 0 0
-12.623 10.3422 -5.22837 255 0 0
-11.8239 10.4616 -5.39694 255 0 0
-11.9568 9.89155 -5.60979 255 0 0
-11.7916 10.3337 -5.37353 255 0 0
-12.6327 9.66762 -5.56129 255 0 0
-12.2587 9.56713 -5.75375 255 0 0
-11.1714 10.5656 -5.84733 255 0 0
-12.4454 9.76044 -5.40309 255 0 0
-11.7854 11.0936 -5.76501 255 0 0
-12.7447 10.044 -5.21019 255 0 0
-12.3976 9.34865 -5.74826 255 0 0
-13.2264 9.44286 -5.4967 255 0 0
-13.05 8.90271 -5.6748 255 0 0
-12.7833 9.26448 -5.53443 255 0 0
-12.6805 9.09856 -5.76749 255 0 0
-12.175 9.87908 -5.51012 255 0 0
-12.6649 10.2269 -5.22042 255 0 0
-12.0644 10.8284 -5.48808 255 0 0
-12.9363 8.89275 -5.78948 255 0 0
-12.2183 10.8623 -5.37572 255 0 0
-12.0554 11.1339 -5.67386 255 0 0
-12.8863 10.8158 -5.61987 255 0 0
-13.2016 8.73356 -5.82108 255 0 0
-12.1 9.9618 -5.50884 255 0 0
-12.8359 9.48957 -5.71327 255 0 0
-12.3266 9.85753 -5.81009 255 0 0
-11.8879 10.3189 -5.52419 255 0 0
-12.5793 9.185 -5.75994 255 0 0
-12.0743 9.53896 -5.85017 255 0 0
-11.7938 9.80389 -5.83738 255 0 0
-12.998 10.8571 -5.79154 255 0 0
-11.9535 10.6777 -5.44867 255 0 0
-12.6594 10.6253 -5.84461 255 0 0
-12.7844 9.31159 -5.54082 255 0 0
-12.5049 10.395 -5.21701 255 0 0
-12.3408 9.84491 -5.25969 255 0 0
-12.2106 9.90794 -5.38339 255 0 0
-13.5887 9.41258 -5.70072 255 0 0
-12.6772 9.2335 -5.64827 255 0 0
-11.8247 10.3133 -5.376 255 0 0
-13.0919 8.7955 -5.80734 255 0 0
-13.0447 9.17373 -5.57024 255 0 0
-12.1902 10.76 -5.35737 255 0 0
-12.9747 8.94184 -5.66551 255 0 0
-12.6825 9.5635 -5.27982 255 0 0
-12.0035 9.9782 -5.63102 255 0 0
-12.3432 9.87074 -5.53826 255 0 0
-12.4555 9.29997 -5.75238 255 0 0
-11.628 10.4866 -5.77986 255 0 0
-12.1116 10.0196 -5.51907 255 0 0
-12.2918 9.59301 -5.62704 255 0 0
-13.4858 10.3713 -5.66051 255 0 0
-12.0827 11.0535 -5.66618 255 0 0
-12.3799 9.38146 -5.74963 255 0 0
-12.0472 11.021 -5.79818 255 0 0
-12.2367 9.69082 -5.63102 255 0 0
-11.9897 10.2095 -5.38831 255 0 0
-12.6425 9.30027 -5.65092 255 0 0
-12.6639 10.1272 -5.20792 255 0 0
-12.4863 9.69723 -5.26442 255 0 0
-11.4335 10.2133 -5.83596 255 0 0
-12.3495 9.78017 -5.52675 255 0 0
-12.3446 10.0167 -5.83757 255 0 0
-12.6801 10.5916 -5.84328 255 0 0
-12.0359 9.57831 -5.84875 255 0 0
-13.2729 9.91032 -5.7084 255 0 0
-12.5463 9.64878 -5.54338 255 0 0
-12.1523 10.0048 -5.25021 255 0 0
-12.3746 9.89591 -5.40925 255 0 0
-12.9504 10.8696 -5.78515 255 0 0
-12.7146 9.49347 -5.41418 255 0 0
-12.7513 9.0581 -5.77574 255 0 0
-12.2859 9.49497 -5.74826 255 0 0
-12.8306 9.06869 -5.6549 255 0 0
-12.9488 8.96933 -5.66419 255 0 0
-13.4981 9.30251 -5.67002 255 0 0
-12.7602 9.57471 -5.29402 255 0 0
-12.6331 9.57329 -5.41048 255 0 0
-12.5086 9.24757 -5.75513 255 0 0
-12.3467 11.1879 -5.73014 255 0 0
-12.4411 9.52106 -5.64429 255 0 0
-12.7596 9.10955 -5.64694 255 0 0
-11.8995 9.70237 -5.84164 255 0 0
-12.88 8.94425 -5.78535 255 0 0
-11.7873 10.33 -5.50884 255 0 0
-12.1451 10.0959 -5.39817 255 0 0
-11.906 10.5847 -5.42773 255 0 0
-13.7199 9.31216 -5.71223 255 0 0
-12.4588 9.72328 -5.26324 255 0 0
-13.1526 9.96701 -5.26473 255 0 0
-12.8434 8.98675 -5.78398 255 0 0
-12.0023 9.8813 -5.61643 255 0 0
-12.5237 9.53725 -5.52419 255 0 0
-11.9368 10.2625 -5.38708 255 0 0
-12.4582 9.81827 -5.41295 255 0 0
-12.683 9.54033 -5.41479 255 0 0
-12.1739 10.6178 -5.33547 255 0 0
-11.8829 10.2899 -5.38216 255 0 0
-12.2899 9.87603 -5.80596 255 0 0
-12.3817 9.75793 -5.52931 255 0 0
-12.5584 10.2396 -5.20564 255 0 0
-11.7472 9.85971 -5.83738 255 0 0
-12.03 10.2931 -5.26916 255 0 0
-12.7613 10.1063 -5.22042 255 0 0
-12.5321 9.63791 -5.26442 255 0 0
-11.7291 10.3529 -5.50245 255 0 0
-12.6278 9.5693 -5.27153 255 0 0
-11.4366 10.4127 -5.59785 255 0 0
-12.7715 9.34862 -5.54338 255 0 0
-12.9158 10.8929 -5.78259 255 0 0
-11.8533 9.75869 -5.84164 255 0 0
-13.0147 8.92395 -5.67082 255 0 0
-13.9283 9.30959 -5.75061 255 0 0
-13.3978 10.3543 -5.64327 255 0 0
-12.1546 9.95843 -5.5178 255 0 0
-12.3688 9.89121 -5.68409 255 0 0
-13.2162 9.2476 -5.61118 255 0 0
-11.313 10.3002 -5.6933 255 0 0
-12.2968 9.88157 -5.25732 255 0 0
-12.3275 9.90622 -5.67878 255 0 0
-12.8145 9.24083 -5.53698 255 0 0
-12.2255 10.0165 -5.40063 255 0 0
-12.405 9.5401 -5.64031 255 0 0
-12.6188 9.14523 -5.762 255 0 0
-11.5986 10.3607 -5.61775 255 0 0
-12.0939 10.4475 -5.29994 255 0 0
-12.3461 9.58832 -5.63633 255 0 0
-11.3397 10.4481 -5.72215 255 0 0
-12.8385 9.97073 -5.21587 255 0 0
-11.6377 10.3956 -5.49349 255 0 0
-12.866 9.04808 -5.65888 255 0 0
-12.6897 10.2967 -5.23292 255 0 0
-12.6399 10.1572 -5.20792 255 0 0
-12.7059 10.1115 -5.21246 255 0 0
-12.7893 10.0057 -5.21246 255 0 0
-13.0399 10.053 -5.25735 255 0 0
-13.0874 9.99106 -5.25735 255 0 0
-12.1396 9.47421 -5.85301 255 0 0
-13.049 9.59937 -5.34494 255 0 0
-11.8258 9.78314 -5.84022 255 0 0
-12.1487 10.6467 -5.33547 255 0 0
-12.036 10.3478 -5.27745 255 0 0
-12.0457 10.2571 -5.26679 255 0 0
-12.0306 10.1952 -5.25613 255 0 0
-12.0459 10.1592 -5.25377 255 0 0
-12.0568 10.1196 -5.25021 255 0 0
-12.1285 10.0336 -5.25021 255 0 0
-12.1892 9.98684 -5.25377 255 0 0
-12.2291 9.94704 -5.25495 255 0 0
-12.3919 9.78984 -5.26087 255 0 0
-12.5777 9.60197 -5.26738 255 0 0
-13.0078 9.61665 -5.3402 255 0 0
-12.8814 9.19656 -5.54338 255 0 0
-12.3084 9.79519 -5.52163 255 0 0
-12.1699 11.0277 -5.53365 255 0 0
-12.0855 10.8991 -5.50163 255 0 0
-11.7928 10.3844 -5.38092 255 0 0
-11.9829 10.2528 -5.39324 255 0 0
-12.0357 10.1995 -5.39447 255 0 0
-12.8256 10.8168 -5.61001 255 0 0
-12.89 10.7669 -5.61371 255 0 0
-12.1646 10.0634 -5.39694 255 0 0
-12.1619 10.0127 -5.38955 255 0 0
-12.2714 10.0056 -5.40679 255 0 0
-12.3276 9.95448 -5.40925 255 0 0
-12.3288 9.9073 -5.40309 255 0 0
-12.3219 9.80595 -5.38831 255 0 0
-12.4369 9.70626 -5.39447 255 0 0
-12.6905 9.85581 -5.45729 255 0 0
-12.9519 9.86333 -5.50286 255 0 0
-12.746 9.44649 -5.41356 255 0 0
-12.768 9.39261 -5.41048 255 0 0
-12.8401 9.35218 -5.41787 255 0 0
-12.8901 9.34187 -5.42526 255 0 0
-12.9818 9.3615 -5.44374 255 0 0
-13.1342 9.42414 -5.47823 255 0 0
-12.9172 9.17592 -5.54722 255 0 0
-12.4952 9.46885 -5.64694 255 0 0
-13.001 9.70729 -5.7743 255 0 0
-12.0944 11.1169 -5.6777 255 0 0
-12.2019 11.1095 -5.69432 255 0 0
-11.6773 10.531 -5.52035 255 0 0
-11.8419 10.3283 -5.5178 255 0 0
-12.8987 10.9308 -5.78515 255 0 0
-12.1161 9.87903 -5.49989 255 0 0
-12.3019 9.88566 -5.53315 255 0 0
-12.4857 9.79202 -5.55233 255 0 0
-12.5674 9.80809 -5.56896 255 0 0
-12.4733 9.68714 -5.5357 255 0 0
-12.5595 9.70645 -5.55361 255 0 0
-13.2992 10.0038 -5.72567 255 0 0
-12.9019 9.58576 -5.59839 255 0 0
-12.8878 9.52797 -5.58815 255 0 0
-12.7447 9.37549 -5.5421 255 0 0
-12.8457 9.21709 -5.53954 255 0 0
-13.3178 9.27174 -5.63292 255 0 0
-13.6223 9.29314 -5.69177 255 0 0
-13.7704 9.29879 -5.71991 255 0 0
-13.917 9.25439 -5.74166 255 0 0
-12.2723 9.53105 -5.751 255 0 0
-11.5282 10.3965 -5.61112 255 0 0
-12.7113 9.07508 -5.77024 255 0 0
-12.3306 9.95692 -5.68674 255 0 0
-11.8616 11.1124 -5.78093 255 0 0
-11.4739 10.397 -5.60183 255 0 0
-11.5528 10.3691 -5.61112 255 0 0
-11.6359 10.3446 -5.62173 255 0 0
-12.133 9.89274 -5.64163 255 0 0
-12.3788 9.8512 -5.68011 255 0 0
-12.2462 9.65119 -5.62704 255 0 0
-12.4139 9.5939 -5.64959 255 0 0
-12.5045 9.52263 -5.65623 255 0 0
-13.1421 9.86131 -5.82206 255 0 0
-12.6783 9.28038 -5.6549 255 0 0
-12.7247 9.1532 -5.64628 255 0 0
-12.7904 9.08587 -5.64959 255 0 0
-12.8781 9.01101 -5.65623 255 0 0
-12.9181 8.99349 -5.66153 255 0 0
-13.0805 8.87815 -5.67745 255 0 0
-13.1356 8.84748 -5.68409 255 0 0
-13.1812 8.81023 -5.68807 255 0 0
-13.3579 8.7915 -5.71991 255 0 0
-11.3852 10.4154 -5.7249 255 0 0
-11.3248 10.2619 -5.68918 255 0 0
-11.9274 9.9149 -5.74413 255 0 0
-11.9567 9.84376 -5.73864 255 0 0
-12.1091 9.87328 -5.77161 255 0 0
-12.3688 9.79543 -5.80871 255 0 0
-12.1912 9.56104 -5.74001 255 0 0
-12.3219 9.47622 -5.75238 255 0 0
-12.3576 9.41079 -5.74963 255 0 0
-12.4288 9.32606 -5.751 255 0 0
-12.4866 9.27721 -5.75513 255 0 0
-12.6496 9.12194 -5.76475 255 0 0
-12.8034 9.00408 -5.77849 255 0 0
-12.9961 8.86594 -5.79772 255 0 0
-13.0568 8.81696 -5.80322 255 0 0
-13.1302 8.7536 -5.8094 255 0 0
-13.2841 8.74291 -5.83894 255 0 0
-11.9313 9.68129 -5.84449 255 0 0
-11.1861 10.5044 -5.83951 255 0 0
-11.2255 10.4665 -5.84022 255 0 0
-11.2666 10.4055 -5.83738 255 0 0
-11.216 10.3095 -5.8118 255 0 0
-11.4018 10.2826 -5.84164 255 0 0
-11.4953 10.1952 -5.84449 255 0 0
-11.5187 10.1429 -5.84022 255 0 0
-11.5427 10.1156 -5.84022 255 0 0
-11.5624 10.0845 -5.8388 255 0 0
-11.5777 10.0496 -5.83596 255 0 0
-11.6015 10.0221 -5.83596 255 0 0
-11.6252 9.99457 -5.83596 255 0 0
-11.6402 9.9596 -5.83312 255 0 0
-11.6768 9.94302 -5.83738 255 0 0
-11.7238 9.88754 -5.83738 255 0 0
-11.7705 9.83183 -5.83738 255 0 0
-11.872 9.72696 -5.84022 255 0 0
-11.9722 9.64414 -5.84662 255 0 0
-11.9998 9.59618 -5.84449 255 0 0
-12.1082 9.49596 -5.85017 255 0 0
