ply
format ascii 1.0
comment Created by Open3D
element vertex 126
property double x
property double y
property double z
property uchar red
property uchar green
property uchar blue
end_header
-21.0808 7.6885 -5.47757 255 0 0
-20.9402 8.26209 -5.10652 255 0 0
-20.8877 8.35609 -4.34564 255 0 0
-20.117 7.9925 -5.53923 255 0 0
-21.6004 8.22801 -5.18977 255 0 0
-20.5649 8.34028 -4.50041 255 0 0
-21.6469 8.24574 -4.80513 255 0 0
-20.1099 7.66026 -5.51844 255 0 0
-21.0965 8.26604 -4.93512 255 0 0
-21.5689 8.33335 -4.60531 255 0 0
-20.8089 8.2674 -4.71151 255 0 0
-21.0677 8.25474 -5.12253 255 0 0
-20.3944 8.44055 -4.30132 255 0 0
-20.7999 7.698 -5.43722 255 0 0
-20.311 8.51906 -4.85313 255 0 0
-21.3729 7.68041 -5.51972 255 0 0
-21.5803 8.22035 -5.38261 255 0 0
-20.0682 8.08349 -5.53734 255 0 0
-20.2058 7.97235 -5.55151 255 0 0
-21.2567 7.69561 -5.50358 255 0 0
-20.2003 7.97017 -5.36548 255 0 0
-20.1914 8.13311 -5.37355 255 0 0
-20.1762 7.90545 -5.54301 255 0 0
-20.251 8.21299 -5.201 255 0 0
-20.3874 7.71066 -5.37803 255 0 0
-20.2529 8.26974 -5.2044 255 0 0
-20.3243 8.41155 -4.84937 255 0 0
-20.2403 7.82003 -5.36279 255 0 0
-21.4025 8.32742 -5.36394 255 0 0
-20.6921 8.27785 -4.69884 255 0 0
-20.2133 8.30953 -5.387 255 0 0
-20.0636 8.248 -5.54679 255 0 0
-20.2937 8.28638 -4.65449 255 0 0
-20.312 8.35009 -4.84486 255 0 0
-20.5627 7.72129 -5.40404 255 0 0
-21.3972 8.32539 -4.58695 255 0 0
-20.4288 8.34155 -4.30071 255 0 0
-20.9418 8.26276 -4.91632 255 0 0
-20.0701 7.69964 -5.51466 255 0 0
-20.2685 8.44479 -5.21628 255 0 0
-20.9129 7.73982 -5.26635 255 0 0
-21.5445 8.26526 -5.38006 255 0 0
-21.2243 8.25811 -4.95016 255 0 0
-21.2527 8.21119 -5.14414 255 0 0
-20.3833 8.21041 -5.21883 255 0 0
-20.3982 8.38553 -4.2995 255 0 0
-20.2955 8.34332 -4.65731 255 0 0
-20.3156 8.29532 -4.8426 255 0 0
-20.255 8.43916 -5.02808 255 0 0
-21.0027 7.71651 -5.46771 255 0 0
-20.1999 8.08091 -5.37175 255 0 0
-21.1194 8.3328 -4.5581 255 0 0
-20.8076 8.20981 -5.27653 255 0 0
-20.3904 8.4956 -4.30314 255 0 0
-20.5996 8.35437 -4.31771 255 0 0
-20.6788 8.32944 -4.32439 255 0 0
-20.9833 8.33665 -4.35414 255 0 0
-21.133 8.33817 -4.36872 255 0 0
-21.2883 8.34116 -4.3839 255 0 0
-21.4382 8.34134 -4.39847 255 0 0
-21.572 8.33457 -4.41122 255 0 0
-21.6842 8.31886 -4.42154 255 0 0
-20.4372 8.28849 -4.67068 255 0 0
-20.2591 8.4973 -5.21798 255 0 0
-20.684 7.71091 -5.42107 255 0 0
-20.7195 8.34585 -4.5168 255 0 0
-21.6214 8.17735 -5.386 255 0 0
-20.2875 8.50922 -4.47878 255 0 0
-20.3076 8.4611 -4.47878 255 0 0
-20.3169 8.40847 -4.47747 255 0 0
-20.3098 8.34921 -4.47419 255 0 0
-20.4481 8.34943 -4.48861 255 0 0
-20.8311 8.33344 -4.52795 255 0 0
-20.9752 8.33344 -4.54303 255 0 0
-21.2637 8.33152 -4.57318 255 0 0
-21.6592 8.30928 -4.61383 255 0 0
-20.2164 8.42309 -5.39417 255 0 0
-20.2933 8.45511 -4.66224 255 0 0
-20.2918 8.39808 -4.65942 255 0 0
-20.5592 8.28128 -4.68406 255 0 0
-20.9583 8.26924 -4.72841 255 0 0
-21.0969 8.26617 -4.74389 255 0 0
-21.2519 8.26882 -4.76149 255 0 0
-21.3907 8.2645 -4.77698 255 0 0
-21.5459 8.26581 -4.79457 255 0 0
-20.3556 8.2554 -5.03128 255 0 0
-21.4833 8.2418 -5.17536 255 0 0
-20.0549 7.80311 -5.51844 255 0 0
-20.3204 8.46641 -4.85163 255 0 0
-20.3836 8.26677 -4.84937 255 0 0
-20.5271 8.26832 -4.86667 255 0 0
-20.6544 8.26276 -4.88171 255 0 0
-20.7927 8.26093 -4.89826 255 0 0
-21.3793 8.26008 -4.96897 255 0 0
-21.5072 8.25097 -4.98401 255 0 0
-21.6461 8.24543 -5.00056 255 0 0
-20.2189 8.48043 -5.02568 255 0 0
-20.2428 8.3778 -5.02328 255 0 0
-20.2662 8.27514 -5.02087 255 0 0
-20.513 8.20618 -5.04889 255 0 0
-20.6618 8.20892 -5.0681 255 0 0
-20.2403 8.37677 -5.20864 255 0 0
-20.2386 8.31994 -5.20525 255 0 0
-20.4834 8.19433 -5.23155 255 0 0
-20.6858 8.21847 -5.26041 255 0 0
-21.1777 8.29783 -5.33169 255 0 0
-21.4978 8.30588 -5.37582 255 0 0
-20.762 7.79614 -5.24853 255 0 0
-20.8022 7.75498 -5.25192 255 0 0
-21.078 7.74416 -5.28926 255 0 0
-20.3415 8.58863 -5.42197 255 0 0
-20.2177 8.47995 -5.39776 255 0 0
-20.1989 8.35964 -5.3879 255 0 0
-20.2008 8.24845 -5.38162 255 0 0
-20.1989 8.19183 -5.37803 255 0 0
-20.2028 8.02659 -5.36906 255 0 0
-20.2137 7.92014 -5.36458 255 0 0
-20.2325 7.87219 -5.36458 255 0 0
-20.2642 7.77409 -5.36368 255 0 0
-20.2663 7.71984 -5.36099 255 0 0
-21.5546 7.68803 -5.54662 255 0 0
-21.6164 7.65235 -5.55379 255 0 0
-20.2107 8.08525 -5.55907 255 0 0
-20.179 8.4075 -5.57418 255 0 0
-20.1081 8.32207 -5.55812 255 0 0
-20.1496 7.62074 -5.52222 255 0 0
