ply
format ascii 1.0
comment Created by Open3D
element vertex 765
property double x
property double y
property double z
property uchar red
property uchar green
property uchar blue
end_header
-16.1103 -1.70614 -3.96183 255 0 0
-18.6665 -2.651 -3.33414 255 0 0
-14.1485 -2.94313 -4.61012 255 0 0
-16.1078 -2.03489 -4.10318 255 0 0
-14.0055 -1.75244 -4.42838 255 0 0
-15.7668 -2.12489 -4.73714 255 0 0
-14.039 -3.19932 -4.97315 255 0 0
-13.9455 -1.54378 -4.53415 255 0 0
-14.4027 -1.21516 -5.10996 255 0 0
-14.0323 -2.6768 -4.8261 255 0 0
-13.9269 -2.53709 -5.16921 255 0 0
-16.0161 -1.58105 -3.81336 255 0 0
-16.1411 -2.25331 -3.8363 255 0 0
-16.3324 -1.18315 -4.12123 255 0 0
-15.9668 -1.4425 -3.94142 255 0 0
-13.9699 -1.61358 -4.41944 255 0 0
-16.1843 -2.59286 -3.84679 255 0 0
-14.884 -1.29132 -4.57035 255 0 0
-16.4754 -2.26016 -4.57724 255 0 0
-13.9923 -2.48053 -4.68877 255 0 0
-16.0654 -1.58591 -3.68318 255 0 0
-16.1356 -2.36967 -4.38887 255 0 0
-15.6679 -1.58419 -4.70934 255 0 0
-13.9106 -2.27937 -5.15578 255 0 0
-13.9491 -1.51071 -4.53415 255 0 0
-16.2294 -2.58035 -4.12875 255 0 0
-13.9886 -2.49698 -4.93407 255 0 0
-17.3953 -0.970252 -4.70009 255 0 0
-16.6335 -1.20497 -4.01955 255 0 0
-15.0835 -1.2006 -4.73293 255 0 0
-16.1441 -1.74843 -3.55678 255 0 0
-14.0473 -2.99164 -5.09025 255 0 0
-14.0849 -2.47972 -4.58307 255 0 0
-13.8659 -1.78509 -4.88671 255 0 0
-13.8955 -1.87268 -4.77383 255 0 0
-16.2354 -1.09876 -4.66056 255 0 0
-15.9964 -1.34962 -3.80877 255 0 0
-14.0676 -2.51108 -4.58098 255 0 0
-13.9051 -1.84043 -4.65394 255 0 0
-16.3205 -2.19951 -4.13327 255 0 0
-16.4439 -1.26965 -3.71961 255 0 0
-13.804 -1.495 -5.10845 255 0 0
-16.3679 -2.48313 -4.14455 255 0 0
-16.8085 -1.0575 -4.46695 255 0 0
-16.136 -2.33066 -3.83696 255 0 0
-14.1076 -2.96954 -4.60388 255 0 0
-16.013 -1.42753 -3.81139 255 0 0
-15.9875 -1.19628 -4.21243 255 0 0
-15.997 -1.5026 -4.08136 255 0 0
-16.2179 -2.24444 -3.56963 255 0 0
-15.0595 -1.27058 -4.60013 255 0 0
-14.0692 -2.1344 -4.44823 255 0 0
-17.2247 -1.32993 -3.65624 255 0 0
-15.0818 -1.12851 -4.99201 255 0 0
-16.0096 -2.6428 -4.653 255 0 0
-14.0375 -2.64332 -4.57994 255 0 0
-13.8598 -1.88461 -5.00958 255 0 0
-15.3 -2.88106 -4.67856 255 0 0
-16.1951 -1.40507 -3.55845 255 0 0
-14.2461 -1.27001 -4.70619 255 0 0
-14.0185 -2.77766 -4.70401 255 0 0
-14.0226 -2.43449 -4.57058 255 0 0
-13.9742 -2.5971 -5.05823 255 0 0
-16.1814 -2.1417 -3.97662 255 0 0
-14.2861 -1.27358 -4.83747 255 0 0
-16.1928 -2.53517 -3.57131 255 0 0
-14.0541 -2.71551 -4.83178 255 0 0
-16.1244 -2.09527 -3.69532 255 0 0
-16.4416 -2.3748 -4.29247 255 0 0
-14.1012 -2.82881 -4.59764 255 0 0
-16.8594 -1.14099 -4.0463 255 0 0
-16.4437 -0.995414 -4.97542 255 0 0
-17.7232 -0.84106 -4.90101 255 0 0
-14.0054 -2.58575 -4.69476 255 0 0
-16.2621 -2.50654 -3.57745 255 0 0
-13.9213 -1.89298 -4.65829 255 0 0
-16.1599 -1.59524 -3.55678 255 0 0
-15.9608 -1.61381 -4.34984 255 0 0
-16.0267 -1.81265 -3.81729 255 0 0
-16.1696 -1.9843 -3.56181 255 0 0
-16.6771 -1.48673 -4.45252 255 0 0
-13.9955 -2.42979 -4.81019 255 0 0
-16.2661 -2.78428 -3.99844 255 0 0
-13.8705 -1.5022 -4.63979 255 0 0
-16.3813 -1.22575 -3.98929 255 0 0
-16.0478 -1.39229 -4.08663 255 0 0
-16.1454 -1.94247 -3.55901 255 0 0
-14.0326 -2.19698 -4.56537 255 0 0
-14.0592 -1.48892 -4.43235 255 0 0
-17.7059 -0.777146 -4.89771 255 0 0
-14.2534 -3.10626 -4.50979 255 0 0
-16.2161 -2.38149 -3.57131 255 0 0
-16.9696 -1.18888 -3.77365 255 0 0
-16.0742 -2.05001 -4.3736 255 0 0
-14.0233 -2.88243 -5.0804 255 0 0
-16.523 -2.34657 -4.16185 255 0 0
-14.0279 -2.28149 -4.56693 255 0 0
-16.1302 -1.28391 -3.82319 255 0 0
-16.0312 -1.77467 -4.36257 255 0 0
-16.1237 -2.74023 -4.1186 255 0 0
-13.9389 -1.44277 -4.53103 255 0 0
-14.2808 -3.00599 -4.51078 255 0 0
-16.168 -2.72804 -3.84745 255 0 0
-16.037 -1.89088 -3.9555 255 0 0
-16.2023 -2.53667 -3.7099 255 0 0
-16.319 -2.47571 -4.41773 255 0 0
-13.9441 -1.77835 -4.41845 255 0 0
-15.8963 -1.49313 -4.61049 255 0 0
-13.9097 -2.09335 -4.90447 255 0 0
-14.0677 -2.83944 -4.83917 255 0 0
-16.7026 -1.489 -4.31408 255 0 0
-14.0485 -2.50767 -4.45518 255 0 0
-15.9137 -1.22871 -4.33796 255 0 0
-13.9781 -2.29042 -4.68006 255 0 0
-13.9492 -2.28568 -4.91868 255 0 0
-17.7682 -0.65329 -4.60442 255 0 0
-15.9363 -1.76417 -4.48488 255 0 0
-13.9786 -2.35862 -4.80451 255 0 0
-13.8892 -2.14079 -5.02374 255 0 0
-16.1561 -1.63355 -3.55678 255 0 0
-16.7677 -1.01502 -4.74654 255 0 0
-13.9691 -2.23796 -4.6768 255 0 0
-17.0307 -1.03095 -4.49919 255 0 0
-15.7913 -2.24266 -4.74408 255 0 0
-14.0439 -2.99092 -4.96486 255 0 0
-14.0003 -2.22594 -4.80451 255 0 0
-13.9953 -2.29324 -4.80565 255 0 0
-16.0878 -1.70375 -4.09565 255 0 0
-16.7256 -2.29449 -4.47289 255 0 0
-13.9802 -1.31316 -5.02128 255 0 0
-18.2134 -0.75616 -5.13624 255 0 0
-13.9939 -2.53218 -4.93644 255 0 0
-16.0058 -2.70068 -4.65395 255 0 0
-13.9367 -2.18196 -4.91276 255 0 0
-16.1362 -2.36975 -3.83761 255 0 0
-16.1645 -2.29566 -3.83958 255 0 0
-13.9696 -1.71431 -4.42143 255 0 0
-16.2517 -2.22947 -3.98647 255 0 0
-15.8406 -1.75357 -4.60576 255 0 0
-16.6482 -2.36435 -4.32049 255 0 0
-16.0584 -1.58522 -3.95409 255 0 0
-13.8097 -1.6947 -5.11485 255 0 0
-16.1955 -1.09606 -4.79273 255 0 0
-16.2328 -2.58088 -3.57578 255 0 0
-16.5372 -1.55333 -4.433 255 0 0
-14.0828 -2.89465 -4.84428 255 0 0
-16.6869 -1.08958 -4.30768 255 0 0
-14.7709 -1.17571 -5.05958 255 0 0
-16.0149 -2.74127 -4.51805 255 0 0
-13.9862 -2.66801 -4.93999 255 0 0
-16.1791 -2.29774 -3.70383 255 0 0
-14.3692 -1.24665 -4.85337 255 0 0
-16.1039 -2.48216 -4.52523 255 0 0
-15.9732 -1.50036 -3.94283 255 0 0
-13.8553 -1.83384 -5.12892 255 0 0
-16.6642 -2.18551 -4.46185 255 0 0
-13.96 -1.34466 -5.01758 255 0 0
-13.9477 -2.11596 -4.79088 255 0 0
-13.9694 -1.44593 -4.77838 255 0 0
-17.76 -0.821717 -5.0588 255 0 0
-16.008 -1.58024 -4.49295 255 0 0
-16.0575 -1.54669 -3.68197 255 0 0
-16.0136 -1.485 -3.6768 255 0 0
-15.9478 -1.84203 -4.35153 255 0 0
-13.9393 -1.74415 -4.53727 255 0 0
-15.9311 -1.45831 -4.07234 255 0 0
-17.2669 -1.04524 -4.24083 255 0 0
-13.9168 -1.39046 -4.64632 255 0 0
-16.0686 -2.04929 -3.82516 255 0 0
-17.7787 -0.695887 -4.90904 255 0 0
-14.0024 -1.58369 -4.4244 255 0 0
-14.4976 -2.83689 -4.54155 255 0 0
-14.0202 -2.70897 -4.70184 255 0 0
-16.2031 -2.69447 -3.85072 255 0 0
-13.9138 -1.90875 -4.77838 255 0 0
-14.0499 -2.57673 -4.57994 255 0 0
-17.4505 -0.890342 -5.00618 255 0 0
-16.319 -1.29893 -3.70686 255 0 0
-16.7762 -1.05547 -4.31969 255 0 0
-13.9897 -2.42878 -4.6866 255 0 0
-13.9696 -1.51293 -4.41746 255 0 0
-17.5979 -1.06528 -3.98643 255 0 0
-16.0431 -2.82448 -4.6634 255 0 0
-17.7319 -0.694057 -4.59933 255 0 0
-16.0724 -2.34093 -4.51716 255 0 0
-16.2342 -2.6601 -4.13101 255 0 0
-13.943 -1.54351 -4.41348 255 0 0
-17.7296 -0.988899 -4.30026 255 0 0
-16.1559 -2.13833 -3.56236 255 0 0
-16.4783 -1.86372 -3.45085 255 0 0
-13.9731 -1.32918 -5.14235 255 0 0
-16.0458 -1.20064 -4.08437 255 0 0
-15.757 -1.78214 -4.7282 255 0 0
-13.9778 -2.39258 -4.92815 255 0 0
-16.2745 -1.02391 -4.94524 255 0 0
-16.5685 -1.12131 -4.29167 255 0 0
-16.5999 -2.39766 -4.45676 255 0 0
-15.8682 -2.75491 -4.77089 255 0 0
-15.8481 -2.59683 -4.76295 255 0 0
-13.9373 -1.94565 -4.66265 255 0 0
-13.8898 -1.73796 -4.76928 255 0 0
-16.1762 -2.53258 -3.84482 255 0 0
-15.988 -1.31074 -3.80746 255 0 0
-14.0136 -2.70769 -4.9471 255 0 0
-16.2368 -2.81891 -4.13477 255 0 0
-14.0011 -2.3283 -4.80792 255 0 0
-13.8424 -1.59885 -4.87724 255 0 0
-14.0244 -2.83069 -4.9542 255 0 0
-14.0759 -2.92803 -4.84428 255 0 0
-17.841 -0.867861 -4.76825 255 0 0
-17.4617 -1.0986 -3.97135 255 0 0
-16.0284 -1.98628 -3.95585 255 0 0
-13.8454 -1.46628 -4.63434 255 0 0
-16.1415 -2.68423 -3.98154 255 0 0
-13.9748 -2.44328 -4.92934 255 0 0
-16.0861 -2.44038 -3.97028 255 0 0
-13.9409 -2.33527 -4.91868 255 0 0
-13.9371 -1.59304 -4.53363 255 0 0
-16.0385 -1.77548 -3.95409 255 0 0
-15.9848 -1.31048 -4.0776 255 0 0
-16.1922 -2.65322 -3.84876 255 0 0
-16.0656 -1.39383 -3.68136 255 0 0
-15.9042 -1.68431 -4.4786 255 0 0
-13.9925 -2.63484 -4.93999 255 0 0
-17.6143 -0.605813 -4.88164 255 0 0
-15.4738 -1.23166 -4.67062 255 0 0
-13.8503 -1.53325 -4.75678 255 0 0
-15.998 -1.46443 -3.81008 255 0 0
-15.2292 -1.10324 -4.88907 255 0 0
-16.8674 -1.26212 -3.6216 255 0 0
-13.9271 -2.09596 -4.66482 255 0 0
-13.994 -1.88596 -4.42937 255 0 0
-17.6287 -1.0252 -4.28747 255 0 0
-16.3723 -1.10803 -4.54316 255 0 0
-13.9698 -2.49362 -5.0533 255 0 0
-15.9005 -1.56963 -4.61238 255 0 0
-14.024 -2.74421 -4.95065 255 0 0
-15.6085 -1.5408 -4.69842 255 0 0
-16.2159 -2.3422 -3.57075 255 0 0
-15.1175 -1.13119 -4.86839 255 0 0
-16.704 -1.01117 -4.8791 255 0 0
-17.7863 -0.780674 -4.60782 255 0 0
-14.0942 -2.48136 -4.46213 255 0 0
-14.8161 -1.33854 -4.55943 255 0 0
-16.0876 -2.87165 -4.6719 255 0 0
-13.8669 -1.46855 -5.00034 255 0 0
-16.2109 -2.65629 -3.98929 255 0 0
-15.9577 -1.4226 -4.07535 255 0 0
-14.0879 -2.98283 -4.84883 255 0 0
-16.1877 -1.83086 -3.56181 255 0 0
-16.5019 -1.0775 -4.56289 255 0 0
-16.1614 -2.25615 -3.7014 255 0 0
-16.1312 -1.86322 -3.55678 255 0 0
-17.3818 -1.13495 -3.81616 255 0 0
-15.8599 -1.03558 -5.14428 255 0 0
-13.984 -2.32544 -4.68224 255 0 0
-13.8785 -1.93745 -5.01512 255 0 0
-16.7422 -1.05333 -4.74276 255 0 0
-14.83 -1.18042 -4.94315 255 0 0
-14.2879 -1.2396 -4.96131 255 0 0
-17.7919 -0.907759 -4.60951 255 0 0
-16.0163 -1.3513 -4.08212 255 0 0
-16.1457 -1.78734 -3.55734 255 0 0
-17.2442 -1.12597 -3.9471 255 0 0
-16.2064 -2.30161 -3.98225 255 0 0
-16.9861 -1.14957 -3.91825 255 0 0
-18.4807 -2.57992 -3.63253 255 0 0
-16.1901 -2.61347 -3.7099 255 0 0
-16.1608 -2.37337 -3.97802 255 0 0
-16.0005 -2.54396 -4.51088 255 0 0
-16.0008 -1.38821 -3.94494 255 0 0
-16.2291 -2.5803 -3.98999 255 0 0
-16.0571 -1.66202 -4.09114 255 0 0
-13.9282 -1.69249 -4.53415 255 0 0
-16.007 -1.58015 -4.08362 255 0 0
-16.1511 -1.43984 -3.55454 255 0 0
-16.1419 -2.48802 -3.84024 255 0 0
-13.8128 -1.54567 -5.11165 255 0 0
-14.648 -1.20089 -5.03472 255 0 0
-16.1752 -2.72926 -3.98647 255 0 0
-16.5836 -1.12233 -4.4347 255 0 0
-16.7832 -2.34295 -4.48222 255 0 0
-16.1159 -2.79791 -4.25725 255 0 0
-16.1512 -1.86552 -3.96887 255 0 0
-16.0365 -2.08386 -3.95831 255 0 0
-14.6669 -1.20244 -4.91133 255 0 0
-16.7446 -2.21625 -4.33089 255 0 0
-14.0276 -1.31761 -4.90921 255 0 0
-16.1942 -2.61414 -3.98647 255 0 0
-15.9358 -1.57311 -4.34559 255 0 0
-16.8796 -0.98164 -4.76449 255 0 0
-16.1267 -2.74073 -4.39609 255 0 0
-16.2235 -2.63861 -3.57578 255 0 0
-13.9366 -2.14811 -4.66809 255 0 0
-17.3464 -0.843801 -5.13673 255 0 0
-15.8762 -1.11228 -4.73813 255 0 0
-16.0566 -1.27805 -3.95057 255 0 0
-16.6124 -1.52067 -4.30208 255 0 0
-13.9402 -2.23333 -4.91513 255 0 0
-16.0379 -1.6216 -4.08813 255 0 0
-16.1989 -2.41821 -3.57019 255 0 0
-16.0267 -1.63966 -3.95092 255 0 0
-18.5918 -2.59542 -3.48524 255 0 0
-16.8529 -1.06029 -4.18742 255 0 0
-13.8543 -1.96757 -5.13276 255 0 0
-16.5572 -2.3114 -4.16561 255 0 0
-15.8346 -1.24148 -4.46156 255 0 0
-17.3693 -1.09279 -4.10755 255 0 0
-14.0795 -1.32248 -4.67571 255 0 0
-15.704 -2.91858 -4.74806 255 0 0
-16.2594 -1.87802 -3.43197 255 0 0
-16.4327 -2.09573 -3.44932 255 0 0
-16.7217 -0.932679 -5.16883 255 0 0
-16.0539 -1.93147 -3.82188 255 0 0
-16.154 -2.13808 -3.69897 255 0 0
-13.9886 -2.08825 -4.43334 255 0 0
-16.1202 -2.19197 -3.83302 255 0 0
-15.8891 -1.26472 -4.19962 255 0 0
-16.1339 -2.76165 -4.25885 255 0 0
-16.233 -2.30538 -3.57186 255 0 0
-14.0499 -2.64565 -4.82837 255 0 0
-17.1028 -1.15746 -3.64339 255 0 0
-16.9488 -1.18742 -3.62886 255 0 0
-16.7948 -1.21665 -3.61433 255 0 0
-16.7683 -1.3347 -3.61266 255 0 0
-14.0721 -2.61529 -4.58515 255 0 0
-16.6721 -1.36683 -3.60371 255 0 0
-16.4598 -1.38872 -3.5836 255 0 0
-16.1302 -1.47654 -3.55287 255 0 0
-16.1597 -1.53721 -3.55622 255 0 0
-16.1058 -1.66705 -3.55231 255 0 0
-16.1598 -1.71137 -3.55789 255 0 0
-16.1326 -1.90214 -3.55734 255 0 0
-16.1996 -2.02697 -3.56516 255 0 0
-16.1894 -2.0842 -3.56488 255 0 0
-16.1912 -2.18208 -3.56628 255 0 0
-16.2334 -2.46273 -3.5741 255 0 0
-14.0595 -2.682 -4.58515 255 0 0
-14.0555 -3.04571 -4.96959 255 0 0
-17.2396 -1.16673 -3.80159 255 0 0
-16.7808 -1.21564 -3.75422 255 0 0
-16.6037 -1.24239 -3.73601 255 0 0
-16.0895 -1.31906 -3.68318 255 0 0
-16.0341 -1.3528 -3.67772 255 0 0
-16.0217 -1.4283 -3.67711 255 0 0
-16.0384 -1.62165 -3.68075 255 0 0
-16.0577 -1.66207 -3.68318 255 0 0
-16.071 -1.70198 -3.685 255 0 0
-16.0843 -1.74196 -3.68682 255 0 0
-16.0802 -1.78009 -3.68682 255 0 0
-16.0911 -1.83926 -3.68864 255 0 0
-16.1018 -1.89851 -3.69047 255 0 0
-16.0972 -1.93669 -3.69047 255 0 0
-16.1273 -1.9791 -3.69411 255 0 0
-16.1341 -2.01878 -3.69532 255 0 0
-16.1524 -2.05998 -3.69775 255 0 0
-16.1318 -2.19356 -3.69745 255 0 0
-16.1506 -2.33276 -3.7014 255 0 0
-16.1795 -2.37612 -3.70504 255 0 0
-16.1969 -2.41792 -3.70747 255 0 0
-16.2026 -2.45806 -3.70868 255 0 0
-16.2256 -2.50091 -3.71172 255 0 0
-16.2308 -2.58056 -3.71354 255 0 0
-16.2528 -2.66315 -3.71718 255 0 0
-16.1775 -2.69022 -3.7099 255 0 0
-16.735 -1.4519 -4.31808 255 0 0
-13.9723 -2.25547 -4.79997 255 0 0
-16.0413 -1.62194 -3.81663 255 0 0
-16.1612 -2.37343 -4.11596 255 0 0
-17.6821 -0.650123 -4.89298 255 0 0
-16.0536 -1.04822 -4.90569 255 0 0
-16.1494 -2.52839 -4.11747 255 0 0
-16.8672 -1.1817 -3.90514 255 0 0
-16.7251 -1.2116 -3.8894 255 0 0
-16.5597 -1.2391 -3.87105 255 0 0
-16.2725 -1.25641 -3.83892 255 0 0
-16.0164 -1.38956 -3.81139 255 0 0
-16.0235 -1.50508 -3.81336 255 0 0
-15.9909 -1.54028 -3.81008 255 0 0
-16.0605 -1.66237 -3.81926 255 0 0
-16.0797 -1.70289 -3.82188 255 0 0
-16.012 -1.73412 -3.81467 255 0 0
-16.0714 -1.77913 -3.82188 255 0 0
-16.0975 -1.85932 -3.82581 255 0 0
-16.0642 -1.89408 -3.82253 255 0 0
-16.0613 -1.99034 -3.82352 255 0 0
-16.0579 -2.08663 -3.8245 255 0 0
-16.1048 -2.13157 -3.8304 255 0 0
-16.1679 -2.43319 -3.8422 255 0 0
-14.0432 -2.43806 -4.4522 255 0 0
-17.755 -0.948087 -4.60442 255 0 0
-14.0311 -2.83206 -4.70837 255 0 0
-16.0396 -1.54498 -4.08738 255 0 0
-14.1872 -1.3326 -4.5737 255 0 0
-17.6123 -1.02425 -4.13641 255 0 0
-17.5808 -1.06425 -4.13289 255 0 0
-16.9897 -1.10935 -4.06179 255 0 0
-16.7639 -1.17446 -4.03504 255 0 0
-16.1408 -1.24624 -3.96043 255 0 0
-15.9956 -1.31137 -3.94353 255 0 0
-15.9809 -1.34831 -3.94212 255 0 0
-15.9927 -1.54045 -3.94564 255 0 0
-16.0138 -1.73432 -3.95057 255 0 0
-16.1267 -1.82395 -3.96535 255 0 0
-16.0094 -1.92612 -3.95268 255 0 0
-16.0241 -2.04362 -3.9562 255 0 0
-16.0726 -2.16609 -3.96395 255 0 0
-16.2003 -2.26157 -3.98084 255 0 0
-16.1088 -2.32673 -3.97098 255 0 0
-16.3391 -2.43914 -4.00055 255 0 0
-16.109 -2.48294 -3.9738 255 0 0
-16.0801 -2.51754 -3.97098 255 0 0
-16.3496 -0.989714 -5.09916 255 0 0
-13.9904 -1.34759 -4.65938 255 0 0
-15.8384 -1.29848 -4.32777 255 0 0
-14.0311 -2.88402 -4.95775 255 0 0
-16.2311 -1.13714 -4.52164 255 0 0
-16.2645 -2.34921 -4.12875 255 0 0
-17.7234 -0.609566 -4.59763 255 0 0
-14.9427 -1.15374 -4.83573 255 0 0
-15.9242 -1.26751 -4.06933 255 0 0
-15.8468 -1.18576 -4.5982 255 0 0
-13.9545 -2.18475 -4.79428 255 0 0
-16.8503 -1.10025 -4.18742 255 0 0
-16.7376 -1.13275 -4.17313 255 0 0
-16.48 -1.15457 -4.14004 255 0 0
-15.9676 -1.23287 -4.07459 255 0 0
-15.9971 -1.73251 -4.08437 255 0 0
-16.0449 -1.77619 -4.09114 255 0 0
-16.0904 -1.83917 -4.09791 255 0 0
-16.1357 -1.90251 -4.10468 255 0 0
-16.0389 -1.92966 -4.09265 255 0 0
-16.0227 -1.96627 -4.09114 255 0 0
-16.0717 -2.08842 -4.09942 255 0 0
-16.3084 -2.15852 -4.13101 255 0 0
-16.4534 -2.25714 -4.15132 255 0 0
-16.2359 -2.42374 -4.1265 255 0 0
-16.1898 -2.4954 -4.12198 255 0 0
-13.9079 -2.14367 -4.90566 255 0 0
-13.942 -2.42049 -5.04468 255 0 0
-16.481 -2.26094 -4.29567 255 0 0
-15.8045 -1.14491 -4.72621 255 0 0
-17.7389 -0.989415 -4.45176 255 0 0
-16.3517 -1.14559 -4.26205 255 0 0
-16.0308 -1.1613 -4.21803 255 0 0
-15.9152 -1.22883 -4.20282 255 0 0
-15.9819 -1.96126 -4.22203 255 0 0
-16.6933 -2.24975 -4.32449 255 0 0
-16.6824 -2.32888 -4.32449 255 0 0
-16.0802 -2.40049 -4.24364 255 0 0
-13.9728 -2.39172 -4.68224 255 0 0
-13.8212 -1.53002 -4.63108 255 0 0
-14.0569 -3.02856 -5.09395 255 0 0
-14.1055 -1.2912 -4.68006 255 0 0
-17.7939 -0.738741 -4.60867 255 0 0
-16.7597 -1.09433 -4.46016 255 0 0
-16.3208 -1.14342 -4.39651 255 0 0
-16.0869 -1.16537 -4.36257 255 0 0
-15.957 -1.194 -4.3439 255 0 0
-15.9108 -1.26644 -4.33796 255 0 0
-16.7036 -1.44919 -4.45591 255 0 0
-16.7543 -1.53366 -4.4644 255 0 0
-16.1044 -1.89883 -4.37529 255 0 0
-15.9619 -1.9204 -4.35493 255 0 0
-15.9756 -1.99894 -4.35832 255 0 0
-16.7195 -2.25328 -4.47119 255 0 0
-16.8235 -2.38925 -4.48901 255 0 0
-16.1586 -2.4122 -4.39312 255 0 0
-16.3875 -2.52586 -4.42876 255 0 0
-16.0941 -2.63714 -4.38887 255 0 0
-16.1278 -2.68194 -4.39481 255 0 0
-16.1197 -2.79857 -4.39651 255 0 0
-16.1929 -2.85085 -4.40839 255 0 0
-14.1021 -3.10835 -4.73232 255 0 0
-13.8128 -1.64524 -5.11421 255 0 0
-14.0421 -1.28539 -4.91158 255 0 0
-13.8419 -1.93234 -5.12892 255 0 0
-17.5856 -0.604825 -4.727 255 0 0
-17.8096 -0.65481 -4.76197 255 0 0
-17.7716 -0.737816 -4.75659 255 0 0
-17.7062 -0.77716 -4.74672 255 0 0
-17.6523 -0.816732 -4.73865 255 0 0
-17.706 -0.903379 -4.74762 255 0 0
-17.6645 -1.02728 -4.74224 255 0 0
-16.865 -1.02091 -4.61849 255 0 0
-16.7586 -1.05436 -4.60235 255 0 0
-15.9745 -1.15723 -4.48218 255 0 0
-15.8447 -1.1856 -4.46246 255 0 0
-15.8805 -1.45368 -4.47142 255 0 0
-15.8424 -1.48808 -4.46604 255 0 0
-15.908 -1.53229 -4.4768 255 0 0
-15.9236 -1.61004 -4.48039 255 0 0
-15.9945 -1.65554 -4.49205 255 0 0
-15.9163 -1.83839 -4.48308 255 0 0
-15.974 -1.94107 -4.49384 255 0 0
-16.1582 -2.09967 -4.52523 255 0 0
-16.6306 -2.36186 -4.60324 255 0 0
-16.0926 -2.40235 -4.52164 255 0 0
-16.064 -2.43702 -4.51805 255 0 0
-16.0522 -2.51317 -4.51805 255 0 0
-16.0054 -2.62261 -4.51357 255 0 0
-15.9934 -2.6596 -4.51267 255 0 0
-15.9985 -2.69944 -4.51447 255 0 0
-16.0596 -2.78814 -4.52613 255 0 0
-16.0268 -2.8412 -4.52254 255 0 0
-14.1431 -3.13496 -4.86587 255 0 0
-14.7679 -1.17547 -4.80307 255 0 0
-15.8878 -0.999576 -5.01208 255 0 0
-13.9891 -2.13922 -4.55601 255 0 0
-14.9764 -1.12063 -5.10102 255 0 0
-13.8283 -1.73027 -5.11996 255 0 0
-17.7019 -0.734923 -4.89676 255 0 0
-17.6826 -0.902184 -4.89487 255 0 0
-17.6804 -0.944107 -4.89487 255 0 0
-17.5166 -0.977015 -4.86842 255 0 0
-15.9676 -1.11867 -4.6171 255 0 0
-15.8842 -1.15069 -4.60387 255 0 0
-15.8325 -1.22244 -4.59631 255 0 0
-15.8812 -1.52971 -4.6086 255 0 0
-15.9574 -1.99667 -4.62938 255 0 0
-16.4016 -2.21044 -4.70591 255 0 0
-16.0223 -2.29485 -4.64639 255 0 0
-16.0655 -2.35938 -4.65489 255 0 0
-16.037 -2.39405 -4.65111 255 0 0
-16.0027 -2.42773 -4.64639 255 0 0
-16.0769 -2.47799 -4.65962 255 0 0
-16.071 -2.5161 -4.65962 255 0 0
-15.9851 -2.5415 -4.64639 255 0 0
-16.0018 -2.58308 -4.65017 255 0 0
-16.0165 -2.74154 -4.65678 255 0 0
-16.0213 -2.78149 -4.65867 255 0 0
-14.0379 -2.88541 -4.71163 255 0 0
-13.8214 -1.59642 -5.11485 255 0 0
-18.4112 -0.720647 -5.16999 255 0 0
-17.9925 -0.789727 -5.09851 255 0 0
-17.6255 -0.857375 -5.03597 255 0 0
-17.2985 -0.923714 -4.98037 255 0 0
-17.0485 -0.950908 -4.93768 255 0 0
-16.8331 -0.978932 -4.90095 255 0 0
-16.5691 -1.04244 -4.85627 255 0 0
-16.2844 -1.0633 -4.80762 255 0 0
-15.6737 -1.19148 -4.70437 255 0 0
-15.166 -1.24336 -4.618 255 0 0
-15.3628 -1.44303 -4.65473 255 0 0
-15.5202 -1.49494 -4.68253 255 0 0
-15.7158 -1.62668 -4.71827 255 0 0
-13.9833 -1.64872 -4.42242 255 0 0
-14.0422 -2.59253 -4.82497 255 0 0
-13.9736 -1.68118 -4.42143 255 0 0
-13.972 -1.83244 -4.4244 255 0 0
-14.0272 -1.94128 -4.43632 255 0 0
-14.0031 -1.9887 -4.43334 255 0 0
-14.0669 -2.0318 -4.44525 255 0 0
-14.0278 -2.06011 -4.4393 255 0 0
-14.0926 -2.17215 -4.4532 255 0 0
-14.0019 -2.19216 -4.4383 255 0 0
-14.065 -2.23623 -4.45022 255 0 0
-14.0483 -2.26773 -4.44823 255 0 0
-14.0543 -2.3029 -4.45022 255 0 0
-14.0488 -2.33622 -4.45022 255 0 0
-14.0261 -2.36664 -4.44724 255 0 0
-14.1115 -2.41547 -4.46312 255 0 0
-14.0823 -2.54816 -4.46213 255 0 0
-14.1897 -2.60236 -4.48199 255 0 0
-14.851 -2.83298 -4.60112 255 0 0
-14.9123 -2.88132 -4.61304 255 0 0
-14.7116 -2.91499 -4.58027 255 0 0
-14.5915 -2.92717 -4.56042 255 0 0
-14.4262 -2.9296 -4.53262 255 0 0
-14.5436 -2.98936 -4.55446 255 0 0
-14.4686 -3.00973 -4.54255 255 0 0
-14.1607 -3.0158 -4.49092 255 0 0
-14.2381 -3.0676 -4.50581 255 0 0
-14.1953 -3.12887 -4.50085 255 0 0
-13.8923 -1.80523 -4.65067 255 0 0
-13.9543 -2.59341 -5.17753 255 0 0
-13.8258 -1.63015 -4.99541 255 0 0
-13.9118 -1.43996 -4.8879 255 0 0
-17.2005 -0.877587 -5.11071 255 0 0
-16.9912 -0.907307 -5.07324 255 0 0
-16.8165 -0.937964 -5.04202 255 0 0
-16.5668 -0.963448 -4.99727 255 0 0
-15.8687 -1.09282 -4.87291 255 0 0
-15.5859 -1.12908 -4.82243 255 0 0
-15.4223 -1.15399 -4.79329 255 0 0
-15.1898 -1.17281 -4.75166 255 0 0
-14.8739 -1.21941 -4.69546 255 0 0
-14.7906 -1.24789 -4.68089 255 0 0
-14.6441 -1.2705 -4.65488 255 0 0
-14.4975 -1.29243 -4.62886 255 0 0
-14.4313 -1.32102 -4.61741 255 0 0
-14.1037 -1.3585 -4.55913 255 0 0
-14.003 -1.38231 -4.54144 255 0 0
-13.9595 -1.41145 -4.53415 255 0 0
-13.9183 -1.47399 -4.52791 255 0 0
-13.9284 -1.64226 -4.53311 255 0 0
-13.9358 -1.79408 -4.53779 255 0 0
-13.9551 -1.84704 -4.54248 255 0 0
-13.9792 -1.88397 -4.54768 255 0 0
-13.9639 -1.93251 -4.54612 255 0 0
-13.9598 -1.98255 -4.54664 255 0 0
-13.9897 -2.03758 -4.55341 255 0 0
-13.9966 -2.08945 -4.55601 255 0 0
-14.0501 -2.23386 -4.56954 255 0 0
-14.0225 -2.33185 -4.56745 255 0 0
-14.0368 -2.38557 -4.57162 255 0 0
-14.0673 -2.54546 -4.58203 255 0 0
-14.0866 -2.73912 -4.59191 255 0 0
-14.1023 -2.79425 -4.5966 255 0 0
-13.9871 -2.66817 -4.69422 255 0 0
-14.1391 -2.88877 -4.60648 255 0 0
-14.1625 -3.01619 -4.61533 255 0 0
-14.1384 -3.04612 -4.61221 255 0 0
-14.1537 -3.08454 -4.61637 255 0 0
-14.1679 -3.14046 -4.62105 255 0 0
-14.0344 -2.53951 -4.82156 255 0 0
-13.9274 -1.9948 -4.6621 255 0 0
-13.9653 -2.15253 -4.79542 255 0 0
-14.0298 -2.9358 -5.08409 255 0 0
-16.5242 -0.960967 -5.13182 255 0 0
-15.7821 -1.0305 -4.99249 255 0 0
-15.682 -1.06131 -4.97398 255 0 0
-15.4441 -1.082 -4.92935 255 0 0
-14.6446 -1.20061 -4.78021 255 0 0
-14.4812 -1.22179 -4.74973 255 0 0
-14.3293 -1.24319 -4.72143 255 0 0
-13.8431 -1.43285 -4.63326 255 0 0
-13.8585 -1.58407 -4.63924 255 0 0
-13.8728 -1.6357 -4.64305 255 0 0
-13.8726 -1.68572 -4.64414 255 0 0
-13.8836 -1.73719 -4.64741 255 0 0
-13.9023 -1.77302 -4.65176 255 0 0
-13.9402 -2.04725 -4.66591 255 0 0
-13.9599 -2.18559 -4.67353 255 0 0
-13.9557 -2.35476 -4.67789 255 0 0
-13.9778 -2.52926 -4.68768 255 0 0
-13.999 -2.63607 -4.6953 255 0 0
-14.0138 -2.7422 -4.70184 255 0 0
-14.0641 -2.94299 -4.71871 255 0 0
-14.0845 -2.99957 -4.7247 255 0 0
-14.0717 -3.03174 -4.72361 255 0 0
-14.087 -3.07 -4.72796 255 0 0
-14.0835 -3.13927 -4.73014 255 0 0
-16.0113 -1.00735 -5.17382 255 0 0
-15.7427 -1.06542 -5.12155 255 0 0
-15.5224 -1.08749 -5.07837 255 0 0
-15.3021 -1.10852 -5.03519 255 0 0
-14.9703 -1.15587 -4.97042 255 0 0
-14.498 -1.2232 -4.87837 255 0 0
-14.1686 -1.29698 -4.81474 255 0 0
-14.0782 -1.3392 -4.79769 255 0 0
-14.0047 -1.38249 -4.78406 255 0 0
-13.91 -1.40644 -4.76588 255 0 0
-13.8596 -1.50102 -4.75792 255 0 0
-13.8676 -1.58511 -4.76133 255 0 0
-13.8733 -1.63576 -4.7636 255 0 0
-13.8816 -1.68683 -4.76644 255 0 0
-13.8921 -1.78846 -4.77099 255 0 0
-13.9113 -1.84124 -4.7761 255 0 0
-13.9206 -1.94332 -4.78065 255 0 0
-13.9335 -1.99567 -4.78463 255 0 0
-13.9405 -2.0473 -4.78747 255 0 0
-13.9526 -2.08289 -4.79088 255 0 0
-14.0013 -2.3966 -4.81019 255 0 0
-14.0151 -2.48458 -4.81587 255 0 0
-14.0533 -2.74993 -4.83292 255 0 0
-14.0692 -2.78771 -4.83747 255 0 0
-14.0996 -3.03776 -4.85337 255 0 0
-14.1036 -3.07363 -4.85565 255 0 0
-14.115 -3.18145 -4.86247 255 0 0
-14.0609 -3.06432 -5.09641 255 0 0
-13.9959 -1.34811 -4.90329 255 0 0
-13.8665 -1.73505 -4.88553 255 0 0
-15.162 -1.09837 -5.13891 255 0 0
-14.8536 -1.14686 -5.07616 255 0 0
-14.4223 -1.21681 -4.98854 255 0 0
-14.2164 -1.26737 -4.9471 255 0 0
-13.907 -1.37284 -4.88553 255 0 0
-13.8923 -1.40466 -4.88316 255 0 0
-13.8855 -1.47052 -4.88316 255 0 0
-13.7851 -1.49294 -4.86303 255 0 0
-13.8252 -1.54705 -4.8725 255 0 0
-13.8443 -1.63234 -4.87842 255 0 0
-13.8697 -1.68538 -4.88494 255 0 0
-13.8709 -1.83589 -4.88908 255 0 0
-13.8642 -1.88522 -4.88908 255 0 0
-13.8858 -1.93847 -4.895 255 0 0
-13.9039 -1.97462 -4.89974 255 0 0
-13.8992 -2.00758 -4.89974 255 0 0
-13.8944 -2.04053 -4.89974 255 0 0
-13.9905 -2.58298 -4.93763 255 0 0
-14.0287 -2.77969 -4.95302 255 0 0
-14.0432 -2.9386 -4.96249 255 0 0
-14.1193 -3.12968 -4.98617 255 0 0
-14.1193 -3.18241 -4.98854 255 0 0
-13.9587 -2.45751 -5.04961 255 0 0
-14.2173 -1.23348 -5.07054 255 0 0
-14.1744 -1.26362 -5.06192 255 0 0
-14.0859 -1.2894 -5.04345 255 0 0
-13.881 -1.38691 -5.00157 255 0 0
-13.8931 -1.43802 -5.00527 255 0 0
-13.8178 -1.49649 -4.99049 255 0 0
-13.8067 -1.54499 -4.98925 255 0 0
-13.8182 -1.59606 -4.99295 255 0 0
-13.8398 -1.68174 -4.99972 255 0 0
-13.8536 -1.73343 -5.00403 255 0 0
-13.8438 -1.76555 -5.0028 255 0 0
-13.8509 -1.79984 -5.00527 255 0 0
-13.8636 -1.83493 -5.00896 255 0 0
-13.8801 -1.98803 -5.01697 255 0 0
-13.8927 -2.04028 -5.02128 255 0 0
-13.9052 -2.09266 -5.02559 255 0 0
-13.918 -2.17903 -5.03113 255 0 0
-13.9132 -2.24592 -5.03236 255 0 0
-13.9191 -2.28075 -5.03483 255 0 0
-13.9391 -2.33497 -5.04098 255 0 0
-13.9364 -2.38549 -5.04222 255 0 0
-13.9692 -2.54483 -5.05515 255 0 0
-13.9849 -2.63341 -5.06192 255 0 0
-13.9951 -2.68691 -5.06623 255 0 0
-14.0051 -2.74051 -5.07054 255 0 0
-13.9986 -2.77371 -5.07054 255 0 0
-14.0032 -2.80914 -5.07301 255 0 0
-14.0077 -2.84461 -5.07547 255 0 0
-14.1151 -3.1112 -5.10996 255 0 0
-14.0965 -3.14217 -5.10749 255 0 0
-14.0667 -3.17055 -5.10257 255 0 0
-14.1149 -3.21661 -5.11488 255 0 0
-13.9137 -2.3307 -5.15834 255 0 0
-14.0348 -1.25117 -5.1545 255 0 0
-13.9919 -1.2808 -5.14555 255 0 0
-13.846 -1.36682 -5.11485 255 0 0
-13.7802 -1.39332 -5.10078 255 0 0
-13.8564 -1.43423 -5.11869 255 0 0
-13.8132 -1.46286 -5.10973 255 0 0
-13.8391 -1.78164 -5.1238 255 0 0
-13.8509 -1.86668 -5.12892 255 0 0
-13.8635 -1.90185 -5.13276 255 0 0
-13.89 -2.03988 -5.14299 255 0 0
-13.8911 -2.09055 -5.14491 255 0 0
-13.8921 -2.14124 -5.14683 255 0 0
-13.8844 -2.19063 -5.14683 255 0 0
-13.8934 -2.24273 -5.15067 255 0 0
-13.9222 -2.38307 -5.16218 255 0 0
-13.9221 -2.43404 -5.1641 255 0 0
-13.9218 -2.48505 -5.16602 255 0 0
-15.8036 -2.39752 -4.75004 255 0 0
-15.7508 -1.93291 -4.73019 255 0 0
-15.7247 -1.83518 -4.72373 255 0 0
-15.7366 -1.7043 -4.72324 255 0 0
-15.7325 -1.7416 -4.72324 255 0 0
-15.7554 -1.89556 -4.73019 255 0 0
-15.7582 -1.99072 -4.73267 255 0 0
-15.7653 -2.04861 -4.73515 255 0 0
-15.7718 -2.0875 -4.73714 255 0 0
-15.7906 -2.18531 -4.7426 255 0 0
-15.812 -2.34131 -4.75004 255 0 0
-15.8321 -2.44026 -4.756 255 0 0
-15.8262 -2.47779 -4.756 255 0 0
-15.8372 -2.53727 -4.75947 255 0 0
-15.8419 -2.6344 -4.76295 255 0 0
-15.8583 -2.67579 -4.76692 255 0 0
-15.8463 -2.71241 -4.76593 255 0 0
-15.8844 -2.79653 -4.77486 255 0 0
-15.8834 -2.8352 -4.77585 255 0 0
