ply
format ascii 1.0
comment Created by Open3D
element vertex 52
property double x
property double y
property double z
property uchar red
property uchar green
property uchar blue
end_header
14.4349 -51.6211 -2.66826 255 0 0
13.6577 -52.165 -2.67228 255 0 0
14.3542 -52.2874 -1.324 255 0 0
14.7047 -51.6406 -3.11579 255 0 0
15.0361 -52.333 -1.32115 255 0 0
13.8485 -51.8883 -1.77683 255 0 0
14.0921 -52.8011 -1.31867 255 0 0
13.7449 -51.9946 -1.77651 255 0 0
13.5795 -52.373 -2.67454 255 0 0
14.9819 -51.6822 -1.77639 255 0 0
13.8606 -51.9336 -2.22337 255 0 0
14.5821 -51.6748 -2.22312 255 0 0
13.6761 -52.7454 -3.13233 255 0 0
14.4953 -52.3153 -1.3232 255 0 0
14.4453 -51.6585 -2.22291 255 0 0
13.9654 -51.8327 -1.77692 255 0 0
14.9737 -51.6541 -2.22349 255 0 0
14.6981 -51.6175 -2.22303 255 0 0
14.7067 -51.6478 -2.6695 255 0 0
14.4612 -51.7154 -3.11591 255 0 0
14.1853 -52.6489 -1.3202 255 0 0
14.5747 -51.6487 -2.66907 255 0 0
14.8286 -51.6107 -1.77685 255 0 0
14.4327 -51.6134 -1.77729 255 0 0
13.7479 -52.0059 -2.22354 255 0 0
14.244 -52.3721 -1.32334 255 0 0
14.602 -52.2188 -1.324 255 0 0
14.7369 -52.2234 -1.32349 255 0 0
14.8767 -52.2447 -1.32276 255 0 0
15.1601 -52.2972 -1.32115 255 0 0
13.6853 -52.2706 -1.77546 255 0 0
13.6498 -52.1347 -2.22395 255 0 0
13.6569 -52.6713 -1.77388 255 0 0
14.0821 -51.7769 -1.77702 255 0 0
14.1986 -51.7207 -1.77712 255 0 0
14.3244 -51.6982 -1.77707 255 0 0
14.5678 -51.6241 -1.77709 255 0 0
14.6917 -51.595 -1.77707 255 0 0
14.8465 -51.6731 -3.11725 255 0 0
13.5672 -52.3256 -2.22463 255 0 0
14.0202 -52.0363 -2.22395 255 0 0
14.1175 -51.9068 -2.22354 255 0 0
14.194 -51.7038 -2.22281 255 0 0
14.3415 -51.7603 -2.2232 255 0 0
14.8156 -51.5657 -2.22295 255 0 0
14.8146 -51.5621 -2.66885 255 0 0
15.0069 -51.7686 -2.67199 255 0 0
14.1328 -51.9633 -2.22378 255 0 0
13.7314 -52.4467 -3.12661 255 0 0
14.3229 -51.6931 -3.11469 255 0 0
14.5822 -51.6754 -3.11579 255 0 0
15.057 -51.9414 -3.12382 255 0 0
