ply
format ascii 1.0
comment Created by Open3D
element vertex 54
property double x
property double y
property double z
property uchar red
property uchar green
property uchar blue
end_header
-56.0759 11.6648 -1.76198 255 0 0
-55.7702 12.7093 -3.18866 255 0 0
-55.9073 12.8801 -2.71527 255 0 0
-56.2242 11.1404 -1.76181 255 0 0
-56.1606 11.5435 -3.19146 255 0 0
-56.2435 11.2829 -2.23838 255 0 0
-55.8768 11.9001 -2.23741 255 0 0
-55.9956 11.6481 -2.23767 255 0 0
-56.1133 11.3952 -2.23794 255 0 0
-55.8369 12.1686 -2.23748 255 0 0
-55.8757 12.4549 -1.76211 255 0 0
-56.0231 11.5153 -2.23767 255 0 0
-56.2892 11.1533 -2.71542 255 0 0
-56.156 11.6814 -3.19194 255 0 0
-55.8136 12.3022 -2.2375 255 0 0
-56.2089 11.2759 -3.19133 255 0 0
-56.3365 10.7468 -1.76167 255 0 0
-55.7893 12.7137 -2.71337 255 0 0
-55.7716 12.5706 -3.18805 255 0 0
-56.2847 11.0138 -3.19182 255 0 0
-55.8731 12.0378 -2.71257 255 0 0
-56.1592 11.4045 -1.76186 255 0 0
-56.4361 10.7658 -2.71629 255 0 0
-56.3079 11.0183 -2.23843 255 0 0
-55.8597 12.1736 -1.76242 255 0 0
-55.9684 11.9196 -1.7622 255 0 0
-56.071 11.8025 -1.76189 255 0 0
-55.8477 12.3098 -3.18841 255 0 0
-55.7285 12.8389 -3.18841 255 0 0
-55.9203 12.6041 -2.23821 255 0 0
-55.7842 12.4345 -2.2375 255 0 0
-55.8427 12.0313 -2.23738 255 0 0
-55.9449 11.776 -2.23758 255 0 0
-56.2701 11.1495 -2.23838 255 0 0
-56.2936 10.877 -2.23826 255 0 0
-56.4285 10.7643 -2.23872 255 0 0
-55.7622 12.5685 -2.71264 255 0 0
-55.7975 12.4375 -2.71272 255 0 0
-55.7754 12.2938 -2.71206 255 0 0
-55.8273 12.1665 -2.71235 255 0 0
-55.9187 11.909 -2.71279 255 0 0
-55.9582 11.7788 -2.71294 255 0 0
-56.0032 11.6496 -2.71315 255 0 0
-56.0823 11.5274 -2.71381 255 0 0
-56.23 11.4189 -2.71534 255 0 0
-56.2339 11.2809 -2.71505 255 0 0
-56.2925 11.0153 -2.71512 255 0 0
-56.3127 10.8807 -2.71505 255 0 0
-55.9854 11.9232 -3.18951 255 0 0
-56.2929 11.154 -3.19255 255 0 0
-55.6637 12.963 -3.18768 255 0 0
-55.8367 12.1686 -3.18756 255 0 0
-55.894 12.0423 -3.18817 255 0 0
-56.0594 11.8001 -3.19048 255 0 0
