ply
format ascii 1.0
comment Created by Open3D
element vertex 171
property double x
property double y
property double z
property uchar red
property uchar green
property uchar blue
end_header
-7.77387 -15.5984 -4.84952 255 0 0
-7.92907 -15.6303 -4.86558 255 0 0
-8.06921 -15.63 -4.87598 255 0 0
-8.57374 -16.1351 -5.30012 255 0 0
-7.33442 -16.4384 -4.63667 255 0 0
-7.8745 -15.8003 -4.73596 255 0 0
-7.51394 -16.2167 -4.618 255 0 0
-8.41602 -15.7481 -4.91944 255 0 0
-8.56232 -15.2308 -5.30599 255 0 0
-8.44107 -16.0689 -4.65873 255 0 0
-7.37812 -16.4315 -4.63837 255 0 0
-7.48758 -16.2608 -4.62224 255 0 0
-8.4746 -15.5899 -5.05284 255 0 0
-8.14192 -16.1447 -4.64855 255 0 0
-8.3163 -15.6506 -4.89771 255 0 0
-8.10092 -15.6006 -4.87409 255 0 0
-7.52115 -15.6449 -4.83818 255 0 0
-7.27596 -15.7031 -4.82968 255 0 0
-7.52624 -15.8475 -4.71892 255 0 0
-7.61384 -15.8377 -4.72341 255 0 0
-7.63699 -15.7899 -5.16795 255 0 0
-8.28456 -15.6805 -4.8996 255 0 0
-7.56828 -15.6479 -4.84196 255 0 0
-7.65137 -15.8196 -4.72341 255 0 0
-7.30291 -16.0598 -4.73417 255 0 0
-8.17207 -15.7376 -5.05086 255 0 0
-8.4424 -15.7077 -4.91566 255 0 0
-8.41176 -15.9213 -4.79066 255 0 0
-7.21506 -16.2745 -5.06277 255 0 0
-7.2173 -15.5765 -4.95356 255 0 0
-7.85566 -16.1442 -4.62988 255 0 0
-8.53335 -15.698 -4.92133 255 0 0
-7.6129 -16.2281 -4.62564 255 0 0
-8.13011 -16.4596 -5.31573 255 0 0
-7.26129 -16.4841 -4.79156 255 0 0
-7.8186 -15.5954 -4.85236 255 0 0
-7.24497 -17.5645 -5.10651 255 0 0
-7.43696 -15.6595 -4.8344 255 0 0
-7.81231 -16.1524 -4.62818 255 0 0
-8.44049 -16.1607 -4.67062 255 0 0
-7.33299 -15.6798 -4.83015 255 0 0
-7.64888 -16.2048 -4.62479 255 0 0
-7.79182 -15.8219 -4.73327 255 0 0
-7.2309 -17.0693 -5.03092 255 0 0
-7.62559 -15.6714 -4.84952 255 0 0
-8.28565 -16.143 -4.65789 255 0 0
-7.28149 -16.8539 -4.68929 255 0 0
-7.13279 -15.299 -5.19387 255 0 0
-7.60702 -15.8235 -5.17107 255 0 0
-7.25829 -17.2477 -4.90007 255 0 0
-7.23296 -16.7416 -4.98179 255 0 0
-7.01519 -15.2349 -5.31814 255 0 0
-7.48403 -15.6627 -4.83818 255 0 0
-8.04268 -15.6697 -4.87976 255 0 0
-7.31951 -16.7237 -4.67401 255 0 0
-7.26153 -15.8688 -4.8533 255 0 0
-7.72064 -16.1579 -4.62309 255 0 0
-7.78048 -15.7048 -4.86558 255 0 0
-7.12645 -16.178 -5.19293 255 0 0
-8.3201 -15.9302 -4.78528 255 0 0
-7.20488 -16.1481 -4.89109 255 0 0
-7.93976 -16.2192 -4.64516 255 0 0
-7.87003 -15.4232 -5.12736 255 0 0
-7.30967 -15.974 -4.72251 255 0 0
-7.6845 -15.604 -4.84385 255 0 0
-8.08544 -16.1277 -4.64261 255 0 0
-7.32411 -16.6267 -4.66128 255 0 0
-8.0766 -15.828 -4.7539 255 0 0
-8.2147 -15.7284 -5.05284 255 0 0
-7.02879 -15.3122 -5.18788 255 0 0
-7.37804 -15.9234 -4.71982 255 0 0
-7.66272 -15.6533 -4.84952 255 0 0
-7.43583 -15.8997 -4.72027 255 0 0
-7.27013 -15.7886 -4.84196 255 0 0
-7.25699 -16.5808 -4.80501 255 0 0
-8.04976 -16.152 -4.64346 255 0 0
-7.22829 -16.9511 -5.01297 255 0 0
-7.74411 -15.8196 -4.72969 255 0 0
-6.92724 -15.33 -5.18299 255 0 0
-8.34516 -16.1645 -4.66468 255 0 0
-8.44487 -16.263 -4.68419 255 0 0
-8.12995 -15.8397 -4.75928 255 0 0
-7.48929 -16.2645 -5.08064 255 0 0
-7.18778 -16.9675 -5.32822 255 0 0
-7.32829 -16.5299 -4.64855 255 0 0
-7.93009 -15.8178 -4.74224 255 0 0
-7.25023 -16.8915 -5.00541 255 0 0
-8.24998 -16.1678 -4.65873 255 0 0
-8.1959 -16.1563 -4.65364 255 0 0
-8.03716 -16.2229 -4.65195 255 0 0
-7.9526 -16.1484 -4.63667 255 0 0
-7.77901 -16.1813 -4.62988 255 0 0
-7.68728 -16.1866 -4.62479 255 0 0
-7.58419 -16.2671 -4.62903 255 0 0
-7.45383 -16.2891 -4.62394 255 0 0
-7.42478 -16.3278 -4.62734 255 0 0
-7.40513 -16.3876 -4.63412 255 0 0
-7.2937 -16.7729 -4.6791 255 0 0
-8.4804 -15.4258 -5.1794 255 0 0
-7.56878 -15.8401 -4.72072 255 0 0
-8.42234 -15.8502 -4.7817 255 0 0
-8.40628 -16.0026 -4.80143 255 0 0
-8.22364 -15.8369 -4.76556 255 0 0
-8.02857 -15.8265 -4.75031 255 0 0
-7.9806 -15.8248 -4.74672 255 0 0
-7.70151 -15.8275 -4.72789 255 0 0
-7.35478 -15.9724 -4.7252 255 0 0
-7.25748 -16.1629 -4.74583 255 0 0
-7.24743 -16.2434 -4.75659 255 0 0
-7.26284 -16.3822 -4.77721 255 0 0
-7.24996 -16.6723 -4.81757 255 0 0
-7.27926 -16.8488 -4.84447 255 0 0
-7.22878 -16.9523 -4.85613 255 0 0
-7.22468 -17.0546 -4.87047 255 0 0
-7.98712 -15.6527 -4.87314 255 0 0
-6.93542 -15.2998 -5.32326 255 0 0
-8.4961 -15.7182 -4.92133 255 0 0
-8.2178 -15.6438 -4.8892 255 0 0
-8.16464 -15.6326 -4.88353 255 0 0
-7.87117 -15.6078 -4.85802 255 0 0
-7.40967 -15.698 -4.83818 255 0 0
-7.31945 -16.198 -4.90621 255 0 0
-7.22851 -17.177 -5.04698 255 0 0
-7.24126 -17.322 -5.06966 255 0 0
-7.23341 -17.4192 -5.08383 255 0 0
-8.71121 -15.3251 -5.33539 255 0 0
-8.5401 -15.5344 -5.04987 255 0 0
-8.52538 -15.5951 -5.05781 255 0 0
-8.33991 -15.6951 -5.05781 255 0 0
-8.30267 -15.7148 -5.05781 255 0 0
-8.27612 -15.7549 -5.06178 255 0 0
-8.09502 -15.68 -5.03597 255 0 0
-7.25909 -15.5699 -4.95555 255 0 0
-7.20501 -17.1211 -5.19581 255 0 0
-7.17951 -17.3475 -5.23006 255 0 0
-7.18014 -17.5251 -5.25835 255 0 0
-8.5324 -15.3905 -5.17836 255 0 0
-8.48641 -16.1552 -5.29596 255 0 0
-8.29223 -16.3462 -5.31053 255 0 0
-8.20934 -16.2784 -5.29284 255 0 0
-8.12941 -16.2154 -5.27618 255 0 0
-8.11664 -16.2862 -5.28659 255 0 0
-7.70214 -15.8287 -5.1794 255 0 0
-7.18023 -15.3531 -5.06128 255 0 0
-7.17282 -15.4805 -5.08157 255 0 0
-7.08942 -16.8464 -5.30116 255 0 0
-7.0939 -16.9695 -5.32198 255 0 0
-7.089 -17.0714 -5.33863 255 0 0
-8.78665 -15.2886 -5.33647 255 0 0
-8.75323 -15.3144 -5.33756 255 0 0
-8.66636 -15.3307 -5.33212 255 0 0
-8.55145 -15.2963 -5.31579 255 0 0
-7.82395 -15.3329 -5.25701 255 0 0
-7.67772 -15.7786 -5.32015 255 0 0
-7.64029 -15.7967 -5.32015 255 0 0
-7.59783 -15.8044 -5.31797 255 0 0
-7.59754 -15.9003 -5.3343 255 0 0
-7.56476 -15.9286 -5.33647 255 0 0
-7.16416 -15.2716 -5.19169 255 0 0
-6.96833 -15.324 -5.18516 255 0 0
-6.9003 -15.3674 -5.18734 255 0 0
-6.85915 -15.3732 -5.18516 255 0 0
-6.82735 -15.3999 -5.18734 255 0 0
-7.06178 -16.2395 -5.35063 255 0 0
-7.18298 -15.1247 -5.31246 255 0 0
-7.12258 -15.0898 -5.3011 255 0 0
-7.09654 -15.1274 -5.30564 255 0 0
-7.08142 -15.2359 -5.32382 255 0 0
-6.98382 -15.262 -5.32041 255 0 0
-6.88685 -15.3375 -5.3261 255 0 0
-7.17337 -17.6276 -5.27424 255 0 0
