ply
format ascii 1.0
comment Created by Open3D
element vertex 220
property double x
property double y
property double z
property uchar red
property uchar green
property uchar blue
end_header
-27.5425 -14.8453 -3.95284 255 0 0
-27.5046 -16.7318 -4.27812 255 0 0
-27.5234 -15.0887 -4.22108 255 0 0
-27.5313 -14.9236 -4.47771 255 0 0
-27.5635 -16.147 -2.9295 255 0 0
-27.7579 -15.3029 -4.77311 255 0 0
-28.6562 -14.8372 -3.20744 255 0 0
-28.6047 -14.8106 -4.27936 255 0 0
-28.6383 -15.1741 -3.21269 255 0 0
-28.681 -16.7105 -3.24203 255 0 0
-27.53 -14.6706 -3.94701 255 0 0
-27.5299 -16.8367 -4.01412 255 0 0
-27.5383 -15.2671 -3.96524 255 0 0
-27.5521 -16.3163 -2.93171 255 0 0
-27.4772 -14.5589 -4.72054 255 0 0
-27.4984 -16.8174 -3.74301 255 0 0
-27.5262 -16.4778 -3.73479 255 0 0
-27.554 -15.1905 -3.96378 255 0 0
-27.8044 -14.8167 -2.91673 255 0 0
-28.4367 -16.0307 -3.22145 255 0 0
-27.5591 -16.7649 -3.207 255 0 0
-27.5168 -14.4964 -4.72105 255 0 0
-28.1729 -15.5317 -3.47158 255 0 0
-28.7161 -14.8682 -2.94091 255 0 0
-27.7003 -14.8457 -3.4376 255 0 0
-28.7057 -15.1227 -4.02506 255 0 0
-27.6056 -14.4597 -3.68515 255 0 0
-27.5438 -15.0998 -3.9605 255 0 0
-27.5236 -16.2114 -3.99369 255 0 0
-27.517 -16.4723 -3.2 255 0 0
-27.6701 -15.1691 -4.49665 255 0 0
-27.5536 -16.583 -3.47104 255 0 0
-27.541 -14.5091 -4.46293 255 0 0
-27.5279 -14.9218 -4.21571 255 0 0
-27.5555 -15.4479 -4.49942 255 0 0
-27.614 -16.2647 -4.26778 255 0 0
-27.5392 -14.4249 -4.4597 255 0 0
-27.5625 -15.0252 -4.48372 255 0 0
-27.5472 -15.4433 -3.97108 255 0 0
-27.5537 -14.6832 -3.68831 255 0 0
-27.5369 -16.2193 -3.72815 255 0 0
-28.7017 -15.6462 -3.76767 255 0 0
-27.5862 -16.1603 -3.19627 255 0 0
-28.5132 -15.9848 -2.95113 255 0 0
-27.5282 -15.2615 -4.22728 255 0 0
-27.5696 -15.5419 -3.71139 255 0 0
-28.3499 -15.2805 -3.47318 255 0 0
-28.1417 -15.5145 -3.2024 255 0 0
-27.7994 -15.069 -4.76647 255 0 0
-28.1913 -15.4548 -2.93546 255 0 0
-27.6598 -14.488 -4.20951 255 0 0
-27.5664 -15.3683 -3.70665 255 0 0
-27.5818 -16.2457 -4.53267 255 0 0
-27.521 -14.7496 -4.73177 255 0 0
-28.6971 -15.0314 -2.94261 255 0 0
-27.776 -14.8016 -3.17766 255 0 0
-28.6166 -14.4742 -4.53729 255 0 0
-27.5579 -16.0561 -3.72467 255 0 0
-28.7607 -14.7188 -4.55622 255 0 0
-27.597 -16.4314 -4.00464 255 0 0
-28.6998 -14.7736 -4.55391 255 0 0
-27.5979 -16.5207 -4.27605 255 0 0
-27.6626 -16.2051 -4.26861 255 0 0
-27.4839 -14.3959 -4.71442 255 0 0
-27.5817 -16.1577 -3.46221 255 0 0
-27.6252 -16.1832 -4.53313 255 0 0
-28.4599 -16.0437 -2.95062 255 0 0
-27.7279 -14.8605 -2.91536 255 0 0
-27.525 -16.3885 -3.73226 255 0 0
-28.3749 -15.819 -3.48602 255 0 0
-27.5607 -16.4984 -4.54144 255 0 0
-27.5382 -15.6967 -3.97837 255 0 0
-27.5297 -14.7543 -4.47125 255 0 0
-27.5294 -16.3029 -3.19715 255 0 0
-28.4798 -15.9661 -3.22167 255 0 0
-27.7512 -14.873 -3.1781 255 0 0
-27.9812 -15.2535 -2.92729 255 0 0
-27.5132 -15.168 -4.22315 255 0 0
-28.7092 -14.9511 -3.21116 255 0 0
-27.7673 -14.9665 -3.18029 255 0 0
-27.5758 -15.4593 -3.70949 255 0 0
-27.5906 -14.6189 -3.94883 255 0 0
-27.5105 -15.5085 -4.23472 255 0 0
-27.5646 -16.4121 -4.53821 255 0 0
-27.5756 -16.242 -2.9312 255 0 0
-27.5537 -16.6723 -3.20503 255 0 0
-27.5377 -16.2197 -3.19584 255 0 0
-27.544 -14.678 -4.4694 255 0 0
-27.5714 -16.6829 -2.93767 255 0 0
-27.9863 -15.5155 -3.73036 255 0 0
-27.5798 -15.6339 -3.45017 255 0 0
-27.5496 -16.7591 -3.47506 255 0 0
-28.6457 -14.4037 -4.53683 255 0 0
-28.7119 -14.9525 -2.94193 255 0 0
-27.8059 -14.9873 -2.91911 255 0 0
-28.1392 -15.5131 -2.93495 255 0 0
-28.5886 -15.8494 -2.95113 255 0 0
-28.597 -15.9428 -2.95266 255 0 0
-28.7244 -16.7357 -2.96731 255 0 0
-27.5988 -16.4325 -2.93461 255 0 0
-27.5698 -16.5039 -2.93495 255 0 0
-27.5367 -16.1313 -3.99187 255 0 0
-28.5635 -15.9241 -3.22364 255 0 0
-28.1687 -15.3557 -3.20043 255 0 0
-28.122 -15.4168 -3.2 255 0 0
-28.5654 -15.8365 -3.22211 255 0 0
-27.5359 -16.395 -3.19912 255 0 0
-27.4893 -16.8119 -3.20569 255 0 0
-28.6814 -14.7641 -3.47559 255 0 0
-28.6671 -14.8428 -3.47666 255 0 0
-28.6993 -14.9459 -3.48014 255 0 0
-28.7311 -15.0492 -3.48362 255 0 0
-27.7742 -14.632 -3.43599 255 0 0
-27.6257 -14.6375 -3.43011 255 0 0
-27.7613 -14.7938 -3.43893 255 0 0
-28.6684 -15.54 -3.49164 255 0 0
-28.3439 -15.4511 -3.47666 255 0 0
-28.0917 -15.4002 -3.46542 255 0 0
-28.6118 -15.8622 -3.49646 255 0 0
-27.8066 -15.5887 -3.4582 255 0 0
-27.6015 -15.5598 -3.44937 255 0 0
-27.5845 -16.0716 -3.46034 255 0 0
-27.5534 -16.229 -3.46275 255 0 0
-27.5651 -16.324 -3.46542 255 0 0
-27.5515 -16.4043 -3.46676 255 0 0
-27.5677 -16.5026 -3.4697 255 0 0
-27.5397 -16.8427 -3.47666 255 0 0
-27.5196 -16.9202 -3.47773 255 0 0
-27.5475 -14.848 -4.73789 255 0 0
-27.4771 -16.6259 -4.54098 255 0 0
-27.5413 -15.6985 -4.50819 255 0 0
-28.3281 -14.6673 -3.72498 255 0 0
-28.6514 -15.5308 -3.76229 255 0 0
-28.7591 -14.632 -4.55299 255 0 0
-28.7022 -14.5175 -4.27605 255 0 0
-28.6435 -14.7446 -3.74206 255 0 0
-28.3658 -14.7723 -3.72941 255 0 0
-27.5661 -14.5224 -3.68483 255 0 0
-27.5729 -14.6096 -3.68736 255 0 0
-27.5497 -14.765 -3.69021 255 0 0
-27.7102 -14.9357 -3.70222 255 0 0
-28.4748 -15.6102 -3.75597 255 0 0
-27.9155 -15.3898 -3.72372 255 0 0
-27.5632 -15.6245 -3.71329 255 0 0
-27.545 -16.1362 -3.72625 255 0 0
-27.5286 -16.3024 -3.73004 255 0 0
-27.5221 -16.5641 -3.737 255 0 0
-27.5278 -16.6566 -3.73984 255 0 0
-27.4584 -16.8826 -3.74301 255 0 0
-27.6015 -16.6119 -4.54883 255 0 0
-27.5263 -14.7525 -4.20992 255 0 0
-27.5065 -15.4204 -4.23141 255 0 0
-28.7995 -14.4811 -4.01193 255 0 0
-28.8276 -14.581 -4.01631 255 0 0
-28.7982 -14.6519 -4.01667 255 0 0
-28.8102 -14.7441 -4.01996 255 0 0
-28.1101 -14.47 -3.97327 255 0 0
-28.5116 -14.7623 -4.00391 255 0 0
-28.6424 -14.9163 -4.01558 255 0 0
-28.6483 -15.0058 -4.0185 255 0 0
-27.5312 -14.7551 -3.94956 255 0 0
-27.5586 -14.9384 -3.95649 255 0 0
-27.5333 -15.0093 -3.95722 255 0 0
-27.5429 -15.3551 -3.96816 255 0 0
-27.541 -15.5257 -3.97327 255 0 0
-27.5397 -15.6112 -3.97582 255 0 0
-27.5446 -16.0483 -3.98968 255 0 0
-27.5907 -16.3392 -4.00135 255 0 0
-27.6182 -16.5328 -4.00901 255 0 0
-27.5839 -16.6013 -4.00938 255 0 0
-27.5195 -16.6515 -4.00755 255 0 0
-27.5125 -16.8261 -4.5516 255 0 0
-27.4941 -14.6514 -4.72565 255 0 0
-28.8148 -14.4888 -4.28225 255 0 0
-28.725 -14.6147 -4.28059 255 0 0
-28.6175 -14.6455 -4.27481 255 0 0
-28.7592 -14.8042 -4.28886 255 0 0
-28.7042 -14.9485 -4.2901 255 0 0
-27.5479 -14.5127 -4.20331 255 0 0
-27.5443 -14.5944 -4.20579 255 0 0
-27.5354 -14.6734 -4.20785 255 0 0
-27.5221 -14.8343 -4.2124 255 0 0
-27.5284 -15.0066 -4.2186 255 0 0
-27.5072 -15.3353 -4.22852 255 0 0
-27.5499 -15.6169 -4.24092 255 0 0
-27.6656 -16.1189 -4.26572 255 0 0
-27.6005 -16.345 -4.26985 255 0 0
-27.5818 -16.4223 -4.2715 255 0 0
-27.6437 -16.6373 -4.28307 255 0 0
-27.4892 -16.6332 -4.27357 255 0 0
-27.6583 -16.0269 -4.262 255 0 0
-28.7789 -14.3853 -4.5456 255 0 0
-28.5766 -14.796 -4.54606 255 0 0
-27.6302 -14.3892 -4.46478 255 0 0
-27.5427 -14.5935 -4.46617 255 0 0
-27.5409 -14.8445 -4.4754 255 0 0
-27.7925 -15.322 -4.51096 255 0 0
-27.7561 -15.3878 -4.51096 255 0 0
-27.898 -15.5531 -4.52713 255 0 0
-27.529 -15.519 -4.50034 255 0 0
-27.5378 -15.6101 -4.5045 255 0 0
-27.6434 -16.1059 -4.53128 255 0 0
-27.4678 -16.2664 -4.52574 255 0 0
-27.4426 -16.694 -4.54144 255 0 0
-27.8471 -14.4183 -4.74351 255 0 0
-27.5594 -14.3523 -4.7185 255 0 0
-27.82 -15.1656 -4.77208 255 0 0
-27.8095 -15.2455 -4.77464 255 0 0
-27.6331 -15.4914 -4.77157 255 0 0
-27.5182 -16.74 -3.74174 255 0 0
-27.5657 -16.5903 -2.93614 255 0 0
-28.7763 -16.6747 -3.24444 255 0 0
-27.5531 -16.5827 -3.20328 255 0 0
-27.577 -15.9798 -3.45793 255 0 0
-27.5442 -16.6665 -3.47265 255 0 0
-27.5403 -15.9585 -3.72119 255 0 0
-27.5421 -15.9596 -3.98676 255 0 0
-27.5598 -16.7653 -4.01339 255 0 0
-27.5745 -16.864 -4.28721 255 0 0
-27.5571 -16.9432 -4.55946 255 0 0
