ply
format ascii 1.0
comment Created by Open3D
element vertex 961
property double x
property double y
property double z
property uchar red
property uchar green
property uchar blue
end_header
-9.66871 6.10384 -5.26842 255 0 0
-6.78007 5.92762 -5.57781 255 0 0
-10.2238 6.02182 -5.82263 255 0 0
-9.49581 6.01044 -5.31366 255 0 0
-6.68751 6.17636 -5.27056 255 0 0
-6.69366 6.22631 -5.54411 255 0 0
-9.89014 7.23949 -5.39358 255 0 0
-7.53068 5.9349 -5.44478 255 0 0
-7.89829 6.05933 -4.93526 255 0 0
-8.88492 6.07676 -5.07692 255 0 0
-8.93266 6.12497 -4.90212 255 0 0
-8.57044 7.3683 -4.92801 255 0 0
-7.59937 5.90189 -5.27738 255 0 0
-6.67275 6.49324 -5.69888 255 0 0
-7.32396 6.20661 -5.00499 255 0 0
-7.48832 6.73716 -5.06131 255 0 0
-6.89325 6.01217 -5.20059 255 0 0
-8.03343 7.00661 -5.14309 255 0 0
-9.45089 5.96633 -5.39673 255 0 0
-6.93716 6.27112 -5.09876 255 0 0
-9.56469 6.00651 -5.33022 255 0 0
-7.33567 5.90917 -5.20847 255 0 0
-9.01411 6.087 -5.1091 255 0 0
-7.17601 5.99405 -5.80482 255 0 0
-8.3822 5.95443 -5.21839 255 0 0
-7.33064 5.96265 -5.04428 255 0 0
-7.43157 6.49719 -5.00002 255 0 0
-7.18878 6.03372 -5.02363 255 0 0
-7.99364 7.45321 -5.22258 255 0 0
-8.94889 7.42105 -5.32314 255 0 0
-8.28964 7.40492 -4.87955 255 0 0
-7.65406 7.48357 -5.15634 255 0 0
-9.82922 5.91569 -5.59095 255 0 0
-6.93933 6.22835 -5.17606 255 0 0
-6.5858 6.14055 -5.31977 255 0 0
-8.97229 6.18347 -5.01704 255 0 0
-9.2709 6.00758 -5.25735 255 0 0
-8.32265 6.15293 -4.77331 255 0 0
-6.6934 6.2706 -5.55575 255 0 0
-8.88919 6.09516 -4.98423 255 0 0
-8.07783 6.12135 -4.71572 255 0 0
-7.43848 6.56573 -5.01534 255 0 0
-8.5933 5.98257 -5.1822 255 0 0
-7.91459 6.1467 -4.86449 255 0 0
-9.14128 6.20449 -4.76433 255 0 0
-9.37945 5.92123 -5.47201 255 0 0
-9.4745 5.94987 -5.40013 255 0 0
-9.10991 6.56936 -5.21049 255 0 0
-8.85475 6.38536 -4.63532 255 0 0
-7.70083 6.03945 -5.51605 255 0 0
-9.29267 7.9129 -5.27038 255 0 0
-9.81734 6.23027 -4.9093 255 0 0
-6.55565 6.37929 -5.37243 255 0 0
-6.86807 6.46488 -5.12547 255 0 0
-8.14161 7.37748 -5.04204 255 0 0
-8.93633 6.44419 -4.95213 255 0 0
-6.87101 6.07936 -5.21026 255 0 0
-7.58859 5.93688 -5.19269 255 0 0
-9.23245 7.52777 -5.29827 255 0 0
-7.14357 5.93824 -5.1641 255 0 0
-10.3919 5.95605 -5.6402 255 0 0
-8.0223 6.04938 -4.96259 255 0 0
-7.0402 6.21417 -5.11165 255 0 0
-10.5711 5.99235 -5.69298 255 0 0
-7.01359 5.97222 -5.13767 255 0 0
-8.41795 6.69911 -4.78704 255 0 0
-9.07839 7.03331 -5.07716 255 0 0
-8.41187 6.59709 -4.76942 255 0 0
-7.03667 6.00627 -5.06561 255 0 0
-10.2114 6.0472 -5.39233 255 0 0
-7.15001 5.9293 -5.51254 255 0 0
-6.9977 6.17669 -5.17921 255 0 0
-7.75681 7.33622 -5.14806 255 0 0
-6.77776 6.36474 -5.16694 255 0 0
-6.62157 6.02875 -5.30154 255 0 0
-7.12528 6.80324 -5.0837 255 0 0
-8.26436 5.90025 -5.27141 255 0 0
-7.43427 5.94513 -5.06672 255 0 0
-6.6882 6.35566 -5.57692 255 0 0
-6.79103 6.81524 -5.18809 255 0 0
-7.94932 6.02397 -5.03123 255 0 0
-8.45837 7.41262 -4.81408 255 0 0
-10.1391 6.05315 -5.37544 255 0 0
-7.9987 7.45792 -5.02797 255 0 0
-10.054 6.34707 -5.29202 255 0 0
-8.80602 7.24987 -4.75348 255 0 0
-7.06004 6.27652 -5.04338 255 0 0
-7.1559 7.3363 -5.20789 255 0 0
-8.94767 7.4739 -5.22796 255 0 0
-6.75364 6.66613 -5.32049 255 0 0
-8.95014 6.12139 -4.80907 255 0 0
-9.19532 6.02071 -5.24079 255 0 0
-7.43565 5.90299 -5.68063 255 0 0
-9.70272 5.99738 -5.36334 255 0 0
-8.39946 6.42801 -4.74005 255 0 0
-7.89135 7.42809 -5.09784 255 0 0
-6.73284 6.53619 -5.1962 255 0 0
-7.35022 7.01801 -5.08855 255 0 0
-8.35089 6.14323 -4.77785 255 0 0
-6.61424 6.28537 -5.45041 255 0 0
-9.58599 6.26027 -4.76379 255 0 0
-7.08704 5.96265 -5.15467 255 0 0
-7.23398 5.97003 -5.10797 255 0 0
-6.62017 6.56546 -5.34975 255 0 0
-9.10577 6.02396 -5.21927 255 0 0
-8.46718 7.141 -4.77144 255 0 0
-8.48902 5.90998 -5.42752 255 0 0
-6.86962 6.18053 -5.23346 255 0 0
-9.81236 6.06515 -5.29739 255 0 0
-9.1256 5.97506 -5.315 255 0 0
-8.87492 7.41314 -5.30543 255 0 0
-8.51863 7.35896 -4.91626 255 0 0
-9.22172 5.91381 -5.63011 255 0 0
-9.43177 6.017 -5.29875 255 0 0
-8.4281 7.35084 -4.89717 255 0 0
-9.17729 5.97787 -5.32862 255 0 0
-9.15287 6.02397 -5.23086 255 0 0
-9.13995 5.90733 -5.60617 255 0 0
-8.44681 6.2138 -4.71656 255 0 0
-6.92113 6.86393 -5.14034 255 0 0
-7.3997 6.99847 -5.09536 255 0 0
-7.3454 7.06352 -5.09707 255 0 0
-8.43195 7.11128 -4.85753 255 0 0
-10.1182 6.15513 -5.17339 255 0 0
-8.84223 5.98619 -5.24519 255 0 0
-7.18847 6.5138 -5.03648 255 0 0
-9.15386 6.27664 -4.67929 255 0 0
-7.71599 7.02519 -5.07685 255 0 0
-8.88626 5.90908 -5.53618 255 0 0
-6.7754 6.46917 -5.27794 255 0 0
-8.81854 6.61706 -4.66143 255 0 0
-7.78297 6.08897 -4.91373 255 0 0
-6.92195 6.76777 -5.11879 255 0 0
-7.72875 5.91472 -5.6803 255 0 0
-7.94457 7.46043 -5.21347 255 0 0
-7.5719 5.93833 -5.63888 255 0 0
-10.6369 6.06298 -5.61008 255 0 0
-10.2908 5.96313 -5.61466 255 0 0
-8.27207 6.11553 -4.84829 255 0 0
-6.6916 6.45009 -5.51461 255 0 0
-9.88069 6.60418 -5.39716 255 0 0
-8.47308 6.77586 -4.71459 255 0 0
-7.54949 5.93523 -5.54055 255 0 0
-7.79155 5.99213 -5.07671 255 0 0
-6.73116 5.96986 -5.48803 255 0 0
-7.38773 7.18899 -5.13282 255 0 0
-6.84571 6.52082 -5.13283 255 0 0
-7.82831 6.04999 -5.00683 255 0 0
-7.62886 6.97902 -5.0487 255 0 0
-9.64927 5.90129 -5.74798 255 0 0
-7.34811 6.18233 -5.00587 255 0 0
-6.74077 6.78084 -5.34563 255 0 0
-9.75301 5.90137 -5.56821 255 0 0
-9.70231 5.96538 -5.46143 255 0 0
-6.75815 6.00813 -5.24878 255 0 0
-9.59302 5.96105 -5.43248 255 0 0
-9.93695 6.17477 -5.0308 255 0 0
-6.6342 6.42518 -5.31807 255 0 0
-7.06238 6.24868 -5.03799 255 0 0
-7.23321 6.43047 -5.02948 255 0 0
-8.47733 5.99181 -5.15496 255 0 0
-10.0399 6.71058 -5.34358 255 0 0
-7.64696 5.93885 -5.20835 255 0 0
-10.3997 6.15867 -5.23856 255 0 0
-7.07056 5.90598 -5.65996 255 0 0
-8.27361 5.90685 -5.36858 255 0 0
-8.96424 7.38013 -5.11126 255 0 0
-10.1082 5.95372 -5.56529 255 0 0
-6.72945 5.93989 -5.56592 255 0 0
-10.4727 6.16844 -5.25674 255 0 0
-7.36189 6.73479 -5.03237 255 0 0
-9.75944 6.22604 -4.89651 255 0 0
-10.1733 6.94023 -4.43633 255 0 0
-10.4669 6.03202 -5.56206 255 0 0
-8.40726 6.37099 -4.73271 255 0 0
-9.82209 6.00698 -5.3948 255 0 0
-8.4784 6.71444 -4.70606 255 0 0
-7.09608 6.05698 -5.00567 255 0 0
-7.14374 5.99592 -5.09047 255 0 0
-8.7893 7.06297 -4.72188 255 0 0
-9.98603 6.91709 -4.71958 255 0 0
-9.06254 7.35353 -5.33601 255 0 0
-6.9908 6.01021 -5.14019 255 0 0
-7.3739 6.12973 -5.00149 255 0 0
-6.58654 6.2294 -5.60159 255 0 0
-9.02255 6.24971 -5.03891 255 0 0
-7.15549 7.16398 -5.16941 255 0 0
-9.1873 7.97472 -5.25977 255 0 0
-8.4471 6.49628 -4.76061 255 0 0
-6.64759 6.37733 -5.48355 255 0 0
-7.63763 5.98989 -5.03823 255 0 0
-9.76147 6.09785 -5.08398 255 0 0
-9.03046 6.38277 -5.26067 255 0 0
-9.00406 5.92603 -5.37406 255 0 0
-10.5117 6.05784 -5.46797 255 0 0
-8.9361 7.39258 -5.41964 255 0 0
-8.68716 5.9113 -5.48185 255 0 0
-9.21408 7.36843 -5.16127 255 0 0
-6.58881 6.18731 -5.59078 255 0 0
-10.0232 6.00009 -5.44448 255 0 0
-6.69007 6.698 -5.22452 255 0 0
-6.82045 6.70023 -5.79832 255 0 0
-8.24856 6.14362 -4.75588 255 0 0
-9.90254 6.12089 -5.22328 255 0 0
-9.02344 6.40994 -4.96577 255 0 0
-6.7683 6.49313 -5.63618 255 0 0
-9.88518 6.42231 -5.2639 255 0 0
-6.9837 5.93249 -5.20639 255 0 0
-8.79814 6.76625 -4.67929 255 0 0
-8.9955 6.3102 -4.6525 255 0 0
-8.19867 5.94184 -5.16941 255 0 0
-6.78374 6.75966 -5.17335 255 0 0
-8.6133 5.93606 -5.27436 255 0 0
-9.36999 6.23074 -4.8155 255 0 0
-8.8458 6.42683 -4.63944 255 0 0
-7.68466 7.46021 -5.15799 255 0 0
-9.55499 5.90606 -5.7222 255 0 0
-10.0217 5.93485 -5.53975 255 0 0
-7.00884 6.23099 -5.19431 255 0 0
-9.62035 5.91498 -5.53498 255 0 0
-6.79966 6.61674 -5.14389 255 0 0
-10.204 7.43216 -5.38253 255 0 0
-8.51626 5.92894 -5.24812 255 0 0
-6.55739 6.53411 -5.41294 255 0 0
-6.63016 6.02223 -5.55836 255 0 0
-8.72928 5.92485 -5.30234 255 0 0
-8.21188 7.37054 -4.95668 255 0 0
-8.26787 7.3503 -4.96426 255 0 0
-9.21479 5.90936 -5.42653 255 0 0
-9.00361 6.42803 -4.96426 255 0 0
-8.46245 6.73453 -4.70606 255 0 0
-7.77671 6.12879 -4.91953 255 0 0
-6.74893 6.67729 -5.68063 255 0 0
-8.42749 6.57713 -4.76942 255 0 0
-7.92747 6.11163 -4.86128 255 0 0
-7.74485 6.02961 -4.98299 255 0 0
-8.14417 7.43269 -4.95441 255 0 0
-10.5295 5.96874 -5.7886 255 0 0
-9.17257 5.91303 -5.41604 255 0 0
-7.5921 5.92516 -5.10263 255 0 0
-8.2462 7.36612 -4.96274 255 0 0
-7.43281 6.9633 -5.09536 255 0 0
-8.47119 7.35313 -4.90599 255 0 0
-7.43881 6.00681 -5.34563 255 0 0
-6.6354 6.23106 -5.44213 255 0 0
-7.95811 6.09025 -4.86449 255 0 0
-6.73389 6.67824 -5.31856 255 0 0
-9.98504 6.04177 -5.33601 255 0 0
-8.96525 5.90049 -5.55644 255 0 0
-9.00009 6.42552 -5.26067 255 0 0
-6.93372 6.8115 -5.13136 255 0 0
-6.76545 6.63047 -5.31469 255 0 0
-9.94106 6.11217 -5.23109 255 0 0
-9.75041 5.99495 -5.37493 255 0 0
-9.85157 7.31944 -5.5082 255 0 0
-8.76279 7.42593 -4.77272 255 0 0
-6.5775 6.32508 -5.36433 255 0 0
-6.92427 6.91606 -5.1529 255 0 0
-10.2113 5.91704 -5.69415 255 0 0
-8.2068 6.12768 -4.8358 255 0 0
-6.62678 6.16409 -5.42245 255 0 0
-8.16649 5.9481 -5.16241 255 0 0
-6.55448 6.42372 -5.38357 255 0 0
-8.52489 6.41253 -4.66911 255 0 0
-8.76997 5.98289 -5.22647 255 0 0
-7.08572 5.94721 -5.6751 255 0 0
-9.1074 7.23017 -5.32394 255 0 0
-7.56709 6.26004 -4.98469 255 0 0
-9.99318 5.95 -5.53464 255 0 0
-8.83587 6.48386 -4.64563 255 0 0
-8.95741 7.44606 -5.43455 255 0 0
-7.33722 5.95358 -5.13099 255 0 0
-8.55622 6.29428 -4.65774 255 0 0
-7.58674 6.36774 -5.01023 255 0 0
-7.86806 5.90386 -5.16906 255 0 0
-7.69636 6.05068 -4.97533 255 0 0
-8.38753 7.38577 -4.99457 255 0 0
-7.36954 7.23964 -5.13963 255 0 0
-8.47067 6.20045 -4.7195 255 0 0
-8.10057 6.99781 -5.15634 255 0 0
-9.98772 6.12454 -5.13929 255 0 0
-7.12872 6.92051 -5.10994 255 0 0
-7.47771 5.92195 -5.42696 255 0 0
-7.66098 6.49221 -4.96093 255 0 0
-10.5752 6.19505 -5.28402 255 0 0
-7.53467 5.93805 -5.17888 255 0 0
-9.01605 6.11949 -5.01704 255 0 0
-9.88247 7.3061 -5.51303 255 0 0
-8.02083 5.91511 -4.93857 255 0 0
-7.62373 5.92082 -5.10981 255 0 0
-8.02246 5.90163 -5.20856 255 0 0
-6.71166 6.57775 -5.20092 255 0 0
-10.4393 6.11544 -5.34983 255 0 0
-7.92301 5.91578 -5.27649 255 0 0
-8.08611 5.96323 -5.14492 255 0 0
-8.49536 7.37411 -5.31697 255 0 0
-8.70627 5.90923 -5.38991 255 0 0
-6.98987 6.48639 -5.07211 255 0 0
-6.63518 6.48738 -5.33391 255 0 0
-9.08328 7.12365 -5.09307 255 0 0
-7.289 6.31183 -5.01811 255 0 0
-7.65839 6.52128 -4.9659 255 0 0
-9.91958 5.90617 -5.61369 255 0 0
-6.97897 6.52263 -5.07749 255 0 0
-10.2931 5.93187 -5.71863 255 0 0
-6.60317 6.08398 -5.567 255 0 0
-6.58423 6.10997 -5.31167 255 0 0
-9.13292 6.98932 -5.18422 255 0 0
-9.89865 6.0538 -5.3167 255 0 0
-9.90245 5.95976 -5.51251 255 0 0
-7.13866 7.04617 -5.13967 255 0 0
-8.75214 5.97072 -5.31634 255 0 0
-8.81784 6.55141 -4.65181 255 0 0
-8.77064 6.23036 -4.69185 255 0 0
-6.93693 6.03579 -5.13201 255 0 0
-9.02197 7.1798 -5.39977 255 0 0
-9.87017 6.37932 -5.35934 255 0 0
-7.33634 7.10519 -5.10388 255 0 0
-7.38361 6.85176 -5.06131 255 0 0
-6.77068 6.40356 -5.6129 255 0 0
-6.7364 6.23632 -5.21219 255 0 0
-6.76467 6.52053 -5.64253 255 0 0
-6.64985 6.28928 -5.28837 255 0 0
-9.13007 7.19537 -5.21859 255 0 0
-10.0999 6.17691 -5.27796 255 0 0
-8.09477 7.44058 -4.94607 255 0 0
-7.84567 6.0042 -5.09245 255 0 0
-9.75921 5.93677 -5.47164 255 0 0
-6.77104 6.57329 -5.30212 255 0 0
-8.40543 5.94099 -5.22188 255 0 0
-9.77315 6.13742 -4.98968 255 0 0
-8.6443 5.9877 -5.19582 255 0 0
-9.03723 6.37152 -5.06157 255 0 0
-7.02696 5.91211 -5.29926 255 0 0
-7.53629 5.93932 -5.62852 255 0 0
-6.80317 6.26826 -5.15089 255 0 0
-6.99705 6.46224 -5.06852 255 0 0
-8.03177 6.08644 -4.88059 255 0 0
-8.82124 7.12312 -4.737 255 0 0
-7.89062 7.78839 -5.36949 255 0 0
-6.65208 6.11448 -5.50284 255 0 0
-10.5122 6.12476 -5.36858 255 0 0
-6.70087 6.07196 -5.24878 255 0 0
-8.94276 5.97728 -5.26903 255 0 0
-9.88546 6.32294 -5.24906 255 0 0
-6.69989 6.4888 -5.52704 255 0 0
-8.24446 5.94526 -5.18165 255 0 0
-9.80172 6.09074 -5.19515 255 0 0
-6.6258 6.52447 -5.34084 255 0 0
-9.8116 5.93682 -5.48526 255 0 0
-8.19596 5.91029 -5.82113 255 0 0
-9.41817 6.23063 -4.72601 255 0 0
-6.71981 6.53904 -5.54568 255 0 0
-7.39138 5.95404 -5.05774 255 0 0
-8.52378 7.36341 -4.81834 255 0 0
-10.0608 5.95801 -5.76697 255 0 0
-6.85859 6.1266 -5.21799 255 0 0
-7.05012 6.31274 -5.04876 255 0 0
-6.781 6.38293 -5.2586 255 0 0
-6.64519 5.96437 -5.29209 255 0 0
-7.98794 5.96426 -5.12043 255 0 0
-9.08228 7.1752 -5.10141 255 0 0
-7.96189 7.38839 -5.20271 255 0 0
-6.62167 6.41304 -5.66212 255 0 0
-8.98529 7.41533 -5.22562 255 0 0
-9.8064 6.12592 -5.2014 255 0 0
-8.02176 6.47754 -4.7627 255 0 0
-7.74791 5.91483 -5.14034 255 0 0
-7.14871 7.12333 -5.15892 255 0 0
-7.17718 7.32331 -5.20964 255 0 0
-10.1041 6.89303 -4.52558 255 0 0
-9.07654 5.92757 -5.3933 255 0 0
-9.97241 6.69975 -5.3264 255 0 0
-8.93159 6.09315 -4.9936 255 0 0
-10.4182 5.93834 -5.75362 255 0 0
-10.1012 5.91738 -5.66441 255 0 0
-7.38478 5.90555 -5.22074 255 0 0
-6.95639 6.5792 -5.08468 255 0 0
-8.03384 7.07432 -5.15634 255 0 0
-9.65985 6.00258 -5.3534 255 0 0
-7.55494 6.07105 -4.94553 255 0 0
-8.85497 6.25873 -4.71317 255 0 0
-8.97441 6.0602 -4.99829 255 0 0
-6.93197 6.72952 -5.11251 255 0 0
-8.41822 6.5059 -4.75621 255 0 0
-6.79711 5.9425 -5.41417 255 0 0
-8.38487 7.3658 -4.8913 255 0 0
-9.07057 6.50836 -5.19118 255 0 0
-7.71286 5.90256 -5.76529 255 0 0
-9.41389 5.91181 -5.68352 255 0 0
-6.61142 5.9909 -5.28939 255 0 0
-7.90007 5.92788 -5.27281 255 0 0
-6.8566 6.2279 -5.2412 255 0 0
-6.7259 6.60734 -5.65523 255 0 0
-6.86617 5.90308 -5.59727 255 0 0
-7.20447 6.57511 -5.05309 255 0 0
-8.55497 6.32468 -4.662 255 0 0
-9.54085 5.96004 -5.41886 255 0 0
-6.63056 6.12376 -5.41313 255 0 0
-6.87832 6.41329 -5.11626 255 0 0
-6.72389 6.60538 -5.56432 255 0 0
-8.82596 6.06721 -5.15799 255 0 0
-8.00388 6.09524 -4.87576 255 0 0
-8.09991 5.89961 -5.22832 255 0 0
-7.99872 6.00191 -5.03918 255 0 0
-8.12531 5.94765 -5.15192 255 0 0
-7.66144 6.1268 -5.43265 255 0 0
-9.02255 6.31323 -5.14773 255 0 0
-7.79555 5.90744 -5.15111 255 0 0
-9.10526 7.07141 -5.19203 255 0 0
-10.0572 6.05291 -5.35532 255 0 0
-6.70582 5.99013 -5.48591 255 0 0
-8.99277 6.0416 -5.19443 255 0 0
-9.0999 7.1716 -5.31187 255 0 0
-10.3276 6.11599 -5.32327 255 0 0
-8.40634 5.9118 -5.40542 255 0 0
-7.83179 5.90572 -5.16009 255 0 0
-7.47164 5.94602 -5.16414 255 0 0
-7.68642 5.91128 -5.57498 255 0 0
-6.66608 6.01171 -5.39449 255 0 0
-9.00126 7.26849 -5.41136 255 0 0
-7.19093 5.99205 -5.01555 255 0 0
-7.1543 6.57611 -5.04172 255 0 0
-6.79791 6.66228 -5.15402 255 0 0
-7.03619 5.96274 -5.14145 255 0 0
-8.75188 5.90993 -5.49935 255 0 0
-6.7898 5.99317 -5.25373 255 0 0
-6.67767 6.16727 -5.52401 255 0 0
-6.75332 5.94674 -5.40278 255 0 0
-8.655 5.93458 -5.28485 255 0 0
-9.12527 7.01783 -5.18734 255 0 0
-6.60389 6.08465 -5.31066 255 0 0
-7.98866 5.92064 -5.29491 255 0 0
-9.72925 6.20678 -4.98968 255 0 0
-7.54791 6.3964 -5.00683 255 0 0
-6.58918 6.3213 -5.62754 255 0 0
-9.896 6.58052 -5.29046 255 0 0
-7.79733 5.90879 -5.7928 255 0 0
-10.2597 6.04297 -5.4036 255 0 0
-6.77273 5.92121 -5.31673 255 0 0
-9.89163 6.57762 -5.39555 255 0 0
-9.43655 6.275 -4.73562 255 0 0
-6.58804 6.29027 -5.35825 255 0 0
-7.35429 7.39801 -5.17028 255 0 0
-8.49305 7.40748 -4.81976 255 0 0
-7.72381 6.02795 -5.52001 255 0 0
-7.19758 7.24037 -5.19565 255 0 0
-8.97698 7.46233 -5.12793 255 0 0
-6.77469 6.43785 -5.27021 255 0 0
-10.3364 6.15438 -5.2234 255 0 0
-7.36684 7.00056 -5.08855 255 0 0
-9.80921 7.88255 -5.4842 255 0 0
-8.31141 7.38901 -4.88102 255 0 0
-8.77494 6.81488 -4.68204 255 0 0
-9.02051 6.47244 -4.97486 255 0 0
-6.74478 6.47059 -5.18361 255 0 0
-7.10347 6.18072 -5.0335 255 0 0
-9.82409 6.3001 -5.33601 255 0 0
-8.83526 5.90542 -5.52145 255 0 0
-6.55324 6.4837 -5.39876 255 0 0
-7.47925 5.92317 -5.60781 255 0 0
-6.82873 6.23219 -5.149 255 0 0
-9.85242 6.85916 -4.79258 255 0 0
-6.94908 6.61927 -5.09186 255 0 0
-10.1305 6.19561 -5.07632 255 0 0
-6.95971 6.21693 -5.09232 255 0 0
-7.68975 5.98671 -5.05047 255 0 0
-6.79772 6.32309 -5.16222 255 0 0
-7.30821 6.23806 -5.00762 255 0 0
-9.10777 6.21334 -4.75865 255 0 0
-10.1464 5.9439 -5.5738 255 0 0
-8.69748 7.40609 -4.75761 255 0 0
-8.78037 7.40513 -4.77272 255 0 0
-8.76738 7.35868 -4.7631 255 0 0
-8.83723 7.36386 -4.77684 255 0 0
-8.82827 7.30338 -4.76585 255 0 0
-8.79236 7.20372 -4.74387 255 0 0
-8.82706 7.19724 -4.74936 255 0 0
-8.81316 7.15119 -4.73975 255 0 0
-8.78379 7.02433 -4.71501 255 0 0
-8.78867 6.9771 -4.70883 255 0 0
-8.76201 6.90531 -4.69303 255 0 0
-8.79627 6.89856 -4.69853 255 0 0
-8.76325 6.83917 -4.68341 255 0 0
-8.74604 6.75925 -4.6683 255 0 0
-8.80177 6.71938 -4.67311 255 0 0
-8.81882 6.68287 -4.67105 255 0 0
-8.80738 6.64138 -4.6628 255 0 0
-8.80228 6.5723 -4.65181 255 0 0
-8.81962 6.52033 -4.64769 255 0 0
-8.87449 6.36766 -4.6367 255 0 0
-8.8994 6.3377 -4.63738 255 0 0
-8.93815 6.31752 -4.64219 255 0 0
-9.03424 6.28956 -4.65731 255 0 0
-9.06785 6.28108 -4.6628 255 0 0
-9.11083 6.27894 -4.67105 255 0 0
-9.20163 6.27737 -4.68891 255 0 0
-9.24003 6.27152 -4.69578 255 0 0
-9.30476 6.26723 -4.70814 255 0 0
-9.36486 6.2594 -4.71914 255 0 0
-9.50899 6.25835 -4.74799 255 0 0
-7.58963 6.0546 -4.95064 255 0 0
-9.85223 7.35625 -5.51464 255 0 0
-8.48738 7.27943 -4.79773 255 0 0
-8.46323 7.17207 -4.7757 255 0 0
-8.44928 7.09169 -4.76007 255 0 0
-8.45224 7.02612 -4.75012 255 0 0
-8.45745 6.97975 -4.74373 255 0 0
-8.46567 6.90257 -4.73307 255 0 0
-8.46878 6.87174 -4.7288 255 0 0
-8.44527 6.81953 -4.71601 255 0 0
-8.49673 6.66365 -4.7018 255 0 0
-8.49012 6.62601 -4.69469 255 0 0
-8.49684 6.59889 -4.69185 255 0 0
-8.49297 6.51557 -4.67835 255 0 0
-8.50029 6.47327 -4.67337 255 0 0
-8.52489 6.36518 -4.662 255 0 0
-8.57112 6.27398 -4.65774 255 0 0
-8.60537 6.2366 -4.65916 255 0 0
-8.62474 6.2195 -4.66058 255 0 0
-8.70869 6.2487 -4.6819 255 0 0
-8.8512 6.22465 -4.70748 255 0 0
-9.02323 6.26602 -4.7487 255 0 0
-9.05482 6.24034 -4.75154 255 0 0
-9.25482 6.24955 -4.79418 255 0 0
-9.32685 6.234 -4.80697 255 0 0
-9.45106 6.25239 -4.8354 255 0 0
-9.49961 6.21995 -4.84108 255 0 0
-9.56669 6.23151 -4.85672 255 0 0
-9.6434 6.24896 -4.87519 255 0 0
-9.70162 6.22156 -4.88372 255 0 0
-9.88525 6.20781 -4.92067 255 0 0
-10.1601 6.34687 -4.99742 255 0 0
-10.2378 6.36173 -5.0159 255 0 0
-10.3501 6.36369 -5.04006 255 0 0
-6.72399 5.93508 -5.3066 255 0 0
-7.66421 5.92317 -5.12059 255 0 0
-7.07876 6.1151 -5.09968 255 0 0
-6.72737 6.57752 -5.73779 255 0 0
-7.94445 7.42496 -5.1083 255 0 0
-6.9397 6.6734 -5.10173 255 0 0
-8.14095 5.90001 -5.23909 255 0 0
-8.47591 7.25215 -4.88983 255 0 0
-9.18081 7.55843 -5.08073 255 0 0
-8.41401 6.63105 -4.7753 255 0 0
-8.39829 6.52236 -4.75474 255 0 0
-8.40876 6.3408 -4.72831 255 0 0
-8.43738 6.33105 -4.73271 255 0 0
-8.47507 6.32798 -4.74005 255 0 0
-8.38368 6.21342 -4.70334 255 0 0
-8.54588 6.19348 -4.73418 255 0 0
-8.59272 6.1964 -4.74446 255 0 0
-8.94234 6.16282 -4.81348 255 0 0
-9.74394 6.18369 -4.98968 255 0 0
-9.77295 6.16965 -4.99409 255 0 0
-9.87421 6.16828 -5.01612 255 0 0
-10.0192 6.16024 -5.04695 255 0 0
-10.1985 6.20398 -5.09247 255 0 0
-10.2762 6.21792 -5.11156 255 0 0
-10.388 6.252 -5.14093 255 0 0
-8.34672 5.91433 -5.38976 255 0 0
-7.7528 7.68873 -5.31841 255 0 0
-8.14749 7.38281 -4.94607 255 0 0
-8.20698 7.40135 -4.96123 255 0 0
-8.31492 7.35691 -4.97486 255 0 0
-8.55814 7.50006 -5.04912 255 0 0
-8.95543 7.40858 -5.11429 255 0 0
-9.04296 7.40904 -5.13247 255 0 0
-9.07664 7.2233 -5.10823 255 0 0
-9.06448 7.07426 -5.08095 255 0 0
-9.12353 7.0165 -5.08398 255 0 0
-8.19446 6.16398 -4.74754 255 0 0
-9.02475 6.37873 -4.96123 255 0 0
-9.03349 6.33684 -4.95668 255 0 0
-8.92677 6.18336 -4.9097 255 0 0
-8.8762 6.11725 -4.88848 255 0 0
-8.9988 6.12339 -4.91652 255 0 0
-9.70352 6.15804 -5.07943 255 0 0
-9.76135 6.13001 -5.08853 255 0 0
-10.2271 6.1717 -5.20067 255 0 0
-10.2636 6.14401 -5.20522 255 0 0
-9.32292 5.9165 -5.45627 255 0 0
-7.35464 7.19081 -5.12601 255 0 0
-8.08247 7.42927 -5.13807 255 0 0
-7.80934 6.68182 -5.03048 255 0 0
-6.91558 6.35668 -5.11258 255 0 0
-8.0057 7.50001 -5.03735 255 0 0
-8.02101 7.4256 -5.02641 255 0 0
-8.04323 7.3932 -5.02485 255 0 0
-8.10741 7.38157 -5.03579 255 0 0
-8.18842 7.38461 -5.05297 255 0 0
-8.93037 7.97726 -5.31546 255 0 0
-8.92631 7.4202 -5.2139 255 0 0
-9.04433 7.41017 -5.23734 255 0 0
-9.84251 7.96709 -5.50607 255 0 0
-9.3387 7.43185 -5.30452 255 0 0
-9.12183 7.22401 -5.22171 255 0 0
-9.16043 7.18415 -5.22328 255 0 0
-9.23972 7.21102 -5.24515 255 0 0
-9.12646 7.05325 -5.19359 255 0 0
-8.09254 6.13248 -4.81132 255 0 0
-8.15163 6.11664 -4.82173 255 0 0
-8.23037 6.11493 -4.83892 255 0 0
-9.95476 7.32311 -5.4217 255 0 0
-9.8571 7.17947 -5.37639 255 0 0
-9.06534 6.56995 -5.09984 255 0 0
-9.06259 6.53524 -5.0936 255 0 0
-9.05593 6.48162 -5.08344 255 0 0
-9.05824 6.43466 -5.07641 255 0 0
-9.04192 6.3108 -5.05297 255 0 0
-9.85039 6.51656 -5.27015 255 0 0
-9.86229 6.45742 -5.2639 255 0 0
-9.88426 6.37181 -5.25609 255 0 0
-10.0151 6.35577 -5.28421 255 0 0
-9.90176 6.21818 -5.23734 255 0 0
-10.0519 6.11482 -5.25765 255 0 0
-10.1339 6.13187 -5.27952 255 0 0
-10.1871 6.09823 -5.28734 255 0 0
-10.2549 6.10582 -5.30452 255 0 0
-10.5804 6.13094 -5.38577 255 0 0
-7.47666 5.92111 -5.51624 255 0 0
-7.89187 5.98043 -5.09944 255 0 0
-6.76887 6.61809 -5.67005 255 0 0
-9.23379 5.96798 -5.34139 255 0 0
-6.75802 6.36129 -5.59809 255 0 0
-9.81827 6.5962 -5.38107 255 0 0
-7.19337 7.28778 -5.20527 255 0 0
-7.39498 6.0735 -4.99537 255 0 0
-7.81242 7.49481 -5.09462 255 0 0
-7.83495 7.46308 -5.09301 255 0 0
-7.86144 7.43518 -5.09301 255 0 0
-7.977 7.40241 -5.11071 255 0 0
-8.07724 7.45987 -5.1429 255 0 0
-8.8875 7.45949 -5.3167 255 0 0
-8.98827 7.39992 -5.32796 255 0 0
-9.14539 7.3135 -5.34728 255 0 0
-9.10802 7.14305 -5.30865 255 0 0
-9.12049 7.11798 -5.30704 255 0 0
-8.08935 6.08491 -4.89346 255 0 0
-9.47349 6.96906 -5.36176 255 0 0
-9.04933 6.62402 -5.20566 255 0 0
-9.05915 6.58187 -5.20083 255 0 0
-9.08678 6.47116 -5.18876 255 0 0
-9.03453 6.36962 -5.1598 255 0 0
-9.00515 6.2693 -5.13646 255 0 0
-8.99685 6.2319 -5.12841 255 0 0
-8.96524 6.17861 -5.11232 255 0 0
-8.95307 6.07674 -5.09301 255 0 0
-9.87971 6.51914 -5.38348 255 0 0
-9.88931 6.45835 -5.37624 255 0 0
-9.78205 6.24046 -5.3167 255 0 0
-9.66847 6.1358 -5.27325 255 0 0
-9.68316 6.0809 -5.26842 255 0 0
-9.74056 6.06873 -5.28049 255 0 0
-9.8411 6.05071 -5.30222 255 0 0
-9.9274 6.03909 -5.32153 255 0 0
-10.3323 6.05278 -5.42291 255 0 0
-10.3904 6.05377 -5.43739 255 0 0
-10.4534 6.05734 -5.45349 255 0 0
-10.6383 6.09729 -5.50498 255 0 0
-7.44234 6.02425 -4.99712 255 0 0
-6.55891 6.35226 -5.36636 255 0 0
-8.58082 5.94373 -5.26736 255 0 0
-7.1259 7.06701 -5.14142 255 0 0
-6.71972 6.66418 -5.57882 255 0 0
-7.45181 5.90144 -5.23773 255 0 0
-7.64031 7.50563 -5.15799 255 0 0
-7.68955 7.37694 -5.14199 255 0 0
-7.68239 7.30042 -5.12487 255 0 0
-7.99176 7.38092 -5.20767 255 0 0
-7.65778 7.03889 -5.06691 255 0 0
-7.70765 6.98425 -5.06691 255 0 0
-7.76515 6.90337 -5.0636 255 0 0
-7.76887 6.87378 -5.05863 255 0 0
-8.02344 6.89803 -5.11991 255 0 0
-7.70211 6.49576 -4.97087 255 0 0
-7.68738 6.4522 -4.95927 255 0 0
-7.82334 6.53477 -5.00564 255 0 0
-8.97528 7.38922 -5.42792 255 0 0
-9.18827 7.52809 -5.50244 255 0 0
-9.03198 7.36432 -5.4362 255 0 0
-9.00144 7.30396 -5.41799 255 0 0
-9.01847 7.24712 -5.41136 255 0 0
-9.01369 7.20818 -5.40308 255 0 0
-8.84524 7.00497 -5.32691 255 0 0
-7.8495 6.08124 -4.92781 255 0 0
-7.99451 6.05821 -4.95762 255 0 0
-8.05908 6.0472 -4.97087 255 0 0
-8.01971 5.97321 -4.94851 255 0 0
-9.0153 6.40416 -5.26067 255 0 0
-9.00711 6.31836 -5.24411 255 0 0
-8.97239 6.23072 -5.22092 255 0 0
-8.86605 6.04844 -5.16462 255 0 0
-8.9129 6.04948 -5.17621 255 0 0
-8.92256 6.02519 -5.17455 255 0 0
-9.0631 6.05771 -5.2143 255 0 0
-9.05873 6.02377 -5.20767 255 0 0
-9.2378 6.01728 -5.25073 255 0 0
-9.3276 6.01297 -5.27226 255 0 0
-9.38438 6.01812 -5.28716 255 0 0
-9.59796 5.99571 -5.33684 255 0 0
-9.86989 6.0041 -5.40639 255 0 0
-9.89851 5.98941 -5.41136 255 0 0
-9.97524 6.00357 -5.43289 255 0 0
-10.1001 6.01366 -5.46601 255 0 0
-10.1482 6.00973 -5.4776 255 0 0
-10.2108 6.01416 -5.49416 255 0 0
-10.2541 6.00696 -5.5041 255 0 0
-10.3314 6.01939 -5.52563 255 0 0
-10.4137 6.0343 -5.54881 255 0 0
-10.5201 6.02953 -5.57531 255 0 0
-7.50314 5.94209 -5.17151 255 0 0
-7.55213 5.92283 -5.72084 255 0 0
-10.1992 5.94238 -5.58742 255 0 0
-7.19305 5.92194 -5.17354 255 0 0
-7.37548 6.94251 -5.07834 255 0 0
-7.33456 6.83869 -5.04769 255 0 0
-7.39984 6.83424 -5.06131 255 0 0
-7.41602 6.81667 -5.06131 255 0 0
-7.39855 6.73617 -5.04088 255 0 0
-7.42695 6.7299 -5.04599 255 0 0
-7.42399 6.61585 -5.02215 255 0 0
-7.4771 6.47474 -5.00598 255 0 0
-7.4886 6.42278 -4.99831 255 0 0
-7.56685 6.44333 -5.02045 255 0 0
-7.59304 6.40377 -5.01875 255 0 0
-7.58462 6.33536 -5.00342 255 0 0
-7.54792 6.27439 -4.98299 255 0 0
-7.64679 6.2955 -5.01023 255 0 0
-7.59719 6.1347 -4.96767 255 0 0
-7.65063 6.0589 -4.96596 255 0 0
-7.94587 5.91821 -5.01108 255 0 0
-8.40372 5.96971 -5.13282 255 0 0
-8.53733 6.00392 -5.17198 255 0 0
-8.55154 5.98366 -5.17198 255 0 0
-8.68154 5.98309 -5.20433 255 0 0
-8.19592 5.91026 -5.34832 255 0 0
-8.7188 5.97833 -5.21284 255 0 0
-8.89136 5.97347 -5.25541 255 0 0
-8.99665 5.9671 -5.28095 255 0 0
-9.05993 5.9628 -5.29627 255 0 0
-9.3139 5.97292 -5.36268 255 0 0
-9.35637 5.9689 -5.37289 255 0 0
-9.40361 5.96771 -5.38481 255 0 0
-9.64049 5.95891 -5.4444 255 0 0
-9.74988 5.96282 -5.47335 255 0 0
-9.91175 5.93339 -5.5108 255 0 0
-10.3341 5.95549 -5.62488 255 0 0
-10.5423 6.00907 -5.68788 255 0 0
-6.93981 7.0811 -5.1942 255 0 0
-8.79816 5.91086 -5.51224 255 0 0
-7.36258 6.09085 -4.991 255 0 0
-9.2806 5.92056 -5.44577 255 0 0
-7.63527 5.9008 -5.28682 255 0 0
-7.12345 6.99789 -5.12568 255 0 0
-7.11605 6.95754 -5.11519 255 0 0
-7.12513 6.86797 -5.0977 255 0 0
-7.08494 6.7969 -5.07321 255 0 0
-7.14335 6.77207 -5.08108 255 0 0
-7.15297 6.7171 -5.07146 255 0 0
-7.17683 6.69161 -5.07146 255 0 0
-7.15341 6.62239 -5.05134 255 0 0
-7.19975 6.49299 -5.03473 255 0 0
-7.2276 6.4871 -5.03997 255 0 0
-7.25944 6.39241 -5.02773 255 0 0
-7.27878 6.37887 -5.02948 255 0 0
-7.2644 6.33588 -5.01724 255 0 0
-7.29234 6.26948 -5.01024 255 0 0
-7.3765 6.16152 -5.00849 255 0 0
-7.40572 6.03833 -4.991 255 0 0
-7.47897 6.01 -5.00324 255 0 0
-7.51938 6.01319 -5.01374 255 0 0
-7.53799 5.99883 -5.01549 255 0 0
-7.5834 5.99102 -5.02511 255 0 0
-7.73752 5.97983 -5.06096 255 0 0
-7.85544 5.9822 -5.0907 255 0 0
-7.91495 5.96843 -5.10294 255 0 0
-7.9693 5.97983 -5.11869 255 0 0
-8.02897 5.9653 -5.13093 255 0 0
-8.27669 5.93873 -5.18865 255 0 0
-8.31804 5.93857 -5.19914 255 0 0
-8.44691 5.94033 -5.23238 255 0 0
-8.48387 5.9363 -5.24112 255 0 0
-8.77109 5.9229 -5.31284 255 0 0
-8.8083 5.91767 -5.32158 255 0 0
-8.85947 5.92161 -5.33558 255 0 0
-8.94334 5.93175 -5.35919 255 0 0
-9.13977 5.92261 -5.40904 255 0 0
-9.44307 5.91451 -5.48775 255 0 0
-9.49727 5.90155 -5.49999 255 0 0
-6.77388 6.40658 -5.26247 255 0 0
-9.55876 5.9084 -5.51749 255 0 0
-9.69141 5.91127 -5.55334 255 0 0
-9.85281 5.89811 -5.59445 255 0 0
-9.96721 5.90257 -5.62593 255 0 0
-10.0245 5.90444 -5.64167 255 0 0
-10.1634 5.92154 -5.6819 255 0 0
-10.3701 5.94358 -5.74137 255 0 0
-10.6215 5.98766 -5.81658 255 0 0
-10.238 5.99756 -5.82263 255 0 0
-6.95803 7.13344 -5.21036 255 0 0
-6.98274 6.2078 -5.096 255 0 0
-6.93362 7.02465 -5.17984 255 0 0
-6.91928 6.96041 -5.16188 255 0 0
-6.90962 6.82009 -5.12777 255 0 0
-6.96791 6.55886 -5.08288 255 0 0
-7.02055 6.45317 -5.07211 255 0 0
-7.01939 6.42146 -5.06492 255 0 0
-7.03598 6.37562 -5.05894 255 0 0
-7.08456 6.22352 -5.03799 255 0 0
-7.0727 6.10987 -5.01106 255 0 0
-7.05336 6.06402 -4.9967 255 0 0
-7.146 6.04125 -5.01465 255 0 0
-7.23581 5.98599 -5.02542 255 0 0
-7.2829 5.98143 -5.0362 255 0 0
-7.46143 5.9379 -5.07211 255 0 0
-7.4886 5.93057 -5.07749 255 0 0
-7.54032 5.92799 -5.09006 255 0 0
-7.70032 5.92197 -5.12956 255 0 0
-7.90883 5.90519 -5.17984 255 0 0
-7.9407 5.89972 -5.18702 255 0 0
-7.98156 5.90075 -5.19779 255 0 0
-8.05892 5.89905 -5.21754 255 0 0
-10.1896 5.9368 -5.79929 255 0 0
-10.2322 5.89676 -5.80467 255 0 0
-10.2993 5.90297 -5.82442 255 0 0
-6.83279 5.91677 -5.59078 255 0 0
-8.56729 5.90435 -5.44778 255 0 0
-6.8796 6.23392 -5.16222 255 0 0
-6.68368 6.81975 -5.16414 255 0 0
-6.79732 6.9029 -5.21019 255 0 0
-6.79022 6.86305 -5.19914 255 0 0
-6.78599 6.71399 -5.16322 255 0 0
-6.81533 6.6006 -5.14389 255 0 0
-6.82674 6.56476 -5.13836 255 0 0
-6.85272 6.48115 -5.12547 255 0 0
-6.87121 6.43718 -5.11994 255 0 0
-6.89496 6.38312 -5.1135 255 0 0
-6.92377 6.31893 -5.10613 255 0 0
-6.97391 6.2594 -5.10521 255 0 0
-7.0936 6.21658 -5.12547 255 0 0
-7.08421 6.16396 -5.11165 255 0 0
-7.06373 6.07294 -5.08679 255 0 0
-7.0863 5.99077 -5.07482 255 0 0
-7.1821 5.9847 -5.09784 255 0 0
-7.29448 5.96204 -5.12178 255 0 0
-7.35997 5.94315 -5.13468 255 0 0
-7.39137 5.93961 -5.14204 255 0 0
-7.44016 5.94984 -5.15678 255 0 0
-7.68301 5.9377 -5.21756 255 0 0
-7.73936 5.93739 -5.23229 255 0 0
-7.78253 5.92667 -5.2415 255 0 0
-7.84125 5.92744 -5.25715 255 0 0
-8.03652 5.91197 -5.30596 255 0 0
-8.07743 5.9126 -5.31701 255 0 0
-8.14113 5.91485 -5.33451 255 0 0
-8.25055 5.91997 -5.3649 255 0 0
-8.44311 5.90779 -5.41462 255 0 0
-8.53956 5.91515 -5.44225 255 0 0
-8.62711 5.91545 -5.46619 255 0 0
-8.9327 5.90946 -5.54907 255 0 0
-9.03502 5.91575 -5.57854 255 0 0
-9.06765 5.90645 -5.58591 255 0 0
-9.28725 5.9093 -5.64761 255 0 0
-9.35755 5.90741 -5.66695 255 0 0
-9.45617 5.90714 -5.69457 255 0 0
-9.50319 5.90523 -5.70746 255 0 0
-9.60211 5.90377 -5.73509 255 0 0
-9.70123 5.9015 -5.76272 255 0 0
-9.76274 5.90726 -5.78113 255 0 0
-7.68749 5.99961 -5.59524 255 0 0
-6.68552 6.75723 -5.23773 255 0 0
-6.68198 6.72171 -5.22829 255 0 0
-6.68895 6.63366 -5.20878 255 0 0
-6.76962 6.41779 -5.17732 255 0 0
-6.98628 6.12253 -5.1641 255 0 0
-7.23982 5.91734 -5.18487 255 0 0
-7.28233 5.90904 -5.19431 255 0 0
-7.4919 5.90434 -5.24906 255 0 0
-7.1726 5.9051 -5.33787 255 0 0
-6.70227 6.69432 -5.31469 255 0 0
-6.77425 6.51429 -5.28858 255 0 0
-6.75578 6.32905 -5.23927 255 0 0
-6.75056 6.29417 -5.2296 255 0 0
-6.84805 6.29461 -5.25474 255 0 0
-6.92413 6.33431 -5.28375 255 0 0
-6.86071 6.09931 -5.21219 255 0 0
-6.91859 6.09227 -5.22573 255 0 0
-6.8582 6.01028 -5.19092 255 0 0
-6.88952 5.9659 -5.18898 255 0 0
-6.93452 5.94755 -5.19672 255 0 0
-7.02166 5.92188 -5.21413 255 0 0
-7.04838 5.91587 -5.21993 255 0 0
-7.60812 6.11379 -5.41525 255 0 0
-7.68027 6.11206 -5.43459 255 0 0
-7.69327 6.07786 -5.43072 255 0 0
-7.69746 6.03681 -5.42299 255 0 0
-7.67254 5.98794 -5.40558 255 0 0
-7.66053 5.94939 -5.39398 255 0 0
-6.64854 5.98162 -5.55295 255 0 0
-6.58496 6.62411 -5.35569 255 0 0
-6.60458 6.58114 -5.34975 255 0 0
-6.64828 6.36288 -5.30619 255 0 0
-6.6509 6.32022 -5.29629 255 0 0
-6.66475 6.2735 -5.28837 255 0 0
-6.6783 6.22679 -5.28046 255 0 0
-6.69808 6.15676 -5.26858 255 0 0
-6.70364 6.11804 -5.26066 255 0 0
-6.74189 6.05115 -5.25472 255 0 0
-6.8306 5.97178 -5.25967 255 0 0
-6.88881 5.95101 -5.27056 255 0 0
-6.94911 5.93153 -5.28244 255 0 0
-6.99118 5.9246 -5.29233 255 0 0
-7.25478 5.94396 -5.36954 255 0 0
-7.25604 5.91629 -5.36361 255 0 0
-7.28289 5.90949 -5.36954 255 0 0
-7.71197 5.98934 -5.50813 255 0 0
-7.00504 5.90786 -5.64051 255 0 0
-7.14509 5.92522 -5.77723 255 0 0
-6.58584 6.22876 -5.34205 255 0 0
-6.58726 6.17117 -5.32787 255 0 0
-6.60726 6.04444 -5.30154 255 0 0
-6.68847 5.94618 -5.29952 255 0 0
-6.79998 5.90249 -5.31977 255 0 0
-7.17638 5.90822 -5.42712 255 0 0
-7.41961 5.90462 -5.49599 255 0 0
-7.70008 5.9655 -5.59119 255 0 0
-6.62477 6.06046 -5.567 255 0 0
-7.71502 5.96244 -5.78011 255 0 0
-6.70821 6.6213 -5.56432 255 0 0
-6.72779 6.57793 -5.55811 255 0 0
-6.6112 6.31238 -5.45662 255 0 0
-6.62912 6.26967 -5.45041 255 0 0
-6.63412 6.08349 -5.40381 255 0 0
-6.64871 6.03906 -5.39656 255 0 0
-6.69314 5.97881 -5.3938 255 0 0
-6.731 5.95548 -5.39863 255 0 0
-6.84177 5.92455 -5.42245 255 0 0
-6.89682 5.91521 -5.43591 255 0 0
-7.62049 5.94732 -5.65545 255 0 0
-7.72541 5.99978 -5.69894 255 0 0
-7.73802 5.96558 -5.6948 255 0 0
-6.68699 5.95907 -5.55836 255 0 0
-6.77277 6.57496 -5.65946 255 0 0
-6.75603 6.45067 -5.62137 255 0 0
-6.65361 6.07238 -5.49226 255 0 0
-6.68002 6.0243 -5.48732 255 0 0
-6.75235 5.94589 -5.48803 255 0 0
-6.79195 5.938 -5.49755 255 0 0
-6.83654 5.92002 -5.50602 255 0 0
-6.87204 5.90813 -5.51342 255 0 0
-7.09229 5.90986 -5.57904 255 0 0
-7.50377 5.91369 -5.70391 255 0 0
-7.6135 5.94186 -5.74413 255 0 0
-7.73105 6.00416 -5.79492 255 0 0
-7.73885 5.92246 -5.77799 255 0 0
-6.6016 6.36334 -5.64267 255 0 0
-6.58206 6.26968 -5.61132 255 0 0
-6.59815 6.13747 -5.57997 255 0 0
-7.54895 5.92034 -5.81129 255 0 0
-9.90561 7.32321 -5.41077 255 0 0
