ply
format ascii 1.0
comment Created by Open3D
element vertex 1409
property double x
property double y
property double z
property uchar red
property uchar green
property uchar blue
end_header
5.77564 4.66381 -4.39161 255 0 0
7.67279 4.4218 -4.53138 255 0 0
7.67068 4.81709 -4.34652 255 0 0
5.83446 5.23671 -4.45402 255 0 0
8.41327 4.40682 -4.71483 255 0 0
6.66842 4.32116 -4.48725 255 0 0
5.64991 5.24294 -4.48318 255 0 0
7.67877 4.8731 -4.43687 255 0 0
7.65364 4.98539 -4.44748 255 0 0
8.18508 4.46195 -4.58112 255 0 0
7.55634 4.3786 -4.57508 255 0 0
5.67701 4.51783 -4.47125 255 0 0
6.36519 4.47635 -4.36494 255 0 0
6.82773 4.31034 -5.13033 255 0 0
7.49287 4.32995 -4.86762 255 0 0
6.44668 4.30892 -4.64116 255 0 0
6.40524 4.28122 -4.69584 255 0 0
6.74964 4.62811 -4.19288 255 0 0
6.89728 5.40926 -4.11595 255 0 0
5.42419 5.13008 -4.54299 255 0 0
5.91352 4.57018 -4.40777 255 0 0
6.64309 4.28242 -4.69213 255 0 0
7.64073 4.92554 -4.43586 255 0 0
7.02943 5.18398 -4.03175 255 0 0
5.79038 4.25963 -4.85577 255 0 0
7.22471 5.51543 -4.59816 255 0 0
8.44244 4.44764 -4.64206 255 0 0
7.19456 4.33003 -4.86015 255 0 0
5.58228 5.97284 -4.78464 255 0 0
7.79123 4.39216 -5.29749 255 0 0
5.65583 4.28597 -4.48311 255 0 0
5.66159 5.30397 -4.49934 255 0 0
8.15408 4.39502 -5.32797 255 0 0
6.53589 4.47018 -4.26343 255 0 0
7.54904 4.32668 -5.12603 255 0 0
6.1591 4.37521 -4.36481 255 0 0
5.88506 4.59292 -5.25702 255 0 0
9.23924 4.56367 -4.76118 255 0 0
8.30151 5.15851 -4.70611 255 0 0
6.63301 4.66469 -4.2452 255 0 0
6.6779 4.28248 -4.9248 255 0 0
6.14599 4.27878 -4.62042 255 0 0
5.90488 4.32231 -4.69795 255 0 0
6.79732 4.82858 -4.38332 255 0 0
5.74576 4.3756 -5.22272 255 0 0
8.51649 4.66884 -4.25927 255 0 0
8.33398 5.9053 -4.64608 255 0 0
5.38522 4.62987 -4.48505 255 0 0
5.60181 4.32928 -4.47731 255 0 0
5.64495 4.3094 -4.48505 255 0 0
5.54278 4.62982 -4.45992 255 0 0
5.58835 5.42517 -4.50922 255 0 0
6.81766 4.51025 -4.33666 255 0 0
7.38777 4.77489 -3.96933 255 0 0
7.09621 4.32836 -4.60182 255 0 0
5.7497 5.52906 -4.49687 255 0 0
6.18184 4.30374 -4.56564 255 0 0
7.51727 5.58512 -4.01501 255 0 0
7.58571 4.34769 -5.05941 255 0 0
7.41026 4.7027 -3.96485 255 0 0
6.83449 4.29197 -4.67424 255 0 0
6.81776 5.83341 -4.32449 255 0 0
6.91679 5.53131 -4.13794 255 0 0
9.11983 4.47782 -4.99571 255 0 0
8.26606 5.7839 -4.88381 255 0 0
6.58766 5.88459 -4.52494 255 0 0
5.4989 5.27534 -4.52505 255 0 0
7.38993 4.71441 -4.50563 255 0 0
5.37639 5.56448 -4.6355 255 0 0
8.37631 4.82724 -4.41897 255 0 0
5.56552 4.31178 -4.59566 255 0 0
8.48027 4.51907 -4.57478 255 0 0
7.34781 5.29867 -4.67113 255 0 0
6.98226 5.06027 -4.0816 255 0 0
7.62992 4.94421 -4.35533 255 0 0
5.62051 5.54769 -4.54423 255 0 0
7.50518 5.71546 -4.02979 255 0 0
8.39083 4.57411 -4.47574 255 0 0
5.38755 5.28003 -4.56942 255 0 0
5.7445 4.28918 -4.57566 255 0 0
8.39883 4.63027 -4.48455 255 0 0
7.9268 5.32546 -3.97184 255 0 0
6.1204 4.26096 -4.89117 255 0 0
7.18168 4.40385 -4.484 255 0 0
8.84279 4.65855 -4.41273 255 0 0
5.5322 5.06096 -4.48454 255 0 0
7.48653 5.50738 -4.57331 255 0 0
5.37677 4.75728 -4.51212 255 0 0
8.1069 4.34482 -4.87906 255 0 0
8.3125 4.40439 -4.7738 255 0 0
8.32044 5.86615 -4.72784 255 0 0
6.71622 4.32956 -4.50125 255 0 0
5.57096 4.61984 -5.22948 255 0 0
7.29018 4.94809 -3.97252 255 0 0
5.98856 4.71954 -4.38668 255 0 0
6.66253 4.61498 -4.17167 255 0 0
7.05564 4.98696 -4.00986 255 0 0
6.27285 4.32308 -4.88086 255 0 0
7.62164 4.96455 -3.95712 255 0 0
5.39815 5.83101 -4.85481 255 0 0
8.14689 4.36625 -5.06285 255 0 0
5.67017 4.69077 -4.43849 255 0 0
7.51139 5.52567 -4.00638 255 0 0
6.13815 4.37127 -4.70732 255 0 0
7.41962 4.44154 -4.47183 255 0 0
8.25697 4.42525 -4.67782 255 0 0
8.80642 4.48052 -4.64752 255 0 0
7.50068 5.76843 -4.03594 255 0 0
7.58525 4.67613 -3.99491 255 0 0
6.31578 4.30864 -5.03736 255 0 0
7.28851 5.49605 -4.44597 255 0 0
6.67593 5.78096 -4.28778 255 0 0
5.63719 5.09593 -4.44817 255 0 0
5.90428 4.90807 -4.40329 255 0 0
7.42292 4.49147 -4.32473 255 0 0
6.92695 4.55898 -4.14829 255 0 0
8.4672 4.98718 -4.45877 255 0 0
6.77375 4.31003 -4.66042 255 0 0
5.55068 4.77211 -4.4256 255 0 0
7.96861 5.21751 -3.96671 255 0 0
8.09486 4.33837 -5.12823 255 0 0
7.42993 5.52023 -4.39792 255 0 0
8.01047 4.36676 -4.93924 255 0 0
6.73821 4.44619 -4.45348 255 0 0
5.5371 4.38509 -4.47151 255 0 0
5.99915 4.34778 -4.45507 255 0 0
6.99219 5.67361 -4.17366 255 0 0
9.0805 4.43182 -5.25525 255 0 0
5.73214 4.23776 -4.83199 255 0 0
7.3569 4.33322 -4.75071 255 0 0
7.25292 5.49624 -4.43839 255 0 0
6.70341 4.36644 -4.43134 255 0 0
8.35472 5.13682 -4.71549 255 0 0
8.27164 5.81707 -4.79986 255 0 0
6.61881 4.28902 -4.61346 255 0 0
7.59017 4.99548 -4.59736 255 0 0
6.67641 4.6716 -4.25614 255 0 0
5.43981 4.85924 -4.48446 255 0 0
5.68776 4.87827 -4.41405 255 0 0
5.56122 4.27689 -4.58654 255 0 0
5.81113 5.44406 -4.4925 255 0 0
7.27654 5.48702 -4.52331 255 0 0
7.18975 5.66622 -4.37148 255 0 0
7.93785 5.38768 -3.98091 255 0 0
7.82841 5.6735 -3.99631 255 0 0
8.22617 4.35865 -4.91404 255 0 0
5.83481 4.576 -4.38892 255 0 0
7.34067 4.4417 -4.45252 255 0 0
7.4725 4.37748 -4.55355 255 0 0
8.27381 4.58696 -4.45078 255 0 0
8.28547 5.85621 -4.80923 255 0 0
5.45327 5.30657 -4.52137 255 0 0
5.46194 4.4105 -4.52221 255 0 0
6.86566 4.33428 -4.54147 255 0 0
6.30154 5.84764 -4.45735 255 0 0
8.77151 4.70101 -4.31499 255 0 0
8.17967 4.68812 -4.11068 255 0 0
7.50477 4.49252 -4.42175 255 0 0
8.67858 4.86531 -4.40174 255 0 0
7.43757 5.83299 -4.61706 255 0 0
7.46883 5.94379 -4.4728 255 0 0
7.07476 4.32677 -4.67171 255 0 0
5.71251 4.56825 -4.42376 255 0 0
6.38124 4.2871 -4.6185 255 0 0
7.26935 5.81324 -4.08381 255 0 0
7.71542 4.34942 -4.77236 255 0 0
8.92895 4.55618 -4.59688 255 0 0
6.47525 4.47392 -4.24975 255 0 0
6.97959 4.29134 -5.09833 255 0 0
6.99781 5.09689 -4.01384 255 0 0
5.7754 5.51436 -4.4995 255 0 0
5.75525 4.25485 -4.77476 255 0 0
8.34222 4.70277 -4.14394 255 0 0
5.80148 4.2678 -4.58754 255 0 0
8.68534 4.38008 -5.31325 255 0 0
7.03221 4.76083 -4.05 255 0 0
7.08759 5.87754 -4.14186 255 0 0
5.4678 4.52337 -4.48311 255 0 0
9.0357 4.48981 -4.79361 255 0 0
8.36443 4.66316 -4.14394 255 0 0
7.52551 4.33693 -5.20229 255 0 0
6.03389 4.80185 -4.41379 255 0 0
8.91743 4.43104 -4.93609 255 0 0
5.73267 4.43041 -5.16102 255 0 0
5.59603 4.48599 -4.44293 255 0 0
8.70579 4.58638 -4.54916 255 0 0
7.66723 5.61234 -3.96197 255 0 0
6.90709 4.56941 -4.07219 255 0 0
6.84278 5.34036 -4.09534 255 0 0
7.17283 4.70861 -3.99593 255 0 0
7.55237 4.94498 -3.94234 255 0 0
7.28773 5.78557 -4.08317 255 0 0
8.19317 5.87881 -4.79205 255 0 0
6.44575 4.2752 -4.70648 255 0 0
6.6443 4.2832 -5.06472 255 0 0
6.89892 4.54053 -4.0665 255 0 0
5.44444 4.24905 -4.61162 255 0 0
5.55536 5.10639 -5.29214 255 0 0
7.55024 5.07247 -3.95712 255 0 0
8.32663 4.4372 -4.61237 255 0 0
5.44381 4.92113 -4.49957 255 0 0
5.56956 4.5412 -5.27858 255 0 0
6.24907 4.32858 -4.87465 255 0 0
6.73731 4.3093 -4.57655 255 0 0
7.86277 4.33474 -4.89256 255 0 0
8.6489 4.6353 -4.36877 255 0 0
7.58697 4.33648 -4.81535 255 0 0
8.38181 5.83534 -4.55541 255 0 0
5.45123 4.23359 -4.87577 255 0 0
7.38554 5.5418 -4.39204 255 0 0
8.41638 4.69212 -4.4963 255 0 0
5.58583 4.37005 -4.48166 255 0 0
5.89436 4.36851 -4.43112 255 0 0
6.08157 4.72312 -4.41029 255 0 0
6.22711 5.72385 -4.49394 255 0 0
6.13828 4.40437 -4.36481 255 0 0
5.3796 5.43731 -4.60529 255 0 0
6.57776 4.52173 -4.21005 255 0 0
6.59518 5.83531 -4.35958 255 0 0
7.31846 4.33398 -5.21638 255 0 0
7.83845 5.52632 -3.98032 255 0 0
5.43535 4.35717 -4.70068 255 0 0
6.22091 4.37489 -4.38056 255 0 0
8.0267 4.37562 -5.28442 255 0 0
9.13611 4.70293 -4.57104 255 0 0
7.45023 5.53532 -4.32233 255 0 0
8.07052 5.01498 -4.54599 255 0 0
7.26899 5.67299 -4.553 255 0 0
6.08791 4.25981 -4.88058 255 0 0
8.04134 4.35889 -5.20059 255 0 0
6.65534 5.80467 -4.28778 255 0 0
6.92719 4.32733 -4.55663 255 0 0
7.86077 4.45596 -4.58287 255 0 0
7.29028 4.62655 -4.00854 255 0 0
8.94059 4.38981 -5.30044 255 0 0
5.84227 5.34461 -4.47851 255 0 0
8.13661 4.42302 -4.64724 255 0 0
8.24757 4.37 -5.17921 255 0 0
5.50435 4.70963 -4.46747 255 0 0
6.52552 4.32812 -4.52268 255 0 0
8.74508 4.37129 -5.23966 255 0 0
6.32286 4.31347 -4.74988 255 0 0
7.23219 4.37606 -5.03695 255 0 0
6.5887 4.57539 -4.22098 255 0 0
7.47771 4.70826 -3.97828 255 0 0
6.68999 4.29023 -4.78093 255 0 0
5.94336 4.86949 -4.40504 255 0 0
5.36122 5.39309 -4.59019 255 0 0
6.68084 4.32921 -4.41942 255 0 0
7.5509 4.52013 -4.35807 255 0 0
5.50489 5.61697 -4.60609 255 0 0
5.47204 4.40795 -4.5906 255 0 0
6.99677 4.32479 -4.57471 255 0 0
6.89196 5.92526 -4.43536 255 0 0
6.83743 4.71218 -4.15122 255 0 0
7.47661 4.40373 -4.55852 255 0 0
7.5324 4.58215 -4.12832 255 0 0
5.60369 4.58012 -5.22948 255 0 0
5.67979 4.98948 -4.4356 255 0 0
6.62361 4.29213 -4.68836 255 0 0
6.41448 5.75729 -4.46379 255 0 0
8.1622 4.3994 -4.65046 255 0 0
7.23498 4.33102 -4.63943 255 0 0
7.82227 4.40966 -4.56678 255 0 0
7.24653 5.54569 -4.04288 255 0 0
8.48361 4.41806 -4.73414 255 0 0
6.17429 4.27678 -4.62816 255 0 0
5.63664 4.52954 -5.22669 255 0 0
5.64737 4.46153 -4.45143 255 0 0
5.37264 5.69416 -4.88632 255 0 0
6.14091 4.28606 -4.69049 255 0 0
7.94197 4.75423 -3.9916 255 0 0
5.62309 4.70823 -4.4302 255 0 0
5.78491 4.44892 -4.41823 255 0 0
5.8677 4.27377 -4.88387 255 0 0
7.14254 4.32182 -4.76632 255 0 0
7.2273 5.6267 -4.05056 255 0 0
5.91203 4.28464 -4.62318 255 0 0
6.52682 5.99934 -4.45456 255 0 0
7.42584 4.32652 -4.69015 255 0 0
5.75683 5.44468 -4.48026 255 0 0
6.67189 4.27862 -4.69968 255 0 0
7.34936 4.4708 -4.45896 255 0 0
7.38741 5.43446 -4.6215 255 0 0
6.17747 4.32249 -4.49835 255 0 0
5.51759 4.90525 -4.51467 255 0 0
5.4713 4.31191 -4.56832 255 0 0
7.43516 5.46959 -4.47324 255 0 0
6.9293 5.73241 -4.17091 255 0 0
6.95295 4.81614 -4.04176 255 0 0
5.61767 5.41492 -4.5137 255 0 0
7.4973 5.3795 -3.98545 255 0 0
5.64042 5.33459 -4.50114 255 0 0
7.48944 4.42324 -4.48632 255 0 0
5.60057 4.23365 -4.99389 255 0 0
8.12947 4.91899 -3.96197 255 0 0
7.68904 4.55344 -4.39444 255 0 0
7.23996 4.31072 -4.79211 255 0 0
5.49985 5.06742 -4.47809 255 0 0
7.49446 4.95799 -4.6496 255 0 0
6.8594 4.53786 -4.13066 255 0 0
7.49528 5.62414 -4.01624 255 0 0
7.54018 5.24941 -3.97682 255 0 0
6.55217 4.61946 -4.2916 255 0 0
5.91407 4.93997 -4.41204 255 0 0
7.13177 4.3153 -5.15218 255 0 0
5.38637 5.65475 -4.66004 255 0 0
5.39839 5.03342 -4.51404 255 0 0
6.42724 5.86576 -4.40925 255 0 0
8.2559 4.37441 -5.096 255 0 0
7.12942 4.40679 -5.01121 255 0 0
7.27844 5.70819 -4.64403 255 0 0
7.45102 5.5222 -4.56784 255 0 0
6.46704 4.2783 -4.64116 255 0 0
8.50041 4.68627 -4.25795 255 0 0
5.68413 5.08958 -4.45804 255 0 0
7.62607 4.86505 -4.50456 255 0 0
8.12637 4.89083 -3.95842 255 0 0
8.43756 4.92942 -4.53154 255 0 0
7.03027 4.89441 -4.06786 255 0 0
5.85577 4.3831 -4.42376 255 0 0
7.29536 5.31361 -4.66119 255 0 0
6.33746 4.37869 -4.41117 255 0 0
6.80906 4.32116 -4.59809 255 0 0
5.79194 4.47621 -4.4256 255 0 0
8.06005 4.4435 -4.54831 255 0 0
7.01819 5.07365 -4.01451 255 0 0
8.39627 5.78649 -4.64167 255 0 0
7.56437 4.33546 -5.21445 255 0 0
5.49689 4.37449 -5.06502 255 0 0
7.24034 5.58188 -4.04672 255 0 0
7.19956 5.34907 -4.64463 255 0 0
8.83093 4.46667 -5.0977 255 0 0
8.35563 5.12376 -4.62631 255 0 0
7.42487 5.42144 -4.62793 255 0 0
6.63263 4.28682 -4.91163 255 0 0
8.19746 4.39336 -4.74234 255 0 0
7.11508 4.78011 -3.99394 255 0 0
5.96947 4.36961 -4.45138 255 0 0
7.27639 5.43298 -4.59575 255 0 0
5.37848 4.7135 -4.50245 255 0 0
6.45696 4.42742 -4.30847 255 0 0
5.67458 4.5711 -4.41455 255 0 0
6.76444 4.63826 -4.12479 255 0 0
8.25076 4.67703 -4.20621 255 0 0
6.86443 4.57638 -4.13727 255 0 0
8.31798 5.90881 -4.73391 255 0 0
7.33977 5.31937 -4.67279 255 0 0
7.56969 4.48276 -4.43582 255 0 0
7.57543 4.93445 -4.34212 255 0 0
6.96413 4.30462 -4.71291 255 0 0
6.41694 4.36653 -4.42953 255 0 0
7.20635 4.31388 -4.70582 255 0 0
7.5795 4.92434 -4.58368 255 0 0
6.4754 4.29487 -4.57478 255 0 0
7.24141 5.1829 -3.99363 255 0 0
6.61465 4.48958 -4.28516 255 0 0
5.43312 4.58215 -4.48698 255 0 0
7.16513 5.37641 -4.64132 255 0 0
5.62655 4.63226 -5.17975 255 0 0
6.21353 5.82105 -4.5105 255 0 0
6.65435 5.83164 -4.29219 255 0 0
6.88367 4.36851 -4.55197 255 0 0
6.10696 4.29475 -4.54299 255 0 0
7.32552 4.33816 -5.05872 255 0 0
7.35047 4.37651 -4.5999 255 0 0
8.88483 4.41485 -5.28754 255 0 0
6.26026 5.64573 -4.48566 255 0 0
6.1463 4.2574 -4.97034 255 0 0
5.75939 5.31918 -4.45402 255 0 0
8.75447 4.37598 -4.97448 255 0 0
7.79998 5.62474 -3.98565 255 0 0
7.82852 4.38876 -4.64629 255 0 0
6.78473 5.80515 -4.23421 255 0 0
5.76868 4.52416 -4.42928 255 0 0
6.21501 4.30499 -4.71623 255 0 0
7.46804 5.88554 -4.63268 255 0 0
7.51703 5.4207 -3.99407 255 0 0
7.57232 4.53295 -4.28632 255 0 0
8.39839 4.68209 -4.23672 255 0 0
5.84152 4.28657 -4.53533 255 0 0
6.16638 4.27131 -4.9081 255 0 0
7.00671 5.25754 -4.03772 255 0 0
7.48129 5.53091 -4.49295 255 0 0
5.48645 4.76995 -4.47628 255 0 0
7.54349 4.61344 -4.29072 255 0 0
6.00686 4.89776 -4.42603 255 0 0
5.84758 5.11236 -4.43128 255 0 0
8.41781 4.66679 -4.32342 255 0 0
5.61316 5.15952 -4.45625 255 0 0
8.03491 4.38009 -4.94822 255 0 0
8.14479 4.46507 -4.57175 255 0 0
7.22807 5.45048 -4.5877 255 0 0
7.775 4.33456 -4.78635 255 0 0
5.84235 4.99883 -4.40679 255 0 0
5.59999 4.79146 -4.44217 255 0 0
5.6847 4.81744 -4.40059 255 0 0
8.4491 4.92271 -4.36052 255 0 0
5.5984 5.48671 -4.52538 255 0 0
8.59857 4.47793 -4.68424 255 0 0
7.40666 4.82452 -3.97892 255 0 0
5.93126 4.26648 -4.5566 255 0 0
7.62805 4.84091 -4.50144 255 0 0
5.88892 4.33212 -4.49013 255 0 0
5.79028 4.27015 -5.21039 255 0 0
7.14329 4.73784 -3.99394 255 0 0
8.21418 4.3523 -5.2528 255 0 0
6.1064 4.31603 -4.68653 255 0 0
7.51256 5.47181 -4.57331 255 0 0
7.21794 4.32082 -5.18117 255 0 0
8.30839 5.78423 -4.80298 255 0 0
6.1237 4.73261 -4.42253 255 0 0
8.65482 4.58578 -4.53741 255 0 0
6.04965 4.34077 -4.39879 255 0 0
6.10263 4.40074 -4.42393 255 0 0
5.66239 5.18005 -4.47241 255 0 0
6.72882 4.56707 -4.39789 255 0 0
8.15906 5.76686 -4.94603 255 0 0
9.11532 4.5834 -4.64314 255 0 0
7.77488 4.66674 -4.03009 255 0 0
5.47999 5.2572 -5.31322 255 0 0
6.17878 4.25825 -4.98115 255 0 0
8.0547 4.36614 -5.12068 255 0 0
5.73636 4.28309 -4.50503 255 0 0
6.96245 4.62981 -4.09208 255 0 0
7.33157 5.33999 -4.75654 255 0 0
5.97783 4.82708 -4.40504 255 0 0
5.59187 4.92403 -5.25078 255 0 0
7.5039 4.32447 -4.79021 255 0 0
7.2635 5.50426 -4.52331 255 0 0
7.64004 4.39085 -4.59827 255 0 0
8.25784 4.75897 -4.05072 255 0 0
6.12092 4.28291 -5.25936 255 0 0
7.21567 5.2818 -4.00195 255 0 0
7.14743 4.32478 -4.61494 255 0 0
6.98553 5.51871 -4.07089 255 0 0
5.65601 4.61169 -4.41823 255 0 0
7.47207 5.32127 -3.97375 255 0 0
8.52307 4.56786 -4.50511 255 0 0
7.49876 4.32151 -5.02847 255 0 0
7.08099 5.03009 -4.02048 255 0 0
6.53712 4.35814 -4.45927 255 0 0
6.95508 5.78157 -4.18328 255 0 0
5.79708 5.27808 -4.45402 255 0 0
5.39168 4.43889 -5.18622 255 0 0
5.33566 5.4572 -4.59963 255 0 0
6.93728 5.86481 -4.1929 255 0 0
7.24307 4.96644 -3.96613 255 0 0
6.81283 4.57705 -4.12626 255 0 0
6.16302 4.57895 -4.40329 255 0 0
7.99216 4.35679 -5.18512 255 0 0
8.10417 4.67041 -4.09405 255 0 0
5.79667 5.3282 -4.46451 255 0 0
8.43939 4.67876 -4.24468 255 0 0
8.45456 5.70915 -4.55257 255 0 0
8.49096 4.49895 -4.57478 255 0 0
7.92813 4.3463 -4.83008 255 0 0
5.6169 4.66918 -5.18678 255 0 0
7.00544 5.23067 -4.03374 255 0 0
7.99239 4.35691 -4.84932 255 0 0
7.3959 5.88575 -4.61706 255 0 0
6.94572 5.8017 -4.18465 255 0 0
7.72945 4.38152 -4.61979 255 0 0
6.95248 5.61411 -4.15717 255 0 0
8.71162 4.5631 -4.54769 255 0 0
6.64995 4.33161 -4.5568 255 0 0
5.38505 4.5198 -5.06736 255 0 0
8.30654 4.68266 -4.21815 255 0 0
8.32603 4.46226 -4.61549 255 0 0
8.37812 5.87713 -4.65122 255 0 0
7.4679 5.52101 -4.32375 255 0 0
5.54715 4.36103 -4.53508 255 0 0
5.74389 4.5047 -4.48635 255 0 0
8.78156 4.44169 -4.813 255 0 0
7.32257 4.67143 -4.02048 255 0 0
7.14858 5.49765 -4.33624 255 0 0
8.88253 4.5325 -5.03066 255 0 0
8.44276 4.86554 -4.35228 255 0 0
5.63486 5.62815 -4.56577 255 0 0
5.52842 4.42103 -5.08843 255 0 0
8.26282 4.35301 -5.1811 255 0 0
8.32221 4.35913 -5.19997 255 0 0
6.44577 4.33046 -4.50173 255 0 0
8.39414 5.49613 -4.68844 255 0 0
8.25742 4.40032 -4.7589 255 0 0
7.67187 4.79251 -4.50456 255 0 0
7.26451 4.30203 -4.79763 255 0 0
5.40987 4.92554 -4.49202 255 0 0
8.4328 4.94003 -4.61873 255 0 0
5.79339 4.58806 -4.38084 255 0 0
5.42659 4.27667 -5.1522 255 0 0
5.68956 4.473 -5.22948 255 0 0
7.42961 4.71497 -4.51528 255 0 0
7.43494 5.38834 -4.79059 255 0 0
5.44761 4.55034 -4.61693 255 0 0
5.9471 4.26719 -5.12137 255 0 0
6.1954 4.35694 -4.44009 255 0 0
8.75993 4.50929 -4.63995 255 0 0
5.52014 5.22082 -4.51769 255 0 0
6.53324 4.54838 -4.2755 255 0 0
6.11713 4.28026 -4.54299 255 0 0
9.23352 4.56084 -4.85142 255 0 0
7.19571 5.5339 -4.43233 255 0 0
6.89702 5.21368 -4.0871 255 0 0
7.63675 4.34092 -4.74962 255 0 0
8.42842 4.77773 -4.596 255 0 0
7.11638 4.37544 -5.00131 255 0 0
7.58546 4.8772 -4.33624 255 0 0
5.64824 4.25917 -4.81037 255 0 0
7.00169 5.65384 -4.09344 255 0 0
7.18716 5.5681 -4.43612 255 0 0
5.5813 4.97375 -5.2617 255 0 0
5.73799 4.32685 -5.20681 255 0 0
6.52668 4.27339 -4.87619 255 0 0
7.43705 5.32292 -4.61425 255 0 0
7.70928 4.39427 -4.61648 255 0 0
6.98959 5.71284 -4.17916 255 0 0
7.90819 4.38426 -4.66616 255 0 0
8.29576 4.37037 -5.10705 255 0 0
8.48757 4.65299 -4.16696 255 0 0
5.35794 4.98385 -5.26527 255 0 0
5.62324 4.3034 -4.54399 255 0 0
7.49538 4.707 -4.13656 255 0 0
6.27247 4.38896 -4.3963 255 0 0
6.02788 4.26051 -4.93251 255 0 0
7.01629 4.93424 -4.07061 255 0 0
7.1886 5.50136 -4.34505 255 0 0
8.24637 4.34435 -4.91754 255 0 0
8.67737 4.37607 -5.22032 255 0 0
5.428 4.88349 -5.25811 255 0 0
7.70021 4.32883 -4.84587 255 0 0
5.63666 5.69713 -4.58193 255 0 0
7.59447 4.88299 -4.49987 255 0 0
8.76634 4.64486 -4.39487 255 0 0
6.52877 4.27477 -4.73065 255 0 0
8.63856 4.36937 -5.11879 255 0 0
6.77166 4.29742 -4.73178 255 0 0
7.60949 4.36132 -4.9063 255 0 0
5.75006 4.37888 -4.46181 255 0 0
5.96593 4.48765 -4.40508 255 0 0
5.35504 5.18632 -4.53921 255 0 0
8.45234 4.55579 -4.48749 255 0 0
6.59148 4.49672 -4.20926 255 0 0
8.63995 4.44753 -5.04172 255 0 0
8.4854 4.70426 -4.17208 255 0 0
8.2542 4.73084 -4.04703 255 0 0
6.93386 5.02517 -4.06717 255 0 0
8.21989 4.51892 -4.5134 255 0 0
7.21111 4.43369 -4.57266 255 0 0
5.9381 4.34663 -4.43849 255 0 0
7.50081 4.52648 -4.42566 255 0 0
7.854 5.35802 -3.96315 255 0 0
5.51239 5.12752 -4.49466 255 0 0
5.53684 4.9814 -4.46796 255 0 0
7.08824 4.86028 -3.99925 255 0 0
7.00333 5.281 -4.04038 255 0 0
7.23235 5.11185 -3.98276 255 0 0
6.33886 4.34645 -5.27755 255 0 0
6.90561 5.25887 -4.09534 255 0 0
8.7252 4.70285 -4.3057 255 0 0
5.49016 4.46563 -4.47635 255 0 0
5.56295 5.13775 -5.30385 255 0 0
8.88497 4.57365 -4.58881 255 0 0
5.83819 5.76255 -4.56771 255 0 0
8.3757 5.21841 -4.5565 255 0 0
9.01007 4.50375 -4.69905 255 0 0
7.74806 5.55943 -3.96907 255 0 0
6.27679 4.28204 -5.09197 255 0 0
5.75294 4.77074 -4.40777 255 0 0
5.98238 4.27106 -4.57207 255 0 0
7.2229 4.66832 -4.00058 255 0 0
8.43746 4.87579 -4.61115 255 0 0
5.39399 4.28215 -4.60438 255 0 0
8.06389 4.90547 -3.94894 255 0 0
8.10016 4.96709 -3.96197 255 0 0
8.08871 5.01299 -3.96493 255 0 0
8.04408 5.02502 -3.95842 255 0 0
8.08556 5.07763 -3.97144 255 0 0
8.02501 5.06617 -3.9596 255 0 0
8.02827 5.12164 -3.96631 255 0 0
7.98142 5.14516 -3.96078 255 0 0
7.97267 5.17977 -3.96315 255 0 0
7.94521 5.24265 -3.96552 255 0 0
7.91219 5.26136 -3.96197 255 0 0
7.89159 5.42491 -3.97736 255 0 0
7.88698 5.47697 -3.98269 255 0 0
7.85101 5.49348 -3.97855 255 0 0
7.85849 5.5824 -3.99039 255 0 0
7.80789 5.57436 -3.98091 255 0 0
7.72686 5.6279 -3.97381 255 0 0
5.9758 4.30929 -4.64693 255 0 0
5.69084 4.23861 -4.81901 255 0 0
8.382 4.44122 -4.62643 255 0 0
5.87013 4.27554 -4.54113 255 0 0
8.86248 4.45627 -4.83553 255 0 0
7.54321 5.04183 -3.95219 255 0 0
6.0396 4.38801 -4.40508 255 0 0
5.85894 4.59493 -4.39879 255 0 0
7.37985 5.81603 -4.68587 255 0 0
8.3913 4.86242 -4.51245 255 0 0
7.65434 4.65633 -4.00578 255 0 0
5.79132 5.39978 -4.47851 255 0 0
8.4608 4.79609 -4.0926 255 0 0
8.33502 4.75094 -4.06427 255 0 0
8.17719 4.73835 -4.03348 255 0 0
8.1511 4.74908 -4.02979 255 0 0
8.09396 4.76735 -4.02116 255 0 0
8.03265 4.76979 -4.01008 255 0 0
7.89646 4.778 -3.98586 255 0 0
7.80132 4.80933 -3.9719 255 0 0
7.755 4.81892 -3.96451 255 0 0
7.67559 4.79483 -3.94726 255 0 0
7.69328 4.83129 -3.95465 255 0 0
7.72053 4.87396 -3.96451 255 0 0
7.66933 4.87988 -3.95589 255 0 0
7.61339 4.8824 -3.94603 255 0 0
7.62 4.92499 -3.95219 255 0 0
7.57888 4.98805 -3.95219 255 0 0
7.55749 4.99969 -3.94973 255 0 0
7.4955 5.06152 -3.94603 255 0 0
7.54978 5.12429 -3.96328 255 0 0
7.49505 5.11314 -3.95219 255 0 0
7.52397 5.17221 -3.96451 255 0 0
7.49646 5.27192 -3.9719 255 0 0
7.49538 5.4457 -3.99345 255 0 0
7.51061 5.4977 -4.00269 255 0 0
7.50115 5.57317 -4.0107 255 0 0
7.56874 4.50647 -4.43894 255 0 0
7.50261 5.67148 -4.02363 255 0 0
7.51433 5.75063 -4.03594 255 0 0
7.43263 5.7442 -4.02116 255 0 0
7.37115 4.31811 -4.83079 255 0 0
7.67814 4.44917 -4.69695 255 0 0
6.44803 4.32089 -4.57202 255 0 0
5.84115 4.24384 -4.7991 255 0 0
6.13996 4.37256 -4.42842 255 0 0
8.52655 4.70068 -4.17975 255 0 0
5.49526 4.4374 -4.47151 255 0 0
5.52547 5.01883 -4.47348 255 0 0
8.15183 4.51934 -4.49749 255 0 0
5.47642 4.77643 -5.2426 255 0 0
8.26146 4.68309 -4.12603 255 0 0
8.25033 4.70266 -4.12603 255 0 0
8.04551 4.67479 -4.08317 255 0 0
7.98566 4.70356 -4.07486 255 0 0
7.93024 4.69628 -4.06335 255 0 0
7.89453 4.70045 -4.05695 255 0 0
7.72891 4.67662 -4.02241 255 0 0
7.57101 4.70458 -3.99555 255 0 0
7.49683 4.68317 -3.97892 255 0 0
7.35902 4.71928 -3.95717 255 0 0
7.34406 4.82105 -3.96677 255 0 0
7.29114 4.82348 -3.95717 255 0 0
7.31569 4.88976 -3.96997 255 0 0
7.27088 4.88478 -3.96101 255 0 0
7.24507 4.89242 -3.95717 255 0 0
7.30203 4.98146 -3.97892 255 0 0
7.28773 5.02251 -3.98148 255 0 0
7.26383 5.05702 -3.98148 255 0 0
7.2331 5.06112 -3.97636 255 0 0
7.18801 5.08049 -3.97061 255 0 0
7.18975 5.21064 -3.98787 255 0 0
7.20508 5.24786 -3.99555 255 0 0
7.21752 5.3227 -4.0077 255 0 0
7.2192 5.36366 -4.01346 255 0 0
7.18357 5.36367 -4.00706 255 0 0
7.18355 5.43027 -4.01602 255 0 0
7.19602 5.48003 -4.02497 255 0 0
7.25666 5.71895 -4.06846 255 0 0
7.23773 5.81615 -4.0787 255 0 0
7.12382 4.31049 -4.68248 255 0 0
7.45978 4.63547 -4.04303 255 0 0
7.12243 5.53149 -4.33624 255 0 0
7.26349 5.45022 -4.59575 255 0 0
5.822 5.27558 -4.45927 255 0 0
7.62174 4.32046 -4.82253 255 0 0
7.17682 4.31935 -4.62193 255 0 0
5.38498 5.3278 -5.30502 255 0 0
7.00182 5.35841 -4.05099 255 0 0
6.18344 4.27226 -4.55998 255 0 0
7.81835 4.33446 -4.87999 255 0 0
6.85682 4.3287 -4.76198 255 0 0
7.00203 4.32805 -4.65196 255 0 0
5.42144 5.73225 -4.68741 255 0 0
6.49308 5.81396 -4.41316 255 0 0
6.97358 5.13003 -4.08985 255 0 0
6.35486 4.4466 -4.28694 255 0 0
8.65386 4.69091 -4.28978 255 0 0
8.60265 4.68958 -4.27917 255 0 0
8.33752 4.6741 -4.22345 255 0 0
8.26442 4.7107 -4.21284 255 0 0
8.15427 4.67356 -4.18631 255 0 0
7.7442 4.67334 -4.10405 255 0 0
7.57649 4.60897 -4.06293 255 0 0
7.63852 4.67155 -4.08283 255 0 0
7.57398 4.65679 -4.06824 255 0 0
7.53381 4.65675 -4.06028 255 0 0
7.41491 4.63199 -4.03374 255 0 0
7.39907 4.64653 -4.03242 255 0 0
7.32535 4.62448 -4.01517 255 0 0
7.21065 4.62413 -3.99262 255 0 0
7.19669 4.68775 -3.99792 255 0 0
7.07898 4.73154 -3.98068 255 0 0
7.099 4.79378 -3.99262 255 0 0
7.09133 4.8254 -3.99527 255 0 0
7.03696 4.87434 -3.99129 255 0 0
7.11668 4.92956 -4.01384 255 0 0
9.2739 4.52621 -4.94979 255 0 0
7.05584 4.93709 -4.00323 255 0 0
7.08144 4.98005 -4.01384 255 0 0
7.05048 5.03361 -4.01517 255 0 0
7.07096 5.07359 -4.02446 255 0 0
7.02252 5.14042 -4.02446 255 0 0
6.99036 5.19364 -4.02578 255 0 0
6.99585 5.3145 -4.04369 255 0 0
7.02074 5.39934 -4.06028 255 0 0
7.01694 5.42294 -4.06293 255 0 0
6.97735 5.43211 -4.05696 255 0 0
6.99614 5.48679 -4.06824 255 0 0
6.9971 5.56838 -4.08018 255 0 0
7.04624 5.63482 -4.09875 255 0 0
7.03716 5.68249 -4.10405 255 0 0
7.0632 5.75906 -4.11997 255 0 0
7.02747 5.75771 -4.11334 255 0 0
7.07103 5.82148 -4.13059 255 0 0
5.53963 4.93662 -4.45875 255 0 0
7.15236 5.39338 -4.64132 255 0 0
5.49375 5.71299 -4.62635 255 0 0
5.78369 4.71577 -4.40418 255 0 0
6.60421 4.33536 -4.54513 255 0 0
5.43932 4.32867 -4.56291 255 0 0
8.61733 4.42297 -4.76874 255 0 0
5.5604 4.59997 -4.45803 255 0 0
5.66587 5.69956 -4.58912 255 0 0
5.72034 4.61915 -5.20785 255 0 0
5.49188 5.21883 -5.30541 255 0 0
8.77232 5.0002 -4.43747 255 0 0
9.3761 4.85463 -4.54876 255 0 0
9.03138 4.70333 -4.45808 255 0 0
8.94457 4.68511 -4.43747 255 0 0
8.70507 4.63887 -4.38113 255 0 0
8.5978 4.63419 -4.35777 255 0 0
8.54675 4.63286 -4.34678 255 0 0
8.48077 4.62314 -4.33167 255 0 0
8.48975 4.65418 -4.33716 255 0 0
8.38897 4.62484 -4.31243 255 0 0
8.34706 4.65348 -4.30694 255 0 0
8.74139 4.9278 -4.42235 255 0 0
8.75939 4.96535 -4.4306 255 0 0
8.46908 4.85399 -4.3564 255 0 0
8.46567 4.90552 -4.3619 255 0 0
8.47178 4.96287 -4.37014 255 0 0
8.47507 5.01892 -4.3777 255 0 0
8.44815 5.00298 -4.37014 255 0 0
7.68201 4.59862 -4.16129 255 0 0
7.66134 4.61095 -4.15855 255 0 0
7.59681 4.59669 -4.14343 255 0 0
7.71575 4.71878 -4.18328 255 0 0
7.54938 4.64167 -4.13931 255 0 0
7.54804 4.66554 -4.14206 255 0 0
7.62397 4.7375 -4.16679 255 0 0
7.34722 4.5897 -4.09122 255 0 0
7.32056 4.62145 -4.08985 255 0 0
7.28246 4.6337 -4.08366 255 0 0
7.18688 4.60888 -4.06099 255 0 0
7.12514 4.6171 -4.04954 255 0 0
7.0619 4.62383 -4.03763 255 0 0
7.01927 4.63168 -4.03008 255 0 0
6.98695 4.67002 -4.0287 255 0 0
7.03666 4.70325 -4.04313 255 0 0
6.96352 4.75053 -4.03489 255 0 0
7.01796 4.81209 -4.05412 255 0 0
6.99716 4.82226 -4.05137 255 0 0
6.986 4.88822 -4.05824 255 0 0
6.94415 4.90815 -4.05275 255 0 0
6.97425 4.95427 -4.06511 255 0 0
6.94964 4.97407 -4.06305 255 0 0
6.92935 5.12287 -4.08023 255 0 0
6.89132 5.14546 -4.07611 255 0 0
6.92463 5.19595 -4.08985 255 0 0
6.86148 5.25101 -4.08572 255 0 0
6.8991 5.31883 -4.1029 255 0 0
6.9723 5.41489 -4.13107 255 0 0
6.91126 5.44674 -4.1242 255 0 0
6.89851 5.4766 -4.12626 255 0 0
6.91253 5.55482 -4.14068 255 0 0
6.9912 5.75576 -4.18603 255 0 0
6.88835 5.78155 -4.17091 255 0 0
8.75103 4.46541 -4.72018 255 0 0
6.09162 4.33813 -4.47809 255 0 0
5.92607 4.26273 -4.90008 255 0 0
8.89272 4.49792 -4.67026 255 0 0
6.56882 5.86777 -4.36009 255 0 0
7.41425 5.8717 -4.61862 255 0 0
8.75601 4.55992 -4.47014 255 0 0
8.24166 4.56913 -4.35786 255 0 0
8.47297 4.90974 -4.45024 255 0 0
8.37296 4.87835 -4.42466 255 0 0
8.50422 5.03619 -4.47298 255 0 0
7.57645 4.58437 -4.21573 255 0 0
8.39483 5.2165 -4.47298 255 0 0
6.9762 4.56772 -4.0864 255 0 0
6.88534 4.60212 -4.07219 255 0 0
6.74853 5.82983 -4.23137 255 0 0
7.41333 4.31924 -5.08248 255 0 0
6.10384 5.80036 -4.55904 255 0 0
7.04875 4.38006 -4.98151 255 0 0
8.44211 4.82526 -4.51906 255 0 0
6.23581 4.34129 -4.44787 255 0 0
8.94856 4.473 -4.85967 255 0 0
7.48105 4.82261 -4.54425 255 0 0
9.23339 4.58805 -4.67104 255 0 0
9.16672 4.58205 -4.65489 255 0 0
9.00326 4.55383 -4.61377 255 0 0
8.83383 4.57386 -4.57706 255 0 0
8.78274 4.57385 -4.56531 255 0 0
8.59891 4.5823 -4.5242 255 0 0
8.46145 4.58662 -4.49336 255 0 0
8.34517 4.57492 -4.46546 255 0 0
8.39716 4.72064 -4.49556 255 0 0
8.46662 4.79939 -4.52126 255 0 0
8.45191 4.87081 -4.52714 255 0 0
8.44441 4.97376 -4.53888 255 0 0
8.36919 4.95622 -4.51979 255 0 0
7.67071 4.56718 -4.31275 255 0 0
7.53241 4.53336 -4.27751 255 0 0
7.51866 4.56158 -4.27824 255 0 0
7.65325 4.70553 -4.32743 255 0 0
8.41833 5.20348 -4.56385 255 0 0
7.64006 4.82316 -4.34065 255 0 0
7.59655 4.83356 -4.33257 255 0 0
7.56371 4.9524 -4.34212 255 0 0
6.78243 4.59171 -4.12185 255 0 0
6.85034 4.67331 -4.14829 255 0 0
8.39193 5.82764 -4.64681 255 0 0
7.47886 5.50173 -4.40526 255 0 0
7.43844 5.49923 -4.39645 255 0 0
7.33961 5.48018 -4.37295 255 0 0
7.27281 5.48421 -4.35974 255 0 0
7.25979 5.50144 -4.35974 255 0 0
7.20614 5.48773 -4.34652 255 0 0
7.09068 5.47993 -4.32156 255 0 0
7.08249 5.52744 -4.32743 255 0 0
7.14518 5.60368 -4.35239 255 0 0
7.22073 5.71844 -4.38617 255 0 0
6.91021 5.85599 -4.34652 255 0 0
6.8661 5.84663 -4.33624 255 0 0
6.75663 5.80891 -4.30834 255 0 0
6.64901 5.85489 -4.29513 255 0 0
6.60964 5.8481 -4.28632 255 0 0
5.78731 4.33181 -4.46228 255 0 0
8.94379 4.49715 -4.68238 255 0 0
5.70571 4.23918 -4.75571 255 0 0
7.48713 4.32665 -4.70677 255 0 0
5.68202 4.41282 -4.45048 255 0 0
7.4793 5.44759 -4.47931 255 0 0
9.22972 4.53178 -4.75512 255 0 0
9.13722 4.54026 -4.73391 255 0 0
8.76053 4.48335 -4.63692 255 0 0
8.69899 4.50404 -4.62479 255 0 0
8.63311 4.49592 -4.60812 255 0 0
8.58452 4.50948 -4.59827 255 0 0
8.45956 4.53383 -4.57175 255 0 0
8.35917 4.50557 -4.54447 255 0 0
8.3236 4.5119 -4.53689 255 0 0
8.26322 4.50455 -4.52174 255 0 0
8.11639 4.52488 -4.48991 255 0 0
8.14511 4.56624 -4.50204 255 0 0
8.25743 4.65497 -4.53993 255 0 0
8.43181 4.80611 -4.60054 255 0 0
8.39095 4.80921 -4.59145 255 0 0
8.46404 4.93141 -4.62479 255 0 0
7.8119 4.60122 -4.4293 255 0 0
7.57131 4.508 -4.3611 255 0 0
7.83431 4.58943 -4.51394 255 0 0
7.46747 4.49428 -4.33534 255 0 0
7.4654 4.54139 -4.3414 255 0 0
8.36623 5.17128 -4.6354 255 0 0
7.63802 4.78395 -4.4149 255 0 0
7.64726 4.8277 -4.42323 255 0 0
7.64335 4.87608 -4.4293 255 0 0
6.88818 4.53346 -4.20955 255 0 0
6.92458 4.58098 -4.22471 255 0 0
6.82422 4.53789 -4.19591 255 0 0
6.77112 4.52577 -4.18227 255 0 0
6.7369 4.52604 -4.1747 255 0 0
6.73563 4.57169 -4.18126 255 0 0
6.75262 4.65373 -4.19743 255 0 0
8.34585 5.82501 -4.72709 255 0 0
7.47093 5.46865 -4.48082 255 0 0
7.44092 5.52839 -4.48385 255 0 0
7.43685 5.55279 -4.48688 255 0 0
7.32867 5.49912 -4.45506 255 0 0
7.25787 5.52713 -4.44445 255 0 0
7.22229 5.52713 -4.43687 255 0 0
7.45044 5.8146 -4.53235 255 0 0
7.49003 5.87413 -4.55053 255 0 0
7.48425 5.92711 -4.55811 255 0 0
6.70241 5.78999 -4.37322 255 0 0
6.63741 5.76138 -4.35504 255 0 0
6.60668 5.76223 -4.34898 255 0 0
6.62226 5.81741 -4.36186 255 0 0
8.39054 5.52224 -4.69147 255 0 0
6.68201 4.28512 -5.07742 255 0 0
8.48014 4.36527 -5.16046 255 0 0
5.97384 4.41645 -4.39341 255 0 0
5.55176 4.3328 -4.53013 255 0 0
7.30098 5.67016 -4.64242 255 0 0
5.5579 4.88242 -4.45138 255 0 0
5.46108 4.24124 -5.15463 255 0 0
8.12001 4.78269 -4.60924 255 0 0
8.9897 4.49356 -4.78267 255 0 0
8.87288 4.47469 -4.75142 255 0 0
8.64981 4.4526 -4.69362 255 0 0
8.58912 4.44715 -4.67799 255 0 0
8.48295 4.44332 -4.65143 255 0 0
8.28066 4.46325 -4.60456 255 0 0
8.21052 4.4506 -4.58581 255 0 0
8.06924 4.47355 -4.55456 255 0 0
7.9905 4.47954 -4.53633 255 0 0
7.97245 4.51926 -4.53737 255 0 0
7.83629 4.47897 -4.49909 255 0 0
7.81298 4.5026 -4.49675 255 0 0
7.71928 4.47301 -4.47019 255 0 0
7.73791 4.50835 -4.47956 255 0 0
7.43406 4.52233 -4.40925 255 0 0
7.4859 4.57821 -4.42957 255 0 0
8.28971 5.12398 -4.6983 255 0 0
7.5888 4.76567 -4.48113 255 0 0
7.49159 4.72943 -4.453 255 0 0
7.66231 4.9652 -4.528 255 0 0
8.07607 5.26055 -4.66862 255 0 0
8.29962 5.43424 -4.74674 255 0 0
8.32443 5.47873 -4.75924 255 0 0
8.31612 5.50156 -4.7608 255 0 0
6.7524 4.49013 -4.2452 255 0 0
6.7605 4.51867 -4.25145 255 0 0
6.6531 4.48122 -4.22098 255 0 0
6.65348 4.51594 -4.22645 255 0 0
8.25776 5.86603 -4.80455 255 0 0
8.26679 5.90199 -4.81236 255 0 0
7.4859 5.47961 -4.56862 255 0 0
7.44264 5.55711 -4.57175 255 0 0
7.3798 5.53749 -4.55456 255 0 0
7.2235 5.50095 -4.51394 255 0 0
7.17458 5.49063 -4.50144 255 0 0
7.17287 5.5299 -4.50769 255 0 0
7.18883 5.58306 -4.52019 255 0 0
7.35384 5.9382 -4.61706 255 0 0
7.27749 5.93378 -4.59987 255 0 0
7.34634 6.01897 -4.62956 255 0 0
6.5517 5.7692 -4.41707 255 0 0
6.57181 5.81463 -4.42957 255 0 0
6.54114 5.8152 -4.42332 255 0 0
6.44449 5.82578 -4.40535 255 0 0
5.83559 4.2716 -4.87306 255 0 0
5.62059 5.29064 -4.48677 255 0 0
5.61304 4.25354 -4.93432 255 0 0
5.94022 4.3158 -4.70706 255 0 0
5.59017 4.76015 -4.43297 255 0 0
5.81751 4.45208 -4.42744 255 0 0
7.63912 4.35428 -4.91367 255 0 0
9.15197 4.4936 -4.91438 255 0 0
9.06557 4.47788 -4.89024 255 0 0
8.9793 4.46179 -4.8661 255 0 0
8.69573 4.42421 -4.78886 255 0 0
8.51406 4.40829 -4.74058 255 0 0
8.40279 4.42676 -4.71483 255 0 0
8.30273 4.39922 -4.68587 255 0 0
8.28731 4.41625 -4.68426 255 0 0
8.08134 4.43028 -4.63437 255 0 0
8.03137 4.42769 -4.6215 255 0 0
7.92729 4.39485 -4.59092 255 0 0
7.89195 4.41203 -4.58448 255 0 0
7.77155 4.44197 -4.55873 255 0 0
7.68176 4.45127 -4.53781 255 0 0
7.63227 4.4468 -4.52494 255 0 0
7.56342 4.43074 -4.50563 255 0 0
7.48334 4.45562 -4.48954 255 0 0
7.37047 4.4359 -4.45896 255 0 0
7.46361 4.56458 -4.5008 255 0 0
7.60623 4.67662 -4.5523 255 0 0
7.64301 4.72425 -4.56839 255 0 0
7.48682 4.67688 -4.52333 255 0 0
7.52503 4.70078 -4.5362 255 0 0
7.37412 4.65527 -4.49275 255 0 0
7.42612 4.76231 -4.52172 255 0 0
7.57844 4.96205 -4.58931 255 0 0
6.85851 4.56069 -4.35436 255 0 0
8.05995 5.38721 -4.77116 255 0 0
8.27146 5.55701 -4.8484 255 0 0
6.65327 4.49279 -4.29481 255 0 0
6.5086 4.55418 -4.27068 255 0 0
7.43681 5.37628 -4.6231 255 0 0
7.29755 5.39507 -4.59414 255 0 0
7.24858 5.3855 -4.58126 255 0 0
7.23308 5.4812 -4.59414 255 0 0
7.22523 5.57026 -4.60782 255 0 0
7.26089 5.66667 -4.63276 255 0 0
6.40917 5.78002 -4.46701 255 0 0
6.44134 5.83679 -4.48471 255 0 0
6.31925 5.7535 -4.44287 255 0 0
6.34023 5.82785 -4.46164 255 0 0
7.26532 4.39611 -4.50387 255 0 0
7.08004 4.30697 -4.74607 255 0 0
5.7982 5.45782 -4.4925 255 0 0
5.71234 5.06629 -4.45984 255 0 0
5.40026 5.72344 -4.82709 255 0 0
6.37213 4.28098 -4.68617 255 0 0
5.94389 4.37256 -4.37725 255 0 0
9.23641 4.50791 -5.03048 255 0 0
9.04876 4.46958 -4.97583 255 0 0
8.82149 4.40948 -4.90794 255 0 0
8.69753 4.41214 -4.87565 255 0 0
8.58429 4.39316 -4.84335 255 0 0
8.54888 4.40065 -4.83507 255 0 0
8.48357 4.3925 -4.81686 255 0 0
8.43328 4.39185 -4.80361 255 0 0
8.37806 4.38838 -4.78871 255 0 0
8.34776 4.39776 -4.78208 255 0 0
8.15736 4.39679 -4.7324 255 0 0
8.0926 4.38668 -4.71419 255 0 0
8.03753 4.39386 -4.70094 255 0 0
7.89287 4.40026 -4.66451 255 0 0
7.80342 4.39903 -4.64132 255 0 0
7.42266 4.39569 -4.54362 255 0 0
7.34873 4.39911 -4.5254 255 0 0
6.61188 4.30682 -4.32668 255 0 0
7.45928 4.90933 -4.63304 255 0 0
6.6783 4.44086 -4.36477 255 0 0
7.4906 5.01952 -4.65871 255 0 0
7.47969 5.05085 -4.66119 255 0 0
6.42137 4.45921 -4.30515 255 0 0
6.39791 4.52207 -4.31012 255 0 0
7.38656 5.27356 -4.6761 255 0 0
7.21127 5.30489 -4.63967 255 0 0
7.15745 5.42389 -4.64795 255 0 0
7.17625 5.49191 -4.66451 255 0 0
7.16346 5.53618 -4.66947 255 0 0
7.16369 5.59082 -4.67941 255 0 0
7.14818 5.61972 -4.68107 255 0 0
7.30371 5.81238 -4.75227 255 0 0
6.28269 5.73384 -4.50801 255 0 0
6.22048 5.77242 -4.50222 255 0 0
6.14834 5.8288 -4.49808 255 0 0
5.75058 4.46607 -4.41271 255 0 0
6.17145 4.40604 -4.37356 255 0 0
6.52778 4.29626 -4.58952 255 0 0
8.8692 4.45964 -5.01704 255 0 0
8.8486 4.4756 -5.01364 255 0 0
8.86591 4.57715 -5.03237 255 0 0
7.47878 4.35737 -4.63055 255 0 0
7.56994 4.43456 -4.6663 255 0 0
7.39457 4.37906 -4.61182 255 0 0
7.44583 4.45724 -4.63736 255 0 0
7.3636 4.97246 -4.70036 255 0 0
6.43087 4.49979 -4.38537 255 0 0
7.30683 5.26912 -4.73781 255 0 0
5.99541 5.75167 -4.52499 255 0 0
5.47873 4.32829 -5.04629 255 0 0
8.02726 4.35126 -4.85807 255 0 0
7.17172 4.31628 -5.00725 255 0 0
6.99325 4.29974 -4.72028 255 0 0
6.92778 4.30488 -5.16208 255 0 0
5.94383 4.26485 -4.83614 255 0 0
5.47417 5.50672 -4.57294 255 0 0
8.1517 4.34398 -4.8913 255 0 0
8.1015 4.36668 -4.8808 255 0 0
7.88355 4.3462 -4.81784 255 0 0
7.85368 4.35404 -4.81084 255 0 0
7.33783 4.32199 -4.66566 255 0 0
7.29118 4.32949 -4.65429 255 0 0
7.04032 4.32868 -4.58695 255 0 0
6.79792 4.33673 -4.52398 255 0 0
6.82054 4.37396 -4.53623 255 0 0
6.59486 4.31804 -4.46743 255 0 0
6.58986 4.35955 -4.47326 255 0 0
6.47697 4.36257 -4.4444 255 0 0
6.40599 4.39247 -4.43128 255 0 0
6.35165 4.42196 -4.42253 255 0 0
6.16945 4.3606 -4.36481 255 0 0
6.10223 4.4225 -4.35898 255 0 0
6.0977 4.47456 -4.36744 255 0 0
6.11545 4.52114 -4.38056 255 0 0
6.03573 4.50663 -4.35782 255 0 0
6.10548 4.5813 -4.3893 255 0 0
6.12034 4.62657 -4.40154 255 0 0
6.13498 4.672 -4.41379 255 0 0
6.02744 4.62406 -4.37793 255 0 0
6.02171 4.72259 -4.39542 255 0 0
5.96139 4.76728 -4.3893 255 0 0
5.89798 4.86748 -4.39367 255 0 0
5.89122 4.98446 -4.41554 255 0 0
5.92475 4.99677 -4.42603 255 0 0
5.84781 5.03963 -4.41641 255 0 0
5.86995 5.0952 -4.43303 255 0 0
5.89646 5.19222 -4.45927 255 0 0
5.85484 5.18027 -4.44702 255 0 0
5.82584 5.17928 -4.44003 255 0 0
5.82869 5.40884 -4.489 255 0 0
5.7439 5.45831 -4.48026 255 0 0
5.73603 5.55531 -4.4995 255 0 0
5.77891 5.62345 -4.52398 255 0 0
5.78681 5.67134 -4.53623 255 0 0
5.78087 5.73309 -4.54847 255 0 0
5.78705 5.7665 -4.55722 255 0 0
7.02239 4.29474 -4.72765 255 0 0
7.05917 4.29427 -5.04633 255 0 0
8.26076 5.49314 -4.74674 255 0 0
5.40572 4.429 -4.64269 255 0 0
9.17622 4.45163 -5.28577 255 0 0
7.76911 4.33127 -4.86562 255 0 0
7.43305 4.31894 -4.76956 255 0 0
7.3912 4.32985 -4.75969 255 0 0
7.29592 4.33231 -4.73365 255 0 0
7.21042 4.33957 -4.71121 255 0 0
6.93456 4.32048 -4.63221 255 0 0
6.85503 4.31622 -4.60976 255 0 0
6.69383 4.31513 -4.56577 255 0 0
6.62746 4.29462 -4.54423 255 0 0
6.42364 4.35994 -4.50114 255 0 0
6.36725 4.34375 -4.48318 255 0 0
6.33854 4.34623 -4.476 255 0 0
6.31445 4.35175 -4.47061 255 0 0
6.14409 4.34267 -4.42393 255 0 0
6.03519 4.4177 -4.40957 255 0 0
5.94022 4.42435 -4.38622 255 0 0
5.93439 4.49706 -4.39879 255 0 0
5.88381 4.48073 -4.38263 255 0 0
5.87889 4.5101 -4.38712 255 0 0
5.85425 4.54659 -4.38802 255 0 0
5.78461 4.62591 -4.38622 255 0 0
5.82816 4.66073 -4.40418 255 0 0
5.74405 4.729 -4.397 255 0 0
5.80865 4.85191 -4.43829 255 0 0
5.70322 4.78685 -4.39879 255 0 0
5.72167 4.82551 -4.41136 255 0 0
5.73267 4.88149 -4.42573 255 0 0
5.67978 4.93016 -4.42303 255 0 0
5.71558 4.96121 -4.43829 255 0 0
5.62932 5.12534 -4.45266 255 0 0
5.58863 5.16147 -4.45086 255 0 0
5.5967 5.21832 -4.46523 255 0 0
5.63387 5.37922 -4.50952 255 0 0
5.5836 5.53745 -4.53346 255 0 0
5.68179 5.77004 -4.60887 255 0 0
7.2564 4.3205 -5.1936 255 0 0
5.54619 4.67751 -4.47125 255 0 0
7.4554 4.33192 -5.179 255 0 0
5.57105 4.85897 -4.44954 255 0 0
8.88531 4.38884 -5.28386 255 0 0
8.61417 4.40845 -5.20651 255 0 0
7.18203 4.29932 -4.77369 255 0 0
7.17182 4.31634 -4.77369 255 0 0
6.92085 4.30058 -4.70002 255 0 0
6.87293 4.29342 -4.68529 255 0 0
6.83839 4.31706 -4.67976 255 0 0
6.72797 4.31459 -4.64845 255 0 0
6.68502 4.30945 -4.63556 255 0 0
6.62725 4.31683 -4.62083 255 0 0
6.5426 4.28382 -4.59136 255 0 0
6.37455 4.31557 -4.55084 255 0 0
6.33161 4.31944 -4.53979 255 0 0
6.28186 4.3183 -4.52597 255 0 0
6.23676 4.32006 -4.514 255 0 0
6.15245 4.30497 -4.48822 255 0 0
6.14104 4.34051 -4.4919 255 0 0
6.03776 4.33224 -4.46243 255 0 0
6.06354 4.37255 -4.47717 255 0 0
5.83116 4.41884 -4.42437 255 0 0
5.71668 4.52731 -4.41639 255 0 0
5.69288 4.53047 -4.41086 255 0 0
5.68184 4.63275 -4.42928 255 0 0
5.6466 4.67127 -4.42836 255 0 0
5.60282 4.73665 -4.43112 255 0 0
5.58199 4.83365 -4.44678 255 0 0
5.56965 4.92793 -4.46428 255 0 0
5.53266 5.18319 -4.51216 255 0 0
5.50417 5.18105 -4.50479 255 0 0
5.48544 5.22507 -4.51032 255 0 0
5.4881 5.30258 -4.52874 255 0 0
5.47009 5.36094 -4.53795 255 0 0
5.47818 5.42006 -4.5536 255 0 0
5.47266 5.45323 -4.56005 255 0 0
5.45579 5.46226 -4.55821 255 0 0
5.49628 5.55524 -4.58952 255 0 0
5.49479 5.58014 -4.59504 255 0 0
5.52751 5.68033 -4.62635 255 0 0
5.53045 5.72393 -4.6374 255 0 0
5.57627 5.82639 -4.67239 255 0 0
5.3817 4.47366 -4.51429 255 0 0
5.57429 5.02712 -5.27497 255 0 0
8.7554 4.37645 -5.33401 255 0 0
8.61042 4.3808 -5.29059 255 0 0
8.57534 4.38858 -5.28115 255 0 0
8.52056 4.38607 -5.26416 255 0 0
8.47569 4.38842 -5.25095 255 0 0
8.41118 4.38034 -5.23018 255 0 0
5.53209 4.3386 -5.06736 255 0 0
8.17849 4.35826 -5.15655 255 0 0
6.92509 4.30322 -4.77709 255 0 0
6.86786 4.29026 -4.75821 255 0 0
6.88584 4.32422 -4.76954 255 0 0
6.73341 4.29558 -4.72045 255 0 0
6.56233 4.27454 -4.66759 255 0 0
6.53551 4.29023 -4.66287 255 0 0
6.44765 4.28748 -4.63738 255 0 0
6.32465 4.28179 -4.60151 255 0 0
6.24528 4.26054 -4.57508 255 0 0
6.29001 4.31295 -4.59774 255 0 0
6.06055 4.28362 -4.52789 255 0 0
6.0549 4.30119 -4.52977 255 0 0
5.98323 4.28235 -4.50617 255 0 0
5.93424 4.27931 -4.49202 255 0 0
5.94588 4.31994 -4.50334 255 0 0
5.90812 4.32469 -4.4939 255 0 0
5.84743 4.323 -4.47691 255 0 0
5.67212 4.36217 -4.43727 255 0 0
5.71001 4.41289 -4.45803 255 0 0
5.7633 4.49789 -4.49013 255 0 0
5.61455 4.53373 -4.45803 255 0 0
5.57365 4.52258 -4.44482 255 0 0
5.59186 4.57043 -4.45992 255 0 0
5.44691 4.75069 -4.46181 255 0 0
5.55846 4.5762 -4.45237 255 0 0
5.49994 4.67208 -4.45803 255 0 0
5.45534 4.69015 -4.45048 255 0 0
5.45344 4.80211 -4.47502 255 0 0
5.47109 4.84074 -4.48824 255 0 0
5.45715 4.89804 -4.49768 255 0 0
5.425 4.97471 -4.50712 255 0 0
5.44799 5.03158 -4.526 255 0 0
5.4081 5.11486 -4.53544 255 0 0
5.39127 5.19669 -4.55054 255 0 0
5.35068 5.20674 -4.54299 255 0 0
5.3544 5.36076 -4.58075 255 0 0
5.41336 5.49744 -4.62794 255 0 0
5.35482 5.51592 -4.6185 255 0 0
5.37854 5.59319 -4.64305 255 0 0
5.38826 5.62995 -4.65437 255 0 0
5.45604 5.81009 -4.71479 255 0 0
8.43177 4.36568 -5.32242 255 0 0
8.35767 4.35248 -5.29728 255 0 0
8.26359 4.35342 -5.26827 255 0 0
8.19896 4.36916 -5.25087 255 0 0
8.12525 4.35465 -5.22573 255 0 0
7.62513 4.33434 -5.06908 255 0 0
6.31109 4.27263 -4.66683 255 0 0
6.23096 4.27244 -4.64363 255 0 0
6.07644 4.26252 -4.59721 255 0 0
6.02007 4.26573 -4.58174 255 0 0
5.87577 4.25837 -4.5392 255 0 0
5.79957 4.28762 -4.52373 255 0 0
5.69245 4.29251 -4.49472 255 0 0
5.64273 4.33957 -4.49085 255 0 0
5.55263 4.41885 -4.48311 255 0 0
5.57352 4.46796 -4.49955 255 0 0
5.51058 4.51491 -4.49278 255 0 0
5.43358 4.53862 -4.47731 255 0 0
5.46091 4.58347 -4.49472 255 0 0
5.39994 4.58713 -4.47925 255 0 0
5.38205 5.77235 -4.76159 255 0 0
8.19362 4.3913 -5.33985 255 0 0
8.05643 4.36708 -5.29233 255 0 0
7.69411 4.36149 -5.17751 255 0 0
7.63588 4.35243 -5.15771 255 0 0
7.46646 4.32651 -5.1003 255 0 0
7.40306 4.3368 -5.08248 255 0 0
7.34835 4.37525 -5.07258 255 0 0
7.25286 4.34172 -5.03695 255 0 0
6.12563 4.30788 -4.69049 255 0 0
6.09793 4.37542 -4.69643 255 0 0
5.83606 4.2719 -4.59843 255 0 0
5.81658 4.32156 -4.60338 255 0 0
5.69838 4.2864 -4.5618 255 0 0
5.6348 4.27003 -4.54003 255 0 0
5.63342 4.29005 -4.54399 255 0 0
5.6698 4.36039 -4.56972 255 0 0
5.59841 4.32665 -4.54201 255 0 0
5.60989 4.35681 -4.55191 255 0 0
5.46464 4.32771 -4.50439 255 0 0
5.47936 4.37117 -4.51825 255 0 0
5.4552 4.38373 -4.51429 255 0 0
5.43525 4.43171 -4.51957 255 0 0
5.40285 4.44809 -4.51429 255 0 0
5.42625 4.48899 -4.53013 255 0 0
5.38477 4.50868 -4.5232 255 0 0
5.34141 5.68802 -4.80333 255 0 0
5.35566 5.75767 -4.82511 255 0 0
6.74557 4.29209 -5.09964 255 0 0
7.61795 4.33025 -5.23065 255 0 0
7.39492 4.33203 -5.15976 255 0 0
7.23647 4.30864 -5.10507 255 0 0
7.12573 4.31165 -5.07064 255 0 0
6.93457 4.2977 -5.00785 255 0 0
6.87264 4.29324 -4.98759 255 0 0
5.74894 4.26073 -4.63819 255 0 0
5.6891 4.25831 -4.61997 255 0 0
5.62364 4.27208 -4.60376 255 0 0
5.52337 4.3212 -4.58553 255 0 0
5.43616 4.42171 -4.58351 255 0 0
5.43669 4.48316 -4.59802 255 0 0
5.46066 4.51745 -4.61288 255 0 0
5.46904 4.27868 -5.168 255 0 0
7.17952 4.32097 -5.16874 255 0 0
7.07473 4.30374 -5.13146 255 0 0
7.02245 4.29478 -5.11283 255 0 0
6.49633 4.27557 -4.94093 255 0 0
5.42714 4.2667 -4.61059 255 0 0
8.24313 5.82628 -4.88542 255 0 0
7.32341 4.52669 -5.33775 255 0 0
6.88051 4.29816 -5.14515 255 0 0
6.83794 4.29414 -5.13033 255 0 0
6.48632 4.26897 -5.0104 255 0 0
6.28725 4.32203 -4.95784 255 0 0
6.04149 4.2594 -4.86577 255 0 0
5.99454 4.269 -4.85307 255 0 0
5.49474 4.23612 -4.75632 255 0 0
5.39804 4.22313 -4.92269 255 0 0
6.61709 4.2879 -5.13248 255 0 0
6.54029 4.27122 -5.10329 255 0 0
6.29657 4.31745 -5.03303 255 0 0
5.69314 4.27189 -4.82766 255 0 0
7.96799 4.36814 -5.26462 255 0 0
5.5029 4.23203 -4.82492 255 0 0
5.43279 4.22958 -4.80175 255 0 0
7.42882 4.32827 -5.00849 255 0 0
6.56437 4.52399 -5.32166 255 0 0
5.83688 4.25132 -5.00863 255 0 0
5.78618 4.25653 -4.99287 255 0 0
5.43429 5.87005 -5.33291 255 0 0
5.77618 4.475 -5.26049 255 0 0
6.10903 4.25305 -5.24766 255 0 0
6.0449 4.2511 -5.22424 255 0 0
5.63766 4.32507 -5.10014 255 0 0
5.91289 4.59212 -5.26639 255 0 0
5.56394 4.47111 -5.11419 255 0 0
5.68589 4.63603 -5.20083 255 0 0
5.6445 4.66954 -5.19614 255 0 0
5.56875 4.65152 -5.1657 255 0 0
5.55366 5.06851 -5.28044 255 0 0
5.53433 5.17245 -5.30502 255 0 0
5.45112 5.27939 -5.31088 255 0 0
5.61373 4.5551 -5.2259 255 0 0
5.46106 4.78588 -5.24021 255 0 0
5.46976 4.81648 -5.25214 255 0 0
5.43886 4.83525 -5.24737 255 0 0
5.40223 4.91859 -5.2601 255 0 0
5.37366 4.95113 -5.26049 255 0 0
8.74848 4.39895 -5.1547 255 0 0
8.82933 4.37422 -5.17445 255 0 0
6.61965 4.31188 -4.91265 255 0 0
7.01625 4.31388 -4.80541 255 0 0
5.57722 4.24725 -4.65098 255 0 0
8.31592 5.67314 -4.6079 255 0 0
8.39127 5.75374 -4.6358 255 0 0
8.37789 5.77383 -4.72633 255 0 0
8.25767 5.77803 -4.79049 255 0 0
8.2339 5.79053 -4.87737 255 0 0
8.24838 5.59845 -4.9394 255 0 0
8.8751 4.51547 -5.11694 255 0 0
8.76986 4.48813 -5.0837 255 0 0
8.52021 4.41148 -5.00324 255 0 0
8.47999 4.41618 -4.99275 255 0 0
8.4398 4.42072 -4.98225 255 0 0
8.96491 4.40175 -5.21754 255 0 0
8.87853 4.438 -5.19779 255 0 0
8.44016 4.37003 -5.14941 255 0 0
8.39033 4.36949 -5.13468 255 0 0
8.31102 4.35326 -5.10889 255 0 0
6.18821 4.418 -4.80327 255 0 0
6.02014 4.34126 -4.73643 255 0 0
7.07374 4.32615 -4.82428 255 0 0
6.98714 4.31884 -4.79785 255 0 0
7.32336 4.33688 -4.97819 255 0 0
6.82692 4.33249 -4.82928 255 0 0
6.78401 4.32786 -4.81574 255 0 0
6.64638 4.30688 -4.77126 255 0 0
7.21135 4.41031 -5.03695 255 0 0
6.32497 4.2711 -4.74196 255 0 0
6.28291 4.26442 -4.7281 255 0 0
6.22119 4.27662 -4.71227 255 0 0
6.56242 4.31906 -4.89644 255 0 0
6.25395 4.42032 -4.82353 255 0 0
6.17627 4.38741 -4.79314 255 0 0
6.07505 4.359 -4.75669 255 0 0
5.86806 4.31677 -4.68579 255 0 0
6.26049 4.29271 -4.87051 255 0 0
6.1444 4.27768 -4.83116 255 0 0
6.15219 4.30479 -4.83944 255 0 0
6.17781 4.34457 -4.85601 255 0 0
5.471 4.22821 -4.61473 255 0 0
5.50787 4.25667 -4.63234 255 0 0
5.89385 4.25019 -4.81709 255 0 0
5.8018 4.24686 -4.78746 255 0 0
6.70143 4.38782 -5.33742 255 0 0
6.49997 4.30008 -5.32349 255 0 0
6.3803 4.35265 -5.29363 255 0 0
6.29306 4.33701 -5.25918 255 0 0
5.83756 4.24122 -5.14814 255 0 0
5.61965 4.26906 -5.07907 255 0 0
5.65023 4.92803 -5.27107 255 0 0
5.43317 5.32475 -5.31907 255 0 0
5.38051 5.37416 -5.3179 255 0 0
5.787 4.32092 -5.22272 255 0 0
5.74549 4.48399 -5.25214 255 0 0
5.67877 4.50823 -5.23544 255 0 0
5.464 4.47674 -5.22268 255 0 0
5.37875 4.47121 -5.19108 255 0 0
