ply
format ascii 1.0
comment Created by Open3D
element vertex 1050
property double x
property double y
property double z
property uchar red
property uchar green
property uchar blue
end_header
-9.26964 -2.08932 -4.12731 255 0 0
-11.5258 -1.0275 -4.69176 255 0 0
-8.99649 -1.92713 -4.87993 255 0 0
-9.04854 -1.62623 -4.62793 255 0 0
-9.43396 -2.26785 -4.08767 255 0 0
-9.08589 -2.43648 -4.60456 255 0 0
-9.07228 -2.01097 -4.48992 255 0 0
-9.56457 -2.13198 -4.19383 255 0 0
-10.1464 -1.24514 -4.46769 255 0 0
-9.1473 -1.97078 -4.34128 255 0 0
-10.6847 -2.48827 -4.45606 255 0 0
-10.8157 -1.27525 -4.15452 255 0 0
-9.60009 -1.34018 -4.33991 255 0 0
-11.1785 -1.23747 -4.22497 255 0 0
-9.36119 -1.90102 -3.88975 255 0 0
-10.9139 -1.05125 -5.03579 255 0 0
-11.0008 -1.1914 -4.38081 255 0 0
-9.49626 -2.04596 -4.09014 255 0 0
-10.49 -1.64234 -3.82674 255 0 0
-9.08313 -2.4704 -4.69069 255 0 0
-9.47262 -2.44413 -4.10492 255 0 0
-10.3879 -2.22518 -3.82774 255 0 0
-11.1688 -1.02237 -5.00517 255 0 0
-9.06974 -2.61752 -4.86892 255 0 0
-9.67967 -1.30452 -4.35777 255 0 0
-11.773 -0.993293 -4.9562 255 0 0
-9.05098 -2.51937 -4.85529 255 0 0
-11.474 -1.02288 -4.8823 255 0 0
-9.02541 -2.44321 -4.84167 255 0 0
-10.4943 -2.0019 -4.57899 255 0 0
-9.30822 -2.21429 -4.30968 255 0 0
-10.2843 -1.11381 -4.77179 255 0 0
-9.13287 -2.31033 -4.4405 255 0 0
-9.20112 -2.56116 -4.47427 255 0 0
-9.78776 -1.17758 -4.72955 255 0 0
-8.98557 -1.29786 -5.09236 255 0 0
-10.0378 -1.9642 -4.46907 255 0 0
-9.71914 -2.09398 -4.22581 255 0 0
-9.10893 -1.73762 -4.40232 255 0 0
-9.44428 -1.47862 -4.1401 255 0 0
-9.18149 -1.90991 -4.34649 255 0 0
-9.41966 -1.82005 -4.40049 255 0 0
-10.3874 -1.80338 -3.81384 255 0 0
-9.16375 -2.01984 -4.34791 255 0 0
-9.6981 -1.35386 -4.27784 255 0 0
-9.54811 -1.48327 -4.07905 255 0 0
-9.80341 -2.55429 -4.26802 255 0 0
-9.1566 -2.17822 -4.35501 255 0 0
-9.37855 -1.26394 -4.62018 255 0 0
-9.13078 -1.51839 -4.39792 255 0 0
-9.72546 -1.2169 -5.06796 255 0 0
-9.06898 -1.50811 -4.62793 255 0 0
-9.49374 -2.52174 -4.02828 255 0 0
-9.98534 -1.72138 -3.83011 255 0 0
-11.5497 -1.1678 -4.29656 255 0 0
-10.7273 -1.49754 -3.86348 255 0 0
-9.38921 -2.06952 -3.98526 255 0 0
-10.4387 -1.7868 -4.46357 255 0 0
-9.01877 -2.07777 -4.81273 255 0 0
-9.02737 -2.27226 -4.74482 255 0 0
-9.35394 -2.0734 -3.89543 255 0 0
-9.05668 -1.63879 -4.54831 255 0 0
-9.90416 -2.22001 -3.83323 255 0 0
-9.22056 -2.70848 -4.74702 255 0 0
-9.33232 -2.50257 -4.41755 255 0 0
-10.4945 -2.06648 -4.48812 255 0 0
-9.35212 -2.10791 -3.89657 255 0 0
-9.02071 -1.65438 -4.37589 255 0 0
-9.31498 -1.82275 -4.37491 255 0 0
-9.41149 -2.42836 -4.00696 255 0 0
-10.6822 -2.02465 -3.77764 255 0 0
-9.64866 -1.30034 -4.43603 255 0 0
-11.019 -1.27273 -4.09877 255 0 0
-9.08276 -2.20622 -4.42141 255 0 0
-11.2966 -1.19635 -4.3456 255 0 0
-9.08403 -1.96842 -4.6569 255 0 0
-9.63034 -1.43764 -4.09506 255 0 0
-10.2653 -2.13537 -3.80391 255 0 0
-8.97997 -2.04642 -4.79911 255 0 0
-9.9501 -1.38904 -4.07445 255 0 0
-9.10293 -2.17686 -4.67541 255 0 0
-9.14317 -1.43147 -4.56237 255 0 0
-9.9095 -1.866 -3.82126 255 0 0
-9.09934 -1.491 -4.553 255 0 0
-10.3062 -1.31439 -4.23547 255 0 0
-8.99197 -1.71531 -4.61667 255 0 0
-8.99702 -2.14026 -4.8948 255 0 0
-11.1573 -1.18159 -4.41407 255 0 0
-9.37153 -1.7647 -3.96907 255 0 0
-10.2704 -1.30982 -4.31791 255 0 0
-8.97757 -1.27498 -4.92128 255 0 0
-10.2007 -2.02118 -4.51029 255 0 0
-9.80692 -1.55922 -3.87888 255 0 0
-10.1878 -1.96847 -4.50479 255 0 0
-9.4612 -2.2744 -4.17847 255 0 0
-8.91408 -1.4715 -4.99378 255 0 0
-9.21847 -2.58956 -4.56569 255 0 0
-9.94586 -1.76317 -3.82438 255 0 0
-9.4186 -2.74241 -4.4545 255 0 0
-9.05134 -1.7044 -4.63276 255 0 0
-9.79087 -2.51385 -3.91262 255 0 0
-9.11195 -2.44347 -4.5278 255 0 0
-9.93496 -1.87079 -3.82594 255 0 0
-8.98794 -1.31998 -4.92667 255 0 0
-9.20474 -1.2183 -4.99131 255 0 0
-11.0844 -1.30693 -4.01587 255 0 0
-10.4348 -2.14482 -4.29213 255 0 0
-10.7479 -2.1561 -3.79229 255 0 0
-9.5877 -1.32686 -4.42181 255 0 0
-8.9761 -1.36174 -4.92488 255 0 0
-9.40331 -1.51792 -4.13242 255 0 0
-9.42382 -1.49831 -4.13626 255 0 0
-10.9805 -1.11024 -4.66418 255 0 0
-8.99519 -1.60565 -4.77697 255 0 0
-10.5542 -2.01333 -4.49939 255 0 0
-11.5021 -1.02539 -4.58526 255 0 0
-10.6314 -2.50245 -4.35002 255 0 0
-9.27163 -1.67769 -4.1094 255 0 0
-9.94589 -1.81186 -3.82594 255 0 0
-8.97906 -1.96797 -4.87731 255 0 0
-9.14288 -1.36487 -4.64242 255 0 0
-9.84571 -1.3269 -4.31101 255 0 0
-9.01358 -1.2583 -5.09992 255 0 0
-10.2023 -1.12941 -4.84205 255 0 0
-9.31839 -2.71323 -4.60054 255 0 0
-10.0808 -2.51202 -3.87642 255 0 0
-8.9781 -1.23165 -5.0867 255 0 0
-10.0897 -1.11695 -5.08515 255 0 0
-9.07398 -1.82031 -4.47981 255 0 0
-9.58478 -2.42465 -4.38663 255 0 0
-9.71706 -2.06944 -3.53971 255 0 0
-9.08134 -2.2973 -4.59362 255 0 0
-11.1134 -1.25695 -4.11618 255 0 0
-9.66644 -2.5186 -4.41136 255 0 0
-9.01906 -2.06658 -4.72826 255 0 0
-9.05983 -1.52867 -4.62632 255 0 0
-9.58743 -2.54662 -3.96248 255 0 0
-10.5557 -1.61418 -3.83717 255 0 0
-9.90662 -1.47889 -3.8952 255 0 0
-9.06364 -2.43051 -4.85189 255 0 0
-10.0822 -1.14032 -4.71875 255 0 0
-9.12975 -1.57391 -4.31806 255 0 0
-10.6425 -1.20368 -4.49143 255 0 0
-9.23646 -1.35646 -4.41847 255 0 0
-10.2271 -1.46479 -3.86601 255 0 0
-8.96979 -1.66704 -4.93924 255 0 0
-11.0918 -1.33447 -3.92205 255 0 0
-9.30099 -1.23104 -5.10889 255 0 0
-8.94734 -1.42256 -5.00207 255 0 0
-9.15669 -2.66615 -4.7261 255 0 0
-11.0485 -1.35585 -3.9151 255 0 0
-9.1009 -2.34822 -4.94202 255 0 0
-10.2155 -1.35209 -4.12774 255 0 0
-9.62426 -2.04967 -4.11723 255 0 0
-9.26798 -1.45101 -4.43022 255 0 0
-11.4864 -0.941685 -4.58014 255 0 0
-11.5759 -0.976662 -5.11277 255 0 0
-9.39386 -2.05889 -4.0692 255 0 0
-9.19528 -2.65375 -4.64987 255 0 0
-9.08779 -2.72807 -5.05684 255 0 0
-10.4364 -2.22263 -4.48215 255 0 0
-9.12393 -1.53949 -4.47931 255 0 0
-9.44753 -2.56953 -4.19191 255 0 0
-9.17464 -2.62425 -4.72771 255 0 0
-11.368 -1.1222 -4.65726 255 0 0
-9.37306 -2.12431 -3.98447 255 0 0
-11.3345 -1.01045 -5.04912 255 0 0
-8.9618 -1.75364 -4.77527 255 0 0
-10.6068 -1.32718 -4.02257 255 0 0
-9.40971 -2.52332 -4.18103 255 0 0
-9.66663 -1.37284 -4.27121 255 0 0
-9.58244 -2.12405 -3.8571 255 0 0
-10.3435 -1.09541 -5.06691 255 0 0
-9.80872 -1.13294 -5.0907 255 0 0
-10.0763 -1.13964 -4.80767 255 0 0
-9.41438 -1.65745 -3.97381 255 0 0
-9.43134 -1.52245 -3.97263 255 0 0
-9.04366 -2.33345 -4.75393 255 0 0
-10.7251 -1.21303 -4.41641 255 0 0
-9.85621 -1.18582 -5.01704 255 0 0
-8.96452 -1.75417 -4.94283 255 0 0
-9.99089 -2.05358 -4.4622 255 0 0
-10.4649 -2.35873 -3.84561 255 0 0
-10.6668 -1.79981 -3.76867 255 0 0
-10.3393 -2.06138 -3.81384 255 0 0
-10.66 -1.35951 -3.94094 255 0 0
-10.7972 -1.11758 -4.71601 255 0 0
-9.61055 -1.22567 -4.596 255 0 0
-10.1378 -1.57487 -3.853 255 0 0
-9.05456 -2.61314 -4.77877 255 0 0
-9.84069 -1.17213 -5.10207 255 0 0
-9.43262 -2.48158 -4.18359 255 0 0
-11.6187 -1.14695 -4.41072 255 0 0
-8.98741 -2.13798 -4.80762 255 0 0
-11.1344 -1.04585 -4.89717 255 0 0
-9.92349 -1.36135 -4.24243 255 0 0
-9.29562 -1.77323 -4.36781 255 0 0
-11.1962 -1.2932 -4.03565 255 0 0
-9.19296 -1.50634 -4.33085 255 0 0
-9.09521 -2.46211 -4.52477 255 0 0
-10.5846 -1.07021 -4.8506 255 0 0
-9.1229 -2.67979 -4.80361 255 0 0
-10.0897 -2.47614 -3.87642 255 0 0
-8.98402 -1.69173 -4.86156 255 0 0
-9.91382 -1.16891 -4.6748 255 0 0
-10.6874 -2.10444 -3.78095 255 0 0
-10.1043 -1.36175 -4.10524 255 0 0
-9.12298 -2.03355 -4.42141 255 0 0
-9.84307 -1.13691 -4.83231 255 0 0
-9.18959 -1.79821 -4.42581 255 0 0
-8.99689 -2.01664 -4.88605 255 0 0
-11.307 -1.22457 -4.24997 255 0 0
-9.8969 -2.13228 -3.82854 255 0 0
-9.42491 -1.72851 -3.97855 255 0 0
-9.19327 -1.55119 -4.2506 255 0 0
-11.6678 -1.09596 -4.62364 255 0 0
-11.7632 -1.10492 -4.54216 255 0 0
-10.1091 -2.1279 -4.4938 255 0 0
-10.2722 -1.434 -3.87329 255 0 0
-9.42823 -1.57935 -4.05688 255 0 0
-11.3641 -1.14903 -4.55712 255 0 0
-9.39713 -2.22368 -3.99394 255 0 0
-9.53844 -1.21648 -4.66237 255 0 0
-9.29855 -1.84244 -4.12219 255 0 0
-10.7841 -1.06456 -4.90364 255 0 0
-10.5699 -1.57791 -3.83866 255 0 0
-10.6578 -2.16433 -3.77812 255 0 0
-9.76482 -2.03125 -3.63073 255 0 0
-10.3263 -2.00793 -3.80986 255 0 0
-11.6348 -1.00942 -4.92209 255 0 0
-10.8689 -1.2554 -4.25917 255 0 0
-10.2802 -1.38545 -3.9627 255 0 0
-9.41285 -2.09816 -4.24335 255 0 0
-9.37354 -1.92668 -3.89316 255 0 0
-9.46267 -1.89828 -4.07659 255 0 0
-10.5089 -1.08774 -4.8309 255 0 0
-9.04451 -2.49448 -4.93678 255 0 0
-9.184 -2.36966 -4.54144 255 0 0
-9.22082 -2.63746 -4.48455 255 0 0
-9.10783 -1.24945 -5.04627 255 0 0
-9.39779 -2.7122 -4.4474 255 0 0
-10.4555 -1.33344 -4.0852 255 0 0
-9.14358 -1.46487 -4.56393 255 0 0
-9.90593 -1.45478 -4.06735 255 0 0
-9.28727 -1.29651 -4.51265 255 0 0
-10.2483 -1.40591 -3.95725 255 0 0
-8.94021 -1.42142 -4.83358 255 0 0
-11.4666 -1.04964 -4.77959 255 0 0
-10.4089 -1.37768 -3.98664 255 0 0
-9.53245 -2.53202 -4.12216 255 0 0
-9.53955 -2.26932 -4.10984 255 0 0
-9.11009 -2.72302 -4.80361 255 0 0
-10.1265 -1.73335 -4.48006 255 0 0
-9.33471 -1.37089 -4.3607 255 0 0
-10.6628 -1.95554 -3.77245 255 0 0
-9.1029 -2.42947 -4.69311 255 0 0
-9.25634 -2.22515 -4.38202 255 0 0
-9.6304 -2.09877 -4.20662 255 0 0
-9.01986 -2.10055 -4.73075 255 0 0
-9.20989 -2.27182 -4.37349 255 0 0
-9.12267 -2.65625 -4.88764 255 0 0
-9.37256 -1.69595 -3.96671 255 0 0
-10.8454 -1.14856 -4.7288 255 0 0
-9.61051 -2.50403 -3.96475 255 0 0
-10.1181 -1.38804 -4.02043 255 0 0
-9.74709 -2.42887 -3.90065 255 0 0
-9.04365 -2.62162 -5.0335 255 0 0
-10.4326 -1.07985 -4.99806 255 0 0
-9.99882 -1.37168 -4.08393 255 0 0
-10.6351 -1.27952 -4.2118 255 0 0
-11.5481 -1.0019 -5.0029 255 0 0
-10.4925 -1.95003 -4.57624 255 0 0
-9.10335 -1.27083 -4.6274 255 0 0
-9.80687 -1.298 -4.388 255 0 0
-10.4495 -2.25134 -4.58036 255 0 0
-10.4424 -1.26889 -4.355 255 0 0
-9.9186 -1.94086 -3.82542 255 0 0
-9.11364 -1.25025 -4.7957 255 0 0
-9.46864 -2.61145 -4.19894 255 0 0
-9.34479 -1.78261 -3.96434 255 0 0
-10.8015 -1.29955 -4.05849 255 0 0
-9.81035 -1.39325 -4.13201 255 0 0
-10.1501 -2.31308 -4.51304 255 0 0
-10.8302 -1.19892 -4.43943 255 0 0
-9.06773 -2.50088 -4.8587 255 0 0
-8.98281 -1.31922 -5.00852 255 0 0
-11.2032 -1.05231 -4.8155 255 0 0
-9.23117 -2.78307 -4.93021 255 0 0
-9.08811 -1.66674 -4.47577 255 0 0
-10.1476 -2.11088 -4.50204 255 0 0
-11.3961 -1.07043 -4.7631 255 0 0
-9.05351 -2.1537 -4.74399 255 0 0
-9.06674 -1.87483 -4.48082 255 0 0
-9.67781 -1.46819 -4.02117 255 0 0
-11.1102 -1.1766 -4.59889 255 0 0
-10.448 -2.38097 -3.84362 255 0 0
-9.58432 -1.38434 -4.25264 255 0 0
-9.57065 -1.9672 -4.18743 255 0 0
-10.3769 -1.09895 -4.79604 255 0 0
-9.12429 -1.48397 -4.64242 255 0 0
-9.18346 -2.42765 -4.54523 255 0 0
-10.4235 -1.35448 -3.98882 255 0 0
-9.39616 -2.22346 -3.9102 255 0 0
-9.52486 -1.58392 -3.9102 255 0 0
-10.1879 -1.20122 -4.56678 255 0 0
-10.5244 -1.08935 -4.92954 255 0 0
-9.11123 -2.74691 -4.97876 255 0 0
-9.42058 -1.95965 -3.98683 255 0 0
-9.58939 -1.86465 -3.8484 255 0 0
-9.02657 -1.56713 -4.61881 255 0 0
-8.98643 -1.82492 -4.87031 255 0 0
-9.08939 -1.87952 -4.40452 255 0 0
-10.5774 -1.24715 -4.38443 255 0 0
-9.09408 -1.51229 -4.47021 255 0 0
-9.04901 -1.99455 -4.81613 255 0 0
-9.26466 -2.1113 -4.12731 255 0 0
-10.2779 -1.11311 -4.86236 255 0 0
-9.05729 -2.52113 -4.77215 255 0 0
-10.567 -1.32219 -4.10679 255 0 0
-10.4471 -1.6737 -3.82029 255 0 0
-9.03647 -2.08185 -4.40232 255 0 0
-10.4001 -1.30132 -4.25518 255 0 0
-9.24764 -2.1305 -4.20753 255 0 0
-9.42686 -2.20713 -4.33716 255 0 0
-9.5138 -2.097 -4.18103 255 0 0
-11.8999 -0.975587 -4.98747 255 0 0
-11.4259 -0.909461 -4.56607 255 0 0
-11.4102 -1.0172 -4.96766 255 0 0
-9.08009 -2.01271 -4.65851 255 0 0
-9.10322 -1.49163 -4.47173 255 0 0
-9.62363 -2.41022 -4.39487 255 0 0
-11.5452 -1.05683 -4.59549 255 0 0
-9.34992 -2.74648 -4.61115 255 0 0
-10.9637 -1.18738 -4.46885 255 0 0
-9.05481 -2.12002 -4.57487 255 0 0
-9.46526 -2.13342 -4.08767 255 0 0
-9.06559 -2.29331 -4.67299 255 0 0
-9.37224 -1.96118 -3.8943 255 0 0
-10.4159 -1.40374 -3.89827 255 0 0
-9.78436 -1.41324 -4.12709 255 0 0
-9.075 -2.45664 -4.77215 255 0 0
-9.65301 -1.71126 -3.85493 255 0 0
-9.08049 -1.59867 -4.88605 255 0 0
-9.35051 -1.39587 -4.2822 255 0 0
-9.05973 -1.75051 -4.63759 255 0 0
-9.48824 -1.21007 -4.73414 255 0 0
-10.672 -1.90495 -3.77245 255 0 0
-10.6354 -1.97659 -3.76867 255 0 0
-9.14088 -1.72126 -4.40966 255 0 0
-9.70539 -2.38184 -3.89085 255 0 0
-10.4402 -2.12015 -4.47817 255 0 0
-9.15103 -2.6645 -4.63893 255 0 0
-9.70653 -1.19116 -4.70768 255 0 0
-9.4523 -1.57185 -3.97855 255 0 0
-9.99055 -1.67353 -3.82958 255 0 0
-10.7934 -1.06548 -5.00297 255 0 0
-9.22714 -1.28812 -4.57956 255 0 0
-9.42985 -1.45346 -4.21947 255 0 0
-8.98289 -1.63642 -4.85807 255 0 0
-9.39478 -2.01246 -3.98387 255 0 0
-10.5587 -2.04013 -3.75828 255 0 0
-12.04 -0.958339 -4.91562 255 0 0
-10.6752 -1.74921 -3.76867 255 0 0
-9.1353 -1.54141 -4.31806 255 0 0
-11.703 -0.959444 -4.83455 255 0 0
-9.11961 -2.33 -4.60612 255 0 0
-9.12995 -2.41355 -4.61471 255 0 0
-10.4724 -1.23477 -4.45296 255 0 0
-9.04402 -1.88131 -4.55768 255 0 0
-9.59147 -1.97148 -3.85275 255 0 0
-11.364 -1.04025 -4.85529 255 0 0
-9.05957 -2.20059 -4.66495 255 0 0
-10.5513 -1.75461 -3.74883 255 0 0
-9.02744 -2.58214 -4.85359 255 0 0
-9.45455 -1.26277 -4.55584 255 0 0
-10.0119 -1.15641 -4.79049 255 0 0
-10.2067 -1.37555 -4.03748 255 0 0
-9.12135 -1.27335 -5.0518 255 0 0
-9.08364 -2.21785 -4.58893 255 0 0
-8.94517 -1.79447 -4.93924 255 0 0
-9.15647 -2.38572 -4.53538 255 0 0
-9.4487 -2.41408 -4.26856 255 0 0
-9.39981 -2.5685 -4.35228 255 0 0
-10.7007 -1.1589 -4.59822 255 0 0
-9.4633 -1.92176 -4.16185 255 0 0
-9.43263 -2.00886 -3.90793 255 0 0
-10.5525 -1.83204 -4.49143 255 0 0
-9.09267 -2.17439 -4.50507 255 0 0
-9.22049 -2.70846 -4.6608 255 0 0
-10.9594 -1.37129 -3.90021 255 0 0
-9.37904 -1.17355 -4.78705 255 0 0
-9.28508 -1.88557 -4.37065 255 0 0
-9.09923 -2.69629 -4.88424 255 0 0
-9.61732 -1.55247 -3.92725 255 0 0
-9.03493 -1.96902 -4.56029 255 0 0
-10.9069 -1.2074 -4.3611 255 0 0
-9.26125 -1.38254 -4.42581 255 0 0
-9.14382 -1.23231 -5.05732 255 0 0
-9.347 -1.64559 -4.12475 255 0 0
-9.57816 -1.19847 -5.10981 255 0 0
-9.35578 -1.87684 -4.13626 255 0 0
-10.6958 -1.9354 -3.77717 255 0 0
-9.4834 -2.47091 -4.02354 255 0 0
-9.60563 -1.17878 -4.76633 255 0 0
-9.85487 -1.25683 -4.48577 255 0 0
-9.05489 -1.86119 -4.64242 255 0 0
-10.6966 -1.83095 -3.77434 255 0 0
-10.7549 -1.86718 -3.78473 255 0 0
-10.7049 -1.88465 -3.77717 255 0 0
-10.6866 -2.19657 -3.78379 255 0 0
-10.2124 -2.14962 -3.70631 255 0 0
-9.08714 -1.86782 -4.56862 255 0 0
-9.64274 -1.42782 -4.18231 255 0 0
-9.65592 -1.2082 -4.95745 255 0 0
-9.3859 -1.87131 -3.97618 255 0 0
-10.0469 -1.35402 -4.18128 255 0 0
-9.8506 -1.13778 -5.01364 255 0 0
-9.21875 -2.61323 -4.73897 255 0 0
-10.853 -1.38413 -3.88234 255 0 0
-10.7651 -1.41184 -3.86794 255 0 0
-10.7525 -1.46209 -3.86695 255 0 0
-10.6666 -1.51485 -3.85355 255 0 0
-10.6458 -1.53766 -3.85057 255 0 0
-10.6136 -1.55871 -3.84561 255 0 0
-10.4439 -1.71131 -3.82079 255 0 0
-10.4057 -1.73039 -3.81483 255 0 0
-10.4129 -1.75698 -3.81681 255 0 0
-10.403 -1.78069 -3.81582 255 0 0
-10.3604 -1.824 -3.80986 255 0 0
-10.3958 -1.85565 -3.81681 255 0 0
-10.3402 -1.87105 -3.80788 255 0 0
-10.3335 -1.90781 -3.80788 255 0 0
-10.3272 -1.95732 -3.80838 255 0 0
-10.3771 -2.10734 -3.82178 255 0 0
-10.3495 -2.12729 -3.81781 255 0 0
-10.3788 -2.18466 -3.82476 255 0 0
-10.3968 -2.2658 -3.83071 255 0 0
-10.4422 -2.31465 -3.84015 255 0 0
-10.4423 -2.41878 -3.84412 255 0 0
-10.4477 -2.4592 -3.8466 255 0 0
-10.3295 -2.45725 -3.82674 255 0 0
-9.31021 -1.48025 -4.19294 255 0 0
-9.80117 -1.27361 -4.47298 255 0 0
-9.38926 -2.26891 -3.99453 255 0 0
-9.03519 -1.66812 -4.62632 255 0 0
-9.79562 -1.15497 -4.81944 255 0 0
-8.95486 -1.68624 -4.93565 255 0 0
-9.40376 -1.84012 -3.97855 255 0 0
-8.94298 -1.72795 -4.85107 255 0 0
-10.701 -1.05636 -5.0737 255 0 0
-12.0324 -0.957736 -5.02016 255 0 0
-9.0327 -1.30467 -4.691 255 0 0
-11.308 -1.27896 -4.05542 255 0 0
-10.8938 -1.32375 -3.98205 255 0 0
-10.7775 -1.34854 -3.96176 255 0 0
-10.5881 -1.37587 -3.92845 255 0 0
-10.4706 -1.38585 -3.90764 255 0 0
-10.384 -1.42452 -3.89307 255 0 0
-10.1876 -1.49614 -3.85977 255 0 0
-10.1195 -1.52294 -3.84832 255 0 0
-10.0667 -1.60053 -3.84103 255 0 0
-10.041 -1.63307 -3.83739 255 0 0
-9.90054 -1.91297 -3.82126 255 0 0
-9.88005 -1.95766 -3.81918 255 0 0
-9.90928 -1.98788 -3.82542 255 0 0
-9.8876 -2.00793 -3.8223 255 0 0
-9.86024 -2.02672 -3.81814 255 0 0
-9.79335 -2.03719 -3.80669 255 0 0
-9.89562 -2.08295 -3.82646 255 0 0
-9.92447 -2.11361 -3.83271 255 0 0
-9.88925 -2.16747 -3.82854 255 0 0
-9.93284 -2.27596 -3.84051 255 0 0
-9.92749 -2.31192 -3.84103 255 0 0
-9.99209 -2.36448 -3.85456 255 0 0
-10.0565 -2.4175 -3.86809 255 0 0
-10.0675 -2.44541 -3.87121 255 0 0
-10.5637 -1.29635 -4.19759 255 0 0
-9.39469 -1.76906 -4.39197 255 0 0
-9.48871 -2.4243 -3.93748 255 0 0
-9.07643 -2.05709 -4.4937 255 0 0
-9.11653 -1.58274 -4.47931 255 0 0
-9.97886 -1.32076 -4.34152 255 0 0
-10.6842 -1.31114 -4.03672 255 0 0
-10.5083 -1.9272 -4.57899 255 0 0
-10.1169 -1.11996 -4.90955 255 0 0
-9.03487 -1.72349 -4.87906 255 0 0
-9.0653 -1.70703 -4.47173 255 0 0
-11.4053 -1.23521 -4.17061 255 0 0
-11.2308 -1.24326 -4.13796 255 0 0
-10.9531 -1.29145 -4.08679 255 0 0
-10.4895 -1.33777 -4.0008 255 0 0
-10.0923 -1.42108 -3.92841 255 0 0
-10.0217 -1.44752 -3.91589 255 0 0
-9.99548 -1.46793 -3.91153 255 0 0
-9.89844 -1.51368 -3.89466 255 0 0
-9.79922 -1.53419 -3.8767 255 0 0
-9.7464 -1.5733 -3.86799 255 0 0
-9.73502 -1.61887 -3.86726 255 0 0
-9.68936 -1.67036 -3.86037 255 0 0
-9.64646 -1.76912 -3.85565 255 0 0
-9.60594 -1.80884 -3.84948 255 0 0
-9.62988 -1.837 -3.85493 255 0 0
-9.63914 -1.90992 -3.85928 255 0 0
-9.58382 -1.92259 -3.84948 255 0 0
-9.61404 -1.97612 -3.8571 255 0 0
-9.57401 -2.0271 -3.85166 255 0 0
-9.59802 -2.07981 -3.85819 255 0 0
-9.60289 -2.16444 -3.86255 255 0 0
-9.63438 -2.20758 -3.87017 255 0 0
-9.57605 -2.23008 -3.86037 255 0 0
-9.64643 -2.28267 -3.87561 255 0 0
-9.67742 -2.32638 -3.88323 255 0 0
-9.66069 -2.3466 -3.88105 255 0 0
-9.80533 -2.48044 -3.91371 255 0 0
-9.46769 -1.55135 -4.06427 255 0 0
-11.5896 -1.11634 -4.50521 255 0 0
-10.2989 -2.19336 -4.54189 255 0 0
-10.3238 -1.36642 -4.0602 255 0 0
-9.36323 -1.57987 -4.20886 255 0 0
-9.05513 -1.54997 -4.54362 255 0 0
-9.25669 -1.51678 -4.26434 255 0 0
-9.235 -1.3227 -4.49977 255 0 0
-9.39568 -1.6312 -3.96907 255 0 0
-9.82558 -1.34792 -4.30703 255 0 0
-9.05663 -1.71652 -4.55222 255 0 0
-9.23464 -2.38272 -4.38628 255 0 0
-11.4841 -1.18868 -4.28406 255 0 0
-11.3841 -1.20562 -4.26475 255 0 0
-11.0442 -1.24912 -4.19884 255 0 0
-10.9613 -1.26608 -4.18293 255 0 0
-10.6872 -1.28579 -4.12952 255 0 0
-10.5473 -1.29434 -4.10225 255 0 0
-10.3954 -1.35082 -4.07384 255 0 0
-10.042 -1.41399 -4.00623 255 0 0
-9.95444 -1.4378 -3.98975 255 0 0
-9.79756 -1.43887 -3.95907 255 0 0
-9.77139 -1.4587 -3.95452 255 0 0
-9.75655 -1.48014 -3.95225 255 0 0
-9.73031 -1.49977 -3.9477 255 0 0
-9.67565 -1.51484 -3.93748 255 0 0
-9.6153 -1.52876 -3.92611 255 0 0
-9.59661 -1.57248 -3.92384 255 0 0
-9.5324 -1.60841 -3.91248 255 0 0
-9.48893 -1.62422 -3.90452 255 0 0
-9.47177 -1.65598 -3.90225 255 0 0
-9.41494 -1.68057 -3.89202 255 0 0
-9.4428 -1.72023 -3.89884 255 0 0
-9.43098 -1.75275 -3.8977 255 0 0
-9.39858 -1.76979 -3.89202 255 0 0
-9.39758 -1.81578 -3.89354 255 0 0
-9.39605 -1.87332 -3.89543 255 0 0
-9.3773 -2.02033 -3.8977 255 0 0
-9.35565 -2.03889 -3.8943 255 0 0
-9.4199 -2.14667 -3.91134 255 0 0
-9.37303 -2.17109 -3.90339 255 0 0
-9.41054 -2.26222 -3.91475 255 0 0
-9.44422 -2.29402 -3.9227 255 0 0
-9.41087 -2.30956 -3.91702 255 0 0
-9.44993 -2.3667 -3.92725 255 0 0
-9.48896 -2.37649 -3.9352 255 0 0
-9.50519 -2.45253 -3.94202 255 0 0
-9.56011 -2.51512 -3.95566 255 0 0
-11.5158 -0.944095 -4.68778 255 0 0
-9.05728 -1.97387 -4.48385 255 0 0
-10.3681 -2.13111 -4.46225 255 0 0
-9.38712 -1.24244 -4.62174 255 0 0
-9.44501 -2.41313 -4.01288 255 0 0
-9.49537 -2.35418 -4.10492 255 0 0
-11.5303 -1.16584 -4.39296 255 0 0
-11.4534 -1.1855 -4.37757 255 0 0
-11.1797 -1.21078 -4.32192 255 0 0
-11.0343 -1.22151 -4.29232 255 0 0
-10.9687 -1.24058 -4.27929 255 0 0
-10.6779 -1.25901 -4.22009 255 0 0
-10.4639 -1.30929 -4.17747 255 0 0
-10.3185 -1.31596 -4.14786 255 0 0
-10.3666 -1.34708 -4.15852 255 0 0
-9.8162 -1.39408 -4.04722 255 0 0
-9.83557 -1.42063 -4.05196 255 0 0
-9.73798 -1.45371 -4.03301 255 0 0
-9.61763 -1.4824 -4.00933 255 0 0
-9.54998 -1.50677 -3.99631 255 0 0
-9.50693 -1.55778 -3.9892 255 0 0
-9.392 -1.58472 -3.96671 255 0 0
-9.51822 -1.62924 -3.99394 255 0 0
-9.38784 -1.67574 -3.96907 255 0 0
-9.35313 -1.73828 -3.96434 255 0 0
-9.37995 -1.81238 -3.97263 255 0 0
-9.38254 -1.91695 -3.97736 255 0 0
-9.36541 -1.97135 -3.97618 255 0 0
-9.41874 -2.18168 -3.99631 255 0 0
-9.45076 -2.31935 -4.00933 255 0 0
-9.48976 -2.35279 -4.0188 255 0 0
-9.3729 -2.34742 -3.99512 255 0 0
-9.41735 -2.38229 -4.00578 255 0 0
-9.53297 -2.50798 -4.03538 255 0 0
-8.97493 -2.07888 -4.96797 255 0 0
-9.38326 -2.26746 -4.33029 255 0 0
-11.2349 -1.08217 -4.72463 255 0 0
-9.23404 -1.33375 -4.417 255 0 0
-10.8324 -1.19915 -4.53521 255 0 0
-9.21584 -1.93986 -4.35644 255 0 0
-9.1042 -2.05203 -4.33512 255 0 0
-11.8741 -1.08694 -4.56556 255 0 0
-11.4958 -1.13482 -4.4855 255 0 0
-11.3678 -1.1494 -4.45841 255 0 0
-11.2454 -1.16397 -4.43254 255 0 0
-10.7902 -1.22039 -4.33647 255 0 0
-10.6736 -1.23284 -4.31184 255 0 0
-10.591 -1.24876 -4.29459 255 0 0
-10.5312 -1.26703 -4.28228 255 0 0
-10.4316 -1.28014 -4.26134 255 0 0
-10.1724 -1.32185 -4.20715 255 0 0
-10.1182 -1.33921 -4.19606 255 0 0
-9.98131 -1.36928 -4.16773 255 0 0
-9.86465 -1.37711 -4.1431 255 0 0
-9.71302 -1.42645 -4.11231 255 0 0
-9.61559 -1.45876 -4.0926 255 0 0
-9.47032 -1.51722 -4.06366 255 0 0
-9.47899 -1.62252 -4.0692 255 0 0
-9.41872 -1.6352 -4.05688 255 0 0
-9.44101 -1.67369 -4.06304 255 0 0
-9.42374 -1.70521 -4.06058 255 0 0
-9.40841 -1.72549 -4.05811 255 0 0
-9.42753 -1.76369 -4.06366 255 0 0
-9.42468 -1.80945 -4.06489 255 0 0
-9.43285 -1.85741 -4.06858 255 0 0
-9.51985 -1.93324 -4.09014 255 0 0
-9.91969 -2.06347 -4.18005 255 0 0
-10.1164 -2.12943 -4.22439 255 0 0
-9.43118 -2.10225 -4.07905 255 0 0
-9.46018 -2.15585 -4.08767 255 0 0
-10.7436 -2.47514 -4.37219 255 0 0
-10.6429 -2.47853 -4.35125 255 0 0
-9.4508 -2.29562 -4.0926 255 0 0
-9.48425 -2.32757 -4.10122 255 0 0
-9.58971 -2.40172 -4.12709 255 0 0
-9.66724 -2.44551 -4.14556 255 0 0
-9.51721 -2.43158 -4.11354 255 0 0
-9.45572 -2.46369 -4.10245 255 0 0
-9.5495 -2.51232 -4.12462 255 0 0
-9.50983 -2.55017 -4.11847 255 0 0
-9.59216 -2.59664 -4.13817 255 0 0
-8.99746 -1.56207 -4.69266 255 0 0
-9.165 -1.3904 -4.48385 255 0 0
-8.97923 -1.36222 -5.00944 255 0 0
-9.0292 -1.58964 -4.45657 255 0 0
-8.9579 -1.38072 -4.83708 255 0 0
-11.4736 -0.885887 -4.57631 255 0 0
-11.5296 -0.97276 -4.59038 255 0 0
-11.4961 -1.12109 -4.5859 255 0 0
-11.2534 -1.16479 -4.53281 255 0 0
-11.1085 -1.17643 -4.50083 255 0 0
-10.603 -1.22469 -4.38954 255 0 0
-10.2961 -1.2883 -4.32302 255 0 0
-10.1596 -1.32018 -4.2936 255 0 0
-10.0828 -1.33452 -4.27697 255 0 0
-9.98332 -1.34545 -4.25523 255 0 0
-11.2166 -1.02675 -5.11859 255 0 0
-9.81837 -1.37065 -4.21941 255 0 0
-9.79812 -1.39152 -4.21557 255 0 0
-9.70431 -1.40168 -4.1951 255 0 0
-9.44553 -1.43296 -4.13882 255 0 0
-9.39128 -1.44751 -4.12731 255 0 0
-9.35458 -1.53282 -4.12219 255 0 0
-9.37724 -1.57079 -4.12859 255 0 0
-9.29838 -1.59161 -4.11196 255 0 0
-9.3171 -1.61756 -4.11707 255 0 0
-9.32058 -1.66373 -4.11963 255 0 0
-9.33506 -1.71203 -4.12475 255 0 0
-9.30851 -1.72999 -4.11963 255 0 0
-9.3444 -1.77105 -4.12923 255 0 0
-9.31626 -1.81153 -4.12475 255 0 0
-9.34779 -1.9445 -4.13754 255 0 0
-9.46057 -1.99138 -4.1644 255 0 0
-9.48377 -2.01975 -4.1708 255 0 0
-9.39326 -2.16404 -4.15801 255 0 0
-10.648 -2.51968 -4.44966 255 0 0
-9.45579 -2.29683 -4.17847 255 0 0
-9.35879 -2.30854 -4.15801 255 0 0
-9.38378 -2.35015 -4.16568 255 0 0
-9.45573 -2.39201 -4.18359 255 0 0
-9.41682 -2.40593 -4.17592 255 0 0
-9.77625 -2.52247 -4.26034 255 0 0
-9.42671 -2.50393 -4.18359 255 0 0
-9.51196 -2.64769 -4.21045 255 0 0
-10.0404 -2.03895 -4.47319 255 0 0
-9.49528 -1.21097 -4.99625 255 0 0
-9.05809 -1.81712 -4.64081 255 0 0
-8.92998 -1.33309 -5.07537 255 0 0
-9.2266 -1.87367 -4.35572 255 0 0
-9.03249 -2.21669 -4.74234 255 0 0
-9.5349 -1.35413 -4.3248 255 0 0
-9.10967 -2.16706 -4.42581 255 0 0
-8.97889 -1.60274 -4.68935 255 0 0
-9.33302 -1.51793 -4.19957 255 0 0
-10.4286 -1.82329 -4.55563 255 0 0
-11.4291 -0.882452 -4.66655 255 0 0
-11.427 -0.909548 -4.66655 255 0 0
-11.4567 -0.966601 -4.67451 255 0 0
-11.5907 -1.00559 -4.70635 255 0 0
-11.4779 -1.05067 -4.68114 255 0 0
-11.5549 -1.08534 -4.69972 255 0 0
-11.5125 -1.10891 -4.69043 255 0 0
-11.3085 -1.14341 -4.644 255 0 0
-11.3512 -1.17492 -4.65461 255 0 0
-10.9939 -1.19066 -4.57236 255 0 0
-10.5659 -1.22041 -4.47419 255 0 0
-10.4355 -1.25551 -4.445 255 0 0
-10.3532 -1.27052 -4.42643 255 0 0
-10.2709 -1.28515 -4.40786 255 0 0
-10.1208 -1.29074 -4.37336 255 0 0
-10.0894 -1.31106 -4.36673 255 0 0
-9.5528 -1.40292 -4.24601 255 0 0
-9.4592 -1.41209 -4.22478 255 0 0
-9.44455 -1.43281 -4.22213 255 0 0
-9.33623 -1.4617 -4.19825 255 0 0
-9.3332 -1.55205 -4.2009 255 0 0
-10.5599 -1.87205 -4.49475 255 0 0
-10.5565 -1.92312 -4.49608 255 0 0
-10.5525 -1.96117 -4.49674 255 0 0
-10.585 -2.01917 -4.50669 255 0 0
-10.4172 -2.08978 -4.47153 255 0 0
-10.296 -2.14175 -4.44633 255 0 0
-10.0007 -2.10507 -4.37734 255 0 0
-10.0408 -2.16329 -4.38928 255 0 0
-10.3087 -2.24659 -4.45429 255 0 0
-10.2588 -2.26121 -4.44368 255 0 0
-9.30771 -2.0979 -4.21947 255 0 0
-9.31383 -2.1225 -4.22213 255 0 0
-10.6034 -2.46933 -4.53256 255 0 0
-10.7085 -2.5206 -4.55909 255 0 0
-10.6249 -2.5275 -4.54052 255 0 0
-9.50427 -2.28475 -4.27386 255 0 0
-9.24944 -2.2467 -4.21417 255 0 0
-9.33825 -2.29174 -4.23672 255 0 0
-9.36046 -2.32073 -4.24335 255 0 0
-9.39366 -2.35262 -4.25264 255 0 0
-9.32171 -2.3581 -4.23672 255 0 0
-9.32147 -2.40513 -4.23937 255 0 0
-9.69102 -2.525 -4.32958 255 0 0
-9.68197 -2.55945 -4.32958 255 0 0
-9.4029 -2.52149 -4.26458 255 0 0
-9.41341 -2.54825 -4.26856 255 0 0
-9.37983 -2.56304 -4.26193 255 0 0
-9.42836 -2.61238 -4.27585 255 0 0
-9.43274 -2.64975 -4.27917 255 0 0
-9.97055 -1.24757 -4.51419 255 0 0
-9.04424 -1.36111 -4.6968 255 0 0
-9.12194 -2.56244 -4.7084 255 0 0
-8.91569 -1.5261 -4.9141 255 0 0
-9.01738 -1.368 -4.77187 255 0 0
-11.4861 -0.886849 -4.78096 255 0 0
-9.03664 -2.46927 -4.76221 255 0 0
-11.661 -0.98384 -4.82493 255 0 0
-11.4885 -0.996726 -4.78371 255 0 0
-11.4351 -1.01941 -4.77135 255 0 0
-11.1247 -1.09818 -4.69853 255 0 0
-10.8985 -1.12807 -4.64494 255 0 0
-10.7826 -1.14192 -4.61746 255 0 0
-10.5961 -1.173 -4.57349 255 0 0
-10.4858 -1.18596 -4.54739 255 0 0
-10.3755 -1.19841 -4.52128 255 0 0
-10.2935 -1.21368 -4.50204 255 0 0
-10.155 -1.22176 -4.46907 255 0 0
-10.0305 -1.25506 -4.44021 255 0 0
-9.96536 -1.27092 -4.4251 255 0 0
-9.88895 -1.28501 -4.40724 255 0 0
-9.62016 -1.31973 -4.34403 255 0 0
-9.39202 -1.36795 -4.29114 255 0 0
-9.30047 -1.42224 -4.27121 255 0 0
-9.24503 -1.46988 -4.25976 255 0 0
-9.152 -1.52192 -4.23961 255 0 0
-10.4837 -1.87135 -4.57074 255 0 0
-10.4456 -1.89012 -4.5625 255 0 0
-10.4487 -1.96753 -4.56662 255 0 0
-10.1289 -2.03193 -4.4938 255 0 0
-10.3802 -2.27509 -4.56525 255 0 0
-10.386 -2.32802 -4.56937 255 0 0
-9.95604 -2.2937 -4.46632 255 0 0
-9.38346 -2.31464 -4.33304 255 0 0
-9.35291 -2.3896 -4.33029 255 0 0
-9.50153 -2.45159 -4.36877 255 0 0
-9.67145 -2.54441 -4.41411 255 0 0
-9.47835 -2.51765 -4.36739 255 0 0
-9.48885 -2.54454 -4.37151 255 0 0
-9.38389 -2.54026 -4.34678 255 0 0
-9.3385 -2.58745 -4.33923 255 0 0
-9.34294 -2.62452 -4.34266 255 0 0
-9.36639 -2.66709 -4.3509 255 0 0
-9.04299 -2.28759 -4.83486 255 0 0
-9.06661 -1.77415 -4.64081 255 0 0
-12.1819 -0.940573 -5.05711 255 0 0
-11.1272 -1.07179 -4.79702 255 0 0
-10.972 -1.08311 -4.75865 255 0 0
-10.9581 -1.10798 -4.75581 255 0 0
-10.645 -1.15287 -4.67906 255 0 0
-10.3952 -1.16322 -4.61724 255 0 0
-10.2189 -1.18032 -4.57389 255 0 0
-10.0497 -1.20909 -4.53267 255 0 0
-9.9622 -1.22254 -4.51135 255 0 0
-9.67424 -1.28044 -4.44171 255 0 0
-9.4817 -1.34658 -4.39623 255 0 0
-9.37729 -1.35444 -4.37065 255 0 0
-9.29211 -1.38715 -4.35075 255 0 0
-9.30957 -1.42362 -4.35644 255 0 0
-9.24272 -1.44706 -4.3408 255 0 0
-9.19264 -1.47274 -4.32943 255 0 0
-9.23979 -1.53652 -4.34364 255 0 0
-9.27515 -1.63294 -4.35644 255 0 0
-9.29362 -1.65892 -4.36212 255 0 0
-9.18346 -1.66173 -4.33512 255 0 0
-9.23536 -1.69375 -4.34933 255 0 0
-9.47704 -1.76131 -4.41186 255 0 0
-9.30506 -1.84372 -4.37349 255 0 0
-9.12567 -2.03415 -4.33938 255 0 0
-9.16023 -2.0875 -4.35075 255 0 0
-9.14418 -2.10666 -4.34791 255 0 0
-9.10897 -2.13269 -4.3408 255 0 0
-9.26208 -2.24977 -4.38486 255 0 0
-9.23482 -2.32446 -4.38273 255 0 0
-9.20174 -2.35098 -4.37633 255 0 0
-9.24545 -2.40891 -4.39055 255 0 0
-9.26718 -2.43805 -4.39765 255 0 0
-9.32725 -2.47751 -4.41471 255 0 0
-9.22744 -2.50964 -4.39268 255 0 0
-9.23763 -2.54774 -4.39765 255 0 0
-9.27534 -2.58182 -4.40902 255 0 0
-9.29106 -2.60995 -4.41471 255 0 0
-9.31764 -2.64127 -4.42323 255 0 0
-9.30589 -2.66179 -4.42181 255 0 0
-9.42842 -2.76954 -4.45877 255 0 0
-9.00083 -1.57366 -4.77697 255 0 0
-9.06546 -1.68482 -4.553 255 0 0
-9.07788 -2.37675 -4.85189 255 0 0
-9.04722 -1.65924 -4.54675 255 0 0
-8.99429 -1.3645 -4.84757 255 0 0
-11.3174 -1.03598 -4.94416 255 0 0
-10.8247 -1.06857 -4.81788 255 0 0
-9.36938 -1.30797 -4.45078 255 0 0
-9.18667 -1.30468 -4.40379 255 0 0
-9.25066 -1.41462 -4.42435 255 0 0
-9.20294 -1.46319 -4.41407 255 0 0
-9.11551 -1.47146 -4.39204 255 0 0
-9.15679 -1.6345 -4.40966 255 0 0
-9.22978 -1.82881 -4.43756 255 0 0
-9.14762 -1.83508 -4.417 255 0 0
-9.24878 -1.8782 -4.4449 255 0 0
-9.08592 -1.92375 -4.40599 255 0 0
-9.09331 -1.97045 -4.4104 255 0 0
-9.10009 -2.00581 -4.41407 255 0 0
-9.02966 -2.03523 -4.39792 255 0 0
-9.07454 -2.06797 -4.41113 255 0 0
-9.06464 -2.11098 -4.41113 255 0 0
-9.22513 -2.17143 -4.45518 255 0 0
-9.04388 -2.17408 -4.40966 255 0 0
-9.06099 -2.2237 -4.417 255 0 0
-9.11902 -2.27235 -4.43463 255 0 0
-9.18498 -2.3583 -4.45665 255 0 0
-9.20945 -2.39953 -4.46546 255 0 0
-9.33435 -2.69389 -4.51686 255 0 0
-9.33831 -2.73104 -4.52053 255 0 0
-8.95949 -1.38096 -5.00391 255 0 0
-9.09096 -2.29973 -4.51265 255 0 0
-9.05722 -2.6605 -4.86892 255 0 0
-11.4496 -0.993351 -5.07943 255 0 0
-11.0199 -1.0351 -4.96577 255 0 0
-10.9048 -1.05038 -4.93546 255 0 0
-10.1186 -1.12014 -4.72784 255 0 0
-9.98399 -1.15319 -4.69299 255 0 0
-9.79872 -1.1789 -4.64449 255 0 0
-9.72292 -1.19317 -4.62479 255 0 0
-9.69761 -1.21342 -4.61873 255 0 0
-9.53471 -1.23898 -4.5763 255 0 0
-9.35195 -1.28294 -4.52932 255 0 0
-9.22185 -1.35432 -4.49749 255 0 0
-9.13471 -1.36365 -4.47476 255 0 0
-9.18793 -1.42733 -4.49143 255 0 0
-9.1308 -1.46282 -4.47779 255 0 0
-9.10911 -1.55921 -4.47628 255 0 0
-9.10335 -1.62496 -4.47779 255 0 0
-9.09456 -1.73488 -4.48082 255 0 0
-9.07167 -1.76397 -4.47628 255 0 0
-9.06002 -1.90706 -4.48082 255 0 0
-9.09973 -1.93797 -4.49295 255 0 0
-9.07299 -1.95477 -4.48688 255 0 0
-9.09436 -2.11792 -4.50204 255 0 0
-9.09324 -2.22017 -4.5081 255 0 0
-9.14019 -2.26612 -4.52326 255 0 0
-9.12382 -2.28504 -4.52022 255 0 0
-9.1348 -2.33388 -4.52629 255 0 0
-9.11663 -2.49112 -4.53235 255 0 0
-9.1216 -2.51574 -4.53538 255 0 0
-9.20824 -2.56314 -4.56114 255 0 0
-9.23951 -2.61912 -4.57327 255 0 0
-9.31439 -2.67617 -4.59676 255 0 0
-9.07351 -2.51406 -4.6069 255 0 0
-11.0456 -1.03751 -5.07172 255 0 0
-10.6505 -1.07688 -4.96391 255 0 0
-10.5106 -1.11311 -4.92642 255 0 0
-9.85778 -1.1623 -4.7483 255 0 0
-9.61969 -1.20366 -4.68424 255 0 0
-9.4404 -1.22673 -4.63581 255 0 0
-9.30844 -1.27697 -4.60143 255 0 0
-9.21691 -1.32013 -4.578 255 0 0
-9.10608 -1.33732 -4.54831 255 0 0
-9.13474 -1.37473 -4.55768 255 0 0
-9.05172 -1.39518 -4.53581 255 0 0
-9.04667 -1.51542 -4.53972 255 0 0
-8.99953 -1.57342 -4.52956 255 0 0
-8.98277 -1.60343 -4.52644 255 0 0
-9.09547 -1.7686 -4.5655 255 0 0
-9.09035 -1.82358 -4.56706 255 0 0
-9.02898 -1.91171 -4.55534 255 0 0
-9.04147 -2.02664 -4.5655 255 0 0
-9.04551 -2.07264 -4.5694 255 0 0
-9.03624 -2.14959 -4.57175 255 0 0
-9.05307 -2.17629 -4.578 255 0 0
-9.13872 -2.27727 -4.60768 255 0 0
-9.13591 -2.35725 -4.61237 255 0 0
-9.09753 -2.37037 -4.60299 255 0 0
-9.05266 -2.46212 -4.59753 255 0 0
-9.14873 -2.56997 -4.63112 255 0 0
-9.22635 -2.62723 -4.65612 255 0 0
-9.14912 -2.71107 -4.64206 255 0 0
-9.27242 -2.77155 -4.67955 255 0 0
-9.15027 -2.52365 -4.71322 255 0 0
-10.8379 -1.04394 -5.11232 255 0 0
-10.5416 -1.06587 -5.02864 255 0 0
-10.3349 -1.0945 -4.97071 255 0 0
-10.1699 -1.10142 -4.92404 255 0 0
-9.98 -1.12875 -4.87093 255 0 0
-9.68106 -1.16474 -4.78725 255 0 0
-9.50784 -1.18967 -4.73897 255 0 0
-9.36252 -1.21661 -4.69874 255 0 0
-9.25357 -1.22477 -4.66816 255 0 0
-9.26738 -1.24896 -4.67299 255 0 0
-9.11981 -1.3283 -4.63437 255 0 0
-9.16744 -1.39077 -4.65046 255 0 0
-9.168 -1.42423 -4.65207 255 0 0
-9.10728 -1.44799 -4.63598 255 0 0
-9.07342 -1.79783 -4.64403 255 0 0
-9.08244 -1.86685 -4.65046 255 0 0
-9.08224 -1.923 -4.65368 255 0 0
-9.08995 -2.07148 -4.66495 255 0 0
-9.09944 -2.13046 -4.67138 255 0 0
-9.08714 -2.23011 -4.6746 255 0 0
-9.09006 -2.26515 -4.67782 255 0 0
-9.08194 -2.32037 -4.67943 255 0 0
-9.08898 -2.36813 -4.68479 255 0 0
-9.1768 -2.55439 -4.72288 255 0 0
-9.1738 -2.64755 -4.72932 255 0 0
-9.18173 -2.72074 -4.73736 255 0 0
-9.22919 -2.75862 -4.75346 255 0 0
-8.9633 -1.83129 -4.94732 255 0 0
-10.5274 -1.06443 -5.11991 255 0 0
-10.2154 -1.13085 -5.03048 255 0 0
-10.0508 -1.13676 -4.98246 255 0 0
-9.8305 -1.13546 -4.91787 255 0 0
-9.58524 -1.15322 -4.84667 255 0 0
-9.42907 -1.22525 -4.80361 255 0 0
-9.33705 -1.23582 -4.77711 255 0 0
-9.18938 -1.23845 -4.73406 255 0 0
-9.12222 -1.27347 -4.71584 255 0 0
-8.96996 -1.38257 -4.6761 255 0 0
-9.01877 -1.43391 -4.69266 255 0 0
-9.03958 -1.48121 -4.70094 255 0 0
-8.99741 -1.52911 -4.691 255 0 0
-8.98932 -1.67069 -4.69597 255 0 0
-8.9848 -1.72498 -4.69763 255 0 0
-9.01299 -1.78585 -4.70922 255 0 0
-8.99891 -1.82746 -4.70756 255 0 0
-8.99015 -1.87011 -4.70756 255 0 0
-9.00218 -1.89489 -4.71253 255 0 0
-9.02512 -1.92208 -4.72081 255 0 0
-9.02139 -1.96605 -4.72247 255 0 0
-9.02293 -2.01125 -4.72578 255 0 0
-9.02163 -2.37345 -4.75062 255 0 0
-9.03198 -2.42202 -4.75724 255 0 0
-9.08306 -2.57477 -4.78374 255 0 0
-9.08609 -2.64559 -4.79036 255 0 0
-10.1871 -1.10327 -5.11409 255 0 0
-9.97574 -1.12827 -5.0511 255 0 0
-9.78667 -1.15392 -4.99491 255 0 0
-9.87006 -1.21123 -5.02215 255 0 0
-9.33626 -1.19069 -4.8604 255 0 0
-9.28052 -1.22833 -4.84508 255 0 0
-9.22206 -1.24285 -4.82805 255 0 0
-9.1008 -1.28147 -4.79315 255 0 0
-9.02688 -1.30383 -4.77187 255 0 0
-8.99725 -1.33223 -4.7642 255 0 0
-9.07502 -1.39877 -4.79059 255 0 0
-8.99972 -1.40902 -4.76846 255 0 0
-9.01849 -1.43387 -4.77527 255 0 0
-8.9784 -1.47117 -4.76506 255 0 0
-8.95296 -1.52156 -4.75995 255 0 0
-9.02443 -1.63296 -4.78719 255 0 0
-8.98535 -1.66994 -4.77754 255 0 0
-8.98653 -1.71427 -4.78038 255 0 0
-8.96043 -1.73132 -4.77357 255 0 0
-8.99609 -1.7825 -4.78719 255 0 0
-8.9787 -1.81226 -4.78378 255 0 0
-8.97875 -1.86774 -4.78719 255 0 0
-9.01717 -1.87573 -4.79911 255 0 0
-8.98945 -1.92562 -4.794 255 0 0
-8.98172 -2.01326 -4.79741 255 0 0
-9.05789 -2.13206 -4.82805 255 0 0
-8.99111 -2.21787 -4.81443 255 0 0
-9.01034 -2.32485 -4.82805 255 0 0
-9.05742 -2.47494 -4.85359 255 0 0
-9.11978 -2.58518 -4.88083 255 0 0
-9.2109 -2.75316 -4.9217 255 0 0
-9.86143 -1.21017 -5.10994 255 0 0
-9.18206 -1.19316 -4.8983 255 0 0
-9.06148 -1.33077 -4.86681 255 0 0
-8.96434 -1.33822 -4.83708 255 0 0
-9.00428 -1.40973 -4.85282 255 0 0
-8.97749 -1.47103 -4.84757 255 0 0
-8.9383 -1.51908 -4.83795 255 0 0
-8.95565 -1.59859 -4.84757 255 0 0
-9.00046 -1.78337 -4.87206 255 0 0
-8.97869 -1.88994 -4.87206 255 0 0
-9.08229 -2.06974 -4.91579 255 0 0
-9.02501 -2.35147 -4.91929 255 0 0
-9.0504 -2.47303 -4.93678 255 0 0
-9.11631 -2.63096 -4.97001 255 0 0
-9.16271 -2.69149 -4.98925 255 0 0
-9.14558 -2.71003 -4.98575 255 0 0
-8.91479 -1.39572 -5.07349 255 0 0
-9.49789 -1.2113 -5.08468 255 0 0
-9.37893 -1.21874 -5.04697 255 0 0
-9.10793 -1.22747 -4.96079 255 0 0
-9.12155 -1.25133 -4.96617 255 0 0
-9.09096 -1.2691 -4.95719 255 0 0
-9.04862 -1.32888 -4.94642 255 0 0
-8.96733 -1.38217 -4.92308 255 0 0
-8.94231 -1.42176 -4.91709 255 0 0
-8.93557 -1.47504 -4.91769 255 0 0
-8.94469 -1.61853 -4.92847 255 0 0
-8.96276 -1.64375 -4.93565 255 0 0
-8.95975 -1.72017 -4.93924 255 0 0
-8.96628 -1.96517 -4.95719 255 0 0
-9.07923 -2.67868 -5.04966 255 0 0
-8.98074 -1.27543 -5.00575 255 0 0
-8.95259 -1.31477 -4.99839 255 0 0
-9.04661 -2.66904 -5.12547 255 0 0
-9.07987 -1.22369 -5.12068 255 0 0
-8.96667 -1.27343 -5.08481 255 0 0
-8.91118 -1.30869 -5.06782 255 0 0
-8.93887 -1.36694 -5.08009 255 0 0
