ply
format ascii 1.0
comment Created by Open3D
element vertex 81
property double x
property double y
property double z
property uchar red
property uchar green
property uchar blue
end_header
-26.0207 -5.7354 -4.33116 255 0 0
-25.9312 -6.75641 -4.34443 255 0 0
-25.6394 -5.77897 -4.74033 255 0 0
-25.9363 -5.0752 -4.75551 255 0 0
-25.7108 -5.85916 -4.74944 255 0 0
-26.1322 -5.56537 -4.56147 255 0 0
-25.7112 -5.2213 -4.73547 255 0 0
-26.8135 -4.98329 -4.84355 255 0 0
-26.3163 -5.73515 -4.58215 255 0 0
-26.3422 -5.28443 -4.35056 255 0 0
-25.939 -9.04443 -4.8642 255 0 0
-25.719 -5.41365 -4.74033 255 0 0
-26.2495 -5.33063 -4.34341 255 0 0
-25.7625 -6.58214 -4.54918 255 0 0
-25.8823 -6.67816 -4.56259 255 0 0
-26.1522 -5.56961 -4.33933 255 0 0
-26.6401 -5.08187 -4.60003 255 0 0
-25.6778 -5.15116 -4.73061 255 0 0
-26.4898 -7.50904 -4.17845 255 0 0
-26.0712 -5.48779 -4.55421 255 0 0
-25.9189 -8.35368 -4.8393 255 0 0
-25.985 -8.78496 -4.85995 255 0 0
-26.1916 -6.89059 -4.36944 255 0 0
-25.7245 -6.18396 -4.75854 255 0 0
-26.1998 -5.0623 -4.78223 255 0 0
-26.1955 -8.51145 -4.40975 255 0 0
-25.8042 -5.11291 -4.74276 255 0 0
-26.5192 -5.12401 -4.58941 255 0 0
-26.5356 -5.19247 -4.59221 255 0 0
-26.3345 -5.21799 -4.57377 255 0 0
-26.6471 -5.01775 -4.82716 255 0 0
-26.4292 -5.04163 -4.8053 255 0 0
-26.2918 -6.12285 -4.36178 255 0 0
-26.1298 -5.43546 -4.55868 255 0 0
-25.6719 -5.46734 -4.73669 255 0 0
-26.0319 -8.66348 -4.86056 255 0 0
-25.7081 -6.05123 -4.75369 255 0 0
-26.0147 -8.93267 -4.86784 255 0 0
-25.9586 -8.84467 -4.85934 255 0 0
-25.6383 -6.292 -4.75247 255 0 0
-25.6487 -5.97309 -4.74579 255 0 0
-25.8423 -7.39174 -4.35158 255 0 0
-25.6645 -5.27522 -4.73183 255 0 0
-25.7987 -6.72187 -4.55589 255 0 0
-26.0082 -8.58713 -4.8557 255 0 0
-26.134 -5.37171 -4.33423 255 0 0
-26.1726 -5.44435 -4.33882 255 0 0
-26.2052 -5.516 -4.3429 255 0 0
-26.692 -5.75077 -4.38883 255 0 0
-26.6441 -5.80659 -4.38577 255 0 0
-26.3916 -5.94851 -4.36689 255 0 0
-26.5961 -6.12728 -4.38781 255 0 0
-26.4759 -6.23195 -4.37964 255 0 0
-26.0738 -6.33337 -4.34749 255 0 0
-26.2797 -6.4494 -4.3674 255 0 0
-26.3267 -8.4851 -4.41996 255 0 0
-26.2478 -5.26551 -4.5665 255 0 0
-26.1838 -5.31729 -4.56147 255 0 0
-26.0912 -5.36292 -4.55365 255 0 0
-26.2386 -5.6531 -4.57321 255 0 0
-26.2862 -5.92475 -4.58327 255 0 0
-26.042 -5.99961 -4.56203 255 0 0
-26.0049 -6.05605 -4.5598 255 0 0
-25.9669 -6.24224 -4.56036 255 0 0
-25.9407 -6.30103 -4.55924 255 0 0
-25.8793 -7.33599 -4.5788 255 0 0
-26.1922 -8.51037 -4.64026 255 0 0
-26.0409 -8.59793 -4.62909 255 0 0
-25.669 -5.33961 -4.73365 255 0 0
-25.6418 -5.52451 -4.73486 255 0 0
-25.6798 -5.59645 -4.74033 255 0 0
-25.6494 -5.65356 -4.73851 255 0 0
-25.6701 -5.72197 -4.74215 255 0 0
-25.6344 -5.90572 -4.74276 255 0 0
-25.6984 -6.24219 -4.75733 255 0 0
-25.6798 -6.36678 -4.75854 255 0 0
-25.6993 -6.76108 -4.77069 255 0 0
-26.0597 -8.4673 -4.85691 255 0 0
-26.1391 -8.56169 -4.86784 255 0 0
-26.0058 -8.72333 -4.85995 255 0 0
-26.0155 -9.00194 -4.87027 255 0 0
