ply
format ascii 1.0
comment Created by Open3D
element vertex 215
property double x
property double y
property double z
property uchar red
property uchar green
property uchar blue
end_header
41.0671 -2.48598 -2.85497 255 0 0
37.818 -2.46934 -1.52751 255 0 0
41.9904 -2.44196 -1.47561 255 0 0
36.4412 -2.55304 -4.28002 255 0 0
36.5955 -4.22692 -1.54072 255 0 0
36.389 -2.80963 -5.1931 255 0 0
36.3961 -2.63662 -5.19259 255 0 0
36.453 -2.55387 -3.97602 255 0 0
44.6945 -2.4929 -4.04763 255 0 0
40.0116 -2.42209 -4.83648 255 0 0
46.5051 -2.4833 -4.13031 255 0 0
36.5644 -2.56167 -1.84768 255 0 0
36.5789 -4.75322 -1.23347 255 0 0
36.5629 -4.31102 -1.23493 255 0 0
36.4585 -2.64114 -3.97665 255 0 0
36.5096 -2.64484 -3.36967 255 0 0
43.6149 -2.43269 -5.09108 255 0 0
36.57 -4.3998 -1.23457 255 0 0
36.5891 -3.26185 -1.23664 255 0 0
35.6848 -4.46507 -1.85055 255 0 0
36.7108 -2.48448 -5.21913 255 0 0
44.3834 -2.47555 -3.29343 255 0 0
43.7323 -2.43924 -2.54607 255 0 0
36.5537 -3.69596 -1.23652 255 0 0
36.5693 -2.73634 -2.15239 255 0 0
36.5813 -3.34859 -1.23664 255 0 0
36.5726 -2.73659 -2.45724 255 0 0
47.8573 -2.44173 -2.19913 255 0 0
36.6009 -4.66786 -1.53999 255 0 0
50.6025 -2.46151 -4.73955 255 0 0
41.7419 -2.52683 -2.17378 255 0 0
36.557 -4.04689 -1.54145 255 0 0
40.5352 -2.45378 -1.49371 255 0 0
38.4662 -2.42009 -5.04946 255 0 0
36.5557 -3.78375 -1.54181 255 0 0
37.4061 -2.44244 -4.65257 255 0 0
36.555 -2.82244 -3.37186 255 0 0
36.5103 -2.73192 -4.28512 255 0 0
36.5681 -2.64908 -2.7619 255 0 0
45.7199 -2.44137 -2.57082 255 0 0
47.4992 -2.42345 -5.36551 255 0 0
46.7252 -2.49505 -4.53025 255 0 0
36.5843 -2.82471 -1.23749 255 0 0
50.6667 -2.46463 -3.47599 255 0 0
39.2091 -2.46682 -1.1836 255 0 0
36.5501 -4.92584 -1.2336 255 0 0
36.88 -2.49592 -1.84639 255 0 0
36.5666 -3.4347 -1.54211 255 0 0
36.6213 -5.02387 -1.84639 255 0 0
36.5533 -3.5209 -1.23688 255 0 0
44.0452 -2.45669 -2.18332 255 0 0
36.5776 -4.40071 -1.8469 255 0 0
36.5615 -2.56147 -3.67653 255 0 0
36.5907 -4.84301 -1.23299 255 0 0
36.6478 -5.0275 -1.53882 255 0 0
36.3554 -2.80703 -4.58024 255 0 0
36.5925 -4.40251 -1.5405 255 0 0
36.7321 -2.48592 -1.23493 255 0 0
36.5247 -4.57016 -1.54108 255 0 0
38.8522 -2.44437 -2.48534 255 0 0
36.5565 -3.60871 -1.23664 255 0 0
36.5731 -5.01726 -1.23287 255 0 0
40.7397 -2.46616 -2.50884 255 0 0
39.3517 -2.4758 -3.80362 255 0 0
36.5642 -3.52195 -1.54203 255 0 0
36.5894 -2.8251 -1.54247 255 0 0
36.8521 -2.84538 -2.46081 255 0 0
36.5623 -2.64865 -1.23822 255 0 0
36.6144 -2.56518 -1.5424 255 0 0
36.5731 -4.13648 -1.84705 255 0 0
36.5763 -4.13685 -1.54108 255 0 0
36.5842 -4.66573 -1.2336 255 0 0
35.9156 -4.49394 -1.24783 255 0 0
35.7053 -4.38168 -1.25245 255 0 0
36.5672 -4.22365 -1.23506 255 0 0
36.5538 -4.1343 -1.23554 255 0 0
36.5635 -4.04762 -1.23554 255 0 0
36.5789 -3.96155 -1.23542 255 0 0
36.5416 -3.86988 -1.23639 255 0 0
36.5506 -3.78322 -1.23639 255 0 0
36.5557 -3.43367 -1.237 255 0 0
36.5559 -3.17154 -1.23749 255 0 0
36.5692 -3.08535 -1.23737 255 0 0
36.5647 -2.99768 -1.23761 255 0 0
36.5659 -2.91051 -1.23773 255 0 0
36.5734 -2.73665 -1.23785 255 0 0
36.5802 -2.56278 -1.23797 255 0 0
37.8362 -2.47053 -1.21206 255 0 0
36.5816 -3.87411 -1.54138 255 0 0
36.5593 -2.82277 -3.06693 255 0 0
36.5668 -4.92808 -1.53999 255 0 0
45.6088 -2.43544 -1.43057 255 0 0
36.7022 -2.48389 -1.54138 255 0 0
44.4018 -2.47658 -1.8152 255 0 0
36.59 -4.84291 -1.53984 255 0 0
36.6014 -4.75614 -1.53984 255 0 0
35.5824 -4.36659 -1.55306 255 0 0
36.5912 -4.31436 -1.54065 255 0 0
36.5664 -3.9602 -1.54145 255 0 0
36.5646 -3.69706 -1.54181 255 0 0
36.5616 -3.60921 -1.54196 255 0 0
36.5863 -3.34905 -1.54196 255 0 0
36.5825 -3.26126 -1.54211 255 0 0
36.5901 -3.17451 -1.54211 255 0 0
36.5917 -3.08725 -1.54218 255 0 0
36.5989 -3.00049 -1.54218 255 0 0
36.5943 -2.91277 -1.54233 255 0 0
36.596 -2.73834 -1.54247 255 0 0
36.5615 -2.6486 -1.54298 255 0 0
39.3722 -2.47709 -1.50816 255 0 0
43.8843 -2.44771 -1.45203 255 0 0
47.6376 -2.43052 -1.40532 255 0 0
36.5677 -2.5619 -2.45702 255 0 0
38.5276 -2.51568 -2.16045 255 0 0
44.4218 -2.47769 -2.92455 255 0 0
38.1025 -2.48792 -3.74663 255 0 0
42.7556 -2.48647 -3.95907 255 0 0
36.7255 -2.48547 -2.45892 255 0 0
36.4959 -2.73085 -4.58974 255 0 0
36.4741 -4.47601 -1.84729 255 0 0
36.6026 -2.91344 -1.84741 255 0 0
36.5927 -2.73809 -1.84751 255 0 0
38.1478 -2.49088 -1.84114 255 0 0
40.9412 -2.47836 -1.82955 255 0 0
50.9333 -2.47761 -1.78809 255 0 0
36.7137 -5.12526 -2.15405 255 0 0
36.5618 -2.91019 -2.15242 255 0 0
36.529 -2.64624 -2.1522 255 0 0
36.658 -2.4809 -2.15268 255 0 0
40.1288 -2.52469 -2.16709 255 0 0
46.2961 -2.47214 -2.19266 255 0 0
50.5415 -2.45854 -2.21028 255 0 0
36.586 -2.56318 -2.76215 255 0 0
50.8406 -2.35228 -5.17656 255 0 0
36.5498 -2.64775 -2.45687 255 0 0
41.9378 -2.4389 -2.52373 255 0 0
47.7487 -2.43619 -2.59607 255 0 0
36.4673 -2.64177 -4.58726 255 0 0
48.7455 -2.48704 -4.63933 255 0 0
36.5843 -2.82471 -2.76251 255 0 0
36.6026 -2.73883 -2.76276 255 0 0
39.3025 -2.47271 -2.81835 255 0 0
42.7385 -2.48547 -2.88964 255 0 0
46.0702 -2.46008 -2.95874 255 0 0
48.2332 -2.46091 -3.00363 255 0 0
50.7824 -2.47027 -3.05654 255 0 0
38.7816 -2.43993 -4.74969 255 0 0
36.4853 -2.64308 -3.67332 255 0 0
48.9962 -2.38337 -5.06167 255 0 0
48.4787 -2.47343 -3.81631 255 0 0
36.56 -2.73564 -3.06676 255 0 0
36.5139 -2.64515 -3.06523 255 0 0
38.389 -2.50663 -3.11938 255 0 0
39.8902 -2.50968 -3.16298 255 0 0
40.971 -2.48016 -3.19432 255 0 0
42.8757 -2.49345 -3.24966 255 0 0
46.0139 -2.45707 -3.34077 255 0 0
48.609 -2.48008 -3.41622 255 0 0
36.5616 -2.73576 -3.37186 255 0 0
39.5113 -2.48584 -3.48133 255 0 0
41.0414 -2.48443 -3.53847 255 0 0
42.6594 -2.48087 -3.5989 255 0 0
44.3711 -2.47487 -3.66283 255 0 0
46.7257 -2.49508 -3.75084 255 0 0
50.8339 -2.47277 -3.90432 255 0 0
39.8821 -2.41425 -4.49376 255 0 0
36.5606 -2.73569 -3.67706 255 0 0
41.8015 -2.43098 -4.96295 255 0 0
36.5046 -2.7315 -3.9795 255 0 0
36.554 -2.82237 -3.67706 255 0 0
41.2258 -2.49559 -3.88924 255 0 0
48.1874 -2.45857 -4.2071 255 0 0
50.8397 -2.47305 -4.3283 255 0 0
36.5816 -3.61118 -1.84724 255 0 0
45.0511 -2.40566 -4.81583 255 0 0
46.5274 -2.37388 -4.90774 255 0 0
36.3815 -2.80904 -3.97317 255 0 0
37.8183 -2.46936 -4.04937 255 0 0
39.312 -2.4733 -4.12999 255 0 0
40.4733 -2.45004 -4.19259 255 0 0
42.1309 -2.45013 -4.28206 255 0 0
44.6993 -2.49317 -4.42086 255 0 0
36.4525 -2.6407 -4.28111 255 0 0
38.3831 -2.41486 -4.40038 255 0 0
41.2237 -2.39737 -4.57729 255 0 0
42.9622 -2.39628 -4.68561 255 0 0
38.1543 -2.4913 -5.34518 255 0 0
36.4735 -2.5553 -4.58726 255 0 0
45.3878 -2.42364 -5.21631 255 0 0
36.4208 -2.72523 -4.88966 255 0 0
36.4097 -2.6376 -4.88828 255 0 0
37.109 -2.42305 -4.94231 255 0 0
39.8818 -2.41423 -5.16122 255 0 0
41.3792 -2.40642 -5.27945 255 0 0
36.4247 -2.72552 -5.19565 255 0 0
36.4663 -2.5548 -5.19821 255 0 0
36.5345 -4.92373 -1.84681 255 0 0
36.5802 -4.66522 -1.84676 255 0 0
36.5552 -2.47394 -4.59264 255 0 0
36.5751 -4.84094 -1.84668 255 0 0
36.3372 -4.89714 -2.15237 255 0 0
36.5577 -3.17169 -1.84751 255 0 0
36.5923 -3.963 -1.84705 255 0 0
36.5749 -4.75269 -1.84673 255 0 0
36.569 -4.22385 -1.84702 255 0 0
36.4742 -2.46846 -4.89243 255 0 0
36.5821 -4.31329 -1.84693 255 0 0
36.5899 -3.87499 -1.8471 255 0 0
36.5466 -3.7828 -1.84732 255 0 0
36.5967 -3.26252 -1.84732 255 0 0
36.5767 -3.08599 -1.84746 255 0 0
37.6427 -2.4579 -2.4703 255 0 0
36.5683 -2.56195 -3.37164 255 0 0
36.599 -2.47691 -3.98361 255 0 0
36.3693 -2.548 -4.88458 255 0 0
