ply
format ascii 1.0
comment Created by Open3D
element vertex 129
property double x
property double y
property double z
property uchar red
property uchar green
property uchar blue
end_header
32.3831 7.29897 -4.62642 255 0 0
31.5139 7.41779 -4.29093 255 0 0
33.3444 7.34967 -4.41616 255 0 0
31.601 8.23366 -4.03819 255 0 0
31.6017 8.15389 -3.76482 255 0 0
31.5257 8.6948 -4.04111 255 0 0
31.6052 7.43929 -3.48522 255 0 0
30.4955 7.33088 -4.74402 255 0 0
32.174 7.41232 -3.78537 255 0 0
31.7309 7.38953 -4.03345 255 0 0
31.6789 8.65628 -2.95556 255 0 0
31.5333 7.73871 -4.02652 255 0 0
32.3916 7.38162 -4.35086 255 0 0
31.5705 7.51016 -4.02543 255 0 0
31.6082 8.63697 -4.04512 255 0 0
33.2772 7.08703 -4.12354 255 0 0
31.5598 7.82459 -4.30085 255 0 0
31.6399 8.56505 -4.04585 255 0 0
31.6203 8.55974 -2.95317 255 0 0
31.4984 8.52674 -4.30911 255 0 0
31.743 7.79018 -3.22298 255 0 0
31.6377 8.24324 -2.9513 255 0 0
31.6537 7.84788 -2.94891 255 0 0
31.6394 7.68526 -2.94738 255 0 0
31.6795 8.8181 -3.23043 255 0 0
32.4614 7.39755 -3.52295 255 0 0
31.7074 8.10102 -3.22452 255 0 0
31.6142 7.52056 -3.75723 255 0 0
31.7164 8.18348 -3.22561 255 0 0
33.147 7.30615 -4.68554 255 0 0
32.0299 7.29921 -4.59917 255 0 0
31.6264 8.96512 -3.50368 255 0 0
31.6605 8.4097 -2.95317 255 0 0
31.6292 8.48171 -2.95283 255 0 0
31.7116 9.07056 -3.23415 255 0 0
30.8192 7.33145 -4.77157 255 0 0
31.4764 8.36078 -4.30457 255 0 0
31.5412 7.58226 -4.0247 255 0 0
32.4576 7.55875 -2.96969 255 0 0
32.1205 7.56059 -2.96015 255 0 0
31.0898 7.47375 -4.5299 255 0 0
31.862 7.42005 -3.49646 255 0 0
31.7813 7.48074 -3.22167 255 0 0
31.5524 8.46111 -4.31159 255 0 0
31.7083 8.4224 -3.22758 255 0 0
33.3809 7.27476 -4.70308 255 0 0
31.6552 7.76862 -2.9484 255 0 0
32.8518 7.56849 -2.98093 255 0 0
31.852 7.57713 -2.95266 255 0 0
31.6518 7.60885 -2.94721 255 0 0
31.6293 7.92149 -2.94874 255 0 0
31.6331 8.0022 -2.94942 255 0 0
31.6481 8.08587 -2.95045 255 0 0
31.6118 8.1565 -2.94994 255 0 0
31.6181 8.31823 -2.9513 255 0 0
31.647 8.72826 -2.95521 255 0 0
31.8333 7.33383 -4.31159 255 0 0
33.0495 7.44917 -3.26765 255 0 0
32.6888 7.53093 -3.25517 255 0 0
31.9927 7.45049 -3.22911 255 0 0
31.6724 7.53441 -3.21817 255 0 0
31.6886 7.61769 -3.21948 255 0 0
31.6717 7.93209 -3.22167 255 0 0
31.6868 8.01577 -3.22298 255 0 0
31.7196 8.26456 -3.22649 255 0 0
31.8262 8.61547 -3.23371 255 0 0
31.8169 8.69399 -3.23415 255 0 0
31.7261 8.91217 -3.23306 255 0 0
31.5159 8.53149 -3.49352 255 0 0
32.2785 7.43641 -3.51519 255 0 0
31.559 7.50744 -3.48388 255 0 0
31.5529 7.90235 -3.4879 255 0 0
31.6148 8.15728 -3.49352 255 0 0
31.5474 8.45977 -3.49405 255 0 0
32.391 7.38149 -3.79644 255 0 0
31.7287 7.46836 -3.76261 255 0 0
31.7213 7.62556 -3.76419 255 0 0
31.6735 7.77311 -3.76356 255 0 0
31.7853 8.12091 -3.77399 255 0 0
31.6136 8.31705 -3.76767 255 0 0
31.6107 8.39648 -3.76862 255 0 0
31.999 8.90703 -3.79612 255 0 0
31.6808 8.98054 -3.78063 255 0 0
31.6538 9.05402 -3.78031 255 0 0
31.5383 8.21732 -4.30622 255 0 0
33.3174 7.17822 -4.12719 255 0 0
33.3117 7.25968 -4.12792 255 0 0
32.4437 7.3935 -4.07686 255 0 0
31.5484 7.42591 -4.02287 255 0 0
31.5402 7.66116 -4.02579 255 0 0
31.5978 8.15287 -4.03673 255 0 0
31.5955 8.39242 -4.04038 255 0 0
31.6037 8.47487 -4.0422 255 0 0
31.6923 8.90267 -4.05461 255 0 0
31.5542 9.02553 -4.04841 255 0 0
31.5945 9.11815 -4.05242 255 0 0
33.2873 7.08919 -4.4083 255 0 0
33.3332 7.18163 -4.41285 255 0 0
33.2648 7.24945 -4.40913 255 0 0
33.1787 7.39567 -4.40541 255 0 0
32.7337 7.378 -4.37441 255 0 0
31.5769 7.35365 -4.29423 255 0 0
31.5587 7.50736 -4.29547 255 0 0
31.5578 7.58626 -4.29671 255 0 0
31.5625 7.66657 -4.29837 255 0 0
31.5385 7.74 -4.29795 255 0 0
31.5542 8.06189 -4.30457 255 0 0
31.535 8.13668 -4.30457 255 0 0
31.5695 8.30545 -4.30994 255 0 0
31.5682 8.62603 -4.31573 255 0 0
31.5495 8.7819 -4.31738 255 0 0
31.5117 7.33848 -4.55992 255 0 0
32.7592 7.30217 -4.65552 255 0 0
31.7224 7.3083 -4.57562 255 0 0
31.3181 7.37171 -4.5456 255 0 0
31.2778 7.44054 -4.54375 255 0 0
31.0607 7.54469 -4.52897 255 0 0
31.0409 7.30647 -4.78995 255 0 0
31.4561 7.87811 -4.29465 255 0 0
31.6367 8.96804 -4.32688 255 0 0
31.6601 8.81269 -2.95624 255 0 0
31.656 8.89248 -2.95675 255 0 0
31.6574 8.97389 -2.95743 255 0 0
31.7849 8.76629 -3.23371 255 0 0
31.5563 7.98275 -4.30333 255 0 0
31.5815 8.71017 -4.31821 255 0 0
31.5623 8.86615 -4.31986 255 0 0
31.5367 9.02054 -4.3211 255 0 0
31.5882 9.11634 -4.32647 255 0 0
