ply
format ascii 1.0
comment Created by Open3D
element vertex 715
property double x
property double y
property double z
property uchar red
property uchar green
property uchar blue
end_header
-10.8939 -3.27029 -4.44732 255 0 0
-10.3828 -3.18405 -4.62158 255 0 0
-12.2305 -1.88513 -5.31585 255 0 0
-9.56379 -2.95773 -4.77174 255 0 0
-10.5341 -3.23046 -4.56307 255 0 0
-9.89857 -3.32036 -4.79756 255 0 0
-9.71993 -1.97388 -4.9245 255 0 0
-11.9982 -2.05374 -5.04574 255 0 0
-9.42589 -2.37257 -4.7784 255 0 0
-10.4835 -2.48076 -4.50603 255 0 0
-9.91746 -3.35287 -4.80513 255 0 0
-9.39449 -2.591 -4.78564 255 0 0
-9.85186 -3.09808 -4.76725 255 0 0
-9.45838 -3.39889 -5.0545 255 0 0
-10.1369 -3.26713 -4.66485 255 0 0
-11.4826 -1.85357 -5.42958 255 0 0
-12.1983 -2.0285 -5.09407 255 0 0
-12.1263 -2.04607 -5.07701 255 0 0
-11.2688 -2.96463 -4.40599 255 0 0
-11.2522 -2.03606 -4.76036 255 0 0
-11.2118 -2.41557 -4.7686 255 0 0
-9.69196 -1.89652 -5.18163 255 0 0
-9.88615 -3.27712 -4.79074 255 0 0
-10.5596 -1.96249 -4.87787 255 0 0
-9.48809 -2.17405 -4.78242 255 0 0
-9.41614 -2.7417 -4.80334 255 0 0
-9.53111 -2.01804 -4.96086 255 0 0
-9.3656 -3.29052 -5.38121 255 0 0
-11.4354 -3.18307 -4.45098 255 0 0
-10.5496 -2.88269 -4.44839 255 0 0
-9.79391 -1.86829 -5.21216 255 0 0
-10.5861 -3.02797 -4.46502 255 0 0
-10.5047 -1.82374 -5.33733 255 0 0
-10.0111 -1.86055 -5.37411 255 0 0
-11.3286 -1.85627 -5.38487 255 0 0
-10.9694 -2.11949 -4.59889 255 0 0
-10.7798 -2.05636 -4.74586 255 0 0
-9.93305 -1.89483 -5.07323 255 0 0
-9.40154 -2.36644 -4.94638 255 0 0
-9.45442 -3.19633 -4.94271 255 0 0
-9.89908 -1.93704 -4.97418 255 0 0
-9.64677 -1.97091 -4.99236 255 0 0
-9.42712 -3.2245 -5.11869 255 0 0
-9.45297 -3.37166 -4.95927 255 0 0
-9.40504 -3.25436 -5.11519 255 0 0
-9.39032 -2.03478 -5.09545 255 0 0
-10.8394 -2.85167 -4.4116 255 0 0
-9.91957 -2.68527 -4.75361 255 0 0
-9.38809 -2.38676 -5.0321 255 0 0
-10.3499 -2.33281 -4.56113 255 0 0
-9.80336 -3.00637 -4.74754 255 0 0
-9.41386 -2.00487 -5.10083 255 0 0
-9.90732 -1.96306 -4.88702 255 0 0
-9.78697 -1.87897 -5.30228 255 0 0
-12.5412 -1.84179 -5.05989 255 0 0
-9.55629 -3.1301 -4.78424 255 0 0
-10.1127 -2.91852 -4.63358 255 0 0
-9.456 -3.34749 -5.51001 255 0 0
-9.40776 -2.4989 -4.78242 255 0 0
-9.42201 -3.36062 -5.50034 255 0 0
-9.97606 -1.87853 -5.08515 255 0 0
-11.5322 -2.17155 -4.52492 255 0 0
-9.57882 -3.18785 -4.79517 255 0 0
-10.8917 -1.89094 -5.06078 255 0 0
-11.5841 -1.9687 -5.04402 255 0 0
-9.42225 -2.82852 -4.9898 255 0 0
-10.4883 -2.53448 -4.51001 255 0 0
-10.9387 -1.87237 -5.27226 255 0 0
-10.882 -2.68427 -4.4116 255 0 0
-12.67 -1.89141 -5.43254 255 0 0
-9.81196 -2.04106 -4.77486 255 0 0
-9.50694 -3.23922 -4.87093 255 0 0
-9.52943 -1.95873 -5.04522 255 0 0
-10.7405 -1.86468 -5.2143 255 0 0
-10.5909 -2.07241 -4.60509 255 0 0
-10.1653 -2.06432 -4.68719 255 0 0
-9.92502 -2.47319 -4.74073 255 0 0
-10.035 -1.91429 -5.01227 255 0 0
-12.0408 -2.06103 -4.84167 255 0 0
-9.39375 -2.85641 -4.80656 255 0 0
-9.43417 -2.22063 -4.94553 255 0 0
-11.7894 -2.07559 -4.78462 255 0 0
-9.85525 -2.83158 -4.74754 255 0 0
-12.2255 -2.00324 -5.09975 255 0 0
-9.41431 -2.28675 -4.8566 255 0 0
-10.9026 -3.11851 -4.43993 255 0 0
-10.5923 -3.24832 -4.48037 255 0 0
-10.5481 -2.4301 -4.51797 255 0 0
-9.54789 -3.02739 -4.7733 255 0 0
-10.6382 -1.89893 -4.99204 255 0 0
-9.93426 -2.37569 -4.73694 255 0 0
-9.41386 -2.46471 -4.78162 255 0 0
-9.51521 -3.26724 -4.87576 255 0 0
-9.40935 -2.54715 -4.96256 255 0 0
-9.46093 -2.02662 -5.02861 255 0 0
-9.92659 -2.89032 -4.77028 255 0 0
-11.4208 -2.12255 -4.60061 255 0 0
-12.1418 -1.93046 -5.18498 255 0 0
-10.8532 -2.60903 -4.40175 255 0 0
-9.37874 -2.82756 -5.06621 255 0 0
-9.59665 -1.92516 -5.24334 255 0 0
-11.3013 -3.05932 -4.82631 255 0 0
-9.44523 -2.28241 -4.77759 255 0 0
-10.2232 -1.87491 -5.44409 255 0 0
-10.2777 -2.29093 -4.54189 255 0 0
-9.85023 -3.04631 -4.7627 255 0 0
-11.2584 -2.93337 -4.70635 255 0 0
-10.0048 -2.16795 -4.743 255 0 0
-9.7437 -2.19618 -4.76549 255 0 0
-10.5089 -2.23807 -4.49939 255 0 0
-10.3177 -1.99356 -4.81574 255 0 0
-10.1424 -2.97925 -4.64495 255 0 0
-10.2491 -1.95512 -4.88892 255 0 0
-9.43412 -3.09008 -5.01704 255 0 0
-12.3901 -2.00006 -5.02966 255 0 0
-10.8915 -3.03167 -4.43254 255 0 0
-10.488 -1.82084 -5.42941 255 0 0
-9.43069 -2.96563 -4.82587 255 0 0
-10.2981 -1.93917 -4.90142 255 0 0
-9.49078 -3.15855 -4.94934 255 0 0
-10.8166 -2.30362 -4.66967 255 0 0
-9.84227 -2.91647 -4.75058 255 0 0
-11.8985 -1.97865 -5.12478 255 0 0
-10.1442 -2.84959 -4.63642 255 0 0
-10.3621 -2.64744 -4.58174 255 0 0
-10.4913 -2.09168 -4.58242 255 0 0
-11.3458 -2.02524 -4.88372 255 0 0
-10.2498 -2.41261 -4.54189 255 0 0
-10.4868 -2.44216 -4.5047 255 0 0
-10.5789 -2.47684 -4.4324 255 0 0
-9.59057 -2.03063 -4.89055 255 0 0
-10.6519 -2.28172 -4.43879 255 0 0
-10.5632 -2.83263 -4.44839 255 0 0
-10.3733 -1.87703 -5.10831 255 0 0
-9.45202 -1.96619 -5.46853 255 0 0
-10.8604 -3.0786 -4.42885 255 0 0
-9.51524 -1.93231 -5.48833 255 0 0
-11.2939 -2.9999 -4.71829 255 0 0
-9.90653 -1.91413 -5.06642 255 0 0
-11.4693 -2.47106 -4.42256 255 0 0
-11.1417 -2.15278 -4.54049 255 0 0
-11.3242 -3.42875 -4.96047 255 0 0
-11.1014 -2.03598 -4.82403 255 0 0
-12.2965 -1.86547 -5.44358 255 0 0
-12.541 -1.99391 -5.06538 255 0 0
-10.5789 -3.05307 -4.46502 255 0 0
-10.0262 -1.83879 -5.28398 255 0 0
-9.51522 -3.19176 -4.95927 255 0 0
-9.78755 -1.98761 -4.85484 255 0 0
-9.43729 -1.97479 -5.10622 255 0 0
-12.385 -1.78887 -5.13102 255 0 0
-10.4192 -1.9364 -4.93423 255 0 0
-11.626 -1.90501 -5.15672 255 0 0
-10.5674 -2.72661 -4.44327 255 0 0
-11.4371 -2.06952 -4.7037 255 0 0
-9.62248 -2.00164 -4.898 255 0 0
-10.417 -2.89959 -4.51531 255 0 0
-10.6409 -2.13465 -4.5246 255 0 0
-11.2341 -1.84079 -5.45972 255 0 0
-10.5962 -3.12622 -4.47333 255 0 0
-10.2417 -1.87832 -5.07023 255 0 0
-11.6423 -1.85104 -5.47595 255 0 0
-11.3341 -2.98182 -4.72625 255 0 0
-9.42733 -3.03843 -5.01023 255 0 0
-9.43584 -1.93949 -5.37077 255 0 0
-9.62441 -2.61763 -4.76158 255 0 0
-10.2042 -1.84643 -5.15155 255 0 0
-9.39764 -2.78472 -4.80173 255 0 0
-9.8195 -1.92147 -5.04088 255 0 0
-10.5046 -3.24869 -4.55777 255 0 0
-11.4271 -1.87242 -5.20609 255 0 0
-10.3971 -2.06011 -4.65206 255 0 0
-11.3374 -2.64026 -4.40362 255 0 0
-9.48364 -1.94932 -5.47843 255 0 0
-10.2953 -2.53954 -4.55975 255 0 0
-10.833 -1.88074 -5.1429 255 0 0
-9.46876 -2.1342 -5.03823 255 0 0
-10.8934 -1.83806 -5.45801 255 0 0
-10.2911 -2.60332 -4.5625 255 0 0
-10.9184 -2.16339 -4.49188 255 0 0
-9.81046 -2.98312 -4.74754 255 0 0
-10.2373 -3.23262 -4.68617 255 0 0
-9.85546 -2.02574 -4.7858 255 0 0
-9.39021 -2.97739 -4.90463 255 0 0
-11.2438 -3.24495 -4.72227 255 0 0
-11.3256 -3.26855 -4.84554 255 0 0
-10.2463 -2.00499 -4.79756 255 0 0
-9.40292 -2.72576 -4.97533 255 0 0
-10.2499 -1.85471 -5.3558 255 0 0
-9.39957 -3.32752 -5.39632 255 0 0
-9.5086 -3.29019 -5.05791 255 0 0
-10.5644 -2.64582 -4.43815 255 0 0
-12.2608 -2.09869 -4.78481 255 0 0
-9.60191 -2.77111 -4.76705 255 0 0
-12.3747 -1.87734 -5.02141 255 0 0
-10.8104 -2.7347 -4.39929 255 0 0
-9.57904 -1.92163 -5.14752 255 0 0
-9.4026 -2.49753 -5.04522 255 0 0
-10.5746 -1.88757 -5.07048 255 0 0
-9.71118 -2.23729 -4.75924 255 0 0
-11.3196 -3.12195 -4.83455 255 0 0
-11.0076 -2.15396 -4.51107 255 0 0
-9.55731 -2.08284 -4.97278 255 0 0
-10.8847 -2.57569 -4.40668 255 0 0
-11.2928 -3.129 -4.93204 255 0 0
-10.6958 -2.21167 -4.44519 255 0 0
-11.3883 -2.62367 -4.41309 255 0 0
-9.60279 -2.08083 -4.89717 255 0 0
-9.92396 -2.1135 -4.71875 255 0 0
-12.3882 -1.93952 -5.02691 255 0 0
-10.4676 -2.59521 -4.50868 255 0 0
-10.3226 -3.29998 -4.61609 255 0 0
-11.1927 -2.43925 -4.96766 255 0 0
-9.40954 -3.11914 -5.10294 255 0 0
-10.2985 -2.16776 -4.54052 255 0 0
-10.9342 -1.92502 -4.97486 255 0 0
-10.8394 -2.96188 -4.41776 255 0 0
-10.5893 -1.91611 -4.97954 255 0 0
-11.3113 -1.88099 -5.17484 255 0 0
-11.1669 -3.02292 -4.99703 255 0 0
-10.3761 -3.26295 -4.6257 255 0 0
-10.0466 -1.86716 -5.10558 255 0 0
-10.7626 -1.92113 -4.9294 255 0 0
-9.6508 -2.39272 -4.75299 255 0 0
-10.8176 -1.85165 -5.33543 255 0 0
-10.8975 -2.4698 -4.40421 255 0 0
-11.48 -2.21815 -4.41428 255 0 0
-9.58531 -2.82797 -4.76705 255 0 0
-10.3477 -2.07582 -4.64069 255 0 0
-9.40177 -2.31915 -4.94298 255 0 0
-9.40496 -2.67807 -4.97192 255 0 0
-10.8561 -2.78737 -4.4116 255 0 0
-9.5897 -2.66932 -4.75611 255 0 0
-9.7599 -2.17552 -4.76861 255 0 0
-11.0168 -2.84255 -4.64665 255 0 0
-9.56822 -2.78598 -4.75924 255 0 0
-9.73568 -1.88112 -5.37744 255 0 0
-11.0081 -2.07286 -4.70402 255 0 0
-11.2256 -3.32639 -4.82631 255 0 0
-9.40115 -2.82217 -4.80576 255 0 0
-11.3123 -3.17774 -5.04402 255 0 0
-11.4089 -2.17637 -4.49905 255 0 0
-11.1801 -2.05041 -4.74387 255 0 0
-10.5576 -2.76417 -4.44327 255 0 0
-11.2672 -3.10749 -5.02786 255 0 0
-9.36519 -3.11675 -5.17984 255 0 0
-11.4192 -2.40365 -4.40954 255 0 0
-11.2182 -1.86551 -5.25072 255 0 0
-11.4751 -2.44386 -4.42256 255 0 0
-12.0583 -1.88788 -5.27038 255 0 0
-9.4201 -3.06078 -5.01023 255 0 0
-9.45213 -3.22055 -4.94437 255 0 0
-9.64095 -2.02935 -4.81622 255 0 0
-12.4385 -1.79659 -5.03378 255 0 0
-9.43116 -1.98519 -5.46259 255 0 0
-10.5363 -1.86785 -5.44737 255 0 0
-10.9456 -2.33107 -4.40791 255 0 0
-9.95586 -2.4308 -4.74603 255 0 0
-11.3648 -2.08429 -4.68778 255 0 0
-9.39768 -2.03637 -5.45467 255 0 0
-9.39266 -2.86825 -5.07408 255 0 0
-9.94525 -2.08107 -4.72254 255 0 0
-9.49732 -2.12882 -4.86985 255 0 0
-9.83831 -2.88994 -4.74754 255 0 0
-11.6216 -2.07447 -4.74615 255 0 0
-9.57119 -3.00982 -4.77799 255 0 0
-9.81733 -1.94523 -4.95099 255 0 0
-9.4909 -3.37254 -5.15279 255 0 0
-11.3419 -3.12811 -4.73686 255 0 0
-9.72022 -1.90205 -5.28202 255 0 0
-11.3066 -3.01764 -4.82493 255 0 0
-9.37433 -2.88697 -4.89221 255 0 0
-10.221 -3.32099 -4.68901 255 0 0
-12.1716 -2.14288 -4.65917 255 0 0
-10.8693 -2.64016 -4.40668 255 0 0
-11.4278 -3.21018 -4.45098 255 0 0
-9.40424 -2.53381 -4.78403 255 0 0
-11.0317 -1.86138 -5.29875 255 0 0
-12.404 -1.94199 -5.25253 255 0 0
-10.2204 -3.2673 -4.68474 255 0 0
-11.2846 -2.86891 -4.40421 255 0 0
-9.82174 -2.78416 -4.73542 255 0 0
-9.38393 -2.38569 -4.85495 255 0 0
-10.3612 -1.97651 -4.82635 255 0 0
-10.4571 -2.56631 -4.5047 255 0 0
-9.66557 -3.31887 -4.82955 255 0 0
-10.9428 -2.3712 -4.40914 255 0 0
-10.4401 -3.28307 -4.54583 255 0 0
-11.3526 -3.07318 -4.42848 255 0 0
-10.7075 -2.1216 -4.53919 255 0 0
-11.1026 -1.84628 -5.42056 255 0 0
-10.1557 -1.86253 -5.13793 255 0 0
-10.5595 -2.61802 -4.43559 255 0 0
-9.53163 -1.91212 -5.40171 255 0 0
-10.2367 -2.98061 -4.66769 255 0 0
-10.1903 -2.29683 -4.61368 255 0 0
-10.7905 -3.16965 -4.61614 255 0 0
-10.4551 -2.64482 -4.50868 255 0 0
-10.7153 -3.20281 -4.60155 255 0 0
-10.0407 -3.28875 -4.73712 255 0 0
-10.9737 -2.03946 -4.79276 255 0 0
-10.1571 -2.34003 -4.608 255 0 0
-10.4204 -2.37467 -4.48613 255 0 0
-11.151 -1.88152 -5.13109 255 0 0
-11.2969 -2.18278 -4.47565 255 0 0
-9.4001 -2.00193 -5.2736 255 0 0
-10.2833 -2.34344 -4.54601 255 0 0
-9.65043 -2.42909 -4.75533 255 0 0
-11.1996 -1.91704 -5.04458 255 0 0
-9.56979 -2.86043 -4.76549 255 0 0
-9.37661 -2.93643 -4.89717 255 0 0
-9.94266 -2.34032 -4.73694 255 0 0
-11.3522 -2.02638 -4.78371 255 0 0
-9.992 -2.25214 -4.74451 255 0 0
-9.48916 -1.92701 -5.38818 255 0 0
-10.99 -2.27252 -4.41468 255 0 0
-10.7232 -2.01923 -4.73022 255 0 0
-9.96592 -1.85217 -5.17291 255 0 0
-9.59003 -1.92383 -5.51407 255 0 0
-11.744 -2.21144 -4.46756 255 0 0
-11.6542 -2.22316 -4.4498 255 0 0
-11.4972 -2.24977 -4.41901 255 0 0
-11.5425 -2.28706 -4.42967 255 0 0
-11.4977 -2.30652 -4.42138 255 0 0
-11.5203 -2.33948 -4.4273 255 0 0
-11.5372 -2.37141 -4.43204 255 0 0
-11.4866 -2.38941 -4.42256 255 0 0
-11.385 -2.48115 -4.40599 255 0 0
-11.4295 -2.51925 -4.41664 255 0 0
-11.3955 -2.5401 -4.41072 255 0 0
-11.3808 -2.57934 -4.40954 255 0 0
-11.426 -2.68946 -4.42375 255 0 0
-11.3749 -2.70593 -4.41428 255 0 0
-11.2848 -2.71279 -4.39651 255 0 0
-11.3174 -2.74901 -4.4048 255 0 0
-11.2769 -2.78169 -4.39829 255 0 0
-11.3031 -2.83084 -4.40599 255 0 0
-11.3292 -2.93749 -4.41664 255 0 0
-11.3615 -3.01784 -4.4273 255 0 0
-11.3653 -3.04774 -4.42967 255 0 0
-11.3913 -3.12722 -4.43914 255 0 0
-11.3319 -3.21224 -4.43204 255 0 0
-11.214 -3.20756 -4.40836 255 0 0
-11.2614 -3.25004 -4.4202 255 0 0
-11.1124 -2.20183 -4.43747 255 0 0
-11.5456 -2.00445 -4.93204 255 0 0
-10.4856 -2.05182 -4.67337 255 0 0
-10.5978 -1.8658 -5.1729 255 0 0
-9.57148 -1.92011 -5.05572 255 0 0
-10.4875 -2.67949 -4.51797 255 0 0
-9.95327 -1.92316 -4.98908 255 0 0
-11.1718 -2.96748 -4.89225 255 0 0
-12.1158 -2.16268 -4.64808 255 0 0
-11.998 -2.17101 -4.62345 255 0 0
-11.7959 -2.1778 -4.58096 255 0 0
-11.1569 -2.18317 -4.44609 255 0 0
-11.0566 -2.21804 -4.42638 255 0 0
-11.0008 -2.234 -4.4153 255 0 0
-10.9735 -2.30983 -4.41283 255 0 0
-10.937 -2.4243 -4.41037 255 0 0
-10.8801 -2.52016 -4.40298 255 0 0
-10.8724 -2.72297 -4.4116 255 0 0
-10.8572 -2.82885 -4.41407 255 0 0
-10.8768 -2.88912 -4.42146 255 0 0
-10.8644 -2.91342 -4.42022 255 0 0
-10.8354 -2.93318 -4.4153 255 0 0
-10.871 -2.99823 -4.42638 255 0 0
-10.8842 -3.05749 -4.43254 255 0 0
-10.9172 -3.1507 -4.44486 255 0 0
-10.9152 -3.17818 -4.44609 255 0 0
-10.9258 -3.22346 -4.45102 255 0 0
-9.4045 -2.27257 -4.94043 255 0 0
-9.73797 -1.9295 -5.01704 255 0 0
-10.207 -2.91953 -4.65632 255 0 0
-12.1826 -2.11504 -4.76819 255 0 0
-12.0538 -2.12213 -4.74004 255 0 0
-11.8968 -2.12359 -4.7055 255 0 0
-11.6896 -2.12951 -4.66009 255 0 0
-11.3708 -2.14116 -4.59038 255 0 0
-11.231 -2.14242 -4.55968 255 0 0
-10.8236 -2.17129 -4.47141 255 0 0
-10.7512 -2.1833 -4.45606 255 0 0
-10.6515 -2.24207 -4.43687 255 0 0
-10.6381 -2.33159 -4.43815 255 0 0
-10.6047 -2.37702 -4.43304 255 0 0
-10.5821 -2.42472 -4.43048 255 0 0
-10.5864 -2.53161 -4.43687 255 0 0
-10.5549 -2.57705 -4.4324 255 0 0
-10.5636 -2.67226 -4.43943 255 0 0
-10.5517 -2.69589 -4.43815 255 0 0
-10.5588 -2.80464 -4.44583 255 0 0
-10.573 -2.86214 -4.45222 255 0 0
-10.5723 -2.92935 -4.45606 255 0 0
-10.5748 -2.98411 -4.4599 255 0 0
-10.5826 -3.08133 -4.46757 255 0 0
-10.6169 -3.18712 -4.48164 255 0 0
-10.6437 -3.23649 -4.4906 255 0 0
-10.5846 -3.27342 -4.48037 255 0 0
-9.63872 -1.8861 -5.34534 255 0 0
-10.5967 -2.15192 -4.51531 255 0 0
-9.55084 -3.40657 -5.08174 255 0 0
-10.0993 -2.07587 -4.67104 255 0 0
-10.1005 -2.12607 -4.67398 255 0 0
-9.79338 -1.89226 -5.12218 255 0 0
-12.4548 -2.04081 -4.93586 255 0 0
-12.4049 -2.06285 -4.92525 255 0 0
-12.2931 -2.07423 -4.90004 255 0 0
-11.9966 -2.08275 -4.83238 255 0 0
-11.2645 -2.09352 -4.66522 255 0 0
-11.1898 -2.12081 -4.6493 255 0 0
-10.8636 -2.12578 -4.57501 255 0 0
-10.5359 -2.17865 -4.50271 255 0 0
-10.5476 -2.2202 -4.50735 255 0 0
-10.498 -2.26178 -4.49807 255 0 0
-10.4591 -2.27938 -4.49011 255 0 0
-10.4445 -2.32811 -4.48922 255 0 0
-10.5333 -2.63804 -4.52593 255 0 0
-11.3529 -3.0444 -4.73421 255 0 0
-11.2906 -3.05641 -4.72094 255 0 0
-11.3383 -3.0982 -4.73421 255 0 0
-10.4265 -2.92891 -4.51929 255 0 0
-10.4415 -2.95985 -4.5246 255 0 0
-11.1747 -3.19632 -4.7037 255 0 0
-11.2634 -3.27957 -4.7289 255 0 0
-11.029 -3.26813 -4.67584 255 0 0
-10.5209 -3.18553 -4.5571 255 0 0
-10.5023 -3.27528 -4.55909 255 0 0
-9.92306 -1.86855 -5.16066 255 0 0
-12.6876 -1.92481 -5.32448 255 0 0
-9.4389 -1.97513 -5.19545 255 0 0
-12.4298 -1.85556 -5.03378 255 0 0
-12.494 -1.92575 -5.05164 255 0 0
-12.3348 -2.02115 -5.01729 255 0 0
-12.1503 -2.02051 -4.97332 255 0 0
-11.949 -2.01617 -4.92523 255 0 0
-11.7871 -2.0176 -4.88676 255 0 0
-11.6533 -2.02315 -4.85516 255 0 0
-11.5308 -2.03005 -4.82631 255 0 0
-11.1528 -2.07276 -4.73837 255 0 0
-10.8633 -2.07229 -4.66967 255 0 0
-10.7131 -2.06997 -4.63395 255 0 0
-10.4252 -2.11711 -4.568 255 0 0
-10.3867 -2.13494 -4.55975 255 0 0
-10.3538 -2.15377 -4.55288 255 0 0
-11.2616 -2.45427 -4.78234 255 0 0
-11.1891 -2.46626 -4.76585 255 0 0
-10.2999 -2.38578 -4.55219 255 0 0
-10.2939 -2.44876 -4.55426 255 0 0
-10.2353 -2.47332 -4.54189 255 0 0
-10.3414 -2.58998 -4.57349 255 0 0
-11.3368 -2.92513 -4.82631 255 0 0
-11.2913 -2.94195 -4.81669 255 0 0
-11.3008 -2.97306 -4.82081 255 0 0
-11.338 -3.09811 -4.8373 255 0 0
-10.3307 -2.87557 -4.58861 255 0 0
-10.3677 -2.91237 -4.5996 255 0 0
-10.3169 -2.92453 -4.58861 255 0 0
-10.5453 -3.01629 -4.64769 255 0 0
-11.356 -3.30653 -4.85516 255 0 0
-11.2226 -3.29655 -4.82356 255 0 0
-11.2886 -3.37418 -4.84417 255 0 0
-10.4795 -3.15942 -4.64219 255 0 0
-10.4447 -3.17598 -4.63532 255 0 0
-10.3861 -3.21202 -4.62433 255 0 0
-10.3132 -3.2163 -4.60784 255 0 0
-10.3521 -3.28238 -4.62158 255 0 0
-9.43157 -2.3265 -4.77679 255 0 0
-11.593 -1.8714 -5.2514 255 0 0
-12.4594 -1.82978 -5.15092 255 0 0
-12.4775 -1.86267 -5.1566 255 0 0
-12.4618 -1.89055 -5.15376 255 0 0
-12.4348 -1.91663 -5.14807 255 0 0
-12.4695 -1.95226 -5.15802 255 0 0
-12.4424 -1.97825 -5.15234 255 0 0
-12.376 -1.99779 -5.1367 255 0 0
-11.3786 -2.00326 -4.89083 255 0 0
-11.1454 -2.01674 -4.83398 255 0 0
-10.6131 -2.05066 -4.70464 255 0 0
-10.3093 -2.09357 -4.63216 255 0 0
-10.2323 -2.11583 -4.61439 255 0 0
-11.2222 -2.41782 -4.87235 255 0 0
-11.2053 -2.442 -4.86951 255 0 0
-10.0939 -2.55343 -4.60515 255 0 0
-10.2089 -2.60829 -4.63642 255 0 0
-11.1548 -2.92054 -4.88514 255 0 0
-11.2352 -3.02715 -4.91143 255 0 0
-11.3039 -3.08879 -4.93204 255 0 0
-9.47155 -1.94683 -5.1152 255 0 0
-9.38831 -3.27352 -5.20318 255 0 0
-9.46868 -3.25126 -5.04258 255 0 0
-10.2912 -1.837 -5.17709 255 0 0
-12.8043 -1.91146 -5.35385 255 0 0
-12.5654 -1.93675 -5.29365 255 0 0
-12.0645 -1.9475 -5.16589 255 0 0
-11.9591 -1.9596 -5.13946 255 0 0
-11.3257 -1.96628 -4.97794 255 0 0
-10.7228 -2.01915 -4.82669 255 0 0
-10.3904 -2.00761 -4.74152 255 0 0
-10.3522 -2.02571 -4.73271 255 0 0
-10.3807 -2.05686 -4.74152 255 0 0
-10.2591 -2.05806 -4.71069 255 0 0
-10.1166 -2.10443 -4.67691 255 0 0
-11.2472 -3.07329 -5.02052 255 0 0
-11.3144 -3.14939 -5.04255 255 0 0
-10.0705 -3.32498 -4.7474 255 0 0
-9.41977 -2.31174 -4.85991 255 0 0
-9.62534 -1.90719 -5.07146 255 0 0
-12.5465 -1.87297 -5.51232 255 0 0
-12.7752 -1.87616 -5.45982 255 0 0
-12.4865 -1.8943 -5.38404 255 0 0
-11.7187 -1.86318 -5.17945 255 0 0
-11.4597 -1.90566 -5.11277 255 0 0
-11.3603 -1.91683 -5.08701 255 0 0
-11.1003 -1.92715 -5.01881 255 0 0
-10.6977 -1.96194 -4.91425 255 0 0
-10.4659 -1.97078 -4.85363 255 0 0
-10.1084 -2.00289 -4.76118 255 0 0
-10.0378 -2.03842 -4.74451 255 0 0
-9.99968 -2.05538 -4.73542 255 0 0
-9.96971 -2.22229 -4.73694 255 0 0
-9.95906 -2.26954 -4.73694 255 0 0
-9.90956 -2.28299 -4.72481 255 0 0
-9.97573 -2.32316 -4.74451 255 0 0
-9.88052 -2.49946 -4.73087 255 0 0
-9.92937 -2.53688 -4.74603 255 0 0
-9.9367 -2.57645 -4.75058 255 0 0
-9.83996 -2.58874 -4.72633 255 0 0
-9.92126 -2.6353 -4.75058 255 0 0
-9.90406 -2.65588 -4.74754 255 0 0
-9.92358 -2.72428 -4.7574 255 0 0
-9.93836 -2.76637 -4.76421 255 0 0
-9.86784 -2.94952 -4.75967 255 0 0
-9.85378 -3.07303 -4.76573 255 0 0
-9.86606 -3.12827 -4.77331 255 0 0
-9.8457 -3.17326 -4.77179 255 0 0
-9.90044 -3.24282 -4.79149 255 0 0
-9.46239 -3.1242 -4.8484 255 0 0
-9.52193 -3.32011 -5.06472 255 0 0
-12.1749 -1.87657 -5.41077 255 0 0
-11.953 -1.87139 -5.34983 255 0 0
-11.8259 -1.88023 -5.31546 255 0 0
-11.0074 -1.88415 -5.09203 255 0 0
-10.765 -1.89523 -5.02641 255 0 0
-10.4903 -1.92391 -4.95298 255 0 0
-10.178 -1.96657 -4.87017 255 0 0
-10.0957 -1.97553 -4.84829 255 0 0
-10.0191 -1.9852 -4.82798 255 0 0
-9.95348 -1.99674 -4.8108 255 0 0
-9.89342 -2.00911 -4.79517 255 0 0
-9.77978 -2.07068 -4.76783 255 0 0
-9.77813 -2.11882 -4.77017 255 0 0
-9.75401 -2.14995 -4.76549 255 0 0
-9.72196 -2.21551 -4.7608 255 0 0
-9.69766 -2.27053 -4.75767 255 0 0
-9.68953 -2.31714 -4.75846 255 0 0
-9.67844 -2.36305 -4.75846 255 0 0
-9.62514 -2.47132 -4.75142 255 0 0
-9.63515 -2.52265 -4.75767 255 0 0
-9.63944 -2.57269 -4.76236 255 0 0
-9.62229 -2.6784 -4.76549 255 0 0
-9.60355 -2.73462 -4.76471 255 0 0
-9.56298 -2.88311 -4.76549 255 0 0
-9.56152 -2.90742 -4.76705 255 0 0
-9.57078 -2.93504 -4.77174 255 0 0
-9.56214 -2.98208 -4.7733 255 0 0
-9.56661 -3.07081 -4.78189 255 0 0
-9.56905 -3.10917 -4.7858 255 0 0
-9.5542 -3.15452 -4.7858 255 0 0
-9.59148 -3.23 -4.8022 255 0 0
-9.62534 -3.27956 -4.81548 255 0 0
-9.75367 -3.37499 -4.85767 255 0 0
-9.47934 -2.20756 -4.86985 255 0 0
-9.45442 -3.19633 -5.12393 255 0 0
-9.40759 -2.93388 -4.99491 255 0 0
-12.1342 -1.84085 -5.5082 255 0 0
-11.9251 -1.86702 -5.45027 255 0 0
-11.6704 -1.85551 -5.37785 255 0 0
-11.5493 -1.86433 -5.34406 255 0 0
-11.4004 -1.86804 -5.30222 255 0 0
-10.9806 -1.85277 -5.18313 255 0 0
-10.6899 -1.88202 -5.10267 255 0 0
-10.4704 -1.8946 -5.04151 255 0 0
-10.3551 -1.8991 -5.00933 255 0 0
-10.2066 -1.8969 -4.96749 255 0 0
-10.1247 -1.90651 -4.94496 255 0 0
-10.0206 -1.91153 -4.91599 255 0 0
-9.98377 -1.95362 -4.90795 255 0 0
-9.84743 -1.97547 -4.87093 255 0 0
-9.68906 -1.99154 -4.82748 255 0 0
-9.66227 -2.00992 -4.82104 255 0 0
-9.60858 -2.04633 -4.80817 255 0 0
-9.58226 -2.08828 -4.80334 255 0 0
-9.54179 -2.11501 -4.79369 255 0 0
-9.50126 -2.14153 -4.78403 255 0 0
-9.46691 -2.24019 -4.78081 255 0 0
-9.41985 -2.43051 -4.78081 255 0 0
-9.39606 -2.62743 -4.78886 255 0 0
-9.39974 -2.67658 -4.79369 255 0 0
-9.40639 -2.71468 -4.79851 255 0 0
-9.41925 -2.88857 -4.81622 255 0 0
-9.41966 -2.9254 -4.81944 255 0 0
-9.43437 -3.02837 -4.83231 255 0 0
-9.43426 -3.06538 -4.83553 255 0 0
-9.46442 -3.1 -4.84679 255 0 0
-9.48858 -3.17033 -4.85967 255 0 0
-9.58192 -3.31556 -4.89829 255 0 0
-9.63782 -3.36052 -4.9176 255 0 0
-9.67232 -3.39829 -4.93047 255 0 0
-9.83627 -1.87637 -5.13443 255 0 0
-11.1635 -1.85641 -5.33684 255 0 0
-10.4717 -1.86921 -5.13647 255 0 0
-10.171 -1.89028 -5.05035 255 0 0
-10.1113 -1.904 -5.03379 255 0 0
-9.79617 -1.96518 -4.94603 255 0 0
-9.64371 -1.98222 -4.90297 255 0 0
-9.59808 -2.11558 -4.898 255 0 0
-9.52255 -2.17007 -4.87979 255 0 0
-9.49549 -2.1876 -4.87316 255 0 0
-9.43863 -2.23348 -4.85991 255 0 0
-9.40879 -2.2618 -4.85329 255 0 0
-9.39241 -2.34047 -4.85412 255 0 0
-9.39382 -3.00306 -4.90794 255 0 0
-9.41875 -3.03567 -4.91787 255 0 0
-9.44357 -3.0684 -4.92781 255 0 0
-9.47363 -3.10302 -4.9394 255 0 0
-9.51424 -3.14132 -4.95431 255 0 0
-9.46571 -3.25024 -4.95099 255 0 0
-9.57876 -3.32719 -4.98991 255 0 0
-9.59072 -3.36962 -4.99736 255 0 0
-9.60917 -3.40172 -5.00564 255 0 0
-9.38192 -3.0238 -5.08545 255 0 0
-11.432 -1.8454 -5.51932 255 0 0
-10.9159 -1.84184 -5.36438 255 0 0
-10.6973 -1.85717 -5.29968 255 0 0
-10.5052 -1.8495 -5.24179 255 0 0
-9.68943 -1.94377 -5.00342 255 0 0
-9.56018 -1.98868 -4.96767 255 0 0
-9.53484 -2.05427 -4.96426 255 0 0
-9.54163 -2.11499 -4.97022 255 0 0
-9.4876 -2.13845 -4.95575 255 0 0
-9.4464 -2.17628 -4.9461 255 0 0
-9.38528 -2.23262 -4.93191 255 0 0
-9.40649 -2.41518 -4.95149 255 0 0
-9.41638 -2.47731 -4.95915 255 0 0
-9.42619 -2.52774 -4.96596 255 0 0
-9.40833 -2.58282 -4.96511 255 0 0
-9.40677 -2.63042 -4.96852 255 0 0
-9.40601 -2.77508 -4.98044 255 0 0
-9.42749 -2.87889 -4.99576 255 0 0
-9.41987 -2.91322 -4.99661 255 0 0
-9.40243 -2.96901 -4.99661 255 0 0
-9.40783 -3.00754 -5.00172 255 0 0
-9.44698 -3.13156 -5.02471 255 0 0
-9.44531 -3.18078 -5.02896 255 0 0
-9.43394 -3.21435 -5.02896 255 0 0
-9.55103 -3.35567 -5.07663 255 0 0
-9.48495 -3.35774 -5.05791 255 0 0
-9.36218 -3.2644 -5.4694 255 0 0
-10.8174 -1.85162 -5.43528 255 0 0
-10.4453 -1.83895 -5.31983 255 0 0
-10.5069 -1.8755 -5.34082 255 0 0
-10.145 -1.83573 -5.22713 255 0 0
-10.0088 -1.83559 -5.18515 255 0 0
-9.71209 -1.90046 -5.0977 255 0 0
-9.53404 -1.93613 -5.04522 255 0 0
-9.47043 -1.98173 -5.02861 255 0 0
-9.43874 -2.08045 -5.0254 255 0 0
-9.42553 -2.14796 -5.02598 255 0 0
-9.40422 -2.17832 -5.02161 255 0 0
-9.39378 -2.22287 -5.02161 255 0 0
-9.39289 -2.43545 -5.03735 255 0 0
-9.4139 -2.47665 -5.04697 255 0 0
-9.37747 -2.52658 -5.03997 255 0 0
-9.38526 -2.92692 -5.07729 255 0 0
-9.3793 -2.98617 -5.08108 255 0 0
-9.39501 -3.06494 -5.09332 255 0 0
-9.43548 -3.16502 -5.11519 255 0 0
-9.46987 -3.31456 -5.14055 255 0 0
-10.6791 -1.82794 -5.49046 255 0 0
-9.88485 -1.8371 -5.23909 255 0 0
-9.84213 -1.85331 -5.22652 255 0 0
-9.75115 -1.8841 -5.19959 255 0 0
-9.6273 -1.90758 -5.16188 255 0 0
-9.51437 -1.93213 -5.12777 255 0 0
-9.3762 -3.08344 -5.17984 255 0 0
-9.36388 -3.19048 -5.18702 255 0 0
-9.36156 -3.21448 -5.18881 255 0 0
-9.38025 -3.24578 -5.19779 255 0 0
-9.40156 -3.30316 -5.21036 255 0 0
-9.42522 -3.3366 -5.22113 255 0 0
-9.45928 -3.37391 -5.2355 255 0 0
-10.3698 -1.8764 -5.49198 255 0 0
-9.87006 -1.85857 -5.32806 255 0 0
-9.64481 -1.91104 -5.25807 255 0 0
-9.54304 -1.93795 -5.22676 255 0 0
-9.47853 -1.94827 -5.20651 255 0 0
-9.37082 -3.29236 -5.29123 255 0 0
-9.38918 -3.32384 -5.30044 255 0 0
-9.42839 -3.3629 -5.31701 255 0 0
-9.47793 -3.40592 -5.33727 255 0 0
-10.0104 -1.86043 -5.46806 255 0 0
-9.92424 -1.86877 -5.43974 255 0 0
-9.78912 -1.86737 -5.39443 255 0 0
-9.59073 -1.90033 -5.33024 255 0 0
-9.53816 -1.93696 -5.31514 255 0 0
-9.47925 -1.94841 -5.29626 255 0 0
-9.4397 -1.97529 -5.28493 255 0 0
-9.42298 -3.36097 -5.40764 255 0 0
-9.40134 -3.30308 -5.4868 255 0 0
-9.81535 -1.87238 -5.49647 255 0 0
-9.72949 -1.87992 -5.46746 255 0 0
-9.66534 -1.89131 -5.44619 255 0 0
-9.59036 -1.90025 -5.42105 255 0 0
-9.39642 -1.96623 -5.35917 255 0 0
-9.4372 -2.00984 -5.46655 255 0 0
