ply
format ascii 1.0
comment Created by Open3D
element vertex 785
property double x
property double y
property double z
property uchar red
property uchar green
property uchar blue
end_header
-7.3123 -2.97567 -4.18583 255 0 0
-8.65627 -2.90364 -3.96451 255 0 0
-8.49702 -3.14473 -3.8708 255 0 0
-8.36634 -3.46255 -3.86961 255 0 0
-9.1056 -2.67471 -4.88424 255 0 0
-8.75009 -2.59283 -4.77357 255 0 0
-7.29455 -3.12076 -4.19677 255 0 0
-7.35948 -2.96441 -4.19677 255 0 0
-7.33929 -2.60794 -4.22642 255 0 0
-7.31986 -3.42329 -4.23739 255 0 0
-7.37451 -2.39612 -4.71325 255 0 0
-7.95963 -2.42032 -4.83372 255 0 0
-8.42024 -2.86896 -3.91401 255 0 0
-8.0444 -3.87902 -3.99939 255 0 0
-8.76988 -3.24572 -3.84998 255 0 0
-8.55291 -2.93682 -3.86725 255 0 0
-6.97614 -3.7388 -4.69591 255 0 0
-7.17941 -3.92479 -4.48668 255 0 0
-7.67748 -2.71788 -4.18227 255 0 0
-7.84837 -2.48851 -4.4277 255 0 0
-7.20507 -2.725 -4.3411 255 0 0
-7.80421 -2.62812 -4.20652 255 0 0
-7.11921 -3.08577 -4.35813 255 0 0
-7.88498 -2.41806 -4.80918 255 0 0
-7.31467 -2.43434 -4.55452 255 0 0
-8.29197 -3.12485 -3.90662 255 0 0
-7.20026 -2.72318 -4.26983 255 0 0
-7.92339 -2.40931 -4.74422 255 0 0
-7.39243 -2.38254 -5.23608 255 0 0
-7.00408 -3.52184 -4.52567 255 0 0
-7.01779 -3.58099 -4.6107 255 0 0
-7.28573 -3.02545 -4.18427 255 0 0
-8.07429 -3.77612 -3.99555 255 0 0
-6.99302 -3.70527 -4.54961 255 0 0
-7.19729 -2.95875 -4.15458 255 0 0
-7.35043 -2.44624 -4.49575 255 0 0
-7.08418 -3.5621 -4.482 255 0 0
-7.00473 -3.62683 -4.54124 255 0 0
-7.81247 -2.41611 -4.93796 255 0 0
-9.93107 -2.8661 -4.95461 255 0 0
-8.05191 -2.42754 -4.63243 255 0 0
-7.00653 -3.47119 -4.51909 255 0 0
-8.75364 -3.12223 -3.83861 255 0 0
-7.45282 -3.65932 -4.22471 255 0 0
-7.09405 -3.17529 -4.3621 255 0 0
-7.39267 -2.62692 -4.96681 255 0 0
-7.32469 -2.45698 -4.56005 255 0 0
-7.31948 -2.53271 -5.22707 255 0 0
-8.21618 -3.51506 -4.00067 255 0 0
-8.22041 -3.31119 -3.98404 255 0 0
-7.87901 -2.74725 -4.08782 255 0 0
-8.26298 -2.83726 -3.95589 255 0 0
-7.2429 -2.44866 -4.89122 255 0 0
-8.2271 -2.6086 -4.31261 255 0 0
-7.60252 -2.39074 -4.78867 255 0 0
-8.06815 -3.6804 -3.98532 255 0 0
-10.5052 -3.0318 -4.83256 255 0 0
-8.54986 -2.55557 -5.0395 255 0 0
-8.19354 -3.25529 -3.9738 255 0 0
-7.24675 -3.60089 -4.24051 255 0 0
-8.66097 -2.79144 -4.27685 255 0 0
-7.26049 -2.53158 -4.4772 255 0 0
-7.55826 -2.41626 -4.85085 255 0 0
-8.28894 -2.54194 -4.47827 255 0 0
-7.29609 -2.57314 -4.42166 255 0 0
-7.861 -2.55419 -5.20441 255 0 0
-7.29597 -2.63158 -4.28694 255 0 0
-7.47939 -2.41061 -4.53166 255 0 0
-7.25881 -3.71482 -4.2577 255 0 0
-7.17421 -2.76206 -4.19745 255 0 0
-7.1247 -3.7967 -4.30769 255 0 0
-7.91318 -2.48843 -4.44591 255 0 0
-7.22723 -2.8813 -5.24171 255 0 0
-9.26049 -3.00892 -4.09506 255 0 0
-7.21797 -2.7299 -4.41554 255 0 0
-7.28566 -3.76132 -4.2702 255 0 0
-7.06266 -3.89364 -4.67239 255 0 0
-8.01925 -2.62665 -4.26108 255 0 0
-8.41476 -3.38947 -3.87317 255 0 0
-8.27747 -3.52968 -3.93618 255 0 0
-8.24852 -3.83379 -3.95712 255 0 0
-7.82158 -2.41893 -4.63759 255 0 0
-8.04909 -3.99957 -4.09079 255 0 0
-9.17973 -3.03088 -3.91248 255 0 0
-7.07469 -3.30863 -5.2541 255 0 0
-9.06084 -2.66156 -4.95602 255 0 0
-10.5977 -2.97699 -5.24576 255 0 0
-7.27602 -2.65368 -4.28363 255 0 0
-7.26661 -2.63075 -4.41904 255 0 0
-7.09445 -3.73749 -4.50999 255 0 0
-7.17117 -3.88721 -4.47902 255 0 0
-10.2058 -2.98477 -4.47352 255 0 0
-8.19969 -3.97788 -4.04032 255 0 0
-8.26385 -2.57719 -4.39676 255 0 0
-7.67612 -2.47402 -4.37802 255 0 0
-7.80387 -3.87772 -4.10359 255 0 0
-7.08871 -3.33569 -4.45227 255 0 0
-7.64073 -2.7867 -4.17924 255 0 0
-7.02889 -3.5552 -4.39388 255 0 0
-7.17942 -3.91373 -5.09211 255 0 0
-7.24371 -3.03824 -4.17489 255 0 0
-7.33498 -2.53807 -4.42953 255 0 0
-7.07691 -3.55844 -4.26424 255 0 0
-8.16752 -3.38026 -3.97892 255 0 0
-7.03411 -3.42275 -4.23608 255 0 0
-8.48056 -3.25346 -3.87553 255 0 0
-8.32837 -3.05988 -3.90908 255 0 0
-8.27235 -3.42365 -3.92633 255 0 0
-8.26757 -3.58352 -4.0173 255 0 0
-7.60761 -2.93927 -4.18531 255 0 0
-8.90684 -2.96421 -3.93829 255 0 0
-7.24115 -2.4385 -4.6736 255 0 0
-8.44312 -2.52367 -4.75837 255 0 0
-7.45989 -2.50233 -4.32006 255 0 0
-8.06662 -3.81925 -3.99811 255 0 0
-8.35179 -3.7145 -3.88737 255 0 0
-7.56189 -2.61659 -4.21551 255 0 0
-9.28538 -2.72752 -4.76633 255 0 0
-6.98784 -3.68133 -4.69024 255 0 0
-9.72789 -3.10986 -4.10879 255 0 0
-7.03246 -3.85528 -4.58373 255 0 0
-8.62993 -2.78143 -4.18877 255 0 0
-7.02015 -3.80535 -5.01963 255 0 0
-9.54909 -3.10269 -3.98634 255 0 0
-7.75181 -3.82896 -4.0871 255 0 0
-7.46703 -3.3635 -4.1944 255 0 0
-7.09143 -3.11375 -4.42428 255 0 0
-8.93031 -4.20229 -4.38251 255 0 0
-7.27766 -3.70272 -4.26082 255 0 0
-8.22642 -2.89028 -3.95206 255 0 0
-10.0938 -3.1873 -4.6485 255 0 0
-7.92262 -2.45017 -5.215 255 0 0
-8.27313 -2.49424 -4.94322 255 0 0
-9.27176 -2.77135 -4.59297 255 0 0
-7.31352 -2.60857 -4.35983 255 0 0
-7.01711 -3.82525 -4.57475 255 0 0
-7.29372 -3.64582 -4.2577 255 0 0
-7.24853 -2.52739 -4.61473 255 0 0
-8.35326 -2.95712 -3.90662 255 0 0
-7.11399 -3.10356 -5.23383 255 0 0
-8.86535 -4.17172 -4.27917 255 0 0
-7.33109 -2.4398 -4.63172 255 0 0
-8.25997 -2.68383 -4.17309 255 0 0
-7.94855 -2.62438 -4.24289 255 0 0
-9.37209 -2.75299 -4.70455 255 0 0
-7.11772 -3.74975 -4.29964 255 0 0
-9.68763 -3.12233 -4.01361 255 0 0
-7.15841 -3.08262 -5.24734 255 0 0
-8.63509 -2.60336 -4.57805 255 0 0
-7.06778 -3.38746 -4.38197 255 0 0
-7.87462 -2.43533 -5.11697 255 0 0
-8.37097 -3.51105 -3.87435 255 0 0
-8.44528 -3.82827 -3.91461 255 0 0
-8.37985 -2.50475 -5.22457 255 0 0
-7.1523 -2.92045 -4.34791 255 0 0
-7.89894 -2.52517 -4.37045 255 0 0
-7.75748 -2.41927 -4.69265 255 0 0
-7.67596 -2.46392 -4.45007 255 0 0
-7.34181 -3.71347 -4.27801 255 0 0
-7.63905 -2.72468 -4.17318 255 0 0
-7.20728 -2.84368 -4.35472 255 0 0
-10.1953 -2.87699 -4.46424 255 0 0
-8.48516 -3.20915 -3.87317 255 0 0
-7.29054 -2.52269 -4.55636 255 0 0
-8.45176 -2.93571 -3.92509 255 0 0
-8.10018 -2.58951 -4.35457 255 0 0
-7.33185 -2.59553 -5.24058 255 0 0
-7.35138 -3.39564 -4.24208 255 0 0
-7.74616 -2.47633 -4.39789 255 0 0
-7.4287 -2.5508 -4.38707 255 0 0
-7.39636 -2.42259 -4.50742 255 0 0
-8.59899 -2.57026 -4.7276 255 0 0
-8.2368 -3.80462 -3.95219 255 0 0
-7.05024 -3.7142 -5.01341 255 0 0
-10.1013 -3.15022 -4.55426 255 0 0
-7.14976 -3.78831 -4.53273 255 0 0
-7.24272 -2.58331 -4.54808 255 0 0
-7.44463 -2.458 -4.45402 255 0 0
-7.20645 -2.58966 -4.46702 255 0 0
-8.19498 -3.42581 -3.98851 255 0 0
-7.01545 -3.67465 -4.55141 255 0 0
-7.29926 -2.70144 -5.24284 255 0 0
-8.2146 -2.47659 -5.08248 255 0 0
-8.16456 -2.525 -4.44287 255 0 0
-7.63452 -2.56091 -4.22958 255 0 0
-7.01052 -3.83246 -4.72139 255 0 0
-7.13752 -3.87995 -4.39541 255 0 0
-7.24624 -2.47852 -4.82353 255 0 0
-8.09016 -2.56518 -4.34988 255 0 0
-8.39827 -2.51026 -5.06715 255 0 0
-7.71469 -2.83441 -4.1292 255 0 0
-7.25031 -3.17326 -4.1913 255 0 0
-8.60031 -3.01017 -3.88145 255 0 0
-7.30926 -3.52453 -4.24676 255 0 0
-10.2343 -3.08549 -4.58036 255 0 0
-7.5819 -3.09587 -4.1944 255 0 0
-8.15838 -3.83904 -4.01858 255 0 0
-7.44027 -2.42723 -4.6657 255 0 0
-7.79646 -3.96667 -4.18873 255 0 0
-8.6408 -2.64985 -4.42172 255 0 0
-7.42695 -2.41316 -4.58767 255 0 0
-8.47297 -2.90937 -3.92756 255 0 0
-7.04969 -3.46139 -4.24493 255 0 0
-8.35016 -3.85698 -3.89921 255 0 0
-8.39285 -2.79316 -4.05762 255 0 0
-10.5492 -3.01742 -4.94001 255 0 0
-7.48302 -2.23669 -5.2541 255 0 0
-8.16095 -3.32101 -3.97252 255 0 0
-7.03582 -3.43389 -4.30847 255 0 0
-8.11123 -2.8931 -4.07885 255 0 0
-7.24403 -2.68099 -4.27755 255 0 0
-8.36275 -2.6298 -4.34898 255 0 0
-7.03442 -3.59999 -4.32999 255 0 0
-7.88334 -2.45852 -4.50966 255 0 0
-7.5031 -2.49705 -4.33165 255 0 0
-8.20149 -2.85969 -4.02048 255 0 0
-10.1897 -2.92767 -4.46623 255 0 0
-7.44401 -3.33193 -4.18531 255 0 0
-8.41983 -3.29905 -3.86725 255 0 0
-7.04389 -3.68955 -4.489 255 0 0
-8.43717 -3.77646 -3.90869 255 0 0
-8.43925 -3.72946 -3.90513 255 0 0
-7.63224 -2.96961 -4.1944 255 0 0
-7.31583 -2.6682 -4.36664 255 0 0
-7.18257 -2.96267 -5.23721 255 0 0
-7.40521 -2.4061 -4.7974 255 0 0
-7.32194 -3.44544 -4.24051 255 0 0
-8.26397 -4.02118 -3.97744 255 0 0
-7.25839 -3.21791 -4.19833 255 0 0
-7.42512 -2.64838 -4.1827 255 0 0
-7.61831 -3.87604 -4.21436 255 0 0
-7.45652 -3.816 -4.24441 255 0 0
-7.6834 -2.55705 -4.24208 255 0 0
-7.44882 -2.79703 -4.20301 255 0 0
-7.48437 -3.89768 -4.26108 255 0 0
-7.05893 -3.34214 -5.2541 255 0 0
-7.37636 -2.47432 -4.43536 255 0 0
-7.2748 -2.75138 -5.24058 255 0 0
-7.81094 -2.68204 -4.13947 255 0 0
-10.7297 -3.01406 -5.08578 255 0 0
-7.04156 -3.5721 -4.47151 255 0 0
-7.52688 -2.95948 -4.16712 255 0 0
-7.03877 -3.60221 -4.47501 255 0 0
-8.99983 -2.71333 -4.51871 255 0 0
-10.1878 -2.96638 -4.74887 255 0 0
-7.67127 -2.81846 -4.18985 255 0 0
-7.40048 -2.82905 -4.19364 255 0 0
-7.02356 -3.7428 -4.56398 255 0 0
-7.14522 -2.96709 -4.35132 255 0 0
-7.31512 -3.28465 -4.2202 255 0 0
-7.92892 -2.41099 -5.21288 255 0 0
-7.13467 -2.96271 -4.41816 255 0 0
-7.11132 -3.1225 -4.3604 255 0 0
-8.37943 -3.60843 -3.88382 255 0 0
-7.54333 -3.2272 -4.19844 255 0 0
-9.34504 -2.96307 -4.2805 255 0 0
-7.29418 -2.4756 -4.6237 255 0 0
-7.51585 -3.04812 -4.17318 255 0 0
-7.94802 -2.45803 -4.52839 255 0 0
-7.50125 -2.46683 -4.39984 255 0 0
-7.60842 -3.44892 -4.23835 255 0 0
-9.91385 -3.16931 -4.05907 255 0 0
-8.2964 -3.31891 -3.92263 255 0 0
-7.41654 -2.56629 -4.24332 255 0 0
-8.07725 -2.73074 -4.05824 255 0 0
-7.8252 -3.91148 -4.11183 255 0 0
-7.05334 -3.71583 -4.35069 255 0 0
-7.8785 -2.55988 -4.29364 255 0 0
-10.7037 -3.02047 -5.17911 255 0 0
-7.00954 -3.67156 -4.62205 255 0 0
-7.33996 -2.87594 -4.1827 255 0 0
-7.3097 -2.37507 -4.83365 255 0 0
-8.53368 -2.52871 -4.86742 255 0 0
-8.09112 -2.77825 -4.06511 255 0 0
-7.95618 -2.51232 -4.38493 255 0 0
-7.39865 -3.52448 -4.19591 255 0 0
-7.31815 -2.72818 -5.2541 255 0 0
-8.05235 -2.61637 -4.26866 255 0 0
-7.36168 -2.51803 -5.24171 255 0 0
-7.10647 -3.86304 -4.53185 255 0 0
-7.04252 -3.47862 -4.45868 255 0 0
-10.7171 -2.98314 -5.17991 255 0 0
-7.35493 -2.64302 -4.95542 255 0 0
-7.07009 -3.7676 -4.43475 255 0 0
-8.89574 -2.63599 -4.73571 255 0 0
-8.23739 -3.1266 -3.97252 255 0 0
-7.02087 -3.61409 -4.32834 255 0 0
-7.31061 -3.48255 -4.24208 255 0 0
-7.23924 -2.5724 -4.4751 255 0 0
-7.4809 -3.26363 -5.1642 255 0 0
-7.18378 -2.75597 -4.26872 255 0 0
-8.13952 -2.51725 -4.51215 255 0 0
-7.3577 -2.57528 -4.29853 255 0 0
-9.38086 -2.73142 -4.96937 255 0 0
-7.35817 -2.47793 -5.23495 255 0 0
-9.29484 -2.99573 -4.10122 255 0 0
-8.32758 -3.01485 -3.98276 255 0 0
-8.50097 -2.54096 -4.85844 255 0 0
-7.48289 -3.32806 -4.1944 255 0 0
-8.28929 -3.4537 -3.85422 255 0 0
-8.29249 -3.37456 -3.92633 255 0 0
-8.32693 -3.33117 -3.85185 255 0 0
-8.51838 -3.02694 -3.86665 255 0 0
-8.14719 -2.47736 -4.58798 255 0 0
-7.06391 -3.2832 -4.43828 255 0 0
-7.3395 -2.55914 -4.43303 255 0 0
-7.01609 -3.78165 -4.64108 255 0 0
-7.15118 -2.88051 -4.41321 255 0 0
-8.29297 -3.47834 -3.93495 255 0 0
-10.1434 -3.03188 -4.55563 255 0 0
-7.04614 -3.41826 -4.4514 255 0 0
-7.96511 -2.56716 -4.31707 255 0 0
-7.24569 -2.6816 -4.20845 255 0 0
-6.99059 -3.85391 -4.94303 255 0 0
-7.05582 -3.32024 -4.4409 255 0 0
-7.00814 -3.61805 -4.61346 255 0 0
-8.46591 -3.17894 -3.86725 255 0 0
-7.06251 -3.62495 -4.41261 255 0 0
-7.06458 -3.45831 -4.39048 255 0 0
-7.51177 -3.08803 -4.17621 255 0 0
-7.42729 -3.8456 -5.24251 255 0 0
-9.37249 -3.06989 -3.95111 255 0 0
-8.78828 -3.04095 -3.83975 255 0 0
-7.53114 -3.5221 -4.22774 255 0 0
-7.08712 -3.29399 -4.37516 255 0 0
-10.0824 -3.11811 -4.36268 255 0 0
-7.35113 -2.42712 -4.92746 255 0 0
-7.53656 -3.16107 -4.18985 255 0 0
-7.3514 -3.63118 -4.2702 255 0 0
-7.27909 -2.40334 -4.68231 255 0 0
-7.10383 -3.76398 -4.29803 255 0 0
-7.02639 -3.52262 -4.31757 255 0 0
-9.0129 -2.69397 -4.60456 255 0 0
-7.38236 -2.51532 -4.29963 255 0 0
-7.02126 -3.80595 -4.57296 255 0 0
-7.0644 -3.26308 -4.36494 255 0 0
-7.12751 -3.0094 -4.35132 255 0 0
-7.34823 -3.84896 -4.29676 255 0 0
-7.86821 -2.47429 -5.11904 255 0 0
-9.97059 -2.87751 -4.87329 255 0 0
-8.41165 -3.45796 -3.8779 255 0 0
-8.28055 -3.10934 -3.9802 255 0 0
-9.21507 -3.01833 -4.00223 255 0 0
-7.18815 -2.66032 -4.53979 255 0 0
-11.5887 -5.02305 -4.28126 255 0 0
-7.40001 -2.44327 -4.65437 255 0 0
-9.04444 -2.65675 -5.12363 255 0 0
-10.2089 -3.10427 -4.48215 255 0 0
-8.43658 -3.56212 -3.89093 255 0 0
-9.04047 -3.41917 -3.8288 255 0 0
-8.97858 -3.42012 -3.81792 255 0 0
-11.5628 -4.94683 -4.37962 255 0 0
-7.07051 -3.68215 -4.27872 255 0 0
-8.31153 -2.76609 -4.11458 255 0 0
-7.0339 -3.71628 -4.41772 255 0 0
-7.81591 -3.93002 -4.11183 255 0 0
-7.29601 -2.68059 -4.43303 255 0 0
-8.31822 -2.50783 -5.04008 255 0 0
-9.11802 -3.0345 -3.90111 255 0 0
-11.1114 -3.14973 -5.09459 255 0 0
-7.08487 -3.23186 -4.36664 255 0 0
-8.77692 -2.66884 -4.45809 255 0 0
-8.1274 -2.81227 -4.00058 255 0 0
-9.86642 -3.12838 -4.13721 255 0 0
-9.29855 -3.02128 -4.0188 255 0 0
-9.03908 -2.98444 -3.96552 255 0 0
-8.76387 -2.93973 -3.90869 255 0 0
-8.62846 -2.92849 -3.88145 255 0 0
-8.51027 -3.05819 -3.86725 255 0 0
-8.56837 -3.12505 -3.88323 255 0 0
-8.57648 -3.12798 -3.88501 255 0 0
-8.43581 -3.14484 -3.85896 255 0 0
-8.41322 -3.20476 -3.85896 255 0 0
-8.46212 -3.26942 -3.87317 255 0 0
-8.36884 -3.25621 -3.85422 255 0 0
-8.50266 -3.35479 -3.88737 255 0 0
-8.46804 -3.36435 -3.88145 255 0 0
-8.42795 -3.41803 -3.8779 255 0 0
-8.4676 -3.45752 -3.88856 255 0 0
-8.41067 -3.58647 -3.88797 255 0 0
-8.34981 -3.61916 -3.87909 255 0 0
-8.38851 -3.65959 -3.88974 255 0 0
-8.33255 -3.65872 -3.87909 255 0 0
-8.4125 -3.78939 -3.90513 255 0 0
-8.397 -3.87859 -3.90987 255 0 0
-8.43666 -3.96999 -3.92526 255 0 0
-8.53606 -4.04151 -3.95013 255 0 0
-8.43367 -4.02982 -3.93 255 0 0
-8.24064 -3.57184 -3.93248 255 0 0
-8.9514 -2.62942 -5.00567 255 0 0
-7.08804 -3.32512 -4.37941 255 0 0
-8.18979 -2.46911 -5.15368 255 0 0
-6.96537 -3.79705 -4.9248 255 0 0
-10.0551 -3.13581 -4.26627 255 0 0
-9.96574 -3.13389 -4.24779 255 0 0
-8.72287 -2.90299 -3.97806 255 0 0
-8.58428 -2.90215 -3.94973 255 0 0
-8.42506 -2.96007 -3.9214 255 0 0
-8.31927 -2.9673 -3.90046 255 0 0
-8.34994 -3.02297 -3.91072 255 0 0
-8.31206 -3.08749 -3.90785 255 0 0
-8.28775 -3.16823 -3.90908 255 0 0
-8.29016 -3.22559 -3.91401 255 0 0
-8.31206 -3.27958 -3.92263 255 0 0
-8.22732 -3.29132 -3.90662 255 0 0
-8.26986 -3.39967 -3.92386 255 0 0
-8.24307 -3.43445 -3.9214 255 0 0
-8.26361 -3.48908 -3.93002 255 0 0
-8.23766 -3.62872 -3.9368 255 0 0
-8.23256 -3.66147 -3.93864 255 0 0
-8.20295 -3.67163 -3.93372 255 0 0
-8.20803 -3.72072 -3.93905 255 0 0
-8.21979 -3.77314 -3.94603 255 0 0
-8.24923 -3.88179 -3.96163 255 0 0
-8.27381 -3.94139 -3.9719 255 0 0
-8.2283 -3.94368 -3.96328 255 0 0
-8.22409 -3.96566 -3.96451 255 0 0
-7.47214 -3.735 -4.23835 255 0 0
-7.58114 -3.20093 -4.20501 255 0 0
-8.21622 -2.79945 -4.01915 255 0 0
-10.1225 -3.10425 -4.37035 255 0 0
-9.2251 -2.94913 -4.16824 255 0 0
-8.65414 -2.85734 -4.04032 255 0 0
-8.61481 -2.86703 -4.03265 255 0 0
-8.43463 -2.82929 -3.99171 255 0 0
-8.41166 -2.8438 -3.98787 255 0 0
-8.31295 -2.8324 -3.96613 255 0 0
-8.25283 -2.86663 -3.95589 255 0 0
-8.27879 -2.93075 -3.96613 255 0 0
-8.27182 -2.95037 -3.96613 255 0 0
-8.25404 -2.96611 -3.96357 255 0 0
-8.28283 -3.02088 -3.9738 255 0 0
-8.24346 -3.02869 -3.96613 255 0 0
-8.29691 -3.08187 -3.98148 255 0 0
-8.24756 -3.16407 -3.97764 255 0 0
-8.21338 -3.17332 -3.97124 255 0 0
-8.23246 -3.20315 -3.97764 255 0 0
-8.19974 -3.22405 -3.97252 255 0 0
-8.09561 -3.23863 -3.95206 255 0 0
-8.2125 -3.37609 -3.98787 255 0 0
-8.17864 -3.46463 -3.98851 255 0 0
-8.15534 -3.51193 -3.98787 255 0 0
-8.1269 -3.59142 -3.98915 255 0 0
-8.14446 -3.62229 -3.99555 255 0 0
-8.10977 -3.62992 -3.98915 255 0 0
-8.11242 -3.66581 -3.99299 255 0 0
-8.09653 -3.72817 -3.99555 255 0 0
-8.1454 -3.78586 -4.0109 255 0 0
-8.10454 -3.87256 -4.0109 255 0 0
-8.05764 -3.95628 -4.00962 255 0 0
-8.08922 -3.99562 -4.01985 255 0 0
-7.21061 -2.63951 -4.54439 255 0 0
-7.82123 -2.37824 -5.01392 255 0 0
-7.63941 -2.52231 -4.29964 255 0 0
-8.64892 -2.56286 -5.24086 255 0 0
-7.4405 -2.32041 -5.24734 255 0 0
-10.1862 -2.83536 -4.45959 255 0 0
-10.1979 -3.02185 -4.47419 255 0 0
-9.29764 -2.92379 -4.26723 255 0 0
-8.75964 -2.84618 -4.14253 255 0 0
-8.68241 -2.84386 -4.12528 255 0 0
-8.29429 -2.78222 -4.03507 255 0 0
-8.24985 -2.78909 -4.02578 255 0 0
-8.16102 -2.80225 -4.00721 255 0 0
-8.15558 -2.88713 -4.01252 255 0 0
-7.9256 -3.9148 -4.0563 255 0 0
-8.03958 -4.01864 -4.09079 255 0 0
-10.8311 -3.07027 -5.11703 255 0 0
-7.38012 -2.77123 -4.1827 255 0 0
-7.8291 -2.75069 -4.14975 255 0 0
-7.27967 -3.15532 -4.19677 255 0 0
-7.43897 -2.22356 -5.23495 255 0 0
-10.1716 -2.83131 -4.54876 255 0 0
-10.1588 -2.8667 -4.54807 255 0 0
-10.1279 -2.92291 -4.54464 255 0 0
-10.1538 -2.95647 -4.55288 255 0 0
-10.1358 -2.97733 -4.55013 255 0 0
-9.9309 -3.12293 -4.51304 255 0 0
-10.0483 -3.18604 -4.54464 255 0 0
-8.65038 -2.81068 -4.19564 255 0 0
-8.18083 -2.74416 -4.08298 255 0 0
-8.07075 -2.74988 -4.05824 255 0 0
-8.01398 -2.78367 -4.04794 255 0 0
-8.00002 -2.83207 -4.04863 255 0 0
-8.88946 -4.20883 -4.37426 255 0 0
-7.26106 -2.68731 -4.35302 255 0 0
-8.56844 -2.56112 -4.96339 255 0 0
-6.99527 -3.5278 -4.66853 255 0 0
-10.5384 -3.04138 -4.74444 255 0 0
-10.4821 -3.05206 -4.73165 255 0 0
-10.2132 -3.00007 -4.66343 255 0 0
-9.4289 -2.86709 -4.46587 255 0 0
-9.66645 -2.96438 -4.52983 255 0 0
-9.96329 -3.08128 -4.60942 255 0 0
-10.0969 -3.14886 -4.64637 255 0 0
-8.71626 -2.78646 -4.28964 255 0 0
-8.30217 -2.71932 -4.18589 255 0 0
-8.19395 -2.72695 -4.16078 255 0 0
-8.0231 -2.71243 -4.11909 255 0 0
-8.00265 -2.73726 -4.11624 255 0 0
-7.83183 -2.70999 -4.07361 255 0 0
-8.8921 -4.23592 -4.46445 255 0 0
-7.75428 -3.89904 -4.17167 255 0 0
-7.7146 -3.90203 -4.16315 255 0 0
-7.37468 -2.53225 -4.22883 255 0 0
-7.89381 -2.52352 -5.21288 255 0 0
-7.7945 -2.41055 -4.77897 255 0 0
-10.863 -3.07934 -4.92507 255 0 0
-9.27463 -2.79618 -4.50951 255 0 0
-7.78529 -2.83942 -4.14682 255 0 0
-7.78237 -2.88024 -4.14975 255 0 0
-7.70116 -2.87097 -4.1292 255 0 0
-8.87142 -2.67461 -4.5655 255 0 0
-7.74733 -2.52745 -4.32941 255 0 0
-7.82862 -2.52317 -4.35114 255 0 0
-7.65099 -2.40598 -4.65766 255 0 0
-7.28702 -3.3869 -4.22489 255 0 0
-7.08496 -3.39569 -4.45927 255 0 0
-7.24988 -2.78133 -5.23533 255 0 0
-10.3247 -2.97969 -4.87939 255 0 0
-9.94831 -2.89665 -4.77634 255 0 0
-9.61582 -2.82458 -4.68541 255 0 0
-9.42472 -2.79274 -4.63388 255 0 0
-8.60207 -2.6603 -4.41263 255 0 0
-8.49315 -2.6487 -4.38383 255 0 0
-8.14547 -2.60399 -4.29139 255 0 0
-8.05853 -2.59727 -4.26866 255 0 0
-7.97451 -2.65393 -4.25199 255 0 0
-7.75199 -2.64127 -4.1944 255 0 0
-7.72431 -2.6523 -4.18834 255 0 0
-7.67524 -2.65581 -4.17621 255 0 0
-7.61769 -2.66628 -4.16257 255 0 0
-7.70912 -2.78061 -4.19591 255 0 0
-7.54257 -2.79149 -4.155 255 0 0
-7.56772 -2.82122 -4.16409 255 0 0
-7.61056 -2.86806 -4.17924 255 0 0
-7.55803 -2.87901 -4.16712 255 0 0
-7.6304 -2.9273 -4.18985 255 0 0
-7.54771 -3.01944 -4.17823 255 0 0
-7.53991 -3.131 -4.18758 255 0 0
-7.51543 -3.2681 -4.19591 255 0 0
-7.53609 -3.31965 -4.20652 255 0 0
-7.55391 -3.44582 -4.22471 255 0 0
-7.556 -3.46844 -4.22774 255 0 0
-7.48305 -3.47801 -4.21107 255 0 0
-7.53478 -3.56743 -4.2338 255 0 0
-7.41244 -3.57428 -4.20501 255 0 0
-7.49849 -3.68175 -4.23835 255 0 0
-7.49358 -3.76795 -4.24744 255 0 0
-7.45434 -3.77039 -4.23835 255 0 0
-7.53108 -3.83165 -4.26411 255 0 0
-7.40219 -3.81037 -4.23077 255 0 0
-7.46345 -3.86432 -4.25199 255 0 0
-10.4466 -2.98808 -5.10589 255 0 0
-9.60073 -2.79544 -4.76861 255 0 0
-9.18158 -2.72069 -4.65143 255 0 0
-8.67609 -2.63818 -4.51081 255 0 0
-8.54033 -2.61904 -4.47331 255 0 0
-8.39932 -2.5976 -4.43425 255 0 0
-8.15005 -2.56292 -4.36551 255 0 0
-7.81878 -2.56099 -4.27801 255 0 0
-7.82876 -2.58483 -4.2827 255 0 0
-7.61467 -2.58441 -4.22645 255 0 0
-7.57341 -2.60048 -4.21708 255 0 0
-7.48549 -2.62996 -4.19677 255 0 0
-7.29959 -2.61336 -4.42691 255 0 0
-7.51213 -2.63932 -4.20458 255 0 0
-7.39227 -2.65643 -4.17489 255 0 0
-7.37003 -2.66819 -4.1702 255 0 0
-7.44527 -2.72544 -4.1952 255 0 0
-7.37733 -2.73034 -4.17802 255 0 0
-7.37985 -2.85128 -4.19052 255 0 0
-7.36296 -2.92531 -4.19364 255 0 0
-7.29314 -2.9176 -4.17489 255 0 0
-7.3004 -3.09259 -4.1952 255 0 0
-7.30786 -3.14698 -4.20301 255 0 0
-7.31487 -3.32631 -4.22489 255 0 0
-7.23633 -3.3217 -4.20458 255 0 0
-7.26274 -3.43864 -4.22489 255 0 0
-7.39393 -3.54378 -4.2702 255 0 0
-7.23325 -3.51963 -4.22723 255 0 0
-7.30934 -3.58887 -4.25457 255 0 0
-7.27497 -3.65803 -4.25457 255 0 0
-7.26224 -3.782 -4.26707 255 0 0
-7.38401 -3.89004 -4.31082 255 0 0
-7.39471 -3.91811 -4.31707 255 0 0
-7.31218 -2.57881 -4.35643 255 0 0
-9.54587 -2.77947 -4.84197 255 0 0
-9.03598 -2.67755 -4.69391 255 0 0
-8.81924 -2.63609 -4.63115 255 0 0
-8.46192 -2.57306 -4.52816 255 0 0
-8.06718 -2.51585 -4.41551 255 0 0
-7.56631 -2.52806 -4.28033 255 0 0
-7.45594 -2.52069 -4.24976 255 0 0
-7.46593 -2.54381 -4.25458 255 0 0
-7.3622 -2.57685 -4.22964 255 0 0
-7.30036 -2.63316 -4.21837 255 0 0
-7.27773 -2.65431 -4.21435 255 0 0
-7.19834 -2.72247 -4.19987 255 0 0
-7.04364 -3.3247 -4.22642 255 0 0
-7.04834 -3.37815 -4.2342 255 0 0
-7.04833 -3.50229 -4.24976 255 0 0
-7.04656 -3.58514 -4.25995 255 0 0
-7.04785 -3.62797 -4.26585 255 0 0
-7.08922 -3.67056 -4.28194 255 0 0
-7.23973 -3.88007 -4.34792 255 0 0
-7.15243 -2.90074 -5.21581 255 0 0
-10.6318 -2.95939 -5.25404 255 0 0
-10.5457 -3.0164 -5.23417 255 0 0
-10.0744 -2.90747 -5.09175 255 0 0
-9.44198 -2.74922 -4.89966 255 0 0
-9.20911 -2.70512 -4.83011 255 0 0
-8.71727 -2.60561 -4.68272 255 0 0
-8.46372 -2.5517 -4.60655 255 0 0
-8.25346 -2.50967 -4.54362 255 0 0
-8.09714 -2.48313 -4.49725 255 0 0
-7.98876 -2.4914 -4.46744 255 0 0
-7.61148 -2.47312 -4.3598 255 0 0
-7.65865 -2.5186 -4.37719 255 0 0
-7.38274 -2.5546 -4.3035 255 0 0
-7.29556 -2.58268 -4.28197 255 0 0
-7.33174 -2.61507 -4.29522 255 0 0
-7.02798 -3.36839 -4.29798 255 0 0
-7.01868 -3.40495 -4.30019 255 0 0
-7.03622 -3.47552 -4.31399 255 0 0
-7.02213 -3.56225 -4.32171 255 0 0
-7.05782 -3.66491 -4.3449 255 0 0
-7.08069 -3.73024 -4.3598 255 0 0
-7.07826 -3.78275 -4.36643 255 0 0
-7.11421 -3.83454 -4.38299 255 0 0
-7.52541 -2.38611 -4.91062 255 0 0
-7.54348 -2.41154 -4.55141 255 0 0
-8.22277 -2.47905 -4.61012 255 0 0
-8.07166 -2.47531 -4.56585 255 0 0
-7.78663 -2.44863 -4.48072 255 0 0
-7.71672 -2.44677 -4.46029 255 0 0
-7.59256 -2.46697 -4.42623 255 0 0
-7.45227 -2.48995 -4.38793 255 0 0
-7.44038 -2.52526 -4.38793 255 0 0
-7.41734 -2.56657 -4.38537 255 0 0
-7.33718 -2.55833 -4.36153 255 0 0
-7.32313 -2.63159 -4.36494 255 0 0
-7.3274 -2.65276 -4.36835 255 0 0
-7.26215 -2.66815 -4.35132 255 0 0
-7.24417 -2.7006 -4.34962 255 0 0
-7.1705 -2.76063 -4.33514 255 0 0
-7.1998 -2.80135 -4.34791 255 0 0
-7.22965 -2.83272 -4.35983 255 0 0
-7.1789 -2.86203 -4.34876 255 0 0
-7.16608 -2.88651 -4.34791 255 0 0
-7.11913 -2.98599 -4.34621 255 0 0
-7.12449 -3.03802 -4.35387 255 0 0
-7.12136 -3.06667 -4.35643 255 0 0
-7.0696 -3.2249 -4.36153 255 0 0
-7.08484 -3.36471 -4.38367 255 0 0
-7.07586 -3.42233 -4.38878 255 0 0
-7.07736 -3.49582 -4.39899 255 0 0
-7.04566 -3.52182 -4.39388 255 0 0
-7.04541 -3.58456 -4.4024 255 0 0
-7.08253 -3.67776 -4.42538 255 0 0
-7.06197 -3.69902 -4.42283 255 0 0
-7.11051 -3.81082 -4.45177 255 0 0
-7.15571 -3.8569 -4.4705 255 0 0
-7.23673 -2.47529 -4.89226 255 0 0
-9.34075 -2.71974 -5.04522 255 0 0
-7.32049 -2.49425 -4.42079 255 0 0
-7.30398 -2.50797 -4.41729 255 0 0
-7.26452 -2.66902 -4.42253 255 0 0
-7.23489 -2.71668 -4.41904 255 0 0
-7.18621 -2.77648 -4.41146 255 0 0
-7.20518 -2.83299 -4.42341 255 0 0
-7.1665 -2.84725 -4.41379 255 0 0
-7.14863 -2.92885 -4.41816 255 0 0
-7.05264 -3.35966 -4.44527 255 0 0
-7.0537 -3.42193 -4.45402 255 0 0
-7.08761 -3.54279 -4.48026 255 0 0
-7.08175 -3.67735 -4.49775 255 0 0
-7.1387 -3.81502 -4.5336 255 0 0
-7.09803 -3.82582 -4.52398 255 0 0
-7.90582 -2.61027 -5.22769 255 0 0
-7.9051 -2.40374 -4.89117 255 0 0
-9.20911 -2.68141 -5.09006 255 0 0
-8.07337 -2.43401 -4.7166 255 0 0
-7.89676 -2.41142 -4.66004 255 0 0
-7.74134 -2.41423 -4.61246 255 0 0
-7.67711 -2.41419 -4.59271 255 0 0
-7.59167 -2.40712 -4.56577 255 0 0
-7.37783 -2.41656 -4.50114 255 0 0
-7.33404 -2.46011 -4.49216 255 0 0
-7.31468 -2.4826 -4.48857 255 0 0
-7.29 -2.50317 -4.48318 255 0 0
-7.00957 -3.5768 -4.53525 255 0 0
-7.01165 -3.69387 -4.55321 255 0 0
-7.04905 -3.77788 -4.57655 255 0 0
-7.01555 -3.78136 -4.56757 255 0 0
-8.78765 -2.60397 -5.03706 255 0 0
-8.26966 -2.49319 -4.8621 255 0 0
-7.85389 -2.40853 -4.72212 255 0 0
-7.79506 -2.41072 -4.7037 255 0 0
-7.60266 -2.42052 -4.64385 255 0 0
-7.50672 -2.41942 -4.61346 255 0 0
-7.35783 -2.41 -4.56557 255 0 0
-7.3732 -2.43441 -4.57294 255 0 0
-7.3159 -2.48301 -4.56005 255 0 0
-7.28375 -2.55908 -4.55821 255 0 0
-7.2663 -2.59173 -4.55636 255 0 0
-7.2278 -2.6167 -4.54716 255 0 0
-7.02407 -3.38701 -4.58399 255 0 0
-7.02292 -3.4276 -4.58952 255 0 0
-7.01655 -3.46578 -4.5932 255 0 0
-7.02823 -3.4923 -4.60057 255 0 0
-7.01576 -3.51728 -4.60057 255 0 0
-7.01313 -3.54722 -4.60425 255 0 0
-7.00123 -3.73091 -4.62881 255 0 0
-7.0062 -3.8193 -4.64415 255 0 0
-7.20113 -2.66513 -4.90365 255 0 0
-8.64092 -2.56049 -5.06971 255 0 0
-7.75173 -2.41747 -4.76576 255 0 0
-7.6931 -2.41922 -4.74688 255 0 0
-7.60786 -2.42219 -4.71951 255 0 0
-7.50161 -2.41777 -4.68458 255 0 0
-7.17174 -2.82966 -4.62606 255 0 0
-6.96725 -3.75533 -4.69591 255 0 0
-6.99731 -3.79297 -4.71101 255 0 0
-7.04238 -3.31389 -5.24284 255 0 0
-7.05666 -3.89033 -4.81961 255 0 0
-7.71937 -2.38732 -4.82735 255 0 0
-7.49634 -2.39647 -4.75386 255 0 0
-7.48011 -2.41084 -4.74999 255 0 0
-7.31103 -2.39468 -4.69197 255 0 0
-6.97863 -3.82577 -4.7848 255 0 0
-6.98682 -3.69138 -4.83897 255 0 0
-7.8627 -2.38067 -5.10661 255 0 0
-8.35772 -2.49814 -5.13395 255 0 0
-7.87129 -2.39346 -4.95578 255 0 0
-7.76549 -2.38142 -4.91816 255 0 0
-7.67521 -2.39361 -4.88846 255 0 0
-7.5854 -2.38535 -4.85679 255 0 0
-7.62175 -2.41666 -4.87263 255 0 0
-7.43188 -2.3953 -4.80531 255 0 0
-7.30523 -2.39278 -4.76176 255 0 0
-7.25244 -2.39454 -4.74394 255 0 0
-7.27523 -2.4308 -4.75582 255 0 0
-6.9931 -3.72657 -4.84689 255 0 0
-6.99729 -3.8576 -4.87065 255 0 0
-7.8681 -2.41289 -5.03418 255 0 0
-7.74592 -2.43583 -4.99367 255 0 0
-7.40324 -2.42488 -4.87214 255 0 0
-7.29287 -2.41751 -4.83264 255 0 0
-7.35977 -2.46874 -4.86201 255 0 0
-7.0319 -3.39079 -4.87821 255 0 0
-6.93708 -3.80299 -4.9167 255 0 0
-8.12825 -2.42955 -5.20809 255 0 0
-7.85106 -2.42802 -5.10765 255 0 0
-7.78923 -2.46976 -5.09004 255 0 0
-7.64771 -2.44486 -5.0362 255 0 0
-7.62626 -2.45795 -5.02998 255 0 0
-7.52144 -2.44386 -4.99063 255 0 0
-7.30379 -2.43069 -4.9109 255 0 0
-7.29216 -2.53297 -4.91918 255 0 0
-7.45622 -2.61968 -4.98856 255 0 0
-7.17781 -2.77322 -4.90986 255 0 0
-7.03757 -3.64381 -4.99684 255 0 0
-7.09206 -3.69337 -5.02377 255 0 0
-7.12694 -3.73305 -5.04241 255 0 0
-6.98502 -3.74356 -4.99684 255 0 0
-6.98094 -3.76271 -4.99892 255 0 0
-7.98166 -2.40636 -5.23193 255 0 0
-7.88551 -2.4592 -5.2023 255 0 0
-7.89672 -2.83771 -5.25309 255 0 0
-7.10278 -3.16911 -5.24058 255 0 0
-7.44108 -2.28194 -5.24284 255 0 0
-7.39353 -2.33466 -5.23045 255 0 0
-7.43359 -2.39585 -5.2541 255 0 0
-7.37592 -2.41593 -5.23383 255 0 0
-7.34451 -2.42494 -5.22257 255 0 0
-7.37976 -2.456 -5.24058 255 0 0
-7.31856 -2.55184 -5.22932 255 0 0
-7.36858 -2.58889 -5.2541 255 0 0
-7.30222 -2.61429 -5.23158 255 0 0
-7.24714 -2.6237 -5.21131 255 0 0
-7.29867 -2.67174 -5.23833 255 0 0
-7.24754 -2.82983 -5.24171 255 0 0
-7.22948 -2.91204 -5.24734 255 0 0
-7.17875 -3.02102 -5.24509 255 0 0
