ply
format ascii 1.0
comment Created by Open3D
element vertex 1344
property double x
property double y
property double z
property uchar red
property uchar green
property uchar blue
end_header
-5.4491 0.368791 -4.38286 255 0 0
-7.50913 0.81325 -3.82329 255 0 0
-6.4707 0.809647 -4.04123 255 0 0
-7.30624 0.52928 -3.76833 255 0 0
-6.90507 -0.18832 -3.7895 255 0 0
-7.22987 0.506519 -4.26861 255 0 0
-6.46159 1.20879 -5.06537 255 0 0
-5.56456 0.15618 -4.15815 255 0 0
-8.2721 -0.618969 -4.44591 255 0 0
-6.83412 0.641927 -3.77825 255 0 0
-6.97436 0.256428 -3.74624 255 0 0
-6.57372 0.775088 -3.83272 255 0 0
-6.4503 0.405818 -3.84744 255 0 0
-5.62444 0.853256 -4.65273 255 0 0
-5.67821 -0.276212 -4.14978 255 0 0
-6.52645 0.0618924 -4.04297 255 0 0
-5.76029 0.0614665 -3.96215 255 0 0
-5.62196 0.859747 -4.20489 255 0 0
-6.08014 1.08531 -4.45367 255 0 0
-5.61245 -0.0798689 -4.14925 255 0 0
-6.11305 -0.537692 -4.49719 255 0 0
-6.46079 0.306599 -4.02461 255 0 0
-5.56118 0.608967 -3.95758 255 0 0
-6.73526 0.76177 -4.12169 255 0 0
-6.3805 0.257313 -3.88287 255 0 0
-8.22075 1.28706 -4.3785 255 0 0
-6.75243 -0.62618 -5.09387 255 0 0
-6.81592 0.59134 -3.77237 255 0 0
-5.90851 0.925049 -4.03703 255 0 0
-5.52956 0.0152958 -4.5785 255 0 0
-5.57085 0.310714 -4.16308 255 0 0
-5.55665 0.420188 -4.2496 255 0 0
-7.4996 0.516492 -4.21656 255 0 0
-6.4988 -0.00770437 -4.03423 255 0 0
-5.45802 0.209305 -4.49195 255 0 0
-7.34811 -0.0261338 -3.77383 255 0 0
-5.8758 -0.453675 -4.34125 255 0 0
-5.75431 0.259401 -3.96199 255 0 0
-5.52859 0.104879 -4.5785 255 0 0
-6.0471 1.00559 -4.08801 255 0 0
-5.68989 0.849402 -4.06687 255 0 0
-8.31008 1.20029 -4.47572 255 0 0
-5.42559 0.600638 -4.32782 255 0 0
-5.47529 -0.0389577 -4.38891 255 0 0
-5.53432 0.792674 -4.55068 255 0 0
-5.56978 0.64333 -4.17367 255 0 0
-8.28499 1.21673 -4.4691 255 0 0
-5.59171 0.30524 -4.11767 255 0 0
-5.53482 -0.0328082 -4.58097 255 0 0
-6.19521 -0.552291 -4.47096 255 0 0
-5.54554 0.547433 -4.32178 255 0 0
-6.66246 1.04309 -4.17256 255 0 0
-6.29218 -0.246286 -3.91375 255 0 0
-5.64864 -0.348663 -4.30297 255 0 0
-6.82051 -0.347989 -4.0137 255 0 0
-6.51842 0.705933 -4.0523 255 0 0
-6.59379 0.00781699 -4.06396 255 0 0
-6.20669 0.926551 -4.02174 255 0 0
-5.467 0.0626526 -4.49438 255 0 0
-5.58206 0.218491 -4.1125 255 0 0
-8.34927 0.188096 -4.46247 255 0 0
-7.10182 -0.134728 -3.77728 255 0 0
-5.41453 0.256959 -4.41883 255 0 0
-8.31024 1.26072 -4.40264 255 0 0
-5.41631 0.465626 -4.31825 255 0 0
-6.56298 0.194568 -4.05522 255 0 0
-5.94189 0.600781 -3.97897 255 0 0
-6.67422 0.706827 -3.79836 255 0 0
-8.28498 -0.63969 -4.37528 255 0 0
-5.64755 0.76111 -4.15495 255 0 0
-6.5724 0.413501 -3.82335 255 0 0
-5.41852 0.308671 -4.42181 255 0 0
-6.48016 -0.500338 -4.27425 255 0 0
-6.62618 0.909008 -3.91181 255 0 0
-5.56275 -0.0857333 -4.05114 255 0 0
-7.4605 0.469375 -4.20414 255 0 0
-6.64659 0.402349 -3.84366 255 0 0
-5.78989 -0.15791 -3.97285 255 0 0
-5.62224 -0.373817 -4.34768 255 0 0
-5.79124 -0.0961266 -3.97285 255 0 0
-7.4763 0.5416 -4.27811 255 0 0
-6.60254 -0.321174 -3.94911 255 0 0
-6.51339 -0.316838 -3.98185 255 0 0
-5.77511 0.946297 -4.1025 255 0 0
-5.5404 0.105108 -4.30883 255 0 0
-6.80171 0.508955 -3.76699 255 0 0
-5.58389 0.165542 -4.1125 255 0 0
-6.14046 0.123769 -3.97864 255 0 0
-7.38188 -0.0787644 -3.78207 255 0 0
-5.55611 0.863139 -4.56526 255 0 0
-7.26127 -0.232503 -3.81778 255 0 0
-6.15457 0.70348 -3.9957 255 0 0
-7.05921 -0.66307 -5.16386 255 0 0
-5.79291 0.710897 -3.98795 255 0 0
-7.56938 -0.233396 -3.8281 255 0 0
-6.12889 0.298134 -3.97685 255 0 0
-6.95132 -0.272086 -3.86403 255 0 0
-5.83185 -0.436374 -4.43663 255 0 0
-6.48225 -0.207559 -3.85388 255 0 0
-6.79066 0.152983 -3.75965 255 0 0
-6.48547 -0.300068 -3.91434 255 0 0
-5.52991 0.519423 -4.04777 255 0 0
-6.28695 -0.530432 -4.38588 255 0 0
-7.06006 -0.376996 -4.14871 255 0 0
-5.99831 1.08539 -4.72006 255 0 0
-7.01596 0.541708 -3.94834 255 0 0
-5.60936 -0.239581 -4.61809 255 0 0
-5.87782 0.905971 -4.02571 255 0 0
-5.893 -0.44095 -4.23469 255 0 0
-6.75448 0.136146 -4.11469 255 0 0
-6.13217 0.342032 -3.97864 255 0 0
-5.62656 -0.153455 -4.18213 255 0 0
-6.43005 -0.282227 -3.89778 255 0 0
-6.39639 0.28075 -3.88784 255 0 0
-5.62296 0.900845 -4.26235 255 0 0
-5.46034 0.558655 -4.39477 255 0 0
-6.32692 0.322806 -3.86797 255 0 0
-5.69569 1.00276 -4.40961 255 0 0
-5.481 0.703431 -4.41096 255 0 0
-5.53185 0.0327906 -4.25111 255 0 0
-6.41191 0.327142 -3.9512 255 0 0
-5.64677 0.822456 -3.99674 255 0 0
-6.26891 -0.282621 -3.96426 255 0 0
-5.56146 0.945186 -4.51725 255 0 0
-6.64562 0.418111 -3.78421 255 0 0
-6.64586 -0.433945 -4.14563 255 0 0
-5.84916 0.873179 -4.01438 255 0 0
-6.01181 1.07311 -4.48505 255 0 0
-5.93871 -0.401914 -4.0828 255 0 0
-6.66634 -0.0474121 -3.96567 255 0 0
-6.06638 -0.323936 -4.01304 255 0 0
-5.66879 -0.242084 -4.14563 255 0 0
-6.12934 1.12411 -4.53581 255 0 0
-5.53183 0.407336 -4.31108 255 0 0
-5.54535 -0.041649 -4.58592 255 0 0
-5.57894 0.311174 -4.00747 255 0 0
-5.51005 0.78253 -4.42813 255 0 0
-5.58593 0.712397 -4.07612 255 0 0
-6.79318 0.411222 -3.76307 255 0 0
-5.57542 -0.284463 -4.60324 255 0 0
-6.57133 0.0389522 -4.05697 255 0 0
-6.20763 1.07772 -4.20463 255 0 0
-5.51649 0.150447 -4.0346 255 0 0
-5.57483 -0.125592 -4.05587 255 0 0
-6.83497 0.723846 -3.90303 255 0 0
-6.38008 0.936976 -4.01849 255 0 0
-7.29077 0.00864326 -4.01865 255 0 0
-5.80608 -0.434446 -4.48285 255 0 0
-7.31133 -0.686731 -5.20395 255 0 0
-8.36234 -0.496258 -4.31942 255 0 0
-6.46431 1.31274 -5.07589 255 0 0
-5.75983 0.609985 -3.97285 255 0 0
-5.71177 0.908126 -4.18705 255 0 0
-6.72884 0.841947 -3.81705 255 0 0
-6.48135 0.608792 -3.97844 255 0 0
-5.65165 -0.1877 -4.13838 255 0 0
-5.59193 -0.112713 -3.9571 255 0 0
-6.70775 -0.485924 -4.22853 255 0 0
-5.5055 0.385711 -4.57355 255 0 0
-5.93367 0.943407 -4.04647 255 0 0
-6.66441 0.0079007 -3.78573 255 0 0
-6.11165 -0.530239 -4.55599 255 0 0
-6.55202 -0.537153 -4.36185 255 0 0
-5.5467 -0.0394658 -4.25718 255 0 0
-5.98614 0.857385 -4.00384 255 0 0
-7.49775 0.758102 -3.81917 255 0 0
-5.96063 -0.44601 -4.20373 255 0 0
-5.66586 -0.376708 -4.3107 255 0 0
-5.65397 -0.349002 -4.25046 255 0 0
-5.59896 0.606376 -4.02331 255 0 0
-5.45604 0.505963 -4.39067 255 0 0
-6.52843 0.224534 -3.98526 255 0 0
-6.51673 0.878256 -3.87962 255 0 0
-6.56007 0.0544535 -3.99377 255 0 0
-6.44616 0.129931 -3.90109 255 0 0
-5.5857 0.517984 -4.01539 255 0 0
-6.99966 0.0580884 -3.75146 255 0 0
-5.66663 0.859663 -4.16738 255 0 0
-5.57983 0.158798 -4.00549 255 0 0
-6.52324 -0.19339 -3.92427 255 0 0
-6.65361 0.864598 -3.85772 255 0 0
-6.43017 -0.29751 -3.95631 255 0 0
-6.4908 -0.177026 -4.03248 255 0 0
-5.57356 0.906508 -4.35275 255 0 0
-7.43851 -0.4857 -4.33333 255 0 0
-6.69595 1.34326 -5.11574 255 0 0
-5.55988 0.709074 -4.33529 255 0 0
-5.59407 0.558931 -4.12596 255 0 0
-6.01614 -0.493221 -4.45636 255 0 0
-5.42886 0.464517 -4.43135 255 0 0
-6.28715 -0.231161 -3.91204 255 0 0
-6.27383 -0.394716 -4.08303 255 0 0
-6.11062 -0.413548 -4.08612 255 0 0
-5.52121 -0.229239 -4.41096 255 0 0
-7.46232 0.0177033 -4.13308 255 0 0
-6.41334 0.12927 -3.9495 255 0 0
-6.56116 0.147813 -3.8171 255 0 0
-6.19216 0.522434 -4.00199 255 0 0
-6.66782 0.658242 -3.79533 255 0 0
-5.45293 0.46007 -4.38755 255 0 0
-6.65052 -0.370943 -4.08495 255 0 0
-5.63146 0.792969 -3.98997 255 0 0
-5.68326 0.889783 -4.68243 255 0 0
-5.68277 0.862131 -4.01125 255 0 0
-6.53039 0.473076 -3.87158 255 0 0
-5.58255 -0.2981 -4.32929 255 0 0
-5.53886 0.513651 -3.94646 255 0 0
-7.58768 0.876405 -4.25216 255 0 0
-5.7697 -0.0410441 -3.96529 255 0 0
-6.39595 0.371958 -3.83135 255 0 0
-5.57821 0.211714 -4.16414 255 0 0
-6.46033 0.252868 -4.02373 255 0 0
-5.54606 0.868316 -4.44921 255 0 0
-5.59154 0.498475 -4.12285 255 0 0
-8.30827 -0.591986 -4.38091 255 0 0
-5.55533 0.661695 -4.60881 255 0 0
-5.56288 0.662606 -4.33417 255 0 0
-5.51573 0.189704 -4.57355 255 0 0
-6.2188 0.860644 -3.96514 255 0 0
-5.45051 0.258657 -4.38072 255 0 0
-5.57873 0.262528 -4.21875 255 0 0
-5.86427 1.04678 -4.54027 255 0 0
-5.51539 0.21151 -4.03494 255 0 0
-5.7114 0.894188 -4.02285 255 0 0
-6.12666 1.13864 -4.53581 255 0 0
-5.43249 0.0450828 -4.42419 255 0 0
-6.22272 -0.250967 -3.9494 255 0 0
-6.16242 -0.564098 -4.51815 255 0 0
-7.274 0.500952 -3.76009 255 0 0
-6.09163 1.05758 -4.22129 255 0 0
-5.56165 0.462604 -4.16361 255 0 0
-5.67532 0.819735 -4.16842 255 0 0
-5.7642 0.993702 -4.21191 255 0 0
-5.58968 0.726347 -4.07815 255 0 0
-5.44647 0.310256 -4.38013 255 0 0
-5.96972 0.963656 -4.05969 255 0 0
-5.54331 -0.256476 -4.42111 255 0 0
-6.58013 -0.413987 -4.12408 255 0 0
-5.55049 -0.0329055 -4.04642 255 0 0
-5.54362 0.10298 -4.25626 255 0 0
-6.41052 -0.433845 -4.12908 255 0 0
-5.73109 0.911199 -4.03058 255 0 0
-6.08083 -0.484012 -4.4234 255 0 0
-5.56125 0.0329649 -4.20938 255 0 0
-7.30886 0.616664 -4.16274 255 0 0
-5.4438 0.251872 -4.48627 255 0 0
-6.43851 0.359118 -4.01849 255 0 0
-5.56998 0.71037 -4.28495 255 0 0
-5.57009 0.0594283 -4.15956 255 0 0
-8.28823 1.19714 -4.31863 255 0 0
-7.16566 0.707364 -3.99365 255 0 0
-6.58124 -0.27323 -3.88284 255 0 0
-7.15738 0.655193 -3.99 255 0 0
-6.42733 -0.205801 -3.89612 255 0 0
-5.58468 -0.324779 -4.33079 255 0 0
-5.74381 0.211171 -3.95774 255 0 0
-5.40683 0.353042 -4.31059 255 0 0
-6.48424 -0.593557 -5.03629 255 0 0
-6.60915 -0.243 -3.83116 255 0 0
-6.52845 0.519641 -3.99036 255 0 0
-5.81369 -0.365766 -4.03832 255 0 0
-6.64746 0.110329 -3.78143 255 0 0
-5.57233 -0.138755 -4.16097 255 0 0
-5.69907 -0.297559 -4.15806 255 0 0
-5.54579 -0.236835 -4.53245 255 0 0
-5.68559 0.862547 -4.17463 255 0 0
-5.70861 0.872964 -4.07478 255 0 0
-5.83029 0.849181 -4.00683 255 0 0
-5.45755 0.512627 -4.50086 255 0 0
-6.60393 -0.117447 -4.06746 255 0 0
-5.45271 0.206953 -4.38072 255 0 0
-6.9791 0.755848 -3.94365 255 0 0
-5.43258 0.0322022 -4.42419 255 0 0
-6.38913 0.166674 -3.88453 255 0 0
-6.68298 -0.0713071 -3.97064 255 0 0
-8.32728 1.22294 -4.40585 255 0 0
-5.52607 0.591861 -4.15462 255 0 0
-5.56037 0.0132226 -4.15568 255 0 0
-5.51078 0.30082 -4.57355 255 0 0
-7.2968 0.0432525 -3.76146 255 0 0
-5.9316 0.670875 -3.97805 255 0 0
-7.30509 0.659958 -4.16274 255 0 0
-7.25629 -0.0946048 -4.00927 255 0 0
-6.63436 0.385823 -3.78068 255 0 0
-6.37785 0.0983005 -3.8233 255 0 0
-6.71087 -0.0875185 -3.97892 255 0 0
-5.62601 0.765005 -4.20118 255 0 0
-6.51169 0.162164 -3.86192 255 0 0
-5.57459 0.264542 -4.16361 255 0 0
-6.56884 0.742948 -4.00909 255 0 0
-5.55414 0.60818 -4.32797 255 0 0
-5.58348 0.464419 -4.01292 255 0 0
-5.50623 0.702244 -4.53245 255 0 0
-7.41436 -0.0439494 -4.1194 255 0 0
-5.47042 0.658164 -4.40394 255 0 0
-5.60275 -0.239273 -4.28201 255 0 0
-5.56021 0.602179 -4.06194 255 0 0
-5.46258 0.811082 -4.355 255 0 0
-8.31615 1.16094 -4.32488 255 0 0
-5.43563 0.161147 -4.42658 255 0 0
-5.68825 0.86295 -4.01318 255 0 0
-5.59009 -0.192261 -4.27612 255 0 0
-5.5378 0.493684 -4.04979 255 0 0
-6.12271 0.166987 -3.97326 255 0 0
-6.44696 0.298286 -3.96142 255 0 0
-6.69112 1.22714 -5.10359 255 0 0
-5.47881 0.871087 -4.36572 255 0 0
-5.57826 0.893684 -4.57741 255 0 0
-5.94719 0.00705043 -3.97068 255 0 0
-6.01079 -0.499969 -4.69143 255 0 0
-5.66111 0.886315 -4.11258 255 0 0
-5.93838 1.06001 -4.63184 255 0 0
-7.44779 -0.397701 -4.19917 255 0 0
-6.42177 0.788064 -3.90771 255 0 0
-5.74558 0.409381 -3.96199 255 0 0
-5.71763 -0.414198 -4.33277 255 0 0
-6.59911 -0.00782329 -3.9458 255 0 0
-5.46357 0.148998 -4.49357 255 0 0
-6.24984 -0.333732 -4.01635 255 0 0
-5.4239 0.341243 -4.39802 255 0 0
-6.36054 0.294288 -3.82008 255 0 0
-6.21927 -0.376481 -4.06461 255 0 0
-5.60274 0.0132564 -4.01292 255 0 0
-6.22763 -0.540301 -4.42342 255 0 0
-7.25818 0.258247 -3.75322 255 0 0
-7.32526 -0.0434212 -3.76833 255 0 0
-5.57582 0.264608 -4.00549 255 0 0
-5.5285 0.638562 -4.05182 255 0 0
-6.70801 0.310365 -3.85928 255 0 0
-6.65402 0.768564 -3.85459 255 0 0
-6.50402 -0.0693977 -4.03598 255 0 0
-7.37262 0.692509 -3.78757 255 0 0
-7.43021 -0.132142 -4.12423 255 0 0
-6.0809 0.404292 -3.96338 255 0 0
-6.08036 -0.021625 -3.95889 255 0 0
-5.60755 0.809965 -4.14253 255 0 0
-6.27678 -0.529574 -4.93731 255 0 0
-6.07451 0.0576326 -3.9571 255 0 0
-5.43194 0.705849 -4.33586 255 0 0
-5.68996 -0.412194 -4.48901 255 0 0
-8.29133 -0.551258 -4.37528 255 0 0
-5.75228 0.163724 -3.9601 255 0 0
-5.60129 0.863368 -4.25154 255 0 0
-5.53189 0.572586 -4.59334 255 0 0
-6.15777 0.509724 -3.99061 255 0 0
-5.9539 -0.473909 -4.66518 255 0 0
-5.93457 0.133697 -3.967 255 0 0
-5.53288 0.599233 -4.05182 255 0 0
-5.8096 -0.192927 -3.97993 255 0 0
-5.49242 0.753473 -4.41877 255 0 0
-6.16375 0.608482 -3.9954 255 0 0
-7.44239 -0.0617624 -4.12745 255 0 0
-6.63202 -0.102218 -3.95574 255 0 0
-6.11786 -0.137826 -3.97146 255 0 0
-5.58133 -0.0860284 -3.95323 255 0 0
-7.29945 0.615857 -3.76833 255 0 0
-6.20074 0.963284 -4.07935 255 0 0
-6.54681 0.630604 -3.99888 255 0 0
-6.73922 -0.183801 -3.80644 255 0 0
-6.71322 0.937171 -3.93756 255 0 0
-8.29219 -0.44279 -4.37367 255 0 0
-6.32279 -0.412849 -4.09961 255 0 0
-6.60897 0.368639 -3.83272 255 0 0
-5.84341 1.02876 -4.41443 255 0 0
-7.35977 0.708901 -4.1135 255 0 0
-6.61069 -0.195929 -3.83116 255 0 0
-6.90329 0.772504 -3.79954 255 0 0
-5.70988 0.728204 -4.1767 255 0 0
-5.52881 0.31495 -3.93776 255 0 0
-5.43971 -0.0451428 -4.31978 255 0 0
-5.62745 0.935807 -4.66016 255 0 0
-8.26986 1.25458 -4.46634 255 0 0
-6.66615 0.810041 -3.85928 255 0 0
-5.96384 0.00707018 -3.97621 255 0 0
-7.39197 -0.00876323 -4.11297 255 0 0
-6.16188 1.11498 -4.42765 255 0 0
-5.94698 -0.0493525 -3.97068 255 0 0
-5.53802 0.22992 -4.25552 255 0 0
-6.37702 -0.355688 -4.05765 255 0 0
-5.44898 0.760701 -4.34619 255 0 0
-6.66737 1.30468 -5.09954 255 0 0
-5.56788 -0.145243 -4.32065 255 0 0
-5.59949 -0.245772 -4.22668 255 0 0
-6.51746 -0.348022 -4.04297 255 0 0
-5.60029 0.951778 -4.36682 255 0 0
-5.54708 0.269833 -4.25994 255 0 0
-5.54396 0.461132 -4.2638 255 0 0
-5.74507 1.01145 -4.31747 255 0 0
-6.81694 0.00807258 -3.76601 255 0 0
-6.50145 0.821324 -3.87319 255 0 0
-5.54493 0.667132 -4.21875 255 0 0
-6.27989 1.13634 -4.91159 255 0 0
-5.65337 -0.187764 -4.03222 255 0 0
-8.36307 -0.486356 -4.39459 255 0 0
-5.48621 0.646862 -4.5203 255 0 0
-5.54639 0.00657529 -4.257 255 0 0
-5.59419 0.558944 -4.01985 255 0 0
-5.56589 -0.231081 -4.32103 255 0 0
-6.52458 0.566051 -3.99036 255 0 0
-6.16491 -0.431909 -4.105 255 0 0
-5.53145 0.308525 -4.30827 255 0 0
-6.90009 0.697671 -3.92022 255 0 0
-5.42916 0.367429 -4.42817 255 0 0
-6.249 0.4378 -4.01815 255 0 0
-6.53531 -0.162734 -3.92758 255 0 0
-6.55132 0.0543676 -3.81397 255 0 0
-8.32161 -0.46415 -4.45751 255 0 0
-8.31693 -0.503462 -4.38171 255 0 0
-7.02464 0.609457 -3.76425 255 0 0
-5.58269 0.698535 -3.9687 255 0 0
-5.43971 0.0451428 -4.31978 255 0 0
-5.65798 0.982293 -4.61995 255 0 0
-5.60451 -0.339267 -4.56162 255 0 0
-7.36857 0.674507 -3.78619 255 0 0
-5.6669 -0.134395 -4.14356 255 0 0
-7.36747 0.85097 -3.79031 255 0 0
-5.67324 -0.289455 -4.09435 255 0 0
-5.7223 -0.414536 -4.61752 255 0 0
-6.33571 0.278087 -3.92737 255 0 0
-7.06852 -0.0838186 -3.76875 255 0 0
-5.5416 0.13799 -3.93969 255 0 0
-5.55358 0.455312 -4.2137 255 0 0
-5.55129 0.10314 -4.20578 255 0 0
-6.66702 0.340158 -3.84834 255 0 0
-6.45481 0.245009 -3.96312 255 0 0
-5.9214 -0.330275 -4.02004 255 0 0
-6.37701 0.828656 -3.89612 255 0 0
-6.65919 0.609577 -3.79179 255 0 0
-5.45984 0.709496 -4.4568 255 0 0
-7.33123 0.644812 -3.77657 255 0 0
-5.93387 0.161837 -3.967 255 0 0
-7.11466 -0.194041 -3.78083 255 0 0
-5.64647 0.925217 -4.32835 255 0 0
-5.55733 -0.362868 -4.3749 255 0 0
-5.61366 0.817597 -4.64531 255 0 0
-6.15856 -0.534308 -4.45583 255 0 0
-6.09135 -0.513929 -4.54698 255 0 0
-7.86356 -0.457307 -4.39388 255 0 0
-5.42152 0.250842 -4.31442 255 0 0
-6.49661 0.254268 -4.0351 255 0 0
-7.24324 -0.645721 -5.17273 255 0 0
-7.5398 -0.384688 -4.15803 255 0 0
-6.51936 0.706037 -3.99292 255 0 0
-6.34569 -0.550544 -4.40866 255 0 0
-6.45896 -0.229831 -3.84744 255 0 0
-5.45307 0.312827 -4.49195 255 0 0
-6.65527 0.00788987 -3.96236 255 0 0
-6.5878 1.0154 -4.14742 255 0 0
-6.80734 0.558085 -3.76944 255 0 0
-7.45314 0.468912 -4.26959 255 0 0
-6.12274 -0.487348 -4.26449 255 0 0
-6.15287 0.555859 -3.99032 255 0 0
-6.0776 -0.454763 -4.18961 255 0 0
-6.16879 -0.535196 -4.76301 255 0 0
-7.10603 0.514777 -4.23013 255 0 0
-6.06314 -0.52603 -4.65526 255 0 0
-5.53179 0.572576 -4.20938 255 0 0
-5.54722 0.667396 -4.05992 255 0 0
-5.92757 0.260153 -3.96608 255 0 0
-6.06023 -0.496835 -4.53347 255 0 0
-6.63277 -0.0235897 -3.95574 255 0 0
-5.81211 -0.434898 -4.60076 255 0 0
-7.3536 0.550241 -4.17433 255 0 0
-6.70477 0.373969 -3.85928 255 0 0
-6.63364 0.942101 -3.97561 255 0 0
-7.4939 0.847573 -3.82054 255 0 0
-6.37503 0.843774 -3.89612 255 0 0
-5.72181 0.895819 -4.08072 255 0 0
-5.57477 -0.145441 -4.26932 255 0 0
-7.44082 -0.34427 -4.0624 255 0 0
-6.65231 0.102517 -3.8421 255 0 0
-5.78635 1.00458 -4.16524 255 0 0
-6.68606 -0.34113 -4.03463 255 0 0
-7.49335 -0.204369 -3.80955 255 0 0
-5.72785 -0.31948 -4.00738 255 0 0
-5.45391 -0.0387945 -4.43374 255 0 0
-6.0989 -0.340175 -4.02409 255 0 0
-6.59915 -0.0704126 -4.00569 255 0 0
-5.54733 0.554241 -4.21479 255 0 0
-7.03677 0.644134 -3.76804 255 0 0
-5.9655 0.803985 -3.99463 255 0 0
-5.54297 0.547179 -4.26656 255 0 0
-6.69712 0.757474 -3.80593 255 0 0
-5.75634 0.109205 -3.96105 255 0 0
-5.54353 0.355379 -4.31446 255 0 0
-5.58347 0.304788 -4.11457 255 0 0
-7.7316 0.339355 -3.80025 255 0 0
-6.15869 0.763189 -3.99929 255 0 0
-5.70924 0.977252 -4.35705 255 0 0
-5.53266 0.334918 -4.25552 255 0 0
-6.09975 -0.188113 -3.96608 255 0 0
-5.49514 -0.0847039 -4.50734 255 0 0
-5.67432 0.80586 -4.67253 255 0 0
-6.39505 0.387122 -3.83135 255 0 0
-5.5488 0.151347 -4.31277 255 0 0
-7.51918 0.832381 -4.23063 255 0 0
-6.39549 0.326304 -4.00449 255 0 0
-5.53559 0.566336 -4.26435 255 0 0
-5.65808 0.701149 -4.15599 255 0 0
-6.64787 0.307578 -3.7832 255 0 0
-5.71417 0.964157 -4.70223 255 0 0
-7.52293 0.544978 -4.22401 255 0 0
-6.79385 0.459796 -3.76405 255 0 0
-5.85753 -0.4034 -4.10943 255 0 0
-5.49044 -0.201875 -4.45163 255 0 0
-7.25902 0.163539 -3.75276 255 0 0
-6.68748 1.06326 -4.18154 255 0 0
-6.87412 -0.138575 -3.78118 255 0 0
-6.16494 1.04022 -4.12954 255 0 0
-6.63551 0.456974 -3.78219 255 0 0
-7.56499 0.901056 -4.24637 255 0 0
-5.41468 0.199058 -4.31059 255 0 0
-5.5896 0.156868 -4.11457 255 0 0
-6.44872 0.198833 -3.84422 255 0 0
-5.85594 1.03097 -4.65325 255 0 0
-5.52977 0.262422 -4.30658 255 0 0
-5.55618 0.628413 -4.27539 255 0 0
-6.1427 0.902114 -4.00019 255 0 0
-6.97354 -0.32265 -3.99549 255 0 0
-5.54335 0.0591473 -4.30977 255 0 0
-5.6569 0.982105 -4.4484 255 0 0
-6.46463 0.375952 -3.90937 255 0 0
-5.58171 0.357817 -4.11508 255 0 0
-6.10269 0.00723478 -3.96608 255 0 0
-5.65403 0.95401 -4.25038 255 0 0
-5.53747 0.0590846 -3.93776 255 0 0
-6.2786 0.141447 -3.90864 255 0 0
-6.79914 0.104789 -3.7616 255 0 0
-5.4291 -0.0193088 -4.31519 255 0 0
-5.51171 -0.141626 -4.51544 255 0 0
-5.58908 0.391566 -4.11871 255 0 0
-6.88628 0.745795 -3.7944 255 0 0
-5.7232 0.993615 -4.25198 255 0 0
-7.01222 -1.68347e-05 -3.75454 255 0 0
-5.52729 0.51039 -4.5884 255 0 0
-5.58988 0.753344 -4.29525 255 0 0
-7.83666 -0.437102 -4.38537 255 0 0
-5.52639 0.203199 -4.25038 255 0 0
-8.32194 0.226968 -4.53009 255 0 0
-6.44609 0.497708 -4.02373 255 0 0
-7.44374 -0.132383 -3.79718 255 0 0
-5.44135 0.148404 -4.42897 255 0 0
-6.26144 -0.155915 -3.90353 255 0 0
-6.82712 -0.299655 -3.89209 255 0 0
-6.11766 1.14447 -4.59314 255 0 0
-5.62979 -0.186948 -4.1301 255 0 0
-5.5207 0.261999 -4.57726 255 0 0
-6.41086 0.517917 -4.01324 255 0 0
-5.60237 -0.139516 -3.96096 255 0 0
-6.97189 0.355713 -3.74672 255 0 0
-7.30468 0.476962 -4.29135 255 0 0
-6.16467 0.307211 -3.98852 255 0 0
-5.57461 -0.191729 -4.32403 255 0 0
-5.54196 0.720146 -4.22019 255 0 0
-5.82375 -0.449656 -4.37691 255 0 0
-5.57406 -0.191723 -4.60077 255 0 0
-5.50826 0.902585 -4.38026 255 0 0
-8.27144 -0.589349 -4.44509 255 0 0
-5.46703 0.116682 -4.49478 255 0 0
-6.16797 0.658143 -3.9984 255 0 0
-6.30886 0.865498 -3.93531 255 0 0
-5.83286 -0.43645 -4.66855 255 0 0
-7.34798 0.751766 -4.11136 255 0 0
-5.70472 -0.31819 -4.1065 255 0 0
-5.57965 0.44412 -4.11664 255 0 0
-5.58819 0.915668 -4.58349 255 0 0
-5.80466 0.761313 -3.99408 255 0 0
-7.72265 -0.467488 -4.35132 255 0 0
-6.51077 -0.650504 -5.05114 255 0 0
-6.22229 -0.46559 -4.18336 255 0 0
-6.4229 1.05244 -4.1567 255 0 0
-5.9201 0.351327 -3.96516 255 0 0
-7.46763 0.772947 -3.8123 255 0 0
-6.10033 0.311245 -3.96787 255 0 0
-6.14098 -0.0946497 -3.97864 255 0 0
-5.45152 0.109878 -4.37896 255 0 0
-5.5569 0.230703 -4.31728 255 0 0
-5.73925 -0.306467 -4.06489 255 0 0
-7.54144 -0.366846 -4.09052 255 0 0
-7.25957 0.215211 -3.75322 255 0 0
-7.48749 -0.310855 -4.008 255 0 0
-7.0699 0.714841 -3.77799 255 0 0
-5.62109 0.656007 -4.03321 255 0 0
-7.00425 0.557513 -3.75809 255 0 0
-5.79601 -0.433692 -4.53584 255 0 0
-8.25034 0.303342 -4.43432 255 0 0
-6.34926 -0.218372 -3.93077 255 0 0
-6.1337 0.66429 -3.98762 255 0 0
-5.7128 0.936087 -4.18913 255 0 0
-7.3385 0.847624 -4.31234 255 0 0
-5.65809 -0.261787 -4.08828 255 0 0
-6.33141 0.217758 -3.86797 255 0 0
-6.43376 -0.206006 -3.95631 255 0 0
-6.61807 0.463683 -3.83689 255 0 0
-7.62232 0.82551 -3.85077 255 0 0
-7.43156 0.733613 -3.80268 255 0 0
-7.45027 0.717627 -3.8068 255 0 0
-7.32925 0.600874 -3.7752 255 0 0
-7.29985 0.563641 -3.76741 255 0 0
-7.28062 0.458067 -3.761 255 0 0
-7.26475 0.40518 -3.75642 255 0 0
-7.2485 0.352601 -3.75184 255 0 0
-7.24442 0.317971 -3.75047 255 0 0
-7.23378 0.300322 -3.74772 255 0 0
-7.23447 0.283169 -3.74772 255 0 0
-7.28087 0.112219 -3.7578 255 0 0
-7.28521 0.0690954 -3.75871 255 0 0
-7.31019 0.00864829 -3.76467 255 0 0
-7.34221 -0.0609311 -3.77245 255 0 0
-7.40147 -0.105304 -3.78688 255 0 0
-7.49462 -0.151064 -3.80955 255 0 0
-7.53976 -0.169859 -3.82054 255 0 0
-7.45968 -0.185752 -3.80131 255 0 0
-7.62838 0.881106 -4.19504 255 0 0
-5.93623 0.628666 -3.97805 255 0 0
-6.57937 0.966244 -4.02101 255 0 0
-8.34381 -0.524948 -4.38976 255 0 0
-5.51222 0.316193 -4.03561 255 0 0
-8.2067 0.321224 -4.49604 255 0 0
-6.2689 0.844856 -3.98001 255 0 0
-5.97276 0.475411 -3.98542 255 0 0
-5.62378 -0.273564 -4.62551 255 0 0
-5.54311 0.507411 -4.26509 255 0 0
-6.54642 0.505455 -3.99547 255 0 0
-5.52071 0.456986 -4.04236 255 0 0
-5.55465 0.721795 -4.17155 255 0 0
-6.56115 0.710583 -4.00569 255 0 0
-5.49352 0.846738 -4.37031 255 0 0
-7.21862 0.868484 -3.8192 255 0 0
-7.16438 0.81889 -3.80428 255 0 0
-7.13805 0.773062 -3.79646 255 0 0
-7.1125 0.744719 -3.78936 255 0 0
-7.05704 0.671308 -3.77372 255 0 0
-6.99045 0.514736 -3.75382 255 0 0
-6.98827 0.464623 -3.7524 255 0 0
-6.97855 0.439053 -3.74956 255 0 0
-6.99189 0.406615 -3.7524 255 0 0
-6.97015 0.388771 -3.74672 255 0 0
-6.8033 0.314773 -3.70408 255 0 0
-6.97427 0.306114 -3.74672 255 0 0
-6.97531 0.19852 -3.74601 255 0 0
-6.9792 0.157235 -3.74672 255 0 0
-6.99124 0.124335 -3.74956 255 0 0
-6.98607 0.0911075 -3.74814 255 0 0
-7.0263 -0.0416491 -3.75809 255 0 0
-7.04322 -0.0584499 -3.76235 255 0 0
-7.13822 -0.160813 -3.78651 255 0 0
-7.14825 -0.211919 -3.78936 255 0 0
-8.26126 1.26332 -4.31395 255 0 0
-8.22709 -0.615601 -4.28426 255 0 0
-8.29007 -0.521567 -4.44923 255 0 0
-6.4092 1.31738 -5.05114 255 0 0
-5.53036 -0.03716 -4.19713 255 0 0
-5.56991 1.29856e-05 -4.10628 255 0 0
-5.62562 0.901277 -4.31842 255 0 0
-5.81247 0.973647 -4.11735 255 0 0
-7.3208 0.57396 -4.16522 255 0 0
-6.1213 -0.501842 -4.38109 255 0 0
-5.53743 0.826642 -4.55433 255 0 0
-7.00794 0.876869 -3.82964 255 0 0
-6.95936 0.854037 -3.81642 255 0 0
-6.92392 0.816388 -3.80615 255 0 0
-6.86529 0.710624 -3.78804 255 0 0
-6.85153 0.668164 -3.78339 255 0 0
-6.82506 0.616604 -3.77531 255 0 0
-6.78366 0.362244 -3.75989 255 0 0
-6.79217 0.362691 -3.76209 255 0 0
-6.73154 0.327449 -3.74594 255 0 0
-6.73832 0.303762 -3.74741 255 0 0
-6.72237 0.27909 -3.743 255 0 0
-6.78562 0.257544 -3.75916 255 0 0
-6.78677 0.225364 -3.75916 255 0 0
-6.78776 0.193178 -3.75916 255 0 0
-6.80727 0.0564783 -3.76356 255 0 0
-6.82817 -0.0404702 -3.76895 255 0 0
-6.82413 -0.0728132 -3.76797 255 0 0
-6.84933 -0.097449 -3.77457 255 0 0
-6.93433 -0.222035 -3.79734 255 0 0
-6.97344 -0.239839 -3.80761 255 0 0
-7.06914 -0.259913 -3.83258 255 0 0
-7.48763 -0.293079 -3.94124 255 0 0
-6.44141 0.977209 -4.09894 255 0 0
-5.63879 0.678412 -4.1477 255 0 0
-6.76236 0.764835 -3.88428 255 0 0
-6.31971 0.352492 -3.86631 255 0 0
-5.43645 0.419753 -4.37896 255 0 0
-6.34755 0.263528 -3.93077 255 0 0
-6.43894 0.836704 -3.97334 255 0 0
-5.7241 0.910086 -4.13689 255 0 0
-5.69184 0.739622 -4.17049 255 0 0
-6.84256 0.889151 -3.84887 255 0 0
-6.78293 0.865054 -3.8322 255 0 0
-6.72526 0.809149 -3.81503 255 0 0
-6.65397 0.561402 -3.78926 255 0 0
-6.64275 0.512906 -3.78522 255 0 0
-6.63713 0.512458 -3.78371 255 0 0
-6.65641 0.482205 -3.78825 255 0 0
-6.64457 0.354817 -3.78295 255 0 0
-6.63612 0.354359 -3.78068 255 0 0
-6.6342 0.275429 -3.77916 255 0 0
-6.64049 0.25992 -3.78068 255 0 0
-6.60717 0.242928 -3.77158 255 0 0
-6.64404 0.212744 -3.78118 255 0 0
-6.6435 0.165428 -3.78068 255 0 0
-6.65853 0.0552529 -3.78421 255 0 0
-6.67372 -0.0395636 -3.78825 255 0 0
-6.68478 -0.0713264 -3.79128 255 0 0
-6.69014 -0.0951808 -3.7928 255 0 0
-6.68411 -0.118873 -3.79128 255 0 0
-6.70625 -0.143127 -3.79735 255 0 0
-6.72224 -0.183325 -3.80189 255 0 0
-6.74392 -0.215938 -3.80795 255 0 0
-6.79991 -0.233871 -3.82311 255 0 0
-6.86151 -0.252279 -3.83978 255 0 0
-5.54044 0.177403 -4.04371 255 0 0
-5.41813 0.147771 -4.31136 255 0 0
-5.49838 0.81416 -4.48027 255 0 0
-5.61733 -0.373487 -4.45623 255 0 0
-6.14744 -0.489314 -4.33203 255 0 0
-8.26716 1.22412 -4.31395 255 0 0
-8.31598 1.12074 -4.32332 255 0 0
-6.70748 0.887776 -3.87334 255 0 0
-6.60526 0.842395 -3.84366 255 0 0
-6.59044 0.82463 -3.83897 255 0 0
-6.82024 0.755008 -3.8999 255 0 0
-7.11732 0.736688 -3.98115 255 0 0
-7.11115 0.684962 -3.97803 255 0 0
-7.20238 0.616261 -4.00146 255 0 0
-7.14267 0.585577 -3.98428 255 0 0
-7.14966 0.569087 -3.98584 255 0 0
-6.62331 0.495597 -3.83897 255 0 0
-6.63335 0.433127 -3.84053 255 0 0
-6.62344 0.306438 -3.83585 255 0 0
-6.56907 0.257111 -3.82022 255 0 0
-6.57613 0.218369 -3.82178 255 0 0
-6.61071 0.195983 -3.83116 255 0 0
-6.43534 -0.160245 -4.01499 255 0 0
-6.60854 0.172381 -3.83038 255 0 0
-6.60663 0.133165 -3.8296 255 0 0
-6.59631 0.0703824 -3.82647 255 0 0
-6.82793 0.0404733 -3.89053 255 0 0
-7.17223 0.0255083 -3.98584 255 0 0
-7.23434 -0.00857636 -4.00302 255 0 0
-7.40359 -0.0263311 -4.0499 255 0 0
-7.21165 -0.0427478 -3.99678 255 0 0
-7.29053 -0.0605022 -4.01865 255 0 0
-6.6632 -0.126383 -3.84522 255 0 0
-6.62303 -0.157049 -3.83428 255 0 0
-6.66712 -0.197656 -3.84678 255 0 0
-6.57587 -0.226165 -3.82178 255 0 0
-6.6593 -0.260656 -3.84522 255 0 0
-6.72632 -0.279254 -3.86397 255 0 0
-8.3218 -0.464161 -4.3077 255 0 0
-8.35708 -0.53573 -4.31863 255 0 0
-8.29882 -0.561639 -4.30301 255 0 0
-8.3031 -0.581708 -4.30457 255 0 0
-8.25667 -0.598131 -4.29207 255 0 0
-8.25374 -0.637278 -4.29207 255 0 0
-6.54295 -0.0853287 -4.04822 255 0 0
-5.5188 0.0457991 -4.57355 255 0 0
-5.54183 0.361856 -4.25994 255 0 0
-5.55304 0.621408 -4.16626 255 0 0
-5.79647 -0.419909 -4.30882 255 0 0
-6.00065 -0.47763 -4.74633 255 0 0
-5.51778 0.360279 -4.03865 255 0 0
-6.57698 -0.0389857 -3.99888 255 0 0
-5.53968 -0.276059 -4.41994 255 0 0
-5.77027 0.924453 -4.09953 255 0 0
-8.35387 1.1965 -4.41229 255 0 0
-6.4612 0.847396 -3.86273 255 0 0
-6.58257 0.807797 -3.89572 255 0 0
-6.59564 0.793533 -3.89893 255 0 0
-7.4809 0.882051 -4.1532 255 0 0
-7.65384 0.856461 -4.20148 255 0 0
-7.6942 0.824063 -4.21194 255 0 0
-7.30592 0.660039 -4.09687 255 0 0
-7.31717 0.617343 -4.09902 255 0 0
-7.30132 0.581159 -4.09366 255 0 0
-7.36443 0.568613 -4.11136 255 0 0
-6.59662 0.493599 -3.89089 255 0 0
-6.46462 0.445192 -3.85227 255 0 0
-6.48864 0.423679 -3.8587 255 0 0
-6.56544 0.366198 -3.87962 255 0 0
-6.40968 0.327028 -3.83456 255 0 0
-6.52852 0.317574 -3.86836 255 0 0
-6.48496 0.284637 -3.85548 255 0 0
-6.40154 0.258168 -3.83135 255 0 0
-6.33491 0.232917 -3.81203 255 0 0
-6.38609 0.219638 -3.82652 255 0 0
-6.4647 0.122641 -3.84824 255 0 0
-6.45133 0.0764846 -3.84422 255 0 0
-7.47341 0.0531696 -4.1363 255 0 0
-7.43134 -0.0264298 -4.12423 255 0 0
-7.35778 -0.0785072 -4.10331 255 0 0
-6.68205 -0.0871427 -3.9102 255 0 0
-7.41361 -0.114265 -4.1194 255 0 0
-6.50642 -0.146539 -3.86031 255 0 0
-6.48879 -0.176971 -3.85548 255 0 0
-6.55025 -0.194191 -3.87319 255 0 0
-6.50874 -0.254763 -3.86192 255 0 0
-6.68181 -0.293277 -3.91181 255 0 0
-7.47884 -0.363801 -4.14032 255 0 0
-8.46537 -0.472169 -4.42356 255 0 0
-8.19665 -0.613323 -4.34953 255 0 0
-6.37349 0.310033 -3.93928 255 0 0
-5.54236 0.520593 -4.59582 255 0 0
-5.56854 -0.290765 -4.544 255 0 0
-5.53122 0.260302 -4.25332 255 0 0
-5.58426 0.218577 -4.22019 255 0 0
-8.29032 0.285131 -4.44591 255 0 0
-6.59692 0.920935 -3.96402 255 0 0
-6.46555 0.886971 -3.92427 255 0 0
-6.41197 0.864138 -3.90771 255 0 0
-6.47924 0.826323 -3.92593 255 0 0
-7.51718 0.850207 -4.23063 255 0 0
-7.54347 0.816969 -4.23726 255 0 0
-7.47278 0.791392 -4.21573 255 0 0
-7.34703 0.751669 -4.17764 255 0 0
-7.31408 0.704509 -4.1666 255 0 0
-7.54904 0.492917 -4.23063 255 0 0
-7.66341 0.463902 -4.26375 255 0 0
-6.45669 0.31408 -3.90606 255 0 0
-6.37326 0.294876 -3.88122 255 0 0
-6.3653 0.211329 -3.8779 255 0 0
-6.4161 0.205441 -3.89281 255 0 0
-6.31108 0.142179 -3.86134 255 0 0
-6.35661 0.113049 -3.87459 255 0 0
-6.49185 0.0846623 -3.91434 255 0 0
-7.39643 0.052612 -4.18095 255 0 0
-7.04837 0.0250678 -4.07828 255 0 0
-6.63176 -0.117942 -3.95574 255 0 0
-6.54724 -0.131968 -3.9309 255 0 0
-6.50122 -0.17731 -3.91765 255 0 0
-6.39876 -0.220074 -3.88784 255 0 0
-6.37518 -0.249553 -3.88122 255 0 0
-8.32048 -0.48388 -4.45751 255 0 0
-8.2819 -0.560493 -4.44757 255 0 0
-7.11449 0.838848 -4.24237 255 0 0
-6.50985 -0.0385922 -4.03773 255 0 0
-5.76425 -0.355783 -4.0478 255 0 0
-5.56896 0.509782 -4.16802 255 0 0
-5.89637 -0.455263 -4.63894 255 0 0
-7.31468 0.495035 -4.29485 255 0 0
-5.53351 0.164053 -3.93711 255 0 0
-6.43823 1.34723 -5.06722 255 0 0
-6.47629 0.935425 -3.98866 255 0 0
-6.36756 0.904312 -3.95461 255 0 0
-6.40362 0.847558 -3.96312 255 0 0
-6.27975 0.800881 -3.92396 255 0 0
-7.49904 0.938318 -4.29683 255 0 0
-7.55344 0.908781 -4.31216 255 0 0
-7.53678 0.906762 -4.30705 255 0 0
-7.51317 0.867799 -4.29854 255 0 0
-6.51772 0.659032 -3.99093 255 0 0
-6.52741 0.597509 -3.99207 255 0 0
-6.54395 0.536492 -3.99547 255 0 0
-6.61464 0.494948 -4.0159 255 0 0
-7.51417 0.508553 -4.28889 255 0 0
-7.52746 0.446723 -4.29173 255 0 0
-5.66574 -0.38344 -4.59078 255 0 0
-7.59613 0.423686 -4.31216 255 0 0
-6.51181 0.347721 -3.98185 255 0 0
-6.56254 0.21013 -3.99547 255 0 0
-6.23823 0.184941 -3.89672 255 0 0
-6.29466 0.171677 -3.91375 255 0 0
-6.5511 0.100991 -3.99121 255 0 0
-6.53152 0.100669 -3.98526 255 0 0
-6.56215 0.00779277 -3.99434 255 0 0
-6.54843 -0.0931715 -3.99036 255 0 0
-6.57047 -0.116852 -3.99717 255 0 0
-6.3234 -0.142456 -3.92226 255 0 0
-6.30928 -0.247008 -3.94759 255 0 0
-6.3637 -0.279315 -3.93588 255 0 0
-5.60866 0.755894 -3.9803 255 0 0
-5.41531 0.302047 -4.31289 255 0 0
-6.03539 -0.480396 -4.34722 255 0 0
-5.53222 0.16401 -4.30602 255 0 0
-5.57459 -0.185119 -4.21587 255 0 0
-5.66416 -0.396826 -4.4773 255 0 0
-7.23742 1.09797 -4.29135 255 0 0
-6.70944 1.0016 -4.12343 255 0 0
-6.27273 0.89844 -3.9835 255 0 0
-6.65563 0.816764 -4.09895 255 0 0
-6.52995 0.785629 -4.05872 255 0 0
-6.5103 0.65826 -4.04822 255 0 0
-6.50369 0.610899 -4.04472 255 0 0
-6.46334 0.560742 -4.03073 255 0 0
-6.46397 0.483674 -4.02898 255 0 0
-6.3131 0.397186 -3.98001 255 0 0
-6.46462 0.391333 -4.02723 255 0 0
-6.51102 0.363202 -4.04123 255 0 0
-6.45348 0.283255 -4.02199 255 0 0
-6.51756 0.216425 -4.04123 255 0 0
-6.62628 0.117845 -4.07446 255 0 0
-6.5177 0.0927441 -4.04035 255 0 0
-6.55464 0.0233118 -4.05172 255 0 0
-6.58743 -0.101531 -4.06222 255 0 0
-7.20404 -0.153741 -4.25549 255 0 0
-6.23807 -0.214547 -3.95377 255 0 0
-6.32369 -0.30761 -3.98176 255 0 0
-6.37317 -0.325165 -3.9975 255 0 0
-6.92297 -0.402607 -4.17066 255 0 0
-7.0949 -0.429487 -4.22488 255 0 0
-7.21656 -0.454027 -4.26336 255 0 0
-6.05026 0.91787 -4.02778 255 0 0
-5.73468 -0.347146 -4.17256 255 0 0
-5.53148 0.394118 -4.25663 255 0 0
-5.57299 0.663814 -3.96387 255 0 0
-5.45302 0.408022 -4.49478 255 0 0
-5.57332 0.872571 -4.51725 255 0 0
-5.43933 0.0709403 -4.42738 255 0 0
-5.56242 -0.303651 -4.43047 255 0 0
-6.10621 0.88197 -3.98762 255 0 0
-6.08446 0.856754 -3.97954 255 0 0
-6.13993 0.842302 -3.9966 255 0 0
-6.11982 0.824764 -3.98942 255 0 0
-6.04993 0.800745 -3.96608 255 0 0
-6.1734 0.802198 -4.00558 255 0 0
-6.11441 0.757695 -3.98493 255 0 0
-6.09945 0.719169 -3.97864 255 0 0
-6.19802 0.582179 -4.00558 255 0 0
-6.15792 0.460764 -3.98942 255 0 0
-6.16296 0.387741 -3.98942 255 0 0
-6.11144 0.362679 -3.97236 255 0 0
-6.10827 0.260855 -3.96967 255 0 0
-6.08132 0.238033 -3.96069 255 0 0
-6.09722 0.209703 -3.96548 255 0 0
-6.19512 0.168962 -3.9966 255 0 0
-6.15129 0.138579 -3.98224 255 0 0
-6.07944 0.10812 -3.95889 255 0 0
-6.10197 0.0940485 -3.96608 255 0 0
-6.13578 0.0654686 -3.97685 255 0 0
-6.09691 0.0505967 -3.96428 255 0 0
-6.07481 0.00718851 -3.9571 255 0 0
-6.16105 -0.0438279 -3.98493 255 0 0
-6.13021 -0.0654091 -3.97505 255 0 0
-6.1131 -0.0942068 -3.96967 255 0 0
-6.07359 -0.122421 -3.9571 255 0 0
-6.14537 -0.153025 -3.98044 255 0 0
-6.16942 -0.190231 -3.98852 255 0 0
-6.13756 -0.225661 -3.97864 255 0 0
-6.10359 -0.238905 -3.96787 255 0 0
-6.08074 -0.252451 -3.96069 255 0 0
-6.08569 -0.267112 -3.96249 255 0 0
-6.12923 -0.290874 -3.97685 255 0 0
-6.18939 -0.315789 -3.9966 255 0 0
-6.493 -0.377602 -4.09535 255 0 0
-6.55328 -0.3967 -4.1151 255 0 0
-6.73378 -0.455722 -4.17435 255 0 0
-7.01067 -0.491162 -4.26413 255 0 0
-5.52757 0.107034 -4.03831 255 0 0
-5.42507 0.07075 -4.31366 255 0 0
-6.2851 0.999282 -4.10882 255 0 0
-6.01944 0.898598 -4.01673 255 0 0
-5.95728 0.759762 -3.99002 255 0 0
-5.94249 0.705426 -3.98296 255 0 0
-5.94423 0.658032 -3.98173 255 0 0
-5.94694 0.558599 -3.97928 255 0 0
-5.94768 0.50891 -3.97805 255 0 0
-5.9273 0.450587 -3.96976 255 0 0
-5.92033 0.405394 -3.96639 255 0 0
-5.91892 0.323095 -3.96424 255 0 0
-5.96237 0.290034 -3.97805 255 0 0
-5.92095 0.217693 -3.96332 255 0 0
-5.93902 0.17607 -3.96884 255 0 0
-5.96476 0.106089 -3.97682 255 0 0
-5.96351 0.0636437 -3.97621 255 0 0
-5.95827 -0.0211908 -3.97437 255 0 0
-5.93018 -0.0632748 -3.96516 255 0 0
-5.92969 -0.0984247 -3.96516 255 0 0
-5.93437 -0.140731 -3.967 255 0 0
-5.95124 -0.134072 -3.97253 255 0 0
-5.95524 -0.190684 -3.97437 255 0 0
-5.9741 -0.233854 -3.98112 255 0 0
-6.01822 -0.28562 -3.99647 255 0 0
-6.1813 -0.359475 -4.05172 255 0 0
-6.24986 1.06979 -4.15975 255 0 0
-6.01665 0.985874 -4.07668 255 0 0
-5.85803 0.888707 -4.01816 255 0 0
-5.81142 0.811296 -3.99865 255 0 0
-5.77998 0.662984 -3.98166 255 0 0
-5.78839 0.654677 -3.98417 255 0 0
-5.76808 0.610866 -3.97568 255 0 0
-5.76817 0.583223 -3.97473 255 0 0
-5.76167 0.554981 -3.97159 255 0 0
-5.75042 0.505762 -3.96624 255 0 0
-5.75351 0.457963 -3.96592 255 0 0
-5.74741 0.361596 -3.96152 255 0 0
-5.75159 0.313966 -3.96199 255 0 0
-5.76706 0.0136771 -3.96435 255 0 0
-5.78601 -0.0754571 -3.97096 255 0 0
-5.7961 -0.130577 -3.97473 255 0 0
-5.81502 -0.234521 -3.98229 255 0 0
-5.84184 -0.25641 -3.99172 255 0 0
-5.86269 -0.285212 -3.99928 255 0 0
-5.90003 -0.315053 -4.01249 255 0 0
-5.96998 -0.354301 -4.03703 255 0 0
-6.00741 -0.377954 -4.05025 255 0 0
-6.05627 -0.395447 -4.06724 255 0 0
-6.45133 -0.467349 -4.20317 255 0 0
-6.58839 -0.492983 -4.25037 255 0 0
-6.67009 -0.515003 -4.27868 255 0 0
-6.91835 1.28577 -5.14 255 0 0
-5.54578 0.164412 -4.25773 255 0 0
-5.47214 0.790386 -4.46714 255 0 0
-5.99226 1.0257 -4.12728 255 0 0
-5.88568 0.993097 -4.0886 255 0 0
-5.80738 0.958675 -4.05959 255 0 0
-5.74528 0.927427 -4.03639 255 0 0
-5.60124 0.727849 -3.97644 255 0 0
-5.59198 0.713168 -3.97257 255 0 0
-5.54268 0.560424 -3.94936 255 0 0
-5.53614 0.513389 -3.94549 255 0 0
-5.53386 0.460282 -3.94308 255 0 0
-5.52282 0.406658 -3.93776 255 0 0
-5.52785 0.360939 -3.9384 255 0 0
-5.52741 0.262309 -3.93631 255 0 0
-5.52827 0.209812 -3.93582 255 0 0
-5.5354 0.105007 -3.93727 255 0 0
-5.55572 0.0131678 -3.94404 255 0 0
-5.56665 -0.0396047 -3.94791 255 0 0
-5.62149 -0.180011 -3.96806 255 0 0
-5.63899 -0.20733 -3.9745 255 0 0
-5.66939 -0.242138 -3.98562 255 0 0
-5.70353 -0.291022 -3.99835 255 0 0
-5.76018 -0.334985 -4.01898 255 0 0
-5.84038 -0.38135 -4.04799 255 0 0
-5.95428 -0.417152 -4.0886 255 0 0
-6.06904 -0.439655 -4.12921 255 0 0
-5.53412 0.00656074 -4.19857 255 0 0
-5.5283 0.605355 -4.20938 255 0 0
-5.87143 1.00502 -4.14012 255 0 0
-5.6648 0.811379 -4.05598 255 0 0
-5.64131 0.760285 -4.04509 255 0 0
-5.64486 0.733518 -4.04509 255 0 0
-5.62093 0.703319 -4.03519 255 0 0
-5.593 0.498605 -4.01737 255 0 0
-5.59352 0.42521 -4.01539 255 0 0
-5.58173 0.397705 -4.01044 255 0 0
-5.57616 0.357469 -4.00747 255 0 0
-5.57531 0.211617 -4.0045 255 0 0
-5.59737 0.212448 -4.01242 255 0 0
-5.58384 0.105928 -4.00648 255 0 0
-5.58715 0.0728637 -4.00747 255 0 0
-5.59012 0.0530219 -4.00846 255 0 0
-5.6095 -0.0399078 -4.01539 255 0 0
-5.61625 -0.091018 -4.01803 255 0 0
-5.63633 -0.100239 -4.02529 255 0 0
-5.62995 -0.14019 -4.02331 255 0 0
-5.61119 -0.144153 -4.05175 255 0 0
-5.67886 -0.242518 -4.04212 255 0 0
-5.71553 -0.284829 -4.05598 255 0 0
-5.76734 -0.342238 -4.08924 255 0 0
-5.8067 -0.379151 -4.09062 255 0 0
-5.95774 -0.431592 -4.14606 255 0 0
-6.20287 -0.478928 -4.23514 255 0 0
-6.39397 -0.508937 -4.30444 255 0 0
-5.60271 0.0265684 -4.11871 255 0 0
-5.52613 0.155073 -4.24964 255 0 0
-5.97576 -0.475649 -4.55635 255 0 0
-5.88134 1.03544 -4.2017 255 0 0
-5.72604 0.96616 -4.14094 255 0 0
-5.7457 0.948473 -4.14701 255 0 0
-5.62721 0.853689 -4.0984 255 0 0
-5.61746 0.80684 -4.09233 255 0 0
-5.59888 0.76132 -4.08321 255 0 0
-5.54945 0.694375 -4.06194 255 0 0
-5.53156 0.559298 -4.04979 255 0 0
-5.51749 0.404079 -4.03966 255 0 0
-5.5168 0.264012 -4.03629 255 0 0
-5.54014 0.065685 -4.0427 255 0 0
-5.52949 0.0196723 -4.03865 255 0 0
-5.60885 -0.186247 -4.06903 255 0 0
-5.58346 -0.205288 -4.05992 255 0 0
-5.59889 -0.232447 -4.06599 255 0 0
-5.62576 -0.246925 -4.07612 255 0 0
-6.29678 -0.516228 -4.32931 255 0 0
-5.69449 -0.304077 -4.10245 255 0 0
-5.77444 -0.349553 -4.13284 255 0 0
-5.73982 -0.374784 -4.12068 255 0 0
-5.83663 -0.408909 -4.15714 255 0 0
-5.56962 0.759589 -4.23316 255 0 0
-5.57723 0.846107 -4.63046 255 0 0
-5.44143 0.628505 -4.33586 255 0 0
-6.29469 1.13901 -4.41901 255 0 0
-6.17337 1.10195 -4.37138 255 0 0
-5.82536 1.02559 -4.23676 255 0 0
-5.78931 0.976835 -4.22019 255 0 0
-5.74298 0.95502 -4.20155 255 0 0
-5.75285 0.928649 -4.20362 255 0 0
-5.66521 0.886957 -4.16842 255 0 0
-5.57609 0.778426 -4.12906 255 0 0
-5.61771 0.757096 -4.14356 255 0 0
-5.56228 0.649157 -4.11767 255 0 0
-5.55586 0.608363 -4.11353 255 0 0
-5.59852 0.512473 -4.12596 255 0 0
-5.59441 0.465323 -4.12285 255 0 0
-5.58168 0.417656 -4.11664 255 0 0
-5.59313 0.258781 -4.11733 255 0 0
-5.58852 0.192207 -4.11457 255 0 0
-5.60312 0.106275 -4.11923 255 0 0
-5.60975 0.0598645 -4.12147 255 0 0
-5.55332 -0.0395179 -4.10007 255 0 0
-5.58587 -0.0728471 -4.1125 255 0 0
-5.59641 -0.0995293 -4.11664 255 0 0
-5.66187 -0.114123 -4.14149 255 0 0
-5.61164 -0.153049 -4.12285 255 0 0
-5.76594 -0.328465 -4.18395 255 0 0
-5.7885 -0.364181 -4.19327 255 0 0
-5.76848 -0.390406 -4.18636 255 0 0
-5.81209 -0.421041 -4.20362 255 0 0
-5.99569 -0.462932 -4.27404 255 0 0
-6.22814 -0.510601 -4.3631 255 0 0
-6.21291 1.13944 -4.44881 255 0 0
-6.07314 1.08406 -4.39167 255 0 0
-5.79072 1.01949 -4.27949 255 0 0
-5.68787 0.973595 -4.23716 255 0 0
-5.63857 0.937656 -4.216 255 0 0
-5.64114 0.91062 -4.21529 255 0 0
-5.62716 0.805961 -4.20383 255 0 0
-5.57457 0.737829 -4.18002 255 0 0
-5.63023 0.704479 -4.19977 255 0 0
-5.62437 0.669931 -4.19589 255 0 0
-5.56408 0.555919 -4.16785 255 0 0
-5.56443 0.409728 -4.16308 255 0 0
-5.57896 0.357659 -4.16732 255 0 0
-5.59344 0.165825 -4.16943 255 0 0
-5.56348 0.105517 -4.15726 255 0 0
-5.57023 -0.0418635 -4.15956 255 0 0
-5.53574 -0.0328137 -4.14615 255 0 0
-5.65789 -0.0939035 -4.19377 255 0 0
-5.62205 -0.11332 -4.18002 255 0 0
-5.63814 -0.127018 -4.18637 255 0 0
-5.62689 -0.186847 -4.18266 255 0 0
-5.6276 -0.240314 -4.18372 255 0 0
-5.63188 -0.294042 -4.18637 255 0 0
-5.65105 -0.342097 -4.19483 255 0 0
-5.68161 -0.377755 -4.20753 255 0 0
-5.72381 -0.401005 -4.22446 255 0 0
-5.76096 -0.417337 -4.23928 255 0 0
-5.81984 -0.435476 -4.26256 255 0 0
-5.92221 -0.457259 -4.30277 255 0 0
-6.17993 -0.521403 -4.40437 255 0 0
-5.56099 -0.0923272 -4.26325 255 0 0
-5.46546 0.611593 -4.39945 255 0 0
-8.23613 0.283267 -4.50455 255 0 0
-6.19268 1.13573 -4.50123 255 0 0
-6.11288 1.10612 -4.4978 255 0 0
-5.69617 0.975015 -4.29585 255 0 0
-5.63631 0.937281 -4.26991 255 0 0
-5.57294 0.813941 -4.23748 255 0 0
-5.55984 0.709069 -4.22668 255 0 0
-5.54233 0.626847 -4.21587 255 0 0
-5.54902 0.507957 -4.2137 255 0 0
-5.56628 0.396591 -4.21695 255 0 0
-5.57208 0.35057 -4.21803 255 0 0
-5.58024 0.304617 -4.22019 255 0 0
-5.59069 0.192282 -4.22235 255 0 0
-5.56457 0.156196 -4.21154 255 0 0
-5.55557 0.0592777 -4.20722 255 0 0
-5.54971 -0.0899238 -4.20506 255 0 0
-5.55767 -0.1428 -4.20866 255 0 0
-5.57857 -0.224979 -4.21803 255 0 0
-5.60302 -0.28588 -4.22884 255 0 0
-5.61715 -0.326667 -4.23532 255 0 0
-5.67895 -0.384334 -4.26126 255 0 0
-5.70107 -0.399412 -4.29798 255 0 0
-6.10679 -0.500652 -4.43421 255 0 0
-6.46351 1.16163 -5.06228 255 0 0
-5.74431 0.99728 -4.37249 255 0 0
-5.6565 0.947548 -4.33387 255 0 0
-5.60908 0.857767 -4.30904 255 0 0
-5.59857 0.808645 -4.30187 255 0 0
-5.58328 0.761447 -4.29304 255 0 0
-5.56232 0.669225 -4.2798 255 0 0
-5.54928 0.640963 -4.27318 255 0 0
-5.54471 0.600496 -4.2695 255 0 0
-5.53345 0.532995 -4.26215 255 0 0
-5.53057 0.308476 -4.25405 255 0 0
-5.53624 0.11159 -4.25332 255 0 0
-5.54789 0.0591872 -4.25773 255 0 0
-5.61512 -0.293175 -4.28808 255 0 0
-5.63631 -0.327781 -4.29746 255 0 0
-5.78153 -0.432609 -4.35925 255 0 0
-5.90917 -0.470348 -4.41222 255 0 0
-6.08521 -0.513411 -4.48505 255 0 0
-6.16421 -0.549528 -4.57851 255 0 0
-5.56432 -0.376576 -4.48862 255 0 0
-6.0765 1.11442 -4.574 255 0 0
-6.02594 1.09039 -4.55148 255 0 0
-5.93274 1.059 -4.51095 255 0 0
-5.63948 0.97908 -4.38484 255 0 0
-5.56621 0.857963 -4.34655 255 0 0
-5.56377 0.810358 -4.34261 255 0 0
-5.56585 0.75683 -4.34036 255 0 0
-5.55431 0.568252 -4.32628 255 0 0
-5.54089 0.520463 -4.31878 255 0 0
-5.53433 0.493375 -4.31502 255 0 0
-5.54522 0.461226 -4.3184 255 0 0
-5.54226 0.309128 -4.31277 255 0 0
-5.53272 0.203427 -4.30677 255 0 0
-5.55355 0.0131708 -4.3139 255 0 0
-5.55882 -0.039544 -4.31615 255 0 0
-5.56225 -0.0923273 -4.31784 255 0 0
-5.56649 -0.191443 -4.32065 255 0 0
-5.57734 -0.258051 -4.32628 255 0 0
-5.56592 -0.270749 -4.32178 255 0 0
-5.59967 -0.345637 -4.33754 255 0 0
-5.69367 -0.398894 -4.37808 255 0 0
-5.752 -0.416688 -4.40285 255 0 0
-5.94396 -0.458938 -4.48392 255 0 0
-6.00212 -0.477748 -4.50869 255 0 0
-5.46852 -0.201063 -4.33356 255 0 0
-5.48319 -0.0411753 -4.50167 255 0 0
-6.01417 1.09563 -4.60688 255 0 0
-5.57958 0.955059 -4.41395 255 0 0
-5.53934 0.934658 -4.39558 255 0 0
-5.43907 0.713344 -4.3393 255 0 0
-5.43197 0.662263 -4.33356 255 0 0
-5.41223 0.599139 -4.32208 255 0 0
-5.42036 0.574035 -4.32437 255 0 0
-5.41765 0.547781 -4.32208 255 0 0
-5.42141 0.509232 -4.32208 255 0 0
-5.41398 0.405107 -4.31519 255 0 0
-5.41187 0.109084 -4.3083 255 0 0
-5.42103 0.0128502 -4.31174 255 0 0
-5.43924 -0.083834 -4.31978 255 0 0
-5.45148 -0.142223 -4.32552 255 0 0
-5.43788 -0.14831 -4.31978 255 0 0
-5.4425 -0.174267 -4.32208 255 0 0
-5.4777 -0.240427 -4.33815 255 0 0
-5.49534 -0.284759 -4.34658 255 0 0
-5.52136 -0.334233 -4.35883 255 0 0
-5.58333 -0.377862 -4.38639 255 0 0
-5.63077 -0.394487 -4.40706 255 0 0
-6.00564 -0.506698 -4.57013 255 0 0
-6.03125 -0.523264 -4.58162 255 0 0
-6.11047 -0.544736 -4.61607 255 0 0
-7.15482 1.32972 -5.17507 255 0 0
-6.04414 1.10848 -4.68101 255 0 0
-6.01507 1.08842 -4.66696 255 0 0
-5.78231 1.01801 -4.5616 255 0 0
-5.64194 0.979508 -4.49838 255 0 0
-5.61251 0.960696 -4.48433 255 0 0
-5.58831 0.942921 -4.47262 255 0 0
-5.56799 0.91238 -4.46169 255 0 0
-5.52688 0.851906 -4.43984 255 0 0
-5.51511 0.809969 -4.43203 255 0 0
-5.50297 0.71508 -4.42111 255 0 0
-5.45314 0.412359 -4.38598 255 0 0
-5.45309 0.155204 -4.38013 255 0 0
-5.4576 0.0647032 -4.3813 255 0 0
-5.46199 0.0129425 -4.38306 255 0 0
-5.47735 -0.090934 -4.39008 255 0 0
-5.48344 -0.123533 -4.39301 255 0 0
-5.49173 -0.149778 -4.39691 255 0 0
-5.50304 -0.189272 -4.40238 255 0 0
-5.5748 -0.337481 -4.43672 255 0 0
-5.87522 -0.453631 -4.57096 255 0 0
-5.98113 -0.476076 -4.61779 255 0 0
-6.02277 -0.493764 -4.63652 255 0 0
-6.03763 -0.509397 -4.64355 255 0 0
-6.67999 1.25787 -5.10116 255 0 0
-6.97939 1.32282 -5.16983 255 0 0
-6.13772 1.12565 -4.78448 255 0 0
-5.93244 1.05894 -4.68904 255 0 0
-5.6371 0.978667 -4.55304 255 0 0
-5.56168 0.911346 -4.51486 255 0 0
-5.62404 0.894179 -4.54111 255 0 0
-5.52881 0.845475 -4.49578 255 0 0
-5.47671 0.75794 -4.46714 255 0 0
-5.4527 0.662593 -4.45104 255 0 0
-5.44477 0.61147 -4.44487 255 0 0
-5.43689 0.60187 -4.4409 255 0 0
-5.43969 0.576081 -4.4409 255 0 0
-5.43171 0.549207 -4.43613 255 0 0
-5.4337 0.510391 -4.43533 255 0 0
-5.42769 0.412598 -4.42897 255 0 0
-5.4234 0.205842 -4.42181 255 0 0
-5.41975 0.154245 -4.41942 255 0 0
-5.42354 0.109312 -4.42062 255 0 0
-5.44226 0.109696 -4.42897 255 0 0
-5.45048 0.00645314 -4.43215 255 0 0
-5.45463 -0.0905504 -4.43434 255 0 0
-5.47357 -0.142805 -4.44328 255 0 0
-5.47487 -0.188318 -4.44448 255 0 0
-5.50579 -0.241681 -4.45919 255 0 0
-5.52773 -0.268892 -4.46953 255 0 0
-5.5431 -0.282815 -4.47669 255 0 0
-5.61413 -0.306483 -4.5089 255 0 0
-5.61844 -0.340131 -4.51168 255 0 0
-5.55453 -0.362685 -4.48385 255 0 0
-5.62742 -0.394252 -4.51725 255 0 0
-5.65847 -0.409912 -4.53157 255 0 0
-7.02424 -0.634598 -5.14716 255 0 0
-5.46005 0.454148 -4.49964 255 0 0
-5.97179 1.05867 -4.76698 255 0 0
-5.62056 0.948361 -4.6005 255 0 0
-5.51692 0.75686 -4.54055 255 0 0
-5.49444 0.667655 -4.52516 255 0 0
-5.47861 0.619653 -4.51544 255 0 0
-5.46636 0.559251 -4.50693 255 0 0
-5.4593 0.356463 -4.496 255 0 0
-5.47444 0.0194616 -4.49762 255 0 0
-5.53668 -0.196996 -4.52759 255 0 0
-5.61879 -0.366881 -4.56891 255 0 0
-6.05671 -0.511006 -4.77306 255 0 0
-6.6605 -0.577856 -5.05012 255 0 0
-6.7152 -0.678978 -5.07929 255 0 0
-6.39967 1.36293 -5.05114 255 0 0
-6.4622 1.29637 -5.07341 255 0 0
-6.45785 1.26365 -5.06846 255 0 0
-5.64907 0.918759 -4.66882 255 0 0
-5.72306 0.909921 -4.70223 255 0 0
-5.59213 0.780665 -4.63294 255 0 0
-5.56946 0.750597 -4.62057 255 0 0
-5.56939 0.710304 -4.61809 255 0 0
-5.54816 0.607544 -4.60262 255 0 0
-5.53917 0.553435 -4.59582 255 0 0
-5.52907 0.459898 -4.58716 255 0 0
-5.53965 0.427721 -4.59087 255 0 0
-5.52526 0.406847 -4.58345 255 0 0
-5.51608 0.360171 -4.57767 255 0 0
-5.51989 0.327577 -4.5785 255 0 0
-5.51278 0.261614 -4.57355 255 0 0
-5.5236 0.216203 -4.57767 255 0 0
-5.51314 0.159081 -4.5719 255 0 0
-5.52755 0.150755 -4.5785 255 0 0
-5.53444 0.0721764 -4.58097 255 0 0
-5.54552 0.00657426 -4.58592 255 0 0
-5.56066 -0.0923119 -4.59335 255 0 0
-5.56666 -0.143024 -4.59664 255 0 0
-5.6468 -0.234436 -4.63541 255 0 0
-5.63032 -0.247125 -4.62799 255 0 0
-5.61676 -0.306605 -4.62304 255 0 0
-5.69511 -0.3312 -4.66016 255 0 0
-5.6458 -0.355204 -4.63789 255 0 0
-5.61847 -0.36686 -4.62551 255 0 0
-5.68641 -0.384839 -4.65768 255 0 0
-5.80626 -0.420618 -4.7146 255 0 0
-6.50272 -0.595217 -5.04495 255 0 0
-6.48203 -0.670931 -5.03877 255 0 0
-8.27041 0.363004 -4.44095 255 0 0
-8.2774 0.37315 -4.51818 255 0 0
