ply
format ascii 1.0
comment Created by Open3D
element vertex 124
property double x
property double y
property double z
property uchar red
property uchar green
property uchar blue
end_header
-30.5195 -0.542774 -4.92636 255 0 0
-30.5764 -0.616309 -4.67563 255 0 0
-30.614 -0.471847 -4.9353 255 0 0
-30.8425 -0.914368 -3.92585 255 0 0
-30.7393 -0.619592 -4.17562 255 0 0
-31.8766 0.03779 -3.72372 255 0 0
-31.1579 0.332454 -4.98727 255 0 0
-30.8098 0.0365252 -4.18016 255 0 0
-31.2642 -1.37224 -4.73789 255 0 0
-30.5946 -0.834419 -4.93418 255 0 0
-30.5593 0.0362282 -4.67359 255 0 0
-30.7854 -0.25548 -4.17851 255 0 0
-30.757 -0.109388 -4.17644 255 0 0
-30.4832 -0.61443 -4.92301 255 0 0
-31.7186 -0.112808 -3.71518 255 0 0
-30.7392 -0.182209 -4.1752 255 0 0
-30.5283 -0.687754 -4.92748 255 0 0
-30.8403 -0.987493 -3.92585 255 0 0
-30.5437 -0.977997 -4.92971 255 0 0
-30.7089 -0.0364056 -4.42968 255 0 0
-30.6217 -0.907821 -4.68023 255 0 0
-30.428 -1.11876 -4.9191 255 0 0
-30.6896 -0.909833 -4.42922 255 0 0
-31.8987 -1.0971 -3.72593 255 0 0
-30.7089 0.0364056 -4.42968 255 0 0
-30.754 -1.13074 -4.17768 255 0 0
-30.6957 -0.400312 -3.916 255 0 0
-30.5965 -0.761876 -4.67767 255 0 0
-30.7609 -0.182338 -4.43384 255 0 0
-30.8149 -1.05983 -4.18182 255 0 0
-30.6816 -1.20093 -4.68635 255 0 0
-30.6698 -0.982036 -4.42783 255 0 0
-30.5995 -1.05242 -4.9353 255 0 0
-31.4822 -0.41057 -3.70254 255 0 0
-30.9137 -1.06322 -3.93059 255 0 0
-30.7857 -0.109491 -3.92147 255 0 0
-30.6854 -1.20108 -4.42968 255 0 0
-30.6392 -0.326919 -4.93754 255 0 0
-30.9724 0.257032 -4.70983 255 0 0
-30.7729 0.109445 -4.43476 255 0 0
-30.5243 0.0361868 -4.92636 255 0 0
-30.5243 -0.0361868 -4.92636 255 0 0
-31.613 -0.187389 -3.70949 255 0 0
-31.5474 -0.33661 -3.70601 255 0 0
-30.634 -0.544809 -4.42414 255 0 0
-30.7011 -0.983036 -4.68737 255 0 0
-30.6712 -0.399993 -4.42691 255 0 0
-30.6282 0.254176 -4.93642 255 0 0
-30.7742 -0.0364831 -3.92074 255 0 0
-31.6486 -0.0375196 -3.71139 255 0 0
-31.5247 -0.261616 -3.70475 255 0 0
-31.3058 -0.48251 -3.69305 255 0 0
-31.5267 -0.560686 -3.70507 255 0 0
-31.5019 -0.634963 -3.7038 255 0 0
-31.5938 -0.71176 -3.70886 255 0 0
-31.6914 -0.789141 -3.71424 255 0 0
-31.6836 -0.86412 -3.71392 255 0 0
-31.775 -0.942012 -3.71898 255 0 0
-31.3402 -1.0035 -3.69558 255 0 0
-31.7908 -1.16886 -3.72024 255 0 0
-30.5238 -0.180933 -4.92636 255 0 0
-31.224 0.111049 -3.94883 255 0 0
-30.9788 0.0367255 -3.93351 255 0 0
-30.7445 -0.182241 -3.91892 255 0 0
-30.7206 -0.254942 -3.91746 255 0 0
-30.7433 -0.32803 -3.91892 255 0 0
-30.6654 -0.47264 -3.91418 255 0 0
-30.6759 -0.545555 -3.91491 255 0 0
-30.7037 -0.618875 -3.91673 255 0 0
-30.708 -0.691803 -3.9171 255 0 0
-30.6888 -0.764174 -3.916 255 0 0
-30.7745 -0.839325 -3.92147 255 0 0
-31.1681 -1.14597 -3.94664 255 0 0
-30.6341 -0.254224 -4.68023 255 0 0
-30.4134 0.108166 -4.91574 255 0 0
-30.6042 -0.326546 -4.67767 255 0 0
-31.2356 0.185152 -4.21033 255 0 0
-30.8972 0.109887 -4.18636 255 0 0
-30.7981 -0.0365113 -4.17934 255 0 0
-30.7146 -0.327723 -4.17355 255 0 0
-30.7546 -0.40108 -4.17644 255 0 0
-30.7068 -0.473279 -4.17314 255 0 0
-30.7465 -0.546811 -4.17603 255 0 0
-30.7085 -0.691815 -4.17355 255 0 0
-30.771 -0.766223 -4.1781 255 0 0
-30.7691 -0.839179 -4.1781 255 0 0
-30.7962 -0.912996 -4.18016 255 0 0
-30.8173 -0.98676 -4.18182 255 0 0
-30.8212 -1.20639 -4.18264 255 0 0
-31.5536 -1.31 -4.23472 255 0 0
-30.5999 -0.10883 -4.93362 255 0 0
-30.737 -1.27609 -4.69145 255 0 0
-31.4783 0.26123 -4.49064 255 0 0
-30.9885 0.183688 -4.45185 255 0 0
-30.7495 -0.109362 -4.43291 255 0 0
-30.6728 -0.254546 -4.42691 255 0 0
-30.6955 -0.327519 -4.42876 255 0 0
-30.6702 -0.472714 -4.42691 255 0 0
-30.6735 -0.618265 -4.42737 255 0 0
-30.6427 -0.690333 -4.42506 255 0 0
-30.6468 -0.76313 -4.42553 255 0 0
-30.6916 -0.837065 -4.42922 255 0 0
-30.7199 -1.05656 -4.43199 255 0 0
-30.6765 -1.12789 -4.42876 255 0 0
-31.0032 -1.28715 -4.45508 255 0 0
-30.6346 0.18159 -4.68023 255 0 0
-30.6233 0.108913 -4.67921 255 0 0
-30.5826 -0.0362559 -4.67563 255 0 0
-30.6349 -0.108954 -4.68023 255 0 0
-30.6229 -0.181521 -4.67921 255 0 0
-30.5334 -0.398195 -4.67155 255 0 0
-30.6023 -0.471668 -4.67767 255 0 0
-30.6711 -0.54547 -4.6838 255 0 0
-30.6157 -0.689724 -4.67921 255 0 0
-30.6121 -0.834896 -4.67921 255 0 0
-30.6345 -1.05362 -4.68176 255 0 0
-30.6042 -0.907302 -4.9353 255 0 0
-30.5736 -1.12411 -4.67665 255 0 0
-30.5879 0.181313 -4.93251 255 0 0
-30.6282 -0.254176 -4.93642 255 0 0
-30.4577 -0.397208 -4.92021 255 0 0
-30.5499 -0.760716 -4.92971 255 0 0
-30.5651 -1.19637 -4.93251 255 0 0
-30.5913 -1.27004 -4.9353 255 0 0
