ply
format ascii 1.0
comment Created by Open3D
element vertex 727
property double x
property double y
property double z
property uchar red
property uchar green
property uchar blue
end_header
-26.2595 -25.3117 -2.15156 255 0 0
-25.2616 -24.6989 -3.32194 255 0 0
-26.7231 -23.7573 -2.74305 255 0 0
-25.3062 -24.6254 -3.02742 255 0 0
-27.443 -22.8126 -3.3353 255 0 0
-25.6156 -24.2267 -3.02589 255 0 0
-24.9501 -24.8615 -5.37674 255 0 0
-27.5675 -22.696 -3.039 255 0 0
-25.0527 -24.8457 -4.49675 255 0 0
-26.0186 -23.6892 -3.02385 255 0 0
-28.136 -22.6098 -5.15789 255 0 0
-24.2632 -26.9684 -4.56701 255 0 0
-25.0213 -25.051 -4.50543 255 0 0
-25.7579 -23.9025 -4.19321 255 0 0
-27.5107 -22.54 -4.81392 255 0 0
-25.2466 -24.6843 -3.90931 255 0 0
-27.1396 -23.11 -4.52238 255 0 0
-25.3942 -24.4777 -3.61338 255 0 0
-27.4144 -22.899 -3.03934 255 0 0
-27.0646 -23.2684 -3.63265 255 0 0
-26.8447 -23.5258 -3.93017 255 0 0
-27.1802 -26.9555 -4.70877 255 0 0
-25.059 -24.9701 -3.6182 255 0 0
-24.4263 -26.8921 -2.45293 255 0 0
-26.0548 -24.642 -2.74524 255 0 0
-27.2187 -23.1773 -2.4457 255 0 0
-25.0404 -24.9515 -3.91152 255 0 0
-25.1115 -24.7862 -4.49675 255 0 0
-27.1972 -23.159 -2.74232 255 0 0
-26.822 -23.6185 -3.63479 255 0 0
-26.449 -23.9666 -5.12268 255 0 0
-25.9399 -23.6175 -4.77559 255 0 0
-25.0186 -26.1409 -2.75193 255 0 0
-27.2826 -22.899 -4.22312 255 0 0
-25.8228 -23.9628 -3.02504 255 0 0
-27.1958 -23.0468 -3.92765 255 0 0
-24.9051 -26.0222 -4.54883 255 0 0
-24.9714 -25.968 -4.85041 255 0 0
-27.0979 -22.9638 -5.40524 255 0 0
-26.8518 -23.6448 -3.04105 255 0 0
-26.943 -23.4992 -3.33771 255 0 0
-24.7812 -25.166 -5.09002 255 0 0
-26.2738 -24.3813 -2.44687 255 0 0
-27.5051 -22.7542 -2.44505 255 0 0
-25.1651 -24.839 -3.32304 255 0 0
-25.1418 -24.816 -3.91026 255 0 0
-25.3575 -24.5585 -3.32085 255 0 0
-25.9419 -23.7321 -3.6083 255 0 0
-27.5565 -22.5774 -3.92638 255 0 0
-26.7879 -25.2154 -2.15288 255 0 0
-25.6787 -23.9426 -5.07165 255 0 0
-26.0796 -24.6655 -2.44753 255 0 0
-26.5399 -24.049 -2.74426 255 0 0
-27.196 -23.1579 -3.03934 255 0 0
-24.9835 -26.1041 -3.95389 255 0 0
-27.2431 -23.0868 -2.74207 255 0 0
-26.8372 -24.5511 -2.15115 255 0 0
-27.2327 -22.9674 -4.22348 255 0 0
-26.4939 -24.0073 -3.93334 255 0 0
-25.251 -24.4554 -5.37004 255 0 0
-26.5901 -23.8658 -3.93207 255 0 0
-24.3264 -27.0387 -3.36092 255 0 0
-26.5952 -25.3931 -2.1528 255 0 0
-27.0445 -23.2511 -3.92859 255 0 0
-25.047 -26.0465 -3.05143 255 0 0
-24.754 -25.2579 -4.50254 255 0 0
-25.7233 -23.8704 -4.77652 255 0 0
-25.5912 -24.2036 -3.61124 255 0 0
-26.9539 -23.3964 -3.63265 255 0 0
-27.0364 -23.3558 -3.33683 255 0 0
-26.6893 -25.3623 -2.153 255 0 0
-27.1613 -23.1284 -3.63184 255 0 0
-27.3307 -22.8291 -4.5199 255 0 0
-24.8361 -24.9837 -5.3773 255 0 0
-26.0211 -24.7273 -2.44753 255 0 0
-25.2524 -25.7665 -2.44979 255 0 0
-25.8161 -23.617 -5.35439 255 0 0
-27.3426 -22.9493 -2.44505 255 0 0
-26.561 -24.0681 -2.44687 255 0 0
-27.4473 -22.8162 -2.74171 255 0 0
-26.7053 -23.8551 -2.44643 255 0 0
-25.9043 -23.6977 -4.48435 255 0 0
-29.5948 -23.8977 -3.42331 255 0 0
-25.7584 -24.017 -3.61098 255 0 0
-26.9099 -24.3843 -2.15091 255 0 0
-27.0384 -23.2459 -5.11962 255 0 0
-26.7327 -23.6527 -5.422 255 0 0
-25.8726 -23.7817 -3.6075 255 0 0
-24.7103 -25.3333 -4.50419 255 0 0
-27.6703 -22.5613 -3.03883 255 0 0
-25.9013 -23.695 -4.19102 255 0 0
-27.4081 -22.6739 -4.81439 255 0 0
-27.635 -22.5325 -3.63104 255 0 0
-27.5364 -22.6703 -2.44468 255 0 0
-27.474 -22.7285 -3.63104 255 0 0
-26.7618 -23.7917 -2.44643 255 0 0
-24.934 -26.0524 -4.85318 255 0 0
-25.061 -25.9377 -2.7495 255 0 0
-26.0201 -23.6905 -3.31669 255 0 0
-25.6715 -24.05 -3.6091 255 0 0
-27.0287 -23.4613 -2.44621 255 0 0
-25.1352 -24.9274 -3.32457 255 0 0
-24.8666 -27.2468 -2.15329 255 0 0
-27.2801 -23.9073 -2.15074 255 0 0
-27.6541 -22.4392 -3.92575 255 0 0
-26.5378 -23.9327 -3.93239 255 0 0
-25.8059 -23.8334 -4.19248 255 0 0
-25.7217 -24.097 -3.02555 255 0 0
-26.6293 -23.7873 -4.22859 255 0 0
-27.4388 -26.7006 -4.70919 255 0 0
-25.5861 -24.0841 -5.0742 255 0 0
-24.6428 -25.264 -5.38345 255 0 0
-24.6389 -25.3802 -4.79868 255 0 0
-27.5953 -22.6093 -2.74134 255 0 0
-27.3981 -22.6657 -5.11094 255 0 0
-26.9341 -23.3792 -4.22604 255 0 0
-27.3055 -22.6983 -5.40412 255 0 0
-27.4923 -22.7436 -2.74147 255 0 0
-27.6238 -26.5007 -4.70877 255 0 0
-26.9078 -23.5811 -3.04105 255 0 0
-27.5136 -22.7613 -3.039 255 0 0
-25.4462 -24.4117 -4.20087 255 0 0
-26.0132 -24.7199 -2.74572 255 0 0
-25.2735 -25.7881 -2.75035 255 0 0
-27.5052 -22.5355 -5.11094 255 0 0
-26.2616 -24.3699 -2.74451 255 0 0
-27.0241 -23.1224 -5.40971 255 0 0
-26.7329 -23.6528 -3.93017 255 0 0
-26.8398 -23.6342 -2.74317 255 0 0
-27.2662 -22.9956 -3.63158 255 0 0
-25.6165 -23.8847 -5.35774 255 0 0
-26.7837 -23.6978 -2.74317 255 0 0
-25.3117 -24.6308 -3.32151 255 0 0
-24.415 -26.8797 -2.7546 255 0 0
-26.6471 -23.917 -2.74408 255 0 0
-27.3443 -22.7306 -5.11094 255 0 0
-25.1637 -24.8377 -3.02878 255 0 0
-27.0537 -23.1477 -4.51948 255 0 0
-25.0677 -24.9787 -3.32413 255 0 0
-27.0907 -23.1793 -3.92796 255 0 0
-26.7659 -23.682 -3.63479 255 0 0
-25.5697 -26.0903 -2.15181 255 0 0
-25.9204 -23.8255 -3.31735 255 0 0
-24.9935 -25.0232 -3.91247 255 0 0
-26.9832 -23.3099 -5.11962 255 0 0
-25.8317 -25.0178 -2.44833 255 0 0
-27.4511 -22.8194 -2.44505 255 0 0
-24.5787 -25.3182 -5.38289 255 0 0
-25.8183 -23.7317 -5.06807 255 0 0
-25.8909 -24.9565 -2.44833 255 0 0
-26.7195 -25.2707 -2.15283 255 0 0
-27.0026 -23.3266 -3.92954 255 0 0
-27.1523 -22.8995 -5.40524 255 0 0
-25.1092 -25.9876 -2.45052 255 0 0
-26.8137 -23.7243 -2.44636 255 0 0
-25.0071 -25.0367 -3.02964 255 0 0
-24.9703 -25.9668 -5.15177 255 0 0
-26.6586 -23.7001 -4.82224 255 0 0
-27.3744 -22.8656 -2.44468 255 0 0
-26.8102 -23.6081 -4.82639 255 0 0
-27.082 -23.1719 -4.22458 255 0 0
-25.5359 -24.2662 -3.90488 255 0 0
-24.9939 -26.4897 -2.15134 255 0 0
-28.6051 -22.8753 -5.51141 255 0 0
-26.4083 -24.1588 -2.74378 255 0 0
-24.7988 -25.184 -4.20597 255 0 0
-26.9898 -23.4276 -4.52899 255 0 0
-27.31 -23.0325 -3.03951 255 0 0
-26.6277 -23.7858 -4.52651 255 0 0
-25.7712 -23.8015 -4.77559 255 0 0
-25.0146 -26.1367 -3.35369 255 0 0
-26.9048 -23.5784 -3.33858 255 0 0
-27.1953 -22.9358 -5.11247 255 0 0
-24.8149 -25.2003 -3.91247 255 0 0
-25.188 -24.627 -4.78714 255 0 0
-25.0407 -24.9518 -4.20634 255 0 0
-26.8388 -23.4083 -5.41418 255 0 0
-25.9638 -23.7522 -3.31669 255 0 0
-26.4377 -25.3629 -2.15225 255 0 0
-27.0527 -23.3699 -3.04019 255 0 0
-25.0923 -25.0032 -2.73611 255 0 0
-26.7927 -23.7057 -4.53147 255 0 0
-26.7707 -25.0797 -2.15244 255 0 0
-25.0434 -26.0429 -2.45045 255 0 0
-25.468 -24.4326 -3.02691 255 0 0
-25.9537 -23.7429 -3.02351 255 0 0
-26.6379 -23.7949 -3.93144 255 0 0
-25.0939 -25.8488 -2.74864 255 0 0
-26.6841 -23.8362 -2.74353 255 0 0
-25.9733 -23.648 -4.48559 255 0 0
-24.2828 -26.9902 -3.66074 255 0 0
-27.2903 -22.7953 -5.11094 255 0 0
-25.8405 -23.7521 -4.77698 255 0 0
-27.7118 -22.3772 -3.92606 255 0 0
-25.7127 -25.14 -2.44833 255 0 0
-27.6785 -22.3503 -4.51742 255 0 0
-27.306 -23.0291 -2.44534 255 0 0
-27.4641 -22.8302 -3.03917 255 0 0
-26.5927 -23.9823 -3.3399 255 0 0
-27.657 -26.4069 -4.70588 255 0 0
-26.7715 -23.5741 -4.2264 255 0 0
-27.2944 -22.9088 -4.52155 255 0 0
-27.237 -22.9709 -3.9267 255 0 0
-25.8141 -23.841 -3.90014 255 0 0
-26.3899 -23.9131 -5.41418 255 0 0
-27.3477 -22.9536 -2.74195 255 0 0
-25.7639 -25.0708 -2.44818 255 0 0
-27.1453 -23.0039 -5.11298 255 0 0
-25.1671 -24.7235 -4.79129 255 0 0
-25.7702 -24.0279 -3.02521 255 0 0
-27.2597 -23.101 -3.03968 255 0 0
-27.6075 -22.293 -5.40189 255 0 0
-25.9836 -24.8091 -2.44789 255 0 0
-27.132 -26.9078 -5.34314 255 0 0
-27.1988 -23.0493 -4.52279 255 0 0
-26.4811 -23.9957 -4.23041 255 0 0
-27.1108 -23.1965 -3.63211 255 0 0
-25.3946 -24.478 -3.31976 255 0 0
-25.9416 -24.8869 -2.44818 255 0 0
-24.3193 -26.9022 -2.45213 255 0 0
-24.8918 -25.0398 -4.4984 255 0 0
-24.6061 -25.467 -4.50584 255 0 0
-26.1131 -24.5802 -2.74524 255 0 0
-26.6408 -23.9113 -3.33946 255 0 0
-26.9986 -23.4352 -3.33771 255 0 0
-25.4681 -24.2018 -4.77975 255 0 0
-26.6961 -23.8469 -3.04156 255 0 0
-25.6081 -24.1048 -3.90172 255 0 0
-27.6557 -22.2238 -5.40133 255 0 0
-25.5848 -24.1976 -3.90425 255 0 0
-24.9353 -26.1777 -3.05195 255 0 0
-25.2331 -24.5543 -5.08032 255 0 0
-26.9279 -23.3738 -5.11962 255 0 0
-25.3297 -24.5316 -4.78991 255 0 0
-27.3659 -22.8585 -3.63104 255 0 0
-25.3458 -24.431 -4.78529 255 0 0
-26.1996 -23.854 -5.39686 255 0 0
-24.9975 -25.0271 -4.79868 255 0 0
-27.6702 -22.4521 -3.62997 255 0 0
-26.6974 -23.8481 -3.33946 255 0 0
-26.9495 -23.2807 -5.41418 255 0 0
-26.903 -23.3522 -5.4153 255 0 0
-25.4058 -24.4889 -3.02674 255 0 0
-25.5089 -24.356 -3.02623 255 0 0
-25.8915 -24.8389 -2.7456 255 0 0
-26.8737 -24.4677 -2.15103 255 0 0
-26.8807 -24.9445 -2.15239 255 0 0
-25.6849 -25.9605 -2.15176 255 0 0
-25.611 -26.0088 -2.15169 255 0 0
-25.4874 -26.1299 -2.15169 255 0 0
-24.9671 -26.5873 -2.15156 255 0 0
-25.6464 -24.1408 -4.78668 255 0 0
-24.8611 -25.1278 -4.5013 255 0 0
-27.1455 -23.115 -3.92796 255 0 0
-24.8461 -25.1126 -4.20488 255 0 0
-24.7504 -26.482 -2.45191 255 0 0
-27.5461 -22.6783 -2.74147 255 0 0
-27.1884 -26.8361 -4.38434 255 0 0
-27.6613 -22.3364 -4.813 255 0 0
-26.6373 -23.6811 -5.41697 255 0 0
-25.4846 -24.3328 -3.61178 255 0 0
-27.2914 -22.9063 -3.9267 255 0 0
-25.5146 -24.3614 -3.31997 255 0 0
-27.1682 -23.2456 -2.44578 255 0 0
-25.0332 -25.0629 -3.32545 255 0 0
-27.2602 -23.1014 -2.44548 255 0 0
-26.9862 -23.5369 -2.44643 255 0 0
-26.9215 -23.5931 -2.44629 255 0 0
-26.8699 -23.6607 -2.44636 255 0 0
-26.5125 -24.1389 -2.44702 255 0 0
-26.3401 -24.3268 -2.44702 255 0 0
-26.2287 -24.4555 -2.44709 255 0 0
-26.1792 -24.5256 -2.44724 255 0 0
-26.1423 -24.6076 -2.4476 255 0 0
-25.224 -25.8599 -2.45037 255 0 0
-25.1667 -25.9238 -2.45045 255 0 0
-24.7971 -26.4062 -2.45162 255 0 0
-25.9189 -23.8242 -3.02436 255 0 0
-25.2005 -24.7563 -3.91026 255 0 0
-26.7451 -23.777 -3.33902 255 0 0
-27.0917 -23.2917 -4.52816 255 0 0
-27.5341 -22.5591 -4.22166 255 0 0
-27.3799 -22.8701 -3.33486 255 0 0
-25.9461 -24.7734 -2.74548 255 0 0
-27.3161 -22.9271 -3.63131 255 0 0
-27.0105 -23.4455 -3.04071 255 0 0
-27.9454 -22.4566 -4.53684 255 0 0
-25.3963 -24.4797 -3.90741 255 0 0
-25.2757 -24.5958 -3.90709 255 0 0
-27.4066 -22.8925 -2.74207 255 0 0
-27.2977 -23.0222 -2.74207 255 0 0
-27.0826 -23.2838 -2.7422 255 0 0
-27.0406 -23.3595 -2.74256 255 0 0
-26.9984 -23.435 -2.74293 255 0 0
-26.9339 -23.4913 -2.74268 255 0 0
-26.8826 -23.5589 -2.7428 255 0 0
-26.4742 -24.104 -2.74402 255 0 0
-26.3639 -24.2332 -2.74414 255 0 0
-26.3193 -24.3076 -2.74451 255 0 0
-26.2294 -24.4561 -2.74524 255 0 0
-26.1628 -24.5102 -2.74499 255 0 0
-25.8578 -24.9246 -2.74633 255 0 0
-25.8113 -24.998 -2.7467 255 0 0
-25.7393 -25.0469 -2.74633 255 0 0
-25.6924 -25.1201 -2.7467 255 0 0
-25.6453 -25.1933 -2.74706 255 0 0
-25.1551 -25.7893 -2.74864 255 0 0
-24.739 -26.4698 -2.7529 255 0 0
-25.6687 -24.1619 -3.02572 255 0 0
-25.5807 -24.3089 -3.32041 255 0 0
-25.8566 -23.7669 -4.48518 255 0 0
-24.4347 -26.9014 -3.35982 255 0 0
-27.0917 -23.2917 -3.33683 255 0 0
-27.1543 -23.2338 -3.03985 255 0 0
-27.289 -23.0148 -3.33574 255 0 0
-25.0873 -24.88 -4.20525 255 0 0
-25.7767 -23.92 -3.60857 255 0 0
-27.4983 -22.639 -3.92606 255 0 0
-25.5009 -24.233 -4.48931 255 0 0
-27.7283 -22.4993 -3.039 255 0 0
-27.6258 -22.6342 -3.03917 255 0 0
-27.3555 -22.9602 -3.03917 255 0 0
-27.0992 -23.2981 -3.03985 255 0 0
-26.9592 -23.5133 -3.04088 255 0 0
-26.8045 -23.7161 -3.04139 255 0 0
-26.7481 -23.7796 -3.04139 255 0 0
-26.6525 -23.9218 -3.04207 255 0 0
-26.6044 -23.9928 -3.04241 255 0 0
-26.5474 -24.0558 -3.04241 255 0 0
-25.7802 -24.0372 -3.31888 255 0 0
-25.858 -23.8816 -3.02419 255 0 0
-25.5624 -24.2914 -3.02606 255 0 0
-25.3603 -24.5612 -3.02725 255 0 0
-25.2561 -24.6935 -3.02776 255 0 0
-25.2141 -24.7697 -3.02844 255 0 0
-25.113 -24.9055 -3.02913 255 0 0
-24.6979 -25.5619 -3.03423 255 0 0
-25.031 -24.9421 -4.50047 255 0 0
-24.3748 -26.9636 -2.75533 255 0 0
-24.7388 -26.3442 -3.9542 255 0 0
-27.2018 -23.1629 -3.33683 255 0 0
-28.7447 -23.0988 -3.99404 255 0 0
-27.254 -22.875 -5.11298 255 0 0
-27.7252 -22.4968 -3.33596 255 0 0
-27.6536 -22.5477 -3.33508 255 0 0
-27.6046 -22.6169 -3.3353 255 0 0
-27.5509 -22.6823 -3.3353 255 0 0
-27.506 -22.755 -3.33574 255 0 0
-27.33 -22.9388 -3.33508 255 0 0
-27.2522 -23.0946 -3.33661 255 0 0
-27.1468 -23.2274 -3.33683 255 0 0
-26.8488 -23.6421 -3.33858 255 0 0
-26.8058 -23.7173 -3.33924 255 0 0
-26.5488 -24.057 -3.34055 255 0 0
-25.8681 -23.8909 -3.31757 255 0 0
-25.8199 -23.9601 -3.318 255 0 0
-25.7231 -24.0983 -3.31888 255 0 0
-25.6787 -24.1712 -3.31954 255 0 0
-25.6256 -24.2361 -3.31976 255 0 0
-25.4694 -24.4339 -3.32063 255 0 0
-25.2155 -24.7711 -3.3226 255 0 0
-27.3847 -22.7642 -4.5199 255 0 0
-25.0278 -24.9389 -4.79545 255 0 0
-25.2529 -24.6904 -3.61552 255 0 0
-27.1641 -23.0199 -4.81716 255 0 0
-27.0453 -23.3635 -4.52899 255 0 0
-26.5772 -23.8543 -4.22895 255 0 0
-25.0387 -24.7143 -5.37283 255 0 0
-29.3539 -23.5884 -3.72255 255 0 0
-27.7233 -22.3865 -3.62997 255 0 0
-27.5724 -22.5905 -3.63051 255 0 0
-27.5414 -22.6744 -3.63184 255 0 0
-27.429 -22.801 -3.63158 255 0 0
-27.216 -23.0639 -3.63184 255 0 0
-27.027 -23.3478 -3.63372 255 0 0
-26.916 -23.4757 -3.63372 255 0 0
-26.8603 -23.5394 -3.63372 255 0 0
-26.7184 -23.7532 -3.63532 255 0 0
-26.6533 -23.8087 -3.63479 255 0 0
-26.6185 -23.8913 -3.63613 255 0 0
-26.5488 -23.9426 -3.63532 255 0 0
-26.5049 -24.0173 -3.63613 255 0 0
-26.0067 -23.6784 -3.60883 255 0 0
-25.8377 -23.8628 -3.60883 255 0 0
-25.64 -24.1348 -3.61071 255 0 0
-25.5677 -24.2964 -3.61338 255 0 0
-25.4437 -24.4093 -3.61285 255 0 0
-25.3655 -24.5663 -3.61526 255 0 0
-25.2862 -24.606 -3.61392 255 0 0
-25.211 -24.7666 -3.61659 255 0 0
-25.1688 -24.8428 -3.61766 255 0 0
-25.0974 -24.89 -3.61686 255 0 0
-25.008 -25.0377 -3.61873 255 0 0
-24.9486 -25.0969 -3.61873 255 0 0
-24.8849 -25.1519 -3.61847 255 0 0
-26.5799 -23.8567 -4.52734 255 0 0
-27.0567 -23.0393 -5.40692 255 0 0
-27.4437 -22.4851 -5.40133 255 0 0
-29.3831 -23.4975 -5.2916 255 0 0
-27.1976 -22.8276 -5.40412 255 0 0
-27.6009 -22.5047 -3.92575 255 0 0
-27.4446 -22.7041 -3.92606 255 0 0
-27.3997 -22.7766 -3.9267 255 0 0
-27.3456 -22.8415 -3.9267 255 0 0
-26.9428 -23.3867 -3.92923 255 0 0
-26.896 -23.4582 -3.92986 255 0 0
-26.7933 -23.5932 -3.93049 255 0 0
-26.6942 -23.7317 -3.93144 255 0 0
-26.1127 -23.7749 -3.90962 255 0 0
-25.9139 -23.7065 -3.89919 255 0 0
-25.8705 -23.7797 -3.90014 255 0 0
-25.7703 -23.9141 -3.90109 255 0 0
-27.405 -26.6677 -5.02544 255 0 0
-25.7221 -23.9831 -3.90172 255 0 0
-25.6694 -24.048 -3.90204 255 0 0
-25.5036 -24.3509 -3.90678 255 0 0
-25.4332 -24.3992 -3.90583 255 0 0
-25.376 -24.5765 -3.91026 255 0 0
-25.1119 -24.9044 -3.91247 255 0 0
-24.9341 -25.0824 -3.91247 255 0 0
-24.8664 -25.1331 -3.91184 255 0 0
-24.2727 -26.979 -3.96242 255 0 0
-25.6107 -24.222 -4.20014 255 0 0
-25.5131 -25.3023 -2.7467 255 0 0
-24.7554 -25.2594 -4.20743 255 0 0
-26.4987 -23.7838 -5.41362 255 0 0
-24.6346 -25.4964 -5.10175 255 0 0
-26.8343 -23.5166 -5.12166 255 0 0
-26.4751 -23.9903 -4.52816 255 0 0
-25.2344 -24.6723 -4.20269 255 0 0
-26.542 -23.7093 -5.41195 255 0 0
-24.908 -26.6507 -2.15159 255 0 0
-29.47 -23.567 -4.35516 255 0 0
-27.8516 -22.3812 -4.23005 255 0 0
-27.6984 -22.3664 -4.22202 255 0 0
-27.6362 -22.4246 -4.22129 255 0 0
-27.583 -22.4901 -4.22129 255 0 0
-27.485 -22.628 -4.22202 255 0 0
-27.4358 -22.6969 -4.22239 255 0 0
-27.3819 -22.7619 -4.22239 255 0 0
-27.3413 -22.838 -4.22348 255 0 0
-27.1826 -23.0356 -4.22385 255 0 0
-27.1324 -23.1038 -4.22421 255 0 0
-27.0447 -23.2513 -4.22604 255 0 0
-26.9895 -23.3153 -4.22604 255 0 0
-26.8742 -23.4392 -4.22567 255 0 0
-26.8362 -23.5183 -4.22713 255 0 0
-26.7375 -23.6569 -4.22822 255 0 0
-26.6857 -23.7241 -4.22859 255 0 0
-26.5249 -23.9211 -4.22932 255 0 0
-25.9834 -23.6571 -4.19321 255 0 0
-25.8494 -23.7603 -4.19139 255 0 0
-25.7054 -23.9675 -4.19357 255 0 0
-25.6655 -24.0444 -4.19503 255 0 0
-25.6085 -24.1051 -4.19503 255 0 0
-25.5532 -24.2827 -4.20014 255 0 0
-25.4955 -24.3432 -4.20014 255 0 0
-25.4135 -24.4963 -4.20306 255 0 0
-26.4413 -23.9597 -4.82316 255 0 0
-25.3469 -24.5483 -4.20233 255 0 0
-25.2677 -24.588 -4.2005 255 0 0
-25.1758 -24.7321 -4.20269 255 0 0
-25.1421 -24.8163 -4.20488 255 0 0
-25.0062 -25.0359 -4.20853 255 0 0
-24.9056 -25.0537 -4.20488 255 0 0
-24.6954 -25.318 -4.20743 255 0 0
-24.6475 -25.3891 -4.20853 255 0 0
-25.8709 -23.6672 -4.77421 255 0 0
-24.887 -24.9165 -5.37618 255 0 0
-24.6632 -26.3888 -4.8578 255 0 0
-25.362 -25.634 -2.44957 255 0 0
-25.4269 -24.1627 -5.36277 255 0 0
-29.472 -23.5685 -4.67034 255 0 0
-27.6527 -22.438 -4.5199 255 0 0
-27.5858 -22.4924 -4.51866 255 0 0
-27.5414 -22.5651 -4.51948 255 0 0
-27.4788 -22.623 -4.51866 255 0 0
-27.4341 -22.6955 -4.51948 255 0 0
-27.2355 -22.9697 -4.52114 255 0 0
-26.9342 -23.4915 -4.52899 255 0 0
-26.8872 -23.563 -4.52982 255 0 0
-26.84 -23.6344 -4.53064 255 0 0
-26.7233 -23.7575 -4.53023 255 0 0
-26.5319 -23.9275 -4.52816 255 0 0
-25.8002 -23.8282 -4.48518 255 0 0
-25.7436 -23.8893 -4.48518 255 0 0
-25.6997 -23.9622 -4.48642 255 0 0
-25.6471 -24.0271 -4.48683 255 0 0
-25.6326 -24.1278 -4.49097 255 0 0
-25.5923 -24.2046 -4.49262 255 0 0
-25.511 -24.3579 -4.49592 255 0 0
-25.3994 -24.4827 -4.49634 255 0 0
-25.3077 -24.5103 -4.49303 255 0 0
-25.2244 -24.5458 -4.49055 255 0 0
-25.2163 -24.6546 -4.49551 255 0 0
-25.1577 -24.7143 -4.49551 255 0 0
-24.8097 -25.195 -4.50212 255 0 0
-24.6502 -25.3918 -4.50419 255 0 0
-24.9898 -24.9011 -5.08644 255 0 0
-25.3499 -24.3193 -5.3678 255 0 0
-28.6833 -23.0496 -4.91137 255 0 0
-27.6083 -22.4019 -4.813 255 0 0
-27.5686 -22.4784 -4.81439 255 0 0
-27.4572 -22.6052 -4.81392 255 0 0
-27.3587 -22.7426 -4.81485 255 0 0
-27.3137 -22.8149 -4.81577 255 0 0
-27.2595 -22.8796 -4.81577 255 0 0
-27.2141 -22.9516 -4.81669 255 0 0
-27.1094 -23.0842 -4.81716 255 0 0
-27.1167 -23.2016 -4.82362 255 0 0
-27.024 -23.3452 -4.82547 255 0 0
-26.951 -23.3939 -4.82362 255 0 0
-26.9174 -23.4769 -4.82593 255 0 0
-26.8617 -23.5406 -4.82593 255 0 0
-26.7629 -23.6793 -4.82732 255 0 0
-26.6024 -23.7632 -4.82224 255 0 0
-26.559 -23.8379 -4.82362 255 0 0
-26.5024 -23.9008 -4.82362 255 0 0
-25.6922 -23.9552 -4.77929 255 0 0
-25.6268 -24.0081 -4.77836 255 0 0
-25.5594 -24.1735 -4.78344 255 0 0
-27.6524 -26.4026 -5.02498 255 0 0
-25.4036 -24.3708 -4.78529 255 0 0
-25.2171 -24.5387 -4.7839 255 0 0
-25.1208 -24.7954 -4.79268 255 0 0
-25.0744 -24.8672 -4.79406 255 0 0
-24.901 -25.049 -4.79453 255 0 0
-24.8374 -25.1039 -4.79406 255 0 0
-24.7819 -25.1668 -4.79453 255 0 0
-24.7426 -25.2464 -4.79684 255 0 0
-24.6868 -25.3091 -4.7973 255 0 0
-24.6598 -25.5225 -4.80792 255 0 0
-24.9842 -24.7777 -5.37339 255 0 0
-27.497 -22.4199 -5.40133 255 0 0
-26.1643 -25.4605 -2.15171 255 0 0
-24.9655 -25.1139 -3.32501 255 0 0
-24.7972 -25.0632 -5.38009 255 0 0
-25.4799 -24.0983 -5.36221 255 0 0
-27.6467 -22.3246 -5.1089 255 0 0
-27.6027 -22.3974 -5.10992 255 0 0
-27.5405 -22.4555 -5.1089 255 0 0
-27.4517 -22.6006 -5.11094 255 0 0
-27.0995 -23.0758 -5.114 255 0 0
-27.0447 -23.14 -5.114 255 0 0
-26.8724 -23.4376 -5.11962 255 0 0
-26.8004 -23.5995 -5.12421 255 0 0
-26.7269 -23.6475 -5.12217 255 0 0
-26.6969 -23.7341 -5.12523 255 0 0
-26.6231 -23.7817 -5.12319 255 0 0
-26.5406 -23.8214 -5.12013 255 0 0
-26.4971 -23.896 -5.12166 255 0 0
-25.9176 -23.5973 -5.06654 255 0 0
-25.8616 -23.6587 -5.06654 255 0 0
-25.7705 -23.8008 -5.06909 255 0 0
-25.7354 -23.8817 -5.07165 255 0 0
-25.6219 -24.0035 -5.07165 255 0 0
-25.5459 -24.1608 -5.07624 255 0 0
-27.6619 -26.2866 -5.33855 255 0 0
-25.4057 -24.2575 -5.07318 255 0 0
-25.4366 -24.4024 -5.08389 255 0 0
-25.2988 -24.3858 -5.0742 255 0 0
-25.2661 -24.47 -5.07726 255 0 0
-25.1873 -24.6263 -5.08185 255 0 0
-25.1288 -24.6859 -5.08185 255 0 0
-25.0951 -24.77 -5.08491 255 0 0
-25.0239 -24.8171 -5.08338 255 0 0
-24.976 -25.0057 -5.09206 255 0 0
-24.8755 -25.0234 -5.08696 255 0 0
-24.8243 -25.0906 -5.08798 255 0 0
-24.7296 -25.2331 -5.09104 255 0 0
-24.6778 -25.3 -5.09206 255 0 0
-24.6178 -25.3584 -5.09206 255 0 0
-24.9208 -26.0386 -5.1533 255 0 0
-27.5395 -26.5456 -5.02636 255 0 0
-27.5591 -22.362 -5.40245 255 0 0
-27.3948 -22.5538 -5.40189 255 0 0
-27.3503 -22.6261 -5.403 255 0 0
-27.2427 -22.7555 -5.403 255 0 0
-27.0134 -23.2244 -5.4153 255 0 0
-26.8051 -23.4911 -5.41697 255 0 0
-26.7625 -23.5661 -5.41865 255 0 0
-26.4422 -23.8466 -5.41362 255 0 0
-25.7729 -23.69 -5.35607 255 0 0
-25.7252 -23.759 -5.35718 255 0 0
-25.6688 -23.8199 -5.35718 255 0 0
-25.5726 -23.9573 -5.35942 255 0 0
-25.5242 -24.0258 -5.36054 255 0 0
-25.3822 -24.235 -5.36445 255 0 0
-25.2838 -24.3712 -5.36668 255 0 0
-25.193 -24.5152 -5.37004 255 0 0
-25.1431 -24.583 -5.37115 255 0 0
-25.1014 -24.6589 -5.37339 255 0 0
-24.7337 -25.1178 -5.37954 255 0 0
-24.6944 -25.1972 -5.38233 255 0 0
-24.9358 -25.8081 -5.44044 255 0 0
-24.927 -25.9218 -5.44771 255 0 0
-24.8776 -25.9935 -5.44938 255 0 0
-24.715 -26.4442 -3.35435 255 0 0
-24.7929 -26.6539 -2.15127 255 0 0
-24.4702 -26.8125 -2.45256 255 0 0
-27.2944 -26.6865 -4.38251 255 0 0
-24.4414 -26.9088 -3.05774 255 0 0
-24.3394 -26.9245 -3.35807 255 0 0
-24.7811 -26.2642 -3.95262 255 0 0
-27.2088 -26.984 -5.03191 255 0 0
-24.2963 -26.8767 -4.86657 255 0 0
-24.6881 -26.5413 -3.35632 255 0 0
-24.0715 -27.6653 -2.15239 255 0 0
-24.9829 -25.9799 -4.55048 255 0 0
-25.8083 -25.9618 -2.15212 255 0 0
-27.523 -26.6558 -4.71125 255 0 0
-24.8375 -25.2233 -3.61927 255 0 0
-27.1244 -23.2082 -2.74183 255 0 0
-27.2274 -26.8746 -4.70712 255 0 0
-24.0958 -27.4295 -3.06233 255 0 0
-27.4317 -23.6973 -2.15064 255 0 0
-24.9135 -26.1548 -3.95325 255 0 0
-27.0078 -24.2407 -2.15081 255 0 0
-27.799 -26.1671 -5.34008 255 0 0
-25.2894 -25.6822 -2.74901 255 0 0
-27.4027 -26.6655 -5.34518 255 0 0
-25.0524 -25.9288 -3.64924 255 0 0
-24.5063 -26.852 -2.75546 255 0 0
-24.6742 -25.4165 -3.32545 255 0 0
-25.3184 -26.2042 -2.15142 255 0 0
-27.3394 -26.7304 -5.34518 255 0 0
-26.9502 -24.3047 -2.15081 255 0 0
-24.0114 -27.4645 -3.06148 255 0 0
-26.753 -24.5909 -2.151 255 0 0
-27.0621 -23.378 -2.44585 255 0 0
-27.3533 -23.7431 -2.15052 255 0 0
-27.3146 -23.8233 -2.15061 255 0 0
-27.2277 -23.9758 -2.15076 255 0 0
-27.1576 -24.0286 -2.15069 255 0 0
-27.1093 -24.1007 -2.15074 255 0 0
-27.0565 -24.1688 -2.15076 255 0 0
-26.7592 -24.7139 -2.15137 255 0 0
-26.2288 -25.4024 -2.15173 255 0 0
-26.0536 -25.4733 -2.15142 255 0 0
-25.4335 -26.1987 -2.15173 255 0 0
-25.1695 -26.5493 -2.15203 255 0 0
-24.5067 -26.9807 -2.15147 255 0 0
-24.4034 -26.9953 -2.15122 255 0 0
-24.3415 -27.1848 -2.15164 255 0 0
-24.3815 -26.971 -3.05791 255 0 0
-27.1041 -23.3023 -2.44563 255 0 0
-26.6049 -23.9933 -2.44665 255 0 0
-26.4379 -24.1858 -2.44672 255 0 0
-26.402 -24.2683 -2.44709 255 0 0
-25.6823 -25.2296 -2.44884 255 0 0
-25.6099 -25.2781 -2.44862 255 0 0
-25.3134 -25.7066 -2.44979 255 0 0
-24.8596 -26.3473 -2.45162 255 0 0
-24.6796 -26.5321 -2.45176 255 0 0
-23.9622 -27.5397 -2.45512 255 0 0
-25.5814 -25.2499 -2.74694 255 0 0
-25.0481 -26.0477 -2.75095 255 0 0
-24.8602 -26.348 -2.75278 255 0 0
-24.7856 -26.394 -2.75241 255 0 0
-24.6841 -26.537 -2.75314 255 0 0
-24.3225 -27.0344 -2.7557 255 0 0
-25.0539 -24.965 -3.02913 255 0 0
-24.9435 -25.0918 -3.02947 255 0 0
-24.778 -25.4026 -3.03253 255 0 0
-24.7014 -25.4445 -3.03185 255 0 0
-25.0054 -26.127 -3.05229 255 0 0
-24.7498 -26.4814 -3.05467 255 0 0
-24.691 -26.5443 -3.05484 255 0 0
-24.8976 -25.1647 -3.32457 255 0 0
-24.9106 -25.7821 -3.34143 255 0 0
-25.0684 -26.0688 -3.35325 255 0 0
-24.9607 -26.2044 -3.35413 255 0 0
-24.8099 -26.1701 -3.34931 255 0 0
-23.974 -27.4217 -3.36289 255 0 0
-23.9859 -27.3044 -4.26835 255 0 0
-24.8022 -25.3072 -3.62088 255 0 0
-25.0436 -26.043 -3.65271 255 0 0
-24.9777 -26.0981 -3.65245 255 0 0
-24.9319 -26.1741 -3.65352 255 0 0
-24.8657 -26.2289 -3.65325 255 0 0
-24.3585 -26.9456 -3.66154 255 0 0
-24.0692 -27.3992 -3.66823 255 0 0
-24.7551 -25.2591 -3.91247 255 0 0
-24.7115 -25.3345 -3.91373 255 0 0
-24.6473 -25.3888 -3.91342 255 0 0
-24.8474 -26.2096 -3.95294 255 0 0
-27.5088 -26.6421 -4.39017 255 0 0
-27.2311 -26.7511 -4.38251 255 0 0
-27.1413 -26.917 -4.38579 255 0 0
-24.6035 -25.4643 -4.20999 255 0 0
-24.8635 -26.2266 -4.25558 255 0 0
-24.7852 -26.2685 -4.25412 255 0 0
-24.7388 -26.3442 -4.25558 255 0 0
-24.6404 -26.3643 -4.2523 255 0 0
-24.3131 -26.8954 -4.26288 255 0 0
-24.2532 -26.9573 -4.26324 255 0 0
-27.7904 -26.2835 -4.70671 255 0 0
-27.7237 -26.3453 -4.70629 255 0 0
-27.5609 -26.5662 -4.70877 255 0 0
-27.3712 -26.7615 -4.70877 255 0 0
-27.291 -26.81 -4.70712 255 0 0
-24.7915 -26.2752 -4.55627 255 0 0
-24.7331 -26.3381 -4.55668 255 0 0
-24.6906 -26.418 -4.55875 255 0 0
-24.3114 -26.8935 -4.56536 255 0 0
-27.7885 -26.1572 -5.01944 255 0 0
-27.7603 -26.2551 -5.02313 255 0 0
-27.7107 -26.3329 -5.02452 255 0 0
-27.594 -26.4721 -5.02544 255 0 0
-27.4975 -26.6311 -5.02867 255 0 0
-24.7177 -26.3217 -4.85687 255 0 0
-27.7496 -26.245 -5.34161 255 0 0
-27.6291 -26.3803 -5.34212 255 0 0
-27.5538 -26.4336 -5.34059 255 0 0
-27.5121 -26.5191 -5.34314 255 0 0
-27.4742 -26.6086 -5.3462 255 0 0
-24.871 -26.1103 -5.15483 255 0 0
-24.805 -26.1649 -5.15432 255 0 0
-24.6382 -26.362 -5.15687 255 0 0
-24.6034 -26.4502 -5.16044 255 0 0
-24.2716 -26.8495 -5.16657 255 0 0
-24.8119 -26.0482 -5.44883 255 0 0
-24.7541 -26.1111 -5.44938 255 0 0
-24.301 -26.7542 -5.46503 255 0 0
-24.3157 -26.8982 -5.47621 255 0 0
-23.9004 -27.3376 -5.48123 255 0 0
-23.8509 -27.4117 -5.48347 255 0 0
