ply
format ascii 1.0
comment Created by Open3D
element vertex 69
property double x
property double y
property double z
property uchar red
property uchar green
property uchar blue
end_header
-27.5626 -7.39121 -4.97532 255 0 0
-27.7507 -6.95011 -4.02435 255 0 0
-28.5396 -6.14884 -5.04393 255 0 0
-27.9712 -6.93489 -4.03923 255 0 0
-27.9247 -7.34656 -3.8022 255 0 0
-27.9974 -6.87096 -3.79928 255 0 0
-28.0426 -6.46054 -4.03633 255 0 0
-27.6484 -6.57715 -4.96317 255 0 0
-28.0371 -6.5293 -3.79673 255 0 0
-27.8041 -6.68388 -4.02352 255 0 0
-27.8354 -7.39366 -4.03799 255 0 0
-28.1132 -6.89937 -3.56532 255 0 0
-28.7243 -6.25994 -4.57204 255 0 0
-27.7737 -7.58917 -4.51896 255 0 0
-28.1819 -6.98711 -3.57006 255 0 0
-28.3115 -7.4483 -3.58303 255 0 0
-27.9083 -7.20092 -3.79892 255 0 0
-27.6518 -6.78614 -4.96864 255 0 0
-27.9298 -7.41875 -3.80366 255 0 0
-29.5726 -7.18323 -3.64563 255 0 0
-27.8623 -6.55828 -4.98443 255 0 0
-28.0975 -7.17871 -3.56817 255 0 0
-28.0023 -6.8018 -3.79856 255 0 0
-28.9337 -6.23375 -4.83751 255 0 0
-28.3321 -6.45653 -3.57133 255 0 0
-28.2655 -6.51187 -3.56848 255 0 0
-28.2784 -6.5855 -3.57006 255 0 0
-28.2343 -6.64583 -3.56848 255 0 0
-29.7087 -7.06727 -3.65132 255 0 0
-28.2536 -6.79194 -3.57133 255 0 0
-29.6398 -7.42323 -3.65227 255 0 0
-29.5881 -7.48488 -3.65037 255 0 0
-29.4493 -7.67304 -3.64563 255 0 0
-28.0183 -6.73539 -3.79856 255 0 0
-28.8469 -6.28665 -4.33593 255 0 0
-28.1278 -6.2698 -4.03923 255 0 0
-28.8886 -6.36754 -3.84634 255 0 0
-28.1776 -6.2809 -3.80184 255 0 0
-28.117 -6.33741 -3.79892 255 0 0
-28.0791 -6.39887 -3.79746 255 0 0
-28.0866 -6.47067 -3.79892 255 0 0
-28.0158 -6.59441 -3.79637 255 0 0
-28.0001 -6.66082 -3.79637 255 0 0
-27.9754 -6.93592 -3.79892 255 0 0
-27.9929 -7.01075 -3.80111 255 0 0
-27.9308 -7.06563 -3.79819 255 0 0
-27.9197 -7.13328 -3.79856 255 0 0
-27.9364 -7.27886 -3.80184 255 0 0
-27.9065 -7.48344 -3.8033 255 0 0
-29.0381 -6.40047 -4.10412 255 0 0
-28.0465 -6.39143 -4.03551 255 0 0
-27.8866 -6.564 -4.02724 255 0 0
-27.9016 -6.77736 -4.03179 255 0 0
-27.7967 -7.10187 -4.03013 255 0 0
-27.8701 -7.26158 -4.03799 255 0 0
-27.8076 -7.31575 -4.03468 255 0 0
-27.8841 -7.54834 -4.28559 255 0 0
-30.1076 -6.48667 -4.69452 255 0 0
-28.543 -6.22042 -4.80063 255 0 0
-27.71 -7.36036 -4.74867 255 0 0
-27.5574 -7.38981 -4.73526 255 0 0
-27.7966 -6.05776 -4.96621 255 0 0
-27.7651 -6.11989 -4.96439 255 0 0
-27.9153 -6.22245 -4.982 255 0 0
-27.7303 -6.45786 -4.96864 255 0 0
-27.6553 -6.64813 -4.9656 255 0 0
-27.7074 -6.73018 -4.97289 255 0 0
-27.648 -7.27376 -4.98078 255 0 0
-27.5462 -7.31686 -4.97167 255 0 0
